<svg xmlns="http://www.w3.org/2000/svg" width="32" height="32" fill="none" viewBox="0 0 32 32">
  <path fill="#4A4A4F" d="M16 3a13 13 0 1 0 13 13A13.013 13.013 0 0 0 16 3Zm6.824 5.625a1 1 0 0 1 1.411.088 11 11 0 0 1 2.2 3.808 1 1 0 0 1-1.897.635 8.983 8.983 0 0 0-1.8-3.125 1 1 0 0 1 .086-1.406ZM9.176 23.381a1 1 0 0 1-1.411-.087 11.001 11.001 0 0 1-2.2-3.809 1 1 0 0 1 1.898-.635 8.984 8.984 0 0 0 1.8 3.119.999.999 0 0 1-.087 1.412Zm.087-13.35a8.984 8.984 0 0 0-1.8 3.125 1.001 1.001 0 0 1-1.898-.635 11 11 0 0 1 2.2-3.809 1 1 0 1 1 1.5 1.325l-.002-.006Zm8.936 16.75a10.966 10.966 0 0 1-4.398 0 1 1 0 0 1 .398-1.96 9.01 9.01 0 0 0 3.602 0 1 1 0 0 1 .398 1.96Zm.781-20.375a1 1 0 0 1-1.18.775 9.01 9.01 0 0 0-3.603 0 1 1 0 1 1-.397-1.96 10.99 10.99 0 0 1 4.398 0A1 1 0 0 1 18.98 6.4v.006Zm7.455 13.085a10.998 10.998 0 0 1-2.2 3.809 1 1 0 1 1-1.5-1.325 8.984 8.984 0 0 0 1.8-3.119 1 1 0 1 1 1.898.635h.002Z"/>
</svg>
