<svg xmlns="http://www.w3.org/2000/svg" width="32" height="32" fill="none" viewBox="0 0 32 32">
  <path fill="#4A4A4F" d="M13 19v-6h6v6h-6ZM4 6.625V18.5a.5.5 0 0 0 .5.5H11v-6.586L4.854 6.268A.5.5 0 0 0 4 6.625ZM27.5 13H21v6.586l6.146 6.147a.5.5 0 0 0 .854-.358V13.5a.5.5 0 0 0-.5-.5ZM19 4.5a.5.5 0 0 0-.5-.5H6.625a.5.5 0 0 0-.354.854L12.414 11H19V4.5Zm7.561 5.646L21.854 5.44a.5.5 0 0 0-.854.354V11h5.207a.5.5 0 0 0 .354-.854ZM19.586 21H13v6.5a.5.5 0 0 0 .5.5h11.875a.5.5 0 0 0 .354-.854L19.586 21Zm-14.147.854 4.707 4.707a.5.5 0 0 0 .854-.354V21H5.793a.5.5 0 0 0-.354.854Z"/>
</svg>
