<svg xmlns="http://www.w3.org/2000/svg" width="32" height="32" fill="none" viewBox="0 0 32 32">
  <path fill="#4A4A4F" d="M28 8.413a4.473 4.473 0 0 0-1.407-3.208c-1.75-1.66-4.59-1.597-6.328.141L17.35 8.275a3 3 0 0 0-4.142.096l-.625.625a2 2 0 0 0 0 2.83l.25.258-6.375 6.375a4.968 4.968 0 0 0-1.317 4.75l-1 2.301a1.706 1.706 0 0 0 .36 1.901 1.988 1.988 0 0 0 2.213.42l2.191-.956a4.988 4.988 0 0 0 4.631-1.344l6.375-6.375.258.258a2 2 0 0 0 2.827 0l.625-.625a3 3 0 0 0 .093-4.148l2.969-2.983A4.47 4.47 0 0 0 28 8.413ZM17.25 19H8.76l5.5-5.5 4.242 4.25-1.25 1.25Z"/>
</svg>
