<svg xmlns="http://www.w3.org/2000/svg" width="32" height="32" fill="none" viewBox="0 0 32 32">
  <path fill="#4A4A4F" d="M29.83 9.827A3.987 3.987 0 0 1 27 11c-.322 0-.643-.039-.955-.115l-3.329 6.182c.037.035.075.07.111.107a4 4 0 1 1-6.275.797L14.03 15.45A4 4 0 0 1 12 16c-.322 0-.643-.038-.957-.114l-3.328 6.18c.037.035.076.07.112.107a4 4 0 1 1-1.873-1.055l3.328-6.183c-.037-.035-.075-.07-.111-.106a4 4 0 0 1 0-5.658 4 4 0 0 1 6.275 4.862l2.522 2.522a4.024 4.024 0 0 1 2.988-.438l3.329-6.182-.113-.106a4 4 0 0 1 2.829-6.83 4 4 0 0 1 2.829 6.83v-.002Z"/>
</svg>
