<svg xmlns="http://www.w3.org/2000/svg" width="32" height="32" fill="none" viewBox="0 0 32 32">
  <path fill="#4A4A4F" d="M28.83 3.17a3.999 3.999 0 0 0-5.657 0 .459.459 0 0 0-.037.039l-6.863 7.647-1.148-1.151a3 3 0 0 0-4.244 0l-9.586 9.587a1 1 0 0 0 0 1.414l10 10a1 1 0 0 0 1.414 0l9.586-9.581a3 3 0 0 0 0-4.244l-1.151-1.15 7.647-6.864a4 4 0 0 0 .039-5.697ZM12 28.586 9.915 26.5l2.793-2.794a1 1 0 0 0-1.414-1.414L8.5 25.085 6.915 23.5l2.793-2.794a1 1 0 0 0-1.414-1.414L5.5 22.085 3.414 20 9 14.414 17.586 23 12 28.586Z"/>
</svg>
