<svg xmlns="http://www.w3.org/2000/svg" width="32" height="32" fill="none" viewBox="0 0 32 32">
  <path fill="#4A4A4F" d="M29 4a1 1 0 0 0-1-1c-5.51 0-11.164 6.214-14.304 10.329A7.5 7.5 0 0 0 4 20.5c0 3.86-2.442 5.591-2.559 5.671A1 1 0 0 0 2.001 28h9.5a7.5 7.5 0 0 0 7.17-9.696C22.788 15.164 29.001 9.51 29.001 4ZM15.553 14.194a48.37 48.37 0 0 1 1.26-1.569 9.529 9.529 0 0 1 2.562 2.561 53.02 53.02 0 0 1-1.569 1.262 7.569 7.569 0 0 0-2.253-2.254Zm5.337-.335a11.567 11.567 0 0 0-2.75-2.75c3.973-4.316 6.969-5.625 8.738-5.989-.357 1.77-1.672 4.766-5.988 8.739Z"/>
</svg>
