<svg xmlns="http://www.w3.org/2000/svg" width="32" height="32" fill="none" viewBox="0 0 32 32">
  <path fill="#4A4A4F" d="M25.096 6.736A12.909 12.909 0 0 0 16 3h-.134A13 13 0 0 0 3 16c0 5.375 3.322 9.883 8.67 11.771A4.001 4.001 0 0 0 17 24a2 2 0 0 1 2-2h5.776a3.976 3.976 0 0 0 3.9-3.11c.224-.984.332-1.99.324-3a12.91 12.91 0 0 0-3.904-9.154ZM10.5 21a1.5 1.5 0 1 1 0-3 1.5 1.5 0 0 1 0 3Zm0-7a1.5 1.5 0 1 1 0-3 1.5 1.5 0 0 1 0 3Zm5.5-3a1.5 1.5 0 1 1 0-3 1.5 1.5 0 0 1 0 3Zm5.5 3a1.5 1.5 0 1 1 0-3 1.5 1.5 0 0 1 0 3Z"/>
</svg>
