<svg xmlns="http://www.w3.org/2000/svg" width="32" height="32" fill="none" viewBox="0 0 32 32">
  <path fill="#4A4A4F" d="M26.741 26.328a.999.999 0 0 1-.785 1.68 1 1 0 0 1-.695-.335L19.3 21.115 13 27.414a1.982 1.982 0 0 1-1.414.586H6a2 2 0 0 1-2-2v-5.586A1.986 1.986 0 0 1 4.585 19l6.7-6.7L5.26 5.675a1 1 0 1 1 1.48-1.347l20.001 22ZM28.415 12l-5.54 5.543a1 1 0 0 1-.707.292h-.024a1.001 1.001 0 0 1-.716-.327l-6.67-7.333a1 1 0 0 1 .033-1.375L20 3.586a2 2 0 0 1 2.829 0l5.586 5.585a2 2 0 0 1 0 2.83ZM27 10.586 21.415 5l-3 3L24 13.586l3-3Z"/>
</svg>
