<svg xmlns="http://www.w3.org/2000/svg" width="32" height="32" fill="none" viewBox="0 0 32 32">
  <path fill="#4A4A4F" d="M6.74 4.328a1 1 0 1 0-1.48 1.345l6.025 6.625L4.585 19A1.986 1.986 0 0 0 4 20.414V26a2 2 0 0 0 2 2h5.586A1.984 1.984 0 0 0 13 27.414l6.3-6.299 5.961 6.558a.998.998 0 0 0 1.42.076 1 1 0 0 0 .06-1.421l-20.001-22Zm5.893 9.455 1.992 2.185L8.5 22.086 6.414 20l6.219-6.217ZM6 26v-3.586L9.586 26H6Zm6-.414L9.915 23.5l6.051-6.051 1.987 2.185L12 25.586ZM28.415 12l-5.54 5.543a1.002 1.002 0 0 1-1.416-1.418l1.835-1.835-2.087-2.082-1.668 1.667a1 1 0 0 1-1.414-1.414l1.669-1.668-2.087-2.085-1.5 1.5a.999.999 0 1 1-1.415-1.414L20 3.586a2 2 0 0 1 2.829 0l5.586 5.585a2 2 0 0 1 0 2.83Z"/>
</svg>
