<svg xmlns="http://www.w3.org/2000/svg" width="32" height="32" fill="none" viewBox="0 0 32 32">
  <path fill="#4A4A4F" d="m7.31 16.841-4.477-3.216A2 2 0 0 1 4 10h5.53l-2.22 6.841Zm-.666 8.534a1.969 1.969 0 0 0 .731 2.235 1.968 1.968 0 0 0 2.346 0l4.567-3.285-5.92-4.26-1.724 5.31Zm11.26-22.967a1.991 1.991 0 0 0-3.806-.007l-1.817 5.6h7.438l-1.815-5.593ZM20.368 10h-8.735l-2.618 8.068L16 23.094l6.985-5.026L20.368 10Zm9.53 1.383A1.969 1.969 0 0 0 28 10h-5.53l2.22 6.843 4.481-3.225a1.968 1.968 0 0 0 .727-2.237v.002Zm-6.265 8.683-5.92 4.26 4.566 3.284a2 2 0 0 0 3.077-2.235l-1.723-5.309Z"/>
</svg>
