<svg xmlns="http://www.w3.org/2000/svg" width="32" height="32" fill="none" viewBox="0 0 32 32">
  <path fill="#4A4A4F" d="M29.415 12 12 29.414a2 2 0 0 1-2.829 0l-6.586-6.585a2 2 0 0 1 0-2.829l3.646-3.646a.5.5 0 0 1 .708 0l4.354 4.354a1.002 1.002 0 0 0 1.463-.054 1.023 1.023 0 0 0-.075-1.386l-4.329-4.33a.5.5 0 0 1 0-.705l1.875-1.875a.498.498 0 0 1 .708 0l4.354 4.353a1 1 0 0 0 1.464-.053 1.023 1.023 0 0 0-.076-1.387l-4.323-4.332a.5.5 0 0 1 0-.706l1.875-1.875a.5.5 0 0 1 .706 0l4.354 4.353a1 1 0 0 0 1.465-.053 1.022 1.022 0 0 0-.077-1.387L16.354 6.94a.5.5 0 0 1 0-.706L20 2.586a2 2 0 0 1 2.829 0l6.586 6.585a2 2 0 0 1 0 2.83Z"/>
</svg>
