<svg xmlns="http://www.w3.org/2000/svg" width="32" height="32" fill="none" viewBox="0 0 32 32">
  <path fill="#4A4A4F" d="M26 4H6a2 2 0 0 0-2 2v20a2 2 0 0 0 2 2h20a2 2 0 0 0 2-2V6a2 2 0 0 0-2-2ZM11 25H9a2 2 0 0 1-2-2v-2a1 1 0 1 1 2 0v2h2a1 1 0 0 1 0 2Zm0-11H9v2a1 1 0 1 1-2 0v-2a2 2 0 0 1 2-2h2a1 1 0 0 1 0 2Zm9 9a2 2 0 0 1-2 2h-2a1 1 0 0 1 0-2h2v-2a1 1 0 0 1 2 0v2Zm0-7a1 1 0 0 1-2 0v-2h-2a1 1 0 0 1 0-2h2a2 2 0 0 1 2 2v2Zm5 2a2 2 0 0 1-2 2 1 1 0 0 1 0-2V9h-9a1 1 0 0 1-2 0 2 2 0 0 1 2-2h9a2 2 0 0 1 2 2v9Z"/>
</svg>
