<svg xmlns="http://www.w3.org/2000/svg" width="32" height="32" fill="none" viewBox="0 0 32 32">
  <path fill="#4A4A4F" d="M27.5 21.136 16 27.842 4.5 21.136a1 1 0 0 0-1 1.727l12 7a1 1 0 0 0 1.007 0l12-7a.998.998 0 0 0-.244-1.838.998.998 0 0 0-.763.111Z"/>
  <path fill="#4A4A4F" d="M27.5 15.136 16 21.842 4.5 15.136a1 1 0 0 0-1 1.727l12 7a1 1 0 0 0 1.007 0l12-7a.998.998 0 0 0-.244-1.838.998.998 0 0 0-.763.111Z"/>
  <path fill="#4A4A4F" d="m3.5 10.864 12 7a1 1 0 0 0 1.008 0l12-7a1 1 0 0 0 0-1.728l-12-7a1 1 0 0 0-1.008 0l-12 7a1 1 0 0 0 0 1.728Z"/>
</svg>
