<svg xmlns="http://www.w3.org/2000/svg" width="32" height="32" fill="none" viewBox="0 0 32 32">
  <path fill="#4A4A4F" d="M29 19.489a1.999 1.999 0 0 0-.125-.653l-2.382-6.526a2 2 0 0 0-2.556-1.185l-8.477 3.071 1.51-8.625a2 2 0 0 0-1.615-2.321L8.521 2.03a1.992 1.992 0 0 0-2.308 1.625l-3.125 17.89A5.478 5.478 0 0 0 8.473 28H27a2 2 0 0 0 2-2v-6.511Zm-20.5 5.01a2 2 0 1 1 0-4 2 2 0 0 1 0 4Zm5.34-1.047 1.223-6.99L24.615 13 27 19.514l-13.402 4.86c.107-.3.188-.608.242-.922ZM27 26H14.968L27 21.639v4.36Z"/>
</svg>
