<svg xmlns="http://www.w3.org/2000/svg" width="32" height="32" fill="none" viewBox="0 0 32 32">
  <path fill="#4A4A4F" d="M27.912 21.199a1.008 1.008 0 0 0-.35-.425C25.441 19.316 25 16.83 25 15c0-2.209 1.683-4.133 2.687-5.084a1 1 0 0 0 0-1.452C26.102 6.967 23.477 6 21 6a9.025 9.025 0 0 0-5 1.516A8.945 8.945 0 0 0 4.66 8.652 9.329 9.329 0 0 0 2 15.425a15.883 15.883 0 0 0 5.017 11.216A4.975 4.975 0 0 0 10.448 28h10.96a4.98 4.98 0 0 0 3.64-1.571 15.624 15.624 0 0 0 2.228-3.075c.878-1.604.765-1.854.636-2.155Zm-4.328 3.867a2.971 2.971 0 0 1-2.175.934h-10.96a2.978 2.978 0 0 1-2.055-.814A13.893 13.893 0 0 1 4 15.375a7.312 7.312 0 0 1 2.081-5.316A6.85 6.85 0 0 1 11 8h.097a6.931 6.931 0 0 1 4.278 1.535 1 1 0 0 0 1.25 0A6.93 6.93 0 0 1 21 8a8.83 8.83 0 0 1 4.5 1.294C23.875 11.109 23 13.102 23 15c0 2.971.955 5.341 2.772 6.913a13.23 13.23 0 0 1-2.188 3.153ZM16.029 3.75A5 5 0 0 1 20.875 0H21a1 1 0 1 1 0 2h-.125a3 3 0 0 0-2.905 2.25 1 1 0 0 1-1.938-.5h-.003Z"/>
</svg>
