<svg xmlns="http://www.w3.org/2000/svg" width="32" height="32" fill="none" viewBox="0 0 32 32">
  <path fill="#4A4A4F" d="M28.625 27.781a1 1 0 0 1-1.405-.156C27.05 27.409 23 22.233 23 12a7 7 0 0 0-14 0c0 10.233-4.046 15.409-4.219 15.625a1 1 0 1 1-1.563-1.25c.018-.025.96-1.238 1.89-3.593C5.972 20.6 7 16.956 7 12a9 9 0 1 1 18 0c0 4.955 1.029 8.6 1.891 10.785.935 2.367 1.883 3.58 1.893 3.593a1 1 0 0 1-.159 1.403ZM12.5 12a1.5 1.5 0 1 0 0 3 1.5 1.5 0 0 0 0-3Zm8.5 1.5a1.5 1.5 0 1 0-2.999 0 1.5 1.5 0 0 0 3 0Zm-8.552 3.605a1 1 0 0 0-.894 1.789l4 2a.992.992 0 0 0 .894 0l4-2a1 1 0 1 0-.895-1.789L16 18.881l-3.552-1.776ZM16 23a6.758 6.758 0 0 0-5.875 3.514 1.001 1.001 0 0 0 1.75.972 4.67 4.67 0 0 1 8.25 0 1.002 1.002 0 0 0 1.75-.972A6.758 6.758 0 0 0 16 23Z"/>
</svg>
