<svg xmlns="http://www.w3.org/2000/svg" width="32" height="32" fill="none" viewBox="0 0 32 32">
  <path fill="#4A4A4F" d="M22 19.5a1.5 1.5 0 1 1-3 0 1.5 1.5 0 0 1 3 0ZM11.5 18a1.5 1.5 0 1 0 0 3 1.5 1.5 0 0 0 0-3ZM30 21v3a2 2 0 0 1-2 2H4a2 2 0 0 1-2-2v-2.86a14.172 14.172 0 0 1 4.425-10.3L3.293 7.707a1 1 0 1 1 1.415-1.415l3.27 3.27a13.929 13.929 0 0 1 16.068-.023l3.25-3.25a1 1 0 1 1 1.415 1.415l-3.108 3.108c.093.09.187.18.28.272A13.906 13.906 0 0 1 30 21Zm-2 0A12 12 0 0 0 16 9h-.043C9.364 9.022 4 14.469 4 21.14V24h24v-3Z"/>
</svg>
