<svg xmlns="http://www.w3.org/2000/svg" width="32" height="32" fill="none" viewBox="0 0 32 32">
  <path fill="#4A4A4F" d="M27 17H17a1 1 0 0 0-1 1v7.181a1 1 0 0 0 .821.985l10 1.818A1 1 0 0 0 28 27v-9a1 1 0 0 0-1-1Zm-1 8.8-8-1.454V19h8v6.8ZM13 17H5a1 1 0 0 0-1 1v5a1 1 0 0 0 .821.984l8 1.455A1 1 0 0 0 14 24.455V18a1 1 0 0 0-1-1Zm-1 6.256-6-1.091V19h6v4.256ZM27.641 4.232a1 1 0 0 0-.82-.216l-10 1.819a1 1 0 0 0-.821.984v7.18a1 1 0 0 0 1 1h10a1 1 0 0 0 1-1V5a1 1 0 0 0-.359-.767ZM26 13h-8V7.652L26 6.2V13ZM13.641 6.777a1 1 0 0 0-.82-.216l-8 1.455A1 1 0 0 0 4 9v5a1 1 0 0 0 1 1h8a1 1 0 0 0 1-1V7.545a1 1 0 0 0-.359-.768ZM12 13H6V9.835l6-1.085V13Z"/>
</svg>
