<svg xmlns="http://www.w3.org/2000/svg" width="32" height="32" fill="none" viewBox="0 0 32 32">
  <path fill="#4A4A4F" d="M20 10a1 1 0 0 1 1-1h8a1 1 0 1 1 0 2h-8a1 1 0 0 1-1-1Zm-3 9.75A5.25 5.25 0 0 1 11.75 25H4a1 1 0 0 1-1-1V8a1 1 0 0 1 1-1h7.25a4.75 4.75 0 0 1 3.206 8.25A5.25 5.25 0 0 1 17 19.75ZM5 14.5h6.25a2.75 2.75 0 1 0 0-5.5H5v5.5Zm10 5.25a3.25 3.25 0 0 0-3.25-3.25H5V23h6.75A3.25 3.25 0 0 0 15 19.75ZM31 19a1 1 0 0 1-1 1h-8.875a4 4 0 0 0 7.074 1.4 1 1 0 0 1 1.6 1.201A6 6 0 1 1 31 19Zm-2.125-1a4 4 0 0 0-7.75 0h7.75Z"/>
</svg>
