<svg xmlns="http://www.w3.org/2000/svg" width="32" height="32" fill="none" viewBox="0 0 32 32">
  <path fill="#4A4A4F" d="m31.707 11.292-5-5a1 1 0 0 0-1.415 0L21 10.586l-4.293-4.294a1 1 0 0 0-1.415 0L11 10.586 6.707 6.292a1 1 0 0 0-1.415 0l-5 5a1 1 0 0 0 0 1.415l5 5a1 1 0 0 0 1.415 0L11 13.414 14.586 17l-4.294 4.292a1 1 0 0 0 0 1.415l5 5a1.001 1.001 0 0 0 1.415 0l5-5a1.002 1.002 0 0 0 0-1.415L17.414 17 21 13.414l4.292 4.293a1.001 1.001 0 0 0 1.415 0l5-5a1.002 1.002 0 0 0 0-1.415ZM6 15.586 2.414 12 6 8.414 9.586 12 6 15.586Zm10 10L12.414 22 16 18.414 19.586 22 16 25.586Zm0-10L12.414 12 16 8.414 19.586 12 16 15.586Zm10 0L22.414 12 26 8.414 29.586 12 26 15.586Z"/>
</svg>
