<svg xmlns="http://www.w3.org/2000/svg" width="32" height="32" fill="none" viewBox="0 0 32 32">
  <path fill="#4A4A4F" d="M19.275 17.291a4 4 0 1 0-6.55 0 3.034 3.034 0 0 0-1.095.875 2.96 2.96 0 0 0-.538 2.561l1.523 6A3.022 3.022 0 0 0 15.555 29h.89a3.023 3.023 0 0 0 2.94-2.269l1.522-6a2.96 2.96 0 0 0-.537-2.561 3.035 3.035 0 0 0-1.095-.879ZM16 13a2 2 0 1 1 0 4 2 2 0 0 1 0-4Zm2.969 7.239-1.523 6a1.022 1.022 0 0 1-1 .761h-.89a1.023 1.023 0 0 1-1-.761l-1.522-6a.963.963 0 0 1 .177-.841 1.033 1.033 0 0 1 .823-.398h3.937a1.033 1.033 0 0 1 .823.398.965.965 0 0 1 .175.84ZM9 16c0 .59.074 1.178.22 1.75a1 1 0 1 1-1.936.5 9 9 0 1 1 17.432 0 1 1 0 0 1-1.936-.499A7 7 0 1 0 9 16Zm20 0a12.982 12.982 0 0 1-5.811 10.832 1 1 0 0 1-1.108-1.665 11 11 0 1 0-12.163 0 1 1 0 0 1-1.107 1.665A13 13 0 1 1 29 16Z"/>
</svg>
