<svg xmlns="http://www.w3.org/2000/svg" width="32" height="32" fill="none" viewBox="0 0 32 32">
  <path fill="#4A4A4F" d="M29.7 18.973 21.141 4.94A1.989 1.989 0 0 0 19.445 4h-6.891a1.986 1.986 0 0 0-1.695.94l-.007.009-8.547 14.013a2 2 0 0 0-.041 2.053l3.415 5.977A2 2 0 0 0 7.415 28h17.169a2 2 0 0 0 1.736-1.008l3.415-5.977a1.989 1.989 0 0 0-.035-2.043ZM27.375 19h-5.81l-4.399-7.334 2.844-4.74L27.375 19Zm-14.609 0L16 13.61 19.234 19h-6.468Zm7.668 2 3 5H8.566l3-5h8.868ZM16 9.723 13.765 6l4.473-.006L16 9.723Zm-4.011-2.797 2.845 4.74-4.4 7.334H4.625l7.364-12.074ZM4.567 21h4.667L6.84 24.99 4.567 21Zm20.593 3.991L22.765 21h4.676l-2.281 3.991Z"/>
</svg>
