<svg xmlns="http://www.w3.org/2000/svg" width="32" height="32" fill="none" viewBox="0 0 32 32">
  <path fill="#4A4A4F" d="M27 19.012V27a1 1 0 0 1-1 1H6a1 1 0 0 1-1-1v-7.988a1 1 0 1 1 2 0V26h18v-6.988a1 1 0 0 1 2 0Zm-16 4h10a1 1 0 0 0 0-2H11a1 1 0 1 0 0 2Zm.61-6.625 9.659 2.584a.99.99 0 0 0 .26.035 1 1 0 0 0 .259-1.963l-9.663-2.591a1 1 0 1 0-.515 1.923v.012Zm2.306-6.242 8.66 5a.999.999 0 0 0 1-1.73l-8.66-5.006a1 1 0 1 0-1 1.73v.006Zm10.916 1.625a1 1 0 0 0 1.71-.706 1.002 1.002 0 0 0-.292-.709l-7.071-7.062a1 1 0 0 0-1.415 1.412l7.069 7.065Z"/>
</svg>
