<svg xmlns="http://www.w3.org/2000/svg" width="32" height="32" fill="none" viewBox="0 0 32 32">
  <path fill="#4A4A4F" d="m29.474 11.125-13-7a1 1 0 0 0-.948 0l-13 7A1 1 0 0 0 2 12v8a1 1 0 0 0 .526.881l13 7a1 1 0 0 0 .948 0l13-7a1 1 0 0 0 .526-.88v-8a1 1 0 0 0-.526-.876ZM28 18.326 23.681 16 28 13.674v4.652Zm-6.429-3.462L17 12.403v-5.73L26.891 12l-5.32 2.864Zm-5.571 3L12.537 16 16 14.136 19.462 16 16 17.864Zm-1-11.19v5.729l-4.571 2.461L5.109 12 15 6.674Zm-11 7L8.319 16 4 18.326v-4.652Zm6.429 3.462L15 19.598v5.729L5.109 20l5.32-2.864ZM17 25.326v-5.728l4.571-2.462L26.891 20 17 25.326Z"/>
</svg>
