<svg xmlns="http://www.w3.org/2000/svg" width="32" height="32" fill="none" viewBox="0 0 32 32">
  <path fill="#4A4A4F" d="M25 3H9a2 2 0 0 0-2 2v3H5a2 2 0 0 0-2 2v12a2 2 0 0 0 2 2h2v3a2 2 0 0 0 2 2h16a2 2 0 0 0 2-2V5a2 2 0 0 0-2-2Zm-5 10h5v6h-5v-6ZM9 5h16v6h-5v-1a2 2 0 0 0-2-2H9V5Zm-4 5h13v12H5V10Zm4 17v-3h9a2 2 0 0 0 2-2v-1h5v6H9Zm-.47-7.758-1.5-6a1 1 0 1 1 1.94-.485l.845 3.376.79-1.583a1 1 0 0 1 1.79 0l.79 1.582.845-3.375a1 1 0 0 1 1.94.486l-1.5 6a1 1 0 0 1-1.865.203l-1.105-2.21-1.105 2.212a1 1 0 0 1-1.865-.206Z"/>
</svg>
