<svg xmlns="http://www.w3.org/2000/svg" width="32" height="32" fill="none" viewBox="0 0 32 32">
  <path fill="#4A4A4F" d="M13 17.5a1.5 1.5 0 1 1-3 0 1.5 1.5 0 0 1 3 0Zm7.5-1.5a1.5 1.5 0 1 0 0 3 1.5 1.5 0 0 0 0-3Zm9.306 8.113-8.375 3.713a2.023 2.023 0 0 1-2.714-1.137l-1.014-2.75c-.56.037-1.127.057-1.703.057a23.92 23.92 0 0 1-1.704-.057l-1.014 2.75a2.023 2.023 0 0 1-2.713 1.137l-8.375-3.713a1.991 1.991 0 0 1-1.133-2.314L4.75 7.25a2.009 2.009 0 0 1 1.625-1.482l4.507-.742a2.027 2.027 0 0 1 2.283 1.485l.407 1.605A24.983 24.983 0 0 1 16 8c.824 0 1.632.039 2.425.116l.407-1.605a2.026 2.026 0 0 1 2.283-1.485l4.51.742A2.008 2.008 0 0 1 27.25 7.25l3.691 14.548a1.991 1.991 0 0 1-1.135 2.315ZM29 22.285 25.308 7.75h-.01L20.791 7a.02.02 0 0 0-.021 0l-.354 1.393c.625.117 1.25.257 1.854.427a1 1 0 0 1-.27 1.97.99.99 0 0 1-.27-.038 21.532 21.532 0 0 0-5.73-.75 21.535 21.535 0 0 0-5.73.75.998.998 0 0 1-1.288-1.082 1 1 0 0 1 .748-.844c.602-.17 1.222-.31 1.852-.427L11.228 7h-.014L6.7 7.741a.021.021 0 0 0-.011 0L3 22.291l8.375 3.71a.028.028 0 0 0 .027 0l.848-2.286c-.85-.13-1.69-.31-2.518-.54a1 1 0 0 1 .538-1.925c1.867.507 3.795.76 5.73.75a21.45 21.45 0 0 0 5.73-.75 1 1 0 0 1 .54 1.926c-.829.23-1.67.41-2.52.54L20.593 26a.027.027 0 0 0 .026 0L29 22.285Z"/>
</svg>
