<svg xmlns="http://www.w3.org/2000/svg" width="32" height="32" fill="none" viewBox="0 0 32 32">
  <path fill="#4A4A4F" d="M17 2v4a1 1 0 0 1-2 0V2a1 1 0 0 1 2 0Zm5 5a1 1 0 0 0-1 1v4a1 1 0 0 0 2 0V8a1 1 0 0 0-1-1Zm-6 18a1 1 0 0 0-1 1v4a1 1 0 0 0 2 0v-4a1 1 0 0 0-1-1Zm0-15a1 1 0 0 0-1 1v10a1 1 0 0 0 2 0V11a1 1 0 0 0-1-1Zm-6-3a1 1 0 0 0-1 1v7a1 1 0 1 0 2 0V8a1 1 0 0 0-1-1Zm12 9a1 1 0 0 0-1 1v7a1 1 0 0 0 2 0v-7a1 1 0 0 0-1-1ZM4 13a1 1 0 0 0-1 1v4a1 1 0 1 0 2 0v-4a1 1 0 0 0-1-1Zm6 6a1 1 0 0 0-1 1v4a1 1 0 1 0 2 0v-4a1 1 0 0 0-1-1Zm18-6a1 1 0 0 0-1 1v4a1 1 0 0 0 2 0v-4a1 1 0 0 0-1-1Z"/>
</svg>
