<svg xmlns="http://www.w3.org/2000/svg" width="32" height="32" fill="none" viewBox="0 0 32 32">
  <path fill="#4A4A4F" d="M27.641 16A4 4 0 0 0 23 9.539v-2.54a4 4 0 0 0-7-2.64 4 4 0 0 0-6.461 4.64h-2.54a4 4 0 0 0-2.64 7 4 4 0 0 0 4.64 6.462V25a4 4 0 0 0 7 2.641A4 4 0 0 0 22.462 23H25a4 4 0 0 0 2.641-7ZM9 19a2 2 0 1 1-2-2h2v2Zm6 6a2 2 0 0 1-4 0v-6a2 2 0 0 1 2-2h2v8Zm0-10H7a2 2 0 1 1 0-4h6a2 2 0 0 1 2 2v2Zm0-6h-2a2 2 0 1 1 2-2v2Zm2-2a2 2 0 1 1 4 0v6a2 2 0 0 1-2 2h-2V7Zm2 20a2 2 0 0 1-2-2v-2h2a2 2 0 0 1 0 4Zm6-6h-6a2 2 0 0 1-2-2v-2h8a2 2 0 0 1 0 4Zm0-6h-2v-2a2 2 0 1 1 2 2Z"/>
</svg>
