<svg xmlns="http://www.w3.org/2000/svg" width="32" height="32" fill="none" viewBox="0 0 32 32">
  <path fill="#4A4A4F" d="M9 8a8 8 0 1 0 8 8 8.009 8.009 0 0 0-8-8Zm0 14a6 6 0 1 1 6-6 6.006 6.006 0 0 1-6 6ZM23 8c-.71 0-2.05.345-3.04 2.656C19.341 12.1 19 14 19 16c0 2 .341 3.9.96 5.344C20.95 23.655 22.29 24 23 24s2.05-.345 3.04-2.656C26.659 19.9 27 18 27 16c0-2-.341-3.9-.96-5.344C25.05 8.345 23.71 8 23 8Zm0 14c-.705 0-2-2.277-2-6s1.295-6 2-6c.705 0 2 2.277 2 6s-1.295 6-2 6Zm8-13v14a1 1 0 0 1-2 0V9a1 1 0 0 1 2 0Z"/>
</svg>
