<svg xmlns="http://www.w3.org/2000/svg" width="32" height="32" fill="none" viewBox="0 0 32 32">
  <path fill="#4A4A4F" d="M16 3a13 13 0 1 0 13 13A13.013 13.013 0 0 0 16 3Zm10.956 12.023a21.072 21.072 0 0 0-6.449.707 20.86 20.86 0 0 0-1.68-3.73A21.045 21.045 0 0 0 23.6 8.056a10.973 10.973 0 0 1 3.355 6.967Zm-4.921-8.215a18.97 18.97 0 0 1-4.285 3.507 21.153 21.153 0 0 0-4.829-4.875 11 11 0 0 1 9.125 1.367h-.011ZM10.706 6.36a19.143 19.143 0 0 1 5.25 4.897A18.979 18.979 0 0 1 8 13c-.848 0-1.695-.057-2.535-.169a11.048 11.048 0 0 1 5.241-6.471ZM5 16c0-.403.022-.805.066-1.205C6.038 14.931 7.02 15 8 15a20.98 20.98 0 0 0 9.065-2.05 18.857 18.857 0 0 1 1.539 3.391c-1.063.4-2.09.884-3.074 1.45a21.151 21.151 0 0 0-6.884 6.383A10.974 10.974 0 0 1 5 16Zm5.25 9.375c1.623-2.4 3.77-4.4 6.28-5.849a18.583 18.583 0 0 1 2.619-1.25 19.062 19.062 0 0 1 .03 8.254 10.99 10.99 0 0 1-8.929-1.155Zm11.133.216a21.086 21.086 0 0 0-.324-7.934 19.038 19.038 0 0 1 5.892-.633 11.017 11.017 0 0 1-5.569 8.566v.001Z"/>
</svg>
