<svg xmlns="http://www.w3.org/2000/svg" width="32" height="32" fill="none" viewBox="0 0 32 32">
  <path fill="#4A4A4F" d="M6.743 4.328a1 1 0 1 0-1.48 1.345l2.092 2.302A9.936 9.936 0 0 0 6 13c0 4.418-1.034 7.798-1.727 8.993A2 2 0 0 0 6 25h5.102a5 5 0 0 0 9.8 0h1.93l2.43 2.673a1.002 1.002 0 0 0 1.421.076 1 1 0 0 0 .06-1.421l-20-22ZM16 27a3 3 0 0 1-2.829-2h5.657A3 3 0 0 1 16 27Zm10.911-4.676a1 1 0 0 1-1.267-.176L10.823 5.843a1.001 1.001 0 0 1 .25-1.543A10 10 0 0 1 26 13c0 4.419 1 7.324 1.314 8.11a1 1 0 0 1-.4 1.214h-.003Z"/>
</svg>
