<svg xmlns="http://www.w3.org/2000/svg" width="32" height="32" fill="none" viewBox="0 0 32 32">
  <path fill="#4A4A4F" d="M26.672 27.74a1 1 0 0 1-1.412-.067l-3.306-3.638L15.6 28.8a1 1 0 0 1-1.114.058A1.04 1.04 0 0 1 14 27.96V18l-6.4 4.8a1 1 0 0 1-1.395-.194 1.034 1.034 0 0 1 .225-1.428l7.685-5.764L5.26 5.673a1 1 0 1 1 1.48-1.345l20 22a1 1 0 0 1-.067 1.412ZM18.07 13.817a1 1 0 0 0 1.34.124l4.169-3.125A1 1 0 0 0 23.6 9.2l-8.001-6a1 1 0 0 0-1.25.038 1.03 1.03 0 0 0-.35.792v4.924a1 1 0 0 0 .26.671l3.809 4.191Z"/>
</svg>
