<svg xmlns="http://www.w3.org/2000/svg" width="32" height="32" fill="none" viewBox="0 0 32 32">
  <path fill="#4A4A4F" d="M30.991 15.565C30.764 9.693 25.884 5 20.008 5a11.013 11.013 0 0 0-9.847 6.084A10.935 10.935 0 0 0 9 15.966 1.023 1.023 0 0 1 8.071 17 1 1 0 0 1 7 16a12.957 12.957 0 0 1 .668-4.115.5.5 0 0 0-.594-.647A8.011 8.011 0 0 0 1 19c0 4.399 3.719 8 8.125 8H20a11.011 11.011 0 0 0 10.991-11.435Zm-7.284 3.143a1.001 1.001 0 0 1-1.415 0L20 16.413V24a1 1 0 0 1-2 0v-7.586l-2.293 2.293a1 1 0 0 1-1.415-1.415l4-4a1.001 1.001 0 0 1 1.415 0l4 4a1.001 1.001 0 0 1 0 1.415Z"/>
</svg>
