<svg xmlns="http://www.w3.org/2000/svg" width="32" height="32" fill="none" viewBox="0 0 32 32">
  <path fill="#4A4A4F" d="M15 9.5v14a.5.5 0 0 1-.5.5H12v2h1.966a1.022 1.022 0 0 1 1.032.934 1 1 0 0 1-1 1.066H8.034A1.023 1.023 0 0 1 7 27.066 1 1 0 0 1 8 26h2v-2H4a3 3 0 0 1-3-3v-9a3 3 0 0 1 3-3h10.5a.5.5 0 0 1 .5.5ZM31 6v20a2 2 0 0 1-2 2H19a2 2 0 0 1-2-2V6a2 2 0 0 1 2-2h10a2 2 0 0 1 2 2Zm-5.512 16.696a1.5 1.5 0 1 0-2.974-.392 1.5 1.5 0 0 0 2.974.392ZM28 12.934A1.022 1.022 0 0 0 26.966 12h-5.932a1.022 1.022 0 0 0-1.031.934 1 1 0 0 0 1 1.066h6A.999.999 0 0 0 28 12.934Zm0-4A1.022 1.022 0 0 0 26.966 8h-5.932A1.022 1.022 0 0 0 20 8.934 1 1 0 0 0 21 10h6a1 1 0 0 0 1-1.066Z"/>
</svg>
