<svg xmlns="http://www.w3.org/2000/svg" width="32" height="32" fill="none" viewBox="0 0 32 32">
  <path fill="#4A4A4F" d="M30 20v3a2 2 0 0 1-2 2H14.491a.5.5 0 0 1-.405-.794l7.698-10.58a1.026 1.026 0 0 0-.171-1.413 1 1 0 0 0-1.422.201l-9 12.383a.499.499 0 0 1-.41.203H4a2 2 0 0 1-2-2v-2.858c0-.224 0-.447.016-.667a.5.5 0 0 1 .5-.475H6a1 1 0 0 0 1-1.066A1.021 1.021 0 0 0 5.966 17H2.99a.5.5 0 0 1-.484-.625c1.5-5.48 6.208-9.641 11.94-10.285a.5.5 0 0 1 .554.5V10a1 1 0 0 0 1.066 1A1.021 1.021 0 0 0 17 9.966V6.584a.5.5 0 0 1 .554-.5 14.022 14.022 0 0 1 11.975 10.291.5.5 0 0 1-.485.625h-3.01a1.022 1.022 0 0 0-1.031.934 1 1 0 0 0 1 1.066h3.49a.5.5 0 0 1 .5.483c.007.171.007.343.007.517Z"/>
</svg>
