<svg xmlns="http://www.w3.org/2000/svg" width="32" height="32" fill="none" viewBox="0 0 32 32">
  <path fill="#4A4A4F" d="M29.742 13.401a1.001 1.001 0 0 0-.486-.675l-3.729-2.125-.015-4.202a1 1 0 0 0-.353-.76 13.988 13.988 0 0 0-4.59-2.584 1 1 0 0 0-.808.074L16 5.23l-3.765-2.106a1 1 0 0 0-.809-.075 13.99 13.99 0 0 0-4.585 2.594 1 1 0 0 0-.354.759l-.018 4.206-3.729 2.125a1 1 0 0 0-.486.675 13.309 13.309 0 0 0 0 5.195 1 1 0 0 0 .486.675l3.729 2.125.015 4.204a1 1 0 0 0 .353.76 13.987 13.987 0 0 0 4.59 2.583 1 1 0 0 0 .808-.073L16 26.768l3.765 2.107a1.008 1.008 0 0 0 .809.073 14.012 14.012 0 0 0 4.585-2.592.999.999 0 0 0 .354-.758l.018-4.207 3.729-2.125a1 1 0 0 0 .486-.675c.34-1.713.338-3.477-.003-5.19ZM16 21.001a5 5 0 1 1 0-10.002A5 5 0 0 1 16 21Z"/>
</svg>
