<svg xmlns="http://www.w3.org/2000/svg" width="32" height="32" fill="none" viewBox="0 0 32 32">
  <path fill="#4A4A4F" d="M26 16v6.366c0 3.2-1.06 4.992-1.105 5.082A1 1 0 0 1 24 28H7a1 1 0 0 1-.862-.494L2.268 20a2 2 0 0 1 .817-2.779c.958-.5 2.138-.105 2.675.828l2.625 4.555a.76.76 0 0 0 .75.386h.015a1.024 1.024 0 0 0 .85-1.022V7a2 2 0 0 1 2.096-2C13.172 5.05 14 5.978 14 7.054V16a1 1 0 0 0 1.066 1A1.021 1.021 0 0 0 16 15.97V14a2 2 0 0 1 2.096-2c1.076.05 1.904.978 1.904 2.054V17a1 1 0 0 0 1.066 1A1.023 1.023 0 0 0 22 16.97v-.91c0-1.076.828-2 1.904-2.054A2 2 0 0 1 26 16Zm4-10h-6.586l2.293-2.292a1.001 1.001 0 0 0-1.415-1.415l-4 4a.999.999 0 0 0 0 1.415l4 4a1 1 0 0 0 1.415-1.415L23.415 8H30a1 1 0 1 0 0-2Z"/>
</svg>
