<svg xmlns="http://www.w3.org/2000/svg" width="32" height="32" fill="none" viewBox="0 0 32 32">
  <path fill="#4A4A4F" d="M26.74 26.327a.999.999 0 1 1-1.48 1.345l-4.796-5.275-7.733 8.285a1 1 0 0 1-1.711-.875l1.832-9.166-7.203-2.705a1 1 0 0 1-.375-1.625l4.897-5.25L5.26 5.672a1 1 0 1 1 1.48-1.345l20 22Zm-4.267-7.667a1 1 0 0 0 .732.327h.008a1 1 0 0 0 .73-.318l2.788-2.987a1.001 1.001 0 0 0-.375-1.618l-7.209-2.702 1.833-9.166a1 1 0 0 0-1.711-.875l-5.735 6.141a1 1 0 0 0-.009 1.355l8.947 9.843Z"/>
</svg>
