<svg xmlns="http://www.w3.org/2000/svg" width="32" height="32" fill="none" viewBox="0 0 32 32">
  <path fill="#4A4A4F" d="M28.689 12.266a1.026 1.026 0 0 1 .076 1.388 1 1 0 0 1-1.465.054l-2.294-2.294-2.292 2.294a1 1 0 0 1-1.465-.054 1.026 1.026 0 0 1 .076-1.388L23.592 10 21.33 7.736a1.027 1.027 0 0 1-.052-1.42 1 1 0 0 1 1.437-.023l2.292 2.293L27.3 6.293a1 1 0 0 1 1.436.022 1.026 1.026 0 0 1-.051 1.421L26.42 10l2.268 2.266Zm-2.19 3.323a2.988 2.988 0 0 1-.607-.468l-.526-.525a.5.5 0 0 0-.706 0l-.535.53a2.999 2.999 0 0 1-4.276-.033c-1.15-1.185-1.087-3.092.08-4.258l.477-.477a.5.5 0 0 0 0-.708l-.524-.525a3 3 0 0 1 .008-4.25.348.348 0 0 0-.19-.589A23.983 23.983 0 0 0 16 4 23.346 23.346 0 0 0 1.785 8.763a1.991 1.991 0 0 0-.704 2.14c.076.255.204.493.375.697l13.009 15.68a1.991 1.991 0 0 0 2.385.532 2 2 0 0 0 .689-.532l9.075-10.938a.5.5 0 0 0-.114-.752Z"/>
</svg>
