<svg xmlns="http://www.w3.org/2000/svg" width="32" height="32" fill="none" viewBox="0 0 32 32">
  <path fill="#4A4A4F" d="M30.986 10.114a1.99 1.99 0 0 0-.771-1.351A23.334 23.334 0 0 0 16 4 23.334 23.334 0 0 0 1.785 8.763a1.991 1.991 0 0 0-.704 2.14c.076.255.204.493.375.697l13 15.679A1.99 1.99 0 0 0 16 28a1.992 1.992 0 0 0 1.539-.721l13-15.679a1.956 1.956 0 0 0 .447-1.486Zm-9.69 9.5a9.487 9.487 0 0 0-10.592 0L3.01 10.343A21.345 21.345 0 0 1 16 6a21.345 21.345 0 0 1 12.989 4.343l-7.693 9.27Z"/>
</svg>
