<svg xmlns="http://www.w3.org/2000/svg" width="32" height="32" fill="none" viewBox="0 0 32 32">
  <path fill="#4A4A4F" d="M26.74 26.328a.999.999 0 1 1-1.48 1.345l-4.209-4.625-3.512 4.235a1.99 1.99 0 0 1-1.54.717 1.992 1.992 0 0 1-1.538-.721L1.456 11.6a1.956 1.956 0 0 1-.442-1.486 1.991 1.991 0 0 1 .77-1.351A23.492 23.492 0 0 1 5.83 6.299l-.57-.625a1 1 0 0 1 1.48-1.346l20 22Zm4.25-16.214a1.992 1.992 0 0 0-.771-1.351A23.334 23.334 0 0 0 15.999 4c-1.482 0-2.962.138-4.42.413a1 1 0 0 0-.554 1.655l11.831 13.015a1.002 1.002 0 0 0 .74.327h.029a1 1 0 0 0 .75-.362l6.169-7.448a1.956 1.956 0 0 0 .442-1.486h.004Z"/>
</svg>
