<svg xmlns="http://www.w3.org/2000/svg" width="32" height="32" fill="none" viewBox="0 0 32 32">
  <path fill="#4A4A4F" d="M26 16a9.991 9.991 0 0 0-4.087-8.059l-.78-4.297A2 2 0 0 0 19.165 2h-6.33a2 2 0 0 0-1.968 1.644l-.78 4.297a9.988 9.988 0 0 0 0 16.118l.78 4.297A2 2 0 0 0 12.835 30h6.33a2 2 0 0 0 1.968-1.644l.78-4.297A9.993 9.993 0 0 0 26 16ZM12.835 4h6.33l.489 2.694a9.969 9.969 0 0 0-7.308 0L12.835 4ZM8 16a8 8 0 1 1 8 8 8.009 8.009 0 0 1-8-8Zm11.165 12h-6.33l-.489-2.694a9.968 9.968 0 0 0 7.308 0L19.165 28ZM15 16v-5a1 1 0 0 1 2 0v4h4a1 1 0 1 1 0 2h-5a1 1 0 0 1-1-1Z"/>
</svg>
