<svg xmlns="http://www.w3.org/2000/svg" width="32" height="32" fill="none" viewBox="0 0 32 32">
  <path fill="#4A4A4F" d="M29 16a13 13 0 1 0-13 13h.012A13 13 0 0 0 29 16ZM6.148 11.115l6.401 1.169-6.718 7.908a11.049 11.049 0 0 1 .317-9.077Zm20.021.693a11.05 11.05 0 0 1-.316 9.077l-6.402-1.169 6.718-7.908Zm-1.01-1.9-4.215 4.967-3.49-9.777a10.923 10.923 0 0 1 6.325 3.125c.514.515.976 1.08 1.38 1.685Zm-9.855-4.884 2.189 6.125L7.288 9.29a10.921 10.921 0 0 1 8.016-4.266ZM6.841 22.093l4.215-4.968 3.49 9.773a10.999 10.999 0 0 1-7.705-4.81v.005Zm9.855 4.882-2.188-6.125 2.885.525 7.315 1.337a10.939 10.939 0 0 1-8.016 4.265l.005-.002Z"/>
</svg>
