<svg xmlns="http://www.w3.org/2000/svg" width="32" height="32" fill="none" viewBox="0 0 32 32">
  <path fill="#4A4A4F" d="M31 12v2a1 1 0 0 1-1 1H20a1 1 0 0 1-1-1v-2a1 1 0 0 1 1-1h10a1 1 0 0 1 1 1Zm-1 5H20a1 1 0 0 0-1 1v2a1 1 0 0 0 1 1h10a1 1 0 0 0 1-1v-2a1 1 0 0 0-1-1Zm0 6H9a1 1 0 0 0-1 1v2a1 1 0 0 0 1 1h21a1 1 0 0 0 1-1v-2a1 1 0 0 0-1-1Zm-20-2a7.008 7.008 0 0 1-7-7c0-.9.174-1.792.514-2.625A3.5 3.5 0 0 1 5.5 5a1 1 0 0 1 .486.125l8.741 4.856A1.5 1.5 0 0 0 14.5 7a1 1 0 0 1 0-2 3.5 3.5 0 1 1 0 7 1 1 0 0 1-.486-.125l-5-2.776A5 5 0 0 0 9 18.9V14a1 1 0 1 1 2 0v4.899a5.012 5.012 0 0 0 3.716-3.233 1 1 0 0 1 1.885.668A7.011 7.011 0 0 1 10 21ZM4.529 9.643A7.041 7.041 0 0 1 6.716 7.82l-1.444-.803a1.5 1.5 0 0 0-.75 2.625h.007Z"/>
</svg>
