<svg xmlns="http://www.w3.org/2000/svg" width="32" height="32" fill="none" viewBox="0 0 32 32">
  <path fill="#4A4A4F" d="M26.74 26.328a1 1 0 1 1-1.48 1.345l-1.285-1.414a12.89 12.89 0 0 0 1.479-1.346l1.286 1.415ZM8.025 5.74 6.74 4.328a1 1 0 1 0-1.48 1.345l1.286 1.415c.458-.487.952-.937 1.48-1.347Zm17.429 19.172L8.025 5.74a12.993 12.993 0 0 1 17.429 19.172ZM19.875 13a4 4 0 0 0-2.51-2.761 1 1 0 0 0-.681 1.875 2 2 0 0 1 1.25 1.375A1 1 0 0 0 19.875 13ZM24 14a8 8 0 0 0-10.736-7.52 1 1 0 0 0 .684 1.875A6 6 0 0 1 22 14a1 1 0 1 0 2 0Zm-5.5 7a2.5 2.5 0 0 1-2.5-2.5c-.001-.296.04-.591.125-.875l-2.556-2.813A.988.988 0 0 1 13 15a1 1 0 0 1-1-1 4 4 0 0 1 .085-.82l-1.536-1.69A5.948 5.948 0 0 0 10 14c0 1.488.839 2.563 1.728 3.7.875 1.115 1.772 2.269 1.772 3.8a2.5 2.5 0 0 0 4.25 1.786 1 1 0 1 1 1.399 1.428A4.5 4.5 0 0 1 11.5 21.5c0-.843-.625-1.642-1.349-2.569-.958-1.227-2.15-2.755-2.15-4.931a7.937 7.937 0 0 1 1.124-4.082l-2.579-2.83a12.993 12.993 0 0 0 17.43 19.17l-4.85-5.337c-.205.053-.415.08-.626.079Z"/>
</svg>
