<svg xmlns="http://www.w3.org/2000/svg" width="32" height="32" fill="none" viewBox="0 0 32 32">
  <path fill="#4A4A4F" d="M14.383 5.795a.5.5 0 0 0-.764.067 8.943 8.943 0 0 0-1.54 6.315L3.39 24.027a1.991 1.991 0 0 0 .199 2.598l1.786 1.786a1.991 1.991 0 0 0 2.598.199l11.85-8.691a8.942 8.942 0 0 0 6.313-1.535.5.5 0 0 0 .068-.764L14.383 5.795Zm.326 12.91-2 2a1 1 0 1 1-1.414-1.414l2-2a1 1 0 0 1 1.414 1.414Zm13.675-2.57a.499.499 0 0 1-.765.067L15.798 4.382a.5.5 0 0 1 .067-.766 8.991 8.991 0 0 1 12.519 12.519Z"/>
</svg>
