<svg xmlns="http://www.w3.org/2000/svg" width="32" height="32" fill="none" viewBox="0 0 32 32">
  <path fill="#4A4A4F" d="M3 16a9.01 9.01 0 0 1 9-9h12V5a1 1 0 0 1 1.707-.708l3 3a1 1 0 0 1 0 1.415l-3 3A1 1 0 0 1 24 11V9H12a7.007 7.007 0 0 0-7 7 1 1 0 1 1-2 0Zm25-1a1 1 0 0 0-1 1 7.008 7.008 0 0 1-7 7H8v-2a1 1 0 0 0-1.708-.708l-3 3a1 1 0 0 0 0 1.415l3 3A1 1 0 0 0 8 27v-2h12a9.01 9.01 0 0 0 9-9 1 1 0 0 0-1-1Zm-11 5a1 1 0 0 0 1-1v-6a1.001 1.001 0 0 0-1.448-.895l-2 1a1 1 0 0 0 .895 1.789l.553-.277V19a1 1 0 0 0 1 1Z"/>
</svg>
