<svg xmlns="http://www.w3.org/2000/svg" width="32" height="32" fill="none" viewBox="0 0 32 32">
  <path fill="#4A4A4F" d="M29.707 22.292a1.001 1.001 0 0 1 0 1.415l-3 3A1 1 0 0 1 25 26v-2h-3.485a2 2 0 0 1-1.625-.838L10.485 10H4a1 1 0 0 1 0-2h6.485a2 2 0 0 1 1.625.837L21.515 22H25v-2a1 1 0 0 1 1.707-.708l3 3Zm-11.832-8.917a1 1 0 0 0 1.395-.233l2.25-3.14H25V12a1 1 0 0 0 1.707.707l3-3a1 1 0 0 0 0-1.415l-3-3A1 1 0 0 0 25 6v2h-3.485a2 2 0 0 0-1.625.837l-2.246 3.14a1.001 1.001 0 0 0 .231 1.398Zm-3.75 5.25a1 1 0 0 0-1.395.232L10.485 22H4a1 1 0 0 0 0 2h6.485a2 2 0 0 0 1.625-.838l2.244-3.14a1 1 0 0 0-.229-1.397Z"/>
</svg>
