<svg xmlns="http://www.w3.org/2000/svg" width="32" height="32" fill="none" viewBox="0 0 32 32">
  <path fill="#4A4A4F" d="M29.707 22.292a1.001 1.001 0 0 1 0 1.415l-3 3A1 1 0 0 1 25 26v-2a9.018 9.018 0 0 1-7.206-3.768l-5.215-7.3A7.012 7.012 0 0 0 6.882 10H4a1 1 0 0 1 0-2h2.883a9.015 9.015 0 0 1 7.323 3.769l5.215 7.3A7.01 7.01 0 0 0 25 21.999v-2a1 1 0 0 1 1.707-.707l3 3Zm-11.832-8.917a1 1 0 0 0 1.395-.233l.15-.208A7.01 7.01 0 0 1 25 10v2a1 1 0 0 0 1.707.707l3-3a1 1 0 0 0 0-1.415l-3-3A1 1 0 0 0 25 6v2a9.018 9.018 0 0 0-7.206 3.767l-.15.21a1.002 1.002 0 0 0 .231 1.398Zm-3.75 5.25a1 1 0 0 0-1.395.232l-.15.21A7.013 7.013 0 0 1 6.883 22H4a1 1 0 0 0 0 2h2.883a9.015 9.015 0 0 0 7.323-3.769l.15-.209a.999.999 0 0 0-.231-1.397Z"/>
</svg>
