<svg xmlns="http://www.w3.org/2000/svg" width="32" height="32" fill="none" viewBox="0 0 32 32">
  <path fill="#4A4A4F" d="m26.74 26.328-6.99-7.688L6.74 4.328a1 1 0 1 0-1.48 1.345l2.093 2.302A10 10 0 0 0 15 22.95V25H4a1 1 0 0 0 0 2h20.649l.611.672a1 1 0 1 0 1.48-1.345ZM10 13a6.024 6.024 0 0 1 .28-1.805L12 13.089a4 4 0 0 0 3.529 3.882l1.721 1.896A5.999 5.999 0 0 1 10 13Zm7 12v-2.051a9.989 9.989 0 0 0 3.18-.864L22.83 25H17ZM10.82 5.843a1 1 0 0 1 .25-1.543 10 10 0 0 1 13.125 14.438 1 1 0 0 1-.756.423h-.063a1 1 0 0 1-.74-.327l-1.386-1.526a1 1 0 0 1-.115-1.193 6 6 0 0 0-7.744-8.517 1 1 0 0 1-1.182-.223L10.82 5.843ZM16 9a4 4 0 0 1 3.976 4.444 1 1 0 0 1-1.735.562l-3.03-3.334A1 1 0 0 1 15.936 9H16Z"/>
</svg>
