<svg xmlns="http://www.w3.org/2000/svg" width="32" height="32" fill="none" viewBox="0 0 32 32">
  <path fill="#4A4A4F" d="M15.801 3c-6.96.106-12.65 5.759-12.8 12.719a12.92 12.92 0 0 0 1.688 6.687.5.5 0 0 0 .887-.036A14.911 14.911 0 0 0 7 16c0-2.175.787-4.277 2.218-5.916a1.027 1.027 0 0 1 1.35-.2 1 1 0 0 1 .182 1.49A6.99 6.99 0 0 0 9 16c.004 3-.792 5.948-2.305 8.539a.5.5 0 0 0 .076.606c.497.503 1.033.965 1.604 1.381a.5.5 0 0 0 .728-.151 19.939 19.939 0 0 0 1.397-2.75 1 1 0 0 1 1.85.762c-.42 1.017-.915 2-1.481 2.943a.5.5 0 0 0 .236.717c1.003.41 2.053.69 3.125.838a.5.5 0 0 0 .509-.25 25.857 25.857 0 0 0 3.196-10.701 1 1 0 1 1 1.994.145 27.855 27.855 0 0 1-2.698 10.093.5.5 0 0 0 .51.718c.878-.118 1.74-.325 2.575-.619a.5.5 0 0 0 .294-.279A30.913 30.913 0 0 0 23 16.22c.028-3.83-2.925-7.084-6.75-7.216a7.09 7.09 0 0 0-2 .216 1 1 0 0 1-1.23-.776 1.029 1.029 0 0 1 .786-1.174A9.006 9.006 0 0 1 25 16a33.101 33.101 0 0 1-1.332 9.329.5.5 0 0 0 .808.518A13 13 0 0 0 15.801 3Zm.2 9a4.007 4.007 0 0 1 2.98 1.334 1 1 0 0 1-.155 1.473 1.032 1.032 0 0 1-1.36-.167 2 2 0 0 0-2.097-.538 2.05 2.05 0 0 0-1.375 1.96 22.11 22.11 0 0 1-.399 4.124 1 1 0 0 1-1.157.796 1.038 1.038 0 0 1-.79-1.207A20.14 20.14 0 0 0 12 16a4 4 0 0 1 4-4Z"/>
</svg>
