<svg xmlns="http://www.w3.org/2000/svg" width="32" height="32" fill="none" viewBox="0 0 32 32">
  <path fill="#4A4A4F" d="M14.5 16a1.5 1.5 0 1 1 3 0 1.5 1.5 0 0 1-3 0Zm-2.292.706A1 1 0 0 0 12.5 16a3.513 3.513 0 0 1 1.729-3.019 1 1 0 0 0 .359-1.356L11.344 6a2 2 0 0 0-2.888-.634 12.979 12.979 0 0 0-5.447 9.436 2.027 2.027 0 0 0 .521 1.547 2 2 0 0 0 1.47.65h6.5a.999.999 0 0 0 .708-.293Zm6.908 2.691a1 1 0 0 0-1.366-.365 3.506 3.506 0 0 1-3.5 0 1.001 1.001 0 0 0-1.366.367l-3.228 5.59a2 2 0 0 0 .89 2.815 13.03 13.03 0 0 0 10.908 0 2 2 0 0 0 .89-2.815l-3.228-5.592Zm9.875-4.595a12.979 12.979 0 0 0-5.447-9.436A2 2 0 0 0 20.656 6l-3.243 5.625a1 1 0 0 0 .358 1.362 3.5 3.5 0 0 1 1.73 2.83v.18a.999.999 0 0 0 1 1H27a2 2 0 0 0 1.892-1.368c.09-.266.123-.547.098-.827Z"/>
</svg>
