<svg xmlns="http://www.w3.org/2000/svg" width="32" height="32" fill="none" viewBox="0 0 32 32">
  <path fill="#4A4A4F" d="M30 16c0 1.305-.939 2.284-1.767 3.148-.472.492-.96 1-1.143 1.446-.17.409-.18 1.086-.19 1.742-.019 1.22-.039 2.603-1 3.564-.961.961-2.344.981-3.564 1-.656.01-1.333.02-1.742.19-.447.184-.954.671-1.447 1.143C18.285 29.06 17.306 30 16 30c-1.305 0-2.284-.939-3.148-1.767-.492-.472-1-.96-1.446-1.143-.409-.17-1.086-.18-1.742-.19-1.22-.019-2.603-.039-3.564-1-.961-.961-.981-2.344-1-3.564-.01-.656-.02-1.333-.19-1.742-.184-.447-.671-.954-1.143-1.447C2.94 18.285 2 17.306 2 16c0-1.305.939-2.284 1.768-3.148.47-.492.958-1 1.142-1.446.17-.409.18-1.086.19-1.742.019-1.22.039-2.603 1-3.564.961-.961 2.344-.981 3.564-1 .656-.01 1.334-.02 1.742-.19.446-.184.954-.671 1.446-1.143C13.716 2.94 14.695 2 16 2c1.305 0 2.284.939 3.148 1.768.492.47 1 .958 1.446 1.142.409.17 1.086.18 1.742.19 1.22.019 2.603.039 3.564 1 .961.961.981 2.344 1 3.564.01.656.02 1.334.19 1.742.184.446.671.954 1.143 1.446C29.06 13.716 30 14.695 30 16Z"/>
</svg>
