<svg xmlns="http://www.w3.org/2000/svg" width="32" height="32" fill="none" viewBox="0 0 32 32">
  <path fill="#4A4A4F" d="M28.233 12.852c-.472-.492-.96-1-1.143-1.446-.17-.409-.18-1.086-.19-1.742-.019-1.22-.039-2.603-1-3.564-.961-.961-2.344-.981-3.564-1-.656-.01-1.333-.02-1.742-.19-.445-.184-.954-.671-1.447-1.143C18.286 2.94 17.306 2 16 2c-1.305 0-2.284.939-3.148 1.768-.492.47-1 .958-1.446 1.142-.406.17-1.086.18-1.742.19-1.22.019-2.603.039-3.564 1-.961.961-.975 2.344-1 3.564-.01.656-.02 1.334-.19 1.742-.184.445-.671.954-1.143 1.446C2.94 13.715 2 14.695 2 16c0 1.305.939 2.284 1.768 3.148.47.492.958 1 1.142 1.446.17.409.18 1.086.19 1.742.019 1.22.039 2.603 1 3.564.961.961 2.344.981 3.564 1 .656.01 1.334.02 1.742.19.445.184.954.671 1.446 1.143C13.715 29.06 14.695 30 16 30c1.305 0 2.284-.939 3.148-1.767.492-.472 1-.96 1.446-1.143.409-.17 1.086-.18 1.742-.19 1.22-.019 2.603-.039 3.564-1 .961-.961.981-2.344 1-3.564.01-.656.02-1.333.19-1.742.184-.445.671-.954 1.143-1.447C29.06 18.286 30 17.306 30 16c0-1.305-.939-2.284-1.767-3.148Zm-6.526.855-7 7a1.001 1.001 0 0 1-1.415 0l-3-3a1 1 0 0 1 1.415-1.415L14 18.587l6.293-6.293a1 1 0 0 1 1.415 1.415Z"/>
</svg>
