<svg xmlns="http://www.w3.org/2000/svg" width="32" height="32" fill="none" viewBox="0 0 32 32">
  <path fill="#4A4A4F" d="M17 11.5h11.5a.5.5 0 0 0 .5-.5V7a1 1 0 0 0-1-1H17.5a.5.5 0 0 0-.5.5v5Zm6 7.5h5.5a.5.5 0 0 0 .5-.5V14a.5.5 0 0 0-.5-.5H23V19Zm-2-5.5H11V19h10v-5.5Zm-12 0H3.5a.5.5 0 0 0-.5.5v4.5a.5.5 0 0 0 .5.5H9v-5.5Zm8 7.5v4.5a.5.5 0 0 0 .5.5H28a1 1 0 0 0 1-1v-3.5a.5.5 0 0 0-.5-.5H17Zm-2-9.5v-5a.5.5 0 0 0-.5-.5H4a1 1 0 0 0-1 1v4a.5.5 0 0 0 .5.5H15Zm0 9.5H3.5a.5.5 0 0 0-.5.5V25a1 1 0 0 0 1 1h10.5a.5.5 0 0 0 .5-.5V21Z"/>
</svg>
