<svg width="32" height="32" viewBox="0 0 32 32" fill="none" xmlns="http://www.w3.org/2000/svg">
<path d="M31 27.0001C31 27.2654 30.8946 27.5197 30.7071 27.7073C30.5196 27.8948 30.2652 28.0001 30 28.0001H12C11.7348 28.0001 11.4804 27.8948 11.2929 27.7073C11.1054 27.5197 11 27.2654 11 27.0001C11 26.7349 11.1054 26.4806 11.2929 26.293C11.4804 26.1055 11.7348 26.0001 12 26.0001H30C30.2652 26.0001 30.5196 26.1055 30.7071 26.293C30.8946 26.4806 31 26.7349 31 27.0001ZM27.73 23.9626L5.65125 17.7801C4.60193 17.4836 3.67784 16.8532 3.01898 15.9843C2.36012 15.1155 2.0024 14.0556 2 12.9651V6.00015C1.99998 5.68323 2.07527 5.37084 2.21967 5.08873C2.36407 4.80662 2.57344 4.56286 2.83054 4.37755C3.08763 4.19223 3.38509 4.07067 3.69838 4.02287C4.01168 3.97508 4.33185 4.00242 4.6325 4.10265L5.31625 4.33015C5.45965 4.3778 5.59039 4.45733 5.69864 4.56277C5.80689 4.6682 5.88984 4.7968 5.94125 4.9389L7.26625 8.61015L11 9.6739V6.00015C11 5.68323 11.0753 5.37084 11.2197 5.08873C11.3641 4.80662 11.5734 4.56286 11.8305 4.37755C12.0876 4.19223 12.3851 4.07067 12.6984 4.02287C13.0117 3.97508 13.3318 4.00242 13.6325 4.10265L14.3162 4.33015C14.4516 4.37525 14.5757 4.44877 14.6802 4.54579C14.7848 4.64281 14.8674 4.76108 14.9225 4.89265L17.735 11.5964L25.34 13.7214C26.3915 14.0167 27.3178 14.647 27.9784 15.5168C28.639 16.3865 28.9977 17.448 29 18.5401V23.0001C28.9999 23.1545 28.9642 23.3067 28.8955 23.4449C28.8268 23.5831 28.727 23.7035 28.604 23.7968C28.481 23.89 28.3381 23.9535 28.1865 23.9823C28.0348 24.011 27.8786 24.0043 27.73 23.9626ZM27 18.5401C26.9983 17.8847 26.7827 17.2478 26.3861 16.726C25.9895 16.2042 25.4335 15.826 24.8025 15.6489L16.7313 13.3989C16.5859 13.3584 16.4515 13.2855 16.3383 13.1857C16.2251 13.0859 16.1359 12.9618 16.0775 12.8226L13.25 6.0839L13 6.00015V11.0001C13.0001 11.1549 12.9643 11.3076 12.8954 11.4461C12.8265 11.5847 12.7263 11.7054 12.6029 11.7987C12.4794 11.892 12.336 11.9553 12.1839 11.9838C12.0317 12.0123 11.8751 12.005 11.7262 11.9626L6.22625 10.3951C6.07354 10.3514 5.93345 10.2719 5.81759 10.1632C5.70173 10.0545 5.61343 9.91976 5.56 9.77015L4.22375 6.0739L4 6.00015V12.9651C4.00162 13.6195 4.21637 14.2556 4.61174 14.777C5.00711 15.2985 5.56159 15.677 6.19125 15.8551L27 21.6814V18.5401Z" fill="#4A4A4F"/>
</svg>
