<svg width="32" height="32" viewBox="0 0 32 32" fill="none" xmlns="http://www.w3.org/2000/svg">
<path d="M28.6387 7.8525C28.4542 7.58913 28.2089 7.37413 27.9236 7.22572C27.6383 7.07732 27.3215 6.99989 26.9999 7H16.9999V3H18.9999C19.2651 3 19.5195 2.89464 19.707 2.70711C19.8946 2.51957 19.9999 2.26522 19.9999 2C19.9999 1.73478 19.8946 1.48043 19.707 1.29289C19.5195 1.10536 19.2651 1 18.9999 1H12.9999C12.7347 1 12.4803 1.10536 12.2928 1.29289C12.1053 1.48043 11.9999 1.73478 11.9999 2C11.9999 2.26522 12.1053 2.51957 12.2928 2.70711C12.4803 2.89464 12.7347 3 12.9999 3H14.9999V7H4.99991C4.67879 7.00072 4.36257 7.07875 4.07798 7.2275C3.79339 7.37624 3.5488 7.59132 3.36489 7.85456C3.18098 8.11779 3.06316 8.42144 3.02139 8.73983C2.97962 9.05822 3.01512 9.38198 3.12491 9.68375L6.39866 18.6838C6.53873 19.0688 6.79368 19.4015 7.12903 19.6369C7.46437 19.8723 7.86393 19.9991 8.27366 20H11.9999V28C11.9999 28.2652 12.1053 28.5196 12.2928 28.7071C12.4803 28.8946 12.7347 29 12.9999 29C13.2651 29 13.5195 28.8946 13.707 28.7071C13.8945 28.5196 13.9999 28.2652 13.9999 28V20H17.9999V28C17.9999 28.2652 18.1053 28.5196 18.2928 28.7071C18.4803 28.8946 18.7347 29 18.9999 29C19.2651 29 19.5195 28.8946 19.707 28.7071C19.8946 28.5196 19.9999 28.2652 19.9999 28V20H23.7274C24.1371 19.9991 24.5367 19.8723 24.872 19.6369C25.2074 19.4015 25.4623 19.0688 25.6024 18.6838L28.8762 9.68375C28.9866 9.38189 29.0227 9.05785 28.9814 8.73907C28.9401 8.4203 28.8225 8.11619 28.6387 7.8525ZM13.8349 18L12.1974 9H19.8024L18.1649 18H13.8349ZM4.99991 9H10.1649L11.8012 18H8.27241L4.99991 9ZM23.7274 18H20.1987L21.8349 9H26.9999L23.7274 18Z" fill="#4A4A4F"/>
</svg>
