<svg width="32" height="32" viewBox="0 0 32 32" fill="none" xmlns="http://www.w3.org/2000/svg">
<path d="M28.6387 7.8525C28.4542 7.58913 28.2089 7.37413 27.9236 7.22572C27.6383 7.07732 27.3215 6.99989 26.9999 7H16.9999V3H18.9999C19.2651 3 19.5195 2.89464 19.707 2.70711C19.8946 2.51957 19.9999 2.26522 19.9999 2C19.9999 1.73478 19.8946 1.48043 19.707 1.29289C19.5195 1.10536 19.2651 1 18.9999 1H12.9999C12.7347 1 12.4803 1.10536 12.2928 1.29289C12.1053 1.48043 11.9999 1.73478 11.9999 2C11.9999 2.26522 12.1053 2.51957 12.2928 2.70711C12.4803 2.89464 12.7347 3 12.9999 3H14.9999V7H4.99991C4.67879 7.00072 4.36257 7.07875 4.07798 7.2275C3.79339 7.37624 3.5488 7.59132 3.36489 7.85456C3.18098 8.11779 3.06316 8.42144 3.02139 8.73983C2.97962 9.05822 3.01512 9.38198 3.12491 9.68375L6.39866 18.6838C6.53873 19.0688 6.79368 19.4015 7.12903 19.6369C7.46437 19.8723 7.86393 19.9991 8.27366 20H23.7274C24.1371 19.9991 24.5367 19.8723 24.872 19.6369C25.2074 19.4015 25.4623 19.0688 25.6024 18.6838L28.8762 9.68375C28.9866 9.38189 29.0227 9.05785 28.9814 8.73907C28.9401 8.4203 28.8225 8.11619 28.6387 7.8525ZM12.8149 17.9837C12.7555 17.9947 12.6953 18.0001 12.6349 18C12.4009 17.9997 12.1745 17.9173 11.995 17.7673C11.8154 17.6172 11.6942 17.409 11.6524 17.1787L10.3749 10.1788C10.3514 10.0495 10.3536 9.91685 10.3814 9.78844C10.4092 9.66003 10.462 9.53834 10.5368 9.43034C10.6879 9.21221 10.9195 9.06303 11.1805 9.01562C11.4416 8.96822 11.7108 9.02646 11.9289 9.17755C12.037 9.25236 12.1292 9.34771 12.2003 9.45815C12.2715 9.5686 12.3202 9.69198 12.3437 9.82125L13.6162 16.8213C13.6636 17.0816 13.6059 17.3502 13.4557 17.5681C13.3055 17.786 13.0751 17.9354 12.8149 17.9837ZM21.6249 10.1788L20.3512 17.1787C20.3093 17.409 20.1881 17.6172 20.0086 17.7673C19.8291 17.9173 19.6026 17.9997 19.3687 18C19.3083 18.0001 19.248 17.9947 19.1887 17.9837C18.9278 17.9363 18.6964 17.7872 18.5454 17.5692C18.3945 17.3512 18.3363 17.0822 18.3837 16.8213L19.6562 9.82125C19.7036 9.56018 19.8527 9.32863 20.0709 9.17755C20.289 9.02646 20.5582 8.96822 20.8193 9.01562C21.0804 9.06303 21.3119 9.21221 21.463 9.43034C21.6141 9.64847 21.6723 9.91768 21.6249 10.1788ZM19.9999 22.5V28C19.9999 28.2652 19.8946 28.5196 19.707 28.7071C19.5195 28.8946 19.2651 29 18.9999 29H12.9999C12.7347 29 12.4803 28.8946 12.2928 28.7071C12.1053 28.5196 11.9999 28.2652 11.9999 28V22.5C11.9999 22.3674 12.0526 22.2402 12.1464 22.1464C12.2401 22.0527 12.3673 22 12.4999 22H19.4999C19.6325 22 19.7597 22.0527 19.8535 22.1464C19.9472 22.2402 19.9999 22.3674 19.9999 22.5Z" fill="#4A4A4F"/>
</svg>
