<svg width="32" height="32" viewBox="0 0 32 32" fill="none" xmlns="http://www.w3.org/2000/svg">
<path d="M28 5C28 5.26522 27.8946 5.51957 27.7071 5.70711C27.5196 5.89464 27.2652 6 27 6H5C4.73478 6 4.48043 5.89464 4.29289 5.70711C4.10536 5.51957 4 5.26522 4 5C4 4.73478 4.10536 4.48043 4.29289 4.29289C4.48043 4.10536 4.73478 4 5 4H27C27.2652 4 27.5196 4.10536 27.7071 4.29289C27.8946 4.48043 28 4.73478 28 5ZM24 8H19C18.4696 8 17.9609 8.21071 17.5858 8.58579C17.2107 8.96086 17 9.46957 17 10V22C17 22.5304 17.2107 23.0391 17.5858 23.4142C17.9609 23.7893 18.4696 24 19 24H24C24.5304 24 25.0391 23.7893 25.4142 23.4142C25.7893 23.0391 26 22.5304 26 22V10C26 9.46957 25.7893 8.96086 25.4142 8.58579C25.0391 8.21071 24.5304 8 24 8ZM13 8H8C7.46957 8 6.96086 8.21071 6.58579 8.58579C6.21071 8.96086 6 9.46957 6 10V27C6 27.5304 6.21071 28.0391 6.58579 28.4142C6.96086 28.7893 7.46957 29 8 29H13C13.5304 29 14.0391 28.7893 14.4142 28.4142C14.7893 28.0391 15 27.5304 15 27V10C15 9.46957 14.7893 8.96086 14.4142 8.58579C14.0391 8.21071 13.5304 8 13 8Z" fill="#4A4A4F"/>
</svg>
