<svg width="32" height="32" viewBox="0 0 32 32" fill="none" xmlns="http://www.w3.org/2000/svg">
<path d="M28 17.9999C27.998 19.8558 27.2599 21.6351 25.9476 22.9474C24.6352 24.2597 22.8559 24.9979 21 24.9999C19.9391 24.9999 18.9217 25.4213 18.1716 26.1714C17.4214 26.9216 17 27.939 17 28.9999C17 29.2651 16.8946 29.5194 16.7071 29.707C16.5196 29.8945 16.2652 29.9999 16 29.9999C15.7348 29.9999 15.4804 29.8945 15.2929 29.707C15.1054 29.5194 15 29.2651 15 28.9999C15 27.939 14.5786 26.9216 13.8284 26.1714C13.0783 25.4213 12.0609 24.9999 11 24.9999C9.14409 24.9979 7.36477 24.2597 6.05245 22.9474C4.74012 21.6351 4.00199 19.8558 4 17.9999C4 17.7346 4.10536 17.4803 4.29289 17.2928C4.48043 17.1052 4.73478 16.9999 5 16.9999C5.26522 16.9999 5.51957 17.1052 5.70711 17.2928C5.89464 17.4803 6 17.7346 6 17.9999C6 18.6565 6.12933 19.3067 6.3806 19.9133C6.63188 20.5199 7.00017 21.0711 7.46447 21.5354C8.40215 22.4731 9.67392 22.9999 11 22.9999C12.4771 22.999 13.9021 23.5454 15 24.5336V15.9999H11C10.7348 15.9999 10.4804 15.8945 10.2929 15.707C10.1054 15.5194 10 15.2651 10 14.9999C10 14.7346 10.1054 14.4803 10.2929 14.2928C10.4804 14.1052 10.7348 13.9999 11 13.9999H15V10.3536C14.1943 10.1134 13.5021 9.59124 13.0497 8.88258C12.5974 8.17391 12.4153 7.32612 12.5367 6.49422C12.658 5.66232 13.0748 4.9019 13.7107 4.35201C14.3467 3.80212 15.1593 3.49951 16 3.49951C16.8407 3.49951 17.6533 3.80212 18.2893 4.35201C18.9252 4.9019 19.342 5.66232 19.4633 6.49422C19.5847 7.32612 19.4026 8.17391 18.9503 8.88258C18.4979 9.59124 17.8057 10.1134 17 10.3536V13.9999H21C21.2652 13.9999 21.5196 14.1052 21.7071 14.2928C21.8946 14.4803 22 14.7346 22 14.9999C22 15.2651 21.8946 15.5194 21.7071 15.707C21.5196 15.8945 21.2652 15.9999 21 15.9999H17V24.5336C18.0979 23.5454 19.5229 22.999 21 22.9999C21.6566 22.9999 22.3068 22.8705 22.9134 22.6193C23.52 22.368 24.0712 21.9997 24.5355 21.5354C24.9998 21.0711 25.3681 20.5199 25.6194 19.9133C25.8707 19.3067 26 18.6565 26 17.9999C26 17.7346 26.1054 17.4803 26.2929 17.2928C26.4804 17.1052 26.7348 16.9999 27 16.9999C27.2652 16.9999 27.5196 17.1052 27.7071 17.2928C27.8946 17.4803 28 17.7346 28 17.9999Z" fill="#4A4A4F"/>
</svg>
