<svg width="32" height="32" viewBox="0 0 32 32" fill="none" xmlns="http://www.w3.org/2000/svg">
<path d="M22 19.4999C22 19.7966 21.912 20.0866 21.7472 20.3333C21.5824 20.5799 21.3481 20.7722 21.074 20.8857C20.7999 20.9993 20.4983 21.029 20.2074 20.9711C19.9164 20.9132 19.6491 20.7703 19.4393 20.5606C19.2296 20.3508 19.0867 20.0835 19.0288 19.7925C18.9709 19.5016 19.0007 19.2 19.1142 18.9259C19.2277 18.6518 19.42 18.4175 19.6667 18.2527C19.9133 18.0879 20.2033 17.9999 20.5 17.9999C20.8978 17.9999 21.2794 18.1579 21.5607 18.4393C21.842 18.7206 22 19.1021 22 19.4999ZM11.5 17.9999C11.2033 17.9999 10.9133 18.0879 10.6667 18.2527C10.42 18.4175 10.2277 18.6518 10.1142 18.9259C10.0007 19.2 9.97095 19.5016 10.0288 19.7925C10.0867 20.0835 10.2296 20.3508 10.4393 20.5606C10.6491 20.7703 10.9164 20.9132 11.2074 20.9711C11.4983 21.029 11.7999 20.9993 12.074 20.8857C12.3481 20.7722 12.5824 20.5799 12.7472 20.3333C12.912 20.0866 13 19.7966 13 19.4999C13 19.1021 12.842 18.7206 12.5607 18.4393C12.2794 18.1579 11.8978 17.9999 11.5 17.9999ZM30 20.9999V23.9999C30 24.5303 29.7893 25.0391 29.4142 25.4141C29.0391 25.7892 28.5304 25.9999 28 25.9999H4.00001C3.46957 25.9999 2.96087 25.7892 2.58579 25.4141C2.21072 25.0391 2.00001 24.5303 2.00001 23.9999V21.1412C1.99822 19.2134 2.38973 17.3056 3.15058 15.5344C3.91143 13.7631 5.02562 12.1658 6.42501 10.8399L3.29251 7.70741C3.10487 7.51977 2.99945 7.26528 2.99945 6.99991C2.99945 6.73455 3.10487 6.48005 3.29251 6.29241C3.48015 6.10477 3.73464 5.99936 4.00001 5.99936C4.26537 5.99936 4.51987 6.10477 4.70751 6.29241L7.97751 9.56241C10.3254 7.89925 13.1308 7.00404 16.0081 6.99978C18.8854 6.99553 21.6934 7.88245 24.0463 9.53866L27.2963 6.28866C27.4839 6.10102 27.7384 5.99561 28.0038 5.99561C28.2691 5.99561 28.5236 6.10102 28.7113 6.28866C28.8989 6.4763 29.0043 6.7308 29.0043 6.99616C29.0043 7.26153 28.8989 7.51602 28.7113 7.70366L25.6025 10.8124C25.6963 10.9012 25.79 10.9912 25.8825 11.0837C27.1918 12.3812 28.23 13.926 28.9369 15.6284C29.6438 17.3307 30.0051 19.1566 30 20.9999ZM28 20.9999C28 17.8173 26.7357 14.7651 24.4853 12.5146C22.2348 10.2642 19.1826 8.99991 16 8.99991H15.9575C9.36376 9.02241 4.00001 14.4687 4.00001 21.1412V23.9999H28V20.9999Z" fill="#4A4A4F"/>
</svg>
