<svg width="32" height="32" viewBox="0 0 32 32" fill="none" xmlns="http://www.w3.org/2000/svg">
<path d="M25.8825 11.0838C25.79 10.9913 25.6963 10.9013 25.6025 10.8126L28.7075 7.70757C28.8004 7.61466 28.8741 7.50436 28.9244 7.38296C28.9747 7.26157 29.0006 7.13146 29.0006 7.00007C29.0006 6.86867 28.9747 6.73856 28.9244 6.61717C28.8741 6.49578 28.8004 6.38548 28.7075 6.29257C28.6146 6.19966 28.5043 6.12596 28.3829 6.07567C28.2615 6.02539 28.1314 5.99951 28 5.99951C27.8686 5.99951 27.7385 6.02539 27.6171 6.07567C27.4957 6.12596 27.3854 6.19966 27.2925 6.29257L24.0425 9.54257C21.6897 7.88636 18.8817 6.99944 16.0044 7.00369C13.1271 7.00794 10.3217 7.90316 7.97376 9.56632L4.70751 6.29257C4.51987 6.10493 4.26537 5.99951 4.00001 5.99951C3.73464 5.99951 3.48015 6.10493 3.29251 6.29257C3.10487 6.48021 2.99945 6.7347 2.99945 7.00007C2.99945 7.26543 3.10487 7.51993 3.29251 7.70757L6.42501 10.8401C5.02562 12.1659 3.91143 13.7633 3.15058 15.5345C2.38973 17.3058 1.99822 19.2136 2.00001 21.1413V24.0001C2.00001 24.5305 2.21072 25.0392 2.58579 25.4143C2.96087 25.7894 3.46957 26.0001 4.00001 26.0001H28C28.5304 26.0001 29.0391 25.7894 29.4142 25.4143C29.7893 25.0392 30 24.5305 30 24.0001V21.0001C30.0051 19.1568 29.6438 17.3309 28.9369 15.6285C28.23 13.9262 27.1918 12.3813 25.8825 11.0838ZM11.5 21.0001C11.2033 21.0001 10.9133 20.9121 10.6667 20.7473C10.42 20.5824 10.2277 20.3482 10.1142 20.0741C10.0007 19.8 9.97095 19.4984 10.0288 19.2074C10.0867 18.9165 10.2296 18.6492 10.4393 18.4394C10.6491 18.2296 10.9164 18.0868 11.2074 18.0289C11.4983 17.971 11.7999 18.0007 12.074 18.1142C12.3481 18.2278 12.5824 18.42 12.7472 18.6667C12.912 18.9134 13 19.2034 13 19.5001C13 19.8979 12.842 20.2794 12.5607 20.5607C12.2794 20.842 11.8978 21.0001 11.5 21.0001ZM20.5 21.0001C20.2033 21.0001 19.9133 20.9121 19.6667 20.7473C19.42 20.5824 19.2277 20.3482 19.1142 20.0741C19.0007 19.8 18.9709 19.4984 19.0288 19.2074C19.0867 18.9165 19.2296 18.6492 19.4393 18.4394C19.6491 18.2296 19.9164 18.0868 20.2074 18.0289C20.4983 17.971 20.7999 18.0007 21.074 18.1142C21.3481 18.2278 21.5824 18.42 21.7472 18.6667C21.912 18.9134 22 19.2034 22 19.5001C22 19.8979 21.842 20.2794 21.5607 20.5607C21.2794 20.842 20.8978 21.0001 20.5 21.0001Z" fill="#4A4A4F"/>
</svg>
