<svg width="32" height="32" viewBox="0 0 32 32" fill="none" xmlns="http://www.w3.org/2000/svg">
<path d="M16 3C13.4288 3 10.9154 3.76244 8.77759 5.1909C6.63975 6.61935 4.97351 8.64968 3.98957 11.0251C3.00563 13.4006 2.74819 16.0144 3.2498 18.5362C3.75141 21.0579 4.98953 23.3743 6.80762 25.1924C8.6257 27.0105 10.9421 28.2486 13.4638 28.7502C15.9856 29.2518 18.5995 28.9944 20.9749 28.0104C23.3503 27.0265 25.3807 25.3603 26.8091 23.2224C28.2376 21.0846 29 18.5712 29 16C28.9964 12.5533 27.6256 9.24882 25.1884 6.81163C22.7512 4.37445 19.4467 3.00364 16 3ZM10.4575 22.515L9.85751 23.515C9.78988 23.6276 9.70073 23.7258 9.59515 23.8039C9.48957 23.8821 9.36964 23.9387 9.24219 23.9705C9.11474 24.0023 8.98228 24.0087 8.85236 23.9893C8.72244 23.9699 8.59761 23.9251 8.48501 23.8575C8.3724 23.7899 8.27421 23.7007 8.19606 23.5951C8.1179 23.4896 8.06131 23.3696 8.0295 23.2422C7.9977 23.1147 7.99131 22.9823 8.0107 22.8524C8.03009 22.7224 8.07487 22.5976 8.14251 22.485L8.74251 21.485C8.87909 21.2576 9.10043 21.0937 9.35782 21.0295C9.61522 20.9653 9.88758 21.0059 10.115 21.1425C10.3424 21.2791 10.5063 21.5004 10.5705 21.7578C10.6347 22.0152 10.5941 22.2876 10.4575 22.515ZM16 19H7.00001C6.73479 19 6.48044 18.8946 6.2929 18.7071C6.10536 18.5196 6.00001 18.2652 6.00001 18C6.00001 17.7348 6.10536 17.4804 6.2929 17.2929C6.48044 17.1054 6.73479 17 7.00001 17H11.4338L14.8338 11.3337L13.1425 8.515C13.0749 8.40239 13.0301 8.27757 13.0107 8.14765C12.9913 8.01773 12.9977 7.88526 13.0295 7.75782C13.0613 7.63037 13.1179 7.51043 13.1961 7.40486C13.2742 7.29928 13.3724 7.21013 13.485 7.1425C13.7124 7.00591 13.9848 6.96526 14.2422 7.0295C14.3696 7.0613 14.4896 7.1179 14.5951 7.19605C14.7007 7.27421 14.7899 7.37239 14.8575 7.485L16 9.39L17.1425 7.485C17.2101 7.37239 17.2993 7.27421 17.4049 7.19605C17.5104 7.1179 17.6304 7.0613 17.7578 7.0295C17.8853 6.99769 18.0177 6.9913 18.1477 7.01069C18.2776 7.03008 18.4024 7.07487 18.515 7.1425C18.6276 7.21013 18.7258 7.29928 18.804 7.40486C18.8821 7.51043 18.9387 7.63037 18.9705 7.75782C19.0023 7.88526 19.0087 8.01773 18.9893 8.14765C18.9699 8.27757 18.9251 8.40239 18.8575 8.515L13.7663 17H16C16.2652 17 16.5196 17.1054 16.7071 17.2929C16.8946 17.4804 17 17.7348 17 18C17 18.2652 16.8946 18.5196 16.7071 18.7071C16.5196 18.8946 16.2652 19 16 19ZM25 19H21.7663L23.8575 22.485C23.9941 22.7124 24.0347 22.9848 23.9705 23.2422C23.9063 23.4996 23.7424 23.7209 23.515 23.8575C23.2876 23.9941 23.0152 24.0347 22.7578 23.9705C22.5004 23.9063 22.2791 23.7424 22.1425 23.515L17.3425 15.515C17.2059 15.2876 17.1653 15.0152 17.2295 14.7578C17.2937 14.5004 17.4576 14.2791 17.685 14.1425C17.9124 14.0059 18.1848 13.9653 18.4422 14.0295C18.6996 14.0937 18.9209 14.2576 19.0575 14.485L20.5663 17H25C25.2652 17 25.5196 17.1054 25.7071 17.2929C25.8946 17.4804 26 17.7348 26 18C26 18.2652 25.8946 18.5196 25.7071 18.7071C25.5196 18.8946 25.2652 19 25 19Z" fill="#4A4A4F"/>
</svg>
