<svg width="32" height="32" viewBox="0 0 32 32" fill="none" xmlns="http://www.w3.org/2000/svg">
<path d="M27 5H5C4.46957 5 3.96086 5.21071 3.58579 5.58579C3.21071 5.96086 3 6.46957 3 7V25C3 25.5304 3.21071 26.0391 3.58579 26.4142C3.96086 26.7893 4.46957 27 5 27H27C27.5304 27 28.0391 26.7893 28.4142 26.4142C28.7893 26.0391 29 25.5304 29 25V7C29 6.46957 28.7893 5.96086 28.4142 5.58579C28.0391 5.21071 27.5304 5 27 5ZM8.5 12C8.20333 12 7.91332 11.912 7.66664 11.7472C7.41997 11.5824 7.22771 11.3481 7.11418 11.074C7.00065 10.7999 6.97094 10.4983 7.02882 10.2074C7.0867 9.91639 7.22956 9.64912 7.43934 9.43934C7.64912 9.22956 7.91639 9.0867 8.20736 9.02882C8.49834 8.97094 8.79994 9.00065 9.07403 9.11418C9.34811 9.22771 9.58238 9.41997 9.7472 9.66665C9.91203 9.91332 10 10.2033 10 10.5C10 10.8978 9.84196 11.2794 9.56066 11.5607C9.27936 11.842 8.89782 12 8.5 12ZM13.5 12C13.2033 12 12.9133 11.912 12.6666 11.7472C12.42 11.5824 12.2277 11.3481 12.1142 11.074C12.0006 10.7999 11.9709 10.4983 12.0288 10.2074C12.0867 9.91639 12.2296 9.64912 12.4393 9.43934C12.6491 9.22956 12.9164 9.0867 13.2074 9.02882C13.4983 8.97094 13.7999 9.00065 14.074 9.11418C14.3481 9.22771 14.5824 9.41997 14.7472 9.66665C14.912 9.91332 15 10.2033 15 10.5C15 10.8978 14.842 11.2794 14.5607 11.5607C14.2794 11.842 13.8978 12 13.5 12Z" fill="#4A4A4F"/>
</svg>
