<svg width="32" height="32" viewBox="0 0 32 32" fill="none" xmlns="http://www.w3.org/2000/svg">
<path d="M30.0001 10V19C30.0002 19.1979 29.9417 19.3914 29.8318 19.556C29.7219 19.7206 29.5657 19.8489 29.3829 19.9246C29.2 20.0004 28.9988 20.0202 28.8048 19.9815C28.6107 19.9429 28.4324 19.8475 28.2926 19.7075L24.5001 15.9138L15.7076 24.7075C15.6147 24.8005 15.5044 24.8742 15.383 24.9246C15.2616 24.9749 15.1315 25.0008 15.0001 25.0008C14.8687 25.0008 14.7385 24.9749 14.6171 24.9246C14.4957 24.8742 14.3854 24.8005 14.2926 24.7075L2.29257 12.7075C2.10493 12.5199 1.99951 12.2654 1.99951 12C1.99951 11.7346 2.10493 11.4801 2.29257 11.2925C2.48021 11.1049 2.7347 10.9994 3.00007 10.9994C3.26543 10.9994 3.51993 11.1049 3.70757 11.2925L15.0001 22.5863L23.0863 14.5L19.2926 10.7075C19.1526 10.5676 19.0572 10.3894 19.0185 10.1953C18.9799 10.0012 18.9997 9.80003 19.0754 9.61721C19.1512 9.43439 19.2795 9.27815 19.4441 9.16828C19.6087 9.05841 19.8022 8.99984 20.0001 9H29.0001C29.2653 9 29.5196 9.10536 29.7072 9.29289C29.8947 9.48043 30.0001 9.73478 30.0001 10Z" fill="#4A4A4F"/>
</svg>
