<svg width="32" height="32" viewBox="0 0 32 32" fill="none" xmlns="http://www.w3.org/2000/svg">
<path d="M25.9237 10.3823C25.8481 10.5651 25.72 10.7213 25.5555 10.8312C25.3911 10.9411 25.1978 10.9998 25 10.9998H20V15.9998C19.9964 19.4465 18.6256 22.751 16.1884 25.1882C13.7512 27.6254 10.4467 28.9962 7 28.9998C6.73478 28.9998 6.48043 28.8945 6.29289 28.7069C6.10536 28.5194 6 28.265 6 27.9998C6 27.7346 6.10536 27.4802 6.29289 27.2927C6.48043 27.1052 6.73478 26.9998 7 26.9998C9.91637 26.9965 12.7123 25.8365 14.7745 23.7743C16.8367 21.7121 17.9967 18.9162 18 15.9998V10.9998H13C12.8021 11 12.6086 10.9414 12.444 10.8315C12.2794 10.7217 12.1511 10.5654 12.0754 10.3826C11.9996 10.1998 11.9798 9.99859 12.0185 9.8045C12.0571 9.61042 12.1525 9.43217 12.2925 9.29231L18.2925 3.29231C18.3854 3.19933 18.4957 3.12557 18.6171 3.07525C18.7385 3.02493 18.8686 2.99902 19 2.99902C19.1314 2.99902 19.2615 3.02493 19.3829 3.07525C19.5043 3.12557 19.6146 3.19933 19.7075 3.29231L25.7075 9.29231C25.8473 9.43224 25.9425 9.61049 25.981 9.80451C26.0195 9.99853 25.9995 10.1996 25.9237 10.3823Z" fill="#4A4A4F"/>
</svg>
