<svg width="32" height="32" viewBox="0 0 32 32" fill="none" xmlns="http://www.w3.org/2000/svg">
<path d="M28 16C28 16.2652 27.8946 16.5196 27.7071 16.7071C27.5196 16.8946 27.2652 17 27 17H5C4.73478 17 4.48043 16.8946 4.29289 16.7071C4.10536 16.5196 4 16.2652 4 16C4 15.7348 4.10536 15.4804 4.29289 15.2929C4.48043 15.1054 4.73478 15 5 15H27C27.2652 15 27.5196 15.1054 27.7071 15.2929C27.8946 15.4804 28 15.7348 28 16ZM15.2925 12.7075C15.3854 12.8005 15.4957 12.8742 15.6171 12.9246C15.7385 12.9749 15.8686 13.0008 16 13.0008C16.1314 13.0008 16.2615 12.9749 16.3829 12.9246C16.5043 12.8742 16.6146 12.8005 16.7075 12.7075L20.7075 8.7075C20.8951 8.51986 21.0006 8.26536 21.0006 8C21.0006 7.73464 20.8951 7.48014 20.7075 7.2925C20.5199 7.10486 20.2654 6.99944 20 6.99944C19.7346 6.99944 19.4801 7.10486 19.2925 7.2925L17 9.58625V2C17 1.73478 16.8946 1.48043 16.7071 1.29289C16.5196 1.10536 16.2652 1 16 1C15.7348 1 15.4804 1.10536 15.2929 1.29289C15.1054 1.48043 15 1.73478 15 2V9.58625L12.7075 7.2925C12.6146 7.19959 12.5043 7.12589 12.3829 7.07561C12.2615 7.02532 12.1314 6.99944 12 6.99944C11.7346 6.99944 11.4801 7.10486 11.2925 7.2925C11.1996 7.38541 11.1259 7.49571 11.0756 7.6171C11.0253 7.7385 10.9994 7.86861 10.9994 8C10.9994 8.26536 11.1049 8.51986 11.2925 8.7075L15.2925 12.7075ZM16.7075 19.2925C16.6146 19.1995 16.5043 19.1258 16.3829 19.0754C16.2615 19.0251 16.1314 18.9992 16 18.9992C15.8686 18.9992 15.7385 19.0251 15.6171 19.0754C15.4957 19.1258 15.3854 19.1995 15.2925 19.2925L11.2925 23.2925C11.1996 23.3854 11.1259 23.4957 11.0756 23.6171C11.0253 23.7385 10.9994 23.8686 10.9994 24C10.9994 24.1314 11.0253 24.2615 11.0756 24.3829C11.1259 24.5043 11.1996 24.6146 11.2925 24.7075C11.4801 24.8951 11.7346 25.0006 12 25.0006C12.1314 25.0006 12.2615 24.9747 12.3829 24.9244C12.5043 24.8741 12.6146 24.8004 12.7075 24.7075L15 22.4137V30C15 30.2652 15.1054 30.5196 15.2929 30.7071C15.4804 30.8946 15.7348 31 16 31C16.2652 31 16.5196 30.8946 16.7071 30.7071C16.8946 30.5196 17 30.2652 17 30V22.4137L19.2925 24.7075C19.3854 24.8004 19.4957 24.8741 19.6171 24.9244C19.7385 24.9747 19.8686 25.0006 20 25.0006C20.1314 25.0006 20.2615 24.9747 20.3829 24.9244C20.5043 24.8741 20.6146 24.8004 20.7075 24.7075C20.8004 24.6146 20.8741 24.5043 20.9244 24.3829C20.9747 24.2615 21.0006 24.1314 21.0006 24C21.0006 23.8686 20.9747 23.7385 20.9244 23.6171C20.8741 23.4957 20.8004 23.3854 20.7075 23.2925L16.7075 19.2925Z" fill="#4A4A4F"/>
</svg>
