<svg width="32" height="32" viewBox="0 0 32 32" fill="none" xmlns="http://www.w3.org/2000/svg">
<path d="M25.7073 18.7075L16.7073 27.7075C16.6144 27.8005 16.5041 27.8742 16.3828 27.9246C16.2614 27.9749 16.1312 28.0008 15.9998 28.0008C15.8684 28.0008 15.7383 27.9749 15.6169 27.9246C15.4955 27.8742 15.3852 27.8005 15.2923 27.7075L6.29231 18.7075C6.1523 18.5676 6.05693 18.3894 6.01828 18.1953C5.97963 18.0012 5.99944 17.8 6.07519 17.6172C6.15094 17.4344 6.27923 17.2782 6.44383 17.1683C6.60842 17.0584 6.80192 16.9998 6.99981 17H14.9998V5C14.9998 4.73478 15.1052 4.48043 15.2927 4.29289C15.4802 4.10536 15.7346 4 15.9998 4C16.265 4 16.5194 4.10536 16.7069 4.29289C16.8945 4.48043 16.9998 4.73478 16.9998 5V17H24.9998C25.1977 16.9998 25.3912 17.0584 25.5558 17.1683C25.7204 17.2782 25.8487 17.4344 25.9244 17.6172C26.0002 17.8 26.02 18.0012 25.9813 18.1953C25.9427 18.3894 25.8473 18.5676 25.7073 18.7075Z" fill="#4A4A4F"/>
</svg>
