<svg width="32" height="32" viewBox="0 0 32 32" fill="none" xmlns="http://www.w3.org/2000/svg">
<path d="M27.9237 10.3823C27.8481 10.5651 27.72 10.7213 27.5555 10.8312C27.3911 10.9411 27.1978 10.9998 27 10.9998H22V20.9998C22 23.1215 21.1571 25.1564 19.6569 26.6567C18.1566 28.157 16.1217 28.9998 14 28.9998C11.8783 28.9998 9.84344 28.157 8.34315 26.6567C6.84285 25.1564 6 23.1215 6 20.9998V9.99981C6 9.73459 6.10536 9.48024 6.29289 9.2927C6.48043 9.10517 6.73478 8.99981 7 8.99981C7.26522 8.99981 7.51957 9.10517 7.70711 9.2927C7.89464 9.48024 8 9.73459 8 9.99981V20.9998C8 22.5911 8.63214 24.1172 9.75736 25.2425C10.8826 26.3677 12.4087 26.9998 14 26.9998C15.5913 26.9998 17.1174 26.3677 18.2426 25.2425C19.3679 24.1172 20 22.5911 20 20.9998V10.9998H15C14.8021 11 14.6086 10.9414 14.444 10.8315C14.2794 10.7217 14.1511 10.5654 14.0754 10.3826C13.9996 10.1998 13.9798 9.99859 14.0185 9.8045C14.0571 9.61042 14.1525 9.43217 14.2925 9.29231L20.2925 3.29231C20.3854 3.19933 20.4957 3.12557 20.6171 3.07525C20.7385 3.02493 20.8686 2.99902 21 2.99902C21.1314 2.99902 21.2615 3.02493 21.3829 3.07525C21.5043 3.12557 21.6146 3.19933 21.7075 3.29231L27.7075 9.29231C27.8473 9.43224 27.9425 9.61049 27.981 9.80451C28.0195 9.99853 27.9995 10.1996 27.9237 10.3823Z" fill="#4A4A4F"/>
</svg>
