<svg width="32" height="32" viewBox="0 0 32 32" fill="none" xmlns="http://www.w3.org/2000/svg">
<path d="M26 4H6C5.46957 4 4.96086 4.21071 4.58579 4.58579C4.21071 4.96086 4 5.46957 4 6V26C4 26.5304 4.21071 27.0391 4.58579 27.4142C4.96086 27.7893 5.46957 28 6 28H26C26.5304 28 27.0391 27.7893 27.4142 27.4142C27.7893 27.0391 28 26.5304 28 26V6C28 5.46957 27.7893 4.96086 27.4142 4.58579C27.0391 4.21071 26.5304 4 26 4ZM26 26H6V6H26V26ZM11.2925 15.7075C11.1995 15.6146 11.1258 15.5043 11.0754 15.3829C11.0251 15.2615 10.9992 15.1314 10.9992 15C10.9992 14.8686 11.0251 14.7385 11.0754 14.6171C11.1258 14.4957 11.1995 14.3854 11.2925 14.2925L15.2925 10.2925C15.3854 10.1995 15.4957 10.1258 15.6171 10.0754C15.7385 10.0251 15.8686 9.99921 16 9.99921C16.1314 9.99921 16.2615 10.0251 16.3829 10.0754C16.5043 10.1258 16.6146 10.1995 16.7075 10.2925L20.7075 14.2925C20.8004 14.3854 20.8741 14.4957 20.9244 14.6171C20.9747 14.7385 21.0006 14.8686 21.0006 15C21.0006 15.1314 20.9747 15.2615 20.9244 15.3829C20.8741 15.5043 20.8004 15.6146 20.7075 15.7075C20.6146 15.8004 20.5043 15.8741 20.3829 15.9244C20.2615 15.9747 20.1314 16.0006 20 16.0006C19.8686 16.0006 19.7385 15.9747 19.6171 15.9244C19.4957 15.8741 19.3854 15.8004 19.2925 15.7075L17 13.4137V21C17 21.2652 16.8946 21.5196 16.7071 21.7071C16.5196 21.8946 16.2652 22 16 22C15.7348 22 15.4804 21.8946 15.2929 21.7071C15.1054 21.5196 15 21.2652 15 21V13.4137L12.7075 15.7075C12.6146 15.8005 12.5043 15.8742 12.3829 15.9246C12.2615 15.9749 12.1314 16.0008 12 16.0008C11.8686 16.0008 11.7385 15.9749 11.6171 15.9246C11.4957 15.8742 11.3854 15.8005 11.2925 15.7075Z" fill="#4A4A4F"/>
</svg>
