<svg width="32" height="32" viewBox="0 0 32 32" fill="none" xmlns="http://www.w3.org/2000/svg">
<path d="M28.9998 17.9998C28.9975 20.1208 28.1539 22.1543 26.6541 23.6541C25.1543 25.1539 23.1208 25.9975 20.9998 25.9998H9.99981C9.73459 25.9998 9.48024 25.8945 9.2927 25.7069C9.10517 25.5194 8.99981 25.265 8.99981 24.9998C8.99981 24.7346 9.10517 24.4802 9.2927 24.2927C9.48024 24.1052 9.73459 23.9998 9.99981 23.9998H20.9998C22.5911 23.9998 24.1172 23.3677 25.2425 22.2425C26.3677 21.1172 26.9998 19.5911 26.9998 17.9998C26.9998 16.4085 26.3677 14.8824 25.2425 13.7572C24.1172 12.632 22.5911 11.9998 20.9998 11.9998H10.9998V16.9998C11 17.1977 10.9414 17.3912 10.8315 17.5558C10.7217 17.7204 10.5654 17.8487 10.3826 17.9244C10.1998 18.0002 9.99859 18.02 9.8045 17.9813C9.61042 17.9427 9.43217 17.8473 9.29231 17.7073L3.29231 11.7073C3.19933 11.6144 3.12557 11.5041 3.07525 11.3828C3.02493 11.2614 2.99902 11.1312 2.99902 10.9998C2.99902 10.8684 3.02493 10.7383 3.07525 10.6169C3.12557 10.4955 3.19933 10.3852 3.29231 10.2923L9.29231 4.29231C9.43217 4.1523 9.61042 4.05693 9.8045 4.01828C9.99859 3.97963 10.1998 3.99944 10.3826 4.07519C10.5654 4.15094 10.7217 4.27923 10.8315 4.44383C10.9414 4.60842 11 4.80192 10.9998 4.99981V9.99981H20.9998C23.1208 10.0021 25.1543 10.8457 26.6541 12.3455C28.1539 13.8453 28.9975 15.8788 28.9998 17.9998Z" fill="#4A4A4F"/>
</svg>
