<svg width="32" height="32" viewBox="0 0 32 32" fill="none" xmlns="http://www.w3.org/2000/svg">
<path d="M28 5C28 5.26522 27.8946 5.51957 27.7071 5.70711C27.5196 5.89464 27.2652 6 27 6H5C4.73478 6 4.48043 5.89464 4.29289 5.70711C4.10536 5.51957 4 5.26522 4 5C4 4.73478 4.10536 4.48043 4.29289 4.29289C4.48043 4.10536 4.73478 4 5 4H27C27.2652 4 27.5196 4.10536 27.7071 4.29289C27.8946 4.48043 28 4.73478 28 5ZM24.3825 12.0763C24.1998 12.0005 23.9987 11.9805 23.8047 12.019C23.6107 12.0575 23.4324 12.1527 23.2925 12.2925L18 17.5863L10.7075 10.2925C10.5199 10.1049 10.2654 9.99944 10 9.99944C9.73464 9.99944 9.48014 10.1049 9.2925 10.2925C9.10486 10.4801 8.99944 10.7346 8.99944 11C8.99944 11.2654 9.10486 11.5199 9.2925 11.7075L16.5863 19L11.2925 24.2925C11.1525 24.4324 11.0571 24.6106 11.0185 24.8047C10.9798 24.9988 10.9996 25.2 11.0754 25.3828C11.1511 25.5656 11.2794 25.7218 11.444 25.8317C11.6086 25.9416 11.8021 26.0002 12 26H24C24.2652 26 24.5196 25.8946 24.7071 25.7071C24.8946 25.5196 25 25.2652 25 25V13C25 12.8022 24.9413 12.6089 24.8314 12.4445C24.7214 12.28 24.5652 12.1519 24.3825 12.0763Z" fill="#4A4A4F"/>
</svg>
