<svg width="32" height="32" viewBox="0 0 32 32" fill="none" xmlns="http://www.w3.org/2000/svg">
<path d="M28.7075 13.7073L22.7075 19.7073C22.5199 19.895 22.2654 20.0004 22 20.0004C21.7346 20.0004 21.4801 19.895 21.2925 19.7073C21.1049 19.5197 20.9994 19.2652 20.9994 18.9998C20.9994 18.7344 21.1049 18.48 21.2925 18.2923L26.5863 12.9998L21.2925 7.70731C21.1996 7.6144 21.1259 7.5041 21.0756 7.38271C21.0253 7.26131 20.9994 7.13121 20.9994 6.99981C20.9994 6.86842 21.0253 6.73831 21.0756 6.61691C21.1259 6.49552 21.1996 6.38522 21.2925 6.29231C21.4801 6.10467 21.7346 5.99925 22 5.99925C22.1314 5.99925 22.2615 6.02514 22.3829 6.07542C22.5043 6.1257 22.6146 6.1994 22.7075 6.29231L28.7075 12.2923C28.8005 12.3852 28.8742 12.4955 28.9246 12.6169C28.9749 12.7383 29.0008 12.8684 29.0008 12.9998C29.0008 13.1312 28.9749 13.2614 28.9246 13.3828C28.8742 13.5041 28.8005 13.6144 28.7075 13.7073ZM22.7075 12.2923L16.7075 6.29231C16.5676 6.1523 16.3894 6.05693 16.1953 6.01828C16.0012 5.97963 15.8 5.99944 15.6172 6.07519C15.4344 6.15094 15.2782 6.27923 15.1683 6.44383C15.0584 6.60842 14.9998 6.80192 15 6.99981V12.0373C11.7364 12.2935 8.68913 13.7698 6.46524 16.172C4.24135 18.5743 3.00411 21.7262 3 24.9998C3 25.265 3.10536 25.5194 3.29289 25.7069C3.48043 25.8945 3.73478 25.9998 4 25.9998C4.26522 25.9998 4.51957 25.8945 4.70711 25.7069C4.89464 25.5194 5 25.265 5 24.9998C5.0033 22.2566 6.03022 19.6133 7.87979 17.5873C9.72935 15.5614 12.2684 14.2986 15 14.0461V18.9998C14.9998 19.1977 15.0584 19.3912 15.1683 19.5558C15.2782 19.7204 15.4344 19.8487 15.6172 19.9244C15.8 20.0002 16.0012 20.02 16.1953 19.9813C16.3894 19.9427 16.5676 19.8473 16.7075 19.7073L22.7075 13.7073C22.8005 13.6144 22.8742 13.5041 22.9246 13.3828C22.9749 13.2614 23.0008 13.1312 23.0008 12.9998C23.0008 12.8684 22.9749 12.7383 22.9246 12.6169C22.8742 12.4955 22.8005 12.3852 22.7075 12.2923Z" fill="#4A4A4F"/>
</svg>
