<svg width="32" height="32" viewBox="0 0 32 32" fill="none" xmlns="http://www.w3.org/2000/svg">
<path d="M20.7076 24.2923C20.8005 24.3852 20.8743 24.4955 20.9246 24.6169C20.975 24.7383 21.0009 24.8684 21.0009 24.9998C21.0009 25.1312 20.975 25.2614 20.9246 25.3827C20.8743 25.5041 20.8005 25.6144 20.7076 25.7073L16.7076 29.7073C16.6147 29.8003 16.5044 29.874 16.383 29.9244C16.2616 29.9747 16.1315 30.0006 16.0001 30.0006C15.8687 30.0006 15.7385 29.9747 15.6171 29.9244C15.4957 29.874 15.3854 29.8003 15.2926 29.7073L11.2926 25.7073C11.1049 25.5197 10.9995 25.2652 10.9995 24.9998C10.9995 24.7344 11.1049 24.4799 11.2926 24.2923C11.4802 24.1047 11.7347 23.9993 12.0001 23.9993C12.2654 23.9993 12.5199 24.1047 12.7076 24.2923L15.0001 26.5861V5.41356L12.7076 7.70731C12.5199 7.89495 12.2654 8.00037 12.0001 8.00037C11.7347 8.00037 11.4802 7.89495 11.2926 7.70731C11.1049 7.51967 10.9995 7.26517 10.9995 6.99981C10.9995 6.73445 11.1049 6.47995 11.2926 6.29231L15.2926 2.29231C15.3854 2.19933 15.4957 2.12557 15.6171 2.07525C15.7385 2.02493 15.8687 1.99902 16.0001 1.99902C16.1315 1.99902 16.2616 2.02493 16.383 2.07525C16.5044 2.12557 16.6147 2.19933 16.7076 2.29231L20.7076 6.29231C20.8952 6.47995 21.0006 6.73445 21.0006 6.99981C21.0006 7.26517 20.8952 7.51967 20.7076 7.70731C20.5199 7.89495 20.2654 8.00037 20.0001 8.00037C19.7347 8.00037 19.4802 7.89495 19.2926 7.70731L17.0001 5.41356V26.5861L19.2926 24.2923C19.3854 24.1993 19.4957 24.1256 19.6171 24.0752C19.7385 24.0249 19.8687 23.999 20.0001 23.999C20.1315 23.999 20.2616 24.0249 20.383 24.0752C20.5044 24.1256 20.6147 24.1993 20.7076 24.2923Z" fill="#4A4A4F"/>
</svg>
