<svg width="32" height="32" viewBox="0 0 32 32" fill="none" xmlns="http://www.w3.org/2000/svg">
<path d="M28.9998 18.0001C28.9975 20.1211 28.1539 22.1546 26.6541 23.6544C25.1543 25.1542 23.1208 25.9978 20.9998 26.0001H9.99981C9.73459 26.0001 9.48024 25.8947 9.2927 25.7072C9.10517 25.5196 8.99981 25.2653 8.99981 25.0001C8.99981 24.7349 9.10517 24.4805 9.2927 24.293C9.48024 24.1054 9.73459 24.0001 9.99981 24.0001H20.9998C22.5911 24.0001 24.1172 23.3679 25.2425 22.2427C26.3677 21.1175 26.9998 19.5914 26.9998 18.0001C26.9998 16.4088 26.3677 14.8826 25.2425 13.7574C24.1172 12.6322 22.5911 12.0001 20.9998 12.0001H6.41356L10.7073 16.2926C10.895 16.4802 11.0004 16.7347 11.0004 17.0001C11.0004 17.2654 10.895 17.5199 10.7073 17.7076C10.5197 17.8952 10.2652 18.0006 9.99981 18.0006C9.73445 18.0006 9.47995 17.8952 9.29231 17.7076L3.29231 11.7076C3.19933 11.6147 3.12557 11.5044 3.07525 11.383C3.02493 11.2616 2.99902 11.1315 2.99902 11.0001C2.99902 10.8687 3.02493 10.7385 3.07525 10.6171C3.12557 10.4957 3.19933 10.3854 3.29231 10.2926L9.29231 4.29257C9.47995 4.10493 9.73445 3.99951 9.99981 3.99951C10.2652 3.99951 10.5197 4.10493 10.7073 4.29257C10.895 4.48021 11.0004 4.7347 11.0004 5.00007C11.0004 5.26543 10.895 5.51993 10.7073 5.70757L6.41356 10.0001H20.9998C23.1208 10.0024 25.1543 10.846 26.6541 12.3458C28.1539 13.8456 28.9975 15.879 28.9998 18.0001Z" fill="#4A4A4F"/>
</svg>
