<svg width="32" height="32" viewBox="0 0 32 32" fill="none" xmlns="http://www.w3.org/2000/svg">
<path d="M27.7075 22.7075L21.7075 28.7075C21.6146 28.8005 21.5043 28.8742 21.3829 28.9246C21.2615 28.9749 21.1314 29.0008 21 29.0008C20.8686 29.0008 20.7385 28.9749 20.6171 28.9246C20.4957 28.8742 20.3854 28.8005 20.2925 28.7075L14.2925 22.7075C14.1049 22.5199 13.9994 22.2654 13.9994 22C13.9994 21.7346 14.1049 21.4801 14.2925 21.2925C14.4801 21.1049 14.7346 20.9994 15 20.9994C15.2654 20.9994 15.5199 21.1049 15.7075 21.2925L20 25.5863V11C20 9.4087 19.3679 7.88258 18.2426 6.75736C17.1174 5.63214 15.5913 5 14 5C12.4087 5 10.8826 5.63214 9.75736 6.75736C8.63214 7.88258 8 9.4087 8 11V22C8 22.2652 7.89464 22.5196 7.70711 22.7071C7.51957 22.8946 7.26522 23 7 23C6.73478 23 6.48043 22.8946 6.29289 22.7071C6.10536 22.5196 6 22.2652 6 22V11C6 8.87827 6.84285 6.84344 8.34315 5.34315C9.84344 3.84285 11.8783 3 14 3C16.1217 3 18.1566 3.84285 19.6569 5.34315C21.1571 6.84344 22 8.87827 22 11V25.5863L26.2925 21.2925C26.4801 21.1049 26.7346 20.9994 27 20.9994C27.2654 20.9994 27.5199 21.1049 27.7075 21.2925C27.8951 21.4801 28.0006 21.7346 28.0006 22C28.0006 22.2654 27.8951 22.5199 27.7075 22.7075Z" fill="#4A4A4F"/>
</svg>
