<svg width="32" height="32" viewBox="0 0 32 32" fill="none" xmlns="http://www.w3.org/2000/svg">
<path d="M28.9236 16.6175C28.8479 16.4348 28.7198 16.2786 28.5553 16.1686C28.3909 16.0587 28.1976 16 27.9998 16H22.9998V13C22.9998 12.7348 22.8945 12.4804 22.7069 12.2929C22.5194 12.1054 22.265 12 21.9998 12H9.99981C9.73459 12 9.48024 12.1054 9.2927 12.2929C9.10517 12.4804 8.99981 12.7348 8.99981 13V16H3.99981C3.80192 15.9998 3.60842 16.0584 3.44383 16.1683C3.27923 16.2782 3.15094 16.4344 3.07519 16.6172C2.99944 16.8 2.97963 17.0012 3.01828 17.1953C3.05693 17.3894 3.1523 17.5676 3.29231 17.7075L15.2923 29.7075C15.3852 29.8005 15.4955 29.8742 15.6169 29.9246C15.7383 29.9749 15.8684 30.0008 15.9998 30.0008C16.1312 30.0008 16.2614 29.9749 16.3828 29.9246C16.5041 29.8742 16.6144 29.8005 16.7073 29.7075L28.7073 17.7075C28.8471 17.5676 28.9423 17.3893 28.9808 17.1953C29.0193 17.0013 28.9994 16.8002 28.9236 16.6175ZM15.9998 27.5863L6.41356 18H9.99981C10.265 18 10.5194 17.8946 10.7069 17.7071C10.8945 17.5196 10.9998 17.2652 10.9998 17V14H20.9998V17C20.9998 17.2652 21.1052 17.5196 21.2927 17.7071C21.4802 17.8946 21.7346 18 21.9998 18H25.5861L15.9998 27.5863ZM8.99981 5C8.99981 4.73478 9.10517 4.48043 9.2927 4.29289C9.48024 4.10536 9.73459 4 9.99981 4H21.9998C22.265 4 22.5194 4.10536 22.7069 4.29289C22.8945 4.48043 22.9998 4.73478 22.9998 5C22.9998 5.26522 22.8945 5.51957 22.7069 5.70711C22.5194 5.89464 22.265 6 21.9998 6H9.99981C9.73459 6 9.48024 5.89464 9.2927 5.70711C9.10517 5.51957 8.99981 5.26522 8.99981 5ZM8.99981 9C8.99981 8.73478 9.10517 8.48043 9.2927 8.29289C9.48024 8.10536 9.73459 8 9.99981 8H21.9998C22.265 8 22.5194 8.10536 22.7069 8.29289C22.8945 8.48043 22.9998 8.73478 22.9998 9C22.9998 9.26522 22.8945 9.51957 22.7069 9.70711C22.5194 9.89464 22.265 10 21.9998 10H9.99981C9.73459 10 9.48024 9.89464 9.2927 9.70711C9.10517 9.51957 8.99981 9.26522 8.99981 9Z" fill="#4A4A4F"/>
</svg>
