<svg width="32" height="32" viewBox="0 0 32 32" fill="none" xmlns="http://www.w3.org/2000/svg">
<path d="M28 16.0002C28.0003 19.155 26.7582 22.1831 24.5425 24.429C22.3268 26.6748 19.3158 27.9578 16.1613 28.0002H16C12.9353 28.0078 9.98537 26.835 7.76252 24.7252C7.66706 24.6349 7.59032 24.5267 7.53669 24.4068C7.48305 24.2868 7.45356 24.1575 7.4499 24.0261C7.44625 23.8948 7.46849 23.764 7.51538 23.6413C7.56226 23.5186 7.63286 23.4063 7.72314 23.3108C7.81343 23.2153 7.92163 23.1386 8.04157 23.085C8.16151 23.0313 8.29084 23.0018 8.42217 22.9982C8.55351 22.9945 8.68428 23.0168 8.80702 23.0637C8.92976 23.1105 9.04206 23.1811 9.13752 23.2714C10.5673 24.6198 12.3626 25.517 14.2993 25.8509C16.236 26.1848 18.2281 25.9407 20.0269 25.149C21.8256 24.3574 23.3512 23.0532 24.4131 21.3995C25.475 19.7458 26.026 17.8159 25.9974 15.8509C25.9688 13.8858 25.3619 11.9727 24.2523 10.3506C23.1428 8.72853 21.5799 7.46932 19.7589 6.7303C17.9379 5.99128 15.9395 5.80522 14.0133 6.19536C12.0872 6.5855 10.3187 7.53454 8.92877 8.92393C8.91856 8.93497 8.9077 8.94541 8.89627 8.95518L7.57877 10.1614L9.70377 12.2864C9.84571 12.4257 9.9429 12.6042 9.98292 12.799C10.0229 12.9938 10.004 13.1961 9.92841 13.3801C9.85287 13.564 9.72419 13.7213 9.55881 13.8317C9.39344 13.9422 9.19889 14.0008 9.00002 14.0002H3.00002C2.7348 14.0002 2.48045 13.8948 2.29291 13.7073C2.10537 13.5197 2.00002 13.2654 2.00002 13.0002V7.00018C1.99887 6.80186 2.05671 6.60767 2.1662 6.44231C2.27569 6.27694 2.43188 6.14787 2.61491 6.0715C2.79793 5.99512 2.99954 5.9749 3.19409 6.01339C3.38865 6.05189 3.56736 6.14736 3.70752 6.28768L6.16377 8.75018L7.53127 7.50018C9.21124 5.82673 11.3494 4.68851 13.6757 4.22922C16.002 3.76992 18.4123 4.01014 20.6022 4.91954C22.7921 5.82894 24.6635 7.36676 25.9802 9.33886C27.2968 11.311 27.9997 13.6289 28 16.0002Z" fill="#4A4A4F"/>
</svg>
