<svg width="32" height="32" viewBox="0 0 32 32" fill="none" xmlns="http://www.w3.org/2000/svg">
<path d="M29.7073 16.7076L25.7073 20.7076C25.5197 20.8952 25.2652 21.0006 24.9998 21.0006C24.7344 21.0006 24.4799 20.8952 24.2923 20.7076C24.1047 20.5199 23.9993 20.2654 23.9993 20.0001C23.9993 19.7347 24.1047 19.4802 24.2923 19.2926L26.5861 17.0001H5.41356L7.70731 19.2926C7.89495 19.4802 8.00037 19.7347 8.00037 20.0001C8.00037 20.2654 7.89495 20.5199 7.70731 20.7076C7.51967 20.8952 7.26517 21.0006 6.99981 21.0006C6.73445 21.0006 6.47995 20.8952 6.29231 20.7076L2.29231 16.7076C2.19933 16.6147 2.12557 16.5044 2.07525 16.383C2.02493 16.2616 1.99902 16.1315 1.99902 16.0001C1.99902 15.8687 2.02493 15.7385 2.07525 15.6171C2.12557 15.4957 2.19933 15.3854 2.29231 15.2926L6.29231 11.2926C6.47995 11.1049 6.73445 10.9995 6.99981 10.9995C7.26517 10.9995 7.51967 11.1049 7.70731 11.2926C7.89495 11.4802 8.00037 11.7347 8.00037 12.0001C8.00037 12.2654 7.89495 12.5199 7.70731 12.7076L5.41356 15.0001H26.5861L24.2923 12.7076C24.1047 12.5199 23.9993 12.2654 23.9993 12.0001C23.9993 11.7347 24.1047 11.4802 24.2923 11.2926C24.4799 11.1049 24.7344 10.9995 24.9998 10.9995C25.2652 10.9995 25.5197 11.1049 25.7073 11.2926L29.7073 15.2926C29.8003 15.3854 29.874 15.4957 29.9244 15.6171C29.9747 15.7385 30.0006 15.8687 30.0006 16.0001C30.0006 16.1315 29.9747 16.2616 29.9244 16.383C29.874 16.5044 29.8003 16.6147 29.7073 16.7076Z" fill="#4A4A4F"/>
</svg>
