<svg width="32" height="32" viewBox="0 0 32 32" fill="none" xmlns="http://www.w3.org/2000/svg">
<path d="M14.7076 21.2923C14.8005 21.3852 14.8743 21.4955 14.9246 21.6169C14.975 21.7383 15.0009 21.8684 15.0009 21.9998C15.0009 22.1312 14.975 22.2614 14.9246 22.3828C14.8743 22.5042 14.8005 22.6144 14.7076 22.7073L10.7076 26.7073C10.6147 26.8003 10.5044 26.874 10.383 26.9244C10.2616 26.9747 10.1315 27.0006 10.0001 27.0006C9.86865 27.0006 9.73853 26.9747 9.61713 26.9244C9.49573 26.874 9.38544 26.8003 9.29257 26.7073L5.29257 22.7073C5.19966 22.6144 5.12596 22.5041 5.07567 22.3827C5.02539 22.2613 4.99951 22.1312 4.99951 21.9998C4.99951 21.8684 5.02539 21.7383 5.07567 21.6169C5.12596 21.4955 5.19966 21.3852 5.29257 21.2923C5.48021 21.1047 5.7347 20.9993 6.00007 20.9993C6.13146 20.9993 6.26157 21.0251 6.38296 21.0754C6.50436 21.1257 6.61466 21.1994 6.70757 21.2923L9.00007 23.5861V5.99981C9.00007 5.73459 9.10542 5.48024 9.29296 5.2927C9.4805 5.10517 9.73485 4.99981 10.0001 4.99981C10.2653 4.99981 10.5196 5.10517 10.7072 5.2927C10.8947 5.48024 11.0001 5.73459 11.0001 5.99981V23.5861L13.2926 21.2923C13.3854 21.1993 13.4957 21.1256 13.6171 21.0752C13.7385 21.0249 13.8687 20.999 14.0001 20.999C14.1315 20.999 14.2616 21.0249 14.383 21.0752C14.5044 21.1256 14.6147 21.1993 14.7076 21.2923ZM26.7076 9.29231L22.7076 5.29231C22.6147 5.19933 22.5044 5.12557 22.383 5.07525C22.2616 5.02493 22.1315 4.99902 22.0001 4.99902C21.8687 4.99902 21.7385 5.02493 21.6171 5.07525C21.4957 5.12557 21.3854 5.19933 21.2926 5.29231L17.2926 9.29231C17.1049 9.47995 16.9995 9.73445 16.9995 9.99981C16.9995 10.2652 17.1049 10.5197 17.2926 10.7073C17.4802 10.895 17.7347 11.0004 18.0001 11.0004C18.2654 11.0004 18.5199 10.895 18.7076 10.7073L21.0001 8.41356V25.9998C21.0001 26.265 21.1054 26.5194 21.293 26.7069C21.4805 26.8945 21.7349 26.9998 22.0001 26.9998C22.2653 26.9998 22.5196 26.8945 22.7072 26.7069C22.8947 26.5194 23.0001 26.265 23.0001 25.9998V8.41356L25.2926 10.7073C25.4802 10.895 25.7347 11.0004 26.0001 11.0004C26.2654 11.0004 26.5199 10.895 26.7076 10.7073C26.8952 10.5197 27.0006 10.2652 27.0006 9.99981C27.0006 9.73445 26.8952 9.47995 26.7076 9.29231Z" fill="#4A4A4F"/>
</svg>
