<svg width="32" height="32" viewBox="0 0 32 32" fill="none" xmlns="http://www.w3.org/2000/svg">
<path d="M30 11.0002V19.0002C30 19.2654 29.8946 19.5198 29.7071 19.7073C29.5196 19.8949 29.2652 20.0002 29 20.0002H21C20.7348 20.0002 20.4804 19.8949 20.2929 19.7073C20.1054 19.5198 20 19.2654 20 19.0002C20 18.735 20.1054 18.4807 20.2929 18.2931C20.4804 18.1056 20.7348 18.0002 21 18.0002H26.575L23.78 15.224C22.2418 13.6851 20.2818 12.6369 18.1479 12.2121C16.014 11.7872 13.802 12.0047 11.7917 12.8371C9.78144 13.6695 8.06317 15.0794 6.85423 16.8885C5.6453 18.6975 5.00002 20.8244 5 23.0002C5 23.2654 4.89464 23.5198 4.70711 23.7073C4.51957 23.8949 4.26522 24.0002 4 24.0002C3.73478 24.0002 3.48043 23.8949 3.29289 23.7073C3.10536 23.5198 3 23.2654 3 23.0002C2.99996 20.429 3.76237 17.9156 5.19082 15.7777C6.61928 13.6398 8.64962 11.9735 11.0251 10.9896C13.4006 10.0056 16.0145 9.74818 18.5362 10.2498C21.058 10.7514 23.3744 11.9896 25.1925 13.8077L28 16.5965V11.0002C28 10.735 28.1054 10.4807 28.2929 10.2931C28.4804 10.1056 28.7348 10.0002 29 10.0002C29.2652 10.0002 29.5196 10.1056 29.7071 10.2931C29.8946 10.4807 30 10.735 30 11.0002Z" fill="#4A4A4F"/>
</svg>
