<svg width="32" height="32" viewBox="0 0 32 32" fill="none" xmlns="http://www.w3.org/2000/svg">
<path d="M28 5C28 5.26522 27.8946 5.51957 27.7071 5.70711C27.5196 5.89464 27.2652 6 27 6H5C4.73478 6 4.48043 5.89464 4.29289 5.70711C4.10536 5.51957 4 5.26522 4 5C4 4.73478 4.10536 4.48043 4.29289 4.29289C4.48043 4.10536 4.73478 4 5 4H27C27.2652 4 27.5196 4.10536 27.7071 4.29289C27.8946 4.48043 28 4.73478 28 5ZM21.2925 10.2925L9 22.5863V13C9 12.7348 8.89464 12.4804 8.70711 12.2929C8.51957 12.1054 8.26522 12 8 12C7.73478 12 7.48043 12.1054 7.29289 12.2929C7.10536 12.4804 7 12.7348 7 13V25C7 25.2652 7.10536 25.5196 7.29289 25.7071C7.48043 25.8946 7.73478 26 8 26H20C20.2652 26 20.5196 25.8946 20.7071 25.7071C20.8946 25.5196 21 25.2652 21 25C21 24.7348 20.8946 24.4804 20.7071 24.2929C20.5196 24.1054 20.2652 24 20 24H10.4137L22.7075 11.7075C22.8004 11.6146 22.8741 11.5043 22.9244 11.3829C22.9747 11.2615 23.0006 11.1314 23.0006 11C23.0006 10.8686 22.9747 10.7385 22.9244 10.6171C22.8741 10.4957 22.8004 10.3854 22.7075 10.2925C22.6146 10.1996 22.5043 10.1259 22.3829 10.0756C22.2615 10.0253 22.1314 9.99944 22 9.99944C21.8686 9.99944 21.7385 10.0253 21.6171 10.0756C21.4957 10.1259 21.3854 10.1996 21.2925 10.2925Z" fill="#4A4A4F"/>
</svg>
