<svg width="32" height="32" viewBox="0 0 32 32" fill="none" xmlns="http://www.w3.org/2000/svg">
<path d="M26.7073 22.7076L22.7073 26.7076C22.5197 26.8952 22.2652 27.0006 21.9998 27.0006C21.7344 27.0006 21.4799 26.8952 21.2923 26.7076C21.1047 26.5199 20.9993 26.2654 20.9993 26.0001C20.9993 25.7347 21.1047 25.4802 21.2923 25.2926L23.5861 23.0001H5.99981C5.73459 23.0001 5.48024 22.8947 5.2927 22.7072C5.10517 22.5196 4.99981 22.2653 4.99981 22.0001C4.99981 21.7349 5.10517 21.4805 5.2927 21.293C5.48024 21.1054 5.73459 21.0001 5.99981 21.0001H23.5861L21.2923 18.7076C21.1047 18.5199 20.9993 18.2654 20.9993 18.0001C20.9993 17.7347 21.1047 17.4802 21.2923 17.2926C21.4799 17.1049 21.7344 16.9995 21.9998 16.9995C22.2652 16.9995 22.5197 17.1049 22.7073 17.2926L26.7073 21.2926C26.8003 21.3854 26.874 21.4957 26.9244 21.6171C26.9747 21.7385 27.0006 21.8687 27.0006 22.0001C27.0006 22.1315 26.9747 22.2616 26.9244 22.383C26.874 22.5044 26.8003 22.6147 26.7073 22.7076ZM9.29231 14.7076C9.47995 14.8952 9.73445 15.0006 9.99981 15.0006C10.2652 15.0006 10.5197 14.8952 10.7073 14.7076C10.895 14.5199 11.0004 14.2654 11.0004 14.0001C11.0004 13.7347 10.895 13.4802 10.7073 13.2926L8.41356 11.0001H25.9998C26.265 11.0001 26.5194 10.8947 26.7069 10.7072C26.8945 10.5196 26.9998 10.2653 26.9998 10.0001C26.9998 9.73485 26.8945 9.4805 26.7069 9.29296C26.5194 9.10542 26.265 9.00007 25.9998 9.00007H8.41356L10.7073 6.70757C10.895 6.51993 11.0004 6.26543 11.0004 6.00007C11.0004 5.7347 10.895 5.48021 10.7073 5.29257C10.5197 5.10493 10.2652 4.99951 9.99981 4.99951C9.73445 4.99951 9.47995 5.10493 9.29231 5.29257L5.29231 9.29257C5.19933 9.38544 5.12557 9.49573 5.07525 9.61713C5.02493 9.73853 4.99902 9.86865 4.99902 10.0001C4.99902 10.1315 5.02493 10.2616 5.07525 10.383C5.12557 10.5044 5.19933 10.6147 5.29231 10.7076L9.29231 14.7076Z" fill="#4A4A4F"/>
</svg>
