<svg width="32" height="32" viewBox="0 0 32 32" fill="none" xmlns="http://www.w3.org/2000/svg">
<path d="M29.7075 16.7073L17.7075 28.7073C17.5676 28.8473 17.3894 28.9427 17.1953 28.9813C17.0012 29.02 16.8 29.0002 16.6172 28.9244C16.4344 28.8487 16.2782 28.7204 16.1683 28.5558C16.0584 28.3912 15.9998 28.1977 16 27.9998V22.9998H6C5.46957 22.9998 4.96086 22.7891 4.58579 22.414C4.21071 22.039 4 21.5302 4 20.9998V10.9998C4 10.4694 4.21071 9.96067 4.58579 9.5856C4.96086 9.21053 5.46957 8.99981 6 8.99981H16V3.99981C15.9998 3.80192 16.0584 3.60842 16.1683 3.44383C16.2782 3.27923 16.4344 3.15094 16.6172 3.07519C16.8 2.99944 17.0012 2.97963 17.1953 3.01828C17.3894 3.05693 17.5676 3.1523 17.7075 3.29231L29.7075 15.2923C29.8005 15.3852 29.8742 15.4955 29.9246 15.6169C29.9749 15.7383 30.0008 15.8684 30.0008 15.9998C30.0008 16.1312 29.9749 16.2614 29.9246 16.3828C29.8742 16.5041 29.8005 16.6144 29.7075 16.7073Z" fill="#4A4A4F"/>
</svg>
