<svg width="32" height="32" viewBox="0 0 32 32" fill="none" xmlns="http://www.w3.org/2000/svg">
<path d="M26 4H6C5.46957 4 4.96086 4.21071 4.58579 4.58579C4.21071 4.96086 4 5.46957 4 6V26C4 26.5304 4.21071 27.0391 4.58579 27.4142C4.96086 27.7893 5.46957 28 6 28H26C26.5304 28 27.0391 27.7893 27.4142 27.4142C27.7893 27.0391 28 26.5304 28 26V6C28 5.46957 27.7893 4.96086 27.4142 4.58579C27.0391 4.21071 26.5304 4 26 4ZM26 26H6V6H26V26ZM10.2925 16.7075C10.1995 16.6146 10.1258 16.5043 10.0754 16.3829C10.0251 16.2615 9.99921 16.1314 9.99921 16C9.99921 15.8686 10.0251 15.7385 10.0754 15.6171C10.1258 15.4957 10.1995 15.3854 10.2925 15.2925L14.2925 11.2925C14.4801 11.1049 14.7346 10.9994 15 10.9994C15.2654 10.9994 15.5199 11.1049 15.7075 11.2925C15.8951 11.4801 16.0006 11.7346 16.0006 12C16.0006 12.2654 15.8951 12.5199 15.7075 12.7075L13.4137 15H21C21.2652 15 21.5196 15.1054 21.7071 15.2929C21.8946 15.4804 22 15.7348 22 16C22 16.2652 21.8946 16.5196 21.7071 16.7071C21.5196 16.8946 21.2652 17 21 17H13.4137L15.7075 19.2925C15.8004 19.3854 15.8741 19.4957 15.9244 19.6171C15.9747 19.7385 16.0006 19.8686 16.0006 20C16.0006 20.1314 15.9747 20.2615 15.9244 20.3829C15.8741 20.5043 15.8004 20.6146 15.7075 20.7075C15.6146 20.8004 15.5043 20.8741 15.3829 20.9244C15.2615 20.9747 15.1314 21.0006 15 21.0006C14.8686 21.0006 14.7385 20.9747 14.6171 20.9244C14.4957 20.8741 14.3854 20.8004 14.2925 20.7075L10.2925 16.7075Z" fill="#4A4A4F"/>
</svg>
