<svg width="32" height="32" viewBox="0 0 32 32" fill="none" xmlns="http://www.w3.org/2000/svg">
<path d="M25.9998 8.99981H15.9998V3.99981C16 3.80192 15.9414 3.60842 15.8315 3.44383C15.7217 3.27923 15.5654 3.15094 15.3826 3.07519C15.1998 2.99944 14.9986 2.97963 14.8045 3.01828C14.6104 3.05693 14.4322 3.1523 14.2923 3.29231L2.29231 15.2923C2.19933 15.3852 2.12557 15.4955 2.07525 15.6169C2.02493 15.7383 1.99902 15.8684 1.99902 15.9998C1.99902 16.1312 2.02493 16.2614 2.07525 16.3828C2.12557 16.5041 2.19933 16.6144 2.29231 16.7073L14.2923 28.7073C14.4322 28.8473 14.6104 28.9427 14.8045 28.9813C14.9986 29.02 15.1998 29.0002 15.3826 28.9244C15.5654 28.8487 15.7217 28.7204 15.8315 28.5558C15.9414 28.3912 16 28.1977 15.9998 27.9998V22.9998H25.9998C26.5302 22.9998 27.0389 22.7891 27.414 22.414C27.7891 22.039 27.9998 21.5302 27.9998 20.9998V10.9998C27.9998 10.4694 27.7891 9.96067 27.414 9.5856C27.0389 9.21053 26.5302 8.99981 25.9998 8.99981ZM25.9998 20.9998H14.9998C14.7346 20.9998 14.4802 21.1052 14.2927 21.2927C14.1052 21.4802 13.9998 21.7346 13.9998 21.9998V25.5861L4.41356 15.9998L13.9998 6.41356V9.99981C13.9998 10.265 14.1052 10.5194 14.2927 10.7069C14.4802 10.8945 14.7346 10.9998 14.9998 10.9998H25.9998V20.9998Z" fill="#4A4A4F"/>
</svg>
