<svg width="32" height="32" viewBox="0 0 32 32" fill="none" xmlns="http://www.w3.org/2000/svg">
<path d="M28.9998 25.0001C28.9998 25.2653 28.8945 25.5196 28.7069 25.7072C28.5194 25.8947 28.265 26.0001 27.9998 26.0001C27.7346 26.0001 27.4802 25.8947 27.2927 25.7072C27.1052 25.5196 26.9998 25.2653 26.9998 25.0001C26.9965 22.0837 25.8365 19.2877 23.7743 17.2255C21.7121 15.1634 18.9162 14.0034 15.9998 14.0001H6.41356L10.7073 18.2926C10.895 18.4802 11.0004 18.7347 11.0004 19.0001C11.0004 19.2654 10.895 19.5199 10.7073 19.7076C10.5197 19.8952 10.2652 20.0006 9.99981 20.0006C9.73445 20.0006 9.47995 19.8952 9.29231 19.7076L3.29231 13.7076C3.19933 13.6147 3.12557 13.5044 3.07525 13.383C3.02493 13.2616 2.99902 13.1315 2.99902 13.0001C2.99902 12.8687 3.02493 12.7385 3.07525 12.6171C3.12557 12.4957 3.19933 12.3854 3.29231 12.2926L9.29231 6.29257C9.47995 6.10493 9.73445 5.99951 9.99981 5.99951C10.2652 5.99951 10.5197 6.10493 10.7073 6.29257C10.895 6.48021 11.0004 6.7347 11.0004 7.00007C11.0004 7.26543 10.895 7.51993 10.7073 7.70757L6.41356 12.0001H15.9998C19.4465 12.0037 22.751 13.3745 25.1882 15.8117C27.6254 18.2489 28.9962 21.5534 28.9998 25.0001Z" fill="#4A4A4F"/>
</svg>
