<svg width="32" height="32" viewBox="0 0 32 32" fill="none" xmlns="http://www.w3.org/2000/svg">
<path d="M28.9236 15.3823C28.8479 15.5651 28.7198 15.7213 28.5553 15.8312C28.3909 15.9411 28.1976 15.9998 27.9998 15.9998H22.9998V25.9998C22.9998 26.5302 22.7891 27.0389 22.414 27.414C22.039 27.7891 21.5302 27.9998 20.9998 27.9998H10.9998C10.4694 27.9998 9.96067 27.7891 9.5856 27.414C9.21053 27.0389 8.99981 26.5302 8.99981 25.9998V15.9998H3.99981C3.80192 16 3.60842 15.9414 3.44383 15.8315C3.27923 15.7217 3.15094 15.5654 3.07519 15.3826C2.99944 15.1998 2.97963 14.9986 3.01828 14.8045C3.05693 14.6104 3.1523 14.4322 3.29231 14.2923L15.2923 2.29231C15.3852 2.19933 15.4955 2.12557 15.6169 2.07525C15.7383 2.02493 15.8684 1.99902 15.9998 1.99902C16.1312 1.99902 16.2614 2.02493 16.3828 2.07525C16.5041 2.12557 16.6144 2.19933 16.7073 2.29231L28.7073 14.2923C28.8471 14.4322 28.9423 14.6105 28.9808 14.8045C29.0193 14.9985 28.9994 15.1996 28.9236 15.3823Z" fill="#4A4A4F"/>
</svg>
