<svg width="32" height="32" viewBox="0 0 32 32" fill="none" xmlns="http://www.w3.org/2000/svg">
<path d="M28.9998 24.9998C28.9998 25.265 28.8945 25.5194 28.7069 25.7069C28.5194 25.8945 28.265 25.9998 27.9998 25.9998C27.7346 25.9998 27.4802 25.8945 27.2927 25.7069C27.1052 25.5194 26.9998 25.265 26.9998 24.9998C26.9965 22.0834 25.8365 19.2875 23.7743 17.2253C21.7121 15.1631 18.9162 14.0031 15.9998 13.9998H10.9998V18.9998C11 19.1977 10.9414 19.3912 10.8315 19.5558C10.7217 19.7204 10.5654 19.8487 10.3826 19.9244C10.1998 20.0002 9.99859 20.02 9.8045 19.9813C9.61042 19.9427 9.43217 19.8473 9.29231 19.7073L3.29231 13.7073C3.19933 13.6144 3.12557 13.5041 3.07525 13.3828C3.02493 13.2614 2.99902 13.1312 2.99902 12.9998C2.99902 12.8684 3.02493 12.7383 3.07525 12.6169C3.12557 12.4955 3.19933 12.3852 3.29231 12.2923L9.29231 6.29231C9.43217 6.1523 9.61042 6.05693 9.8045 6.01828C9.99859 5.97963 10.1998 5.99944 10.3826 6.07519C10.5654 6.15094 10.7217 6.27923 10.8315 6.44383C10.9414 6.60842 11 6.80192 10.9998 6.99981V11.9998H15.9998C19.4465 12.0035 22.751 13.3743 25.1882 15.8114C27.6254 18.2486 28.9962 21.5531 28.9998 24.9998Z" fill="#4A4A4F"/>
</svg>
