<svg width="32" height="32" viewBox="0 0 32 32" fill="none" xmlns="http://www.w3.org/2000/svg">
<path d="M11.2925 8.7075C11.1525 8.56765 11.0571 8.38939 11.0185 8.19531C10.9798 8.00122 10.9996 7.80003 11.0754 7.61721C11.1511 7.43439 11.2794 7.27815 11.444 7.16828C11.6086 7.05841 11.8021 6.99984 12 7H15V2C15 1.73478 15.1054 1.48043 15.2929 1.29289C15.4804 1.10536 15.7348 1 16 1C16.2652 1 16.5196 1.10536 16.7071 1.29289C16.8946 1.48043 17 1.73478 17 2V7H20C20.1979 6.99984 20.3914 7.05841 20.556 7.16828C20.7206 7.27815 20.8489 7.43439 20.9246 7.61721C21.0004 7.80003 21.0202 8.00122 20.9815 8.19531C20.9429 8.38939 20.8475 8.56765 20.7075 8.7075L16.7075 12.7075C16.6146 12.8005 16.5043 12.8742 16.3829 12.9246C16.2615 12.9749 16.1314 13.0008 16 13.0008C15.8686 13.0008 15.7385 12.9749 15.6171 12.9246C15.4957 12.8742 15.3854 12.8005 15.2925 12.7075L11.2925 8.7075ZM16.7075 19.2925C16.6146 19.1995 16.5043 19.1258 16.3829 19.0754C16.2615 19.0251 16.1314 18.9992 16 18.9992C15.8686 18.9992 15.7385 19.0251 15.6171 19.0754C15.4957 19.1258 15.3854 19.1995 15.2925 19.2925L11.2925 23.2925C11.1525 23.4324 11.0571 23.6106 11.0185 23.8047C10.9798 23.9988 10.9996 24.2 11.0754 24.3828C11.1511 24.5656 11.2794 24.7218 11.444 24.8317C11.6086 24.9416 11.8021 25.0002 12 25H15V30C15 30.2652 15.1054 30.5196 15.2929 30.7071C15.4804 30.8946 15.7348 31 16 31C16.2652 31 16.5196 30.8946 16.7071 30.7071C16.8946 30.5196 17 30.2652 17 30V25H20C20.1979 25.0002 20.3914 24.9416 20.556 24.8317C20.7206 24.7218 20.8489 24.5656 20.9246 24.3828C21.0004 24.2 21.0202 23.9988 20.9815 23.8047C20.9429 23.6106 20.8475 23.4324 20.7075 23.2925L16.7075 19.2925ZM27 15H5C4.73478 15 4.48043 15.1054 4.29289 15.2929C4.10536 15.4804 4 15.7348 4 16C4 16.2652 4.10536 16.5196 4.29289 16.7071C4.48043 16.8946 4.73478 17 5 17H27C27.2652 17 27.5196 16.8946 27.7071 16.7071C27.8946 16.5196 28 16.2652 28 16C28 15.7348 27.8946 15.4804 27.7071 15.2929C27.5196 15.1054 27.2652 15 27 15Z" fill="#4A4A4F"/>
</svg>
