<svg width="32" height="32" viewBox="0 0 32 32" fill="none" xmlns="http://www.w3.org/2000/svg">
<path d="M25.0001 8V21C25.0002 21.1979 24.9417 21.3914 24.8318 21.556C24.7219 21.7206 24.5657 21.8489 24.3829 21.9246C24.2 22.0004 23.9988 22.0202 23.8048 21.9815C23.6107 21.9429 23.4324 21.8475 23.2926 21.7075L17.5001 15.9137L8.70757 24.7075C8.51993 24.8951 8.26543 25.0006 8.00007 25.0006C7.7347 25.0006 7.48021 24.8951 7.29257 24.7075C7.10493 24.5199 6.99951 24.2654 6.99951 24C6.99951 23.7346 7.10493 23.4801 7.29257 23.2925L16.0863 14.5L10.2926 8.7075C10.1526 8.56765 10.0572 8.38939 10.0185 8.19531C9.97989 8.00122 9.99969 7.80003 10.0754 7.61721C10.1512 7.43439 10.2795 7.27815 10.4441 7.16828C10.6087 7.05841 10.8022 6.99984 11.0001 7H24.0001C24.2653 7 24.5196 7.10536 24.7072 7.29289C24.8947 7.48043 25.0001 7.73478 25.0001 8Z" fill="#4A4A4F"/>
</svg>
