<svg width="32" height="32" viewBox="0 0 32 32" fill="none" xmlns="http://www.w3.org/2000/svg">
<path d="M24.9998 4V22C24.9998 22.2652 24.8945 22.5196 24.7069 22.7071C24.5194 22.8946 24.265 23 23.9998 23H12.9998V28C13 28.1979 12.9414 28.3914 12.8315 28.556C12.7217 28.7206 12.5654 28.8489 12.3826 28.9246C12.1998 29.0004 11.9986 29.0202 11.8045 28.9815C11.6104 28.9429 11.4322 28.8475 11.2923 28.7075L5.29231 22.7075C5.19933 22.6146 5.12557 22.5043 5.07525 22.3829C5.02493 22.2615 4.99902 22.1314 4.99902 22C4.99902 21.8686 5.02493 21.7385 5.07525 21.6171C5.12557 21.4957 5.19933 21.3854 5.29231 21.2925L11.2923 15.2925C11.4322 15.1525 11.6104 15.0571 11.8045 15.0185C11.9986 14.9798 12.1998 14.9996 12.3826 15.0754C12.5654 15.1511 12.7217 15.2794 12.8315 15.444C12.9414 15.6086 13 15.8021 12.9998 16V21H22.9998V4C22.9998 3.73478 23.1052 3.48043 23.2927 3.29289C23.4802 3.10536 23.7346 3 23.9998 3C24.265 3 24.5194 3.10536 24.7069 3.29289C24.8945 3.48043 24.9998 3.73478 24.9998 4Z" fill="#4A4A4F"/>
</svg>
