<svg width="32" height="32" viewBox="0 0 32 32" fill="none" xmlns="http://www.w3.org/2000/svg">
<path d="M28.9237 12.3823C28.8481 12.5651 28.72 12.7213 28.5555 12.8312C28.3911 12.9411 28.1978 12.9998 28 12.9998H23V23.9998C23 24.265 22.8946 24.5194 22.7071 24.7069C22.5196 24.8945 22.2652 24.9998 22 24.9998H4C3.73478 24.9998 3.48043 24.8945 3.29289 24.7069C3.10536 24.5194 3 24.265 3 23.9998C3 23.7346 3.10536 23.4802 3.29289 23.2927C3.48043 23.1052 3.73478 22.9998 4 22.9998H21V12.9998H16C15.8021 13 15.6086 12.9414 15.444 12.8315C15.2794 12.7217 15.1511 12.5654 15.0754 12.3826C14.9996 12.1998 14.9798 11.9986 15.0185 11.8045C15.0571 11.6104 15.1525 11.4322 15.2925 11.2923L21.2925 5.29231C21.3854 5.19933 21.4957 5.12557 21.6171 5.07525C21.7385 5.02493 21.8686 4.99902 22 4.99902C22.1314 4.99902 22.2615 5.02493 22.3829 5.07525C22.5043 5.12557 22.6146 5.19933 22.7075 5.29231L28.7075 11.2923C28.8473 11.4322 28.9425 11.6105 28.981 11.8045C29.0195 11.9985 28.9995 12.1996 28.9237 12.3823Z" fill="#4A4A4F"/>
</svg>
