<svg width="32" height="32" viewBox="0 0 32 32" fill="none" xmlns="http://www.w3.org/2000/svg">
<path d="M28.7073 23.7075L24.7073 27.7075C24.6144 27.8005 24.5042 27.8742 24.3828 27.9246C24.2614 27.9749 24.1312 28.0008 23.9998 28.0008C23.8684 28.0008 23.7383 27.9749 23.6169 27.9246C23.4955 27.8742 23.3852 27.8005 23.2923 27.7075L19.2923 23.7075C19.1523 23.5676 19.0569 23.3894 19.0183 23.1953C18.9796 23.0012 18.9994 22.8 19.0752 22.6172C19.1509 22.4344 19.2792 22.2782 19.4438 22.1683C19.6084 22.0584 19.8019 21.9998 19.9998 22H22.9998V17.4137L15.9998 10.4137L8.99981 17.4137V22H11.9998C12.1977 21.9998 12.3912 22.0584 12.5558 22.1683C12.7204 22.2782 12.8487 22.4344 12.9244 22.6172C13.0002 22.8 13.02 23.0012 12.9813 23.1953C12.9427 23.3894 12.8473 23.5676 12.7073 23.7075L8.70731 27.7075C8.61444 27.8005 8.50415 27.8742 8.38275 27.9246C8.26135 27.9749 8.13123 28.0008 7.99981 28.0008C7.8684 28.0008 7.73827 27.9749 7.61687 27.9246C7.49547 27.8742 7.38518 27.8005 7.29231 27.7075L3.29231 23.7075C3.1523 23.5676 3.05693 23.3894 3.01828 23.1953C2.97963 23.0012 2.99944 22.8 3.07519 22.6172C3.15094 22.4344 3.27923 22.2782 3.44383 22.1683C3.60842 22.0584 3.80192 21.9998 3.99981 22H6.99981V17C6.99971 16.8686 7.02549 16.7385 7.07567 16.6171C7.12586 16.4958 7.19948 16.3854 7.29231 16.2925L14.9998 8.58625V3C14.9998 2.73478 15.1052 2.48043 15.2927 2.29289C15.4802 2.10536 15.7346 2 15.9998 2C16.265 2 16.5194 2.10536 16.7069 2.29289C16.8945 2.48043 16.9998 2.73478 16.9998 3V8.58625L24.7073 16.2925C24.8001 16.3854 24.8738 16.4958 24.9239 16.6171C24.9741 16.7385 24.9999 16.8686 24.9998 17V22H27.9998C28.1977 21.9998 28.3912 22.0584 28.5558 22.1683C28.7204 22.2782 28.8487 22.4344 28.9244 22.6172C29.0002 22.8 29.02 23.0012 28.9813 23.1953C28.9427 23.3894 28.8473 23.5676 28.7073 23.7075Z" fill="#4A4A4F"/>
</svg>
