<svg width="32" height="32" viewBox="0 0 32 32" fill="none" xmlns="http://www.w3.org/2000/svg">
<path d="M29 22.9998C29 23.265 28.8946 23.5194 28.7071 23.7069C28.5196 23.8945 28.2652 23.9998 28 23.9998C27.7348 23.9998 27.4804 23.8945 27.2929 23.7069C27.1054 23.5194 27 23.265 27 22.9998C26.9991 20.8498 26.3682 18.7471 25.1852 16.9518C24.0022 15.1565 22.319 13.7472 20.3437 12.8982C18.3684 12.0492 16.1876 11.7977 14.0709 12.1748C11.9542 12.5518 9.99437 13.5409 8.43375 15.0198L11.7075 18.2923C11.8475 18.4322 11.9429 18.6104 11.9815 18.8045C12.0202 18.9986 12.0004 19.1998 11.9246 19.3826C11.8489 19.5654 11.7206 19.7217 11.556 19.8315C11.3914 19.9414 11.1979 20 11 19.9998H3C2.73478 19.9998 2.48043 19.8945 2.29289 19.7069C2.10536 19.5194 2 19.265 2 18.9998V10.9998C1.99984 10.8019 2.05841 10.6084 2.16828 10.4438C2.27815 10.2792 2.43439 10.1509 2.61721 10.0752C2.80003 9.99944 3.00122 9.97963 3.19531 10.0183C3.38939 10.0569 3.56764 10.1523 3.7075 10.2923L7.0175 13.6023C8.85809 11.843 11.1748 10.663 13.6801 10.2086C16.1854 9.7542 18.7689 10.0455 21.1101 11.0464C23.4513 12.0472 25.4471 13.7136 26.8497 15.8386C28.2523 17.9636 29 20.4537 29 22.9998Z" fill="#4A4A4F"/>
</svg>
