<svg width="32" height="32" viewBox="0 0 32 32" fill="none" xmlns="http://www.w3.org/2000/svg">
<path d="M21 16.9998V11.9998H11C9.4087 11.9998 7.88258 12.632 6.75736 13.7572C5.63214 14.8824 5 16.4085 5 17.9998C5 19.5911 5.63214 21.1172 6.75736 22.2425C7.88258 23.3677 9.4087 23.9998 11 23.9998H22C22.2652 23.9998 22.5196 24.1052 22.7071 24.2927C22.8946 24.4802 23 24.7346 23 24.9998C23 25.265 22.8946 25.5194 22.7071 25.7069C22.5196 25.8945 22.2652 25.9998 22 25.9998H11C8.87827 25.9998 6.84344 25.157 5.34315 23.6567C3.84285 22.1564 3 20.1215 3 17.9998C3 15.8781 3.84285 13.8432 5.34315 12.343C6.84344 10.8427 8.87827 9.99981 11 9.99981H21V4.99981C20.9998 4.80192 21.0584 4.60842 21.1683 4.44383C21.2782 4.27923 21.4344 4.15094 21.6172 4.07519C21.8 3.99944 22.0012 3.97963 22.1953 4.01828C22.3894 4.05693 22.5676 4.1523 22.7075 4.29231L28.7075 10.2923C28.8005 10.3852 28.8742 10.4955 28.9246 10.6169C28.9749 10.7383 29.0008 10.8684 29.0008 10.9998C29.0008 11.1312 28.9749 11.2614 28.9246 11.3828C28.8742 11.5041 28.8005 11.6144 28.7075 11.7073L22.7075 17.7073C22.5676 17.8473 22.3894 17.9427 22.1953 17.9813C22.0012 18.02 21.8 18.0002 21.6172 17.9244C21.4344 17.8487 21.2782 17.7204 21.1683 17.5558C21.0584 17.3912 20.9998 17.1977 21 16.9998Z" fill="#4A4A4F"/>
</svg>
