<svg width="32" height="32" viewBox="0 0 32 32" fill="none" xmlns="http://www.w3.org/2000/svg">
<path d="M24.7075 23.2925C24.8005 23.3854 24.8742 23.4957 24.9246 23.6171C24.9749 23.7385 25.0008 23.8686 25.0008 24C25.0008 24.1314 24.9749 24.2615 24.9246 24.3829C24.8742 24.5043 24.8005 24.6146 24.7075 24.7075C24.5725 24.8413 21.3525 28 16 28C13.08 28 10.2338 26.8625 7.715 24.6987L5.7075 26.7075C5.56764 26.8475 5.38939 26.9429 5.19531 26.9815C5.00122 27.0202 4.80003 27.0004 4.61721 26.9246C4.43439 26.8489 4.27815 26.7206 4.16828 26.556C4.05841 26.3914 3.99984 26.1979 4 26V20C4 19.7348 4.10536 19.4804 4.29289 19.2929C4.48043 19.1054 4.73478 19 5 19H11C11.1979 18.9998 11.3914 19.0584 11.556 19.1683C11.7206 19.2782 11.8489 19.4344 11.9246 19.6172C12.0004 19.8 12.0202 20.0012 11.9815 20.1953C11.9429 20.3894 11.8475 20.5676 11.7075 20.7075L9.135 23.28C10.76 24.6438 13.1038 26 16 26C20.5338 26 23.2662 23.32 23.2925 23.2925C23.3854 23.1995 23.4957 23.1258 23.6171 23.0754C23.7385 23.0251 23.8686 22.9992 24 22.9992C24.1314 22.9992 24.2615 23.0251 24.3829 23.0754C24.5043 23.1258 24.6146 23.1995 24.7075 23.2925ZM27.3825 5.07625C27.1998 5.00045 26.9987 4.98054 26.8047 5.01903C26.6107 5.05753 26.4324 5.15269 26.2925 5.2925L24.285 7.30125C21.7663 5.1375 18.92 4 16 4C10.6475 4 7.4275 7.15875 7.2925 7.2925C7.10486 7.48014 6.99944 7.73464 6.99944 8C6.99944 8.26536 7.10486 8.51986 7.2925 8.7075C7.48014 8.89514 7.73464 9.00056 8 9.00056C8.26536 9.00056 8.51986 8.89514 8.7075 8.7075C8.73375 8.68 11.4662 6 16 6C18.8962 6 21.24 7.35625 22.865 8.72L20.2925 11.2925C20.1525 11.4324 20.0571 11.6106 20.0185 11.8047C19.9798 11.9988 19.9996 12.2 20.0754 12.3828C20.1511 12.5656 20.2794 12.7218 20.444 12.8317C20.6086 12.9416 20.8021 13.0002 21 13H27C27.2652 13 27.5196 12.8946 27.7071 12.7071C27.8946 12.5196 28 12.2652 28 12V6C28 5.80222 27.9413 5.60889 27.8314 5.44447C27.7214 5.28004 27.5652 5.1519 27.3825 5.07625Z" fill="#4A4A4F"/>
</svg>
