<svg width="32" height="32" viewBox="0 0 32 32" fill="none" xmlns="http://www.w3.org/2000/svg">
<path d="M28.9998 7C28.9962 10.4467 27.6254 13.7512 25.1882 16.1884C22.751 18.6256 19.4465 19.9964 15.9998 20H10.9998V25C11 25.1979 10.9414 25.3914 10.8315 25.556C10.7217 25.7206 10.5654 25.8489 10.3826 25.9246C10.1998 26.0004 9.99859 26.0202 9.8045 25.9815C9.61042 25.9429 9.43217 25.8475 9.29231 25.7075L3.29231 19.7075C3.19933 19.6146 3.12557 19.5043 3.07525 19.3829C3.02493 19.2615 2.99902 19.1314 2.99902 19C2.99902 18.8686 3.02493 18.7385 3.07525 18.6171C3.12557 18.4957 3.19933 18.3854 3.29231 18.2925L9.29231 12.2925C9.43217 12.1525 9.61042 12.0571 9.8045 12.0185C9.99859 11.9798 10.1998 11.9996 10.3826 12.0754C10.5654 12.1511 10.7217 12.2794 10.8315 12.444C10.9414 12.6086 11 12.8021 10.9998 13V18H15.9998C18.9162 17.9967 21.7121 16.8367 23.7743 14.7745C25.8365 12.7123 26.9965 9.91637 26.9998 7C26.9998 6.73478 27.1052 6.48043 27.2927 6.29289C27.4802 6.10536 27.7346 6 27.9998 6C28.265 6 28.5194 6.10536 28.7069 6.29289C28.8945 6.48043 28.9998 6.73478 28.9998 7Z" fill="#4A4A4F"/>
</svg>
