<svg width="32" height="32" viewBox="0 0 32 32" fill="none" xmlns="http://www.w3.org/2000/svg">
<path d="M28 16.0002C28.0003 19.155 26.7582 22.1831 24.5425 24.429C22.3268 26.6748 19.3158 27.9578 16.1612 28.0002H16C12.9353 28.0078 9.98535 26.835 7.7625 24.7252C7.66705 24.6349 7.59031 24.5267 7.53667 24.4068C7.48303 24.2868 7.45354 24.1575 7.44989 24.0261C7.44623 23.8948 7.46848 23.764 7.51536 23.6413C7.56224 23.5186 7.63284 23.4063 7.72312 23.3108C7.81341 23.2153 7.92161 23.1386 8.04155 23.085C8.16149 23.0313 8.29082 23.0018 8.42216 22.9982C8.55349 22.9945 8.68427 23.0168 8.807 23.0637C8.92974 23.1105 9.04205 23.1811 9.1375 23.2714C10.5672 24.6198 12.3626 25.517 14.2993 25.8509C16.236 26.1848 18.2281 25.9407 20.0269 25.149C21.8256 24.3574 23.3512 23.0532 24.4131 21.3995C25.475 19.7458 26.026 17.8159 25.9974 15.8509C25.9688 13.8858 25.3619 11.9727 24.2523 10.3506C23.1428 8.72853 21.5799 7.46932 19.7589 6.7303C17.9379 5.99128 15.9395 5.80522 14.0133 6.19536C12.0872 6.5855 10.3187 7.53454 8.92875 8.92393C8.91854 8.93497 8.90769 8.94541 8.89625 8.95518L5.57375 12.0002H9C9.26522 12.0002 9.51957 12.1055 9.70711 12.2931C9.89464 12.4806 10 12.735 10 13.0002C10 13.2654 9.89464 13.5197 9.70711 13.7073C9.51957 13.8948 9.26522 14.0002 9 14.0002H3C2.73478 14.0002 2.48043 13.8948 2.29289 13.7073C2.10536 13.5197 2 13.2654 2 13.0002V7.00018C2 6.73496 2.10536 6.48061 2.29289 6.29307C2.48043 6.10554 2.73478 6.00018 3 6.00018C3.26522 6.00018 3.51957 6.10554 3.70711 6.29307C3.89464 6.48061 4 6.73496 4 7.00018V10.7252L7.53125 7.50018C9.21123 5.82673 11.3493 4.68851 13.6757 4.22922C16.002 3.76992 18.4122 4.01014 20.6022 4.91954C22.7921 5.82894 24.6635 7.36676 25.9801 9.33886C27.2968 11.311 27.9996 13.6289 28 16.0002Z" fill="#4A4A4F"/>
</svg>
