<svg width="32" height="32" viewBox="0 0 32 32" fill="none" xmlns="http://www.w3.org/2000/svg">
<path d="M7 17C7 17.2652 6.89464 17.5196 6.70711 17.7071C6.51957 17.8946 6.26522 18 6 18H3C2.73478 18 2.48043 17.8946 2.29289 17.7071C2.10536 17.5196 2 17.2652 2 17C2 16.7348 2.10536 16.4804 2.29289 16.2929C2.48043 16.1054 2.73478 16 3 16H4V8H3C2.73478 8 2.48043 7.89464 2.29289 7.70711C2.10536 7.51957 2 7.26522 2 7C2 6.73478 2.10536 6.48043 2.29289 6.29289C2.48043 6.10536 2.73478 6 3 6H5C5.16929 5.99982 5.33585 6.04262 5.48408 6.12438C5.63231 6.20615 5.75735 6.32421 5.8475 6.4675L10 13.1138L14.1525 6.47C14.2423 6.32625 14.3673 6.20769 14.5155 6.12548C14.6638 6.04326 14.8305 6.00008 15 6H17C17.2652 6 17.5196 6.10536 17.7071 6.29289C17.8946 6.48043 18 6.73478 18 7C18 7.26522 17.8946 7.51957 17.7071 7.70711C17.5196 7.89464 17.2652 8 17 8H16V16H17C17.2652 16 17.5196 16.1054 17.7071 16.2929C17.8946 16.4804 18 16.7348 18 17C18 17.2652 17.8946 17.5196 17.7071 17.7071C17.5196 17.8946 17.2652 18 17 18H14C13.7348 18 13.4804 17.8946 13.2929 17.7071C13.1054 17.5196 13 17.2652 13 17C13 16.7348 13.1054 16.4804 13.2929 16.2929C13.4804 16.1054 13.7348 16 14 16V10.4863L10.8475 15.53C10.7576 15.6736 10.6326 15.792 10.4844 15.8741C10.3361 15.9561 10.1694 15.9992 10 15.9992C9.83055 15.9992 9.66389 15.9561 9.51564 15.8741C9.3674 15.792 9.24244 15.6736 9.1525 15.53L6 10.4863V16C6.26522 16 6.51957 16.1054 6.70711 16.2929C6.89464 16.4804 7 16.7348 7 17ZM21 14H30C30.2652 14 30.5196 13.8946 30.7071 13.7071C30.8946 13.5196 31 13.2652 31 13C31 12.7348 30.8946 12.4804 30.7071 12.2929C30.5196 12.1054 30.2652 12 30 12H21C20.7348 12 20.4804 12.1054 20.2929 12.2929C20.1054 12.4804 20 12.7348 20 13C20 13.2652 20.1054 13.5196 20.2929 13.7071C20.4804 13.8946 20.7348 14 21 14ZM30 16H21C20.7348 16 20.4804 16.1054 20.2929 16.2929C20.1054 16.4804 20 16.7348 20 17C20 17.2652 20.1054 17.5196 20.2929 17.7071C20.4804 17.8946 20.7348 18 21 18H30C30.2652 18 30.5196 17.8946 30.7071 17.7071C30.8946 17.5196 31 17.2652 31 17C31 16.7348 30.8946 16.4804 30.7071 16.2929C30.5196 16.1054 30.2652 16 30 16ZM30 20H9C8.73478 20 8.48043 20.1054 8.29289 20.2929C8.10536 20.4804 8 20.7348 8 21C8 21.2652 8.10536 21.5196 8.29289 21.7071C8.48043 21.8946 8.73478 22 9 22H30C30.2652 22 30.5196 21.8946 30.7071 21.7071C30.8946 21.5196 31 21.2652 31 21C31 20.7348 30.8946 20.4804 30.7071 20.2929C30.5196 20.1054 30.2652 20 30 20ZM30 24H9C8.73478 24 8.48043 24.1054 8.29289 24.2929C8.10536 24.4804 8 24.7348 8 25C8 25.2652 8.10536 25.5196 8.29289 25.7071C8.48043 25.8946 8.73478 26 9 26H30C30.2652 26 30.5196 25.8946 30.7071 25.7071C30.8946 25.5196 31 25.2652 31 25C31 24.7348 30.8946 24.4804 30.7071 24.2929C30.5196 24.1054 30.2652 24 30 24Z" fill="#4A4A4F"/>
</svg>
