<svg width="32" height="32" viewBox="0 0 32 32" fill="none" xmlns="http://www.w3.org/2000/svg">
<path d="M26.3751 12.9288L17.6089 16.4287L23.7926 24.38C23.8754 24.4835 23.9368 24.6023 23.9733 24.7297C24.0098 24.8571 24.0205 24.9905 24.005 25.1221C23.9895 25.2537 23.9479 25.3809 23.8828 25.4963C23.8177 25.6117 23.7303 25.713 23.6257 25.7943C23.5211 25.8756 23.4014 25.9354 23.2735 25.97C23.1456 26.0047 23.0121 26.0136 22.8807 25.9962C22.7494 25.9788 22.6228 25.9355 22.5083 25.8688C22.3938 25.8021 22.2937 25.7132 22.2139 25.6075L16.0001 17.625L9.79013 25.6138C9.62593 25.8189 9.38758 25.9512 9.12661 25.982C8.86564 26.0128 8.60304 25.9396 8.39559 25.7783C8.18814 25.617 8.05251 25.3806 8.01804 25.1201C7.98357 24.8596 8.05302 24.596 8.21139 24.3862L14.3951 16.435L5.62513 12.9288C5.37881 12.8293 5.18209 12.6361 5.07824 12.3916C4.9744 12.1471 4.97193 11.8713 5.07138 11.625C5.17084 11.3787 5.36407 11.182 5.60857 11.0781C5.85307 10.9743 6.12881 10.9718 6.37513 11.0712L15.0001 14.5225V5C15.0001 4.73478 15.1055 4.48043 15.293 4.29289C15.4806 4.10536 15.7349 4 16.0001 4C16.2654 4 16.5197 4.10536 16.7072 4.29289C16.8948 4.48043 17.0001 4.73478 17.0001 5V14.5225L25.6251 11.0712C25.7471 11.022 25.8776 10.9973 26.0091 10.9984C26.1406 10.9996 26.2706 11.0267 26.3917 11.0781C26.5128 11.1295 26.6225 11.2043 26.7147 11.2981C26.8069 11.392 26.8796 11.503 26.9289 11.625C26.9781 11.747 27.0029 11.8774 27.0017 12.009C27.0005 12.1405 26.9734 12.2705 26.922 12.3916C26.8706 12.5126 26.7958 12.6224 26.702 12.7145C26.6082 12.8067 26.4971 12.8795 26.3751 12.9288Z" fill="#4A4A4F"/>
</svg>
