<svg width="32" height="32" viewBox="0 0 32 32" fill="none" xmlns="http://www.w3.org/2000/svg">
<path d="M11.5 17.5C11.2033 17.5 10.9133 17.412 10.6667 17.2472C10.42 17.0824 10.2277 16.8481 10.1142 16.574C10.0007 16.2999 9.97095 15.9983 10.0288 15.7074C10.0867 15.4164 10.2296 15.1491 10.4393 14.9393C10.6491 14.7296 10.9164 14.5867 11.2074 14.5288C11.4983 14.4709 11.7999 14.5006 12.074 14.6142C12.3481 14.7277 12.5824 14.92 12.7472 15.1666C12.912 15.4133 13 15.7033 13 16C13 16.3978 12.842 16.7794 12.5607 17.0607C12.2794 17.342 11.8978 17.5 11.5 17.5ZM20.5 14.5C20.2033 14.5 19.9133 14.588 19.6667 14.7528C19.42 14.9176 19.2277 15.1519 19.1142 15.426C19.0007 15.7001 18.971 16.0017 19.0288 16.2926C19.0867 16.5836 19.2296 16.8509 19.4393 17.0607C19.6491 17.2704 19.9164 17.4133 20.2074 17.4712C20.4983 17.5291 20.7999 17.4993 21.074 17.3858C21.3481 17.2723 21.5824 17.08 21.7472 16.8334C21.912 16.5867 22 16.2967 22 16C22 15.6022 21.842 15.2206 21.5607 14.9393C21.2794 14.658 20.8978 14.5 20.5 14.5ZM18.9663 20.1537C18.0756 20.7065 17.0482 20.9994 16 20.9994C14.9518 20.9994 13.9244 20.7065 13.0338 20.1537C12.8093 20.0122 12.5378 19.9656 12.279 20.0242C12.0202 20.0828 11.7953 20.2418 11.6538 20.4662C11.5122 20.6907 11.4656 20.9622 11.5242 21.221C11.5828 21.4798 11.7418 21.7047 11.9663 21.8463C13.1764 22.6007 14.5739 23.0006 16 23.0006C17.4261 23.0006 18.8236 22.6007 20.0338 21.8463C20.2582 21.7047 20.4172 21.4798 20.4758 21.221C20.5344 20.9622 20.4878 20.6907 20.3463 20.4662C20.2047 20.2418 19.9798 20.0828 19.721 20.0242C19.4622 19.9656 19.1907 20.0122 18.9663 20.1537ZM29 16C29 18.5712 28.2376 21.0846 26.8091 23.2224C25.3807 25.3603 23.3503 27.0265 20.9749 28.0104C18.5995 28.9944 15.9856 29.2518 13.4638 28.7502C10.9421 28.2486 8.6257 27.0105 6.80762 25.1924C4.98953 23.3743 3.75141 21.0579 3.2498 18.5362C2.74819 16.0144 3.00563 13.4006 3.98957 11.0251C4.97351 8.64968 6.63975 6.61935 8.77759 5.1909C10.9154 3.76244 13.4288 3 16 3C19.4467 3.00364 22.7512 4.37445 25.1884 6.81163C27.6256 9.24882 28.9964 12.5533 29 16ZM27 16C26.9965 13.1683 25.9025 10.4468 23.9452 8.40047C21.9878 6.3542 19.3175 5.14044 16.4888 5.01125C15.04 7.0475 15 8.985 15 9C15 9.26522 15.1054 9.51957 15.2929 9.70711C15.4804 9.89464 15.7348 10 16 10C16.2652 10 16.5196 9.89464 16.7071 9.70711C16.8946 9.51957 17 9.26522 17 9C17 8.73478 17.1054 8.48043 17.2929 8.29289C17.4804 8.10536 17.7348 8 18 8C18.2652 8 18.5196 8.10536 18.7071 8.29289C18.8946 8.48043 19 8.73478 19 9C19 9.79565 18.6839 10.5587 18.1213 11.1213C17.5587 11.6839 16.7957 12 16 12C15.2044 12 14.4413 11.6839 13.8787 11.1213C13.3161 10.5587 13 9.79565 13 9C13 8.90875 13.0163 7.2125 14.0575 5.17125C11.998 5.54076 10.0865 6.49002 8.54748 7.90765C7.00845 9.32529 5.90568 11.1525 5.36857 13.1748C4.83147 15.1971 4.88231 17.3307 5.51513 19.3252C6.14796 21.3196 7.33651 23.0922 8.94132 24.4349C10.5461 25.7776 12.5006 26.6348 14.5754 26.9057C16.6503 27.1767 18.7593 26.8503 20.6552 25.9648C22.551 25.0793 24.1549 23.6714 25.2788 21.9064C26.4026 20.1414 26.9997 18.0924 27 16Z" fill="#4A4A4F"/>
</svg>
