<svg width="32" height="32" viewBox="0 0 32 32" fill="none" xmlns="http://www.w3.org/2000/svg">
<path d="M16.7699 3.0124C16.6824 3.00782 16.5952 3.02631 16.5171 3.06602C16.439 3.10573 16.3727 3.16526 16.3249 3.23865C15.0374 5.1849 14.9999 6.97365 14.9999 6.9999C15.0005 7.14872 15.0343 7.29553 15.0988 7.42962C15.1634 7.56371 15.257 7.68171 15.3729 7.77501C15.4889 7.86831 15.6242 7.93456 15.769 7.96893C15.9138 8.00329 16.0644 8.00491 16.2099 7.97365C16.437 7.91926 16.6389 7.7893 16.7824 7.60511C16.9259 7.42091 17.0026 7.19341 16.9999 6.9599C17.0047 6.82312 17.0375 6.68878 17.0963 6.56519C17.1551 6.4416 17.2386 6.3314 17.3418 6.2414C17.4449 6.15141 17.5654 6.08354 17.6958 6.042C17.8262 6.00046 17.9637 5.98613 18.0999 5.9999C18.3509 6.02904 18.582 6.1505 18.7484 6.34065C18.9147 6.5308 19.0044 6.77604 18.9999 7.02865C18.9954 7.8243 18.6751 8.58559 18.1093 9.14503C17.5435 9.70447 16.7787 10.0163 15.983 10.0118C15.1874 10.0073 14.4261 9.68694 13.8666 9.12117C13.3072 8.55539 12.9954 7.79055 12.9999 6.9949C12.9999 6.91615 13.0111 5.6474 13.6799 3.9949C13.7138 3.91034 13.7239 3.81813 13.7092 3.72824C13.6945 3.63834 13.6555 3.55417 13.5964 3.48482C13.5374 3.41547 13.4605 3.36357 13.3741 3.33472C13.2877 3.30588 13.195 3.30119 13.1061 3.32115C10.1597 3.99796 7.54065 5.67899 5.69824 8.07586C3.85583 10.4727 2.90492 13.436 3.00865 16.4574C3.2499 23.3399 8.90365 28.8749 15.7899 28.9874C19.1869 29.0394 22.4693 27.7596 24.9345 25.4218C27.3996 23.084 28.8517 19.874 28.9798 16.479C29.1078 13.0841 27.9018 9.77383 25.6198 7.25693C23.3378 4.74004 20.1612 3.21648 16.7699 3.0124ZM9.9999 15.9887C9.9999 15.692 10.0879 15.402 10.2527 15.1553C10.4175 14.9086 10.6518 14.7164 10.9259 14.6028C11.2 14.4893 11.5016 14.4596 11.7925 14.5175C12.0835 14.5754 12.3508 14.7182 12.5606 14.928C12.7703 15.1378 12.9132 15.405 12.9711 15.696C13.029 15.987 12.9992 16.2886 12.8857 16.5627C12.7722 16.8368 12.5799 17.071 12.3333 17.2359C12.0866 17.4007 11.7966 17.4887 11.4999 17.4887C11.1021 17.4887 10.7205 17.3306 10.4392 17.0493C10.1579 16.768 9.9999 16.3865 9.9999 15.9887ZM20.0336 22.8349C18.8235 23.5893 17.426 23.9892 15.9999 23.9892C14.5738 23.9892 13.1763 23.5893 11.9661 22.8349C11.7417 22.6933 11.5827 22.4684 11.5241 22.2096C11.4655 21.9508 11.5121 21.6793 11.6536 21.4549C11.7952 21.2305 12.0201 21.0715 12.2789 21.0128C12.5377 20.9542 12.8092 21.0008 13.0336 21.1424C13.9243 21.6952 14.9517 21.9881 15.9999 21.9881C17.0481 21.9881 18.0755 21.6952 18.9661 21.1424C19.0773 21.0723 19.2011 21.0248 19.3306 21.0026C19.4601 20.9803 19.5927 20.9838 19.7209 21.0128C19.849 21.0419 19.9702 21.0958 20.0775 21.1717C20.1848 21.2475 20.2761 21.3438 20.3461 21.4549C20.4162 21.566 20.4638 21.6899 20.486 21.8194C20.5082 21.9489 20.5047 22.0815 20.4757 22.2096C20.4467 22.3378 20.3927 22.4589 20.3169 22.5662C20.241 22.6735 20.1448 22.7648 20.0336 22.8349ZM20.4999 17.4887C20.2032 17.4887 19.9132 17.4007 19.6665 17.2359C19.4199 17.071 19.2276 16.8368 19.1141 16.5627C19.0005 16.2886 18.9708 15.987 19.0287 15.696C19.0866 15.405 19.2295 15.1378 19.4392 14.928C19.649 14.7182 19.9163 14.5754 20.2073 14.5175C20.4982 14.4596 20.7998 14.4893 21.0739 14.6028C21.348 14.7164 21.5823 14.9086 21.7471 15.1553C21.9119 15.402 21.9999 15.692 21.9999 15.9887C21.9999 16.3865 21.8419 16.768 21.5606 17.0493C21.2793 17.3306 20.8977 17.4887 20.4999 17.4887Z" fill="#4A4A4F"/>
</svg>
