<svg width="32" height="32" viewBox="0 0 32 32" fill="none" xmlns="http://www.w3.org/2000/svg">
<path d="M16 17.5C16.8284 17.5 17.5 16.8284 17.5 16C17.5 15.1716 16.8284 14.5 16 14.5C15.1716 14.5 14.5 15.1716 14.5 16C14.5 16.8284 15.1716 17.5 16 17.5Z" fill="#4A4A4F"/>
<path d="M23.0712 15.9999L26.5349 12.5349C27.0125 12.0737 27.3934 11.522 27.6554 10.9119C27.9175 10.3019 28.0554 9.64582 28.0612 8.98192C28.0669 8.31803 27.9404 7.65963 27.689 7.04515C27.4376 6.43067 27.0664 5.87241 26.5969 5.40294C26.1274 4.93348 25.5692 4.56221 24.9547 4.31081C24.3402 4.0594 23.6818 3.9329 23.0179 3.93867C22.354 3.94443 21.6979 4.08237 21.0879 4.34441C20.4779 4.60646 19.9262 4.98737 19.4649 5.46492L15.9999 8.92867L12.5349 5.46492C12.0737 4.98737 11.522 4.60646 10.9119 4.34441C10.3019 4.08237 9.64582 3.94443 8.98192 3.93867C8.31803 3.9329 7.65963 4.0594 7.04515 4.31081C6.43067 4.56221 5.87241 4.93348 5.40294 5.40294C4.93348 5.87241 4.56221 6.43067 4.31081 7.04515C4.0594 7.65963 3.9329 8.31803 3.93867 8.98192C3.94443 9.64582 4.08237 10.3019 4.34441 10.9119C4.60646 11.522 4.98737 12.0737 5.46492 12.5349L8.92867 15.9999L5.46492 19.4649C4.98737 19.9262 4.60646 20.4779 4.34441 21.0879C4.08237 21.6979 3.94443 22.354 3.93867 23.0179C3.9329 23.6818 4.0594 24.3402 4.31081 24.9547C4.56221 25.5692 4.93348 26.1274 5.40294 26.5969C5.87241 27.0664 6.43067 27.4376 7.04515 27.689C7.65963 27.9404 8.31803 28.0669 8.98192 28.0612C9.64582 28.0554 10.3019 27.9175 10.9119 27.6554C11.522 27.3934 12.0737 27.0125 12.5349 26.5349L15.9999 23.0712L19.4649 26.5349C19.9262 27.0125 20.4779 27.3934 21.0879 27.6554C21.6979 27.9175 22.354 28.0554 23.0179 28.0612C23.6818 28.0669 24.3402 27.9404 24.9547 27.689C25.5692 27.4376 26.1274 27.0664 26.5969 26.5969C27.0664 26.1274 27.4376 25.5692 27.689 24.9547C27.9404 24.3402 28.0669 23.6818 28.0612 23.0179C28.0554 22.354 27.9175 21.6979 27.6554 21.0879C27.3934 20.4779 27.0125 19.9262 26.5349 19.4649L23.0712 15.9999ZM15.9999 11.7574L20.2424 15.9999L15.9999 20.2424L11.7574 15.9999L15.9999 11.7574ZM20.8749 6.88242C21.4375 6.31883 22.2009 6.00182 22.9973 6.00112C23.7936 6.00041 24.5576 6.31608 25.1212 6.87867C25.6848 7.44126 26.0018 8.20469 26.0025 9.00102C26.0032 9.79734 25.6875 10.5613 25.1249 11.1249L21.6599 14.5899L17.4137 10.3437L20.8749 6.88242ZM11.1249 25.1249C10.8459 25.404 10.5146 25.6253 10.15 25.7764C9.78535 25.9274 9.39457 26.0051 8.99992 26.0051C8.60527 26.0051 8.21448 25.9274 7.84988 25.7764C7.48527 25.6253 7.15398 25.404 6.87492 25.1249C6.59586 24.8459 6.3745 24.5146 6.22347 24.15C6.07245 23.7854 5.99471 23.3946 5.99471 22.9999C5.99471 22.6053 6.07245 22.2145 6.22347 21.8499C6.3745 21.4853 6.59586 21.154 6.87492 20.8749L10.3399 17.4099L14.5824 21.6524L11.1249 25.1249Z" fill="#4A4A4F"/>
</svg>
