<svg width="32" height="32" viewBox="0 0 32 32" fill="none" xmlns="http://www.w3.org/2000/svg">
<path d="M31 26.0001C31 26.2654 30.8946 26.5197 30.7071 26.7072C30.5196 26.8948 30.2652 27.0001 30 27.0001H2C1.73478 27.0001 1.48043 26.8948 1.29289 26.7072C1.10536 26.5197 1 26.2654 1 26.0001C1 25.7349 1.10536 25.4806 1.29289 25.293C1.48043 25.1055 1.73478 25.0001 2 25.0001H30C30.2652 25.0001 30.5196 25.1055 30.7071 25.293C30.8946 25.4806 31 25.7349 31 26.0001ZM2.0375 12.2726C1.97802 12.0629 1.9887 11.8395 2.0679 11.6364C2.1471 11.4334 2.2905 11.2617 2.47625 11.1476L15.4762 3.14764C15.6338 3.05079 15.8151 2.99951 16 2.99951C16.1849 2.99951 16.3662 3.05079 16.5238 3.14764L29.5238 11.1476C29.7096 11.2616 29.8531 11.4331 29.9324 11.6361C30.0118 11.8391 30.0226 12.0625 29.9633 12.2722C29.904 12.4819 29.7778 12.6666 29.6039 12.798C29.43 12.9294 29.218 13.0004 29 13.0001H26V21.0001H28C28.2652 21.0001 28.5196 21.1055 28.7071 21.293C28.8946 21.4806 29 21.7349 29 22.0001C29 22.2654 28.8946 22.5197 28.7071 22.7072C28.5196 22.8948 28.2652 23.0001 28 23.0001H4C3.73478 23.0001 3.48043 22.8948 3.29289 22.7072C3.10536 22.5197 3 22.2654 3 22.0001C3 21.7349 3.10536 21.4806 3.29289 21.293C3.48043 21.1055 3.73478 21.0001 4 21.0001H6V13.0001H3C2.78224 13.0002 2.5704 12.9292 2.39668 12.7979C2.22295 12.6666 2.09684 12.4822 2.0375 12.2726ZM18 20.0001C18 20.2654 18.1054 20.5197 18.2929 20.7072C18.4804 20.8948 18.7348 21.0001 19 21.0001C19.2652 21.0001 19.5196 20.8948 19.7071 20.7072C19.8946 20.5197 20 20.2654 20 20.0001V14.0001C20 13.7349 19.8946 13.4806 19.7071 13.293C19.5196 13.1055 19.2652 13.0001 19 13.0001C18.7348 13.0001 18.4804 13.1055 18.2929 13.293C18.1054 13.4806 18 13.7349 18 14.0001V20.0001ZM12 20.0001C12 20.2654 12.1054 20.5197 12.2929 20.7072C12.4804 20.8948 12.7348 21.0001 13 21.0001C13.2652 21.0001 13.5196 20.8948 13.7071 20.7072C13.8946 20.5197 14 20.2654 14 20.0001V14.0001C14 13.7349 13.8946 13.4806 13.7071 13.293C13.5196 13.1055 13.2652 13.0001 13 13.0001C12.7348 13.0001 12.4804 13.1055 12.2929 13.293C12.1054 13.4806 12 13.7349 12 14.0001V20.0001Z" fill="#4A4A4F"/>
</svg>
