<svg width="32" height="32" viewBox="0 0 32 32" fill="none" xmlns="http://www.w3.org/2000/svg">
<path d="M16 3C12.5534 3.00397 9.24911 4.37488 6.812 6.812C4.37488 9.24911 3.00397 12.5534 3 16V23C3 23.7956 3.31607 24.5587 3.87868 25.1213C4.44129 25.6839 5.20435 26 6 26C6.6373 25.9989 7.25785 25.7959 7.7725 25.42C9.29125 24.3162 11.95 23 16 23C20.05 23 22.7087 24.315 24.2262 25.4188C24.6733 25.7465 25.2024 25.944 25.7548 25.9893C26.3073 26.0345 26.8615 25.9259 27.3559 25.6754C27.8504 25.4249 28.2657 25.0422 28.556 24.57C28.8462 24.0977 28.9999 23.5543 29 23V16C28.996 12.5534 27.6251 9.24911 25.188 6.812C22.7509 4.37488 19.4466 3.00397 16 3ZM5 16C5.00346 13.4784 5.87171 11.0342 7.45982 9.07555C9.04793 7.11686 11.2598 5.76213 13.7262 5.2375C11.7445 8.08616 10.5042 11.3839 10.1175 14.8325C8.31657 15.3569 6.59505 16.123 5 17.11V16ZM27 23C27.003 23.1841 26.9536 23.3654 26.8576 23.5225C26.7615 23.6796 26.6228 23.8062 26.4575 23.8875C26.2912 23.9733 26.1042 24.0107 25.9177 23.9954C25.7312 23.9802 25.5527 23.9129 25.4025 23.8013C23.645 22.525 20.5875 21 16 21C11.4125 21 8.355 22.525 6.5975 23.8025C6.44733 23.9141 6.26885 23.9814 6.08235 23.9967C5.89585 24.0119 5.70881 23.9745 5.5425 23.8888C5.37704 23.8074 5.23816 23.6806 5.14209 23.5232C5.04602 23.3658 4.99674 23.1844 5 23V19.5088C6.88382 18.1633 8.99962 17.1768 11.2413 16.5987C11.2837 16.591 11.3254 16.5801 11.3663 16.5662C14.4106 15.8112 17.5932 15.8112 20.6375 16.5662C20.6785 16.58 20.7202 16.5913 20.7625 16.6C23.0029 17.1777 25.1174 18.1638 27 19.5088V23ZM27 17.1087C25.4049 16.1218 23.6834 15.3556 21.8825 14.8313C21.4956 11.3831 20.2553 8.0858 18.2738 5.2375C20.7402 5.76213 22.9521 7.11686 24.5402 9.07555C26.1283 11.0342 26.9965 13.4784 27 16V17.1087Z" fill="#4A4A4F"/>
</svg>
