<svg width="32" height="32" viewBox="0 0 32 32" fill="none" xmlns="http://www.w3.org/2000/svg">
<path d="M26.1686 7.90991C26.126 7.85675 26.073 7.81286 26.0129 7.78092C25.9527 7.74898 25.8867 7.72966 25.8188 7.72416C25.7509 7.71866 25.6826 7.72709 25.6181 7.74893C25.5536 7.77076 25.4942 7.80555 25.4436 7.85116C25.0203 8.23694 24.6275 8.65485 24.2686 9.10116C24.1101 9.30523 23.8804 9.44192 23.6255 9.48388C23.3705 9.52583 23.1091 9.46994 22.8936 9.32741C22.7803 9.24902 22.6844 9.14808 22.612 9.0309C22.5396 8.91373 22.4921 8.78285 22.4726 8.64647C22.4531 8.5101 22.4621 8.37117 22.4988 8.2384C22.5355 8.10562 22.5993 7.98187 22.6861 7.87491C23.0821 7.37993 23.5136 6.91453 23.9774 6.48241C24.0308 6.43351 24.073 6.37357 24.101 6.30675C24.129 6.23993 24.1422 6.16783 24.1396 6.09542C24.1369 6.02302 24.1186 5.95205 24.0859 5.88743C24.0531 5.8228 24.0067 5.76607 23.9499 5.72116C21.6751 3.95728 18.8783 3 15.9999 3C13.1214 3 10.3246 3.95728 8.04985 5.72116C7.99301 5.76607 7.9466 5.8228 7.91385 5.88743C7.88109 5.95205 7.86277 6.02302 7.86016 6.09542C7.85754 6.16783 7.87069 6.23993 7.8987 6.30675C7.9267 6.37357 7.9689 6.43351 8.02235 6.48241C8.47809 6.90697 8.90293 7.36355 9.2936 7.84866C9.45133 8.04045 9.53387 8.28309 9.52582 8.53127C9.51777 8.77946 9.41968 9.01624 9.24985 9.19741C9.15096 9.29945 9.03146 9.37924 8.89931 9.43148C8.76716 9.48371 8.62539 9.50718 8.48346 9.50032C8.34153 9.49346 8.20269 9.45643 8.07619 9.39169C7.94969 9.32696 7.83844 9.23601 7.74985 9.12491C7.3846 8.66889 6.98376 8.24255 6.5511 7.84991C6.50046 7.80457 6.44111 7.77004 6.37667 7.74842C6.31223 7.7268 6.24406 7.71855 6.17632 7.72416C6.10858 7.72978 6.0427 7.74915 5.9827 7.78108C5.9227 7.81302 5.86984 7.85685 5.82735 7.90991C3.99435 10.208 2.99609 13.0604 2.99609 15.9999C2.99609 18.9394 3.99435 21.7919 5.82735 24.0899C5.86994 24.1431 5.92294 24.187 5.98309 24.2189C6.04325 24.2508 6.1093 24.2701 6.17718 24.2757C6.24507 24.2812 6.31337 24.2727 6.37788 24.2509C6.44239 24.229 6.50177 24.1943 6.55235 24.1487C6.97563 23.7629 7.36847 23.345 7.72735 22.8987C7.88583 22.6946 8.11554 22.5579 8.37049 22.5159C8.62545 22.474 8.88684 22.5299 9.10235 22.6724C9.21593 22.7505 9.31213 22.8512 9.38492 22.9683C9.45772 23.0853 9.50554 23.2161 9.52537 23.3525C9.54521 23.4889 9.53664 23.6279 9.5002 23.7608C9.46375 23.8937 9.40023 24.0177 9.3136 24.1249C8.91765 24.6199 8.48609 25.0853 8.02235 25.5174C7.9689 25.5663 7.9267 25.6262 7.8987 25.6931C7.87069 25.7599 7.85754 25.832 7.86016 25.9044C7.86277 25.9768 7.88109 26.0478 7.91385 26.1124C7.9466 26.177 7.99301 26.2337 8.04985 26.2787C10.3246 28.0425 13.1214 28.9998 15.9999 28.9998C18.8783 28.9998 21.6751 28.0425 23.9499 26.2787C24.0067 26.2337 24.0531 26.177 24.0859 26.1124C24.1186 26.0478 24.1369 25.9768 24.1396 25.9044C24.1422 25.832 24.129 25.7599 24.101 25.6931C24.073 25.6262 24.0308 25.5663 23.9774 25.5174C23.5136 25.0853 23.0821 24.6199 22.6861 24.1249C22.6002 24.0177 22.5372 23.894 22.5012 23.7614C22.4652 23.6288 22.457 23.4902 22.4769 23.3543C22.4968 23.2183 22.5446 23.088 22.6171 22.9713C22.6897 22.8546 22.7855 22.7542 22.8986 22.6762C23.1141 22.5336 23.3755 22.4777 23.6305 22.5197C23.8854 22.5616 24.1151 22.6983 24.2736 22.9024C24.6325 23.3487 25.0253 23.7666 25.4486 24.1524C25.4992 24.198 25.5586 24.2328 25.6231 24.2546C25.6876 24.2765 25.7559 24.2849 25.8238 24.2794C25.8917 24.2739 25.9577 24.2546 26.0179 24.2226C26.078 24.1907 26.131 24.1468 26.1736 24.0937C28.0066 21.7956 29.0049 18.9432 29.0049 16.0037C29.0049 13.0641 28.0066 10.2117 26.1736 7.91366L26.1686 7.90991ZM10.2136 11.0374C10.4634 10.9729 10.7283 11.0053 10.9552 11.1279C11.1822 11.2505 11.3544 11.4544 11.4374 11.6987C11.6756 12.3813 11.857 13.0824 11.9799 13.7949C12.0104 13.9406 12.008 14.0912 11.9729 14.2358C11.9378 14.3804 11.8708 14.5154 11.7769 14.6309C11.683 14.7463 11.5645 14.8394 11.4301 14.9032C11.2957 14.9671 11.1487 15.0001 10.9999 14.9999C10.7481 15.0007 10.5054 14.9066 10.32 14.7363C10.1346 14.566 10.0203 14.332 9.99985 14.0812C9.95235 13.5262 9.8611 12.9674 9.59985 12.4762C9.52848 12.3439 9.48784 12.1972 9.48096 12.0471C9.47408 11.8969 9.50113 11.7472 9.56011 11.6089C9.61908 11.4707 9.70846 11.3475 9.8216 11.2485C9.93474 11.1496 10.0687 11.0774 10.2136 11.0374ZM11.9799 18.1987C11.8564 18.9248 11.6711 19.639 11.4261 20.3337C11.3786 20.4678 11.303 20.5903 11.2044 20.6929C11.1058 20.7955 10.9864 20.8759 10.8542 20.9286C10.7221 20.9814 10.5802 21.0054 10.438 20.9989C10.2958 20.9924 10.1567 20.9557 10.0299 20.8912C9.81126 20.7745 9.6424 20.5825 9.55459 20.3508C9.46678 20.1191 9.46599 19.8634 9.55235 19.6312C9.75648 19.0465 9.91078 18.4456 10.0136 17.8349C10.0369 17.695 10.0898 17.5616 10.1686 17.4437C10.2474 17.3258 10.3504 17.226 10.4707 17.1509C10.5911 17.0758 10.726 17.0272 10.8666 17.0083C11.0072 16.9894 11.1502 17.0006 11.2861 17.0412C11.5227 17.1167 11.7237 17.2759 11.8514 17.489C11.9791 17.7021 12.0248 17.9544 11.9799 18.1987ZM21.9699 20.8912C21.843 20.9557 21.7039 20.9924 21.5617 20.9989C21.4195 21.0054 21.2776 20.9814 21.1455 20.9286C21.0133 20.8759 20.8939 20.7955 20.7953 20.6929C20.6967 20.5903 20.6211 20.4678 20.5736 20.3337C20.3286 19.639 20.1434 18.9248 20.0199 18.1987C19.9752 17.9544 20.021 17.7022 20.1487 17.4892C20.2763 17.2762 20.4771 17.117 20.7136 17.0412C20.8495 17.0006 20.9925 16.9894 21.1331 17.0083C21.2737 17.0272 21.4086 17.0758 21.529 17.1509C21.6493 17.226 21.7523 17.3258 21.8311 17.4437C21.91 17.5616 21.9628 17.695 21.9861 17.8349C22.0889 18.4456 22.2432 19.0465 22.4474 19.6312C22.5337 19.8634 22.5329 20.1191 22.4451 20.3508C22.3573 20.5825 22.1884 20.7745 21.9699 20.8912ZM22.3961 12.4762C22.1349 12.9674 22.0436 13.5262 21.9961 14.0812C21.9834 14.2281 21.9383 14.3704 21.864 14.4979C21.7898 14.6253 21.6883 14.7348 21.5668 14.8184C21.4453 14.9021 21.3068 14.9578 21.1613 14.9816C21.0157 15.0054 20.8667 14.9967 20.7249 14.9562C20.486 14.8833 20.2822 14.7253 20.152 14.5122C20.0219 14.2991 19.9744 14.0457 20.0186 13.7999C20.1408 13.0859 20.3227 12.3835 20.5624 11.6999C20.6448 11.4552 20.8169 11.2509 21.0439 11.128C21.271 11.005 21.5362 10.9727 21.7861 11.0374C21.9307 11.0779 22.0642 11.1504 22.1769 11.2495C22.2897 11.3486 22.3786 11.4718 22.4372 11.61C22.4958 11.7482 22.5225 11.8979 22.5154 12.0478C22.5083 12.1977 22.4675 12.3441 22.3961 12.4762Z" fill="#4A4A4F"/>
</svg>
