<svg width="32" height="32" viewBox="0 0 32 32" fill="none" xmlns="http://www.w3.org/2000/svg">
<path d="M32 12V20C32 20.2652 31.8946 20.5196 31.7071 20.7071C31.5196 20.8946 31.2652 21 31 21C30.7348 21 30.4804 20.8946 30.2929 20.7071C30.1054 20.5196 30 20.2652 30 20V12C30 11.7348 30.1054 11.4804 30.2929 11.2929C30.4804 11.1054 30.7348 11 31 11C31.2652 11 31.5196 11.1054 31.7071 11.2929C31.8946 11.4804 32 11.7348 32 12ZM28 10V22C28 22.7956 27.6839 23.5587 27.1213 24.1213C26.5587 24.6839 25.7956 25 25 25H4C3.20435 25 2.44129 24.6839 1.87868 24.1213C1.31607 23.5587 1 22.7956 1 22V10C1 9.20435 1.31607 8.44129 1.87868 7.87868C2.44129 7.31607 3.20435 7 4 7H25C25.7956 7 26.5587 7.31607 27.1213 7.87868C27.6839 8.44129 28 9.20435 28 10ZM17.3512 15.4738C17.2615 15.3288 17.1362 15.2091 16.9872 15.1262C16.8382 15.0433 16.6705 14.9998 16.5 15H14.1175L15.395 12.4475C15.4538 12.33 15.4888 12.202 15.4981 12.0709C15.5074 11.9399 15.4908 11.8082 15.4493 11.6836C15.4077 11.5589 15.342 11.4436 15.2559 11.3444C15.1698 11.2451 15.065 11.1638 14.9475 11.105C14.83 11.0462 14.702 11.0112 14.5709 11.0019C14.4399 10.9926 14.3082 11.0092 14.1836 11.0507C14.0589 11.0923 13.9436 11.158 13.8444 11.2441C13.7451 11.3302 13.6638 11.435 13.605 11.5525L11.605 15.5525C11.5287 15.705 11.4926 15.8745 11.5003 16.0449C11.5079 16.2153 11.559 16.3808 11.6487 16.5259C11.7384 16.671 11.8637 16.7907 12.0127 16.8736C12.1617 16.9566 12.3295 17.0001 12.5 17H14.8825L13.605 19.5525C13.5462 19.67 13.5112 19.798 13.5019 19.9291C13.4926 20.0601 13.5092 20.1918 13.5507 20.3164C13.5923 20.4411 13.658 20.5563 13.7441 20.6556C13.8302 20.7549 13.935 20.8362 14.0525 20.895C14.2899 21.0137 14.5647 21.0332 14.8164 20.9493C14.9411 20.9077 15.0564 20.842 15.1556 20.7559C15.2549 20.6698 15.3362 20.565 15.395 20.4475L17.395 16.4475C17.4714 16.2949 17.5075 16.1254 17.4998 15.9549C17.4921 15.7845 17.441 15.6188 17.3512 15.4738Z" fill="#4A4A4F"/>
</svg>
