<svg width="32" height="32" viewBox="0 0 32 32" fill="none" xmlns="http://www.w3.org/2000/svg">
<path d="M25 7H4C3.20435 7 2.44129 7.31607 1.87868 7.87868C1.31607 8.44129 1 9.20435 1 10V22C1 22.7956 1.31607 23.5587 1.87868 24.1213C2.44129 24.6839 3.20435 25 4 25H25C25.7956 25 26.5587 24.6839 27.1213 24.1213C27.6839 23.5587 28 22.7956 28 22V10C28 9.20435 27.6839 8.44129 27.1213 7.87868C26.5587 7.31607 25.7956 7 25 7ZM18 17H15.5V19.5C15.5 19.7652 15.3946 20.0196 15.2071 20.2071C15.0196 20.3946 14.7652 20.5 14.5 20.5C14.2348 20.5 13.9804 20.3946 13.7929 20.2071C13.6054 20.0196 13.5 19.7652 13.5 19.5V17H11C10.7348 17 10.4804 16.8946 10.2929 16.7071C10.1054 16.5196 10 16.2652 10 16C10 15.7348 10.1054 15.4804 10.2929 15.2929C10.4804 15.1054 10.7348 15 11 15H13.5V12.5C13.5 12.2348 13.6054 11.9804 13.7929 11.7929C13.9804 11.6054 14.2348 11.5 14.5 11.5C14.7652 11.5 15.0196 11.6054 15.2071 11.7929C15.3946 11.9804 15.5 12.2348 15.5 12.5V15H18C18.2652 15 18.5196 15.1054 18.7071 15.2929C18.8946 15.4804 19 15.7348 19 16C19 16.2652 18.8946 16.5196 18.7071 16.7071C18.5196 16.8946 18.2652 17 18 17ZM32 12V20C32 20.2652 31.8946 20.5196 31.7071 20.7071C31.5196 20.8946 31.2652 21 31 21C30.7348 21 30.4804 20.8946 30.2929 20.7071C30.1054 20.5196 30 20.2652 30 20V12C30 11.7348 30.1054 11.4804 30.2929 11.2929C30.4804 11.1054 30.7348 11 31 11C31.2652 11 31.5196 11.1054 31.7071 11.2929C31.8946 11.4804 32 11.7348 32 12Z" fill="#4A4A4F"/>
</svg>
