<svg width="32" height="32" viewBox="0 0 32 32" fill="none" xmlns="http://www.w3.org/2000/svg">
<path d="M30.7077 5.29257L26.7077 1.29257C26.5201 1.10493 26.2656 0.999512 26.0002 0.999512C25.7348 0.999512 25.4803 1.10493 25.2927 1.29257C25.105 1.48021 24.9996 1.7347 24.9996 2.00007C24.9996 2.26543 25.105 2.51993 25.2927 2.70757L25.4777 2.89132L18.5814 8.06382L13.8039 9.02007C13.6105 9.05882 13.4327 9.15358 13.2927 9.29257L2.87519 19.7076C2.31263 20.2702 1.99658 21.0332 1.99658 21.8288C1.99658 22.6244 2.31263 23.3875 2.87519 23.9501L8.05019 29.1251C8.61279 29.6876 9.37583 30.0037 10.1714 30.0037C10.9671 30.0037 11.7301 29.6876 12.2927 29.1251L22.7077 18.7113C22.847 18.5715 22.9418 18.3936 22.9802 18.2001L23.9364 13.4226L29.1089 6.52632L29.2927 6.71132C29.3856 6.80423 29.4959 6.87793 29.6173 6.92821C29.7387 6.97849 29.8688 7.00437 30.0002 7.00437C30.1316 7.00437 30.2617 6.97849 30.3831 6.92821C30.5045 6.87793 30.6148 6.80423 30.7077 6.71132C30.8006 6.61841 30.8743 6.50811 30.9246 6.38671C30.9749 6.26532 31.0007 6.13521 31.0007 6.00382C31.0007 5.87242 30.9749 5.74231 30.9246 5.62092C30.8743 5.49953 30.8006 5.38923 30.7077 5.29632V5.29257ZM10.1714 28.0001C10.0402 28.0004 9.91025 27.9747 9.78903 27.9245C9.6678 27.8743 9.55773 27.8006 9.46519 27.7076L4.29269 22.5351C4.1053 22.3476 4.00003 22.0933 4.00003 21.8282C4.00003 21.5631 4.1053 21.3088 4.29269 21.1213L5.00019 20.4138L11.5864 27.0001L10.8752 27.7076C10.6884 27.8941 10.4354 27.9993 10.1714 28.0001ZM22.2002 12.4001C22.1105 12.5194 22.049 12.6574 22.0202 12.8038L21.0789 17.5076L20.0002 18.5863L13.4139 12.0001L14.4927 10.9213L19.1964 9.98007C19.3429 9.95127 19.4809 9.88973 19.6002 9.80007L26.9064 4.32007L27.6802 5.09382L22.2002 12.4001Z" fill="#4A4A4F"/>
</svg>
