<svg width="32" height="32" viewBox="0 0 32 32" fill="none" xmlns="http://www.w3.org/2000/svg">
<path d="M26.7425 26.3276C26.8327 26.4245 26.9027 26.5383 26.9486 26.6624C26.9944 26.7866 27.0152 26.9185 27.0097 27.0508C27.0042 27.183 26.9724 27.3128 26.9164 27.4327C26.8603 27.5525 26.781 27.6601 26.6831 27.7491C26.5852 27.8381 26.4705 27.9067 26.3459 27.9511C26.2212 27.9955 26.089 28.0147 25.9568 28.0076C25.8247 28.0005 25.6953 27.9672 25.5761 27.9097C25.4569 27.8522 25.3503 27.7716 25.2625 27.6726L22.8325 25.0001H5.99999C5.64841 24.9997 5.30317 24.9065 4.99906 24.7301C4.69495 24.5537 4.44272 24.3002 4.2678 23.9952C4.09288 23.6902 4.00144 23.3445 4.0027 22.993C4.00396 22.6414 4.09788 22.2964 4.27499 21.9926C4.96874 20.7976 5.99999 17.4176 5.99999 13.0001C5.99717 11.2345 6.46488 9.50001 7.35499 7.97515L5.26249 5.67265C5.17232 5.57579 5.10228 5.462 5.05641 5.33787C5.01054 5.21374 4.98977 5.08175 4.9953 4.94953C5.00082 4.81731 5.03253 4.68751 5.08859 4.56764C5.14465 4.44777 5.22394 4.34022 5.32188 4.25122C5.41981 4.16222 5.53443 4.09355 5.6591 4.04917C5.78377 4.0048 5.916 3.98561 6.04814 3.99272C6.18028 3.99983 6.3097 4.03309 6.42889 4.09059C6.54808 4.14808 6.65467 4.22866 6.74249 4.32765L26.7425 26.3276ZM20 27.0001H12C11.7348 27.0001 11.4804 27.1055 11.2929 27.293C11.1053 27.4806 11 27.7349 11 28.0001C11 28.2654 11.1053 28.5197 11.2929 28.7073C11.4804 28.8948 11.7348 29.0001 12 29.0001H20C20.2652 29.0001 20.5196 28.8948 20.7071 28.7073C20.8946 28.5197 21 28.2654 21 28.0001C21 27.7349 20.8946 27.4806 20.7071 27.293C20.5196 27.1055 20.2652 27.0001 20 27.0001ZM27.3137 21.1101C27.0087 20.3239 26 17.4189 26 13.0001C26.0002 11.2513 25.5417 9.53294 24.6704 8.0166C23.799 6.50027 22.5452 5.23896 21.0341 4.35856C19.523 3.47816 17.8074 3.00944 16.0586 2.9992C14.3098 2.98895 12.5888 3.43752 11.0675 4.30015C10.9367 4.37386 10.8243 4.47605 10.7384 4.59915C10.6525 4.72226 10.5955 4.86311 10.5715 5.01126C10.5475 5.15942 10.5571 5.31108 10.5997 5.45501C10.6423 5.59893 10.7167 5.73142 10.8175 5.84265L25.6462 22.1476C25.8037 22.3199 26.0164 22.4317 26.2476 22.4636C26.4788 22.4956 26.7139 22.4456 26.9121 22.3224C27.1104 22.1993 27.2593 22.0107 27.3331 21.7893C27.4069 21.5679 27.4009 21.3276 27.3162 21.1101H27.3137Z" fill="#4A4A4F"/>
</svg>
