<svg width="32" height="32" viewBox="0 0 32 32" fill="none" xmlns="http://www.w3.org/2000/svg">
<path d="M6.74254 4.32774C6.65473 4.22875 6.54813 4.14818 6.42895 4.09068C6.30976 4.03319 6.18034 3.99992 6.0482 3.99282C5.91606 3.98571 5.78383 4.00489 5.65916 4.04927C5.53449 4.09364 5.41986 4.16232 5.32193 4.25132C5.224 4.34032 5.14471 4.44787 5.08865 4.56774C5.03259 4.68761 5.00088 4.81741 4.99535 4.94963C4.98983 5.08184 5.0106 5.21384 5.05647 5.33797C5.10233 5.4621 5.17238 5.57589 5.26254 5.67274L7.35505 7.97524C6.46494 9.5001 5.99723 11.2346 6.00005 13.0002C6.00005 17.4177 4.9663 20.7977 4.27255 21.9927C4.09533 22.2966 4.00141 22.6419 4.00025 22.9937C3.9991 23.3455 4.09076 23.6914 4.26598 23.9964C4.4412 24.3015 4.69378 24.5549 4.99824 24.7311C5.30269 24.9074 5.64825 25.0002 6.00005 25.0002H11.1025C11.3327 26.1299 11.9461 27.1453 12.8389 27.8745C13.7317 28.6038 14.8491 29.0022 16.0019 29.0022C17.1547 29.0022 18.2721 28.6038 19.165 27.8745C20.0578 27.1453 20.6712 26.1299 20.9013 25.0002H22.8325L25.2625 27.6727C25.3504 27.7717 25.457 27.8523 25.5761 27.9098C25.6953 27.9673 25.8247 28.0006 25.9569 28.0077C26.089 28.0148 26.2213 27.9956 26.3459 27.9512C26.4706 27.9068 26.5852 27.8382 26.6832 27.7492C26.7811 27.6602 26.8604 27.5526 26.9164 27.4328C26.9725 27.3129 27.0042 27.1831 27.0097 27.0509C27.0153 26.9186 26.9945 26.7866 26.9486 26.6625C26.9028 26.5384 26.8327 26.4246 26.7425 26.3277L6.74254 4.32774ZM16 27.0002C15.3796 27.0003 14.7744 26.808 14.2678 26.4498C13.7612 26.0916 13.3781 25.5852 13.1713 25.0002H18.8275C18.6208 25.585 18.2379 26.0913 17.7315 26.4495C17.2252 26.8076 16.6203 27.0001 16 27.0002ZM26.9113 22.324C26.7127 22.4474 26.4772 22.4974 26.2457 22.4652C26.0141 22.433 25.8011 22.3207 25.6438 22.1477L10.8225 5.84274C10.7218 5.73151 10.6473 5.59902 10.6047 5.4551C10.5622 5.31118 10.5525 5.15952 10.5765 5.01136C10.6005 4.8632 10.6576 4.72235 10.7435 4.59925C10.8293 4.47615 10.9418 4.37395 11.0725 4.30024C12.5937 3.43885 14.3141 2.99127 16.0623 3.00215C17.8104 3.01302 19.5251 3.48197 21.0354 4.36222C22.5458 5.24248 23.799 6.50329 24.6701 8.01893C25.5412 9.53458 25.9997 11.2521 26 13.0002C26 17.419 27 20.324 27.3138 21.1102C27.3992 21.3274 27.406 21.5677 27.333 21.7894C27.2599 22.011 27.1116 22.2002 26.9138 22.324H26.9113Z" fill="#4A4A4F"/>
</svg>
