<svg width="32" height="32" viewBox="0 0 32 32" fill="none" xmlns="http://www.w3.org/2000/svg">
<path d="M23.6 21.2L16.6663 16L19.6 13.8C19.8122 13.6409 19.9524 13.404 19.99 13.1414C20.0275 12.8789 19.9591 12.6122 19.8 12.4C19.6409 12.1878 19.404 12.0476 19.1414 12.0101C18.8789 11.9725 18.6122 12.0409 18.4 12.2L16 14V6L18.4 7.8C18.5051 7.87879 18.6246 7.93612 18.7518 7.96871C18.879 8.00131 19.0114 8.00852 19.1414 7.98995C19.2714 7.97138 19.3965 7.92738 19.5095 7.86048C19.6225 7.79357 19.7212 7.70506 19.8 7.6C19.8788 7.49494 19.9361 7.37539 19.9687 7.24818C20.0013 7.12097 20.0085 6.98858 19.99 6.85858C19.9714 6.72858 19.9274 6.60351 19.8605 6.49051C19.7936 6.37751 19.7051 6.27879 19.6 6.2L15.6 3.2C15.4514 3.08857 15.2748 3.02072 15.0898 3.00404C14.9048 2.98736 14.7189 3.02252 14.5528 3.10557C14.3867 3.18863 14.247 3.31629 14.1494 3.47427C14.0517 3.63225 14 3.81429 14 4V14L7.6 9.2C7.38783 9.04087 7.12113 8.97254 6.85858 9.01005C6.59603 9.04756 6.35913 9.18783 6.2 9.4C6.04087 9.61217 5.97255 9.87887 6.01005 10.1414C6.04756 10.404 6.18783 10.6409 6.4 10.8L13.3338 16L6.4 21.2C6.29495 21.2788 6.20644 21.3775 6.13953 21.4905C6.07262 21.6035 6.02863 21.7286 6.01005 21.8586C5.97255 22.1211 6.04087 22.3878 6.2 22.6C6.35913 22.8122 6.59603 22.9524 6.85858 22.99C7.12113 23.0275 7.38783 22.9591 7.6 22.8L14 18V28C14 28.1857 14.0517 28.3678 14.1494 28.5257C14.247 28.6837 14.3867 28.8114 14.5528 28.8944C14.7189 28.9775 14.9048 29.0126 15.0898 28.996C15.2748 28.9793 15.4514 28.9114 15.6 28.8L23.6 22.8C23.7242 22.7069 23.825 22.5861 23.8944 22.4472C23.9639 22.3084 24 22.1552 24 22C24 21.8448 23.9639 21.6916 23.8944 21.5528C23.825 21.4139 23.7242 21.2931 23.6 21.2ZM16 26V18L21.3338 22L16 26ZM29.7075 12.2925C29.8004 12.3854 29.8741 12.4957 29.9244 12.6171C29.9747 12.7385 30.0006 12.8686 30.0006 13C30.0006 13.1314 29.9747 13.2615 29.9244 13.3829C29.8741 13.5043 29.8004 13.6146 29.7075 13.7075C29.6146 13.8004 29.5043 13.8741 29.3829 13.9244C29.2615 13.9747 29.1314 14.0006 29 14.0006C28.8686 14.0006 28.7385 13.9747 28.6171 13.9244C28.4957 13.8741 28.3854 13.8004 28.2925 13.7075L26 11.4137L23.7075 13.7075C23.5199 13.8951 23.2654 14.0006 23 14.0006C22.7346 14.0006 22.4801 13.8951 22.2925 13.7075C22.1049 13.5199 21.9994 13.2654 21.9994 13C21.9994 12.7346 22.1049 12.4801 22.2925 12.2925L24.5863 10L22.2925 7.7075C22.1996 7.61459 22.1259 7.50429 22.0756 7.3829C22.0253 7.2615 21.9994 7.1314 21.9994 7C21.9994 6.86861 22.0253 6.7385 22.0756 6.6171C22.1259 6.49571 22.1996 6.38541 22.2925 6.2925C22.4801 6.10486 22.7346 5.99944 23 5.99944C23.1314 5.99944 23.2615 6.02532 23.3829 6.07561C23.5043 6.12589 23.6146 6.19959 23.7075 6.2925L26 8.58625L28.2925 6.2925C28.3854 6.19959 28.4957 6.12589 28.6171 6.07561C28.7385 6.02532 28.8686 5.99944 29 5.99944C29.1314 5.99944 29.2615 6.02532 29.3829 6.07561C29.5043 6.12589 29.6146 6.19959 29.7075 6.2925C29.8004 6.38541 29.8741 6.49571 29.9244 6.6171C29.9747 6.7385 30.0006 6.86861 30.0006 7C30.0006 7.1314 29.9747 7.2615 29.9244 7.3829C29.8741 7.50429 29.8004 7.61459 29.7075 7.7075L27.4138 10L29.7075 12.2925Z" fill="#4A4A4F"/>
</svg>
