<svg width="32" height="32" viewBox="0 0 32 32" fill="none" xmlns="http://www.w3.org/2000/svg">
<path d="M30 8V24C30 24.5304 29.7893 25.0391 29.4142 25.4142C29.0391 25.7893 28.5304 26 28 26H20C19.2044 26 18.4413 26.3161 17.8787 26.8787C17.3161 27.4413 17 28.2044 17 29C17 29.2652 16.8946 29.5196 16.7071 29.7071C16.5196 29.8946 16.2652 30 16 30C15.7348 30 15.4804 29.8946 15.2929 29.7071C15.1054 29.5196 15 29.2652 15 29C15 28.2044 14.6839 27.4413 14.1213 26.8787C13.5587 26.3161 12.7956 26 12 26H4C3.46957 26 2.96086 25.7893 2.58579 25.4142C2.21071 25.0391 2 24.5304 2 24V8C2 7.46957 2.21071 6.96086 2.58579 6.58579C2.96086 6.21071 3.46957 6 4 6H11C12.0609 6 13.0783 6.42143 13.8284 7.17157C14.5786 7.92172 15 8.93913 15 10V21C15 21.2652 15.1054 21.5196 15.2929 21.7071C15.4804 21.8946 15.7348 22 16 22C16.2652 22 16.5196 21.8946 16.7071 21.7071C16.8946 21.5196 17 21.2652 17 21V10C17 8.93913 17.4214 7.92172 18.1716 7.17157C18.9217 6.42143 19.9391 6 21 6H28C28.5304 6 29.0391 6.21071 29.4142 6.58579C29.7893 6.96086 30 7.46957 30 8Z" fill="#4A4A4F"/>
</svg>
