<svg width="32" height="32" viewBox="0 0 32 32" fill="none" xmlns="http://www.w3.org/2000/svg">
<path d="M10.8436 5.53771L4.18487 16.0002L10.8436 26.4627C10.9142 26.5736 10.9622 26.6973 10.985 26.8267C11.0077 26.9561 11.0047 27.0888 10.9762 27.2171C10.9476 27.3454 10.8941 27.4668 10.8186 27.5743C10.743 27.6819 10.6471 27.7735 10.5361 27.844C10.3761 27.9465 10.1899 28.0008 9.99987 28.0002C9.83136 28.0004 9.66554 27.9579 9.51781 27.8769C9.37008 27.7958 9.24524 27.6787 9.15487 27.5365L2.15487 16.5365C2.05277 16.376 1.99854 16.1898 1.99854 15.9996C1.99854 15.8094 2.05277 15.6232 2.15487 15.4627L9.15487 4.46271C9.29726 4.23894 9.52271 4.08089 9.78163 4.02334C10.0405 3.96579 10.3117 4.01345 10.5355 4.15584C10.7593 4.29823 10.9173 4.52368 10.9749 4.7826C11.0324 5.04151 10.9848 5.31269 10.8424 5.53646L10.8436 5.53771ZM29.8436 15.464L22.8436 4.46396C22.7731 4.35316 22.6815 4.25733 22.5739 4.18194C22.4664 4.10655 22.3451 4.05309 22.2169 4.02459C21.958 3.96704 21.6868 4.0147 21.463 4.15709C21.2392 4.29948 21.0812 4.52493 21.0236 4.78385C20.9661 5.04276 21.0137 5.31394 21.1561 5.53771L27.8149 16.0002L21.1561 26.4627C21.0855 26.5736 21.0375 26.6973 21.0148 26.8267C20.992 26.9561 20.995 27.0888 21.0236 27.2171C21.0521 27.3454 21.1057 27.4668 21.1812 27.5743C21.2567 27.6819 21.3527 27.7735 21.4636 27.844C21.6236 27.9465 21.8098 28.0008 21.9999 28.0002C22.1684 28.0004 22.3342 27.9579 22.4819 27.8769C22.6297 27.7958 22.7545 27.6787 22.8449 27.5365L29.8449 16.5365C29.9465 16.376 30.0004 16.19 30.0002 16C30 15.8101 29.9457 15.6242 29.8436 15.464Z" fill="#4A4A4F"/>
</svg>
