<svg width="32" height="32" viewBox="0 0 32 32" fill="none" xmlns="http://www.w3.org/2000/svg">
<path d="M3.5 14H28.5C28.6326 14 28.7598 14.0527 28.8536 14.1464C28.9473 14.2402 29 14.3674 29 14.5V19.5C29 19.6326 28.9473 19.7598 28.8536 19.8536C28.7598 19.9473 28.6326 20 28.5 20H3.5C3.36739 20 3.24021 19.9473 3.14645 19.8536C3.05268 19.7598 3 19.6326 3 19.5V14.5C3 14.3674 3.05268 14.2402 3.14645 14.1464C3.24021 14.0527 3.36739 14 3.5 14ZM3 25C3 25.5304 3.21071 26.0391 3.58579 26.4142C3.96086 26.7893 4.46957 27 5 27H27C27.5304 27 28.0391 26.7893 28.4142 26.4142C28.7893 26.0391 29 25.5304 29 25V22.5C29 22.3674 28.9473 22.2402 28.8536 22.1464C28.7598 22.0527 28.6326 22 28.5 22H3.5C3.36739 22 3.24021 22.0527 3.14645 22.1464C3.05268 22.2402 3 22.3674 3 22.5V25ZM29 9V11.5C29 11.6326 28.9473 11.7598 28.8536 11.8536C28.7598 11.9473 28.6326 12 28.5 12H3.5C3.36739 12 3.24021 11.9473 3.14645 11.8536C3.05268 11.7598 3 11.6326 3 11.5V9C3 8.46957 3.21071 7.96086 3.58579 7.58579C3.96086 7.21071 4.46957 7 5 7H10V6C10 5.20435 10.3161 4.44129 10.8787 3.87868C11.4413 3.31607 12.2044 3 13 3H19C19.7956 3 20.5587 3.31607 21.1213 3.87868C21.6839 4.44129 22 5.20435 22 6V7H27C27.5304 7 28.0391 7.21071 28.4142 7.58579C28.7893 7.96086 29 8.46957 29 9ZM20 6C20 5.73478 19.8946 5.48043 19.7071 5.29289C19.5196 5.10536 19.2652 5 19 5H13C12.7348 5 12.4804 5.10536 12.2929 5.29289C12.1054 5.48043 12 5.73478 12 6V7H20V6Z" fill="#4A4A4F"/>
</svg>
