<svg width="32" height="32" viewBox="0 0 32 32" fill="none" xmlns="http://www.w3.org/2000/svg">
<path d="M29.4375 27.1011C26.6175 25.7261 25 22.7786 25 19.0011V16.8411C25.0011 16.4404 24.8813 16.0487 24.6563 15.7171C24.4313 15.3855 24.1115 15.1295 23.7388 14.9824L20.625 13.7499C20.3801 13.6519 20.1837 13.4611 20.0788 13.219C19.9739 12.9769 19.969 12.7031 20.065 12.4574L22.73 5.8324C22.9109 5.39757 23.0021 4.93072 22.9983 4.45979C22.9945 3.98887 22.8957 3.52356 22.7078 3.09173C22.5199 2.6599 22.2467 2.27043 21.9048 1.94665C21.5628 1.62287 21.159 1.37143 20.7175 1.2074C19.8577 0.892354 18.9089 0.925041 18.0728 1.29851C17.2367 1.67198 16.5792 2.35679 16.24 3.2074C16.2395 3.21239 16.2395 3.21741 16.24 3.2224L13.6125 9.8749C13.5148 10.121 13.3235 10.3183 13.0804 10.4235C12.8374 10.5288 12.5626 10.5333 12.3163 10.4361L9.13878 9.1424C8.77242 8.99395 8.3701 8.95818 7.98331 9.03968C7.59651 9.12118 7.24283 9.31624 6.96753 9.5999C4.33503 12.3061 3.00003 15.4686 3.00003 18.9999C2.99311 22.6135 4.39061 26.0885 6.89753 28.6911C6.99145 28.7893 7.1044 28.8674 7.22948 28.9204C7.35456 28.9735 7.48915 29.0006 7.62503 28.9999H29C29.226 28.9997 29.4453 28.9229 29.6221 28.7821C29.7989 28.6412 29.9228 28.4447 29.9735 28.2244C30.0243 28.0042 29.9989 27.7732 29.9016 27.5692C29.8042 27.3652 29.6407 27.2003 29.4375 27.1011ZM14.3888 26.9999C12.8999 25.5717 11.8452 23.7517 11.3463 21.7499C11.2767 21.4967 11.1104 21.281 10.8832 21.1494C10.656 21.0178 10.3862 20.9808 10.1319 21.0465C9.87772 21.1121 9.65951 21.2751 9.52444 21.5003C9.38937 21.7254 9.34827 21.9947 9.41003 22.2499C9.84619 23.972 10.6269 25.5879 11.705 26.9999H8.05503C6.08276 24.8026 4.99439 21.9525 5.00003 18.9999C4.98779 17.4355 5.31757 15.8873 5.96628 14.4636L23.1913 21.3536C23.5663 23.6036 24.5113 25.5387 25.9275 26.9986L14.3888 26.9999Z" fill="#4A4A4F"/>
</svg>
