<svg width="32" height="32" viewBox="0 0 32 32" fill="none" xmlns="http://www.w3.org/2000/svg">
<path d="M26 18.0001H28C28.2652 18.0001 28.5196 17.8947 28.7071 17.7072C28.8946 17.5196 29 17.2653 29 17.0001C29 16.7349 28.8946 16.4805 28.7071 16.293C28.5196 16.1054 28.2652 16.0001 28 16.0001H26V14.0001H28C28.2652 14.0001 28.5196 13.8947 28.7071 13.7072C28.8946 13.5196 29 13.2653 29 13.0001C29 12.7349 28.8946 12.4805 28.7071 12.293C28.5196 12.1054 28.2652 12.0001 28 12.0001H25.95C25.7291 9.80526 24.7866 7.74567 23.27 6.14382L25.7075 3.70757C25.8004 3.61466 25.8741 3.50436 25.9244 3.38296C25.9747 3.26157 26.0006 3.13146 26.0006 3.00007C26.0006 2.86867 25.9747 2.73856 25.9244 2.61717C25.8741 2.49578 25.8004 2.38548 25.7075 2.29257C25.6146 2.19966 25.5043 2.12596 25.3829 2.07567C25.2615 2.02539 25.1314 1.99951 25 1.99951C24.8686 1.99951 24.7385 2.02539 24.6171 2.07567C24.4957 2.12596 24.3854 2.19966 24.2925 2.29257L21.7563 4.83007C20.073 3.63934 18.0619 2.99993 16 2.99993C13.9381 2.99993 11.927 3.63934 10.2437 4.83007L7.7075 2.29257C7.51986 2.10493 7.26536 1.99951 7 1.99951C6.73464 1.99951 6.48014 2.10493 6.2925 2.29257C6.10486 2.48021 5.99944 2.7347 5.99944 3.00007C5.99944 3.26543 6.10486 3.51993 6.2925 3.70757L8.73 6.14382C7.21341 7.74567 6.27088 9.80526 6.05 12.0001H4C3.73478 12.0001 3.48043 12.1054 3.29289 12.293C3.10536 12.4805 3 12.7349 3 13.0001C3 13.2653 3.10536 13.5196 3.29289 13.7072C3.48043 13.8947 3.73478 14.0001 4 14.0001H6V16.0001H4C3.73478 16.0001 3.48043 16.1054 3.29289 16.293C3.10536 16.4805 3 16.7349 3 17.0001C3 17.2653 3.10536 17.5196 3.29289 17.7072C3.48043 17.8947 3.73478 18.0001 4 18.0001H6V19.0001C6 19.3376 6.0175 19.6713 6.05 20.0001H4C3.73478 20.0001 3.48043 20.1054 3.29289 20.293C3.10536 20.4805 3 20.7349 3 21.0001C3 21.2653 3.10536 21.5196 3.29289 21.7072C3.48043 21.8947 3.73478 22.0001 4 22.0001H6.46C7.09808 24.0305 8.36733 25.8044 10.0831 27.0637C11.7989 28.323 13.8717 29.002 16 29.002C18.1283 29.002 20.2011 28.323 21.9169 27.0637C23.6327 25.8044 24.9019 24.0305 25.54 22.0001H28C28.2652 22.0001 28.5196 21.8947 28.7071 21.7072C28.8946 21.5196 29 21.2653 29 21.0001C29 20.7349 28.8946 20.4805 28.7071 20.293C28.5196 20.1054 28.2652 20.0001 28 20.0001H25.95C25.9825 19.6713 26 19.3376 26 19.0001V18.0001ZM16 5.00007C17.9476 5.00249 19.8276 5.71455 21.2882 7.003C22.7487 8.29144 23.6897 10.068 23.935 12.0001H8.06C8.30542 10.0671 9.24712 8.2899 10.7087 7.00134C12.1703 5.71279 14.0515 5.00128 16 5.00007ZM17 26.9351V17.0001C17 16.7349 16.8946 16.4805 16.7071 16.293C16.5196 16.1054 16.2652 16.0001 16 16.0001C15.7348 16.0001 15.4804 16.1054 15.2929 16.293C15.1054 16.4805 15 16.7349 15 17.0001V26.9351C13.0679 26.6898 11.2914 25.7488 10.0029 24.2882C8.71449 22.8277 8.00242 20.9477 8 19.0001V14.0001H24V19.0001C23.9976 20.9477 23.2855 22.8277 21.9971 24.2882C20.7086 25.7488 18.9321 26.6898 17 26.9351Z" fill="#4A4A4F"/>
</svg>
