<svg width="32" height="32" viewBox="0 0 32 32" fill="none" xmlns="http://www.w3.org/2000/svg">
<path d="M29.0875 6.31C28.625 5.7125 27.73 5 26.125 5C24.0188 5 21.3175 6.41 18.8988 8.77C18.2072 9.4403 17.5721 10.1665 17 10.9412V7C17 6.73478 16.8947 6.48043 16.7071 6.29289C16.5196 6.10536 16.2652 6 16 6C15.7348 6 15.4804 6.10536 15.2929 6.29289C15.1054 6.48043 15 6.73478 15 7V10.9412C14.4295 10.1667 13.7961 9.4405 13.1063 8.77C10.6863 6.41 7.98502 5 5.87502 5C4.27002 5 3.37502 5.7125 2.91252 6.31C2.06002 7.40625 1.39002 9.32 2.88627 15.21C3.64252 18.1888 5.32502 19.335 6.71502 19.7625C5.95699 20.9934 5.71403 22.4732 6.03867 23.8818C6.36332 25.2904 7.22948 26.5146 8.44977 27.2895C9.67006 28.0645 11.1464 28.3278 12.5594 28.0226C13.9723 27.7174 15.2083 26.8682 16 25.6588C16.7917 26.8682 18.0277 27.7174 19.4407 28.0226C20.8536 28.3278 22.33 28.0645 23.5503 27.2895C24.7706 26.5146 25.6367 25.2904 25.9614 23.8818C26.286 22.4732 26.043 20.9934 25.285 19.7625C26.675 19.3375 28.3563 18.1888 29.1138 15.21C29.9538 11.905 30.6063 8.2625 29.0875 6.31ZM11.5 26C10.6126 25.9844 9.76397 25.6338 9.12444 25.0184C8.48491 24.403 8.10184 23.5685 8.05216 22.6823C8.00247 21.7962 8.28984 20.9241 8.85657 20.241C9.4233 19.558 10.2274 19.1147 11.1075 19C11.2399 18.9879 11.3685 18.9495 11.4859 18.8871C11.6032 18.8247 11.707 18.7395 11.791 18.6366C11.8751 18.5336 11.9378 18.4149 11.9754 18.2874C12.0131 18.16 12.025 18.0263 12.0103 17.8941C11.9957 17.762 11.9549 17.6342 11.8903 17.518C11.8256 17.4018 11.7385 17.2997 11.634 17.2176C11.5294 17.1356 11.4096 17.0751 11.2814 17.0399C11.1532 17.0047 11.0193 16.9954 10.8875 17.0125C9.95269 17.1128 9.05964 17.4529 8.29502 18C7.24127 18.0112 5.54502 17.5538 4.82502 14.7175C4.46502 13.2987 3.37502 8.9825 4.49252 7.5375C4.67127 7.3075 5.01127 7 5.87502 7C9.28377 7 15 12.61 15 15.9587V22.5C15 23.4283 14.6313 24.3185 13.9749 24.9749C13.3185 25.6313 12.4283 26 11.5 26ZM27.175 14.7175C26.4538 17.5538 24.7588 18.01 23.7038 18C22.9399 17.4505 22.0467 17.1081 21.1113 17.0063C20.9795 16.9891 20.8455 16.9984 20.7174 17.0337C20.5892 17.0689 20.4694 17.1293 20.3648 17.2114C20.2603 17.2935 20.1731 17.3956 20.1085 17.5117C20.0439 17.6279 20.0031 17.7558 19.9885 17.8879C19.9738 18.02 19.9857 18.1537 20.0233 18.2812C20.061 18.4087 20.1237 18.5274 20.2077 18.6303C20.2918 18.7333 20.3955 18.8185 20.5129 18.8809C20.6303 18.9433 20.7589 18.9816 20.8913 18.9937C21.5656 19.0666 22.2045 19.3331 22.7308 19.7611C23.257 20.1891 23.6481 20.7603 23.8569 21.4056C24.0657 22.051 24.0832 22.743 23.9073 23.3981C23.7315 24.0533 23.3698 24.6435 22.8658 25.0975C22.3619 25.5516 21.7374 25.8501 21.0675 25.957C20.3977 26.0639 19.7112 25.9746 19.091 25.7C18.4708 25.4253 17.9433 24.9771 17.5723 24.4092C17.2013 23.8414 17.0025 23.1783 17 22.5V15.9587C17 12.61 22.7113 7 26.125 7C26.9938 7 27.3325 7.3075 27.5125 7.5375C28.6313 8.9825 27.535 13.2987 27.175 14.7175Z" fill="#4A4A4F"/>
</svg>
