<svg width="32" height="32" viewBox="0 0 32 32" fill="none" xmlns="http://www.w3.org/2000/svg">
<path d="M28 27C28 27.2652 27.8946 27.5196 27.7071 27.7071C27.5196 27.8946 27.2652 28 27 28H5C4.73478 28 4.48043 27.8946 4.29289 27.7071C4.10536 27.5196 4 27.2652 4 27C4 26.7348 4.10536 26.4804 4.29289 26.2929C4.48043 26.1054 4.73478 26 5 26H11V18H10.5C8.24637 17.9977 6.08571 17.1014 4.49215 15.5078C2.89859 13.9143 2.00232 11.7536 2 9.5C2 8.57174 2.36875 7.6815 3.02513 7.02513C3.6815 6.36875 4.57174 6 5.5 6C6.42826 6 7.3185 6.36875 7.97487 7.02513C8.63125 7.6815 9 8.57174 9 9.5C9 9.89782 9.15804 10.2794 9.43934 10.5607C9.72064 10.842 10.1022 11 10.5 11H11V7C11 5.67392 11.5268 4.40215 12.4645 3.46447C13.4021 2.52678 14.6739 2 16 2C17.3261 2 18.5979 2.52678 19.5355 3.46447C20.4732 4.40215 21 5.67392 21 7V16H21.5C21.8978 16 22.2794 15.842 22.5607 15.5607C22.842 15.2794 23 14.8978 23 14.5C23 13.5717 23.3687 12.6815 24.0251 12.0251C24.6815 11.3687 25.5717 11 26.5 11C27.4283 11 28.3185 11.3687 28.9749 12.0251C29.6313 12.6815 30 13.5717 30 14.5C29.9977 16.7536 29.1014 18.9143 27.5078 20.5078C25.9143 22.1014 23.7536 22.9977 21.5 23H21V26H27C27.2652 26 27.5196 26.1054 27.7071 26.2929C27.8946 26.4804 28 26.7348 28 27Z" fill="#4A4A4F"/>
</svg>
