<svg width="32" height="32" viewBox="0 0 32 32" fill="none" xmlns="http://www.w3.org/2000/svg">
<path d="M6.74 4.32758C6.65218 4.22859 6.54559 4.14801 6.4264 4.09052C6.30721 4.03303 6.1778 3.99976 6.04566 3.99265C5.91352 3.98555 5.78128 4.00473 5.65661 4.04911C5.53194 4.09348 5.41732 4.16216 5.31939 4.25116C5.22146 4.34016 5.14216 4.44771 5.0861 4.56758C5.03004 4.68745 4.99833 4.81725 4.99281 4.94947C4.98728 5.08168 5.00806 5.21368 5.05392 5.33781C5.09979 5.46194 5.16983 5.57573 5.26 5.67258L6.46625 7.00008H6C5.20435 7.00008 4.44129 7.31615 3.87868 7.87876C3.31607 8.44137 3 9.20443 3 10.0001V24.0001C3 24.7957 3.31607 25.5588 3.87868 26.1214C4.44129 26.684 5.20435 27.0001 6 27.0001H24.6488L25.26 27.6726C25.3478 27.7716 25.4544 27.8522 25.5736 27.9096C25.6928 27.9671 25.8222 28.0004 25.9543 28.0075C26.0865 28.0146 26.2187 27.9954 26.3434 27.9511C26.4681 27.9067 26.5827 27.838 26.6806 27.749C26.7785 27.66 26.8578 27.5525 26.9139 27.4326C26.97 27.3127 27.0017 27.1829 27.0072 27.0507C27.0127 26.9185 26.9919 26.7865 26.9461 26.6624C26.9002 26.5382 26.8302 26.4244 26.74 26.3276L6.74 4.32758ZM13.1975 14.4038L17.8225 19.4901C17.2741 19.826 16.6431 20.0026 16 20.0001C15.3504 20 14.7137 19.8192 14.161 19.4779C13.6084 19.1365 13.1617 18.6481 12.8708 18.0673C12.5799 17.4865 12.4564 16.8362 12.5141 16.1892C12.5718 15.5422 12.8085 14.924 13.1975 14.4038ZM6 25.0001C5.73478 25.0001 5.48043 24.8947 5.29289 24.7072C5.10536 24.5197 5 24.2653 5 24.0001V10.0001C5 9.73487 5.10536 9.48051 5.29289 9.29298C5.48043 9.10544 5.73478 9.00008 6 9.00008H8.285L11.8363 12.9076C11.1483 13.7051 10.7038 14.6834 10.5556 15.7262C10.4074 16.769 10.5617 17.8324 11.0002 18.79C11.4388 19.7477 12.143 20.5592 13.0294 21.1283C13.9157 21.6973 14.9467 21.9999 16 22.0001C17.1393 21.9976 18.25 21.6431 19.18 20.9851L22.83 25.0001H6ZM29 10.0001V23.2501C29 23.5153 28.8946 23.7697 28.7071 23.9572C28.5196 24.1447 28.2652 24.2501 28 24.2501C27.7348 24.2501 27.4804 24.1447 27.2929 23.9572C27.1054 23.7697 27 23.5153 27 23.2501V10.0001C27 9.73487 26.8946 9.48051 26.7071 9.29298C26.5196 9.10544 26.2652 9.00008 26 9.00008H22C21.8355 8.99999 21.6736 8.95932 21.5286 8.8817C21.3836 8.80408 21.26 8.6919 21.1688 8.55508L19.4638 6.00008H12.53C12.3688 6.20004 12.1368 6.33028 11.8821 6.36382C11.6274 6.39735 11.3696 6.33159 11.1621 6.18019C10.9546 6.02878 10.8133 5.80333 10.7676 5.55058C10.7218 5.29782 10.775 5.03715 10.9163 4.82258L11.1663 4.44758C11.2575 4.30996 11.3814 4.19706 11.5268 4.11898C11.6723 4.04089 11.8349 4.00004 12 4.00008H20C20.1647 3.99998 20.3268 4.04054 20.4721 4.11817C20.6173 4.1958 20.7411 4.3081 20.8325 4.44508L22.535 7.00008H26C26.7956 7.00008 27.5587 7.31615 28.1213 7.87876C28.6839 8.44137 29 9.20443 29 10.0001Z" fill="#4A4A4F"/>
</svg>
