<svg width="32" height="32" viewBox="0 0 32 32" fill="none" xmlns="http://www.w3.org/2000/svg">
<path d="M27.7075 16.7073L17.7075 26.7073C17.5676 26.8473 17.3894 26.9427 17.1953 26.9813C17.0012 27.02 16.8 27.0002 16.6172 26.9244C16.4344 26.8487 16.2782 26.7204 16.1683 26.5558C16.0584 26.3912 15.9998 26.1977 16 25.9998V18.4136L7.7075 26.7073C7.56764 26.8473 7.38939 26.9427 7.19531 26.9813C7.00122 27.02 6.80003 27.0002 6.61721 26.9244C6.43439 26.8487 6.27815 26.7204 6.16828 26.5558C6.05841 26.3912 5.99984 26.1977 6 25.9998V5.99981C5.99984 5.80192 6.05841 5.60842 6.16828 5.44383C6.27815 5.27923 6.43439 5.15094 6.61721 5.07519C6.80003 4.99944 7.00122 4.97963 7.19531 5.01828C7.38939 5.05693 7.56764 5.1523 7.7075 5.29231L16 13.5861V5.99981C15.9998 5.80192 16.0584 5.60842 16.1683 5.44383C16.2782 5.27923 16.4344 5.15094 16.6172 5.07519C16.8 4.99944 17.0012 4.97963 17.1953 5.01828C17.3894 5.05693 17.5676 5.1523 17.7075 5.29231L27.7075 15.2923C27.8005 15.3852 27.8742 15.4955 27.9246 15.6169C27.9749 15.7383 28.0008 15.8684 28.0008 15.9998C28.0008 16.1312 27.9749 16.2614 27.9246 16.3828C27.8742 16.5041 27.8005 16.6144 27.7075 16.7073Z" fill="#4A4A4F"/>
</svg>
