<svg width="32" height="32" viewBox="0 0 32 32" fill="none" xmlns="http://www.w3.org/2000/svg">
<path d="M26.7076 25.2923C26.8005 25.3852 26.8742 25.4955 26.9245 25.6169C26.9747 25.7383 27.0006 25.8684 27.0006 25.9998C27.0006 26.1312 26.9747 26.2613 26.9245 26.3827C26.8742 26.5041 26.8005 26.6144 26.7076 26.7073C26.6147 26.8002 26.5044 26.8739 26.383 26.9242C26.2616 26.9745 26.1315 27.0004 26.0001 27.0004C25.8687 27.0004 25.7386 26.9745 25.6172 26.9242C25.4958 26.8739 25.3855 26.8002 25.2926 26.7073L16.0001 17.4136L6.70757 26.7073C6.51993 26.895 6.26543 27.0004 6.00007 27.0004C5.7347 27.0004 5.48021 26.895 5.29257 26.7073C5.10493 26.5197 4.99951 26.2652 4.99951 25.9998C4.99951 25.7344 5.10493 25.4799 5.29257 25.2923L15.2926 15.2923C15.3854 15.1993 15.4957 15.1256 15.6171 15.0753C15.7385 15.0249 15.8687 14.999 16.0001 14.999C16.1315 14.999 16.2616 15.0249 16.383 15.0753C16.5044 15.1256 16.6147 15.1993 16.7076 15.2923L26.7076 25.2923ZM6.70757 16.7073L16.0001 7.41356L25.2926 16.7073C25.3855 16.8002 25.4958 16.8739 25.6172 16.9242C25.7386 16.9745 25.8687 17.0004 26.0001 17.0004C26.1315 17.0004 26.2616 16.9745 26.383 16.9242C26.5044 16.8739 26.6147 16.8002 26.7076 16.7073C26.8005 16.6144 26.8742 16.5041 26.9245 16.3827C26.9747 16.2613 27.0006 16.1312 27.0006 15.9998C27.0006 15.8684 26.9747 15.7383 26.9245 15.6169C26.8742 15.4955 26.8005 15.3852 26.7076 15.2923L16.7076 5.29231C16.6147 5.19933 16.5044 5.12557 16.383 5.07525C16.2616 5.02493 16.1315 4.99902 16.0001 4.99902C15.8687 4.99902 15.7385 5.02493 15.6171 5.07525C15.4957 5.12557 15.3854 5.19933 15.2926 5.29231L5.29257 15.2923C5.10493 15.4799 4.99951 15.7344 4.99951 15.9998C4.99951 16.2652 5.10493 16.5197 5.29257 16.7073C5.48021 16.895 5.7347 17.0004 6.00007 17.0004C6.26543 17.0004 6.51993 16.895 6.70757 16.7073Z" fill="#4A4A4F"/>
</svg>
