<svg width="32" height="32" viewBox="0 0 32 32" fill="none" xmlns="http://www.w3.org/2000/svg">
<path d="M26.7076 15.2926C26.8005 15.3854 26.8743 15.4957 26.9246 15.6171C26.975 15.7385 27.0009 15.8687 27.0009 16.0001C27.0009 16.1315 26.975 16.2616 26.9246 16.383C26.8743 16.5044 26.8005 16.6147 26.7076 16.7076L16.7076 26.7076C16.6147 26.8005 16.5044 26.8743 16.383 26.9246C16.2616 26.975 16.1315 27.0009 16.0001 27.0009C15.8687 27.0009 15.7385 26.975 15.6171 26.9246C15.4957 26.8743 15.3854 26.8005 15.2926 26.7076L5.29257 16.7076C5.10493 16.5199 4.99951 16.2654 4.99951 16.0001C4.99951 15.7347 5.10493 15.4802 5.29257 15.2926C5.48021 15.1049 5.7347 14.9995 6.00007 14.9995C6.26543 14.9995 6.51993 15.1049 6.70757 15.2926L16.0001 24.5863L25.2926 15.2926C25.3854 15.1996 25.4957 15.1258 25.6171 15.0755C25.7385 15.0252 25.8687 14.9993 26.0001 14.9993C26.1315 14.9993 26.2616 15.0252 26.383 15.0755C26.5044 15.1258 26.6147 15.1996 26.7076 15.2926ZM15.2926 16.7076C15.3854 16.8005 15.4957 16.8743 15.6171 16.9246C15.7385 16.975 15.8687 17.0009 16.0001 17.0009C16.1315 17.0009 16.2616 16.975 16.383 16.9246C16.5044 16.8743 16.6147 16.8005 16.7076 16.7076L26.7076 6.70757C26.8952 6.51993 27.0006 6.26543 27.0006 6.00007C27.0006 5.7347 26.8952 5.48021 26.7076 5.29257C26.5199 5.10493 26.2654 4.99951 26.0001 4.99951C25.7347 4.99951 25.4802 5.10493 25.2926 5.29257L16.0001 14.5863L6.70757 5.29257C6.51993 5.10493 6.26543 4.99951 6.00007 4.99951C5.7347 4.99951 5.48021 5.10493 5.29257 5.29257C5.10493 5.48021 4.99951 5.7347 4.99951 6.00007C4.99951 6.26543 5.10493 6.51993 5.29257 6.70757L15.2926 16.7076Z" fill="#4A4A4F"/>
</svg>
