<svg width="32" height="32" viewBox="0 0 32 32" fill="none" xmlns="http://www.w3.org/2000/svg">
<path d="M16 3C13.4288 3 10.9154 3.76244 8.77759 5.1909C6.63975 6.61935 4.97351 8.64968 3.98957 11.0251C3.00563 13.4006 2.74819 16.0144 3.2498 18.5362C3.75141 21.0579 4.98953 23.3743 6.80762 25.1924C8.6257 27.0105 10.9421 28.2486 13.4638 28.7502C15.9856 29.2518 18.5995 28.9944 20.9749 28.0104C23.3503 27.0265 25.3807 25.3603 26.8091 23.2224C28.2376 21.0846 29 18.5712 29 16C28.9964 12.5533 27.6256 9.24882 25.1884 6.81163C22.7512 4.37445 19.4467 3.00364 16 3ZM16 27C13.8244 27 11.6977 26.3549 9.88873 25.1462C8.07979 23.9375 6.66989 22.2195 5.83733 20.2095C5.00477 18.1995 4.78693 15.9878 5.21137 13.854C5.63581 11.7202 6.68345 9.7602 8.22183 8.22183C9.76021 6.68345 11.7202 5.6358 13.854 5.21136C15.9878 4.78692 18.1995 5.00476 20.2095 5.83733C22.2195 6.66989 23.9375 8.07979 25.1462 9.88873C26.3549 11.6977 27 13.8244 27 16C26.9967 18.9164 25.8367 21.7123 23.7745 23.7745C21.7123 25.8367 18.9164 26.9967 16 27ZM18.7075 11.7075L14.4138 16L18.7075 20.2925C18.8004 20.3854 18.8741 20.4957 18.9244 20.6171C18.9747 20.7385 19.0006 20.8686 19.0006 21C19.0006 21.1314 18.9747 21.2615 18.9244 21.3829C18.8741 21.5043 18.8004 21.6146 18.7075 21.7075C18.6146 21.8004 18.5043 21.8741 18.3829 21.9244C18.2615 21.9747 18.1314 22.0006 18 22.0006C17.8686 22.0006 17.7385 21.9747 17.6171 21.9244C17.4957 21.8741 17.3854 21.8004 17.2925 21.7075L12.2925 16.7075C12.1995 16.6146 12.1258 16.5043 12.0754 16.3829C12.0251 16.2615 11.9992 16.1314 11.9992 16C11.9992 15.8686 12.0251 15.7385 12.0754 15.6171C12.1258 15.4957 12.1995 15.3854 12.2925 15.2925L17.2925 10.2925C17.3854 10.1996 17.4957 10.1259 17.6171 10.0756C17.7385 10.0253 17.8686 9.99944 18 9.99944C18.1314 9.99944 18.2615 10.0253 18.3829 10.0756C18.5043 10.1259 18.6146 10.1996 18.7075 10.2925C18.8004 10.3854 18.8741 10.4957 18.9244 10.6171C18.9747 10.7385 19.0006 10.8686 19.0006 11C19.0006 11.1314 18.9747 11.2615 18.9244 11.3829C18.8741 11.5043 18.8004 11.6146 18.7075 11.7075Z" fill="#4A4A4F"/>
</svg>
