<svg width="32" height="32" viewBox="0 0 32 32" fill="none" xmlns="http://www.w3.org/2000/svg">
<path d="M26.7076 12.7076L16.7076 22.7076C16.6147 22.8005 16.5044 22.8743 16.383 22.9246C16.2616 22.975 16.1315 23.0009 16.0001 23.0009C15.8687 23.0009 15.7385 22.975 15.6171 22.9246C15.4957 22.8743 15.3854 22.8005 15.2926 22.7076L5.29257 12.7076C5.10493 12.5199 4.99951 12.2654 4.99951 12.0001C4.99951 11.7347 5.10493 11.4802 5.29257 11.2926C5.48021 11.1049 5.7347 10.9995 6.00007 10.9995C6.26543 10.9995 6.51993 11.1049 6.70757 11.2926L16.0001 20.5863L25.2926 11.2926C25.3855 11.1997 25.4958 11.126 25.6172 11.0757C25.7386 11.0254 25.8687 10.9995 26.0001 10.9995C26.1315 10.9995 26.2616 11.0254 26.383 11.0757C26.5044 11.126 26.6147 11.1997 26.7076 11.2926C26.8005 11.3855 26.8742 11.4958 26.9245 11.6172C26.9747 11.7386 27.0006 11.8687 27.0006 12.0001C27.0006 12.1315 26.9747 12.2616 26.9245 12.383C26.8742 12.5044 26.8005 12.6147 26.7076 12.7076Z" fill="#4A4A4F"/>
</svg>
