<svg width="32" height="32" viewBox="0 0 32 32" fill="none" xmlns="http://www.w3.org/2000/svg">
<path d="M16 3C13.4288 3 10.9154 3.76244 8.77759 5.1909C6.63975 6.61935 4.97351 8.64968 3.98957 11.0251C3.00563 13.4006 2.74819 16.0144 3.2498 18.5362C3.75141 21.0579 4.98953 23.3743 6.80762 25.1924C8.6257 27.0105 10.9421 28.2486 13.4638 28.7502C15.9856 29.2518 18.5995 28.9944 20.9749 28.0104C23.3503 27.0265 25.3807 25.3603 26.8091 23.2224C28.2376 21.0846 29 18.5712 29 16C28.9964 12.5533 27.6256 9.24882 25.1884 6.81163C22.7512 4.37445 19.4467 3.00364 16 3ZM16 27C13.8244 27 11.6977 26.3549 9.88873 25.1462C8.07979 23.9375 6.66989 22.2195 5.83733 20.2095C5.00477 18.1995 4.78693 15.9878 5.21137 13.854C5.63581 11.7202 6.68345 9.7602 8.22183 8.22183C9.76021 6.68345 11.7202 5.6358 13.854 5.21136C15.9878 4.78692 18.1995 5.00476 20.2095 5.83733C22.2195 6.66989 23.9375 8.07979 25.1462 9.88873C26.3549 11.6977 27 13.8244 27 16C26.9967 18.9164 25.8367 21.7123 23.7745 23.7745C21.7123 25.8367 18.9164 26.9967 16 27ZM21.7075 17.2925C21.8004 17.3854 21.8741 17.4957 21.9244 17.6171C21.9747 17.7385 22.0006 17.8686 22.0006 18C22.0006 18.1314 21.9747 18.2615 21.9244 18.3829C21.8741 18.5043 21.8004 18.6146 21.7075 18.7075C21.6146 18.8004 21.5043 18.8741 21.3829 18.9244C21.2615 18.9747 21.1314 19.0006 21 19.0006C20.8686 19.0006 20.7385 18.9747 20.6171 18.9244C20.4957 18.8741 20.3854 18.8004 20.2925 18.7075L16 14.4137L11.7075 18.7075C11.6146 18.8004 11.5043 18.8741 11.3829 18.9244C11.2615 18.9747 11.1314 19.0006 11 19.0006C10.8686 19.0006 10.7385 18.9747 10.6171 18.9244C10.4957 18.8741 10.3854 18.8004 10.2925 18.7075C10.1996 18.6146 10.1259 18.5043 10.0756 18.3829C10.0253 18.2615 9.99945 18.1314 9.99945 18C9.99945 17.8686 10.0253 17.7385 10.0756 17.6171C10.1259 17.4957 10.1996 17.3854 10.2925 17.2925L15.2925 12.2925C15.3854 12.1995 15.4957 12.1258 15.6171 12.0754C15.7385 12.0251 15.8686 11.9992 16 11.9992C16.1314 11.9992 16.2615 12.0251 16.3829 12.0754C16.5043 12.1258 16.6146 12.1995 16.7075 12.2925L21.7075 17.2925Z" fill="#4A4A4F"/>
</svg>
