<svg width="32" height="32" viewBox="0 0 32 32" fill="none" xmlns="http://www.w3.org/2000/svg">
<path d="M26.9236 15.6175C26.9994 15.8002 27.0193 16.0013 26.9808 16.1953C26.9423 16.3893 26.8471 16.5676 26.7073 16.7075L16.7073 26.7075C16.6144 26.8005 16.5041 26.8742 16.3828 26.9246C16.2614 26.9749 16.1312 27.0008 15.9998 27.0008C15.8684 27.0008 15.7383 26.9749 15.6169 26.9246C15.4955 26.8742 15.3852 26.8005 15.2923 26.7075L5.29231 16.7075C5.1523 16.5676 5.05693 16.3894 5.01828 16.1953C4.97963 16.0012 4.99944 15.8 5.07519 15.6172C5.15094 15.4344 5.27923 15.2782 5.44383 15.1683C5.60842 15.0584 5.80192 14.9998 5.99981 15H13.5861L5.29231 6.7075C5.1523 6.56764 5.05693 6.38939 5.01828 6.19531C4.97963 6.00122 4.99944 5.80003 5.07519 5.61721C5.15094 5.43439 5.27923 5.27815 5.44383 5.16828C5.60842 5.05841 5.80192 4.99984 5.99981 5H25.9998C26.1977 4.99984 26.3912 5.05841 26.5558 5.16828C26.7204 5.27815 26.8487 5.43439 26.9244 5.61721C27.0002 5.80003 27.02 6.00122 26.9813 6.19531C26.9427 6.38939 26.8473 6.56764 26.7073 6.7075L18.4136 15H25.9998C26.1976 15 26.3909 15.0587 26.5553 15.1686C26.7198 15.2786 26.8479 15.4348 26.9236 15.6175Z" fill="#4A4A4F"/>
</svg>
