<svg width="32" height="32" viewBox="0 0 32 32" fill="none" xmlns="http://www.w3.org/2000/svg">
<path d="M18.7388 1.69125C18.6736 1.49033 18.5464 1.31522 18.3755 1.19103C18.2046 1.06685 17.9988 0.999978 17.7876 1H12.2138C12.0026 0.999978 11.7968 1.06685 11.6259 1.19103C11.455 1.31522 11.3278 1.49033 11.2626 1.69125C10.5017 4.13554 9.90829 6.62881 9.48633 9.15375C8.57883 14.685 8.94258 18.6238 10.5676 20.8612C10.9663 21.4237 11.4771 21.8976 12.0678 22.2532C12.6585 22.6088 13.3164 22.8384 14.0001 22.9275V29H12.0001C11.7349 29 11.4805 29.1054 11.293 29.2929C11.1054 29.4804 11.0001 29.7348 11.0001 30C11.0001 30.2652 11.1054 30.5196 11.293 30.7071C11.4805 30.8946 11.7349 31 12.0001 31H18.0001C18.2653 31 18.5197 30.8946 18.7072 30.7071C18.8947 30.5196 19.0001 30.2652 19.0001 30C19.0001 29.7348 18.8947 29.4804 18.7072 29.2929C18.5197 29.1054 18.2653 29 18.0001 29H16.0001V22.9275C16.6839 22.8388 17.3419 22.6094 17.9327 22.2538C18.5235 21.8982 19.0341 21.424 19.4326 20.8612C21.0576 18.6238 21.4226 14.685 20.5151 9.15375C20.0931 6.62881 19.4997 4.13554 18.7388 1.69125ZM11.7251 8C12.1001 6.0525 12.5663 4.27375 12.9488 3H17.0526C17.4351 4.27375 17.8988 6.0525 18.2776 8H11.7251ZM29.0001 6.5C29.0001 6.79667 28.9121 7.08668 28.7473 7.33336C28.5825 7.58003 28.3482 7.77229 28.0741 7.88582C27.8 7.99935 27.4984 8.02906 27.2074 7.97118C26.9165 7.9133 26.6492 7.77044 26.4394 7.56066C26.2296 7.35088 26.0868 7.08361 26.0289 6.79264C25.971 6.50166 26.0007 6.20006 26.1143 5.92598C26.2278 5.65189 26.4201 5.41762 26.6667 5.2528C26.9134 5.08797 27.2034 5 27.5001 5C27.8979 5 28.2794 5.15804 28.5607 5.43934C28.842 5.72064 29.0001 6.10218 29.0001 6.5ZM23.0001 2.5C23.0001 2.20333 23.0881 1.91332 23.2529 1.66665C23.4177 1.41997 23.652 1.22771 23.9261 1.11418C24.2001 1.00065 24.5017 0.970945 24.7927 1.02882C25.0837 1.0867 25.351 1.22956 25.5607 1.43934C25.7705 1.64912 25.9134 1.91639 25.9713 2.20737C26.0291 2.49834 25.9994 2.79994 25.8859 3.07403C25.7724 3.34811 25.5801 3.58238 25.3334 3.74721C25.0868 3.91203 24.7968 4 24.5001 4C24.1023 4 23.7207 3.84197 23.4394 3.56066C23.1581 3.27936 23.0001 2.89783 23.0001 2.5ZM26.0001 12.5C26.0001 12.7967 25.9121 13.0867 25.7473 13.3334C25.5825 13.58 25.3482 13.7723 25.0741 13.8858C24.8 13.9994 24.4984 14.0291 24.2074 13.9712C23.9165 13.9133 23.6492 13.7704 23.4394 13.5607C23.2296 13.3509 23.0868 13.0836 23.0289 12.7926C22.971 12.5017 23.0007 12.2001 23.1143 11.926C23.2278 11.6519 23.4201 11.4176 23.6667 11.2528C23.9134 11.088 24.2034 11 24.5001 11C24.8979 11 25.2794 11.158 25.5607 11.4393C25.842 11.7206 26.0001 12.1022 26.0001 12.5Z" fill="#4A4A4F"/>
</svg>
