<svg width="32" height="32" viewBox="0 0 32 32" fill="none" xmlns="http://www.w3.org/2000/svg">
<path d="M29 26C29 26.2652 28.8946 26.5196 28.7071 26.7071C28.5196 26.8946 28.2652 27 28 27H4C3.73478 27 3.48043 26.8946 3.29289 26.7071C3.10536 26.5196 3 26.2652 3 26V6C3 5.73478 3.10536 5.48043 3.29289 5.29289C3.48043 5.10536 3.73478 5 4 5C4.26522 5 4.51957 5.10536 4.70711 5.29289C4.89464 5.48043 5 5.73478 5 6V25H28C28.2652 25 28.5196 25.1054 28.7071 25.2929C28.8946 25.4804 29 25.7348 29 26ZM16.5 20C16.7967 20 17.0867 19.912 17.3334 19.7472C17.58 19.5824 17.7723 19.3481 17.8858 19.074C17.9993 18.7999 18.0291 18.4983 17.9712 18.2074C17.9133 17.9164 17.7704 17.6491 17.5607 17.4393C17.3509 17.2296 17.0836 17.0867 16.7926 17.0288C16.5017 16.9709 16.2001 17.0007 15.926 17.1142C15.6519 17.2277 15.4176 17.42 15.2528 17.6666C15.088 17.9133 15 18.2033 15 18.5C15 18.8978 15.158 19.2794 15.4393 19.5607C15.7206 19.842 16.1022 20 16.5 20ZM13.5 13C13.7967 13 14.0867 12.912 14.3334 12.7472C14.58 12.5824 14.7723 12.3481 14.8858 12.074C14.9994 11.7999 15.0291 11.4983 14.9712 11.2074C14.9133 10.9164 14.7704 10.6491 14.5607 10.4393C14.3509 10.2296 14.0836 10.0867 13.7926 10.0288C13.5017 9.97094 13.2001 10.0006 12.926 10.1142C12.6519 10.2277 12.4176 10.42 12.2528 10.6666C12.088 10.9133 12 11.2033 12 11.5C12 11.8978 12.158 12.2794 12.4393 12.5607C12.7206 12.842 13.1022 13 13.5 13ZM9.5 22C9.79667 22 10.0867 21.912 10.3334 21.7472C10.58 21.5824 10.7723 21.3481 10.8858 21.074C10.9994 20.7999 11.0291 20.4983 10.9712 20.2074C10.9133 19.9164 10.7704 19.6491 10.5607 19.4393C10.3509 19.2296 10.0836 19.0867 9.79264 19.0288C9.50166 18.9709 9.20006 19.0007 8.92597 19.1142C8.65189 19.2277 8.41762 19.42 8.2528 19.6666C8.08797 19.9133 8 20.2033 8 20.5C8 20.8978 8.15804 21.2794 8.43934 21.5607C8.72064 21.842 9.10218 22 9.5 22ZM21.5 16C21.7967 16 22.0867 15.912 22.3334 15.7472C22.58 15.5824 22.7723 15.3481 22.8858 15.074C22.9993 14.7999 23.0291 14.4983 22.9712 14.2074C22.9133 13.9164 22.7704 13.6491 22.5607 13.4393C22.3509 13.2296 22.0836 13.0867 21.7926 13.0288C21.5017 12.9709 21.2001 13.0006 20.926 13.1142C20.6519 13.2277 20.4176 13.42 20.2528 13.6666C20.088 13.9133 20 14.2033 20 14.5C20 14.8978 20.158 15.2794 20.4393 15.5607C20.7206 15.842 21.1022 16 21.5 16ZM24.5 11C24.7967 11 25.0867 10.912 25.3334 10.7472C25.58 10.5824 25.7723 10.3481 25.8858 10.074C25.9993 9.79994 26.0291 9.49834 25.9712 9.20736C25.9133 8.91639 25.7704 8.64912 25.5607 8.43934C25.3509 8.22956 25.0836 8.0867 24.7926 8.02882C24.5017 7.97094 24.2001 8.00065 23.926 8.11418C23.6519 8.22771 23.4176 8.41997 23.2528 8.66665C23.088 8.91332 23 9.20333 23 9.5C23 9.89782 23.158 10.2794 23.4393 10.5607C23.7206 10.842 24.1022 11 24.5 11ZM22 20.5C22 20.7967 22.088 21.0867 22.2528 21.3334C22.4176 21.58 22.6519 21.7723 22.926 21.8858C23.2001 21.9993 23.5017 22.0291 23.7926 21.9712C24.0836 21.9133 24.3509 21.7704 24.5607 21.5607C24.7704 21.3509 24.9133 21.0836 24.9712 20.7926C25.0291 20.5017 24.9993 20.2001 24.8858 19.926C24.7723 19.6519 24.58 19.4176 24.3334 19.2528C24.0867 19.088 23.7967 19 23.5 19C23.1022 19 22.7206 19.158 22.4393 19.4393C22.158 19.7206 22 20.1022 22 20.5Z" fill="#4A4A4F"/>
</svg>
