<svg width="32" height="32" viewBox="0 0 32 32" fill="none" xmlns="http://www.w3.org/2000/svg">
<path d="M27 5H5C4.46957 5 3.96086 5.21071 3.58579 5.58579C3.21071 5.96086 3 6.46957 3 7V25C3 25.5304 3.21071 26.0391 3.58579 26.4142C3.96086 26.7893 4.46957 27 5 27H27C27.5304 27 28.0391 26.7893 28.4142 26.4142C28.7893 26.0391 29 25.5304 29 25V7C29 6.46957 28.7893 5.96086 28.4142 5.58579C28.0391 5.21071 27.5304 5 27 5ZM25 22C25.2652 22 25.5196 22.1054 25.7071 22.2929C25.8946 22.4804 26 22.7348 26 23C26 23.2652 25.8946 23.5196 25.7071 23.7071C25.5196 23.8946 25.2652 24 25 24H7C6.73478 24 6.48043 23.8946 6.29289 23.7071C6.10536 23.5196 6 23.2652 6 23V9C6 8.73478 6.10536 8.48043 6.29289 8.29289C6.48043 8.10536 6.73478 8 7 8C7.26522 8 7.51957 8.10536 7.70711 8.29289C7.89464 8.48043 8 8.73478 8 9V16.865L12.36 13.2312C12.5257 13.0932 12.7316 13.0124 12.9469 13.0009C13.1623 12.9894 13.3756 13.0478 13.555 13.1675L18.93 16.7537L24.3563 12.2312C24.5601 12.0615 24.8231 11.9797 25.0873 12.0039C25.3515 12.028 25.5953 12.1561 25.765 12.36C25.9347 12.5639 26.0165 12.8268 25.9924 13.091C25.9682 13.3552 25.8401 13.599 25.6362 13.7688L19.6362 18.7687C19.4706 18.9068 19.2647 18.9876 19.0493 18.9991C18.834 19.0106 18.6207 18.9522 18.4412 18.8325L13.0662 15.2463L8 19.4688V22H25Z" fill="#4A4A4F"/>
</svg>
