<svg width="32" height="32" viewBox="0 0 32 32" fill="none" xmlns="http://www.w3.org/2000/svg">
<path d="M21 14C21 14.2653 20.8946 14.5196 20.7071 14.7071C20.5196 14.8947 20.2652 15 20 15H12C11.7348 15 11.4804 14.8947 11.2929 14.7071C11.1054 14.5196 11 14.2653 11 14C11 13.7348 11.1054 13.4805 11.2929 13.2929C11.4804 13.1054 11.7348 13 12 13H20C20.2652 13 20.5196 13.1054 20.7071 13.2929C20.8946 13.4805 21 13.7348 21 14ZM20 17H12C11.7348 17 11.4804 17.1054 11.2929 17.2929C11.1054 17.4805 11 17.7348 11 18C11 18.2653 11.1054 18.5196 11.2929 18.7071C11.4804 18.8947 11.7348 19 12 19H20C20.2652 19 20.5196 18.8947 20.7071 18.7071C20.8946 18.5196 21 18.2653 21 18C21 17.7348 20.8946 17.4805 20.7071 17.2929C20.5196 17.1054 20.2652 17 20 17ZM29 16C29.0005 18.2445 28.4199 20.4508 27.3147 22.4042C26.2095 24.3577 24.6174 25.9917 22.6934 27.1473C20.7693 28.3029 18.5788 28.9407 16.3352 28.9986C14.0915 29.0564 11.8711 28.5324 9.89 27.4775L5.63375 28.8963C5.28136 29.0138 4.9032 29.0309 4.54166 28.9455C4.18012 28.8602 3.84948 28.6759 3.58681 28.4132C3.32414 28.1506 3.13982 27.8199 3.0545 27.4584C2.96918 27.0968 2.98623 26.7187 3.10375 26.3663L4.5225 22.11C3.59519 20.3666 3.07725 18.4348 3.008 16.4613C2.93875 14.4877 3.32001 12.5244 4.12284 10.7202C4.92567 8.91604 6.12897 7.31847 7.6414 6.04878C9.15383 4.77909 10.9356 3.87063 12.8516 3.39238C14.7675 2.91413 16.7672 2.87865 18.699 3.28862C20.6307 3.6986 22.4436 4.54327 24.0001 5.7585C25.5566 6.97374 26.8158 8.52761 27.6822 10.3022C28.5485 12.0767 28.9992 14.0253 29 16ZM27 16C26.9995 14.3127 26.6109 12.6481 25.8641 11.135C25.1174 9.62186 24.0325 8.30083 22.6935 7.27408C21.3545 6.24733 19.7973 5.54238 18.1422 5.21377C16.4872 4.88517 14.7787 4.94171 13.149 5.37904C11.5194 5.81636 10.0121 6.62274 8.74394 7.73578C7.47577 8.84882 6.48065 10.2387 5.83558 11.7979C5.1905 13.357 4.91277 15.0437 5.02387 16.7274C5.13496 18.4111 5.63191 20.0466 6.47625 21.5075C6.54712 21.6302 6.59112 21.7665 6.60534 21.9074C6.61956 22.0484 6.60368 22.1907 6.55875 22.325L5 27L9.675 25.4413C9.77683 25.4066 9.88367 25.3888 9.99125 25.3888C10.1669 25.3891 10.3393 25.4357 10.4912 25.5238C12.1635 26.4913 14.0611 27.0013 15.9931 27.0026C17.925 27.0038 19.8232 26.4961 21.4967 25.5307C23.1702 24.5653 24.5599 23.1762 25.526 21.5031C26.492 19.83 27.0004 17.932 27 16Z" fill="#4A4A4F"/>
</svg>
