<svg width="32" height="32" viewBox="0 0 32 32" fill="none" xmlns="http://www.w3.org/2000/svg">
<path d="M14.5 15C14.5 14.7033 14.588 14.4133 14.7528 14.1666C14.9176 13.92 15.1519 13.7277 15.426 13.6142C15.7001 13.5006 16.0017 13.4709 16.2926 13.5288C16.5836 13.5867 16.8509 13.7296 17.0607 13.9393C17.2704 14.1491 17.4133 14.4164 17.4712 14.7074C17.5291 14.9983 17.4993 15.2999 17.3858 15.574C17.2723 15.8481 17.08 16.0824 16.8334 16.2472C16.5867 16.412 16.2967 16.5 16 16.5C15.6022 16.5 15.2206 16.342 14.9393 16.0607C14.658 15.7794 14.5 15.3978 14.5 15ZM21.5 16.5C21.7967 16.5 22.0867 16.412 22.3334 16.2472C22.58 16.0824 22.7723 15.8481 22.8858 15.574C22.9993 15.2999 23.0291 14.9983 22.9712 14.7074C22.9133 14.4164 22.7704 14.1491 22.5607 13.9393C22.3509 13.7296 22.0836 13.5867 21.7926 13.5288C21.5017 13.4709 21.2001 13.5006 20.926 13.6142C20.6519 13.7277 20.4176 13.92 20.2528 14.1666C20.088 14.4133 20 14.7033 20 15C20 15.3978 20.158 15.7794 20.4393 16.0607C20.7206 16.342 21.1022 16.5 21.5 16.5ZM29 7V23C29 23.5304 28.7893 24.0391 28.4142 24.4142C28.0391 24.7893 27.5304 25 27 25H19.5662L17.7113 28.0362C17.5327 28.3312 17.2809 28.5749 16.9804 28.7439C16.6799 28.9128 16.3408 29.0012 15.996 29.0004C15.6512 28.9997 15.3125 28.9098 15.0127 28.7396C14.713 28.5693 14.4623 28.3244 14.285 28.0287L12.4338 25H5C4.46957 25 3.96086 24.7893 3.58579 24.4142C3.21071 24.0391 3 23.5304 3 23V7C3 6.46957 3.21071 5.96086 3.58579 5.58579C3.96086 5.21071 4.46957 5 5 5H27C27.5304 5 28.0391 5.21071 28.4142 5.58579C28.7893 5.96086 29 6.46957 29 7ZM27 7H5V23H12.4338C12.7781 23.0009 13.1164 23.0902 13.4162 23.2594C13.7161 23.4286 13.9675 23.672 14.1462 23.9662L16 27L17.8525 23.96C18.0321 23.6667 18.284 23.4243 18.584 23.2562C18.8841 23.0881 19.2223 22.9999 19.5662 23H27V7ZM10.5 16.5C10.7967 16.5 11.0867 16.412 11.3334 16.2472C11.58 16.0824 11.7723 15.8481 11.8858 15.574C11.9994 15.2999 12.0291 14.9983 11.9712 14.7074C11.9133 14.4164 11.7704 14.1491 11.5607 13.9393C11.3509 13.7296 11.0836 13.5867 10.7926 13.5288C10.5017 13.4709 10.2001 13.5006 9.92597 13.6142C9.65189 13.7277 9.41762 13.92 9.2528 14.1666C9.08797 14.4133 9 14.7033 9 15C9 15.3978 9.15804 15.7794 9.43934 16.0607C9.72064 16.342 10.1022 16.5 10.5 16.5Z" fill="#4A4A4F"/>
</svg>
