<svg width="32" height="32" viewBox="0 0 32 32" fill="none" xmlns="http://www.w3.org/2000/svg">
<path d="M28.7076 9.70757L12.7076 25.7076C12.6147 25.8005 12.5044 25.8743 12.383 25.9246C12.2616 25.975 12.1315 26.0009 12.0001 26.0009C11.8687 26.0009 11.7385 25.975 11.6171 25.9246C11.4957 25.8743 11.3854 25.8005 11.2926 25.7076L4.29257 18.7076C4.10493 18.5199 3.99951 18.2654 3.99951 18.0001C3.99951 17.7347 4.10493 17.4802 4.29257 17.2926C4.48021 17.1049 4.7347 16.9995 5.00007 16.9995C5.26543 16.9995 5.51993 17.1049 5.70757 17.2926L12.0001 23.5863L27.2926 8.29257C27.4802 8.10493 27.7347 7.99951 28.0001 7.99951C28.2654 7.99951 28.5199 8.10493 28.7076 8.29257C28.8952 8.48021 29.0006 8.7347 29.0006 9.00007C29.0006 9.26543 28.8952 9.51993 28.7076 9.70757Z" fill="#4A4A4F"/>
</svg>
