<svg width="32" height="32" viewBox="0 0 32 32" fill="none" xmlns="http://www.w3.org/2000/svg">
<path d="M11 13.9137L17 19.9137V27.5C17 27.6326 16.9473 27.7598 16.8536 27.8536C16.7598 27.9473 16.6326 28 16.5 28H6C5.46957 28 4.96086 27.7893 4.58579 27.4142C4.21071 27.0391 4 26.5304 4 26V6C4 5.46957 4.21071 4.96086 4.58579 4.58579C4.96086 4.21071 5.46957 4 6 4H8.5C8.63261 4 8.75979 4.05268 8.85355 4.14645C8.94732 4.24021 9 4.36739 9 4.5V19.1725C8.33279 19.4084 7.77045 19.8726 7.41237 20.483C7.05429 21.0934 6.92353 21.8107 7.0432 22.5082C7.16288 23.2057 7.52527 23.8385 8.06634 24.2946C8.60741 24.7507 9.29231 25.0009 10 25.0009C10.7077 25.0009 11.3926 24.7507 11.9337 24.2946C12.4747 23.8385 12.8371 23.2057 12.9568 22.5082C13.0765 21.8107 12.9457 21.0934 12.5876 20.483C12.2296 19.8726 11.6672 19.4084 11 19.1725V13.9137ZM10 23C10.1978 23 10.3911 22.9414 10.5556 22.8315C10.72 22.7216 10.8482 22.5654 10.9239 22.3827C10.9996 22.2 11.0194 21.9989 10.9808 21.8049C10.9422 21.6109 10.847 21.4327 10.7071 21.2929C10.5673 21.153 10.3891 21.0578 10.1951 21.0192C10.0011 20.9806 9.80004 21.0004 9.61732 21.0761C9.43459 21.1518 9.27841 21.28 9.16853 21.4444C9.05865 21.6089 9 21.8022 9 22C9 22.2652 9.10536 22.5196 9.29289 22.7071C9.48043 22.8946 9.73478 23 10 23ZM23 13C23 12.8022 22.9414 12.6089 22.8315 12.4444C22.7216 12.28 22.5654 12.1518 22.3827 12.0761C22.2 12.0004 21.9989 11.9806 21.8049 12.0192C21.6109 12.0578 21.4327 12.153 21.2929 12.2929C21.153 12.4327 21.0578 12.6109 21.0192 12.8049C20.9806 12.9989 21.0004 13.2 21.0761 13.3827C21.1518 13.5654 21.28 13.7216 21.4444 13.8315C21.6089 13.9414 21.8022 14 22 14C22.2652 14 22.5196 13.8946 22.7071 13.7071C22.8946 13.5196 23 13.2652 23 13ZM26 4H19.5C19.3674 4 19.2402 4.05268 19.1464 4.14645C19.0527 4.24021 19 4.36739 19 4.5V8.58625L20.7075 10.2937C21.3461 9.98868 22.072 9.91918 22.7568 10.0976C23.4417 10.2759 24.0415 10.6907 24.4501 11.2685C24.8587 11.8463 25.0499 12.55 24.9899 13.2552C24.9299 13.9604 24.6225 14.6216 24.122 15.122C23.6216 15.6225 22.9604 15.9299 22.2552 15.9899C21.55 16.0499 20.8463 15.8587 20.2685 15.4501C19.6907 15.0415 19.2759 14.4417 19.0976 13.7568C18.9192 13.072 18.9887 12.3461 19.2938 11.7075L17.2938 9.7075C17.2007 9.61467 17.1268 9.50439 17.0764 9.38299C17.026 9.26159 17.0001 9.13145 17 9V4.5C17 4.36739 16.9473 4.24021 16.8536 4.14645C16.7598 4.05268 16.6326 4 16.5 4H11.5C11.3674 4 11.2402 4.05268 11.1464 4.14645C11.0527 4.24021 11 4.36739 11 4.5V11.0863L18.7075 18.7925C18.8003 18.8854 18.8739 18.9958 18.9241 19.1171C18.9743 19.2385 19.0001 19.3686 19 19.5V27.5C19 27.6326 19.0527 27.7598 19.1464 27.8536C19.2402 27.9473 19.3674 28 19.5 28H26C26.5304 28 27.0391 27.7893 27.4142 27.4142C27.7893 27.0391 28 26.5304 28 26V6C28 5.46957 27.7893 4.96086 27.4142 4.58579C27.0391 4.21071 26.5304 4 26 4Z" fill="#4A4A4F"/>
</svg>
