<svg width="32" height="32" viewBox="0 0 32 32" fill="none" xmlns="http://www.w3.org/2000/svg">
<path d="M17 10V15.4338L21.515 18.1425C21.7424 18.2791 21.9063 18.5005 21.9705 18.7579C22.0347 19.0152 21.9941 19.2876 21.8575 19.515C21.7209 19.7425 21.4996 19.9063 21.2422 19.9705C20.9848 20.0348 20.7124 19.9941 20.485 19.8575L15.485 16.8575C15.337 16.7686 15.2146 16.6429 15.1296 16.4927C15.0446 16.3424 14.9999 16.1727 15 16V10C15 9.73482 15.1054 9.48047 15.2929 9.29293C15.4804 9.10539 15.7348 9.00004 16 9.00004C16.2652 9.00004 16.5196 9.10539 16.7071 9.29293C16.8946 9.48047 17 9.73482 17 10ZM16 4.00004C14.4225 3.99611 12.8599 4.30508 11.4026 4.90907C9.94527 5.51306 8.62222 6.40008 7.51 7.51879C6.60125 8.43879 5.79375 9.32379 5 10.25V8.00004C5 7.73482 4.89464 7.48047 4.70711 7.29293C4.51957 7.10539 4.26522 7.00004 4 7.00004C3.73478 7.00004 3.48043 7.10539 3.29289 7.29293C3.10536 7.48047 3 7.73482 3 8.00004V13C3 13.2653 3.10536 13.5196 3.29289 13.7071C3.48043 13.8947 3.73478 14 4 14H9C9.26522 14 9.51957 13.8947 9.70711 13.7071C9.89464 13.5196 10 13.2653 10 13C10 12.7348 9.89464 12.4805 9.70711 12.2929C9.51957 12.1054 9.26522 12 9 12H6.125C7.01875 10.9475 7.90875 9.95629 8.92375 8.92879C10.3136 7.53898 12.0821 6.58955 14.0085 6.19913C15.9348 5.80872 17.9335 5.99463 19.7547 6.73364C21.576 7.47266 23.1391 8.73199 24.2487 10.3543C25.3584 11.9766 25.9653 13.8899 25.9938 15.8552C26.0222 17.8205 25.4708 19.7506 24.4086 21.4043C23.3463 23.0581 21.8203 24.3621 20.0212 25.1535C18.2221 25.9448 16.2296 26.1885 14.2928 25.854C12.356 25.5194 10.5607 24.6216 9.13125 23.2725C9.03571 23.1823 8.92333 23.1117 8.80052 23.0648C8.6777 23.018 8.54686 22.9958 8.41547 22.9995C8.28407 23.0032 8.15469 23.0328 8.03472 23.0865C7.91475 23.1402 7.80653 23.217 7.71625 23.3125C7.62597 23.4081 7.55538 23.5205 7.50853 23.6433C7.46168 23.7661 7.43948 23.8969 7.44319 24.0283C7.44691 24.1597 7.47647 24.2891 7.53018 24.4091C7.58389 24.529 7.66071 24.6373 7.75625 24.7275C9.18056 26.0716 10.9122 27.0467 12.8 27.5677C14.6878 28.0886 16.6744 28.1396 18.5865 27.7162C20.4986 27.2929 22.278 26.4079 23.7694 25.1387C25.2608 23.8695 26.4189 22.2545 27.1427 20.4348C27.8664 18.6151 28.1338 16.6459 27.9215 14.699C27.7091 12.7522 27.0236 10.8869 25.9246 9.26595C24.8256 7.64501 23.3466 6.31766 21.6166 5.39977C19.8867 4.48187 17.9584 4.00131 16 4.00004Z" fill="#4A4A4F"/>
</svg>
