<svg width="32" height="32" viewBox="0 0 32 32" fill="none" xmlns="http://www.w3.org/2000/svg">
<path d="M17 9.9998V15.4335L21.515 18.1423C21.7424 18.2789 21.9063 18.5002 21.9705 18.7576C22.0348 19.015 21.9941 19.2874 21.8575 19.5148C21.7209 19.7422 21.4996 19.9061 21.2422 19.9703C20.9848 20.0345 20.7124 19.9939 20.485 19.8573L15.485 16.8573C15.337 16.7684 15.2146 16.6427 15.1296 16.4924C15.0446 16.3421 15 16.1724 15 15.9998V9.9998C15 9.73458 15.1054 9.48023 15.2929 9.29269C15.4804 9.10516 15.7348 8.9998 16 8.9998C16.2652 8.9998 16.5196 9.10516 16.7071 9.29269C16.8947 9.48023 17 9.73458 17 9.9998ZM28 6.9998C27.7348 6.9998 27.4804 7.10516 27.2929 7.29269C27.1054 7.48023 27 7.73458 27 7.9998V10.2498C26.2063 9.3298 25.3963 8.44355 24.485 7.52105C22.8173 5.85318 20.6951 4.71375 18.3836 4.24512C16.072 3.77649 13.6736 3.99945 11.488 4.88613C9.30242 5.77282 7.42661 7.28391 6.09493 9.2306C4.76326 11.1773 4.03479 13.4732 4.00053 15.8316C3.96628 18.1899 4.62777 20.5061 5.90234 22.4906C7.17692 24.4752 9.00805 26.0401 11.167 26.9899C13.3259 27.9397 15.7168 28.2322 18.041 27.8309C20.3652 27.4296 22.5196 26.3523 24.235 24.7335C24.3306 24.6433 24.4074 24.535 24.4611 24.4151C24.5148 24.2951 24.5444 24.1657 24.5481 24.0343C24.5518 23.9029 24.5296 23.7721 24.4827 23.6493C24.4359 23.5265 24.3653 23.4141 24.275 23.3185C24.1847 23.223 24.0765 23.1462 23.9565 23.0925C23.8366 23.0388 23.7072 23.0092 23.5758 23.0055C23.4444 23.0018 23.3136 23.024 23.1908 23.0708C23.0679 23.1177 22.9556 23.1883 22.86 23.2785C21.4301 24.6261 19.6348 25.5226 17.6984 25.856C15.762 26.1894 13.7703 25.945 11.972 25.1532C10.1737 24.3614 8.64854 23.0574 7.58691 21.4041C6.52527 19.7507 5.97426 17.8212 6.00266 15.8565C6.03106 13.8918 6.63762 11.979 7.7466 10.357C8.85559 8.73501 10.4178 7.47564 12.2383 6.73619C14.0587 5.99674 16.0566 5.80997 17.9826 6.1992C19.9085 6.58844 21.6771 7.53643 23.0675 8.9248C24.085 9.9548 24.9763 10.9473 25.875 11.9998H23C22.7348 11.9998 22.4804 12.1052 22.2929 12.2927C22.1054 12.4802 22 12.7346 22 12.9998C22 13.265 22.1054 13.5194 22.2929 13.7069C22.4804 13.8944 22.7348 13.9998 23 13.9998H28C28.2652 13.9998 28.5196 13.8944 28.7071 13.7069C28.8947 13.5194 29 13.265 29 12.9998V7.9998C29 7.73458 28.8947 7.48023 28.7071 7.29269C28.5196 7.10516 28.2652 6.9998 28 6.9998Z" fill="#4A4A4F"/>
</svg>
