<svg width="32" height="32" viewBox="0 0 32 32" fill="none" xmlns="http://www.w3.org/2000/svg">
<path d="M25.9999 12C25.9999 11.7033 26.0879 11.4133 26.2527 11.1666C26.4176 10.92 26.6518 10.7277 26.9259 10.6142C27.2 10.5006 27.5016 10.4709 27.7926 10.5288C28.0835 10.5867 28.3508 10.7295 28.5606 10.9393C28.7704 11.1491 28.9132 11.4164 28.9711 11.7073C29.029 11.9983 28.9993 12.2999 28.8858 12.574C28.7722 12.8481 28.58 13.0824 28.3333 13.2472C28.0866 13.412 27.7966 13.5 27.4999 13.5C27.1021 13.5 26.7206 13.3419 26.4393 13.0606C26.158 12.7793 25.9999 12.3978 25.9999 12ZM24.4999 8.99998C24.7966 8.99998 25.0866 8.91201 25.3333 8.74718C25.58 8.58236 25.7722 8.34809 25.8858 8.074C25.9993 7.79992 26.029 7.49832 25.9711 7.20734C25.9132 6.91637 25.7704 6.6491 25.5606 6.43932C25.3508 6.22954 25.0835 6.08668 24.7926 6.0288C24.5016 5.97092 24.2 6.00063 23.9259 6.11416C23.6518 6.22769 23.4176 6.41995 23.2527 6.66662C23.0879 6.9133 22.9999 7.20331 22.9999 7.49998C22.9999 7.8978 23.158 8.27934 23.4393 8.56064C23.7206 8.84194 24.1021 8.99998 24.4999 8.99998ZM28.0824 16C27.8182 15.9782 27.5562 16.0622 27.3539 16.2335C27.1516 16.4049 27.0257 16.6495 27.0037 16.9137C26.8247 19.0043 26.0524 21.0003 24.7775 22.6668C23.5027 24.3333 21.7784 25.601 19.8075 26.3208C17.8366 27.0406 15.7011 27.1825 13.6523 26.7298C11.6035 26.2771 9.72663 25.2487 8.2425 23.7655C6.75837 22.2823 5.72874 20.406 5.27475 18.3575C4.82077 16.309 4.96132 14.1734 5.67986 12.2021C6.39841 10.2307 7.66506 8.50564 9.33078 7.22974C10.9965 5.95385 12.992 5.18025 15.0824 4.99998C15.2138 4.98915 15.3417 4.95255 15.4588 4.89229C15.576 4.83202 15.6802 4.74927 15.7654 4.64875C15.8506 4.54823 15.9151 4.43191 15.9554 4.30644C15.9956 4.18097 16.0108 4.0488 15.9999 3.91748C15.9891 3.78616 15.9525 3.65826 15.8923 3.54108C15.832 3.4239 15.7492 3.31973 15.6487 3.23454C15.5482 3.14934 15.4319 3.08477 15.3064 3.04453C15.1809 3.00428 15.0488 2.98915 14.9174 2.99998C12.4475 3.21244 10.0896 4.12591 8.12112 5.63293C6.15267 7.13994 4.65558 9.17781 3.80598 11.5068C2.95638 13.8357 2.78962 16.3589 3.3253 18.7794C3.86099 21.1999 5.07685 23.4171 6.82983 25.1701C8.58281 26.9231 10.8 28.1389 13.2205 28.6746C15.641 29.2103 18.1642 29.0435 20.4932 28.1939C22.8221 27.3443 24.86 25.8473 26.367 23.8788C27.874 21.9104 28.7875 19.5524 28.9999 17.0825C29.0112 16.9511 28.9964 16.8187 28.9563 16.6931C28.9163 16.5674 28.8517 16.4509 28.7665 16.3503C28.6812 16.2497 28.5768 16.1669 28.4594 16.1068C28.3421 16.0467 28.2139 16.0104 28.0824 16ZM15.9999 6.99998C17.78 6.99998 19.52 7.52782 21.0001 8.51675C22.4801 9.50569 23.6337 10.9113 24.3149 12.5558C24.996 14.2004 25.1743 16.01 24.827 17.7558C24.4797 19.5016 23.6226 21.1053 22.3639 22.3639C21.1052 23.6226 19.5016 24.4798 17.7558 24.827C16.0099 25.1743 14.2003 24.9961 12.5558 24.3149C10.9113 23.6337 9.50565 22.4802 8.51672 21.0001C7.52778 19.5201 6.99994 17.78 6.99994 16C7.00259 13.6138 7.95165 11.3262 9.63891 9.63894C11.3262 7.95169 13.6138 7.00263 15.9999 6.99998ZM14.9999 16C14.9999 16.2652 15.1053 16.5196 15.2928 16.7071C15.4804 16.8946 15.7347 17 15.9999 17H21.9999C22.2652 17 22.5195 16.8946 22.7071 16.7071C22.8946 16.5196 22.9999 16.2652 22.9999 16C22.9999 15.7348 22.8946 15.4804 22.7071 15.2929C22.5195 15.1053 22.2652 15 21.9999 15H16.9999V9.99998C16.9999 9.73476 16.8946 9.48041 16.7071 9.29287C16.5195 9.10534 16.2652 8.99998 15.9999 8.99998C15.7347 8.99998 15.4804 9.10534 15.2928 9.29287C15.1053 9.48041 14.9999 9.73476 14.9999 9.99998V16ZM19.9999 5.99998C20.2966 5.99998 20.5866 5.91201 20.8333 5.74718C21.08 5.58236 21.2722 5.34809 21.3858 5.074C21.4993 4.79992 21.529 4.49832 21.4711 4.20734C21.4132 3.91637 21.2704 3.6491 21.0606 3.43932C20.8508 3.22954 20.5835 3.08668 20.2926 3.0288C20.0016 2.97092 19.7 3.00063 19.4259 3.11416C19.1518 3.22769 18.9176 3.41995 18.7527 3.66662C18.5879 3.9133 18.4999 4.20331 18.4999 4.49998C18.4999 4.8978 18.658 5.27934 18.9393 5.56064C19.2206 5.84194 19.6021 5.99998 19.9999 5.99998Z" fill="#4A4A4F"/>
</svg>
