<svg width="32" height="32" viewBox="0 0 32 32" fill="none" xmlns="http://www.w3.org/2000/svg">
<path d="M19.5001 21H16.5664L14.7664 24H18.0001C18.1771 23.9999 18.351 24.0469 18.504 24.136C18.6569 24.2252 18.7835 24.3534 18.8707 24.5074C18.9579 24.6615 19.0026 24.836 19.0003 25.013C18.998 25.19 18.9488 25.3632 18.8576 25.515L15.8576 30.515C15.79 30.6276 15.7008 30.7258 15.5953 30.804C15.4897 30.8821 15.3697 30.9387 15.2423 30.9705C15.1148 31.0023 14.9824 31.0087 14.8525 30.9893C14.7225 30.9699 14.5977 30.9251 14.4851 30.8575C14.3725 30.7899 14.2743 30.7007 14.1962 30.5951C14.118 30.4896 14.0614 30.3696 14.0296 30.2422C13.9978 30.1147 13.9914 29.9823 14.0108 29.8524C14.0302 29.7224 14.075 29.5976 14.1426 29.485L16.2339 26H13.0001C12.8231 26.0001 12.6492 25.9531 12.4962 25.864C12.3433 25.7748 12.2167 25.6467 12.1295 25.4926C12.0423 25.3385 11.9976 25.164 11.9999 24.987C12.0022 24.81 12.0514 24.6368 12.1426 24.485L14.2339 21H9.60886C6.01511 21 3.02511 18.1338 3.00011 14.545C2.99201 13.1332 3.44299 11.7571 4.28508 10.6239C5.12717 9.49074 6.31475 8.66198 7.66886 8.2625C7.75295 8.23818 7.84195 8.23636 7.92696 8.25723C8.01198 8.27809 8.09002 8.32091 8.1533 8.3814C8.21657 8.44189 8.26286 8.51793 8.28752 8.60192C8.31219 8.68591 8.31437 8.7749 8.29386 8.86C8.13399 9.53767 8.03567 10.2284 8.00011 10.9238C7.98377 11.1885 8.07145 11.4491 8.24446 11.6502C8.41747 11.8512 8.66215 11.9767 8.92636 12H9.00136C9.2607 11.9972 9.50931 11.896 9.69683 11.7169C9.88436 11.5377 9.99679 11.294 10.0114 11.035C10.1024 9.17812 10.7362 7.38874 11.8343 5.88861C12.9324 4.38847 14.4466 3.24351 16.1892 2.59559C17.9317 1.94768 19.8261 1.8253 21.6375 2.24361C23.449 2.66192 25.0979 3.60253 26.3799 4.9489C27.6619 6.29527 28.5207 7.98822 28.8499 9.81796C29.179 11.6477 28.9641 13.5338 28.2317 15.2426C27.4993 16.9513 26.2816 18.4076 24.7295 19.4311C23.1775 20.4545 21.3592 21 19.5001 21Z" fill="#4A4A4F"/>
</svg>
