<svg width="32" height="32" viewBox="0 0 32 32" fill="none" xmlns="http://www.w3.org/2000/svg">
<path d="M6.73998 4.32758C6.65216 4.22859 6.54557 4.14801 6.42638 4.09052C6.30719 4.03303 6.17777 3.99976 6.04563 3.99265C5.91349 3.98555 5.78126 4.00473 5.65659 4.04911C5.53192 4.09348 5.4173 4.16216 5.31936 4.25116C5.22143 4.34016 5.14214 4.44771 5.08608 4.56758C5.03002 4.68745 4.99831 4.81725 4.99278 4.94947C4.98726 5.08168 5.00803 5.21368 5.0539 5.33781C5.09976 5.46194 5.16981 5.57573 5.25998 5.67258L10.165 11.0688L10.1575 11.0838C9.06977 10.9252 7.96104 10.9924 6.90046 11.2813C5.83989 11.5702 4.85022 12.0745 3.99322 12.7629C3.13621 13.4512 2.43026 14.3088 1.9194 15.2821C1.40854 16.2554 1.10373 17.3235 1.024 18.4198C0.944273 19.5161 1.09133 20.6171 1.456 21.6541C1.82066 22.6911 2.39511 23.6417 3.14351 24.4468C3.8919 25.2519 4.79818 25.8942 5.8058 26.3335C6.81342 26.7727 7.90076 26.9997 8.99998 27.0001H20C21.3596 27.0027 22.7077 26.7513 23.975 26.2588L25.26 27.6726C25.3478 27.7716 25.4544 27.8522 25.5736 27.9096C25.6928 27.9671 25.8222 28.0004 25.9543 28.0075C26.0865 28.0146 26.2187 27.9954 26.3434 27.9511C26.468 27.9067 26.5827 27.838 26.6806 27.749C26.7785 27.66 26.8578 27.5525 26.9139 27.4326C26.9699 27.3127 27.0016 27.1829 27.0072 27.0507C27.0127 26.9185 26.9919 26.7865 26.9461 26.6624C26.9002 26.5382 26.8301 26.4244 26.74 26.3276L6.73998 4.32758Z" fill="#4A4A4F"/>
<path d="M19.9999 5.00004C17.6558 4.99403 15.372 5.7426 13.4862 7.13504C13.3733 7.21801 13.2791 7.32378 13.2097 7.4455C13.1403 7.56722 13.0972 7.70216 13.0833 7.84158C13.0694 7.981 13.0849 8.12179 13.1289 8.25482C13.1729 8.38785 13.2444 8.51015 13.3387 8.61379L26.7199 23.3325C26.8136 23.4357 26.9279 23.5181 27.0553 23.5745C27.1828 23.6309 27.3206 23.66 27.4599 23.66C27.6002 23.6596 27.7388 23.6296 27.8667 23.5721C27.9946 23.5146 28.109 23.4309 28.2024 23.3263C29.616 21.7431 30.5414 19.7848 30.867 17.6875C31.1926 15.5902 30.9045 13.4435 30.0374 11.5062C29.1703 9.56899 27.7613 7.92396 25.9803 6.76953C24.1993 5.6151 22.1224 5.00057 19.9999 5.00004Z" fill="#4A4A4F"/>
</svg>
