<svg width="32" height="32" viewBox="0 0 32 32" fill="none" xmlns="http://www.w3.org/2000/svg">
<path d="M30.9912 15.565C30.7637 9.6925 25.8837 5 20.0075 5C17.9634 5.00032 15.9597 5.56958 14.2207 6.64404C12.4817 7.71851 11.0761 9.25577 10.1613 11.0837C9.40087 12.5992 9.00332 14.2707 9 15.9663C9.00392 16.2239 8.91043 16.4735 8.73823 16.6652C8.56603 16.8568 8.32782 16.9764 8.07125 17C7.93406 17.0098 7.79632 16.9912 7.66665 16.9453C7.53698 16.8995 7.41816 16.8274 7.31762 16.7335C7.21708 16.6397 7.13698 16.5261 7.08233 16.3999C7.02768 16.2737 6.99965 16.1375 7 16C6.99894 14.6013 7.22436 13.2116 7.6675 11.885C7.6967 11.7999 7.70241 11.7086 7.68404 11.6205C7.66566 11.5325 7.62388 11.451 7.5631 11.3848C7.50232 11.3185 7.42478 11.2698 7.33866 11.2439C7.25254 11.218 7.16102 11.2158 7.07375 11.2375C5.34103 11.6694 3.80227 12.6678 2.70185 14.0742C1.60143 15.4805 1.00244 17.2143 1 19C1 23.3988 4.71875 27 9.125 27H20C21.4807 26.9984 22.9459 26.6982 24.3079 26.1173C25.6699 25.5364 26.9007 24.6868 27.9268 23.6193C28.9529 22.5518 29.7531 21.2883 30.2797 19.9044C30.8062 18.5205 31.0482 17.0446 30.9912 15.565ZM23.7075 20.7075L19.7075 24.7075C19.6146 24.8005 19.5043 24.8742 19.3829 24.9246C19.2615 24.9749 19.1314 25.0008 19 25.0008C18.8686 25.0008 18.7385 24.9749 18.6171 24.9246C18.4957 24.8742 18.3854 24.8005 18.2925 24.7075L14.2925 20.7075C14.1049 20.5199 13.9994 20.2654 13.9994 20C13.9994 19.7346 14.1049 19.4801 14.2925 19.2925C14.4801 19.1049 14.7346 18.9994 15 18.9994C15.2654 18.9994 15.5199 19.1049 15.7075 19.2925L18 21.5863V14C18 13.7348 18.1054 13.4804 18.2929 13.2929C18.4804 13.1054 18.7348 13 19 13C19.2652 13 19.5196 13.1054 19.7071 13.2929C19.8946 13.4804 20 13.7348 20 14V21.5863L22.2925 19.2925C22.4801 19.1049 22.7346 18.9994 23 18.9994C23.2654 18.9994 23.5199 19.1049 23.7075 19.2925C23.8951 19.4801 24.0006 19.7346 24.0006 20C24.0006 20.2654 23.8951 20.5199 23.7075 20.7075Z" fill="#4A4A4F"/>
</svg>
