<svg width="32" height="32" viewBox="0 0 32 32" fill="none" xmlns="http://www.w3.org/2000/svg">
<path d="M11.0001 24.4998C11.0001 24.7964 10.9121 25.0865 10.7473 25.3331C10.5825 25.5798 10.3482 25.7721 10.0741 25.8856C9.80005 25.9991 9.49845 26.0288 9.20748 25.971C8.9165 25.9131 8.64923 25.7702 8.43945 25.5604C8.22967 25.3507 8.08681 25.0834 8.02893 24.7924C7.97106 24.5014 8.00076 24.1998 8.11429 23.9258C8.22782 23.6517 8.42008 23.4174 8.66676 23.2526C8.91343 23.0878 9.20344 22.9998 9.50011 22.9998C9.89794 22.9998 10.2795 23.1578 10.5608 23.4391C10.8421 23.7204 11.0001 24.102 11.0001 24.4998ZM14.5001 24.9998C14.2034 24.9998 13.9134 25.0878 13.6668 25.2526C13.4201 25.4174 13.2278 25.6517 13.1143 25.9258C13.0008 26.1998 12.9711 26.5014 13.0289 26.7924C13.0868 27.0834 13.2297 27.3507 13.4395 27.5604C13.6492 27.7702 13.9165 27.9131 14.2075 27.971C14.4984 28.0288 14.8 27.9991 15.0741 27.8856C15.3482 27.7721 15.5825 27.5798 15.7473 27.3331C15.9121 27.0865 16.0001 26.7964 16.0001 26.4998C16.0001 26.102 15.8421 25.7204 15.5608 25.4391C15.2795 25.1578 14.8979 24.9998 14.5001 24.9998ZM20.5001 22.9998C20.2034 22.9998 19.9134 23.0878 19.6668 23.2526C19.4201 23.4174 19.2278 23.6517 19.1143 23.9258C19.0008 24.1998 18.9711 24.5014 19.0289 24.7924C19.0868 25.0834 19.2297 25.3507 19.4395 25.5604C19.6492 25.7702 19.9165 25.9131 20.2075 25.971C20.4984 26.0288 20.8 25.9991 21.0741 25.8856C21.3482 25.7721 21.5825 25.5798 21.7473 25.3331C21.9121 25.0865 22.0001 24.7964 22.0001 24.4998C22.0001 24.102 21.8421 23.7204 21.5608 23.4391C21.2795 23.1578 20.8979 22.9998 20.5001 22.9998ZM8.50011 27.9998C8.20344 27.9998 7.91343 28.0878 7.66676 28.2526C7.42008 28.4174 7.22782 28.6517 7.11429 28.9258C7.00076 29.1998 6.97106 29.5014 7.02893 29.7924C7.08681 30.0834 7.22967 30.3507 7.43945 30.5604C7.64923 30.7702 7.9165 30.9131 8.20748 30.971C8.49845 31.0288 8.80005 30.9991 9.07414 30.8856C9.34823 30.7721 9.58249 30.5798 9.74732 30.3331C9.91214 30.0865 10.0001 29.7964 10.0001 29.4998C10.0001 29.102 9.84208 28.7204 9.56077 28.4391C9.27947 28.1578 8.89794 27.9998 8.50011 27.9998ZM19.5001 27.9998C19.2034 27.9998 18.9134 28.0878 18.6668 28.2526C18.4201 28.4174 18.2278 28.6517 18.1143 28.9258C18.0008 29.1998 17.9711 29.5014 18.0289 29.7924C18.0868 30.0834 18.2297 30.3507 18.4395 30.5604C18.6492 30.7702 18.9165 30.9131 19.2075 30.971C19.4984 31.0288 19.8 30.9991 20.0741 30.8856C20.3482 30.7721 20.5825 30.5798 20.7473 30.3331C20.9121 30.0865 21.0001 29.7964 21.0001 29.4998C21.0001 29.102 20.8421 28.7204 20.5608 28.4391C20.2795 28.1578 19.8979 27.9998 19.5001 27.9998ZM28.9839 10.9435C28.8419 8.51622 27.7747 6.23571 26.0019 4.57161C24.2292 2.9075 21.8858 1.98646 19.4544 1.99816C17.0229 2.00985 14.6885 2.95338 12.9319 4.63447C11.1752 6.31555 10.1299 8.60621 10.0114 11.0348C9.99678 11.2939 9.88417 11.5379 9.69638 11.7171C9.50859 11.8963 9.25967 11.9973 9.00011 11.9998H8.92511C8.66113 11.9762 8.41677 11.8505 8.24402 11.6495C8.07126 11.4485 7.98376 11.1881 8.00011 10.9235C8.03486 10.2282 8.13234 9.53752 8.29136 8.85978C8.31188 8.77468 8.30969 8.68569 8.28503 8.6017C8.26036 8.51771 8.21408 8.44166 8.1508 8.38117C8.08753 8.32068 8.00948 8.27787 7.92447 8.257C7.83945 8.23614 7.75045 8.23796 7.66636 8.26228C6.31273 8.6622 5.1257 9.49116 4.28409 10.6243C3.44247 11.7574 2.99186 13.1333 3.00011 14.5448C3.02511 18.1335 6.01511 20.9998 9.60511 20.9998H19.5001C20.7941 20.9983 22.0742 20.7328 23.262 20.2195C24.4498 19.7062 25.5204 18.9559 26.4082 18.0145C27.296 17.0732 27.9823 15.9605 28.4252 14.7446C28.8681 13.5288 29.0582 12.2354 28.9839 10.9435Z" fill="#4A4A4F"/>
</svg>
