<svg width="32" height="32" viewBox="0 0 32 32" fill="none" xmlns="http://www.w3.org/2000/svg">
<path d="M29.4737 11.1252L16.4737 4.1252C16.3281 4.04686 16.1654 4.00586 16 4.00586C15.8346 4.00586 15.6719 4.04686 15.5262 4.1252L2.52625 11.1252C2.36801 11.2103 2.23564 11.3365 2.14303 11.4905C2.05043 11.6444 2.00102 11.8205 2 12.0002V20.0002C1.99989 20.1809 2.04877 20.3583 2.14143 20.5135C2.2341 20.6687 2.36708 20.7958 2.52625 20.8815L15.5262 27.8815C15.6719 27.9598 15.8346 28.0008 16 28.0008C16.1654 28.0008 16.3281 27.9598 16.4737 27.8815L29.4737 20.8815C29.6329 20.7958 29.7659 20.6687 29.8586 20.5135C29.9512 20.3583 30.0001 20.1809 30 20.0002V12.0002C29.999 11.8205 29.9496 11.6444 29.857 11.4905C29.7644 11.3365 29.632 11.2103 29.4737 11.1252ZM28 18.3265L23.6812 16.0002L28 13.674V18.3265ZM21.5713 14.864L17 12.4027V6.67395L26.8913 12.0002L21.5713 14.864ZM16 17.864L12.5375 16.0002L16 14.1364L19.4625 16.0002L16 17.864ZM15 6.67395V12.4027L10.4288 14.864L5.10875 12.0002L15 6.67395ZM4 13.674L8.31875 16.0002L4 18.3265V13.674ZM10.4288 17.1364L15 19.5977V25.3265L5.10875 20.0002L10.4288 17.1364ZM17 25.3265V19.5977L21.5713 17.1364L26.8913 20.0002L17 25.3265Z" fill="#4A4A4F"/>
</svg>
