<svg width="32" height="32" viewBox="0 0 32 32" fill="none" xmlns="http://www.w3.org/2000/svg">
<path d="M7.29231 12.7076L3.29231 8.70757C3.19933 8.6147 3.12557 8.50441 3.07525 8.38301C3.02493 8.26161 2.99902 8.13148 2.99902 8.00007C2.99902 7.86865 3.02493 7.73853 3.07525 7.61713C3.12557 7.49573 3.19933 7.38544 3.29231 7.29257L7.29231 3.29257C7.47995 3.10493 7.73445 2.99951 7.99981 2.99951C8.26517 2.99951 8.51967 3.10493 8.70731 3.29257C8.89495 3.48021 9.00037 3.7347 9.00037 4.00007C9.00037 4.26543 8.89495 4.51993 8.70731 4.70757L5.41356 8.00007L8.70731 11.2926C8.89495 11.4802 9.00037 11.7347 9.00037 12.0001C9.00037 12.2654 8.89495 12.5199 8.70731 12.7076C8.51967 12.8952 8.26517 13.0006 7.99981 13.0006C7.73445 13.0006 7.47995 12.8952 7.29231 12.7076ZM12.2923 12.7076C12.3852 12.8005 12.4955 12.8743 12.6169 12.9246C12.7383 12.975 12.8684 13.0009 12.9998 13.0009C13.1312 13.0009 13.2614 12.975 13.3828 12.9246C13.5041 12.8743 13.6144 12.8005 13.7073 12.7076L17.7073 8.70757C17.8003 8.6147 17.874 8.50441 17.9244 8.38301C17.9747 8.26161 18.0006 8.13148 18.0006 8.00007C18.0006 7.86865 17.9747 7.73853 17.9244 7.61713C17.874 7.49573 17.8003 7.38544 17.7073 7.29257L13.7073 3.29257C13.5197 3.10493 13.2652 2.99951 12.9998 2.99951C12.7344 2.99951 12.4799 3.10493 12.2923 3.29257C12.1047 3.48021 11.9993 3.7347 11.9993 4.00007C11.9993 4.26543 12.1047 4.51993 12.2923 4.70757L15.5861 8.00007L12.2923 11.2926C12.1993 11.3854 12.1256 11.4957 12.0753 11.6171C12.0249 11.7385 11.999 11.8687 11.999 12.0001C11.999 12.1315 12.0249 12.2616 12.0753 12.383C12.1256 12.5044 12.1993 12.6147 12.2923 12.7076ZM24.9998 5.00007H21.9998C21.7346 5.00007 21.4802 5.10542 21.2927 5.29296C21.1052 5.4805 20.9998 5.73485 20.9998 6.00007C20.9998 6.26528 21.1052 6.51964 21.2927 6.70717C21.4802 6.89471 21.7346 7.00007 21.9998 7.00007H24.9998V25.0001H6.99981V17.0001C6.99981 16.7349 6.89445 16.4805 6.70692 16.293C6.51938 16.1054 6.26503 16.0001 5.99981 16.0001C5.73459 16.0001 5.48024 16.1054 5.2927 16.293C5.10517 16.4805 4.99981 16.7349 4.99981 17.0001V25.0001C4.99981 25.5305 5.21052 26.0392 5.5856 26.4143C5.96067 26.7894 6.46938 27.0001 6.99981 27.0001H24.9998C25.5302 27.0001 26.0389 26.7894 26.414 26.4143C26.7891 26.0392 26.9998 25.5305 26.9998 25.0001V7.00007C26.9998 6.46963 26.7891 5.96093 26.414 5.58585C26.0389 5.21078 25.5302 5.00007 24.9998 5.00007Z" fill="#4A4A4F"/>
</svg>
