<svg width="32" height="32" viewBox="0 0 32 32" fill="none" xmlns="http://www.w3.org/2000/svg">
<path d="M28.7362 9.03119C28.5536 8.71223 28.2862 8.45005 27.9638 8.27369L16.96 2.24994C16.6659 2.08821 16.3357 2.00342 16 2.00342C15.6643 2.00342 15.3341 2.08821 15.04 2.24994L4.04 8.27244C3.71752 8.4488 3.45015 8.71098 3.2675 9.02993C3.09339 9.33181 3.00117 9.67395 3 10.0224V21.9774C3.00081 22.3355 3.09775 22.6868 3.28069 22.9947C3.46363 23.3025 3.72586 23.5556 4.04 23.7274L15.04 29.7487C15.3339 29.9111 15.6642 29.9963 16 29.9963C16.3358 29.9963 16.6661 29.9111 16.96 29.7487L27.96 23.7274C28.2741 23.5556 28.5364 23.3025 28.7193 22.9947C28.9023 22.6868 28.9992 22.3355 29 21.9774V10.0224C28.9998 9.67471 28.9088 9.33306 28.7362 9.03119ZM15 27.4512L11 25.2612V18.9999C10.9996 18.8209 10.9511 18.6452 10.8597 18.4913C10.7682 18.3374 10.6371 18.2109 10.48 18.1249L5 15.1249V11.1249L15 16.5999V27.4512ZM16 14.8599L6.0825 9.42994L10.3925 7.07119L15.5175 9.87743C15.6647 9.95796 15.8297 10.0002 15.9975 10.0002C16.1653 10.0002 16.3303 9.95796 16.4775 9.87743L21.6025 7.07119L25.9125 9.42994L16 14.8599ZM27 15.1224L21.52 18.1224C21.3629 18.2084 21.2318 18.3349 21.1403 18.4888C21.0489 18.6427 21.0004 18.8184 21 18.9974V25.2587L17 27.4487V16.5924L27 11.1174V15.1224Z" fill="#4A4A4F"/>
</svg>
