<svg width="32" height="32" viewBox="0 0 32 32" fill="none" xmlns="http://www.w3.org/2000/svg">
<path d="M27.96 8.26869L16.96 2.24994C16.6659 2.08821 16.3357 2.00342 16 2.00342C15.6643 2.00342 15.3341 2.08821 15.04 2.24994L4.04 8.27244C3.72586 8.44432 3.46363 8.69739 3.28069 9.00522C3.09775 9.31305 3.00081 9.66435 3 10.0224V21.9774C3.00081 22.3355 3.09775 22.6868 3.28069 22.9947C3.46363 23.3025 3.72586 23.5556 4.04 23.7274L15.04 29.7487C15.3339 29.9111 15.6642 29.9963 16 29.9963C16.3358 29.9963 16.6661 29.9111 16.96 29.7487L27.96 23.7274C28.2741 23.5556 28.5364 23.3025 28.7193 22.9947C28.9023 22.6868 28.9992 22.3355 29 21.9774V10.0224C28.9999 9.66371 28.9032 9.31163 28.7203 9.00308C28.5373 8.69453 28.2747 8.44087 27.96 8.26869ZM21 18.9999V25.2612L17 27.4512V16.5924L27 11.1174V15.1174L21.52 18.1174C21.3618 18.204 21.23 18.3317 21.1384 18.4871C21.0469 18.6424 20.9991 18.8196 21 18.9999ZM10.48 18.1249L5 15.1249V11.1249L15 16.5999V27.4587L11 25.2612V18.9999C10.9996 18.8209 10.9511 18.6452 10.8597 18.4913C10.7682 18.3374 10.6371 18.2109 10.48 18.1249ZM10.3925 7.07369L15.5175 9.87994C15.6647 9.96046 15.8297 10.0027 15.9975 10.0027C16.1653 10.0027 16.3303 9.96046 16.4775 9.87994L21.6025 7.07369L25.9125 9.43244L16 14.8599L6.0825 9.42994L10.3925 7.07369ZM16 3.99994L19.525 5.92993L16 7.86119L12.475 5.93119L16 3.99994ZM5 17.4024L9 19.5924V24.1662L5 21.9774V17.4024ZM23 24.1662V19.5924L27 17.4024V21.9774L23 24.1662Z" fill="#4A4A4F"/>
</svg>
