<svg width="32" height="32" viewBox="0 0 32 32" fill="none" xmlns="http://www.w3.org/2000/svg">
<path d="M29.4161 14.5901L17.4099 2.58256C17.0352 2.21006 16.5283 2.00098 15.9999 2.00098C15.4715 2.00098 14.9646 2.21006 14.5899 2.58256L2.58989 14.5901C2.21738 14.9648 2.0083 15.4717 2.0083 16.0001C2.0083 16.5284 2.21738 17.0353 2.58989 17.4101L14.5961 29.4176C14.9709 29.7901 15.4778 29.9991 16.0061 29.9991C16.5345 29.9991 17.0414 29.7901 17.4161 29.4176L29.4224 17.4101C29.7949 17.0353 30.004 16.5284 30.004 16.0001C30.004 15.4717 29.7949 14.9648 29.4224 14.5901H29.4161ZM15.9999 28.0001L3.99989 16.0001L15.9999 4.00006L27.9999 16.0001L15.9999 28.0001Z" fill="#4A4A4F"/>
</svg>
