<svg width="32" height="32" viewBox="0 0 32 32" fill="none" xmlns="http://www.w3.org/2000/svg">
<path d="M10.8627 9.22774C10.6686 9.03366 10.5146 8.80322 10.4095 8.5496C10.3044 8.29598 10.2503 8.02415 10.2503 7.74962C10.2503 7.47509 10.3044 7.20325 10.4095 6.94963C10.5146 6.69601 10.6686 6.46558 10.8627 6.27149L14.5215 2.61149C14.914 2.21991 15.4458 2 16.0002 2C16.5547 2 17.0865 2.21991 17.479 2.61149L21.1377 6.27149C21.3319 6.46558 21.4859 6.69601 21.591 6.94963C21.6961 7.20325 21.7502 7.47509 21.7502 7.74962C21.7502 8.02415 21.6961 8.29598 21.591 8.5496C21.4859 8.80322 21.3319 9.03366 21.1377 9.22774L17.479 12.8877C17.0865 13.2793 16.5547 13.4992 16.0002 13.4992C15.4458 13.4992 14.914 13.2793 14.5215 12.8877L10.8627 9.22774ZM29.389 14.5215L25.729 10.8615C25.3367 10.47 24.8051 10.2501 24.2509 10.2501C23.6966 10.2501 23.165 10.47 22.7727 10.8615L19.1127 14.5215C18.7212 14.914 18.5012 15.4458 18.5012 16.0002C18.5012 16.5547 18.7212 17.0865 19.1127 17.479L22.7727 21.139C23.165 21.5305 23.6966 21.7504 24.2509 21.7504C24.8051 21.7504 25.3367 21.5305 25.729 21.139L29.389 17.479C29.7806 17.0865 30.0005 16.5547 30.0005 16.0002C30.0005 15.4458 29.7806 14.914 29.389 14.5215ZM12.889 14.5215L9.22774 10.8615C8.83544 10.47 8.30385 10.2501 7.74962 10.2501C7.19538 10.2501 6.66379 10.47 6.27149 10.8615L2.61149 14.5215C2.21991 14.914 2 15.4458 2 16.0002C2 16.5547 2.21991 17.0865 2.61149 17.479L6.27149 21.139C6.66379 21.5305 7.19538 21.7504 7.74962 21.7504C8.30385 21.7504 8.83544 21.5305 9.22774 21.139L12.8877 17.479C13.2793 17.0865 13.4992 16.5547 13.4992 16.0002C13.4992 15.4458 13.2793 14.914 12.8877 14.5215H12.889ZM17.4802 19.1127C17.0877 18.7212 16.5559 18.5012 16.0015 18.5012C15.4471 18.5012 14.9153 18.7212 14.5227 19.1127L10.8627 22.7727C10.6686 22.9668 10.5146 23.1973 10.4095 23.4509C10.3044 23.7045 10.2503 23.9763 10.2503 24.2509C10.2503 24.5254 10.3044 24.7972 10.4095 25.0509C10.5146 25.3045 10.6686 25.5349 10.8627 25.729L14.5215 29.389C14.914 29.7806 15.4458 30.0005 16.0002 30.0005C16.5547 30.0005 17.0865 29.7806 17.479 29.389L21.1377 25.729C21.3319 25.5349 21.4859 25.3045 21.591 25.0509C21.6961 24.7972 21.7502 24.5254 21.7502 24.2509C21.7502 23.9763 21.6961 23.7045 21.591 23.4509C21.4859 23.1973 21.3319 22.9668 21.1377 22.7727L17.4802 19.1127Z" fill="#4A4A4F"/>
</svg>
