<svg width="32" height="32" viewBox="0 0 32 32" fill="none" xmlns="http://www.w3.org/2000/svg">
<path d="M24 4H8C6.93913 4 5.92172 4.42143 5.17157 5.17157C4.42143 5.92172 4 6.93913 4 8V24C4 25.0609 4.42143 26.0783 5.17157 26.8284C5.92172 27.5786 6.93913 28 8 28H24C25.0609 28 26.0783 27.5786 26.8284 26.8284C27.5786 26.0783 28 25.0609 28 24V8C28 6.93913 27.5786 5.92172 26.8284 5.17157C26.0783 4.42143 25.0609 4 24 4ZM26 24C26 24.5304 25.7893 25.0391 25.4142 25.4142C25.0391 25.7893 24.5304 26 24 26H8C7.46957 26 6.96086 25.7893 6.58579 25.4142C6.21071 25.0391 6 24.5304 6 24V8C6 7.46957 6.21071 6.96086 6.58579 6.58579C6.96086 6.21071 7.46957 6 8 6H24C24.5304 6 25.0391 6.21071 25.4142 6.58579C25.7893 6.96086 26 7.46957 26 8V24ZM15 13.5C15 13.7967 14.912 14.0867 14.7472 14.3334C14.5824 14.58 14.3481 14.7723 14.074 14.8858C13.7999 14.9994 13.4983 15.0291 13.2074 14.9712C12.9164 14.9133 12.6491 14.7704 12.4393 14.5607C12.2296 14.3509 12.0867 14.0836 12.0288 13.7926C11.9709 13.5017 12.0006 13.2001 12.1142 12.926C12.2277 12.6519 12.42 12.4176 12.6666 12.2528C12.9133 12.088 13.2033 12 13.5 12C13.8978 12 14.2794 12.158 14.5607 12.4393C14.842 12.7206 15 13.1022 15 13.5ZM20 18.5C20 18.7967 19.912 19.0867 19.7472 19.3334C19.5824 19.58 19.3481 19.7723 19.074 19.8858C18.7999 19.9993 18.4983 20.0291 18.2074 19.9712C17.9164 19.9133 17.6491 19.7704 17.4393 19.5607C17.2296 19.3509 17.0867 19.0836 17.0288 18.7926C16.9709 18.5017 17.0007 18.2001 17.1142 17.926C17.2277 17.6519 17.42 17.4176 17.6666 17.2528C17.9133 17.088 18.2033 17 18.5 17C18.8978 17 19.2794 17.158 19.5607 17.4393C19.842 17.7206 20 18.1022 20 18.5Z" fill="#4A4A4F"/>
</svg>
