<svg width="32" height="32" viewBox="0 0 32 32" fill="none" xmlns="http://www.w3.org/2000/svg">
<path d="M16 3C13.4288 3 10.9154 3.76244 8.77759 5.1909C6.63975 6.61935 4.97351 8.64968 3.98957 11.0251C3.00563 13.4006 2.74819 16.0144 3.2498 18.5362C3.75141 21.0579 4.98953 23.3743 6.80762 25.1924C8.6257 27.0105 10.9421 28.2486 13.4638 28.7502C15.9856 29.2518 18.5995 28.9944 20.9749 28.0104C23.3503 27.0265 25.3807 25.3603 26.8091 23.2224C28.2376 21.0846 29 18.5712 29 16C28.9964 12.5533 27.6256 9.24882 25.1884 6.81163C22.7512 4.37445 19.4467 3.00364 16 3ZM20.9 15C20.7712 14.3752 20.5234 13.7811 20.17 13.25L24.4488 8.97C25.8771 10.6802 26.7493 12.7857 26.9488 15.005L20.9 15ZM19 16C19 16.5933 18.8241 17.1734 18.4944 17.6667C18.1648 18.1601 17.6962 18.5446 17.1481 18.7716C16.5999 18.9987 15.9967 19.0581 15.4147 18.9424C14.8328 18.8266 14.2982 18.5409 13.8787 18.1213C13.4591 17.7018 13.1734 17.1672 13.0576 16.5853C12.9419 16.0033 13.0013 15.4001 13.2284 14.8519C13.4554 14.3038 13.8399 13.8352 14.3333 13.5056C14.8266 13.1759 15.4067 13 16 13C16.7957 13 17.5587 13.3161 18.1213 13.8787C18.6839 14.4413 19 15.2044 19 16ZM16 27C14.2329 27.0012 12.4914 26.5767 10.9231 25.7623C9.35485 24.9479 8.00584 23.7677 6.9903 22.3215C5.97476 20.8753 5.32259 19.2057 5.08899 17.4541C4.85539 15.7025 5.04724 13.9203 5.6483 12.2586C6.24936 10.5968 7.24194 9.10427 8.54201 7.90736C9.84209 6.71046 11.4114 5.84439 13.1171 5.38246C14.8228 4.92053 16.6147 4.87635 18.3411 5.25365C20.0674 5.63095 21.6775 6.41862 23.035 7.55L18.75 11.83C17.856 11.2412 16.7967 10.9549 15.7279 11.0131C14.659 11.0714 13.6371 11.4711 12.8124 12.1535C11.9876 12.8359 11.4037 13.7649 11.1464 14.804C10.8891 15.8431 10.9721 16.9373 11.3832 17.9256C11.7942 18.914 12.5116 19.7444 13.4298 20.2946C14.3479 20.8448 15.4185 21.0859 16.4839 20.9822C17.5493 20.8786 18.5533 20.4358 19.3483 19.719C20.1432 19.0021 20.6871 18.0491 20.9 17H26.9538C26.7013 19.7316 25.4384 22.2707 23.4125 24.1202C21.3865 25.9698 18.7432 26.9967 16 27Z" fill="#4A4A4F"/>
</svg>
