<svg width="32" height="32" viewBox="0 0 32 32" fill="none" xmlns="http://www.w3.org/2000/svg">
<path d="M30.9388 21.7985L27.2501 7.24976C27.153 6.871 26.9476 6.52879 26.6589 6.26502C26.3703 6.00126 26.011 5.82741 25.6251 5.76476L21.1176 5.02476C20.6207 4.94483 20.1118 5.05258 19.6899 5.32705C19.268 5.60152 18.9633 6.02308 18.8351 6.50976L18.8088 6.61601C18.7918 6.68351 18.7891 6.75382 18.8008 6.82243C18.8126 6.89104 18.8385 6.95645 18.877 7.01446C18.9155 7.07247 18.9656 7.1218 19.0243 7.15931C19.0829 7.19681 19.1488 7.22166 19.2176 7.23226C20.2519 7.38405 21.2723 7.61898 22.2688 7.93476C22.5179 8.00993 22.7292 8.17704 22.8596 8.40221C22.9901 8.62738 23.03 8.89373 22.9713 9.14726C22.9376 9.27937 22.8772 9.40319 22.7938 9.5111C22.7105 9.61902 22.606 9.70875 22.4867 9.77478C22.3674 9.84081 22.2358 9.88174 22.1001 9.89507C21.9644 9.90839 21.8274 9.89382 21.6976 9.85226C17.9998 8.71824 14.0478 8.71388 10.3476 9.83976C10.0972 9.92395 9.82393 9.90846 9.58464 9.7965C9.34535 9.68454 9.15838 9.4847 9.06256 9.23851C9.01702 9.11217 8.99739 8.97796 9.00484 8.84388C9.01229 8.70979 9.04668 8.57858 9.10594 8.45807C9.1652 8.33757 9.24813 8.23023 9.34978 8.14247C9.45142 8.0547 9.5697 7.98831 9.69756 7.94726C10.7066 7.62587 11.7399 7.38675 12.7876 7.23226C12.8564 7.22166 12.9222 7.19681 12.9808 7.15931C13.0395 7.1218 13.0896 7.07247 13.1281 7.01446C13.1666 6.95645 13.1925 6.89104 13.2043 6.82243C13.216 6.75382 13.2133 6.68351 13.1963 6.61601L13.1701 6.50976C13.0417 6.02267 12.7366 5.60084 12.3142 5.32652C11.8917 5.0522 11.3822 4.94507 10.8851 5.02601L6.37506 5.76601C5.98928 5.82856 5.6301 6.00223 5.34149 6.26576C5.05287 6.52928 4.84735 6.87123 4.75006 7.24976L1.06131 21.7985C0.945653 22.2558 0.99599 22.7393 1.20337 23.163C1.41074 23.5867 1.76171 23.9231 2.19381 24.1123L10.5688 27.826C10.8206 27.938 11.0927 27.9972 11.3683 28.0002C11.6438 28.0031 11.9171 27.9497 12.1713 27.8432C12.4254 27.7366 12.6551 27.5792 12.8462 27.3807C13.0373 27.1821 13.1858 26.9466 13.2826 26.6885L13.7188 25.5073C13.7448 25.4365 13.7545 25.3608 13.7471 25.2858C13.7397 25.2108 13.7154 25.1384 13.6761 25.0741C13.6368 25.0098 13.5835 24.9552 13.5201 24.9144C13.4567 24.8736 13.3849 24.8476 13.3101 24.8385C12.0957 24.6915 10.8977 24.432 9.73131 24.0635C9.4832 23.9881 9.2729 23.8215 9.14277 23.5972C9.01264 23.3729 8.97237 23.1076 9.03006 22.8548C9.0635 22.7223 9.12373 22.5981 9.20704 22.4898C9.29035 22.3815 9.39498 22.2914 9.51445 22.2251C9.63392 22.1588 9.76572 22.1177 9.9017 22.1043C10.0377 22.0909 10.175 22.1055 10.3051 22.1473C14.0167 23.2839 17.9835 23.2839 21.6951 22.1473C21.825 22.1057 21.9621 22.0912 22.0979 22.1046C22.2336 22.118 22.3652 22.159 22.4845 22.2252C22.6038 22.2913 22.7083 22.3812 22.7916 22.4893C22.8749 22.5973 22.9352 22.7213 22.9688 22.8535C23.0272 23.1065 22.9872 23.3723 22.857 23.5969C22.7268 23.8216 22.5161 23.9883 22.2676 24.0635C21.1017 24.4321 19.904 24.6916 18.6901 24.8385C18.6152 24.8476 18.5434 24.8736 18.4801 24.9144C18.4167 24.9552 18.3633 25.0098 18.324 25.0741C18.2847 25.1384 18.2604 25.2108 18.2531 25.2858C18.2457 25.3608 18.2553 25.4365 18.2813 25.5073L18.7176 26.6885C18.8144 26.9464 18.963 27.1819 19.1541 27.3803C19.3453 27.5788 19.575 27.7361 19.8291 27.8426C20.0832 27.9492 20.3564 28.0026 20.6319 27.9998C20.9074 27.9969 21.1795 27.9378 21.4313 27.826L29.8063 24.1123C30.2384 23.9231 30.5894 23.5867 30.7968 23.163C31.0041 22.7393 31.0545 22.2558 30.9388 21.7985ZM11.5001 18.9998C11.2034 18.9998 10.9134 18.9118 10.6667 18.747C10.42 18.5821 10.2278 18.3479 10.1142 18.0738C10.0007 17.7997 9.97101 17.4981 10.0289 17.2071C10.0868 16.9161 10.2296 16.6489 10.4394 16.4391C10.6492 16.2293 10.9165 16.0865 11.2074 16.0286C11.4984 15.9707 11.8 16.0004 12.0741 16.1139C12.3482 16.2275 12.5824 16.4197 12.7473 16.6664C12.9121 16.9131 13.0001 17.2031 13.0001 17.4998C13.0001 17.8976 12.842 18.2791 12.5607 18.5604C12.2794 18.8417 11.8979 18.9998 11.5001 18.9998ZM20.5001 18.9998C20.2034 18.9998 19.9134 18.9118 19.6667 18.747C19.42 18.5821 19.2278 18.3479 19.1142 18.0738C19.0007 17.7997 18.971 17.4981 19.0289 17.2071C19.0868 16.9161 19.2296 16.6489 19.4394 16.4391C19.6492 16.2293 19.9165 16.0865 20.2074 16.0286C20.4984 15.9707 20.8 16.0004 21.0741 16.1139C21.3482 16.2275 21.5824 16.4197 21.7473 16.6664C21.9121 16.9131 22.0001 17.2031 22.0001 17.4998C22.0001 17.8976 21.842 18.2791 21.5607 18.5604C21.2794 18.8417 20.8979 18.9998 20.5001 18.9998Z" fill="#4A4A4F"/>
</svg>
