<svg width="32" height="32" viewBox="0 0 32 32" fill="none" xmlns="http://www.w3.org/2000/svg">
<path d="M23.5373 5.41353C23.5113 5.39132 23.4842 5.37046 23.456 5.35103C23.4273 5.33103 23.3973 5.31228 23.3673 5.29478C20.5845 3.28323 17.118 2.45618 13.7268 2.99466C10.3356 3.53313 7.29587 5.39327 5.27303 8.16788C3.2502 10.9425 2.40906 14.4055 2.93375 17.7989C3.45844 21.1923 5.30622 24.2396 8.07259 26.2736C10.839 28.3077 14.2985 29.1629 17.694 28.652C21.0895 28.1411 24.1443 26.3058 26.1896 23.5477C28.2349 20.7896 29.1041 17.3335 28.6071 13.936C28.11 10.5385 26.287 7.47629 23.5373 5.41978V5.41353ZM15.9998 18.9998C15.4064 18.9998 14.8264 18.8238 14.3331 18.4942C13.8397 18.1645 13.4552 17.696 13.2281 17.1478C13.0011 16.5996 12.9417 15.9964 13.0574 15.4145C13.1732 14.8326 13.4589 14.298 13.8784 13.8785C14.298 13.4589 14.8326 13.1732 15.4145 13.0574C15.9964 12.9417 16.5996 13.0011 17.1478 13.2281C17.696 13.4552 18.1645 13.8397 18.4942 14.3331C18.8238 14.8264 18.9998 15.4064 18.9998 15.9998C18.9998 16.7954 18.6837 17.5585 18.1211 18.1211C17.5585 18.6837 16.7954 18.9998 15.9998 18.9998ZM26.9998 15.9998C26.9998 16.3085 26.986 16.6148 26.961 16.9173L20.9998 15.8648C20.9661 14.632 20.4761 13.4557 19.6248 12.5635L23.0973 7.60478C24.3201 8.63528 25.3029 9.92056 25.977 11.3707C26.6511 12.8208 27.0002 14.4007 26.9998 15.9998Z" fill="#4A4A4F"/>
</svg>
