<svg width="32" height="32" viewBox="0 0 32 32" fill="none" xmlns="http://www.w3.org/2000/svg">
<path d="M29 16C29 13.4288 28.2376 10.9154 26.8091 8.77759C25.3807 6.63975 23.3503 4.97351 20.9749 3.98957C18.5995 3.00563 15.9856 2.74819 13.4638 3.2498C10.9421 3.75141 8.6257 4.98953 6.80762 6.80762C4.98953 8.6257 3.75141 10.9421 3.2498 13.4638C2.74819 15.9856 3.00563 18.5995 3.98957 20.9749C4.97351 23.3503 6.63975 25.3807 8.77759 26.8091C10.9154 28.2376 13.4288 29 16 29C19.4465 28.9957 22.7506 27.6247 25.1876 25.1876C27.6247 22.7506 28.9957 19.4465 29 16ZM14.5 10.5C14.5 10.2033 14.588 9.91332 14.7528 9.66665C14.9176 9.41998 15.1519 9.22772 15.426 9.11419C15.7001 9.00065 16.0017 8.97095 16.2926 9.02883C16.5836 9.08671 16.8509 9.22957 17.0607 9.43935C17.2704 9.64912 17.4133 9.9164 17.4712 10.2074C17.5291 10.4983 17.4994 10.7999 17.3858 11.074C17.2723 11.3481 17.08 11.5824 16.8334 11.7472C16.5867 11.912 16.2967 12 16 12C15.6022 12 15.2206 11.842 14.9393 11.5607C14.658 11.2794 14.5 10.8978 14.5 10.5ZM14.5 16C14.5 15.7033 14.588 15.4133 14.7528 15.1667C14.9176 14.92 15.1519 14.7277 15.426 14.6142C15.7001 14.5007 16.0017 14.471 16.2926 14.5288C16.5836 14.5867 16.8509 14.7296 17.0607 14.9393C17.2704 15.1491 17.4133 15.4164 17.4712 15.7074C17.5291 15.9983 17.4994 16.2999 17.3858 16.574C17.2723 16.8481 17.08 17.0824 16.8334 17.2472C16.5867 17.412 16.2967 17.5 16 17.5C15.6022 17.5 15.2206 17.342 14.9393 17.0607C14.658 16.7794 14.5 16.3978 14.5 16ZM14.5 21.5C14.5 21.2033 14.588 20.9133 14.7528 20.6667C14.9176 20.42 15.1519 20.2277 15.426 20.1142C15.7001 20.0007 16.0017 19.9709 16.2926 20.0288C16.5836 20.0867 16.8509 20.2296 17.0607 20.4393C17.2704 20.6491 17.4133 20.9164 17.4712 21.2074C17.5291 21.4983 17.4994 21.7999 17.3858 22.074C17.2723 22.3481 17.08 22.5824 16.8334 22.7472C16.5867 22.912 16.2967 23 16 23C15.6022 23 15.2206 22.842 14.9393 22.5607C14.658 22.2794 14.5 21.8978 14.5 21.5Z" fill="#4A4A4F"/>
</svg>
