<svg width="32" height="32" viewBox="0 0 32 32" fill="none" xmlns="http://www.w3.org/2000/svg">
<path d="M26 4H6C5.46957 4 4.96086 4.21071 4.58579 4.58579C4.21071 4.96086 4 5.46957 4 6V26C4 26.5304 4.21071 27.0391 4.58579 27.4142C4.96086 27.7893 5.46957 28 6 28H26C26.5304 28 27.0391 27.7893 27.4142 27.4142C27.7893 27.0391 28 26.5304 28 26V6C28 5.46957 27.7893 4.96086 27.4142 4.58579C27.0391 4.21071 26.5304 4 26 4ZM9.5 24C9.20333 24 8.91332 23.912 8.66665 23.7472C8.41997 23.5824 8.22771 23.3481 8.11418 23.074C8.00065 22.7999 7.97094 22.4983 8.02882 22.2074C8.0867 21.9164 8.22956 21.6491 8.43934 21.4393C8.64912 21.2296 8.91639 21.0867 9.20736 21.0288C9.49834 20.9709 9.79994 21.0007 10.074 21.1142C10.3481 21.2277 10.5824 21.42 10.7472 21.6666C10.912 21.9133 11 22.2033 11 22.5C11 22.8978 10.842 23.2794 10.5607 23.5607C10.2794 23.842 9.89782 24 9.5 24ZM9.5 17.5C9.20333 17.5 8.91332 17.412 8.66665 17.2472C8.41997 17.0824 8.22771 16.8481 8.11418 16.574C8.00065 16.2999 7.97094 15.9983 8.02882 15.7074C8.0867 15.4164 8.22956 15.1491 8.43934 14.9393C8.64912 14.7296 8.91639 14.5867 9.20736 14.5288C9.49834 14.4709 9.79994 14.5006 10.074 14.6142C10.3481 14.7277 10.5824 14.92 10.7472 15.1666C10.912 15.4133 11 15.7033 11 16C11 16.3978 10.842 16.7794 10.5607 17.0607C10.2794 17.342 9.89782 17.5 9.5 17.5ZM9.5 11C9.20333 11 8.91332 10.912 8.66665 10.7472C8.41997 10.5824 8.22771 10.3481 8.11418 10.074C8.00065 9.79994 7.97094 9.49834 8.02882 9.20736C8.0867 8.91639 8.22956 8.64912 8.43934 8.43934C8.64912 8.22956 8.91639 8.0867 9.20736 8.02882C9.49834 7.97094 9.79994 8.00065 10.074 8.11418C10.3481 8.22771 10.5824 8.41997 10.7472 8.66665C10.912 8.91332 11 9.20333 11 9.5C11 9.89782 10.842 10.2794 10.5607 10.5607C10.2794 10.842 9.89782 11 9.5 11ZM16 24C15.7033 24 15.4133 23.912 15.1666 23.7472C14.92 23.5824 14.7277 23.3481 14.6142 23.074C14.5006 22.7999 14.4709 22.4983 14.5288 22.2074C14.5867 21.9164 14.7296 21.6491 14.9393 21.4393C15.1491 21.2296 15.4164 21.0867 15.7074 21.0288C15.9983 20.9709 16.2999 21.0007 16.574 21.1142C16.8481 21.2277 17.0824 21.42 17.2472 21.6666C17.412 21.9133 17.5 22.2033 17.5 22.5C17.5 22.8978 17.342 23.2794 17.0607 23.5607C16.7794 23.842 16.3978 24 16 24ZM16 17.5C15.7033 17.5 15.4133 17.412 15.1666 17.2472C14.92 17.0824 14.7277 16.8481 14.6142 16.574C14.5006 16.2999 14.4709 15.9983 14.5288 15.7074C14.5867 15.4164 14.7296 15.1491 14.9393 14.9393C15.1491 14.7296 15.4164 14.5867 15.7074 14.5288C15.9983 14.4709 16.2999 14.5006 16.574 14.6142C16.8481 14.7277 17.0824 14.92 17.2472 15.1666C17.412 15.4133 17.5 15.7033 17.5 16C17.5 16.3978 17.342 16.7794 17.0607 17.0607C16.7794 17.342 16.3978 17.5 16 17.5ZM16 11C15.7033 11 15.4133 10.912 15.1666 10.7472C14.92 10.5824 14.7277 10.3481 14.6142 10.074C14.5006 9.79994 14.4709 9.49834 14.5288 9.20736C14.5867 8.91639 14.7296 8.64912 14.9393 8.43934C15.1491 8.22956 15.4164 8.0867 15.7074 8.02882C15.9983 7.97094 16.2999 8.00065 16.574 8.11418C16.8481 8.22771 17.0824 8.41997 17.2472 8.66665C17.412 8.91332 17.5 9.20333 17.5 9.5C17.5 9.89782 17.342 10.2794 17.0607 10.5607C16.7794 10.842 16.3978 11 16 11ZM22.5 24C22.2033 24 21.9133 23.912 21.6666 23.7472C21.42 23.5824 21.2277 23.3481 21.1142 23.074C21.0007 22.7999 20.9709 22.4983 21.0288 22.2074C21.0867 21.9164 21.2296 21.6491 21.4393 21.4393C21.6491 21.2296 21.9164 21.0867 22.2074 21.0288C22.4983 20.9709 22.7999 21.0007 23.074 21.1142C23.3481 21.2277 23.5824 21.42 23.7472 21.6666C23.912 21.9133 24 22.2033 24 22.5C24 22.8978 23.842 23.2794 23.5607 23.5607C23.2794 23.842 22.8978 24 22.5 24ZM22.5 17.5C22.2033 17.5 21.9133 17.412 21.6666 17.2472C21.42 17.0824 21.2277 16.8481 21.1142 16.574C21.0007 16.2999 20.9709 15.9983 21.0288 15.7074C21.0867 15.4164 21.2296 15.1491 21.4393 14.9393C21.6491 14.7296 21.9164 14.5867 22.2074 14.5288C22.4983 14.4709 22.7999 14.5006 23.074 14.6142C23.3481 14.7277 23.5824 14.92 23.7472 15.1666C23.912 15.4133 24 15.7033 24 16C24 16.3978 23.842 16.7794 23.5607 17.0607C23.2794 17.342 22.8978 17.5 22.5 17.5ZM22.5 11C22.2033 11 21.9133 10.912 21.6666 10.7472C21.42 10.5824 21.2277 10.3481 21.1142 10.074C21.0007 9.79994 20.9709 9.49834 21.0288 9.20736C21.0867 8.91639 21.2296 8.64912 21.4393 8.43934C21.6491 8.22956 21.9164 8.0867 22.2074 8.02882C22.4983 7.97094 22.7999 8.00065 23.074 8.11418C23.3481 8.22771 23.5824 8.41997 23.7472 8.66665C23.912 8.91332 24 9.20333 24 9.5C24 9.89782 23.842 10.2794 23.5607 10.5607C23.2794 10.842 22.8978 11 22.5 11Z" fill="#4A4A4F"/>
</svg>
