<svg width="32" height="32" viewBox="0 0 32 32" fill="none" xmlns="http://www.w3.org/2000/svg">
<path d="M28 6H4C3.46957 6 2.96086 6.21071 2.58579 6.58579C2.21071 6.96086 2 7.46957 2 8V24C2 24.5304 2.21071 25.0391 2.58579 25.4142C2.96086 25.7893 3.46957 26 4 26H28C28.5304 26 29.0391 25.7893 29.4142 25.4142C29.7893 25.0391 30 24.5304 30 24V8C30 7.46957 29.7893 6.96086 29.4142 6.58579C29.0391 6.21071 28.5304 6 28 6ZM7.5 17.5C7.20333 17.5 6.91332 17.412 6.66664 17.2472C6.41997 17.0824 6.22771 16.8481 6.11418 16.574C6.00065 16.2999 5.97094 15.9983 6.02882 15.7074C6.0867 15.4164 6.22956 15.1491 6.43934 14.9393C6.64912 14.7296 6.91639 14.5867 7.20736 14.5288C7.49834 14.4709 7.79994 14.5006 8.07403 14.6142C8.34811 14.7277 8.58238 14.92 8.7472 15.1666C8.91203 15.4133 9 15.7033 9 16C9 16.3978 8.84196 16.7794 8.56066 17.0607C8.27936 17.342 7.89782 17.5 7.5 17.5ZM16 17.5C15.7033 17.5 15.4133 17.412 15.1666 17.2472C14.92 17.0824 14.7277 16.8481 14.6142 16.574C14.5006 16.2999 14.4709 15.9983 14.5288 15.7074C14.5867 15.4164 14.7296 15.1491 14.9393 14.9393C15.1491 14.7296 15.4164 14.5867 15.7074 14.5288C15.9983 14.4709 16.2999 14.5006 16.574 14.6142C16.8481 14.7277 17.0824 14.92 17.2472 15.1666C17.412 15.4133 17.5 15.7033 17.5 16C17.5 16.3978 17.342 16.7794 17.0607 17.0607C16.7794 17.342 16.3978 17.5 16 17.5ZM24.5 17.5C24.2033 17.5 23.9133 17.412 23.6666 17.2472C23.42 17.0824 23.2277 16.8481 23.1142 16.574C23.0007 16.2999 22.9709 15.9983 23.0288 15.7074C23.0867 15.4164 23.2296 15.1491 23.4393 14.9393C23.6491 14.7296 23.9164 14.5867 24.2074 14.5288C24.4983 14.4709 24.7999 14.5006 25.074 14.6142C25.3481 14.7277 25.5824 14.92 25.7472 15.1666C25.912 15.4133 26 15.7033 26 16C26 16.3978 25.842 16.7794 25.5607 17.0607C25.2794 17.342 24.8978 17.5 24.5 17.5Z" fill="#4A4A4F"/>
</svg>
