<svg width="32" height="32" viewBox="0 0 32 32" fill="none" xmlns="http://www.w3.org/2000/svg">
<path d="M11.6585 4.60747C11.5779 4.55759 11.5131 4.48579 11.4717 4.40047C11.4303 4.31515 11.414 4.21982 11.4248 4.1256C11.4355 4.03138 11.4729 3.94215 11.5324 3.86834C11.5919 3.79453 11.6712 3.73917 11.761 3.70872C13.5848 3.08034 15.5256 2.86592 17.4425 3.08106C19.3595 3.29619 21.2044 3.93546 22.8435 4.95247C22.9029 4.98992 22.9538 5.03946 22.9928 5.09787C23.0317 5.15627 23.058 5.22224 23.0698 5.29146C23.0816 5.36068 23.0786 5.4316 23.0612 5.49962C23.0438 5.56764 23.0122 5.63122 22.9685 5.68622C21.5212 7.53569 19.7463 9.1034 17.7323 10.3112C16.1054 8.02655 14.0408 6.08779 11.6585 4.60747ZM15.9473 11.25C14.1216 8.75885 11.7199 6.74692 8.94729 5.38622C8.86789 5.34767 8.7796 5.33115 8.69164 5.33841C8.60368 5.34567 8.51929 5.37643 8.44729 5.42747C6.20276 7.03298 4.52491 9.30862 3.65479 11.9275C3.63293 11.9944 3.62546 12.0653 3.63288 12.1353C3.6403 12.2054 3.66244 12.2731 3.69785 12.334C3.73325 12.3948 3.78112 12.4476 3.83833 12.4887C3.89553 12.5298 3.96078 12.5583 4.02979 12.5725C5.33448 12.8537 6.66513 12.997 7.99979 13C10.7447 13.0015 13.4569 12.4043 15.9473 11.25ZM28.9223 14.5862C28.6044 11.6869 27.3191 8.97917 25.2735 6.89997C25.2237 6.84931 25.1636 6.80986 25.0972 6.78427C25.0309 6.75867 24.9599 6.74751 24.8889 6.75153C24.8179 6.75555 24.7486 6.77466 24.6856 6.80759C24.6226 6.84052 24.5674 6.8865 24.5235 6.94247C22.9415 8.95795 21.0063 10.6691 18.8123 11.9925C19.4977 13.1799 20.065 14.4318 20.506 15.73C22.2969 15.2445 24.1443 14.999 25.9998 15C26.7933 15 27.5863 15.0447 28.3748 15.1337C28.4482 15.141 28.5223 15.132 28.5918 15.1074C28.6613 15.0827 28.7244 15.0429 28.7768 14.991C28.8291 14.939 28.8693 14.8761 28.8944 14.8068C28.9196 14.7374 28.9291 14.6634 28.9223 14.59V14.5862ZM21.0585 17.6487C21.429 19.2248 21.6157 20.8385 21.6148 22.4575C21.614 24.0071 21.4417 25.552 21.101 27.0637C21.0793 27.1563 21.0843 27.2532 21.1157 27.343C21.147 27.4328 21.2033 27.5118 21.278 27.5707C21.3527 27.6297 21.4426 27.6661 21.5373 27.6757C21.6319 27.6853 21.7273 27.6677 21.8123 27.625C23.7081 26.6739 25.3432 25.2745 26.5755 23.5481C27.8078 21.8218 28.6001 19.8207 28.8835 17.7187C28.8921 17.6532 28.8876 17.5866 28.8703 17.5228C28.8529 17.459 28.8231 17.3993 28.7825 17.3471C28.742 17.2949 28.6914 17.2512 28.6339 17.2187C28.5763 17.1862 28.5129 17.1653 28.4473 17.1575C25.9754 16.8393 23.4651 17.0092 21.0585 17.6575V17.6487ZM18.6035 16.3425C18.2005 15.1605 17.6817 14.0212 17.0548 12.9412C14.2293 14.2986 11.1344 15.0023 7.99979 15C6.53453 15.0001 5.07328 14.8471 3.63979 14.5437C3.57062 14.5291 3.49915 14.5294 3.43009 14.5444C3.36103 14.5595 3.29594 14.589 3.23912 14.6311C3.18231 14.6731 3.13505 14.7267 3.10048 14.7884C3.0659 14.85 3.04479 14.9183 3.03854 14.9887C3.0127 15.3221 2.99937 15.6591 2.99854 16C2.99788 17.78 3.36379 19.5412 4.07347 21.1737C4.78315 22.8062 5.8214 24.275 7.12354 25.4887C7.17846 25.5391 7.24394 25.5765 7.31519 25.5983C7.38644 25.6201 7.46166 25.6256 7.53535 25.6146C7.60903 25.6036 7.67932 25.5762 7.74108 25.5346C7.80283 25.4929 7.8545 25.4379 7.89229 25.3737C10.3321 21.2339 14.1103 18.0496 18.6035 16.3462V16.3425ZM9.46104 26.6562C9.42818 26.7136 9.40702 26.7769 9.3988 26.8425C9.39057 26.9081 9.39543 26.9747 9.4131 27.0384C9.43077 27.1021 9.4609 27.1616 9.50174 27.2136C9.54258 27.2656 9.59332 27.309 9.65104 27.3412C12.2652 28.8069 15.3059 29.3232 18.2573 28.8025C18.3451 28.7872 18.4271 28.7482 18.4945 28.6899C18.5618 28.6315 18.6121 28.5559 18.6398 28.4712C19.2845 26.533 19.6137 24.5038 19.6148 22.4612C19.615 21.054 19.4582 19.6512 19.1473 18.2787C15.0514 19.8746 11.6306 22.8332 9.46104 26.6562Z" fill="#4A4A4F"/>
</svg>
