<svg width="32" height="32" viewBox="0 0 32 32" fill="none" xmlns="http://www.w3.org/2000/svg">
<path d="M21.75 5.96896C20.206 4.18575 18.4682 2.58002 16.5688 1.18146C16.4006 1.06367 16.2003 1.00049 15.995 1.00049C15.7897 1.00049 15.5894 1.06367 15.4213 1.18146C13.5253 2.58061 11.7909 4.18631 10.25 5.96896C6.81375 9.91521 5 14.0752 5 18.0002C5 20.9176 6.15893 23.7155 8.22183 25.7784C10.2847 27.8413 13.0826 29.0002 16 29.0002C18.9174 29.0002 21.7153 27.8413 23.7782 25.7784C25.8411 23.7155 27 20.9176 27 18.0002C27 14.0752 25.1863 9.91521 21.75 5.96896ZM16 3.25021C17.77 4.63771 23.1075 9.21771 24.605 15.0002H7.395C8.8925 9.22021 14.23 4.64021 16 3.25021Z" fill="#4A4A4F"/>
</svg>
