<svg width="32" height="32" viewBox="0 0 32 32" fill="none" xmlns="http://www.w3.org/2000/svg">
<path d="M26.7402 26.3275C26.8303 26.4244 26.9004 26.5382 26.9462 26.6623C26.9921 26.7865 27.0129 26.9184 27.0074 27.0507C27.0018 27.1829 26.9701 27.3127 26.9141 27.4326C26.858 27.5524 26.7787 27.66 26.6808 27.749C26.5828 27.838 26.4682 27.9066 26.3436 27.951C26.2189 27.9954 26.0866 28.0146 25.9545 28.0075C25.8224 28.0004 25.693 27.9671 25.5738 27.9096C25.4546 27.8521 25.348 27.7715 25.2602 27.6725L23.9752 26.2588C24.5022 25.849 24.9966 25.3989 25.4539 24.9125L26.7402 26.3275ZM8.02516 5.74129L6.74016 4.32754C6.65234 4.22855 6.54575 4.14798 6.42656 4.09048C6.30737 4.03299 6.17796 3.99972 6.04582 3.99262C5.91368 3.98551 5.78144 4.0047 5.65677 4.04907C5.5321 4.09344 5.41748 4.16212 5.31955 4.25112C5.22162 4.34012 5.14232 4.44767 5.08626 4.56754C5.0302 4.68741 4.99849 4.81721 4.99297 4.94943C4.98745 5.08164 5.00822 5.21364 5.05408 5.33777C5.09995 5.4619 5.17 5.57569 5.26016 5.67254L6.54641 7.08754C7.00374 6.6012 7.49815 6.1511 8.02516 5.74129ZM25.4539 24.9125L8.02516 5.74129C10.6088 3.72972 13.8568 2.76789 17.1192 3.04822C20.3816 3.32855 23.4178 4.83037 25.6204 7.25322C27.8231 9.67607 29.0296 12.8413 28.9988 16.1155C28.9679 19.3898 27.7018 22.5317 25.4539 24.9125ZM19.8752 13C19.7127 12.3704 19.3992 11.7899 18.9619 11.3088C18.5245 10.8277 17.9765 10.4604 17.3652 10.2388C17.1219 10.1696 16.8615 10.1951 16.6363 10.3102C16.4111 10.4253 16.2379 10.6214 16.1516 10.8591C16.0652 11.0968 16.0721 11.3584 16.1709 11.5912C16.2697 11.824 16.453 12.0107 16.6839 12.1138C16.988 12.2247 17.2606 12.4078 17.4783 12.6473C17.696 12.8868 17.8524 13.1756 17.9339 13.4888C17.9893 13.7033 18.1144 13.8934 18.2895 14.0291C18.4646 14.1649 18.6798 14.2386 18.9014 14.2388C18.9858 14.239 19.0699 14.2281 19.1514 14.2063C19.4066 14.1411 19.6257 13.9778 19.7612 13.7519C19.8968 13.5261 19.9377 13.2559 19.8752 13ZM24.0002 14C24.0006 12.7137 23.6908 11.4463 23.0971 10.3052C22.5034 9.1641 21.6433 8.18298 20.5898 7.44502C19.5362 6.70707 18.3202 6.23405 17.0449 6.06607C15.7696 5.89808 14.4726 6.04009 13.2639 6.48004C13.0315 6.58237 12.8466 6.7693 12.747 7.00291C12.6473 7.23652 12.6403 7.49929 12.7273 7.7379C12.8143 7.97651 12.9889 8.17307 13.2155 8.28768C13.4421 8.4023 13.7039 8.42638 13.9477 8.35504C14.8546 8.02487 15.8278 7.91837 16.7848 8.04458C17.7417 8.17079 18.654 8.52599 19.4443 9.08004C20.2346 9.63408 20.8797 10.3706 21.3246 11.2271C21.7695 12.0836 22.0013 13.0349 22.0002 14C22.0002 14.2653 22.1055 14.5196 22.2931 14.7072C22.4806 14.8947 22.7349 15 23.0002 15C23.2654 15 23.5197 14.8947 23.7073 14.7072C23.8948 14.5196 24.0002 14.2653 24.0002 14ZM18.5002 21C17.8371 21 17.2012 20.7367 16.7324 20.2678C16.2636 19.799 16.0002 19.1631 16.0002 18.5C15.9986 18.2038 16.0407 17.909 16.1252 17.625L13.5689 14.8125C13.4033 14.9323 13.2046 14.9978 13.0002 15C12.7349 15 12.4806 14.8947 12.2931 14.7072C12.1055 14.5196 12.0002 14.2653 12.0002 14C12.0002 13.7245 12.0287 13.4497 12.0852 13.18L10.5489 11.49C10.1853 12.2767 9.99806 13.1334 10.0002 14C10.0002 15.4875 10.8389 16.5625 11.7277 17.7C12.6027 18.815 13.5002 19.9688 13.5002 21.5C13.5 21.9924 13.6452 22.4739 13.9177 22.8841C14.1901 23.2943 14.5776 23.6149 15.0315 23.8057C15.4854 23.9964 15.9856 24.0489 16.4693 23.9565C16.9529 23.8641 17.3985 23.631 17.7502 23.2863C17.8426 23.1886 17.9538 23.1105 18.0771 23.0568C18.2004 23.0031 18.3333 22.9747 18.4678 22.9736C18.6023 22.9724 18.7357 22.9984 18.8599 23.0499C18.9842 23.1015 19.0967 23.1776 19.1909 23.2737C19.285 23.3697 19.3588 23.4838 19.4078 23.6091C19.4568 23.7343 19.4801 23.8682 19.4762 24.0026C19.4723 24.1371 19.4413 24.2694 19.385 24.3916C19.3288 24.5138 19.2485 24.6234 19.1489 24.7138C18.516 25.3337 17.7142 25.753 16.8439 25.9191C15.9737 26.0852 15.0738 25.9908 14.257 25.6476C13.4403 25.3044 12.743 24.7278 12.2525 23.99C11.7621 23.2521 11.5004 22.386 11.5002 21.5C11.5002 20.6575 10.8752 19.8575 10.1514 18.9313C9.19266 17.7038 8.00016 16.1763 8.00016 14C7.99854 12.5624 8.38738 11.1514 9.12516 9.91754L6.54641 7.08754C4.29848 9.46843 3.03243 12.6103 3.00155 15.8846C2.97068 19.1588 4.17726 22.324 6.37989 24.7469C8.58252 27.1697 11.6188 28.6715 14.8812 28.9519C18.1435 29.2322 21.3915 28.2704 23.9752 26.2588L19.1252 20.9213C18.921 20.974 18.711 21.0005 18.5002 21Z" fill="#4A4A4F"/>
</svg>
