<svg width="32" height="32" viewBox="0 0 32 32" fill="none" xmlns="http://www.w3.org/2000/svg">
<path d="M28 22.0002V25.0002C28 25.5306 27.7893 26.0393 27.4142 26.4144C27.0391 26.7894 26.5304 27.0002 26 27.0002H6C5.46957 27.0002 4.96086 26.7894 4.58579 26.4144C4.21071 26.0393 4 25.5306 4 25.0002V22.0002C4 21.4697 4.21071 20.961 4.58579 20.5859C4.96086 20.2109 5.46957 20.0002 6 20.0002H26C26.5304 20.0002 27.0391 20.2109 27.4142 20.5859C27.7893 20.961 28 21.4697 28 22.0002ZM6.03 18.0002H25.97C26.3664 18.0021 26.7546 17.8875 27.0864 17.6706C27.4182 17.4537 27.679 17.144 27.8363 16.7802C27.9917 16.4253 28.0378 16.0322 27.9688 15.6511C27.8998 15.2699 27.7187 14.918 27.4487 14.6402L18.2325 4.95141C17.9437 4.6506 17.597 4.41126 17.2134 4.24777C16.8297 4.08428 16.417 4 16 4C15.583 4 15.1703 4.08428 14.7866 4.24777C14.403 4.41126 14.0563 4.6506 13.7675 4.95141L4.55125 14.6402C4.28128 14.918 4.10023 15.2699 4.03121 15.6511C3.96219 16.0322 4.00833 16.4253 4.16375 16.7802C4.32103 17.144 4.58178 17.4537 4.91358 17.6706C5.24537 17.8875 5.6336 18.0021 6.03 18.0002Z" fill="#4A4A4F"/>
</svg>
