<svg width="32" height="32" viewBox="0 0 32 32" fill="none" xmlns="http://www.w3.org/2000/svg">
<path d="M32 14V22C32 22.2652 31.8946 22.5196 31.7071 22.7071C31.5196 22.8946 31.2652 23 31 23C30.7348 23 30.4804 22.8946 30.2929 22.7071C30.1054 22.5196 30 22.2652 30 22V19H28V21C28 21.5304 27.7893 22.0391 27.4142 22.4142C27.0391 22.7893 26.5304 23 26 23H24.4137L20 27.4137C19.815 27.6003 19.5947 27.7482 19.352 27.8488C19.1093 27.9494 18.849 28.0008 18.5863 28H10.4137C10.151 28.0008 9.89072 27.9494 9.64802 27.8488C9.40532 27.7482 9.18504 27.6003 9 27.4137L4.58625 23C4.39972 22.815 4.25184 22.5947 4.1512 22.352C4.05056 22.1093 3.99916 21.849 4 21.5863V19H2V22C2 22.2652 1.89464 22.5196 1.70711 22.7071C1.51957 22.8946 1.26522 23 1 23C0.734784 23 0.48043 22.8946 0.292893 22.7071C0.105357 22.5196 0 22.2652 0 22V14C0 13.7348 0.105357 13.4804 0.292893 13.2929C0.48043 13.1054 0.734784 13 1 13C1.26522 13 1.51957 13.1054 1.70711 13.2929C1.89464 13.4804 2 13.7348 2 14V17H4V10C4 9.46957 4.21071 8.96086 4.58579 8.58579C4.96086 8.21071 5.46957 8 6 8H14V6H11C10.7348 6 10.4804 5.89464 10.2929 5.70711C10.1054 5.51957 10 5.26522 10 5C10 4.73478 10.1054 4.48043 10.2929 4.29289C10.4804 4.10536 10.7348 4 11 4H19C19.2652 4 19.5196 4.10536 19.7071 4.29289C19.8946 4.48043 20 4.73478 20 5C20 5.26522 19.8946 5.51957 19.7071 5.70711C19.5196 5.89464 19.2652 6 19 6H16V8H18.5863C18.849 7.99916 19.1093 8.05056 19.352 8.1512C19.5947 8.25184 19.815 8.39972 20 8.58625L24.4137 13H26C26.5304 13 27.0391 13.2107 27.4142 13.5858C27.7893 13.9609 28 14.4696 28 15V17H30V14C30 13.7348 30.1054 13.4804 30.2929 13.2929C30.4804 13.1054 30.7348 13 31 13C31.2652 13 31.5196 13.1054 31.7071 13.2929C31.8946 13.4804 32 13.7348 32 14Z" fill="#4A4A4F"/>
</svg>
