<svg width="32" height="32" viewBox="0 0 32 32" fill="none" xmlns="http://www.w3.org/2000/svg">
<path d="M27 13.9998V25.9998C27 26.5302 26.7893 27.0389 26.4142 27.414C26.0391 27.7891 25.5304 27.9998 25 27.9998H7C6.46957 27.9998 5.96086 27.7891 5.58579 27.414C5.21071 27.0389 5 26.5302 5 25.9998V13.9998C5 13.4694 5.21071 12.9607 5.58579 12.5856C5.96086 12.2105 6.46957 11.9998 7 11.9998H10C10.2652 11.9998 10.5196 12.1052 10.7071 12.2927C10.8946 12.4802 11 12.7346 11 12.9998C11 13.265 10.8946 13.5194 10.7071 13.7069C10.5196 13.8945 10.2652 13.9998 10 13.9998H7V25.9998H25V13.9998H22C21.7348 13.9998 21.4804 13.8945 21.2929 13.7069C21.1054 13.5194 21 13.265 21 12.9998C21 12.7346 21.1054 12.4802 21.2929 12.2927C21.4804 12.1052 21.7348 11.9998 22 11.9998H25C25.5304 11.9998 26.0391 12.2105 26.4142 12.5856C26.7893 12.9607 27 13.4694 27 13.9998ZM11.7075 8.70731L15 5.41356V16.9998C15 17.265 15.1054 17.5194 15.2929 17.7069C15.4804 17.8945 15.7348 17.9998 16 17.9998C16.2652 17.9998 16.5196 17.8945 16.7071 17.7069C16.8946 17.5194 17 17.265 17 16.9998V5.41356L20.2925 8.70731C20.4801 8.89495 20.7346 9.00037 21 9.00037C21.2654 9.00037 21.5199 8.89495 21.7075 8.70731C21.8951 8.51967 22.0006 8.26517 22.0006 7.99981C22.0006 7.73445 21.8951 7.47995 21.7075 7.29231L16.7075 2.29231C16.6146 2.19933 16.5043 2.12557 16.3829 2.07525C16.2615 2.02493 16.1314 1.99902 16 1.99902C15.8686 1.99902 15.7385 2.02493 15.6171 2.07525C15.4957 2.12557 15.3854 2.19933 15.2925 2.29231L10.2925 7.29231C10.1049 7.47995 9.99944 7.73445 9.99944 7.99981C9.99944 8.26517 10.1049 8.51967 10.2925 8.70731C10.4801 8.89495 10.7346 9.00037 11 9.00037C11.2654 9.00037 11.5199 8.89495 11.7075 8.70731Z" fill="#4A4A4F"/>
</svg>
