<svg width="32" height="32" viewBox="0 0 32 32" fill="none" xmlns="http://www.w3.org/2000/svg">
<path d="M31 16.0002C31.0005 16.3329 30.9167 16.6603 30.7565 16.9519C30.5963 17.2435 30.3649 17.4897 30.0837 17.6677L19.06 24.6877C18.76 24.8795 18.4141 24.9872 18.0582 24.9997C17.7024 25.0121 17.3498 24.9288 17.0371 24.7584C16.7245 24.5881 16.4633 24.3369 16.2809 24.0311C16.0984 23.7254 16.0014 23.3762 16 23.0202V18.3577L6.06 24.6877C5.76002 24.8795 5.41406 24.9872 5.05823 24.9997C4.7024 25.0121 4.34976 24.9288 4.03712 24.7584C3.72448 24.5881 3.46331 24.3369 3.28088 24.0311C3.09844 23.7254 3.00144 23.3762 3 23.0202V8.9802C3.00144 8.62415 3.09844 8.27503 3.28088 7.96927C3.46331 7.66351 3.72448 7.41233 4.03712 7.24197C4.34976 7.0716 4.7024 6.98828 5.05823 7.00073C5.41406 7.01317 5.76002 7.12091 6.06 7.3127L16 13.6427V8.9802C16.0014 8.62415 16.0984 8.27503 16.2809 7.96927C16.4633 7.66351 16.7245 7.41233 17.0371 7.24197C17.3498 7.0716 17.7024 6.98828 18.0582 7.00073C18.4141 7.01317 18.76 7.12091 19.06 7.3127L30.0837 14.3327C30.3649 14.5107 30.5963 14.7569 30.7565 15.0485C30.9167 15.3401 31.0005 15.6675 31 16.0002Z" fill="#4A4A4F"/>
</svg>
