<svg width="32" height="32" viewBox="0 0 32 32" fill="none" xmlns="http://www.w3.org/2000/svg">
<path d="M26.4801 16.8513L19.0063 24.4101C18.8233 24.5953 18.6053 24.7424 18.3649 24.8429C18.1246 24.9433 17.8668 24.995 17.6063 24.9951H9.41507L5.70757 28.7076C5.61466 28.8005 5.50436 28.8742 5.38296 28.9245C5.26157 28.9748 5.13146 29.0006 5.00007 29.0006C4.86867 29.0006 4.73856 28.9748 4.61717 28.9245C4.49578 28.8742 4.38548 28.8005 4.29257 28.7076C4.19966 28.6147 4.12596 28.5044 4.07567 28.383C4.02539 28.2616 3.99951 28.1315 3.99951 28.0001C3.99951 27.8687 4.02539 27.7386 4.07567 27.6172C4.12596 27.4958 4.19966 27.3855 4.29257 27.2926L7.11632 24.4701L15.5876 16.0001H26.1251C26.2236 16.0002 26.3199 16.0295 26.4019 16.0842C26.4838 16.139 26.5478 16.2167 26.5857 16.3076C26.6236 16.3986 26.6338 16.4987 26.615 16.5954C26.5963 16.6922 26.5493 16.7812 26.4801 16.8513ZM27.0876 3.82133C25.5532 2.55862 23.6038 1.91216 21.6189 2.00782C19.6341 2.10348 17.7559 2.93441 16.3501 4.33883L15.1501 5.52383C15.0556 5.61645 15.0016 5.74276 15.0001 5.87508V13.7501L21.8751 6.87508C22.0641 6.69546 22.3159 6.5968 22.5766 6.60014C22.8374 6.60348 23.0865 6.70855 23.2709 6.89295C23.4553 7.07735 23.5604 7.32649 23.5638 7.58726C23.5671 7.84802 23.4684 8.09977 23.2888 8.28883L17.5888 14.0001H28.6363C28.7281 14.0003 28.8182 13.9752 28.8967 13.9276C28.9752 13.8799 29.0391 13.8116 29.0813 13.7301C29.9382 12.1008 30.2077 10.2262 29.8446 8.42154C29.4815 6.61688 28.5079 4.99237 27.0876 3.82133ZM7.85382 20.9038L13.0001 15.7576V8.84508C12.9999 8.74654 12.9706 8.65024 12.9159 8.56828C12.8612 8.48633 12.7835 8.42237 12.6925 8.38444C12.6016 8.34651 12.5014 8.3363 12.4047 8.3551C12.308 8.37389 12.2189 8.42085 12.1488 8.49008L7.58632 13.0001C7.40002 13.1853 7.25228 13.4056 7.15165 13.6483C7.05103 13.8909 6.9995 14.1511 7.00007 14.4138V20.5501C6.99999 20.649 7.02927 20.7458 7.08421 20.8281C7.13914 20.9104 7.21726 20.9745 7.30867 21.0124C7.40008 21.0503 7.50068 21.0602 7.59772 21.0408C7.69476 21.0215 7.78389 20.9738 7.85382 20.9038Z" fill="#4A4A4F"/>
</svg>
