<svg width="32" height="32" viewBox="0 0 32 32" fill="none" xmlns="http://www.w3.org/2000/svg">
<path d="M26.7075 10.2925L19.7075 3.2925C19.6146 3.19967 19.5042 3.12605 19.3829 3.07586C19.2615 3.02568 19.1314 2.9999 19 3H7C6.46957 3 5.96086 3.21071 5.58579 3.58579C5.21071 3.96086 5 4.46957 5 5V14C5 14.2652 5.10536 14.5196 5.29289 14.7071C5.48043 14.8946 5.73478 15 6 15C6.26522 15 6.51957 14.8946 6.70711 14.7071C6.89464 14.5196 7 14.2652 7 14V5H18V11C18 11.2652 18.1054 11.5196 18.2929 11.7071C18.4804 11.8946 18.7348 12 19 12H25V27H22C21.7348 27 21.4804 27.1054 21.2929 27.2929C21.1054 27.4804 21 27.7348 21 28C21 28.2652 21.1054 28.5196 21.2929 28.7071C21.4804 28.8946 21.7348 29 22 29H25C25.5304 29 26.0391 28.7893 26.4142 28.4142C26.7893 28.0391 27 27.5304 27 27V11C27.0001 10.8686 26.9743 10.7385 26.9241 10.6172C26.8739 10.4958 26.8003 10.3854 26.7075 10.2925ZM20 6.41375L23.5863 10H20V6.41375ZM18.4762 24.5387C18.4373 24.9212 18.314 25.2903 18.1154 25.6195C17.9168 25.9487 17.6477 26.2297 17.3275 26.4425C16.6787 26.875 15.875 27 15.1412 27C14.5004 26.9963 13.8625 26.9124 13.2425 26.75C12.9871 26.6786 12.7705 26.5086 12.6404 26.2774C12.5103 26.0463 12.4773 25.7729 12.5487 25.5175C12.6202 25.2621 12.7902 25.0455 13.0213 24.9154C13.2525 24.7853 13.5258 24.7523 13.7812 24.8237C14.3287 24.9737 15.6562 25.1612 16.225 24.7787C16.335 24.705 16.4538 24.5888 16.4925 24.2875C16.535 23.9538 16.4038 23.775 14.895 23.3388C13.7263 23.0013 11.77 22.435 12.02 20.45C12.059 20.0751 12.18 19.7133 12.3744 19.3904C12.5688 19.0674 12.8319 18.7912 13.145 18.5812C14.625 17.5812 16.9838 18.1675 17.2488 18.2362C17.5053 18.3037 17.7246 18.4703 17.8584 18.6995C17.9921 18.9286 18.0293 19.2015 17.9619 19.4581C17.8944 19.7147 17.7278 19.934 17.4986 20.0677C17.2695 20.2015 16.9966 20.2387 16.74 20.1712C16.1788 20.025 14.8362 19.8512 14.2612 20.2412C14.1859 20.2921 14.1238 20.3603 14.0803 20.4401C14.0368 20.52 14.0131 20.6091 14.0112 20.7C13.9962 20.8125 13.9937 20.8363 14.15 20.9375C14.4387 21.1238 14.9563 21.2725 15.4563 21.4175C16.6863 21.7712 18.7562 22.375 18.4762 24.5387ZM10 19V23.75C10 24.612 9.65759 25.4386 9.0481 26.0481C8.4386 26.6576 7.61195 27 6.75 27C5.88805 27 5.0614 26.6576 4.4519 26.0481C3.84241 25.4386 3.5 24.612 3.5 23.75C3.5 23.4848 3.60536 23.2304 3.79289 23.0429C3.98043 22.8554 4.23478 22.75 4.5 22.75C4.76522 22.75 5.01957 22.8554 5.20711 23.0429C5.39464 23.2304 5.5 23.4848 5.5 23.75C5.5 24.0815 5.6317 24.3995 5.86612 24.6339C6.10054 24.8683 6.41848 25 6.75 25C7.08152 25 7.39946 24.8683 7.63388 24.6339C7.8683 24.3995 8 24.0815 8 23.75V19C8 18.7348 8.10536 18.4804 8.29289 18.2929C8.48043 18.1054 8.73478 18 9 18C9.26522 18 9.51957 18.1054 9.70711 18.2929C9.89464 18.4804 10 18.7348 10 19Z" fill="#4A4A4F"/>
</svg>
