<svg width="32" height="32" viewBox="0 0 32 32" fill="none" xmlns="http://www.w3.org/2000/svg">
<path d="M13.8324 18.445C13.7411 18.3078 13.6174 18.1953 13.4721 18.1175C13.3269 18.0397 13.1647 17.999 12.9999 17.999C12.8351 17.999 12.6729 18.0397 12.5277 18.1175C12.3824 18.1953 12.2587 18.3078 12.1674 18.445L9.56115 22.3563L8.34115 20.4587C8.25061 20.3179 8.12613 20.202 7.97915 20.1217C7.83216 20.0415 7.66737 19.9994 7.4999 19.9994C7.33243 19.9994 7.16764 20.0415 7.02065 20.1217C6.87367 20.202 6.74919 20.3179 6.65865 20.4587L2.15865 27.4587C2.0614 27.6098 2.00666 27.7843 2.00017 27.9639C1.99367 28.1434 2.03567 28.3214 2.12175 28.4791C2.20783 28.6368 2.33481 28.7684 2.48934 28.8601C2.64386 28.9517 2.82023 29.0001 2.9999 29H18.9999C19.181 29.0001 19.3587 28.9511 19.5141 28.8581C19.6695 28.7651 19.7967 28.6316 19.8822 28.472C19.9676 28.3123 20.0081 28.1325 19.9994 27.9516C19.9906 27.7707 19.9329 27.5956 19.8324 27.445L13.8324 18.445ZM4.83115 27L7.4999 22.8487L8.70365 24.7237C8.79343 24.8635 8.91661 24.9787 9.06208 25.0589C9.20754 25.1392 9.37069 25.1819 9.53681 25.1833C9.70292 25.1846 9.86676 25.1446 10.0135 25.0668C10.1603 24.9889 10.2853 24.8758 10.3774 24.7375L13.0024 20.8037L17.1312 27H4.83115ZM26.7062 10.2925L19.7062 3.2925C19.5188 3.10532 19.2648 3.00012 18.9999 3H6.9999C6.46947 3 5.96076 3.21071 5.58569 3.58579C5.21061 3.96086 4.9999 4.46957 4.9999 5V17C4.9999 17.2652 5.10526 17.5196 5.29279 17.7071C5.48033 17.8946 5.73468 18 5.9999 18C6.26512 18 6.51947 17.8946 6.70701 17.7071C6.89454 17.5196 6.9999 17.2652 6.9999 17V5H17.9999V11C17.9999 11.2652 18.1053 11.5196 18.2928 11.7071C18.4803 11.8946 18.7347 12 18.9999 12H24.9999V27H23.9999C23.7347 27 23.4803 27.1054 23.2928 27.2929C23.1053 27.4804 22.9999 27.7348 22.9999 28C22.9999 28.2652 23.1053 28.5196 23.2928 28.7071C23.4803 28.8946 23.7347 29 23.9999 29H24.9999C25.5303 29 26.039 28.7893 26.4141 28.4142C26.7892 28.0391 26.9999 27.5304 26.9999 27V11C27 10.8686 26.9742 10.7385 26.924 10.6172C26.8738 10.4958 26.8002 10.3854 26.7074 10.2925H26.7062ZM19.9999 6.41375L23.5862 10H19.9999V6.41375Z" fill="#4A4A4F"/>
</svg>
