<svg width="32" height="32" viewBox="0 0 32 32" fill="none" xmlns="http://www.w3.org/2000/svg">
<path d="M18.4762 24.5387C18.4373 24.9212 18.314 25.2903 18.1154 25.6195C17.9168 25.9487 17.6477 26.2297 17.3275 26.4425C16.6787 26.875 15.875 27 15.1412 27C14.5004 26.9963 13.8625 26.9124 13.2425 26.75C12.9871 26.6786 12.7705 26.5086 12.6404 26.2774C12.5103 26.0463 12.4773 25.7729 12.5487 25.5175C12.6202 25.2621 12.7902 25.0455 13.0213 24.9154C13.2525 24.7853 13.5258 24.7523 13.7812 24.8237C14.3287 24.9737 15.6562 25.1612 16.225 24.7787C16.335 24.705 16.4538 24.5888 16.4925 24.2875C16.535 23.9538 16.4038 23.775 14.895 23.3388C13.7263 23.0013 11.77 22.435 12.02 20.45C12.059 20.0751 12.18 19.7133 12.3744 19.3904C12.5688 19.0674 12.8319 18.7912 13.145 18.5812C14.625 17.5812 16.9838 18.1675 17.2488 18.2362C17.5053 18.3037 17.7246 18.4703 17.8584 18.6995C17.9921 18.9286 18.0293 19.2015 17.9619 19.4581C17.8944 19.7147 17.7278 19.934 17.4986 20.0677C17.2695 20.2015 16.9966 20.2387 16.74 20.1712C16.1788 20.025 14.8362 19.8512 14.2612 20.2412C14.1859 20.2921 14.1238 20.3603 14.0803 20.4401C14.0368 20.52 14.0131 20.6091 14.0112 20.7C13.9962 20.8125 13.9937 20.8363 14.15 20.9375C14.4387 21.1238 14.9563 21.2725 15.4563 21.4175C16.6863 21.7712 18.7562 22.375 18.4762 24.5387ZM27 11V27C27 27.5304 26.7893 28.0391 26.4142 28.4142C26.0391 28.7893 25.5304 29 25 29H22C21.7348 29 21.4804 28.8946 21.2929 28.7071C21.1054 28.5196 21 28.2652 21 28C21 27.7348 21.1054 27.4804 21.2929 27.2929C21.4804 27.1054 21.7348 27 22 27H25V12H19C18.7348 12 18.4804 11.8946 18.2929 11.7071C18.1054 11.5196 18 11.2652 18 11V5H7V14C7 14.2652 6.89464 14.5196 6.70711 14.7071C6.51957 14.8946 6.26522 15 6 15C5.73478 15 5.48043 14.8946 5.29289 14.7071C5.10536 14.5196 5 14.2652 5 14V5C5 4.46957 5.21071 3.96086 5.58579 3.58579C5.96086 3.21071 6.46957 3 7 3H19C19.1314 2.9999 19.2615 3.02568 19.3829 3.07586C19.5042 3.12605 19.6146 3.19967 19.7075 3.2925L26.7075 10.2925C26.8003 10.3854 26.8739 10.4958 26.9241 10.6172C26.9743 10.7385 27.0001 10.8686 27 11ZM20 10H23.5863L20 6.41375V10ZM10 18H5C4.73478 18 4.48043 18.1054 4.29289 18.2929C4.10536 18.4804 4 18.7348 4 19C4 19.2652 4.10536 19.5196 4.29289 19.7071C4.48043 19.8946 4.73478 20 5 20H6.5V26C6.5 26.2652 6.60536 26.5196 6.79289 26.7071C6.98043 26.8946 7.23478 27 7.5 27C7.76522 27 8.01957 26.8946 8.20711 26.7071C8.39464 26.5196 8.5 26.2652 8.5 26V20H10C10.2652 20 10.5196 19.8946 10.7071 19.7071C10.8946 19.5196 11 19.2652 11 19C11 18.7348 10.8946 18.4804 10.7071 18.2929C10.5196 18.1054 10.2652 18 10 18Z" fill="#4A4A4F"/>
</svg>
