<svg width="32" height="32" viewBox="0 0 32 32" fill="none" xmlns="http://www.w3.org/2000/svg">
<path d="M10.9425 19.3363L8.44246 26.3363C8.37314 26.5306 8.24542 26.6987 8.0768 26.8176C7.90817 26.9365 7.7069 27.0003 7.50058 27.0003C7.29427 27.0003 7.093 26.9365 6.92437 26.8176C6.75575 26.6987 6.62803 26.5306 6.55871 26.3363L4.05871 19.3363C4.01455 19.2126 3.99519 19.0814 4.00173 18.9502C4.00827 18.819 4.04058 18.6904 4.09681 18.5718C4.15305 18.4531 4.23212 18.3466 4.32949 18.2585C4.42687 18.1704 4.54065 18.1023 4.66433 18.0581C4.78802 18.014 4.9192 17.9946 5.05037 18.0011C5.18154 18.0077 5.31014 18.04 5.42883 18.0962C5.54751 18.1525 5.65396 18.2315 5.74209 18.3289C5.83022 18.4263 5.8983 18.5401 5.94246 18.6637L7.49996 23.0263L9.05871 18.6637C9.14789 18.4139 9.33265 18.2098 9.57234 18.0962C9.81204 17.9827 10.087 17.9689 10.3368 18.0581C10.5866 18.1473 10.7908 18.3321 10.9044 18.5718C11.0179 18.8115 11.0316 19.0864 10.9425 19.3363ZM26 20C26.2652 20 26.5195 19.8946 26.7071 19.7071C26.8946 19.5196 27 19.2652 27 19C27 18.7348 26.8946 18.4804 26.7071 18.2929C26.5195 18.1054 26.2652 18 26 18H22C21.7347 18 21.4804 18.1054 21.2929 18.2929C21.1053 18.4804 21 18.7348 21 19V26C21 26.2652 21.1053 26.5196 21.2929 26.7071C21.4804 26.8946 21.7347 27 22 27H26C26.2652 27 26.5195 26.8946 26.7071 26.7071C26.8946 26.5196 27 26.2652 27 26C27 25.7348 26.8946 25.4804 26.7071 25.2929C26.5195 25.1054 26.2652 25 26 25H23V23.5H25C25.2652 23.5 25.5195 23.3946 25.7071 23.2071C25.8946 23.0196 26 22.7652 26 22.5C26 22.2348 25.8946 21.9804 25.7071 21.7929C25.5195 21.6054 25.2652 21.5 25 21.5H23V20H26ZM18 18C17.7347 18 17.4804 18.1054 17.2929 18.2929C17.1053 18.4804 17 18.7348 17 19V23.75C17 24.0815 16.8683 24.3995 16.6338 24.6339C16.3994 24.8683 16.0815 25 15.75 25C15.4184 25 15.1005 24.8683 14.8661 24.6339C14.6317 24.3995 14.5 24.0815 14.5 23.75V19C14.5 18.7348 14.3946 18.4804 14.2071 18.2929C14.0195 18.1054 13.7652 18 13.5 18C13.2347 18 12.9804 18.1054 12.7929 18.2929C12.6053 18.4804 12.5 18.7348 12.5 19V23.75C12.5 24.612 12.8424 25.4386 13.4519 26.0481C14.0614 26.6576 14.888 27 15.75 27C16.6119 27 17.4386 26.6576 18.0481 26.0481C18.6576 25.4386 19 24.612 19 23.75V19C19 18.7348 18.8946 18.4804 18.7071 18.2929C18.5195 18.1054 18.2652 18 18 18ZM27 11V14C27 14.2652 26.8946 14.5196 26.7071 14.7071C26.5195 14.8946 26.2652 15 26 15C25.7347 15 25.4804 14.8946 25.2929 14.7071C25.1053 14.5196 25 14.2652 25 14V12H19C18.7347 12 18.4804 11.8946 18.2929 11.7071C18.1053 11.5196 18 11.2652 18 11V5H6.99996V14C6.99996 14.2652 6.8946 14.5196 6.70707 14.7071C6.51953 14.8946 6.26518 15 5.99996 15C5.73474 15 5.48039 14.8946 5.29285 14.7071C5.10532 14.5196 4.99996 14.2652 4.99996 14V5C4.99996 4.46957 5.21067 3.96086 5.58575 3.58579C5.96082 3.21071 6.46953 3 6.99996 3H19C19.1313 2.9999 19.2614 3.02568 19.3828 3.07586C19.5042 3.12605 19.6145 3.19967 19.7075 3.2925L26.7075 10.2925C26.8003 10.3854 26.8739 10.4958 26.9241 10.6172C26.9743 10.7385 27.0001 10.8686 27 11ZM23.5862 10L20 6.41375V10H23.5862Z" fill="#4A4A4F"/>
</svg>
