<svg width="32" height="32" viewBox="0 0 32 32" fill="none" xmlns="http://www.w3.org/2000/svg">
<path d="M27 14V11C27.0001 10.8686 26.9743 10.7385 26.9241 10.6172C26.8739 10.4958 26.8003 10.3854 26.7075 10.2925L19.7075 3.2925C19.6146 3.19967 19.5042 3.12605 19.3829 3.07586C19.2615 3.02568 19.1314 2.9999 19 3H7C6.46957 3 5.96086 3.21071 5.58579 3.58579C5.21071 3.96086 5 4.46957 5 5V14C5 14.2652 5.10536 14.5196 5.29289 14.7071C5.48043 14.8946 5.73478 15 6 15H26C26.2652 15 26.5196 14.8946 26.7071 14.7071C26.8946 14.5196 27 14.2652 27 14ZM19 11V5.5L24.5 11H19ZM16 19C16 19.2652 15.8946 19.5196 15.7071 19.7071C15.5196 19.8946 15.2652 20 15 20H14V26C14 26.2652 13.8946 26.5196 13.7071 26.7071C13.5196 26.8946 13.2652 27 13 27C12.7348 27 12.4804 26.8946 12.2929 26.7071C12.1054 26.5196 12 26.2652 12 26V20H11C10.7348 20 10.4804 19.8946 10.2929 19.7071C10.1054 19.5196 10 19.2652 10 19C10 18.7348 10.1054 18.4804 10.2929 18.2929C10.4804 18.1054 10.7348 18 11 18H15C15.2652 18 15.5196 18.1054 15.7071 18.2929C15.8946 18.4804 16 18.7348 16 19ZM9 19V26C9 26.2652 8.89464 26.5196 8.70711 26.7071C8.51957 26.8946 8.26522 27 8 27C7.73478 27 7.48043 26.8946 7.29289 26.7071C7.10536 26.5196 7 26.2652 7 26V23.5H5V26C5 26.2652 4.89464 26.5196 4.70711 26.7071C4.51957 26.8946 4.26522 27 4 27C3.73478 27 3.48043 26.8946 3.29289 26.7071C3.10536 26.5196 3 26.2652 3 26V19C3 18.7348 3.10536 18.4804 3.29289 18.2929C3.48043 18.1054 3.73478 18 4 18C4.26522 18 4.51957 18.1054 4.70711 18.2929C4.89464 18.4804 5 18.7348 5 19V21.5H7V19C7 18.7348 7.10536 18.4804 7.29289 18.2929C7.48043 18.1054 7.73478 18 8 18C8.26522 18 8.51957 18.1054 8.70711 18.2929C8.89464 18.4804 9 18.7348 9 19ZM31 26C31 26.2652 30.8946 26.5196 30.7071 26.7071C30.5196 26.8946 30.2652 27 30 27H27.5C27.2348 27 26.9804 26.8946 26.7929 26.7071C26.6054 26.5196 26.5 26.2652 26.5 26V19C26.5 18.7348 26.6054 18.4804 26.7929 18.2929C26.9804 18.1054 27.2348 18 27.5 18C27.7652 18 28.0196 18.1054 28.2071 18.2929C28.3946 18.4804 28.5 18.7348 28.5 19V25H30C30.2652 25 30.5196 25.1054 30.7071 25.2929C30.8946 25.4804 31 25.7348 31 26ZM25 19V26C25 26.2652 24.8946 26.5196 24.7071 26.7071C24.5196 26.8946 24.2652 27 24 27C23.7348 27 23.4804 26.8946 23.2929 26.7071C23.1054 26.5196 23 26.2652 23 26V22.61L21.8575 24.515C21.7687 24.6631 21.643 24.7856 21.4927 24.8707C21.3424 24.9558 21.1727 25.0005 21 25.0005C20.8273 25.0005 20.6576 24.9558 20.5073 24.8707C20.357 24.7856 20.2313 24.6631 20.1425 24.515L19 22.61V26C19 26.2652 18.8946 26.5196 18.7071 26.7071C18.5196 26.8946 18.2652 27 18 27C17.7348 27 17.4804 26.8946 17.2929 26.7071C17.1054 26.5196 17 26.2652 17 26V19C16.9999 18.7813 17.0715 18.5685 17.2039 18.3944C17.3362 18.2202 17.522 18.0943 17.7328 18.0358C17.9436 17.9774 18.1677 17.9897 18.3709 18.0708C18.574 18.1519 18.745 18.2974 18.8575 18.485L21 22.0562L23.1425 18.485C23.255 18.2974 23.426 18.1519 23.6291 18.0708C23.8323 17.9897 24.0564 17.9774 24.2672 18.0358C24.478 18.0943 24.6638 18.2202 24.7961 18.3944C24.9285 18.5685 25.0001 18.7813 25 19Z" fill="#4A4A4F"/>
</svg>
