<svg width="32" height="32" viewBox="0 0 32 32" fill="none" xmlns="http://www.w3.org/2000/svg">
<path d="M28.0002 27.0002H22.9202C25.5693 25.3312 27.5267 22.7617 28.4322 19.7644C29.3378 16.7671 29.1306 13.5437 27.8488 10.687C26.567 7.83034 24.2967 5.53258 21.4557 4.21643C18.6147 2.90028 15.394 2.65425 12.386 3.5236C9.37805 4.39296 6.78516 6.31922 5.08431 8.94805C3.38347 11.5769 2.68906 14.7315 3.12884 17.8315C3.56862 20.9315 5.113 23.7685 7.47788 25.8206C9.84277 27.8726 12.8691 29.0017 16.0002 29.0002H28.0002C28.2654 29.0002 28.5198 28.8948 28.7073 28.7073C28.8948 28.5198 29.0002 28.2654 29.0002 28.0002C29.0002 27.735 28.8948 27.4806 28.7073 27.2931C28.5198 27.1056 28.2654 27.0002 28.0002 27.0002ZM10.0002 18.5002C9.50573 18.5002 9.02238 18.3536 8.61126 18.0789C8.20013 17.8042 7.8797 17.4137 7.69048 16.9569C7.50126 16.5001 7.45176 15.9974 7.54822 15.5125C7.64468 15.0275 7.88278 14.5821 8.23242 14.2324C8.58205 13.8828 9.0275 13.6447 9.51246 13.5482C9.99741 13.4518 10.5001 13.5013 10.9569 13.6905C11.4137 13.8797 11.8042 14.2002 12.0789 14.6113C12.3536 15.0224 12.5002 15.5057 12.5002 16.0002C12.5002 16.6632 12.2368 17.2991 11.7679 17.768C11.2991 18.2368 10.6632 18.5002 10.0002 18.5002ZM16.0002 24.5002C15.5057 24.5002 15.0224 24.3536 14.6113 24.0789C14.2001 23.8042 13.8797 23.4137 13.6905 22.9569C13.5013 22.5001 13.4518 21.9974 13.5482 21.5125C13.6447 21.0275 13.8828 20.5821 14.2324 20.2324C14.582 19.8828 15.0275 19.6447 15.5125 19.5482C15.9974 19.4518 16.5001 19.5013 16.9569 19.6905C17.4137 19.8797 17.8042 20.2002 18.0789 20.6113C18.3536 21.0224 18.5002 21.5057 18.5002 22.0002C18.5002 22.6632 18.2368 23.2991 17.7679 23.768C17.2991 24.2368 16.6632 24.5002 16.0002 24.5002ZM16.0002 12.5002C15.5057 12.5002 15.0224 12.3536 14.6113 12.0789C14.2001 11.8042 13.8797 11.4137 13.6905 10.9569C13.5013 10.5001 13.4518 9.99743 13.5482 9.51248C13.6447 9.02752 13.8828 8.58207 14.2324 8.23244C14.582 7.8828 15.0275 7.6447 15.5125 7.54824C15.9974 7.45178 16.5001 7.50128 16.9569 7.6905C17.4137 7.87972 17.8042 8.20015 18.0789 8.61128C18.3536 9.0224 18.5002 9.50575 18.5002 10.0002C18.5002 10.6632 18.2368 11.2991 17.7679 11.768C17.2991 12.2368 16.6632 12.5002 16.0002 12.5002ZM19.5002 16.0002C19.5002 15.5057 19.6468 15.0224 19.9215 14.6113C20.1962 14.2002 20.5867 13.8797 21.0435 13.6905C21.5003 13.5013 22.003 13.4518 22.4879 13.5482C22.9729 13.6447 23.4183 13.8828 23.768 14.2324C24.1176 14.5821 24.3557 15.0275 24.4521 15.5125C24.5486 15.9974 24.4991 16.5001 24.3099 16.9569C24.1207 17.4137 23.8002 17.8042 23.3891 18.0789C22.978 18.3536 22.4946 18.5002 22.0002 18.5002C21.3371 18.5002 20.7013 18.2368 20.2324 17.768C19.7636 17.2991 19.5002 16.6632 19.5002 16.0002Z" fill="#4A4A4F"/>
</svg>
