<svg width="32" height="32" viewBox="0 0 32 32" fill="none" xmlns="http://www.w3.org/2000/svg">
<path d="M27.9999 27.0002H22.9199C25.5691 25.3312 27.5265 22.7617 28.432 19.7644C29.3375 16.7671 29.1304 13.5437 27.8485 10.687C26.5667 7.83034 24.2965 5.53258 21.4555 4.21643C18.6145 2.90028 15.3937 2.65425 12.3858 3.5236C9.37781 4.39296 6.78492 6.31922 5.08407 8.94805C3.38322 11.5769 2.68882 14.7315 3.12859 17.8315C3.56837 20.9315 5.11275 23.7685 7.47764 25.8206C9.84253 27.8726 12.8689 29.0017 15.9999 29.0002H27.9999C28.2652 29.0002 28.5195 28.8948 28.707 28.7073C28.8946 28.5198 28.9999 28.2654 28.9999 28.0002C28.9999 27.735 28.8946 27.4806 28.707 27.2931C28.5195 27.1056 28.2652 27.0002 27.9999 27.0002ZM4.99994 16.0002C4.99994 13.8246 5.64508 11.6979 6.85377 9.88893C8.06247 8.07999 9.78043 6.67009 11.7904 5.83753C13.8004 5.00496 16.0121 4.78713 18.1459 5.21156C20.2797 5.636 22.2397 6.68365 23.7781 8.22203C25.3165 9.76041 26.3641 11.7204 26.7886 13.8542C27.213 15.988 26.9952 18.1997 26.1626 20.2097C25.33 22.2197 23.9202 23.9377 22.1112 25.1464C20.3023 26.3551 18.1755 27.0002 15.9999 27.0002C13.0836 26.9969 10.2876 25.8369 8.22542 23.7747C6.16323 21.7125 5.00325 18.9166 4.99994 16.0002ZM15.9999 13.0002C16.5933 13.0002 17.1733 12.8243 17.6666 12.4946C18.16 12.165 18.5445 11.6964 18.7716 11.1483C18.9986 10.6001 19.0581 9.99687 18.9423 9.41493C18.8265 8.83299 18.5408 8.29844 18.1213 7.87888C17.7017 7.45932 17.1672 7.1736 16.5852 7.05785C16.0033 6.94209 15.4001 7.0015 14.8519 7.22856C14.3037 7.45563 13.8352 7.84014 13.5055 8.33349C13.1759 8.82684 12.9999 9.40686 12.9999 10.0002C12.9999 10.7959 13.316 11.5589 13.8786 12.1215C14.4412 12.6841 15.2043 13.0002 15.9999 13.0002ZM15.9999 9.0002C16.1977 9.0002 16.3911 9.05885 16.5555 9.16873C16.72 9.27861 16.8481 9.43479 16.9238 9.61752C16.9995 9.80024 17.0193 10.0013 16.9807 10.1953C16.9421 10.3893 16.8469 10.5675 16.707 10.7073C16.5672 10.8472 16.389 10.9424 16.195 10.981C16.001 11.0196 15.8 10.9998 15.6173 10.9241C15.4345 10.8484 15.2783 10.7202 15.1685 10.5558C15.0586 10.3913 14.9999 10.198 14.9999 10.0002C14.9999 9.73499 15.1053 9.48063 15.2928 9.2931C15.4804 9.10556 15.7347 9.0002 15.9999 9.0002ZM18.9999 22.0002C18.9999 21.4069 18.824 20.8268 18.4943 20.3335C18.1647 19.8401 17.6962 19.4556 17.148 19.2286C16.5998 19.0015 15.9966 18.9421 15.4147 19.0578C14.8327 19.1736 14.2982 19.4593 13.8786 19.8789C13.4591 20.2984 13.1733 20.833 13.0576 21.4149C12.9418 21.9969 13.0012 22.6001 13.2283 23.1483C13.4554 23.6964 13.8399 24.165 14.3332 24.4946C14.8266 24.8243 15.4066 25.0002 15.9999 25.0002C16.7956 25.0002 17.5587 24.6841 18.1213 24.1215C18.6839 23.5589 18.9999 22.7959 18.9999 22.0002ZM14.9999 22.0002C14.9999 21.8024 15.0586 21.6091 15.1685 21.4446C15.2783 21.2802 15.4345 21.152 15.6173 21.0763C15.8 21.0006 16.001 20.9808 16.195 21.0194C16.389 21.058 16.5672 21.1532 16.707 21.2931C16.8469 21.4329 16.9421 21.6111 16.9807 21.8051C17.0193 21.9991 16.9995 22.2002 16.9238 22.3829C16.8481 22.5656 16.72 22.7218 16.5555 22.8317C16.3911 22.9416 16.1977 23.0002 15.9999 23.0002C15.7347 23.0002 15.4804 22.8948 15.2928 22.7073C15.1053 22.5198 14.9999 22.2654 14.9999 22.0002ZM21.9999 19.0002C22.5933 19.0002 23.1733 18.8243 23.6666 18.4946C24.16 18.165 24.5445 17.6964 24.7716 17.1483C24.9986 16.6001 25.0581 15.9969 24.9423 15.4149C24.8265 14.833 24.5408 14.2984 24.1213 13.8789C23.7017 13.4593 23.1672 13.1736 22.5852 13.0578C22.0033 12.9421 21.4001 13.0015 20.8519 13.2286C20.3037 13.4556 19.8352 13.8401 19.5055 14.3335C19.1759 14.8268 18.9999 15.4069 18.9999 16.0002C18.9999 16.7959 19.316 17.5589 19.8786 18.1215C20.4412 18.6841 21.2043 19.0002 21.9999 19.0002ZM21.9999 15.0002C22.1977 15.0002 22.3911 15.0589 22.5555 15.1687C22.72 15.2786 22.8481 15.4348 22.9238 15.6175C22.9995 15.8002 23.0193 16.0013 22.9807 16.1953C22.9421 16.3893 22.8469 16.5675 22.707 16.7073C22.5672 16.8472 22.389 16.9424 22.195 16.981C22.001 17.0196 21.8 16.9998 21.6173 16.9241C21.4345 16.8484 21.2784 16.7202 21.1685 16.5558C21.0586 16.3913 20.9999 16.198 20.9999 16.0002C20.9999 15.735 21.1053 15.4806 21.2928 15.2931C21.4804 15.1056 21.7347 15.0002 21.9999 15.0002ZM9.99994 13.0002C9.40659 13.0002 8.82657 13.1761 8.33323 13.5058C7.83988 13.8354 7.45536 14.304 7.2283 14.8522C7.00124 15.4003 6.94183 16.0035 7.05758 16.5855C7.17334 17.1674 7.45906 17.702 7.87862 18.1215C8.29818 18.5411 8.83272 18.8268 9.41467 18.9426C9.99661 19.0583 10.5998 18.9989 11.148 18.7718C11.6962 18.5448 12.1647 18.1603 12.4943 17.6669C12.824 17.1736 12.9999 16.5935 12.9999 16.0002C12.9999 15.2046 12.6839 14.4415 12.1213 13.8789C11.5587 13.3163 10.7956 13.0002 9.99994 13.0002ZM9.99994 17.0002C9.80216 17.0002 9.60882 16.9416 9.44437 16.8317C9.27992 16.7218 9.15175 16.5656 9.07606 16.3829C9.00037 16.2002 8.98057 15.9991 9.01915 15.8051C9.05774 15.6111 9.15298 15.4329 9.29283 15.2931C9.43268 15.1532 9.61087 15.058 9.80485 15.0194C9.99883 14.9808 10.1999 15.0006 10.3826 15.0763C10.5653 15.152 10.7215 15.2802 10.8314 15.4446C10.9413 15.6091 10.9999 15.8024 10.9999 16.0002C10.9999 16.2654 10.8946 16.5198 10.707 16.7073C10.5195 16.8948 10.2652 17.0002 9.99994 17.0002Z" fill="#4A4A4F"/>
</svg>
