<svg width="32" height="32" viewBox="0 0 32 32" fill="none" xmlns="http://www.w3.org/2000/svg">
<path d="M22 17.5001C22 17.7967 21.912 18.0868 21.7472 18.3334C21.5824 18.5801 21.3481 18.7724 21.074 18.8859C20.7999 18.9994 20.4983 19.0291 20.2074 18.9712C19.9164 18.9134 19.6491 18.7705 19.4393 18.5607C19.2296 18.351 19.0867 18.0837 19.0288 17.7927C18.971 17.5017 19.0007 17.2001 19.1142 16.926C19.2277 16.652 19.42 16.4177 19.6667 16.2529C19.9133 16.088 20.2033 16.0001 20.5 16.0001C20.8978 16.0001 21.2794 16.1581 21.5607 16.4394C21.842 16.7207 22 17.1022 22 17.5001ZM11.5 16.0001C11.2033 16.0001 10.9133 16.088 10.6667 16.2529C10.42 16.4177 10.2277 16.652 10.1142 16.926C10.0007 17.2001 9.97095 17.5017 10.0288 17.7927C10.0867 18.0837 10.2296 18.351 10.4393 18.5607C10.6491 18.7705 10.9164 18.9134 11.2074 18.9712C11.4983 19.0291 11.7999 18.9994 12.074 18.8859C12.3481 18.7724 12.5824 18.5801 12.7472 18.3334C12.912 18.0868 13 17.7967 13 17.5001C13 17.1022 12.842 16.7207 12.5607 16.4394C12.2794 16.1581 11.8978 16.0001 11.5 16.0001ZM30 8.00007V18.0001C29.9974 20.3862 29.0483 22.6739 27.361 24.3611C25.6738 26.0484 23.3861 26.9974 21 27.0001H11C8.61387 26.9974 6.32622 26.0484 4.63897 24.3611C2.95172 22.6739 2.00265 20.3862 2.00001 18.0001V8.00007C1.99809 7.02512 2.35231 6.08304 2.9961 5.35087C3.63989 4.61871 4.52893 4.14688 5.49611 4.02406C6.46329 3.90125 7.44204 4.1359 8.24839 4.68391C9.05475 5.23193 9.63319 6.05558 9.87501 7.00007H22.125C22.3668 6.05558 22.9453 5.23193 23.7516 4.68391C24.558 4.1359 25.5367 3.90125 26.5039 4.02406C27.4711 4.14688 28.3601 4.61871 29.0039 5.35087C29.6477 6.08304 30.0019 7.02512 30 8.00007ZM25 17.0001C25 15.9392 24.5786 14.9218 23.8284 14.1716C23.0783 13.4215 22.0609 13.0001 21 13.0001H11C9.93914 13.0001 8.92173 13.4215 8.17158 14.1716C7.42143 14.9218 7.00001 15.9392 7.00001 17.0001V18.0001C7.00001 19.0609 7.42143 20.0784 8.17158 20.8285C8.92173 21.5786 9.93914 22.0001 11 22.0001H21C22.0609 22.0001 23.0783 21.5786 23.8284 20.8285C24.5786 20.0784 25 19.0609 25 18.0001V17.0001Z" fill="#4A4A4F"/>
</svg>
