<svg width="32" height="32" viewBox="0 0 32 32" fill="none" xmlns="http://www.w3.org/2000/svg">
<path d="M17.9225 2.23105C17.7992 2.12856 17.6531 2.05721 17.4965 2.02301C17.3399 1.98882 17.1773 1.99278 17.0225 2.03457C16.8678 2.07636 16.7253 2.15474 16.6072 2.26312C16.489 2.3715 16.3987 2.50669 16.3438 2.6573L13.5938 10.2085L10.5737 7.2823C10.4723 7.18393 10.3512 7.10817 10.2184 7.06001C10.0856 7.01185 9.94403 6.99238 9.80313 7.00289C9.66223 7.01341 9.52516 7.05365 9.40095 7.12099C9.27674 7.18833 9.1682 7.28122 9.0825 7.39355C6.375 10.941 5 14.5098 5 17.9998C5 20.9172 6.15893 23.7151 8.22183 25.778C10.2847 27.8409 13.0826 28.9998 16 28.9998C18.9174 28.9998 21.7153 27.8409 23.7782 25.778C25.8411 23.7151 27 20.9172 27 17.9998C27 10.5685 20.6513 4.4998 17.9225 2.23105ZM16 26.9998C13.6139 26.9972 11.3262 26.0481 9.63896 24.3608C7.95171 22.6736 7.00265 20.3859 7 17.9998C7 15.2498 8.01125 12.401 10.0075 9.5198L13.3038 12.7173C13.4235 12.8336 13.5704 12.918 13.7311 12.963C13.8918 13.0079 14.0612 13.0119 14.2238 12.9747C14.3865 12.9374 14.5372 12.86 14.6623 12.7495C14.7874 12.6391 14.8829 12.4991 14.94 12.3423L17.7237 4.70855C20.5262 7.2598 25 12.2385 25 17.9998C24.9974 20.3859 24.0483 22.6736 22.361 24.3608C20.6738 26.0481 18.3861 26.9972 16 26.9998Z" fill="#4A4A4F"/>
</svg>
