<svg width="32" height="32" viewBox="0 0 32 32" fill="none" xmlns="http://www.w3.org/2000/svg">
<path d="M21.0075 9.49235C21.0075 9.78902 20.9195 10.079 20.7547 10.3257C20.5898 10.5724 20.3556 10.7646 20.0815 10.8782C19.8074 10.9917 19.5058 11.0214 19.2148 10.9635C18.9238 10.9057 18.6566 10.7628 18.4468 10.553C18.237 10.3432 18.0942 10.076 18.0363 9.78499C17.9784 9.49402 18.0081 9.19242 18.1216 8.91833C18.2352 8.64424 18.4274 8.40997 18.6741 8.24515C18.9208 8.08033 19.2108 7.99235 19.5075 7.99235C19.9053 7.99235 20.2868 8.15039 20.5681 8.43169C20.8494 8.713 21.0075 9.09453 21.0075 9.49235ZM25.9912 19.6174C23.3962 22.9136 19.26 24.7099 13.69 24.9636L10.94 31.3911C10.863 31.5722 10.7342 31.7266 10.5699 31.8349C10.4056 31.9431 10.213 32.0005 10.0162 31.9999H9.95245C9.74639 31.9869 9.54937 31.9106 9.38845 31.7812C9.22753 31.6518 9.11059 31.4758 9.0537 31.2774L7.20245 24.7961L0.724952 22.9411C0.525916 22.8852 0.349098 22.769 0.218836 22.6084C0.088573 22.4479 0.0112687 22.2509 -0.00243787 22.0447C-0.0161444 21.8384 0.0344207 21.6329 0.142298 21.4565C0.250175 21.2802 0.410062 21.1416 0.599952 21.0599L7.0287 18.3099C7.2787 12.7386 9.07995 8.60235 12.3775 6.0086C17.7787 1.7586 25.4912 3.15485 26.9825 3.47735C27.3581 3.55853 27.7025 3.74624 27.9743 4.01803C28.2461 4.28981 28.4338 4.63416 28.515 5.00985C28.845 6.49985 30.2425 14.2199 25.9912 19.6249V19.6174ZM20.2 21.5761C19.0439 21.1358 18.0372 20.3754 17.2974 19.3839C16.5576 18.3925 16.1154 17.2109 16.0225 15.9774C14.7892 15.8846 13.6078 15.4425 12.6166 14.703C11.6253 13.9634 10.8651 12.9569 10.425 11.8011C9.54995 13.7836 9.07995 16.1899 9.01245 19.0036C9.00779 19.1952 8.94816 19.3814 8.84068 19.5401C8.7332 19.6988 8.58239 19.8232 8.4062 19.8986L3.97995 21.7924L8.28745 23.0261C8.45069 23.0728 8.59935 23.1603 8.71941 23.2804C8.83947 23.4005 8.92698 23.5491 8.9737 23.7124L10.2037 28.0199L12.1012 23.5936C12.1769 23.4168 12.3019 23.2656 12.4613 23.1581C12.6207 23.0506 12.8077 22.9913 13 22.9874C15.81 22.9211 18.2162 22.4486 20.2 21.5761ZM26.5662 5.4336C25.2287 5.1436 18.3162 3.88485 13.62 7.5811C13.028 8.04761 12.4901 8.57882 12.0162 9.16485C11.9682 9.81828 12.0635 10.4743 12.2954 11.0871C12.5273 11.6998 12.8902 12.2546 13.3587 12.7126C13.8273 13.1705 14.3902 13.5206 15.0081 13.7384C15.626 13.9563 16.284 14.0365 16.9362 13.9736C17.0828 13.9597 17.2307 13.9783 17.3692 14.0282C17.5078 14.078 17.6337 14.1579 17.7378 14.262C17.8419 14.3662 17.9218 14.492 17.9716 14.6306C18.0215 14.7691 18.0401 14.917 18.0262 15.0636C17.9632 15.716 18.0436 16.3742 18.2615 16.9924C18.4795 17.6105 18.8298 18.1735 19.2881 18.6421C19.7463 19.1107 20.3014 19.4735 20.9144 19.7052C21.5275 19.937 22.1838 20.032 22.8375 19.9836C23.4227 19.5105 23.953 18.9734 24.4187 18.3824C28.115 13.6861 26.8562 6.77235 26.5662 5.4336Z" fill="#4A4A4F"/>
</svg>
