<svg width="32" height="32" viewBox="0 0 32 32" fill="none" xmlns="http://www.w3.org/2000/svg">
<path d="M28 6.00003V21C27.9992 21.1424 27.968 21.2829 27.9085 21.4123C27.849 21.5416 27.7626 21.6568 27.655 21.75C25.745 23.4038 23.9188 24 22.1775 24C19.8137 24 17.6062 22.9075 15.5525 21.8938C12.2337 20.25 9.34875 18.8263 6 21.4713V27C6 27.2652 5.89464 27.5196 5.70711 27.7071C5.51957 27.8947 5.26522 28 5 28C4.73478 28 4.48043 27.8947 4.29289 27.7071C4.10536 27.5196 4 27.2652 4 27V6.00003C4.00096 5.85756 4.03235 5.71695 4.09206 5.5876C4.15178 5.45826 4.23844 5.34316 4.34625 5.25003C8.84625 1.35253 12.885 3.34878 16.445 5.11003C19.875 6.80753 22.8487 8.27503 26.345 5.25003C26.4895 5.12476 26.6669 5.04355 26.8562 5.01604C27.0454 4.98853 27.2386 5.01587 27.4128 5.0948C27.587 5.17374 27.7349 5.30098 27.839 5.46142C27.943 5.62186 27.9989 5.80879 28 6.00003Z" fill="#4A4A4F"/>
</svg>
