<svg width="32" height="32" viewBox="0 0 32 32" fill="none" xmlns="http://www.w3.org/2000/svg">
<path d="M30.7288 15.2037C30.6013 14.9796 30.4303 14.7832 30.226 14.6259C30.0217 14.4686 29.7881 14.3535 29.5388 14.2875C28.6345 14.0548 27.7 13.9612 26.7676 14.01C27.2676 11.5288 26.8926 9.56625 26.5176 8.4025C26.3646 7.92452 26.0393 7.52054 25.6049 7.26917C25.1706 7.01779 24.6582 6.93699 24.1676 7.0425C22.8956 7.32579 21.6861 7.83923 20.5988 8.5575C19.8025 6.9308 18.6431 5.50881 17.2101 4.40125C16.8628 4.14079 16.4404 4 16.0063 4C15.5722 4 15.1498 4.14079 14.8026 4.40125C13.3673 5.5081 12.2057 6.93015 11.4076 8.5575C10.3203 7.83923 9.11079 7.32579 7.83881 7.0425C7.3483 6.93646 6.83587 7.01704 6.40157 7.26851C5.96727 7.51999 5.64229 7.92429 5.49006 8.4025C5.11506 9.56625 4.74006 11.5275 5.23256 14.01C4.30008 13.9612 3.36561 14.0548 2.46132 14.2875C2.21205 14.3535 1.97844 14.4686 1.77412 14.6259C1.5698 14.7832 1.39887 14.9796 1.27132 15.2037C1.13799 15.4332 1.05164 15.6868 1.01731 15.9499C0.982969 16.213 1.00133 16.4803 1.07132 16.7362C1.49507 18.3088 2.79631 21.2975 6.73757 23.6525C10.6788 26.0075 14.1413 26 16.0063 26C17.8713 26 21.3401 26 25.2563 23.6525C29.1976 21.2975 30.4988 18.3088 30.9226 16.7362C30.9935 16.4807 31.0129 16.2136 30.9796 15.9505C30.9464 15.6874 30.8611 15.4336 30.7288 15.2037ZM7.76256 21.9363C4.43381 19.9463 3.35257 17.5062 3.00007 16.2125C3.91974 15.9854 4.87429 15.9358 5.81256 16.0662C6.12581 16.9053 6.50839 17.7169 6.95632 18.4925C8.05614 20.3887 9.49701 22.0652 11.2063 23.4375C9.99763 23.09 8.83982 22.5853 7.76256 21.9363ZM16.0001 23.8C14.8338 22.9325 12.0001 20.2712 12.0001 14.8962C12.0001 9.5875 14.7976 6.905 16.0001 6C17.2026 6.9075 20.0001 9.59 20.0001 14.8988C20.0001 20.2712 17.1663 22.9325 16.0001 23.8ZM29.0001 16.215C28.6538 17.495 27.5751 19.9413 24.2388 21.9363C23.1615 22.5848 22.0037 23.0891 20.7951 23.4363C22.5044 22.0639 23.9452 20.3874 25.0451 18.4912C25.493 17.7156 25.8756 16.9041 26.1888 16.065C27.1268 15.9357 28.0809 15.9862 29.0001 16.2138V16.215Z" fill="#4A4A4F"/>
</svg>
