<svg width="32" height="32" viewBox="0 0 32 32" fill="none" xmlns="http://www.w3.org/2000/svg">
<path d="M28 20H27V19.5C27 18.5717 26.6313 17.6815 25.9749 17.0251C25.3185 16.3687 24.4283 16 23.5 16C22.5717 16 21.6815 16.3687 21.0251 17.0251C20.3687 17.6815 20 18.5717 20 19.5V20H19C18.7348 20 18.4804 20.1054 18.2929 20.2929C18.1054 20.4804 18 20.7348 18 21V26C18 26.2652 18.1054 26.5196 18.2929 26.7071C18.4804 26.8946 18.7348 27 19 27H28C28.2652 27 28.5196 26.8946 28.7071 26.7071C28.8946 26.5196 29 26.2652 29 26V21C29 20.7348 28.8946 20.4804 28.7071 20.2929C28.5196 20.1054 28.2652 20 28 20ZM25 20H22V19.5C22 19.1022 22.158 18.7206 22.4393 18.4393C22.7206 18.158 23.1022 18 23.5 18C23.8978 18 24.2794 18.158 24.5607 18.4393C24.842 18.7206 25 19.1022 25 19.5V20ZM29 11V13C29 13.2652 28.8946 13.5196 28.7071 13.7071C28.5196 13.8946 28.2652 14 28 14C27.7348 14 27.4804 13.8946 27.2929 13.7071C27.1054 13.5196 27 13.2652 27 13V11H16.3337C15.9012 10.9989 15.4804 10.8587 15.1337 10.6L11.6663 8H5V25H14C14.2652 25 14.5196 25.1054 14.7071 25.2929C14.8946 25.4804 15 25.7348 15 26C15 26.2652 14.8946 26.5196 14.7071 26.7071C14.5196 26.8946 14.2652 27 14 27H5C4.46957 27 3.96086 26.7893 3.58579 26.4142C3.21071 26.0391 3 25.5304 3 25V8C3 7.46957 3.21071 6.96086 3.58579 6.58579C3.96086 6.21071 4.46957 6 5 6H11.6663C12.0988 6.00107 12.5196 6.14132 12.8663 6.4L16.3337 9H27C27.5304 9 28.0391 9.21071 28.4142 9.58579C28.7893 9.96086 29 10.4696 29 11Z" fill="#4A4A4F"/>
</svg>
