<svg width="32" height="32" viewBox="0 0 32 32" fill="none" xmlns="http://www.w3.org/2000/svg">
<path d="M26.0076 23H19.0001C18.7349 23 18.4805 23.1054 18.293 23.2929C18.1055 23.4804 18.0001 23.7348 18.0001 24V25.5C18.0001 26.6943 18.4745 27.8397 19.319 28.6842C20.1635 29.5287 21.3089 30.0031 22.5032 30.0031C23.6975 30.0031 24.8429 29.5287 25.6874 28.6842C26.5319 27.8397 27.0064 26.6943 27.0064 25.5V24C27.0064 23.735 26.9012 23.4808 26.7139 23.2933C26.5266 23.1058 26.2726 23.0003 26.0076 23ZM25.0076 25.5C25.0076 26.163 24.7442 26.7989 24.2754 27.2678C23.8065 27.7366 23.1707 28 22.5076 28C21.8446 28 21.2087 27.7366 20.7398 27.2678C20.271 26.7989 20.0076 26.163 20.0076 25.5V25H25.0076V25.5ZM13.0001 20H6.00011C5.73489 20 5.48054 20.1054 5.293 20.2929C5.10547 20.4804 5.00011 20.7348 5.00011 21V22.5C5.00011 23.6935 5.47421 24.8381 6.31813 25.682C7.16204 26.5259 8.30663 27 9.50011 27C10.6936 27 11.8382 26.5259 12.6821 25.682C13.526 24.8381 14.0001 23.6935 14.0001 22.5V21C14.0001 20.7348 13.8948 20.4804 13.7072 20.2929C13.5197 20.1054 13.2653 20 13.0001 20ZM12.0001 22.5C12.0001 23.163 11.7367 23.7989 11.2679 24.2678C10.799 24.7366 10.1631 25 9.50011 25C8.83707 25 8.20118 24.7366 7.73234 24.2678C7.2635 23.7989 7.00011 23.163 7.00011 22.5V22H12.0001V22.5ZM9.50011 2C8.04511 2 6.63386 3.28875 5.52511 5.625C3.78386 9.2975 3.20511 14.75 5.56136 17.625C5.65531 17.7397 5.77359 17.832 5.90763 17.8954C6.04166 17.9587 6.18811 17.9915 6.33636 17.9912H12.6551C12.8034 17.9915 12.9498 17.9587 13.0838 17.8954C13.2179 17.832 13.3362 17.7397 13.4301 17.625C15.7864 14.75 15.2076 9.29375 13.4664 5.625C12.3564 3.28875 10.9464 2 9.50011 2ZM12.1439 16H6.84761C5.42261 13.7375 5.94636 9.4125 7.33386 6.48625C8.14261 4.7775 9.02136 4 9.50011 4C9.97886 4 10.8526 4.7775 11.6626 6.48625C13.0451 9.4125 13.5689 13.7375 12.1439 16ZM19.3451 21H25.6639C25.8121 21.0002 25.9586 20.9675 26.0926 20.9041C26.2266 20.8408 26.3449 20.7484 26.4389 20.6338C28.7951 17.7588 28.2164 12.3025 26.4751 8.63375C25.3664 6.28875 23.9551 5 22.5001 5C21.0451 5 19.6389 6.28875 18.5289 8.625C16.7876 12.2975 16.2089 17.75 18.5651 20.625C18.659 20.7416 18.7778 20.8358 18.9127 20.9006C19.0477 20.9655 19.1954 20.9995 19.3451 21ZM20.3451 9.48625C21.1526 7.7775 22.0314 7 22.5001 7C22.9689 7 23.8526 7.7775 24.6614 9.48625C26.0489 12.4125 26.5726 16.7362 25.1489 19H19.8564C18.4314 16.7375 18.9551 12.4125 20.3426 9.48625H20.3451Z" fill="#4A4A4F"/>
</svg>
