<svg width="32" height="32" viewBox="0 0 32 32" fill="none" xmlns="http://www.w3.org/2000/svg">
<path d="M27 5H5C4.46957 5 3.96086 5.21071 3.58579 5.58579C3.21071 5.96086 3 6.46957 3 7V25C3 25.5304 3.21071 26.0391 3.58579 26.4142C3.96086 26.7893 4.46957 27 5 27H27C27.5304 27 28.0391 26.7893 28.4142 26.4142C28.7893 26.0391 29 25.5304 29 25V7C29 6.46957 28.7893 5.96086 28.4142 5.58579C28.0391 5.21071 27.5304 5 27 5ZM11 24H7C6.73478 24 6.48043 23.8946 6.29289 23.7071C6.10536 23.5196 6 23.2652 6 23V19C6 18.7348 6.10536 18.4804 6.29289 18.2929C6.48043 18.1054 6.73478 18 7 18C7.26522 18 7.51957 18.1054 7.70711 18.2929C7.89464 18.4804 8 18.7348 8 19V22H11C11.2652 22 11.5196 22.1054 11.7071 22.2929C11.8946 22.4804 12 22.7348 12 23C12 23.2652 11.8946 23.5196 11.7071 23.7071C11.5196 23.8946 11.2652 24 11 24ZM26 13C26 13.2652 25.8946 13.5196 25.7071 13.7071C25.5196 13.8946 25.2652 14 25 14C24.7348 14 24.4804 13.8946 24.2929 13.7071C24.1054 13.5196 24 13.2652 24 13V10H21C20.7348 10 20.4804 9.89464 20.2929 9.70711C20.1054 9.51957 20 9.26522 20 9C20 8.73478 20.1054 8.48043 20.2929 8.29289C20.4804 8.10536 20.7348 8 21 8H25C25.2652 8 25.5196 8.10536 25.7071 8.29289C25.8946 8.48043 26 8.73478 26 9V13Z" fill="#4A4A4F"/>
</svg>
