<svg width="32" height="32" viewBox="0 0 32 32" fill="none" xmlns="http://www.w3.org/2000/svg">
<path d="M28.825 6.19128C28.6711 5.83567 28.416 5.53315 28.0915 5.32135C27.767 5.10955 27.3875 4.99781 27 5.00003H4.99997C4.61288 5.0008 4.23433 5.11387 3.91025 5.32554C3.58616 5.53721 3.33047 5.83838 3.17418 6.19251C3.01789 6.54664 2.96772 6.93852 3.02977 7.3206C3.09181 7.70268 3.2634 8.05855 3.52372 8.34503L3.53372 8.35628L12 17.3963V27C11.9999 27.362 12.098 27.7172 12.284 28.0278C12.4699 28.3384 12.7366 28.5927 13.0557 28.7636C13.3748 28.9345 13.7343 29.0156 14.0958 28.9982C14.4574 28.9808 14.8075 28.8657 15.1087 28.665L19.1087 25.9975C19.3829 25.8149 19.6078 25.5673 19.7632 25.2769C19.9187 24.9864 20 24.662 20 24.3325V17.3963L28.4675 8.35628L28.4775 8.34503C28.7405 8.05986 28.9138 7.70352 28.9756 7.32049C29.0374 6.93747 28.985 6.54472 28.825 6.19128ZM18.5425 16.035C18.1951 16.4033 18.0011 16.89 18 17.3963V24.3325L14 27V17.3963C14.0011 16.8882 13.8079 16.399 13.46 16.0288L4.99997 7.00003H27L18.5425 16.035Z" fill="#4A4A4F"/>
</svg>
