<svg width="32" height="32" viewBox="0 0 32 32" fill="none" xmlns="http://www.w3.org/2000/svg">
<path d="M21.9998 14H18.9998C18.7346 14 18.4802 13.8946 18.2927 13.7071C18.1052 13.5196 17.9998 13.2652 17.9998 13C17.9998 12.7348 18.1052 12.4804 18.2927 12.2929C18.4802 12.1054 18.7346 12 18.9998 12H21.9998C22.265 12 22.5194 12.1054 22.7069 12.2929C22.8944 12.4804 22.9998 12.7348 22.9998 13C22.9998 13.2652 22.8944 13.5196 22.7069 13.7071C22.5194 13.8946 22.265 14 21.9998 14ZM12.9998 12H11.9998V11C11.9998 10.7348 11.8944 10.4804 11.7069 10.2929C11.5194 10.1054 11.265 10 10.9998 10C10.7346 10 10.4802 10.1054 10.2927 10.2929C10.1052 10.4804 9.9998 10.7348 9.9998 11V12H8.9998C8.73458 12 8.48023 12.1054 8.29269 12.2929C8.10516 12.4804 7.9998 12.7348 7.9998 13C7.9998 13.2652 8.10516 13.5196 8.29269 13.7071C8.48023 13.8946 8.73458 14 8.9998 14H9.9998V15C9.9998 15.2652 10.1052 15.5196 10.2927 15.7071C10.4802 15.8946 10.7346 16 10.9998 16C11.265 16 11.5194 15.8946 11.7069 15.7071C11.8944 15.5196 11.9998 15.2652 11.9998 15V14H12.9998C13.265 14 13.5194 13.8946 13.7069 13.7071C13.8944 13.5196 13.9998 13.2652 13.9998 13C13.9998 12.7348 13.8944 12.4804 13.7069 12.2929C13.5194 12.1054 13.265 12 12.9998 12ZM30.1848 25.0812C29.8079 25.6194 29.3178 26.0686 28.7488 26.3971C28.1798 26.7256 27.5457 26.9255 26.8912 26.9828C26.2367 27.0401 25.5776 26.9534 24.9601 26.7288C24.3427 26.5041 23.782 26.147 23.3173 25.6825C23.3023 25.6675 23.2873 25.6525 23.2736 25.6362L18.3098 20H13.6848L8.72605 25.6362L8.6823 25.6825C7.83755 26.5254 6.69316 26.9992 5.4998 27C4.84285 26.9998 4.19392 26.8557 3.59859 26.5779C3.00326 26.3001 2.47598 25.8953 2.05378 25.392C1.63159 24.8886 1.32471 24.299 1.15472 23.6644C0.984733 23.0298 0.955746 22.3657 1.0698 21.7188C1.0692 21.7129 1.0692 21.7071 1.0698 21.7013L3.11605 11.19C3.42059 9.45634 4.32637 7.88546 5.67425 6.75339C7.02212 5.62133 8.72584 5.0005 10.4861 5H21.4998C23.2547 5.0028 24.9532 5.62008 26.3004 6.74466C27.6476 7.86924 28.5585 9.4301 28.8748 11.1562C28.8748 11.1638 28.8748 11.1712 28.8748 11.1788L30.9211 21.7C30.9217 21.7058 30.9217 21.7117 30.9211 21.7175C31.027 22.299 31.0164 22.8958 30.89 23.4732C30.7636 24.0506 30.5239 24.5971 30.1848 25.0812ZM21.4998 18C22.9585 18 24.3574 17.4205 25.3889 16.3891C26.4203 15.3576 26.9998 13.9587 26.9998 12.5C26.9998 11.0413 26.4203 9.64236 25.3889 8.61091C24.3574 7.57946 22.9585 7 21.4998 7H10.4861C9.19474 7.00116 7.9452 7.45767 6.95727 8.28922C5.96933 9.12076 5.30629 10.2741 5.0848 11.5463V11.5625L3.0373 22.0737C2.9468 22.5949 3.0239 23.1313 3.25752 23.6058C3.49115 24.0803 3.86925 24.4685 4.33744 24.7145C4.80564 24.9606 5.33982 25.0518 5.86313 24.9751C6.38645 24.8983 6.87195 24.6576 7.2498 24.2875L12.4898 18.3388C12.5836 18.2323 12.699 18.1471 12.8283 18.0886C12.9577 18.0302 13.0979 18 13.2398 18H21.4998ZM28.9623 22.0737L27.8698 16.4487C27.1979 17.5337 26.2602 18.4293 25.1455 19.0508C24.0308 19.6722 22.776 19.9989 21.4998 20H20.9748L24.7498 24.2887C25.0344 24.5656 25.3806 24.771 25.76 24.8881C26.1394 25.0052 26.5412 25.0307 26.9323 24.9625C27.5839 24.8475 28.1633 24.4788 28.5436 23.9374C28.9239 23.3959 29.074 22.7257 28.9611 22.0737H28.9623Z" fill="#4A4A4F"/>
</svg>
