<svg width="32" height="32" viewBox="0 0 32 32" fill="none" xmlns="http://www.w3.org/2000/svg">
<path d="M25.8825 10.0838C24.5862 8.78462 23.0456 7.75489 21.3495 7.05399C19.6534 6.3531 17.8352 5.9949 16 6.00005H15.95C8.25875 6.0263 2 12.3751 2 20.1413V23.0001C2 23.5305 2.21071 24.0392 2.58579 24.4143C2.96086 24.7893 3.46957 25.0001 4 25.0001H28C28.5304 25.0001 29.0391 24.7893 29.4142 24.4143C29.7893 24.0392 30 23.5305 30 23.0001V20.0001C30.0051 18.1568 29.6438 16.3309 28.9369 14.6285C28.23 12.9261 27.1918 11.3813 25.8825 10.0838ZM28 23.0001H14.9637L21.8088 13.5876C21.9649 13.3731 22.0294 13.1053 21.9882 12.8432C21.9469 12.5812 21.8032 12.3462 21.5888 12.1901C21.3743 12.0339 21.1065 11.9694 20.8444 12.0106C20.5824 12.0519 20.3474 12.1956 20.1912 12.4101L12.49 23.0001H4V20.1413C4 19.7563 4.01875 19.3763 4.05375 19.0001H7C7.26522 19.0001 7.51957 18.8947 7.70711 18.7072C7.89464 18.5196 8 18.2653 8 18.0001C8 17.7348 7.89464 17.4805 7.70711 17.2929C7.51957 17.1054 7.26522 17.0001 7 17.0001H4.40875C5.69875 12.1426 9.90875 8.47005 15 8.04255V11.0001C15 11.2653 15.1054 11.5196 15.2929 11.7072C15.4804 11.8947 15.7348 12.0001 16 12.0001C16.2652 12.0001 16.5196 11.8947 16.7071 11.7072C16.8946 11.5196 17 11.2653 17 11.0001V8.04131C19.4808 8.25008 21.8356 9.22418 23.7389 10.829C25.6422 12.4338 27.0001 14.5902 27.625 17.0001H25C24.7348 17.0001 24.4804 17.1054 24.2929 17.2929C24.1054 17.4805 24 17.7348 24 18.0001C24 18.2653 24.1054 18.5196 24.2929 18.7072C24.4804 18.8947 24.7348 19.0001 25 19.0001H27.9587C27.985 19.3313 28 19.6638 28 20.0001V23.0001Z" fill="#4A4A4F"/>
</svg>
