<svg width="32" height="32" viewBox="0 0 32 32" fill="none" xmlns="http://www.w3.org/2000/svg">
<path d="M29 15H27.9575C27.8406 13.574 27.4671 12.1808 26.855 10.8875L27.7588 10.3663C27.9885 10.2336 28.1561 10.0152 28.2248 9.75898C28.2935 9.50276 28.2576 9.22974 28.125 9C27.9924 8.77026 27.7739 8.6026 27.5177 8.53392C27.2615 8.46523 26.9885 8.50114 26.7588 8.63375L25.8525 9.1575C25.0345 7.98452 24.0155 6.96548 22.8425 6.1475L23.3662 5.24125C23.4989 5.01151 23.5348 4.73849 23.4661 4.48227C23.3974 4.22605 23.2297 4.00761 23 3.875C22.7703 3.74239 22.4972 3.70648 22.241 3.77517C21.9848 3.84385 21.7664 4.01151 21.6338 4.24125L21.1125 5.145C19.8192 4.53292 18.426 4.15943 17 4.0425V3C17 2.73478 16.8946 2.48043 16.7071 2.29289C16.5196 2.10536 16.2652 2 16 2C15.7348 2 15.4804 2.10536 15.2929 2.29289C15.1054 2.48043 15 2.73478 15 3V4.0425C13.574 4.15943 12.1808 4.53292 10.8875 5.145L10.3663 4.24125C10.2336 4.01151 10.0152 3.84385 9.75898 3.77517C9.50276 3.70648 9.22974 3.74239 9 3.875C8.77026 4.00761 8.6026 4.22605 8.53392 4.48227C8.46523 4.73849 8.50114 5.01151 8.63375 5.24125L9.1575 6.1475C7.98452 6.96548 6.96548 7.98452 6.1475 9.1575L5.24125 8.63375C5.12749 8.56809 5.00192 8.52548 4.87169 8.50835C4.74146 8.49122 4.60914 8.49991 4.48227 8.53392C4.22605 8.6026 4.00761 8.77026 3.875 9C3.74239 9.22974 3.70648 9.50276 3.77517 9.75898C3.84385 10.0152 4.01151 10.2336 4.24125 10.3663L5.145 10.8875C4.53292 12.1808 4.15943 13.574 4.0425 15H3C2.73478 15 2.48043 15.1054 2.29289 15.2929C2.10536 15.4804 2 15.7348 2 16C2 16.2652 2.10536 16.5196 2.29289 16.7071C2.48043 16.8946 2.73478 17 3 17H4.0425C4.15943 18.426 4.53292 19.8192 5.145 21.1125L4.24125 21.6338C4.0505 21.7438 3.90139 21.9137 3.81707 22.1171C3.73275 22.3205 3.71794 22.5461 3.77493 22.7588C3.83191 22.9715 3.95752 23.1594 4.13224 23.2935C4.30697 23.4275 4.52104 23.5001 4.74125 23.5C4.91683 23.5005 5.08939 23.4544 5.24125 23.3662L6.1475 22.8425C6.96548 24.0155 7.98452 25.0345 9.1575 25.8525L8.63375 26.7588C8.50114 26.9885 8.46523 27.2615 8.53392 27.5177C8.6026 27.7739 8.77026 27.9924 9 28.125C9.22974 28.2576 9.50276 28.2935 9.75898 28.2248C10.0152 28.1561 10.2336 27.9885 10.3663 27.7588L10.8875 26.855C12.1808 27.4671 13.574 27.8406 15 27.9575V29C15 29.2652 15.1054 29.5196 15.2929 29.7071C15.4804 29.8946 15.7348 30 16 30C16.2652 30 16.5196 29.8946 16.7071 29.7071C16.8946 29.5196 17 29.2652 17 29V27.9575C18.426 27.8406 19.8192 27.4671 21.1125 26.855L21.6338 27.7588C21.7664 27.9885 21.9848 28.1561 22.241 28.2248C22.4972 28.2935 22.7703 28.2576 23 28.125C23.2297 27.9924 23.3974 27.774 23.4661 27.5177C23.5348 27.2615 23.4989 26.9885 23.3662 26.7588L22.8425 25.8525C24.0155 25.0345 25.0345 24.0155 25.8525 22.8425L26.7588 23.3662C26.8725 23.4319 26.9981 23.4746 27.1283 23.4917C27.2585 23.5089 27.3909 23.5002 27.5177 23.4662C27.6446 23.4321 27.7636 23.3735 27.8677 23.2935C27.9719 23.2135 28.0594 23.1138 28.125 23C28.2578 22.7704 28.2939 22.4975 28.2254 22.2413C28.157 21.9851 27.9896 21.7665 27.76 21.6338L26.8563 21.1125C27.4683 19.8192 27.8418 18.426 27.9587 17H29C29.2652 17 29.5196 16.8946 29.7071 16.7071C29.8946 16.5196 30 16.2652 30 16C30 15.7348 29.8946 15.4804 29.7071 15.2929C29.5196 15.1054 29.2652 15 29 15ZM9 16C8.99948 14.9406 9.2398 13.895 9.70279 12.9422C10.1658 11.9894 10.8393 11.1543 11.6725 10.5L14.845 16L11.6725 21.5C10.8393 20.8457 10.1658 20.0106 9.70279 19.0578C9.2398 18.105 8.99948 17.0594 9 16ZM16 23C15.1102 23.0009 14.2284 22.8312 13.4025 22.5L16.5775 17H22.9275C22.6848 18.6649 21.8516 20.187 20.5798 21.2885C19.308 22.39 17.6825 22.9975 16 23ZM16.5775 15L13.4025 9.5C14.3858 9.10719 15.4454 8.94256 16.5015 9.01852C17.5576 9.09447 18.5828 9.40903 19.4997 9.93851C20.4167 10.468 21.2016 11.1986 21.7953 12.0753C22.3891 12.952 22.7762 13.952 22.9275 15H16.5775Z" fill="#4A4A4F"/>
</svg>
