<svg width="32" height="32" viewBox="0 0 32 32" fill="none" xmlns="http://www.w3.org/2000/svg">
<path d="M26 12.9999C26 11.0647 25.4385 9.17111 24.3835 7.54875C23.3286 5.92639 21.8257 4.64497 20.0569 3.85989C18.2881 3.07481 16.3295 2.81981 14.4187 3.12582C12.5079 3.43182 10.7269 4.28569 9.29175 5.58385C7.8566 6.88201 6.82894 8.5687 6.33341 10.4394C5.83788 12.31 5.89576 14.2843 6.50005 16.1227C7.10434 17.9611 8.22906 19.5846 9.73781 20.7965C11.2466 22.0083 13.0745 22.7564 15 22.9499V28.9999C15 29.2651 15.1054 29.5195 15.2929 29.707C15.4804 29.8945 15.7348 29.9999 16 29.9999C16.2652 29.9999 16.5196 29.8945 16.7071 29.707C16.8946 29.5195 17 29.2651 17 28.9999V22.9499C19.4654 22.699 21.7503 21.5428 23.4127 19.705C25.0751 17.8671 25.997 15.4781 26 12.9999ZM16 20.9999C14.4177 20.9999 12.871 20.5307 11.5554 19.6516C10.2398 18.7726 9.21447 17.5232 8.60896 16.0613C8.00346 14.5995 7.84504 12.991 8.15372 11.4392C8.4624 9.88731 9.22433 8.46185 10.3431 7.34303C11.462 6.22421 12.8874 5.46228 14.4393 5.1536C15.9911 4.84492 17.5997 5.00334 19.0615 5.60884C20.5233 6.21434 21.7727 7.23973 22.6518 8.55532C23.5308 9.87091 24 11.4176 24 12.9999C23.9977 15.1209 23.1541 17.1544 21.6543 18.6542C20.1545 20.154 18.121 20.9976 16 20.9999Z" fill="#4A4A4F"/>
</svg>
