<svg width="32" height="32" viewBox="0 0 32 32" fill="none" xmlns="http://www.w3.org/2000/svg">
<path d="M15.99 18.75C16.0392 19.3619 15.8995 19.9741 15.5897 20.5041C15.28 21.0341 14.8151 21.4563 14.2579 21.7137C13.7006 21.9712 13.0778 22.0515 12.4735 21.9439C11.8691 21.8362 11.3124 21.5457 10.8783 21.1117C10.4443 20.6776 10.1538 20.1209 10.0461 19.5165C9.93848 18.9122 10.0188 18.2894 10.2763 17.7321C10.5337 17.1749 10.9559 16.71 11.4859 16.4003C12.0159 16.0905 12.6281 15.9508 13.24 16C13.9503 16.0571 14.6171 16.3652 15.121 16.869C15.6248 17.3729 15.9329 18.0397 15.99 18.75ZM27 5V27C27 27.5304 26.7893 28.0391 26.4142 28.4142C26.0391 28.7893 25.5304 29 25 29H7C6.46957 29 5.96086 28.7893 5.58579 28.4142C5.21071 28.0391 5 27.5304 5 27V5C5 4.46957 5.21071 3.96086 5.58579 3.58579C5.96086 3.21071 6.46957 3 7 3H25C25.5304 3 26.0391 3.21071 26.4142 3.58579C26.7893 3.96086 27 4.46957 27 5ZM24 9C24 8.73478 23.8946 8.48043 23.7071 8.29289C23.5196 8.10536 23.2652 8 23 8H19.5338C19.2753 7.99589 19.0248 8.08997 18.833 8.26326C18.6411 8.43656 18.5221 8.67617 18.5 8.93375C18.4909 9.07054 18.5101 9.20773 18.5562 9.33681C18.6024 9.46589 18.6746 9.58409 18.7684 9.68409C18.8622 9.78408 18.9755 9.86372 19.1014 9.91807C19.2272 9.97241 19.3629 10.0003 19.5 10H20.5863L18.5 12.0863L17.2075 10.7925C17.1128 10.6977 17 10.623 16.8758 10.5727C16.7516 10.5224 16.6186 10.4975 16.4846 10.4996C16.3506 10.5017 16.2185 10.5307 16.0959 10.5849C15.9734 10.6391 15.863 10.7173 15.7712 10.815C15.5949 11.0128 15.5017 11.2711 15.5113 11.5359C15.5208 11.8008 15.6323 12.0517 15.8225 12.2362L17.0863 13.5L15.75 14.83C14.716 14.1478 13.4657 13.8738 12.2412 14.0609C11.0167 14.248 9.90522 14.883 9.12219 15.8428C8.33915 16.8027 7.94029 18.019 8.00288 19.2561C8.06546 20.4933 8.58505 21.6631 9.46096 22.539C10.3369 23.4149 11.5067 23.9345 12.7439 23.9971C13.981 24.0597 15.1973 23.6608 16.1572 22.8778C17.117 22.0948 17.752 20.9833 17.9391 19.7588C18.1262 18.5343 17.8522 17.284 17.17 16.25L18.5 14.9137L19.7925 16.2075C19.8897 16.3047 20.0059 16.3807 20.1339 16.431C20.2618 16.4812 20.3987 16.5045 20.5361 16.4995C20.6734 16.4945 20.8083 16.4612 20.9322 16.4017C21.0561 16.3422 21.1664 16.2578 21.2563 16.1537C21.4203 15.9553 21.5036 15.7024 21.4897 15.4454C21.4758 15.1883 21.3657 14.9458 21.1812 14.7662L19.9137 13.5L22 11.4137V12.4663C21.9968 12.7242 22.0913 12.9739 22.2645 13.1651C22.4376 13.3564 22.6767 13.4751 22.9338 13.4975C23.0705 13.5066 23.2077 13.4874 23.3368 13.4413C23.4659 13.3951 23.5841 13.3229 23.6841 13.2291C23.7841 13.1353 23.8637 13.022 23.9181 12.8961C23.9724 12.7703 24.0003 12.6346 24 12.4975V9Z" fill="#4A4A4F"/>
</svg>
