<svg width="32" height="32" viewBox="0 0 32 32" fill="none" xmlns="http://www.w3.org/2000/svg">
<path d="M19 17.5C19 18.39 18.7361 19.26 18.2416 20.0001C17.7471 20.7401 17.0443 21.3169 16.2221 21.6575C15.3998 21.9981 14.495 22.0872 13.6221 21.9135C12.7492 21.7399 11.9474 21.3113 11.318 20.682C10.6887 20.0526 10.2601 19.2508 10.0865 18.3779C9.91283 17.505 10.0019 16.6002 10.3425 15.7779C10.6831 14.9557 11.2599 14.2529 11.9999 13.7584C12.74 13.2639 13.61 13 14.5 13C15.0909 13 15.6761 13.1164 16.2221 13.3425C16.768 13.5687 17.2641 13.9002 17.682 14.318C18.0998 14.7359 18.4313 15.232 18.6575 15.7779C18.8836 16.3239 19 16.9091 19 17.5ZM27 5V27C27 27.5304 26.7893 28.0391 26.4142 28.4142C26.0391 28.7893 25.5304 29 25 29H7C6.46957 29 5.96086 28.7893 5.58579 28.4142C5.21071 28.0391 5 27.5304 5 27V5C5 4.46957 5.21071 3.96086 5.58579 3.58579C5.96086 3.21071 6.46957 3 7 3H25C25.5304 3 26.0391 3.21071 26.4142 3.58579C26.7893 3.96086 27 4.46957 27 5ZM24 9C24 8.73478 23.8946 8.48043 23.7071 8.29289C23.5196 8.10536 23.2652 8 23 8H19C18.7348 8 18.4804 8.10536 18.2929 8.29289C18.1054 8.48043 18 8.73478 18 9C18 9.26522 18.1054 9.51957 18.2929 9.70711C18.4804 9.89464 18.7348 10 19 10H20.5863L18.3363 12.25C17.014 11.2804 15.3746 10.8455 13.7457 11.0321C12.1167 11.2187 10.6181 12.0132 9.54944 13.2567C8.48076 14.5002 7.92065 16.1011 7.98105 17.7396C8.04145 19.3781 8.71791 20.9335 9.87525 22.0949C11.0326 23.2564 12.5856 23.9383 14.2239 24.0045C15.8621 24.0707 17.4651 23.5162 18.7123 22.4519C19.9596 21.3877 20.7593 19.8919 20.9517 18.2636C21.144 16.6353 20.7149 14.9944 19.75 13.6687L22 11.4187V13C22 13.2652 22.1054 13.5196 22.2929 13.7071C22.4804 13.8946 22.7348 14 23 14C23.2652 14 23.5196 13.8946 23.7071 13.7071C23.8946 13.5196 24 13.2652 24 13V9Z" fill="#4A4A4F"/>
</svg>
