<svg width="32" height="32" viewBox="0 0 32 32" fill="none" xmlns="http://www.w3.org/2000/svg">
<path d="M16 3C12.8185 3.00364 9.76839 4.26909 7.51874 6.51874C5.26909 8.76839 4.00364 11.8185 4 15V27C3.99996 27.1894 4.05369 27.3749 4.15495 27.5349C4.25621 27.6949 4.40082 27.8229 4.57197 27.904C4.74312 27.985 4.93377 28.0158 5.12174 27.9928C5.30971 27.9697 5.48726 27.8938 5.63375 27.7738L8.66625 25.2925L11.7 27.7738C11.8786 27.9199 12.1023 27.9997 12.3331 27.9997C12.5639 27.9997 12.7876 27.9199 12.9663 27.7738L16 25.2925L19.0338 27.7738C19.2124 27.9199 19.4361 27.9997 19.6669 27.9997C19.8977 27.9997 20.1214 27.9199 20.3 27.7738L23.3337 25.2925L26.3662 27.7738C26.5127 27.8938 26.6903 27.9697 26.8783 27.9928C27.0662 28.0158 27.2569 27.985 27.428 27.904C27.5992 27.8229 27.7438 27.6949 27.8451 27.5349C27.9463 27.3749 28 27.1894 28 27V15C27.9964 11.8185 26.7309 8.76839 24.4813 6.51874C22.2316 4.26909 19.1815 3.00364 16 3ZM12.5 16C12.2033 16 11.9133 15.912 11.6666 15.7472C11.42 15.5824 11.2277 15.3481 11.1142 15.074C11.0006 14.7999 10.9709 14.4983 11.0288 14.2074C11.0867 13.9164 11.2296 13.6491 11.4393 13.4393C11.6491 13.2296 11.9164 13.0867 12.2074 13.0288C12.4983 12.9709 12.7999 13.0006 13.074 13.1142C13.3481 13.2277 13.5824 13.42 13.7472 13.6666C13.912 13.9133 14 14.2033 14 14.5C14 14.8978 13.842 15.2794 13.5607 15.5607C13.2794 15.842 12.8978 16 12.5 16ZM19.5 16C19.2033 16 18.9133 15.912 18.6666 15.7472C18.42 15.5824 18.2277 15.3481 18.1142 15.074C18.0007 14.7999 17.9709 14.4983 18.0288 14.2074C18.0867 13.9164 18.2296 13.6491 18.4393 13.4393C18.6491 13.2296 18.9164 13.0867 19.2074 13.0288C19.4983 12.9709 19.7999 13.0006 20.074 13.1142C20.3481 13.2277 20.5824 13.42 20.7472 13.6666C20.912 13.9133 21 14.2033 21 14.5C21 14.8978 20.842 15.2794 20.5607 15.5607C20.2794 15.842 19.8978 16 19.5 16Z" fill="#4A4A4F"/>
</svg>
