<svg width="32" height="32" viewBox="0 0 32 32" fill="none" xmlns="http://www.w3.org/2000/svg">
<path d="M27 5H5C4.46957 5 3.96086 5.21071 3.58579 5.58579C3.21071 5.96086 3 6.46957 3 7V25C3 25.5304 3.21071 26.0391 3.58579 26.4142C3.96086 26.7893 4.46957 27 5 27H27C27.5304 27 28.0391 26.7893 28.4142 26.4142C28.7893 26.0391 29 25.5304 29 25V7C29 6.46957 28.7893 5.96086 28.4142 5.58579C28.0391 5.21071 27.5304 5 27 5ZM14 18C14 19.0609 13.5786 20.0783 12.8284 20.8284C12.0783 21.5786 11.0609 22 10 22C8.93913 22 7.92172 21.5786 7.17157 20.8284C6.42143 20.0783 6 19.0609 6 18V14C6.00012 13.19 6.24617 12.3991 6.70559 11.7319C7.16502 11.0648 7.81616 10.5529 8.57288 10.2639C9.32959 9.97486 10.1562 9.92241 10.9434 10.1135C11.7306 10.3045 12.4412 10.73 12.9812 11.3337C13.0739 11.4307 13.1461 11.5453 13.1935 11.6707C13.241 11.7961 13.2627 11.9298 13.2574 12.0638C13.2522 12.1978 13.22 12.3294 13.1629 12.4507C13.1057 12.572 13.0248 12.6806 12.9248 12.77C12.8249 12.8594 12.708 12.9277 12.581 12.971C12.4541 13.0143 12.3198 13.0316 12.1861 13.022C12.0523 13.0123 11.9219 12.9758 11.8025 12.9147C11.6832 12.8536 11.5773 12.7691 11.4913 12.6663C11.2212 12.3641 10.8658 12.1511 10.4721 12.0555C10.0783 11.9598 9.66478 11.9861 9.28626 12.1307C8.90773 12.2753 8.58206 12.5315 8.35237 12.8653C8.12267 13.1991 7.99979 13.5948 8 14V18C8 18.5304 8.21071 19.0391 8.58579 19.4142C8.96086 19.7893 9.46957 20 10 20C10.5304 20 11.0391 19.7893 11.4142 19.4142C11.7893 19.0391 12 18.5304 12 18V17H11C10.7348 17 10.4804 16.8946 10.2929 16.7071C10.1054 16.5196 10 16.2652 10 16C10 15.7348 10.1054 15.4804 10.2929 15.2929C10.4804 15.1054 10.7348 15 11 15H13C13.2652 15 13.5196 15.1054 13.7071 15.2929C13.8946 15.4804 14 15.7348 14 16V18ZM18 21C18 21.2652 17.8946 21.5196 17.7071 21.7071C17.5196 21.8946 17.2652 22 17 22C16.7348 22 16.4804 21.8946 16.2929 21.7071C16.1054 21.5196 16 21.2652 16 21V11C16 10.7348 16.1054 10.4804 16.2929 10.2929C16.4804 10.1054 16.7348 10 17 10C17.2652 10 17.5196 10.1054 17.7071 10.2929C17.8946 10.4804 18 10.7348 18 11V21ZM25 12H22V15H24C24.2652 15 24.5196 15.1054 24.7071 15.2929C24.8946 15.4804 25 15.7348 25 16C25 16.2652 24.8946 16.5196 24.7071 16.7071C24.5196 16.8946 24.2652 17 24 17H22V21C22 21.2652 21.8946 21.5196 21.7071 21.7071C21.5196 21.8946 21.2652 22 21 22C20.7348 22 20.4804 21.8946 20.2929 21.7071C20.1054 21.5196 20 21.2652 20 21V11C20 10.7348 20.1054 10.4804 20.2929 10.2929C20.4804 10.1054 20.7348 10 21 10H25C25.2652 10 25.5196 10.1054 25.7071 10.2929C25.8946 10.4804 26 10.7348 26 11C26 11.2652 25.8946 11.5196 25.7071 11.7071C25.5196 11.8946 25.2652 12 25 12Z" fill="#4A4A4F"/>
</svg>
