<svg width="32" height="32" viewBox="0 0 32 32" fill="none" xmlns="http://www.w3.org/2000/svg">
<path d="M14 18.9999C13.7348 18.9999 13.4804 19.1053 13.2929 19.2928C13.1054 19.4804 13 19.7347 13 19.9999V23.5862L9.46501 20.0499C8.99907 19.5869 8.62966 19.0361 8.37818 18.4293C8.1267 17.8225 7.99816 17.1718 8.00001 16.5149V11.8749C8.94267 11.6315 9.7642 11.0527 10.3106 10.2469C10.857 9.44115 11.0908 8.46375 10.9681 7.49794C10.8455 6.53212 10.3747 5.6442 9.64424 5.00061C8.91374 4.35703 7.97358 4.00195 7.00001 4.00195C6.02644 4.00195 5.08628 4.35703 4.35578 5.00061C3.62527 5.6442 3.15457 6.53212 3.03189 7.49794C2.90922 8.46375 3.143 9.44115 3.68941 10.2469C4.23582 11.0527 5.05735 11.6315 6.00001 11.8749V16.5162C5.99768 17.4358 6.17766 18.3468 6.52953 19.1964C6.8814 20.046 7.39818 20.8175 8.05001 21.4662L11.5863 24.9999H8.00001C7.73479 24.9999 7.48044 25.1053 7.2929 25.2928C7.10537 25.4804 7.00001 25.7347 7.00001 25.9999C7.00001 26.2652 7.10537 26.5195 7.2929 26.707C7.48044 26.8946 7.73479 26.9999 8.00001 26.9999H14C14.2652 26.9999 14.5196 26.8946 14.7071 26.707C14.8947 26.5195 15 26.2652 15 25.9999V19.9999C15 19.7347 14.8947 19.4804 14.7071 19.2928C14.5196 19.1053 14.2652 18.9999 14 18.9999ZM5.00001 7.99994C5.00001 7.60437 5.11731 7.21769 5.33707 6.8888C5.55683 6.5599 5.86919 6.30355 6.23464 6.15218C6.60009 6.0008 7.00223 5.9612 7.39019 6.03837C7.77815 6.11554 8.13452 6.30602 8.41422 6.58572C8.69393 6.86543 8.88441 7.22179 8.96158 7.60976C9.03875 7.99772 8.99914 8.39985 8.84777 8.7653C8.69639 9.13076 8.44005 9.44311 8.11115 9.66288C7.78225 9.88264 7.39557 9.99994 7.00001 9.99994C6.46958 9.99994 5.96087 9.78922 5.5858 9.41415C5.21072 9.03908 5.00001 8.53037 5.00001 7.99994ZM26 20.1249V15.4849C26.0023 14.5653 25.8224 13.6544 25.4705 12.8047C25.1186 11.9551 24.6018 11.1836 23.95 10.5349L20.4138 6.99994H24C24.2652 6.99994 24.5196 6.89458 24.7071 6.70704C24.8947 6.51951 25 6.26515 25 5.99994C25 5.73472 24.8947 5.48037 24.7071 5.29283C24.5196 5.10529 24.2652 4.99994 24 4.99994H18C17.7348 4.99994 17.4804 5.10529 17.2929 5.29283C17.1054 5.48037 17 5.73472 17 5.99994V11.9999C17 12.2652 17.1054 12.5195 17.2929 12.707C17.4804 12.8946 17.7348 12.9999 18 12.9999C18.2652 12.9999 18.5196 12.8946 18.7071 12.707C18.8947 12.5195 19 12.2652 19 11.9999V8.41369L22.535 11.9499C23.0009 12.4129 23.3704 12.9638 23.6218 13.5706C23.8733 14.1774 24.0019 14.8281 24 15.4849V20.1249C23.0574 20.3683 22.2358 20.9472 21.6894 21.7529C21.143 22.5587 20.9092 23.5361 21.0319 24.5019C21.1546 25.4678 21.6253 26.3557 22.3558 26.9993C23.0863 27.6428 24.0264 27.9979 25 27.9979C25.9736 27.9979 26.9137 27.6428 27.6442 26.9993C28.3747 26.3557 28.8455 25.4678 28.9681 24.5019C29.0908 23.5361 28.857 22.5587 28.3106 21.7529C27.7642 20.9472 26.9427 20.3683 26 20.1249ZM25 25.9999C24.6044 25.9999 24.2178 25.8826 23.8889 25.6629C23.56 25.4431 23.3036 25.1308 23.1523 24.7653C23.0009 24.3999 22.9613 23.9977 23.0384 23.6098C23.1156 23.2218 23.3061 22.8654 23.5858 22.5857C23.8655 22.306 24.2219 22.1155 24.6098 22.0384C24.9978 21.9612 25.3999 22.0008 25.7654 22.1522C26.1308 22.3036 26.4432 22.5599 26.6629 22.8888C26.8827 23.2177 27 23.6044 27 23.9999C27 24.5304 26.7893 25.0391 26.4142 25.4142C26.0392 25.7892 25.5304 25.9999 25 25.9999Z" fill="#4A4A4F"/>
</svg>
