<svg width="32" height="32" viewBox="0 0 32 32" fill="none" xmlns="http://www.w3.org/2000/svg">
<path d="M5.9998 12C5.9998 10.0222 6.58629 8.08878 7.6851 6.44429C8.78392 4.7998 10.3457 3.51808 12.173 2.7612C14.0002 2.00432 16.0109 1.80629 17.9507 2.19214C19.8905 2.57799 21.6723 3.5304 23.0709 4.92893C24.4694 6.32745 25.4218 8.10928 25.8077 10.0491C26.1935 11.9889 25.9955 13.9996 25.2386 15.8268C24.4817 17.6541 23.2 19.2159 21.5555 20.3147C19.911 21.4135 17.9776 22 15.9998 22C13.3485 21.997 10.8067 20.9425 8.93202 19.0678C7.0573 17.1931 6.00278 14.6512 5.9998 12ZM24.3073 20.66C22.043 22.8399 19.0137 24.0444 15.8708 24.0145C12.7278 23.9846 9.72199 22.7228 7.49947 20.5003C5.27695 18.2778 4.01515 15.272 3.98529 12.129C3.95543 8.98606 5.1599 5.95684 7.3398 3.6925C7.43314 3.59826 7.50679 3.48641 7.55649 3.36344C7.60618 3.24047 7.63091 3.10884 7.62925 2.97622C7.62758 2.8436 7.59955 2.71263 7.54679 2.59095C7.49403 2.46926 7.41758 2.35929 7.32191 2.26743C7.22624 2.17557 7.11325 2.10366 6.98952 2.05589C6.86579 2.00812 6.73379 1.98544 6.60122 1.98916C6.46864 1.99289 6.33812 2.02296 6.21728 2.07761C6.09643 2.13226 5.98766 2.21041 5.8973 2.3075C4.05648 4.22632 2.80018 6.6297 2.27538 9.23643C1.75058 11.8432 1.979 14.5455 2.9339 17.0271C3.8888 19.5088 5.53069 21.6672 7.66747 23.2498C9.80425 24.8324 12.3476 25.7738 14.9998 25.9637V28H11.9998C11.7346 28 11.4802 28.1054 11.2927 28.2929C11.1052 28.4804 10.9998 28.7348 10.9998 29C10.9998 29.2652 11.1052 29.5196 11.2927 29.7071C11.4802 29.8946 11.7346 30 11.9998 30H19.9998C20.265 30 20.5194 29.8946 20.7069 29.7071C20.8944 29.5196 20.9998 29.2652 20.9998 29C20.9998 28.7348 20.8944 28.4804 20.7069 28.2929C20.5194 28.1054 20.265 28 19.9998 28H16.9998V25.965C20.2613 25.7397 23.3391 24.3721 25.6923 22.1025C25.7894 22.0121 25.8675 21.9034 25.9222 21.7825C25.9768 21.6617 26.0069 21.5312 26.0106 21.3986C26.0144 21.266 25.9917 21.134 25.9439 21.0103C25.8961 20.8865 25.8242 20.7736 25.7324 20.6779C25.6405 20.5822 25.5305 20.5058 25.4088 20.453C25.2872 20.4002 25.1562 20.3722 25.0236 20.3705C24.891 20.3689 24.7593 20.3936 24.6364 20.4433C24.5134 20.493 24.4015 20.5667 24.3073 20.66Z" fill="#4A4A4F"/>
</svg>
