<svg width="32" height="32" viewBox="0 0 32 32" fill="none" xmlns="http://www.w3.org/2000/svg">
<path d="M23 8H9C6.61386 8.00265 4.32622 8.95171 2.63896 10.639C0.951708 12.3262 0.00264685 14.6139 0 17C2.32569e-05 17.6435 0.206448 18.27 0.58894 18.7875C0.971433 19.305 1.50982 19.6862 2.125 19.875C2.8825 22.4213 6.82875 24 9 24C10.1522 23.9986 11.2687 23.6 12.1613 22.8713C13.0539 22.1427 13.6679 21.1286 13.9 20H18.1C18.3321 21.1286 18.9461 22.1427 19.8387 22.8713C20.7313 23.6 21.8478 23.9986 23 24C25.1663 24 29.1125 22.4175 29.875 19.875C30.4902 19.6862 31.0286 19.305 31.4111 18.7875C31.7936 18.27 32 17.6435 32 17C31.9974 14.6139 31.0483 12.3262 29.361 10.639C27.6738 8.95171 25.3861 8.00265 23 8ZM11.125 21.125C10.9375 21.3124 10.6832 21.4177 10.4181 21.4177C10.153 21.4177 9.89877 21.3124 9.71125 21.125L6.6425 18.0562C6.46288 17.8672 6.36422 17.6154 6.36756 17.3547C6.3709 17.0939 6.47597 16.8448 6.66037 16.6604C6.84477 16.476 7.09391 16.3709 7.35468 16.3676C7.61544 16.3642 7.86719 16.4629 8.05625 16.6425L11.125 19.7062C11.2185 19.7992 11.2928 19.9097 11.3434 20.0315C11.3941 20.1532 11.4202 20.2838 11.4202 20.4156C11.4202 20.5475 11.3941 20.678 11.3434 20.7998C11.2928 20.9215 11.2185 21.0321 11.125 21.125ZM26.065 21.0637C25.8775 21.2511 25.6232 21.3564 25.3581 21.3564C25.093 21.3564 24.8388 21.2511 24.6513 21.0637L21.475 17.8888C21.2874 17.7011 21.1819 17.4466 21.1819 17.1812C21.1819 16.9159 21.2874 16.6614 21.475 16.4737C21.6626 16.2861 21.9171 16.1807 22.1825 16.1807C22.4479 16.1807 22.7024 16.2861 22.89 16.4737L26.065 19.65C26.2506 19.838 26.3542 20.0918 26.3533 20.356C26.3524 20.6202 26.2469 20.8733 26.06 21.06L26.065 21.0637ZM29.715 17.7062C28.6675 15.4062 25.0425 14 23 14C21.8478 14.0014 20.7313 14.4 19.8387 15.1287C18.9461 15.8573 18.3321 16.8714 18.1 18H13.9C13.6679 16.8714 13.0539 15.8573 12.1613 15.1287C11.2687 14.4 10.1522 14.0014 9 14C6.9575 14 3.3325 15.4062 2.29 17.7025C2.10465 17.5156 2.00045 17.2632 2 17C2.00199 15.1441 2.74012 13.3648 4.05245 12.0524C5.36477 10.7401 7.14409 10.002 9 10H23C24.8559 10.002 26.6352 10.7401 27.9476 12.0524C29.2599 13.3648 29.998 15.1441 30 17C29.9996 17.2632 29.8953 17.5156 29.71 17.7025L29.715 17.7062Z" fill="#4A4A4F"/>
</svg>
