<svg width="32" height="32" viewBox="0 0 32 32" fill="none" xmlns="http://www.w3.org/2000/svg">
<path d="M23 3C22.7348 3 22.4804 3.10536 22.2929 3.29289C22.1054 3.48043 22 3.73478 22 4V5.7175C20.9257 4.49935 19.506 3.63705 17.9298 3.24525C16.3536 2.85345 14.6954 2.9507 13.1758 3.52409C11.6562 4.09748 10.3471 5.11983 9.42252 6.45523C8.49799 7.79062 8.00183 9.3758 8 11V14C8.00183 15.6242 8.49799 17.2094 9.42252 18.5448C10.3471 19.8802 11.6562 20.9025 13.1758 21.4759C14.6954 22.0493 16.3536 22.1466 17.9298 21.7548C19.506 21.363 20.9257 20.5007 22 19.2825V21C21.9983 22.5908 21.3657 24.116 20.2408 25.2408C19.116 26.3657 17.5908 26.9983 16 27C13.9437 27 11.91 25.99 10.82 24.4275C10.7448 24.3198 10.6492 24.228 10.5385 24.1573C10.4278 24.0866 10.3043 24.0383 10.175 24.0154C10.0457 23.9924 9.91314 23.9951 9.78488 24.0233C9.65662 24.0516 9.53518 24.1048 9.4275 24.18C9.31982 24.2552 9.228 24.3508 9.15728 24.4615C9.08656 24.5722 9.03834 24.6957 9.01535 24.825C8.96894 25.0861 9.02816 25.355 9.18 25.5725C10.6325 27.655 13.31 29 16 29C18.121 28.9977 20.1545 28.1541 21.6543 26.6543C23.1541 25.1545 23.9977 23.121 24 21V4C24 3.73478 23.8946 3.48043 23.7071 3.29289C23.5196 3.10536 23.2652 3 23 3ZM16 20C14.4092 19.9983 12.884 19.3657 11.7592 18.2408C10.6343 17.116 10.0017 15.5908 10 14V11C10 9.4087 10.6321 7.88258 11.7574 6.75736C12.8826 5.63214 14.4087 5 16 5C17.5913 5 19.1174 5.63214 20.2426 6.75736C21.3679 7.88258 22 9.4087 22 11V14C21.9983 15.5908 21.3657 17.116 20.2408 18.2408C19.116 19.3657 17.5908 19.9983 16 20Z" fill="#4A4A4F"/>
</svg>
