<svg width="32" height="32" viewBox="0 0 32 32" fill="none" xmlns="http://www.w3.org/2000/svg">
<path d="M27.9775 14.2736L7.00005 2.26986C6.69423 2.09152 6.34656 1.99756 5.99255 1.99756C5.63853 1.99756 5.29086 2.09152 4.98505 2.26986C4.68375 2.44262 4.43376 2.69235 4.26069 2.99347C4.08762 3.2946 3.99767 3.6363 4.00005 3.98361V28.0161C3.99905 28.3631 4.09018 28.7041 4.26411 29.0043C4.43805 29.3045 4.68856 29.5532 4.99005 29.7249C5.29586 29.9032 5.64353 29.9972 5.99755 29.9972C6.35156 29.9972 6.69923 29.9032 7.00505 29.7249L27.9775 17.7249C28.287 17.5552 28.5452 17.3054 28.725 17.0017C28.9048 16.698 28.9997 16.3516 28.9997 15.9986C28.9997 15.6457 28.9048 15.2992 28.725 14.9955C28.5452 14.6918 28.287 14.4421 27.9775 14.2724V14.2736ZM6.00005 26.5836V5.41611L16.5863 15.9999L6.00005 26.5836ZM18 17.4136L20.365 19.7786L9.30255 26.1111L18 17.4136ZM9.30005 5.88736L20.3663 12.2211L18 14.5861L9.30005 5.88736ZM22.1638 18.7499L19.4138 15.9999L22.1638 13.2499L26.9675 15.9999L22.1638 18.7499Z" fill="#4A4A4F"/>
</svg>
