<svg width="32" height="32" viewBox="0 0 32 32" fill="none" xmlns="http://www.w3.org/2000/svg">
<path d="M10 24C10 24.2652 9.89464 24.5196 9.70711 24.7071C9.51957 24.8946 9.26522 25 9 25H4C3.73478 25 3.48043 24.8946 3.29289 24.7071C3.10536 24.5196 3 24.2652 3 24C3 23.7348 3.10536 23.4804 3.29289 23.2929C3.48043 23.1054 3.73478 23 4 23H9C9.26522 23 9.51957 23.1054 9.70711 23.2929C9.89464 23.4804 10 23.7348 10 24ZM28 23H23C22.7348 23 22.4804 23.1054 22.2929 23.2929C22.1054 23.4804 22 23.7348 22 24C22 24.2652 22.1054 24.5196 22.2929 24.7071C22.4804 24.8946 22.7348 25 23 25H28C28.2652 25 28.5196 24.8946 28.7071 24.7071C28.8946 24.5196 29 24.2652 29 24C29 23.7348 28.8946 23.4804 28.7071 23.2929C28.5196 23.1054 28.2652 23 28 23ZM19 23H13C12.7348 23 12.4804 23.1054 12.2929 23.2929C12.1054 23.4804 12 23.7348 12 24C12 24.2652 12.1054 24.5196 12.2929 24.7071C12.4804 24.8946 12.7348 25 13 25H19C19.2652 25 19.5196 24.8946 19.7071 24.7071C19.8946 24.5196 20 24.2652 20 24C20 23.7348 19.8946 23.4804 19.7071 23.2929C19.5196 23.1054 19.2652 23 19 23ZM4 21H14C14.2652 21 14.5196 20.8946 14.7071 20.7071C14.8946 20.5196 15 20.2652 15 20C15 19.7348 14.8946 19.4804 14.7071 19.2929C14.5196 19.1054 14.2652 19 14 19H4C3.73478 19 3.48043 19.1054 3.29289 19.2929C3.10536 19.4804 3 19.7348 3 20C3 20.2652 3.10536 20.5196 3.29289 20.7071C3.48043 20.8946 3.73478 21 4 21ZM28 19H18C17.7348 19 17.4804 19.1054 17.2929 19.2929C17.1054 19.4804 17 19.7348 17 20C17 20.2652 17.1054 20.5196 17.2929 20.7071C17.4804 20.8946 17.7348 21 18 21H28C28.2652 21 28.5196 20.8946 28.7071 20.7071C28.8946 20.5196 29 20.2652 29 20C29 19.7348 28.8946 19.4804 28.7071 19.2929C28.5196 19.1054 28.2652 19 28 19ZM28 7H4C3.73478 7 3.48043 7.10536 3.29289 7.29289C3.10536 7.48043 3 7.73478 3 8V11C3 11.2652 3.10536 11.5196 3.29289 11.7071C3.48043 11.8946 3.73478 12 4 12H28C28.2652 12 28.5196 11.8946 28.7071 11.7071C28.8946 11.5196 29 11.2652 29 11V8C29 7.73478 28.8946 7.48043 28.7071 7.29289C28.5196 7.10536 28.2652 7 28 7ZM28 14H4C3.73478 14 3.48043 14.1054 3.29289 14.2929C3.10536 14.4804 3 14.7348 3 15V16C3 16.2652 3.10536 16.5196 3.29289 16.7071C3.48043 16.8946 3.73478 17 4 17H28C28.2652 17 28.5196 16.8946 28.7071 16.7071C28.8946 16.5196 29 16.2652 29 16V15C29 14.7348 28.8946 14.4804 28.7071 14.2929C28.5196 14.1054 28.2652 14 28 14Z" fill="#4A4A4F"/>
</svg>
