<svg width="32" height="32" viewBox="0 0 32 32" fill="none" xmlns="http://www.w3.org/2000/svg">
<path d="M26 6.9999C24.6382 7.00001 23.2884 7.25436 22.02 7.7499C20.23 4.0374 16.6137 2.1924 16.4487 2.10865C16.3098 2.03913 16.1566 2.00293 16.0012 2.00293C15.8459 2.00293 15.6927 2.03913 15.5538 2.10865C15.3875 2.18865 11.7712 4.03365 9.98125 7.7499C8.71243 7.25421 7.3622 6.99985 6 6.9999C5.73478 6.9999 5.48043 7.10525 5.29289 7.29279C5.10536 7.48033 5 7.73468 5 7.9999V17.9999C5.00326 20.6452 5.95838 23.2009 7.69076 25.2C9.42314 27.1991 11.8171 28.508 14.435 28.8874C14.5059 28.8967 14.578 28.8907 14.6464 28.8697C14.7147 28.8488 14.7778 28.8135 14.8314 28.7661C14.8849 28.7187 14.9277 28.6604 14.9568 28.595C14.9859 28.5297 15.0006 28.4589 15 28.3874V22.0336C14.9968 21.7757 15.0913 21.526 15.2645 21.3347C15.4376 21.1435 15.6767 21.0248 15.9338 21.0024C16.0705 20.9933 16.2077 21.0125 16.3368 21.0586C16.4659 21.1048 16.5841 21.177 16.6841 21.2708C16.7841 21.3646 16.8637 21.4779 16.9181 21.6038C16.9724 21.7296 17.0003 21.8653 17 22.0024V28.3949C16.9994 28.4664 17.0141 28.5372 17.0432 28.6025C17.0723 28.6679 17.1151 28.7262 17.1686 28.7736C17.2222 28.821 17.2853 28.8563 17.3536 28.8772C17.422 28.8982 17.4941 28.9042 17.565 28.8949C20.1842 28.5153 22.5791 27.2053 24.3117 25.2047C26.0442 23.204 26.9985 20.6465 27 17.9999V7.9999C27 7.73468 26.8946 7.48033 26.7071 7.29279C26.5196 7.10525 26.2652 6.9999 26 6.9999ZM15 18.6824C14.0829 17.3753 12.8923 16.2835 11.5108 15.4829C10.1293 14.6823 8.59005 14.192 7 14.0461V9.0549C9.19914 9.30353 11.2299 10.3526 12.7053 12.0023C14.1806 13.6519 14.9974 15.7868 15 17.9999V18.6824ZM16 13.4199C15.0898 11.4455 13.6187 9.78272 11.77 8.63865C12.9213 6.2374 15.07 4.7224 16 4.15115C16.9312 4.72365 19.0787 6.23865 20.23 8.63865C18.3813 9.78272 16.9102 11.4455 16 13.4199ZM25 14.0449C23.4099 14.1907 21.8707 14.681 20.4892 15.4816C19.1077 16.2823 17.9171 17.374 17 18.6811V17.9999C17.0026 15.7868 17.8194 13.6519 19.2947 12.0023C20.7701 10.3526 22.8009 9.30353 25 9.0549V14.0449Z" fill="#4A4A4F"/>
</svg>
