<svg width="32" height="32" viewBox="0 0 32 32" fill="none" xmlns="http://www.w3.org/2000/svg">
<path d="M6.73976 4.32757C6.65194 4.22858 6.54535 4.148 6.42616 4.09051C6.30697 4.03302 6.17756 3.99975 6.04542 3.99264C5.91328 3.98553 5.78104 4.00472 5.65637 4.0491C5.53171 4.09347 5.41708 4.16215 5.31915 4.25115C5.22122 4.34014 5.14193 4.4477 5.08587 4.56756C5.02981 4.68743 4.99809 4.81724 4.99257 4.94945C4.98705 5.08167 5.00782 5.21367 5.05369 5.3378C5.09955 5.46192 5.1696 5.57571 5.25976 5.67257L6.47601 7.01132C6.31768 7.00382 6.15893 7.00007 5.99976 7.00007C5.73455 7.00007 5.48019 7.10543 5.29266 7.29296C5.10512 7.4805 4.99976 7.73486 4.99976 8.00007V18.0001C4.99987 20.1605 5.63614 22.273 6.82917 24.0741C8.02221 25.8752 9.71919 27.2851 11.7084 28.1279C13.6976 28.9707 15.8909 29.2091 18.0148 28.8134C20.1386 28.4176 22.0989 27.4053 23.651 25.9026L25.2598 27.6726C25.3476 27.7716 25.4542 27.8521 25.5734 27.9096C25.6926 27.9671 25.822 28.0004 25.9541 28.0075C26.0862 28.0146 26.2185 27.9954 26.3432 27.951C26.4678 27.9067 26.5824 27.838 26.6804 27.749C26.7783 27.66 26.8576 27.5524 26.9137 27.4326C26.9697 27.3127 27.0014 27.1829 27.007 27.0507C27.0125 26.9185 26.9917 26.7865 26.9458 26.6623C26.9 26.5382 26.8299 26.4244 26.7398 26.3276L6.73976 4.32757ZM15.9998 20.4213C15.1919 18.6617 13.9346 17.1461 12.3547 16.0269C10.7747 14.9077 8.92773 14.2246 6.99976 14.0463V9.05507C7.55854 9.11744 8.11017 9.23254 8.64726 9.39882L17.036 18.6251C16.6349 19.1899 16.288 19.7913 15.9998 20.4213ZM26.9998 8.00007V18.0001C27.0003 18.9883 26.8679 19.9721 26.606 20.9251C26.5586 21.0976 26.4657 21.2543 26.3371 21.3788C26.2085 21.5032 26.0488 21.5909 25.8748 21.6326C25.7986 21.6509 25.7206 21.6602 25.6423 21.6601C25.5029 21.6601 25.3651 21.6309 25.2377 21.5745C25.1102 21.5181 24.996 21.4357 24.9023 21.3326L20.7373 16.7501C20.6339 16.6362 20.5581 16.4999 20.516 16.352C20.4738 16.2041 20.4663 16.0484 20.4941 15.8971C20.522 15.7458 20.5843 15.6029 20.6763 15.4796C20.7684 15.3564 20.8876 15.256 21.0248 15.1863C22.2641 14.5537 23.6137 14.1658 24.9998 14.0438V9.05632C23.7535 9.19803 22.5504 9.59749 21.4669 10.2293C20.3833 10.8611 19.4431 11.7115 18.706 12.7263C18.6289 12.833 18.5316 12.9235 18.4196 12.9926C18.3075 13.0617 18.183 13.108 18.0531 13.129C17.9231 13.1499 17.7903 13.1451 17.6622 13.1147C17.5342 13.0843 17.4133 13.029 17.3066 12.9519C17.1999 12.8749 17.1095 12.7775 17.0404 12.6655C16.9713 12.5535 16.925 12.4289 16.904 12.299C16.8831 12.169 16.8879 12.0362 16.9183 11.9082C16.9486 11.7801 17.0039 11.6593 17.081 11.5526C17.9286 10.3852 18.9971 9.39567 20.226 8.64007C19.0773 6.22507 16.931 4.71757 15.9998 4.15007C14.9019 4.82483 13.9152 5.66563 13.0748 6.64257C12.9011 6.83643 12.6586 6.95491 12.3989 6.97286C12.1393 6.9908 11.8828 6.90679 11.6841 6.73867C11.4854 6.57055 11.3601 6.33158 11.3347 6.07252C11.3094 5.81346 11.3861 5.55474 11.5485 5.35132C12.6699 4.03045 14.0261 2.92855 15.5485 2.10132C15.6874 2.0318 15.8407 1.99561 15.996 1.99561C16.1514 1.99561 16.3046 2.0318 16.4435 2.10132C16.6085 2.18382 20.2273 4.03007 22.0173 7.74507C23.2871 7.25204 24.6376 6.99942 25.9998 7.00007C26.265 7.00007 26.5193 7.10543 26.7069 7.29296C26.8944 7.4805 26.9998 7.73486 26.9998 8.00007Z" fill="#4A4A4F"/>
</svg>
