<svg width="32" height="32" viewBox="0 0 32 32" fill="none" xmlns="http://www.w3.org/2000/svg">
<path d="M24.9999 19C24.116 18.9995 23.2571 19.2933 22.5586 19.835L19.6699 17.585C19.8879 17.085 20.0003 16.5454 19.9999 16C19.9999 15.9075 19.9999 15.815 19.9899 15.7237L21.6436 15.1725C22.1668 15.9794 22.9632 16.5708 23.8869 16.8384C24.8107 17.106 25.7999 17.0318 26.6734 16.6294C27.5468 16.2271 28.2461 15.5235 28.6431 14.6476C29.0401 13.7716 29.1082 12.782 28.835 11.8599C28.5618 10.9378 27.9655 10.1451 27.1554 9.62683C26.3453 9.10858 25.3756 8.89955 24.4239 9.03803C23.4722 9.1765 22.6023 9.65321 21.9734 10.3808C21.3446 11.1085 20.999 12.0383 20.9999 13C20.9999 13.0925 20.9999 13.185 21.0099 13.2762L19.3561 13.8275C18.9936 13.267 18.4966 12.8062 17.9103 12.487C17.3241 12.1678 16.6673 12.0004 15.9999 12C15.7791 12.0004 15.5588 12.0188 15.3411 12.055L14.4861 10.125C15.2244 9.5351 15.73 8.70288 15.9132 7.77584C16.0965 6.84879 15.9457 5.88679 15.4875 5.06034C15.0292 4.23388 14.2932 3.59636 13.4098 3.26075C12.5264 2.92514 11.5527 2.91313 10.6613 3.22685C9.76991 3.54056 9.01836 4.15974 8.53987 4.97464C8.06139 5.78954 7.88686 6.74753 8.04723 7.67882C8.2076 8.6101 8.69251 9.45453 9.416 10.0624C10.1395 10.6704 11.0549 11.0025 11.9999 11C12.2206 10.9995 12.4409 10.9811 12.6586 10.945L13.5136 12.87C12.7886 13.4438 12.2853 14.2517 12.0899 15.1555C11.8945 16.0593 12.0191 17.0029 12.4424 17.825L9.2286 20.68C8.41983 20.1348 7.43997 19.9032 6.47269 20.0287C5.50541 20.1543 4.61712 20.6283 3.97431 21.3619C3.33151 22.0955 2.97833 23.0384 2.98097 24.0138C2.98361 24.9892 3.3419 25.9301 3.98867 26.6602C4.63544 27.3903 5.52628 27.8595 6.49423 27.9798C7.46218 28.1001 8.44077 27.8633 9.24657 27.3136C10.0524 26.764 10.6301 25.9394 10.8714 24.9943C11.1127 24.0493 11.001 23.0486 10.5574 22.18L13.7711 19.325C14.4669 19.7935 15.2928 20.0307 16.1312 20.0029C16.9696 19.9751 17.7779 19.6836 18.4411 19.17L21.3299 21.42C21.1124 21.9184 21.0001 22.4562 20.9999 23C20.9999 23.7911 21.2344 24.5645 21.674 25.2223C22.1135 25.8801 22.7382 26.3928 23.4691 26.6955C24.2 26.9983 25.0043 27.0775 25.7802 26.9231C26.5561 26.7688 27.2689 26.3878 27.8283 25.8284C28.3877 25.269 28.7687 24.5563 28.923 23.7803C29.0773 23.0044 28.9981 22.2002 28.6954 21.4693C28.3926 20.7383 27.8799 20.1136 27.2221 19.6741C26.5643 19.2346 25.791 19 24.9999 19ZM24.9999 11C25.3954 11 25.7821 11.1173 26.111 11.337C26.4399 11.5568 26.6962 11.8692 26.8476 12.2346C26.999 12.6001 27.0386 13.0022 26.9614 13.3902C26.8843 13.7781 26.6938 14.1345 26.4141 14.4142C26.1344 14.6939 25.778 14.8844 25.39 14.9616C25.0021 15.0387 24.5999 14.9991 24.2345 14.8477C23.869 14.6964 23.5567 14.44 23.3369 14.1111C23.1172 13.7822 22.9999 13.3955 22.9999 13C22.9999 12.4696 23.2106 11.9608 23.5856 11.5858C23.9607 11.2107 24.4694 11 24.9999 11ZM9.99985 6.99999C9.99985 6.60442 10.1172 6.21774 10.3369 5.88885C10.5567 5.55995 10.869 5.3036 11.2345 5.15223C11.5999 5.00085 12.0021 4.96124 12.39 5.03842C12.778 5.11559 13.1344 5.30607 13.4141 5.58577C13.6938 5.86548 13.8843 6.22184 13.9614 6.60981C14.0386 6.99777 13.999 7.3999 13.8476 7.76535C13.6962 8.13081 13.4399 8.44316 13.111 8.66293C12.7821 8.88269 12.3954 8.99999 11.9999 8.99999C11.4694 8.99999 10.9607 8.78927 10.5856 8.4142C10.2106 8.03913 9.99985 7.53042 9.99985 6.99999ZM6.99985 26C6.60429 26 6.21761 25.8827 5.88871 25.6629C5.55981 25.4432 5.30347 25.1308 5.15209 24.7654C5.00072 24.3999 4.96111 23.9978 5.03828 23.6098C5.11545 23.2218 5.30593 22.8655 5.58564 22.5858C5.86534 22.3061 6.22171 22.1156 6.60967 22.0384C6.99763 21.9612 7.39977 22.0009 7.76522 22.1522C8.13067 22.3036 8.44303 22.5599 8.66279 22.8888C8.88255 23.2177 8.99985 23.6044 8.99985 24C8.99985 24.5304 8.78914 25.0391 8.41407 25.4142C8.03899 25.7893 7.53029 26 6.99985 26ZM13.9999 16C13.9999 15.6044 14.1172 15.2177 14.3369 14.8888C14.5567 14.5599 14.869 14.3036 15.2345 14.1522C15.5999 14.0009 16.0021 13.9612 16.39 14.0384C16.778 14.1156 17.1344 14.3061 17.4141 14.5858C17.6938 14.8655 17.8843 15.2218 17.9614 15.6098C18.0386 15.9978 17.999 16.3999 17.8476 16.7654C17.6962 17.1308 17.4399 17.4432 17.111 17.6629C16.7821 17.8827 16.3954 18 15.9999 18C15.4694 18 14.9607 17.7893 14.5856 17.4142C14.2106 17.0391 13.9999 16.5304 13.9999 16ZM24.9999 25C24.6043 25 24.2176 24.8827 23.8887 24.6629C23.5598 24.4432 23.3035 24.1308 23.1521 23.7654C23.0007 23.3999 22.9611 22.9978 23.0383 22.6098C23.1155 22.2218 23.3059 21.8655 23.5856 21.5858C23.8653 21.3061 24.2217 21.1156 24.6097 21.0384C24.9976 20.9612 25.3998 21.0009 25.7652 21.1522C26.1307 21.3036 26.443 21.5599 26.6628 21.8888C26.8826 22.2177 26.9999 22.6044 26.9999 23C26.9999 23.5304 26.7891 24.0391 26.4141 24.4142C26.039 24.7893 25.5303 25 24.9999 25Z" fill="#4A4A4F"/>
</svg>
