<svg width="32" height="32" viewBox="0 0 32 32" fill="none" xmlns="http://www.w3.org/2000/svg">
<path d="M30.7075 5.29241L26.7075 1.29241C26.5381 1.1232 26.3135 1.02041 26.0747 1.00273C25.8359 0.985052 25.5987 1.05366 25.4062 1.19607C25.2137 1.33849 25.0786 1.54526 25.0257 1.7788C24.9727 2.01233 25.0053 2.25712 25.1175 2.46866L17.565 10.0199C14.7163 8.53741 11.5263 8.66116 9.59377 10.5924C9.08378 11.1046 8.68429 11.7159 8.42002 12.3887C8.33886 12.571 8.20646 12.7259 8.03891 12.8344C7.87136 12.9429 7.67589 13.0004 7.47627 12.9999C5.65252 13.0612 4.06877 13.7149 2.89502 14.8887C1.38502 16.4024 0.750017 18.5749 1.09252 21.0087C1.42502 23.3374 2.63377 25.6437 4.50002 27.4999C6.36627 29.3562 8.66752 30.5699 11 30.9024C11.418 30.9649 11.8399 30.9975 12.2625 30.9999C14.1775 30.9999 15.8663 30.3462 17.1075 29.1049C18.2813 27.9312 18.935 26.3474 18.9963 24.5237C18.9961 24.3236 19.0541 24.1279 19.1633 23.9603C19.2725 23.7927 19.4282 23.6605 19.6113 23.5799C20.2841 23.3158 20.8955 22.9163 21.4075 22.4062C23.3388 20.4737 23.4625 17.2812 21.98 14.4349L29.5313 6.88241C29.7428 6.99463 29.9876 7.02723 30.2211 6.97425C30.4547 6.92128 30.6614 6.78627 30.8039 6.59376C30.9463 6.40124 31.0149 6.16402 30.9972 5.9252C30.9795 5.68639 30.8767 5.46185 30.7075 5.29241ZM11.7075 25.7062C11.52 25.8936 11.2657 25.9988 11.0006 25.9988C10.7355 25.9988 10.4813 25.8936 10.2938 25.7062L6.29377 21.7062C6.10629 21.5185 6.00104 21.2641 6.00115 20.9988C6.00127 20.7336 6.10675 20.4793 6.29439 20.2918C6.48203 20.1043 6.73646 19.9991 7.00171 19.9992C7.26696 19.9993 7.52129 20.1048 7.70877 20.2924L11.7088 24.2924C11.896 24.4801 12.001 24.7344 12.0008 24.9995C12.0006 25.2646 11.8951 25.5188 11.7075 25.7062ZM16.975 19.9737C16.4856 20.4633 15.862 20.7968 15.183 20.9319C14.504 21.0671 13.8002 20.9979 13.1606 20.733C12.521 20.4681 11.9742 20.0195 11.5896 19.4439C11.205 18.8683 10.9996 18.1916 10.9996 17.4993C10.9996 16.807 11.205 16.1302 11.5896 15.5546C11.9742 14.979 12.521 14.5304 13.1606 14.2656C13.8002 14.0007 14.504 13.9315 15.183 14.0666C15.862 14.2018 16.4856 14.5353 16.975 15.0249C17.6311 15.6812 17.9996 16.5713 17.9996 17.4993C17.9996 18.4273 17.6311 19.3173 16.975 19.9737ZM20.8575 12.7237C20.6221 12.4326 20.3717 12.1539 20.1075 11.8887C19.8421 11.6241 19.563 11.3738 19.2713 11.1387L22 8.41366L23.5863 9.99991L20.8575 12.7237ZM25 8.58491L23.415 6.99991L26.5 3.91366L28.0863 5.49991L25 8.58491Z" fill="#4A4A4F"/>
</svg>
