<svg width="32" height="32" viewBox="0 0 32 32" fill="none" xmlns="http://www.w3.org/2000/svg">
<path d="M30.7075 5.29241L26.7075 1.29241C26.5381 1.1232 26.3135 1.02041 26.0747 1.00273C25.8359 0.985052 25.5987 1.05366 25.4062 1.19607C25.2137 1.33849 25.0786 1.54526 25.0257 1.7788C24.9727 2.01233 25.0053 2.25712 25.1175 2.46866L17.565 10.0199C14.7163 8.53741 11.5263 8.66116 9.59377 10.5924C9.08378 11.1046 8.68429 11.7159 8.42002 12.3887C8.33886 12.571 8.20646 12.7259 8.03891 12.8344C7.87136 12.9429 7.67589 13.0004 7.47627 12.9999C5.65252 13.0612 4.06877 13.7149 2.89502 14.8887C1.38502 16.4024 0.750017 18.5749 1.09252 21.0087C1.42502 23.3374 2.63377 25.6437 4.50002 27.4999C6.36627 29.3562 8.66752 30.5699 11 30.9024C11.418 30.9649 11.8399 30.9975 12.2625 30.9999C14.1775 30.9999 15.8663 30.3462 17.1075 29.1049C18.2813 27.9312 18.935 26.3474 18.9963 24.5237C18.9961 24.3236 19.0541 24.1279 19.1633 23.9603C19.2725 23.7927 19.4282 23.6605 19.6113 23.5799C20.2841 23.3158 20.8955 22.9163 21.4075 22.4062C23.3388 20.4737 23.4625 17.2812 21.98 14.4349L29.5313 6.88241C29.7428 6.99463 29.9876 7.02723 30.2211 6.97425C30.4547 6.92128 30.6614 6.78627 30.8039 6.59376C30.9463 6.40124 31.0149 6.16402 30.9972 5.9252C30.9795 5.68639 30.8767 5.46185 30.7075 5.29241ZM25 8.58491L23.415 6.99991L26.5 3.91366L28.0863 5.49991L25 8.58491ZM20 20.9912C19.6813 21.3085 19.3004 21.5566 18.8813 21.7199C18.3366 21.9443 17.8691 22.3227 17.5361 22.8087C17.2031 23.2946 17.019 23.8672 17.0063 24.4562C16.9613 25.7637 16.5063 26.8824 15.7025 27.6912C14.6475 28.7449 13.0775 29.1849 11.2825 28.9274C9.37502 28.6562 7.46627 27.6487 5.90877 26.0912C4.35127 24.5337 3.34377 22.6249 3.07252 20.7262C2.82252 18.9299 3.25502 17.3612 4.30877 16.3062C5.11752 15.4999 6.23627 15.0474 7.54377 14.9999C8.13283 14.9875 8.70549 14.8035 9.19153 14.4705C9.67756 14.1374 10.0559 13.6698 10.28 13.1249C10.4425 12.7035 10.6907 12.3205 11.0088 11.9999C11.695 11.3137 12.6338 10.9837 13.6813 10.9837C14.5053 10.9968 15.3184 11.1749 16.0725 11.5074L13.5625 14.0237C12.8132 14.1062 12.1025 14.3987 11.5123 14.8676C10.922 15.3364 10.4763 15.9625 10.2264 16.6737C9.97657 17.3849 9.93275 18.1522 10.1 18.8872C10.2673 19.6222 10.6388 20.295 11.1719 20.8281C11.7049 21.3611 12.3777 21.7326 13.1127 21.8999C13.8477 22.0672 14.615 22.0233 15.3262 21.7735C16.0374 21.5236 16.6635 21.0779 17.1324 20.4876C17.6012 19.8974 17.8938 19.1867 17.9763 18.4374L20.4863 15.9274C21.3013 17.8387 21.1838 19.8012 20 20.9912ZM18.7 13.3062C18.9642 13.5719 19.2118 13.8537 19.4413 14.1499L17.5138 16.0774C17.1461 15.4097 16.5964 14.8601 15.9288 14.4924L17.8563 12.5637C18.1504 12.7938 18.4301 13.0418 18.6938 13.3062H18.7ZM14 15.9999C14.5304 15.9999 15.0392 16.2106 15.4142 16.5857C15.7893 16.9608 16 17.4695 16 17.9999C16 18.3955 15.8827 18.7822 15.663 19.111C15.4432 19.4399 15.1308 19.6963 14.7654 19.8477C14.3999 19.999 13.9978 20.0386 13.6098 19.9615C13.2219 19.8843 12.8655 19.6938 12.5858 19.4141C12.3061 19.1344 12.1156 18.778 12.0384 18.3901C11.9613 18.0021 12.0009 17.6 12.1523 17.2345C12.3036 16.8691 12.56 16.5567 12.8889 16.337C13.2178 16.1172 13.6045 15.9999 14 15.9999ZM20.1063 11.8937C19.8409 11.6291 19.5618 11.3788 19.27 11.1437L22 8.41366L23.5863 9.99991L20.8575 12.7274C20.6221 12.4363 20.3717 12.1576 20.1075 11.8924L20.1063 11.8937ZM11.7063 24.2924C11.8939 24.4799 11.9994 24.7342 11.9995 24.9995C11.9996 25.2647 11.8944 25.5191 11.7069 25.7068C11.5194 25.8944 11.2651 25.9999 10.9998 26C10.7346 26.0001 10.4802 25.8949 10.2925 25.7074L6.29252 21.7074C6.10504 21.5198 5.99979 21.2653 5.9999 21.0001C6.00002 20.7348 6.1055 20.4805 6.29314 20.293C6.48078 20.1056 6.73521 20.0003 7.00046 20.0004C7.26571 20.0005 7.52004 20.106 7.70752 20.2937L11.7063 24.2924Z" fill="#4A4A4F"/>
</svg>
