<svg width="32" height="32" viewBox="0 0 32 32" fill="none" xmlns="http://www.w3.org/2000/svg">
<path d="M29 15.0002V16.0002C29 17.7113 28.6622 19.4055 28.006 20.9858C27.3498 22.566 26.3881 24.0012 25.1761 25.209C23.964 26.4167 22.5254 27.3734 20.9428 28.0239C19.3603 28.6745 17.6648 29.0063 15.9538 29.0002C9.20375 28.9764 3.70375 23.7427 3.06375 17.1527C3.05681 17.0669 3.07216 16.9807 3.10832 16.9025C3.14448 16.8243 3.20021 16.7568 3.27013 16.7065C3.34004 16.6562 3.42176 16.6249 3.50737 16.6154C3.59297 16.606 3.67956 16.6188 3.75875 16.6527C4.65819 17.0303 5.65609 17.1048 6.60166 16.8651C7.54723 16.6254 8.38908 16.0844 9 15.324C9.40029 15.8218 9.90219 16.2284 10.4722 16.5168C11.0422 16.8051 11.6671 16.9686 12.3053 16.9961C12.9435 17.0237 13.5802 16.9148 14.1729 16.6766C14.7657 16.4385 15.3008 16.0766 15.7425 15.6152C16.1473 16.2729 16.6977 16.8288 17.3513 17.2402C16.62 17.7997 16.0275 18.5201 15.6197 19.3456C15.212 20.1711 14.9999 21.0795 15 22.0002C14.9995 22.1389 15.0279 22.2761 15.0833 22.4033C15.1387 22.5304 15.2199 22.6446 15.3219 22.7386C15.4238 22.8327 15.5441 22.9045 15.6753 22.9495C15.8065 22.9946 15.9456 23.0118 16.0838 23.0002C16.3375 22.9729 16.572 22.8519 16.7414 22.661C16.9108 22.4701 17.003 22.2229 17 21.9677C17.0086 20.9125 17.4338 19.9034 18.183 19.1603C18.9322 18.4171 19.9447 18.0002 21 18.0002C21.1371 18.0005 21.2728 17.9726 21.3986 17.9183C21.5245 17.8639 21.6378 17.7843 21.7316 17.6843C21.8254 17.5843 21.8976 17.4661 21.9438 17.337C21.9899 17.2079 22.0091 17.0707 22 16.934C21.9776 16.6769 21.8589 16.4378 21.6677 16.2647C21.4764 16.0915 21.2267 15.997 20.9688 16.0002H20C19.2044 16.0002 18.4413 15.6841 17.8787 15.1215C17.3161 14.5589 17 13.7959 17 13.0002V11.0002H25C26.0609 11.0002 27.0783 11.4216 27.8284 12.1718C28.5786 12.9219 29 13.9393 29 15.0002ZM5.59125 15.0002C6.94625 14.9502 8 13.7965 8 12.4402V9.5652C8 8.20395 6.94625 7.0502 5.59125 7.0002C5.25535 6.98793 4.92042 7.04353 4.6065 7.16366C4.29257 7.28379 4.00609 7.46599 3.7642 7.69937C3.5223 7.93275 3.32995 8.21252 3.19864 8.52194C3.06734 8.83136 2.99978 9.16407 3 9.5002V12.5002C2.99978 12.8363 3.06734 13.169 3.19864 13.4785C3.32995 13.7879 3.5223 14.0676 3.7642 14.301C4.00609 14.5344 4.29257 14.7166 4.6065 14.8367C4.92042 14.9569 5.25535 15.0125 5.59125 15.0002ZM12.5913 15.0002C13.9463 14.9515 15 13.7977 15 12.4415V6.56645C15 5.2102 13.9463 4.05645 12.5913 4.0077C12.256 3.99545 11.9217 4.05082 11.6082 4.17049C11.2948 4.29016 11.0087 4.47169 10.7669 4.70427C10.5251 4.93685 10.3326 5.21572 10.2008 5.52426C10.0691 5.8328 10.0008 6.16471 10 6.5002V12.5002C9.99978 12.8363 10.0673 13.169 10.1986 13.4785C10.3299 13.7879 10.5223 14.0676 10.7642 14.301C11.0061 14.5344 11.2926 14.7166 11.6065 14.8367C11.9204 14.9569 12.2553 15.0125 12.5913 15.0002ZM22 6.5002C22.0002 6.16407 21.9327 5.83135 21.8014 5.52194C21.6701 5.21252 21.4777 4.93275 21.2358 4.69937C20.9939 4.46599 20.7074 4.28379 20.3935 4.16366C20.0796 4.04353 19.7447 3.98793 19.4088 4.0002C18.0538 4.0502 17 5.20395 17 6.5602V9.0002H21.5C21.6326 9.0002 21.7598 8.94752 21.8536 8.85375C21.9473 8.75999 22 8.63281 22 8.5002V6.5002Z" fill="#4A4A4F"/>
</svg>
