<svg width="32" height="32" viewBox="0 0 32 32" fill="none" xmlns="http://www.w3.org/2000/svg">
<path d="M23.5 10C22.9165 9.99918 22.3421 10.1453 21.83 10.425C21.645 9.85181 21.3151 9.33605 20.8724 8.92764C20.4296 8.51923 19.8889 8.232 19.3027 8.09373C18.7164 7.95546 18.1044 7.97084 17.5258 8.13836C16.9472 8.30589 16.4217 8.6199 16 9.05002C15.5134 8.55337 14.8899 8.21291 14.2089 8.07207C13.528 7.93122 12.8206 7.99639 12.1769 8.25924C11.5332 8.52209 10.9823 8.97072 10.5946 9.54792C10.2069 10.1251 9.9999 10.8047 10 11.5V14H8.5C7.57174 14 6.6815 14.3688 6.02513 15.0252C5.36875 15.6815 5 16.5718 5 17.5V19C5 21.9174 6.15893 24.7153 8.22183 26.7782C10.2847 28.8411 13.0826 30 16 30C18.9174 30 21.7153 28.8411 23.7782 26.7782C25.8411 24.7153 27 21.9174 27 19V13.5C27 12.5718 26.6313 11.6815 25.9749 11.0252C25.3185 10.3688 24.4283 10 23.5 10ZM25 19C25 21.387 24.0518 23.6762 22.364 25.364C20.6761 27.0518 18.3869 28 16 28C13.6131 28 11.3239 27.0518 9.63604 25.364C7.94821 23.6762 7 21.387 7 19V17.5C7 17.1022 7.15804 16.7207 7.43934 16.4394C7.72064 16.1581 8.10218 16 8.5 16H10V19C10 19.2652 10.1054 19.5196 10.2929 19.7071C10.4804 19.8947 10.7348 20 11 20C11.2652 20 11.5196 19.8947 11.7071 19.7071C11.8946 19.5196 12 19.2652 12 19V11.5C12 11.1022 12.158 10.7207 12.4393 10.4394C12.7206 10.1581 13.1022 10 13.5 10C13.8978 10 14.2794 10.1581 14.5607 10.4394C14.842 10.7207 15 11.1022 15 11.5V15C15 15.2652 15.1054 15.5196 15.2929 15.7071C15.4804 15.8947 15.7348 16 16 16C16.2652 16 16.5196 15.8947 16.7071 15.7071C16.8946 15.5196 17 15.2652 17 15V11.5C17 11.1022 17.158 10.7207 17.4393 10.4394C17.7206 10.1581 18.1022 10 18.5 10C18.8978 10 19.2794 10.1581 19.5607 10.4394C19.842 10.7207 20 11.1022 20 11.5V15C20 15.2652 20.1054 15.5196 20.2929 15.7071C20.4804 15.8947 20.7348 16 21 16C21.2652 16 21.5196 15.8947 21.7071 15.7071C21.8946 15.5196 22 15.2652 22 15V13.5C22 13.1022 22.158 12.7207 22.4393 12.4394C22.7206 12.1581 23.1022 12 23.5 12C23.8978 12 24.2794 12.1581 24.5607 12.4394C24.842 12.7207 25 13.1022 25 13.5V19Z" fill="#4A4A4F"/>
</svg>
