<svg width="32" height="32" viewBox="0 0 32 32" fill="none" xmlns="http://www.w3.org/2000/svg">
<path d="M6.00007 9.5C6.00007 7.51088 6.79025 5.60322 8.19677 4.1967C9.60329 2.79018 11.511 2 13.5001 2C15.4892 2 17.3969 2.79018 18.8034 4.1967C20.2099 5.60322 21.0001 7.51088 21.0001 9.5C21.0001 9.76522 20.8947 10.0196 20.7072 10.2071C20.5196 10.3946 20.2653 10.5 20.0001 10.5C19.7349 10.5 19.4805 10.3946 19.293 10.2071C19.1054 10.0196 19.0001 9.76522 19.0001 9.5C19.0001 8.04131 18.4206 6.64236 17.3892 5.61091C16.3577 4.57946 14.9588 4 13.5001 4C12.0414 4 10.6424 4.57946 9.61099 5.61091C8.57954 6.64236 8.00007 8.04131 8.00007 9.5C8.00007 9.76522 7.89472 10.0196 7.70718 10.2071C7.51964 10.3946 7.26529 10.5 7.00007 10.5C6.73486 10.5 6.4805 10.3946 6.29297 10.2071C6.10543 10.0196 6.00007 9.76522 6.00007 9.5ZM23.5001 15C22.9167 14.9994 22.3425 15.1451 21.8301 15.4237C21.6769 14.9499 21.4244 14.5141 21.0894 14.1456C20.7544 13.7771 20.3447 13.4844 19.8875 13.2869C19.4303 13.0894 18.9363 12.9918 18.4383 13.0005C17.9404 13.0092 17.4501 13.1241 17.0001 13.3375V9.5C17.0001 8.57174 16.6313 7.6815 15.9749 7.02513C15.3186 6.36875 14.4283 6 13.5001 6C12.5718 6 11.6816 6.36875 11.0252 7.02513C10.3688 7.6815 10.0001 8.57174 10.0001 9.5V19.5L9.52257 18.7337C9.05563 17.9313 8.28903 17.3472 7.39144 17.11C6.49384 16.8728 5.53877 17.0018 4.73632 17.4688C3.93388 17.9357 3.34979 18.7023 3.11256 19.5999C2.87532 20.4975 3.00438 21.4526 3.47132 22.255L7.13632 28.505C7.19779 28.6267 7.2835 28.7346 7.3882 28.822C7.49289 28.9094 7.61435 28.9744 7.7451 29.0131C7.87586 29.0518 8.01315 29.0634 8.14854 29.0471C8.28393 29.0308 8.41455 28.987 8.53238 28.9183C8.65021 28.8497 8.75275 28.7576 8.8337 28.6479C8.91465 28.5382 8.97231 28.413 9.00312 28.2802C9.03393 28.1473 9.03724 28.0096 9.01286 27.8754C8.98847 27.7413 8.9369 27.6135 8.86132 27.5L5.20007 21.25C5.09728 21.0793 5.02954 20.8898 5.00081 20.6926C4.97208 20.4954 4.98293 20.2944 5.03274 20.1014C5.08254 19.9085 5.17029 19.7274 5.29087 19.5687C5.41145 19.4101 5.56244 19.277 5.73502 19.1773C5.90759 19.0777 6.0983 19.0134 6.29599 18.9883C6.49369 18.9632 6.69441 18.9777 6.88643 19.031C7.07845 19.0843 7.25792 19.1753 7.41436 19.2988C7.57081 19.4222 7.70108 19.5756 7.79757 19.75L7.81507 19.7787L10.1501 23.5287C10.2647 23.7137 10.4366 23.8563 10.6396 23.9347C10.8426 24.0132 11.0656 24.0233 11.2749 23.9635C11.4841 23.9037 11.6682 23.7772 11.799 23.6033C11.9299 23.4295 12.0005 23.2176 12.0001 23V9.5C12.0001 9.10218 12.1581 8.72064 12.4394 8.43934C12.7207 8.15804 13.1022 8 13.5001 8C13.8979 8 14.2794 8.15804 14.5607 8.43934C14.842 8.72064 15.0001 9.10218 15.0001 9.5V18C15.0001 18.2652 15.1054 18.5196 15.293 18.7071C15.4805 18.8946 15.7349 19 16.0001 19C16.2653 19 16.5196 18.8946 16.7072 18.7071C16.8947 18.5196 17.0001 18.2652 17.0001 18V16.5C17.0001 16.1022 17.1581 15.7206 17.4394 15.4393C17.7207 15.158 18.1022 15 18.5001 15C18.8979 15 19.2794 15.158 19.5607 15.4393C19.842 15.7206 20.0001 16.1022 20.0001 16.5V19C20.0001 19.2652 20.1054 19.5196 20.293 19.7071C20.4805 19.8946 20.7349 20 21.0001 20C21.2653 20 21.5196 19.8946 21.7072 19.7071C21.8947 19.5196 22.0001 19.2652 22.0001 19V18.5C22.0001 18.1022 22.1581 17.7206 22.4394 17.4393C22.7207 17.158 23.1022 17 23.5001 17C23.8979 17 24.2794 17.158 24.5607 17.4393C24.842 17.7206 25.0001 18.1022 25.0001 18.5V23C25.0001 25.7013 24.1126 27.5375 24.1051 27.5525C23.9866 27.7897 23.9672 28.0643 24.0511 28.3158C24.135 28.5673 24.3154 28.7752 24.5526 28.8937C24.6913 28.9639 24.8446 29.0003 25.0001 29C25.1859 29.0001 25.368 28.9485 25.5261 28.8509C25.6842 28.7533 25.8119 28.6136 25.8951 28.4475C25.9413 28.3563 27.0013 26.1975 27.0013 23V18.5C27.0013 18.0403 26.9108 17.585 26.7348 17.1603C26.5588 16.7356 26.3009 16.3497 25.9758 16.0247C25.6506 15.6997 25.2646 15.4419 24.8398 15.2661C24.4151 15.0902 23.9598 14.9998 23.5001 15Z" fill="#4A4A4F"/>
</svg>
