<svg width="32" height="32" viewBox="0 0 32 32" fill="none" xmlns="http://www.w3.org/2000/svg">
<path d="M14.1613 6.91399C12.774 5.58194 10.9144 4.85553 8.99159 4.89456C7.06876 4.93359 5.24018 5.73487 3.90813 7.12212C2.57608 8.50936 1.84967 10.3689 1.8887 12.2918C1.92773 14.2146 2.72901 16.0432 4.11626 17.3752L15.2875 28.7077C15.3806 28.8022 15.4915 28.8773 15.6138 28.9285C15.7361 28.9797 15.8674 29.0061 16 29.0061C16.1326 29.0061 16.2639 28.9797 16.3862 28.9285C16.5085 28.8773 16.6195 28.8022 16.7125 28.7077L27.875 17.3752C29.2359 16.016 30.0011 14.1718 30.0023 12.2484C30.0034 10.325 29.2405 8.47988 27.8813 7.11899C26.522 5.7581 24.6778 4.9929 22.7544 4.99173C20.831 4.99055 18.9859 5.75351 17.625 7.11274L14.575 9.98774L17.875 13.2902C17.968 13.3831 18.0417 13.4934 18.0921 13.6148C18.1424 13.7362 18.1683 13.8663 18.1683 13.9977C18.1683 14.1292 18.1424 14.2593 18.0921 14.3807C18.0417 14.5021 17.968 14.6124 17.875 14.7052L15.2888 17.2915C15.1958 17.3843 15.0854 17.4579 14.964 17.5081C14.8425 17.5583 14.7124 17.584 14.581 17.5839C14.4496 17.5838 14.3195 17.5578 14.1982 17.5074C14.0768 17.457 13.9666 17.3832 13.8738 17.2902C13.7809 17.1972 13.7073 17.0869 13.6572 16.9654C13.607 16.844 13.5812 16.7139 13.5813 16.5825C13.5814 16.4511 13.6074 16.321 13.6578 16.1997C13.7082 16.0783 13.782 15.9681 13.875 15.8752L15.75 14.0002L12.4375 10.6777C12.3423 10.5826 12.2673 10.4692 12.2169 10.3444C12.1666 10.2196 12.1419 10.0858 12.1445 9.95126C12.1471 9.81668 12.1768 9.68401 12.2319 9.56119C12.2869 9.43837 12.3662 9.32793 12.465 9.23649L14.1588 7.63899C14.2079 7.59228 14.2471 7.53606 14.2738 7.47374C14.3006 7.41142 14.3144 7.34431 14.3144 7.27649C14.3144 7.20867 14.3006 7.14156 14.2738 7.07924C14.2471 7.01693 14.2079 6.9607 14.1588 6.91399H14.1613Z" fill="#4A4A4F"/>
</svg>
