<svg width="32" height="32" viewBox="0 0 32 32" fill="none" xmlns="http://www.w3.org/2000/svg">
<path d="M28.976 4.0238C28.6503 3.69802 28.2634 3.43975 27.8377 3.26381C27.4119 3.08788 26.9555 2.99773 26.4949 2.99854C26.0342 2.99935 25.5781 3.09111 25.153 3.26855C24.7278 3.44599 24.3419 3.70562 24.0173 4.03255L2.28354 26.3251C2.15902 26.452 2.07062 26.6099 2.02746 26.7825C1.98429 26.955 1.98792 27.1359 2.03798 27.3066C2.08803 27.4773 2.18269 27.6315 2.31221 27.7534C2.44173 27.8753 2.60141 27.9604 2.77479 28.0001C4.20937 28.3325 5.67719 28.5003 7.14979 28.5001C11.3273 28.5001 15.5098 27.1401 19.441 24.4738C23.4098 21.7826 25.7098 18.7426 25.806 18.6138C25.9506 18.4212 26.0209 18.183 26.0039 17.9428C25.9869 17.7026 25.8838 17.4766 25.7135 17.3063L23.371 14.9613L28.996 8.9613C29.6436 8.30152 30.0047 7.41291 30.001 6.48844C29.9972 5.56398 29.6289 4.67832 28.976 4.0238ZM23.6523 18.0788C22.0674 19.8934 20.2564 21.4973 18.2635 22.8513C13.9548 25.7576 9.51354 26.9388 5.03354 26.3713L18.321 12.7463L23.6523 18.0788Z" fill="#4A4A4F"/>
</svg>
