<svg width="32" height="32" viewBox="0 0 32 32" fill="none" xmlns="http://www.w3.org/2000/svg">
<path d="M26.74 26.3274C26.8302 26.4242 26.9002 26.538 26.9461 26.6622C26.992 26.7863 27.0127 26.9183 27.0072 27.0505C27.0017 27.1827 26.97 27.3125 26.9139 27.4324C26.8578 27.5522 26.7786 27.6598 26.6806 27.7488C26.5827 27.8378 26.4681 27.9065 26.3434 27.9508C26.2187 27.9952 26.0865 28.0144 25.9544 28.0073C25.8222 28.0002 25.6928 27.9669 25.5736 27.9094C25.4544 27.8519 25.3478 27.7714 25.26 27.6724L20.4638 22.3974L12.7313 30.6824C12.5829 30.8407 12.3871 30.9465 12.1733 30.9838C11.9596 31.021 11.7395 30.9878 11.5463 30.889C11.3531 30.7902 11.1973 30.6313 11.1023 30.4361C11.0074 30.241 10.9785 30.0203 11.02 29.8074L12.8525 20.6411L5.64876 17.9361C5.49405 17.8783 5.35608 17.783 5.24719 17.6588C5.13829 17.5346 5.06186 17.3853 5.02472 17.2244C4.98757 17.0634 4.99088 16.8958 5.03434 16.7364C5.07779 16.5771 5.16005 16.4309 5.27376 16.3111L10.1713 11.0611L5.26001 5.67237C5.16984 5.57552 5.09979 5.46173 5.05393 5.3376C5.00806 5.21347 4.98729 5.08147 4.99282 4.94926C4.99834 4.81704 5.03005 4.68724 5.08611 4.56737C5.14217 4.4475 5.22146 4.33995 5.3194 4.25095C5.41733 4.16195 5.53195 4.09327 5.65662 4.0489C5.78129 4.00452 5.91352 3.98534 6.04566 3.99244C6.1778 3.99955 6.30722 4.03282 6.42641 4.09031C6.5456 4.1478 6.65219 4.22838 6.74001 4.32737L26.74 26.3274ZM22.4725 18.6599C22.5654 18.7621 22.6784 18.8439 22.8045 18.9003C22.9305 18.9567 23.0669 18.9863 23.205 18.9874H23.2125C23.3497 18.9873 23.4855 18.9589 23.6113 18.9041C23.7371 18.8492 23.8503 18.7691 23.9438 18.6686L26.7313 15.6824C26.8436 15.5625 26.9246 15.4168 26.9673 15.2582C27.0099 15.0996 27.0128 14.9329 26.9758 14.7729C26.9387 14.6129 26.8628 14.4645 26.7547 14.3408C26.6467 14.2171 26.5098 14.1219 26.3563 14.0636L19.1475 11.3624L20.98 2.19612C21.0215 1.98315 20.9926 1.76246 20.8977 1.56735C20.8027 1.37224 20.6469 1.21331 20.4537 1.11453C20.2605 1.01574 20.0405 0.982477 19.8267 1.01974C19.613 1.05701 19.4171 1.16279 19.2688 1.32112L13.5338 7.46237C13.3625 7.64591 13.2665 7.88714 13.2649 8.13817C13.2633 8.38919 13.3561 8.63164 13.525 8.81737L22.4725 18.6599Z" fill="#4A4A4F"/>
</svg>
