<svg width="32" height="32" viewBox="0 0 32 32" fill="none" xmlns="http://www.w3.org/2000/svg">
<path d="M21.9999 28.9998C21.9999 29.265 21.8946 29.5193 21.707 29.7069C21.5195 29.8944 21.2651 29.9998 20.9999 29.9998H10.9999C10.7347 29.9998 10.4803 29.8944 10.2928 29.7069C10.1053 29.5193 9.99992 29.265 9.99992 28.9998C9.99992 28.7346 10.1053 28.4802 10.2928 28.2927C10.4803 28.1051 10.7347 27.9998 10.9999 27.9998H20.9999C21.2651 27.9998 21.5195 28.1051 21.707 28.2927C21.8946 28.4802 21.9999 28.7346 21.9999 28.9998ZM26.9999 12.9998C27.0042 14.6668 26.6276 16.3128 25.8989 17.8122C25.1701 19.3115 24.1085 20.6245 22.7949 21.651C22.5493 21.8393 22.35 22.0812 22.2122 22.3583C22.0744 22.6354 22.0018 22.9403 21.9999 23.2498V23.9998C21.9999 24.5302 21.7892 25.0389 21.4141 25.414C21.0391 25.7891 20.5304 25.9998 19.9999 25.9998H11.9999C11.4695 25.9998 10.9608 25.7891 10.5857 25.414C10.2106 25.0389 9.99992 24.5302 9.99992 23.9998V23.2498C9.99971 22.944 9.92941 22.6424 9.79441 22.368C9.65941 22.0937 9.4633 21.854 9.22117 21.6673C7.91109 20.647 6.85024 19.342 6.11892 17.8512C5.38759 16.3604 5.00494 14.7228 4.99992 13.0623C4.96742 7.10353 9.78242 2.14352 15.7349 1.99977C17.2016 1.96443 18.6605 2.22284 20.0259 2.7598C21.3912 3.29675 22.6353 4.1014 23.685 5.12639C24.7347 6.15137 25.5687 7.37598 26.138 8.72814C26.7073 10.0803 27.0003 11.5327 26.9999 12.9998ZM24.9999 12.9998C25.0003 11.7994 24.7605 10.611 24.2946 9.50463C23.8288 8.39828 23.1464 7.3963 22.2875 6.55766C21.4286 5.71903 20.4106 5.06069 19.2934 4.62141C18.1762 4.18212 16.9825 3.97076 15.7824 3.99977C10.9074 4.11477 6.97367 8.17352 6.99992 13.0485C7.00439 14.4068 7.31778 15.7462 7.91636 16.9655C8.51494 18.1847 9.38303 19.2518 10.4549 20.086C10.9367 20.4606 11.3264 20.9404 11.5942 21.4888C11.862 22.0371 12.0008 22.6395 11.9999 23.2498V23.9998H14.9999V18.4135L11.2924 14.7073C11.1048 14.5196 10.9994 14.2651 10.9994 13.9998C10.9994 13.7344 11.1048 13.4799 11.2924 13.2923C11.4801 13.1046 11.7346 12.9992 11.9999 12.9992C12.2653 12.9992 12.5198 13.1046 12.7074 13.2923L15.9999 16.586L19.2924 13.2923C19.3853 13.1994 19.4956 13.1257 19.617 13.0754C19.7384 13.0251 19.8685 12.9992 19.9999 12.9992C20.1313 12.9992 20.2614 13.0251 20.3828 13.0754C20.5042 13.1257 20.6145 13.1994 20.7074 13.2923C20.8003 13.3852 20.874 13.4955 20.9243 13.6169C20.9746 13.7383 21.0005 13.8684 21.0005 13.9998C21.0005 14.1312 20.9746 14.2613 20.9243 14.3827C20.874 14.5041 20.8003 14.6144 20.7074 14.7073L16.9999 18.4135V23.9998H19.9999V23.2498C20.001 22.6377 20.1421 22.034 20.4122 21.4848C20.6824 20.9356 21.0745 20.4555 21.5587 20.081C22.6338 19.2408 23.5027 18.1661 24.0991 16.9388C24.6955 15.7116 25.0036 14.3643 24.9999 12.9998Z" fill="#4A4A4F"/>
</svg>
