<svg width="32" height="32" viewBox="0 0 32 32" fill="none" xmlns="http://www.w3.org/2000/svg">
<path d="M26.8298 10.8276C26.2019 11.4537 25.3841 11.8539 24.5045 11.9657C23.6249 12.0774 22.7331 11.8943 21.9686 11.4451L11.4448 21.9689C11.8247 22.6133 12.0163 23.3514 11.9978 24.0992C11.9793 24.8471 11.7514 25.5748 11.3401 26.1996C10.9288 26.8245 10.3505 27.3215 9.67089 27.6341C8.99129 27.9468 8.23762 28.0626 7.49549 27.9685C6.75336 27.8743 6.05251 27.5739 5.47254 27.1014C4.89257 26.6289 4.45672 26.0032 4.2145 25.2954C3.97228 24.5876 3.9334 23.8261 4.10227 23.0974C4.27113 22.3686 4.64098 21.7018 5.16981 21.1726C5.79761 20.5464 6.61538 20.146 7.49506 20.0343C8.37473 19.9226 9.26663 20.1057 10.0311 20.5551L20.5548 10.0314C20.1749 9.38696 19.9833 8.6489 20.0018 7.90105C20.0203 7.1532 20.2482 6.42552 20.6595 5.80067C21.0708 5.17582 21.6491 4.67883 22.3287 4.36615C23.0083 4.05348 23.762 3.93765 24.5041 4.03182C25.2463 4.12599 25.9471 4.42639 26.5271 4.89889C27.1071 5.3714 27.5429 5.99707 27.7851 6.70486C28.0273 7.41264 28.0662 8.17416 27.8974 8.90294C27.7285 9.63171 27.3586 10.2985 26.8298 10.8276Z" fill="#4A4A4F"/>
</svg>
