<svg width="32" height="32" viewBox="0 0 32 32" fill="none" xmlns="http://www.w3.org/2000/svg">
<path d="M29.8298 9.82747C29.4587 10.1998 29.0176 10.4951 28.5319 10.6963C28.0462 10.8975 27.5255 11.0007 26.9998 11C26.678 10.9998 26.3574 10.9612 26.0448 10.885L22.716 17.0675C22.7535 17.1025 22.791 17.1375 22.8273 17.1737C23.3562 17.7027 23.7261 18.3695 23.8951 19.0982C24.0641 19.827 24.0254 20.5885 23.7833 21.2963C23.5412 22.0041 23.1055 22.6298 22.5256 23.1025C21.9457 23.5751 21.2449 23.8756 20.5028 23.9699C19.7607 24.0642 19.0071 23.9485 18.3274 23.636C17.6478 23.3235 17.0694 22.8266 16.6579 22.2019C16.2465 21.5771 16.0185 20.8495 15.9998 20.1017C15.9811 19.3538 16.1725 18.6157 16.5523 17.9712L14.0298 15.4487C13.4144 15.8103 12.7135 16.0006 11.9998 16C11.6776 16.0002 11.3566 15.962 11.0435 15.8862L7.71479 22.0662C7.75229 22.1012 7.79104 22.1362 7.82729 22.1725C8.38661 22.7319 8.76748 23.4446 8.92174 24.2205C9.07601 24.9964 8.99674 25.8007 8.69397 26.5315C8.39119 27.2624 7.8785 27.887 7.22072 28.3265C6.56295 28.766 5.78962 29.0006 4.99854 29.0006C4.20745 29.0006 3.43413 28.766 2.77635 28.3265C2.11857 27.887 1.60588 27.2624 1.30311 26.5315C1.00033 25.8007 0.921062 24.9964 1.07533 24.2205C1.2296 23.4446 1.61047 22.7319 2.16979 22.1725C2.65647 21.686 3.26041 21.3333 3.92324 21.1485C4.58607 20.9637 5.28537 20.953 5.95354 21.1175L9.28229 14.935C9.24479 14.9 9.20729 14.865 9.17104 14.8287C8.79951 14.4573 8.50479 14.0163 8.30371 13.5309C8.10263 13.0456 7.99914 12.5253 7.99914 12C7.99914 11.4746 8.10263 10.9544 8.30371 10.469C8.50479 9.98366 8.79951 9.54267 9.17104 9.17122C9.8592 8.48111 10.7757 8.06598 11.7483 8.0038C12.7209 7.94162 13.6827 8.23667 14.4532 8.83353C15.2236 9.43039 15.7496 10.288 15.9324 11.2453C16.1153 12.2026 15.9423 13.1937 15.446 14.0325L17.9685 16.555C18.8698 16.0269 19.9412 15.87 20.956 16.1175L24.2848 9.93497C24.2473 9.89997 24.2085 9.86497 24.1723 9.82872C23.8008 9.45727 23.506 9.01628 23.305 8.53091C23.1039 8.04555 23.0004 7.52533 23.0004 6.99997C23.0004 6.4746 23.1039 5.95439 23.305 5.46902C23.506 4.98366 23.8008 4.54266 24.1723 4.17122C24.9225 3.42099 25.94 2.99951 27.001 2.99951C28.062 2.99951 29.0796 3.42099 29.8298 4.17122C30.58 4.92145 31.0015 5.93898 31.0015 6.99997C31.0015 8.06096 30.58 9.07849 29.8298 9.82872V9.82747Z" fill="#4A4A4F"/>
</svg>
