<svg width="32" height="32" viewBox="0 0 32 32" fill="none" xmlns="http://www.w3.org/2000/svg">
<path d="M26 4H6C5.46957 4 4.96086 4.21071 4.58579 4.58579C4.21071 4.96086 4 5.46957 4 6V26C4 26.5304 4.21071 27.0391 4.58579 27.4142C4.96086 27.7893 5.46957 28 6 28H26C26.5304 28 27.0391 27.7893 27.4142 27.4142C27.7893 27.0391 28 26.5304 28 26V6C28 5.46957 27.7893 4.96086 27.4142 4.58579C27.0391 4.21071 26.5304 4 26 4ZM12 8C12 7.73478 12.1054 7.48043 12.2929 7.29289C12.4804 7.10536 12.7348 7 13 7C13.2652 7 13.5196 7.10536 13.7071 7.29289C13.8946 7.48043 14 7.73478 14 8V10C14 10.2652 13.8946 10.5196 13.7071 10.7071C13.5196 10.8946 13.2652 11 13 11C12.7348 11 12.4804 10.8946 12.2929 10.7071C12.1054 10.5196 12 10.2652 12 10V8ZM8 12H10C10.2652 12 10.5196 12.1054 10.7071 12.2929C10.8946 12.4804 11 12.7348 11 13C11 13.2652 10.8946 13.5196 10.7071 13.7071C10.5196 13.8946 10.2652 14 10 14H8C7.73478 14 7.48043 13.8946 7.29289 13.7071C7.10536 13.5196 7 13.2652 7 13C7 12.7348 7.10536 12.4804 7.29289 12.2929C7.48043 12.1054 7.73478 12 8 12ZM16.01 22.7075L15.1088 23.6087C14.668 24.0513 14.1443 24.4026 13.5676 24.6426C12.9909 24.8825 12.3726 25.0063 11.748 25.007C11.1234 25.0076 10.5048 24.8851 9.92757 24.6463C9.35038 24.4076 8.82595 24.0574 8.38428 23.6157C7.94262 23.1741 7.5924 22.6496 7.35367 22.0724C7.11494 21.4952 6.9924 20.8766 6.99304 20.252C6.99369 19.6274 7.11752 19.0091 7.35744 18.4324C7.59737 17.8557 7.94867 17.332 8.39125 16.8913L9.2925 15.99C9.47997 15.8024 9.73431 15.6969 9.99956 15.6968C10.2648 15.6966 10.5192 15.8019 10.7069 15.9894C10.8945 16.1769 11 16.4312 11.0001 16.6964C11.0002 16.9617 10.895 17.2161 10.7075 17.4037L9.805 18.305C9.28915 18.8208 8.99935 19.5205 8.99935 20.25C8.99935 20.9795 9.28915 21.6792 9.805 22.195C10.3208 22.7108 11.0205 23.0006 11.75 23.0006C12.4795 23.0006 13.1792 22.7108 13.695 22.195L14.5962 21.2925C14.6892 21.1997 14.7994 21.1261 14.9208 21.0758C15.0422 21.0256 15.1722 20.9998 15.3036 20.9999C15.4349 20.9999 15.5649 21.0259 15.6863 21.0762C15.8076 21.1265 15.9178 21.2002 16.0106 21.2931C16.1035 21.386 16.1771 21.4963 16.2273 21.6177C16.2775 21.739 16.3033 21.8691 16.3032 22.0004C16.3032 22.1318 16.2773 22.2618 16.2269 22.3831C16.1766 22.5045 16.1029 22.6147 16.01 22.7075ZM20 24C20 24.2652 19.8946 24.5196 19.7071 24.7071C19.5196 24.8946 19.2652 25 19 25C18.7348 25 18.4804 24.8946 18.2929 24.7071C18.1054 24.5196 18 24.2652 18 24V22C18 21.7348 18.1054 21.4804 18.2929 21.2929C18.4804 21.1054 18.7348 21 19 21C19.2652 21 19.5196 21.1054 19.7071 21.2929C19.8946 21.4804 20 21.7348 20 22V24ZM24 20H22C21.7348 20 21.4804 19.8946 21.2929 19.7071C21.1054 19.5196 21 19.2652 21 19C21 18.7348 21.1054 18.4804 21.2929 18.2929C21.4804 18.1054 21.7348 18 22 18H24C24.2652 18 24.5196 18.1054 24.7071 18.2929C24.8946 18.4804 25 18.7348 25 19C25 19.2652 24.8946 19.5196 24.7071 19.7071C24.5196 19.8946 24.2652 20 24 20ZM23.6087 15.1088L22.7075 16.01C22.52 16.1976 22.2657 16.3031 22.0004 16.3032C21.7352 16.3034 21.4808 16.1981 21.2931 16.0106C21.1055 15.8232 21 15.5688 20.9999 15.3036C20.9998 15.0383 21.105 14.7839 21.2925 14.5962L22.195 13.695C22.7108 13.1792 23.0006 12.4795 23.0006 11.75C23.0006 11.0205 22.7108 10.3208 22.195 9.805C21.6792 9.28915 20.9795 8.99935 20.25 8.99935C19.5205 8.99935 18.8208 9.28915 18.305 9.805L17.4037 10.7075C17.2161 10.895 16.9617 11.0002 16.6964 11.0001C16.4312 11 16.1769 10.8945 15.9894 10.7069C15.8019 10.5192 15.6966 10.2648 15.6968 9.99956C15.6969 9.73431 15.8024 9.47997 15.99 9.2925L16.8913 8.39125C17.332 7.94867 17.8557 7.59737 18.4324 7.35744C19.0091 7.11752 19.6274 6.99369 20.252 6.99304C20.8766 6.9924 21.4952 7.11494 22.0724 7.35367C22.6496 7.5924 23.1741 7.94262 23.6157 8.38428C24.0574 8.82595 24.4076 9.35038 24.6463 9.92757C24.8851 10.5048 25.0076 11.1234 25.007 11.748C25.0063 12.3726 24.8825 12.9909 24.6426 13.5676C24.4026 14.1443 24.0513 14.668 23.6087 15.1088Z" fill="#4A4A4F"/>
</svg>
