<svg width="32" height="32" viewBox="0 0 32 32" fill="none" xmlns="http://www.w3.org/2000/svg">
<path d="M20.7076 11.2925C20.8006 11.3854 20.8743 11.4957 20.9247 11.6171C20.975 11.7385 21.0009 11.8686 21.0009 12C21.0009 12.1314 20.975 12.2616 20.9247 12.383C20.8743 12.5044 20.8006 12.6146 20.7076 12.7075L12.7076 20.7075C12.6147 20.8004 12.5044 20.8741 12.383 20.9244C12.2616 20.9747 12.1315 21.0006 12.0001 21.0006C11.8687 21.0006 11.7386 20.9747 11.6172 20.9244C11.4958 20.8741 11.3855 20.8004 11.2926 20.7075C11.1997 20.6146 11.126 20.5043 11.0757 20.3829C11.0254 20.2615 10.9996 20.1314 10.9996 20C10.9996 19.8686 11.0254 19.7385 11.0757 19.6171C11.126 19.4957 11.1997 19.3854 11.2926 19.2925L19.2926 11.2925C19.3855 11.1995 19.4958 11.1258 19.6172 11.0755C19.7386 11.0251 19.8687 10.9992 20.0001 10.9992C20.1315 10.9992 20.2617 11.0251 20.3831 11.0755C20.5045 11.1258 20.6147 11.1995 20.7076 11.2925ZM26.9501 5.05002C26.3001 4.39993 25.5284 3.88425 24.6791 3.53242C23.8297 3.1806 22.9194 2.99951 22.0001 2.99951C21.0808 2.99951 20.1705 3.1806 19.3212 3.53242C18.4718 3.88425 17.7001 4.39993 17.0501 5.05002L13.2926 8.80627C13.105 8.99391 12.9996 9.2484 12.9996 9.51377C12.9996 9.77913 13.105 10.0336 13.2926 10.2213C13.4803 10.4089 13.7347 10.5143 14.0001 10.5143C14.2655 10.5143 14.52 10.4089 14.7076 10.2213L18.4651 6.47127C19.4062 5.55083 20.6723 5.03866 21.9887 5.04591C23.3051 5.05316 24.5655 5.57924 25.4964 6.50999C26.4273 7.44074 26.9536 8.70105 26.9611 10.0174C26.9686 11.3338 26.4566 12.6 25.5364 13.5413L21.7776 17.2988C21.59 17.4862 21.4845 17.7406 21.4844 18.0058C21.4843 18.2711 21.5895 18.5255 21.777 18.7131C21.9645 18.9008 22.2188 19.0063 22.484 19.0064C22.7493 19.0065 23.0037 18.9012 23.1914 18.7138L26.9501 14.95C27.6002 14.3 28.1159 13.5283 28.4677 12.679C28.8195 11.8296 29.0006 10.9193 29.0006 10C29.0006 9.0807 28.8195 8.17039 28.4677 7.32107C28.1159 6.47174 27.6002 5.70004 26.9501 5.05002ZM17.2926 21.7775L13.5351 25.535C13.0727 26.0078 12.5211 26.3842 11.9123 26.6423C11.3034 26.9004 10.6494 27.0352 9.98808 27.0389C9.32677 27.0425 8.67131 26.9149 8.05965 26.6635C7.44799 26.4121 6.89228 26.0418 6.4247 25.5742C5.95712 25.1065 5.58695 24.5507 5.33564 23.939C5.08433 23.3273 4.95687 22.6718 4.96062 22.0105C4.96438 21.3492 5.09929 20.6952 5.35754 20.0864C5.61579 19.4776 5.99225 18.9261 6.46511 18.4638L10.2214 14.7075C10.409 14.5199 10.5144 14.2654 10.5144 14C10.5144 13.7347 10.409 13.4802 10.2214 13.2925C10.0337 13.1049 9.77923 12.9995 9.51386 12.9995C9.2485 12.9995 8.994 13.1049 8.80636 13.2925L5.05011 17.05C3.73729 18.3628 2.99976 20.1434 2.99976 22C2.99976 23.8566 3.73729 25.6372 5.05011 26.95C6.36293 28.2628 8.1435 29.0004 10.0001 29.0004C11.8567 29.0004 13.6373 28.2628 14.9501 26.95L18.7076 23.1913C18.8951 23.0036 19.0003 22.7492 19.0002 22.4839C19.0001 22.2187 18.8946 21.9644 18.707 21.7769C18.5193 21.5894 18.2649 21.4842 17.9997 21.4843C17.7344 21.4844 17.4801 21.5899 17.2926 21.7775Z" fill="#4A4A4F"/>
</svg>
