<svg width="32" height="32" viewBox="0 0 32 32" fill="none" xmlns="http://www.w3.org/2000/svg">
<path d="M23.8288 8.17125C23.0799 7.42258 22.0648 7.00138 21.0059 6.99997C19.947 6.99857 18.9308 7.41707 18.18 8.16375L16.7237 9.69C16.5375 9.86408 16.2918 9.96045 16.0369 9.95942C15.7819 9.95839 15.537 9.86003 15.3522 9.68446C15.1674 9.50888 15.0566 9.26934 15.0425 9.0148C15.0283 8.76026 15.112 8.50994 15.2762 8.315L16.7412 6.77875C16.7463 6.77302 16.7518 6.7676 16.7575 6.7625C17.8858 5.65242 19.4071 5.03316 20.9899 5.0396C22.5727 5.04605 24.0889 5.67768 25.2081 6.79691C26.3273 7.91614 26.959 9.4323 26.9654 11.0151C26.9718 12.5979 26.3526 14.1192 25.2425 15.2475C25.2374 15.2532 25.232 15.2587 25.2262 15.2638L23.69 16.7288C23.4951 16.893 23.2447 16.9767 22.9902 16.9625C22.7357 16.9484 22.4961 16.8376 22.3205 16.6528C22.145 16.468 22.0466 16.2231 22.0456 15.9681C22.0446 15.7132 22.1409 15.4675 22.315 15.2812L23.8412 13.825C24.5888 13.0733 25.0074 12.0556 25.005 10.9955C25.0027 9.93543 24.5796 8.91961 23.8288 8.17125ZM15.2762 22.31L13.82 23.8363C13.0662 24.5683 12.0547 24.9744 11.004 24.9667C9.95327 24.959 8.94777 24.5382 8.20479 23.7952C7.4618 23.0522 7.041 22.0467 7.03332 20.996C7.02564 19.9453 7.4317 18.9338 8.16375 18.18L9.69 16.7237C9.86408 16.5375 9.96045 16.2918 9.95942 16.0369C9.95839 15.7819 9.86003 15.537 9.68446 15.3522C9.50888 15.1674 9.26934 15.0566 9.0148 15.0425C8.76026 15.0283 8.50994 15.112 8.315 15.2762L6.77375 16.7412C6.76802 16.7463 6.7626 16.7518 6.7575 16.7575C5.64742 17.8858 5.02816 19.4071 5.0346 20.9899C5.04105 22.5727 5.67268 24.0889 6.79191 25.2081C7.91114 26.3273 9.4273 26.959 11.0101 26.9654C12.5929 26.9718 14.1142 26.3526 15.2425 25.2425C15.2482 25.2374 15.2537 25.232 15.2587 25.2262L16.7237 23.69C16.8233 23.5969 16.9029 23.4844 16.9574 23.3595C17.0119 23.2346 17.0404 23.0998 17.0409 22.9635C17.0415 22.8271 17.0141 22.6921 16.9606 22.5668C16.9071 22.4414 16.8285 22.3283 16.7296 22.2344C16.6308 22.1405 16.5138 22.0678 16.3858 22.0208C16.2579 21.9738 16.1217 21.9534 15.9855 21.961C15.8494 21.9685 15.7163 22.0038 15.5943 22.0647C15.4723 22.1256 15.3641 22.2108 15.2762 22.315V22.31ZM26 19H23C22.7348 19 22.4804 19.1054 22.2929 19.2929C22.1054 19.4804 22 19.7348 22 20C22 20.2652 22.1054 20.5196 22.2929 20.7071C22.4804 20.8946 22.7348 21 23 21H26C26.2652 21 26.5196 20.8946 26.7071 20.7071C26.8946 20.5196 27 20.2652 27 20C27 19.7348 26.8946 19.4804 26.7071 19.2929C26.5196 19.1054 26.2652 19 26 19ZM6 13H9C9.26522 13 9.51957 12.8946 9.70711 12.7071C9.89464 12.5196 10 12.2652 10 12C10 11.7348 9.89464 11.4804 9.70711 11.2929C9.51957 11.1054 9.26522 11 9 11H6C5.73478 11 5.48043 11.1054 5.29289 11.2929C5.10536 11.4804 5 11.7348 5 12C5 12.2652 5.10536 12.5196 5.29289 12.7071C5.48043 12.8946 5.73478 13 6 13ZM20 22C19.7348 22 19.4804 22.1054 19.2929 22.2929C19.1054 22.4804 19 22.7348 19 23V26C19 26.2652 19.1054 26.5196 19.2929 26.7071C19.4804 26.8946 19.7348 27 20 27C20.2652 27 20.5196 26.8946 20.7071 26.7071C20.8946 26.5196 21 26.2652 21 26V23C21 22.7348 20.8946 22.4804 20.7071 22.2929C20.5196 22.1054 20.2652 22 20 22ZM12 10C12.2652 10 12.5196 9.89464 12.7071 9.70711C12.8946 9.51957 13 9.26522 13 9V6C13 5.73478 12.8946 5.48043 12.7071 5.29289C12.5196 5.10536 12.2652 5 12 5C11.7348 5 11.4804 5.10536 11.2929 5.29289C11.1054 5.48043 11 5.73478 11 6V9C11 9.26522 11.1054 9.51957 11.2929 9.70711C11.4804 9.89464 11.7348 10 12 10Z" fill="#4A4A4F"/>
</svg>
