<svg width="32" height="32" viewBox="0 0 32 32" fill="none" xmlns="http://www.w3.org/2000/svg">
<path d="M28.0001 16.0002C28.0001 16.2654 27.8947 16.5198 27.7072 16.7073C27.5196 16.8949 27.2653 17.0002 27.0001 17.0002H13.0001C12.7348 17.0002 12.4805 16.8949 12.2929 16.7073C12.1054 16.5198 12.0001 16.2654 12.0001 16.0002C12.0001 15.735 12.1054 15.4807 12.2929 15.2931C12.4805 15.1056 12.7348 15.0002 13.0001 15.0002H27.0001C27.2653 15.0002 27.5196 15.1056 27.7072 15.2931C27.8947 15.4807 28.0001 15.735 28.0001 16.0002ZM13.0001 9.00023H27.0001C27.2653 9.00023 27.5196 8.89487 27.7072 8.70733C27.8947 8.5198 28.0001 8.26544 28.0001 8.00023C28.0001 7.73501 27.8947 7.48066 27.7072 7.29312C27.5196 7.10558 27.2653 7.00023 27.0001 7.00023H13.0001C12.7348 7.00023 12.4805 7.10558 12.2929 7.29312C12.1054 7.48066 12.0001 7.73501 12.0001 8.00023C12.0001 8.26544 12.1054 8.5198 12.2929 8.70733C12.4805 8.89487 12.7348 9.00023 13.0001 9.00023ZM27.0001 23.0002H13.0001C12.7348 23.0002 12.4805 23.1056 12.2929 23.2931C12.1054 23.4807 12.0001 23.735 12.0001 24.0002C12.0001 24.2654 12.1054 24.5198 12.2929 24.7073C12.4805 24.8949 12.7348 25.0002 13.0001 25.0002H27.0001C27.2653 25.0002 27.5196 24.8949 27.7072 24.7073C27.8947 24.5198 28.0001 24.2654 28.0001 24.0002C28.0001 23.735 27.8947 23.4807 27.7072 23.2931C27.5196 23.1056 27.2653 23.0002 27.0001 23.0002ZM5.44756 6.89523L6.00006 6.61773V13.0002C6.00006 13.2654 6.10541 13.5198 6.29295 13.7073C6.48049 13.8949 6.73484 14.0002 7.00006 14.0002C7.26527 14.0002 7.51963 13.8949 7.70716 13.7073C7.8947 13.5198 8.00006 13.2654 8.00006 13.0002V5.00023C8.00018 4.82968 7.95668 4.66194 7.8737 4.51295C7.79072 4.36395 7.67101 4.23865 7.52596 4.14896C7.3809 4.05928 7.21532 4.00818 7.04494 4.00052C6.87457 3.99286 6.70507 4.02891 6.55256 4.10523L4.55256 5.10523C4.31519 5.22391 4.13469 5.43203 4.05076 5.6838C4.00921 5.80846 3.99262 5.94009 4.00193 6.07116C4.01125 6.20224 4.04629 6.3302 4.10506 6.44773C4.16382 6.56526 4.24516 6.67007 4.34443 6.75617C4.44371 6.84226 4.55896 6.90796 4.68363 6.94952C4.93539 7.03344 5.21019 7.01391 5.44756 6.89523ZM9.97131 19.5902C9.91601 19.1942 9.7812 18.8134 9.57498 18.4708C9.36876 18.1281 9.09539 17.8308 8.77131 17.5965C8.12219 17.1251 7.31594 16.9231 6.52125 17.0326C5.72656 17.1421 5.00501 17.5546 4.50756 18.184C4.31743 18.4281 4.16684 18.7006 4.06131 18.9915C4.0062 19.1167 3.97736 19.2519 3.97658 19.3886C3.9758 19.5254 4.00309 19.6609 4.05676 19.7867C4.11044 19.9126 4.18936 20.026 4.28864 20.1201C4.38792 20.2142 4.50545 20.287 4.63396 20.3338C4.76248 20.3807 4.89924 20.4007 5.03579 20.3926C5.17234 20.3845 5.30578 20.3485 5.42785 20.2867C5.54992 20.225 5.65802 20.1389 5.74548 20.0337C5.83294 19.9285 5.89788 19.8065 5.93631 19.6752C5.97131 19.5793 6.02107 19.4895 6.08381 19.409C6.26021 19.1892 6.51457 19.0459 6.79396 19.0088C7.07334 18.9718 7.35625 19.044 7.58381 19.2102C7.69327 19.2877 7.78584 19.3865 7.85589 19.5009C7.92595 19.6152 7.97202 19.7425 7.99131 19.8752C8.00895 20.0027 8.00066 20.1324 7.96693 20.2565C7.93321 20.3807 7.87475 20.4967 7.79506 20.5977C7.79141 20.6021 7.78807 20.6067 7.78506 20.6115L4.19881 25.4015C4.08767 25.5501 4.02011 25.7268 4.00367 25.9117C3.98723 26.0965 4.02257 26.2823 4.10573 26.4483C4.1889 26.6142 4.3166 26.7537 4.47454 26.8512C4.63249 26.9487 4.81445 27.0003 5.00006 27.0002H9.00006C9.26527 27.0002 9.51963 26.8949 9.70716 26.7073C9.8947 26.5198 10.0001 26.2654 10.0001 26.0002C10.0001 25.735 9.8947 25.4807 9.70716 25.2931C9.51963 25.1056 9.26527 25.0002 9.00006 25.0002H7.00006L9.38506 21.809C9.62686 21.4975 9.8034 21.1405 9.90413 20.7593C10.0049 20.3781 10.0277 19.9805 9.97131 19.5902Z" fill="#4A4A4F"/>
</svg>
