<svg width="32" height="32" viewBox="0 0 32 32" fill="none" xmlns="http://www.w3.org/2000/svg">
<path d="M26 10H12V7C12 5.93913 12.4214 4.92172 13.1716 4.17157C13.9217 3.42143 14.9391 3 16 3C17.9213 3 19.65 4.375 20.02 6.19875C20.0749 6.45646 20.2294 6.68207 20.4497 6.82655C20.6701 6.97103 20.9385 7.0227 21.1968 6.97032C21.455 6.91795 21.6822 6.76577 21.8288 6.54686C21.9755 6.32795 22.0298 6.06 21.98 5.80125C21.415 3.01875 18.9 1 16 1C14.4092 1.00165 12.884 1.63433 11.7592 2.75919C10.6343 3.88405 10.0017 5.40921 10 7V10H6C5.46957 10 4.96086 10.2107 4.58579 10.5858C4.21071 10.9609 4 11.4696 4 12V26C4 26.5304 4.21071 27.0391 4.58579 27.4142C4.96086 27.7893 5.46957 28 6 28H26C26.5304 28 27.0391 27.7893 27.4142 27.4142C27.7893 27.0391 28 26.5304 28 26V12C28 11.4696 27.7893 10.9609 27.4142 10.5858C27.0391 10.2107 26.5304 10 26 10ZM26 26H6V12H26V26ZM17.5 19C17.5 19.2967 17.412 19.5867 17.2472 19.8334C17.0824 20.08 16.8481 20.2723 16.574 20.3858C16.2999 20.4993 15.9983 20.5291 15.7074 20.4712C15.4164 20.4133 15.1491 20.2704 14.9393 20.0607C14.7296 19.8509 14.5867 19.5836 14.5288 19.2926C14.4709 19.0017 14.5006 18.7001 14.6142 18.426C14.7277 18.1519 14.92 17.9176 15.1666 17.7528C15.4133 17.588 15.7033 17.5 16 17.5C16.3978 17.5 16.7794 17.658 17.0607 17.9393C17.342 18.2206 17.5 18.6022 17.5 19Z" fill="#4A4A4F"/>
</svg>
