<svg width="32" height="32" viewBox="0 0 32 32" fill="none" xmlns="http://www.w3.org/2000/svg">
<path d="M26 10H12V7C12 5.93913 12.4214 4.92172 13.1716 4.17157C13.9217 3.42143 14.9391 3 16 3C17.9213 3 19.65 4.375 20.02 6.19875C20.0749 6.45646 20.2294 6.68207 20.4497 6.82655C20.6701 6.97103 20.9385 7.0227 21.1968 6.97032C21.455 6.91795 21.6822 6.76577 21.8288 6.54686C21.9755 6.32795 22.0298 6.06 21.98 5.80125C21.415 3.01875 18.9 1 16 1C14.4092 1.00165 12.884 1.63433 11.7592 2.75919C10.6343 3.88405 10.0017 5.40921 10 7V10H6C5.46957 10 4.96086 10.2107 4.58579 10.5858C4.21071 10.9609 4 11.4696 4 12V26C4 26.5304 4.21071 27.0391 4.58579 27.4142C4.96086 27.7893 5.46957 28 6 28H26C26.5304 28 27.0391 27.7893 27.4142 27.4142C27.7893 27.0391 28 26.5304 28 26V12C28 11.4696 27.7893 10.9609 27.4142 10.5858C27.0391 10.2107 26.5304 10 26 10ZM17 19.8288V23C17 23.2652 16.8946 23.5196 16.7071 23.7071C16.5196 23.8946 16.2652 24 16 24C15.7348 24 15.4804 23.8946 15.2929 23.7071C15.1054 23.5196 15 23.2652 15 23V19.8288C14.3328 19.5929 13.7704 19.1287 13.4124 18.5183C13.0543 17.9079 12.9235 17.1905 13.0432 16.493C13.1629 15.7955 13.5253 15.1628 14.0663 14.7066C14.6074 14.2505 15.2923 14.0003 16 14.0003C16.7077 14.0003 17.3926 14.2505 17.9337 14.7066C18.4747 15.1628 18.8371 15.7955 18.9568 16.493C19.0765 17.1905 18.9457 17.9079 18.5876 18.5183C18.2296 19.1287 17.6672 19.5929 17 19.8288Z" fill="#4A4A4F"/>
</svg>
