<svg width="32" height="32" viewBox="0 0 32 32" fill="none" xmlns="http://www.w3.org/2000/svg">
<path d="M21 14.0002C21 15.3847 20.5895 16.738 19.8203 17.8892C19.0512 19.0403 17.9579 19.9375 16.6788 20.4673C15.3997 20.9972 13.9923 21.1358 12.6344 20.8657C11.2765 20.5956 10.0293 19.9289 9.05029 18.9499C8.07132 17.971 7.40464 16.7237 7.13454 15.3658C6.86444 14.0079 7.00307 12.6005 7.53288 11.3214C8.0627 10.0423 8.9599 8.94907 10.111 8.1799C11.2622 7.41073 12.6156 7.00019 14 7.00019C15.8566 7.00019 17.637 7.73768 18.9498 9.05044C20.2625 10.3632 21 12.1437 21 14.0002ZM28.7075 28.7077C28.6147 28.8007 28.5044 28.8744 28.383 28.9247C28.2616 28.9751 28.1315 29.001 28 29.001C27.8686 29.001 27.7385 28.9751 27.6171 28.9247C27.4957 28.8744 27.3854 28.8007 27.2925 28.7077L21.035 22.4489C18.8589 24.2593 16.0687 25.1611 13.2446 24.9667C10.4206 24.7723 7.78018 23.4967 5.87265 21.4052C3.96511 19.3138 2.93729 16.5674 3.00296 13.7375C3.06864 10.9075 4.22276 8.2118 6.22527 6.21107C8.22777 4.21033 10.9245 3.05859 13.7545 2.99542C16.5845 2.93224 19.33 3.9625 21.4197 5.87188C23.5095 7.78126 24.7828 10.4228 24.9747 13.247C25.1666 16.0712 24.2623 18.8607 22.45 21.0352L28.7075 27.2927C28.8005 27.3856 28.8743 27.4958 28.9246 27.6172C28.9749 27.7386 29.0008 27.8688 29.0008 28.0002C29.0008 28.1316 28.9749 28.2617 28.9246 28.3831C28.8743 28.5045 28.8005 28.6148 28.7075 28.7077ZM14 23.0002C15.7801 23.0002 17.5201 22.4723 19.0002 21.4834C20.4802 20.4945 21.6338 19.0889 22.315 17.4443C22.9961 15.7998 23.1744 13.9902 22.8271 12.2444C22.4798 10.4985 21.6227 8.8949 20.364 7.63622C19.1053 6.37755 17.5017 5.52038 15.7559 5.17312C14.01 4.82585 12.2004 5.00408 10.5559 5.68527C8.91135 6.36646 7.50575 7.52001 6.51681 9.00005C5.52788 10.4801 5.00004 12.2202 5.00004 14.0002C5.00269 16.3863 5.95175 18.674 7.639 20.3612C9.32625 22.0485 11.6139 22.9975 14 23.0002Z" fill="#4A4A4F"/>
</svg>
