<svg width="32" height="32" viewBox="0 0 32 32" fill="none" xmlns="http://www.w3.org/2000/svg">
<path d="M29.7073 5.7075C29.8473 5.56764 29.9427 5.38939 29.9813 5.19531C30.02 5.00122 30.0002 4.80003 29.9244 4.61721C29.8487 4.43439 29.7204 4.27815 29.5558 4.16828C29.3912 4.05841 29.1977 3.99984 28.9998 4H2.99981C2.80192 3.99984 2.60842 4.05841 2.44383 4.16828C2.27923 4.27815 2.15094 4.43439 2.07519 4.61721C1.99944 4.80003 1.97963 5.00122 2.01828 5.19531C2.05693 5.38939 2.1523 5.56764 2.29231 5.7075L14.9998 18.4137V26H10.9998C10.7346 26 10.4802 26.1054 10.2927 26.2929C10.1052 26.4804 9.99981 26.7348 9.99981 27C9.99981 27.2652 10.1052 27.5196 10.2927 27.7071C10.4802 27.8946 10.7346 28 10.9998 28H20.9998C21.265 28 21.5194 27.8946 21.7069 27.7071C21.8945 27.5196 21.9998 27.2652 21.9998 27C21.9998 26.7348 21.8945 26.4804 21.7069 26.2929C21.5194 26.1054 21.265 26 20.9998 26H16.9998V18.4137L29.7073 5.7075ZM26.5823 6L24.5823 8H7.41356L5.41356 6H26.5823Z" fill="#4A4A4F"/>
</svg>
