<svg width="32" height="32" viewBox="0 0 32 32" fill="none" xmlns="http://www.w3.org/2000/svg">
<path d="M27.125 4.3501C26.8571 4.16608 26.5482 4.05039 26.2253 4.01313C25.9024 3.97588 25.5753 4.01818 25.2725 4.13635C23.5187 4.81885 19.9775 5.96385 16 5.96385C12.0225 5.96385 8.48 4.81885 6.72375 4.13635C6.42073 4.01873 6.09361 3.97673 5.7707 4.01399C5.44779 4.05126 5.13884 4.16667 4.87058 4.35023C4.60232 4.53379 4.38284 4.77996 4.23115 5.06745C4.07945 5.35493 4.00011 5.67505 4 6.0001V12.9714C4 17.4514 5.20625 21.6776 7.3975 24.8689C9.6675 28.1764 12.7225 29.9939 16 29.9939C19.2775 29.9939 22.3325 28.1726 24.6025 24.8689C26.7938 21.6801 28 17.4539 28 12.9739V6.0001C27.9994 5.67464 27.9194 5.35423 27.7669 5.06669C27.6144 4.77916 27.3941 4.53318 27.125 4.3501ZM8.25 15.6664C8.07313 15.4674 7.98253 15.2064 7.99812 14.9407C8.00584 14.8091 8.03939 14.6804 8.09688 14.5618C8.15436 14.4432 8.23463 14.3371 8.33313 14.2495C8.43162 14.1619 8.54639 14.0946 8.6709 14.0514C8.79541 14.0081 8.92721 13.9899 9.05878 13.9976C9.32449 14.0132 9.57313 14.1337 9.75 14.3326C10.085 14.7076 10.8562 15.0001 11.5 15.0001C12.1438 15.0001 12.92 14.7064 13.25 14.3326C13.3376 14.2341 13.4437 14.1538 13.5623 14.0964C13.6809 14.0389 13.8097 14.0053 13.9412 13.9976C14.0728 13.9899 14.2046 14.0081 14.3291 14.0514C14.4536 14.0946 14.5684 14.1619 14.6669 14.2495C14.7654 14.3371 14.8456 14.4432 14.9031 14.5618C14.9606 14.6804 14.9942 14.8091 15.0019 14.9407C15.0096 15.0723 14.9913 15.2041 14.9481 15.3286C14.9049 15.4531 14.8376 15.5679 14.75 15.6664C14.0312 16.4639 12.7275 17.0001 11.5 17.0001C10.2725 17.0001 8.96875 16.4639 8.25 15.6664ZM19.8275 23.5539C19.7367 23.6904 19.6138 23.8025 19.4695 23.8803C19.3252 23.9581 19.1639 23.9993 19 24.0001C18.8033 24.0004 18.6109 23.9421 18.4475 23.8326C17.6337 23.2926 17 23.0001 16 23.0001C15 23.0001 14.3663 23.2926 13.5538 23.8326C13.3329 23.974 13.0654 24.023 12.8088 23.9691C12.5523 23.9151 12.3271 23.7626 12.1819 23.5443C12.0367 23.326 11.983 23.0594 12.0325 22.8019C12.0819 22.5444 12.2305 22.3166 12.4462 22.1676C13.5 21.4664 14.5075 21.0001 16 21.0001C17.4925 21.0001 18.5 21.4664 19.5537 22.1676C19.7745 22.3145 19.9279 22.543 19.9802 22.803C20.0324 23.063 19.9793 23.333 19.8325 23.5539H19.8275ZM23.74 15.6664C23.0262 16.4639 21.7225 17.0001 20.49 17.0001C19.2575 17.0001 17.9587 16.4639 17.24 15.6664C17.0631 15.4661 16.9731 15.2038 16.9896 14.9372C17.0061 14.6705 17.1279 14.4213 17.3281 14.2445C17.5284 14.0676 17.7907 13.9775 18.0573 13.9941C18.324 14.0106 18.5731 14.1324 18.75 14.3326C19.085 14.7076 19.8562 15.0001 20.5 15.0001C21.1437 15.0001 21.92 14.7064 22.25 14.3326C22.3376 14.2341 22.4437 14.1538 22.5623 14.0964C22.6809 14.0389 22.8097 14.0053 22.9412 13.9976C23.0728 13.9899 23.2046 14.0081 23.3291 14.0514C23.4536 14.0946 23.5684 14.1619 23.6669 14.2495C23.7654 14.3371 23.8456 14.4432 23.9031 14.5618C23.9606 14.6804 23.9942 14.8091 24.0019 14.9407C24.0096 15.0723 23.9913 15.2041 23.9481 15.3286C23.9049 15.4531 23.8376 15.5679 23.75 15.6664H23.74Z" fill="#4A4A4F"/>
</svg>
