<svg width="32" height="32" viewBox="0 0 32 32" fill="none" xmlns="http://www.w3.org/2000/svg">
<path d="M24 8.99994H19.025C18.6612 8.97869 12.3225 8.53244 6.28625 3.46994C5.99476 3.22513 5.63946 3.06859 5.26208 3.01871C4.88471 2.96883 4.50094 3.02768 4.15585 3.18834C3.81076 3.34901 3.51869 3.60482 3.31395 3.92572C3.1092 4.24662 3.00029 4.61929 3 4.99994V24.9999C3.00005 25.3807 3.10879 25.7535 3.31345 26.0746C3.5181 26.3957 3.81015 26.6517 4.15529 26.8125C4.50042 26.9734 4.88429 27.0323 5.26178 26.9825C5.63926 26.9326 5.99468 26.7761 6.28625 26.5312C11.0075 22.5712 15.9113 21.4362 18 21.1187V25.0837C17.9996 25.4133 18.0806 25.7378 18.2359 26.0285C18.3912 26.3192 18.6159 26.567 18.89 26.7499L20.265 27.6662C20.5308 27.8436 20.8352 27.9547 21.1527 27.9903C21.4703 28.0258 21.7917 27.9848 22.0901 27.8706C22.3885 27.7564 22.6553 27.5723 22.8679 27.3339C23.0806 27.0954 23.2331 26.8094 23.3125 26.4999L24.7838 20.9549C26.3047 20.7681 27.6965 20.0064 28.6737 18.8261C29.6509 17.6458 30.1395 16.1363 30.0393 14.6072C29.939 13.0781 29.2575 11.6454 28.1346 10.6027C27.0116 9.5601 25.5323 8.98663 24 8.99994ZM21.375 25.9862V25.9999L20 25.0837V20.9999H22.7L21.375 25.9862ZM24 18.9999H20V10.9999H24C25.0609 10.9999 26.0783 11.4214 26.8284 12.1715C27.5786 12.9217 28 13.9391 28 14.9999C28 16.0608 27.5786 17.0782 26.8284 17.8284C26.0783 18.5785 25.0609 18.9999 24 18.9999Z" fill="#4A4A4F"/>
</svg>
