<svg width="32" height="32" viewBox="0 0 32 32" fill="none" xmlns="http://www.w3.org/2000/svg">
<path d="M25 3H9C8.46957 3 7.96086 3.21071 7.58579 3.58579C7.21071 3.96086 7 4.46957 7 5V8H5C4.46957 8 3.96086 8.21071 3.58579 8.58579C3.21071 8.96086 3 9.46957 3 10V22C3 22.5304 3.21071 23.0391 3.58579 23.4142C3.96086 23.7893 4.46957 24 5 24H7V27C7 27.5304 7.21071 28.0391 7.58579 28.4142C7.96086 28.7893 8.46957 29 9 29H25C25.5304 29 26.0391 28.7893 26.4142 28.4142C26.7893 28.0391 27 27.5304 27 27V5C27 4.46957 26.7893 3.96086 26.4142 3.58579C26.0391 3.21071 25.5304 3 25 3ZM8.53 19.2425L7.03 13.2425C6.9956 13.1143 6.98707 12.9805 7.00492 12.8489C7.02277 12.7174 7.06664 12.5907 7.13397 12.4762C7.2013 12.3618 7.29074 12.2619 7.39707 12.1825C7.50341 12.103 7.62451 12.0454 7.75331 12.0132C7.88211 11.981 8.01603 11.9748 8.14726 11.9949C8.2785 12.015 8.40441 12.061 8.51767 12.1303C8.63092 12.1996 8.72925 12.2907 8.80691 12.3984C8.88457 12.5061 8.94001 12.6282 8.97 12.7575L9.815 16.1325L10.605 14.55C10.6879 14.3836 10.8156 14.2436 10.9737 14.1458C11.1318 14.0479 11.3141 13.9961 11.5 13.9961C11.6859 13.9961 11.8682 14.0479 12.0263 14.1458C12.1844 14.2436 12.3121 14.3836 12.395 14.55L13.185 16.1325L14.03 12.7575C14.098 12.5042 14.2627 12.2878 14.4887 12.1548C14.7147 12.0218 14.984 11.9829 15.2384 12.0465C15.4928 12.1101 15.712 12.2711 15.8489 12.4948C15.9857 12.7185 16.0292 12.987 15.97 13.2425L14.47 19.2425C14.4202 19.4405 14.3109 19.6185 14.157 19.7525C14.003 19.8866 13.8117 19.9703 13.6088 19.9925C13.5726 19.9965 13.5363 19.9985 13.5 19.9988C13.3142 19.9989 13.1321 19.9473 12.974 19.8497C12.8159 19.7521 12.6881 19.6124 12.605 19.4463L11.5 17.2362L10.395 19.4475C10.3037 19.6304 10.1585 19.7809 9.97897 19.8788C9.79947 19.9766 9.59429 20.0171 9.39108 19.9948C9.18786 19.9724 8.99638 19.8883 8.84242 19.7538C8.68846 19.6193 8.57942 19.4409 8.53 19.2425ZM25 27H9V24H18C18.5304 24 19.0391 23.7893 19.4142 23.4142C19.7893 23.0391 20 22.5304 20 22V21H25V27ZM25 19H20V13H25V19ZM25 11H20V10C20 9.46957 19.7893 8.96086 19.4142 8.58579C19.0391 8.21071 18.5304 8 18 8H9V5H25V11Z" fill="#4A4A4F"/>
</svg>
