<svg width="32" height="32" viewBox="0 0 32 32" fill="none" xmlns="http://www.w3.org/2000/svg">
<path d="M26.6723 27.7399C26.476 27.9182 26.2169 28.0113 25.952 27.9986C25.6871 27.986 25.4381 27.8686 25.2598 27.6724L21.9523 24.0349C20.5048 25.1088 18.7933 25.7702 16.9998 25.9486V28.9999C16.9998 29.2651 16.8944 29.5195 16.7069 29.707C16.5193 29.8945 16.265 29.9999 15.9998 29.9999C15.7345 29.9999 15.4802 29.8945 15.2927 29.707C15.1051 29.5195 14.9998 29.2651 14.9998 28.9999V25.9499C12.5343 25.699 10.2495 24.5428 8.58707 22.705C6.92467 20.8671 6.00281 18.4781 5.99976 15.9999C5.99976 15.7347 6.10512 15.4803 6.29266 15.2928C6.48019 15.1052 6.73455 14.9999 6.99976 14.9999C7.26498 14.9999 7.51933 15.1052 7.70687 15.2928C7.89441 15.4803 7.99976 15.7347 7.99976 15.9999C7.99997 17.4644 8.40216 18.9007 9.1625 20.1523C9.92285 21.404 11.0122 22.4229 12.3118 23.098C13.6113 23.7731 15.0713 24.0786 16.5325 23.981C17.9938 23.8835 19.4002 23.3867 20.5985 22.5449L19.2385 21.0449C18.3324 21.6259 17.2866 21.9525 16.2108 21.9904C15.1351 22.0282 14.0689 21.776 13.1242 21.2601C12.1794 20.7442 11.3908 19.9836 10.8411 19.0582C10.2914 18.1327 10.0008 17.0763 9.99976 15.9999V10.8861L5.25976 5.67239C5.1696 5.57553 5.09955 5.46174 5.05369 5.33761C5.00782 5.21348 4.98705 5.08149 4.99257 4.94927C4.99809 4.81705 5.02981 4.68725 5.08587 4.56738C5.14193 4.44751 5.22122 4.33996 5.31915 4.25096C5.41708 4.16196 5.53171 4.09329 5.65637 4.04891C5.78104 4.00454 5.91328 3.98535 6.04542 3.99246C6.17756 3.99957 6.30697 4.03283 6.42616 4.09032C6.54535 4.14782 6.65194 4.22839 6.73976 4.32739L26.7398 26.3274C26.9181 26.5237 27.0112 26.7827 26.9985 27.0476C26.9859 27.3125 26.8685 27.5615 26.6723 27.7399ZM20.2598 16.2261C20.3955 16.3755 20.5733 16.4803 20.7697 16.5267C20.9661 16.5731 21.172 16.5591 21.3603 16.4863C21.5485 16.4135 21.7104 16.2855 21.8245 16.119C21.9386 15.9526 21.9997 15.7555 21.9998 15.5536V7.99989C21.9997 6.6943 21.5739 5.42436 20.7868 4.38272C19.9996 3.34109 18.8943 2.58461 17.6383 2.22807C16.3824 1.87153 15.0444 1.93438 13.8274 2.40708C12.6104 2.87979 11.5808 3.73655 10.8948 4.84739C10.7798 5.03152 10.7278 5.24807 10.7468 5.46432C10.7657 5.68058 10.8545 5.8848 10.9998 6.04614L20.2598 16.2261ZM24.0223 20.2049C24.1446 20.2526 24.2752 20.2757 24.4065 20.273C24.5378 20.2702 24.6673 20.2416 24.7876 20.1888C24.9078 20.1359 25.0165 20.06 25.1074 19.9651C25.1983 19.8703 25.2696 19.7585 25.3173 19.6361C25.77 18.4774 26.0015 17.244 25.9998 15.9999C25.9998 15.7347 25.8944 15.4803 25.7069 15.2928C25.5193 15.1052 25.265 14.9999 24.9998 14.9999C24.7345 14.9999 24.4802 15.1052 24.2927 15.2928C24.1051 15.4803 23.9998 15.7347 23.9998 15.9999C24.0014 16.995 23.8166 17.9816 23.4548 18.9086C23.4068 19.031 23.3835 19.1616 23.3861 19.293C23.3887 19.4244 23.4171 19.554 23.4698 19.6744C23.5225 19.7948 23.5985 19.9036 23.6932 19.9946C23.788 20.0857 23.8998 20.1571 24.0223 20.2049Z" fill="#4A4A4F"/>
</svg>
