<svg width="32" height="32" viewBox="0 0 32 32" fill="none" xmlns="http://www.w3.org/2000/svg">
<path d="M17 3C15.0244 3.00259 13.0751 3.45401 11.2995 4.32017C9.52383 5.18634 7.96818 6.44462 6.75 8H5C4.46957 8 3.96086 8.21071 3.58579 8.58579C3.21071 8.96086 3 9.46957 3 10V22C3 22.5304 3.21071 23.0391 3.58579 23.4142C3.96086 23.7893 4.46957 24 5 24H6.75C8.10701 25.7382 9.88386 27.1026 11.9134 27.9649C13.943 28.8272 16.1585 29.159 18.3517 28.9292C20.5448 28.6994 22.6434 27.9155 24.4502 26.6513C26.2569 25.387 27.7124 23.6839 28.6796 21.7022C29.6469 19.7206 30.0941 17.5254 29.9793 15.3232C29.8645 13.1211 29.1914 10.9843 28.0234 9.11396C26.8553 7.24358 25.2307 5.70107 23.3023 4.63151C21.3739 3.56196 19.2051 3.00052 17 3ZM9 19V13C9 12.7348 9.10536 12.4804 9.29289 12.2929C9.48043 12.1054 9.73478 12 10 12H12C12.7956 12 13.5587 12.3161 14.1213 12.8787C14.6839 13.4413 15 14.2044 15 15C15 15.7956 14.6839 16.5587 14.1213 17.1213C13.5587 17.6839 12.7956 18 12 18H11V19C11 19.2652 10.8946 19.5196 10.7071 19.7071C10.5196 19.8946 10.2652 20 10 20C9.73478 20 9.48043 19.8946 9.29289 19.7071C9.10536 19.5196 9 19.2652 9 19ZM16 26.9538C13.5498 26.7259 11.2459 25.6863 9.45375 24H16V26.9538ZM16 8H9.45375C11.2459 6.31367 13.5498 5.27411 16 5.04625V8ZM18 5.04625C20.5599 5.28325 22.9562 6.40808 24.7741 8.22592C26.5919 10.0438 27.7167 12.4401 27.9538 15H20V10C20 9.46957 19.7893 8.96086 19.4142 8.58579C19.0391 8.21071 18.5304 8 18 8V5.04625ZM18 26.9538V24C18.5304 24 19.0391 23.7893 19.4142 23.4142C19.7893 23.0391 20 22.5304 20 22V17H27.9538C27.7167 19.5599 26.5919 21.9562 24.7741 23.7741C22.9562 25.5919 20.5599 26.7167 18 26.9538ZM12 16H11V14H12C12.2652 14 12.5196 14.1054 12.7071 14.2929C12.8946 14.4804 13 14.7348 13 15C13 15.2652 12.8946 15.5196 12.7071 15.7071C12.5196 15.8946 12.2652 16 12 16Z" fill="#4A4A4F"/>
</svg>
