<svg width="32" height="32" viewBox="0 0 32 32" fill="none" xmlns="http://www.w3.org/2000/svg">
<path d="M21 16C21 16.9889 20.7068 17.9556 20.1573 18.7779C19.6079 19.6001 18.827 20.241 17.9134 20.6194C16.9998 20.9978 15.9945 21.0969 15.0245 20.9039C14.0546 20.711 13.1637 20.2348 12.4645 19.5355C11.7652 18.8363 11.289 17.9454 11.0961 16.9755C10.9031 16.0055 11.0022 15.0002 11.3806 14.0866C11.759 13.173 12.3999 12.3921 13.2221 11.8427C14.0444 11.2932 15.0111 11 16 11C17.3261 11 18.5979 11.5268 19.5355 12.4645C20.4732 13.4021 21 14.6739 21 16ZM31 8V24C31 24.2652 30.8946 24.5196 30.7071 24.7071C30.5196 24.8946 30.2652 25 30 25H2C1.73478 25 1.48043 24.8946 1.29289 24.7071C1.10536 24.5196 1 24.2652 1 24V8C1 7.73478 1.10536 7.48043 1.29289 7.29289C1.48043 7.10536 1.73478 7 2 7H30C30.2652 7 30.5196 7.10536 30.7071 7.29289C30.8946 7.48043 31 7.73478 31 8ZM29 13.7937C27.8645 13.458 26.8311 12.8435 25.9938 12.0062C25.1565 11.1689 24.542 10.1355 24.2062 9H7.79375C7.45801 10.1355 6.84351 11.1689 6.00623 12.0062C5.16895 12.8435 4.1355 13.458 3 13.7937V18.2062C4.1355 18.542 5.16895 19.1565 6.00623 19.9938C6.84351 20.8311 7.45801 21.8645 7.79375 23H24.2062C24.542 21.8645 25.1565 20.8311 25.9938 19.9938C26.8311 19.1565 27.8645 18.542 29 18.2062V13.7937Z" fill="#4A4A4F"/>
</svg>
