<svg width="32" height="32" viewBox="0 0 32 32" fill="none" xmlns="http://www.w3.org/2000/svg">
<path d="M26 5H6C5.20435 5 4.44129 5.31607 3.87868 5.87868C3.31607 6.44129 3 7.20435 3 8V22C3 22.7956 3.31607 23.5587 3.87868 24.1213C4.44129 24.6839 5.20435 25 6 25H26C26.7956 25 27.5587 24.6839 28.1213 24.1213C28.6839 23.5587 29 22.7956 29 22V8C29 7.20435 28.6839 6.44129 28.1213 5.87868C27.5587 5.31607 26.7956 5 26 5ZM27 22C27 22.2652 26.8946 22.5196 26.7071 22.7071C26.5196 22.8946 26.2652 23 26 23H6C5.73478 23 5.48043 22.8946 5.29289 22.7071C5.10536 22.5196 5 22.2652 5 22V8C5 7.73478 5.10536 7.48043 5.29289 7.29289C5.48043 7.10536 5.73478 7 6 7H26C26.2652 7 26.5196 7.10536 26.7071 7.29289C26.8946 7.48043 27 7.73478 27 8V22ZM21 28C21 28.2652 20.8946 28.5196 20.7071 28.7071C20.5196 28.8946 20.2652 29 20 29H12C11.7348 29 11.4804 28.8946 11.2929 28.7071C11.1054 28.5196 11 28.2652 11 28C11 27.7348 11.1054 27.4804 11.2929 27.2929C11.4804 27.1054 11.7348 27 12 27H20C20.2652 27 20.5196 27.1054 20.7071 27.2929C20.8946 27.4804 21 27.7348 21 28ZM20.555 14.1675L14.555 10.1675C14.4044 10.067 14.2293 10.0093 14.0484 10.0005C13.8675 9.99176 13.6877 10.0323 13.528 10.1177C13.3684 10.2032 13.2349 10.3304 13.1419 10.4858C13.0489 10.6412 12.9999 10.8189 13 11V19C12.9999 19.1811 13.0489 19.3588 13.1419 19.5142C13.2349 19.6696 13.3684 19.7968 13.528 19.8823C13.6877 19.9677 13.8675 20.0082 14.0484 19.9995C14.2293 19.9907 14.4044 19.933 14.555 19.8325L20.555 15.8325C20.6922 15.7412 20.8047 15.6175 20.8825 15.4722C20.9603 15.327 21.001 15.1648 21.001 15C21.001 14.8352 20.9603 14.673 20.8825 14.5278C20.8047 14.3825 20.6922 14.2588 20.555 14.1675ZM15 17.1313V12.875L18.1975 15L15 17.1313Z" fill="#4A4A4F"/>
</svg>
