<svg width="32" height="32" viewBox="0 0 32 32" fill="none" xmlns="http://www.w3.org/2000/svg">
<path d="M29.1925 17.7786C29.0642 17.65 28.9034 17.5588 28.7272 17.5148C28.551 17.4707 28.3662 17.4755 28.1925 17.5286C26.2857 18.105 24.2583 18.1533 22.3262 17.6684C20.3941 17.1835 18.6298 16.1834 17.2212 14.7749C15.8126 13.3663 14.8126 11.602 14.3277 9.66989C13.8427 7.7378 13.8911 5.71034 14.4675 3.80356C14.521 3.62981 14.5261 3.44477 14.4823 3.26832C14.4385 3.09188 14.3475 2.93072 14.2189 2.80217C14.0904 2.67362 13.9292 2.58255 13.7528 2.53874C13.5763 2.49494 13.3913 2.50006 13.2175 2.55356C10.5813 3.36111 8.26695 4.97955 6.60378 7.17856C5.14929 9.10963 4.26209 11.408 4.04186 13.8155C3.82162 16.223 4.27707 18.6442 5.35704 20.8072C6.437 22.9701 8.0987 24.789 10.1554 26.0596C12.2122 27.3302 14.5825 28.0021 17 27.9998C19.8205 28.0085 22.5658 27.0916 24.815 25.3898C27.014 23.7266 28.6325 21.4123 29.44 18.7761C29.4929 18.603 29.4978 18.4187 29.4542 18.2431C29.4106 18.0674 29.3202 17.9069 29.1925 17.7786ZM23.6125 23.7923C21.4945 25.3876 18.8714 26.1642 16.2262 25.9789C13.581 25.7937 11.0918 24.6592 9.2167 22.7843C7.34162 20.9094 6.20692 18.4202 6.02149 15.775C5.83606 13.1299 6.61237 10.5068 8.20753 8.38856C9.24678 7.01613 10.5904 5.90362 12.1325 5.13856C12.0447 5.75509 12.0004 6.37705 12 6.99981C12.0037 10.4465 13.3745 13.751 15.8117 16.1882C18.2488 18.6254 21.5533 19.9962 25 19.9998C25.624 19.9996 26.2473 19.9553 26.865 19.8673C26.0993 21.4097 24.9859 22.7533 23.6125 23.7923Z" fill="#4A4A4F"/>
</svg>
