<svg width="32" height="32" viewBox="0 0 32 32" fill="none" xmlns="http://www.w3.org/2000/svg">
<path d="M27 16C26.7375 15.9999 26.4754 16.0208 26.2162 16.0625L21.9363 4.64875C21.8648 4.45818 21.7368 4.29397 21.5695 4.17804C21.4022 4.06212 21.2035 4.00001 21 4H17C16.7348 4 16.4804 4.10536 16.2929 4.29289C16.1054 4.48043 16 4.73478 16 5C16 5.26522 16.1054 5.51957 16.2929 5.70711C16.4804 5.89464 16.7348 6 17 6H20.3075L24.345 16.7663C23.7711 17.1255 23.276 17.5972 22.8893 18.153C22.5026 18.7088 22.2324 19.337 22.095 20H17.0675L13.9425 11.6488C13.8706 11.4572 13.7417 11.2923 13.5732 11.1763C13.4047 11.0602 13.2046 10.9987 13 11H3C2.73478 11 2.48043 11.1054 2.29289 11.2929C2.10536 11.4804 2 11.7348 2 12C2 12.2652 2.10536 12.5196 2.29289 12.7071C2.48043 12.8946 2.73478 13 3 13H4V14.6737C2.80402 15.243 1.79365 16.1393 1.08578 17.2588C0.377915 18.3784 0.00147034 19.6754 0 21C0 21.2652 0.105357 21.5196 0.292893 21.7071C0.48043 21.8946 0.734784 22 1 22H2.1C2.32951 23.1303 2.94273 24.1465 3.83574 24.8764C4.72875 25.6063 5.84664 26.005 7 26.005C8.15336 26.005 9.27125 25.6063 10.1643 24.8764C11.0573 24.1465 11.6705 23.1303 11.9 22H22.1C22.2892 22.9269 22.7375 23.7811 23.3928 24.4634C24.0481 25.1458 24.8835 25.6282 25.8021 25.8546C26.7206 26.0811 27.6845 26.0423 28.5819 25.7428C29.4792 25.4433 30.2732 24.8954 30.8716 24.1627C31.47 23.4299 31.8483 22.5425 31.9624 21.6034C32.0766 20.6642 31.922 19.712 31.5166 18.8573C31.1112 18.0025 30.4716 17.2803 29.6721 16.7745C28.8726 16.2688 27.946 16.0002 27 16ZM7 24C6.37977 23.9998 5.77485 23.8074 5.2685 23.4492C4.76214 23.0911 4.37924 22.5848 4.1725 22H9.8275C9.62076 22.5848 9.23786 23.0911 8.7315 23.4492C8.22515 23.8074 7.62023 23.9998 7 24ZM27 24C26.385 23.9993 25.7851 23.8097 25.2816 23.4567C24.778 23.1038 24.395 22.6046 24.1845 22.0268C23.974 21.449 23.9462 20.8204 24.1048 20.2263C24.2634 19.6321 24.6008 19.1011 25.0713 18.705L26.0637 21.3512C26.1099 21.4744 26.1798 21.5872 26.2695 21.6833C26.3593 21.7794 26.467 21.8568 26.5867 21.9113C26.7064 21.9657 26.8356 21.9961 26.967 22.0006C27.0984 22.0051 27.2294 21.9836 27.3525 21.9375C27.4756 21.8914 27.5884 21.8214 27.6845 21.7317C27.7806 21.642 27.8581 21.5342 27.9125 21.4145C27.967 21.2949 27.9973 21.1656 28.0018 21.0343C28.0063 20.9029 27.9849 20.7719 27.9387 20.6488L26.9438 18H27C27.7956 18 28.5587 18.3161 29.1213 18.8787C29.6839 19.4413 30 20.2044 30 21C30 21.7956 29.6839 22.5587 29.1213 23.1213C28.5587 23.6839 27.7956 24 27 24Z" fill="#4A4A4F"/>
</svg>
