<svg width="32" height="32" viewBox="0 0 32 32" fill="none" xmlns="http://www.w3.org/2000/svg">
<path d="M26.2875 7.04271L16.2875 4.04271C16.1382 3.99789 15.9805 3.9886 15.827 4.01557C15.6734 4.04255 15.5283 4.10504 15.4032 4.19806C15.2782 4.29109 15.1766 4.41206 15.1065 4.55134C15.0365 4.69061 15 4.84433 15 5.00021V18.5327C13.9759 17.6167 12.6684 17.08 11.2961 17.0122C9.92376 16.9444 8.56974 17.3496 7.46031 18.1602C6.35089 18.9708 5.55329 20.1376 5.2008 21.4656C4.84832 22.7936 4.96231 24.2024 5.52373 25.4565C6.08514 26.7105 7.05997 27.7339 8.28528 28.3556C9.5106 28.9772 10.9122 29.1595 12.2557 28.872C13.5993 28.5844 14.8035 27.8444 15.667 26.7757C16.5305 25.7069 17.0011 24.3742 17 23.0002V6.34396L25.7125 8.95771C25.8392 8.99898 25.9729 9.01451 26.1057 9.00338C26.2385 8.99225 26.3678 8.95469 26.4859 8.89289C26.6039 8.8311 26.7085 8.74633 26.7933 8.64356C26.8782 8.54079 26.9416 8.4221 26.98 8.29445C27.0183 8.16681 27.0307 8.03279 27.0165 7.90028C27.0023 7.76776 26.9618 7.63943 26.8972 7.52281C26.8327 7.40619 26.7456 7.30364 26.6408 7.2212C26.5361 7.13875 26.416 7.07806 26.2875 7.04271Z" fill="#4A4A4F"/>
</svg>
