<svg width="32" height="32" viewBox="0 0 32 32" fill="none" xmlns="http://www.w3.org/2000/svg">
<path d="M26.2875 7.04271L16.2875 4.04271C16.1382 3.99789 15.9805 3.9886 15.827 4.01557C15.6734 4.04255 15.5283 4.10504 15.4032 4.19806C15.2782 4.29109 15.1766 4.41206 15.1065 4.55134C15.0365 4.69061 15 4.84433 15 5.00021V18.5327C13.9759 17.6167 12.6684 17.08 11.2961 17.0122C9.92376 16.9444 8.56974 17.3496 7.46031 18.1602C6.35089 18.9708 5.55329 20.1376 5.2008 21.4656C4.84832 22.7936 4.96231 24.2024 5.52373 25.4565C6.08514 26.7105 7.05997 27.7339 8.28528 28.3556C9.5106 28.9772 10.9122 29.1595 12.2557 28.872C13.5993 28.5844 14.8035 27.8444 15.667 26.7757C16.5305 25.7069 17.0011 24.3742 17 23.0002V12.344L25.7125 14.9577C25.8618 15.0025 26.0195 15.0118 26.173 14.9848C26.3266 14.9579 26.4717 14.8954 26.5968 14.8024C26.7218 14.7093 26.8234 14.5884 26.8935 14.4491C26.9635 14.3098 27 14.1561 27 14.0002V8.00021C26.9999 7.78522 26.9306 7.57598 26.8023 7.40351C26.6739 7.23104 26.4934 7.10452 26.2875 7.04271Z" fill="#4A4A4F"/>
</svg>
