<svg width="32" height="32" viewBox="0 0 32 32" fill="none" xmlns="http://www.w3.org/2000/svg">
<path d="M29 7C29 7.26522 28.8946 7.51957 28.7071 7.70711C28.5196 7.89464 28.2652 8 28 8H26V10C26 10.2652 25.8946 10.5196 25.7071 10.7071C25.5196 10.8946 25.2652 11 25 11C24.7348 11 24.4804 10.8946 24.2929 10.7071C24.1054 10.5196 24 10.2652 24 10V8H22C21.7348 8 21.4804 7.89464 21.2929 7.70711C21.1054 7.51957 21 7.26522 21 7C21 6.73478 21.1054 6.48043 21.2929 6.29289C21.4804 6.10536 21.7348 6 22 6H24V4C24 3.73478 24.1054 3.48043 24.2929 3.29289C24.4804 3.10536 24.7348 3 25 3C25.2652 3 25.5196 3.10536 25.7071 3.29289C25.8946 3.48043 26 3.73478 26 4V6H28C28.2652 6 28.5196 6.10536 28.7071 6.29289C28.8946 6.48043 29 6.73478 29 7ZM11 14.7812V25.5C11.0004 26.5033 10.6655 27.4779 10.0485 28.269C9.43147 29.0602 8.56779 29.6224 7.59464 29.8665C6.6215 30.1105 5.5947 30.0224 4.6774 29.616C3.76009 29.2097 3.00489 28.5084 2.53177 27.6237C2.05866 26.739 1.89477 25.7215 2.06614 24.733C2.23752 23.7445 2.73433 22.8415 3.47764 22.1677C4.22095 21.4939 5.16813 21.0877 6.16869 21.0139C7.16925 20.94 8.1658 21.2026 9.00001 21.76V8C9.00004 7.777 9.07461 7.56042 9.21186 7.38467C9.34911 7.20891 9.54117 7.08408 9.75751 7.03L16.7575 5.28C17.013 5.22077 17.2815 5.26426 17.5052 5.4011C17.7289 5.53795 17.8899 5.7572 17.9535 6.01162C18.0171 6.26604 17.9782 6.53526 17.8452 6.76129C17.7123 6.98731 17.4958 7.15204 17.2425 7.22L11 8.78125V12.7188L19.7575 10.53C20.013 10.4708 20.2815 10.5143 20.5052 10.6511C20.7289 10.788 20.8899 11.0072 20.9535 11.2616C21.0171 11.516 20.9782 11.7853 20.8452 12.0113C20.7123 12.2373 20.4958 12.402 20.2425 12.47L11 14.7812ZM9.00001 25.5C9.00001 25.0055 8.85338 24.5222 8.57868 24.1111C8.30398 23.7 7.91353 23.3795 7.45671 23.1903C6.9999 23.0011 6.49723 22.9516 6.01228 23.048C5.52733 23.1445 5.08187 23.3826 4.73224 23.7322C4.38261 24.0819 4.14451 24.5273 4.04804 25.0123C3.95158 25.4972 4.00109 25.9999 4.19031 26.4567C4.37953 26.9135 4.69996 27.304 5.11108 27.5787C5.5222 27.8534 6.00555 28 6.50001 28C7.16305 28 7.79893 27.7366 8.26777 27.2678C8.73661 26.7989 9.00001 26.163 9.00001 25.5ZM27 15V21.5C27.0004 22.5033 26.6655 23.4779 26.0485 24.269C25.4315 25.0602 24.5678 25.6224 23.5946 25.8665C22.6215 26.1105 21.5947 26.0224 20.6774 25.616C19.7601 25.2097 19.0049 24.5084 18.5318 23.6237C18.0587 22.739 17.8948 21.7215 18.0661 20.733C18.2375 19.7445 18.7343 18.8415 19.4776 18.1677C20.221 17.4939 21.1681 17.0877 22.1687 17.0139C23.1692 16.94 24.1658 17.2026 25 17.76V15C25 14.7348 25.1054 14.4804 25.2929 14.2929C25.4804 14.1054 25.7348 14 26 14C26.2652 14 26.5196 14.1054 26.7071 14.2929C26.8946 14.4804 27 14.7348 27 15ZM25 21.5C25 21.0055 24.8534 20.5222 24.5787 20.1111C24.304 19.7 23.9135 19.3795 23.4567 19.1903C22.9999 19.0011 22.4972 18.9516 22.0123 19.048C21.5273 19.1445 21.0819 19.3826 20.7322 19.7322C20.3826 20.0819 20.1445 20.5273 20.048 21.0123C19.9516 21.4972 20.0011 21.9999 20.1903 22.4567C20.3795 22.9135 20.7 23.304 21.1111 23.5787C21.5222 23.8534 22.0056 24 22.5 24C22.8283 24 23.1534 23.9353 23.4567 23.8097C23.76 23.6841 24.0356 23.4999 24.2678 23.2678C24.4999 23.0356 24.6841 22.76 24.8097 22.4567C24.9353 22.1534 25 21.8283 25 21.5Z" fill="#4A4A4F"/>
</svg>
