<svg width="32" height="32" viewBox="0 0 32 32" fill="none" xmlns="http://www.w3.org/2000/svg">
<path d="M30 14.1977C29.9969 14.6203 29.8581 15.0307 29.604 15.3683C29.3499 15.7059 28.9939 15.9529 28.5887 16.0727L19.0187 19.0177L16.0737 28.5877C15.9537 28.9928 15.7067 29.3487 15.3691 29.6028C15.0315 29.8569 14.6212 29.9958 14.1987 29.999H14.1612C13.7469 30.0028 13.3419 29.8761 13.0037 29.6366C12.6656 29.3972 12.4114 29.0573 12.2775 28.6652L4.12497 6.67648C4.12233 6.67 4.12024 6.66331 4.11872 6.65648C3.99685 6.30252 3.97676 5.92146 4.06075 5.55665C4.14474 5.19184 4.32943 4.85793 4.59381 4.5929C4.8582 4.32787 5.19165 4.14235 5.55625 4.05747C5.92085 3.97258 6.30196 3.99173 6.65622 4.11273L6.67622 4.11898L28.6662 12.2765C29.0644 12.4126 29.4086 12.6724 29.6486 13.0181C29.8885 13.3638 30.0117 13.7771 30 14.1977Z" fill="#4A4A4F"/>
</svg>
