<svg width="32" height="32" viewBox="0 0 32 32" fill="none" xmlns="http://www.w3.org/2000/svg">
<path d="M22.0001 20C22.0001 21.3512 21.6089 22.6735 20.8739 23.8074C20.1389 24.9412 19.0915 25.838 17.858 26.3897C16.6245 26.9413 15.2577 27.1242 13.9226 26.9162C12.5875 26.7082 11.3411 26.1182 10.3339 25.2175C10.2311 25.1315 10.1466 25.0256 10.0855 24.9062C10.0243 24.7869 9.98787 24.6564 9.97819 24.5227C9.96852 24.3889 9.98584 24.2546 10.0291 24.1277C10.0724 24.0008 10.1408 23.8839 10.2302 23.7839C10.3196 23.684 10.4282 23.603 10.5495 23.5459C10.6708 23.4887 10.8023 23.4566 10.9363 23.4513C11.0703 23.446 11.204 23.4678 11.3294 23.5152C11.4548 23.5627 11.5694 23.6349 11.6664 23.7275C12.3818 24.3673 13.2662 24.7878 14.2141 24.9386C15.1619 25.0894 16.1331 24.9642 17.0118 24.578C17.8904 24.1918 18.6393 23.5608 19.1691 22.7605C19.6988 21.9601 19.987 21.0242 19.9993 20.0645C20.0116 19.1048 19.7473 18.1619 19.2382 17.3483C18.729 16.5347 17.9965 15.8848 17.128 15.4763C16.2595 15.0677 15.2918 14.9178 14.3404 15.0444C13.389 15.1709 12.4941 15.5686 11.7626 16.19C11.6043 16.3232 11.4085 16.404 11.2023 16.4212C10.9961 16.4384 10.7896 16.3913 10.6114 16.2862C10.4331 16.1812 10.2918 16.0234 10.2069 15.8347C10.1221 15.646 10.0979 15.4356 10.1376 15.2325L12.0201 5.80375C12.0655 5.57719 12.1879 5.37331 12.3666 5.22679C12.5452 5.08026 12.7691 5.00013 13.0001 5H21.0001C21.2654 5 21.5197 5.10536 21.7073 5.29289C21.8948 5.48043 22.0001 5.73478 22.0001 6C22.0001 6.26522 21.8948 6.51957 21.7073 6.70711C21.5197 6.89464 21.2654 7 21.0001 7H13.8201L12.5301 13.45C13.5895 13.0505 14.73 12.9139 15.8537 13.052C16.9774 13.19 18.0509 13.5986 18.9821 14.2426C19.9132 14.8867 20.6743 15.747 21.2 16.7497C21.7256 17.7525 22.0002 18.8678 22.0001 20Z" fill="#4A4A4F"/>
</svg>
