<svg width="32" height="32" viewBox="0 0 32 32" fill="none" xmlns="http://www.w3.org/2000/svg">
<path d="M26 4H6C5.46957 4 4.96086 4.21071 4.58579 4.58579C4.21071 4.96086 4 5.46957 4 6V26C4 26.5304 4.21071 27.0391 4.58579 27.4142C4.96086 27.7893 5.46957 28 6 28H26C26.5304 28 27.0391 27.7893 27.4142 27.4142C27.7893 27.0391 28 26.5304 28 26V6C28 5.46957 27.7893 4.96086 27.4142 4.58579C27.0391 4.21071 26.5304 4 26 4ZM26 26H6V6H26V26ZM21 18C21 18.2652 20.8946 18.5196 20.7071 18.7071C20.5196 18.8946 20.2652 19 20 19H19V22C19 22.2652 18.8946 22.5196 18.7071 22.7071C18.5196 22.8946 18.2652 23 18 23C17.7348 23 17.4804 22.8946 17.2929 22.7071C17.1054 22.5196 17 22.2652 17 22V19H12C11.8415 19 11.6853 18.9624 11.5443 18.8902C11.4032 18.818 11.2814 18.7133 11.1887 18.5847C11.096 18.4562 11.0353 18.3075 11.0114 18.1508C10.9875 17.9942 11.0011 17.8341 11.0513 17.6838L14.0513 8.68375C14.1351 8.43213 14.3155 8.22413 14.5528 8.10551C14.79 7.98689 15.0646 7.96738 15.3162 8.05125C15.5679 8.13513 15.7759 8.31552 15.8945 8.55276C16.0131 8.78999 16.0326 9.06463 15.9487 9.31625L13.3875 17H17V14C17 13.7348 17.1054 13.4804 17.2929 13.2929C17.4804 13.1054 17.7348 13 18 13C18.2652 13 18.5196 13.1054 18.7071 13.2929C18.8946 13.4804 19 13.7348 19 14V17H20C20.2652 17 20.5196 17.1054 20.7071 17.2929C20.8946 17.4804 21 17.7348 21 18Z" fill="#4A4A4F"/>
</svg>
