<svg width="32" height="32" viewBox="0 0 32 32" fill="none" xmlns="http://www.w3.org/2000/svg">
<path d="M19.5 16C19.5 17.8575 18.7625 21 16 21C13.2375 21 12.5 17.8575 12.5 16C12.5 14.1425 13.2375 11 16 11C18.7625 11 19.5 14.1425 19.5 16ZM29 16C29 18.5712 28.2376 21.0846 26.8091 23.2224C25.3807 25.3603 23.3503 27.0265 20.9749 28.0104C18.5995 28.9944 15.9856 29.2518 13.4638 28.7502C10.9421 28.2486 8.6257 27.0105 6.80762 25.1924C4.98953 23.3743 3.75141 21.0579 3.2498 18.5362C2.74819 16.0144 3.00563 13.4006 3.98957 11.0251C4.97351 8.64968 6.63975 6.61935 8.77759 5.1909C10.9154 3.76244 13.4288 3 16 3C19.4467 3.00364 22.7512 4.37445 25.1884 6.81163C27.6256 9.24882 28.9964 12.5533 29 16ZM21.5 16C21.5 14.2188 21.055 12.5588 20.25 11.3263C19.25 9.805 17.7788 9 16 9C14.2213 9 12.75 9.805 11.75 11.3263C10.9413 12.5588 10.5 14.2188 10.5 16C10.5 17.7812 10.945 19.4412 11.75 20.6737C12.75 22.1963 14.2175 23 16 23C17.7825 23 19.25 22.1963 20.25 20.6737C21.055 19.4412 21.5 17.7812 21.5 16Z" fill="#4A4A4F"/>
</svg>
