<svg width="32" height="32" viewBox="0 0 32 32" fill="none" xmlns="http://www.w3.org/2000/svg">
<path d="M19.4438 14.9089C20.4885 14.1767 21.2726 13.1305 21.6823 11.9223C22.0919 10.714 22.1058 9.40668 21.7219 8.19004C21.338 6.97339 20.5762 5.91079 19.5473 5.15652C18.5184 4.40226 17.2758 3.99561 16 3.99561C14.7242 3.99561 13.4816 4.40226 12.4527 5.15652C11.4238 5.91079 10.662 6.97339 10.2781 8.19004C9.8942 9.40668 9.90808 10.714 10.3177 11.9223C10.7274 13.1305 11.5115 14.1767 12.5563 14.9089C11.2099 15.6697 10.1533 16.855 9.55159 18.2796C8.94988 19.7042 8.83687 21.288 9.23021 22.7836C9.62356 24.2793 10.5011 25.6025 11.7258 26.5468C12.9506 27.4911 14.4535 28.0032 16 28.0032C17.5465 28.0032 19.0494 27.4911 20.2742 26.5468C21.4989 25.6025 22.3764 24.2793 22.7698 22.7836C23.1631 21.288 23.0501 19.7042 22.4484 18.2796C21.8467 16.855 20.7901 15.6697 19.4438 14.9089ZM12 10.0002C12 9.20904 12.2346 8.43568 12.6741 7.77788C13.1137 7.12009 13.7384 6.6074 14.4693 6.30464C15.2002 6.00189 16.0044 5.92268 16.7804 6.07702C17.5563 6.23136 18.269 6.61233 18.8284 7.17174C19.3878 7.73115 19.7688 8.44388 19.9231 9.2198C20.0775 9.99573 19.9983 10.8 19.6955 11.5309C19.3928 12.2618 18.8801 12.8865 18.2223 13.326C17.5645 13.7656 16.7911 14.0002 16 14.0002C14.9391 14.0002 13.9217 13.5787 13.1716 12.8286C12.4214 12.0784 12 11.061 12 10.0002ZM16 26.0002C15.0111 26.0002 14.0444 25.7069 13.2222 25.1575C12.3999 24.6081 11.759 23.8272 11.3806 22.9136C11.0022 21.9999 10.9031 20.9946 11.0961 20.0247C11.289 19.0548 11.7652 18.1639 12.4645 17.4646C13.1637 16.7654 14.0546 16.2892 15.0246 16.0962C15.9945 15.9033 16.9998 16.0023 17.9134 16.3808C18.8271 16.7592 19.6079 17.4001 20.1574 18.2223C20.7068 19.0446 21 20.0113 21 21.0002C21 22.3262 20.4732 23.598 19.5355 24.5357C18.5979 25.4734 17.3261 26.0002 16 26.0002Z" fill="#4A4A4F"/>
</svg>
