<svg width="32" height="32" viewBox="0 0 32 32" fill="none" xmlns="http://www.w3.org/2000/svg">
<path d="M22.9062 7.9C21.2812 5.34875 18.8938 4 16 4C13.1062 4 10.7188 5.34875 9.09375 7.9C7.75 10.0225 7 12.8988 7 16C7 19.1012 7.75 21.9775 9.09375 24.1C10.7188 26.6513 13.1062 28 16 28C18.8938 28 21.2812 26.6513 22.9062 24.1C24.2563 21.975 25 19.1 25 16C25 12.9 24.2563 10.0225 22.9062 7.9ZM16 26C11.165 26 9 20.9775 9 16C9 11.0225 11.165 6 16 6C20.835 6 23 11.0225 23 16C23 20.9775 20.835 26 16 26Z" fill="#4A4A4F"/>
</svg>
