<svg width="32" height="32" viewBox="0 0 32 32" fill="none" xmlns="http://www.w3.org/2000/svg">
<path d="M16 10C14.8133 10 13.6533 10.3519 12.6666 11.0112C11.6799 11.6705 10.9108 12.6076 10.4567 13.7039C10.0026 14.8003 9.88378 16.0067 10.1153 17.1706C10.3468 18.3344 10.9182 19.4035 11.7574 20.2427C12.5965 21.0818 13.6656 21.6532 14.8295 21.8847C15.9933 22.1162 17.1997 21.9974 18.2961 21.5433C19.3925 21.0892 20.3295 20.3201 20.9888 19.3334C21.6481 18.3468 22 17.1867 22 16C21.998 14.4093 21.3652 12.8844 20.2404 11.7596C19.1157 10.6348 17.5907 10.002 16 10ZM16 20C15.2089 20 14.4355 19.7654 13.7777 19.3259C13.1199 18.8864 12.6072 18.2617 12.3045 17.5308C12.0017 16.7999 11.9225 15.9956 12.0769 15.2197C12.2312 14.4437 12.6122 13.731 13.1716 13.1716C13.731 12.6122 14.4437 12.2312 15.2196 12.0769C15.9956 11.9225 16.7998 12.0018 17.5307 12.3045C18.2616 12.6073 18.8864 13.1199 19.3259 13.7777C19.7654 14.4355 20 15.2089 20 16C20 17.0609 19.5786 18.0783 18.8284 18.8284C18.0783 19.5786 17.0609 20 16 20ZM27.96 8.26877L16.96 2.25002C16.6661 2.08763 16.3358 2.00244 16 2.00244C15.6642 2.00244 15.3339 2.08763 15.04 2.25002L4.04 8.27127C3.72586 8.44315 3.46363 8.69622 3.28069 9.00405C3.09775 9.31188 3.00081 9.66319 3 10.0213V21.9763C3.00081 22.3344 3.09775 22.6857 3.28069 22.9935C3.46363 23.3013 3.72586 23.5544 4.04 23.7263L15.04 29.7475C15.3339 29.9099 15.6642 29.9951 16 29.9951C16.3358 29.9951 16.6661 29.9099 16.96 29.7475L27.96 23.7263C28.2741 23.5544 28.5364 23.3013 28.7193 22.9935C28.9023 22.6857 28.9992 22.3344 29 21.9763V10.0225C28.9999 9.6638 28.9032 9.31172 28.7203 9.00317C28.5373 8.69462 28.2747 8.44096 27.96 8.26877ZM16 28L5 21.9775V10.0225L16 4.00002L27 10.0213V21.9763L16 28Z" fill="#4A4A4F"/>
</svg>
