<svg width="32" height="32" viewBox="0 0 32 32" fill="none" xmlns="http://www.w3.org/2000/svg">
<path d="M29.5249 27.2873C29.2644 27.599 28.9144 27.8233 28.5223 27.9297C28.1301 28.0361 27.7148 28.0196 27.3324 27.8823L17.3387 24.4623C17.2398 24.4286 17.1539 24.3648 17.0932 24.2798C17.0324 24.1948 16.9998 24.093 16.9999 23.9885V14.9998C17.0002 14.8627 16.9723 14.727 16.918 14.6011C16.8636 14.4753 16.784 14.3619 16.684 14.2682C16.584 14.1744 16.4658 14.1022 16.3367 14.056C16.2076 14.0098 16.0704 13.9907 15.9337 13.9998C15.6765 14.0224 15.4374 14.1414 15.2643 14.3329C15.0911 14.5243 14.9967 14.7741 14.9999 15.0323V23.9785C15.0001 24.0828 14.9677 24.1846 14.9071 24.2695C14.8466 24.3545 14.761 24.4184 14.6624 24.4523L4.6624 27.8823C4.27907 28.0166 3.86392 28.031 3.47219 27.9236C3.08046 27.8162 2.73071 27.5921 2.46948 27.2811C2.20824 26.97 2.04791 26.5868 2.0098 26.1824C1.97169 25.778 2.05762 25.3716 2.25615 25.0173L14.2499 4.01601C14.4239 3.70673 14.677 3.4493 14.9834 3.27015C15.2897 3.091 15.6382 2.99658 15.993 2.99658C16.3479 2.99658 16.6964 3.091 17.0027 3.27015C17.309 3.4493 17.5622 3.70673 17.7362 4.01601L29.7374 25.011C29.9408 25.3661 30.0295 25.7753 29.9915 26.1828C29.9534 26.5902 29.7905 26.976 29.5249 27.2873Z" fill="#4A4A4F"/>
</svg>
