<svg width="32" height="32" viewBox="0 0 32 32" fill="none" xmlns="http://www.w3.org/2000/svg">
<path d="M27.9836 14.2498L6.98364 2.26351C6.62966 2.06494 6.22364 1.97877 5.81952 2.01645C5.41539 2.05413 5.0323 2.21386 4.72112 2.47444C4.40994 2.73502 4.18541 3.08411 4.07735 3.47534C3.96929 3.86657 3.98282 4.28141 4.11614 4.66476L7.99114 15.9735C7.99064 15.9777 7.99064 15.9819 7.99114 15.986C7.99044 15.9901 7.99044 15.9944 7.99114 15.9985L4.11614 27.3323C4.00937 27.6338 3.9765 27.9566 4.02028 28.2735C4.06407 28.5904 4.18323 28.8921 4.36776 29.1535C4.5523 29.4148 4.79683 29.628 5.08082 29.7753C5.36481 29.9225 5.67999 29.9995 5.99989 29.9998C6.34698 29.9989 6.68797 29.9085 6.98989 29.7373L27.9786 17.731C28.2882 17.5576 28.5461 17.3049 28.7258 16.9989C28.9055 16.6929 29.0006 16.3446 29.0012 15.9897C29.0018 15.6348 28.908 15.2862 28.7294 14.9796C28.5508 14.6729 28.2939 14.4193 27.9849 14.2448L27.9836 14.2498ZM5.99989 27.9998V27.9885L9.76739 16.9998H16.9999C17.2651 16.9998 17.5195 16.8944 17.707 16.7069C17.8945 16.5193 17.9999 16.265 17.9999 15.9998C17.9999 15.7345 17.8945 15.4802 17.707 15.2927C17.5195 15.1051 17.2651 14.9998 16.9999 14.9998H9.77739L6.00739 4.01476L5.99989 3.99976L26.9999 15.9785L5.99989 27.9998Z" fill="#4A4A4F"/>
</svg>
