<svg width="32" height="32" viewBox="0 0 32 32" fill="none" xmlns="http://www.w3.org/2000/svg">
<path d="M29 15C28.996 11.5534 27.6251 8.24911 25.188 5.812C22.7509 3.37488 19.4466 2.00397 16 2C12.5534 2.00397 9.24911 3.37488 6.812 5.812C4.37489 8.24911 3.00397 11.5534 3 15C2.99973 15.151 3.03393 15.3001 3.09999 15.436C3.16606 15.5718 3.26226 15.6907 3.38125 15.7837C3.3869 15.7898 3.39319 15.7953 3.4 15.8L15 24.5V27H14C13.7348 27 13.4804 27.1054 13.2929 27.2929C13.1054 27.4804 13 27.7348 13 28C13 28.2652 13.1054 28.5196 13.2929 28.7071C13.4804 28.8946 13.7348 29 14 29H18C18.2652 29 18.5196 28.8946 18.7071 28.7071C18.8946 28.5196 19 28.2652 19 28C19 27.7348 18.8946 27.4804 18.7071 27.2929C18.5196 27.1054 18.2652 27 18 27H17V24.5L28.6 15.8C28.7242 15.7069 28.825 15.5861 28.8944 15.4472C28.9639 15.3084 29 15.1552 29 15ZM26.955 14H21.9788C21.7863 9.25625 20.24 6.19625 18.84 4.375C21.0133 4.95932 22.9558 6.19474 24.4064 7.91532C25.857 9.63589 26.7464 11.7592 26.955 14ZM16 4.25C16.6698 4.84187 17.2538 5.52428 17.735 6.2775C18.6863 7.75 19.8063 10.2338 19.9775 14H12.0225C12.1938 10.2338 13.3138 7.75 14.265 6.2825C14.7459 5.52754 15.3299 4.84344 16 4.25ZM19.3 16L16 21.9412L12.7 16H19.3ZM10.4113 16L12.8488 20.3862L7 16H10.4113ZM21.5888 16H25L19.1513 20.3862L21.5888 16ZM13.16 4.375C11.76 6.19625 10.2138 9.25625 10.0213 14H5.045C5.2536 11.7592 6.14295 9.63589 7.5936 7.91532C9.04424 6.19474 10.9867 4.95932 13.16 4.375Z" fill="#4A4A4F"/>
</svg>
