<svg width="32" height="32" viewBox="0 0 32 32" fill="none" xmlns="http://www.w3.org/2000/svg">
<path d="M22 5C20.4177 5 18.871 5.46919 17.5554 6.34824C16.2398 7.22729 15.2145 8.47672 14.609 9.93853C14.0035 11.4003 13.845 13.0089 14.1537 14.5607C14.4624 16.1126 15.2243 17.538 16.3431 18.6569C17.462 19.7757 18.8874 20.5376 20.4393 20.8463C21.9911 21.155 23.5997 20.9965 25.0615 20.391C26.5233 19.7855 27.7727 18.7602 28.6518 17.4446C29.5308 16.129 30 14.5823 30 13C29.9977 10.879 29.1541 8.84549 27.6543 7.3457C26.1545 5.84591 24.121 5.00232 22 5ZM22 19C20.8133 19 19.6533 18.6481 18.6666 17.9888C17.6799 17.3295 16.9108 16.3925 16.4567 15.2961C16.0026 14.1997 15.8838 12.9933 16.1153 11.8295C16.3468 10.6656 16.9182 9.59647 17.7574 8.75736C18.5965 7.91824 19.6656 7.3468 20.8295 7.11529C21.9933 6.88378 23.1997 7.0026 24.2961 7.45672C25.3925 7.91085 26.3295 8.67988 26.9888 9.66658C27.6481 10.6533 28 11.8133 28 13C27.9983 14.5908 27.3657 16.116 26.2408 17.2408C25.116 18.3657 23.5908 18.9983 22 19ZM10 5H8C7.46957 5 6.96086 5.21071 6.58579 5.58579C6.21071 5.96086 6 6.46957 6 7V26C6 26.5304 6.21071 27.0391 6.58579 27.4142C6.96086 27.7893 7.46957 28 8 28H10C10.5304 28 11.0391 27.7893 11.4142 27.4142C11.7893 27.0391 12 26.5304 12 26V7C12 6.46957 11.7893 5.96086 11.4142 5.58579C11.0391 5.21071 10.5304 5 10 5ZM10 26H8V7H10V26Z" fill="#4A4A4F"/>
</svg>
