<svg width="32" height="32" viewBox="0 0 32 32" fill="none" xmlns="http://www.w3.org/2000/svg">
<path d="M6.74001 4.32769C6.65219 4.22869 6.5456 4.14812 6.42641 4.09062C6.30722 4.03313 6.17781 3.99987 6.04567 3.99276C5.91353 3.98565 5.78129 4.00484 5.65662 4.04921C5.53195 4.09358 5.41733 4.16226 5.3194 4.25126C5.22147 4.34026 5.14217 4.44781 5.08611 4.56768C5.03005 4.68755 4.99834 4.81735 4.99282 4.94957C4.98729 5.08178 5.00807 5.21378 5.05393 5.33791C5.0998 5.46204 5.16984 5.57583 5.26001 5.67269L11.285 12.2977L4.58501 19.0002C4.39888 19.1855 4.25134 19.4058 4.15092 19.6485C4.05051 19.8911 3.99921 20.1513 4.00001 20.4139V26.0002C4.00001 26.5306 4.21072 27.0393 4.5858 27.4144C4.96087 27.7895 5.46958 28.0002 6.00001 28.0002H11.5863C11.849 28.001 12.1093 27.9496 12.352 27.849C12.5947 27.7483 12.815 27.6005 13 27.4139L19.3 21.1152L25.2613 27.6727C25.3491 27.7717 25.4557 27.8523 25.5749 27.9097C25.694 27.9672 25.8235 28.0005 25.9556 28.0076C26.0877 28.0147 26.22 27.9955 26.3446 27.9512C26.4693 27.9068 26.5839 27.8381 26.6819 27.7491C26.7798 27.6601 26.8591 27.5526 26.9152 27.4327C26.9712 27.3128 27.0029 27.183 27.0085 27.0508C27.014 26.9186 26.9932 26.7866 26.9473 26.6625C26.9015 26.5383 26.8314 26.4245 26.7413 26.3277L6.74001 4.32769ZM12.6325 13.7827L14.625 15.9677L8.50001 22.0864L6.41376 20.0002L12.6325 13.7827ZM6.00001 26.0002V22.4139L9.58626 26.0002H6.00001ZM12 25.5864L9.91501 23.5002L15.9663 17.4489L17.9525 19.6339L12 25.5864ZM28.415 12.0002L22.875 17.5427C22.687 17.7305 22.4322 17.8359 22.1664 17.8358C21.9007 17.8357 21.6459 17.73 21.4581 17.5421C21.2703 17.3541 21.1649 17.0992 21.165 16.8335C21.1651 16.5678 21.2708 16.313 21.4588 16.1252L23.2938 14.2902L21.2075 12.2077L19.5388 13.8752C19.3497 14.0548 19.0979 14.1535 18.8372 14.1501C18.5764 14.1468 18.3273 14.0417 18.1429 13.8573C17.9585 13.6729 17.8534 13.4238 17.8501 13.163C17.8467 12.9022 17.9454 12.6505 18.125 12.4614L19.7938 10.7927L17.7075 8.70769L16.2075 10.2077C16.1147 10.3006 16.0045 10.3743 15.8831 10.4246C15.7618 10.4749 15.6318 10.5009 15.5005 10.5009C15.3691 10.501 15.2391 10.4752 15.1177 10.425C14.9963 10.3748 14.886 10.3011 14.7931 10.2083C14.7002 10.1155 14.6265 10.0053 14.5762 9.88395C14.5259 9.76263 14.5 9.63259 14.4999 9.50125C14.4998 9.36992 14.5256 9.23985 14.5759 9.11849C14.6261 8.99713 14.6997 8.88685 14.7925 8.79394L20 3.58644C20.1857 3.40067 20.4062 3.25331 20.6489 3.15277C20.8916 3.05223 21.1517 3.00049 21.4144 3.00049C21.6771 3.00049 21.9372 3.05223 22.1799 3.15277C22.4225 3.25331 22.643 3.40067 22.8288 3.58644L28.415 9.17144C28.6008 9.35716 28.7481 9.57766 28.8487 9.82034C28.9492 10.063 29.001 10.3231 29.001 10.5858C29.001 10.8485 28.9492 11.1086 28.8487 11.3513C28.7481 11.594 28.6008 11.8145 28.415 12.0002Z" fill="#4A4A4F"/>
</svg>
