<svg width="32" height="32" viewBox="0 0 32 32" fill="none" xmlns="http://www.w3.org/2000/svg">
<path d="M22 21.5C22 21.7967 21.912 22.0867 21.7472 22.3334C21.5824 22.58 21.3481 22.7723 21.074 22.8858C20.7999 22.9993 20.4983 23.0291 20.2074 22.9712C19.9164 22.9133 19.6491 22.7704 19.4393 22.5607C19.2296 22.3509 19.0867 22.0836 19.0288 21.7926C18.9709 21.5017 19.0007 21.2001 19.1142 20.926C19.2277 20.6519 19.42 20.4176 19.6666 20.2528C19.9133 20.088 20.2033 20 20.5 20C20.8978 20 21.2794 20.158 21.5607 20.4393C21.842 20.7206 22 21.1022 22 21.5ZM11.5 12C11.7967 12 12.0867 11.912 12.3334 11.7472C12.58 11.5824 12.7723 11.3481 12.8858 11.074C12.9994 10.7999 13.0291 10.4983 12.9712 10.2074C12.9133 9.91639 12.7704 9.64912 12.5607 9.43934C12.3509 9.22956 12.0836 9.0867 11.7926 9.02882C11.5017 8.97094 11.2001 9.00065 10.926 9.11418C10.6519 9.22771 10.4176 9.41997 10.2528 9.66665C10.088 9.91332 10 10.2033 10 10.5C10 10.8978 10.158 11.2794 10.4393 11.5607C10.7206 11.842 11.1022 12 11.5 12ZM28 6V26C28 26.5304 27.7893 27.0391 27.4142 27.4142C27.0391 27.7893 26.5304 28 26 28H6C5.46957 28 4.96086 27.7893 4.58579 27.4142C4.21071 27.0391 4 26.5304 4 26V6C4 5.46957 4.21071 4.96086 4.58579 4.58579C4.96086 4.21071 5.46957 4 6 4H26C26.5304 4 27.0391 4.21071 27.4142 4.58579C27.7893 4.96086 28 5.46957 28 6ZM8 10.5C8 11.1922 8.20527 11.8689 8.58986 12.4445C8.97444 13.0201 9.52107 13.4687 10.1606 13.7336C10.8001 13.9985 11.5039 14.0678 12.1828 13.9327C12.8617 13.7977 13.4854 13.4644 13.9749 12.9749C14.4644 12.4854 14.7977 11.8618 14.9327 11.1828C15.0678 10.5039 14.9985 9.80015 14.7336 9.16061C14.4687 8.52107 14.0201 7.97444 13.4445 7.58986C12.8689 7.20527 12.1922 7 11.5 7C10.5717 7 9.6815 7.36875 9.02513 8.02513C8.36875 8.6815 8 9.57174 8 10.5ZM24 21.5C24 20.8078 23.7947 20.1311 23.4101 19.5555C23.0256 18.9799 22.4789 18.5313 21.8394 18.2664C21.1999 18.0015 20.4961 17.9322 19.8172 18.0673C19.1383 18.2023 18.5146 18.5356 18.0251 19.0251C17.5356 19.5146 17.2023 20.1383 17.0673 20.8172C16.9322 21.4961 17.0015 22.1999 17.2664 22.8394C17.5313 23.4789 17.9799 24.0256 18.5555 24.4101C19.1311 24.7947 19.8078 25 20.5 25C21.4283 25 22.3185 24.6313 22.9749 23.9749C23.6313 23.3185 24 22.4283 24 21.5ZM23.7075 8.2925C23.6146 8.19952 23.5043 8.12576 23.3829 8.07544C23.2615 8.02512 23.1314 7.99921 23 7.99921C22.8686 7.99921 22.7385 8.02512 22.6171 8.07544C22.4957 8.12576 22.3854 8.19952 22.2925 8.2925L8.2925 22.2925C8.10486 22.4801 7.99944 22.7346 7.99944 23C7.99944 23.2654 8.10486 23.5199 8.2925 23.7075C8.48014 23.8951 8.73464 24.0006 9 24.0006C9.26536 24.0006 9.51986 23.8951 9.7075 23.7075L23.7075 9.7075C23.8005 9.61463 23.8742 9.50434 23.9246 9.38294C23.9749 9.26154 24.0008 9.13142 24.0008 9C24.0008 8.86858 23.9749 8.73846 23.9246 8.61706C23.8742 8.49566 23.8005 8.38537 23.7075 8.2925Z" fill="#4A4A4F"/>
</svg>
