<svg width="32" height="32" viewBox="0 0 32 32" fill="none" xmlns="http://www.w3.org/2000/svg">
<path d="M28 15.0002H4V9.63645C4.00007 9.16807 4.16452 8.71458 4.46468 8.35503C4.76484 7.99547 5.18167 7.75267 5.6425 7.66895L25.6425 4.0327C25.9307 3.98034 26.2268 3.99192 26.5101 4.06662C26.7933 4.14132 27.0566 4.27731 27.2815 4.46498C27.5064 4.65265 27.6873 4.88743 27.8114 5.15271C27.9356 5.41799 28 5.7073 28 6.0002V15.0002ZM4 22.364C4.00007 22.8323 4.16452 23.2858 4.46468 23.6454C4.76484 24.0049 5.18167 24.2477 5.6425 24.3314L25.6425 27.9677C25.7605 27.9889 25.8801 27.9998 26 28.0002C26.5304 28.0002 27.0391 27.7895 27.4142 27.4144C27.7893 27.0393 28 26.5306 28 26.0002V17.0002H4V22.364ZM30 15.0002H28V17.0002H30C30.2652 17.0002 30.5196 16.8948 30.7071 16.7073C30.8946 16.5198 31 16.2654 31 16.0002C31 15.735 30.8946 15.4806 30.7071 15.2931C30.5196 15.1056 30.2652 15.0002 30 15.0002ZM2 15.0002C1.73478 15.0002 1.48043 15.1056 1.29289 15.2931C1.10536 15.4806 1 15.735 1 16.0002C1 16.2654 1.10536 16.5198 1.29289 16.7073C1.48043 16.8948 1.73478 17.0002 2 17.0002H4V15.0002H2Z" fill="#4A4A4F"/>
</svg>
