<svg width="32" height="32" viewBox="0 0 32 32" fill="none" xmlns="http://www.w3.org/2000/svg">
<path d="M14.9998 6C14.9998 5.20888 15.2344 4.43552 15.6739 3.77772C16.1134 3.11992 16.7382 2.60723 17.4691 2.30448C18.2 2.00173 19.0042 1.92252 19.7802 2.07686C20.5561 2.2312 21.2688 2.61216 21.8282 3.17157C22.3876 3.73098 22.7686 4.44372 22.9229 5.21964C23.0773 5.99556 22.9981 6.79983 22.6953 7.53074C22.3926 8.26164 21.8799 8.88635 21.2221 9.32588C20.5643 9.76541 19.7909 10 18.9998 10C17.9389 10 16.9215 9.57857 16.1714 8.82843C15.4212 8.07828 14.9998 7.06087 14.9998 6ZM25.9998 17C22.4198 17 20.7735 15.3375 19.031 13.5788C18.5898 13.1325 18.1335 12.6713 17.656 12.2563C13.031 8.23875 5.62854 15.0975 5.31604 15.3913C5.12994 15.5745 5.02289 15.8232 5.01777 16.0843C5.01265 16.3454 5.10986 16.5981 5.28863 16.7885C5.46739 16.9788 5.71353 17.0917 5.97443 17.103C6.23532 17.1142 6.49028 17.023 6.68479 16.8488C7.84805 15.7978 9.12809 14.884 10.4998 14.125C12.2223 13.2025 13.6735 12.8463 14.8373 13.0525L8.08229 28.6013C7.97682 28.8444 7.97221 29.1195 8.06948 29.3661C8.16675 29.6127 8.35795 29.8106 8.60104 29.9163C8.72662 29.9718 8.86247 30.0003 8.99979 30C9.19468 30.0001 9.38534 29.9432 9.54834 29.8364C9.71134 29.7296 9.83958 29.5775 9.91729 29.3988L14.116 19.74L17.9998 22.515V29C17.9998 29.2652 18.1051 29.5196 18.2927 29.7071C18.4802 29.8946 18.7346 30 18.9998 30C19.265 30 19.5194 29.8946 19.7069 29.7071C19.8944 29.5196 19.9998 29.2652 19.9998 29V22C19.9998 21.8408 19.9618 21.6839 19.889 21.5424C19.8161 21.4009 19.7106 21.2788 19.581 21.1863L14.931 17.865L16.6098 14C16.9398 14.305 17.2673 14.6338 17.6098 14.98C19.381 16.7738 21.586 19 25.9998 19C26.265 19 26.5194 18.8946 26.7069 18.7071C26.8944 18.5196 26.9998 18.2652 26.9998 18C26.9998 17.7348 26.8944 17.4804 26.7069 17.2929C26.5194 17.1054 26.265 17 25.9998 17Z" fill="#4A4A4F"/>
</svg>
