<svg width="32" height="32" viewBox="0 0 32 32" fill="none" xmlns="http://www.w3.org/2000/svg">
<path d="M11.986 6C11.986 5.20888 12.2206 4.43552 12.6602 3.77772C13.0997 3.11992 13.7244 2.60723 14.4553 2.30448C15.1862 2.00173 15.9905 1.92252 16.7664 2.07686C17.5423 2.2312 18.255 2.61216 18.8145 3.17157C19.3739 3.73098 19.7548 4.44372 19.9092 5.21964C20.0635 5.99556 19.9843 6.79983 19.6815 7.53074C19.3788 8.26164 18.8661 8.88635 18.2083 9.32588C17.5505 9.76541 16.7772 10 15.986 10C14.9252 10 13.9077 9.57857 13.1576 8.82843C12.4075 8.07828 11.986 7.06087 11.986 6ZM28.5148 15.1425C28.2998 15.0138 23.1935 12 15.9998 12C8.80603 12 3.69978 15.0138 3.48478 15.1425C3.25736 15.2791 3.09351 15.5004 3.02928 15.7578C2.96505 16.0152 3.00569 16.2876 3.14228 16.515C3.27887 16.7424 3.5002 16.9063 3.7576 16.9705C4.01499 17.0347 4.28736 16.9941 4.51478 16.8575C4.55978 16.83 8.87853 14.2825 14.9998 14.0225V18.625L7.24978 27.3363C7.16262 27.4347 7.0957 27.5494 7.05286 27.6738C7.01003 27.7981 6.9921 27.9297 7.00011 28.061C7.00812 28.1923 7.0419 28.3207 7.09954 28.4389C7.15718 28.5571 7.23754 28.6628 7.33603 28.75C7.43452 28.8372 7.54922 28.9041 7.67357 28.9469C7.79792 28.9898 7.92949 29.0077 8.06077 28.9997C8.19205 28.9917 8.32046 28.9579 8.43868 28.9002C8.5569 28.8426 8.66262 28.7622 8.74978 28.6638L15.9998 20.5L23.2498 28.6588C23.4258 28.8577 23.6737 28.9785 23.9388 28.9947C24.2039 29.0108 24.4646 28.921 24.6635 28.745C24.8624 28.569 24.9833 28.3211 24.9995 28.056C25.0156 27.7909 24.9258 27.5302 24.7498 27.3313L16.9998 18.625V14.0238C23.096 14.2838 27.441 16.8313 27.4848 16.8575C27.5974 16.9251 27.7222 16.9699 27.8521 16.9893C27.982 17.0087 28.1145 17.0023 28.242 16.9705C28.3694 16.9387 28.4893 16.8821 28.5949 16.804C28.7005 16.7258 28.7896 16.6276 28.8573 16.515C28.9249 16.4024 28.9697 16.2776 28.9891 16.1476C29.0085 16.0177 29.0021 15.8853 28.9703 15.7578C28.9385 15.6304 28.8819 15.5104 28.8037 15.4049C28.7256 15.2993 28.6274 15.2101 28.5148 15.1425Z" fill="#4A4A4F"/>
</svg>
