<svg width="32" height="32" viewBox="0 0 32 32" fill="none" xmlns="http://www.w3.org/2000/svg">
<path d="M19.0001 10C19.7912 10 20.5645 9.76541 21.2223 9.32588C21.8801 8.88635 22.3928 8.26164 22.6956 7.53074C22.9983 6.79983 23.0775 5.99556 22.9232 5.21964C22.7689 4.44372 22.3879 3.73098 21.8285 3.17157C21.2691 2.61216 20.5563 2.2312 19.7804 2.07686C19.0045 1.92252 18.2002 2.00173 17.4693 2.30448C16.7384 2.60723 16.1137 3.11992 15.6742 3.77772C15.2347 4.43552 15.0001 5.20888 15.0001 6C15.0001 7.06087 15.4215 8.07828 16.1716 8.82843C16.9218 9.57857 17.9392 10 19.0001 10ZM19.0001 4C19.3956 4 19.7823 4.1173 20.1112 4.33706C20.4401 4.55683 20.6964 4.86918 20.8478 5.23463C20.9992 5.60009 21.0388 6.00222 20.9616 6.39018C20.8845 6.77814 20.694 7.13451 20.4143 7.41422C20.1346 7.69392 19.7782 7.8844 19.3902 7.96157C19.0023 8.03874 18.6001 7.99914 18.2347 7.84776C17.8692 7.69639 17.5569 7.44004 17.3371 7.11114C17.1174 6.78224 17.0001 6.39556 17.0001 6C17.0001 5.46957 17.2108 4.96086 17.5859 4.58579C17.9609 4.21072 18.4696 4 19.0001 4ZM27.0001 18C27.0001 18.2652 26.8947 18.5196 26.7072 18.7071C26.5196 18.8946 26.2653 19 26.0001 19C21.5863 19 19.3813 16.7738 17.6101 14.985C17.2676 14.6388 16.9401 14.31 16.6101 14.005L14.9313 17.865L19.5813 21.1863C19.7108 21.2788 19.8164 21.4009 19.8892 21.5424C19.9621 21.6839 20.0001 21.8408 20.0001 22V29C20.0001 29.2652 19.8947 29.5196 19.7072 29.7071C19.5196 29.8946 19.2653 30 19.0001 30C18.7348 30 18.4805 29.8946 18.293 29.7071C18.1054 29.5196 18.0001 29.2652 18.0001 29V22.515L14.1163 19.74L9.91756 29.3988C9.83985 29.5775 9.71162 29.7296 9.54861 29.8364C9.38561 29.9432 9.19495 30.0001 9.00006 30C8.86275 30.0003 8.7269 29.9718 8.60131 29.9163C8.35822 29.8106 8.16703 29.6127 8.06976 29.3661C7.97248 29.1195 7.97709 28.8444 8.08257 28.6013L14.8426 13.055C13.6788 12.8488 12.2276 13.205 10.5051 14.1275C9.13131 14.8853 7.84916 15.7983 6.68382 16.8488C6.4893 17.023 6.23435 17.1142 5.97345 17.103C5.71255 17.0917 5.46642 16.9788 5.28765 16.7885C5.10888 16.5981 5.01167 16.3454 5.01679 16.0843C5.02192 15.8232 5.12897 15.5745 5.31506 15.3913C5.62756 15.0975 13.0263 8.2375 17.6551 12.2563C18.1338 12.6713 18.5901 13.1313 19.0301 13.5775C20.7738 15.3375 22.4201 17 26.0001 17C26.2653 17 26.5196 17.1054 26.7072 17.2929C26.8947 17.4804 27.0001 17.7348 27.0001 18Z" fill="#4A4A4F"/>
</svg>
