<svg width="32" height="32" viewBox="0 0 32 32" fill="none" xmlns="http://www.w3.org/2000/svg">
<path d="M20.5 10C21.1922 10 21.8689 9.79473 22.4445 9.41015C23.0201 9.02556 23.4687 8.47894 23.7336 7.83939C23.9985 7.19985 24.0678 6.49612 23.9328 5.81719C23.7977 5.13825 23.4644 4.51461 22.9749 4.02513C22.4854 3.53564 21.8618 3.2023 21.1828 3.06725C20.5039 2.9322 19.8002 3.00152 19.1606 3.26642C18.5211 3.53133 17.9744 3.97993 17.5899 4.55551C17.2053 5.13108 17 5.80777 17 6.5C17 7.42826 17.3687 8.3185 18.0251 8.97487C18.6815 9.63125 19.5717 10 20.5 10ZM20.5 5C20.7967 5 21.0867 5.08798 21.3334 5.2528C21.58 5.41762 21.7723 5.65189 21.8858 5.92598C21.9994 6.20007 22.0291 6.50167 21.9712 6.79264C21.9133 7.08361 21.7704 7.35088 21.5607 7.56066C21.3509 7.77044 21.0836 7.9133 20.7926 7.97118C20.5017 8.02906 20.2001 7.99935 19.926 7.88582C19.6519 7.77229 19.4176 7.58003 19.2528 7.33336C19.088 7.08668 19 6.79667 19 6.5C19 6.10218 19.158 5.72065 19.4393 5.43934C19.7206 5.15804 20.1022 5 20.5 5ZM25 17C24.0111 17 23.0444 17.2932 22.2222 17.8427C21.3999 18.3921 20.759 19.173 20.3806 20.0866C20.0022 21.0002 19.9031 22.0055 20.0961 22.9755C20.289 23.9454 20.7652 24.8363 21.4645 25.5355C22.1637 26.2348 23.0546 26.711 24.0245 26.9039C24.9945 27.0969 25.9998 26.9978 26.9134 26.6194C27.8271 26.241 28.6079 25.6001 29.1574 24.7779C29.7068 23.9556 30 22.9889 30 22C30 20.6739 29.4732 19.4021 28.5355 18.4645C27.5979 17.5268 26.3261 17 25 17ZM25 25C24.4067 25 23.8266 24.8241 23.3333 24.4944C22.8399 24.1648 22.4554 23.6962 22.2284 23.1481C22.0013 22.5999 21.9419 21.9967 22.0576 21.4147C22.1734 20.8328 22.4591 20.2982 22.8787 19.8787C23.2982 19.4591 23.8328 19.1734 24.4147 19.0576C24.9967 18.9419 25.5999 19.0013 26.1481 19.2284C26.6962 19.4554 27.1648 19.8399 27.4944 20.3333C27.8241 20.8266 28 21.4067 28 22C28 22.7957 27.6839 23.5587 27.1213 24.1213C26.5587 24.6839 25.7957 25 25 25ZM7 17C6.0111 17 5.0444 17.2932 4.22215 17.8427C3.39991 18.3921 2.75904 19.173 2.3806 20.0866C2.00217 21.0002 1.90315 22.0055 2.09608 22.9755C2.289 23.9454 2.76521 24.8363 3.46447 25.5355C4.16373 26.2348 5.05465 26.711 6.02455 26.9039C6.99446 27.0969 7.99979 26.9978 8.91342 26.6194C9.82705 26.241 10.6079 25.6001 11.1573 24.7779C11.7068 23.9556 12 22.9889 12 22C12 21.3434 11.8707 20.6932 11.6194 20.0866C11.3681 19.48 10.9998 18.9288 10.5355 18.4645C10.0712 18.0002 9.52005 17.6319 8.91342 17.3806C8.30679 17.1293 7.65661 17 7 17ZM7 25C6.40666 25 5.82664 24.8241 5.33329 24.4944C4.83994 24.1648 4.45543 23.6962 4.22836 23.1481C4.0013 22.5999 3.94189 21.9967 4.05765 21.4147C4.1734 20.8328 4.45912 20.2982 4.87868 19.8787C5.29824 19.4591 5.83279 19.1734 6.41473 19.0576C6.99667 18.9419 7.59987 19.0013 8.14805 19.2284C8.69623 19.4554 9.16477 19.8399 9.49441 20.3333C9.82406 20.8266 10 21.4067 10 22C10 22.7957 9.68393 23.5587 9.12132 24.1213C8.55871 24.6839 7.79565 25 7 25ZM24 15H19C18.8686 15.0001 18.7385 14.9743 18.6172 14.9241C18.4958 14.874 18.3854 14.8003 18.2925 14.7075L15 11.4138L12.4138 14L16.7075 18.2925C16.8003 18.3854 16.874 18.4958 16.9241 18.6172C16.9743 18.7385 17.0001 18.8686 17 19V25C17 25.2652 16.8946 25.5196 16.7071 25.7071C16.5196 25.8946 16.2652 26 16 26C15.7348 26 15.4804 25.8946 15.2929 25.7071C15.1054 25.5196 15 25.2652 15 25V19.4138L10.2925 14.7075C10.1995 14.6146 10.1258 14.5043 10.0754 14.3829C10.0251 14.2615 9.99922 14.1314 9.99922 14C9.99922 13.8686 10.0251 13.7385 10.0754 13.6171C10.1258 13.4957 10.1995 13.3854 10.2925 13.2925L14.2925 9.2925C14.3854 9.19952 14.4957 9.12577 14.6171 9.07544C14.7385 9.02512 14.8686 8.99921 15 8.99921C15.1314 8.99921 15.2615 9.02512 15.3829 9.07544C15.5043 9.12577 15.6146 9.19952 15.7075 9.2925L19.4138 13H24C24.2652 13 24.5196 13.1054 24.7071 13.2929C24.8946 13.4804 25 13.7348 25 14C25 14.2652 24.8946 14.5196 24.7071 14.7071C24.5196 14.8946 24.2652 15 24 15Z" fill="#4A4A4F"/>
</svg>
