<svg width="32" height="32" viewBox="0 0 32 32" fill="none" xmlns="http://www.w3.org/2000/svg">
<path d="M28.985 21.8852C28.7621 23.579 27.9303 25.1338 26.6449 26.2591C25.3595 27.3844 23.7084 28.0033 22 28.0002C12.075 28.0002 4.00001 19.9252 4.00001 10.0002C3.99695 8.29185 4.61587 6.64076 5.74118 5.35535C6.86649 4.06995 8.42122 3.23812 10.115 3.01524C10.5433 2.96294 10.9771 3.05056 11.3515 3.26503C11.7259 3.4795 12.0209 3.80932 12.1925 4.20524L14.8325 10.099V10.114C14.9639 10.4171 15.0181 10.7479 14.9904 11.0771C14.9627 11.4062 14.8539 11.7234 14.6738 12.0002C14.6513 12.034 14.6275 12.0652 14.6025 12.0965L12 15.1815C12.9363 17.084 14.9263 19.0565 16.8538 19.9952L19.8963 17.4065C19.9261 17.3814 19.9574 17.358 19.99 17.3365C20.2666 17.152 20.5849 17.0394 20.916 17.0088C21.2471 16.9783 21.5806 17.0307 21.8863 17.1615L21.9025 17.169L27.7913 19.8077C28.1879 19.9787 28.5185 20.2735 28.7337 20.6479C28.9489 21.0224 29.037 21.4565 28.985 21.8852ZM20 13.0002H25C25.2652 13.0002 25.5196 12.8949 25.7071 12.7073C25.8947 12.5198 26 12.2655 26 12.0002C26 11.735 25.8947 11.4807 25.7071 11.2931C25.5196 11.1056 25.2652 11.0002 25 11.0002H22.415L26.7075 6.70774C26.8952 6.52009 27.0006 6.2656 27.0006 6.00024C27.0006 5.73487 26.8952 5.48038 26.7075 5.29274C26.5199 5.10509 26.2654 4.99968 26 4.99968C25.7346 4.99968 25.4802 5.10509 25.2925 5.29274L21 9.58649V7.00024C21 6.73502 20.8947 6.48067 20.7071 6.29313C20.5196 6.10559 20.2652 6.00024 20 6.00024C19.7348 6.00024 19.4804 6.10559 19.2929 6.29313C19.1054 6.48067 19 6.73502 19 7.00024V12.0002C19 12.2655 19.1054 12.5198 19.2929 12.7073C19.4804 12.8949 19.7348 13.0002 20 13.0002Z" fill="#4A4A4F"/>
</svg>
