<svg width="32" height="32" viewBox="0 0 32 32" fill="none" xmlns="http://www.w3.org/2000/svg">
<path d="M28.985 21.8852C28.7621 23.579 27.9303 25.1338 26.6449 26.2591C25.3595 27.3844 23.7084 28.0033 22 28.0002C12.075 28.0002 4.00001 19.9252 4.00001 10.0002C3.99695 8.29185 4.61587 6.64076 5.74118 5.35535C6.86649 4.06995 8.42122 3.23812 10.115 3.01524C10.5433 2.96294 10.9771 3.05056 11.3515 3.26503C11.7259 3.4795 12.0209 3.80932 12.1925 4.20524L14.8325 10.099C14.832 10.104 14.832 10.109 14.8325 10.114C14.9639 10.4171 15.0181 10.7479 14.9904 11.0771C14.9627 11.4062 14.8539 11.7234 14.6738 12.0002C14.6513 12.034 14.6275 12.0652 14.6025 12.0965L12 15.1815C12.9363 17.084 14.9263 19.0565 16.8538 19.9952L19.8963 17.4065C19.9261 17.3814 19.9574 17.358 19.99 17.3365C20.2668 17.1518 20.5852 17.039 20.9166 17.0085C21.2479 16.9779 21.5816 17.0305 21.8875 17.1615L21.9025 17.169L27.79 19.8077C28.1869 19.9785 28.5177 20.2732 28.7332 20.6477C28.9486 21.0222 29.0369 21.4563 28.985 21.8852ZM19 10.0002H22V13.0002C22 13.2655 22.1054 13.5198 22.2929 13.7073C22.4804 13.8949 22.7348 14.0002 23 14.0002C23.2652 14.0002 23.5196 13.8949 23.7071 13.7073C23.8947 13.5198 24 13.2655 24 13.0002V10.0002H27C27.2652 10.0002 27.5196 9.89488 27.7071 9.70734C27.8947 9.51981 28 9.26545 28 9.00024C28 8.73502 27.8947 8.48066 27.7071 8.29313C27.5196 8.10559 27.2652 8.00024 27 8.00024H24V5.00024C24 4.73502 23.8947 4.48066 23.7071 4.29313C23.5196 4.10559 23.2652 4.00024 23 4.00024C22.7348 4.00024 22.4804 4.10559 22.2929 4.29313C22.1054 4.48066 22 4.73502 22 5.00024V8.00024H19C18.7348 8.00024 18.4804 8.10559 18.2929 8.29313C18.1054 8.48066 18 8.73502 18 9.00024C18 9.26545 18.1054 9.51981 18.2929 9.70734C18.4804 9.89488 18.7348 10.0002 19 10.0002Z" fill="#4A4A4F"/>
</svg>
