<svg width="32" height="32" viewBox="0 0 32 32" fill="none" xmlns="http://www.w3.org/2000/svg">
<path d="M27.795 19.8077L21.9075 17.169L21.8925 17.1615C21.5866 17.0305 21.2529 16.9779 20.9216 17.0085C20.5902 17.039 20.2718 17.1518 19.995 17.3365C19.9624 17.358 19.9311 17.3814 19.9013 17.4065L16.8588 20.0002C14.9313 19.064 12.9413 17.089 12.005 15.1865L14.6025 12.0977C14.6275 12.0665 14.6513 12.0352 14.6738 12.0015C14.8543 11.7256 14.9638 11.4094 14.9926 11.081C15.0214 10.7525 14.9686 10.4221 14.8388 10.119C14.8383 10.114 14.8383 10.109 14.8388 10.104L12.1925 4.20524C12.0209 3.80932 11.7259 3.4795 11.3515 3.26503C10.9771 3.05056 10.5433 2.96294 10.115 3.01524C8.42122 3.23812 6.86649 4.06995 5.74118 5.35535C4.61587 6.64076 3.99695 8.29185 4.00001 10.0002C4.00001 19.9252 12.075 28.0002 22 28.0002C23.7084 28.0033 25.3595 27.3844 26.6449 26.2591C27.9303 25.1338 28.7621 23.579 28.985 21.8852C29.0373 21.4569 28.9497 21.0232 28.7352 20.6488C28.5207 20.2743 28.1909 19.9793 27.795 19.8077ZM22 26.0002C17.758 25.9956 13.691 24.3084 10.6914 21.3088C7.69184 18.3092 6.00464 14.2423 6.00001 10.0002C5.99531 8.7796 6.43507 7.59898 7.23718 6.67887C8.03929 5.75876 9.14889 5.16207 10.3588 5.00024C10.3583 5.00522 10.3583 5.01025 10.3588 5.01524L12.9838 10.8902L10.4 13.9827C10.3738 14.0129 10.35 14.0451 10.3288 14.079C10.1407 14.3676 10.0303 14.7 10.0084 15.0438C9.9865 15.3876 10.0538 15.7313 10.2038 16.0415C11.3363 18.3577 13.67 20.674 16.0113 21.8052C16.3237 21.9538 16.6694 22.0188 17.0144 21.9938C17.3595 21.9688 17.6922 21.8547 17.98 21.6627C18.0124 21.6411 18.0433 21.6173 18.0725 21.5915L21.1113 19.0002L26.9863 21.6327C26.9863 21.6327 26.9963 21.6327 27 21.6327C26.8399 22.8441 26.244 23.9556 25.3237 24.7595C24.4035 25.5633 23.2219 26.0044 22 26.0002ZM18 9.00024C18 8.73502 18.1054 8.48066 18.2929 8.29313C18.4804 8.10559 18.7348 8.00024 19 8.00024H22V5.00024C22 4.73502 22.1054 4.48066 22.2929 4.29313C22.4804 4.10559 22.7348 4.00024 23 4.00024C23.2652 4.00024 23.5196 4.10559 23.7071 4.29313C23.8947 4.48066 24 4.73502 24 5.00024V8.00024H27C27.2652 8.00024 27.5196 8.10559 27.7071 8.29313C27.8947 8.48066 28 8.73502 28 9.00024C28 9.26545 27.8947 9.51981 27.7071 9.70734C27.5196 9.89488 27.2652 10.0002 27 10.0002H24V13.0002C24 13.2655 23.8947 13.5198 23.7071 13.7073C23.5196 13.8949 23.2652 14.0002 23 14.0002C22.7348 14.0002 22.4804 13.8949 22.2929 13.7073C22.1054 13.5198 22 13.2655 22 13.0002V10.0002H19C18.7348 10.0002 18.4804 9.89488 18.2929 9.70734C18.1054 9.51981 18 9.26545 18 9.00024Z" fill="#4A4A4F"/>
</svg>
