<svg width="32" height="32" viewBox="0 0 32 32" fill="none" xmlns="http://www.w3.org/2000/svg">
<path d="M19.2925 12.7073C19.1995 12.6144 19.1258 12.5041 19.0755 12.3828C19.0251 12.2614 18.9992 12.1312 18.9992 11.9998C18.9992 11.8684 19.0251 11.7383 19.0755 11.6169C19.1258 11.4955 19.1995 11.3852 19.2925 11.2923L23.5863 6.99981H21C20.7348 6.99981 20.4804 6.89445 20.2929 6.70692C20.1054 6.51938 20 6.26503 20 5.99981C20 5.73459 20.1054 5.48024 20.2929 5.2927C20.4804 5.10517 20.7348 4.99981 21 4.99981H26C26.2652 4.99981 26.5196 5.10517 26.7071 5.2927C26.8947 5.48024 27 5.73459 27 5.99981V10.9998C27 11.265 26.8947 11.5194 26.7071 11.7069C26.5196 11.8945 26.2652 11.9998 26 11.9998C25.7348 11.9998 25.4804 11.8945 25.2929 11.7069C25.1054 11.5194 25 11.265 25 10.9998V8.41356L20.7075 12.7073C20.6146 12.8003 20.5044 12.874 20.383 12.9244C20.2616 12.9747 20.1314 13.0006 20 13.0006C19.8686 13.0006 19.7385 12.9747 19.6171 12.9244C19.4957 12.874 19.3854 12.8003 19.2925 12.7073ZM28.985 21.8848C28.7621 23.5786 27.9303 25.1333 26.6449 26.2586C25.3595 27.3839 23.7084 28.0029 22 27.9998C12.075 27.9998 4.00001 19.9248 4.00001 9.99981C3.99695 8.29142 4.61587 6.64034 5.74118 5.35493C6.86649 4.06952 8.42122 3.23769 10.115 3.01481C10.5432 2.96242 10.9768 3.04986 11.3512 3.26409C11.7256 3.47833 12.0207 3.80787 12.1925 4.20356L14.8325 10.0986V10.1136C14.9639 10.4166 15.0181 10.7475 14.9904 11.0767C14.9627 11.4058 14.8539 11.723 14.6738 11.9998C14.6513 12.0336 14.6275 12.0648 14.6025 12.0961L12 15.1811C12.9363 17.0836 14.9263 19.0561 16.8538 19.9948L19.8963 17.4061C19.9261 17.3809 19.9574 17.3576 19.99 17.3361C20.2663 17.1508 20.5846 17.0378 20.9159 17.0072C21.2471 16.9766 21.5807 17.0295 21.8863 17.1611L21.9025 17.1686L27.7913 19.8073C28.1879 19.9783 28.5185 20.273 28.7337 20.6475C28.9489 21.022 29.037 21.4561 28.985 21.8848ZM27 21.6348C27 21.6348 26.9913 21.6348 26.9863 21.6348L21.1113 19.0023L18.0675 21.5923C18.038 21.6173 18.0071 21.6407 17.975 21.6623C17.6872 21.8543 17.3545 21.9684 17.0094 21.9934C16.6644 22.0183 16.3187 21.9534 16.0063 21.8048C13.665 20.6736 11.3313 18.3573 10.1988 16.0411C10.0488 15.7309 9.9815 15.3872 10.0034 15.0434C10.0253 14.6996 10.1357 14.3672 10.3238 14.0786C10.345 14.0447 10.3688 14.0125 10.395 13.9823L13 10.8936L10.375 5.01856C10.3745 5.01357 10.3745 5.00855 10.375 5.00356C9.16283 5.16168 8.04986 5.75626 7.24453 6.67595C6.43919 7.59564 5.99674 8.77736 6.00001 9.99981C6.00464 14.2419 7.69184 18.3088 10.6914 21.3084C13.691 24.308 17.758 25.9952 22 25.9998C23.2217 26.004 24.4031 25.5631 25.3233 24.7595C26.2436 23.9559 26.8396 22.8447 27 21.6336V21.6348Z" fill="#4A4A4F"/>
</svg>
