<svg width="32" height="32" viewBox="0 0 32 32" fill="none" xmlns="http://www.w3.org/2000/svg">
<path d="M29.9426 7.87519C29.881 7.6192 29.7691 7.37799 29.6136 7.16556C29.458 6.95313 29.2618 6.7737 29.0363 6.63769C25.1041 4.25894 20.5959 3.00146 16.0001 3.00146C11.4043 3.00146 6.89612 4.25894 2.96385 6.63769C2.73904 6.77403 2.54332 6.95336 2.38789 7.16542C2.23246 7.37747 2.12037 7.61809 2.05802 7.87351C1.99567 8.12893 1.9843 8.39414 2.02455 8.65396C2.0648 8.91378 2.15589 9.16311 2.2926 9.38769L14.2926 29.0464C14.4709 29.3403 14.7219 29.5833 15.0214 29.752C15.3209 29.9206 15.6589 30.0092 16.0026 30.0092C16.3463 30.0092 16.6843 29.9206 16.9838 29.752C17.2833 29.5833 17.5343 29.3403 17.7126 29.0464L29.7126 9.38769C29.8495 9.1635 29.9403 8.91428 29.9798 8.65459C30.0193 8.3949 30.0066 8.12994 29.9426 7.87519ZM23.0551 16.4414C21.9436 15.9369 20.686 15.8565 19.5192 16.2152C18.3525 16.5739 17.3573 17.347 16.7212 18.3888C16.0851 19.4305 15.852 20.669 16.066 21.8708C16.2799 23.0725 16.926 24.1545 17.8826 24.9127L16.0001 28.0002L12.0626 21.5539C12.709 21.2626 13.2861 20.8372 13.7556 20.3058C14.225 19.7744 14.5761 19.1493 14.7855 18.4718C14.9948 17.7944 15.0577 17.0802 14.97 16.3766C14.8822 15.673 14.6458 14.9961 14.2765 14.3909C13.9071 13.7856 13.4133 13.2658 12.8277 12.866C12.2421 12.4662 11.5782 12.1955 10.88 12.072C10.1818 11.9484 9.4653 11.9747 8.77805 12.1491C8.09081 12.3236 7.44853 12.6423 6.89385 13.0839L6.1001 11.7827C9.08139 9.96286 12.5066 9.00004 15.9995 9.00004C19.4923 9.00004 22.9176 9.96286 25.8988 11.7827L23.0551 16.4414Z" fill="#4A4A4F"/>
</svg>
