<svg width="32" height="32" viewBox="0 0 32 32" fill="none" xmlns="http://www.w3.org/2000/svg">
<path d="M25.7075 7.7075L7.7075 25.7075C7.51986 25.8951 7.26536 26.0006 7 26.0006C6.73464 26.0006 6.48014 25.8951 6.2925 25.7075C6.10486 25.5199 5.99944 25.2654 5.99944 25C5.99944 24.7346 6.10486 24.4801 6.2925 24.2925L24.2925 6.2925C24.4801 6.10486 24.7346 5.99944 25 5.99944C25.2654 5.99944 25.5199 6.10486 25.7075 6.2925C25.8951 6.48014 26.0006 6.73464 26.0006 7C26.0006 7.26536 25.8951 7.51986 25.7075 7.7075ZM8 14C8 14.2652 8.10536 14.5196 8.29289 14.7071C8.48043 14.8946 8.73478 15 9 15C9.26522 15 9.51957 14.8946 9.70711 14.7071C9.89464 14.5196 10 14.2652 10 14V10H14C14.2652 10 14.5196 9.89464 14.7071 9.70711C14.8946 9.51957 15 9.26522 15 9C15 8.73478 14.8946 8.48043 14.7071 8.29289C14.5196 8.10536 14.2652 8 14 8H10V4C10 3.73478 9.89464 3.48043 9.70711 3.29289C9.51957 3.10536 9.26522 3 9 3C8.73478 3 8.48043 3.10536 8.29289 3.29289C8.10536 3.48043 8 3.73478 8 4V8H4C3.73478 8 3.48043 8.10536 3.29289 8.29289C3.10536 8.48043 3 8.73478 3 9C3 9.26522 3.10536 9.51957 3.29289 9.70711C3.48043 9.89464 3.73478 10 4 10H8V14ZM28 22H18C17.7348 22 17.4804 22.1054 17.2929 22.2929C17.1054 22.4804 17 22.7348 17 23C17 23.2652 17.1054 23.5196 17.2929 23.7071C17.4804 23.8946 17.7348 24 18 24H28C28.2652 24 28.5196 23.8946 28.7071 23.7071C28.8946 23.5196 29 23.2652 29 23C29 22.7348 28.8946 22.4804 28.7071 22.2929C28.5196 22.1054 28.2652 22 28 22Z" fill="#4A4A4F"/>
</svg>
