<svg width="32" height="32" viewBox="0 0 32 32" fill="none" xmlns="http://www.w3.org/2000/svg">
<path d="M12 4C12 3.73478 12.1054 3.48043 12.2929 3.29289C12.4804 3.10536 12.7348 3 13 3H19C19.2652 3 19.5196 3.10536 19.7071 3.29289C19.8946 3.48043 20 3.73478 20 4C20 4.26522 19.8946 4.51957 19.7071 4.70711C19.5196 4.89464 19.2652 5 19 5H13C12.7348 5 12.4804 4.89464 12.2929 4.70711C12.1054 4.51957 12 4.26522 12 4ZM31 15C31 15.2652 30.8946 15.5196 30.7071 15.7071C30.5196 15.8946 30.2652 16 30 16H29V26C29 26.5304 28.7893 27.0391 28.4142 27.4142C28.0391 27.7893 27.5304 28 27 28H24C23.4696 28 22.9609 27.7893 22.5858 27.4142C22.2107 27.0391 22 26.5304 22 26V24H10V26C10 26.5304 9.78929 27.0391 9.41421 27.4142C9.03914 27.7893 8.53043 28 8 28H5C4.46957 28 3.96086 27.7893 3.58579 27.4142C3.21071 27.0391 3 26.5304 3 26V16H2C1.73478 16 1.48043 15.8946 1.29289 15.7071C1.10536 15.5196 1 15.2652 1 15C1 14.7348 1.10536 14.4804 1.29289 14.2929C1.48043 14.1054 1.73478 14 2 14H3.42L6.84375 8.0075C7.01869 7.70145 7.27141 7.44707 7.57632 7.27014C7.88123 7.09321 8.22748 7.00002 8.58 7H23.42C23.7725 7.00002 24.1188 7.09321 24.4237 7.27014C24.7286 7.44707 24.9813 7.70145 25.1562 8.0075L28.58 14H30C30.2652 14 30.5196 14.1054 30.7071 14.2929C30.8946 14.4804 31 14.7348 31 15ZM11 19C11 18.7348 10.8946 18.4804 10.7071 18.2929C10.5196 18.1054 10.2652 18 10 18H8C7.73478 18 7.48043 18.1054 7.29289 18.2929C7.10536 18.4804 7 18.7348 7 19C7 19.2652 7.10536 19.5196 7.29289 19.7071C7.48043 19.8946 7.73478 20 8 20H10C10.2652 20 10.5196 19.8946 10.7071 19.7071C10.8946 19.5196 11 19.2652 11 19ZM25 19C25 18.7348 24.8946 18.4804 24.7071 18.2929C24.5196 18.1054 24.2652 18 24 18H22C21.7348 18 21.4804 18.1054 21.2929 18.2929C21.1054 18.4804 21 18.7348 21 19C21 19.2652 21.1054 19.5196 21.2929 19.7071C21.4804 19.8946 21.7348 20 22 20H24C24.2652 20 24.5196 19.8946 24.7071 19.7071C24.8946 19.5196 25 19.2652 25 19Z" fill="#4A4A4F"/>
</svg>
