<svg width="32" height="32" viewBox="0 0 32 32" fill="none" xmlns="http://www.w3.org/2000/svg">
<path d="M6.73989 4.32741C6.65207 4.22842 6.54547 4.14784 6.42629 4.09035C6.3071 4.03286 6.17768 3.99959 6.04554 3.99248C5.9134 3.98538 5.78117 4.00456 5.6565 4.04894C5.53183 4.09331 5.41721 4.16199 5.31927 4.25099C5.22134 4.33999 5.14205 4.44754 5.08599 4.56741C5.02993 4.68728 4.99822 4.81708 4.99269 4.9493C4.98717 5.08151 5.00794 5.21351 5.05381 5.33764C5.09967 5.46176 5.16972 5.57556 5.25989 5.67241L8.42114 9.14991C7.07178 9.45185 5.81347 10.0701 4.74989 10.9537C4.53104 11.1296 4.35171 11.3497 4.22356 11.5996C4.09541 11.8495 4.02132 12.1235 4.00611 12.4039C3.9909 12.6843 4.03491 12.9648 4.13527 13.2271C4.23564 13.4894 4.39011 13.7275 4.58864 13.9262L10.6249 19.9637L5.29239 25.2924C5.10475 25.4801 4.99933 25.7345 4.99933 25.9999C4.99933 26.2653 5.10475 26.5198 5.29239 26.7074C5.48003 26.8951 5.73452 27.0005 5.99989 27.0005C6.26525 27.0005 6.51974 26.8951 6.70739 26.7074L12.0361 21.3749L18.0724 27.4112C18.258 27.5975 18.4784 27.7454 18.7213 27.8465C18.9641 27.9475 19.2244 27.9996 19.4874 27.9999C19.5349 27.9999 19.5811 27.9999 19.6286 27.9999C19.9137 27.9802 20.1912 27.8993 20.4423 27.7627C20.6934 27.6262 20.9121 27.4372 21.0836 27.2087C21.6744 26.4307 22.161 25.5789 22.5311 24.6749L25.2611 27.6749C25.349 27.7739 25.4555 27.8545 25.5747 27.912C25.6939 27.9695 25.8233 28.0027 25.9555 28.0098C26.0876 28.017 26.2199 27.9978 26.3445 27.9534C26.4692 27.909 26.5838 27.8403 26.6817 27.7513C26.7797 27.6623 26.859 27.5548 26.915 27.4349C26.9711 27.3151 27.0028 27.1852 27.0083 27.053C27.0139 26.9208 26.9931 26.7888 26.9472 26.6647C26.9013 26.5406 26.8313 26.4268 26.7411 26.3299L6.73989 4.32741ZM19.4874 25.9999L5.99989 12.5099C7.27864 11.4787 8.64989 10.9649 10.0824 10.9762L20.9774 22.9612C20.6986 24.1949 20.0299 25.2787 19.4874 25.9999ZM29.4149 12.9999L23.8349 18.5987C23.7421 18.6917 23.632 18.7655 23.5107 18.8159C23.3894 18.8663 23.2594 18.8924 23.1281 18.8925C22.9967 18.8927 22.8667 18.867 22.7453 18.8169C22.6239 18.7668 22.5135 18.6933 22.4205 18.6005C22.3275 18.5078 22.2537 18.3976 22.2033 18.2764C22.1529 18.1551 22.1268 18.0251 22.1266 17.8937C22.1265 17.7624 22.1522 17.6323 22.2023 17.5109C22.2524 17.3895 22.3259 17.2792 22.4186 17.1862L27.9999 11.5874L20.4149 3.99991L15.2624 9.16866C15.0736 9.34864 14.8221 9.44775 14.5613 9.44488C14.3005 9.44202 14.0512 9.33738 13.8664 9.1533C13.6817 8.96922 13.5762 8.72025 13.5724 8.45949C13.5686 8.19872 13.6668 7.94679 13.8461 7.75741L18.9999 2.58741C19.1856 2.40165 19.4061 2.25429 19.6488 2.15375C19.8915 2.05321 20.1516 2.00146 20.4143 2.00146C20.6769 2.00146 20.9371 2.05321 21.1797 2.15375C21.4224 2.25429 21.6429 2.40165 21.8286 2.58741L29.4149 10.1724C29.7897 10.5474 30.0002 11.056 30.0002 11.5862C30.0002 12.1164 29.7897 12.6249 29.4149 12.9999Z" fill="#4A4A4F"/>
</svg>
