<svg width="32" height="32" viewBox="0 0 32 32" fill="none" xmlns="http://www.w3.org/2000/svg">
<path d="M26.7411 26.3277C26.8313 26.4245 26.9013 26.5383 26.9472 26.6625C26.993 26.7866 27.0138 26.9186 27.0083 27.0508C27.0028 27.183 26.9711 27.3128 26.915 27.4327C26.8589 27.5526 26.7796 27.6601 26.6817 27.7491C26.5838 27.8381 26.4692 27.9068 26.3445 27.9512C26.2198 27.9955 26.0876 28.0147 25.9554 28.0076C25.8233 28.0005 25.6939 27.9672 25.5747 27.9097C25.4555 27.8523 25.3489 27.7717 25.2611 27.6727L22.5311 24.6727C22.161 25.5767 21.6743 26.4285 21.0836 27.2064C20.9119 27.4359 20.6927 27.6257 20.4409 27.7626C20.1892 27.8996 19.9108 27.9807 19.6248 28.0002C19.5773 28.0002 19.5311 28.0002 19.4836 28.0002C19.2208 28.0002 18.9605 27.9485 18.7178 27.8479C18.475 27.7473 18.2544 27.5998 18.0686 27.4139L12.0361 21.3752L6.70735 26.7077C6.51971 26.8953 6.26521 27.0007 5.99985 27.0007C5.73448 27.0007 5.47999 26.8953 5.29235 26.7077C5.10471 26.52 4.99929 26.2656 4.99929 26.0002C4.99929 25.7348 5.10471 25.4803 5.29235 25.2927L10.6248 19.9639L4.58735 13.9264C4.3889 13.7277 4.23451 13.4895 4.13425 13.2272C4.03399 12.9648 3.99009 12.6843 4.00542 12.4039C4.02075 12.1235 4.09496 11.8495 4.22322 11.5997C4.35148 11.3498 4.53092 11.1298 4.74985 10.9539C5.81343 10.0704 7.07174 9.45212 8.4211 9.15019L5.25985 5.67269C5.16968 5.57583 5.09963 5.46204 5.05377 5.33791C5.0079 5.21378 4.98713 5.08178 4.99265 4.94957C4.99818 4.81735 5.02989 4.68755 5.08595 4.56768C5.14201 4.44781 5.2213 4.34026 5.31923 4.25126C5.41717 4.16226 5.53179 4.09358 5.65646 4.04921C5.78113 4.00484 5.91336 3.98565 6.0455 3.99276C6.17764 3.99987 6.30706 4.03313 6.42625 4.09062C6.54544 4.14812 6.65203 4.22869 6.73985 4.32769L22.7873 21.9789L26.7411 26.3277ZM29.4148 10.1714L21.8286 2.58644C21.6429 2.40067 21.4224 2.25331 21.1797 2.15277C20.937 2.05223 20.6769 2.00049 20.4142 2.00049C20.1515 2.00049 19.8914 2.05223 19.6487 2.15277C19.4061 2.25331 19.1856 2.40067 18.9998 2.58644L13.8461 7.75769C13.666 7.93938 13.5624 8.18319 13.5566 8.43896C13.5507 8.69473 13.6432 8.943 13.8148 9.13269L22.3861 18.5614C22.4772 18.6618 22.5879 18.7426 22.7112 18.7989C22.8345 18.8552 22.968 18.8858 23.1036 18.8889H23.1248C23.2563 18.8889 23.3864 18.8629 23.5078 18.8125C23.6292 18.7621 23.7395 18.6882 23.8323 18.5952L29.4148 13.0002C29.6006 12.8145 29.748 12.594 29.8485 12.3513C29.949 12.1086 30.0008 11.8485 30.0008 11.5858C30.0008 11.3231 29.949 11.063 29.8485 10.8203C29.748 10.5777 29.6006 10.3572 29.4148 10.1714Z" fill="#4A4A4F"/>
</svg>
