<svg width="32" height="32" viewBox="0 0 32 32" fill="none" xmlns="http://www.w3.org/2000/svg">
<path d="M26.6725 27.7401C26.4762 27.9184 26.2172 28.0115 25.9523 27.9988C25.6874 27.9862 25.4384 27.8688 25.26 27.6726L21.0125 23.0001H17V30.0001C17 30.2653 16.8946 30.5197 16.7071 30.7072C16.5196 30.8947 16.2652 31.0001 16 31.0001C15.7348 31.0001 15.4804 30.8947 15.2929 30.7072C15.1054 30.5197 15 30.2653 15 30.0001V23.0001H5C4.73478 23.0001 4.48043 22.8947 4.29289 22.7072C4.10536 22.5197 4 22.2653 4 22.0001C4 21.7349 4.10536 21.4805 4.29289 21.293C4.48043 21.1054 4.73478 21.0001 5 21.0001H6.16125L8.28 9.00008L5.26 5.67258C5.16983 5.57573 5.09979 5.46194 5.05392 5.33781C5.00806 5.21368 4.98728 5.08168 4.99281 4.94947C4.99833 4.81725 5.03004 4.68745 5.0861 4.56758C5.14216 4.44771 5.22146 4.34016 5.31939 4.25116C5.41732 4.16216 5.53194 4.09348 5.65661 4.04911C5.78128 4.00473 5.91352 3.98555 6.04566 3.99265C6.1778 3.99976 6.30721 4.03303 6.4264 4.09052C6.54559 4.14801 6.65218 4.22859 6.74 4.32758L26.74 26.3276C26.9183 26.5239 27.0114 26.7829 26.9988 27.0478C26.9861 27.3127 26.8687 27.5617 26.6725 27.7401ZM23.8125 20.1338C23.9584 20.2937 24.1522 20.402 24.3649 20.4423C24.5776 20.4826 24.7976 20.4528 24.9919 20.3574C25.1862 20.2621 25.3443 20.1062 25.4424 19.9133C25.5406 19.7204 25.5735 19.5008 25.5362 19.2876L23.1925 6.00008H24C24.2652 6.00008 24.5196 5.89473 24.7071 5.70719C24.8946 5.51965 25 5.2653 25 5.00008C25 4.73487 24.8946 4.48051 24.7071 4.29298C24.5196 4.10544 24.2652 4.00008 24 4.00008H11.4062C11.2125 4.0001 11.023 4.05638 10.8607 4.16207C10.6984 4.26777 10.5702 4.41833 10.4919 4.59547C10.4135 4.77261 10.3882 4.96869 10.4192 5.15991C10.4502 5.35112 10.536 5.52923 10.6663 5.67258L23.8125 20.1338Z" fill="#4A4A4F"/>
</svg>
