<svg width="32" height="32" viewBox="0 0 32 32" fill="none" xmlns="http://www.w3.org/2000/svg">
<path d="M27.5336 19.8174C27.391 19.7274 27.228 19.675 27.0598 19.6649C26.8915 19.6549 26.7234 19.6875 26.5711 19.7599C26.1901 19.9401 25.7697 20.021 25.3489 19.9952C24.9282 19.9693 24.5209 19.8375 24.1648 19.612C23.8087 19.3865 23.5154 19.0746 23.3121 18.7053C23.1089 18.336 23.0023 17.9214 23.0023 17.4999C23.0023 17.0784 23.1089 16.6637 23.3121 16.2944C23.5154 15.9251 23.8087 15.6133 24.1648 15.3877C24.5209 15.1622 24.9282 15.0304 25.3489 15.0046C25.7697 14.9787 26.1901 15.0597 26.5711 15.2399C26.7236 15.3122 26.8919 15.3448 27.0603 15.3346C27.2287 15.3244 27.3918 15.2718 27.5345 15.1816C27.6771 15.0913 27.7945 14.9665 27.8759 14.8187C27.9573 14.6709 27.9999 14.5049 27.9999 14.3361V8.99986C27.9999 8.46943 27.7892 7.96072 27.4141 7.58565C27.039 7.21057 26.5303 6.99986 25.9999 6.99986H21.4724C21.491 6.83385 21.5002 6.66691 21.4999 6.49986C21.499 5.88526 21.3725 5.27733 21.1284 4.71332C20.8842 4.14931 20.5274 3.64111 20.0799 3.21986C19.4602 2.63787 18.6884 2.24332 17.8537 2.08188C17.0191 1.92045 16.1558 1.99874 15.3638 2.30768C14.5718 2.61663 13.8835 3.1436 13.3787 3.82756C12.8738 4.51152 12.573 5.3245 12.5111 6.17236C12.4919 6.44815 12.4978 6.72512 12.5286 6.99986H7.99988C7.46944 6.99986 6.96074 7.21057 6.58566 7.58565C6.21059 7.96072 5.99988 8.46943 5.99988 8.99986V13.0274C5.83386 13.0088 5.66693 12.9996 5.49988 12.9999C4.88529 13.0009 4.27738 13.1273 3.71338 13.3715C3.14938 13.6156 2.64117 13.9724 2.21988 14.4199C1.79556 14.8681 1.46884 15.3994 1.26035 15.9803C1.05187 16.5613 0.966152 17.1791 1.00863 17.7949C1.08029 18.8791 1.54097 19.901 2.30597 20.6726C3.07096 21.4443 4.08882 21.9138 5.17238 21.9949C5.44816 22.0147 5.72518 22.0088 5.99988 21.9774V25.9999C5.99988 26.5303 6.21059 27.039 6.58566 27.4141C6.96074 27.7891 7.46944 27.9999 7.99988 27.9999H25.9999C26.5303 27.9999 27.039 27.7891 27.4141 27.4141C27.7892 27.039 27.9999 26.5303 27.9999 25.9999V20.6636C28 20.4947 27.9573 20.3284 27.8757 20.1804C27.7942 20.0325 27.6765 19.9075 27.5336 19.8174ZM25.9999 25.9999H7.99988V20.6636C7.99993 20.4949 7.95729 20.3288 7.87591 20.181C7.79453 20.0332 7.67706 19.9084 7.53445 19.8182C7.39184 19.728 7.22873 19.6753 7.06029 19.6651C6.89185 19.6549 6.72358 19.6875 6.57113 19.7599C6.19008 19.9401 5.76966 20.021 5.34895 19.9952C4.92823 19.9693 4.52089 19.8375 4.16478 19.612C3.80867 19.3865 3.51536 19.0746 3.31211 18.7053C3.10887 18.336 3.0023 17.9214 3.0023 17.4999C3.0023 17.0784 3.10887 16.6637 3.31211 16.2944C3.51536 15.9251 3.80867 15.6133 4.16478 15.3877C4.52089 15.1622 4.92823 15.0304 5.34895 15.0046C5.76966 14.9787 6.19008 15.0597 6.57113 15.2399C6.72358 15.3122 6.89185 15.3448 7.06029 15.3346C7.22873 15.3244 7.39184 15.2718 7.53445 15.1816C7.67706 15.0913 7.79453 14.9665 7.87591 14.8187C7.95729 14.6709 7.99993 14.5049 7.99988 14.3361V8.99986H13.8361C14.0049 8.99992 14.1709 8.95727 14.3187 8.87589C14.4665 8.79451 14.5914 8.67705 14.6816 8.53444C14.7718 8.39183 14.8244 8.22871 14.8346 8.06027C14.8448 7.89184 14.8122 7.72356 14.7399 7.57111C14.5597 7.19007 14.4787 6.76964 14.5046 6.34893C14.5304 5.92822 14.6622 5.52087 14.8878 5.16476C15.1133 4.80865 15.4252 4.51534 15.7944 4.3121C16.1637 4.10885 16.5784 4.00228 16.9999 4.00228C17.4214 4.00228 17.8361 4.10885 18.2053 4.3121C18.5746 4.51534 18.8865 4.80865 19.112 5.16476C19.3375 5.52087 19.4693 5.92822 19.4952 6.34893C19.521 6.76964 19.4401 7.19007 19.2599 7.57111C19.1875 7.72356 19.1549 7.89184 19.1651 8.06027C19.1753 8.22871 19.228 8.39183 19.3182 8.53444C19.4084 8.67705 19.5332 8.79451 19.681 8.87589C19.8289 8.95727 19.9949 8.99992 20.1636 8.99986H25.9999V13.0286C25.7252 12.9971 25.4482 12.9913 25.1724 13.0111C24.0085 13.0935 22.9222 13.6248 22.1425 14.4928C21.3628 15.3608 20.9507 16.4977 20.9932 17.6637C21.0357 18.8297 21.5294 19.9336 22.3702 20.7426C23.211 21.5516 24.3331 22.0024 25.4999 21.9999C25.6669 22.0002 25.8339 21.991 25.9999 21.9724V25.9999Z" fill="#4A4A4F"/>
</svg>
