<svg width="32" height="32" viewBox="0 0 32 32" fill="none" xmlns="http://www.w3.org/2000/svg">
<path d="M29.9999 9.00016V12.0002C29.9999 12.2654 29.8946 12.5197 29.7071 12.7073C29.5195 12.8948 29.2652 13.0002 28.9999 13.0002C28.7347 13.0002 28.4804 12.8948 28.2928 12.7073C28.1053 12.5197 27.9999 12.2654 27.9999 12.0002V10.0002H15.6937L9.9362 25.3514C9.86516 25.5428 9.73726 25.7078 9.56967 25.8244C9.40208 25.941 9.20283 26.0034 8.9987 26.0034C8.79456 26.0034 8.59532 25.941 8.42773 25.8244C8.26014 25.7078 8.13224 25.5428 8.0612 25.3514L2.0612 9.35141C2.01507 9.2283 1.99365 9.09731 1.99814 8.96591C2.00264 8.83452 2.03298 8.70529 2.08742 8.58562C2.14185 8.46595 2.21933 8.35817 2.31542 8.26844C2.41151 8.17871 2.52434 8.10879 2.64745 8.06266C2.77056 8.01654 2.90156 7.99511 3.03295 7.99961C3.16435 8.00411 3.29357 8.03444 3.41324 8.08888C3.53291 8.14332 3.64069 8.2208 3.73042 8.31689C3.82015 8.41298 3.89007 8.5258 3.9362 8.64891L8.99995 22.1527L14.0637 8.65266C14.1346 8.4614 14.2623 8.29638 14.4296 8.17975C14.597 8.06312 14.796 8.00046 14.9999 8.00016H28.9999C29.2652 8.00016 29.5195 8.10552 29.7071 8.29306C29.8946 8.48059 29.9999 8.73495 29.9999 9.00016Z" fill="#4A4A4F"/>
</svg>
