<svg width="32" height="32" viewBox="0 0 32 32" fill="none" xmlns="http://www.w3.org/2000/svg">
<path d="M3.00005 16.0001C3.0027 13.6139 3.95176 11.3263 5.63902 9.63903C7.32627 7.95178 9.61392 7.00271 12.0001 7.00007H25.5863L24.2926 5.70757C24.1049 5.51993 23.9995 5.26543 23.9995 5.00007C23.9995 4.7347 24.1049 4.48021 24.2926 4.29257C24.4802 4.10493 24.7347 3.99951 25.0001 3.99951C25.2654 3.99951 25.5199 4.10493 25.7076 4.29257L28.7076 7.29257C28.8005 7.38544 28.8743 7.49573 28.9246 7.61713C28.9749 7.73853 29.0008 7.86865 29.0008 8.00007C29.0008 8.13148 28.9749 8.26161 28.9246 8.38301C28.8743 8.50441 28.8005 8.6147 28.7076 8.70757L25.7076 11.7076C25.5199 11.8952 25.2654 12.0006 25.0001 12.0006C24.7347 12.0006 24.4802 11.8952 24.2926 11.7076C24.1049 11.5199 23.9995 11.2654 23.9995 11.0001C23.9995 10.7347 24.1049 10.4802 24.2926 10.2926L25.5863 9.00007H12.0001C10.1441 9.00205 8.36482 9.74019 7.0525 11.0525C5.74018 12.3648 5.00204 14.1442 5.00005 16.0001C5.00005 16.2653 4.8947 16.5196 4.70716 16.7072C4.51962 16.8947 4.26527 17.0001 4.00005 17.0001C3.73484 17.0001 3.48048 16.8947 3.29295 16.7072C3.10541 16.5196 3.00005 16.2653 3.00005 16.0001ZM28.0001 15.0001C27.7348 15.0001 27.4805 15.1054 27.2929 15.293C27.1054 15.4805 27.0001 15.7349 27.0001 16.0001C26.9981 17.856 26.2599 19.6353 24.9476 20.9476C23.6353 22.2599 21.856 22.9981 20.0001 23.0001H6.4138L7.70755 21.7076C7.80046 21.6147 7.87416 21.5044 7.92445 21.383C7.97473 21.2616 8.00061 21.1315 8.00061 21.0001C8.00061 20.8687 7.97473 20.7386 7.92445 20.6172C7.87416 20.4958 7.80046 20.3855 7.70755 20.2926C7.61464 20.1997 7.50434 20.126 7.38295 20.0757C7.26156 20.0254 7.13145 19.9995 7.00005 19.9995C6.86866 19.9995 6.73855 20.0254 6.61716 20.0757C6.49576 20.126 6.38546 20.1997 6.29255 20.2926L3.29255 23.2926C3.19958 23.3854 3.12582 23.4957 3.07549 23.6171C3.02517 23.7385 2.99927 23.8687 2.99927 24.0001C2.99927 24.1315 3.02517 24.2616 3.07549 24.383C3.12582 24.5044 3.19958 24.6147 3.29255 24.7076L6.29255 27.7076C6.38546 27.8005 6.49576 27.8742 6.61716 27.9245C6.73855 27.9747 6.86866 28.0006 7.00005 28.0006C7.13145 28.0006 7.26156 27.9747 7.38295 27.9245C7.50434 27.8742 7.61464 27.8005 7.70755 27.7076C7.80046 27.6147 7.87416 27.5044 7.92445 27.383C7.97473 27.2616 8.00061 27.1315 8.00061 27.0001C8.00061 26.8687 7.97473 26.7386 7.92445 26.6172C7.87416 26.4958 7.80046 26.3855 7.70755 26.2926L6.4138 25.0001H20.0001C22.3862 24.9974 24.6738 24.0484 26.3611 22.3611C28.0483 20.6739 28.9974 18.3862 29.0001 16.0001C29.0001 15.7349 28.8947 15.4805 28.7072 15.293C28.5196 15.1054 28.2653 15.0001 28.0001 15.0001Z" fill="#4A4A4F"/>
</svg>
