<svg width="32" height="32" viewBox="0 0 32 32" fill="none" xmlns="http://www.w3.org/2000/svg">
<path d="M16 3C13.4288 3 10.9154 3.76244 8.77759 5.1909C6.63975 6.61935 4.97351 8.64968 3.98957 11.0251C3.00563 13.4006 2.74819 16.0144 3.2498 18.5362C3.75141 21.0579 4.98953 23.3743 6.80762 25.1924C8.6257 27.0105 10.9421 28.2486 13.4638 28.7502C15.9856 29.2518 18.5995 28.9944 20.9749 28.0104C23.3503 27.0265 25.3807 25.3603 26.8091 23.2224C28.2376 21.0846 29 18.5712 29 16C28.9964 12.5533 27.6256 9.24882 25.1884 6.81163C22.7512 4.37445 19.4467 3.00364 16 3ZM22 19.5C22 19.6829 21.9497 19.8624 21.8548 20.0187C21.7598 20.1751 21.6238 20.3024 21.4615 20.3868C21.2993 20.4713 21.1169 20.5096 20.9344 20.4976C20.7518 20.4856 20.5761 20.4237 20.4263 20.3188L15.4263 16.8188C15.2947 16.7266 15.1872 16.604 15.113 16.4615C15.0388 16.319 15.0001 16.1607 15 16V19.5C15 19.6829 14.9497 19.8624 14.8548 20.0187C14.7598 20.1751 14.6238 20.3024 14.4615 20.3868C14.2993 20.4713 14.1169 20.5096 13.9344 20.4976C13.7518 20.4856 13.5761 20.4237 13.4263 20.3188L8.42626 16.8188C8.29473 16.7265 8.18736 16.604 8.11323 16.4614C8.03911 16.3189 8.00041 16.1606 8.00041 16C8.00041 15.8394 8.03911 15.6811 8.11323 15.5386C8.18736 15.396 8.29473 15.2735 8.42626 15.1812L13.4263 11.6812C13.5761 11.5763 13.7518 11.5144 13.9344 11.5024C14.1169 11.4904 14.2993 11.5287 14.4615 11.6132C14.6238 11.6976 14.7598 11.8249 14.8548 11.9813C14.9497 12.1377 15 12.3171 15 12.5V16C15.0001 15.8393 15.0388 15.681 15.113 15.5385C15.1872 15.396 15.2947 15.2734 15.4263 15.1812L20.4263 11.6812C20.5761 11.5763 20.7518 11.5144 20.9344 11.5024C21.1169 11.4904 21.2993 11.5287 21.4615 11.6132C21.6238 11.6976 21.7598 11.8249 21.8548 11.9813C21.9497 12.1377 22 12.3171 22 12.5V19.5Z" fill="#4A4A4F"/>
</svg>
