<svg width="32" height="32" viewBox="0 0 32 32" fill="none" xmlns="http://www.w3.org/2000/svg">
<path d="M28.2325 12.8525C27.7612 12.36 27.2738 11.8525 27.09 11.4062C26.92 10.9975 26.91 10.32 26.9 9.66375C26.8813 8.44375 26.8612 7.06125 25.9 6.1C24.9387 5.13875 23.5562 5.11875 22.3363 5.1C21.68 5.09 21.0025 5.08 20.5938 4.91C20.1488 4.72625 19.64 4.23875 19.1475 3.7675C18.285 2.93875 17.305 2 16 2C14.695 2 13.7162 2.93875 12.8525 3.7675C12.36 4.23875 11.8525 4.72625 11.4062 4.91C11 5.08 10.32 5.09 9.66375 5.1C8.44375 5.11875 7.06125 5.13875 6.1 6.1C5.13875 7.06125 5.125 8.44375 5.1 9.66375C5.09 10.32 5.08 10.9975 4.91 11.4062C4.72625 11.8512 4.23875 12.36 3.7675 12.8525C2.93875 13.715 2 14.695 2 16C2 17.305 2.93875 18.2837 3.7675 19.1475C4.23875 19.64 4.72625 20.1475 4.91 20.5938C5.08 21.0025 5.09 21.68 5.1 22.3363C5.11875 23.5562 5.13875 24.9387 6.1 25.9C7.06125 26.8612 8.44375 26.8813 9.66375 26.9C10.32 26.91 10.9975 26.92 11.4062 27.09C11.8512 27.2738 12.36 27.7612 12.8525 28.2325C13.715 29.0613 14.695 30 16 30C17.305 30 18.2837 29.0613 19.1475 28.2325C19.64 27.7612 20.1475 27.2738 20.5938 27.09C21.0025 26.92 21.68 26.91 22.3363 26.9C23.5562 26.8813 24.9387 26.8612 25.9 25.9C26.8612 24.9387 26.8813 23.5562 26.9 22.3363C26.91 21.68 26.92 21.0025 27.09 20.5938C27.2738 20.1488 27.7612 19.64 28.2325 19.1475C29.0613 18.285 30 17.305 30 16C30 14.695 29.0613 13.7162 28.2325 12.8525ZM15 10C15 9.73478 15.1054 9.48043 15.2929 9.29289C15.4804 9.10536 15.7348 9 16 9C16.2652 9 16.5196 9.10536 16.7071 9.29289C16.8946 9.48043 17 9.73478 17 10V17C17 17.2652 16.8946 17.5196 16.7071 17.7071C16.5196 17.8946 16.2652 18 16 18C15.7348 18 15.4804 17.8946 15.2929 17.7071C15.1054 17.5196 15 17.2652 15 17V10ZM16 23C15.7033 23 15.4133 22.912 15.1666 22.7472C14.92 22.5824 14.7277 22.3481 14.6142 22.074C14.5006 21.7999 14.4709 21.4983 14.5288 21.2074C14.5867 20.9164 14.7296 20.6491 14.9393 20.4393C15.1491 20.2296 15.4164 20.0867 15.7074 20.0288C15.9983 19.9709 16.2999 20.0007 16.574 20.1142C16.8481 20.2277 17.0824 20.42 17.2472 20.6666C17.412 20.9133 17.5 21.2033 17.5 21.5C17.5 21.8978 17.342 22.2794 17.0607 22.5607C16.7794 22.842 16.3978 23 16 23Z" fill="#4A4A4F"/>
</svg>
