<svg width="32" height="32" viewBox="0 0 32 32" fill="none" xmlns="http://www.w3.org/2000/svg">
<path d="M28.2325 12.8525C27.7612 12.36 27.2738 11.8525 27.09 11.4062C26.92 10.9975 26.91 10.32 26.9 9.66375C26.8813 8.44375 26.8612 7.06125 25.9 6.1C24.9387 5.13875 23.5562 5.11875 22.3363 5.1C21.68 5.09 21.0025 5.08 20.5938 4.91C20.1488 4.72625 19.64 4.23875 19.1475 3.7675C18.285 2.93875 17.305 2 16 2C14.695 2 13.7162 2.93875 12.8525 3.7675C12.36 4.23875 11.8525 4.72625 11.4062 4.91C11 5.08 10.32 5.09 9.66375 5.1C8.44375 5.11875 7.06125 5.13875 6.1 6.1C5.13875 7.06125 5.125 8.44375 5.1 9.66375C5.09 10.32 5.08 10.9975 4.91 11.4062C4.72625 11.8512 4.23875 12.36 3.7675 12.8525C2.93875 13.715 2 14.695 2 16C2 17.305 2.93875 18.2837 3.7675 19.1475C4.23875 19.64 4.72625 20.1475 4.91 20.5938C5.08 21.0025 5.09 21.68 5.1 22.3363C5.11875 23.5562 5.13875 24.9387 6.1 25.9C7.06125 26.8612 8.44375 26.8813 9.66375 26.9C10.32 26.91 10.9975 26.92 11.4062 27.09C11.8512 27.2738 12.36 27.7612 12.8525 28.2325C13.715 29.0613 14.695 30 16 30C17.305 30 18.2837 29.0613 19.1475 28.2325C19.64 27.7612 20.1475 27.2738 20.5938 27.09C21.0025 26.92 21.68 26.91 22.3363 26.9C23.5562 26.8813 24.9387 26.8612 25.9 25.9C26.8612 24.9387 26.8813 23.5562 26.9 22.3363C26.91 21.68 26.92 21.0025 27.09 20.5938C27.2738 20.1488 27.7612 19.64 28.2325 19.1475C29.0613 18.285 30 17.305 30 16C30 14.695 29.0613 13.7162 28.2325 12.8525ZM16 24C15.7033 24 15.4133 23.912 15.1666 23.7472C14.92 23.5824 14.7277 23.3481 14.6142 23.074C14.5006 22.7999 14.4709 22.4983 14.5288 22.2074C14.5867 21.9164 14.7296 21.6491 14.9393 21.4393C15.1491 21.2296 15.4164 21.0867 15.7074 21.0288C15.9983 20.9709 16.2999 21.0007 16.574 21.1142C16.8481 21.2277 17.0824 21.42 17.2472 21.6666C17.412 21.9133 17.5 22.2033 17.5 22.5C17.5 22.8978 17.342 23.2794 17.0607 23.5607C16.7794 23.842 16.3978 24 16 24ZM17 17.91V18C17 18.2652 16.8946 18.5196 16.7071 18.7071C16.5196 18.8946 16.2652 19 16 19C15.7348 19 15.4804 18.8946 15.2929 18.7071C15.1054 18.5196 15 18.2652 15 18V17C15 16.7348 15.1054 16.4804 15.2929 16.2929C15.4804 16.1054 15.7348 16 16 16C17.6537 16 19 14.875 19 13.5C19 12.125 17.6537 11 16 11C14.3463 11 13 12.125 13 13.5V14C13 14.2652 12.8946 14.5196 12.7071 14.7071C12.5196 14.8946 12.2652 15 12 15C11.7348 15 11.4804 14.8946 11.2929 14.7071C11.1054 14.5196 11 14.2652 11 14V13.5C11 11.0188 13.2425 9 16 9C18.7575 9 21 11.0188 21 13.5C21 15.6725 19.28 17.4913 17 17.91Z" fill="#4A4A4F"/>
</svg>
