<svg width="32" height="32" viewBox="0 0 32 32" fill="none" xmlns="http://www.w3.org/2000/svg">
<path d="M26 4H6C5.46957 4 4.96086 4.21071 4.58579 4.58579C4.21071 4.96086 4 5.46957 4 6V26C4 26.5304 4.21071 27.0391 4.58579 27.4142C4.96086 27.7893 5.46957 28 6 28H26C26.5304 28 27.0391 27.7893 27.4142 27.4142C27.7893 27.0391 28 26.5304 28 26V6C28 5.46957 27.7893 4.96086 27.4142 4.58579C27.0391 4.21071 26.5304 4 26 4ZM11 25H9C8.46957 25 7.96086 24.7893 7.58579 24.4142C7.21071 24.0391 7 23.5304 7 23V21C7 20.7348 7.10536 20.4804 7.29289 20.2929C7.48043 20.1054 7.73478 20 8 20C8.26522 20 8.51957 20.1054 8.70711 20.2929C8.89464 20.4804 9 20.7348 9 21V23H11C11.2652 23 11.5196 23.1054 11.7071 23.2929C11.8946 23.4804 12 23.7348 12 24C12 24.2652 11.8946 24.5196 11.7071 24.7071C11.5196 24.8946 11.2652 25 11 25ZM11 14H9V16C9 16.2652 8.89464 16.5196 8.70711 16.7071C8.51957 16.8946 8.26522 17 8 17C7.73478 17 7.48043 16.8946 7.29289 16.7071C7.10536 16.5196 7 16.2652 7 16V14C7 13.4696 7.21071 12.9609 7.58579 12.5858C7.96086 12.2107 8.46957 12 9 12H11C11.2652 12 11.5196 12.1054 11.7071 12.2929C11.8946 12.4804 12 12.7348 12 13C12 13.2652 11.8946 13.5196 11.7071 13.7071C11.5196 13.8946 11.2652 14 11 14ZM20 23C20 23.5304 19.7893 24.0391 19.4142 24.4142C19.0391 24.7893 18.5304 25 18 25H16C15.7348 25 15.4804 24.8946 15.2929 24.7071C15.1054 24.5196 15 24.2652 15 24C15 23.7348 15.1054 23.4804 15.2929 23.2929C15.4804 23.1054 15.7348 23 16 23H18V21C18 20.7348 18.1054 20.4804 18.2929 20.2929C18.4804 20.1054 18.7348 20 19 20C19.2652 20 19.5196 20.1054 19.7071 20.2929C19.8946 20.4804 20 20.7348 20 21V23ZM20 16C20 16.2652 19.8946 16.5196 19.7071 16.7071C19.5196 16.8946 19.2652 17 19 17C18.7348 17 18.4804 16.8946 18.2929 16.7071C18.1054 16.5196 18 16.2652 18 16V14H16C15.7348 14 15.4804 13.8946 15.2929 13.7071C15.1054 13.5196 15 13.2652 15 13C15 12.7348 15.1054 12.4804 15.2929 12.2929C15.4804 12.1054 15.7348 12 16 12H18C18.5304 12 19.0391 12.2107 19.4142 12.5858C19.7893 12.9609 20 13.4696 20 14V16ZM25 18C25 18.5304 24.7893 19.0391 24.4142 19.4142C24.0391 19.7893 23.5304 20 23 20C22.7348 20 22.4804 19.8946 22.2929 19.7071C22.1054 19.5196 22 19.2652 22 19C22 18.7348 22.1054 18.4804 22.2929 18.2929C22.4804 18.1054 22.7348 18 23 18V9H14C14 9.26522 13.8946 9.51957 13.7071 9.70711C13.5196 9.89464 13.2652 10 13 10C12.7348 10 12.4804 9.89464 12.2929 9.70711C12.1054 9.51957 12 9.26522 12 9C12 8.46957 12.2107 7.96086 12.5858 7.58579C12.9609 7.21071 13.4696 7 14 7H23C23.5304 7 24.0391 7.21071 24.4142 7.58579C24.7893 7.96086 25 8.46957 25 9V18Z" fill="#4A4A4F"/>
</svg>
