<svg width="32" height="32" viewBox="0 0 32 32" fill="none" xmlns="http://www.w3.org/2000/svg">
<path d="M13.9488 22.6838C13.9989 22.8341 14.0126 22.9942 13.9887 23.1508C13.9648 23.3075 13.904 23.4562 13.8114 23.5847C13.7187 23.7133 13.5968 23.818 13.4558 23.8902C13.3147 23.9624 13.1585 24 13.0001 24H3.00007C2.84161 24 2.68542 23.9624 2.54436 23.8902C2.40331 23.818 2.28143 23.7133 2.18877 23.5847C2.09612 23.4562 2.03533 23.3075 2.01144 23.1508C1.98754 22.9942 2.00121 22.8341 2.05132 22.6838L7.05132 7.68375C7.11766 7.48459 7.245 7.31136 7.41528 7.1886C7.58556 7.06584 7.79016 6.99978 8.00007 6.99978C8.20999 6.99978 8.41459 7.06584 8.58487 7.1886C8.75515 7.31136 8.88248 7.48459 8.94882 7.68375L13.9488 22.6838ZM26.0001 9.5C26.0001 8.21442 25.6189 6.95772 24.9046 5.8888C24.1904 4.81988 23.1752 3.98676 21.9875 3.49479C20.7998 3.00282 19.4929 2.87409 18.232 3.1249C16.9711 3.3757 15.8129 3.99477 14.9039 4.90381C13.9948 5.81285 13.3758 6.97104 13.125 8.23192C12.8742 9.49279 13.0029 10.7997 13.4949 11.9874C13.9868 13.1752 14.8199 14.1903 15.8889 14.9046C16.9578 15.6188 18.2145 16 19.5001 16C21.2234 15.998 22.8755 15.3126 24.0941 14.094C25.3126 12.8754 25.9981 11.2233 26.0001 9.5ZM28.0001 18H17.0001C16.7349 18 16.4805 18.1054 16.293 18.2929C16.1054 18.4804 16.0001 18.7348 16.0001 19V26C16.0001 26.2652 16.1054 26.5196 16.293 26.7071C16.4805 26.8946 16.7349 27 17.0001 27H28.0001C28.2653 27 28.5196 26.8946 28.7072 26.7071C28.8947 26.5196 29.0001 26.2652 29.0001 26V19C29.0001 18.7348 28.8947 18.4804 28.7072 18.2929C28.5196 18.1054 28.2653 18 28.0001 18Z" fill="#4A4A4F"/>
</svg>
