<svg width="32" height="32" viewBox="0 0 32 32" fill="none" xmlns="http://www.w3.org/2000/svg">
<path d="M29.7074 13.2938L19.7074 3.29378C19.5676 3.15384 19.3895 3.0585 19.1955 3.01981C19.0016 2.98112 18.8005 3.00082 18.6177 3.07641C18.4349 3.15201 18.2787 3.28011 18.1687 3.44451C18.0588 3.60892 18 3.80224 17.9999 4.00003V9.04378C14.7574 9.32128 11.1762 10.9088 8.22992 13.4075C4.68242 16.4175 2.47367 20.2963 2.00992 24.3288C1.97368 24.6423 2.03725 24.9592 2.19158 25.2345C2.34591 25.5098 2.58313 25.7294 2.86949 25.8621C3.15586 25.9947 3.47677 26.0337 3.78655 25.9734C4.09634 25.9131 4.37921 25.7566 4.59492 25.5263C5.96992 24.0625 10.8624 19.4338 17.9999 19.0263V24C18 24.1978 18.0588 24.3911 18.1687 24.5555C18.2787 24.7199 18.4349 24.848 18.6177 24.9236C18.8005 24.9992 19.0016 25.0189 19.1955 24.9802C19.3895 24.9416 19.5676 24.8462 19.7074 24.7063L29.7074 14.7063C29.8944 14.5188 29.9995 14.2648 29.9995 14C29.9995 13.7352 29.8944 13.4812 29.7074 13.2938ZM19.9999 21.5863V18C19.9999 17.7348 19.8946 17.4805 19.707 17.2929C19.5195 17.1054 19.2651 17 18.9999 17C15.4899 17 12.0712 17.9163 8.83867 19.725C7.19235 20.6503 5.65844 21.7627 4.26742 23.04C4.99242 20.06 6.81992 17.2263 9.52367 14.9325C12.4262 12.4713 15.9687 11 18.9999 11C19.2651 11 19.5195 10.8947 19.707 10.7071C19.8946 10.5196 19.9999 10.2652 19.9999 10V6.41503L27.5862 14L19.9999 21.5863Z" fill="#4A4A4F"/>
</svg>
