<svg width="32" height="32" viewBox="0 0 32 32" fill="none" xmlns="http://www.w3.org/2000/svg">
<path d="M28.7075 13.7076L22.7075 19.7076C22.5199 19.8952 22.2654 20.0006 22 20.0006C21.7346 20.0006 21.4801 19.8952 21.2925 19.7076C21.1049 19.5199 20.9994 19.2654 20.9994 19.0001C20.9994 18.7347 21.1049 18.4802 21.2925 18.2926L25.5863 14.0001H20.625C18.1858 13.9994 15.8156 14.8095 13.8871 16.3029C11.9585 17.7963 10.581 19.8883 9.97125 22.2501C9.90495 22.507 9.73929 22.7271 9.51073 22.8619C9.28217 22.9966 9.00943 23.0351 8.7525 22.9688C8.49557 22.9025 8.27551 22.7369 8.14071 22.5083C8.00592 22.2797 7.96745 22.007 8.03375 21.7501C8.75327 18.9582 10.3809 16.485 12.6605 14.7199C14.94 12.9547 17.7419 11.9979 20.625 12.0001H25.5888L21.2925 7.70757C21.1996 7.61466 21.1259 7.50436 21.0756 7.38296C21.0253 7.26157 20.9994 7.13146 20.9994 7.00007C20.9994 6.86867 21.0253 6.73856 21.0756 6.61717C21.1259 6.49578 21.1996 6.38548 21.2925 6.29257C21.4801 6.10493 21.7346 5.99951 22 5.99951C22.1314 5.99951 22.2615 6.02539 22.3829 6.07567C22.5043 6.12596 22.6146 6.19966 22.7075 6.29257L28.7075 12.2926C28.8005 12.3854 28.8742 12.4957 28.9246 12.6171C28.9749 12.7385 29.0008 12.8687 29.0008 13.0001C29.0008 13.1315 28.9749 13.2616 28.9246 13.383C28.8742 13.5044 28.8005 13.6147 28.7075 13.7076ZM24 26.0001H5V11.0001C5 10.7349 4.89464 10.4805 4.70711 10.293C4.51957 10.1054 4.26522 10.0001 4 10.0001C3.73478 10.0001 3.48043 10.1054 3.29289 10.293C3.10536 10.4805 3 10.7349 3 11.0001V26.0001C3 26.5305 3.21071 27.0392 3.58579 27.4143C3.96086 27.7894 4.46957 28.0001 5 28.0001H24C24.2652 28.0001 24.5196 27.8947 24.7071 27.7072C24.8946 27.5196 25 27.2653 25 27.0001C25 26.7349 24.8946 26.4805 24.7071 26.293C24.5196 26.1054 24.2652 26.0001 24 26.0001Z" fill="#4A4A4F"/>
</svg>
