<svg width="32" height="32" viewBox="0 0 32 32" fill="none" xmlns="http://www.w3.org/2000/svg">
<path d="M29.7074 14.7073L19.7074 24.7073C19.5676 24.8473 19.3893 24.9427 19.1952 24.9813C19.0011 25.02 18.8 25.0002 18.6171 24.9244C18.4343 24.8487 18.2781 24.7204 18.1682 24.5558C18.0583 24.3912 17.9998 24.1977 17.9999 23.9998V19.0286C10.8624 19.4336 5.96867 24.0623 4.59492 25.5286C4.37921 25.7589 4.09634 25.9154 3.78655 25.9757C3.47677 26.036 3.15586 25.997 2.86949 25.8644C2.58313 25.7317 2.34591 25.5121 2.19158 25.2368C2.03725 24.9615 1.97368 24.6446 2.00992 24.3311C2.47367 20.2986 4.68242 16.4198 8.22992 13.4098C11.1762 10.9098 14.7574 9.32356 17.9999 9.04606V3.99981C17.9998 3.80192 18.0583 3.60842 18.1682 3.44383C18.2781 3.27923 18.4343 3.15094 18.6171 3.07519C18.8 2.99944 19.0011 2.97963 19.1952 3.01828C19.3893 3.05693 19.5676 3.1523 19.7074 3.29231L29.7074 13.2923C29.8004 13.3852 29.8742 13.4955 29.9245 13.6169C29.9748 13.7383 30.0007 13.8684 30.0007 13.9998C30.0007 14.1312 29.9748 14.2614 29.9245 14.3828C29.8742 14.5041 29.8004 14.6144 29.7074 14.7073Z" fill="#4A4A4F"/>
</svg>
