<svg width="32" height="32" viewBox="0 0 32 32" fill="none" xmlns="http://www.w3.org/2000/svg">
<path d="M21.9998 20.0001C21.3327 19.9999 20.6724 20.1335 20.0579 20.3931C19.4434 20.6527 18.8872 21.0329 18.4223 21.5113L12.6598 17.8076C13.1131 16.6452 13.1131 15.355 12.6598 14.1926L18.4223 10.4888C19.2879 11.3755 20.4518 11.9092 21.6885 11.9864C22.9252 12.0636 24.1465 11.6789 25.1157 10.9068C26.0848 10.1347 26.7327 9.03025 26.9338 7.80758C27.1349 6.58492 26.8749 5.33113 26.2041 4.28931C25.5333 3.24749 24.4995 2.49186 23.3033 2.16891C22.107 1.84596 20.8334 1.97871 19.7295 2.54142C18.6255 3.10412 17.7698 4.0567 17.3283 5.21446C16.8868 6.37222 16.8909 7.65269 17.3398 8.8076L11.5773 12.5113C10.8834 11.7989 9.9928 11.3097 9.01936 11.106C8.04592 10.9024 7.03388 10.9937 6.11259 11.3682C5.19131 11.7428 4.40264 12.3835 3.84741 13.2086C3.29218 14.0337 2.99561 15.0056 2.99561 16.0001C2.99561 16.9946 3.29218 17.9665 3.84741 18.7916C4.40264 19.6167 5.19131 20.2574 6.11259 20.632C7.03388 21.0065 8.04592 21.0978 9.01936 20.8942C9.9928 20.6905 10.8834 20.2013 11.5773 19.4888L17.3398 23.1926C16.9538 24.1883 16.8967 25.2814 17.1768 26.3118C17.457 27.3423 18.0597 28.256 18.8967 28.9192C19.7337 29.5823 20.7611 29.9601 21.8283 29.9971C22.8955 30.0341 23.9466 29.7285 24.8276 29.125C25.7085 28.5214 26.3731 27.6517 26.724 26.6431C27.0749 25.6345 27.0937 24.5401 26.7776 23.5201C26.4615 22.5 25.8271 21.608 24.9674 20.9746C24.1076 20.3412 23.0677 19.9997 21.9998 20.0001ZM21.9998 4.0001C22.5932 4.0001 23.1732 4.17604 23.6665 4.50569C24.1599 4.83533 24.5444 5.30387 24.7715 5.85205C24.9985 6.40023 25.0579 7.00343 24.9422 7.58537C24.8264 8.16731 24.5407 8.70186 24.1211 9.12142C23.7016 9.54098 23.167 9.8267 22.5851 9.94245C22.0031 10.0582 21.3999 9.9988 20.8518 9.77174C20.3036 9.54467 19.835 9.16016 19.5054 8.66681C19.1758 8.17346 18.9998 7.59344 18.9998 7.0001C18.9998 6.20445 19.3159 5.44139 19.8785 4.87878C20.4411 4.31617 21.2042 4.0001 21.9998 4.0001ZM7.99981 19.0001C7.40647 19.0001 6.82645 18.8242 6.3331 18.4945C5.83975 18.1649 5.45524 17.6963 5.22817 17.1481C5.00111 16.6 4.9417 15.9968 5.05746 15.4148C5.17321 14.8329 5.45893 14.2983 5.87849 13.8788C6.29805 13.4592 6.8326 13.1735 7.41454 13.0577C7.99648 12.942 8.59968 13.0014 9.14786 13.2285C9.69604 13.4555 10.1646 13.84 10.4942 14.3334C10.8239 14.8267 10.9998 15.4068 10.9998 16.0001C10.9998 16.7957 10.6837 17.5588 10.1211 18.1214C9.55852 18.684 8.79546 19.0001 7.99981 19.0001ZM21.9998 28.0001C21.4065 28.0001 20.8265 27.8242 20.3331 27.4945C19.8398 27.1649 19.4552 26.6963 19.2282 26.1481C19.0011 25.6 18.9417 24.9968 19.0575 24.4148C19.1732 23.8329 19.4589 23.2983 19.8785 22.8788C20.298 22.4592 20.8326 22.1735 21.4145 22.0577C21.9965 21.942 22.5997 22.0014 23.1479 22.2285C23.696 22.4555 24.1646 22.84 24.4942 23.3334C24.8239 23.8267 24.9998 24.4068 24.9998 25.0001C24.9998 25.7957 24.6837 26.5588 24.1211 27.1214C23.5585 27.684 22.7955 28.0001 21.9998 28.0001Z" fill="#4A4A4F"/>
</svg>
