<svg width="32" height="32" viewBox="0 0 32 32" fill="none" xmlns="http://www.w3.org/2000/svg">
<path d="M29.9213 8.76233C29.8219 8.45205 29.6325 8.1783 29.3772 7.97579C29.122 7.77327 28.8123 7.65112 28.4876 7.62483L23.8351 7.23108L22.0201 2.99983C21.892 2.7032 21.6798 2.45055 21.4098 2.27306C21.1399 2.09556 20.8238 2.00098 20.5007 2.00098C20.1776 2.00098 19.8615 2.09556 19.5915 2.27306C19.3216 2.45055 19.1094 2.7032 18.9813 2.99983L17.1663 7.23233L12.5126 7.62483C12.1894 7.65079 11.8812 7.77186 11.6268 7.97278C11.3724 8.1737 11.1831 8.44547 11.083 8.7538C10.9829 9.06213 10.9763 9.39322 11.0641 9.70529C11.1519 10.0174 11.3301 10.2964 11.5763 10.5073L15.0963 13.5073L14.0426 17.9736C13.9685 18.2866 13.9882 18.6146 14.0994 18.9165C14.2106 19.2184 14.4082 19.4808 14.6676 19.6711C14.93 19.8638 15.2435 19.9749 15.5688 19.9905C15.894 20.0061 16.2167 19.9254 16.4963 19.7586L20.4963 17.3836L24.4963 19.7586C24.776 19.9254 25.0986 20.0061 25.4239 19.9905C25.7491 19.9749 26.0626 19.8638 26.3251 19.6711C26.5846 19.4809 26.7823 19.2185 26.8935 18.9166C27.0046 18.6146 27.0243 18.2866 26.9501 17.9736L25.8963 13.5073L29.4151 10.5073C29.6627 10.2993 29.843 10.0223 29.9331 9.7117C30.0233 9.40105 30.0192 9.07064 29.9213 8.76233ZM24.4388 12.1373C24.2085 12.3325 24.0368 12.5877 23.9428 12.8745C23.8488 13.1614 23.8362 13.4687 23.9063 13.7623L24.8201 17.6373L21.3476 15.5736C21.0913 15.4208 20.7984 15.3401 20.5001 15.3401C20.2017 15.3401 19.9089 15.4208 19.6526 15.5736L16.1801 17.6248L17.0938 13.7498C17.165 13.4564 17.153 13.1489 17.0592 12.8618C16.9653 12.5748 16.7934 12.3196 16.5626 12.1248L13.5301 9.54733L17.5413 9.20733C17.839 9.18236 18.1243 9.07677 18.3666 8.90192C18.6088 8.72706 18.7989 8.48953 18.9163 8.21483L20.5001 4.52983L22.0801 8.21483C22.1978 8.48937 22.3879 8.72675 22.6301 8.90158C22.8723 9.0764 23.1574 9.18209 23.4551 9.20733L27.4663 9.54733L24.4388 12.1373ZM10.7076 15.7073L3.70757 22.7073C3.51993 22.895 3.26543 23.0004 3.00007 23.0004C2.7347 23.0004 2.48021 22.895 2.29257 22.7073C2.10493 22.5197 1.99951 22.2652 1.99951 21.9998C1.99951 21.7345 2.10493 21.48 2.29257 21.2923L9.29257 14.2923C9.48021 14.1047 9.7347 13.9993 10.0001 13.9993C10.2654 13.9993 10.5199 14.1047 10.7076 14.2923C10.8952 14.48 11.0006 14.7345 11.0006 14.9998C11.0006 15.2652 10.8952 15.5197 10.7076 15.7073ZM12.7076 22.7073L5.70757 29.7073C5.61466 29.8002 5.50436 29.8739 5.38296 29.9242C5.26157 29.9745 5.13146 30.0004 5.00007 30.0004C4.86867 30.0004 4.73856 29.9745 4.61717 29.9242C4.49578 29.8739 4.38548 29.8002 4.29257 29.7073C4.19966 29.6144 4.12596 29.5041 4.07567 29.3827C4.02539 29.2613 3.99951 29.1312 3.99951 28.9998C3.99951 28.8684 4.02539 28.7383 4.07567 28.6169C4.12596 28.4955 4.19966 28.3852 4.29257 28.2923L11.2926 21.2923C11.4802 21.1047 11.7347 20.9993 12.0001 20.9993C12.2654 20.9993 12.5199 21.1047 12.7076 21.2923C12.8952 21.48 13.0006 21.7345 13.0006 21.9998C13.0006 22.2652 12.8952 22.5197 12.7076 22.7073ZM21.7076 21.2923C21.8005 21.3852 21.8743 21.4955 21.9246 21.6169C21.975 21.7383 22.0009 21.8684 22.0009 21.9998C22.0009 22.1312 21.975 22.2614 21.9246 22.3828C21.8743 22.5042 21.8005 22.6145 21.7076 22.7073L14.7076 29.7073C14.6147 29.8002 14.5044 29.8739 14.383 29.9242C14.2616 29.9745 14.1315 30.0004 14.0001 30.0004C13.8687 30.0004 13.7386 29.9745 13.6172 29.9242C13.4958 29.8739 13.3855 29.8002 13.2926 29.7073C13.1997 29.6144 13.126 29.5041 13.0757 29.3827C13.0254 29.2613 12.9995 29.1312 12.9995 28.9998C12.9995 28.8684 13.0254 28.7383 13.0757 28.6169C13.126 28.4955 13.1997 28.3852 13.2926 28.2923L20.2926 21.2923C20.3854 21.1994 20.4957 21.1256 20.6171 21.0753C20.7385 21.0249 20.8687 20.999 21.0001 20.999C21.1315 20.999 21.2616 21.0249 21.383 21.0753C21.5044 21.1256 21.6147 21.1994 21.7076 21.2923Z" fill="#4A4A4F"/>
</svg>
