<svg width="32" height="32" viewBox="0 0 32 32" fill="none" xmlns="http://www.w3.org/2000/svg">
<path d="M29.7075 22.2926C29.8005 22.3854 29.8742 22.4957 29.9246 22.6171C29.9749 22.7385 30.0008 22.8687 30.0008 23.0001C30.0008 23.1315 29.9749 23.2616 29.9246 23.383C29.8742 23.5044 29.8005 23.6147 29.7075 23.7076L26.7075 26.7076C26.5199 26.8952 26.2654 27.0006 26 27.0006C25.7346 27.0006 25.4801 26.8952 25.2925 26.7076C25.1049 26.5199 24.9994 26.2654 24.9994 26.0001C24.9994 25.7347 25.1049 25.4802 25.2925 25.2926L26.5863 24.0001H21.515C21.1971 23.9997 20.8838 23.9235 20.6012 23.7779C20.3186 23.6322 20.0748 23.4213 19.89 23.1626L10.485 10.0001H4C3.73478 10.0001 3.48043 9.89471 3.29289 9.70717C3.10536 9.51964 3 9.26528 3 9.00007C3 8.73485 3.10536 8.4805 3.29289 8.29296C3.48043 8.10542 3.73478 8.00007 4 8.00007H10.485C10.8029 8.00046 11.1162 8.07664 11.3988 8.22229C11.6814 8.36794 11.9252 8.57886 12.11 8.83757L21.515 22.0001H26.5863L25.2925 20.7076C25.1049 20.5199 24.9994 20.2654 24.9994 20.0001C24.9994 19.7347 25.1049 19.4802 25.2925 19.2926C25.4801 19.1049 25.7346 18.9995 26 18.9995C26.2654 18.9995 26.5199 19.1049 26.7075 19.2926L29.7075 22.2926ZM17.875 13.3751C17.9819 13.4514 18.1027 13.5059 18.2307 13.5356C18.3586 13.5652 18.4911 13.5693 18.6207 13.5477C18.7502 13.5262 18.8742 13.4793 18.9856 13.4097C19.097 13.3402 19.1937 13.2494 19.27 13.1426L21.52 10.0026H26.5912L25.2925 11.2926C25.1049 11.4802 24.9994 11.7347 24.9994 12.0001C24.9994 12.2654 25.1049 12.5199 25.2925 12.7076C25.4801 12.8952 25.7346 13.0006 26 13.0006C26.2654 13.0006 26.5199 12.8952 26.7075 12.7076L29.7075 9.70757C29.8005 9.6147 29.8742 9.50441 29.9246 9.38301C29.9749 9.26161 30.0008 9.13148 30.0008 9.00007C30.0008 8.86865 29.9749 8.73853 29.9246 8.61713C29.8742 8.49573 29.8005 8.38544 29.7075 8.29257L26.7075 5.29257C26.5199 5.10493 26.2654 4.99951 26 4.99951C25.7346 4.99951 25.4801 5.10493 25.2925 5.29257C25.1049 5.48021 24.9994 5.7347 24.9994 6.00007C24.9994 6.26543 25.1049 6.51993 25.2925 6.70757L26.5863 8.00007H21.515C21.1971 8.00046 20.8838 8.07664 20.6012 8.22229C20.3186 8.36794 20.0748 8.57886 19.89 8.83757L17.6437 11.9776C17.567 12.0844 17.512 12.2054 17.4821 12.3336C17.4521 12.4617 17.4478 12.5945 17.4693 12.7243C17.4908 12.8542 17.5377 12.9785 17.6073 13.0901C17.6769 13.2018 17.7679 13.2986 17.875 13.3751ZM14.125 18.6251C14.0181 18.5487 13.8973 18.4942 13.7693 18.4646C13.6414 18.4349 13.5089 18.4308 13.3793 18.4524C13.2498 18.474 13.1258 18.5209 13.0144 18.5904C12.903 18.6599 12.8063 18.7507 12.73 18.8576L10.485 22.0001H4C3.73478 22.0001 3.48043 22.1054 3.29289 22.293C3.10536 22.4805 3 22.7349 3 23.0001C3 23.2653 3.10536 23.5196 3.29289 23.7072C3.48043 23.8947 3.73478 24.0001 4 24.0001H10.485C10.8029 23.9997 11.1162 23.9235 11.3988 23.7779C11.6814 23.6322 11.9252 23.4213 12.11 23.1626L14.3538 20.0226C14.4307 19.9158 14.4858 19.795 14.5159 19.667C14.546 19.5389 14.5506 19.4062 14.5294 19.2764C14.5081 19.1465 14.4614 19.0222 14.3921 18.9104C14.3227 18.7987 14.2319 18.7017 14.125 18.6251Z" fill="#4A4A4F"/>
</svg>
