<svg width="32" height="32" viewBox="0 0 32 32" fill="none" xmlns="http://www.w3.org/2000/svg">
<path d="M27 5H5C4.46957 5 3.96086 5.21071 3.58579 5.58579C3.21071 5.96086 3 6.46957 3 7V25C3 25.5304 3.21071 26.0391 3.58579 26.4142C3.96086 26.7893 4.46957 27 5 27H27C27.5304 27 28.0391 26.7893 28.4142 26.4142C28.7893 26.0391 29 25.5304 29 25V7C29 6.46957 28.7893 5.96086 28.4142 5.58579C28.0391 5.21071 27.5304 5 27 5ZM8 19H6C5.73478 19 5.48043 18.8946 5.29289 18.7071C5.10536 18.5196 5 18.2652 5 18C5 17.7348 5.10536 17.4804 5.29289 17.2929C5.48043 17.1054 5.73478 17 6 17H8C8.26522 17 8.51957 17.1054 8.70711 17.2929C8.89464 17.4804 9 17.7348 9 18C9 18.2652 8.89464 18.5196 8.70711 18.7071C8.51957 18.8946 8.26522 19 8 19ZM8 15H6C5.73478 15 5.48043 14.8946 5.29289 14.7071C5.10536 14.5196 5 14.2652 5 14C5 13.7348 5.10536 13.4804 5.29289 13.2929C5.48043 13.1054 5.73478 13 6 13H8C8.26522 13 8.51957 13.1054 8.70711 13.2929C8.89464 13.4804 9 13.7348 9 14C9 14.2652 8.89464 14.5196 8.70711 14.7071C8.51957 14.8946 8.26522 15 8 15ZM8 11H6C5.73478 11 5.48043 10.8946 5.29289 10.7071C5.10536 10.5196 5 10.2652 5 10C5 9.73478 5.10536 9.48043 5.29289 9.29289C5.48043 9.10536 5.73478 9 6 9H8C8.26522 9 8.51957 9.10536 8.70711 9.29289C8.89464 9.48043 9 9.73478 9 10C9 10.2652 8.89464 10.5196 8.70711 10.7071C8.51957 10.8946 8.26522 11 8 11ZM27 25H11V7H27V25Z" fill="#4A4A4F"/>
</svg>
