<svg width="32" height="32" viewBox="0 0 32 32" fill="none" xmlns="http://www.w3.org/2000/svg">
<path d="M17.7075 16.7075L12.7075 21.7075C12.5676 21.8475 12.3894 21.9429 12.1953 21.9815C12.0012 22.0202 11.8 22.0004 11.6172 21.9246C11.4344 21.8489 11.2782 21.7206 11.1683 21.556C11.0584 21.3914 10.9998 21.1979 11 21V17H3C2.73478 17 2.48043 16.8946 2.29289 16.7071C2.10536 16.5196 2 16.2652 2 16C2 15.7348 2.10536 15.4804 2.29289 15.2929C2.48043 15.1054 2.73478 15 3 15H11V11C10.9998 10.8021 11.0584 10.6086 11.1683 10.444C11.2782 10.2794 11.4344 10.1511 11.6172 10.0754C11.8 9.99963 12.0012 9.97982 12.1953 10.0185C12.3894 10.0571 12.5676 10.1525 12.7075 10.2925L17.7075 15.2925C17.8005 15.3854 17.8742 15.4957 17.9246 15.6171C17.9749 15.7385 18.0008 15.8686 18.0008 16C18.0008 16.1314 17.9749 16.2615 17.9246 16.3829C17.8742 16.5043 17.8005 16.6146 17.7075 16.7075ZM24 4H17C16.7348 4 16.4804 4.10536 16.2929 4.29289C16.1054 4.48043 16 4.73478 16 5C16 5.26522 16.1054 5.51957 16.2929 5.70711C16.4804 5.89464 16.7348 6 17 6H24V26H17C16.7348 26 16.4804 26.1054 16.2929 26.2929C16.1054 26.4804 16 26.7348 16 27C16 27.2652 16.1054 27.5196 16.2929 27.7071C16.4804 27.8946 16.7348 28 17 28H24C24.5304 28 25.0391 27.7893 25.4142 27.4142C25.7893 27.0391 26 26.5304 26 26V6C26 5.46957 25.7893 4.96086 25.4142 4.58579C25.0391 4.21071 24.5304 4 24 4Z" fill="#4A4A4F"/>
</svg>
