<svg width="32" height="32" viewBox="0 0 32 32" fill="none" xmlns="http://www.w3.org/2000/svg">
<path d="M16 2C8.83125 2 3 7.6075 3 14.5C3 18.7625 5.28375 22.75 9 25.035V27C9 27.5304 9.21071 28.0391 9.58579 28.4142C9.96086 28.7893 10.4696 29 11 29H12C12.1326 29 12.2598 28.9473 12.3536 28.8536C12.4473 28.7598 12.5 28.6326 12.5 28.5V25.0338C12.4965 24.7757 12.5909 24.5259 12.7641 24.3345C12.9374 24.1432 13.1766 24.0246 13.4338 24.0025C13.5705 23.9934 13.7077 24.0126 13.8368 24.0587C13.9659 24.1049 14.0841 24.1771 14.1841 24.2709C14.2841 24.3647 14.3637 24.478 14.4181 24.6039C14.4724 24.7297 14.5003 24.8654 14.5 25.0025V28.5025C14.5 28.6351 14.5527 28.7623 14.6464 28.8561C14.7402 28.9498 14.8674 29.0025 15 29.0025H17C17.1326 29.0025 17.2598 28.9498 17.3536 28.8561C17.4473 28.7623 17.5 28.6351 17.5 28.5025V25.0338C17.4965 24.7757 17.5909 24.5259 17.7641 24.3345C17.9374 24.1432 18.1766 24.0246 18.4338 24.0025C18.5705 23.9934 18.7077 24.0126 18.8368 24.0587C18.9659 24.1049 19.0841 24.1771 19.1841 24.2709C19.2841 24.3647 19.3637 24.478 19.4181 24.6039C19.4724 24.7297 19.5003 24.8654 19.5 25.0025V28.5025C19.5 28.6351 19.5527 28.7623 19.6464 28.8561C19.7402 28.9498 19.8674 29.0025 20 29.0025H21C21.5304 29.0025 22.0391 28.7918 22.4142 28.4167C22.7893 28.0416 23 27.5329 23 27.0025V25.035C26.7162 22.75 29 18.7625 29 14.5C29 7.6075 23.1688 2 16 2ZM11.5 19C11.0055 19 10.5222 18.8534 10.1111 18.5787C9.69995 18.304 9.37952 17.9135 9.1903 17.4567C9.00108 16.9999 8.95157 16.4972 9.04804 16.0123C9.1445 15.5273 9.3826 15.0819 9.73223 14.7322C10.0819 14.3826 10.5273 14.1445 11.0123 14.048C11.4972 13.9516 11.9999 14.0011 12.4567 14.1903C12.9135 14.3795 13.304 14.7 13.5787 15.1111C13.8534 15.5222 14 16.0055 14 16.5C14 17.163 13.7366 17.7989 13.2678 18.2678C12.7989 18.7366 12.163 19 11.5 19ZM20.5 19C20.0055 19 19.5222 18.8534 19.1111 18.5787C18.7 18.304 18.3795 17.9135 18.1903 17.4567C18.0011 16.9999 17.9516 16.4972 18.048 16.0123C18.1445 15.5273 18.3826 15.0819 18.7322 14.7322C19.0819 14.3826 19.5273 14.1445 20.0123 14.048C20.4972 13.9516 20.9999 14.0011 21.4567 14.1903C21.9135 14.3795 22.304 14.7 22.5787 15.1111C22.8534 15.5222 23 16.0055 23 16.5C23 17.163 22.7366 17.7989 22.2678 18.2678C21.7989 18.7366 21.163 19 20.5 19Z" fill="#4A4A4F"/>
</svg>
