<svg width="32" height="32" viewBox="0 0 32 32" fill="none" xmlns="http://www.w3.org/2000/svg">
<path d="M21.865 19.5001C20.5788 21.7238 18.4412 23.0001 16 23.0001C13.5588 23.0001 11.4212 21.7251 10.1337 19.5001C10.0681 19.3863 10.0255 19.2608 10.0083 19.1305C9.99122 19.0003 9.99991 18.868 10.0339 18.7411C10.0679 18.6143 10.1266 18.4953 10.2066 18.3911C10.2865 18.2869 10.3862 18.1995 10.5 18.1338C10.6138 18.0682 10.7393 18.0256 10.8696 18.0084C10.9998 17.9913 11.1321 18 11.259 18.034C11.3858 18.068 11.5048 18.1267 11.609 18.2067C11.7132 18.2866 11.8006 18.3863 11.8663 18.5001C12.7987 20.1138 14.2662 21.0001 16 21.0001C17.7338 21.0001 19.2013 20.1126 20.135 18.5001C20.1975 18.3806 20.2836 18.275 20.388 18.1896C20.4923 18.1042 20.6129 18.0408 20.7425 18.0032C20.872 17.9656 21.0078 17.9547 21.1417 17.9709C21.2756 17.9872 21.4048 18.0304 21.5215 18.0979C21.6383 18.1653 21.7402 18.2558 21.8211 18.3637C21.902 18.4716 21.9603 18.5947 21.9924 18.7257C22.0245 18.8567 22.0297 18.9928 22.0078 19.1259C21.9859 19.259 21.9374 19.3863 21.865 19.5001ZM29 16.0001C29.0006 17.2947 28.8085 18.5821 28.43 19.8201C28.3818 19.9764 28.2959 20.1184 28.18 20.2338L20.2337 28.1801C20.119 28.2962 19.9773 28.3821 19.8213 28.4301C17.2058 29.2344 14.4032 29.1929 11.8126 28.3115C9.2221 27.4301 6.97575 25.7538 5.39353 23.5212C3.81131 21.2887 2.97392 18.6138 3.00062 15.8775C3.02732 13.1413 3.91675 10.4833 5.54224 8.28201C7.16772 6.08076 9.44636 4.44855 12.0536 3.61787C14.6608 2.7872 17.4637 2.80041 20.063 3.65563C22.6623 4.51085 24.9254 6.16446 26.5301 8.38094C28.1348 10.5974 28.9991 13.2637 29 16.0001ZM27 16.0001C26.9971 13.6989 26.2717 11.4566 24.9261 9.58977C23.5805 7.72293 21.6827 6.32576 19.5004 5.59543C17.3181 4.8651 14.9616 4.83848 12.7634 5.51933C10.5651 6.20017 8.63622 7.55411 7.24879 9.39007C5.86135 11.226 5.08547 13.4513 5.03063 15.7519C4.97579 18.0525 5.64475 20.3122 6.94312 22.2122C8.2415 24.1122 10.1037 25.5565 12.267 26.3413C14.4303 27.1262 16.7854 27.2119 19 26.5863L26.5863 19.0001C26.8617 18.0239 27.001 17.0144 27 16.0001ZM11.5 15.0001C11.7967 15.0001 12.0867 14.9121 12.3334 14.7473C12.58 14.5825 12.7723 14.3482 12.8858 14.0741C12.9994 13.8 13.0291 13.4984 12.9712 13.2075C12.9133 12.9165 12.7704 12.6492 12.5607 12.4394C12.3509 12.2297 12.0836 12.0868 11.7926 12.0289C11.5017 11.971 11.2001 12.0007 10.926 12.1143C10.6519 12.2278 10.4176 12.4201 10.2528 12.6667C10.088 12.9134 10 13.2034 10 13.5001C10 13.8979 10.158 14.2795 10.4393 14.5608C10.7206 14.8421 11.1022 15.0001 11.5 15.0001ZM20.5 12.0001C20.2033 12.0001 19.9133 12.0881 19.6666 12.2529C19.42 12.4177 19.2277 12.652 19.1142 12.9261C19.0007 13.2002 18.9709 13.5018 19.0288 13.7927C19.0867 14.0837 19.2296 14.351 19.4393 14.5608C19.6491 14.7705 19.9164 14.9134 20.2074 14.9713C20.4983 15.0292 20.7999 14.9994 21.074 14.8859C21.3481 14.7724 21.5824 14.5801 21.7472 14.3335C21.912 14.0868 22 13.7968 22 13.5001C22 13.1023 21.842 12.7207 21.5607 12.4394C21.2794 12.1581 20.8978 12.0001 20.5 12.0001Z" fill="#4A4A4F"/>
</svg>
