<svg width="32" height="32" viewBox="0 0 32 32" fill="none" xmlns="http://www.w3.org/2000/svg">
<path d="M16 3C13.4288 3 10.9154 3.76244 8.77759 5.1909C6.63975 6.61935 4.97351 8.64968 3.98957 11.0251C3.00563 13.4006 2.74819 16.0144 3.2498 18.5362C3.75141 21.0579 4.98953 23.3743 6.80762 25.1924C8.6257 27.0105 10.9421 28.2486 13.4638 28.7502C15.9856 29.2518 18.5995 28.9944 20.9749 28.0104C23.3503 27.0265 25.3807 25.3603 26.8091 23.2224C28.2376 21.0846 29 18.5712 29 16C28.9964 12.5533 27.6256 9.24882 25.1884 6.81163C22.7512 4.37445 19.4467 3.00364 16 3ZM21.2963 17.9025L23.6638 17.0575C23.7875 17.0133 23.9188 16.994 24.05 17.0006C24.1813 17.0071 24.3099 17.0395 24.4287 17.0958C24.5474 17.1521 24.6539 17.2312 24.7421 17.3287C24.8302 17.4261 24.8983 17.54 24.9425 17.6637C24.9867 17.7875 25.006 17.9188 24.9994 18.05C24.9929 18.1813 24.9605 18.3099 24.9042 18.4287C24.8479 18.5474 24.7688 18.6539 24.6713 18.7421C24.5739 18.8302 24.46 18.8983 24.3363 18.9425L22.4013 19.6325L22.9663 21.7412C23.0003 21.8681 23.009 22.0005 22.9918 22.1307C22.9747 22.261 22.932 22.3866 22.8663 22.5003C22.8006 22.6141 22.7131 22.7138 22.6089 22.7937C22.5046 22.8737 22.3857 22.9323 22.2588 22.9662C22.1743 22.9884 22.0873 22.9998 22 23C21.7798 23.0001 21.5657 22.9275 21.391 22.7934C21.2163 22.6594 21.0907 22.4715 21.0338 22.2588L20.3375 19.6588L17 17.7325V21.5863L18.7075 23.2925C18.8004 23.3854 18.8741 23.4957 18.9244 23.6171C18.9747 23.7385 19.0006 23.8686 19.0006 24C19.0006 24.1314 18.9747 24.2615 18.9244 24.3829C18.8741 24.5043 18.8004 24.6146 18.7075 24.7075C18.6146 24.8004 18.5043 24.8741 18.3829 24.9244C18.2615 24.9747 18.1314 25.0006 18 25.0006C17.8686 25.0006 17.7385 24.9747 17.6171 24.9244C17.4957 24.8741 17.3854 24.8004 17.2925 24.7075L16 23.4137L14.7075 24.7075C14.6146 24.8004 14.5043 24.8741 14.3829 24.9244C14.2615 24.9747 14.1314 25.0006 14 25.0006C13.8686 25.0006 13.7385 24.9747 13.6171 24.9244C13.4957 24.8741 13.3854 24.8004 13.2925 24.7075C13.1996 24.6146 13.1259 24.5043 13.0756 24.3829C13.0253 24.2615 12.9994 24.1314 12.9994 24C12.9994 23.8686 13.0253 23.7385 13.0756 23.6171C13.1259 23.4957 13.1996 23.3854 13.2925 23.2925L15 21.5863V17.7325L11.6625 19.6588L10.9663 22.2588C10.9093 22.4715 10.7837 22.6594 10.609 22.7934C10.4343 22.9275 10.2202 23.0001 10 23C9.91267 22.9998 9.82572 22.9884 9.74126 22.9662C9.61435 22.9323 9.49537 22.8737 9.39112 22.7937C9.28687 22.7138 9.1994 22.6141 9.13369 22.5003C9.06799 22.3866 9.02535 22.261 9.0082 22.1307C8.99105 22.0005 8.99974 21.8681 9.03376 21.7412L9.59876 19.6325L7.66376 18.9425C7.41379 18.8533 7.20949 18.6685 7.09579 18.4287C6.9821 18.1889 6.96833 17.9137 7.05751 17.6637C7.14668 17.4138 7.33151 17.2095 7.57132 17.0958C7.81113 16.9821 8.08629 16.9683 8.33626 17.0575L10.7038 17.9025L14 16L10.7038 14.0975L8.33626 14.9425C8.22818 14.9804 8.11452 14.9998 8.00001 15C7.76401 15.0005 7.53545 14.9175 7.35475 14.7657C7.17406 14.6139 7.05286 14.4031 7.01261 14.1706C6.97236 13.938 7.01564 13.6988 7.1348 13.4951C7.25397 13.2914 7.44133 13.1364 7.66376 13.0575L9.59876 12.3675L9.03376 10.2587C8.96513 10.0025 9.00112 9.72945 9.1338 9.49972C9.26648 9.26999 9.48499 9.10237 9.74126 9.03375C9.99752 8.96512 10.2706 9.00111 10.5003 9.13379C10.73 9.26648 10.8976 9.48498 10.9663 9.74125L11.6625 12.3413L15 14.2675V10.4137L13.2925 8.7075C13.1049 8.51986 12.9994 8.26536 12.9994 8C12.9994 7.73464 13.1049 7.48014 13.2925 7.2925C13.4801 7.10486 13.7346 6.99944 14 6.99944C14.2654 6.99944 14.5199 7.10486 14.7075 7.2925L16 8.58625L17.2925 7.2925C17.3854 7.19959 17.4957 7.12589 17.6171 7.07561C17.7385 7.02532 17.8686 6.99944 18 6.99944C18.1314 6.99944 18.2615 7.02532 18.3829 7.07561C18.5043 7.12589 18.6146 7.19959 18.7075 7.2925C18.8004 7.38541 18.8741 7.49571 18.9244 7.6171C18.9747 7.7385 19.0006 7.86861 19.0006 8C19.0006 8.13139 18.9747 8.2615 18.9244 8.3829C18.8741 8.50429 18.8004 8.61459 18.7075 8.7075L17 10.4137V14.2675L20.3375 12.3413L21.0338 9.74125C21.1024 9.48498 21.27 9.26648 21.4997 9.13379C21.7295 9.00111 22.0025 8.96512 22.2588 9.03375C22.515 9.10237 22.7335 9.26999 22.8662 9.49972C22.9989 9.72945 23.0349 10.0025 22.9663 10.2587L22.4013 12.3675L24.3363 13.0575C24.5587 13.1364 24.746 13.2914 24.8652 13.4951C24.9844 13.6988 25.0277 13.938 24.9874 14.1706C24.9471 14.4031 24.826 14.6139 24.6453 14.7657C24.4646 14.9175 24.236 15.0005 24 15C23.8855 14.9998 23.7718 14.9804 23.6638 14.9425L21.2963 14.0975L18 16L21.2963 17.9025Z" fill="#4A4A4F"/>
</svg>
