<svg width="32" height="32" viewBox="0 0 32 32" fill="none" xmlns="http://www.w3.org/2000/svg">
<path d="M16 3C13.4288 3 10.9154 3.76244 8.77759 5.1909C6.63975 6.61935 4.97351 8.64968 3.98957 11.0251C3.00563 13.4006 2.74819 16.0144 3.2498 18.5362C3.75141 21.0579 4.98953 23.3743 6.80762 25.1924C8.6257 27.0105 10.9421 28.2486 13.4638 28.7502C15.9856 29.2518 18.5995 28.9944 20.9749 28.0104C23.3503 27.0265 25.3807 25.3603 26.8091 23.2224C28.2376 21.0846 29 18.5712 29 16C28.9964 12.5533 27.6256 9.24882 25.1884 6.81163C22.7512 4.37445 19.4467 3.00364 16 3ZM17 7.9225L20.0988 5.79125C21.8729 6.50593 23.4312 7.66884 24.6213 9.16625L23.6213 12.5337C23.5963 12.5337 23.57 12.5463 23.545 12.555L20.6925 13.4812C20.6497 13.4949 20.6079 13.5116 20.5675 13.5312L17 11.0775C17 11.0525 17 11.0262 17 11V8C17 7.97375 17 7.9475 17 7.9225ZM11.905 5.79125L15 7.9225C15 7.9475 15 7.97375 15 8V11C15 11.0262 15 11.0525 15 11.0775L11.43 13.5363C11.3896 13.5166 11.3478 13.4999 11.305 13.4862L8.45251 12.56C8.42751 12.5513 8.40126 12.545 8.37626 12.5387L7.37626 9.17125C8.5674 7.67114 10.128 6.50639 11.905 5.79125ZM10.28 21.9275H6.73751C5.70054 20.3152 5.10606 18.4585 5.01376 16.5438L7.76376 14.4338C7.78741 14.4442 7.81161 14.4534 7.83626 14.4613L10.69 15.3888C10.7282 15.4003 10.767 15.4095 10.8063 15.4163L12.155 19.3438C12.1363 19.3662 12.1175 19.3888 12.1 19.4125L10.3375 21.8388C10.3167 21.8673 10.2976 21.8969 10.28 21.9275ZM18.8363 26.625C16.9778 27.12 15.0222 27.12 13.1638 26.625L11.9063 23.075C11.9225 23.055 11.94 23.0362 11.955 23.015L13.7188 20.5875C13.7395 20.5594 13.7587 20.5302 13.7763 20.5H18.2238C18.2413 20.5302 18.2605 20.5594 18.2813 20.5875L20.045 23.015C20.06 23.0362 20.0775 23.055 20.0938 23.075L18.8363 26.625ZM21.72 21.9237C21.7025 21.8931 21.6833 21.8635 21.6625 21.835L19.8988 19.4125C19.8813 19.3888 19.8625 19.3662 19.8438 19.3438L21.1925 15.4163C21.2318 15.4095 21.2706 15.4003 21.3088 15.3888L24.1625 14.4613C24.1871 14.4534 24.2113 14.4442 24.235 14.4338L26.985 16.5438C26.8927 18.4585 26.2982 20.3152 25.2613 21.9275L21.72 21.9237Z" fill="#4A4A4F"/>
</svg>
