<svg width="32" height="32" viewBox="0 0 32 32" fill="none" xmlns="http://www.w3.org/2000/svg">
<path d="M16 16C16 16.2652 15.8946 16.5196 15.7071 16.7071C15.5196 16.8946 15.2652 17 15 17H6C5.73478 17 5.48043 16.8946 5.29289 16.7071C5.10536 16.5196 5 16.2652 5 16C5 15.7348 5.10536 15.4804 5.29289 15.2929C5.48043 15.1054 5.73478 15 6 15H15C15.2652 15 15.5196 15.1054 15.7071 15.2929C15.8946 15.4804 16 15.7348 16 16ZM6 9H23C23.2652 9 23.5196 8.89464 23.7071 8.70711C23.8946 8.51957 24 8.26522 24 8C24 7.73478 23.8946 7.48043 23.7071 7.29289C23.5196 7.10536 23.2652 7 23 7H6C5.73478 7 5.48043 7.10536 5.29289 7.29289C5.10536 7.48043 5 7.73478 5 8C5 8.26522 5.10536 8.51957 5.29289 8.70711C5.48043 8.89464 5.73478 9 6 9ZM13 23H6C5.73478 23 5.48043 23.1054 5.29289 23.2929C5.10536 23.4804 5 23.7348 5 24C5 24.2652 5.10536 24.5196 5.29289 24.7071C5.48043 24.8946 5.73478 25 6 25H13C13.2652 25 13.5196 24.8946 13.7071 24.7071C13.8946 24.5196 14 24.2652 14 24C14 23.7348 13.8946 23.4804 13.7071 23.2929C13.5196 23.1054 13.2652 23 13 23ZM28.9237 20.6175C28.8481 20.4348 28.72 20.2786 28.5555 20.1686C28.3911 20.0587 28.1978 20 28 20H24V14C24 13.7348 23.8946 13.4804 23.7071 13.2929C23.5196 13.1054 23.2652 13 23 13C22.7348 13 22.4804 13.1054 22.2929 13.2929C22.1054 13.4804 22 13.7348 22 14V20H18C17.8021 19.9998 17.6086 20.0584 17.444 20.1683C17.2794 20.2782 17.1511 20.4344 17.0754 20.6172C16.9996 20.8 16.9798 21.0012 17.0185 21.1953C17.0571 21.3894 17.1525 21.5676 17.2925 21.7075L22.2925 26.7075C22.3854 26.8005 22.4957 26.8742 22.6171 26.9246C22.7385 26.9749 22.8686 27.0008 23 27.0008C23.1314 27.0008 23.2615 26.9749 23.3829 26.9246C23.5043 26.8742 23.6146 26.8005 23.7075 26.7075L28.7075 21.7075C28.8473 21.5676 28.9425 21.3893 28.981 21.1953C29.0195 21.0013 28.9995 20.8002 28.9237 20.6175Z" fill="#4A4A4F"/>
</svg>
