<svg width="32" height="32" viewBox="0 0 32 32" fill="none" xmlns="http://www.w3.org/2000/svg">
<path d="M19.4387 3.10105C19.2706 3.0191 19.0828 2.98597 18.8968 3.00542C18.7107 3.02486 18.5338 3.0961 18.3862 3.21105L9.65625 9.9998H4C3.46957 9.9998 2.96086 10.2105 2.58579 10.5856C2.21071 10.9607 2 11.4694 2 11.9998V19.9998C2 20.5302 2.21071 21.0389 2.58579 21.414C2.96086 21.7891 3.46957 21.9998 4 21.9998H9.65625L18.3862 28.7885C18.534 28.9034 18.711 28.9745 18.8971 28.9937C19.0832 29.013 19.271 28.9796 19.4391 28.8975C19.6072 28.8153 19.7489 28.6876 19.8481 28.5289C19.9472 28.3702 19.9999 28.1869 20 27.9998V3.9998C20 3.81246 19.9474 3.62888 19.8482 3.46998C19.749 3.31108 19.6071 3.18324 19.4387 3.10105ZM18 25.9548L10.6138 20.211C10.4386 20.0738 10.2225 19.9994 10 19.9998H4V11.9998H10C10.2225 12.0002 10.4386 11.9258 10.6138 11.7885L18 6.0448V25.9548ZM25 12.9998V18.9998C25 19.265 24.8946 19.5194 24.7071 19.7069C24.5196 19.8944 24.2652 19.9998 24 19.9998C23.7348 19.9998 23.4804 19.8944 23.2929 19.7069C23.1054 19.5194 23 19.265 23 18.9998V12.9998C23 12.7346 23.1054 12.4802 23.2929 12.2927C23.4804 12.1052 23.7348 11.9998 24 11.9998C24.2652 11.9998 24.5196 12.1052 24.7071 12.2927C24.8946 12.4802 25 12.7346 25 12.9998ZM29 10.9998V20.9998C29 21.265 28.8946 21.5194 28.7071 21.7069C28.5196 21.8944 28.2652 21.9998 28 21.9998C27.7348 21.9998 27.4804 21.8944 27.2929 21.7069C27.1054 21.5194 27 21.265 27 20.9998V10.9998C27 10.7346 27.1054 10.4802 27.2929 10.2927C27.4804 10.1052 27.7348 9.9998 28 9.9998C28.2652 9.9998 28.5196 10.1052 28.7071 10.2927C28.8946 10.4802 29 10.7346 29 10.9998Z" fill="#4A4A4F"/>
</svg>
