<svg width="32" height="32" viewBox="0 0 32 32" fill="none" xmlns="http://www.w3.org/2000/svg">
<path d="M19 20C19 20.5933 18.8241 21.1734 18.4944 21.6667C18.1648 22.1601 17.6962 22.5446 17.1481 22.7716C16.5999 22.9987 15.9967 23.0581 15.4147 22.9424C14.8328 22.8266 14.2982 22.5409 13.8787 22.1213C13.4591 21.7018 13.1734 21.1672 13.0576 20.5853C12.9419 20.0033 13.0013 19.4001 13.2284 18.8519C13.4554 18.3038 13.8399 17.8352 14.3333 17.5056C14.8266 17.1759 15.4067 17 16 17C16.7956 17 17.5587 17.3161 18.1213 17.8787C18.6839 18.4413 19 19.2044 19 20ZM26 5V27C26 27.5304 25.7893 28.0391 25.4142 28.4142C25.0391 28.7893 24.5304 29 24 29H8C7.46957 29 6.96086 28.7893 6.58579 28.4142C6.21071 28.0391 6 27.5304 6 27V5C6 4.46957 6.21071 3.96086 6.58579 3.58579C6.96086 3.21071 7.46957 3 8 3H24C24.5304 3 25.0391 3.21071 25.4142 3.58579C25.7893 3.96086 26 4.46957 26 5ZM14.5 8.5C14.5 8.79667 14.588 9.08668 14.7528 9.33335C14.9176 9.58003 15.1519 9.77229 15.426 9.88582C15.7001 9.99935 16.0017 10.0291 16.2926 9.97118C16.5836 9.9133 16.8509 9.77044 17.0607 9.56066C17.2704 9.35088 17.4133 9.08361 17.4712 8.79264C17.5291 8.50166 17.4993 8.20006 17.3858 7.92597C17.2723 7.65189 17.08 7.41762 16.8334 7.2528C16.5867 7.08797 16.2967 7 16 7C15.6022 7 15.2206 7.15804 14.9393 7.43934C14.658 7.72064 14.5 8.10218 14.5 8.5ZM21 20C21 19.0111 20.7068 18.0444 20.1573 17.2221C19.6079 16.3999 18.827 15.759 17.9134 15.3806C16.9998 15.0022 15.9945 14.9031 15.0245 15.0961C14.0546 15.289 13.1637 15.7652 12.4645 16.4645C11.7652 17.1637 11.289 18.0546 11.0961 19.0245C10.9031 19.9945 11.0022 20.9998 11.3806 21.9134C11.759 22.827 12.3999 23.6079 13.2221 24.1573C14.0444 24.7068 15.0111 25 16 25C17.3261 25 18.5979 24.4732 19.5355 23.5355C20.4732 22.5979 21 21.3261 21 20Z" fill="#4A4A4F"/>
</svg>
