<svg width="32" height="32" viewBox="0 0 32 32" fill="none" xmlns="http://www.w3.org/2000/svg">
<path d="M23 19.0002V13.0002C23 12.735 23.1054 12.4807 23.2929 12.2931C23.4804 12.1056 23.7348 12.0002 24 12.0002C24.2652 12.0002 24.5196 12.1056 24.7071 12.2931C24.8946 12.4807 25 12.735 25 13.0002V19.0002C25 19.2654 24.8946 19.5198 24.7071 19.7073C24.5196 19.8949 24.2652 20.0002 24 20.0002C23.7348 20.0002 23.4804 19.8949 23.2929 19.7073C23.1054 19.5198 23 19.2654 23 19.0002ZM28 10.0002C27.7348 10.0002 27.4804 10.1056 27.2929 10.2931C27.1054 10.4807 27 10.735 27 11.0002V21.0002C27 21.2654 27.1054 21.5198 27.2929 21.7073C27.4804 21.8949 27.7348 22.0002 28 22.0002C28.2652 22.0002 28.5196 21.8949 28.7071 21.7073C28.8946 21.5198 29 21.2654 29 21.0002V11.0002C29 10.735 28.8946 10.4807 28.7071 10.2931C28.5196 10.1056 28.2652 10.0002 28 10.0002ZM26.74 26.3277C26.8302 26.4246 26.9002 26.5384 26.9461 26.6625C26.9919 26.7866 27.0127 26.9186 27.0072 27.0508C27.0017 27.1831 26.97 27.3129 26.9139 27.4327C26.8578 27.5526 26.7785 27.6602 26.6806 27.7492C26.5827 27.8382 26.4681 27.9068 26.3434 27.9512C26.2187 27.9956 26.0865 28.0148 25.9543 28.0077C25.8222 28.0005 25.6928 27.9673 25.5736 27.9098C25.4544 27.8523 25.3478 27.7717 25.26 27.6727L20 21.8865V28.0002C19.9999 28.1873 19.9472 28.3707 19.8481 28.5294C19.7489 28.688 19.6072 28.8157 19.4391 28.8979C19.271 28.9801 19.0832 29.0134 18.8971 28.9942C18.711 28.9749 18.534 28.9038 18.3862 28.789L9.65625 22.0002H4C3.46957 22.0002 2.96086 21.7895 2.58579 21.4144C2.21071 21.0394 2 20.5307 2 20.0002V12.0002C2 11.4698 2.21071 10.9611 2.58579 10.586C2.96086 10.2109 3.46957 10.0002 4 10.0002H9.19375L5.26 5.67273C5.16983 5.57587 5.09979 5.46208 5.05392 5.33795C5.00806 5.21382 4.98728 5.08183 4.99281 4.94961C4.99833 4.81739 5.03004 4.68759 5.0861 4.56772C5.14216 4.44785 5.22146 4.3403 5.31939 4.2513C5.41732 4.1623 5.53194 4.09363 5.65661 4.04925C5.78128 4.00488 5.91352 3.98569 6.04566 3.9928C6.1778 3.99991 6.30721 4.03317 6.4264 4.09066C6.54559 4.14816 6.65218 4.22873 6.74 4.32773L26.74 26.3277ZM18 19.6865L11.0125 12.0002H4V20.0002H10C10.2225 19.9999 10.4386 20.0743 10.6138 20.2115L18 25.9552V19.6865ZM14.6325 8.66398L18 6.03898V13.3477C18 13.6129 18.1054 13.8673 18.2929 14.0548C18.4804 14.2424 18.7348 14.3477 19 14.3477C19.2652 14.3477 19.5196 14.2424 19.7071 14.0548C19.8946 13.8673 20 13.6129 20 13.3477V4.00023C19.9999 3.81311 19.9472 3.62978 19.8481 3.47109C19.7489 3.3124 19.6072 3.18472 19.4391 3.10255C19.271 3.02038 19.0832 2.98703 18.8971 3.00629C18.711 3.02554 18.534 3.09663 18.3862 3.21148L13.405 7.08648C13.1998 7.25068 13.0676 7.48903 13.0368 7.75C13.006 8.01097 13.0791 8.27357 13.2404 8.48102C13.4017 8.68848 13.6382 8.8241 13.8987 8.85857C14.1592 8.89304 14.4228 8.82359 14.6325 8.66523V8.66398Z" fill="#4A4A4F"/>
</svg>
