<svg width="32" height="32" viewBox="0 0 32 32" fill="none" xmlns="http://www.w3.org/2000/svg">
<path d="M19.44 3.10142C19.2717 3.01923 19.0837 2.98596 18.8974 3.0054C18.7111 3.02485 18.534 3.09624 18.3862 3.21142L9.65625 10.0002H4C3.46957 10.0002 2.96086 10.2109 2.58579 10.586C2.21071 10.961 2 11.4697 2 12.0002V20.0002C2 20.5306 2.21071 21.0393 2.58579 21.4144C2.96086 21.7895 3.46957 22.0002 4 22.0002H9.65625L18.3862 28.7889C18.5614 28.9261 18.7775 29.0005 19 29.0002C19.2652 29.0002 19.5196 28.8948 19.7071 28.7073C19.8946 28.5197 20 28.2654 20 28.0002V4.00017C20.0001 3.81297 19.9477 3.62948 19.8487 3.47059C19.7497 3.3117 19.6081 3.18379 19.44 3.10142Z" fill="#4A4A4F"/>
<path d="M28.4138 16.0001L30.7076 13.7076C30.8952 13.5199 31.0006 13.2654 31.0006 13.0001C31.0006 12.7347 30.8952 12.4802 30.7076 12.2926C30.5199 12.1049 30.2654 11.9995 30.0001 11.9995C29.7347 11.9995 29.4802 12.1049 29.2926 12.2926L27.0001 14.5863L24.7076 12.2926C24.5199 12.1049 24.2654 11.9995 24.0001 11.9995C23.7347 11.9995 23.4802 12.1049 23.2926 12.2926C23.1049 12.4802 22.9995 12.7347 22.9995 13.0001C22.9995 13.2654 23.1049 13.5199 23.2926 13.7076L25.5863 16.0001L23.2926 18.2926C23.1049 18.4802 22.9995 18.7347 22.9995 19.0001C22.9995 19.2654 23.1049 19.5199 23.2926 19.7076C23.4802 19.8952 23.7347 20.0006 24.0001 20.0006C24.2654 20.0006 24.5199 19.8952 24.7076 19.7076L27.0001 17.4138L29.2926 19.7076C29.4802 19.8952 29.7347 20.0006 30.0001 20.0006C30.2654 20.0006 30.5199 19.8952 30.7076 19.7076C30.8952 19.5199 31.0006 19.2654 31.0006 19.0001C31.0006 18.7347 30.8952 18.4802 30.7076 18.2926L28.4138 16.0001Z" fill="#4A4A4F"/>
</svg>
