<svg width="32" height="32" viewBox="0 0 32 32" fill="none" xmlns="http://www.w3.org/2000/svg">
<path d="M16 3C13.4288 3 10.9154 3.76244 8.77759 5.1909C6.63975 6.61935 4.97351 8.64968 3.98957 11.0251C3.00563 13.4006 2.74819 16.0144 3.2498 18.5362C3.75141 21.0579 4.98953 23.3743 6.80762 25.1924C8.6257 27.0105 10.9421 28.2486 13.4638 28.7502C15.9856 29.2518 18.5995 28.9944 20.9749 28.0104C23.3503 27.0265 25.3807 25.3603 26.8091 23.2224C28.2376 21.0846 29 18.5712 29 16C28.9964 12.5533 27.6256 9.24882 25.1884 6.81163C22.7512 4.37445 19.4467 3.00364 16 3ZM6.00001 17C5.73479 17 5.48044 16.8946 5.2929 16.7071C5.10536 16.5196 5.00001 16.2652 5.00001 16C5.00001 15.7348 5.10536 15.4804 5.2929 15.2929C5.48044 15.1054 5.73479 15 6.00001 15H9.00001C9.26522 15 9.51958 15.1054 9.70711 15.2929C9.89465 15.4804 10 15.7348 10 16C10 16.2652 9.89465 16.5196 9.70711 16.7071C9.51958 16.8946 9.26522 17 9.00001 17H6.00001ZM11.7575 21.6562L9.63251 23.7812C9.5396 23.8742 9.4293 23.9479 9.3079 23.9981C9.18651 24.0484 9.0564 24.0743 8.92501 24.0743C8.79361 24.0743 8.6635 24.0484 8.54211 23.9981C8.42072 23.9479 8.31042 23.8742 8.21751 23.7812C8.1246 23.6883 8.05089 23.578 8.00061 23.4566C7.95033 23.3353 7.92445 23.2051 7.92445 23.0737C7.92445 22.9424 7.95033 22.8122 8.00061 22.6909C8.05089 22.5695 8.1246 22.4592 8.21751 22.3662L10.3425 20.2412C10.5316 20.0616 10.7833 19.963 11.0441 19.9663C11.3048 19.9696 11.554 20.0747 11.7384 20.2591C11.9228 20.4435 12.0279 20.6927 12.0312 20.9534C12.0345 21.2142 11.9359 21.4659 11.7563 21.655L11.7575 21.6562ZM11.7575 11.7575C11.57 11.9449 11.3157 12.0502 11.0506 12.0502C10.7855 12.0502 10.5313 11.9449 10.3438 11.7575L8.21876 9.6325C8.12609 9.53943 8.05267 9.42901 8.00268 9.30756C7.95268 9.18611 7.9271 9.056 7.92739 8.92467C7.92798 8.65942 8.03391 8.40527 8.22188 8.21813C8.40985 8.03098 8.66447 7.92617 8.92972 7.92676C9.19496 7.92735 9.44911 8.03328 9.63626 8.22125L11.7613 10.3462C11.9474 10.5342 12.0515 10.7882 12.0508 11.0526C12.0501 11.3171 11.9446 11.5706 11.7575 11.7575ZM17 26C17 26.2652 16.8946 26.5196 16.7071 26.7071C16.5196 26.8946 16.2652 27 16 27C15.7348 27 15.4804 26.8946 15.2929 26.7071C15.1054 26.5196 15 26.2652 15 26V23C15 22.7348 15.1054 22.4804 15.2929 22.2929C15.4804 22.1054 15.7348 22 16 22C16.2652 22 16.5196 22.1054 16.7071 22.2929C16.8946 22.4804 17 22.7348 17 23V26ZM17 9C17 9.26522 16.8946 9.51957 16.7071 9.70711C16.5196 9.89464 16.2652 10 16 10C15.7348 10 15.4804 9.89464 15.2929 9.70711C15.1054 9.51957 15 9.26522 15 9V6C15 5.73478 15.1054 5.48043 15.2929 5.29289C15.4804 5.10536 15.7348 5 16 5C16.2652 5 16.5196 5.10536 16.7071 5.29289C16.8946 5.48043 17 5.73478 17 6V9ZM23.7788 23.7787C23.6859 23.8717 23.5756 23.9455 23.4542 23.9958C23.3328 24.0461 23.2027 24.072 23.0713 24.072C22.9398 24.072 22.8097 24.0461 22.6883 23.9958C22.5669 23.9455 22.4566 23.8717 22.3638 23.7787L20.2388 21.6537C20.0591 21.4647 19.9605 21.2129 19.9638 20.9522C19.9672 20.6914 20.0722 20.4423 20.2566 20.2579C20.441 20.0735 20.6902 19.9684 20.9509 19.9651C21.2117 19.9617 21.4634 20.0604 21.6525 20.24L23.7775 22.365C23.9651 22.5524 24.0706 22.8065 24.0708 23.0716C24.071 23.3367 23.966 23.5911 23.7788 23.7787ZM26 17H23C22.7348 17 22.4804 16.8946 22.2929 16.7071C22.1054 16.5196 22 16.2652 22 16C22 15.7348 22.1054 15.4804 22.2929 15.2929C22.4804 15.1054 22.7348 15 23 15H26C26.2652 15 26.5196 15.1054 26.7071 15.2929C26.8946 15.4804 27 15.7348 27 16C27 16.2652 26.8946 16.5196 26.7071 16.7071C26.5196 16.8946 26.2652 17 26 17Z" fill="#4A4A4F"/>
</svg>
