<svg width="32" height="32" viewBox="0 0 32 32" fill="none" xmlns="http://www.w3.org/2000/svg">
<path d="M29.3123 14.2977L28.6585 14.8752C28.562 14.973 28.4464 15.0499 28.3189 15.101C28.1913 15.1521 28.0546 15.1764 27.9173 15.1723C27.78 15.1682 27.6449 15.1359 27.5206 15.0774C27.3964 15.0188 27.2855 14.9353 27.1949 14.832C27.1043 14.7286 27.036 14.6078 26.9942 14.4769C26.9524 14.346 26.9381 14.2079 26.952 14.0712C26.966 13.9345 27.0079 13.8022 27.0753 13.6825C27.1426 13.5627 27.234 13.4581 27.3435 13.3752L27.9973 12.804C27.9973 12.804 27.9973 12.804 27.9973 12.7952L26.9135 12.7015C26.7822 12.6902 26.6544 12.6532 26.5374 12.5926C26.4203 12.532 26.3164 12.4489 26.2315 12.348C26.1466 12.2472 26.0824 12.1307 26.0425 12.0051C26.0027 11.8794 25.9879 11.7472 25.9992 11.6159C26.0104 11.4845 26.0474 11.3567 26.1081 11.2397C26.1687 11.1227 26.2518 11.0187 26.3526 10.9338C26.4534 10.8489 26.57 10.7847 26.6956 10.7448C26.8212 10.705 26.9535 10.6902 27.0848 10.7015L28.1723 10.7952C28.565 10.828 28.9393 10.976 29.2482 11.2208C29.5571 11.4655 29.7868 11.7961 29.9085 12.1709C30.0301 12.5458 30.0383 12.9482 29.932 13.3277C29.8257 13.7072 29.6097 14.0469 29.311 14.304L29.3123 14.2977ZM21.7248 19.6727L22.0823 21.224C22.1118 21.3519 22.1663 21.4728 22.2426 21.5797C22.3188 21.6866 22.4154 21.7775 22.5268 21.8471C22.6381 21.9167 22.7621 21.9636 22.8917 21.9853C23.0212 22.007 23.1537 22.0029 23.2817 21.9734C23.4096 21.9438 23.5305 21.8894 23.6374 21.8131C23.7443 21.7368 23.8352 21.6402 23.9047 21.5289C23.9743 21.4175 24.0213 21.2935 24.043 21.164C24.0646 21.0345 24.0606 20.9019 24.031 20.774L23.6748 19.2152L24.6573 18.3577C24.8572 18.1834 24.9796 17.9367 24.9977 17.672C25.0157 17.4074 24.9279 17.1464 24.7535 16.9465C24.5792 16.7466 24.3325 16.6241 24.0678 16.6061C23.8032 16.588 23.5422 16.6759 23.3423 16.8502L22.3598 17.709C22.085 17.9479 21.8806 18.2573 21.7687 18.6038C21.6568 18.9503 21.6416 19.3207 21.7248 19.6752V19.6727ZM16.9998 6.39399V23.1015L17.0335 23.1202L18.5185 24.0227C18.7453 24.1603 18.9081 24.3823 18.9712 24.64C19.0342 24.8976 18.9924 25.1697 18.8548 25.3965C18.7172 25.6232 18.4952 25.7861 18.2376 25.8491C17.9799 25.9122 17.7078 25.8703 17.481 25.7327L15.9998 24.8302L9.62479 28.7052C9.288 28.9082 8.89886 29.0074 8.506 28.9904C8.11315 28.9734 7.73403 28.841 7.41603 28.6097C7.09803 28.3784 6.85527 28.0585 6.7181 27.69C6.58092 27.3214 6.55542 26.9207 6.64479 26.5377L8.32604 19.2252L2.68729 14.2977C2.38863 14.0406 2.17259 13.701 2.0663 13.3215C1.96001 12.942 1.96821 12.5395 2.08987 12.1647C2.21152 11.7898 2.44121 11.4593 2.7501 11.2145C3.05899 10.9698 3.4333 10.8217 3.82604 10.789L11.2585 10.1465L14.1598 3.22649C14.3113 2.86338 14.5668 2.55322 14.8943 2.33506C15.2217 2.1169 15.6063 2.00049 15.9998 2.00049C16.3932 2.00049 16.7779 2.1169 17.1053 2.33506C17.4327 2.55322 17.6883 2.86338 17.8398 3.22649L20.7498 10.1465L22.0923 10.2627C22.3575 10.2856 22.6028 10.4129 22.7741 10.6166C22.9455 10.8203 23.0289 11.0838 23.006 11.349C22.9832 11.6142 22.8559 11.8595 22.6522 12.0308C22.4484 12.2022 22.185 12.2856 21.9198 12.2627L20.5748 12.1465C20.212 12.1145 19.8649 11.9841 19.5708 11.7693C19.2767 11.5546 19.0469 11.2636 18.906 10.9277L16.9998 6.39399ZM14.966 23.1252L14.9998 23.1065V6.39399L13.0998 10.9215C12.9589 11.2573 12.7291 11.5483 12.435 11.7631C12.1409 11.9779 11.7938 12.1083 11.431 12.1402L3.99979 12.7815C3.99943 12.7856 3.99943 12.7898 3.99979 12.794L9.64104 17.7115C9.91519 17.9503 10.1191 18.2593 10.2307 18.6053C10.3424 18.9513 10.3576 19.3212 10.2748 19.6752L8.58479 26.9927L14.966 23.1252ZM24.9548 24.7815C24.9252 24.6535 24.8706 24.5327 24.7943 24.4258C24.7179 24.3189 24.6213 24.2281 24.5099 24.1586C24.3984 24.0891 24.2744 24.0422 24.1448 24.0206C24.0153 23.999 23.8827 24.0031 23.7548 24.0327C23.6268 24.0624 23.506 24.1169 23.3991 24.1933C23.2922 24.2696 23.2014 24.3662 23.1319 24.4777C23.0624 24.5891 23.0155 24.7131 22.9939 24.8427C22.9723 24.9722 22.9764 25.1048 23.006 25.2327L23.4185 27.0002L22.0198 26.1502C21.9075 26.082 21.7829 26.0366 21.6531 26.0166C21.5232 25.9965 21.3907 26.0022 21.2631 26.0334C21.1355 26.0646 21.0152 26.1206 20.9093 26.1982C20.8033 26.2758 20.7136 26.3736 20.6454 26.4859C20.5772 26.5981 20.5318 26.7228 20.5117 26.8526C20.4917 26.9824 20.4974 27.1149 20.5286 27.2426C20.5597 27.3702 20.6157 27.4904 20.6934 27.5964C20.771 27.7024 20.8688 27.792 20.981 27.8602L22.3848 28.7127C22.7216 28.9157 23.1107 29.0149 23.5036 28.9979C23.8964 28.9809 24.2755 28.8485 24.5935 28.6172C24.9115 28.3859 25.1543 28.066 25.2915 27.6975C25.4287 27.3289 25.4542 26.9282 25.3648 26.5452L24.9548 24.7815Z" fill="#4A4A4F"/>
</svg>
