<svg width="32" height="32" viewBox="0 0 32 32" fill="none" xmlns="http://www.w3.org/2000/svg">
<path d="M12.9998 23.5C12.9998 24.39 12.7359 25.26 12.2414 26.0001C11.747 26.7401 11.0442 27.3169 10.2219 27.6575C9.39962 27.9981 8.49482 28.0872 7.6219 27.9135C6.74899 27.7399 5.94717 27.3113 5.31783 26.682C4.68849 26.0526 4.25991 25.2508 4.08628 24.3779C3.91264 23.505 4.00176 22.6002 4.34235 21.7779C4.68295 20.9557 5.25972 20.2529 5.99974 19.7584C6.73976 19.2639 7.60979 19 8.49981 19C9.69328 19 10.8379 19.4741 11.6818 20.318C12.5257 21.1619 12.9998 22.3065 12.9998 23.5ZM4.29231 14.7075C4.38518 14.8005 4.49547 14.8742 4.61687 14.9246C4.73827 14.9749 4.86839 15.0008 4.99981 15.0008C5.13123 15.0008 5.26135 14.9749 5.38275 14.9246C5.50415 14.8742 5.61444 14.8005 5.70731 14.7075L7.49981 12.9137L9.29231 14.7075C9.47995 14.8951 9.73445 15.0006 9.99981 15.0006C10.2652 15.0006 10.5197 14.8951 10.7073 14.7075C10.895 14.5199 11.0004 14.2654 11.0004 14C11.0004 13.7346 10.895 13.4801 10.7073 13.2925L8.91356 11.5L10.7073 9.7075C10.895 9.51986 11.0004 9.26536 11.0004 9C11.0004 8.73464 10.895 8.48014 10.7073 8.2925C10.5197 8.10486 10.2652 7.99944 9.99981 7.99944C9.73445 7.99944 9.47995 8.10486 9.29231 8.2925L7.49981 10.0863L5.70731 8.2925C5.51967 8.10486 5.26517 7.99944 4.99981 7.99944C4.73445 7.99944 4.47995 8.10486 4.29231 8.2925C4.10467 8.48014 3.99925 8.73464 3.99925 9C3.99925 9.26536 4.10467 9.51986 4.29231 9.7075L6.08606 11.5L4.29231 13.2925C4.19933 13.3854 4.12557 13.4957 4.07525 13.6171C4.02493 13.7385 3.99902 13.8686 3.99902 14C3.99902 14.1314 4.02493 14.2615 4.07525 14.3829C4.12557 14.5043 4.19933 14.6146 4.29231 14.7075ZM25.9173 23.5L27.7111 21.7075C27.8987 21.5199 28.0041 21.2654 28.0041 21C28.0041 20.7346 27.8987 20.4801 27.7111 20.2925C27.5234 20.1049 27.2689 19.9994 27.0036 19.9994C26.7382 19.9994 26.4837 20.1049 26.2961 20.2925L24.4998 22.0863L22.7073 20.2925C22.5197 20.1049 22.2652 19.9994 21.9998 19.9994C21.7344 19.9994 21.4799 20.1049 21.2923 20.2925C21.1047 20.4801 20.9993 20.7346 20.9993 21C20.9993 21.2654 21.1047 21.5199 21.2923 21.7075L23.0861 23.5L21.2923 25.2925C21.1047 25.4801 20.9993 25.7346 20.9993 26C20.9993 26.2654 21.1047 26.5199 21.2923 26.7075C21.4799 26.8951 21.7344 27.0006 21.9998 27.0006C22.2652 27.0006 22.5197 26.8951 22.7073 26.7075L24.4998 24.9137L26.2923 26.7075C26.3852 26.8004 26.4955 26.8741 26.6169 26.9244C26.7383 26.9747 26.8684 27.0006 26.9998 27.0006C27.1312 27.0006 27.2613 26.9747 27.3827 26.9244C27.5041 26.8741 27.6144 26.8004 27.7073 26.7075C27.8002 26.6146 27.8739 26.5043 27.9242 26.3829C27.9745 26.2615 28.0004 26.1314 28.0004 26C28.0004 25.8686 27.9745 25.7385 27.9242 25.6171C27.8739 25.4957 27.8002 25.3854 27.7073 25.2925L25.9173 23.5ZM19.7073 6.2925L19.4136 6H21.9998C22.265 6 22.5194 5.89464 22.7069 5.70711C22.8945 5.51957 22.9998 5.26522 22.9998 5C22.9998 4.73478 22.8945 4.48043 22.7069 4.29289C22.5194 4.10536 22.265 4 21.9998 4H16.9998C16.7346 4 16.4802 4.10536 16.2927 4.29289C16.1052 4.48043 15.9998 4.73478 15.9998 5V10C15.9998 10.2652 16.1052 10.5196 16.2927 10.7071C16.4802 10.8946 16.7346 11 16.9998 11C17.265 11 17.5194 10.8946 17.7069 10.7071C17.8945 10.5196 17.9998 10.2652 17.9998 10V7.41375L18.2923 7.7075C20.5336 9.94875 20.5298 12.1325 20.1311 13.57C19.5511 15.6663 17.7111 17.5413 15.7561 18.03C15.5193 18.0893 15.3125 18.2332 15.1744 18.4345C15.0364 18.6358 14.9768 18.8806 15.0067 19.1228C15.0367 19.365 15.1542 19.5879 15.3371 19.7495C15.5201 19.9111 15.7557 20.0002 15.9998 20C16.0841 20.0004 16.168 19.9903 16.2498 19.97C18.9011 19.3075 21.2936 16.895 22.0661 14.1038C22.8223 11.3475 21.9873 8.57375 19.7073 6.2925Z" fill="#4A4A4F"/>
</svg>
