<svg width="32" height="32" viewBox="0 0 32 32" fill="none" xmlns="http://www.w3.org/2000/svg">
<path d="M26 4H6C5.46957 4 4.96086 4.21071 4.58579 4.58579C4.21071 4.96086 4 5.46957 4 6V26C4 26.5304 4.21071 27.0391 4.58579 27.4142C4.96086 27.7893 5.46957 28 6 28H26C26.5304 28 27.0391 27.7893 27.4142 27.4142C27.7893 27.0391 28 26.5304 28 26V6C28 5.46957 27.7893 4.96086 27.4142 4.58579C27.0391 4.21071 26.5304 4 26 4ZM16 23C13.2425 23 11 21.2062 11 19C11 18.7348 11.1054 18.4804 11.2929 18.2929C11.4804 18.1054 11.7348 18 12 18C12.2652 18 12.5196 18.1054 12.7071 18.2929C12.8946 18.4804 13 18.7348 13 19C13 20.0837 14.375 21 16 21C17.625 21 19 20.0837 19 19C19 17.815 17.9237 17.375 15.64 16.7175C13.6713 16.15 11.2225 15.4438 11.2225 13C11.2225 10.72 13.2762 9 16 9C17.965 9 19.6475 9.9125 20.39 11.375C20.4541 11.4926 20.4939 11.6218 20.5071 11.755C20.5202 11.8883 20.5065 12.0228 20.4667 12.1507C20.4269 12.2785 20.3619 12.3971 20.2754 12.4993C20.189 12.6015 20.0828 12.6853 19.9634 12.7458C19.8439 12.8062 19.7135 12.8421 19.5799 12.8512C19.4463 12.8603 19.3123 12.8425 19.1857 12.7988C19.0592 12.7551 18.9426 12.6865 18.8431 12.5969C18.7436 12.5074 18.663 12.3988 18.6063 12.2775C18.205 11.4925 17.2063 11 16 11C14.4163 11 13.2225 11.86 13.2225 13C13.2225 13.875 14.3475 14.2625 16.1938 14.795C18.2225 15.375 21 16.1812 21 19C21 21.2062 18.7575 23 16 23Z" fill="#4A4A4F"/>
</svg>
