<svg width="32" height="32" viewBox="0 0 32 32" fill="none" xmlns="http://www.w3.org/2000/svg">
<path d="M15 5V4C15 3.73478 15.1054 3.48043 15.2929 3.29289C15.4804 3.10536 15.7348 3 16 3C16.2652 3 16.5196 3.10536 16.7071 3.29289C16.8946 3.48043 17 3.73478 17 4V5C17 5.26522 16.8946 5.51957 16.7071 5.70711C16.5196 5.89464 16.2652 6 16 6C15.7348 6 15.4804 5.89464 15.2929 5.70711C15.1054 5.51957 15 5.26522 15 5ZM16 8C14.4177 8 12.871 8.46919 11.5554 9.34824C10.2398 10.2273 9.21447 11.4767 8.60896 12.9385C8.00346 14.4003 7.84504 16.0089 8.15372 17.5607C8.4624 19.1126 9.22433 20.538 10.3431 21.6569C11.462 22.7757 12.8874 23.5376 14.4393 23.8463C15.9911 24.155 17.5997 23.9965 19.0615 23.391C20.5233 22.7855 21.7727 21.7602 22.6518 20.4446C23.5308 19.129 24 17.5823 24 16C23.9977 13.879 23.1541 11.8455 21.6543 10.3457C20.1545 8.84591 18.121 8.00232 16 8ZM7.2925 8.7075C7.48014 8.89514 7.73464 9.00056 8 9.00056C8.26536 9.00056 8.51986 8.89514 8.7075 8.7075C8.89514 8.51986 9.00056 8.26536 9.00056 8C9.00056 7.73464 8.89514 7.48014 8.7075 7.2925L7.7075 6.2925C7.51986 6.10486 7.26536 5.99944 7 5.99944C6.73464 5.99944 6.48014 6.10486 6.2925 6.2925C6.10486 6.48014 5.99944 6.73464 5.99944 7C5.99944 7.26536 6.10486 7.51986 6.2925 7.7075L7.2925 8.7075ZM7.2925 23.2925L6.2925 24.2925C6.10486 24.4801 5.99944 24.7346 5.99944 25C5.99944 25.2654 6.10486 25.5199 6.2925 25.7075C6.48014 25.8951 6.73464 26.0006 7 26.0006C7.26536 26.0006 7.51986 25.8951 7.7075 25.7075L8.7075 24.7075C8.80041 24.6146 8.87411 24.5043 8.92439 24.3829C8.97468 24.2615 9.00056 24.1314 9.00056 24C9.00056 23.8686 8.97468 23.7385 8.92439 23.6171C8.87411 23.4957 8.80041 23.3854 8.7075 23.2925C8.61459 23.1996 8.50429 23.1259 8.3829 23.0756C8.2615 23.0253 8.13139 22.9994 8 22.9994C7.86861 22.9994 7.7385 23.0253 7.6171 23.0756C7.49571 23.1259 7.38541 23.1996 7.2925 23.2925ZM24 9C24.1314 9.0001 24.2615 8.97432 24.3829 8.92414C24.5042 8.87395 24.6146 8.80033 24.7075 8.7075L25.7075 7.7075C25.8951 7.51986 26.0006 7.26536 26.0006 7C26.0006 6.73464 25.8951 6.48014 25.7075 6.2925C25.5199 6.10486 25.2654 5.99944 25 5.99944C24.7346 5.99944 24.4801 6.10486 24.2925 6.2925L23.2925 7.2925C23.1525 7.43236 23.0571 7.61061 23.0185 7.80469C22.9798 7.99878 22.9996 8.19997 23.0754 8.38279C23.1511 8.56561 23.2794 8.72185 23.444 8.83172C23.6086 8.94159 23.8021 9.00016 24 9ZM24.7075 23.2925C24.5199 23.1049 24.2654 22.9994 24 22.9994C23.7346 22.9994 23.4801 23.1049 23.2925 23.2925C23.1049 23.4801 22.9994 23.7346 22.9994 24C22.9994 24.2654 23.1049 24.5199 23.2925 24.7075L24.2925 25.7075C24.3854 25.8004 24.4957 25.8741 24.6171 25.9244C24.7385 25.9747 24.8686 26.0006 25 26.0006C25.1314 26.0006 25.2615 25.9747 25.3829 25.9244C25.5043 25.8741 25.6146 25.8004 25.7075 25.7075C25.8004 25.6146 25.8741 25.5043 25.9244 25.3829C25.9747 25.2615 26.0006 25.1314 26.0006 25C26.0006 24.8686 25.9747 24.7385 25.9244 24.6171C25.8741 24.4957 25.8004 24.3854 25.7075 24.2925L24.7075 23.2925ZM5 15H4C3.73478 15 3.48043 15.1054 3.29289 15.2929C3.10536 15.4804 3 15.7348 3 16C3 16.2652 3.10536 16.5196 3.29289 16.7071C3.48043 16.8946 3.73478 17 4 17H5C5.26522 17 5.51957 16.8946 5.70711 16.7071C5.89464 16.5196 6 16.2652 6 16C6 15.7348 5.89464 15.4804 5.70711 15.2929C5.51957 15.1054 5.26522 15 5 15ZM16 26C15.7348 26 15.4804 26.1054 15.2929 26.2929C15.1054 26.4804 15 26.7348 15 27V28C15 28.2652 15.1054 28.5196 15.2929 28.7071C15.4804 28.8946 15.7348 29 16 29C16.2652 29 16.5196 28.8946 16.7071 28.7071C16.8946 28.5196 17 28.2652 17 28V27C17 26.7348 16.8946 26.4804 16.7071 26.2929C16.5196 26.1054 16.2652 26 16 26ZM28 15H27C26.7348 15 26.4804 15.1054 26.2929 15.2929C26.1054 15.4804 26 15.7348 26 16C26 16.2652 26.1054 16.5196 26.2929 16.7071C26.4804 16.8946 26.7348 17 27 17H28C28.2652 17 28.5196 16.8946 28.7071 16.7071C28.8946 16.5196 29 16.2652 29 16C29 15.7348 28.8946 15.4804 28.7071 15.2929C28.5196 15.1054 28.2652 15 28 15Z" fill="#4A4A4F"/>
</svg>
