<svg width="32" height="32" viewBox="0 0 32 32" fill="none" xmlns="http://www.w3.org/2000/svg">
<path d="M25 5C24.7348 5 24.4804 5.10536 24.2929 5.29289C24.1054 5.48043 24 5.73478 24 6C24 6.26522 24.1054 6.51957 24.2929 6.70711C24.4804 6.89464 24.7348 7 25 7C25.5304 7 26.0391 7.21071 26.4142 7.58579C26.7893 7.96086 27 8.46957 27 9V16H5V9C5 8.46957 5.21071 7.96086 5.58579 7.58579C5.96086 7.21071 6.46957 7 7 7C7.26522 7 7.51957 6.89464 7.70711 6.70711C7.89464 6.51957 8 6.26522 8 6C8 5.73478 7.89464 5.48043 7.70711 5.29289C7.51957 5.10536 7.26522 5 7 5C5.93913 5 4.92172 5.42143 4.17157 6.17157C3.42143 6.92172 3 7.93913 3 9V20.5C3 21.9587 3.57946 23.3576 4.61091 24.3891C5.64236 25.4205 7.04131 26 8.5 26C9.95869 26 11.3576 25.4205 12.3891 24.3891C13.4205 23.3576 14 21.9587 14 20.5V18H18V20.5C18 21.9587 18.5795 23.3576 19.6109 24.3891C20.6424 25.4205 22.0413 26 23.5 26C24.9587 26 26.3576 25.4205 27.3891 24.3891C28.4205 23.3576 29 21.9587 29 20.5V9C29 7.93913 28.5786 6.92172 27.8284 6.17157C27.0783 5.42143 26.0609 5 25 5ZM11.7075 22.7075C11.6146 22.8005 11.5043 22.8742 11.3829 22.9246C11.2615 22.9749 11.1314 23.0008 11 23.0008C10.8686 23.0008 10.7385 22.9749 10.6171 22.9246C10.4957 22.8742 10.3854 22.8005 10.2925 22.7075L7.2925 19.7075C7.10486 19.5199 6.99944 19.2654 6.99944 19C6.99944 18.7346 7.10486 18.4801 7.2925 18.2925C7.48014 18.1049 7.73464 17.9994 8 17.9994C8.26536 17.9994 8.51986 18.1049 8.7075 18.2925L11.7075 21.2925C11.8005 21.3854 11.8742 21.4957 11.9246 21.6171C11.9749 21.7385 12.0008 21.8686 12.0008 22C12.0008 22.1314 11.9749 22.2615 11.9246 22.3829C11.8742 22.5043 11.8005 22.6146 11.7075 22.7075ZM26.7075 22.7075C26.6146 22.8005 26.5043 22.8742 26.3829 22.9246C26.2615 22.9749 26.1314 23.0008 26 23.0008C25.8686 23.0008 25.7385 22.9749 25.6171 22.9246C25.4957 22.8742 25.3854 22.8005 25.2925 22.7075L22.2925 19.7075C22.1049 19.5199 21.9994 19.2654 21.9994 19C21.9994 18.7346 22.1049 18.4801 22.2925 18.2925C22.4801 18.1049 22.7346 17.9994 23 17.9994C23.2654 17.9994 23.5199 18.1049 23.7075 18.2925L26.7075 21.2925C26.8005 21.3854 26.8742 21.4957 26.9246 21.6171C26.9749 21.7385 27.0008 21.8686 27.0008 22C27.0008 22.1314 26.9749 22.2615 26.9246 22.3829C26.8742 22.5043 26.8005 22.6146 26.7075 22.7075Z" fill="#4A4A4F"/>
</svg>
