<svg width="32" height="32" viewBox="0 0 32 32" fill="none" xmlns="http://www.w3.org/2000/svg">
<path d="M31 20.0002C31 20.2654 30.8946 20.5197 30.7071 20.7073C30.5196 20.8948 30.2652 21.0002 30 21.0002H2C1.73478 21.0002 1.48043 20.8948 1.29289 20.7073C1.10536 20.5197 1 20.2654 1 20.0002C1 19.7349 1.10536 19.4806 1.29289 19.293C1.48043 19.1055 1.73478 19.0002 2 19.0002H7.05625C7.01934 18.6681 7.00056 18.3343 7 18.0002C7 15.6132 7.94821 13.324 9.63604 11.6362C11.3239 9.94836 13.6131 9.00015 16 9.00015C18.3869 9.00015 20.6761 9.94836 22.364 11.6362C24.0518 13.324 25 15.6132 25 18.0002C24.9994 18.3343 24.9807 18.6681 24.9438 19.0002H30C30.2652 19.0002 30.5196 19.1055 30.7071 19.293C30.8946 19.4806 31 19.7349 31 20.0002ZM26 24.0002H6C5.73478 24.0002 5.48043 24.1055 5.29289 24.293C5.10536 24.4806 5 24.7349 5 25.0002C5 25.2654 5.10536 25.5197 5.29289 25.7073C5.48043 25.8948 5.73478 26.0002 6 26.0002H26C26.2652 26.0002 26.5196 25.8948 26.7071 25.7073C26.8946 25.5197 27 25.2654 27 25.0002C27 24.7349 26.8946 24.4806 26.7071 24.293C26.5196 24.1055 26.2652 24.0002 26 24.0002ZM10.105 7.44765C10.1638 7.56519 10.2451 7.66999 10.3444 7.75609C10.4436 7.84219 10.5589 7.90789 10.6836 7.94944C10.8082 7.991 10.9399 8.00759 11.0709 7.99828C11.202 7.98896 11.33 7.95392 11.4475 7.89515C11.565 7.83639 11.6698 7.75505 11.7559 7.65577C11.842 7.5565 11.9077 7.44125 11.9493 7.31658C11.9908 7.19192 12.0074 7.06029 11.9981 6.92922C11.9888 6.79814 11.9538 6.67019 11.895 6.55265L10.895 4.55265C10.7763 4.31528 10.5682 4.13478 10.3164 4.05086C10.0647 3.96694 9.78987 3.98647 9.5525 4.10515C9.31513 4.22384 9.13463 4.43196 9.05071 4.68372C8.96679 4.93549 8.98632 5.21028 9.105 5.44765L10.105 7.44765ZM2.5525 12.8952L4.5525 13.8952C4.7897 14.0138 5.06434 14.0334 5.31599 13.9496C5.56764 13.8658 5.77569 13.6855 5.89437 13.4483C6.01306 13.2111 6.03265 12.9364 5.94885 12.6848C5.86504 12.4331 5.6847 12.2251 5.4475 12.1064L3.4475 11.1064C3.33005 11.0476 3.20217 11.0126 3.07117 11.0032C2.94017 10.9939 2.80862 11.0104 2.68401 11.0519C2.55941 11.0934 2.4442 11.1591 2.34496 11.2451C2.24572 11.3311 2.16439 11.4358 2.10562 11.5533C2.04686 11.6707 2.0118 11.7986 2.00245 11.9296C1.99311 12.0606 2.00965 12.1922 2.05115 12.3168C2.09265 12.4414 2.15828 12.5566 2.2443 12.6558C2.33032 12.7551 2.43505 12.8364 2.5525 12.8952ZM27 14.0002C27.1549 14.0002 27.3076 13.9642 27.4463 13.8952L29.4463 12.8952C29.5637 12.8364 29.6684 12.7551 29.7544 12.6558C29.8405 12.5566 29.9061 12.4414 29.9476 12.3168C29.9891 12.1922 30.0056 12.0606 29.9963 11.9296C29.9869 11.7986 29.9519 11.6707 29.8931 11.5533C29.8344 11.4358 29.753 11.3311 29.6538 11.2451C29.5546 11.1591 29.4393 11.0934 29.3147 11.0519C29.1901 11.0104 29.0586 10.9939 28.9276 11.0032C28.7966 11.0126 28.6687 11.0476 28.5513 11.1064L26.5513 12.1064C26.35 12.2074 26.1888 12.3734 26.0936 12.5774C25.9984 12.7814 25.9748 13.0116 26.0268 13.2307C26.0787 13.4498 26.203 13.645 26.3796 13.7846C26.5563 13.9243 26.7748 14.0002 27 14.0002ZM20.5525 7.89515C20.67 7.95401 20.798 7.98912 20.9291 7.99847C21.0602 8.00783 21.1918 7.99126 21.3165 7.9497C21.4412 7.90813 21.5565 7.8424 21.6557 7.75626C21.755 7.67011 21.8363 7.56525 21.895 7.44765L22.895 5.44765C23.0137 5.21028 23.0332 4.93549 22.9493 4.68372C22.8654 4.43196 22.6849 4.22384 22.4475 4.10515C22.2101 3.98647 21.9353 3.96694 21.6836 4.05086C21.4318 4.13478 21.2237 4.31528 21.105 4.55265L20.105 6.55265C20.0461 6.67017 20.011 6.79814 20.0017 6.92923C19.9923 7.06033 20.0089 7.19198 20.0505 7.31667C20.092 7.44135 20.1578 7.55662 20.2439 7.65588C20.33 7.75514 20.4349 7.83645 20.5525 7.89515Z" fill="#4A4A4F"/>
</svg>
