<svg width="32" height="32" viewBox="0 0 32 32" fill="none" xmlns="http://www.w3.org/2000/svg">
<path d="M30 19.0002H24.9438C24.9807 18.6681 24.9994 18.3343 25 18.0002C25 15.6132 24.0518 13.324 22.364 11.6362C20.6761 9.94836 18.3869 9.00015 16 9.00015C13.6131 9.00015 11.3239 9.94836 9.63604 11.6362C7.94821 13.324 7 15.6132 7 18.0002C7.00056 18.3343 7.01934 18.6681 7.05625 19.0002H2C1.73478 19.0002 1.48043 19.1055 1.29289 19.293C1.10536 19.4806 1 19.7349 1 20.0002C1 20.2654 1.10536 20.5197 1.29289 20.7073C1.48043 20.8948 1.73478 21.0002 2 21.0002H30C30.2652 21.0002 30.5196 20.8948 30.7071 20.7073C30.8946 20.5197 31 20.2654 31 20.0002C31 19.7349 30.8946 19.4806 30.7071 19.293C30.5196 19.1055 30.2652 19.0002 30 19.0002ZM9 18.0002C8.99816 17.0375 9.19489 16.0849 9.57788 15.2017C9.96087 14.3186 10.5219 13.5239 11.2259 12.8674C11.9299 12.2109 12.7618 11.7066 13.6695 11.3861C14.5772 11.0657 15.5412 10.9358 16.5013 11.0048C17.4615 11.0737 18.3971 11.34 19.2497 11.7868C20.1023 12.2337 20.8536 12.8517 21.4565 13.602C22.0595 14.3524 22.5012 15.2191 22.7541 16.1479C23.007 17.0767 23.0656 18.0477 22.9263 19.0002H9.07375C9.02535 18.669 9.0007 18.3348 9 18.0002ZM27 25.0002C27 25.2654 26.8946 25.5197 26.7071 25.7073C26.5196 25.8948 26.2652 26.0002 26 26.0002H6C5.73478 26.0002 5.48043 25.8948 5.29289 25.7073C5.10536 25.5197 5 25.2654 5 25.0002C5 24.7349 5.10536 24.4806 5.29289 24.293C5.48043 24.1055 5.73478 24.0002 6 24.0002H26C26.2652 24.0002 26.5196 24.1055 26.7071 24.293C26.8946 24.4806 27 24.7349 27 25.0002ZM9.105 5.44765C8.98632 5.21028 8.96679 4.93549 9.05071 4.68372C9.13463 4.43196 9.31513 4.22384 9.5525 4.10515C9.78987 3.98647 10.0647 3.96694 10.3164 4.05086C10.5682 4.13478 10.7763 4.31528 10.895 4.55265L11.895 6.55265C11.9538 6.67019 11.9888 6.79814 11.9981 6.92922C12.0074 7.06029 11.9908 7.19192 11.9493 7.31658C11.9077 7.44125 11.842 7.5565 11.7559 7.65577C11.6698 7.75505 11.565 7.83639 11.4475 7.89515C11.33 7.95392 11.202 7.98896 11.0709 7.99828C10.9399 8.00759 10.8082 7.991 10.6836 7.94944C10.5589 7.90789 10.4436 7.84219 10.3444 7.75609C10.2451 7.66999 10.1638 7.56519 10.105 7.44765L9.105 5.44765ZM2.105 11.5527C2.16381 11.4352 2.2452 11.3304 2.34451 11.2444C2.44382 11.1584 2.55911 11.0928 2.68378 11.0513C2.80846 11.0099 2.94008 10.9934 3.07112 11.0029C3.20216 11.0123 3.33006 11.0475 3.4475 11.1064L5.4475 12.1064C5.6847 12.2251 5.86504 12.4331 5.94885 12.6848C6.03265 12.9364 6.01306 13.2111 5.89437 13.4483C5.77569 13.6855 5.56764 13.8658 5.31599 13.9496C5.06434 14.0334 4.7897 14.0138 4.5525 13.8952L2.5525 12.8952C2.43491 12.8365 2.33004 12.7551 2.2439 12.6559C2.15775 12.5566 2.09202 12.4414 2.05046 12.3167C2.0089 12.192 1.99232 12.0603 2.00168 11.9292C2.01104 11.7981 2.04615 11.6702 2.105 11.5527ZM26.105 13.4477C25.9865 13.2104 25.9671 12.9359 26.051 12.6844C26.135 12.4329 26.3153 12.225 26.5525 12.1064L28.5525 11.1064C28.67 11.0476 28.7978 11.0126 28.9288 11.0032C29.0598 10.9939 29.1914 11.0104 29.316 11.0519C29.4406 11.0934 29.5558 11.1591 29.655 11.2451C29.7543 11.3311 29.8356 11.4358 29.8944 11.5533C29.9531 11.6707 29.9882 11.7986 29.9975 11.9296C30.0069 12.0606 29.9903 12.1922 29.9488 12.3168C29.9074 12.4414 29.8417 12.5566 29.7557 12.6558C29.6697 12.7551 29.565 12.8364 29.4475 12.8952L27.4475 13.8952C27.33 13.954 27.202 13.9891 27.0709 13.9985C26.9398 14.0078 26.8082 13.9913 26.6835 13.9497C26.5588 13.9081 26.4435 13.8424 26.3443 13.7563C26.245 13.6701 26.1637 13.5652 26.105 13.4477ZM20.105 6.55265L21.105 4.55265C21.2237 4.31528 21.4318 4.13478 21.6836 4.05086C21.9353 3.96694 22.2101 3.98647 22.4475 4.10515C22.6849 4.22384 22.8654 4.43196 22.9493 4.68372C23.0332 4.93549 23.0137 5.21028 22.895 5.44765L21.895 7.44765C21.7763 7.68502 21.5682 7.86552 21.3164 7.94944C21.0647 8.03337 20.7899 8.01384 20.5525 7.89515C20.3151 7.77647 20.1346 7.56835 20.0507 7.31658C19.9668 7.06482 19.9863 6.79002 20.105 6.55265Z" fill="#4A4A4F"/>
</svg>
