<svg width="32" height="32" viewBox="0 0 32 32" fill="none" xmlns="http://www.w3.org/2000/svg">
<path d="M3 21C3 20.7348 3.10536 20.4804 3.29289 20.2929C3.48043 20.1054 3.73478 20 4 20C5.8025 20 6.77375 20.6475 7.555 21.1675C8.25 21.6325 8.8025 22 10 22C11.1975 22 11.75 21.6325 12.445 21.1675C13.225 20.6475 14.195 20 15.9987 20C17.8025 20 18.7737 20.6475 19.5537 21.1675C20.2512 21.6325 20.8037 22 22 22C23.1963 22 23.75 21.6325 24.445 21.1675C25.2262 20.6475 26.195 20 28 20C28.2652 20 28.5196 20.1054 28.7071 20.2929C28.8946 20.4804 29 20.7348 29 21C29 21.2652 28.8946 21.5196 28.7071 21.7071C28.5196 21.8946 28.2652 22 28 22C26.8025 22 26.25 22.3675 25.555 22.8325C24.7738 23.3525 23.805 24 22 24C20.195 24 19.225 23.3525 18.445 22.8325C17.75 22.3675 17.1962 22 16 22C14.8038 22 14.25 22.3675 13.555 22.8325C12.775 23.3525 11.805 24 10.0013 24C8.1975 24 7.2275 23.3525 6.44625 22.8325C5.75 22.3675 5.1975 22 4 22C3.73478 22 3.48043 21.8946 3.29289 21.7071C3.10536 21.5196 3 21.2652 3 21ZM28 25C26.1975 25 25.2262 25.6475 24.445 26.1675C23.75 26.6325 23.1975 27 22 27C20.8025 27 20.25 26.6325 19.5537 26.1675C18.7737 25.6475 17.8038 25 15.9987 25C14.1937 25 13.225 25.6475 12.445 26.1675C11.75 26.6325 11.1962 27 10 27C8.80375 27 8.25 26.6325 7.555 26.1675C6.77375 25.6475 5.8025 25 4 25C3.73478 25 3.48043 25.1054 3.29289 25.2929C3.10536 25.4804 3 25.7348 3 26C3 26.2652 3.10536 26.5196 3.29289 26.7071C3.48043 26.8946 3.73478 27 4 27C5.1975 27 5.75 27.3675 6.445 27.8325C7.22625 28.3525 8.195 29 10 29C11.805 29 12.7738 28.3525 13.5538 27.8325C14.2513 27.3675 14.8038 27 15.9987 27C17.1937 27 17.7487 27.3675 18.445 27.8325C19.225 28.3525 20.195 29 22 29C23.805 29 24.7738 28.3525 25.555 27.8325C26.2513 27.3675 26.805 27 28 27C28.2652 27 28.5196 26.8946 28.7071 26.7071C28.8946 26.5196 29 26.2652 29 26C29 25.7348 28.8946 25.4804 28.7071 25.2929C28.5196 25.1054 28.2652 25 28 25ZM10 17.6737V4C10 3.73478 10.1054 3.48043 10.2929 3.29289C10.4804 3.10536 10.7348 3 11 3C11.2652 3 11.5196 3.10536 11.7071 3.29289C11.8946 3.48043 12 3.73478 12 4V5H20V4C20 3.73478 20.1054 3.48043 20.2929 3.29289C20.4804 3.10536 20.7348 3 21 3C21.2652 3 21.5196 3.10536 21.7071 3.29289C21.8946 3.48043 22 3.73478 22 4V17.9112C22 18.1765 21.8946 18.4308 21.7071 18.6184C21.5196 18.8059 21.2652 18.9112 21 18.9112C20.7348 18.9112 20.4804 18.8059 20.2929 18.6184C20.1054 18.4308 20 18.1765 20 17.9112V17H12V17.6737C12 17.939 11.8946 18.1933 11.7071 18.3809C11.5196 18.5684 11.2652 18.6737 11 18.6737C10.7348 18.6737 10.4804 18.5684 10.2929 18.3809C10.1054 18.1933 10 17.939 10 17.6737ZM12 9C12 9.26522 12.1054 9.51957 12.2929 9.70711C12.4804 9.89464 12.7348 10 13 10H19C19.2652 10 19.5196 9.89464 19.7071 9.70711C19.8946 9.51957 20 9.26522 20 9C20 8.73478 19.8946 8.48043 19.7071 8.29289C19.5196 8.10536 19.2652 8 19 8H13C12.7348 8 12.4804 8.10536 12.2929 8.29289C12.1054 8.48043 12 8.73478 12 9ZM12 13C12 13.2652 12.1054 13.5196 12.2929 13.7071C12.4804 13.8946 12.7348 14 13 14H19C19.2652 14 19.5196 13.8946 19.7071 13.7071C19.8946 13.5196 20 13.2652 20 13C20 12.7348 19.8946 12.4804 19.7071 12.2929C19.5196 12.1054 19.2652 12 19 12H13C12.7348 12 12.4804 12.1054 12.2929 12.2929C12.1054 12.4804 12 12.7348 12 13Z" fill="#4A4A4F"/>
</svg>
