<svg width="32" height="32" viewBox="0 0 32 32" fill="none" xmlns="http://www.w3.org/2000/svg">
<path d="M29.6625 17.11L24.33 25.11C24.1473 25.3838 23.8999 25.6083 23.6097 25.7635C23.3194 25.9188 22.9954 26 22.6662 26H2.99999C2.81755 26 2.63859 25.9501 2.48248 25.8557C2.32637 25.7613 2.19906 25.6259 2.11435 25.4643C2.02963 25.3028 1.99073 25.1211 2.00186 24.939C2.01299 24.7569 2.07373 24.5813 2.17749 24.4312L7.99999 16L2.17749 7.56875C2.07373 7.41869 2.01299 7.24311 2.00186 7.061C1.99073 6.8789 2.02963 6.69723 2.11435 6.53565C2.19906 6.37407 2.32637 6.23875 2.48248 6.14433C2.63859 6.04991 2.81755 6 2.99999 6H22.6662C22.9954 5.99999 23.3194 6.08122 23.6097 6.23647C23.8999 6.39172 24.1473 6.6162 24.33 6.89L29.6625 14.89C29.8818 15.2187 29.9988 15.6049 29.9988 16C29.9988 16.3951 29.8818 16.7813 29.6625 17.11Z" fill="#4A4A4F"/>
</svg>
