<svg width="32" height="32" viewBox="0 0 32 32" fill="none" xmlns="http://www.w3.org/2000/svg">
<path d="M3.10114 14.4262C3.45023 11.5432 4.75548 8.86044 6.80838 6.80641C8.86127 4.75238 11.5434 3.44564 14.4261 3.09496C14.4944 3.08681 14.5636 3.09283 14.6294 3.11264C14.6953 3.13244 14.7563 3.16561 14.8088 3.21007C14.8612 3.25453 14.9039 3.30932 14.9342 3.37103C14.9645 3.43274 14.9818 3.50004 14.9849 3.56871C15.0467 5.08381 14.794 6.59529 14.2426 8.00785C13.6912 9.42042 12.8532 10.7034 11.7813 11.776C10.7095 12.8486 9.42699 13.6875 8.01479 14.2398C6.60258 14.7921 5.09127 15.0458 3.57614 14.985C3.50735 14.982 3.43992 14.9649 3.37806 14.9346C3.31621 14.9044 3.26126 14.8617 3.21667 14.8093C3.17208 14.7568 3.1388 14.6957 3.11892 14.6298C3.09904 14.5639 3.09298 14.4946 3.10114 14.4262ZM28.4186 17.0137C28.2786 17.0137 28.1399 17.005 27.9999 17.005C26.5192 17.0031 25.0535 17.3007 23.6908 17.8799C22.3281 18.459 21.0966 19.3079 20.0704 20.3753C19.0443 21.4427 18.2446 22.7066 17.7195 24.091C17.1944 25.4754 16.9547 26.9518 17.0149 28.4312C17.018 28.4999 17.0353 28.5672 17.0656 28.6289C17.0959 28.6906 17.1386 28.7454 17.191 28.7899C17.2435 28.8343 17.3045 28.8675 17.3703 28.8873C17.4362 28.9071 17.5054 28.9131 17.5736 28.905C20.4566 28.5542 23.1388 27.2473 25.1917 25.193C27.2447 23.1388 28.5498 20.4557 28.8986 17.5725C28.9068 17.5037 28.9006 17.434 28.8804 17.3677C28.8602 17.3015 28.8265 17.2402 28.7814 17.1876C28.7363 17.1351 28.6807 17.0925 28.6183 17.0626C28.5558 17.0326 28.4879 17.016 28.4186 17.0137ZM18.8074 18.8075C20.0118 17.5966 21.4444 16.6366 23.0223 15.983C24.6002 15.3295 26.292 14.9953 27.9999 15C28.1249 15 28.2574 15 28.3861 15C28.4578 15.0025 28.5292 14.9897 28.5955 14.9622C28.6618 14.9347 28.7213 14.8933 28.7702 14.8408C28.8191 14.7883 28.856 14.7258 28.8786 14.6578C28.9012 14.5897 28.9089 14.5175 28.9011 14.4462C28.5565 11.5527 27.2489 8.85907 25.1885 6.79846C23.1281 4.73784 20.4346 3.42992 17.5411 3.08496C17.4698 3.07721 17.3977 3.08488 17.3296 3.10748C17.2615 3.13007 17.1991 3.16705 17.1466 3.2159C17.094 3.26475 17.0526 3.32434 17.0252 3.3906C16.9977 3.45687 16.9848 3.52828 16.9874 3.59996C17.0442 5.37264 16.7368 7.13812 16.084 8.78722C15.4313 10.4363 14.4471 11.9339 13.1924 13.1875C11.9884 14.3992 10.556 15.3602 8.97806 16.0146C7.40015 16.669 5.70811 17.0039 3.99989 17C3.87489 17 3.74239 17 3.61364 17C3.54195 16.9974 3.47054 17.0103 3.40428 17.0377C3.33801 17.0652 3.27842 17.1066 3.22957 17.1591C3.18072 17.2117 3.14374 17.2741 3.12115 17.3422C3.09856 17.4103 3.09088 17.4824 3.09864 17.5537C3.44327 20.4473 4.7509 23.1409 6.81129 25.2015C8.87168 27.2621 11.5651 28.57 14.4586 28.915C14.5299 28.9227 14.6021 28.915 14.6702 28.8925C14.7383 28.8699 14.8007 28.8329 14.8532 28.784C14.9057 28.7352 14.9471 28.6756 14.9746 28.6093C15.0021 28.5431 15.015 28.4717 15.0124 28.4C14.9548 26.6265 15.262 24.86 15.9148 23.21C16.5675 21.56 17.5521 20.0616 18.8074 18.8075Z" fill="#4A4A4F"/>
</svg>
