<svg width="32" height="32" viewBox="0 0 32 32" fill="none" xmlns="http://www.w3.org/2000/svg">
<path d="M14.6639 16.75L5.66388 24.75C5.56539 24.8372 5.45068 24.9042 5.32629 24.9471C5.20191 24.9901 5.07029 25.0081 4.93896 25.0001C4.80762 24.9922 4.67914 24.9584 4.56084 24.9008C4.44254 24.8432 4.33675 24.7629 4.2495 24.6644C4.16226 24.5659 4.09526 24.4512 4.05235 24.3268C4.00943 24.2024 3.99144 24.0708 3.99939 23.9394C4.00734 23.8081 4.04108 23.6796 4.09869 23.5613C4.15629 23.443 4.23664 23.3372 4.33513 23.25L12.5001 16L4.33638 8.74999C4.23789 8.66274 4.15755 8.55695 4.09994 8.43866C4.04233 8.32036 4.00859 8.19187 4.00064 8.06054C3.99269 7.9292 4.01068 7.79758 4.0536 7.6732C4.09651 7.54882 4.16351 7.43411 4.25075 7.33562C4.338 7.23713 4.44379 7.15678 4.56209 7.09918C4.68039 7.04157 4.80887 7.00783 4.94021 6.99988C5.07154 6.99193 5.20316 7.00992 5.32754 7.05284C5.45193 7.09575 5.56664 7.16274 5.66513 7.24999L14.6651 15.25C14.7715 15.3438 14.8568 15.4592 14.9151 15.5886C14.9735 15.7179 15.0037 15.8581 15.0037 16C15.0037 16.1419 14.9735 16.2821 14.9151 16.4114C14.8568 16.5407 14.7715 16.6562 14.6651 16.75H14.6639ZM27.0001 23H15.0001C14.7349 23 14.4806 23.1053 14.293 23.2929C14.1055 23.4804 14.0001 23.7348 14.0001 24C14.0001 24.2652 14.1055 24.5196 14.293 24.7071C14.4806 24.8946 14.7349 25 15.0001 25H27.0001C27.2653 25 27.5197 24.8946 27.7072 24.7071C27.8948 24.5196 28.0001 24.2652 28.0001 24C28.0001 23.7348 27.8948 23.4804 27.7072 23.2929C27.5197 23.1053 27.2653 23 27.0001 23Z" fill="#4A4A4F"/>
</svg>
