<svg width="32" height="32" viewBox="0 0 32 32" fill="none" xmlns="http://www.w3.org/2000/svg">
<path d="M19 7V22C19 22.2652 18.8946 22.5196 18.7071 22.7071C18.5196 22.8946 18.2652 23 18 23C17.7348 23 17.4804 22.8946 17.2929 22.7071C17.1054 22.5196 17 22.2652 17 22V15.5H6V22C6 22.2652 5.89464 22.5196 5.70711 22.7071C5.51957 22.8946 5.26522 23 5 23C4.73478 23 4.48043 22.8946 4.29289 22.7071C4.10536 22.5196 4 22.2652 4 22V7C4 6.73478 4.10536 6.48043 4.29289 6.29289C4.48043 6.10536 4.73478 6 5 6C5.26522 6 5.51957 6.10536 5.70711 6.29289C5.89464 6.48043 6 6.73478 6 7V13.5H17V7C17 6.73478 17.1054 6.48043 17.2929 6.29289C17.4804 6.10536 17.7348 6 18 6C18.2652 6 18.5196 6.10536 18.7071 6.29289C18.8946 6.48043 19 6.73478 19 7ZM30 25H26L30.1938 19.4075C30.5405 18.9468 30.7836 18.4166 30.9063 17.8532C31.029 17.2897 31.0284 16.7065 30.9046 16.1433C30.7808 15.5801 30.5367 15.0504 30.1891 14.5903C29.8414 14.1303 29.3984 13.7509 28.8904 13.4781C28.3824 13.2052 27.8215 13.0455 27.246 13.0097C26.6704 12.9739 26.094 13.063 25.5561 13.2709C25.0183 13.4787 24.5317 13.8004 24.1298 14.2138C23.7278 14.6273 23.4201 15.1227 23.2275 15.6663C23.181 15.7906 23.1597 15.923 23.1649 16.0557C23.1702 16.1884 23.2017 16.3187 23.2579 16.4391C23.314 16.5594 23.3935 16.6674 23.4918 16.7567C23.5901 16.846 23.7052 16.9148 23.8304 16.9591C23.9555 17.0034 24.0883 17.0224 24.2209 17.0148C24.3535 17.0073 24.4832 16.9735 24.6026 16.9152C24.7219 16.857 24.8285 16.7756 24.916 16.6758C25.0036 16.576 25.0704 16.4597 25.1125 16.3337C25.1816 16.141 25.2793 15.9598 25.4025 15.7963C25.5585 15.581 25.7559 15.399 25.9831 15.2609C26.2103 15.1228 26.4628 15.0315 26.7257 14.9921C26.9887 14.9527 27.2568 14.9662 27.5145 15.0317C27.7721 15.0972 28.0142 15.2134 28.2264 15.3735C28.4386 15.5336 28.6168 15.7345 28.7505 15.9643C28.8842 16.1941 28.9708 16.4482 29.0051 16.7119C29.0394 16.9755 29.0208 17.2434 28.9504 17.4997C28.88 17.7561 28.7592 17.9959 28.595 18.205L23.2 25.4C23.0886 25.5486 23.0207 25.7252 23.004 25.9102C22.9874 26.0952 23.0225 26.2811 23.1056 26.4472C23.1886 26.6133 23.3163 26.753 23.4743 26.8507C23.6322 26.9483 23.8143 27 24 27H30C30.2652 27 30.5196 26.8946 30.7071 26.7071C30.8946 26.5196 31 26.2652 31 26C31 25.7348 30.8946 25.4804 30.7071 25.2929C30.5196 25.1054 30.2652 25 30 25Z" fill="#4A4A4F"/>
</svg>
