<svg width="32" height="32" viewBox="0 0 32 32" fill="none" xmlns="http://www.w3.org/2000/svg">
<path d="M26 4H6C5.46957 4 4.96086 4.21071 4.58579 4.58579C4.21071 4.96086 4 5.46957 4 6V26C4 26.5304 4.21071 27.0391 4.58579 27.4142C4.96086 27.7893 5.46957 28 6 28H26C26.5304 28 27.0391 27.7893 27.4142 27.4142C27.7893 27.0391 28 26.5304 28 26V6C28 5.46957 27.7893 4.96086 27.4142 4.58579C27.0391 4.21071 26.5304 4 26 4ZM16 20C16 20.2652 15.8946 20.5196 15.7071 20.7071C15.5196 20.8946 15.2652 21 15 21C14.7348 21 14.4804 20.8946 14.2929 20.7071C14.1054 20.5196 14 20.2652 14 20V16H9V20C9 20.2652 8.89464 20.5196 8.70711 20.7071C8.51957 20.8946 8.26522 21 8 21C7.73478 21 7.48043 20.8946 7.29289 20.7071C7.10536 20.5196 7 20.2652 7 20V10C7 9.73478 7.10536 9.48043 7.29289 9.29289C7.48043 9.10536 7.73478 9 8 9C8.26522 9 8.51957 9.10536 8.70711 9.29289C8.89464 9.48043 9 9.73478 9 10V14H14V10C14 9.73478 14.1054 9.48043 14.2929 9.29289C14.4804 9.10536 14.7348 9 15 9C15.2652 9 15.5196 9.10536 15.7071 9.29289C15.8946 9.48043 16 9.73478 16 10V20ZM21 15C21.6484 15.0001 22.287 15.1578 22.8609 15.4596C23.4348 15.7613 23.9267 16.198 24.2943 16.7321C24.6619 17.2662 24.8942 17.8816 24.9711 18.5254C25.048 19.1692 24.9673 19.822 24.7359 20.4277C24.5045 21.0334 24.1293 21.5737 23.6427 22.0022C23.156 22.4306 22.5725 22.7344 21.9425 22.8872C21.3124 23.0401 20.6546 23.0375 20.0257 22.8797C19.3968 22.7219 18.8157 22.4135 18.3325 21.9813C18.1397 21.8031 18.0248 21.5563 18.0123 21.2942C17.9999 21.032 18.0911 20.7755 18.2661 20.5799C18.4412 20.3843 18.6861 20.2654 18.948 20.2489C19.21 20.2323 19.4679 20.3193 19.6663 20.4912C19.9549 20.7458 20.3109 20.9117 20.6915 20.969C21.0721 21.0263 21.4612 20.9725 21.812 20.8141C22.1628 20.6558 22.4605 20.3995 22.6693 20.0762C22.8781 19.7529 22.9891 19.3761 22.9891 18.9912C22.9891 18.6064 22.8781 18.2296 22.6693 17.9063C22.4605 17.583 22.1628 17.3267 21.812 17.1684C21.4612 17.01 21.0721 16.9562 20.6915 17.0135C20.3109 17.0708 19.9549 17.2367 19.6663 17.4912C19.5092 17.6322 19.3117 17.7198 19.1019 17.7416C18.892 17.7635 18.6807 17.7184 18.498 17.6129C18.3154 17.5073 18.1708 17.3467 18.0849 17.154C17.999 16.9613 17.9763 16.7464 18.02 16.54L19.02 11.79C19.0681 11.566 19.1917 11.3653 19.3701 11.2215C19.5485 11.0777 19.7709 10.9995 20 11H24C24.2652 11 24.5196 11.1054 24.7071 11.2929C24.8946 11.4804 25 11.7348 25 12C25 12.2652 24.8946 12.5196 24.7071 12.7071C24.5196 12.8946 24.2652 13 24 13H20.8113L20.375 15.0463C20.5819 15.0155 20.7908 15.0001 21 15Z" fill="#4A4A4F"/>
</svg>
