<svg width="32" height="32" viewBox="0 0 32 32" fill="none" xmlns="http://www.w3.org/2000/svg">
<path d="M26 4H6C5.46957 4 4.96086 4.21071 4.58579 4.58579C4.21071 4.96086 4 5.46957 4 6V26C4 26.5304 4.21071 27.0391 4.58579 27.4142C4.96086 27.7893 5.46957 28 6 28H26C26.5304 28 27.0391 27.7893 27.4142 27.4142C27.7893 27.0391 28 26.5304 28 26V6C28 5.46957 27.7893 4.96086 27.4142 4.58579C27.0391 4.21071 26.5304 4 26 4ZM16 20C16 20.2652 15.8946 20.5196 15.7071 20.7071C15.5196 20.8946 15.2652 21 15 21C14.7348 21 14.4804 20.8946 14.2929 20.7071C14.1054 20.5196 14 20.2652 14 20V16H9V20C9 20.2652 8.89464 20.5196 8.70711 20.7071C8.51957 20.8946 8.26522 21 8 21C7.73478 21 7.48043 20.8946 7.29289 20.7071C7.10536 20.5196 7 20.2652 7 20V10C7 9.73478 7.10536 9.48043 7.29289 9.29289C7.48043 9.10536 7.73478 9 8 9C8.26522 9 8.51957 9.10536 8.70711 9.29289C8.89464 9.48043 9 9.73478 9 10V14H14V10C14 9.73478 14.1054 9.48043 14.2929 9.29289C14.4804 9.10536 14.7348 9 15 9C15.2652 9 15.5196 9.10536 15.7071 9.29289C15.8946 9.48043 16 9.73478 16 10V20ZM21 23C20.0158 23.0002 19.0661 22.6374 18.3325 21.9813C18.1349 21.8042 18.0157 21.5559 18.0012 21.291C17.9867 21.0262 18.078 20.7663 18.255 20.5688C18.432 20.3712 18.6803 20.252 18.9452 20.2375C19.2101 20.2229 19.4699 20.3142 19.6675 20.4912C19.9092 20.7073 20.1998 20.8613 20.5143 20.9401C20.8287 21.0188 21.1576 21.02 21.4726 20.9434C21.7876 20.8669 22.0793 20.7149 22.3225 20.5006C22.5657 20.2862 22.7532 20.016 22.8688 19.7132C22.9844 19.4103 23.0246 19.0839 22.986 18.762C22.9474 18.4402 22.8312 18.1325 22.6473 17.8655C22.4635 17.5985 22.2174 17.3803 21.9305 17.2295C21.6435 17.0787 21.3242 17 21 17C20.8143 17 20.6322 16.9483 20.4743 16.8507C20.3163 16.753 20.1886 16.6133 20.1056 16.4472C20.0225 16.2811 19.9874 16.0952 20.004 15.9102C20.0207 15.7252 20.0886 15.5486 20.2 15.4L22 13H19C18.7348 13 18.4804 12.8946 18.2929 12.7071C18.1054 12.5196 18 12.2652 18 12C18 11.7348 18.1054 11.4804 18.2929 11.2929C18.4804 11.1054 18.7348 11 19 11H24C24.1857 11 24.3678 11.0517 24.5257 11.1493C24.6837 11.247 24.8114 11.3867 24.8944 11.5528C24.9775 11.7189 25.0126 11.9048 24.996 12.0898C24.9793 12.2748 24.9114 12.4514 24.8 12.6L22.7113 15.385C23.5321 15.7738 24.1962 16.4304 24.5943 17.2468C24.9924 18.0632 25.1008 18.9908 24.9017 19.877C24.7025 20.7632 24.2077 21.5552 23.4986 22.1228C22.7895 22.6904 21.9083 22.9998 21 23Z" fill="#4A4A4F"/>
</svg>
