<svg width="32" height="32" viewBox="0 0 32 32" fill="none" xmlns="http://www.w3.org/2000/svg">
<path d="M25 19.5C25 20.3125 24.0837 21 23 21C21.9163 21 21 20.3125 21 19.5C21 18.6875 21.9163 18 23 18C24.0837 18 25 18.6875 25 19.5ZM9.20125 17H13.7987L11.5 11.5662L9.20125 17ZM29 7V25C29 25.5304 28.7893 26.0391 28.4142 26.4142C28.0391 26.7893 27.5304 27 27 27H5C4.46957 27 3.96086 26.7893 3.58579 26.4142C3.21071 26.0391 3 25.5304 3 25V7C3 6.46957 3.21071 5.96086 3.58579 5.58579C3.96086 5.21071 4.46957 5 5 5H27C27.5304 5 28.0391 5.21071 28.4142 5.58579C28.7893 5.96086 29 6.46957 29 7ZM17.9212 21.61L12.4213 8.61C12.3448 8.42886 12.2166 8.27429 12.0527 8.16561C11.8889 8.05693 11.6966 7.99897 11.5 7.99897C11.3034 7.99897 11.1111 8.05693 10.9473 8.16561C10.7834 8.27429 10.6552 8.42886 10.5787 8.61L5.07875 21.61C4.97532 21.8543 4.97318 22.1297 5.07281 22.3757C5.17244 22.6216 5.36567 22.8178 5.61 22.9212C5.85433 23.0247 6.12974 23.0268 6.37565 22.9272C6.62156 22.8276 6.81782 22.6343 6.92125 22.39L8.355 19H14.645L16.0788 22.39C16.1822 22.6343 16.3784 22.8276 16.6243 22.9272C16.8703 23.0268 17.1457 23.0247 17.39 22.9212C17.6343 22.8178 17.8276 22.6216 17.9272 22.3757C18.0268 22.1297 18.0247 21.8543 17.9212 21.61ZM27 16.5C27 14.57 25.205 13 23 13C22.0671 12.9931 21.1566 13.2858 20.4025 13.835C20.1898 13.9935 20.0488 14.2299 20.0105 14.4924C19.9722 14.7548 20.0397 15.0217 20.1981 15.2344C20.3566 15.447 20.5931 15.5881 20.8555 15.6264C21.1179 15.6647 21.3848 15.5972 21.5975 15.4388C22.0062 15.1466 22.4977 14.9929 23 15C24.07 15 24.975 15.67 25 16.47C24.3797 16.1579 23.6944 15.9968 23 16C20.795 16 19 17.57 19 19.5C19 21.43 20.795 23 23 23C23.739 23.0034 24.4669 22.8202 25.1162 22.4675C25.2207 22.6648 25.3882 22.8214 25.592 22.9125C25.7958 23.0036 26.0242 23.0239 26.2409 22.9701C26.4575 22.9163 26.65 22.7916 26.7875 22.6158C26.9251 22.44 26.9999 22.2232 27 22V16.5Z" fill="#4A4A4F"/>
</svg>
