<svg width="32" height="32" viewBox="0 0 32 32" fill="none" xmlns="http://www.w3.org/2000/svg">
<path d="M25 28C25 28.2652 24.8946 28.5196 24.7071 28.7071C24.5196 28.8946 24.2652 29 24 29H8C7.73478 29 7.48043 28.8946 7.29289 28.7071C7.10536 28.5196 7 28.2652 7 28C7 27.7348 7.10536 27.4804 7.29289 27.2929C7.48043 27.1054 7.73478 27 8 27H24C24.2652 27 24.5196 27.1054 24.7071 27.2929C24.8946 27.4804 25 27.7348 25 28ZM16 25C18.121 24.9977 20.1545 24.1541 21.6543 22.6543C23.1541 21.1545 23.9977 19.121 24 17V7C24 6.73478 23.8946 6.48043 23.7071 6.29289C23.5196 6.10536 23.2652 6 23 6C22.7348 6 22.4804 6.10536 22.2929 6.29289C22.1054 6.48043 22 6.73478 22 7V17C22 18.5913 21.3679 20.1174 20.2426 21.2426C19.1174 22.3679 17.5913 23 16 23C14.4087 23 12.8826 22.3679 11.7574 21.2426C10.6321 20.1174 10 18.5913 10 17V7C10 6.73478 9.89464 6.48043 9.70711 6.29289C9.51957 6.10536 9.26522 6 9 6C8.73478 6 8.48043 6.10536 8.29289 6.29289C8.10536 6.48043 8 6.73478 8 7V17C8.00232 19.121 8.84591 21.1545 10.3457 22.6543C11.8455 24.1541 13.879 24.9977 16 25Z" fill="#4A4A4F"/>
</svg>
