<svg width="32" height="32" viewBox="0 0 32 32" fill="none" xmlns="http://www.w3.org/2000/svg">
<path d="M19 7V22C19 22.2652 18.8946 22.5196 18.7071 22.7071C18.5196 22.8946 18.2652 23 18 23C17.7348 23 17.4804 22.8946 17.2929 22.7071C17.1054 22.5196 17 22.2652 17 22V15.5H6V22C6 22.2652 5.89464 22.5196 5.70711 22.7071C5.51957 22.8946 5.26522 23 5 23C4.73478 23 4.48043 22.8946 4.29289 22.7071C4.10536 22.5196 4 22.2652 4 22V7C4 6.73478 4.10536 6.48043 4.29289 6.29289C4.48043 6.10536 4.73478 6 5 6C5.26522 6 5.51957 6.10536 5.70711 6.29289C5.89464 6.48043 6 6.73478 6 7V13.5H17V7C17 6.73478 17.1054 6.48043 17.2929 6.29289C17.4804 6.10536 17.7348 6 18 6C18.2652 6 18.5196 6.10536 18.7071 6.29289C18.8946 6.48043 19 6.73478 19 7ZM28.19 18.3288L30.815 14.5787C30.9212 14.4292 30.9841 14.2532 30.997 14.0703C31.0099 13.8873 30.9722 13.7043 30.8881 13.5413C30.8039 13.3783 30.6766 13.2416 30.5199 13.1461C30.3633 13.0506 30.1834 13.0001 30 13H24C23.7348 13 23.4804 13.1054 23.2929 13.2929C23.1054 13.4804 23 13.7348 23 14C23 14.2652 23.1054 14.5196 23.2929 14.7071C23.4804 14.8946 23.7348 15 24 15H28.0788L25.6812 18.4263C25.5763 18.5761 25.5144 18.7518 25.5024 18.9344C25.4904 19.1169 25.5287 19.2992 25.6132 19.4615C25.6976 19.6238 25.8249 19.7598 25.9813 19.8548C26.1376 19.9497 26.3171 19.9999 26.5 20C26.9121 20.0001 27.3179 20.1022 27.681 20.297C28.0442 20.4919 28.3536 20.7735 28.5816 21.1168C28.8096 21.4602 28.9493 21.8545 28.988 22.2648C29.0268 22.6752 28.9635 23.0887 28.8038 23.4687C28.6441 23.8486 28.393 24.1832 28.0727 24.4426C27.7525 24.702 27.373 24.8783 26.9682 24.9556C26.5634 25.0329 26.1457 25.009 25.7524 24.8859C25.359 24.7628 25.0023 24.5443 24.7138 24.25C24.6233 24.1504 24.5137 24.0701 24.3915 24.0139C24.2693 23.9577 24.1371 23.9267 24.0026 23.9227C23.8681 23.9188 23.7343 23.9421 23.609 23.9911C23.4838 24.0401 23.3697 24.1139 23.2736 24.208C23.1775 24.3022 23.1014 24.4147 23.0499 24.539C22.9983 24.6632 22.9723 24.7966 22.9735 24.9311C22.9747 25.0656 23.003 25.1985 23.0567 25.3218C23.1105 25.4451 23.1885 25.5563 23.2862 25.6488C23.9119 26.287 24.7134 26.7246 25.5886 26.9056C26.4639 27.0866 27.3732 27.0029 28.2007 26.6651C29.0281 26.3273 29.7363 25.7508 30.2349 25.009C30.7334 24.2672 30.9998 23.3938 31 22.5C30.999 21.6042 30.7311 20.7291 30.2306 19.9862C29.7302 19.2432 29.0198 18.6662 28.19 18.3288Z" fill="#4A4A4F"/>
</svg>
