<svg width="32" height="32" viewBox="0 0 32 32" fill="none" xmlns="http://www.w3.org/2000/svg">
<path d="M26 4H6C5.46957 4 4.96086 4.21071 4.58579 4.58579C4.21071 4.96086 4 5.46957 4 6V26C4 26.5304 4.21071 27.0391 4.58579 27.4142C4.96086 27.7893 5.46957 28 6 28H26C26.5304 28 27.0391 27.7893 27.4142 27.4142C27.7893 27.0391 28 26.5304 28 26V6C28 5.46957 27.7893 4.96086 27.4142 4.58579C27.0391 4.21071 26.5304 4 26 4ZM10.3387 11.8225C10.75 9.57125 13.0725 8 16 8C18.275 8 20.1987 8.92625 21.1475 10.4788C21.216 10.5909 21.2617 10.7154 21.282 10.8451C21.3023 10.9749 21.2969 11.1074 21.266 11.2351C21.2351 11.3628 21.1794 11.4831 21.102 11.5893C21.0247 11.6954 20.9271 11.7853 20.815 11.8538C20.7029 11.9222 20.5784 11.9679 20.4486 11.9882C20.3188 12.0086 20.1863 12.0031 20.0586 11.9723C19.931 11.9414 19.8106 11.8857 19.7045 11.8083C19.5983 11.7309 19.5085 11.6334 19.44 11.5212C18.8675 10.5825 17.5487 10 16 10C14.0875 10 12.5337 10.9162 12.3062 12.1775C12.2647 12.4079 12.1436 12.6165 11.964 12.7668C11.7845 12.9171 11.5579 12.9996 11.3237 13C11.2638 13.0001 11.204 12.9947 11.145 12.9838C10.8841 12.9366 10.6527 12.7878 10.5015 12.57C10.3503 12.3523 10.2918 12.0834 10.3387 11.8225ZM24 17H21.0362C21.6711 17.6758 22.017 18.5729 22 19.5C22 22.0238 19.365 24 16 24C13.0138 24 10.5212 22.4025 10.0712 20.2C10.0407 20.0698 10.0367 19.9348 10.0592 19.803C10.0818 19.6711 10.1306 19.5452 10.2028 19.4326C10.2749 19.3199 10.3689 19.2229 10.4791 19.1473C10.5894 19.0716 10.7138 19.0188 10.8448 18.9921C10.9758 18.9653 11.1109 18.9651 11.242 18.9915C11.3731 19.0179 11.4976 19.0703 11.6081 19.1456C11.7186 19.2209 11.8129 19.3176 11.8854 19.43C11.9578 19.5425 12.007 19.6683 12.03 19.8C12.28 21.0337 14.03 22 16 22C18.1687 22 20 20.855 20 19.5C20 18.3575 19.155 17.6962 16.785 17H8C7.73478 17 7.48043 16.8946 7.29289 16.7071C7.10536 16.5196 7 16.2652 7 16C7 15.7348 7.10536 15.4804 7.29289 15.2929C7.48043 15.1054 7.73478 15 8 15H24C24.2652 15 24.5196 15.1054 24.7071 15.2929C24.8946 15.4804 25 15.7348 25 16C25 16.2652 24.8946 16.5196 24.7071 16.7071C24.5196 16.8946 24.2652 17 24 17Z" fill="#4A4A4F"/>
</svg>
