<svg width="32" height="32" viewBox="0 0 32 32" fill="none" xmlns="http://www.w3.org/2000/svg">
<path d="M28 16C28 16.2652 27.8946 16.5196 27.7071 16.7071C27.5196 16.8946 27.2652 17 27 17H21.9912C23.14 17.8888 24 19.15 24 21C24 22.6675 23.125 24.2125 21.5312 25.3487C20.0413 26.4137 18.0763 27 16 27C13.9237 27 11.9587 26.4137 10.4688 25.3487C8.875 24.2125 8 22.6675 8 21C8 20.7348 8.10536 20.4804 8.29289 20.2929C8.48043 20.1054 8.73478 20 9 20C9.26522 20 9.51957 20.1054 9.70711 20.2929C9.89464 20.4804 10 20.7348 10 21C10 23.1688 12.75 25 16 25C19.25 25 22 23.1688 22 21C22 19.1438 20.6825 18.0525 17.1537 17H5C4.73478 17 4.48043 16.8946 4.29289 16.7071C4.10536 16.5196 4 16.2652 4 16C4 15.7348 4.10536 15.4804 4.29289 15.2929C4.48043 15.1054 4.73478 15 5 15H27C27.2652 15 27.5196 15.1054 27.7071 15.2929C27.8946 15.4804 28 15.7348 28 16ZM9.54125 13C9.69934 13.0001 9.85521 12.9628 9.99607 12.8911C10.1369 12.8193 10.2588 12.7152 10.3516 12.5872C10.4444 12.4592 10.5056 12.3111 10.5301 12.1549C10.5546 11.9987 10.5417 11.839 10.4925 11.6888C10.4209 11.4663 10.3859 11.2337 10.3888 11C10.3888 8.72 12.8013 7 16 7C18.355 7 20.27 7.9275 21.125 9.48125C21.2601 9.69884 21.4735 9.85631 21.7212 9.92121C21.9689 9.98611 22.2321 9.95349 22.4565 9.83007C22.6809 9.70665 22.8494 9.50184 22.9273 9.25786C23.0051 9.01389 22.9864 8.74934 22.875 8.51875C21.6663 6.315 19.0963 5 16 5C11.6613 5 8.38875 7.57875 8.38875 11C8.38662 11.445 8.45497 11.8876 8.59125 12.3112C8.65684 12.5115 8.78401 12.6859 8.95461 12.8096C9.12521 12.9333 9.33053 12.9999 9.54125 13Z" fill="#4A4A4F"/>
</svg>
