<svg width="32" height="32" viewBox="0 0 32 32" fill="none" xmlns="http://www.w3.org/2000/svg">
<path d="M26 4H6C5.46957 4 4.96086 4.21071 4.58579 4.58579C4.21071 4.96086 4 5.46957 4 6V26C4 26.5304 4.21071 27.0391 4.58579 27.4142C4.96086 27.7893 5.46957 28 6 28H26C26.5304 28 27.0391 27.7893 27.4142 27.4142C27.7893 27.0391 28 26.5304 28 26V6C28 5.46957 27.7893 4.96086 27.4142 4.58579C27.0391 4.21071 26.5304 4 26 4ZM16 20C16 20.2652 15.8946 20.5196 15.7071 20.7071C15.5196 20.8946 15.2652 21 15 21C14.7348 21 14.4804 20.8946 14.2929 20.7071C14.1054 20.5196 14 20.2652 14 20V16H9V20C9 20.2652 8.89464 20.5196 8.70711 20.7071C8.51957 20.8946 8.26522 21 8 21C7.73478 21 7.48043 20.8946 7.29289 20.7071C7.10536 20.5196 7 20.2652 7 20V10C7 9.73478 7.10536 9.48043 7.29289 9.29289C7.48043 9.10536 7.73478 9 8 9C8.26522 9 8.51957 9.10536 8.70711 9.29289C8.89464 9.48043 9 9.73478 9 10V14H14V10C14 9.73478 14.1054 9.48043 14.2929 9.29289C14.4804 9.10536 14.7348 9 15 9C15.2652 9 15.5196 9.10536 15.7071 9.29289C15.8946 9.48043 16 9.73478 16 10V20ZM24 23H19C18.8143 23 18.6322 22.9483 18.4743 22.8507C18.3163 22.753 18.1886 22.6133 18.1056 22.4472C18.0225 22.2811 17.9874 22.0952 18.004 21.9102C18.0207 21.7252 18.0886 21.5486 18.2 21.4L22.7 15.4C22.8229 15.2432 22.9133 15.0634 22.966 14.8713C23.0187 14.6791 23.0325 14.4784 23.0068 14.2808C22.981 14.0832 22.9161 13.8928 22.816 13.7205C22.7158 13.5483 22.5823 13.3977 22.4233 13.2777C22.2642 13.1576 22.0829 13.0704 21.8898 13.0212C21.6968 12.972 21.4958 12.9618 21.2987 12.9911C21.1016 13.0204 20.9124 13.0886 20.742 13.1919C20.5716 13.2952 20.4234 13.4314 20.3062 13.5925C20.1576 13.768 20.0477 13.9729 19.9837 14.1938C19.9588 14.3235 19.9083 14.4471 19.8353 14.5572C19.7623 14.6674 19.6682 14.762 19.5584 14.8355C19.4486 14.9091 19.3253 14.9601 19.1956 14.9858C19.066 15.0114 18.9325 15.011 18.803 14.9848C18.6735 14.9585 18.5505 14.9068 18.441 14.8327C18.3316 14.7586 18.238 14.6636 18.1655 14.553C18.093 14.4425 18.0432 14.3187 18.0189 14.1888C17.9945 14.0589 17.9962 13.9255 18.0238 13.7963C18.129 13.2793 18.349 12.7926 18.6676 12.3721C18.9862 11.9516 19.3952 11.608 19.8644 11.3668C20.3336 11.1256 20.851 10.9929 21.3784 10.9786C21.9058 10.9642 22.4296 11.0685 22.9113 11.2838C23.3929 11.4991 23.82 11.8199 24.161 12.2224C24.502 12.625 24.7482 13.099 24.8814 13.6095C25.0146 14.12 25.0314 14.6538 24.9306 15.1717C24.8297 15.6895 24.6138 16.1781 24.2987 16.6012L21 21H24C24.2652 21 24.5196 21.1054 24.7071 21.2929C24.8946 21.4804 25 21.7348 25 22C25 22.2652 24.8946 22.5196 24.7071 22.7071C24.5196 22.8946 24.2652 23 24 23Z" fill="#4A4A4F"/>
</svg>
