<svg width="32" height="32" viewBox="0 0 32 32" fill="none" xmlns="http://www.w3.org/2000/svg">
<path d="M22.1763 10.0675C22.0261 9.84915 21.9687 9.5801 22.0167 9.31947C22.0648 9.05884 22.2143 8.82794 22.4325 8.6775C23.7325 7.78 25.7675 7.78 27.0675 8.6775C27.6925 9.11125 28.8025 9.11125 29.4325 8.6775C29.6508 8.53879 29.9144 8.49006 30.1679 8.54154C30.4213 8.59303 30.645 8.74073 30.7919 8.95362C30.9388 9.16652 30.9975 9.42805 30.9556 9.68329C30.9138 9.93854 30.7747 10.1676 30.5675 10.3225C29.8743 10.7617 29.0706 10.9949 28.25 10.9949C27.4294 10.9949 26.6257 10.7617 25.9325 10.3225C25.3075 9.88875 24.1975 9.88875 23.5675 10.3225C23.4594 10.3971 23.3377 10.4497 23.2093 10.4773C23.0808 10.5049 22.9482 10.5069 22.8191 10.4832C22.6899 10.4595 22.5666 10.4106 22.4563 10.3393C22.346 10.268 22.2508 10.1756 22.1763 10.0675ZM29.4325 12.6775C28.8075 13.1112 27.6975 13.1112 27.0675 12.6775C25.7675 11.78 23.7325 11.78 22.4325 12.6775C22.319 12.7496 22.2212 12.8439 22.1449 12.9548C22.0687 13.0656 22.0156 13.1907 21.9888 13.3225C21.962 13.4543 21.9621 13.5902 21.9891 13.7219C22.016 13.8537 22.0693 13.9787 22.1457 14.0894C22.2221 14.2002 22.32 14.2943 22.4337 14.3663C22.5473 14.4383 22.6743 14.4866 22.807 14.5084C22.9398 14.5301 23.0755 14.5249 23.2062 14.4929C23.3369 14.461 23.4598 14.403 23.5675 14.3225C24.1925 13.8888 25.3025 13.8888 25.9325 14.3225C26.6257 14.7617 27.4294 14.9949 28.25 14.9949C29.0706 14.9949 29.8743 14.7617 30.5675 14.3225C30.7747 14.1676 30.9138 13.9385 30.9556 13.6833C30.9975 13.428 30.9388 13.1665 30.7919 12.9536C30.645 12.7407 30.4213 12.593 30.1679 12.5415C29.9144 12.4901 29.6508 12.5388 29.4325 12.6775ZM19 23C18.9996 23.748 18.7895 24.481 18.3935 25.1156C17.9974 25.7502 17.4314 26.2611 16.7596 26.5902C16.0878 26.9192 15.3372 27.0533 14.5931 26.9772C13.8489 26.9011 13.141 26.6179 12.5497 26.1596C11.9584 25.7014 11.5075 25.0866 11.2481 24.3849C10.9888 23.6833 10.9313 22.923 11.0824 22.1903C11.2334 21.4577 11.5869 20.7821 12.1026 20.2402C12.6184 19.6984 13.2757 19.312 14 19.125V6C14 5.73478 14.1054 5.48043 14.2929 5.29289C14.4804 5.10536 14.7348 5 15 5C15.2652 5 15.5196 5.10536 15.7071 5.29289C15.8946 5.48043 16 5.73478 16 6V19.125C16.8583 19.3479 17.6185 19.8493 18.1613 20.5505C18.7042 21.2517 18.9992 22.1132 19 23ZM17 23C17 22.6044 16.8827 22.2178 16.6629 21.8889C16.4432 21.56 16.1308 21.3036 15.7654 21.1522C15.3999 21.0009 14.9978 20.9613 14.6098 21.0384C14.2219 21.1156 13.8655 21.3061 13.5858 21.5858C13.3061 21.8655 13.1156 22.2219 13.0384 22.6098C12.9613 22.9978 13.0009 23.3999 13.1522 23.7654C13.3036 24.1308 13.56 24.4432 13.8889 24.6629C14.2178 24.8827 14.6044 25 15 25C15.5304 25 16.0391 24.7893 16.4142 24.4142C16.7893 24.0391 17 23.5304 17 23ZM23 23C22.9992 24.3527 22.6553 25.6831 22.0006 26.8669C21.3459 28.0506 20.4017 29.049 19.2564 29.7687C18.111 30.4884 16.8018 30.906 15.4512 30.9823C14.1007 31.0586 12.7528 30.7911 11.5336 30.205C10.3145 29.6189 9.26389 28.7332 8.48003 27.6307C7.69617 26.5282 7.20467 25.245 7.05147 23.901C6.89827 22.557 7.08839 21.196 7.60404 19.9455C8.11969 18.6949 8.94403 17.5955 10 16.75V6C10 4.67392 10.5268 3.40215 11.4645 2.46447C12.4021 1.52678 13.6739 1 15 1C16.3261 1 17.5979 1.52678 18.5355 2.46447C19.4732 3.40215 20 4.67392 20 6V16.75C20.9363 17.5005 21.6919 18.4518 22.2112 19.5336C22.7305 20.6154 23 21.8 23 23ZM21 23C20.9992 22.0327 20.7649 21.0798 20.3171 20.2224C19.8692 19.3649 19.221 18.6283 18.4275 18.075C18.2948 17.9823 18.1866 17.8589 18.1121 17.7152C18.0376 17.5715 17.9992 17.4118 18 17.25V6C18 5.20435 17.6839 4.44129 17.1213 3.87868C16.5587 3.31607 15.7957 3 15 3C14.2044 3 13.4413 3.31607 12.8787 3.87868C12.3161 4.44129 12 5.20435 12 6V17.25C12 17.411 11.9612 17.5696 11.8867 17.7124C11.8123 17.8551 11.7045 17.9778 11.5725 18.07C10.7258 18.6593 10.0454 19.4568 9.59689 20.3858C9.14836 21.3147 8.9469 22.3435 9.01194 23.373C9.07699 24.4025 9.40635 25.3978 9.96822 26.2629C10.5301 27.1279 11.3055 27.8335 12.2196 28.3115C13.1337 28.7896 14.1556 29.0238 15.1866 28.9918C16.2176 28.9597 17.223 28.6623 18.1056 28.1284C18.9882 27.5945 19.7182 26.8421 20.2252 25.9437C20.7322 25.0454 20.9991 24.0315 21 23Z" fill="#4A4A4F"/>
</svg>
