<svg width="32" height="32" viewBox="0 0 32 32" fill="none" xmlns="http://www.w3.org/2000/svg">
<path d="M28 8H22V7C22 6.20435 21.6839 5.44129 21.1213 4.87868C20.5587 4.31607 19.7956 4 19 4H13C12.2044 4 11.4413 4.31607 10.8787 4.87868C10.3161 5.44129 10 6.20435 10 7V8H4C3.46957 8 2.96086 8.21071 2.58579 8.58579C2.21071 8.96086 2 9.46957 2 10V13.5C2 13.6326 2.05268 13.7598 2.14645 13.8536C2.24021 13.9473 2.36739 14 2.5 14H8V12.0337C7.99589 11.7753 8.08997 11.5248 8.26326 11.333C8.43656 11.1411 8.67617 11.0221 8.93375 11C9.07054 10.9909 9.20773 11.0101 9.33681 11.0562C9.46589 11.1024 9.58409 11.1746 9.68409 11.2684C9.78408 11.3622 9.86372 11.4755 9.91807 11.6014C9.97241 11.7272 10.0003 11.8629 10 12V14H22V12.0337C21.9959 11.7753 22.09 11.5248 22.2633 11.333C22.4366 11.1411 22.6762 11.0221 22.9338 11C23.0705 10.9909 23.2077 11.0101 23.3368 11.0562C23.4659 11.1024 23.5841 11.1746 23.6841 11.2684C23.7841 11.3622 23.8637 11.4755 23.9181 11.6014C23.9724 11.7272 24.0003 11.8629 24 12V14H29.5C29.6326 14 29.7598 13.9473 29.8536 13.8536C29.9473 13.7598 30 13.6326 30 13.5V10C30 9.46957 29.7893 8.96086 29.4142 8.58579C29.0391 8.21071 28.5304 8 28 8ZM20 8H12V7C12 6.73478 12.1054 6.48043 12.2929 6.29289C12.4804 6.10536 12.7348 6 13 6H19C19.2652 6 19.5196 6.10536 19.7071 6.29289C19.8946 6.48043 20 6.73478 20 7V8ZM30 16.5V24C30 24.5304 29.7893 25.0391 29.4142 25.4142C29.0391 25.7893 28.5304 26 28 26H4C3.46957 26 2.96086 25.7893 2.58579 25.4142C2.21071 25.0391 2 24.5304 2 24V16.5C2 16.3674 2.05268 16.2402 2.14645 16.1464C2.24021 16.0527 2.36739 16 2.5 16H8V18C7.9997 18.1371 8.02759 18.2728 8.08193 18.3986C8.13628 18.5245 8.21592 18.6378 8.31591 18.7316C8.41591 18.8254 8.53411 18.8976 8.66319 18.9438C8.79227 18.9899 8.92946 19.0091 9.06625 19C9.32383 18.9779 9.56344 18.8589 9.73674 18.667C9.91003 18.4752 10.0041 18.2247 10 17.9662V16H22V18C21.9997 18.1371 22.0276 18.2728 22.0819 18.3986C22.1363 18.5245 22.2159 18.6378 22.3159 18.7316C22.4159 18.8254 22.5341 18.8976 22.6632 18.9438C22.7923 18.9899 22.9295 19.0091 23.0662 19C23.3234 18.9779 23.5626 18.8593 23.7359 18.668C23.9091 18.4766 24.0035 18.2268 24 17.9688V16H29.5C29.6326 16 29.7598 16.0527 29.8536 16.1464C29.9473 16.2402 30 16.3674 30 16.5Z" fill="#4A4A4F"/>
</svg>
