<svg width="32" height="32" viewBox="0 0 32 32" fill="none" xmlns="http://www.w3.org/2000/svg">
<path d="M30.3938 14.5363L17.4638 1.60633C17.2716 1.4141 17.0434 1.26161 16.7923 1.15758C16.5411 1.05355 16.2719 1 16.0001 1C15.7282 1 15.459 1.05355 15.2079 1.15758C14.9567 1.26161 14.7285 1.4141 14.5363 1.60633L1.60633 14.5363C1.4141 14.7285 1.26161 14.9567 1.15758 15.2079C1.05355 15.459 1 15.7282 1 16.0001C1 16.2719 1.05355 16.5411 1.15758 16.7923C1.26161 17.0434 1.4141 17.2716 1.60633 17.4638L14.5363 30.3938C14.7285 30.5861 14.9567 30.7385 15.2079 30.8426C15.459 30.9466 15.7282 31.0002 16.0001 31.0002C16.2719 31.0002 16.5411 30.9466 16.7923 30.8426C17.0434 30.7385 17.2716 30.5861 17.4638 30.3938L30.3938 17.4638C30.5861 17.2716 30.7385 17.0434 30.8426 16.7923C30.9466 16.5411 31.0002 16.2719 31.0002 16.0001C31.0002 15.7282 30.9466 15.459 30.8426 15.2079C30.7385 14.9567 30.5861 14.7285 30.3938 14.5363ZM28.9801 16.0488L16.0501 28.9801C16.0366 28.9929 16.0187 29.0001 16.0001 29.0001C15.9815 29.0001 15.9636 28.9929 15.9501 28.9801L3.02008 16.0488C3.0074 16.0358 3.00031 16.0183 3.00031 16.0001C3.00031 15.9819 3.0074 15.9644 3.02008 15.9513L15.9501 3.02008C15.9636 3.00724 15.9815 3.00008 16.0001 3.00008C16.0187 3.00008 16.0366 3.00724 16.0501 3.02008L28.9801 15.9513C28.9928 15.9644 28.9998 15.9819 28.9998 16.0001C28.9998 16.0183 28.9928 16.0358 28.9801 16.0488ZM21.7076 14.2988C21.8006 14.3917 21.8743 14.502 21.9246 14.6234C21.975 14.7448 22.0009 14.8749 22.0009 15.0063C22.0009 15.1377 21.975 15.2679 21.9246 15.3893C21.8743 15.5107 21.8006 15.621 21.7076 15.7138L18.7076 18.7138C18.5199 18.9015 18.2654 19.0069 18.0001 19.0069C17.7347 19.0069 17.4802 18.9015 17.2926 18.7138C17.1049 18.5262 16.9995 18.2717 16.9995 18.0063C16.9995 17.741 17.1049 17.4865 17.2926 17.2988L18.5863 16.0001H14.0001C13.4696 16.0001 12.9609 16.2108 12.5859 16.5859C12.2108 16.9609 12.0001 17.4696 12.0001 18.0001V19.0001C12.0001 19.2653 11.8947 19.5196 11.7072 19.7072C11.5196 19.8947 11.2653 20.0001 11.0001 20.0001C10.7349 20.0001 10.4805 19.8947 10.293 19.7072C10.1054 19.5196 10.0001 19.2653 10.0001 19.0001V18.0001C10.0001 16.9392 10.4215 15.9218 11.1717 15.1717C11.9218 14.4215 12.9392 14.0001 14.0001 14.0001H18.5863L17.2926 12.7076C17.1049 12.5199 16.9995 12.2654 16.9995 12.0001C16.9995 11.7347 17.1049 11.4802 17.2926 11.2926C17.4802 11.1049 17.7347 10.9995 18.0001 10.9995C18.2654 10.9995 18.5199 11.1049 18.7076 11.2926L21.7076 14.2988Z" fill="#4A4A4F"/>
</svg>
