<svg width="32" height="32" viewBox="0 0 32 32" fill="none" xmlns="http://www.w3.org/2000/svg">
<path d="M27 18H25V10H27C27.2652 10 27.5196 9.89464 27.7071 9.70711C27.8946 9.51957 28 9.26522 28 9C28 8.73478 27.8946 8.48043 27.7071 8.29289C27.5196 8.10536 27.2652 8 27 8H25V5C25 4.46957 24.7893 3.96086 24.4142 3.58579C24.0391 3.21071 23.5304 3 23 3H9C8.46957 3 7.96086 3.21071 7.58579 3.58579C7.21071 3.96086 7 4.46957 7 5V8H5C4.73478 8 4.48043 8.10536 4.29289 8.29289C4.10536 8.48043 4 8.73478 4 9C4 9.26522 4.10536 9.51957 4.29289 9.70711C4.48043 9.89464 4.73478 10 5 10H7V18H5C4.73478 18 4.48043 18.1054 4.29289 18.2929C4.10536 18.4804 4 18.7348 4 19C4 19.2652 4.10536 19.5196 4.29289 19.7071C4.48043 19.8946 4.73478 20 5 20H7V27C7 27.5304 7.21071 28.0391 7.58579 28.4142C7.96086 28.7893 8.46957 29 9 29H23C23.5304 29 24.0391 28.7893 24.4142 28.4142C24.7893 28.0391 25 27.5304 25 27V20H27C27.2652 20 27.5196 19.8946 27.7071 19.7071C27.8946 19.5196 28 19.2652 28 19C28 18.7348 27.8946 18.4804 27.7071 18.2929C27.5196 18.1054 27.2652 18 27 18ZM16 14.5C15.3078 14.5 14.6311 14.2947 14.0555 13.9101C13.4799 13.5256 13.0313 12.9789 12.7664 12.3394C12.5015 11.6999 12.4322 10.9961 12.5673 10.3172C12.7023 9.63825 13.0356 9.01461 13.5251 8.52513C14.0146 8.03564 14.6383 7.7023 15.3172 7.56725C15.9961 7.4322 16.6999 7.50151 17.3394 7.76642C17.9789 8.03133 18.5256 8.47993 18.9101 9.0555C19.2947 9.63108 19.5 10.3078 19.5 11C19.5 11.9283 19.1313 12.8185 18.4749 13.4749C17.8185 14.1313 16.9283 14.5 16 14.5ZM16 17.5C16.6922 17.5 17.3689 17.7053 17.9445 18.0899C18.5201 18.4744 18.9687 19.0211 19.2336 19.6606C19.4985 20.3001 19.5678 21.0039 19.4327 21.6828C19.2977 22.3617 18.9644 22.9854 18.4749 23.4749C17.9854 23.9644 17.3617 24.2977 16.6828 24.4327C16.0039 24.5678 15.3001 24.4985 14.6606 24.2336C14.0211 23.9687 13.4744 23.5201 13.0899 22.9445C12.7053 22.3689 12.5 21.6922 12.5 21C12.5 20.0717 12.8687 19.1815 13.5251 18.5251C14.1815 17.8687 15.0717 17.5 16 17.5Z" fill="#4A4A4F"/>
</svg>
