<svg width="32" height="32" viewBox="0 0 32 32" fill="none" xmlns="http://www.w3.org/2000/svg">
<path d="M27.9652 14.7375L25.1664 4.47375C25.051 4.05039 24.7995 3.67676 24.4507 3.41044C24.1019 3.14412 23.6753 2.9999 23.2364 3H8.76395C8.32512 2.9999 7.89845 3.14412 7.54968 3.41044C7.20091 3.67676 6.94941 4.05039 6.83395 4.47375L4.0352 14.7375C3.98892 14.9094 3.98892 15.0906 4.0352 15.2625L6.83395 25.5263C6.94941 25.9496 7.20091 26.3232 7.54968 26.5896C7.89845 26.8559 8.32512 27.0001 8.76395 27H10.0002L8.2002 29.4C8.1214 29.5051 8.06407 29.6246 8.03148 29.7518C7.99889 29.879 7.99168 30.0114 8.01025 30.1414C8.02882 30.2714 8.07281 30.3965 8.13972 30.5095C8.20663 30.6225 8.29514 30.7212 8.4002 30.8C8.50525 30.8788 8.6248 30.9361 8.75202 30.9687C8.87923 31.0013 9.01162 31.0085 9.14162 30.99C9.27162 30.9714 9.39669 30.9274 9.50969 30.8605C9.62269 30.7936 9.7214 30.7051 9.8002 30.6L12.5002 27H19.5002L22.2002 30.6C22.3593 30.8122 22.5962 30.9524 22.8588 30.99C23.1213 31.0275 23.388 30.9591 23.6002 30.8C23.8124 30.6409 23.9526 30.404 23.9901 30.1414C24.0277 29.8789 23.9593 29.6122 23.8002 29.4L22.0002 27H23.2364C23.6753 27.0001 24.1019 26.8559 24.4507 26.5896C24.7995 26.3232 25.051 25.9496 25.1664 25.5263L27.9652 15.2625C28.0115 15.0906 28.0115 14.9094 27.9652 14.7375ZM8.76395 5H23.2364L25.7502 14.2113L16.0002 15.9838L6.2502 14.2113L8.76395 5ZM6.38895 16.2675L15.0002 17.835V25H8.76395L6.38895 16.2675ZM23.2364 25H17.0002V17.835L25.6177 16.2675L23.2364 25ZM11.0002 11C11.0002 10.7348 11.1056 10.4804 11.2931 10.2929C11.4806 10.1054 11.735 10 12.0002 10H20.0002C20.2654 10 20.5198 10.1054 20.7073 10.2929C20.8948 10.4804 21.0002 10.7348 21.0002 11C21.0002 11.2652 20.8948 11.5196 20.7073 11.7071C20.5198 11.8946 20.2654 12 20.0002 12H12.0002C11.735 12 11.4806 11.8946 11.2931 11.7071C11.1056 11.5196 11.0002 11.2652 11.0002 11Z" fill="#4A4A4F"/>
</svg>
