<svg width="32" height="32" viewBox="0 0 32 32" fill="none" xmlns="http://www.w3.org/2000/svg">
<path d="M28.8987 24.4389C28.8165 24.6072 28.6887 24.7491 28.5298 24.8483C28.3709 24.9476 28.1873 25.0002 28 25.0001H17V30.0001C17 30.2653 16.8946 30.5197 16.7071 30.7072C16.5196 30.8948 16.2652 31.0001 16 31.0001C15.7348 31.0001 15.4804 30.8948 15.2929 30.7072C15.1053 30.5197 15 30.2653 15 30.0001V25.0001H3.99998C3.81286 25 3.62954 24.9473 3.47085 24.8482C3.31216 24.7491 3.18447 24.6074 3.10231 24.4393C3.02014 24.2711 2.98679 24.0833 3.00604 23.8972C3.0253 23.7111 3.09639 23.5341 3.21123 23.3864L8.96123 16.0001H5.99998C5.8132 16.0001 5.63014 15.9478 5.47155 15.8492C5.31296 15.7505 5.18518 15.6093 5.10269 15.4418C5.0202 15.2742 4.98629 15.0868 5.00481 14.901C5.02333 14.7151 5.09354 14.5381 5.20748 14.3901L15.2075 1.39013C15.3009 1.26876 15.4209 1.17046 15.5583 1.10282C15.6957 1.03518 15.8468 1 16 1C16.1531 1 16.3042 1.03518 16.4416 1.10282C16.579 1.17046 16.6991 1.26876 16.7925 1.39013L26.7925 14.3901C26.9064 14.5381 26.9766 14.7151 26.9952 14.901C27.0137 15.0868 26.9798 15.2742 26.8973 15.4418C26.8148 15.6093 26.687 15.7505 26.5284 15.8492C26.3698 15.9478 26.1868 16.0001 26 16.0001H23.045L28.7887 23.3864C28.9037 23.534 28.9749 23.7108 28.9944 23.8969C29.0138 24.0829 28.9807 24.2707 28.8987 24.4389Z" fill="#4A4A4F"/>
</svg>
