<svg width="32" height="32" viewBox="0 0 32 32" fill="none" xmlns="http://www.w3.org/2000/svg">
<path d="M30.0001 17.0001V25.0001C30.0001 25.2653 29.8947 25.5196 29.7072 25.7072C29.5196 25.8947 29.2653 26.0001 29.0001 26.0001H21.0001C20.8022 26.0002 20.6087 25.9417 20.4441 25.8318C20.2795 25.7219 20.1512 25.5657 20.0754 25.3829C19.9997 25.2 19.9799 24.9988 20.0185 24.8048C20.0572 24.6107 20.1526 24.4324 20.2926 24.2926L23.5863 21.0001L17.0001 14.4138L12.7076 18.7076C12.6147 18.8005 12.5044 18.8743 12.383 18.9246C12.2616 18.975 12.1315 19.0009 12.0001 19.0009C11.8687 19.0009 11.7385 18.975 11.6171 18.9246C11.4957 18.8743 11.3854 18.8005 11.2926 18.7076L2.29257 9.70757C2.10493 9.51993 1.99951 9.26543 1.99951 9.00007C1.99951 8.7347 2.10493 8.48021 2.29257 8.29257C2.48021 8.10493 2.7347 7.99951 3.00007 7.99951C3.26543 7.99951 3.51993 8.10493 3.70757 8.29257L12.0001 16.5863L16.2926 12.2926C16.3854 12.1996 16.4957 12.1258 16.6171 12.0755C16.7385 12.0252 16.8687 11.9993 17.0001 11.9993C17.1315 11.9993 17.2616 12.0252 17.383 12.0755C17.5044 12.1258 17.6147 12.1996 17.7076 12.2926L25.0001 19.5863L28.2926 16.2926C28.4324 16.1526 28.6107 16.0572 28.8048 16.0185C28.9988 15.9799 29.2 15.9997 29.3829 16.0754C29.5657 16.1512 29.7219 16.2795 29.8318 16.4441C29.9417 16.6087 30.0002 16.8022 30.0001 17.0001Z" fill="#4A4A4F"/>
</svg>
