<svg width="32" height="32" viewBox="0 0 32 32" fill="none" xmlns="http://www.w3.org/2000/svg">
<path d="M30.0001 7V15C30.0001 15.2652 29.8947 15.5196 29.7072 15.7071C29.5196 15.8946 29.2653 16 29.0001 16C28.7349 16 28.4805 15.8946 28.293 15.7071C28.1054 15.5196 28.0001 15.2652 28.0001 15V9.41375L17.7076 19.7075C17.6147 19.8005 17.5044 19.8742 17.383 19.9246C17.2616 19.9749 17.1315 20.0008 17.0001 20.0008C16.8687 20.0008 16.7385 19.9749 16.6171 19.9246C16.4957 19.8742 16.3854 19.8005 16.2926 19.7075L12.0001 15.4137L3.70757 23.7075C3.51993 23.8951 3.26543 24.0006 3.00007 24.0006C2.7347 24.0006 2.48021 23.8951 2.29257 23.7075C2.10493 23.5199 1.99951 23.2654 1.99951 23C1.99951 22.7346 2.10493 22.4801 2.29257 22.2925L11.2926 13.2925C11.3854 13.1995 11.4957 13.1258 11.6171 13.0754C11.7385 13.0251 11.8687 12.9992 12.0001 12.9992C12.1315 12.9992 12.2616 13.0251 12.383 13.0754C12.5044 13.1258 12.6147 13.1995 12.7076 13.2925L17.0001 17.5863L26.5863 8H21.0001C20.7349 8 20.4805 7.89464 20.293 7.70711C20.1054 7.51957 20.0001 7.26522 20.0001 7C20.0001 6.73478 20.1054 6.48043 20.293 6.29289C20.4805 6.10536 20.7349 6 21.0001 6H29.0001C29.2653 6 29.5196 6.10536 29.7072 6.29289C29.8947 6.48043 30.0001 6.73478 30.0001 7Z" fill="#4A4A4F"/>
</svg>
