<svg width="32" height="32" viewBox="0 0 32 32" fill="none" xmlns="http://www.w3.org/2000/svg">
<path d="M30.0001 15.8287C29.7718 13.2111 28.8143 10.7099 27.2363 8.60892C25.6583 6.50799 23.5229 4.89148 21.0726 3.94284C18.6223 2.99421 15.9551 2.75144 13.3737 3.2421C10.7924 3.73275 8.40027 4.93718 6.46887 6.71869C3.89044 9.08744 2.29745 12.3395 2.00637 15.8287C1.98264 16.1048 2.01656 16.3829 2.10599 16.6453C2.19543 16.9076 2.33841 17.1485 2.52588 17.3527C2.71334 17.5568 2.9412 17.7198 3.19499 17.8312C3.44877 17.9426 3.72295 18.0001 4.00012 17.9999H15.0001V24.9999C15.0001 26.0608 15.4215 27.0782 16.1717 27.8284C16.9218 28.5785 17.9393 28.9999 19.0001 28.9999C20.061 28.9999 21.0784 28.5785 21.8285 27.8284C22.5787 27.0782 23.0001 26.0608 23.0001 24.9999C23.0001 24.7347 22.8948 24.4804 22.7072 24.2928C22.5197 24.1053 22.2653 23.9999 22.0001 23.9999C21.7349 23.9999 21.4805 24.1053 21.293 24.2928C21.1055 24.4804 21.0001 24.7347 21.0001 24.9999C21.0001 25.5304 20.7894 26.0391 20.4143 26.4142C20.0393 26.7892 19.5306 26.9999 19.0001 26.9999C18.4697 26.9999 17.961 26.7892 17.5859 26.4142C17.2108 26.0391 17.0001 25.5304 17.0001 24.9999V17.9999H28.0001C28.2778 18.001 28.5527 17.9441 28.8072 17.8331C29.0617 17.722 29.2904 17.5592 29.4785 17.355C29.6666 17.1507 29.8102 16.9095 29.9 16.6467C29.9898 16.384 30.0239 16.1054 30.0001 15.8287ZM4.00012 15.9999C4.19721 13.7564 5.01893 11.6129 6.37211 9.81254C7.7253 8.01217 9.55582 6.62693 11.6561 5.81387C13.7565 5.00081 16.0426 4.79245 18.2553 5.21241C20.468 5.63238 22.5188 6.66387 24.1751 8.18994C26.3886 10.2184 27.7546 13.0077 28.0001 15.9999H4.00012Z" fill="#4A4A4F"/>
</svg>
