<svg width="32" height="32" viewBox="0 0 32 32" fill="none" xmlns="http://www.w3.org/2000/svg">
<path d="M31.555 15.1675L25.555 11.1675C25.4044 11.067 25.2293 11.0093 25.0484 11.0005C24.8675 10.9918 24.6877 11.0323 24.528 11.1178C24.3684 11.2032 24.2349 11.3304 24.1419 11.4858C24.0489 11.6412 23.9999 11.8189 24 12V15H9V9.00001H13.125C13.3684 9.94267 13.9472 10.7642 14.753 11.3106C15.5588 11.857 16.5362 12.0908 17.502 11.9681C18.4678 11.8455 19.3557 11.3747 19.9993 10.6442C20.6429 9.91374 20.998 8.97358 20.998 8.00001C20.998 7.02644 20.6429 6.08628 19.9993 5.35578C19.3557 4.62527 18.4678 4.15457 17.502 4.03189C16.5362 3.90922 15.5588 4.143 14.753 4.68941C13.9472 5.23582 13.3684 6.05735 13.125 7.00001H9C8.46957 7.00001 7.96086 7.21072 7.58579 7.5858C7.21071 7.96087 7 8.46958 7 9.00001V15H1C0.734784 15 0.48043 15.1054 0.292893 15.2929C0.105357 15.4804 0 15.7348 0 16C0 16.2652 0.105357 16.5196 0.292893 16.7071C0.48043 16.8947 0.734784 17 1 17H7V23C7 23.5304 7.21071 24.0392 7.58579 24.4142C7.96086 24.7893 8.46957 25 9 25H13V26C13 26.5304 13.2107 27.0392 13.5858 27.4142C13.9609 27.7893 14.4696 28 15 28H19C19.5304 28 20.0391 27.7893 20.4142 27.4142C20.7893 27.0392 21 26.5304 21 26V22C21 21.4696 20.7893 20.9609 20.4142 20.5858C20.0391 20.2107 19.5304 20 19 20H15C14.4696 20 13.9609 20.2107 13.5858 20.5858C13.2107 20.9609 13 21.4696 13 22V23H9V17H24V20C23.9999 20.1811 24.0489 20.3588 24.1419 20.5142C24.2349 20.6696 24.3684 20.7968 24.528 20.8823C24.6877 20.9677 24.8675 21.0082 25.0484 20.9995C25.2293 20.9907 25.4044 20.933 25.555 20.8325L31.555 16.8325C31.6922 16.7412 31.8047 16.6175 31.8825 16.4722C31.9603 16.327 32.001 16.1648 32.001 16C32.001 15.8352 31.9603 15.673 31.8825 15.5278C31.8047 15.3826 31.6922 15.2588 31.555 15.1675ZM17 6.00001C17.3956 6.00001 17.7822 6.11731 18.1111 6.33707C18.44 6.55683 18.6964 6.86919 18.8478 7.23464C18.9991 7.60009 19.0387 8.00223 18.9616 8.39019C18.8844 8.77815 18.6939 9.13452 18.4142 9.41422C18.1345 9.69393 17.7781 9.88441 17.3902 9.96158C17.0022 10.0388 16.6001 9.99914 16.2346 9.84777C15.8692 9.69639 15.5568 9.44005 15.3371 9.11115C15.1173 8.78225 15 8.39557 15 8.00001C15 7.46958 15.2107 6.96087 15.5858 6.5858C15.9609 6.21072 16.4696 6.00001 17 6.00001ZM15 22H19V26H15V22ZM26 18.1313V13.875L29.1975 16L26 18.1313Z" fill="#4A4A4F"/>
</svg>
