<svg width="32" height="32" viewBox="0 0 32 32" fill="none" xmlns="http://www.w3.org/2000/svg">
<path d="M24.766 24.3564C24.8887 24.5022 24.9671 24.68 24.9921 24.8689C25.0171 25.0578 24.9876 25.2499 24.9071 25.4226C24.8266 25.5953 24.6985 25.7414 24.5377 25.8437C24.3769 25.9461 24.1903 26.0003 23.9998 26.0001H2.99976C2.80932 26.0001 2.62285 25.9456 2.46229 25.8432C2.30172 25.7408 2.17373 25.5947 2.09338 25.4221C2.01302 25.2494 1.98364 25.0574 2.00869 24.8686C2.03373 24.6798 2.11217 24.5021 2.23476 24.3564C4.10226 22.1339 6.42476 20.5551 9.00601 19.7101C7.43839 18.7337 6.23142 17.2734 5.56768 15.55C4.90395 13.8265 4.81958 11.9338 5.32733 10.1582C5.83508 8.38254 6.90733 6.82057 8.38185 5.70859C9.85638 4.59661 11.6529 3.99512 13.4998 3.99512C15.3466 3.99512 17.1432 4.59661 18.6177 5.70859C20.0922 6.82057 21.1645 8.38254 21.6722 10.1582C22.18 11.9338 22.0956 13.8265 21.4318 15.55C20.7681 17.2734 19.5611 18.7337 17.9935 19.7101C20.5748 20.5551 22.8973 22.1339 24.766 24.3564ZM30.9998 16.0001H24.9998C24.7345 16.0001 24.4802 16.1055 24.2927 16.293C24.1051 16.4805 23.9998 16.7349 23.9998 17.0001C23.9998 17.2653 24.1051 17.5197 24.2927 17.7072C24.4802 17.8948 24.7345 18.0001 24.9998 18.0001H30.9998C31.265 18.0001 31.5193 17.8948 31.7069 17.7072C31.8944 17.5197 31.9998 17.2653 31.9998 17.0001C31.9998 16.7349 31.8944 16.4805 31.7069 16.293C31.5193 16.1055 31.265 16.0001 30.9998 16.0001Z" fill="#4A4A4F"/>
</svg>
