<svg width="32" height="32" viewBox="0 0 32 32" fill="none" xmlns="http://www.w3.org/2000/svg">
<path d="M31.9999 17.0001C31.9999 17.2653 31.8946 17.5197 31.707 17.7072C31.5195 17.8948 31.2651 18.0001 30.9999 18.0001H24.9999C24.7347 18.0001 24.4803 17.8948 24.2928 17.7072C24.1053 17.5197 23.9999 17.2653 23.9999 17.0001C23.9999 16.7349 24.1053 16.4805 24.2928 16.293C24.4803 16.1055 24.7347 16.0001 24.9999 16.0001H30.9999C31.2651 16.0001 31.5195 16.1055 31.707 16.293C31.8946 16.4805 31.9999 16.7349 31.9999 17.0001ZM24.7662 24.3564C24.9369 24.5596 25.0199 24.8223 24.9969 25.0867C24.974 25.3512 24.8469 25.5956 24.6437 25.7664C24.4404 25.9371 24.1777 26.0201 23.9133 25.9971C23.6489 25.9742 23.4044 25.8471 23.2337 25.6439C20.7187 22.6489 17.2612 21.0001 13.4999 21.0001C9.73867 21.0001 6.28117 22.6489 3.76617 25.6439C3.59544 25.8469 3.35103 25.9738 3.08672 25.9967C2.82241 26.0196 2.55985 25.9365 2.35679 25.7657C2.15374 25.595 2.02682 25.3506 2.00397 25.0863C1.98111 24.822 2.06419 24.5594 2.23492 24.3564C4.10242 22.1339 6.42492 20.5551 9.00617 19.7101C7.43855 18.7337 6.23157 17.2734 5.56784 15.55C4.9041 13.8265 4.81973 11.9338 5.32748 10.1582C5.83523 8.38254 6.90748 6.82057 8.38201 5.70859C9.85653 4.59661 11.6531 3.99512 13.4999 3.99512C15.3467 3.99512 17.1433 4.59661 18.6178 5.70859C20.0924 6.82057 21.1646 8.38254 21.6724 10.1582C22.1801 11.9338 22.0957 13.8265 21.432 15.55C20.7683 17.2734 19.5613 18.7337 17.9937 19.7101C20.5749 20.5551 22.8974 22.1339 24.7662 24.3564ZM13.4999 19.0001C14.7855 19.0001 16.0422 18.6189 17.1111 17.9047C18.18 17.1904 19.0132 16.1753 19.5051 14.9876C19.9971 13.7998 20.1258 12.4929 19.875 11.232C19.6242 9.97115 19.0052 8.81296 18.0961 7.90392C17.1871 6.99488 16.0289 6.37582 14.768 6.12501C13.5071 5.87421 12.2002 6.00293 11.0125 6.4949C9.82476 6.98687 8.8096 7.81999 8.09537 8.88891C7.38114 9.95783 6.99992 11.2145 6.99992 12.5001C7.0019 14.2234 7.68736 15.8756 8.90592 17.0941C10.1245 18.3127 11.7766 18.9981 13.4999 19.0001Z" fill="#4A4A4F"/>
</svg>
