<svg width="32" height="32" viewBox="0 0 32 32" fill="none" xmlns="http://www.w3.org/2000/svg">
<path d="M21 7.00001C21 6.7348 21.1054 6.48044 21.2929 6.29291C21.4805 6.10537 21.7348 6.00001 22 6.00001H28C28.2652 6.00001 28.5196 6.10537 28.7071 6.29291C28.8947 6.48044 29 6.7348 29 7.00001C29 7.26523 28.8947 7.51958 28.7071 7.70712C28.5196 7.89466 28.2652 8.00001 28 8.00001H22C21.7348 8.00001 21.4805 7.89466 21.2929 7.70712C21.1054 7.51958 21 7.26523 21 7.00001ZM27.6688 13.0138C27.4072 13.0575 27.1738 13.2034 27.0197 13.4193C26.8657 13.6352 26.8038 13.9034 26.8475 14.165C26.9491 14.7714 27.0001 15.3852 27 16C27.0024 18.6928 26.0127 21.292 24.22 23.3013C23.4926 22.2471 22.5692 21.3427 21.5 20.6375C21.4087 20.577 21.3001 20.5481 21.1908 20.5553C21.0815 20.5626 20.9776 20.6055 20.895 20.6775C19.5364 21.8531 17.7998 22.5001 16.0032 22.5001C14.2065 22.5001 12.4699 21.8531 11.1113 20.6775C11.0283 20.604 10.9232 20.5602 10.8125 20.5529C10.7018 20.5457 10.5919 20.5755 10.5 20.6375C9.42923 21.342 8.50441 22.2464 7.77628 23.3013C6.36947 21.716 5.4506 19.758 5.1302 17.6629C4.80979 15.5678 5.1015 13.4247 5.97022 11.4914C6.83895 9.55811 8.2477 7.91698 10.027 6.76537C11.8064 5.61377 13.8805 5.00074 16 5.00001C16.6149 4.99992 17.2286 5.05093 17.835 5.15251C18.0954 5.1936 18.3615 5.13021 18.5754 4.97613C18.7893 4.82204 18.9337 4.58974 18.9772 4.32974C19.0207 4.06974 18.9598 3.80309 18.8077 3.58778C18.6556 3.37247 18.4246 3.22592 18.165 3.18001C15.4493 2.72316 12.6587 3.14118 10.1961 4.37373C7.73344 5.60628 5.72624 7.58958 4.46426 10.0373C3.20229 12.4849 2.75085 15.2704 3.17513 17.9913C3.59941 20.7123 4.87744 23.2281 6.82472 25.1753C8.77199 27.1226 11.2877 28.4006 14.0087 28.8249C16.7297 29.2492 19.5151 28.7978 21.9628 27.5358C24.4105 26.2738 26.3938 24.2666 27.6263 21.804C28.8589 19.3413 29.2769 16.5507 28.82 13.835C28.7763 13.5735 28.6304 13.34 28.4145 13.186C28.1986 13.032 27.9304 12.97 27.6688 13.0138ZM10.5 15C10.5 16.0878 10.8226 17.1512 11.427 18.0556C12.0313 18.9601 12.8903 19.6651 13.8953 20.0814C14.9003 20.4976 16.0061 20.6066 17.073 20.3943C18.1399 20.1821 19.1199 19.6583 19.8891 18.8891C20.6583 18.1199 21.1821 17.1399 21.3944 16.073C21.6066 15.0061 21.4977 13.9002 21.0814 12.8953C20.6651 11.8903 19.9601 11.0313 19.0557 10.4269C18.1512 9.82258 17.0878 9.50001 16 9.50001C14.5413 9.50001 13.1424 10.0795 12.1109 11.1109C11.0795 12.1424 10.5 13.5413 10.5 15Z" fill="#4A4A4F"/>
</svg>
