<svg width="32" height="32" viewBox="0 0 32 32" fill="none" xmlns="http://www.w3.org/2000/svg">
<path d="M16 3C13.4288 3 10.9154 3.76244 8.77759 5.1909C6.63975 6.61935 4.97351 8.64968 3.98957 11.0251C3.00563 13.4006 2.74819 16.0144 3.2498 18.5362C3.75141 21.0579 4.98953 23.3743 6.80762 25.1924C8.6257 27.0105 10.9421 28.2486 13.4638 28.7502C15.9856 29.2518 18.5995 28.9944 20.9749 28.0104C23.3503 27.0265 25.3807 25.3603 26.8091 23.2224C28.2376 21.0846 29 18.5712 29 16C28.9964 12.5533 27.6256 9.24882 25.1884 6.81163C22.7512 4.37445 19.4467 3.00364 16 3ZM9.00001 16C9.00001 16.2652 8.89465 16.5196 8.70711 16.7071C8.51958 16.8946 8.26522 17 8.00001 17C7.73479 17 7.48044 16.8946 7.2929 16.7071C7.10536 16.5196 7.00001 16.2652 7.00001 16C7.00265 13.6139 7.95171 11.3262 9.63897 9.63896C11.3262 7.95171 13.6139 7.00265 16 7C16.2652 7 16.5196 7.10536 16.7071 7.29289C16.8946 7.48043 17 7.73478 17 8C17 8.26522 16.8946 8.51957 16.7071 8.70711C16.5196 8.89464 16.2652 9 16 9C14.1441 9.00199 12.3648 9.74012 11.0525 11.0524C9.74013 12.3648 9.00199 14.1441 9.00001 16ZM13 16C13 15.4067 13.176 14.8266 13.5056 14.3333C13.8352 13.8399 14.3038 13.4554 14.852 13.2284C15.4001 13.0013 16.0033 12.9419 16.5853 13.0576C17.1672 13.1734 17.7018 13.4591 18.1213 13.8787C18.5409 14.2982 18.8266 14.8328 18.9424 15.4147C19.0581 15.9967 18.9987 16.5999 18.7716 17.1481C18.5446 17.6962 18.1601 18.1648 17.6667 18.4944C17.1734 18.8241 16.5933 19 16 19C15.2044 19 14.4413 18.6839 13.8787 18.1213C13.3161 17.5587 13 16.7956 13 16ZM16 25C15.7348 25 15.4804 24.8946 15.2929 24.7071C15.1054 24.5196 15 24.2652 15 24C15 23.7348 15.1054 23.4804 15.2929 23.2929C15.4804 23.1054 15.7348 23 16 23C17.8559 22.998 19.6352 22.2599 20.9476 20.9476C22.2599 19.6352 22.998 17.8559 23 16C23 15.7348 23.1054 15.4804 23.2929 15.2929C23.4804 15.1054 23.7348 15 24 15C24.2652 15 24.5196 15.1054 24.7071 15.2929C24.8946 15.4804 25 15.7348 25 16C24.9974 18.3861 24.0483 20.6738 22.361 22.361C20.6738 24.0483 18.3861 24.9974 16 25Z" fill="#4A4A4F"/>
</svg>
