<svg width="32" height="32" viewBox="0 0 32 32" fill="none" xmlns="http://www.w3.org/2000/svg">
<path d="M17 11.5H28.5C28.6326 11.5 28.7598 11.4473 28.8536 11.3536C28.9473 11.2598 29 11.1326 29 11V7C29 6.73478 28.8946 6.48043 28.7071 6.29289C28.5196 6.10536 28.2652 6 28 6H17.5C17.3674 6 17.2402 6.05268 17.1464 6.14645C17.0527 6.24021 17 6.36739 17 6.5V11.5Z" fill="#4A4A4F"/>
<path d="M23 19H28.5C28.6326 19 28.7598 18.9473 28.8536 18.8536C28.9473 18.7598 29 18.6326 29 18.5V14C29 13.8674 28.9473 13.7402 28.8536 13.6464C28.7598 13.5527 28.6326 13.5 28.5 13.5H23V19Z" fill="#4A4A4F"/>
<path d="M21 13.5H11V19H21V13.5Z" fill="#4A4A4F"/>
<path d="M9 13.5H3.5C3.36739 13.5 3.24021 13.5527 3.14645 13.6464C3.05268 13.7402 3 13.8674 3 14V18.5C3 18.6326 3.05268 18.7598 3.14645 18.8536C3.24021 18.9473 3.36739 19 3.5 19H9V13.5Z" fill="#4A4A4F"/>
<path d="M17 21V25.5C17 25.6326 17.0527 25.7598 17.1464 25.8536C17.2402 25.9473 17.3674 26 17.5 26H28C28.2652 26 28.5196 25.8946 28.7071 25.7071C28.8946 25.5196 29 25.2652 29 25V21.5C29 21.3674 28.9473 21.2402 28.8536 21.1464C28.7598 21.0527 28.6326 21 28.5 21H17Z" fill="#4A4A4F"/>
<path d="M15 11.5V6.5C15 6.36739 14.9473 6.24021 14.8536 6.14645C14.7598 6.05268 14.6326 6 14.5 6H4C3.73478 6 3.48043 6.10536 3.29289 6.29289C3.10536 6.48043 3 6.73478 3 7V11C3 11.1326 3.05268 11.2598 3.14645 11.3536C3.24021 11.4473 3.36739 11.5 3.5 11.5H15Z" fill="#4A4A4F"/>
<path d="M15 21H3.5C3.36739 21 3.24021 21.0527 3.14645 21.1464C3.05268 21.2402 3 21.3674 3 21.5V25C3 25.2652 3.10536 25.5196 3.29289 25.7071C3.48043 25.8946 3.73478 26 4 26H14.5C14.6326 26 14.7598 25.9473 14.8536 25.8536C14.9473 25.7598 15 25.6326 15 25.5V21Z" fill="#4A4A4F"/>
</svg>
