<svg width="32" height="32" viewBox="0 0 32 32" fill="none" xmlns="http://www.w3.org/2000/svg">
<path d="M15 17V10C15 9.73479 15.1054 9.48044 15.2929 9.2929C15.4804 9.10537 15.7348 9.00001 16 9.00001C16.2652 9.00001 16.5196 9.10537 16.7071 9.2929C16.8947 9.48044 17 9.73479 17 10V17C17 17.2652 16.8947 17.5196 16.7071 17.7071C16.5196 17.8947 16.2652 18 16 18C15.7348 18 15.4804 17.8947 15.2929 17.7071C15.1054 17.5196 15 17.2652 15 17ZM29 11.4438V20.5563C29.0008 20.819 28.9495 21.0793 28.8488 21.322C28.7482 21.5647 28.6003 21.785 28.4138 21.97L21.97 28.4138C21.785 28.6003 21.5647 28.7482 21.322 28.8488C21.0793 28.9495 20.819 29.0008 20.5563 29H11.4438C11.181 29.0008 10.9207 28.9495 10.678 28.8488C10.4353 28.7482 10.2151 28.6003 10.03 28.4138L3.58626 21.97C3.39973 21.785 3.25185 21.5647 3.15121 21.322C3.05057 21.0793 2.99917 20.819 3.00001 20.5563V11.4438C2.99917 11.181 3.05057 10.9207 3.15121 10.678C3.25185 10.4353 3.39973 10.2151 3.58626 10.03L10.03 3.58626C10.2151 3.39973 10.4353 3.25185 10.678 3.15121C10.9207 3.05057 11.181 2.99917 11.4438 3.00001H20.5563C20.819 2.99917 21.0793 3.05057 21.322 3.15121C21.5647 3.25185 21.785 3.39973 21.97 3.58626L28.4138 10.03C28.6003 10.2151 28.7482 10.4353 28.8488 10.678C28.9495 10.9207 29.0008 11.181 29 11.4438ZM27 11.4438L20.5563 5.00001H11.4438L5.00001 11.4438V20.5563L11.4438 27H20.5563L27 20.5563V11.4438ZM16 20C15.7033 20 15.4133 20.088 15.1667 20.2528C14.92 20.4176 14.7277 20.6519 14.6142 20.926C14.5007 21.2001 14.471 21.5017 14.5288 21.7926C14.5867 22.0836 14.7296 22.3509 14.9394 22.5607C15.1491 22.7704 15.4164 22.9133 15.7074 22.9712C15.9983 23.0291 16.2999 22.9994 16.574 22.8858C16.8481 22.7723 17.0824 22.58 17.2472 22.3334C17.412 22.0867 17.5 21.7967 17.5 21.5C17.5 21.1022 17.342 20.7207 17.0607 20.4394C16.7794 20.158 16.3978 20 16 20Z" fill="#4A4A4F"/>
</svg>
