<svg width="32" height="32" viewBox="0 0 32 32" fill="none" xmlns="http://www.w3.org/2000/svg">
<path d="M29.6001 23.5113L18.6689 4.52758C18.3957 4.06249 18.0057 3.67686 17.5376 3.40891C17.0695 3.14096 16.5395 3 16.0001 3C15.4607 3 14.9307 3.14096 14.4626 3.40891C13.9945 3.67686 13.6045 4.06249 13.3314 4.52758L2.40012 23.5113C2.13729 23.9612 1.99878 24.4728 1.99878 24.9938C1.99878 25.5148 2.13729 26.0265 2.40012 26.4763C2.66978 26.9442 3.05908 27.332 3.52807 27.5997C3.99706 27.8675 4.52885 28.0057 5.06887 28.0001H26.9314C27.471 28.0052 28.0022 27.8669 28.4707 27.5991C28.9393 27.3314 29.3282 26.9439 29.5976 26.4763C29.8608 26.0267 29.9998 25.5152 30.0002 24.9942C30.0007 24.4732 29.8626 23.9614 29.6001 23.5113ZM15.0001 13.0001C15.0001 12.7349 15.1055 12.4805 15.293 12.293C15.4805 12.1054 15.7349 12.0001 16.0001 12.0001C16.2653 12.0001 16.5197 12.1054 16.7072 12.293C16.8948 12.4805 17.0001 12.7349 17.0001 13.0001V18.0001C17.0001 18.2653 16.8948 18.5197 16.7072 18.7072C16.5197 18.8947 16.2653 19.0001 16.0001 19.0001C15.7349 19.0001 15.4805 18.8947 15.293 18.7072C15.1055 18.5197 15.0001 18.2653 15.0001 18.0001V13.0001ZM16.0001 24.0001C15.7034 24.0001 15.4134 23.9121 15.1668 23.7473C14.9201 23.5825 14.7278 23.3482 14.6143 23.0741C14.5008 22.8 14.4711 22.4984 14.5289 22.2074C14.5868 21.9165 14.7297 21.6492 14.9395 21.4394C15.1492 21.2296 15.4165 21.0868 15.7075 21.0289C15.9985 20.971 16.3001 21.0007 16.5741 21.1143C16.8482 21.2278 17.0825 21.4201 17.2473 21.6667C17.4121 21.9134 17.5001 22.2034 17.5001 22.5001C17.5001 22.8979 17.3421 23.2794 17.0608 23.5607C16.7795 23.842 16.3979 24.0001 16.0001 24.0001Z" fill="#4A4A4F"/>
</svg>
