<svg width="32" height="32" viewBox="0 0 32 32" fill="none" xmlns="http://www.w3.org/2000/svg">
<path d="M29.81 16.5851L23.31 25.5851C23.2174 25.7142 23.0954 25.8193 22.9541 25.8918C22.8128 25.9644 22.6563 26.0022 22.4975 26.0022C22.3387 26.0022 22.1821 25.9644 22.0409 25.8918C21.8996 25.8193 21.7776 25.7142 21.685 25.5851L9.5 8.70764L3.81125 16.5826C3.73443 16.6893 3.63734 16.7799 3.52553 16.849C3.41372 16.9182 3.28939 16.9647 3.15962 16.9858C3.02985 17.007 2.89719 17.0023 2.76921 16.9722C2.64123 16.942 2.52045 16.887 2.41375 16.8101C2.30705 16.7333 2.21653 16.6362 2.14735 16.5244C2.07817 16.4126 2.03169 16.2883 2.01057 16.1585C1.98944 16.0287 1.99408 15.8961 2.02423 15.7681C2.05437 15.6401 2.10943 15.5193 2.18625 15.4126L8.68625 6.41264C8.77883 6.28361 8.90082 6.17848 9.04211 6.10595C9.1834 6.03343 9.33993 5.99561 9.49875 5.99561C9.65756 5.99561 9.8141 6.03343 9.95539 6.10595C10.0967 6.17848 10.2187 6.28361 10.3112 6.41264L22.5 23.2876L28.1887 15.4126C28.2656 15.3059 28.3627 15.2154 28.4745 15.1462C28.5863 15.0771 28.7106 15.0306 28.8404 15.0095C28.9702 14.9883 29.1028 14.993 29.2308 15.0231C29.3588 15.0533 29.4795 15.1083 29.5862 15.1851C29.6929 15.262 29.7835 15.3591 29.8526 15.4709C29.9218 15.5827 29.9683 15.707 29.9894 15.8368C30.0106 15.9665 30.0059 16.0992 29.9758 16.2272C29.9456 16.3552 29.8906 16.4759 29.8137 16.5826L29.81 16.5851Z" fill="#4A4A4F"/>
</svg>
