<svg width="32" height="32" viewBox="0 0 32 32" fill="none" xmlns="http://www.w3.org/2000/svg">
<path d="M20 12.9999C20 13.791 19.7654 14.5644 19.3259 15.2222C18.8864 15.88 18.2616 16.3926 17.5307 16.6954C16.7998 16.9981 15.9956 17.0774 15.2196 16.923C14.4437 16.7687 13.731 16.3877 13.1716 15.8283C12.6122 15.2689 12.2312 14.5562 12.0769 13.7802C11.9225 13.0043 12.0017 12.2 12.3045 11.4691C12.6072 10.7382 13.1199 10.1135 13.7777 9.674C14.4355 9.23447 15.2089 8.99987 16 8.99987C17.0609 8.99987 18.0783 9.4213 18.8284 10.1714C19.5786 10.9216 20 11.939 20 12.9999ZM29 25.9999C29 26.2651 28.8946 26.5194 28.7071 26.707C28.5196 26.8945 28.2652 26.9999 28 26.9999H4C3.73478 26.9999 3.48043 26.8945 3.29289 26.707C3.10536 26.5194 3 26.2651 3 25.9999C3 25.7347 3.10536 25.4803 3.29289 25.2928C3.48043 25.1052 3.73478 24.9999 4 24.9999H15V22.9499C12.4474 22.6933 10.091 21.4655 8.41816 19.5204C6.74535 17.5753 5.8841 15.0617 6.01254 12.4994C6.14098 9.93709 7.24927 7.52218 9.1082 5.75409C10.9671 3.98601 13.4345 3 16 3C18.5655 3 21.0329 3.98601 22.8918 5.75409C24.7507 7.52218 25.859 9.93709 25.9875 12.4994C26.1159 15.0617 25.2547 17.5753 23.5818 19.5204C21.909 21.4655 19.5526 22.6933 17 22.9499V24.9999H28C28.2652 24.9999 28.5196 25.1052 28.7071 25.2928C28.8946 25.4803 29 25.7347 29 25.9999ZM16 18.9999C17.1867 18.9999 18.3467 18.648 19.3334 17.9887C20.3201 17.3294 21.0892 16.3923 21.5433 15.296C21.9974 14.1996 22.1162 12.9932 21.8847 11.8293C21.6532 10.6654 21.0818 9.59635 20.2426 8.75723C19.4035 7.91812 18.3344 7.34667 17.1705 7.11516C16.0067 6.88365 14.8003 7.00247 13.7039 7.4566C12.6075 7.91072 11.6705 8.67976 11.0112 9.66645C10.3519 10.6531 10 11.8132 10 12.9999C10.0017 14.5907 10.6343 16.1158 11.7592 17.2407C12.884 18.3655 14.4092 18.9982 16 18.9999Z" fill="#4A4A4F"/>
</svg>
