<svg width="32" height="32" viewBox="0 0 32 32" fill="none" xmlns="http://www.w3.org/2000/svg">
<path d="M26.7399 26.3277C26.8301 26.4245 26.9001 26.5383 26.946 26.6625C26.9918 26.7866 27.0126 26.9186 27.0071 27.0508C27.0016 27.183 26.9698 27.3128 26.9138 27.4327C26.8577 27.5526 26.7784 27.6601 26.6805 27.7491C26.5826 27.8381 26.468 27.9068 26.3433 27.9512C26.2186 27.9955 26.0864 28.0147 25.9542 28.0076C25.8221 28.0005 25.6927 27.9672 25.5735 27.9097C25.4543 27.8522 25.3477 27.7717 25.2599 27.6727L21.0511 23.0477L17.5386 27.2827C17.3509 27.5083 17.1156 27.6896 16.8496 27.8136C16.5836 27.9377 16.2934 28.0014 15.9999 28.0002C15.7061 28.0009 15.4157 27.9366 15.1497 27.8119C14.8837 27.6873 14.6485 27.5052 14.4611 27.2789L1.45614 11.6002C1.28498 11.3957 1.15743 11.1584 1.08133 10.9028C1.00524 10.6472 0.982204 10.3787 1.01364 10.1139C1.04492 9.84846 1.12933 9.59201 1.26183 9.35986C1.39434 9.12771 1.57222 8.92461 1.78489 8.76268C3.04639 7.80733 4.40118 6.98189 5.82864 6.29893L5.25989 5.67393C5.08137 5.47767 4.98812 5.21853 5.00066 4.95352C5.0132 4.6885 5.13051 4.43933 5.32677 4.2608C5.52303 4.08228 5.78217 3.98903 6.04718 4.00157C6.31219 4.01412 6.56137 4.13142 6.73989 4.32768L26.7399 26.3277ZM30.9899 10.1139C30.9586 9.84846 30.8742 9.59201 30.7417 9.35986C30.6092 9.12771 30.4313 8.92461 30.2186 8.76268C26.1321 5.65402 21.1344 3.98005 15.9999 4.00018C14.5169 3.99984 13.0372 4.13793 11.5799 4.41268C11.4051 4.44563 11.2423 4.5246 11.1082 4.64145C10.9741 4.7583 10.8736 4.90879 10.8171 5.07742C10.7605 5.24605 10.7499 5.42671 10.7865 5.60078C10.823 5.77484 10.9053 5.93602 11.0249 6.06768L22.8561 19.0827C22.9499 19.1858 23.0641 19.2682 23.1915 19.3246C23.319 19.381 23.4568 19.4102 23.5961 19.4102H23.6249C23.7686 19.4072 23.91 19.3733 24.0394 19.3107C24.1689 19.2482 24.2833 19.1585 24.3749 19.0477L30.5436 11.6002C30.7148 11.3957 30.8424 11.1584 30.9185 10.9028C30.9945 10.6472 31.0176 10.3787 30.9861 10.1139H30.9899Z" fill="#4A4A4F"/>
</svg>
