<svg width="32" height="32" viewBox="0 0 32 32" fill="none" xmlns="http://www.w3.org/2000/svg">
<path d="M28.7075 12.2926C28.8004 12.3855 28.8741 12.4958 28.9244 12.6172C28.9747 12.7386 29.0005 12.8687 29.0005 13.0001C29.0005 13.1315 28.9747 13.2616 28.9244 13.383C28.8741 13.5044 28.8004 13.6147 28.7075 13.7076C28.6146 13.8005 28.5043 13.8742 28.3829 13.9245C28.2615 13.9747 28.1314 14.0006 28 14.0006C27.8686 14.0006 27.7385 13.9747 27.6171 13.9245C27.4957 13.8742 27.3854 13.8005 27.2925 13.7076L25 11.4138L22.7075 13.7076C22.5198 13.8952 22.2653 14.0006 22 14.0006C21.7346 14.0006 21.4801 13.8952 21.2925 13.7076C21.1048 13.5199 20.9994 13.2654 20.9994 13.0001C20.9994 12.7347 21.1048 12.4802 21.2925 12.2926L23.5862 10.0001L21.2925 7.70757C21.1996 7.61466 21.1259 7.50436 21.0756 7.38296C21.0253 7.26157 20.9994 7.13146 20.9994 7.00007C20.9994 6.86867 21.0253 6.73856 21.0756 6.61717C21.1259 6.49578 21.1996 6.38548 21.2925 6.29257C21.4801 6.10493 21.7346 5.99951 22 5.99951C22.1314 5.99951 22.2615 6.02539 22.3829 6.07567C22.5043 6.12596 22.6146 6.19966 22.7075 6.29257L25 8.58632L27.2925 6.29257C27.3854 6.19966 27.4957 6.12596 27.6171 6.07567C27.7385 6.02539 27.8686 5.99951 28 5.99951C28.1314 5.99951 28.2615 6.02539 28.3829 6.07567C28.5043 6.12596 28.6146 6.19966 28.7075 6.29257C28.8004 6.38548 28.8741 6.49578 28.9244 6.61717C28.9747 6.73856 29.0005 6.86867 29.0005 7.00007C29.0005 7.13146 28.9747 7.26157 28.9244 7.38296C28.8741 7.50436 28.8004 7.61466 28.7075 7.70757L26.4137 10.0001L28.7075 12.2926ZM16 24.0001C15.7033 24.0001 15.4133 24.088 15.1666 24.2529C14.92 24.4177 14.7277 24.652 14.6142 24.926C14.5006 25.2001 14.4709 25.5017 14.5288 25.7927C14.5867 26.0837 14.7295 26.3509 14.9393 26.5607C15.1491 26.7705 15.4164 26.9134 15.7073 26.9712C15.9983 27.0291 16.2999 26.9994 16.574 26.8859C16.8481 26.7724 17.0824 26.5801 17.2472 26.3334C17.412 26.0868 17.5 25.7967 17.5 25.5001C17.5 25.1022 17.3419 24.7207 17.0606 24.4394C16.7793 24.1581 16.3978 24.0001 16 24.0001ZM21.5887 19.8163C19.9644 18.6358 18.008 18 16 18C13.992 18 12.0356 18.6358 10.4112 19.8163C10.1967 19.9725 10.0531 20.2074 10.0118 20.4695C9.97054 20.7316 10.0351 20.9993 10.1912 21.2138C10.3474 21.4283 10.5823 21.572 10.8444 21.6132C11.1065 21.6545 11.3742 21.59 11.5887 21.4338C12.8706 20.5015 14.4149 19.9994 16 19.9994C17.585 19.9994 19.1293 20.5015 20.4112 21.4338C20.5174 21.5111 20.6378 21.5668 20.7655 21.5976C20.8933 21.6283 21.0258 21.6337 21.1555 21.6132C21.2853 21.5928 21.4098 21.547 21.5219 21.4785C21.6339 21.41 21.7314 21.32 21.8087 21.2138C21.8861 21.1076 21.9417 20.9872 21.9725 20.8595C22.0033 20.7318 22.0086 20.5993 21.9882 20.4695C21.9677 20.3397 21.9219 20.2153 21.8534 20.1032C21.7849 19.9911 21.6949 19.8936 21.5887 19.8163ZM17.9037 8.09132C18.0363 8.10772 18.1708 8.0974 18.2993 8.06097C18.4278 8.02453 18.5477 7.96273 18.6519 7.8792C18.7561 7.79567 18.8426 7.6921 18.9061 7.57462C18.9697 7.45714 19.009 7.32811 19.0219 7.19517C19.0347 7.06222 19.0208 6.92805 18.981 6.80056C18.9411 6.67308 18.8762 6.55487 18.7899 6.45291C18.7036 6.35095 18.5978 6.26731 18.4786 6.20692C18.3595 6.14654 18.2295 6.11063 18.0962 6.10132C17.405 6.03382 16.6987 6.00007 16 6.00007C11.0287 6.00322 6.21139 7.72557 2.36499 10.8751C2.26346 10.9585 2.17935 11.061 2.11746 11.1769C2.05557 11.2928 2.01712 11.4198 2.00429 11.5505C1.99146 11.6813 2.00452 11.8133 2.04271 11.939C2.0809 12.0647 2.14347 12.1817 2.22686 12.2832C2.31025 12.3847 2.41282 12.4688 2.52871 12.5307C2.64461 12.5926 2.77156 12.6311 2.90232 12.6439C3.16639 12.6698 3.42994 12.5897 3.63499 12.4213C7.12284 9.56463 11.4916 8.00254 16 8.00007C16.635 8.00007 17.275 8.03132 17.9037 8.09132ZM17.8637 14.1251C18.1251 14.1584 18.3891 14.0872 18.5983 13.927C18.8075 13.7667 18.9449 13.5304 18.9808 13.2694C19.0168 13.0083 18.9482 12.7436 18.79 12.5329C18.6319 12.3221 18.3969 12.1823 18.1362 12.1438C17.4283 12.047 16.7145 11.999 16 12.0001C12.5041 11.9863 9.10839 13.1669 6.37499 15.3463C6.21399 15.476 6.09715 15.6524 6.04054 15.8512C5.98393 16.05 5.99033 16.2615 6.05886 16.4566C6.12739 16.6516 6.25469 16.8206 6.42322 16.9403C6.59176 17.06 6.79326 17.1246 6.99999 17.1251C7.22693 17.1267 7.44755 17.0503 7.62499 16.9088C10.0041 15.0141 12.9586 13.988 16 14.0001C16.6234 13.999 17.2461 14.0408 17.8637 14.1251Z" fill="#4A4A4F"/>
</svg>
