<svg width="32" height="32" viewBox="0 0 32 32" fill="none" xmlns="http://www.w3.org/2000/svg">
<path d="M17.5001 25.5001C17.5001 25.7968 17.4121 26.0868 17.2473 26.3334C17.0825 26.5801 16.8482 26.7724 16.5741 26.8859C16.3 26.9994 15.9984 27.0291 15.7075 26.9713C15.4165 26.9134 15.1492 26.7705 14.9395 26.5608C14.7297 26.351 14.5868 26.0837 14.5289 25.7927C14.4711 25.5018 14.5008 25.2002 14.6143 24.9261C14.7278 24.652 14.9201 24.4177 15.1668 24.2529C15.4134 24.0881 15.7034 24.0001 16.0001 24.0001C16.3979 24.0001 16.7795 24.1581 17.0608 24.4394C17.3421 24.7207 17.5001 25.1023 17.5001 25.5001ZM21.5889 19.8163C19.9645 18.6358 18.0081 18 16.0001 18C13.9921 18 12.0357 18.6358 10.4114 19.8163C10.1969 19.9725 10.0532 20.2074 10.0119 20.4695C9.97067 20.7316 10.0352 20.9994 10.1914 21.2138C10.3475 21.4283 10.5825 21.572 10.8445 21.6133C11.1066 21.6545 11.3744 21.59 11.5889 21.4338C12.8708 20.5016 14.4151 19.9994 16.0001 19.9994C17.5852 19.9994 19.1295 20.5016 20.4114 21.4338C20.5176 21.5112 20.638 21.5668 20.7657 21.5976C20.8934 21.6284 21.0259 21.6337 21.1557 21.6133C21.2854 21.5928 21.4099 21.5471 21.522 21.4785C21.6341 21.41 21.7315 21.3201 21.8089 21.2138C21.8862 21.1076 21.9418 20.9872 21.9726 20.8595C22.0034 20.7318 22.0087 20.5993 21.9883 20.4695C21.9679 20.3398 21.9221 20.2153 21.8535 20.1032C21.785 19.9911 21.6951 19.8937 21.5889 19.8163Z" fill="#4A4A4F"/>
</svg>
