<svg width="32" height="32" viewBox="0 0 32 32" fill="none" xmlns="http://www.w3.org/2000/svg">
<path d="M23 23C23 24.0609 22.5786 25.0783 21.8284 25.8284C21.0783 26.5786 20.0609 27 19 27C17.2875 27 15.6313 25.8837 15.0625 24.3475C14.976 24.1002 14.99 23.8288 15.1015 23.5916C15.213 23.3545 15.4131 23.1706 15.6588 23.0796C15.9045 22.9885 16.1762 22.9975 16.4153 23.1046C16.6544 23.2118 16.8419 23.4085 16.9375 23.6525C17.2175 24.4088 18.125 25 19 25C19.5304 25 20.0391 24.7893 20.4142 24.4142C20.7893 24.0391 21 23.5304 21 23C21 22.4696 20.7893 21.9609 20.4142 21.5858C20.0391 21.2107 19.5304 21 19 21H5C4.73478 21 4.48043 20.8946 4.29289 20.7071C4.10536 20.5196 4 20.2652 4 20C4 19.7348 4.10536 19.4804 4.29289 19.2929C4.48043 19.1054 4.73478 19 5 19H19C20.0609 19 21.0783 19.4214 21.8284 20.1716C22.5786 20.9217 23 21.9391 23 23ZM15 13C16.0609 13 17.0783 12.5786 17.8284 11.8284C18.5786 11.0783 19 10.0609 19 9C19 7.93913 18.5786 6.92172 17.8284 6.17157C17.0783 5.42143 16.0609 5 15 5C13.2875 5 11.6313 6.11625 11.0625 7.6525C10.976 7.89983 10.99 8.17125 11.1015 8.40837C11.213 8.64549 11.4131 8.82936 11.6588 8.92043C11.9045 9.0115 12.1762 9.0025 12.4153 8.89535C12.6544 8.78821 12.8419 8.59148 12.9375 8.3475C13.2175 7.59125 14.125 7 15 7C15.5304 7 16.0391 7.21071 16.4142 7.58579C16.7893 7.96086 17 8.46957 17 9C17 9.53043 16.7893 10.0391 16.4142 10.4142C16.0391 10.7893 15.5304 11 15 11H3C2.73478 11 2.48043 11.1054 2.29289 11.2929C2.10536 11.4804 2 11.7348 2 12C2 12.2652 2.10536 12.5196 2.29289 12.7071C2.48043 12.8946 2.73478 13 3 13H15ZM26 9C24.2875 9 22.6313 10.1163 22.0625 11.6525C21.976 11.8998 21.99 12.1712 22.1015 12.4084C22.213 12.6455 22.4131 12.8294 22.6588 12.9204C22.9045 13.0115 23.1762 13.0025 23.4153 12.8954C23.6544 12.7882 23.8419 12.5915 23.9375 12.3475C24.2175 11.5912 25.125 11 26 11C26.5304 11 27.0391 11.2107 27.4142 11.5858C27.7893 11.9609 28 12.4696 28 13C28 13.5304 27.7893 14.0391 27.4142 14.4142C27.0391 14.7893 26.5304 15 26 15H4C3.73478 15 3.48043 15.1054 3.29289 15.2929C3.10536 15.4804 3 15.7348 3 16C3 16.2652 3.10536 16.5196 3.29289 16.7071C3.48043 16.8946 3.73478 17 4 17H26C27.0609 17 28.0783 16.5786 28.8284 15.8284C29.5786 15.0783 30 14.0609 30 13C30 11.9391 29.5786 10.9217 28.8284 10.1716C28.0783 9.42143 27.0609 9 26 9Z" fill="#4A4A4F"/>
</svg>
