<svg xmlns="http://www.w3.org/2000/svg" width="32" height="32" fill="none" viewBox="0 0 32 32">
  <path fill="#4A4A4F" d="M21.75 5.969a31.773 31.773 0 0 0-5.181-4.788 1 1 0 0 0-1.148 0A31.771 31.771 0 0 0 10.25 5.97C6.814 9.915 5 14.075 5 18a11 11 0 1 0 22 0c0-3.925-1.814-8.085-5.25-12.031ZM23.479 23H8.52a8.999 8.999 0 0 1-1-2h16.963a8.996 8.996 0 0 1-1.005 2ZM25 18c0 .334-.02.668-.058 1H7.058A8.821 8.821 0 0 1 7 18c0-.333.015-.666.045-1h17.91c.03.334.045.667.045 1ZM16 3.25c1.77 1.388 7.108 5.968 8.605 11.75H7.395C8.893 9.22 14.23 4.64 16 3.25ZM10.351 25H21.65a8.978 8.978 0 0 1-11.298 0Z"/>
</svg>
