<svg xmlns="http://www.w3.org/2000/svg" width="32" height="32" fill="none" viewBox="0 0 32 32">
  <path fill="#4A4A4F" d="M29 15h-2.046a10.91 10.91 0 0 0-.968-3.61l1.773-1.024a1 1 0 0 0-1-1.732l-1.775 1.025a11.096 11.096 0 0 0-2.643-2.643l1.025-1.775a1 1 0 1 0-1.732-1L20.61 6.014A10.909 10.909 0 0 0 17 5.046V3a1 1 0 0 0-2 0v2.046a10.92 10.92 0 0 0-3.61.968L10.366 4.24a1 1 0 0 0-1.732 1l1.025 1.775A11.097 11.097 0 0 0 7.016 9.66L5.241 8.634a1 1 0 1 0-1 1.732l1.773 1.024A10.909 10.909 0 0 0 5.046 15H3a1 1 0 0 0 0 2h2.046c.113 1.25.44 2.471.968 3.61L4.24 21.634a1 1 0 1 0 1 1.732l1.775-1.025a11.096 11.096 0 0 0 2.643 2.643l-1.025 1.775a1 1 0 1 0 1.732 1l1.024-1.773a10.91 10.91 0 0 0 3.61.968V29a1 1 0 0 0 2 0v-2.046a10.91 10.91 0 0 0 3.61-.968l1.024 1.773a1 1 0 0 0 1.732-1l-1.025-1.775a11.096 11.096 0 0 0 2.643-2.643l1.775 1.025A.999.999 0 0 0 28.125 23a1 1 0 0 0-.365-1.366l-1.773-1.024c.528-1.139.855-2.36.967-3.61H29a1 1 0 0 0 0-2ZM16 7a9.01 9.01 0 0 1 8.942 8h-8.364l-4.183-7.244A8.948 8.948 0 0 1 16 7Zm-9 9a9 9 0 0 1 3.664-7.242L14.845 16l-4.181 7.242A9 9 0 0 1 7 16Zm9 9a8.949 8.949 0 0 1-3.605-.75L16.578 17h8.364A9.01 9.01 0 0 1 16 25Z"/>
</svg>
