<svg xmlns="http://www.w3.org/2000/svg" width="32" height="32" fill="none" viewBox="0 0 32 32">
  <path fill="#4A4A4F" d="M21.865 19.5C20.579 21.724 18.441 23 16 23c-2.441 0-4.579-1.275-5.866-3.5a1.003 1.003 0 0 1 .366-1.366 1.003 1.003 0 0 1 1.366.366C12.8 20.114 14.266 21 16 21c1.734 0 3.201-.887 4.135-2.5a1 1 0 1 1 1.73 1ZM29 16a13.08 13.08 0 0 1-.57 3.82 1 1 0 0 1-.25.414l-7.946 7.946a.988.988 0 0 1-.413.25A13 13 0 1 1 29 16Zm-2 0a10.987 10.987 0 1 0-8 10.586L26.586 19c.276-.976.415-1.986.414-3Zm-15.5-1a1.5 1.5 0 1 0 0-3 1.5 1.5 0 0 0 0 3Zm9-3a1.5 1.5 0 1 0 0 3 1.5 1.5 0 0 0 0-3Z"/>
</svg>
