<?xml version="1.0" standalone="no"?>
<!DOCTYPE svg PUBLIC "-//W3C//DTD SVG 1.1//EN" "http://www.w3.org/Graphics/SVG/1.1/DTD/svg11.dtd">
<svg xmlns="http://www.w3.org/2000/svg">
<metadata>Copyright (C) 2023 by original authors @ fontello.com</metadata>
<defs>
<font id="mas-icons" horiz-adv-x="1000" >
<font-face font-family="mas-icons" font-weight="400" font-stretch="normal" units-per-em="1000" ascent="850" descent="-150" />
<missing-glyph horiz-adv-x="1000" />
<glyph glyph-name="airplane-filled" unicode="&#xe800;" d="M938 319v-125c0-8-4-16-10-22-5-6-13-9-22-9-2 0-4 0-6 0l-291 58v-93l69-68c6-6 10-14 10-22v-94c0-5-2-10-4-15-2-5-6-8-10-11-4-3-9-5-14-5-6-1-11 0-15 2l-145 58-144-58c-5-2-10-3-15-2-6 0-10 2-15 5-4 3-7 6-10 11-2 5-3 10-3 15v94c0 4 0 8 2 12 1 3 4 7 7 10l69 69v92l-291-58c-2 0-4 0-6 0-8 0-16 3-22 9-6 6-9 14-9 22v125c0 6 1 11 4 16 3 5 8 9 13 12l311 155v176c0 29 11 57 32 78 20 20 48 32 77 32 29 0 57-12 77-32 21-21 32-49 32-78v-176l311-155c5-3 10-7 13-12 3-5 5-10 5-16z" horiz-adv-x="1000" />

<glyph glyph-name="addressbook-filled-1" unicode="&#xe801;" d="M625 413c0-19-5-37-16-53-10-15-25-27-42-34-17-7-36-9-54-5-18 3-35 12-48 25-13 13-22 30-26 48-3 18-1 37 6 54 7 18 19 32 34 43 16 10 34 15 52 15 25 0 49-10 67-27 17-18 27-42 27-66z m250 281v-688c0-16-7-32-18-44-12-12-28-18-44-18h-563c-17 0-32 6-44 18-12 12-18 28-18 44v94h-63c-8 0-16 3-22 9-6 6-9 14-9 22 0 9 3 17 9 22 6 6 14 10 22 10h63v156h-63c-8 0-16 3-22 9-6 6-9 14-9 22 0 8 3 16 9 22 6 6 14 9 22 9h63v157h-63c-8 0-16 3-22 9-6 6-9 14-9 22 0 8 3 16 9 22 6 6 14 9 22 9h63v94c0 16 6 32 18 44 12 12 27 18 44 18h563c16 0 32-6 44-18 11-12 18-28 18-44z m-131-481c-28 37-65 66-107 84 23 22 39 49 47 80 7 31 4 63-7 92-11 30-31 55-57 73-26 17-57 27-89 27-31 0-62-10-88-27-26-18-46-43-57-73-12-29-14-61-7-92 7-31 24-58 47-80-42-18-79-47-107-84-3-4-4-7-5-11-1-4-2-9-1-13 0-4 2-8 4-11 2-4 5-7 8-9 3-3 7-4 11-5 4-1 8-2 12-1 4 0 8 2 12 4 3 2 6 5 9 8 19 25 43 46 71 60 29 14 60 21 91 21 32 0 63-7 91-21 28-14 53-35 72-60 5-7 12-11 20-12 9-1 17 1 24 6 6 5 11 12 12 20 1 9-1 17-6 24z" horiz-adv-x="1000" />

<glyph glyph-name="airplaneinflight-filled" unicode="&#xe802;" d="M875 6c0-8-3-16-9-22-6-6-14-9-22-9h-563c-8 0-16 3-22 9-6 6-9 14-9 22 0 9 3 17 9 22 6 6 14 10 22 10h563c8 0 16-4 22-10 6-5 9-13 9-22z m-62 469h-237l-179 178c-3 3-6 6-10 7-4 2-8 3-12 3h-31c-10 0-20-3-29-7-8-5-16-11-22-19-6-8-9-18-11-28-1-9-1-19 3-29l35-105h-88l-85 85c-3 3-6 5-10 6-4 2-8 3-12 3h-31c-10 0-20-2-28-7-9-4-16-11-22-18-6-8-10-17-12-27-1-9-1-19 2-29l55-183c9-32 29-60 56-80 27-21 60-31 94-31h699c8 0 16 3 22 9 6 6 9 14 9 22v94c0 41-17 81-46 110-29 30-69 46-110 46z" horiz-adv-x="1000" />

<glyph glyph-name="airplaneinflight-outlined" unicode="&#xe803;" d="M875 6c0-8-3-16-9-22-6-6-14-9-22-9h-563c-8 0-16 3-22 9-6 6-9 14-9 22 0 9 3 17 9 22 6 6 14 10 22 10h563c8 0 16-4 22-10 6-5 9-13 9-22z m94 313v-94c0-8-3-16-9-22-6-6-14-9-22-9h-699c-34 0-67 10-94 31-27 20-47 48-56 80l-55 183c-3 10-3 20-2 29 2 10 6 19 12 27 6 7 13 14 22 18 8 5 18 7 28 7h31c8 0 16-3 22-9l85-85h88l-36 105c-3 10-4 20-2 29 1 10 5 20 11 28 6 8 13 14 22 19 9 4 19 7 29 7h31c4 0 8-1 12-3 4-1 7-4 10-7l179-178h237c41 0 81-16 110-46 29-29 46-69 46-110z m-63 0c0 25-10 49-27 66-18 18-42 28-66 28h-250c-9 0-17 3-23 9l-178 178h-18l49-146c1-5 2-10 1-15-1-5-3-9-6-13-3-4-6-8-11-10-4-2-9-3-14-3h-144c-4 0-8 0-12 2-4 1-7 4-10 7l-85 84h-18l55-183c5-19 17-36 34-48 16-12 35-19 56-19h667v63z" horiz-adv-x="1000" />

<glyph glyph-name="airplanelanding-filled" unicode="&#xe804;" d="M969 6c0-8-3-16-9-22-6-6-14-9-22-9h-563c-8 0-16 3-22 9-6 6-9 14-9 22 0 9 3 17 9 22 6 6 14 10 22 10h563c8 0 16-4 22-10 6-5 9-13 9-22z m-94 94c8 0 16 3 22 9 6 6 9 14 9 22v140c0 34-11 67-32 94-20 27-49 47-82 56l-238 67-88 209c-1 4-4 8-7 11-3 3-7 5-12 7l-21 7c-9 3-19 4-29 2-10-1-19-5-27-11-8-6-15-13-19-22-5-9-7-19-7-28v-115l-117 33-41 115c-2 4-5 8-8 11-3 4-7 6-12 8l-21 7c-10 3-20 4-29 2-10-1-19-5-28-11-8-6-14-13-19-22-4-9-6-19-6-28v-218c0-34 11-67 31-94 21-28 50-47 83-57l690-193c2-1 5-1 8-1z" horiz-adv-x="1000" />

<glyph glyph-name="airplanelanding-outlined" unicode="&#xe805;" d="M969 6c0-8-3-16-9-22-6-6-14-9-22-9h-563c-8 0-16 3-22 9-6 6-9 14-9 22 0 9 3 17 9 22 6 6 14 10 22 10h563c8 0 16-4 22-10 6-5 9-13 9-22z m-102 95l-690 193c-33 10-62 29-83 57-20 27-31 60-31 94v218c0 9 2 19 6 28 5 9 11 16 20 22 8 6 17 10 27 11 9 2 19 1 29-2l21-7c5-2 9-4 12-8 4-3 6-7 8-11l41-115 117-33v115c0 9 2 19 7 28 4 9 11 16 19 22 8 6 17 10 27 11 10 2 20 1 29-2l21-7c5-2 9-4 12-7 3-3 6-7 7-11l88-209 238-67c33-9 62-29 82-56 21-27 32-60 32-94v-140c0-5-1-9-3-14-2-4-5-8-9-11-4-3-8-4-13-5-5-1-10-1-14 0z m-23 170c0 20-7 40-19 56-13 17-30 28-50 34l-252 70c-5 2-9 4-12 7-4 3-7 7-9 11l-88 211-8 3v-157c0-5-1-9-3-14-2-4-5-8-9-11-4-3-8-5-13-5-5-1-10-1-15 0l-171 49c-5 2-10 4-13 7-4 4-7 8-8 13l-42 115-7 3v-218c0-21 7-40 19-57 13-16 30-28 50-33l650-182v98z" horiz-adv-x="1000" />

<glyph glyph-name="airplane-outlined" unicode="&#xe806;" d="M920 347l-295 147v169c0 33-13 64-37 88-23 23-55 37-88 37-33 0-65-14-88-37-24-24-37-55-37-88v-169l-295-147c-5-3-10-7-13-12-3-5-4-10-4-16v-125c0-5 1-9 3-14 2-4 4-7 8-10 4-3 8-5 12-7 5-1 9-1 14 0l275 55v-74l-53-53c-3-3-6-6-7-10-2-4-2-8-2-12v-125c0-5 1-10 3-15 3-5 6-8 10-11 5-3 9-5 15-5 5-1 10 0 15 2l144 58 145-58c4-2 9-3 15-2 5 0 10 2 14 5 4 3 8 6 10 11 2 5 4 10 4 15v125c0 4-1 8-3 12-1 4-4 7-7 10l-53 53v74l275-55c5-1 9-1 14 0 4 2 9 4 12 7 4 3 7 6 9 10 2 5 3 9 3 14v125c0 6-2 11-5 16-3 5-8 9-13 12z m-45-115l-275 55c-5 1-9 1-14 0-4-2-8-4-12-7-4-2-6-6-8-10-2-5-3-9-3-14v-125c0-4 0-8 2-12 1-3 4-7 7-10l53-53v-66l-113 45c-8 3-16 3-23 0l-114-45v66l53 53c3 3 6 7 7 10 2 4 3 8 3 12v125c0 5-1 9-3 14-2 4-5 8-9 10-3 3-8 5-12 7-5 1-9 1-14 0l-275-55v68l295 147c5 3 10 7 13 12 3 5 5 10 5 16v188c0 16 6 32 18 44 12 11 27 18 44 18 17 0 33-7 44-18 12-12 19-28 19-44v-188c0-6 1-11 4-16 3-5 8-9 13-12l295-147v-68z" horiz-adv-x="1000" />

<glyph glyph-name="airplanetakeoff-filled" unicode="&#xe807;" d="M688 6c0-8-4-16-10-22-5-6-13-9-22-9h-562c-8 0-16 3-22 9-6 6-9 14-9 22 0 9 3 17 9 22 6 6 14 10 22 10h562c9 0 17-4 22-10 6-5 10-13 10-22z m274 505l-73 93 0 1c-24 29-57 49-94 55-36 7-74 0-106-19l-202-121-211 78c-7 3-14 3-21 0l-28-11-2 0c-9-4-18-11-24-19-7-8-11-18-13-28-1-10-1-21 3-31 3-10 9-19 17-26l85-82-79-48-110 37c-8 3-17 2-24-1l-12-6c-9-4-17-11-23-19-7-8-11-17-13-28-1-10-1-20 3-30 3-10 8-18 16-25l140-138 1-1c29-27 67-42 106-42 28 0 56 7 80 21l575 344c4 2 8 5 10 9 3 4 4 8 5 12 1 5 1 9 0 13-1 5-3 9-6 12h0z" horiz-adv-x="1000" />

<glyph glyph-name="airplanetakeoff-outlined" unicode="&#xe808;" d="M688 6c0-8-4-16-10-22-5-6-13-9-22-9h-562c-8 0-16 3-22 9-6 6-9 14-9 22 0 9 3 17 9 22 6 6 14 10 22 10h562c9 0 17-4 22-10 6-5 10-13 10-22z m280 480c-1-4-2-8-5-12-2-4-6-7-9-9l-576-344c-24-14-52-21-79-21-40 0-78 15-107 42l0 1-141 138c-8 7-13 15-16 25-4 10-4 20-3 30 2 11 6 20 13 28 6 8 14 15 23 19l12 6c7 3 16 4 24 1l110-37 79 48-85 82c-8 7-14 16-17 26-3 10-4 21-3 31 2 10 7 20 13 28 6 8 15 15 24 19l2 0 28 11c7 2 14 2 21 0l211-78 202 121c32 19 70 26 106 19 37-6 70-26 94-55l0-1 73-93c3-3 5-7 6-12 1-4 1-8 0-13z m-77 15l-51 65c-14 17-34 29-56 33-22 3-44-1-63-12l-215-128c-4-2-8-4-13-4-4-1-9 0-13 2l-214 78-16-6 1 0 115-112c3-3 6-7 7-12 2-4 2-9 2-14-1-4-2-9-5-13-2-4-6-7-10-10l-126-76c-4-2-8-4-13-4-4-1-9 0-13 1l-112 38-1-1-1 0c0 0 0 0 0-1l141-137c15-14 33-23 53-25 20-2 41 2 58 12l545 326z" horiz-adv-x="1000" />

<glyph glyph-name="airplanetilt-filled" unicode="&#xe809;" d="M842 80c2-6 2-12 1-18-1-6-4-11-8-15l-94-94c-3-3-6-5-10-7-4-1-8-2-12-2-1 0-2 0-3 0-5 0-9 2-13 4-4 2-8 6-10 9l-172 259-83-83v-95c0-9-4-17-10-23 0 0-54-55-62-62-3-3-6-5-10-7-8-3-17-3-24 0-8 3-14 9-17 17l0 1-58 143-144 58c-4 2-9 5-12 9-3 4-6 8-7 14-1 5 0 10 1 15 1 5 4 9 8 13l62 62c3 3 7 6 11 7 3 2 7 3 12 3h95l83 83-258 172c-4 2-7 6-10 10-2 4-4 8-4 13-1 4 0 9 2 13 1 5 4 9 7 12l94 94c4 4 9 7 15 8 6 1 12 1 17-1l336-122 123 123c21 21 49 32 78 32 14 0 28-3 42-8 13-6 25-14 35-24 10-10 18-22 24-35 5-14 8-28 8-42 0-15-3-29-8-42-6-13-14-25-24-36l-123-123 122-335z" horiz-adv-x="1000" />

<glyph glyph-name="airplanetilt-outlined" unicode="&#xe80a;" d="M724 404l114 107 0 1c24 23 37 55 37 88 0 33-13 65-37 88-23 24-55 37-88 37-33 0-65-13-88-37 0 0-1 0-1 0l-107-114-324 118c-6 2-12 2-18 1-6-1-11-4-15-8l-94-94c-3-3-6-7-7-12-2-4-2-9-2-13 1-5 2-9 4-13 3-4 6-8 10-10l250-167-58-57h-81c-8 0-16-3-22-9l-94-94c-4-4-6-8-8-13-1-5-2-10-1-15 1-5 4-10 7-14 3-4 8-7 12-9l144-58 58-143 0-1c2-5 5-9 9-12 4-4 9-6 14-7 5-1 10 0 15 1 5 2 10 5 13 8l94 94c2 3 5 6 6 10 2 4 3 8 3 12v81l57 57 167-249c2-4 6-7 10-10 4-2 8-4 13-4 4-1 9 0 13 2 5 1 9 4 12 7l94 94c4 4 7 9 8 15 1 6 1 12-1 17l-118 325z m0-380l-167 250c-2 4-6 7-10 9-4 3-8 4-13 5-1 0-2 0-3 0-4 0-8-1-12-3-3-1-7-4-10-7l-94-93c-5-6-9-14-9-22v-81l-51-51-45 112c-1 4-4 7-7 10-3 3-6 6-10 7l-112 45 51 51h81c4 0 8 1 12 3 3 1 7 4 10 6l93 94c4 3 6 7 8 12 1 4 2 9 1 13 0 5-2 9-4 13-2 4-6 8-9 10l-250 167 53 52 325-118c6-2 12-2 18-1 6 1 11 5 15 9l121 129c12 11 28 17 44 17 17 0 32-6 44-18 12-12 18-27 18-44 0-16-6-32-17-44l-129-121c-4-4-7-9-9-15-1-6-1-12 1-18l119-325-53-53z" horiz-adv-x="1000" />

<glyph glyph-name="airplay-filled" unicode="&#xe80b;" d="M711 27c4-5 7-10 7-16 1-6 0-12-2-18-3-5-7-10-12-13-5-3-10-5-16-5h-375c-6 0-12 2-17 5-5 3-9 8-12 13-2 6-3 12-2 18 0 6 3 11 7 16l187 218c3 4 7 7 11 8 4 2 9 3 13 3 5 0 9-1 13-3 4-1 8-4 11-8l187-218z m102 667h-625c-25 0-49-10-67-28-17-17-27-41-27-66v-437c0-25 10-49 27-67 18-17 42-27 67-27h47c3 0 5 0 7 1 2 1 4 3 5 4l182 212c9 10 19 19 32 24 12 6 25 9 39 9 13 0 27-3 39-9 12-5 23-14 32-24l182-212c1-1 3-3 5-4 2-1 4-1 7-1h48c24 0 48 10 66 27 17 18 27 42 27 67v437c0 25-10 49-27 66-18 18-42 28-66 28z" horiz-adv-x="1000" />

<glyph glyph-name="airplay-outlined" unicode="&#xe80c;" d="M524 245c-3 4-7 7-11 8-4 2-8 3-13 3-4 0-9-1-13-3-4-1-8-4-11-8l-187-218c-4-5-7-10-7-16-1-6 0-12 2-18 3-5 7-10 12-13 5-3 11-5 17-5h375c6 0 11 2 16 5 5 3 9 8 12 13 2 6 3 12 2 18 0 6-3 11-7 16l-187 218z m-144-207l120 139 120-139h-240z m526 562v-437c0-25-10-49-27-67-18-17-42-27-66-27h-63c-8 0-16 3-22 9-6 6-9 14-9 22 0 8 3 16 9 22 6 6 14 9 22 9h63c8 0 16 4 22 9 6 6 9 14 9 23v437c0 8-3 16-9 22-6 6-14 9-22 9h-625c-9 0-17-3-23-9-5-6-9-14-9-22v-437c0-9 4-17 9-23 6-5 14-9 23-9h62c8 0 16-3 22-9 6-6 9-14 9-22 0-8-3-16-9-22-6-6-14-9-22-9h-62c-25 0-49 10-67 27-17 18-27 42-27 67v437c0 25 10 49 27 66 18 18 42 28 67 28h625c24 0 48-10 66-28 17-17 27-41 27-66z" horiz-adv-x="1000" />

<glyph glyph-name="airtrafficcontrol-filled" unicode="&#xe80d;" d="M895 605c-6 8-13 15-22 19-9 5-19 7-29 7h-313v125h63c8 0 16 4 22 9 6 6 9 14 9 23 0 8-3 16-9 22-6 6-14 9-22 9h-188c-8 0-16-3-22-9-6-6-9-14-9-22 0-9 3-17 9-23 6-5 14-9 22-9h63v-125h-313c-10 0-20-2-29-7-8-4-16-11-22-19-6-9-9-18-11-28-1-10 0-20 4-30l102-281c4-12 12-22 23-30 10-7 23-11 36-11h483c12 0 25 4 35 11 11 8 19 18 23 30l102 281c4 10 5 20 4 30-2 10-5 19-11 28z m-494-317c-2 0-4 0-6 0-7 0-14 2-20 7-6 5-10 11-11 18l-40 219c0 4 0 8 0 12 1 4 3 8 5 11 5 7 12 12 20 13 9 2 17 0 24-5 3-2 6-5 8-9 3-3 4-7 5-11l40-219c1-8-1-16-5-23-5-7-12-11-20-13z m275 244l-40-219c-1-7-5-13-11-18-5-5-12-7-20-7-2 0-3 0-5 0-8 2-16 6-20 13-5 7-7 15-5 23l39 219c2 8 6 16 13 20 7 5 15 7 24 5 8-1 15-6 20-13 4-6 6-15 5-23z m-51-385v-172c0-8-3-16-9-22-6-6-14-9-22-9h-188c-8 0-16 3-22 9-6 6-9 14-9 22v172c0 4 2 8 5 11 3 3 7 5 11 5h218c5 0 9-2 11-5 3-3 5-7 5-11z" horiz-adv-x="1000" />

<glyph glyph-name="airtrafficcontrol-outlined" unicode="&#xe80e;" d="M895 605c-6 8-13 15-22 19-9 5-19 7-29 7h-313v125h63c8 0 16 4 22 9 6 6 9 14 9 23 0 8-3 16-9 22-6 6-14 9-22 9h-188c-8 0-16-3-22-9-6-6-9-14-9-22 0-9 3-17 9-23 6-5 14-9 22-9h63v-125h-313c-10 0-20-2-29-7-8-4-16-11-22-19-6-9-9-18-11-28-1-10 0-20 4-30l102-281c4-12 12-22 23-30 10-7 23-11 36-11h116v-250c0-8 3-16 9-22 6-6 14-9 22-9 9 0 17 3 22 9 6 6 10 14 10 22v250h125v-250c0-8 3-16 9-22 6-6 14-9 22-9 8 0 16 3 22 9 6 6 9 14 9 22v250h117c12 0 25 4 35 11 11 8 19 18 23 30l102 281c4 10 5 20 4 30-2 10-5 19-11 28z m-463-317l-51 281h238l-51-281h-136z m-276 281h162l51-281h-110l-103 281z m586-281h-111l51 281h162l-102-281z" horiz-adv-x="1000" />

<glyph glyph-name="alarm-filled" unicode="&#xe80f;" d="M241 734l-125-125c-3-3-6-5-10-7-4-1-8-2-12-2-4 0-8 1-12 2-4 2-7 4-10 7-6 6-9 14-9 22 0 9 3 17 9 22l125 125c3 3 6 6 10 7 4 2 8 3 12 3 4 0 8-1 12-3 4-1 7-4 10-7 3-2 5-6 7-10 1-4 2-8 2-12 0-4-1-8-2-12-2-3-4-7-7-10z m687-81l-125 125c-5 6-13 10-22 10-8 0-16-4-22-10-6-5-9-13-9-22 0-8 3-16 9-22l125-125c3-3 7-5 10-7 4-1 8-2 12-2 4 0 8 1 12 2 4 2 8 4 10 7 3 3 6 7 7 10 2 4 3 8 3 12 0 4-1 8-3 12-1 4-4 8-7 10z m-53-303c0-74-22-147-63-208-41-62-100-110-168-138-69-29-144-36-217-22-73 15-140 50-192 103-53 52-88 119-103 192-14 73-7 148 22 217 28 68 76 127 138 168 61 41 134 63 208 63 99 0 195-40 265-110 70-70 110-166 110-265z m-125 0c0 8-3 16-9 22-6 6-14 9-22 9h-188v188c0 8-3 16-9 22-6 6-14 9-22 9-8 0-16-3-22-9-6-6-9-14-9-22v-219c0-8 3-16 9-22 6-6 14-9 22-9h219c8 0 16 3 22 9 6 6 9 14 9 22z" horiz-adv-x="1000" />

<glyph glyph-name="alarm-outlined" unicode="&#xe810;" d="M500 725c-74 0-147-22-208-63-62-41-110-100-138-168-29-69-36-144-22-217 15-73 50-140 103-192 52-53 119-88 192-103 73-14 148-7 217 22 68 28 127 76 168 138 41 61 63 134 63 208 0 99-40 195-110 265-70 70-166 110-265 110z m0-687c-62 0-122 18-174 52-51 35-91 83-115 140-23 58-30 120-17 181 12 61 41 116 85 160 44 44 99 73 160 86 61 12 124 5 181-18 57-24 106-64 140-115 34-52 53-112 53-174-1-83-33-162-92-221-59-58-138-91-221-91z m-259 696l-125-125c-3-3-6-5-10-7-4-1-8-2-12-2-4 0-8 1-12 2-4 2-7 4-10 7-6 6-9 14-9 22 0 9 3 17 9 22l125 125c3 3 6 6 10 7 4 2 8 3 12 3 4 0 8-1 12-3 4-1 7-4 10-7 3-2 5-6 7-10 1-4 2-8 2-12 0-4-1-8-2-12-2-3-4-7-7-10z m687-125c-2-3-6-5-10-7-4-1-8-2-12-2-4 0-8 1-12 2-3 2-7 4-10 7l-125 125c-6 6-9 14-9 22 0 9 3 17 9 22 6 6 14 10 22 10 9 0 17-4 22-10l125-125c3-2 6-6 7-10 2-4 3-8 3-12 0-4-1-8-3-12-1-3-4-7-7-10z m-209-228c8 0 16-3 22-9 6-6 9-14 9-22 0-8-3-16-9-22-6-6-14-9-22-9h-219c-8 0-16 3-22 9-6 6-9 14-9 22v219c0 8 3 16 9 22 6 6 14 9 22 9 8 0 16-3 22-9 6-6 9-14 9-22v-188h188z" horiz-adv-x="1000" />

<glyph glyph-name="alien-filled" unicode="&#xe811;" d="M500 788c-99-1-195-40-265-110-70-71-110-166-110-265 0-94 49-216 131-325 83-110 174-176 244-176 70 0 161 66 244 176 82 110 131 231 131 325 0 99-40 194-110 265-70 70-166 109-265 110z m-250-391c0 12 5 24 14 33 9 9 20 14 33 14 37 0 73-15 99-41 27-27 42-63 42-100 0-12-5-24-14-33-9-9-21-14-33-14-38 0-73 15-100 41-26 27-41 63-41 100z m313-328h-125c-9 0-17 3-23 9-5 6-9 14-9 22 0 8 4 16 9 22 6 6 14 9 23 9h125c8 0 16-3 22-9 6-6 9-14 9-22 0-8-3-16-9-22-6-6-14-9-22-9z m46 187c-12 0-24 5-33 14-9 9-13 21-13 33 0 37 14 73 41 100 26 26 62 41 99 41 13 0 25-5 33-14 9-9 14-21 14-33 0-19-4-37-11-54-7-17-17-32-30-46-13-13-29-23-46-30-17-7-35-11-54-11z" horiz-adv-x="1000" />

<glyph glyph-name="alien-outlined" unicode="&#xe812;" d="M500 788c-99-1-195-40-265-110-70-71-110-166-110-265 0-94 49-216 131-325 83-110 174-176 244-176 70 0 161 66 244 176 82 110 131 231 131 325 0 99-40 194-110 265-70 70-166 109-265 110z m194-662c-68-90-146-151-194-151-48 0-126 61-194 151-73 97-118 207-118 287 0 82 32 162 91 221 59 58 138 91 221 91 83 0 162-33 221-91 59-59 92-139 92-221 0-80-46-190-119-287z m-225 193c0 41-17 81-46 110-29 30-69 46-110 46-17 0-33-7-45-18-11-12-18-28-18-44 0-42 17-82 46-111 29-29 69-46 110-46 17 0 33 7 44 19 12 11 19 27 19 44z m-156 94c24 0 48-10 66-28 17-17 27-41 27-66-25 0-48 10-66 27-18 18-27 42-27 67z m375 62c-42 0-82-16-111-46-29-29-46-69-46-110 0-17 7-33 19-44 11-12 27-19 44-19 20 0 41 4 60 12 19 8 36 20 50 34 15 15 26 32 34 51 8 19 12 39 12 60 0 16-7 32-18 44-12 11-28 18-44 18z m-94-156c0 25 10 49 27 66 18 18 42 28 67 28 0-25-10-49-28-67-17-17-41-27-66-27z m0-188c0-8-3-16-9-22-6-6-14-9-22-9h-125c-9 0-17 3-23 9-5 6-9 14-9 22 0 9 4 17 9 22 6 6 14 10 23 10h125c8 0 16-4 22-10 6-5 9-13 9-22z" horiz-adv-x="1000" />

<glyph glyph-name="alignbottom-filled" unicode="&#xe813;" d="M875 6c0-8-3-16-9-22-6-6-14-9-22-9h-688c-8 0-16 3-22 9-6 6-9 14-9 22 0 9 3 17 9 22 6 6 14 10 22 10h688c8 0 16-4 22-10 6-5 9-13 9-22z m-281 94h156c17 0 33 7 44 18 12 12 19 28 19 45v375c0 16-7 32-19 44-11 11-27 18-44 18h-156c-17 0-33-7-44-18-12-12-19-28-19-44v-375c0-17 7-33 19-45 11-11 27-18 44-18z m-344 0h156c17 0 33 7 44 18 12 12 19 28 19 45v531c0 16-7 32-19 44-11 12-27 18-44 18h-156c-17 0-32-6-44-18-12-12-18-28-18-44v-531c0-17 6-33 18-45 12-11 27-18 44-18z" horiz-adv-x="1000" />

<glyph glyph-name="alignbottomsimple-filled" unicode="&#xe814;" d="M813-56c0-9-4-17-10-22-5-6-13-10-22-10h-562c-8 0-16 4-22 10-6 5-9 13-9 22 0 8 3 16 9 22 6 6 14 9 22 9h562c9 0 17-3 22-9 6-6 10-14 10-22z m-438 94h250c17 0 33 6 44 18 12 12 19 27 19 44v594c0 16-7 32-19 44-11 12-27 18-44 18h-250c-17 0-32-6-44-18-12-12-18-28-18-44v-594c0-17 6-32 18-44 12-12 27-18 44-18z" horiz-adv-x="1000" />

<glyph glyph-name="aligncenterhorizontal-filled" unicode="&#xe815;" d="M875 256v-156c0-17-7-32-18-44-12-12-28-18-44-18h-282v-63c0-8-3-16-9-22-6-6-14-9-22-9-8 0-16 3-22 9-6 6-9 14-9 22v63h-281c-17 0-33 6-45 18-11 12-18 27-18 44v156c0 17 7 33 18 44 12 12 28 19 45 19h281v62h-188c-16 0-32 7-44 19-12 11-18 27-18 44v156c0 17 6 33 18 44 12 12 28 19 44 19h188v62c0 8 3 16 9 22 6 6 14 9 22 9 8 0 16-3 22-9 6-6 9-14 9-22v-62h188c16 0 32-7 44-19 12-11 18-27 18-44v-156c0-17-6-33-18-44-12-12-28-19-44-19h-188v-62h282c16 0 32-7 44-19 11-11 18-27 18-44z" horiz-adv-x="1000" />

<glyph glyph-name="aligncenterhorizontalsimple-filled" unicode="&#xe816;" d="M875 475v-250c0-17-7-32-18-44-12-12-28-18-44-18h-282v-125c0-9-3-17-9-23-6-5-14-9-22-9-8 0-16 4-22 9-6 6-9 14-9 23v125h-281c-17 0-33 6-45 18-11 12-18 27-18 44v250c0 17 7 33 18 44 12 12 28 19 45 19h281v125c0 8 3 16 9 22 6 6 14 9 22 9 8 0 16-3 22-9 6-6 9-14 9-22v-125h282c16 0 32-7 44-19 11-11 18-27 18-44z" horiz-adv-x="1000" />

<glyph glyph-name="aligncentervertical-filled" unicode="&#xe817;" d="M906 350c0-8-3-16-9-22-6-6-14-9-22-9h-62v-188c0-16-7-32-19-44-11-12-27-18-44-18h-156c-17 0-33 6-44 18-12 12-19 28-19 44v188h-62v-281c0-17-7-33-19-45-11-11-27-18-44-18h-156c-17 0-32 7-44 18-12 12-18 28-18 45v281h-63c-8 0-16 3-22 9-6 6-9 14-9 22 0 8 3 16 9 22 6 6 14 9 22 9h63v282c0 16 6 32 18 44 12 11 27 18 44 18h156c17 0 33-7 44-18 12-12 19-28 19-44v-282h62v188c0 16 7 32 19 44 11 12 27 18 44 18h156c17 0 33-6 44-18 12-12 19-28 19-44v-188h62c8 0 16-3 22-9 6-6 9-14 9-22z" horiz-adv-x="1000" />

<glyph glyph-name="aligncenterverticalsimple-filled" unicode="&#xe818;" d="M844 350c0-8-3-16-9-22-6-6-14-9-22-9h-125v-281c0-17-7-33-19-45-11-11-27-18-44-18h-250c-17 0-32 7-44 18-12 12-18 28-18 45v281h-125c-9 0-17 3-23 9-5 6-9 14-9 22 0 8 4 16 9 22 6 6 14 9 23 9h125v282c0 16 6 32 18 44 12 11 27 18 44 18h250c17 0 33-7 44-18 12-12 19-28 19-44v-282h125c8 0 16-3 22-9 6-6 9-14 9-22z" horiz-adv-x="1000" />

<glyph glyph-name="alignleft-filled" unicode="&#xe819;" d="M906 256v-156c0-17-6-32-18-44-12-12-28-18-44-18h-531c-17 0-33 6-45 18-11 12-18 27-18 44v156c0 17 7 33 18 44 12 12 28 19 45 19h531c16 0 32-7 44-19 12-11 18-27 18-44z m-750 469c-8 0-16-3-22-9-6-6-9-14-9-22v-688c0-8 3-16 9-22 6-6 14-9 22-9 9 0 17 3 22 9 6 6 10 14 10 22v688c0 8-4 16-10 22-5 6-13 9-22 9z m157-344h375c16 0 32 7 44 19 11 11 18 27 18 44v156c0 17-7 33-18 44-12 12-28 19-44 19h-375c-17 0-33-7-45-19-11-11-18-27-18-44v-156c0-17 7-33 18-44 12-12 28-19 45-19z" horiz-adv-x="1000" />

<glyph glyph-name="alignleftsimple-filled" unicode="&#xe81a;" d="M156 631v-562c0-8-3-16-9-22-6-6-14-9-22-9-8 0-16 3-22 9-6 6-9 14-9 22v562c0 9 3 17 9 22 6 6 14 10 22 10 8 0 16-4 22-10 6-5 9-13 9-22z m719-93h-594c-16 0-32-7-44-19-12-11-18-27-18-44v-250c0-17 6-32 18-44 12-12 28-18 44-18h594c17 0 33 6 44 18 12 12 19 27 19 44v250c0 17-7 33-19 44-11 12-27 19-44 19z" horiz-adv-x="1000" />

<glyph glyph-name="alignright-filled" unicode="&#xe81b;" d="M875 694v-688c0-8-3-16-9-22-6-6-14-9-22-9-8 0-16 3-22 9-6 6-9 14-9 22v688c0 8 3 16 9 22 6 6 14 9 22 9 8 0 16-3 22-9 6-6 9-14 9-22z m-187-31h-375c-17 0-33-7-45-19-11-11-18-27-18-44v-156c0-17 7-33 18-44 12-12 28-19 45-19h375c16 0 32 7 44 19 11 11 18 27 18 44v156c0 17-7 33-18 44-12 12-28 19-44 19z m0-344h-532c-16 0-32-7-44-19-12-11-18-27-18-44v-156c0-17 6-32 18-44 12-12 28-18 44-18h532c16 0 32 6 44 18 11 12 18 27 18 44v156c0 17-7 33-18 44-12 12-28 19-44 19z" horiz-adv-x="1000" />

<glyph glyph-name="alignrightsimple-filled" unicode="&#xe81c;" d="M906 631v-562c0-8-3-16-9-22-6-6-14-9-22-9-8 0-16 3-22 9-6 6-9 14-9 22v562c0 9 3 17 9 22 6 6 14 10 22 10 8 0 16-4 22-10 6-5 9-13 9-22z m-187-93h-594c-17 0-32-7-44-19-12-11-18-27-18-44v-250c0-17 6-32 18-44 12-12 27-18 44-18h594c16 0 32 6 44 18 12 12 18 27 18 44v250c0 17-6 33-18 44-12 12-28 19-44 19z" horiz-adv-x="1000" />

<glyph glyph-name="aligntop-filled" unicode="&#xe81d;" d="M875 694c0-8-3-16-9-22-6-6-14-9-22-9h-688c-8 0-16 3-22 9-6 6-9 14-9 22 0 8 3 16 9 22 6 6 14 9 22 9h688c8 0 16-3 22-9 6-6 9-14 9-22z m-125-94h-156c-17 0-33-7-44-18-12-12-19-28-19-44v-375c0-17 7-33 19-45 11-11 27-18 44-18h156c17 0 33 7 44 18 12 12 19 28 19 45v375c0 16-7 32-19 44-11 11-27 18-44 18z m-344 0h-156c-17 0-32-7-44-18-12-12-18-28-18-44v-532c0-16 6-32 18-44 12-12 27-18 44-18h156c17 0 33 6 44 18 12 12 19 28 19 44v532c0 16-7 32-19 44-11 11-27 18-44 18z" horiz-adv-x="1000" />

<glyph glyph-name="aligntopsimple-filled" unicode="&#xe81e;" d="M813 725c0-8-4-16-10-22-5-6-13-9-22-9h-562c-8 0-16 3-22 9-6 6-9 14-9 22 0 8 3 16 9 22 6 6 14 9 22 9h562c9 0 17-3 22-9 6-6 10-14 10-22z m-188-94h-250c-17 0-32-6-44-18-12-12-18-28-18-44v-594c0-17 6-33 18-44 12-12 27-19 44-19h250c17 0 33 7 44 19 12 11 19 27 19 44v594c0 16-7 32-19 44-11 12-27 18-44 18z" horiz-adv-x="1000" />

<glyph glyph-name="amazonlogo-filled" unicode="&#xe81f;" d="M594 319c0-19-6-37-16-52-10-16-25-28-42-35-17-7-36-9-54-5-18 3-35 12-48 26-13 13-22 29-26 48-4 18-2 37 5 54 8 17 20 31 35 42 15 10 34 16 52 16 25 0 49-10 66-28 18-17 28-41 28-66z m312 31c0-80-24-159-68-226-45-66-108-119-182-149-75-31-156-39-235-23-79 15-151 54-208 111-57 57-96 129-111 208-16 79-8 160 23 235 30 74 83 137 149 182 67 44 146 68 226 68 108 0 211-43 287-119 76-76 119-179 119-287z m-312 94c-23 17-51 28-80 30-29 3-58-2-84-15-26-13-48-33-63-58-15-25-23-53-23-82 0-29 8-58 23-82 15-25 37-45 63-58 26-13 55-18 84-16 29 3 57 13 80 31 0-8 3-16 9-22 6-6 14-9 22-9 8 0 16 3 22 9 6 6 9 14 9 22v250c0 34-11 67-31 94-20 27-49 47-82 56-32 9-67 8-99-4-31-12-58-34-76-63-4-7-6-15-4-23 2-8 7-15 14-20 7-4 15-5 23-4 8 2 15 7 20 14 10 17 27 30 46 37 19 8 39 9 59 3 20-6 37-18 49-34 12-16 19-36 19-56z m175-256c-7 4-15 7-23 5-9-1-16-5-21-12-26-35-60-63-99-83-39-19-82-29-126-29-44 0-87 10-126 29-39 20-73 48-99 83-2 4-5 7-9 9-4 2-8 3-12 4-4 1-8 0-12-1-4-1-8-2-11-5-3-2-6-6-8-9-2-4-4-8-4-12-1-4-1-8 1-12 1-4 3-8 5-11 32-43 74-78 121-101 48-24 101-37 154-37 53 0 106 13 154 37 47 23 89 58 121 101 5 6 7 15 6 23-1 8-6 16-12 21z" horiz-adv-x="1000" />

<glyph glyph-name="amazonlogo-outlined" unicode="&#xe820;" d="M969 194v-125c0-8-3-16-9-22-6-6-14-9-22-9-9 0-17 3-23 9-5 6-9 14-9 22v49l-8-8c-12-13-158-166-398-166-245 0-392 160-398 166-6 7-9 15-8 23 0 8 4 16 10 22 6 5 15 8 23 8 8-1 16-5 21-11 2-1 135-146 352-146 217 0 351 145 352 146 0 1 1 1 1 1l9 10h-49c-9 0-17 3-23 9-5 6-9 14-9 22 0 8 4 16 9 22 6 6 14 9 23 9h125c8 0 16-3 22-9 6-6 9-14 9-22z m-344 287v41c0 32-11 62-30 87-20 25-47 42-78 50-30 7-63 4-91-9-29-14-53-36-67-64-4-8-10-13-18-16-8-2-17-2-24 2-7 4-13 11-15 18-3 8-2 17 1 24 21 41 55 73 96 93 42 19 89 23 133 13 44-11 84-36 112-72 28-36 44-80 44-126v-359c0-9-4-17-10-23-5-5-13-9-22-9-8 0-16 4-22 9-6 6-9 14-9 23v25c-29-28-65-46-104-53-39-8-80-3-116 13-37 15-68 41-90 74-22 34-34 73-34 112 0 40 12 79 34 112 22 34 53 60 90 75 36 16 77 20 116 13 39-7 75-26 104-53z m0-147c0 28-8 55-24 79-15 23-37 41-63 51-25 11-54 14-81 8-27-5-52-18-72-38-20-20-33-45-39-72-5-27-2-56 8-81 11-26 29-48 52-64 23-15 51-23 78-23 19 0 37 3 54 11 17 7 33 17 46 30 13 13 23 29 30 46 7 17 11 35 11 53z" horiz-adv-x="1000" />

<glyph glyph-name="anchor-filled" unicode="&#xe821;" d="M875 288c0-58-23-114-64-155-41-41-97-64-155-64-33 0-65-13-88-37-24-23-37-55-37-88 0-9-3-17-9-22-6-6-14-10-22-10-8 0-16 4-22 10-6 5-9 13-9 22 0 33-13 65-37 88-23 24-55 37-88 37-58 0-114 23-155 64-41 41-64 97-64 155 0 8 3 16 9 22 6 6 14 9 22 9 9 0 17-3 22-9 6-6 10-14 10-22 0-21 4-41 11-60 8-19 20-36 34-51 30-29 69-46 111-46 46 0 90-17 125-48v267h-125c-8 0-16 3-22 9-6 6-9 14-9 22 0 9 3 17 9 22 6 6 14 10 22 10h125v113c-25 8-47 24-61 46-14 23-20 49-16 75 4 26 17 50 37 67 19 17 45 27 71 27 26 0 52-10 72-27 19-17 32-41 36-67 4-26-2-52-16-75-14-22-36-38-61-46v-113h125c9 0 17-4 22-10 6-5 10-13 10-22 0-8-4-16-10-22-5-6-13-9-22-9h-125v-267c35 31 79 48 125 48 21 0 41 4 60 12 19 8 36 20 51 34 14 15 26 32 34 51 8 19 12 39 12 60 0 8 3 16 9 22 6 6 14 9 22 9 8 0 16-3 22-9 6-6 9-14 9-22z" horiz-adv-x="1000" />

<glyph glyph-name="anchor-outlined" unicode="&#xe822;" d="M844 319c-8 0-16-3-22-9-6-6-9-14-9-22 0-21-4-41-12-60-8-19-20-36-34-51-15-14-32-26-51-34-19-8-39-12-60-12-46 0-90-17-125-48v267h125c9 0 17 3 22 9 6 6 10 14 10 22 0 9-4 17-10 22-5 6-13 10-22 10h-125v97c30 8 55 26 73 51 17 25 24 56 20 86-4 30-18 58-41 78-23 20-53 31-83 31-30 0-60-11-83-31-22-20-37-48-41-78-4-30 4-61 21-86 17-25 42-43 72-51v-97h-125c-8 0-16-4-22-10-6-5-9-13-9-22 0-8 3-16 9-22 6-6 14-9 22-9h125v-267c-35 31-79 48-125 48-42 0-81 17-111 46-29 29-45 69-45 111 0 8-4 16-10 22-5 6-13 9-22 9-8 0-16-3-22-9-6-6-9-14-9-22 0-58 23-114 64-155 41-41 97-64 155-64 33 0 65-13 88-37 24-23 37-55 37-88 0-9 3-17 9-22 6-6 14-10 22-10 8 0 16 4 22 10 6 5 9 13 9 22 0 33 13 65 37 88 23 24 55 37 88 37 58 0 114 23 155 64 41 41 64 97 64 155 0 8-3 16-9 22-6 6-14 9-22 9z m-406 312c0 13 3 25 10 35 7 10 17 18 28 23 12 5 24 6 36 4 12-3 24-9 32-18 9-8 15-19 17-32 3-12 2-24-3-36-5-11-13-21-23-28-11-7-23-10-35-10-17 0-32 6-44 18-12 12-18 28-18 44z" horiz-adv-x="1000" />

<glyph glyph-name="anchorsimple-filled" unicode="&#xe823;" d="M906 381c0-107-42-211-119-287-76-76-179-119-287-119-108 0-211 43-287 119-76 76-119 180-119 287 0 9 3 17 9 22 6 6 14 10 22 10h94c8 0 16-4 22-10 6-5 9-13 9-22 0-8-3-16-9-22-6-6-14-9-22-9h-61c7-80 42-155 99-212 57-56 132-92 212-99v456c-25 8-47 24-61 46-14 22-20 49-16 75 4 26 17 50 37 67 19 17 45 26 71 26 26 0 52-9 72-26 19-17 32-41 36-67 4-26-2-53-16-75-14-22-36-38-61-46v-456c80 7 155 43 212 99 57 57 92 132 99 212h-61c-8 0-16 3-22 9-6 6-9 14-9 22 0 9 3 17 9 22 6 6 14 10 22 10h94c8 0 16-4 22-10 6-5 9-13 9-22z" horiz-adv-x="1000" />

<glyph glyph-name="anchorsimple-outlined" unicode="&#xe824;" d="M875 413h-94c-8 0-16-4-22-10-6-5-9-13-9-22 0-8 3-16 9-22 6-6 14-9 22-9h61c-7-80-42-155-99-212-57-56-132-92-212-99v440c30 8 55 26 73 51 17 25 24 56 20 86-4 30-18 58-41 78-23 20-53 31-83 31-30 0-60-11-83-31-22-20-37-48-41-78-4-30 4-61 21-86 17-25 42-43 72-51v-440c-80 7-155 43-212 99-57 57-92 132-99 212h61c8 0 16 3 22 9 6 6 9 14 9 22 0 9-3 17-9 22-6 6-14 10-22 10h-94c-8 0-16-4-22-10-6-5-9-13-9-22 0-107 43-211 119-287 76-76 179-119 287-119 108 0 211 43 287 119 77 76 119 180 119 287 0 9-3 17-9 22-6 6-14 10-22 10z m-437 187c0 12 3 24 10 35 7 10 17 18 28 23 12 5 24 6 36 3 12-2 24-8 32-17 9-8 15-20 17-32 3-12 2-24-3-36-5-11-13-21-23-28-11-7-23-10-35-10-17 0-32 6-44 18-12 12-18 27-18 44z" horiz-adv-x="1000" />

<glyph glyph-name="androidlogo-filled" unicode="&#xe825;" d="M809 504c-3 3-6 5-9 8l97 97c3 3 5 7 7 10 2 4 2 8 2 12 0 4 0 8-2 12-2 4-4 8-7 10-3 3-6 6-10 7-4 2-8 3-12 3-4 0-8-1-12-3-4-1-7-4-10-7l-102-101c-73 52-161 79-251 79-90 0-177-28-251-80l-102 102c-6 6-14 10-22 10-8 0-16-4-22-10-6-5-9-13-9-22 0-8 3-16 9-22l98-98c-44-41-79-91-102-146-24-56-37-115-36-176v-89c0-17 6-32 18-44 12-12 27-18 44-18h750c17 0 33 6 44 18 12 12 19 27 19 44v94c0 57-12 114-34 168-22 53-54 101-95 142z m-450-310c-9 0-18 3-26 8-7 5-13 12-17 21-3 8-4 18-3 27 2 9 7 17 13 24 7 6 15 11 24 13 9 1 19 1 27-3 9-4 16-10 21-17 6-8 8-17 8-26 0-13-5-25-13-33-9-9-21-14-34-14z m282 0c-10 0-19 3-26 8-8 5-14 12-18 21-3 8-4 18-2 27 2 9 6 17 13 24 6 6 14 11 24 13 9 1 18 1 27-3 8-4 16-10 21-17 5-8 8-17 8-26 0-13-5-25-14-33-9-9-21-14-33-14z" horiz-adv-x="1000" />

<glyph glyph-name="androidlogo-outlined" unicode="&#xe826;" d="M688 241c0-10-3-19-8-26-5-8-13-14-21-18-9-3-18-4-27-2-10 2-18 6-24 13-7 6-11 14-13 24-2 9-1 18 2 27 4 8 10 16 18 21 7 5 16 8 26 8 12 0 24-5 33-14 9-9 14-21 14-33z m-329 47c-9 0-18-3-26-8-7-5-13-13-17-21-3-9-4-18-3-27 2-10 7-18 13-24 7-7 15-11 24-13 9-2 19-1 27 2 9 4 16 10 21 18 6 7 8 16 8 26 0 12-5 24-13 33-9 9-21 14-34 14z m579-94v-94c0-17-7-32-19-44-11-12-27-18-44-18h-750c-17 0-32 6-44 18-12 12-18 27-18 44v89c-1 61 12 120 36 176 23 55 58 105 102 146l-98 98c-6 6-9 14-9 22 0 9 3 17 9 22 6 6 14 10 22 10 8 0 16-4 22-10l102-102c74 52 161 80 251 80 90 0 178-27 251-79l102 102c6 5 14 9 22 9 8 0 16-4 22-9 6-6 9-14 9-23 0-8-3-16-9-22l-97-97c3-3 6-5 9-8 41-41 73-89 95-142 22-54 34-111 34-168z m-63 0c0 99-39 195-110 265-70 70-165 110-265 110h-1c-206-1-374-171-374-380v-89h750v94z" horiz-adv-x="1000" />

<glyph glyph-name="angularlogo-filled" unicode="&#xe827;" d="M500 442l51-92h-102l51 92z m406 123l-62-469c-1-5-3-10-6-14-3-4-7-8-11-10l-313-156c-4-2-9-4-14-4-5 0-10 2-14 4l-312 156c-5 2-9 6-12 10-3 4-5 9-5 14l-63 469c-1 6 1 13 4 19 3 6 9 11 15 14l375 156c4 1 8 2 12 2 4 0 8-1 12-2l375-156c6-3 12-8 15-14 4-6 5-13 4-19z m-222-325l-157 281c-2 5-6 9-11 12-5 3-10 5-16 5-6 0-11-2-16-5-5-3-9-7-11-12l-157-281c-2-3-3-7-3-11-1-4 0-9 1-13 1-4 3-7 5-10 3-4 6-6 10-8 3-2 7-4 11-4 4 0 8 0 12 1 4 1 8 3 11 6 3 2 6 5 8 9l43 78h172l43-78c2-4 5-7 8-9 3-3 7-5 11-6 4-1 8-1 12-1 4 0 8 2 11 4 4 2 7 4 10 8 2 3 4 6 5 10 1 4 2 9 1 13 0 4-1 8-3 11z" horiz-adv-x="1000" />

<glyph glyph-name="angularlogo-outlined" unicode="&#xe828;" d="M887 598l-375 156c-4 1-8 2-12 2-4 0-8-1-12-2l-375-156c-6-3-12-8-15-14-3-6-5-13-4-19l63-469c0-5 2-10 5-14 3-4 7-8 12-10l312-156c4-2 9-4 14-4 5 0 10 2 14 4l313 156c4 2 8 6 11 10 3 4 5 9 6 14l62 469c1 6 0 13-4 19-3 6-9 11-15 14z m-103-477l-284-142-284 142-57 428 341 142 341-142-57-428z m-311 400l-157-281c-2-3-3-7-3-11-1-4 0-9 1-13 1-4 3-7 5-10 3-4 6-6 10-8 3-2 7-4 11-4 4 0 8 0 12 1 4 1 8 3 11 6 3 2 6 5 8 9l43 78h172l43-78c2-4 5-7 8-9 3-3 7-5 11-6 4-1 8-1 12-1 4 0 8 2 11 4 4 2 7 4 10 8 2 3 4 6 5 10 1 4 2 9 1 13 0 4-1 8-3 11l-157 281c-2 5-6 9-11 12-5 3-10 5-16 5-6 0-11-2-16-5-5-3-9-7-11-12z m78-171h-102l51 92 51-92z" horiz-adv-x="1000" />

<glyph glyph-name="aperture-filled" unicode="&#xe829;" d="M906 350c0 80-24 159-68 226-45 67-108 119-182 149-75 31-156 39-235 23-79-15-151-54-208-111-57-57-96-129-111-208-16-79-8-160 23-234 30-75 83-138 149-183 67-44 146-68 226-68h0c108 0 211 43 287 119 77 76 119 179 119 287z m-714 153l200-37-210-247c-18 45-27 94-25 143 1 49 14 97 35 141z m626-22c18-45 27-94 25-143-1-49-13-97-35-141l-200 37 210 247z m-32 59l-131-155-110 306c75-10 145-44 198-98 16-16 31-34 43-53z m-308 153l69-191-319 58c9 11 19 23 29 33 59 59 138 95 221 100z m-264-533l132 155 109-306c-49 7-95 24-137 50-42 26-77 60-104 101v0z m308-153l-69 191 91-16 228-42c-30-39-67-71-111-94-43-23-90-36-139-39l0 0z" horiz-adv-x="1000" />

<glyph glyph-name="aperture-outlined" unicode="&#xe82a;" d="M787 637c-76 76-179 119-287 119-108 0-211-43-287-119-76-76-119-179-119-287 0-108 43-211 119-287 76-77 179-119 287-119 108 0 211 42 287 119 77 76 119 179 119 287 0 108-42 211-119 287z m-44-44c16-16 31-34 43-53l-131-155-110 306c75-10 145-44 198-98z m-135-262l-71-84-108 20-37 103 71 83 108-19 37-103z m-351 262c59 59 138 95 221 100l69-191-319 58c9 11 19 23 29 33z m-75-374c-18 45-27 94-25 143 1 49 14 97 35 141l200-37-210-247z m75-112c-16 16-30 34-43 53l132 155 109-306c-75 10-145 45-198 98z m486 0c-59-59-138-95-221-100l-69 191 319-58c-9-11-18-23-29-33z m-135 127l210 247c18-45 27-94 25-143-1-49-13-97-35-141l-200 37z" horiz-adv-x="1000" />

<glyph glyph-name="applelogo-filled" unicode="&#xe82b;" d="M501 733c9 33 28 63 56 84 27 22 61 33 95 33h4c9 0 17-3 22-9 6-6 10-14 10-22 0-8-4-16-10-22-5-6-13-9-22-9h-4c-20 0-41-7-57-20-16-13-28-31-33-51-2-8-8-15-15-19-7-4-15-5-23-3-9 2-15 7-20 14-4 7-5 16-3 24h0z m371-545c-2 5-6 10-11 13-66 45-80 123-80 180 0 69 53 129 84 159 3 3 6 7 7 11 2 3 3 8 3 12 0 4-1 8-3 12-1 4-4 8-7 11-49 46-131 77-209 77-55 0-110-17-156-48-54 36-119 53-184 46-64-6-125-35-170-81-28-28-49-61-63-98-15-36-21-75-20-114 1-66 16-131 43-191 27-60 65-114 113-159 29-28 68-43 108-43h342c21 0 42 4 62 13 20 8 37 21 52 36 27 29 50 62 69 96 28 50 24 58 20 68z" horiz-adv-x="1000" />

<glyph glyph-name="applelogo-outlined" unicode="&#xe82c;" d="M872 188c-2 5-6 10-11 13-66 45-80 123-80 180 0 69 53 129 84 159 3 3 6 7 7 11 2 3 3 8 3 12 0 4-1 8-3 12-1 4-4 8-7 11-49 46-131 77-209 77-55 0-110-17-156-48-54 36-119 53-184 46-64-6-125-35-170-81-28-28-49-61-63-98-15-36-21-75-20-114 1-66 16-131 43-191 27-60 65-114 113-159 29-28 68-43 108-43h342c21 0 42 4 62 13 20 8 37 21 52 36 27 29 50 62 69 96 28 50 24 58 20 68z m-135-121c-9-10-19-17-31-22-12-5-24-8-37-7h-342c-24-1-47 9-65 25-42 39-76 87-99 139-24 53-37 110-38 168-1 30 5 61 16 89 11 29 28 55 49 77 20 20 44 36 70 47 27 11 55 17 84 17h3c49 0 96-17 134-48 5-4 12-7 19-7 7 0 14 3 20 7 38 31 87 48 136 48 50-1 99-14 141-40-51-57-78-119-78-179 0-93 30-167 86-216-17-36-40-69-68-98z m-236 666c9 33 28 63 56 84 27 22 61 33 95 33h4c9 0 17-3 22-9 6-6 10-14 10-22 0-8-4-16-10-22-5-6-13-9-22-9h-4c-20 0-41-7-57-20-16-13-28-31-33-51-2-8-8-15-15-19-7-4-15-5-23-3-9 2-15 7-20 14-4 7-5 16-3 24h0z" horiz-adv-x="1000" />

<glyph glyph-name="applepodcastslogo-filled" unicode="&#xe82d;" d="M500 288c-22 0-43 6-61 18-18 12-32 29-40 49-8 20-10 42-6 63 4 21 14 41 30 56 15 16 34 26 56 30 21 4 43 2 63-6 20-8 37-22 49-40 12-18 18-39 18-61 0-29-11-57-32-77-20-21-48-32-77-32z m62 0h-123c-13 0-24-3-35-8-11-6-21-13-28-23-7-9-12-20-15-32-2-11-2-23 1-35l48-187c4-17 14-32 28-43 14-11 31-16 48-16h28c17 0 35 5 48 16 14 11 24 26 29 43l47 187c3 12 3 24 1 35-2 12-7 23-15 32-7 10-17 17-28 23-10 5-22 8-34 8z m150 7c-2-8-1-16 3-23 4-7 11-13 19-15 3 0 6-1 8-1 7 0 14 3 19 7 6 4 10 10 11 17 11 41 12 85 3 127-8 42-26 81-53 115-26 34-60 62-98 80-39 19-81 29-124 29-43 0-85-10-124-29-38-18-72-46-98-80-27-34-45-73-53-115-9-42-8-86 3-127 1-4 2-8 5-11 2-4 5-7 9-9 4-2 7-3 12-4 4 0 8 0 12 1 4 1 8 3 11 5 3 3 6 6 8 9 2 4 4 8 4 12 1 4 0 8-1 12-8 33-9 66-2 99 7 33 21 64 41 90 21 26 47 48 77 62 30 15 63 23 96 23 33 0 66-8 96-23 30-14 56-36 77-62 20-26 34-57 41-90 7-33 6-66-2-99v0z m-212 461c-87 0-172-28-242-80-70-52-122-125-147-209-25-83-23-173 7-255 29-82 85-152 157-200 7-5 16-7 24-5 8 2 15 6 20 13 2 4 4 7 4 12 1 4 1 8 0 12 0 4-2 8-4 11-3 3-6 6-9 9-62 40-108 100-133 169-25 70-27 146-6 216 21 71 65 133 124 177 59 44 131 68 205 68 74 0 146-24 205-68 59-44 103-106 124-177 21-70 19-146-6-216-25-69-71-129-133-169-7-5-11-12-13-20-1-8 0-17 5-23 4-7 11-12 19-14 8-1 17 0 24 5 72 48 128 118 157 200 30 82 32 172 7 255-25 84-77 157-147 209-70 52-155 80-242 80z" horiz-adv-x="1000" />

<glyph glyph-name="appstorelogo-filled" unicode="&#xe82e;" d="M500 756c-80 0-159-24-226-68-66-45-119-108-149-182-31-75-39-156-23-235 15-79 54-151 111-208 57-57 129-96 208-111 79-16 160-8 235 23 74 30 137 83 182 149 44 67 68 146 68 226 0 108-43 211-119 287-76 76-179 119-287 119z m-173-610l-19-31c-2-3-5-6-8-9-3-2-7-4-11-5-4-1-8-1-12-1-4 1-8 2-12 5-3 2-6 4-9 8-2 3-4 7-5 11-1 4-1 8-1 12 1 4 2 8 5 11l18 32c5 7 11 12 19 14 9 2 17 1 24-4 7-4 12-11 14-19 2-8 1-16-3-24z m173 110h-281c-8 0-16 4-22 9-6 6-9 14-9 23 0 8 3 16 9 22 6 6 14 9 22 9h138l107 177-53 88c-2 3-4 7-4 11-1 4-1 9 0 13 1 4 3 7 5 11 3 3 6 6 9 8 8 4 16 5 24 3 4-1 8-2 11-5 3-2 6-5 8-9l36-59 36 59c2 4 5 7 8 9 3 3 7 4 11 5 4 1 8 2 12 1 4-1 8-2 12-4 3-2 6-5 9-8 2-4 4-7 5-11 1-4 1-9 0-13 0-4-2-8-4-11l-159-265h70c8 0 16-3 22-9 6-6 9-14 9-22 0-9-3-17-9-23-6-5-14-9-22-9z m281 0h-101l66-109c4-7 5-15 3-23-2-8-7-15-14-19-7-5-16-6-24-4-8 2-15 7-19 14l-150 250c-4 7-6 16-4 24 2 8 8 15 15 19 7 4 15 6 23 4 8-2 15-8 20-15l47-78h138c9 0 17-3 22-9 6-6 10-14 10-22 0-9-4-17-10-23-5-5-13-9-22-9z" horiz-adv-x="1000" />

<glyph glyph-name="applepodcastslogo-outlined" unicode="&#xe82f;" d="M602 310c14 18 21 40 23 63 1 23-3 46-14 66-11 20-27 37-46 49-20 12-42 18-65 18-23 0-45-6-65-18-19-12-35-29-46-49-10-20-15-43-14-66 2-23 10-45 23-63-14-7-25-16-35-28-8-11-14-24-17-38-3-14-3-28 1-42l47-187c5-21 17-39 34-52 17-12 37-19 58-19h28c21 0 41 7 58 19 17 13 29 31 34 52l47 187c4 14 4 28 1 42-3 14-9 27-17 38-9 12-21 21-35 28z m-102 134c12 0 24-4 35-11 10-7 18-16 23-28 5-11 6-24 3-36-2-12-8-23-17-32-8-9-20-15-32-17-12-2-24-1-36 4-11 4-21 12-28 23-7 10-10 22-10 34 0 17 6 33 18 44 12 12 27 19 44 19z m93-226l-48-188c-2-7-6-13-11-17-6-4-13-7-20-7h-28c-7 0-14 3-20 7-5 4-9 10-11 17l-48 188c-1 4-1 9 0 13 1 5 3 9 6 13 3 4 7 7 11 9 5 2 10 3 15 3h123c5 0 9-1 14-3 4-2 8-5 11-9 3-4 5-8 6-13 1-4 1-9 0-13z m-312 132c0-18 3-37 7-55 1-4 2-8 1-12 0-4-2-8-4-12-2-3-5-6-8-9-3-2-7-4-11-5-4-1-8-1-12-1-5 1-8 2-12 4-4 2-7 5-9 9-3 3-4 7-5 11-11 41-12 85-3 127 8 42 26 81 53 115 26 34 60 61 98 80 39 19 81 29 124 29 43 0 85-10 124-29 38-19 72-46 98-80 27-34 45-73 53-115 9-42 8-86-3-127-1-7-5-13-11-17-5-4-12-7-19-7-2 0-5 1-8 1-8 2-15 8-19 15-4 7-5 15-3 23 8 30 9 62 4 92-6 31-18 60-35 86-17 25-40 47-67 63-26 16-56 27-86 31-31 4-62 1-92-8-30-9-57-25-80-45-24-21-42-46-55-74-13-28-20-59-20-90z m625 0c0-67-16-133-48-192-32-59-77-109-133-146-7-5-16-6-24-5-8 2-15 7-19 14-5 6-6 15-5 23 2 8 6 15 13 20 62 40 108 100 133 169 25 70 27 146 6 216-21 71-65 133-124 177-59 44-131 68-205 68-74 0-146-24-205-68-59-44-103-106-124-177-21-70-19-146 6-216 25-69 71-129 133-169 6-4 10-10 12-16 2-6 3-13 1-19-2-7-6-13-12-17-5-4-12-6-18-6-6 0-12 2-18 6-58 38-106 92-137 154-32 63-47 133-44 203 4 70 25 138 62 198 38 59 90 108 152 141 62 33 131 50 202 48 70-1 138-21 199-57 60-36 110-87 144-149 35-61 53-130 53-200z" horiz-adv-x="1000" />

<glyph glyph-name="appstorelogo-outlined" unicode="&#xe830;" d="M251 84l-37-62c-2-4-4-7-8-9-3-3-7-5-11-6-8-2-16-1-23 4-7 4-13 11-15 19-2 8-1 16 4 23l37 63c2 4 4 7 8 9 3 3 7 5 11 6 4 1 8 1 12 1 4-1 8-2 12-4 3-3 6-5 9-9 2-3 4-7 5-11 1-4 1-8 1-12-1-4-2-8-5-12z m655 172h-186l-120 203c-2 4-5 7-9 10-3 2-7 4-11 5-4 1-8 2-12 1-4 0-8-2-12-4-3-2-6-5-9-8-2-4-4-7-5-11-1-4-1-9-1-13 1-4 3-8 5-11l240-406c4-7 11-13 19-15 8-2 16-1 23 4 8 4 13 11 15 19 2 8 1 16-4 23l-82 141h149c9 0 17 3 22 9 6 6 10 14 10 22 0 8-4 16-10 22-5 6-13 9-22 9z m-349 0h-204l268 453c4 7 5 16 3 24-2 8-7 15-14 19-7 4-16 5-24 3-8-2-15-7-19-14l-67-113-67 113c-2 4-5 7-8 9-3 3-7 4-11 5-8 3-16 1-24-3-7-4-12-11-14-19-2-8-1-17 3-24l85-142-183-311h-187c-8 0-16-3-22-9-6-6-9-14-9-22 0-8 3-16 9-22 6-6 14-9 22-9h463c8 0 16 3 22 9 6 6 9 14 9 22 0 8-3 16-9 22-6 6-14 9-22 9z" horiz-adv-x="1000" />

<glyph glyph-name="appwindow-filled" unicode="&#xe831;" d="M844 694h-688c-16 0-32-7-44-19-12-11-18-27-18-44v-562c0-17 6-33 18-44 12-12 28-19 44-19h688c16 0 32 7 44 19 12 11 18 27 18 44v562c0 17-6 33-18 44-12 12-28 19-44 19z m-578-219c-10 0-19 3-26 8-8 5-14 12-18 21-3 9-4 18-2 27 2 9 6 18 13 24 6 7 14 11 24 13 9 2 18 1 27-3 8-3 15-9 21-17 5-8 8-17 8-26 0-13-5-24-14-33-9-9-21-14-33-14z m156 0c-9 0-18 3-26 8-8 5-14 12-17 21-4 9-5 18-3 27 2 9 6 18 13 24 6 7 15 11 24 13 9 2 18 1 27-3 8-3 16-9 21-17 5-8 8-17 8-26 0-13-5-24-14-33-9-9-21-14-33-14z" horiz-adv-x="1000" />

<glyph glyph-name="appwindow-outlined" unicode="&#xe832;" d="M844 694h-688c-16 0-32-7-44-19-12-11-18-27-18-44v-562c0-17 6-33 18-44 12-12 28-19 44-19h688c16 0 32 7 44 19 12 11 18 27 18 44v562c0 17-6 33-18 44-12 12-28 19-44 19z m0-625h-688v562h688v-562z m-531 453c0-9-3-18-8-26-6-8-13-14-21-17-9-4-18-5-27-3-10 2-18 6-24 13-7 6-11 15-13 24-2 9-1 18 2 27 4 8 10 16 18 21 7 5 16 8 26 8 12 0 24-5 33-14 9-9 14-21 14-33z m156 0c0-9-3-18-8-26-5-8-13-14-21-17-9-4-18-5-27-3-9 2-18 6-24 13-7 6-11 15-13 24-2 9-1 18 3 27 3 8 9 16 17 21 8 5 17 8 26 8 12 0 24-5 33-14 9-9 14-21 14-33z" horiz-adv-x="1000" />

<glyph glyph-name="archivebox-filled" unicode="&#xe833;" d="M872 583l-63 125c-2 5-6 9-11 12-5 3-11 5-17 5h-562c-6 0-12-2-17-5-5-3-9-7-11-12l-63-125c-2-5-3-9-3-14v-531c0-17 7-33 18-45 12-11 28-18 45-18h625c16 0 32 7 44 18 11 12 18 28 18 45v531c0 5-1 9-3 14z m-225-349l-125-125c-3-3-6-5-10-7-4-1-8-2-12-2-4 0-8 1-12 2-4 2-7 4-10 7l-125 125c-6 6-9 14-9 22 0 9 3 17 9 22 6 6 14 10 22 10 8 0 16-4 22-10l72-71v237c0 8 3 16 9 22 6 6 14 9 22 9 8 0 16-3 22-9 6-6 9-14 9-22v-237l72 71c6 6 14 10 22 10 8 0 16-4 22-10 6-5 9-13 9-22 0-8-3-16-9-22z m-440 366l31 63h524l31-63h-586z" horiz-adv-x="1000" />

<glyph glyph-name="archivebox-outlined" unicode="&#xe834;" d="M872 583l-63 125c-2 5-6 9-11 12-5 3-11 5-17 5h-562c-6 0-12-2-17-5-5-3-9-7-11-12l-63-125c-2-5-3-9-3-14v-531c0-17 7-33 18-45 12-11 28-18 45-18h625c16 0 32 7 44 18 11 12 18 28 18 45v531c0 5-1 9-3 14z m-634 80h524l31-63h-586l31 63z m575-625h-625v500h625v-500z m-166 240c3-2 5-6 7-10 2-4 2-8 2-12 0-4 0-8-2-12-2-3-4-7-7-10l-125-125c-3-3-6-5-10-7-4-1-8-2-12-2-4 0-8 1-12 2-4 2-7 4-10 7l-125 125c-6 6-9 14-9 22 0 9 3 17 9 22 6 6 14 10 22 10 8 0 16-4 22-10l72-71v237c0 8 3 16 9 22 6 6 14 9 22 9 8 0 16-3 22-9 6-6 9-14 9-22v-237l72 71c3 3 6 6 10 7 4 2 8 3 12 3 4 0 8-1 12-3 4-1 7-4 10-7z" horiz-adv-x="1000" />

<glyph glyph-name="archive-filled" unicode="&#xe835;" d="M875 663h-750c-17 0-32-7-44-19-12-11-18-27-18-44v-94c0-16 6-32 18-44 12-12 27-18 44-18v-344c0-17 7-32 18-44 12-12 28-18 45-18h625c16 0 32 6 44 18 11 12 18 27 18 44v344c17 0 33 6 44 18 12 12 19 28 19 44v94c0 17-7 33-19 44-11 12-27 19-44 19z m-281-375h-188c-8 0-16 3-22 9-6 6-9 14-9 22 0 8 3 16 9 22 6 6 14 9 22 9h188c8 0 16-3 22-9 6-6 9-14 9-22 0-8-3-16-9-22-6-6-14-9-22-9z m281 218h-750v94h750v-94z" horiz-adv-x="1000" />

<glyph glyph-name="archive-outlined" unicode="&#xe836;" d="M875 663h-750c-17 0-32-7-44-19-12-11-18-27-18-44v-94c0-16 6-32 18-44 12-12 27-18 44-18v-344c0-17 7-32 18-44 12-12 28-18 45-18h625c16 0 32 6 44 18 11 12 18 27 18 44v344c17 0 33 6 44 18 12 12 19 28 19 44v94c0 17-7 33-19 44-11 12-27 19-44 19z m-62-563h-625v344h625v-344z m62 406h-750v94h750v-94z m-500-187c0 8 3 16 9 22 6 6 14 9 22 9h188c8 0 16-3 22-9 6-6 9-14 9-22 0-8-3-16-9-22-6-6-14-9-22-9h-188c-8 0-16 3-22 9-6 6-9 14-9 22z" horiz-adv-x="1000" />

<glyph glyph-name="archivetray-filled" unicode="&#xe837;" d="M813 725h-625c-17 0-33-7-45-18-11-12-18-28-18-44v-625c0-17 7-33 18-45 12-11 28-18 45-18h625c16 0 32 7 44 18 11 12 18 28 18 45v625c0 16-7 32-18 44-12 11-28 18-44 18z m-460-322c3 3 6 6 10 7 4 2 8 3 12 3 4 0 8-1 12-3 4-1 7-4 10-7l72-71v237c0 8 3 16 9 22 6 6 14 9 22 9 8 0 16-3 22-9 6-6 9-14 9-22v-237l72 71c3 3 6 6 10 7 4 2 8 3 12 3 4 0 8-1 12-3 4-1 7-4 10-7 3-2 5-6 7-10 2-4 2-8 2-12 0-4 0-8-2-12-2-3-4-7-7-10l-125-125c-3-3-6-5-10-7-4-1-8-2-12-2-4 0-8 1-12 2-4 2-7 4-10 7l-125 125c-3 3-5 7-7 10-1 4-2 8-2 12 0 4 1 8 2 12 2 4 4 8 7 10z m460-365h-625v156h112l75-76c6-5 13-10 20-13 8-3 16-5 24-5h162c8 0 16 2 24 5 7 3 14 8 20 13l75 76h113v-156z" horiz-adv-x="1000" />

<glyph glyph-name="archivetray-outlined" unicode="&#xe838;" d="M813 725h-625c-17 0-33-7-45-18-11-12-18-28-18-44v-625c0-17 7-33 18-45 12-11 28-18 45-18h625c16 0 32 7 44 18 11 12 18 28 18 45v625c0 16-7 32-18 44-12 11-28 18-44 18z m0-62v-407h-113c-8 0-16-1-23-4-8-4-15-8-21-14l-75-75h-162l-75 75c-6 6-13 10-20 14-8 3-16 4-24 4h-112v407h625z m0-625h-625v156h112l75-76c6-5 13-10 20-13 8-3 16-5 24-5h162c8 0 16 2 24 5 7 3 14 8 20 13l75 76h113v-156z m-460 321c-6 6-9 14-9 22 0 9 3 17 9 22 6 6 14 10 22 10 8 0 16-4 22-10l72-71v237c0 8 3 16 9 22 6 6 14 9 22 9 8 0 16-3 22-9 6-6 9-14 9-22v-237l72 71c3 3 6 6 10 7 4 2 8 3 12 3 4 0 8-1 12-3 4-1 7-4 10-7 3-2 5-6 7-10 2-4 2-8 2-12 0-4 0-8-2-12-2-3-4-7-7-10l-125-125c-3-3-6-5-10-7-4-1-8-2-12-2-4 0-8 1-12 2-4 2-7 4-10 7l-125 125z" horiz-adv-x="1000" />

<glyph glyph-name="armchair-filled" unicode="&#xe839;" d="M156 521v48c0 41 17 81 46 110 29 30 69 46 111 46h375c41 0 81-16 110-46 29-29 46-69 46-110v-48c0-2-1-4-1-5-1-2-2-4-4-5-1-2-3-3-5-4-2 0-4-1-6-1-40 0-79-14-110-40-31-25-51-61-59-100h-318c-7 39-28 75-59 100-31 26-70 40-110 40-2 0-4 1-6 1-2 1-4 2-5 4-2 1-3 3-3 5-1 1-2 3-2 5z m672-77c-29 0-57-12-77-32-21-21-32-49-32-78v-140c0-8-3-16-9-22-6-6-14-9-22-9-9 0-17 3-23 9-5 6-9 14-9 22v109h-312v-109c0-8-3-16-9-22-6-6-14-9-22-9-9 0-17 3-23 9-5 6-9 14-9 22v140c0 21-6 42-17 60-11 17-28 31-47 40-19 9-40 12-61 9-20-3-40-12-56-26-16-14-27-32-33-52-6-20-6-41 0-61 6-20 17-38 33-52 16-14 36-23 56-26v-157c0-17 7-33 19-44 11-12 27-19 44-19h562c17 0 33 7 44 19 12 11 19 27 19 44v157c27 4 52 18 69 40 18 21 26 49 24 76-2 28-14 54-34 72-21 19-47 30-75 30z" horiz-adv-x="1000" />

<glyph glyph-name="arrowarcleft-filled" unicode="&#xe83a;" d="M906 131c0-8-3-16-9-22-6-6-14-9-22-9-8 0-16 3-22 9-6 6-9 14-9 22 0 67-20 133-57 189-37 56-89 100-151 127-62 27-130 34-196 23-66-12-128-43-176-89l102-103c4-4 7-10 8-16 2-6 1-12-1-18-3-5-7-10-12-14-5-3-11-5-17-5h-250c-8 0-16 3-22 9-6 6-9 14-9 22v250c0 6 1 13 5 18 3 5 8 9 14 11 6 3 12 3 18 2 6-1 12-4 16-9l103-103c58 55 130 92 209 106 78 14 159 5 232-26 73-31 135-84 179-150 44-66 67-144 67-224z" horiz-adv-x="1000" />

<glyph glyph-name="arrowarcleft-outlined" unicode="&#xe83b;" d="M906 131c0-8-3-16-9-22-6-6-14-9-22-9-8 0-16 3-22 9-6 6-9 14-9 22 0 68-20 135-58 191-38 57-92 101-154 127-63 26-132 33-199 19-67-13-128-46-176-94l-87-86h174c8 0 16-4 22-10 6-5 9-13 9-22 0-8-3-16-9-22-6-6-14-9-22-9h-250c-8 0-16 3-22 9-6 6-9 14-9 22v250c0 9 3 17 9 22 6 6 14 10 22 10 8 0 16-4 22-10 6-5 9-13 9-22v-175l88 88c57 56 129 95 208 111 79 15 160 7 235-23 74-31 137-83 182-150 44-67 68-145 68-226z" horiz-adv-x="1000" />

<glyph glyph-name="arrowarcright-filled" unicode="&#xe83c;" d="M938 506v-250c0-8-4-16-10-22-5-6-13-9-22-9h-250c-6 0-12 2-17 5-5 4-9 9-12 14-2 6-3 12-1 18 1 6 4 12 8 16l102 103c-48 46-110 77-176 89-66 11-134 4-196-23-61-27-114-71-151-127-37-56-57-122-57-189 0-8-3-16-9-22-6-6-14-9-22-9-8 0-16 3-22 9-6 6-9 14-9 22 0 80 23 158 67 224 44 66 106 119 179 150 74 31 154 40 233 26 78-14 150-51 208-106l103 103c5 5 10 8 16 9 6 1 13 1 18-2 6-2 11-6 14-11 4-5 6-12 6-18z" horiz-adv-x="1000" />

<glyph glyph-name="arrowarcright-outlined" unicode="&#xe83d;" d="M938 506v-250c0-8-4-16-10-22-5-6-13-9-22-9h-250c-8 0-16 3-22 9-6 6-9 14-9 22 0 9 3 17 9 22 6 6 14 10 22 10h175l-88 86c-48 48-109 81-176 94-67 14-136 7-198-19-63-26-117-70-155-127-38-56-58-123-58-191 0-8-3-16-9-22-6-6-14-9-22-9-8 0-16 3-22 9-6 6-9 14-9 22 0 81 24 159 68 226 45 67 108 119 183 150 74 30 156 38 234 23 79-16 152-55 208-111l88-88v175c0 9 3 17 9 22 6 6 14 10 22 10 9 0 17-4 22-10 6-5 10-13 10-22z" horiz-adv-x="1000" />

<glyph glyph-name="arrowbenddoubleupleft-filled" unicode="&#xe83e;" d="M335 278c6-5 9-13 9-22 0-8-3-16-9-22-6-6-14-9-22-9-9 0-17 3-23 9l-187 188c-3 3-5 6-7 10-1 4-2 8-2 12 0 4 1 8 2 12 2 4 4 7 7 10l187 187c6 6 14 10 23 10 8 0 16-4 22-10 6-5 9-13 9-22 0-8-3-16-9-22l-166-165 166-166z m196 196v157c0 6-2 13-5 18-3 5-8 9-14 11-6 3-12 3-18 2-6-1-12-4-16-9l-188-187c-2-3-5-6-6-10-2-4-3-8-3-12 0-4 1-8 3-12 1-4 4-7 6-10l188-188c4-4 10-7 16-8 6-2 12-1 18 1 6 3 11 7 14 12 3 5 5 11 5 17v155c86-8 165-47 223-111 58-63 90-145 90-231 0-8 3-16 9-22 6-6 14-9 22-9 8 0 16 3 22 9 6 6 9 14 9 22 0 102-38 201-108 276-69 75-165 121-267 129z" horiz-adv-x="1000" />

<glyph glyph-name="arrowbenddoubleupleft-outlined" unicode="&#xe83f;" d="M335 278c6-5 9-13 9-22 0-8-3-16-9-22-6-6-14-9-22-9-9 0-17 3-23 9l-187 188c-3 3-5 6-7 10-1 4-2 8-2 12 0 4 1 8 2 12 2 4 4 7 7 10l187 187c6 6 14 10 23 10 8 0 16-4 22-10 6-5 9-13 9-22 0-8-3-16-9-22l-166-165 166-166z m165 197h-112l134 134c6 6 9 14 9 22 0 9-3 17-9 22-6 6-14 10-22 10-8 0-16-4-22-10l-188-187c-2-3-5-6-6-10-2-4-3-8-3-12 0-4 1-8 3-12 1-4 4-7 6-10l188-188c3-3 6-5 10-7 4-1 8-2 12-2 4 0 8 1 12 2 4 2 7 4 10 7 3 3 5 7 7 10 2 4 2 8 2 12 0 4 0 8-2 12-2 4-4 8-7 10l-134 135h112c91-1 179-37 243-101 64-65 101-152 101-243 0-8 3-16 9-22 6-6 14-9 22-9 8 0 16 3 22 9 6 6 9 14 9 22 0 108-43 211-119 287-76 76-179 119-287 119z" horiz-adv-x="1000" />

<glyph glyph-name="arrowbenddoubleupright-filled" unicode="&#xe840;" d="M897 422l-187-188c-6-6-14-9-22-9-9 0-17 3-23 9-5 6-9 14-9 22 0 9 4 17 9 22l166 166-166 165c-2 3-5 7-6 10-2 4-3 8-3 12 0 4 1 8 3 12 1 4 4 8 6 10 6 6 14 10 23 10 4 0 8-1 12-3 3-1 7-4 10-7l187-187c3-3 5-6 7-10 2-4 2-8 2-12 0-4 0-8-2-12-2-4-4-7-7-10z m-187 44l-188 187c-4 5-10 8-16 9-6 1-12 1-18-2-6-2-11-6-14-11-3-5-5-12-5-18v-157c-102-8-197-54-267-129-69-75-108-174-108-276 0-8 3-16 9-22 6-6 14-9 22-9 8 0 16 3 22 9 6 6 9 14 9 22 0 86 32 168 90 231 58 64 137 103 223 111v-155c0-6 2-12 5-17 3-5 8-9 14-12 6-2 12-3 18-1 6 1 12 4 16 8l188 188c3 3 5 6 6 10 2 4 3 8 3 12 0 4-1 8-3 12-1 4-3 7-6 10z" horiz-adv-x="1000" />

<glyph glyph-name="arrowbenddoubleupright-outlined" unicode="&#xe841;" d="M897 422l-187-188c-6-6-14-9-22-9-9 0-17 3-23 9-5 6-9 14-9 22 0 9 4 17 9 22l166 166-166 165c-2 3-5 7-6 10-2 4-3 8-3 12 0 4 1 8 3 12 1 4 4 8 6 10 6 6 14 10 23 10 4 0 8-1 12-3 3-1 7-4 10-7l187-187c3-3 5-6 7-10 2-4 2-8 2-12 0-4 0-8-2-12-2-4-4-7-7-10z m-187 44l-188 187c-6 6-14 10-22 10-8 0-16-4-22-10-6-5-9-13-9-22 0-8 3-16 9-22l134-134h-112c-108 0-211-43-287-119-76-76-119-179-119-287 0-8 3-16 9-22 6-6 14-9 22-9 8 0 16 3 22 9 6 6 9 14 9 22 0 91 37 178 101 243 65 64 152 100 243 101h112l-134-135c-3-2-5-6-7-10-1-4-2-8-2-12 0-4 1-8 2-12 2-3 4-7 7-10 6-6 14-9 22-9 4 0 8 1 12 2 4 2 7 4 10 7l188 188c3 3 5 6 6 10 2 4 3 8 3 12 0 4-1 8-3 12-1 4-3 7-6 10z" horiz-adv-x="1000" />

<glyph glyph-name="arrowbenddownleft-filled" unicode="&#xe842;" d="M906 631c0-107-43-211-119-287-76-76-179-119-287-119h-156v-156c0-6-2-12-5-18-4-5-9-9-14-11-6-2-12-3-19-2-6 1-11 4-16 9l-187 187c-3 3-5 7-7 10-1 4-2 8-2 12 0 4 1 8 2 12 2 4 4 8 7 10l187 188c5 4 10 7 16 8 7 2 13 1 19-1 5-3 10-7 14-12 3-5 5-11 5-17v-156h156c91 0 179 36 243 100 64 65 101 152 101 243 0 9 3 17 9 22 6 6 14 10 22 10 8 0 16-4 22-10 6-5 9-13 9-22z" horiz-adv-x="1000" />

<glyph glyph-name="arrowbenddownleft-outlined" unicode="&#xe843;" d="M906 631c0-107-43-211-119-287-76-76-179-119-287-119h-300l135-134c6-6 9-14 9-22 0-8-3-16-9-22-6-6-14-9-22-9-9 0-17 3-23 9l-187 187c-3 3-5 7-7 10-1 4-2 8-2 12 0 4 1 8 2 12 2 4 4 8 7 10l187 188c6 6 14 9 23 9 8 0 16-3 22-9 6-6 9-14 9-22 0-8-3-16-9-22l-135-134h300c91 0 179 36 243 100 64 65 101 152 101 243 0 9 3 17 9 22 6 6 14 10 22 10 8 0 16-4 22-10 6-5 9-13 9-22z" horiz-adv-x="1000" />

<glyph glyph-name="arrowbenddownright-filled" unicode="&#xe844;" d="M897 234l-187-187c-5-5-10-8-16-9-6-1-13 0-18 2-6 2-11 6-14 11-4 6-6 12-6 18v156h-156c-108 0-211 43-287 119-76 76-119 180-119 287 0 9 3 17 9 22 6 6 14 10 22 10 8 0 16-4 22-10 6-5 9-13 9-22 0-91 37-178 101-243 65-64 152-100 243-100h156v156c0 6 2 12 6 17 3 5 8 9 14 12 5 2 12 3 18 1 6-1 11-4 16-8l187-188c3-2 5-6 7-10 2-4 2-8 2-12 0-4 0-8-2-12-2-3-4-7-7-10z" horiz-adv-x="1000" />

<glyph glyph-name="arrowbenddownright-outlined" unicode="&#xe845;" d="M897 234l-187-187c-6-6-14-9-22-9-9 0-17 3-23 9-5 6-9 14-9 22 0 8 4 16 9 22l135 134h-300c-108 0-211 43-287 119-76 76-119 180-119 287 0 9 3 17 9 22 6 6 14 10 22 10 8 0 16-4 22-10 6-5 9-13 9-22 0-91 37-178 101-243 65-64 152-100 243-100h300l-135 134c-5 6-9 14-9 22 0 8 4 16 9 22 6 6 14 9 23 9 8 0 16-3 22-9l187-188c3-2 5-6 7-10 2-4 2-8 2-12 0-4 0-8-2-12-2-3-4-7-7-10z" horiz-adv-x="1000" />

<glyph glyph-name="arrowbendleftdown-filled" unicode="&#xe846;" d="M813 725c0-8-4-16-10-22-5-6-13-9-22-9-91 0-178-37-243-101-64-64-100-152-100-243v-156h156c6 0 12-2 17-5 5-4 9-9 12-14 2-6 3-12 1-19-1-6-4-11-8-16l-188-187c-3-3-6-5-10-7-4-2-8-2-12-2-4 0-8 0-12 2-3 2-7 4-10 7l-187 187c-5 5-8 10-9 16-1 7 0 13 2 19 2 5 6 10 11 14 6 3 12 5 18 5h156v156c0 108 43 211 119 287 76 76 180 119 287 119 9 0 17-3 22-9 6-6 10-14 10-22z" horiz-adv-x="1000" />

<glyph glyph-name="arrowbendleftup-outlined" unicode="&#xe847;" d="M813-25c0-8-4-16-10-22-5-6-13-9-22-9-107 0-211 43-287 119-76 76-119 179-119 287v300l-134-135c-6-5-14-9-22-9-8 0-16 4-22 9-6 6-9 14-9 23 0 8 3 16 9 22l187 187c3 3 7 5 10 7 4 2 8 2 12 2 4 0 8 0 12-2 4-2 8-4 10-7l188-187c6-6 9-14 9-22 0-9-3-17-9-23-6-5-14-9-22-9-8 0-16 4-22 9l-134 135v-300c0-91 36-178 100-243 65-64 152-101 243-101 9 0 17-3 22-9 6-6 10-14 10-22z" horiz-adv-x="1000" />

<glyph glyph-name="arrowbendleftup-filled" unicode="&#xe848;" d="M813-25c0-8-4-16-10-22-5-6-13-9-22-9-107 0-211 43-287 119-76 76-119 179-119 287v156h-156c-6 0-12 2-18 6-5 3-9 8-11 14-2 5-3 12-2 18 1 6 4 11 9 16l187 187c3 3 7 5 10 7 4 2 8 2 12 2 4 0 8 0 12-2 4-2 7-4 10-7l188-187c4-5 7-10 8-16 2-6 1-13-1-18-3-6-7-11-12-14-5-4-11-6-17-6h-156v-156c0-91 36-178 100-243 65-64 152-101 243-101 9 0 17-3 22-9 6-6 10-14 10-22z" horiz-adv-x="1000" />

<glyph glyph-name="arrowbendrightdown-filled" unicode="&#xe849;" d="M803 140l-187-187c-3-3-6-5-10-7-4-2-8-2-12-2-4 0-8 0-12 2-4 2-7 4-10 7l-188 187c-4 5-7 10-8 16-2 7-1 13 1 19 3 5 7 10 12 14 5 3 11 5 17 5h157v156c-1 91-37 179-101 243-65 64-152 101-243 101-8 0-16 3-22 9-6 6-9 14-9 22 0 8 3 16 9 22 6 6 14 9 22 9 108 0 211-43 287-119 76-76 119-179 119-287v-156h156c6 0 13-2 18-5 5-4 9-9 11-14 3-6 3-12 2-19-1-6-4-11-9-16z" horiz-adv-x="1000" />

<glyph glyph-name="arrowbendrightdown-outlined" unicode="&#xe84a;" d="M803 140l-187-187c-3-3-6-5-10-7-4-2-8-2-12-2-4 0-8 0-12 2-4 2-7 4-10 7l-188 187c-6 6-9 14-9 23 0 8 3 16 9 22 6 6 14 9 22 9 9 0 17-3 22-9l135-135v300c-1 91-37 179-101 243-65 64-152 101-243 101-8 0-16 3-22 9-6 6-9 14-9 22 0 8 3 16 9 22 6 6 14 9 22 9 108 0 211-43 287-119 76-76 119-179 119-287v-300l134 135c6 6 14 9 22 9 9 0 17-3 22-9 6-6 10-14 10-22 0-9-4-17-10-23z" horiz-adv-x="1000" />

<glyph glyph-name="arrowbendrightup-filled" unicode="&#xe84b;" d="M810 526c-2-6-6-11-11-14-5-4-12-6-18-6h-156v-156c0-108-43-211-119-287-76-76-179-119-287-119-8 0-16 3-22 9-6 6-9 14-9 22 0 8 3 16 9 22 6 6 14 9 22 9 91 0 178 37 243 101 64 65 100 152 101 243v156h-157c-6 0-12 2-17 6-5 3-9 8-12 14-2 5-3 12-1 18 1 6 4 11 8 16l188 187c3 3 6 5 10 7 4 2 8 2 12 2 4 0 8 0 12-2 4-2 7-4 10-7l187-187c5-5 8-10 9-16 1-6 1-13-2-18z" horiz-adv-x="1000" />

<glyph glyph-name="arrowbendleftdown-outlined" unicode="&#xe84c;" d="M813 725c0-8-4-16-10-22-5-6-13-9-22-9-91 0-178-37-243-101-64-64-100-152-100-243v-300l134 135c6 6 14 9 22 9 8 0 16-3 22-9 6-6 9-14 9-22 0-9-3-17-9-23l-188-187c-2-3-6-5-10-7-4-2-8-2-12-2-4 0-8 0-12 2-3 2-7 4-10 7l-187 187c-3 3-6 7-7 11-2 3-2 7-2 12 0 4 0 8 2 12 1 3 4 7 7 10 6 6 14 9 22 9 4 0 8-1 12-3 4-1 7-3 10-6l134-135v300c0 108 43 211 119 287 76 76 180 119 287 119 9 0 17-3 22-9 6-6 10-14 10-22z" horiz-adv-x="1000" />

<glyph glyph-name="arrowbendrightup-outlined" unicode="&#xe84d;" d="M803 515c-2-2-6-5-10-6-4-2-8-3-12-3-4 0-8 1-12 3-3 1-7 4-10 6l-134 135v-300c0-108-43-211-119-287-76-76-179-119-287-119-8 0-16 3-22 9-6 6-9 14-9 22 0 8 3 16 9 22 6 6 14 9 22 9 91 0 178 37 243 101 64 65 100 152 101 243v300l-135-135c-5-5-13-9-22-9-8 0-16 4-22 9-6 6-9 14-9 23 0 8 3 16 9 22l188 187c3 3 6 5 10 7 4 2 8 2 12 2 4 0 8 0 12-2 4-2 7-4 10-7l187-187c3-3 6-7 7-10 2-4 3-8 3-12 0-5-1-9-3-12-1-4-4-8-7-11z" horiz-adv-x="1000" />

<glyph glyph-name="arrowbendupleft-filled" unicode="&#xe84e;" d="M906 69c0-8-3-16-9-22-6-6-14-9-22-9-8 0-16 3-22 9-6 6-9 14-9 22 0 91-37 178-101 243-64 64-152 100-243 101h-156v-157c0-6-2-12-5-17-4-5-9-9-14-12-6-2-12-3-19-1-6 1-11 4-16 8l-187 188c-3 3-5 6-7 10-1 4-2 8-2 12 0 4 1 8 2 12 2 4 4 7 7 10l187 187c5 5 10 8 16 9 7 1 13 1 19-2 5-2 10-6 14-11 3-5 5-12 5-18v-156h156c108 0 211-43 287-119 76-76 119-179 119-287z" horiz-adv-x="1000" />

<glyph glyph-name="arrowbendupleft-outlined" unicode="&#xe84f;" d="M906 69c0-8-3-16-9-22-6-6-14-9-22-9-8 0-16 3-22 9-6 6-9 14-9 22 0 91-37 178-101 243-64 64-152 100-243 101h-300l135-135c6-5 9-13 9-22 0-8-3-16-9-22-6-6-14-9-22-9-9 0-17 3-23 9l-187 188c-3 3-5 6-7 10-1 4-2 8-2 12 0 4 1 8 2 12 2 4 4 7 7 10l187 187c6 6 14 10 23 10 8 0 16-4 22-10 6-5 9-13 9-22 0-8-3-16-9-22l-135-134h300c108 0 211-43 287-119 76-76 119-179 119-287z" horiz-adv-x="1000" />

<glyph glyph-name="arrowbendupright-filled" unicode="&#xe850;" d="M897 422l-187-188c-5-4-10-7-16-8-6-2-13-1-18 1-6 3-11 7-14 12-4 5-6 11-6 17v157h-156c-91-1-178-37-243-101-64-65-101-152-101-243 0-8-3-16-9-22-6-6-14-9-22-9-8 0-16 3-22 9-6 6-9 14-9 22 0 108 43 211 119 287 76 76 179 119 287 119h156v156c0 6 2 13 6 18 3 5 8 9 14 11 5 3 12 3 18 2 6-1 11-4 16-9l187-187c3-3 5-6 7-10 2-4 2-8 2-12 0-4 0-8-2-12-2-4-4-7-7-10z" horiz-adv-x="1000" />

<glyph glyph-name="arrowbendupright-outlined" unicode="&#xe851;" d="M897 422l-187-188c-6-6-14-9-22-9-9 0-17 3-23 9-5 6-9 14-9 22 0 9 4 17 9 22l135 135h-300c-91-1-178-37-243-101-64-65-101-152-101-243 0-8-3-16-9-22-6-6-14-9-22-9-8 0-16 3-22 9-6 6-9 14-9 22 0 108 43 211 119 287 76 76 179 119 287 119h300l-135 134c-2 3-5 7-6 10-2 4-3 8-3 12 0 4 1 8 3 12 1 4 4 8 6 10 6 6 14 10 23 10 4 0 8-1 12-3 3-1 7-4 10-7l187-187c3-3 5-6 7-10 2-4 2-8 2-12 0-4 0-8-2-12-2-4-4-7-7-10z" horiz-adv-x="1000" />

<glyph glyph-name="arrowcircledown-filled" unicode="&#xe852;" d="M500 756c-80 0-159-24-226-68-66-45-119-108-149-182-31-75-39-156-23-235 15-79 54-151 111-208 57-57 129-96 208-111 79-16 160-8 235 23 74 30 137 83 182 149 44 67 68 146 68 226 0 108-43 211-119 287-76 76-179 119-287 119z m147-459l-125-125c-3-3-6-6-10-7-4-2-8-2-12-2-4 0-8 0-12 2-4 1-7 4-10 7l-125 125c-6 6-9 14-9 22 0 8 3 16 9 22 6 6 14 9 22 9 8 0 16-3 22-9l72-72v237c0 9 3 17 9 22 6 6 14 10 22 10 8 0 16-4 22-10 6-5 9-13 9-22v-237l72 72c6 6 14 9 22 9 8 0 16-3 22-9 6-6 9-14 9-22 0-8-3-16-9-22z" horiz-adv-x="1000" />

<glyph glyph-name="arrowcircledownleft-filled" unicode="&#xe853;" d="M500 756c-80 0-159-24-226-68-66-45-119-108-149-182-31-75-39-156-23-235 15-79 54-151 111-208 57-57 129-96 208-111 79-16 160-8 235 23 74 30 137 83 182 149 44 67 68 146 68 226 0 108-43 211-119 287-76 76-179 119-287 119z m147-303l-197-197h113c8 0 16-3 22-9 6-6 9-14 9-22 0-8-3-16-9-22-6-6-14-9-22-9h-188c-8 0-16 3-22 9-6 6-9 14-9 22v188c0 8 3 16 9 22 6 6 14 9 22 9 8 0 16-3 22-9 6-6 9-14 9-22v-113l197 197c3 3 6 5 10 7 4 2 8 2 12 2 4 0 8 0 12-2 4-2 7-4 10-7 3-3 5-6 7-10 2-4 2-8 2-12 0-4 0-8-2-12-2-4-4-7-7-10z" horiz-adv-x="1000" />

<glyph glyph-name="arrowcircledownleft-outlined" unicode="&#xe854;" d="M500 756c-80 0-159-24-226-68-66-45-119-108-149-182-31-75-39-156-23-235 15-79 54-151 111-208 57-57 129-96 208-111 79-16 160-8 235 23 74 30 137 83 182 149 44 67 68 146 68 226 0 108-43 211-119 287-76 76-179 119-287 119z m0-750c-68 0-134 20-191 58-56 38-101 92-127 155-26 62-32 131-19 198 13 67 46 128 94 176 48 48 109 81 176 94 67 13 136 7 199-19 62-26 116-70 154-127 38-57 58-123 58-191 0-91-37-178-101-243-64-64-152-101-243-101z m147 491c3-3 5-6 7-10 2-4 2-8 2-12 0-4 0-8-2-12-2-4-4-7-7-10l-197-197h113c8 0 16-3 22-9 6-6 9-14 9-22 0-8-3-16-9-22-6-6-14-9-22-9h-188c-8 0-16 3-22 9-6 6-9 14-9 22v188c0 8 3 16 9 22 6 6 14 9 22 9 8 0 16-3 22-9 6-6 9-14 9-22v-113l197 197c3 3 6 5 10 7 4 2 8 2 12 2 4 0 8 0 12-2 4-2 7-4 10-7z" horiz-adv-x="1000" />

<glyph glyph-name="arrowcircledown-outlined" unicode="&#xe855;" d="M500 756c-80 0-159-24-226-68-66-45-119-108-149-182-31-75-39-156-23-235 15-79 54-151 111-208 57-57 129-96 208-111 79-16 160-8 235 23 74 30 137 83 182 149 44 67 68 146 68 226 0 108-43 211-119 287-76 76-179 119-287 119z m0-750c-68 0-134 20-191 58-56 38-101 92-127 155-26 62-32 131-19 198 13 67 46 128 94 176 48 48 109 81 176 94 67 13 136 7 199-19 62-26 116-70 154-127 38-57 58-123 58-191 0-91-37-178-101-243-64-64-152-101-243-101z m147 335c3-3 5-6 7-10 2-4 2-8 2-12 0-4 0-8-2-12-2-4-4-7-7-10l-125-125c-3-3-6-6-10-7-4-2-8-2-12-2-4 0-8 0-12 2-4 1-7 4-10 7l-125 125c-6 6-9 14-9 22 0 8 3 16 9 22 6 6 14 9 22 9 8 0 16-3 22-9l72-72v237c0 9 3 17 9 22 6 6 14 10 22 10 8 0 16-4 22-10 6-5 9-13 9-22v-237l72 72c3 3 6 5 10 7 4 1 8 2 12 2 4 0 8-1 12-2 4-2 7-4 10-7z" horiz-adv-x="1000" />

<glyph glyph-name="arrowcircledownright-filled" unicode="&#xe856;" d="M500 756c-80 0-159-24-226-68-66-45-119-108-149-182-31-75-39-156-23-235 15-79 54-151 111-208 57-57 129-96 208-111 79-16 160-8 235 23 74 30 137 83 182 149 44 67 68 146 68 226 0 108-43 211-119 287-76 76-179 119-287 119z m156-531c0-8-3-16-9-22-6-6-14-9-22-9h-187c-9 0-17 3-23 9-5 6-9 14-9 22 0 8 4 16 9 22 6 6 14 9 23 9h112l-197 197c-6 6-9 14-9 22 0 8 3 16 9 22 6 6 14 9 22 9 8 0 16-3 22-9l197-197v113c0 8 3 16 9 22 6 6 14 9 22 9 8 0 16-3 22-9 6-6 9-14 9-22v-188z" horiz-adv-x="1000" />

<glyph glyph-name="arrowcircledownright-outlined" unicode="&#xe857;" d="M500 756c-80 0-159-24-226-68-66-45-119-108-149-182-31-75-39-156-23-235 15-79 54-151 111-208 57-57 129-96 208-111 79-16 160-8 235 23 74 30 137 83 182 149 44 67 68 146 68 226 0 108-43 211-119 287-76 76-179 119-287 119z m0-750c-68 0-134 20-191 58-56 38-101 92-127 155-26 62-32 131-19 198 13 67 46 128 94 176 48 48 109 81 176 94 67 13 136 7 199-19 62-26 116-70 154-127 38-57 58-123 58-191 0-91-37-178-101-243-64-64-152-101-243-101z m156 407v-188c0-8-3-16-9-22-6-6-14-9-22-9h-187c-9 0-17 3-23 9-5 6-9 14-9 22 0 8 4 16 9 22 6 6 14 9 23 9h112l-197 197c-6 6-9 14-9 22 0 8 3 16 9 22 6 6 14 9 22 9 8 0 16-3 22-9l197-197v113c0 8 3 16 9 22 6 6 14 9 22 9 8 0 16-3 22-9 6-6 9-14 9-22z" horiz-adv-x="1000" />

<glyph glyph-name="arrowcircleleft-filled" unicode="&#xe858;" d="M500 756c-80 0-159-24-226-68-66-45-119-108-149-182-31-75-39-156-23-235 15-79 54-151 111-208 57-57 129-96 208-111 79-16 160-8 235 23 74 30 137 83 182 149 44 67 68 146 68 226 0 108-43 211-119 287-76 76-179 119-287 119z m156-437h-237l72-72c3-3 5-6 7-10 1-4 2-8 2-12 0-4-1-8-2-12-2-4-4-7-7-10-3-3-6-5-10-7-4-1-8-2-12-2-4 0-8 1-12 2-4 2-7 4-10 7l-125 125c-3 3-6 6-7 10-2 4-2 8-2 12 0 4 0 8 2 12 1 4 4 7 7 10l125 125c6 6 14 9 22 9 8 0 16-3 22-9 6-6 9-14 9-22 0-8-3-16-9-22l-72-72h237c9 0 17-3 22-9 6-6 10-14 10-22 0-8-4-16-10-22-5-6-13-9-22-9z" horiz-adv-x="1000" />

<glyph glyph-name="arrowcircleleft-outlined" unicode="&#xe859;" d="M500 756c-80 0-159-24-226-68-66-45-119-108-149-182-31-75-39-156-23-235 15-79 54-151 111-208 57-57 129-96 208-111 79-16 160-8 235 23 74 30 137 83 182 149 44 67 68 146 68 226 0 108-43 211-119 287-76 76-179 119-287 119z m0-750c-68 0-134 20-191 58-56 38-101 92-127 155-26 62-32 131-19 198 13 67 46 128 94 176 48 48 109 81 176 94 67 13 136 7 199-19 62-26 116-70 154-127 38-57 58-123 58-191 0-91-37-178-101-243-64-64-152-101-243-101z m188 344c0-8-4-16-10-22-5-6-13-9-22-9h-237l72-72c3-3 5-6 7-10 1-4 2-8 2-12 0-4-1-8-2-12-2-4-4-7-7-10-3-3-6-5-10-7-4-1-8-2-12-2-4 0-8 1-12 2-4 2-7 4-10 7l-125 125c-3 3-6 6-7 10-2 4-2 8-2 12 0 4 0 8 2 12 1 4 4 7 7 10l125 125c6 6 14 9 22 9 8 0 16-3 22-9 6-6 9-14 9-22 0-8-3-16-9-22l-72-72h237c9 0 17-3 22-9 6-6 10-14 10-22z" horiz-adv-x="1000" />

<glyph glyph-name="arrowcircleright-outlined" unicode="&#xe85a;" d="M500 756c-80 0-159-24-226-68-66-45-119-108-149-182-31-75-39-156-23-235 15-79 54-151 111-208 57-57 129-96 208-111 79-16 160-8 235 23 74 30 137 83 182 149 44 67 68 146 68 226 0 108-43 211-119 287-76 76-179 119-287 119z m0-750c-68 0-134 20-191 58-56 38-101 92-127 155-26 62-32 131-19 198 13 67 46 128 94 176 48 48 109 81 176 94 67 13 136 7 199-19 62-26 116-70 154-127 38-57 58-123 58-191 0-91-37-178-101-243-64-64-152-101-243-101z m178 366c3-3 6-6 7-10 2-4 3-8 3-12 0-4-1-8-3-12-1-4-4-7-7-10l-125-125c-5-6-13-9-22-9-8 0-16 3-22 9-6 6-9 14-9 22 0 8 3 16 9 22l72 72h-237c-8 0-16 3-22 9-6 6-9 14-9 22 0 8 3 16 9 22 6 6 14 9 22 9h237l-72 72c-6 6-9 14-9 22 0 8 3 16 9 22 6 6 14 9 22 9 9 0 17-3 22-9l125-125z" horiz-adv-x="1000" />

<glyph glyph-name="arrowcircleright-filled" unicode="&#xe85b;" d="M500 756c-80 0-159-24-226-68-66-45-119-108-149-182-31-75-39-156-23-235 15-79 54-151 111-208 57-57 129-96 208-111 79-16 160-8 235 23 74 30 137 83 182 149 44 67 68 146 68 226 0 108-43 211-119 287-76 76-179 119-287 119z m178-428l-125-125c-5-6-13-9-22-9-8 0-16 3-22 9-6 6-9 14-9 22 0 8 3 16 9 22l72 72h-237c-8 0-16 3-22 9-6 6-9 14-9 22 0 8 3 16 9 22 6 6 14 9 22 9h237l-72 72c-6 6-9 14-9 22 0 8 3 16 9 22 6 6 14 9 22 9 9 0 17-3 22-9l125-125c3-3 6-6 7-10 2-4 3-8 3-12 0-4-1-8-3-12-1-4-4-7-7-10z" horiz-adv-x="1000" />

<glyph glyph-name="arrowcircleup-filled" unicode="&#xe85c;" d="M500 756c-80 0-159-24-226-68-66-45-119-108-149-182-31-75-39-156-23-235 15-79 54-151 111-208 57-57 129-96 208-111 79-16 160-8 235 23 74 30 137 83 182 149 44 67 68 146 68 226 0 108-43 211-119 287-76 76-179 119-287 119z m147-397c-3-3-6-5-10-7-4-1-8-2-12-2-4 0-8 1-12 2-4 2-7 4-10 7l-72 72v-237c0-8-3-16-9-22-6-6-14-9-22-9-8 0-16 3-22 9-6 6-9 14-9 22v237l-72-72c-6-6-14-9-22-9-8 0-16 3-22 9-6 6-9 14-9 22 0 9 3 17 9 22l125 125c3 3 6 6 10 7 4 2 8 3 12 3 4 0 8-1 12-3 4-1 7-4 10-7l125-125c3-2 5-6 7-10 2-4 2-8 2-12 0-4 0-8-2-12-2-3-4-7-7-10z" horiz-adv-x="1000" />

<glyph glyph-name="arrowcircleupleft-filled" unicode="&#xe85d;" d="M500 756c-80 0-159-24-226-68-66-45-119-108-149-182-31-75-39-156-23-235 15-79 54-151 111-208 57-57 129-96 208-111 79-16 160-8 235 23 74 30 137 83 182 149 44 67 68 146 68 226 0 108-43 211-119 287-76 76-179 119-287 119z m147-553c-3-3-6-5-10-7-4-1-8-2-12-2-4 0-8 1-12 2-4 2-7 4-10 7l-197 197v-112c0-9-3-17-9-23-6-5-14-9-22-9-8 0-16 4-22 9-6 6-9 14-9 23v187c0 8 3 16 9 22 6 6 14 9 22 9h188c8 0 16-3 22-9 6-6 9-14 9-22 0-8-3-16-9-22-6-6-14-9-22-9h-113l197-197c3-3 5-6 7-10 2-4 2-8 2-12 0-4 0-8-2-12-2-4-4-7-7-10z" horiz-adv-x="1000" />

<glyph glyph-name="arrowcircleupleft-outlined" unicode="&#xe85e;" d="M500 756c-80 0-159-24-226-68-66-45-119-108-149-182-31-75-39-156-23-235 15-79 54-151 111-208 57-57 129-96 208-111 79-16 160-8 235 23 74 30 137 83 182 149 44 67 68 146 68 226 0 108-43 211-119 287-76 76-179 119-287 119z m0-750c-68 0-134 20-191 58-56 38-101 92-127 155-26 62-32 131-19 198 13 67 46 128 94 176 48 48 109 81 176 94 67 13 136 7 199-19 62-26 116-70 154-127 38-57 58-123 58-191 0-91-37-178-101-243-64-64-152-101-243-101z m147 241c3-3 5-6 7-10 2-4 2-8 2-12 0-4 0-8-2-12-2-4-4-7-7-10-3-3-6-5-10-7-4-1-8-2-12-2-4 0-8 1-12 2-4 2-7 4-10 7l-197 197v-112c0-9-3-17-9-23-6-5-14-9-22-9-8 0-16 4-22 9-6 6-9 14-9 23v187c0 8 3 16 9 22 6 6 14 9 22 9h188c8 0 16-3 22-9 6-6 9-14 9-22 0-8-3-16-9-22-6-6-14-9-22-9h-113l197-197z" horiz-adv-x="1000" />

<glyph glyph-name="arrowcircleup-outlined" unicode="&#xe85f;" d="M500 756c-80 0-159-24-226-68-66-45-119-108-149-182-31-75-39-156-23-235 15-79 54-151 111-208 57-57 129-96 208-111 79-16 160-8 235 23 74 30 137 83 182 149 44 67 68 146 68 226 0 108-43 211-119 287-76 76-179 119-287 119z m0-750c-68 0-134 20-191 58-56 38-101 92-127 155-26 62-32 131-19 198 13 67 46 128 94 176 48 48 109 81 176 94 67 13 136 7 199-19 62-26 116-70 154-127 38-57 58-123 58-191 0-91-37-178-101-243-64-64-152-101-243-101z m147 397c3-2 5-6 7-10 2-4 2-8 2-12 0-4 0-8-2-12-2-3-4-7-7-10-3-3-6-5-10-7-4-1-8-2-12-2-4 0-8 1-12 2-4 2-7 4-10 7l-72 72v-237c0-8-3-16-9-22-6-6-14-9-22-9-8 0-16 3-22 9-6 6-9 14-9 22v237l-72-72c-6-6-14-9-22-9-8 0-16 3-22 9-6 6-9 14-9 22 0 9 3 17 9 22l125 125c3 3 6 6 10 7 4 2 8 3 12 3 4 0 8-1 12-3 4-1 7-4 10-7l125-125z" horiz-adv-x="1000" />

<glyph glyph-name="arrowcircleupright-filled" unicode="&#xe860;" d="M500 756c-80 0-159-24-226-68-66-45-119-108-149-182-31-75-39-156-23-235 15-79 54-151 111-208 57-57 129-96 208-111 79-16 160-8 235 23 74 30 137 83 182 149 44 67 68 146 68 226 0 108-43 211-119 287-76 76-179 119-287 119z m156-468c0-9-3-17-9-23-6-5-14-9-22-9-8 0-16 4-22 9-6 6-9 14-9 23v112l-197-197c-3-3-6-5-10-7-4-1-8-2-12-2-4 0-8 1-12 2-4 2-7 4-10 7-3 3-5 6-7 10-1 4-2 8-2 12 0 4 1 8 2 12 2 4 4 7 7 10l197 197h-112c-9 0-17 3-23 9-5 6-9 14-9 22 0 8 4 16 9 22 6 6 14 9 23 9h187c8 0 16-3 22-9 6-6 9-14 9-22v-187z" horiz-adv-x="1000" />

<glyph glyph-name="arrowcircleupright-outlined" unicode="&#xe861;" d="M656 475v-187c0-9-3-17-9-23-6-5-14-9-22-9-8 0-16 4-22 9-6 6-9 14-9 23v112l-197-197c-3-3-6-5-10-7-4-1-8-2-12-2-4 0-8 1-12 2-4 2-7 4-10 7-3 3-5 6-7 10-1 4-2 8-2 12 0 4 1 8 2 12 2 4 4 7 7 10l197 197h-112c-9 0-17 3-23 9-5 6-9 14-9 22 0 8 4 16 9 22 6 6 14 9 23 9h187c8 0 16-3 22-9 6-6 9-14 9-22z m250-125c0-80-24-159-68-226-45-66-108-119-182-149-75-31-156-39-235-23-79 15-151 54-208 111-57 57-96 129-111 208-16 79-8 160 23 235 30 74 83 137 149 182 67 44 146 68 226 68 108 0 211-43 287-119 76-76 119-179 119-287z m-62 0c0 68-20 134-58 191-38 57-92 101-154 127-63 26-132 32-199 19-67-13-128-46-176-94-48-48-81-109-94-176-13-67-7-136 19-198 26-63 71-117 127-155 57-38 123-58 191-58 91 0 179 37 243 101 64 65 101 152 101 243z" horiz-adv-x="1000" />

<glyph glyph-name="arrowclockwise-filled" unicode="&#xe862;" d="M938 631v-187c0-8-4-16-10-22-5-6-13-9-22-9h-187c-6 0-12 1-18 5-5 3-9 8-11 14-2 6-3 12-2 18 1 6 4 12 9 16l66 66-41 38-1 1c-44 43-99 73-159 85-60 12-123 7-180-16-56-24-105-63-140-114-35-50-54-110-54-172-1-61 16-121 49-173 33-52 81-92 137-117 56-25 119-32 179-22 61 10 117 38 161 81 3 2 7 5 11 6 4 2 8 2 12 2 4 0 8-1 12-3 3-1 7-4 10-7 2-3 5-6 6-10 2-4 2-8 2-12 0-4-1-8-3-12-1-4-4-7-7-10-69-66-161-102-257-102h-5c-62 1-122 17-176 46-53 30-99 72-133 124-33 51-54 110-59 171-6 61 4 123 27 180 24 56 62 106 109 145 48 39 104 65 165 77 60 12 122 9 181-9 59-18 112-50 156-93l42-39 77 77c5 4 10 7 16 8 6 1 13 1 18-2 6-2 11-6 14-11 4-5 6-11 6-18z" horiz-adv-x="1000" />

<glyph glyph-name="arrowclockwise-outlined" unicode="&#xe863;" d="M938 631v-187c0-8-4-16-10-22-5-6-13-9-22-9h-187c-8 0-16 3-22 9-6 6-9 14-9 22 0 8 3 16 9 22 6 6 14 9 22 9h107l-104 95-1 1c-43 44-99 73-159 85-60 13-123 7-179-16-57-23-106-63-141-113-35-51-54-111-54-172-1-62 16-122 49-174 33-51 81-92 137-117 56-25 119-32 179-22 61 11 117 39 161 81 6 5 15 9 23 8 8 0 16-3 22-9 5-6 8-15 8-23 0-8-4-16-10-22-69-66-161-102-257-102h-5c-62 1-122 17-176 46-53 30-99 72-133 124-33 51-54 110-59 171-6 61 4 123 27 180 24 56 62 106 109 145 48 39 104 65 165 77 60 12 122 9 181-9 59-18 112-50 156-93l110-101v116c0 9 3 17 9 22 6 6 14 10 22 10 9 0 17-4 22-10 6-5 10-13 10-22z" horiz-adv-x="1000" />

<glyph glyph-name="arrowcounterclockwise-filled" unicode="&#xe864;" d="M875 350c0-99-39-193-108-263-69-71-163-111-262-112h-5c-96 0-188 36-257 102-3 3-6 7-7 10-2 4-3 8-3 12 0 4 0 8 2 12 1 4 4 8 6 11 3 3 7 5 10 7 4 1 8 2 12 2 4 0 8 0 12-2 4-1 8-3 11-6 44-42 100-70 161-81 60-10 123-3 179 22 56 25 104 66 137 117 33 52 50 112 49 174 0 61-19 121-54 172-35 50-84 90-140 113-57 23-120 29-180 16-60-12-115-41-159-85 0 0-1 0-1-1l-41-37 66-67c5-4 8-10 9-16 1-6 1-12-2-18-2-6-6-11-11-14-5-4-11-5-18-5h-187c-8 0-16 3-22 9-6 6-9 14-9 22v187c0 6 1 13 5 18 3 5 8 9 14 11 5 3 12 3 18 2 6-1 12-4 16-8l77-77 42 39c53 52 120 88 192 102 73 14 148 7 217-22 68-28 127-76 168-138 41-61 63-134 63-208z" horiz-adv-x="1000" />

<glyph glyph-name="arrowcounterclockwise-outlined" unicode="&#xe865;" d="M875 350c0-99-39-193-108-263-69-71-163-111-262-112h-5c-96 0-188 36-257 102-3 3-6 7-7 10-2 4-3 8-3 12 0 4 0 8 2 12 1 4 4 8 6 11 3 3 7 5 10 7 4 1 8 2 12 2 4 0 8 0 12-2 4-1 8-3 11-6 44-42 100-70 161-81 60-10 123-3 179 22 56 25 104 66 137 117 33 52 50 112 49 174 0 61-19 121-54 172-35 50-84 90-140 113-57 23-120 29-180 16-60-12-115-41-159-85 0 0-1 0-1-1l-104-95h107c9 0 17-3 22-9 6-6 10-14 10-22 0-8-4-16-10-22-5-6-13-9-22-9h-187c-8 0-16 3-22 9-6 6-9 14-9 22v187c0 9 3 17 9 22 6 6 14 10 22 10 8 0 16-4 22-10 6-5 9-13 9-22v-116l110 101c53 52 120 88 192 102 73 14 148 7 217-22 68-28 127-76 168-138 41-61 63-134 63-208z" horiz-adv-x="1000" />

<glyph glyph-name="arrowdown-filled" unicode="&#xe866;" d="M803 265l-281-281c-3-3-6-5-10-7-4-1-8-2-12-2-4 0-8 1-12 2-4 2-7 4-10 7l-281 281c-5 5-8 10-9 16-1 7 0 13 2 19 2 5 6 10 11 14 6 3 12 5 18 5h250v375c0 8 3 16 9 22 6 6 14 9 22 9 8 0 16-3 22-9 6-6 9-14 9-22v-375h250c6 0 13-2 18-5 5-4 9-9 11-14 3-6 3-12 2-19-1-6-4-11-9-16z" horiz-adv-x="1000" />

<glyph glyph-name="arrowdownleft-filled" unicode="&#xe867;" d="M772 578l-275-275 181-181c5-4 8-10 9-16 1-6 1-12-2-18-2-6-6-11-11-14-5-3-12-5-18-5h-406c-8 0-16 3-22 9-6 6-9 14-9 22v406c0 6 2 13 5 18 3 5 8 9 14 11 6 3 12 3 18 2 6-1 12-4 16-9l181-181 275 275c3 3 6 5 10 7 4 2 8 2 12 2 4 0 8 0 12-2 4-2 7-4 10-7 3-3 5-6 7-10 2-4 2-8 2-12 0-4 0-8-2-12-2-4-4-7-7-10z" horiz-adv-x="1000" />

<glyph glyph-name="arrowdownleft-outlined" unicode="&#xe868;" d="M772 578l-447-447h331c9 0 17-3 22-9 6-6 10-14 10-22 0-8-4-16-10-22-5-6-13-9-22-9h-406c-8 0-16 3-22 9-6 6-9 14-9 22v406c0 9 3 17 9 22 6 6 14 10 22 10 8 0 16-4 22-10 6-5 9-13 9-22v-331l447 447c3 3 6 5 10 7 4 2 8 2 12 2 4 0 8 0 12-2 4-2 7-4 10-7 3-3 5-6 7-10 2-4 2-8 2-12 0-4 0-8-2-12-2-4-4-7-7-10z" horiz-adv-x="1000" />

<glyph glyph-name="arrowdown-outlined" unicode="&#xe869;" d="M803 265l-281-281c-3-3-6-5-10-7-4-1-8-2-12-2-4 0-8 1-12 2-4 2-7 4-10 7l-281 281c-6 6-9 14-9 23 0 8 3 16 9 22 6 6 14 9 22 9 8 0 16-3 22-9l228-228v612c0 8 3 16 9 22 6 6 14 9 22 9 8 0 16-3 22-9 6-6 9-14 9-22v-612l228 228c6 6 14 9 22 9 9 0 17-3 22-9 6-6 10-14 10-22 0-9-4-17-10-23z" horiz-adv-x="1000" />

<glyph glyph-name="arrowdownright-filled" unicode="&#xe86a;" d="M781 506v-406c0-8-3-16-9-22-6-6-14-9-22-9h-406c-6 0-12 2-18 5-5 3-9 8-11 14-2 6-3 12-2 18 1 6 4 12 9 16l181 181-275 275c-6 6-9 14-9 22 0 8 3 16 9 22 6 6 14 9 22 9 8 0 16-3 22-9l275-275 181 181c4 5 10 8 16 9 6 1 12 1 18-2 6-2 11-6 14-11 3-5 5-12 5-18z" horiz-adv-x="1000" />

<glyph glyph-name="arrowdownright-outlined" unicode="&#xe86b;" d="M781 506v-406c0-8-3-16-9-22-6-6-14-9-22-9h-406c-8 0-16 3-22 9-6 6-9 14-9 22 0 8 3 16 9 22 6 6 14 9 22 9h331l-447 447c-6 6-9 14-9 22 0 8 3 16 9 22 6 6 14 9 22 9 8 0 16-3 22-9l447-447v331c0 9 3 17 9 22 6 6 14 10 22 10 8 0 16-4 22-10 6-5 9-13 9-22z" horiz-adv-x="1000" />

<glyph glyph-name="arrowelbowdownleft-filled" unicode="&#xe86c;" d="M781 725v-562c0-9-3-17-9-23-6-5-14-9-22-9h-344v-156c0-6-2-12-5-17-3-6-8-10-14-12-6-2-12-3-18-2-6 1-12 4-16 9l-188 187c-2 3-5 7-6 11-2 3-3 7-3 12 0 4 1 8 3 12 1 3 4 7 6 10l188 187c4 5 10 8 16 9 6 1 12 0 18-2 6-2 11-6 14-12 3-5 5-11 5-17v-156h313v531c0 8 3 16 9 22 6 6 14 9 22 9 8 0 16-3 22-9 6-6 9-14 9-22z" horiz-adv-x="1000" />

<glyph glyph-name="arrowelbowdownleft-outlined" unicode="&#xe86d;" d="M781 725v-562c0-9-3-17-9-23-6-5-14-9-22-9h-487l134-134c3-3 5-6 7-10 2-4 2-8 2-12 0-4 0-8-2-12-2-4-4-7-7-10-3-3-6-5-10-7-4-2-8-2-12-2-4 0-8 0-12 2-4 2-7 4-10 7l-188 187c-2 3-5 7-6 11-2 3-3 7-3 12 0 4 1 8 3 12 1 3 4 7 6 10l188 187c6 6 14 9 22 9 8 0 16-3 22-9 6-6 9-14 9-22 0-8-3-16-9-22l-134-134h456v531c0 8 3 16 9 22 6 6 14 9 22 9 8 0 16-3 22-9 6-6 9-14 9-22z" horiz-adv-x="1000" />

<glyph glyph-name="arrowelbowdownright-filled" unicode="&#xe86e;" d="M835 140l-188-187c-4-5-10-8-16-9-6-1-12 0-18 2-6 2-11 6-14 12-3 5-5 11-5 17v156h-344c-8 0-16 4-22 9-6 6-9 14-9 23v562c0 8 3 16 9 22 6 6 14 9 22 9 8 0 16-3 22-9 6-6 9-14 9-22v-531h313v156c0 6 2 12 5 17 3 6 8 10 14 12 6 2 12 3 18 2 6-1 12-4 16-9l188-187c3-3 5-7 6-10 2-4 3-8 3-12 0-5-1-9-3-12-1-4-3-8-6-11z" horiz-adv-x="1000" />

<glyph glyph-name="arrowelbowdownright-outlined" unicode="&#xe86f;" d="M835 140l-188-187c-6-6-14-9-22-9-8 0-16 3-22 9-6 6-9 14-9 22 0 8 3 16 9 22l134 134h-487c-8 0-16 4-22 9-6 6-9 14-9 23v562c0 8 3 16 9 22 6 6 14 9 22 9 8 0 16-3 22-9 6-6 9-14 9-22v-531h456l-134 134c-6 6-9 14-9 22 0 8 3 16 9 22 6 6 14 9 22 9 8 0 16-3 22-9l188-187c3-3 5-7 6-10 2-4 3-8 3-12 0-5-1-9-3-12-1-4-3-8-6-11z" horiz-adv-x="1000" />

<glyph glyph-name="arrowelbowleftdown-filled" unicode="&#xe870;" d="M906 600c0-8-3-16-9-22-6-6-14-9-22-9h-531v-313h156c6 0 12-2 17-5 6-3 10-8 12-14 2-6 3-12 2-18-1-6-4-12-9-16l-187-188c-3-2-7-5-10-6-4-2-8-3-12-3-5 0-9 1-12 3-4 1-8 4-11 6l-187 188c-4 4-7 10-9 16-1 6 0 12 2 18 3 6 7 11 12 14 5 3 11 5 17 5h156v344c0 8 4 16 9 22 6 6 14 9 23 9h562c8 0 16-3 22-9 6-6 9-14 9-22z" horiz-adv-x="1000" />

<glyph glyph-name="arrowelbowleftdown-outlined" unicode="&#xe871;" d="M906 600c0-8-3-16-9-22-6-6-14-9-22-9h-531v-456l134 134c6 6 14 9 22 9 8 0 16-3 22-9 6-6 9-14 9-22 0-8-3-16-9-22l-187-188c-3-2-7-5-10-6-4-2-8-3-12-3-5 0-9 1-12 3-4 1-8 4-11 6l-187 188c-6 6-9 14-9 22 0 8 3 16 9 22 6 6 14 9 22 9 8 0 16-3 22-9l134-134v487c0 8 4 16 9 22 6 6 14 9 23 9h562c8 0 16-3 22-9 6-6 9-14 9-22z" horiz-adv-x="1000" />

<glyph glyph-name="arrowelbowleft-filled" unicode="&#xe872;" d="M928 453l-375-375c-2-3-6-5-10-7-4-1-8-2-12-2-4 0-8 1-12 2-3 2-7 4-10 7l-275 275-118-119c-4-4-10-7-16-8-6-2-12-1-18 1-6 3-11 7-14 12-4 5-5 11-5 17v282c0 8 3 16 9 22 6 6 14 9 22 9h281c6 0 12-2 17-5 6-4 10-9 12-14 2-6 3-12 2-19-1-6-4-11-9-16l-118-118 252-253 353 353c3 3 7 5 10 7 4 2 8 2 12 2 4 0 8 0 12-2 4-2 8-4 10-7 3-3 6-6 7-10 2-4 3-8 3-12 0-4-1-8-3-12-1-4-4-7-7-10z" horiz-adv-x="1000" />

<glyph glyph-name="arrowelbowleft-outlined" unicode="&#xe873;" d="M928 453l-375-375c-2-3-6-5-10-7-4-1-8-2-12-2-4 0-8 1-12 2-3 2-7 4-10 7l-384 384v-206c0-8-3-16-9-22-6-6-14-9-22-9-8 0-16 3-22 9-6 6-9 14-9 22v282c0 8 3 16 9 22 6 6 14 9 22 9h281c8 0 16-3 22-9 6-6 9-14 9-22 0-9-3-17-9-23-6-5-14-9-22-9h-206l362-362 353 353c3 3 7 5 10 7 4 2 8 2 12 2 4 0 8 0 12-2 4-2 8-4 10-7 3-3 6-6 7-10 2-4 3-8 3-12 0-4-1-8-3-12-1-4-4-7-7-10z" horiz-adv-x="1000" />

<glyph glyph-name="arrowelbowleftup-filled" unicode="&#xe874;" d="M906 100c0-8-3-16-9-22-6-6-14-9-22-9h-562c-9 0-17 3-23 9-5 6-9 14-9 22v344h-156c-6 0-12 2-17 5-5 3-9 8-12 14-2 6-3 12-2 18 2 6 5 12 9 16l187 188c3 3 7 5 11 6 3 2 7 3 12 3 4 0 8-1 12-3 3-1 7-3 10-6l187-188c5-4 8-10 9-16 1-6 0-12-2-18-2-6-6-11-12-14-5-3-11-5-17-5h-156v-313h531c8 0 16-3 22-9 6-6 9-14 9-22z" horiz-adv-x="1000" />

<glyph glyph-name="arrowelbowleftup-outlined" unicode="&#xe875;" d="M906 100c0-8-3-16-9-22-6-6-14-9-22-9h-562c-9 0-17 3-23 9-5 6-9 14-9 22v487l-134-134c-6-6-14-9-22-9-8 0-16 3-22 9-6 6-9 14-9 22 0 8 3 16 9 22l187 188c3 3 7 5 11 6 3 2 7 3 12 3 4 0 8-1 12-3 3-1 7-3 10-6l187-188c6-6 9-14 9-22 0-8-3-16-9-22-6-6-14-9-22-9-8 0-16 3-22 9l-134 134v-456h531c8 0 16-3 22-9 6-6 9-14 9-22z" horiz-adv-x="1000" />

<glyph glyph-name="arrowelbowrightdown-filled" unicode="&#xe876;" d="M897 203l-187-188c-3-2-7-5-10-6-4-2-8-3-12-3-5 0-9 1-12 3-4 1-8 4-11 6l-187 188c-4 4-7 10-9 16-1 6 0 12 2 18 3 6 7 11 12 14 5 3 11 5 17 5h156v313h-531c-8 0-16 3-22 9-6 6-9 14-9 22 0 8 3 16 9 22 6 6 14 9 22 9h563c8 0 16-3 22-9 6-6 9-14 9-22v-344h156c6 0 12-2 17-5 6-3 10-8 12-14 2-6 3-12 2-18-1-6-4-12-9-16z" horiz-adv-x="1000" />

<glyph glyph-name="arrowelbowrightdown-outlined" unicode="&#xe877;" d="M897 203l-187-188c-3-2-7-5-10-6-4-2-8-3-12-3-5 0-9 1-12 3-4 1-8 4-11 6l-187 188c-6 6-9 14-9 22 0 8 3 16 9 22 6 6 14 9 22 9 8 0 16-3 22-9l134-134v456h-531c-8 0-16 3-22 9-6 6-9 14-9 22 0 8 3 16 9 22 6 6 14 9 22 9h563c8 0 16-3 22-9 6-6 9-14 9-22v-487l134 134c6 6 14 9 22 9 8 0 16-3 22-9 6-6 9-14 9-22 0-8-3-16-9-22z" horiz-adv-x="1000" />

<glyph glyph-name="arrowelbowright-filled" unicode="&#xe878;" d="M938 538v-282c0-6-2-12-6-17-3-5-8-9-14-12-5-2-12-3-18-1-6 1-11 4-16 8l-118 119-275-275c-3-3-6-5-10-7-4-1-8-2-12-2-4 0-8 1-12 2-4 2-7 4-10 7l-375 375c-6 6-9 14-9 22 0 8 3 16 9 22 6 6 14 9 22 9 8 0 16-3 22-9l353-353 252 253-118 118c-4 5-7 10-9 16-1 7 0 13 2 19 3 5 7 10 12 14 5 3 11 5 17 5h281c9 0 17-3 22-9 6-6 10-14 10-22z" horiz-adv-x="1000" />

<glyph glyph-name="arrowelbowright-outlined" unicode="&#xe879;" d="M938 538v-282c0-8-4-16-10-22-5-6-13-9-22-9-8 0-16 3-22 9-6 6-9 14-9 22v206l-384-384c-3-3-6-5-10-7-4-1-8-2-12-2-4 0-8 1-12 2-4 2-7 4-10 7l-375 375c-6 6-9 14-9 22 0 8 3 16 9 22 6 6 14 9 22 9 8 0 16-3 22-9l353-353 362 362h-206c-8 0-16 4-22 9-6 6-9 14-9 23 0 8 3 16 9 22 6 6 14 9 22 9h281c9 0 17-3 22-9 6-6 10-14 10-22z" horiz-adv-x="1000" />

<glyph glyph-name="arrowelbowrightup-filled" unicode="&#xe87a;" d="M904 463c-2-6-6-10-12-14-5-3-11-5-17-5h-156v-344c0-8-3-16-9-22-6-6-14-9-22-9h-563c-8 0-16 3-22 9-6 6-9 14-9 22 0 8 3 16 9 22 6 6 14 9 22 9h531v313h-156c-6 0-12 2-17 5-5 3-9 8-12 14-2 6-3 12-2 18 2 6 5 12 9 16l187 188c3 3 7 5 11 6 3 2 7 3 12 3 4 0 8-1 12-3 3-1 7-3 10-6l187-188c5-4 8-10 9-16 1-6 0-12-2-18z" horiz-adv-x="1000" />

<glyph glyph-name="arrowelbowrightup-outlined" unicode="&#xe87b;" d="M897 453c-3-3-6-5-10-7-4-1-8-2-12-2-4 0-8 1-12 2-4 2-7 4-10 7l-134 134v-487c0-8-3-16-9-22-6-6-14-9-22-9h-563c-8 0-16 3-22 9-6 6-9 14-9 22 0 8 3 16 9 22 6 6 14 9 22 9h531v456l-134-134c-6-6-14-9-22-9-8 0-16 3-22 9-6 6-9 14-9 22 0 8 3 16 9 22l187 188c3 3 7 5 11 6 3 2 7 3 12 3 4 0 8-1 12-3 3-1 7-3 10-6l187-188c3-3 5-6 7-10 2-4 2-8 2-12 0-4 0-8-2-12-2-4-4-7-7-10z" horiz-adv-x="1000" />

<glyph glyph-name="arrowelbowupleft-filled" unicode="&#xe87c;" d="M781 538v-563c0-8-3-16-9-22-6-6-14-9-22-9-8 0-16 3-22 9-6 6-9 14-9 22v531h-313v-156c0-6-2-12-5-17-3-5-8-9-14-12-6-2-12-3-18-2-6 2-12 5-16 9l-188 187c-2 3-5 7-6 11-2 3-3 7-3 12 0 4 1 8 3 12 1 3 4 7 6 10l188 187c4 5 10 8 16 9 6 1 12 0 18-2 6-2 11-6 14-12 3-5 5-11 5-17v-156h344c8 0 16-3 22-9 6-6 9-14 9-22z" horiz-adv-x="1000" />

<glyph glyph-name="arrowelbowupleft-outlined" unicode="&#xe87d;" d="M781 538v-563c0-8-3-16-9-22-6-6-14-9-22-9-8 0-16 3-22 9-6 6-9 14-9 22v531h-456l134-134c6-6 9-14 9-22 0-8-3-16-9-22-6-6-14-9-22-9-8 0-16 3-22 9l-188 187 0 1c0 0-1 1-2 2l-1 1c0 0 0 1 0 1l-1 2c-1 0-1 0-1 1 0 0 0 1-1 1 0 1 0 1 0 2-1 0-1 1-1 1l0 1-1 2c0 0 0 1 0 1 0 1 0 2 0 2-1 1 0 1-1 1 0 3 0 5 0 7 0 0 0 0 1 1 0 0 0 1 0 2 0 0 0 1 0 1l1 2 0 1c0 1 0 1 1 2 0 0 0 0 0 1 0 0 1 1 1 1 0 1 0 1 1 1l1 2c0 0 0 1 0 1l1 1c1 1 2 2 2 2l0 1 188 187c6 6 14 9 22 9 8 0 16-3 22-9 6-6 9-14 9-22 0-8-3-16-9-22l-134-134h487c8 0 16-3 22-9 6-6 9-14 9-22z" horiz-adv-x="1000" />

<glyph glyph-name="arrowelbowupright-filled" unicode="&#xe87e;" d="M835 515l-188-187c-4-4-10-7-16-9-6-1-12 0-18 2-6 3-11 7-14 12-3 5-5 11-5 17v156h-313v-531c0-8-3-16-9-22-6-6-14-9-22-9-8 0-16 3-22 9-6 6-9 14-9 22v563c0 8 3 16 9 22 6 6 14 9 22 9h344v156c0 6 2 12 5 17 3 6 8 10 14 12 6 2 12 3 18 2 6-1 12-4 16-9l188-187c3-3 5-7 6-10 2-4 3-8 3-12 0-5-1-9-3-12-1-4-3-8-6-11z" horiz-adv-x="1000" />

<glyph glyph-name="arrowelbowupright-outlined" unicode="&#xe87f;" d="M835 515l-188-187c-6-6-14-9-22-9-8 0-16 3-22 9-6 6-9 14-9 22 0 8 3 16 9 22l134 134h-456v-531c0-8-3-16-9-22-6-6-14-9-22-9-8 0-16 3-22 9-6 6-9 14-9 22v563c0 8 3 16 9 22 6 6 14 9 22 9h487l-134 134c-6 6-9 14-9 22 0 8 3 16 9 22 6 6 14 9 22 9 8 0 16-3 22-9l188-187c3-3 5-7 6-10 2-4 3-8 3-12 0-5-1-9-3-12-1-4-3-8-6-11z" horiz-adv-x="1000" />

<glyph glyph-name="arrowfatdown-filled" unicode="&#xe880;" d="M897 297l-375-375c-3-3-6-6-10-7-4-2-8-3-12-3-4 0-8 1-12 3-4 1-7 4-10 7l-375 375c-4 4-7 10-9 16-1 6 0 12 2 18 3 5 7 10 12 14 5 3 11 5 17 5h156v313c0 16 7 32 19 44 11 11 27 18 44 18h312c17 0 33-7 44-18 12-12 19-28 19-44v-313h156c6 0 12-2 17-5 6-4 10-9 12-14 2-6 3-12 2-18-1-6-4-12-9-16z" horiz-adv-x="1000" />

<glyph glyph-name="arrowfatdown-outlined" unicode="&#xe881;" d="M904 331c-2 5-6 10-12 14-5 3-11 5-17 5h-156v313c0 16-7 32-19 44-11 11-27 18-44 18h-312c-17 0-33-7-44-18-12-12-19-28-19-44v-313h-156c-6 0-12-2-17-5-5-4-9-9-12-14-2-6-3-12-2-18 2-6 5-12 9-16l375-375c3-3 6-6 10-7 4-2 8-3 12-3 4 0 8 1 12 3 4 1 7 4 10 7l375 375c5 4 7 10 9 16 1 6 0 12-2 18z m-404-343l-300 300h113c8 0 16 3 22 9 6 6 9 14 9 22v344h312v-344c0-8 4-16 9-22 6-6 14-9 23-9h112l-300-300z" horiz-adv-x="1000" />

<glyph glyph-name="arrowfatleft-filled" unicode="&#xe882;" d="M875 506v-312c0-17-7-33-18-44-12-12-28-19-44-19h-313v-156c0-6-2-12-5-17-4-6-9-10-14-12-6-2-12-3-18-2-6 1-12 4-16 9l-375 375c-3 3-6 6-7 10-2 4-2 8-2 12 0 4 0 8 2 12 1 4 4 7 7 10l375 375c4 5 10 8 16 9 6 1 12 0 18-2 5-2 10-6 14-12 3-5 5-11 5-17v-156h313c16 0 32-7 44-18 11-12 18-28 18-45z" horiz-adv-x="1000" />

<glyph glyph-name="arrowfatleft-outlined" unicode="&#xe883;" d="M813 569h-313v156c0 6-2 12-5 17-4 6-9 10-14 12-6 2-12 3-18 2-6-1-12-4-16-9l-375-375c-3-3-6-6-7-10-2-4-2-8-2-12 0-4 0-8 2-12 1-4 4-7 7-10l375-375c4-5 10-8 16-9 6-1 12 0 18 2 5 2 10 6 14 12 3 5 5 11 5 17v156h313c16 0 32 7 44 19 11 11 18 27 18 44v312c0 17-7 33-18 45-12 11-28 18-44 18z m0-375h-344c-8 0-16-3-22-9-6-6-9-14-9-22v-113l-300 300 300 300v-112c0-9 3-17 9-23 6-5 14-9 22-9h344v-312z" horiz-adv-x="1000" />

<glyph glyph-name="arrowfatlinedown-filled" unicode="&#xe884;" d="M281 694c0 8 4 16 9 22 6 6 14 9 23 9h375c8 0 16-3 22-9 6-6 9-14 9-22 0-8-3-16-9-22-6-6-14-9-22-9h-375c-9 0-17 3-23 9-5 6-9 14-9 22z m623-363c-2 5-6 10-12 14-5 3-11 5-17 5h-156v219c0 8-3 16-9 22-6 6-14 9-22 9h-375c-9 0-17-3-23-9-5-6-9-14-9-22v-219h-156c-6 0-12-2-17-5-5-4-9-9-12-14-2-6-3-12-2-18 2-6 5-12 9-16l375-375c3-3 6-6 10-7 4-2 8-3 12-3 4 0 8 1 12 3 4 1 7 4 10 7l375 375c5 4 7 10 9 16 1 6 0 12-2 18z" horiz-adv-x="1000" />

<glyph glyph-name="arrowfatlinedown-outlined" unicode="&#xe885;" d="M904 331c-2 5-6 10-12 14-5 3-11 5-17 5h-156v219c0 8-3 16-9 22-6 6-14 9-22 9h-375c-9 0-17-3-23-9-5-6-9-14-9-22v-219h-156c-6 0-12-2-17-5-5-4-9-9-12-14-2-6-3-12-2-18 2-6 5-12 9-16l375-375c3-3 6-6 10-7 4-2 8-3 12-3 4 0 8 1 12 3 4 1 7 4 10 7l375 375c5 4 7 10 9 16 1 6 0 12-2 18z m-404-343l-300 300h113c8 0 16 3 22 9 6 6 9 14 9 22v219h312v-219c0-8 4-16 9-22 6-6 14-9 23-9h112l-300-300z m-219 706c0 8 4 16 9 22 6 6 14 9 23 9h375c8 0 16-3 22-9 6-6 9-14 9-22 0-8-3-16-9-22-6-6-14-9-22-9h-375c-9 0-17 3-23 9-5 6-9 14-9 22z" horiz-adv-x="1000" />

<glyph glyph-name="arrowfatlineleft-filled" unicode="&#xe886;" d="M750 538v-375c0-9-3-17-9-23-6-5-14-9-22-9h-219v-156c0-6-2-12-5-17-4-6-9-10-14-12-6-2-12-3-18-2-6 1-12 4-16 9l-375 375c-3 3-6 6-7 10-2 4-2 8-2 12 0 4 0 8 2 12 1 4 4 7 7 10l375 375c4 5 10 8 16 9 6 1 12 0 18-2 5-2 10-6 14-12 3-5 5-11 5-17v-156h219c8 0 16-3 22-9 6-6 9-14 9-22z m94 31c-8 0-16-3-22-9-6-6-9-14-9-22v-375c0-9 3-17 9-23 6-5 14-9 22-9 8 0 16 4 22 9 6 6 9 14 9 23v375c0 8-3 16-9 22-6 6-14 9-22 9z" horiz-adv-x="1000" />

<glyph glyph-name="arrowfatlineleft-outlined" unicode="&#xe887;" d="M719 569h-219v156c0 6-2 12-5 17-4 6-9 10-14 12-6 2-12 3-18 2-6-1-12-4-16-9l-375-375c-3-3-6-6-7-10-2-4-2-8-2-12 0-4 0-8 2-12 1-4 4-7 7-10l375-375c4-5 10-8 16-9 6-1 12 0 18 2 5 2 10 6 14 12 3 5 5 11 5 17v156h219c8 0 16 4 22 9 6 6 9 14 9 23v375c0 8-3 16-9 22-6 6-14 9-22 9z m-31-375h-219c-8 0-16-3-22-9-6-6-9-14-9-22v-113l-300 300 300 300v-112c0-9 3-17 9-23 6-5 14-9 22-9h219v-312z m187 344v-375c0-9-3-17-9-23-6-5-14-9-22-9-8 0-16 4-22 9-6 6-9 14-9 23v375c0 8 3 16 9 22 6 6 14 9 22 9 8 0 16-3 22-9 6-6 9-14 9-22z" horiz-adv-x="1000" />

<glyph glyph-name="arrowfatlineright-filled" unicode="&#xe888;" d="M188 538v-375c0-9-4-17-10-23-5-5-13-9-22-9-8 0-16 4-22 9-6 6-9 14-9 23v375c0 8 3 16 9 22 6 6 14 9 22 9 9 0 17-3 22-9 6-6 10-14 10-22z m740-166l-375 375c-4 5-10 8-16 9-6 1-12 0-18-2-5-2-10-6-14-12-3-5-5-11-5-17v-156h-219c-8 0-16-3-22-9-6-6-9-14-9-22v-375c0-9 3-17 9-23 6-5 14-9 22-9h219v-156c0-6 2-12 5-17 4-6 9-10 14-12 6-2 12-3 18-2 6 1 12 4 16 9l375 375c3 3 6 6 7 10 2 4 3 8 3 12 0 4-1 8-3 12-1 4-4 7-7 10z" horiz-adv-x="1000" />

<glyph glyph-name="arrowfatlineright-outlined" unicode="&#xe889;" d="M928 372l-375 375c-4 5-10 8-16 9-6 1-12 0-18-2-5-2-10-6-14-12-3-5-5-11-5-17v-156h-219c-8 0-16-3-22-9-6-6-9-14-9-22v-375c0-9 3-17 9-23 6-5 14-9 22-9h219v-156c0-6 2-12 5-17 4-6 9-10 14-12 6-2 12-3 18-2 6 1 12 4 16 9l375 375c3 3 6 6 7 10 2 4 3 8 3 12 0 4-1 8-3 12-1 4-4 7-7 10z m-365-322v113c0 8-4 16-10 22-5 6-13 9-22 9h-218v312h218c9 0 17 4 22 9 6 6 10 14 10 23v112l299-300-299-300z m-375 488v-375c0-9-4-17-10-23-5-5-13-9-22-9-8 0-16 4-22 9-6 6-9 14-9 23v375c0 8 3 16 9 22 6 6 14 9 22 9 9 0 17-3 22-9 6-6 10-14 10-22z" horiz-adv-x="1000" />

<glyph glyph-name="arrowfatlinesdown-filled" unicode="&#xe88a;" d="M281 694c0 8 4 16 9 22 6 6 14 9 23 9h375c8 0 16-3 22-9 6-6 9-14 9-22 0-8-3-16-9-22-6-6-14-9-22-9h-375c-9 0-17 3-23 9-5 6-9 14-9 22z m623-363c-2 5-6 10-12 14-5 3-11 5-17 5h-156v94c0 8-3 16-9 22-6 6-14 9-22 9h-375c-9 0-17-3-23-9-5-6-9-14-9-22v-94h-156c-6 0-12-2-17-5-5-4-9-9-12-14-2-6-3-12-2-18 2-6 5-12 9-16l375-375c3-3 6-6 10-7 4-2 8-3 12-3 4 0 8 1 12 3 4 1 7 4 10 7l375 375c5 4 7 10 9 16 1 6 0 12-2 18z m-591 207h375c8 0 16 3 22 9 6 6 9 14 9 22 0 8-3 16-9 22-6 6-14 9-22 9h-375c-9 0-17-3-23-9-5-6-9-14-9-22 0-8 4-16 9-22 6-6 14-9 23-9z" horiz-adv-x="1000" />

<glyph glyph-name="arrowfatlinesdown-outlined" unicode="&#xe88b;" d="M904 331c-2 5-6 10-12 14-5 3-11 5-17 5h-156v94c0 8-3 16-9 22-6 6-14 9-22 9h-375c-9 0-17-3-23-9-5-6-9-14-9-22v-94h-156c-6 0-12-2-17-5-5-4-9-9-12-14-2-6-3-12-2-18 2-6 5-12 9-16l375-375c3-3 6-6 10-7 4-2 8-3 12-3 4 0 8 1 12 3 4 1 7 4 10 7l375 375c5 4 7 10 9 16 1 6 0 12-2 18z m-404-343l-300 300h113c8 0 16 3 22 9 6 6 9 14 9 22v94h312v-94c0-8 4-16 9-22 6-6 14-9 23-9h112l-300-300z m-219 706c0 8 4 16 9 22 6 6 14 9 23 9h375c8 0 16-3 22-9 6-6 9-14 9-22 0-8-3-16-9-22-6-6-14-9-22-9h-375c-9 0-17 3-23 9-5 6-9 14-9 22z m0-125c0 8 4 16 9 22 6 6 14 9 23 9h375c8 0 16-3 22-9 6-6 9-14 9-22 0-8-3-16-9-22-6-6-14-9-22-9h-375c-9 0-17 3-23 9-5 6-9 14-9 22z" horiz-adv-x="1000" />

<glyph glyph-name="arrowfatlinesleft-filled" unicode="&#xe88c;" d="M625 538v-375c0-9-3-17-9-23-6-5-14-9-22-9h-94v-156c0-6-2-12-5-17-4-6-9-10-14-12-6-2-12-3-18-2-6 1-12 4-16 9l-375 375c-3 3-6 6-7 10-2 4-2 8-2 12 0 4 0 8 2 12 1 4 4 7 7 10l375 375c4 5 10 8 16 9 6 1 12 0 18-2 5-2 10-6 14-12 3-5 5-11 5-17v-156h94c8 0 16-3 22-9 6-6 9-14 9-22z m94 31c-8 0-16-3-22-9-6-6-9-14-9-22v-375c0-9 3-17 9-23 6-5 14-9 22-9 8 0 16 4 22 9 6 6 9 14 9 23v375c0 8-3 16-9 22-6 6-14 9-22 9z m125 0c-8 0-16-3-22-9-6-6-9-14-9-22v-375c0-9 3-17 9-23 6-5 14-9 22-9 8 0 16 4 22 9 6 6 9 14 9 23v375c0 8-3 16-9 22-6 6-14 9-22 9z" horiz-adv-x="1000" />

<glyph glyph-name="arrowfatlinesleft-outlined" unicode="&#xe88d;" d="M594 569h-94v156c0 6-2 12-5 17-4 6-9 10-14 12-6 2-12 3-18 2-6-1-12-4-16-9l-375-375c-3-3-6-6-7-10-2-4-2-8-2-12 0-4 0-8 2-12 1-4 4-7 7-10l375-375c4-5 10-8 16-9 6-1 12 0 18 2 5 2 10 6 14 12 3 5 5 11 5 17v156h94c8 0 16 4 22 9 6 6 9 14 9 23v375c0 8-3 16-9 22-6 6-14 9-22 9z m-31-375h-94c-8 0-16-3-22-9-6-6-9-14-9-22v-113l-300 300 300 300v-112c0-9 3-17 9-23 6-5 14-9 22-9h94v-312z m312 344v-375c0-9-3-17-9-23-6-5-14-9-22-9-8 0-16 4-22 9-6 6-9 14-9 23v375c0 8 3 16 9 22 6 6 14 9 22 9 8 0 16-3 22-9 6-6 9-14 9-22z m-125 0v-375c0-9-3-17-9-23-6-5-14-9-22-9-8 0-16 4-22 9-6 6-9 14-9 23v375c0 8 3 16 9 22 6 6 14 9 22 9 8 0 16-3 22-9 6-6 9-14 9-22z" horiz-adv-x="1000" />

<glyph glyph-name="arrowfatlinesright-filled" unicode="&#xe88e;" d="M188 538v-375c0-9-4-17-10-23-5-5-13-9-22-9-8 0-16 4-22 9-6 6-9 14-9 23v375c0 8 3 16 9 22 6 6 14 9 22 9 9 0 17-3 22-9 6-6 10-14 10-22z m93 31c-8 0-16-3-22-9-6-6-9-14-9-22v-375c0-9 3-17 9-23 6-5 14-9 22-9 9 0 17 4 22 9 6 6 10 14 10 23v375c0 8-4 16-10 22-5 6-13 9-22 9z m647-197l-375 375c-4 5-10 8-16 9-6 1-12 0-18-2-5-2-10-6-14-12-3-5-5-11-5-17v-156h-94c-8 0-16-3-22-9-6-6-9-14-9-22v-375c0-9 3-17 9-23 6-5 14-9 22-9h94v-156c0-6 2-12 5-17 4-6 9-10 14-12 6-2 12-3 18-2 6 1 12 4 16 9l375 375c3 3 6 6 7 10 2 4 3 8 3 12 0 4-1 8-3 12-1 4-4 7-7 10z" horiz-adv-x="1000" />

<glyph glyph-name="arrowfatlinesright-outlined" unicode="&#xe88f;" d="M928 372l-375 375c-4 5-10 8-16 9-6 1-12 0-18-2-5-2-10-6-14-12-3-5-5-11-5-17v-156h-94c-8 0-16-3-22-9-6-6-9-14-9-22v-375c0-9 3-17 9-23 6-5 14-9 22-9h94v-156c0-6 2-12 5-17 4-6 9-10 14-12 6-2 12-3 18-2 6 1 12 4 16 9l375 375c3 3 6 6 7 10 2 4 3 8 3 12 0 4-1 8-3 12-1 4-4 7-7 10z m-365-322v113c0 8-4 16-10 22-5 6-13 9-22 9h-93v312h93c9 0 17 4 22 9 6 6 10 14 10 23v112l299-300-299-300z m-375 488v-375c0-9-4-17-10-23-5-5-13-9-22-9-8 0-16 4-22 9-6 6-9 14-9 23v375c0 8 3 16 9 22 6 6 14 9 22 9 9 0 17-3 22-9 6-6 10-14 10-22z m125 0v-375c0-9-4-17-10-23-5-5-13-9-22-9-8 0-16 4-22 9-6 6-9 14-9 23v375c0 8 3 16 9 22 6 6 14 9 22 9 9 0 17-3 22-9 6-6 10-14 10-22z" horiz-adv-x="1000" />

<glyph glyph-name="arrowfatlinesup-filled" unicode="&#xe890;" d="M719 6c0-8-3-16-9-22-6-6-14-9-22-9h-375c-9 0-17 3-23 9-5 6-9 14-9 22 0 9 4 17 9 22 6 6 14 10 23 10h375c8 0 16-4 22-10 6-5 9-13 9-22z m178 397l-375 375c-3 3-6 6-10 7-4 2-8 3-12 3-4 0-8-1-12-3-4-1-7-4-10-7l-375-375c-4-4-7-10-9-16-1-6 0-12 2-18 3-5 7-10 12-14 5-3 11-5 17-5h156v-94c0-8 4-16 9-22 6-6 14-9 23-9h375c8 0 16 3 22 9 6 6 9 14 9 22v94h156c6 0 12 2 17 5 6 4 10 9 12 14 2 6 3 12 2 18-1 6-4 12-9 16z m-209-240h-375c-9 0-17-4-23-10-5-5-9-13-9-22 0-8 4-16 9-22 6-6 14-9 23-9h375c8 0 16 3 22 9 6 6 9 14 9 22 0 9-3 17-9 22-6 6-14 10-22 10z" horiz-adv-x="1000" />

<glyph glyph-name="arrowfatlinesup-outlined" unicode="&#xe891;" d="M897 403l-375 375c-3 3-6 6-10 7-4 2-8 3-12 3-4 0-8-1-12-3-4-1-7-4-10-7l-375-375c-4-4-7-10-9-16-1-6 0-12 2-18 3-5 7-10 12-14 5-3 11-5 17-5h156v-94c0-8 4-16 9-22 6-6 14-9 23-9h375c8 0 16 3 22 9 6 6 9 14 9 22v94h156c6 0 12 2 17 5 6 4 10 9 12 14 2 6 3 12 2 18-1 6-4 12-9 16z m-209 10c-9 0-17-4-23-10-5-5-9-13-9-22v-93h-312v93c0 9-3 17-9 22-6 6-14 10-22 10h-113l300 299 300-299h-112z m31-407c0-8-3-16-9-22-6-6-14-9-22-9h-375c-9 0-17 3-23 9-5 6-9 14-9 22 0 9 4 17 9 22 6 6 14 10 23 10h375c8 0 16-4 22-10 6-5 9-13 9-22z m0 125c0-8-3-16-9-22-6-6-14-9-22-9h-375c-9 0-17 3-23 9-5 6-9 14-9 22 0 9 4 17 9 22 6 6 14 10 23 10h375c8 0 16-4 22-10 6-5 9-13 9-22z" horiz-adv-x="1000" />

<glyph glyph-name="arrowfatlineup-filled" unicode="&#xe892;" d="M719 6c0-8-3-16-9-22-6-6-14-9-22-9h-375c-9 0-17 3-23 9-5 6-9 14-9 22 0 9 4 17 9 22 6 6 14 10 23 10h375c8 0 16-4 22-10 6-5 9-13 9-22z m178 397l-375 375c-3 3-6 6-10 7-4 2-8 3-12 3-4 0-8-1-12-3-4-1-7-4-10-7l-375-375c-4-4-7-10-9-16-1-6 0-12 2-18 3-5 7-10 12-14 5-3 11-5 17-5h156v-219c0-8 4-16 9-22 6-6 14-9 23-9h375c8 0 16 3 22 9 6 6 9 14 9 22v219h156c6 0 12 2 17 5 6 4 10 9 12 14 2 6 3 12 2 18-1 6-4 12-9 16z" horiz-adv-x="1000" />

<glyph glyph-name="arrowfatlineup-outlined" unicode="&#xe893;" d="M897 403l-375 375c-3 3-6 6-10 7-4 2-8 3-12 3-4 0-8-1-12-3-4-1-7-4-10-7l-375-375c-4-4-7-10-9-16-1-6 0-12 2-18 3-5 7-10 12-14 5-3 11-5 17-5h156v-219c0-8 4-16 9-22 6-6 14-9 23-9h375c8 0 16 3 22 9 6 6 9 14 9 22v219h156c6 0 12 2 17 5 6 4 10 9 12 14 2 6 3 12 2 18-1 6-4 12-9 16z m-209 10c-9 0-17-4-23-10-5-5-9-13-9-22v-218h-312v218c0 9-3 17-9 22-6 6-14 10-22 10h-113l300 299 300-299h-112z m31-407c0-8-3-16-9-22-6-6-14-9-22-9h-375c-9 0-17 3-23 9-5 6-9 14-9 22 0 9 4 17 9 22 6 6 14 10 23 10h375c8 0 16-4 22-10 6-5 9-13 9-22z" horiz-adv-x="1000" />

<glyph glyph-name="arrowfatright-filled" unicode="&#xe894;" d="M928 328l-375-375c-4-5-10-8-16-9-6-1-12 0-18 2-5 2-10 6-14 12-3 5-5 11-5 17v156h-312c-17 0-33 7-45 19-11 11-18 27-18 44v312c0 17 7 33 18 45 12 11 28 18 45 18h312v156c0 6 2 12 5 17 4 6 9 10 14 12 6 2 12 3 18 2 6-1 12-4 16-9l375-375c3-3 6-6 7-10 2-4 3-8 3-12 0-4-1-8-3-12-1-4-4-7-7-10z" horiz-adv-x="1000" />

<glyph glyph-name="arrowfatright-outlined" unicode="&#xe895;" d="M928 372l-375 375c-4 5-10 8-16 9-6 1-12 0-18-2-5-2-10-6-14-12-3-5-5-11-5-17v-156h-312c-17 0-33-7-45-18-11-12-18-28-18-45v-312c0-17 7-33 18-44 12-12 28-19 45-19h312v-156c0-6 2-12 5-17 4-6 9-10 14-12 6-2 12-3 18-2 6 1 12 4 16 9l375 375c3 3 6 6 7 10 2 4 3 8 3 12 0 4-1 8-3 12-1 4-4 7-7 10z m-365-322v113c0 8-4 16-10 22-5 6-13 9-22 9h-343v312h343c9 0 17 4 22 9 6 6 10 14 10 23v112l299-300-299-300z" horiz-adv-x="1000" />

<glyph glyph-name="arrowfatup-filled" unicode="&#xe896;" d="M904 369c-2-5-6-10-12-14-5-3-11-5-17-5h-156v-312c0-17-7-33-19-45-11-11-27-18-44-18h-312c-17 0-33 7-44 18-12 12-19 28-19 45v312h-156c-6 0-12 2-17 5-5 4-9 9-12 14-2 6-3 12-2 18 2 6 5 12 9 16l375 375c3 3 6 6 10 7 4 2 8 3 12 3 4 0 8-1 12-3 4-1 7-4 10-7l375-375c5-4 7-10 9-16 1-6 0-12-2-18z" horiz-adv-x="1000" />

<glyph glyph-name="arrowfatup-outlined" unicode="&#xe897;" d="M897 403l-375 375c-3 3-6 6-10 7-4 2-8 3-12 3-4 0-8-1-12-3-4-1-7-4-10-7l-375-375c-4-4-7-10-9-16-1-6 0-12 2-18 3-5 7-10 12-14 5-3 11-5 17-5h156v-312c0-17 7-33 19-45 11-11 27-18 44-18h312c17 0 33 7 44 18 12 12 19 28 19 45v312h156c6 0 12 2 17 5 6 4 10 9 12 14 2 6 3 12 2 18-1 6-4 12-9 16z m-209 10c-9 0-17-4-23-10-5-5-9-13-9-22v-343h-312v343c0 9-3 17-9 22-6 6-14 10-22 10h-113l300 299 300-299h-112z" horiz-adv-x="1000" />

<glyph glyph-name="arrowleft-filled" unicode="&#xe898;" d="M875 350c0-8-3-16-9-22-6-6-14-9-22-9h-375v-250c0-6-2-12-5-18-4-5-9-9-14-11-6-2-12-3-19-2-6 1-11 4-16 9l-281 281c-3 3-5 6-7 10-1 4-2 8-2 12 0 4 1 8 2 12 2 4 4 7 7 10l281 281c5 5 10 8 16 9 7 1 13 1 19-2 5-2 10-6 14-11 3-5 5-12 5-18v-250h375c8 0 16-3 22-9 6-6 9-14 9-22z" horiz-adv-x="1000" />

<glyph glyph-name="arrowleft-outlined" unicode="&#xe899;" d="M875 350c0-8-3-16-9-22-6-6-14-9-22-9h-612l228-228c3-3 5-6 6-10 2-4 3-8 3-12 0-4-1-8-3-12-1-4-3-7-6-10-3-3-7-6-10-7-4-2-8-2-12-2-5 0-9 0-12 2-4 1-8 4-11 7l-281 281c-3 3-5 6-7 10-1 4-2 8-2 12 0 4 1 8 2 12 2 4 4 7 7 10l281 281c6 6 14 10 23 10 8 0 16-4 22-10 6-5 9-13 9-22 0-8-3-16-9-22l-228-228h612c8 0 16-3 22-9 6-6 9-14 9-22z" horiz-adv-x="1000" />

<glyph glyph-name="arrowlinedown-filled" unicode="&#xe89a;" d="M197 390c-5 5-8 10-9 16-1 7 0 13 2 19 2 5 6 10 11 14 6 3 12 5 18 5h250v281c0 8 3 16 9 22 6 6 14 9 22 9 8 0 16-3 22-9 6-6 9-14 9-22v-281h250c6 0 13-2 18-5 5-4 9-9 11-14 3-6 3-12 2-19-1-6-4-11-9-16l-281-281c-3-3-6-5-10-7-4-1-8-2-12-2-4 0-8 1-12 2-4 2-7 4-10 7l-281 281z m647-352h-688c-8 0-16-4-22-10-6-5-9-13-9-22 0-8 3-16 9-22 6-6 14-9 22-9h688c8 0 16 3 22 9 6 6 9 14 9 22 0 9-3 17-9 22-6 6-14 10-22 10z" horiz-adv-x="1000" />

<glyph glyph-name="arrowlinedownleft-filled" unicode="&#xe89b;" d="M710 528c3-2 5-6 6-10 2-4 3-8 3-12 0-4-1-8-3-12-1-3-3-7-6-10l-228-228 165-165c5-4 8-10 9-16 1-6 0-12-2-18-2-6-6-11-12-14-5-4-11-5-17-5h-375c-8 0-16 3-22 9-6 6-9 14-9 22v375c0 6 2 12 5 17 3 5 8 9 14 12 6 2 12 3 18 1 6-1 12-4 16-8l166-166 227 228c3 3 7 6 11 7 3 2 7 3 12 3 4 0 8-1 12-3 3-1 7-4 10-7z m134 197h-688c-8 0-16-3-22-9-6-6-9-14-9-22 0-8 3-16 9-22 6-6 14-9 22-9h688c8 0 16 3 22 9 6 6 9 14 9 22 0 8-3 16-9 22-6 6-14 9-22 9z" horiz-adv-x="1000" />

<glyph glyph-name="arrowlinedownleft-outlined" unicode="&#xe89c;" d="M875 694c0-8-3-16-9-22-6-6-14-9-22-9h-688c-8 0-16 3-22 9-6 6-9 14-9 22 0 8 3 16 9 22 6 6 14 9 22 9h688c8 0 16-3 22-9 6-6 9-14 9-22z m-210-166l-384-384v300c0 8-3 16-9 22-6 6-14 9-22 9-8 0-16-3-22-9-6-6-9-14-9-22v-375c0-8 3-16 9-22 6-6 14-9 22-9h375c8 0 16 3 22 9 6 6 9 14 9 22 0 8-3 16-9 22-6 6-14 9-22 9h-300l385 384c3 3 5 7 6 10 2 4 3 8 3 12 0 4-1 8-3 12-1 4-3 8-6 10-3 3-7 6-10 7-4 2-8 3-12 3-5 0-9-1-12-3-4-1-8-4-11-7z" horiz-adv-x="1000" />

<glyph glyph-name="arrowlinedown-outlined" unicode="&#xe89d;" d="M197 390c-6 6-9 14-9 23 0 8 3 16 9 22 6 6 14 9 22 9 8 0 16-3 22-9l228-228v518c0 8 3 16 9 22 6 6 14 9 22 9 8 0 16-3 22-9 6-6 9-14 9-22v-518l228 228c3 3 7 5 10 6 4 2 8 3 12 3 4 0 8-1 12-3 4-1 8-3 10-6 3-3 6-7 7-10 2-4 3-8 3-12 0-5-1-9-3-12-1-4-4-8-7-11l-281-281c-3-3-6-5-10-7-4-1-8-2-12-2-4 0-8 1-12 2-4 2-7 4-10 7l-281 281z m647-352h-688c-8 0-16-4-22-10-6-5-9-13-9-22 0-8 3-16 9-22 6-6 14-9 22-9h688c8 0 16 3 22 9 6 6 9 14 9 22 0 9-3 17-9 22-6 6-14 10-22 10z" horiz-adv-x="1000" />

<glyph glyph-name="arrowlinedownright-filled" unicode="&#xe89e;" d="M875 694c0-8-3-16-9-22-6-6-14-9-22-9h-688c-8 0-16 3-22 9-6 6-9 14-9 22 0 8 3 16 9 22 6 6 14 9 22 9h688c8 0 16-3 22-9 6-6 9-14 9-22z m-113-221c-6 2-12 3-18 1-6-1-12-4-16-8l-165-166-228 228c-6 6-14 10-22 10-9 0-17-4-23-10-5-5-9-13-9-22 0-8 4-16 9-22l228-228-165-165c-4-4-7-10-9-16-1-6 0-12 2-18 3-6 7-11 12-14 5-4 11-5 17-5h375c8 0 16 3 22 9 6 6 9 14 9 22v375c0 6-2 12-5 17-3 5-8 9-14 12z" horiz-adv-x="1000" />

<glyph glyph-name="arrowlinedownright-outlined" unicode="&#xe89f;" d="M875 694c0-8-3-16-9-22-6-6-14-9-22-9h-688c-8 0-16 3-22 9-6 6-9 14-9 22 0 8 3 16 9 22 6 6 14 9 22 9h688c8 0 16-3 22-9 6-6 9-14 9-22z m-125-219c-8 0-16-3-22-9-6-6-9-14-9-22v-300l-384 384c-6 6-14 10-22 10-9 0-17-4-23-10-5-5-9-13-9-22 0-8 4-16 9-22l385-384h-300c-8 0-16-3-22-9-6-6-9-14-9-22 0-8 3-16 9-22 6-6 14-9 22-9h375c8 0 16 3 22 9 6 6 9 14 9 22v375c0 8-3 16-9 22-6 6-14 9-22 9z" horiz-adv-x="1000" />

<glyph glyph-name="arrowlineleft-filled" unicode="&#xe8a0;" d="M188 694v-688c0-8-4-16-10-22-5-6-13-9-22-9-8 0-16 3-22 9-6 6-9 14-9 22v688c0 8 3 16 9 22 6 6 14 9 22 9 9 0 17-3 22-9 6-6 10-14 10-22z m687-313h-281v250c0 6-2 13-5 18-4 5-9 9-14 11-6 3-12 3-19 2-6-1-11-4-16-9l-281-281c-3-3-5-6-7-10-1-4-2-8-2-12 0-4 1-8 2-12 2-4 4-7 7-10l281-281c5-5 10-8 16-9 7-1 13 0 19 2 5 2 10 6 14 11 3 6 5 12 5 18v250h281c8 0 16 3 22 9 6 6 9 14 9 22 0 8-3 16-9 22-6 6-14 9-22 9z" horiz-adv-x="1000" />

<glyph glyph-name="arrowlineleft-outlined" unicode="&#xe8a1;" d="M906 350c0-8-3-16-9-22-6-6-14-9-22-9h-518l228-228c3-3 5-6 6-10 2-4 3-8 3-12 0-4-1-8-3-12-1-4-3-7-6-10-3-3-7-6-10-7-4-2-8-2-12-2-5 0-9 0-12 2-4 1-8 4-11 7l-281 281c-3 3-5 6-7 10-1 4-2 8-2 12 0 4 1 8 2 12 2 4 4 7 7 10l281 281c3 3 7 6 11 7 3 2 7 3 12 3 4 0 8-1 12-3 3-1 7-4 10-7 3-2 5-6 6-10 2-4 3-8 3-12 0-4-1-8-3-12-1-3-3-7-6-10l-228-228h518c8 0 16-3 22-9 6-6 9-14 9-22z m-750 375c-8 0-16-3-22-9-6-6-9-14-9-22v-688c0-8 3-16 9-22 6-6 14-9 22-9 9 0 17 3 22 9 6 6 10 14 10 22v688c0 8-4 16-10 22-5 6-13 9-22 9z" horiz-adv-x="1000" />

<glyph glyph-name="arrowlineright-filled" unicode="&#xe8a2;" d="M875 694v-688c0-8-3-16-9-22-6-6-14-9-22-9-8 0-16 3-22 9-6 6-9 14-9 22v688c0 8 3 16 9 22 6 6 14 9 22 9 8 0 16-3 22-9 6-6 9-14 9-22z m-415-41c-5 5-10 8-16 9-6 1-13 1-18-2-6-2-11-6-14-11-4-5-6-12-6-18v-250h-281c-8 0-16-3-22-9-6-6-9-14-9-22 0-8 3-16 9-22 6-6 14-9 22-9h281v-250c0-6 2-12 6-18 3-5 8-9 14-11 5-2 12-3 18-2 6 1 11 4 16 9l281 281c3 3 5 6 7 10 1 4 2 8 2 12 0 4-1 8-2 12-2 4-4 7-7 10l-281 281z" horiz-adv-x="1000" />

<glyph glyph-name="arrowlineright-outlined" unicode="&#xe8a3;" d="M741 372c3-3 5-6 7-10 1-4 2-8 2-12 0-4-1-8-2-12-2-4-4-7-7-10l-281-281c-3-3-7-6-10-7-4-2-8-2-12-2-5 0-9 0-12 2-4 1-8 4-11 7-2 3-5 6-6 10-2 4-3 8-3 12 0 4 1 8 3 12 1 4 4 7 6 10l228 228h-518c-8 0-16 3-22 9-6 6-9 14-9 22 0 8 3 16 9 22 6 6 14 9 22 9h518l-228 228c-5 6-9 14-9 22 0 9 4 17 9 22 6 6 14 10 23 10 8 0 16-4 22-10l281-281z m103 353c-8 0-16-3-22-9-6-6-9-14-9-22v-688c0-8 3-16 9-22 6-6 14-9 22-9 8 0 16 3 22 9 6 6 9 14 9 22v688c0 8-3 16-9 22-6 6-14 9-22 9z" horiz-adv-x="1000" />

</font>
</defs>
</svg>
