<svg width="32" height="32" viewBox="0 0 32 32" fill="none" xmlns="http://www.w3.org/2000/svg">
<path d="M22.7588 26.3487C22.8833 26.4939 22.9637 26.6718 22.9902 26.8612C23.0168 27.0506 22.9884 27.2437 22.9086 27.4175C22.8287 27.5913 22.7006 27.7386 22.5396 27.8419C22.3786 27.9451 22.1913 28 22 28H10C9.80871 28 9.62144 27.9451 9.4604 27.8419C9.29937 27.7386 9.17132 27.5913 9.09145 27.4175C9.01158 27.2437 8.98324 27.0506 9.00979 26.8612C9.03634 26.6718 9.11667 26.4939 9.24125 26.3487L15.2413 19.3487C15.3351 19.2392 15.4516 19.1512 15.5827 19.0909C15.7138 19.0306 15.8563 18.9994 16.0006 18.9994C16.1449 18.9994 16.2875 19.0306 16.4186 19.0909C16.5496 19.1512 16.6661 19.2392 16.76 19.3487L22.7588 26.3487ZM26 5H6C5.20435 5 4.44129 5.31607 3.87868 5.87868C3.31607 6.44129 3 7.20435 3 8V22C3 22.7956 3.31607 23.5587 3.87868 24.1213C4.44129 24.6839 5.20435 25 6 25H7.5325C7.60388 24.9993 7.67427 24.9833 7.73895 24.9531C7.80364 24.9229 7.86111 24.8792 7.9075 24.825L13.7175 18.0475C13.9991 17.719 14.3485 17.4553 14.7416 17.2746C15.1347 17.0938 15.5623 17.0002 15.995 17.0002C16.4277 17.0002 16.8553 17.0938 17.2484 17.2746C17.6415 17.4553 17.9909 17.719 18.2725 18.0475L24.0875 24.825C24.1339 24.8792 24.1914 24.9229 24.256 24.9531C24.3207 24.9833 24.3911 24.9993 24.4625 25H26C26.7956 25 27.5587 24.6839 28.1213 24.1213C28.6839 23.5587 29 22.7956 29 22V8C29 7.20435 28.6839 6.44129 28.1213 5.87868C27.5587 5.31607 26.7956 5 26 5Z" fill="#4A4A4F"/>
</svg>
