<svg width="32" height="32" viewBox="0 0 32 32" fill="none" xmlns="http://www.w3.org/2000/svg">
<path d="M29.4475 16.105L20 11.3825V6C20 4.93913 19.5786 3.92172 18.8284 3.17157C18.0783 2.42143 17.0609 2 16 2C14.9391 2 13.9217 2.42143 13.1716 3.17157C12.4214 3.92172 12 4.93913 12 6V11.3825L2.5525 16.105C2.38636 16.1881 2.24667 16.3159 2.14908 16.474C2.05149 16.6321 1.99987 16.8142 2 17V21C2.00008 21.1479 2.03298 21.294 2.09632 21.4276C2.15965 21.5613 2.25186 21.6793 2.36628 21.773C2.4807 21.8667 2.61449 21.9339 2.75801 21.9697C2.90154 22.0055 3.05121 22.009 3.19625 21.98L12 20.22V22.5863L10.2925 24.2925C10.1997 24.3854 10.1261 24.4958 10.0759 24.6171C10.0257 24.7385 9.9999 24.8686 10 25V29C9.99972 29.1639 10.0397 29.3253 10.1165 29.4701C10.1933 29.615 10.3045 29.7387 10.4403 29.8304C10.5761 29.9221 10.7324 29.9791 10.8954 29.9962C11.0584 30.0134 11.2231 29.9902 11.375 29.9287L16 28.0775L20.625 29.9287C20.7769 29.9902 20.9416 30.0134 21.1046 29.9962C21.2676 29.9791 21.4239 29.9221 21.5597 29.8304C21.6955 29.7387 21.8067 29.615 21.8835 29.4701C21.9603 29.3253 22.0003 29.1639 22 29V25C22.0001 24.8686 21.9743 24.7385 21.9241 24.6171C21.8739 24.4958 21.8003 24.3854 21.7075 24.2925L20 22.5863V20.22L28.8037 21.98C28.9488 22.009 29.0985 22.0055 29.242 21.9697C29.3855 21.9339 29.5193 21.8667 29.6337 21.773C29.7481 21.6793 29.8403 21.5613 29.9037 21.4276C29.967 21.294 29.9999 21.1479 30 21V17C30.0001 16.8142 29.9485 16.6321 29.8509 16.474C29.7533 16.3159 29.6136 16.1881 29.4475 16.105ZM28 19.78L19.1963 18.02C19.0512 17.991 18.9015 17.9945 18.758 18.0303C18.6145 18.0661 18.4807 18.1333 18.3663 18.227C18.2519 18.3207 18.1597 18.4387 18.0963 18.5724C18.033 18.706 18.0001 18.8521 18 19V23C17.9999 23.1314 18.0257 23.2615 18.0759 23.3829C18.1261 23.5042 18.1997 23.6146 18.2925 23.7075L20 25.4137V27.5225L16.375 26.0713C16.1367 25.976 15.8708 25.976 15.6325 26.0713L12 27.5225V25.4137L13.7075 23.7075C13.8003 23.6146 13.8739 23.5042 13.9241 23.3829C13.9743 23.2615 14.0001 23.1314 14 23V19C13.9999 18.8521 13.967 18.706 13.9037 18.5724C13.8403 18.4387 13.7481 18.3207 13.6337 18.227C13.5193 18.1333 13.3855 18.0661 13.242 18.0303C13.0985 17.9945 12.9488 17.991 12.8038 18.02L4 19.78V17.6175L13.4475 12.895C13.6136 12.8119 13.7533 12.6841 13.8509 12.526C13.9485 12.3679 14.0001 12.1858 14 12V6C14 5.46957 14.2107 4.96086 14.5858 4.58579C14.9609 4.21071 15.4696 4 16 4C16.5304 4 17.0391 4.21071 17.4142 4.58579C17.7893 4.96086 18 5.46957 18 6V12C17.9999 12.1858 18.0515 12.3679 18.1491 12.526C18.2467 12.6841 18.3864 12.8119 18.5525 12.895L28 17.6175V19.78Z" fill="#4A4A4F"/>
</svg>
