<svg width="32" height="32" viewBox="0 0 32 32" fill="none" xmlns="http://www.w3.org/2000/svg">
<path d="M22.0002 27.0002C22.0002 27.2655 21.8949 27.5198 21.7073 27.7073C21.5198 27.8949 21.2654 28.0002 21.0002 28.0002H3.00023C2.73501 28.0002 2.48066 27.8949 2.29312 27.7073C2.10558 27.5198 2.00023 27.2655 2.00023 27.0002C2.00023 26.735 2.10558 26.4807 2.29312 26.2931C2.48066 26.1056 2.73501 26.0002 3.00023 26.0002H21.0002C21.2654 26.0002 21.5198 26.1056 21.7073 26.2931C21.8949 26.4807 22.0002 26.735 22.0002 27.0002ZM30.789 10.8452L28.459 7.85899L28.444 7.84024C27.6905 6.91215 26.6282 6.28623 25.4512 6.07691C24.2742 5.86759 23.0612 6.08885 22.034 6.70024L15.5877 10.5477L8.84523 8.06774C8.61989 7.98372 8.37182 7.98372 8.14648 8.06774L7.25023 8.40899L7.21023 8.42524C6.90361 8.55685 6.6348 8.76309 6.42827 9.02516C6.22174 9.28724 6.08407 9.59682 6.02778 9.92571C5.9715 10.2546 5.99839 10.5923 6.10602 10.9082C6.21364 11.224 6.39858 11.5079 6.64398 11.734L9.37523 14.3827L6.85398 15.9077L3.32148 14.7152C3.07147 14.631 2.7983 14.649 2.56148 14.7652L2.18648 14.949C1.88646 15.0831 1.6241 15.289 1.42259 15.5486C1.22108 15.8081 1.08664 16.1134 1.03116 16.4373C0.975672 16.7612 1.00085 17.0937 1.10446 17.4056C1.20808 17.7174 1.38694 17.999 1.62523 18.2252L6.12523 22.634L6.14023 22.649C7.062 23.5202 8.28187 24.0063 9.55023 24.0077C10.4406 24.0063 11.3146 23.7682 12.0827 23.3177L30.509 12.3177C30.6306 12.2451 30.7353 12.1474 30.8163 12.0312C30.8973 11.915 30.9527 11.7829 30.9789 11.6437C31.005 11.5045 31.0012 11.3613 30.9678 11.2237C30.9345 11.086 30.8722 10.957 30.7852 10.8452H30.789Z" fill="#4A4A4F"/>
</svg>
