<svg width="32" height="32" viewBox="0 0 32 32" fill="none" xmlns="http://www.w3.org/2000/svg">
<path d="M26.9402 24.6575C27.0052 24.8363 27.0179 25.0299 26.9767 25.2157C26.9355 25.4015 26.8422 25.5716 26.7077 25.7062L23.7077 28.7062C23.6148 28.7993 23.5045 28.8731 23.3832 28.9235C23.2618 28.9739 23.1316 28.9999 23.0002 29C22.9673 29.0018 22.9343 29.0018 22.9014 29C22.7542 28.9855 22.612 28.9385 22.4851 28.8624C22.3582 28.7863 22.2498 28.683 22.1677 28.56L16.6589 20.295L14.0002 22.9487V26C14 26.2648 13.8948 26.5188 13.7077 26.7062C13.7077 26.7062 11.9577 28.4637 11.7227 28.6912C11.625 28.7935 11.5065 28.8736 11.3752 28.9262C11.1304 29.0259 10.8562 29.0247 10.6124 28.9228C10.3685 28.8209 10.1749 28.6266 10.0739 28.3825L10.0664 28.3637L8.22891 23.7687L3.62516 21.9275C3.47158 21.866 3.33564 21.7675 3.22952 21.6406C3.12339 21.5137 3.0504 21.3625 3.01708 21.2004C2.98376 21.0384 2.99115 20.8707 3.03859 20.7122C3.08603 20.5537 3.17204 20.4095 3.28891 20.2925L5.28891 18.2925C5.38229 18.1992 5.49322 18.1253 5.61529 18.0751C5.73736 18.0249 5.86817 17.9994 6.00016 18H9.05016L11.7089 15.3412L3.44516 9.83121C3.3219 9.74917 3.21841 9.64077 3.14214 9.51386C3.06588 9.38694 3.01875 9.24468 3.00416 9.09733C2.98957 8.94999 3.00788 8.80124 3.05777 8.66184C3.10766 8.52243 3.18789 8.39584 3.29266 8.29121L6.29266 5.29121C6.42723 5.1567 6.59739 5.06337 6.78316 5.02219C6.96893 4.981 7.16259 4.99368 7.34141 5.05871L18.0839 8.96496L22.0252 5.02371C22.6816 4.3673 23.5719 3.99854 24.5002 3.99854C24.9598 3.99854 25.415 4.08907 25.8396 4.26497C26.2643 4.44087 26.6501 4.69869 26.9752 5.02371C27.3002 5.34874 27.558 5.73459 27.7339 6.15925C27.9098 6.58391 28.0003 7.03906 28.0003 7.49871C28.0003 7.95836 27.9098 8.41351 27.7339 8.83817C27.558 9.26284 27.3002 9.64869 26.9752 9.97371L23.0339 13.915L26.9402 24.6575Z" fill="#4A4A4F"/>
</svg>
