<svg width="32" height="32" viewBox="0 0 32 32" fill="none" xmlns="http://www.w3.org/2000/svg">
<path d="M23.1663 14.2765L26.8088 10.849L26.83 10.8277C27.5802 10.0775 28.0017 9.05998 28.0017 7.99899C28.0017 6.938 27.5802 5.92047 26.83 5.17024C26.0798 4.42001 25.0622 3.99854 24.0013 3.99854C22.9403 3.99854 21.9227 4.42001 21.1725 5.17024C21.1725 5.17774 21.1588 5.18399 21.1513 5.19149L17.7238 8.83399L7.34876 5.05899C7.16994 4.99395 6.97628 4.98128 6.79052 5.02247C6.60475 5.06365 6.43459 5.15698 6.30001 5.29149L3.30001 8.29149C3.19547 8.39611 3.11544 8.52262 3.06568 8.6619C3.01593 8.80118 2.99769 8.94976 3.01227 9.09694C3.02686 9.24412 3.07391 9.38623 3.15004 9.51303C3.22616 9.63984 3.32947 9.74817 3.45251 9.83024L11.4388 15.154L9.58626 17.0002H7.00001C6.73515 17.0004 6.48115 17.1056 6.29376 17.2927L3.29376 20.2927C3.17676 20.4095 3.09051 20.5533 3.04272 20.7115C2.99494 20.8697 2.9871 21.0373 3.01991 21.1993C3.05273 21.3612 3.12517 21.5126 3.23076 21.6397C3.33636 21.7668 3.47181 21.8658 3.62501 21.9277L8.22751 23.769L10.065 28.3627L10.0725 28.3827C10.1361 28.5366 10.2371 28.6722 10.3663 28.7771C10.4955 28.8821 10.6489 28.9531 10.8125 28.9838C10.9762 29.0145 11.1449 29.0038 11.3034 28.9528C11.4618 28.9017 11.605 28.8119 11.72 28.6915L14.7038 25.7065C14.7971 25.614 14.8713 25.504 14.9222 25.3829C14.973 25.2617 14.9995 25.1317 15 25.0002V22.414L16.845 20.569L22.1688 28.5552C22.2508 28.6783 22.3592 28.7816 22.486 28.8577C22.6128 28.9338 22.7549 28.9809 22.9021 28.9955C23.0492 29.0101 23.1978 28.9918 23.3371 28.9421C23.4764 28.8923 23.6029 28.8123 23.7075 28.7077L26.7075 25.7077C26.842 25.5732 26.9354 25.403 26.9765 25.2172C27.0177 25.0315 27.005 24.8378 26.94 24.659L23.1663 14.2765ZM23.1575 26.4302L17.8338 18.4452C17.7521 18.3213 17.644 18.217 17.517 18.14C17.3901 18.0631 17.2477 18.0153 17.1 18.0002C17.0663 18.0002 17.0338 18.0002 17.0013 18.0002C16.8698 18.0003 16.7397 18.0263 16.6183 18.0767C16.4969 18.1271 16.3866 18.2009 16.2938 18.294L13.2938 21.294C13.1061 21.4812 13.0005 21.7352 13 22.0002V24.5865L11.3663 26.2202L9.92876 22.6252C9.87846 22.5004 9.8035 22.3871 9.70834 22.2919C9.61319 22.1968 9.49982 22.1218 9.37501 22.0715L5.78251 20.634L7.41501 19.0002H10C10.1314 19.0003 10.2615 18.9746 10.3829 18.9244C10.5043 18.8742 10.6146 18.8006 10.7075 18.7077L13.7075 15.7077C13.8123 15.6031 13.8925 15.4765 13.9424 15.3371C13.9923 15.1977 14.0106 15.049 13.996 14.9016C13.9814 14.7543 13.9343 14.612 13.858 14.4851C13.7818 14.3582 13.6783 14.2498 13.555 14.1677L5.57001 8.84274L7.25751 7.15649L17.66 10.939C17.8433 11.0063 18.0423 11.0186 18.2324 10.9741C18.4226 10.9297 18.5955 10.8306 18.73 10.689L22.5975 6.57524C22.9745 6.2093 23.4803 6.00638 24.0056 6.01034C24.531 6.01429 25.0337 6.2248 25.4051 6.59638C25.7765 6.96795 25.9868 7.47075 25.9905 7.99611C25.9943 8.52146 25.7911 9.02719 25.425 9.40399L21.3163 13.2702C21.1747 13.4047 21.0756 13.5777 21.0311 13.7678C20.9867 13.958 20.9989 14.157 21.0663 14.3402L24.8488 24.7427L23.1575 26.4302Z" fill="#4A4A4F"/>
</svg>
