<svg width="32" height="32" viewBox="0 0 32 32" fill="none" xmlns="http://www.w3.org/2000/svg">
<path d="M22.0002 27.0002C22.0002 27.2655 21.8949 27.5198 21.7073 27.7073C21.5198 27.8949 21.2654 28.0002 21.0002 28.0002H3.00023C2.73501 28.0002 2.48066 27.8949 2.29312 27.7073C2.10558 27.5198 2.00023 27.2655 2.00023 27.0002C2.00023 26.735 2.10558 26.4807 2.29312 26.2931C2.48066 26.1056 2.73501 26.0002 3.00023 26.0002H21.0002C21.2654 26.0002 21.5198 26.1056 21.7073 26.2931C21.8949 26.4807 22.0002 26.735 22.0002 27.0002ZM30.9827 11.644C30.9566 11.7832 30.9011 11.9152 30.8201 12.0314C30.7391 12.1475 30.6343 12.2451 30.5127 12.3177L12.0865 23.3177C11.3184 23.7682 10.4444 24.0063 9.55398 24.0077C8.28562 24.0063 7.06575 23.5202 6.14398 22.649L6.12898 22.634L1.62523 18.2252C1.38694 17.999 1.20808 17.7174 1.10446 17.4056C1.00085 17.0937 0.975672 16.7612 1.03116 16.4373C1.08664 16.1134 1.22108 15.8081 1.42259 15.5486C1.6241 15.289 1.88646 15.0831 2.18648 14.949L2.56148 14.7652C2.7983 14.649 3.07147 14.631 3.32148 14.7152L6.85398 15.9077L9.37523 14.3827L6.64648 11.734C6.40108 11.5079 6.21614 11.224 6.10852 10.9082C6.00089 10.5923 5.974 10.2546 6.03028 9.92571C6.08657 9.59682 6.22424 9.28724 6.43077 9.02516C6.6373 8.76309 6.90611 8.55685 7.21273 8.42524L7.25273 8.40899L8.14648 8.07024C8.37182 7.98622 8.61989 7.98622 8.84523 8.07024L15.5877 10.5477L22.034 6.70024C23.0612 6.08885 24.2742 5.86759 25.4512 6.07691C26.6282 6.28623 27.6905 6.91215 28.444 7.84024L28.459 7.85899L30.789 10.8452C30.876 10.9571 30.9383 11.0861 30.9717 11.2238C31.0051 11.3615 31.0089 11.5047 30.9827 11.644ZM28.5152 11.1815L26.8902 9.09774C26.4379 8.54445 25.8022 8.17178 25.0984 8.04745C24.3947 7.92313 23.6697 8.05541 23.0552 8.42024L16.2052 12.5102C16.0769 12.5863 15.9334 12.6329 15.7848 12.6468C15.6363 12.6606 15.4866 12.6413 15.3465 12.5902L8.50023 10.0727L8.00023 10.264L8.02648 10.289L11.6965 13.8502C11.8061 13.9567 11.8898 14.0869 11.9413 14.2308C11.9927 14.3748 12.0105 14.5285 11.9932 14.6804C11.9759 14.8322 11.9241 14.9781 11.8417 15.1068C11.7593 15.2355 11.6484 15.3436 11.5177 15.4227L7.49148 17.859C7.36693 17.9342 7.22746 17.9814 7.08281 17.9971C6.93816 18.0129 6.79181 17.9969 6.65398 17.9502L3.07023 16.7415L3.04648 16.754L3.00023 16.7752C3.00625 16.7795 3.01171 16.7846 3.01648 16.7902L7.51648 21.1977C7.9861 21.6391 8.58609 21.9163 9.22654 21.988C9.86699 22.0596 10.5134 21.9219 11.069 21.5952L28.5152 11.1815Z" fill="#4A4A4F"/>
</svg>
