<svg width="32" height="32" viewBox="0 0 32 32" fill="none" xmlns="http://www.w3.org/2000/svg">
<path d="M28.0001 27C28.0001 27.2652 27.8948 27.5196 27.7073 27.7071C27.5197 27.8946 27.2654 28 27.0001 28H9.00014C8.73493 28 8.48057 27.8946 8.29304 27.7071C8.1055 27.5196 8.00014 27.2652 8.00014 27C8.00014 26.7348 8.1055 26.4804 8.29304 26.2929C8.48057 26.1054 8.73493 26 9.00014 26H27.0001C27.2654 26 27.5197 26.1054 27.7073 26.2929C27.8948 26.4804 28.0001 26.7348 28.0001 27ZM31.0001 17V20C31.0001 20.2652 30.8948 20.5196 30.7073 20.7071C30.5197 20.8946 30.2654 21 30.0001 21H7.63389C6.55736 21.0049 5.50835 20.6601 4.64471 20.0174C3.78108 19.3747 3.14954 18.4689 2.84514 17.4363L1.08639 11.575C0.99679 11.2765 0.978188 10.9612 1.03207 10.6542C1.08595 10.3473 1.21083 10.0571 1.39673 9.80699C1.58264 9.55685 1.82443 9.35362 2.10282 9.21351C2.3812 9.0734 2.68848 9.00028 3.00014 9H4.00014C4.26501 9.00012 4.519 9.10532 4.70639 9.2925L7.41514 12H10.2264L9.10139 8.6325C9.00113 8.33175 8.97381 8.01147 9.02167 7.69807C9.06952 7.38468 9.1912 7.08715 9.37665 6.83003C9.56211 6.57291 9.80603 6.36356 10.0883 6.21924C10.3706 6.07492 10.6831 5.99978 11.0001 6H12.0001C12.1315 5.9999 12.2616 6.02568 12.383 6.07586C12.5044 6.12605 12.6147 6.19967 12.7076 6.2925L18.4151 12H26.0001C27.3262 12 28.598 12.5268 29.5357 13.4645C30.4734 14.4021 31.0001 15.6739 31.0001 17ZM29.0001 17C29.0001 16.2044 28.6841 15.4413 28.1215 14.8787C27.5589 14.3161 26.7958 14 26.0001 14H18.0001C17.7353 13.9999 17.4813 13.8947 17.2939 13.7075L11.5864 8H11.0001L12.5614 12.6838C12.6115 12.834 12.6252 12.994 12.6013 13.1505C12.5775 13.3071 12.5168 13.4557 12.4243 13.5842C12.3318 13.7127 12.2101 13.8175 12.0692 13.8897C11.9283 13.962 11.7722 13.9998 11.6139 14H7.00014C6.86878 14.0001 6.73869 13.9743 6.61729 13.9241C6.4959 13.8739 6.38558 13.8003 6.29264 13.7075L3.58639 11H3.00014L4.75889 16.8625C4.94175 17.4822 5.32099 18.0257 5.83952 18.4113C6.35804 18.7968 6.98777 19.0034 7.63389 19H29.0001V17Z" fill="#4A4A4F"/>
</svg>
