<svg width="32" height="32" viewBox="0 0 32 32" fill="none" xmlns="http://www.w3.org/2000/svg">
<path d="M31 27.0002C31 27.2654 30.8946 27.5198 30.7071 27.7073C30.5196 27.8949 30.2652 28.0002 30 28.0002H12C11.7348 28.0002 11.4804 27.8949 11.2929 27.7073C11.1054 27.5198 11 27.2654 11 27.0002C11 26.735 11.1054 26.4806 11.2929 26.2931C11.4804 26.1056 11.7348 26.0002 12 26.0002H30C30.2652 26.0002 30.5196 26.1056 30.7071 26.2931C30.8946 26.4806 31 26.735 31 27.0002ZM28 24.0002C28.2652 24.0002 28.5196 23.8949 28.7071 23.7073C28.8946 23.5198 29 23.2654 29 23.0002V18.5402C28.9974 17.4483 28.6386 16.387 27.978 15.5176C27.3175 14.6481 26.3913 14.0179 25.34 13.7227L17.735 11.5977L14.9225 4.89397C14.8674 4.7624 14.7848 4.64413 14.6802 4.54711C14.5757 4.45009 14.4516 4.37657 14.3162 4.33147L13.6325 4.10397C13.3319 4.00378 13.0119 3.97642 12.6987 4.02415C12.3855 4.07188 12.0881 4.19333 11.831 4.3785C11.574 4.56367 11.3646 4.80727 11.2201 5.08922C11.0756 5.37117 11.0002 5.68341 11 6.00022V9.67397L7.26625 8.61022L5.94 4.93897C5.88859 4.79687 5.80564 4.66828 5.69739 4.56284C5.58914 4.4574 5.4584 4.37787 5.315 4.33022L4.63125 4.10272C4.33067 4.00274 4.01064 3.97559 3.69751 4.0235C3.38438 4.07141 3.08711 4.19301 2.83017 4.3783C2.57324 4.56358 2.36399 4.80725 2.21966 5.08923C2.07533 5.37121 2.00004 5.68345 2 6.00022V12.9652C2.0024 14.0556 2.36012 15.1156 3.01898 15.9844C3.67784 16.8533 4.60193 17.4837 5.65125 17.7802L27.73 23.9627C27.8179 23.9875 27.9087 24.0001 28 24.0002Z" fill="#4A4A4F"/>
</svg>
