<svg width="32" height="32" viewBox="0 0 32 32" fill="none" xmlns="http://www.w3.org/2000/svg">
<path d="M28.0001 27C28.0001 27.2652 27.8948 27.5196 27.7073 27.7071C27.5197 27.8946 27.2654 28 27.0001 28H9.00014C8.73493 28 8.48057 27.8946 8.29304 27.7071C8.1055 27.5196 8.00014 27.2652 8.00014 27C8.00014 26.7348 8.1055 26.4804 8.29304 26.2929C8.48057 26.1054 8.73493 26 9.00014 26H27.0001C27.2654 26 27.5197 26.1054 27.7073 26.2929C27.8948 26.4804 28.0001 26.7348 28.0001 27ZM26.0001 12H18.4151L12.7076 6.2925C12.6147 6.19967 12.5044 6.12605 12.383 6.07586C12.2616 6.02568 12.1315 5.9999 12.0001 6H11.0001C10.6833 6.00017 10.3711 6.07561 10.0891 6.2201C9.80719 6.36458 9.56359 6.57398 9.37842 6.83105C9.19325 7.08811 9.0718 7.38549 9.02407 7.69869C8.97634 8.01189 9.0037 8.33195 9.10389 8.6325L10.2289 12H7.41514L4.70764 9.2925C4.6147 9.19967 4.50439 9.12605 4.38299 9.07586C4.2616 9.02568 4.1315 8.9999 4.00014 9H3.00014C2.68848 9.00028 2.3812 9.0734 2.10282 9.21351C1.82443 9.35362 1.58264 9.55685 1.39673 9.80699C1.21083 10.0571 1.08595 10.3473 1.03207 10.6542C0.978188 10.9612 0.99679 11.2765 1.08639 11.575L2.84514 17.4363C3.14954 18.4689 3.78108 19.3747 4.64471 20.0174C5.50835 20.6601 6.55736 21.0049 7.63389 21H30.0001C30.2654 21 30.5197 20.8946 30.7073 20.7071C30.8948 20.5196 31.0001 20.2652 31.0001 20V17C31.0001 15.6739 30.4734 14.4021 29.5357 13.4645C28.598 12.5268 27.3262 12 26.0001 12Z" fill="#4A4A4F"/>
</svg>
