<svg width="32" height="32" viewBox="0 0 32 32" fill="none" xmlns="http://www.w3.org/2000/svg">
<path d="M16.76 19.3487C16.6661 19.2392 16.5496 19.1512 16.4186 19.0909C16.2875 19.0306 16.1449 18.9994 16.0006 18.9994C15.8563 18.9994 15.7138 19.0306 15.5827 19.0909C15.4516 19.1512 15.3351 19.2392 15.2413 19.3487L9.24125 26.3487C9.11667 26.4939 9.03634 26.6718 9.00979 26.8612C8.98324 27.0506 9.01158 27.2437 9.09145 27.4175C9.17132 27.5913 9.29937 27.7386 9.4604 27.8419C9.62144 27.9451 9.80871 28 10 28H22C22.1913 28 22.3786 27.9451 22.5396 27.8419C22.7006 27.7386 22.8287 27.5913 22.9086 27.4175C22.9884 27.2437 23.0168 27.0506 22.9902 26.8612C22.9637 26.6718 22.8833 26.4939 22.7588 26.3487L16.76 19.3487ZM12.1737 26L16 21.5362L19.8263 26H12.1737ZM29 8V22C29 22.7956 28.6839 23.5587 28.1213 24.1213C27.5587 24.6839 26.7956 25 26 25H24C23.7348 25 23.4804 24.8946 23.2929 24.7071C23.1054 24.5196 23 24.2652 23 24C23 23.7348 23.1054 23.4804 23.2929 23.2929C23.4804 23.1054 23.7348 23 24 23H26C26.2652 23 26.5196 22.8946 26.7071 22.7071C26.8946 22.5196 27 22.2652 27 22V8C27 7.73478 26.8946 7.48043 26.7071 7.29289C26.5196 7.10536 26.2652 7 26 7H6C5.73478 7 5.48043 7.10536 5.29289 7.29289C5.10536 7.48043 5 7.73478 5 8V22C5 22.2652 5.10536 22.5196 5.29289 22.7071C5.48043 22.8946 5.73478 23 6 23H8C8.26522 23 8.51957 23.1054 8.70711 23.2929C8.89464 23.4804 9 23.7348 9 24C9 24.2652 8.89464 24.5196 8.70711 24.7071C8.51957 24.8946 8.26522 25 8 25H6C5.20435 25 4.44129 24.6839 3.87868 24.1213C3.31607 23.5587 3 22.7956 3 22V8C3 7.20435 3.31607 6.44129 3.87868 5.87868C4.44129 5.31607 5.20435 5 6 5H26C26.7956 5 27.5587 5.31607 28.1213 5.87868C28.6839 6.44129 29 7.20435 29 8Z" fill="#4A4A4F"/>
</svg>
