<svg width="32" height="32" viewBox="0 0 32 32" fill="none" xmlns="http://www.w3.org/2000/svg">
<path d="M7.70757 3.70757L3.70757 7.70757C3.61466 7.80048 3.50436 7.87418 3.38296 7.92446C3.26157 7.97474 3.13146 8.00062 3.00007 8.00062C2.86867 8.00062 2.73856 7.97474 2.61717 7.92446C2.49578 7.87418 2.38548 7.80048 2.29257 7.70757C2.10493 7.51993 1.99951 7.26543 1.99951 7.00007C1.99951 6.7347 2.10493 6.48021 2.29257 6.29257L6.29257 2.29257C6.38548 2.19966 6.49578 2.12596 6.61717 2.07567C6.73856 2.02539 6.86867 1.99951 7.00007 1.99951C7.13146 1.99951 7.26157 2.02539 7.38296 2.07567C7.50436 2.12596 7.61466 2.19966 7.70757 2.29257C7.80048 2.38548 7.87418 2.49578 7.92446 2.61717C7.97474 2.73856 8.00062 2.86867 8.00062 3.00007C8.00062 3.13146 7.97474 3.26157 7.92446 3.38296C7.87418 3.50436 7.80048 3.61466 7.70757 3.70757ZM29.7076 6.29257L25.7076 2.29257C25.5199 2.10493 25.2654 1.99951 25.0001 1.99951C24.7347 1.99951 24.4802 2.10493 24.2926 2.29257C24.1049 2.48021 23.9995 2.7347 23.9995 3.00007C23.9995 3.26543 24.1049 3.51993 24.2926 3.70757L28.2926 7.70757C28.3855 7.80048 28.4958 7.87418 28.6172 7.92446C28.7386 7.97474 28.8687 8.00062 29.0001 8.00062C29.1315 8.00062 29.2616 7.97474 29.383 7.92446C29.5044 7.87418 29.6147 7.80048 29.7076 7.70757C29.8005 7.61466 29.8742 7.50436 29.9245 7.38296C29.9747 7.26157 30.0006 7.13146 30.0006 7.00007C30.0006 6.86867 29.9747 6.73856 29.9245 6.61717C29.8742 6.49578 29.8005 6.38548 29.7076 6.29257ZM28.0001 16.0001C28.0001 18.3734 27.2963 20.6935 25.9777 22.6669C24.6591 24.6403 22.785 26.1784 20.5923 27.0866C18.3996 27.9949 15.9868 28.2325 13.659 27.7695C11.3312 27.3065 9.19302 26.1636 7.51479 24.4853C5.83656 22.8071 4.69367 20.6689 4.23064 18.3412C3.76762 16.0134 4.00526 13.6006 4.91351 11.4079C5.82176 9.21515 7.35984 7.34101 9.33323 6.02243C11.3066 4.70386 13.6267 4.00007 16.0001 4.00007C19.1815 4.00371 22.2317 5.26916 24.4813 7.51881C26.731 9.76845 27.9964 12.8186 28.0001 16.0001ZM24.0001 16.0001C24.0001 15.7349 23.8947 15.4805 23.7072 15.293C23.5196 15.1054 23.2653 15.0001 23.0001 15.0001H17.0001V9.00007C17.0001 8.73485 16.8947 8.4805 16.7072 8.29296C16.5196 8.10542 16.2653 8.00007 16.0001 8.00007C15.7349 8.00007 15.4805 8.10542 15.293 8.29296C15.1054 8.4805 15.0001 8.73485 15.0001 9.00007V16.0001C15.0001 16.2653 15.1054 16.5196 15.293 16.7072C15.4805 16.8947 15.7349 17.0001 16.0001 17.0001H23.0001C23.2653 17.0001 23.5196 16.8947 23.7072 16.7072C23.8947 16.5196 24.0001 16.2653 24.0001 16.0001Z" fill="#4A4A4F"/>
</svg>
