<svg width="32" height="32" viewBox="0 0 32 32" fill="none" xmlns="http://www.w3.org/2000/svg">
<path d="M16.0001 4.00007C13.6267 4.00007 11.3066 4.70386 9.33323 6.02243C7.35984 7.34101 5.82176 9.21515 4.91351 11.4079C4.00526 13.6006 3.76762 16.0134 4.23064 18.3412C4.69367 20.6689 5.83656 22.8071 7.51479 24.4853C9.19302 26.1636 11.3312 27.3065 13.659 27.7695C15.9868 28.2325 18.3996 27.9949 20.5923 27.0866C22.785 26.1784 24.6591 24.6403 25.9777 22.6669C27.2963 20.6935 28.0001 18.3734 28.0001 16.0001C27.9964 12.8186 26.731 9.76845 24.4813 7.51881C22.2317 5.26916 19.1815 4.00371 16.0001 4.00007ZM16.0001 26.0001C14.0223 26.0001 12.0889 25.4136 10.4444 24.3148C8.79987 23.216 7.51815 21.6542 6.76127 19.8269C6.0044 17.9996 5.80636 15.989 6.19221 14.0492C6.57807 12.1094 7.53047 10.3275 8.929 8.929C10.3275 7.53047 12.1094 6.57807 14.0492 6.19221C15.989 5.80636 17.9996 6.0044 19.8269 6.76127C21.6542 7.51815 23.216 8.79987 24.3148 10.4444C25.4136 12.0889 26.0001 14.0223 26.0001 16.0001C25.9971 18.6513 24.9426 21.1931 23.0678 23.0678C21.1931 24.9426 18.6513 25.9971 16.0001 26.0001ZM7.70757 3.70757L3.70757 7.70757C3.61466 7.80048 3.50436 7.87418 3.38296 7.92446C3.26157 7.97474 3.13146 8.00062 3.00007 8.00062C2.86867 8.00062 2.73856 7.97474 2.61717 7.92446C2.49578 7.87418 2.38548 7.80048 2.29257 7.70757C2.10493 7.51993 1.99951 7.26543 1.99951 7.00007C1.99951 6.7347 2.10493 6.48021 2.29257 6.29257L6.29257 2.29257C6.38548 2.19966 6.49578 2.12596 6.61717 2.07567C6.73856 2.02539 6.86867 1.99951 7.00007 1.99951C7.13146 1.99951 7.26157 2.02539 7.38296 2.07567C7.50436 2.12596 7.61466 2.19966 7.70757 2.29257C7.80048 2.38548 7.87418 2.49578 7.92446 2.61717C7.97474 2.73856 8.00062 2.86867 8.00062 3.00007C8.00062 3.13146 7.97474 3.26157 7.92446 3.38296C7.87418 3.50436 7.80048 3.61466 7.70757 3.70757ZM29.7076 7.70757C29.6147 7.80054 29.5044 7.8743 29.383 7.92463C29.2616 7.97495 29.1315 8.00085 29.0001 8.00085C28.8687 8.00085 28.7385 7.97495 28.6171 7.92463C28.4957 7.8743 28.3854 7.80054 28.2926 7.70757L24.2926 3.70757C24.1049 3.51993 23.9995 3.26543 23.9995 3.00007C23.9995 2.7347 24.1049 2.48021 24.2926 2.29257C24.4802 2.10493 24.7347 1.99951 25.0001 1.99951C25.2654 1.99951 25.5199 2.10493 25.7076 2.29257L29.7076 6.29257C29.8005 6.38544 29.8743 6.49573 29.9246 6.61713C29.975 6.73853 30.0009 6.86865 30.0009 7.00007C30.0009 7.13148 29.975 7.26161 29.9246 7.38301C29.8743 7.50441 29.8005 7.61469 29.7076 7.70757ZM23.0001 15.0001C23.2653 15.0001 23.5196 15.1054 23.7072 15.293C23.8947 15.4805 24.0001 15.7349 24.0001 16.0001C24.0001 16.2653 23.8947 16.5196 23.7072 16.7072C23.5196 16.8947 23.2653 17.0001 23.0001 17.0001H16.0001C15.7349 17.0001 15.4805 16.8947 15.293 16.7072C15.1054 16.5196 15.0001 16.2653 15.0001 16.0001V9.00007C15.0001 8.73485 15.1054 8.4805 15.293 8.29296C15.4805 8.10542 15.7349 8.00007 16.0001 8.00007C16.2653 8.00007 16.5196 8.10542 16.7072 8.29296C16.8947 8.4805 17.0001 8.73485 17.0001 9.00007V15.0001H23.0001Z" fill="#4A4A4F"/>
</svg>
