<svg width="32" height="32" viewBox="0 0 32 32" fill="none" xmlns="http://www.w3.org/2000/svg">
<path d="M16 2C12.8185 2.00364 9.76839 3.26909 7.51874 5.51874C5.26909 7.76839 4.00364 10.8185 4 14C4 17 5.57 20.8825 8.20125 24.375C10.8488 27.8937 13.7638 30 16 30C18.2362 30 21.1512 27.8988 23.7987 24.375C26.43 20.875 28 17 28 14C27.9964 10.8185 26.7309 7.76839 24.4813 5.51874C22.2316 3.26909 19.1815 2.00364 16 2ZM22.2013 23.1775C20.03 26.0612 17.5387 28 16 28C14.4613 28 11.97 26.0612 9.79875 23.1775C7.45625 20.0625 6 16.5463 6 14C6 11.3478 7.05357 8.8043 8.92893 6.92893C10.8043 5.05357 13.3478 4 16 4C18.6522 4 21.1957 5.05357 23.0711 6.92893C24.9464 8.8043 26 11.3478 26 14C26 16.5463 24.5438 20.0625 22.2013 23.1775ZM15 17C15 15.6739 14.4732 14.4021 13.5355 13.4645C12.5979 12.5268 11.3261 12 10 12C9.46957 12 8.96086 12.2107 8.58579 12.5858C8.21071 12.9609 8 13.4696 8 14C8 15.3261 8.52678 16.5979 9.46447 17.5355C10.4021 18.4732 11.6739 19 13 19C13.5304 19 14.0391 18.7893 14.4142 18.4142C14.7893 18.0391 15 17.5304 15 17ZM10 14C10.7956 14 11.5587 14.3161 12.1213 14.8787C12.6839 15.4413 13 16.2044 13 17C12.2044 17 11.4413 16.6839 10.8787 16.1213C10.3161 15.5587 10 14.7956 10 14ZM22 12C20.6739 12 19.4021 12.5268 18.4645 13.4645C17.5268 14.4021 17 15.6739 17 17C17 17.5304 17.2107 18.0391 17.5858 18.4142C17.9609 18.7893 18.4696 19 19 19C19.6566 19 20.3068 18.8707 20.9134 18.6194C21.52 18.3681 22.0712 17.9998 22.5355 17.5355C22.9998 17.0712 23.3681 16.52 23.6194 15.9134C23.8707 15.3068 24 14.6566 24 14C24 13.4696 23.7893 12.9609 23.4142 12.5858C23.0391 12.2107 22.5304 12 22 12ZM19 17C19 16.2044 19.3161 15.4413 19.8787 14.8787C20.4413 14.3161 21.2044 14 22 14C22 14.7956 21.6839 15.5587 21.1213 16.1213C20.5587 16.6839 19.7956 17 19 17ZM19 23C19 23.2652 18.8946 23.5196 18.7071 23.7071C18.5196 23.8946 18.2652 24 18 24H14C13.7348 24 13.4804 23.8946 13.2929 23.7071C13.1054 23.5196 13 23.2652 13 23C13 22.7348 13.1054 22.4804 13.2929 22.2929C13.4804 22.1054 13.7348 22 14 22H18C18.2652 22 18.5196 22.1054 18.7071 22.2929C18.8946 22.4804 19 22.7348 19 23Z" fill="#4A4A4F"/>
</svg>
