<svg width="32" height="32" viewBox="0 0 32 32" fill="none" xmlns="http://www.w3.org/2000/svg">
<path d="M26 29C26 29.2652 25.8946 29.5196 25.7071 29.7071C25.5196 29.8946 25.2652 30 25 30H7C6.73478 30 6.48043 29.8946 6.29289 29.7071C6.10536 29.5196 6 29.2652 6 29C6 28.7348 6.10536 28.4804 6.29289 28.2929C6.48043 28.1054 6.73478 28 7 28H25C25.2652 28 25.5196 28.1054 25.7071 28.2929C25.8946 28.4804 26 28.7348 26 29ZM12 26H20C20.5304 26 21.0391 25.7893 21.4142 25.4142C21.7893 25.0391 22 24.5304 22 24V5C22 4.46957 21.7893 3.96086 21.4142 3.58579C21.0391 3.21071 20.5304 3 20 3H12C11.4696 3 10.9609 3.21071 10.5858 3.58579C10.2107 3.96086 10 4.46957 10 5V24C10 24.5304 10.2107 25.0391 10.5858 25.4142C10.9609 25.7893 11.4696 26 12 26Z" fill="#4A4A4F"/>
</svg>
