<svg width="32" height="32" viewBox="0 0 32 32" fill="none" xmlns="http://www.w3.org/2000/svg">
<path d="M29 7V25C29 25.2652 28.8946 25.5196 28.7071 25.7071C28.5196 25.8946 28.2652 26 28 26C27.7348 26 27.4804 25.8946 27.2929 25.7071C27.1054 25.5196 27 25.2652 27 25V7C27 6.73478 27.1054 6.48043 27.2929 6.29289C27.4804 6.10536 27.7348 6 28 6C28.2652 6 28.5196 6.10536 28.7071 6.29289C28.8946 6.48043 29 6.73478 29 7ZM23 10H4C3.46957 10 2.96086 10.2107 2.58579 10.5858C2.21071 10.9609 2 11.4696 2 12V20C2 20.5304 2.21071 21.0391 2.58579 21.4142C2.96086 21.7893 3.46957 22 4 22H23C23.5304 22 24.0391 21.7893 24.4142 21.4142C24.7893 21.0391 25 20.5304 25 20V12C25 11.4696 24.7893 10.9609 24.4142 10.5858C24.0391 10.2107 23.5304 10 23 10Z" fill="#4A4A4F"/>
</svg>
