<svg width="32" height="32" viewBox="0 0 32 32" fill="none" xmlns="http://www.w3.org/2000/svg">
<path d="M26 4C26 4.26522 25.8946 4.51957 25.7071 4.70711C25.5196 4.89464 25.2652 5 25 5H7C6.73478 5 6.48043 4.89464 6.29289 4.70711C6.10536 4.51957 6 4.26522 6 4C6 3.73478 6.10536 3.48043 6.29289 3.29289C6.48043 3.10536 6.73478 3 7 3H25C25.2652 3 25.5196 3.10536 25.7071 3.29289C25.8946 3.48043 26 3.73478 26 4ZM20 7H12C11.4696 7 10.9609 7.21071 10.5858 7.58579C10.2107 7.96086 10 8.46957 10 9V28C10 28.5304 10.2107 29.0391 10.5858 29.4142C10.9609 29.7893 11.4696 30 12 30H20C20.5304 30 21.0391 29.7893 21.4142 29.4142C21.7893 29.0391 22 28.5304 22 28V9C22 8.46957 21.7893 7.96086 21.4142 7.58579C21.0391 7.21071 20.5304 7 20 7Z" fill="#4A4A4F"/>
</svg>
