<svg width="32" height="32" viewBox="0 0 32 32" fill="none" xmlns="http://www.w3.org/2000/svg">
<path d="M29 16C29 16.2652 28.8946 16.5196 28.7071 16.7071C28.5196 16.8946 28.2652 17 28 17H26V23C26 23.5304 25.7893 24.0391 25.4142 24.4142C25.0391 24.7893 24.5304 25 24 25H19C18.4696 25 17.9609 24.7893 17.5858 24.4142C17.2107 24.0391 17 23.5304 17 23V17H15V26C15 26.5304 14.7893 27.0391 14.4142 27.4142C14.0391 27.7893 13.5304 28 13 28H8C7.46957 28 6.96086 27.7893 6.58579 27.4142C6.21071 27.0391 6 26.5304 6 26V17H4C3.73478 17 3.48043 16.8946 3.29289 16.7071C3.10536 16.5196 3 16.2652 3 16C3 15.7348 3.10536 15.4804 3.29289 15.2929C3.48043 15.1054 3.73478 15 4 15H6V6C6 5.46957 6.21071 4.96086 6.58579 4.58579C6.96086 4.21071 7.46957 4 8 4H13C13.5304 4 14.0391 4.21071 14.4142 4.58579C14.7893 4.96086 15 5.46957 15 6V15H17V9C17 8.46957 17.2107 7.96086 17.5858 7.58579C17.9609 7.21071 18.4696 7 19 7H24C24.5304 7 25.0391 7.21071 25.4142 7.58579C25.7893 7.96086 26 8.46957 26 9V15H28C28.2652 15 28.5196 15.1054 28.7071 15.2929C28.8946 15.4804 29 15.7348 29 16Z" fill="#4A4A4F"/>
</svg>
