<svg width="32" height="32" viewBox="0 0 32 32" fill="none" xmlns="http://www.w3.org/2000/svg">
<path d="M29 19V24C29 24.5304 28.7893 25.0391 28.4142 25.4142C28.0391 25.7893 27.5304 26 27 26H10C9.46957 26 8.96086 25.7893 8.58579 25.4142C8.21071 25.0391 8 24.5304 8 24V19C8 18.4696 8.21071 17.9609 8.58579 17.5858C8.96086 17.2107 9.46957 17 10 17H27C27.5304 17 28.0391 17.2107 28.4142 17.5858C28.7893 17.9609 29 18.4696 29 19ZM5 4C4.73478 4 4.48043 4.10536 4.29289 4.29289C4.10536 4.48043 4 4.73478 4 5V27C4 27.2652 4.10536 27.5196 4.29289 27.7071C4.48043 27.8946 4.73478 28 5 28C5.26522 28 5.51957 27.8946 5.70711 27.7071C5.89464 27.5196 6 27.2652 6 27V5C6 4.73478 5.89464 4.48043 5.70711 4.29289C5.51957 4.10536 5.26522 4 5 4ZM10 15H22C22.5304 15 23.0391 14.7893 23.4142 14.4142C23.7893 14.0391 24 13.5304 24 13V8C24 7.46957 23.7893 6.96086 23.4142 6.58579C23.0391 6.21071 22.5304 6 22 6H10C9.46957 6 8.96086 6.21071 8.58579 6.58579C8.21071 6.96086 8 7.46957 8 8V13C8 13.5304 8.21071 14.0391 8.58579 14.4142C8.96086 14.7893 9.46957 15 10 15Z" fill="#4A4A4F"/>
</svg>
