<svg width="32" height="32" viewBox="0 0 32 32" fill="none" xmlns="http://www.w3.org/2000/svg">
<path d="M30.9999 21.0001V25.0001C30.9999 25.2653 30.8945 25.5196 30.707 25.7072C30.5195 25.8947 30.2651 26.0001 29.9999 26.0001C29.7347 26.0001 29.4803 25.8947 29.2928 25.7072C29.1052 25.5196 28.9999 25.2653 28.9999 25.0001V23.4138L28.7236 23.6913C28.3361 24.1126 23.6799 29.0001 15.9999 29.0001C8.14489 29.0001 3.45239 23.8863 3.25614 23.6688C3.07877 23.4707 2.98736 23.2103 3.00201 22.9448C3.01666 22.6794 3.13618 22.4306 3.33426 22.2532C3.53234 22.0758 3.79277 21.9844 4.05825 21.9991C4.32373 22.0137 4.57252 22.1332 4.74989 22.3313C4.78364 22.3751 9.06239 27.0001 15.9999 27.0001C22.9374 27.0001 27.2161 22.3751 27.2586 22.3301C27.2692 22.317 27.2805 22.3045 27.2924 22.2926L27.5861 22.0001H25.9999C25.7347 22.0001 25.4803 21.8947 25.2928 21.7072C25.1052 21.5196 24.9999 21.2653 24.9999 21.0001C24.9999 20.7349 25.1052 20.4805 25.2928 20.293C25.4803 20.1054 25.7347 20.0001 25.9999 20.0001H29.9999C30.2651 20.0001 30.5195 20.1054 30.707 20.293C30.8945 20.4805 30.9999 20.7349 30.9999 21.0001ZM19.9999 11.8163V10.5001C20.0006 9.48895 19.6607 8.50706 19.035 7.71273C18.4094 6.9184 17.5345 6.35792 16.5513 6.12167C15.5682 5.88541 14.5341 5.98715 13.6159 6.41048C12.6976 6.83381 11.9487 7.55405 11.4899 8.45508C11.3692 8.69129 11.1596 8.86988 10.9073 8.95158C10.6549 9.03327 10.3805 9.01138 10.1443 8.8907C9.90805 8.77003 9.72946 8.56046 9.64776 8.30811C9.56607 8.05576 9.58796 7.78129 9.70864 7.54508C10.3717 6.24403 11.4536 5.20417 12.7798 4.59309C14.1061 3.98201 15.5995 3.83532 17.0193 4.17667C18.4391 4.51801 19.7026 5.3275 20.6062 6.47466C21.5097 7.62182 22.0007 9.03981 21.9999 10.5001V22.0001C21.9999 22.2653 21.8945 22.5196 21.707 22.7072C21.5195 22.8947 21.2651 23.0001 20.9999 23.0001C20.7347 23.0001 20.4803 22.8947 20.2928 22.7072C20.1052 22.5196 19.9999 22.2653 19.9999 22.0001V21.1838C19.0812 22.0678 17.9228 22.6621 16.6689 22.8928C15.415 23.1235 14.121 22.9803 12.9479 22.4811C11.7747 21.9819 10.7743 21.1487 10.0711 20.0853C9.36788 19.0218 8.99295 17.775 8.99295 16.5001C8.99295 15.2251 9.36788 13.9784 10.0711 12.9149C10.7743 11.8514 11.7747 11.0183 12.9479 10.5191C14.121 10.0199 15.415 9.87668 16.6689 10.1073C17.9228 10.338 19.0812 10.9323 19.9999 11.8163ZM19.9999 16.5001C19.9999 15.6101 19.736 14.74 19.2415 14C18.747 13.26 18.0442 12.6832 17.222 12.3426C16.3997 12.002 15.4949 11.9129 14.622 12.0865C13.7491 12.2602 12.9472 12.6888 12.3179 13.3181C11.6886 13.9474 11.26 14.7493 11.0864 15.6222C10.9127 16.4951 11.0018 17.3999 11.3424 18.2222C11.683 19.0444 12.2598 19.7472 12.9998 20.2417C13.7398 20.7362 14.6099 21.0001 15.4999 21.0001C16.0908 21.0001 16.676 20.8837 17.222 20.6575C17.7679 20.4314 18.264 20.0999 18.6819 19.6821C19.0997 19.2642 19.4312 18.7681 19.6573 18.2222C19.8835 17.6762 19.9999 17.091 19.9999 16.5001Z" fill="#4A4A4F"/>
</svg>
