<svg width="32" height="32" viewBox="0 0 32 32" fill="none" xmlns="http://www.w3.org/2000/svg">
<path d="M19 17C19 17.5933 18.8241 18.1734 18.4944 18.6667C18.1648 19.1601 17.6962 19.5446 17.1481 19.7716C16.5999 19.9987 15.9967 20.0581 15.4147 19.9424C14.8328 19.8266 14.2982 19.5409 13.8787 19.1213C13.4591 18.7018 13.1734 18.1672 13.0576 17.5853C12.9419 17.0033 13.0013 16.4001 13.2284 15.8519C13.4554 15.3038 13.8399 14.8352 14.3333 14.5056C14.8266 14.1759 15.4067 14 16 14C16.7957 14 17.5587 14.3161 18.1213 14.8787C18.6839 15.4413 19 16.2044 19 17ZM29 16C29 18.5712 28.2376 21.0846 26.8091 23.2224C25.3807 25.3603 23.3503 27.0265 20.9749 28.0104C18.5995 28.9944 15.9856 29.2518 13.4638 28.7502C10.9421 28.2486 8.6257 27.0105 6.80762 25.1924C4.98953 23.3743 3.75141 21.0579 3.2498 18.5362C2.74819 16.0144 3.00563 13.4006 3.98957 11.0251C4.97351 8.64968 6.63975 6.61935 8.77759 5.1909C10.9154 3.76244 13.4288 3 16 3C19.4467 3.00364 22.7512 4.37445 25.1884 6.81163C27.6256 9.24882 28.9964 12.5533 29 16ZM19 13C18.2572 12.4429 17.3738 12.1036 16.449 12.0202C15.5242 11.9368 14.5945 12.1126 13.7639 12.5279C12.9334 12.9431 12.2349 13.5815 11.7468 14.3713C11.2586 15.1612 11 16.0714 11 17C11 17.9286 11.2586 18.8388 11.7468 19.6287C12.2349 20.4185 12.9334 21.0569 13.7639 21.4721C14.5945 21.8874 15.5242 22.0632 16.449 21.9798C17.3738 21.8964 18.2572 21.5571 19 21C19 21.2652 19.1054 21.5196 19.2929 21.7071C19.4804 21.8946 19.7348 22 20 22C20.2652 22 20.5196 21.8946 20.7071 21.7071C20.8946 21.5196 21 21.2652 21 21V13C21.0003 11.9152 20.6478 10.8597 19.9956 9.99285C19.3435 9.12596 18.4271 8.49468 17.3847 8.19426C16.3423 7.89384 15.2305 7.94058 14.217 8.32741C13.2035 8.71424 12.3434 9.42019 11.7663 10.3387C11.6305 10.5631 11.5883 10.8317 11.6487 11.0869C11.7091 11.342 11.8673 11.5632 12.0892 11.7029C12.3111 11.8425 12.579 11.8894 12.8352 11.8334C13.0913 11.7775 13.3153 11.6232 13.4588 11.4038C13.8048 10.8522 14.3209 10.4282 14.9292 10.1958C15.5374 9.96334 16.2047 9.93511 16.8304 10.1154C17.4561 10.2956 18.0062 10.6745 18.3976 11.1949C18.789 11.7153 19.0004 12.3489 19 13ZM24.6013 21.2013C24.3894 21.0419 24.1229 20.9731 23.8604 21.0102C23.5978 21.0472 23.3608 21.187 23.2013 21.3988C22.363 22.517 21.2758 23.4246 20.0259 24.0498C18.7759 24.6749 17.3976 25.0004 16 25.0004C14.6024 25.0004 13.2241 24.6749 11.9742 24.0498C10.7242 23.4246 9.63703 22.517 8.79876 21.3988C8.72104 21.2906 8.6225 21.199 8.50892 21.1294C8.39533 21.0599 8.26899 21.0137 8.13732 20.9936C8.00564 20.9735 7.87128 20.98 7.74212 21.0125C7.61297 21.0451 7.49162 21.1031 7.3852 21.1832C7.27878 21.2633 7.18944 21.3639 7.12242 21.479C7.0554 21.5941 7.01204 21.7215 6.99491 21.8535C6.97777 21.9856 6.9872 22.1198 7.02264 22.2482C7.05807 22.3766 7.1188 22.4966 7.20126 22.6012C8.22592 23.9669 9.55442 25.0753 11.0816 25.8387C12.6088 26.6022 14.2927 26.9996 16 26.9996C17.7073 26.9996 19.3913 26.6022 20.9184 25.8387C22.4456 25.0753 23.7741 23.9669 24.7988 22.6012C24.9582 22.3894 25.0269 22.1229 24.9899 21.8604C24.9528 21.5978 24.813 21.3608 24.6013 21.2013Z" fill="#4A4A4F"/>
</svg>
