<svg width="32" height="32" viewBox="0 0 32 32" fill="none" xmlns="http://www.w3.org/2000/svg">
<path d="M27 16.9999C26.7348 16.9999 26.4804 17.1053 26.2929 17.2928C26.1054 17.4804 26 17.7347 26 17.9999C26 18.6565 25.8707 19.3067 25.6194 19.9134C25.3681 20.52 24.9998 21.0712 24.5355 21.5355C24.0712 21.9998 23.52 22.3681 22.9134 22.6193C22.3068 22.8706 21.6566 22.9999 21 22.9999C19.5229 22.9991 18.0979 23.5455 17 24.5337V15.9999H21C21.2652 15.9999 21.5196 15.8946 21.7071 15.707C21.8946 15.5195 22 15.2652 22 14.9999C22 14.7347 21.8946 14.4804 21.7071 14.2928C21.5196 14.1053 21.2652 13.9999 21 13.9999H17V10.8749C17.9427 10.6315 18.7642 10.0527 19.3106 9.24693C19.857 8.44115 20.0908 7.46375 19.9681 6.49794C19.8454 5.53212 19.3747 4.6442 18.6442 4.00061C17.9137 3.35703 16.9736 3.00195 16 3.00195C15.0264 3.00195 14.0863 3.35703 13.3558 4.00061C12.6253 4.6442 12.1546 5.53212 12.0319 6.49794C11.9092 7.46375 12.143 8.44115 12.6894 9.24693C13.2358 10.0527 14.0573 10.6315 15 10.8749V13.9999H11C10.7348 13.9999 10.4804 14.1053 10.2929 14.2928C10.1054 14.4804 10 14.7347 10 14.9999C10 15.2652 10.1054 15.5195 10.2929 15.707C10.4804 15.8946 10.7348 15.9999 11 15.9999H15V24.5337C13.9021 23.5455 12.4771 22.9991 11 22.9999C9.67392 22.9999 8.40215 22.4732 7.46447 21.5355C6.52678 20.5978 6 19.326 6 17.9999C6 17.7347 5.89464 17.4804 5.70711 17.2928C5.51957 17.1053 5.26522 16.9999 5 16.9999C4.73478 16.9999 4.48043 17.1053 4.29289 17.2928C4.10536 17.4804 4 17.7347 4 17.9999C4.00199 19.8558 4.74012 21.6352 6.05245 22.9475C7.36477 24.2598 9.14409 24.998 11 24.9999C12.0609 24.9999 13.0783 25.4214 13.8284 26.1715C14.5786 26.9217 15 27.9391 15 28.9999C15 29.2652 15.1054 29.5195 15.2929 29.707C15.4804 29.8946 15.7348 29.9999 16 29.9999C16.2652 29.9999 16.5196 29.8946 16.7071 29.707C16.8946 29.5195 17 29.2652 17 28.9999C17 27.9391 17.4214 26.9217 18.1716 26.1715C18.9217 25.4214 19.9391 24.9999 21 24.9999C22.8559 24.998 24.6352 24.2598 25.9476 22.9475C27.2599 21.6352 27.998 19.8558 28 17.9999C28 17.7347 27.8946 17.4804 27.7071 17.2928C27.5196 17.1053 27.2652 16.9999 27 16.9999ZM14 6.99994C14 6.60437 14.1173 6.21769 14.3371 5.8888C14.5568 5.5599 14.8692 5.30355 15.2346 5.15218C15.6001 5.0008 16.0022 4.9612 16.3902 5.03837C16.7781 5.11554 17.1345 5.30602 17.4142 5.58572C17.6939 5.86543 17.8844 6.22179 17.9616 6.60976C18.0387 6.99772 17.9991 7.39985 17.8478 7.7653C17.6964 8.13076 17.44 8.44311 17.1111 8.66288C16.7822 8.88264 16.3956 8.99994 16 8.99994C15.4696 8.99994 14.9609 8.78922 14.5858 8.41415C14.2107 8.03908 14 7.53037 14 6.99994Z" fill="#4A4A4F"/>
</svg>
