<svg width="32" height="32" viewBox="0 0 32 32" fill="none" xmlns="http://www.w3.org/2000/svg">
<path d="M29 14.9999C29 18.4477 27.6304 21.7543 25.1924 24.1923C22.7544 26.6302 19.4478 27.9999 16 27.9999C12.5522 27.9999 9.24558 26.6302 6.80761 24.1923C4.36964 21.7543 3 18.4477 3 14.9999C3 14.7346 3.10536 14.4803 3.29289 14.2928C3.48043 14.1052 3.73478 13.9999 4 13.9999H7C7.26522 13.9999 7.51957 14.1052 7.70711 14.2928C7.89464 14.4803 8 14.7346 8 14.9999C8 15.2651 7.89464 15.5194 7.70711 15.707C7.51957 15.8945 7.26522 15.9999 7 15.9999H5.045C5.28252 18.5598 6.40768 20.956 8.22568 22.7738C10.0437 24.5916 12.4401 25.7164 15 25.9536V11.3536C14.1943 11.1134 13.5021 10.5912 13.0497 9.88258C12.5974 9.17391 12.4153 8.32612 12.5367 7.49422C12.658 6.66232 13.0748 5.9019 13.7107 5.35201C14.3467 4.80212 15.1593 4.49951 16 4.49951C16.8407 4.49951 17.6533 4.80212 18.2893 5.35201C18.9252 5.9019 19.342 6.66232 19.4633 7.49422C19.5847 8.32612 19.4026 9.17391 18.9503 9.88258C18.4979 10.5912 17.8057 11.1134 17 11.3536V25.9536C19.5599 25.7164 21.9563 24.5916 23.7743 22.7738C25.5923 20.956 26.7175 18.5598 26.955 15.9999H25C24.7348 15.9999 24.4804 15.8945 24.2929 15.707C24.1054 15.5194 24 15.2651 24 14.9999C24 14.7346 24.1054 14.4803 24.2929 14.2928C24.4804 14.1052 24.7348 13.9999 25 13.9999H28C28.2652 13.9999 28.5196 14.1052 28.7071 14.2928C28.8946 14.4803 29 14.7346 29 14.9999Z" fill="#4A4A4F"/>
</svg>
