<svg width="32" height="32" viewBox="0 0 32 32" fill="none" xmlns="http://www.w3.org/2000/svg">
<path d="M28 13.9999H25C24.7348 13.9999 24.4804 14.1053 24.2929 14.2928C24.1054 14.4804 24 14.7347 24 14.9999C24 15.2652 24.1054 15.5195 24.2929 15.707C24.4804 15.8946 24.7348 15.9999 25 15.9999H26.955C26.7175 18.5598 25.5923 20.9561 23.7743 22.7739C21.9563 24.5916 19.5599 25.7165 17 25.9537V11.8749C17.9427 11.6315 18.7642 11.0527 19.3106 10.2469C19.857 9.44115 20.0908 8.46375 19.9681 7.49794C19.8454 6.53212 19.3747 5.6442 18.6442 5.00061C17.9137 4.35703 16.9736 4.00195 16 4.00195C15.0264 4.00195 14.0863 4.35703 13.3558 5.00061C12.6253 5.6442 12.1546 6.53212 12.0319 7.49794C11.9092 8.46375 12.143 9.44115 12.6894 10.2469C13.2358 11.0527 14.0573 11.6315 15 11.8749V25.9537C12.4401 25.7165 10.0437 24.5916 8.22568 22.7739C6.40768 20.9561 5.28252 18.5598 5.045 15.9999H7C7.26522 15.9999 7.51957 15.8946 7.70711 15.707C7.89464 15.5195 8 15.2652 8 14.9999C8 14.7347 7.89464 14.4804 7.70711 14.2928C7.51957 14.1053 7.26522 13.9999 7 13.9999H4C3.73478 13.9999 3.48043 14.1053 3.29289 14.2928C3.10536 14.4804 3 14.7347 3 14.9999C3 18.4478 4.36964 21.7544 6.80761 24.1923C9.24558 26.6303 12.5522 27.9999 16 27.9999C19.4478 27.9999 22.7544 26.6303 25.1924 24.1923C27.6304 21.7544 29 18.4478 29 14.9999C29 14.7347 28.8946 14.4804 28.7071 14.2928C28.5196 14.1053 28.2652 13.9999 28 13.9999ZM14 7.99994C14 7.60437 14.1173 7.21769 14.3371 6.8888C14.5568 6.5599 14.8692 6.30355 15.2346 6.15218C15.6001 6.0008 16.0022 5.9612 16.3902 6.03837C16.7781 6.11554 17.1345 6.30602 17.4142 6.58572C17.6939 6.86543 17.8844 7.22179 17.9616 7.60976C18.0387 7.99772 17.9991 8.39985 17.8478 8.7653C17.6964 9.13076 17.44 9.44311 17.1111 9.66288C16.7822 9.88264 16.3956 9.99994 16 9.99994C15.4696 9.99994 14.9609 9.78922 14.5858 9.41415C14.2107 9.03908 14 8.53037 14 7.99994Z" fill="#4A4A4F"/>
</svg>
