<svg width="32" height="32" viewBox="0 0 32 32" fill="none" xmlns="http://www.w3.org/2000/svg">
<path d="M16 13.0586L17.6338 15.9998H14.3663L16 13.0586ZM28.9913 9.13233L26.9913 24.1323C26.9697 24.2942 26.9089 24.4483 26.8142 24.5812C26.7194 24.7141 26.5935 24.8218 26.4475 24.8948L16.4475 29.8948C16.3086 29.9644 16.1554 30.0005 16 30.0005C15.8447 30.0005 15.6914 29.9644 15.5525 29.8948L5.55251 24.8948C5.40652 24.8218 5.28064 24.7141 5.18586 24.5812C5.09108 24.4483 5.03027 24.2942 5.00876 24.1323L3.00876 9.13233C2.97971 8.91429 3.02336 8.69274 3.13296 8.50202C3.24256 8.31129 3.41199 8.16202 3.61501 8.07733L15.615 3.07733C15.7369 3.02597 15.8678 2.99951 16 2.99951C16.1323 2.99951 16.2632 3.02597 16.385 3.07733L28.385 8.07733C28.588 8.16202 28.7575 8.31129 28.8671 8.50202C28.9767 8.69274 29.0203 8.91429 28.9913 9.13233ZM21.875 19.5148L16.875 10.5148C16.7885 10.3585 16.6618 10.2282 16.5079 10.1375C16.354 10.0468 16.1786 9.99896 16 9.99896C15.8214 9.99896 15.646 10.0468 15.4921 10.1375C15.3383 10.2282 15.2115 10.3585 15.125 10.5148L10.125 19.5148C10.0613 19.6297 10.0209 19.7561 10.006 19.8866C9.99115 20.0171 10.0021 20.1493 10.0383 20.2756C10.0746 20.4019 10.1353 20.5198 10.2171 20.6226C10.2989 20.7254 10.4001 20.8111 10.515 20.8748C10.6299 20.9385 10.7562 20.979 10.8868 20.9938C11.0173 21.0087 11.1495 20.9977 11.2758 20.9615C11.4021 20.9253 11.52 20.8646 11.6228 20.7828C11.7256 20.701 11.8113 20.5997 11.875 20.4848L13.25 17.9998H18.75L20.125 20.4848C20.1887 20.5997 20.2744 20.701 20.3772 20.7828C20.48 20.8646 20.598 20.9253 20.7242 20.9615C20.8505 20.9977 20.9827 21.0087 21.1132 20.9938C21.2438 20.979 21.3701 20.9385 21.485 20.8748C21.5999 20.8111 21.7012 20.7254 21.7829 20.6226C21.8647 20.5198 21.9255 20.4019 21.9617 20.2756C21.9979 20.1493 22.0089 20.0171 21.994 19.8866C21.9791 19.7561 21.9387 19.6297 21.875 19.5148Z" fill="#4A4A4F"/>
</svg>
