<svg width="32" height="32" viewBox="0 0 32 32" fill="none" xmlns="http://www.w3.org/2000/svg">
<path d="M29.0002 16.0002C29.0003 13.429 28.2379 10.9156 26.8094 8.7777C25.3809 6.63982 23.3506 4.97354 20.9751 3.98958C18.5997 3.00563 15.9858 2.74818 13.464 3.24981C10.9422 3.75144 8.62581 4.9896 6.80773 6.80773C4.9896 8.62581 3.75144 10.9422 3.24981 13.464C2.74818 15.9858 3.00563 18.5997 3.98958 20.9751C4.97354 23.3506 6.63982 25.3809 8.7777 26.8094C10.9156 28.2379 13.429 29.0003 16.0002 29.0002H16.0115C19.4573 28.9972 22.7611 27.6263 25.1966 25.1886C27.6321 22.751 29.0002 19.4461 29.0002 16.0002ZM6.14773 11.1152L12.549 12.284L5.83148 20.1915C5.23809 18.7426 4.95943 17.1841 5.01395 15.6194C5.06847 14.0546 5.45494 12.5193 6.14773 11.1152ZM26.169 11.8077C26.7624 13.2568 27.0411 14.8155 26.9865 16.3805C26.932 17.9454 26.5456 19.4809 25.8527 20.8852L19.4515 19.7165L26.169 11.8077ZM25.159 9.90773L20.944 14.8752L17.454 5.09773C19.8499 5.41109 22.0744 6.51011 23.779 8.22273C24.2931 8.73777 24.7554 9.30215 25.159 9.90773ZM15.304 5.02398L17.4927 11.149L7.28773 9.29023C7.57599 8.91453 7.88787 8.55756 8.22148 8.22148C10.1105 6.32338 12.631 5.18546 15.304 5.02398ZM6.84148 22.0927L11.0565 17.1252L14.5465 26.8977C12.9937 26.6908 11.5031 26.1547 10.1743 25.3251C8.84554 24.4956 7.70924 23.3919 6.84148 22.0877V22.0927ZM16.6965 26.9752L14.5077 20.8502L17.3927 21.3752L24.7077 22.7115C23.7549 23.955 22.5461 24.9793 21.1631 25.7152C19.7801 26.451 18.2552 26.8811 16.6915 26.9765L16.6965 26.9752Z" fill="#4A4A4F"/>
</svg>
