<svg width="32" height="32" viewBox="0 0 32 32" fill="none" xmlns="http://www.w3.org/2000/svg">
<path d="M25.1924 6.80766C22.7544 4.36966 19.4478 3 15.9999 3C12.5521 3 9.24542 4.36966 6.80741 6.80766C4.36941 9.24566 2.99976 12.5523 2.99976 16.0002C2.99976 19.448 4.36941 22.7547 6.80741 25.1927C9.24542 27.6307 12.5521 29.0003 15.9999 29.0003C19.4478 29.0003 22.7544 27.6307 25.1924 25.1927C27.6304 22.7547 29.0001 19.448 29.0001 16.0002C29.0001 12.5523 27.6304 9.24566 25.1924 6.80766ZM23.7787 8.22266C24.2914 8.73762 24.752 9.30204 25.1537 9.90766L20.9437 14.8752L17.4537 5.09766C19.8497 5.41065 22.0743 6.50972 23.7787 8.22266ZM19.4487 16.6252L17.1787 19.2964L13.7299 18.6714L12.5512 15.3752L14.8212 12.7039L18.2699 13.3289L19.4487 16.6252ZM8.22116 8.22266C10.1097 6.32381 12.6304 5.18538 15.3037 5.02391L17.4924 11.1489L7.28741 9.29016C7.57538 8.91461 7.88727 8.55803 8.22116 8.22266ZM5.83116 20.1927C5.23775 18.7435 4.95907 17.1849 5.01359 15.6199C5.06811 14.055 5.45459 12.5195 6.14741 11.1152L12.5487 12.2839L5.83116 20.1927ZM8.22116 23.7777C7.70841 23.2627 7.24783 22.6983 6.84616 22.0927L11.0562 17.1252L14.5462 26.8977C12.1507 26.586 9.92627 25.4888 8.22116 23.7777ZM23.7787 23.7777C21.8901 25.6765 19.3694 26.8149 16.6962 26.9764L14.5074 20.8514L24.7124 22.7152C24.4243 23.089 24.1124 23.4439 23.7787 23.7777ZM19.4512 19.7164L26.1687 11.8077C26.7621 13.2568 27.0408 14.8154 26.9862 16.3804C26.9317 17.9454 26.5452 19.4809 25.8524 20.8852L19.4512 19.7164Z" fill="#4A4A4F"/>
</svg>
