<svg width="32" height="32" viewBox="0 0 32 32" fill="none" xmlns="http://www.w3.org/2000/svg">
<path d="M16 18C15.3078 18 14.6311 17.7947 14.0555 17.4101C13.4799 17.0256 13.0313 16.4789 12.7664 15.8394C12.5015 15.1999 12.4322 14.4961 12.5673 13.8172C12.7023 13.1383 13.0357 12.5146 13.5251 12.0251C14.0146 11.5356 14.6383 11.2023 15.3172 11.0673C15.9961 10.9322 16.6999 11.0015 17.3394 11.2664C17.9789 11.5313 18.5256 11.9799 18.9102 12.5555C19.2947 13.1311 19.5 13.8078 19.5 14.5C19.5 15.4283 19.1313 16.3185 18.4749 16.9749C17.8185 17.6313 16.9283 18 16 18ZM17.9688 18H14.0313C13.6453 17.999 13.2643 18.0866 12.9175 18.2561C12.5708 18.4255 12.2676 18.6724 12.0313 18.9775C11.798 19.2745 11.6363 19.6213 11.5587 19.9909C11.4811 20.3605 11.4897 20.743 11.5838 21.1087L13.1063 27.1087C13.2463 27.6513 13.563 28.1317 14.0064 28.4742C14.4498 28.8166 14.9947 29.0017 15.555 29H16.445C17.0064 29.0031 17.5527 28.8187 17.9974 28.4761C18.4421 28.1335 18.7597 27.6523 18.9 27.1087L20.4225 21.1087C20.5166 20.743 20.5252 20.3605 20.4476 19.9909C20.37 19.6213 20.2083 19.2745 19.975 18.9775C19.7381 18.6715 19.4338 18.4242 19.0859 18.2547C18.738 18.0852 18.3558 17.998 17.9688 18ZM22.78 17.75C22.7139 18.0068 22.7525 18.2792 22.8873 18.5076C23.0221 18.7359 23.242 18.9013 23.4988 18.9675C23.5805 18.9883 23.6645 18.9988 23.7488 18.9988C23.9703 18.9986 24.1856 18.9248 24.3607 18.7891C24.5358 18.6533 24.6609 18.4633 24.7163 18.2488C25.0583 16.9192 25.0916 15.529 24.8136 14.1845C24.5357 12.8401 23.9538 11.577 23.1126 10.4921C22.2714 9.40711 21.1932 8.52897 19.9604 7.92485C18.7276 7.32073 17.3729 7.00666 16 7.00666C14.6271 7.00666 13.2725 7.32073 12.0397 7.92485C10.8068 8.52897 9.72859 9.40711 8.88739 10.4921C8.04619 11.577 7.46435 12.8401 7.18639 14.1845C6.90844 15.529 6.94175 16.9192 7.28376 18.2488C7.31495 18.3776 7.37146 18.499 7.45001 18.6059C7.52855 18.7127 7.62757 18.8029 7.74128 18.8711C7.855 18.9393 7.98115 18.9842 8.11239 19.0032C8.24363 19.0222 8.37734 19.015 8.50574 18.9818C8.63414 18.9486 8.75466 18.8903 8.86029 18.8101C8.96592 18.7299 9.05454 18.6296 9.12101 18.5148C9.18748 18.4001 9.23047 18.2732 9.24746 18.1417C9.26446 18.0102 9.25513 17.8766 9.22001 17.7488C8.95447 16.7148 8.92895 15.6337 9.1454 14.5883C9.36185 13.543 9.81453 12.5609 10.4688 11.7174C11.1231 10.8738 11.9617 10.1911 12.9204 9.72144C13.879 9.25177 14.9325 9.0076 16 9.0076C17.0676 9.0076 18.121 9.25177 19.0797 9.72144C20.0383 10.1911 20.8769 10.8738 21.5312 11.7174C22.1855 12.5609 22.6382 13.543 22.8546 14.5883C23.0711 15.6337 23.0455 16.7148 22.78 17.7488V17.75ZM16 3C13.2073 2.99968 10.4888 3.8987 8.24686 5.56393C6.00496 7.22917 4.3589 9.57209 3.55241 12.2458C2.74593 14.9195 2.82188 17.7818 3.76904 20.409C4.7162 23.0362 6.48419 25.2885 8.81126 26.8325C9.03206 26.9793 9.30214 27.0324 9.5621 26.9802C9.82206 26.9279 10.0506 26.7745 10.1975 26.5537C10.2702 26.4443 10.3205 26.3217 10.3458 26.1928C10.371 26.0639 10.3706 25.9314 10.3446 25.8026C10.3186 25.6739 10.2675 25.5516 10.1942 25.4426C10.121 25.3336 10.0269 25.2401 9.91751 25.1675C7.94862 23.8611 6.45275 21.9553 5.65135 19.7325C4.84996 17.5096 4.78564 15.0878 5.46793 12.8255C6.15021 10.5633 7.54283 8.58084 9.4396 7.17174C11.3364 5.76264 13.6365 5.00176 15.9994 5.00176C18.3623 5.00176 20.6624 5.76264 22.5592 7.17174C24.4559 8.58084 25.8486 10.5633 26.5308 12.8255C27.2131 15.0878 27.1488 17.5096 26.3474 19.7325C25.546 21.9553 24.0501 23.8611 22.0813 25.1675C21.8655 25.3165 21.7169 25.5443 21.6675 25.8018C21.618 26.0593 21.6717 26.3259 21.8169 26.5442C21.9621 26.7625 22.1873 26.915 22.4439 26.969C22.7004 27.0229 22.9679 26.9739 23.1888 26.8325C25.5158 25.2885 27.2838 23.0362 28.231 20.409C29.1781 17.7818 29.2541 14.9195 28.4476 12.2458C27.6411 9.57209 25.9951 7.22917 23.7532 5.56393C21.5113 3.8987 18.7927 2.99968 16 3Z" fill="#4A4A4F"/>
</svg>
