<svg width="32" height="32" viewBox="0 0 32 32" fill="none" xmlns="http://www.w3.org/2000/svg">
<path d="M19.275 17.2912C19.6953 16.6919 19.943 15.9888 19.9913 15.2584C20.0396 14.528 19.8865 13.7983 19.5487 13.1489C19.2109 12.4995 18.7014 11.9552 18.0757 11.5754C17.45 11.1955 16.732 10.9946 16 10.9946C15.268 10.9946 14.55 11.1955 13.9243 11.5754C13.2986 11.9552 12.7891 12.4995 12.4513 13.1489C12.1135 13.7983 11.9604 14.528 12.0087 15.2584C12.057 15.9888 12.3047 16.6919 12.725 17.2912C12.2967 17.4934 11.9217 17.7931 11.63 18.1662C11.3501 18.5234 11.156 18.9401 11.0628 19.3842C10.9696 19.8284 10.9798 20.2879 11.0925 20.7275L12.615 26.7275C12.782 27.3796 13.1619 27.9573 13.6945 28.3689C14.2271 28.7806 14.8819 29.0027 15.555 29H16.445C17.1176 29.0029 17.772 28.7813 18.3045 28.3704C18.837 27.9595 19.2173 27.3826 19.385 26.7313L20.9075 20.7313C21.0202 20.2917 21.0304 19.8321 20.9372 19.388C20.844 18.9439 20.6499 18.5272 20.37 18.17C20.0787 17.7955 19.7037 17.4945 19.275 17.2912ZM16 13C16.3956 13 16.7822 13.1173 17.1111 13.3371C17.44 13.5568 17.6964 13.8692 17.8478 14.2346C17.9991 14.6001 18.0387 15.0022 17.9616 15.3902C17.8844 15.7781 17.6939 16.1345 17.4142 16.4142C17.1345 16.6939 16.7781 16.8844 16.3902 16.9616C16.0022 17.0387 15.6001 16.9991 15.2346 16.8478C14.8692 16.6964 14.5568 16.44 14.3371 16.1111C14.1173 15.7822 14 15.3956 14 15C14 14.4696 14.2107 13.9609 14.5858 13.5858C14.9609 13.2107 15.4696 13 16 13ZM18.9688 20.2388L17.4463 26.2388C17.3881 26.4589 17.2582 26.6533 17.077 26.7911C16.8959 26.929 16.6739 27.0025 16.4463 27H15.5563C15.3286 27.0025 15.1066 26.929 14.9255 26.7911C14.7443 26.6533 14.6144 26.4589 14.5563 26.2388L13.0338 20.2388C12.9962 20.0944 12.9927 19.9432 13.0235 19.7972C13.0543 19.6513 13.1186 19.5144 13.2113 19.3975C13.3087 19.2726 13.4335 19.1718 13.5761 19.1028C13.7188 19.0339 13.8753 18.9987 14.0338 19H17.9713C18.1297 18.9987 18.2862 19.0339 18.4289 19.1028C18.5715 19.1718 18.6963 19.2726 18.7938 19.3975C18.886 19.5146 18.9498 19.6516 18.9802 19.7975C19.0106 19.9435 19.0066 20.0945 18.9688 20.2388ZM9 16C8.99962 16.5903 9.07353 17.1782 9.22 17.75C9.25512 17.8779 9.26445 18.0115 9.24745 18.143C9.23046 18.2745 9.18748 18.4013 9.12101 18.5161C9.05454 18.6308 8.96591 18.7312 8.86028 18.8114C8.75465 18.8915 8.63413 18.9499 8.50573 18.983C8.37733 19.0162 8.24362 19.0235 8.11238 19.0045C7.98114 18.9855 7.85499 18.9406 7.74128 18.8723C7.62756 18.8041 7.52855 18.714 7.45 18.6071C7.37145 18.5003 7.31494 18.3789 7.28375 18.25C6.94174 16.9204 6.90844 15.5302 7.18639 14.1858C7.46434 12.8413 8.04618 11.5783 8.88738 10.4933C9.72858 9.40836 10.8068 8.53022 12.0396 7.9261C13.2725 7.32198 14.6271 7.00791 16 7.00791C17.3729 7.00791 18.7275 7.32198 19.9604 7.9261C21.1932 8.53022 22.2714 9.40836 23.1126 10.4933C23.9538 11.5783 24.5357 12.8413 24.8136 14.1858C25.0916 15.5302 25.0583 16.9204 24.7163 18.25C24.6609 18.4645 24.5358 18.6546 24.3607 18.7903C24.1856 18.9261 23.9703 18.9998 23.7488 19C23.6644 19 23.5805 18.9895 23.4988 18.9687C23.242 18.9025 23.0221 18.7371 22.8873 18.5088C22.7525 18.2805 22.7139 18.008 22.78 17.7512C23.027 16.7895 23.0665 15.7863 22.896 14.8081C22.7255 13.83 22.3489 12.8993 21.7911 12.0778C21.2333 11.2564 20.5072 10.563 19.6609 10.0437C18.8146 9.52445 17.8675 9.19116 16.8825 9.06598C15.8975 8.9408 14.8972 9.0266 13.9479 9.31769C12.9986 9.60877 12.1221 10.0985 11.3766 10.7543C10.6311 11.4101 10.0336 12.217 9.62384 13.1214C9.21409 14.0258 9.00144 15.0071 9 16ZM29 16C29.0017 18.1452 28.4718 20.2573 27.4577 22.1476C26.4437 24.038 24.9769 25.6476 23.1888 26.8325C22.9679 26.9739 22.7004 27.0229 22.4438 26.969C22.1873 26.915 21.9621 26.7625 21.8169 26.5442C21.6717 26.3259 21.618 26.0593 21.6675 25.8018C21.7169 25.5443 21.8655 25.3165 22.0813 25.1675C24.0501 23.8611 25.546 21.9553 26.3474 19.7325C27.1488 17.5096 27.2131 15.0878 26.5308 12.8255C25.8485 10.5633 24.4559 8.58084 22.5592 7.17174C20.6624 5.76263 18.3623 5.00176 15.9994 5.00176C13.6365 5.00176 11.3364 5.76263 9.43959 7.17174C7.54282 8.58084 6.15021 10.5633 5.46792 12.8255C4.78564 15.0878 4.84995 17.5096 5.65135 19.7325C6.45274 21.9553 7.94861 23.8611 9.9175 25.1675C10.0962 25.2864 10.2319 25.4597 10.3045 25.6617C10.3771 25.8637 10.3828 26.0838 10.3207 26.2893C10.2586 26.4948 10.1321 26.6748 9.95971 26.8028C9.78738 26.9308 9.57842 26.9999 9.36375 27C9.16703 27.0003 8.97469 26.942 8.81125 26.8325C6.93857 25.5896 5.42012 23.8825 4.4041 21.8776C3.38807 19.8728 2.90919 17.6388 3.0142 15.3936C3.1192 13.1485 3.8045 10.9689 5.00321 9.06769C6.20192 7.16643 7.87308 5.60844 9.85359 4.54578C11.8341 3.48311 14.0563 2.95208 16.3033 3.00452C18.5502 3.05695 20.7452 3.69105 22.674 4.84493C24.6028 5.99882 26.1995 7.63306 27.3082 9.58816C28.4169 11.5433 28.9998 13.7524 29 16Z" fill="#4A4A4F"/>
</svg>
