<svg width="32" height="32" viewBox="0 0 32 32" fill="none" xmlns="http://www.w3.org/2000/svg">
<path d="M27.9123 21.1988C27.8373 21.0274 27.7161 20.8802 27.5623 20.7738C25.441 19.3163 24.9998 16.83 24.9998 15C24.9998 12.7913 26.6835 10.8675 27.6873 9.91625C27.786 9.8228 27.8647 9.7102 27.9184 9.58533C27.9721 9.46046 27.9999 9.32595 27.9999 9.19C27.9999 9.05406 27.9721 8.91954 27.9184 8.79467C27.8647 8.6698 27.786 8.5572 27.6873 8.46375C26.1023 6.9675 23.4773 6 20.9998 6C19.2201 6.00137 17.4805 6.5289 15.9998 7.51625C14.2724 6.35795 12.1955 5.83776 10.1261 6.04513C8.05667 6.2525 6.12421 7.17448 4.66104 8.6525C3.78634 9.54549 3.10002 10.6052 2.64286 11.7686C2.18569 12.932 1.96701 14.1754 1.99979 15.425C2.04928 17.5341 2.51846 19.6122 3.37994 21.538C4.24142 23.4638 5.47794 25.1986 7.01729 26.6413C7.94454 27.5173 9.17289 28.0037 10.4485 28H21.4085C22.0905 28.0013 22.7655 27.8625 23.3916 27.5922C24.0178 27.3219 24.5817 26.9259 25.0485 26.4288C25.9133 25.4981 26.6613 24.4655 27.276 23.3538C28.1535 21.75 28.041 21.5 27.9123 21.1988ZM23.5835 25.0663C23.3044 25.3627 22.9672 25.5985 22.5931 25.7592C22.2189 25.9198 21.8157 26.0018 21.4085 26H10.4485C9.68451 26.0025 8.94876 25.7111 8.39354 25.1863C7.04613 23.9248 5.96361 22.4074 5.20921 20.7228C4.45481 19.0383 4.04367 17.2203 3.99979 15.375C3.97245 14.3946 4.14261 13.4187 4.50016 12.5054C4.85771 11.5921 5.39533 10.76 6.08104 10.0588C6.72169 9.40425 7.48706 8.88483 8.33191 8.53122C9.17676 8.17761 10.0839 7.99698 10.9998 8H11.0973C12.6551 8.01641 14.162 8.55716 15.3748 9.535C15.5522 9.67701 15.7726 9.75438 15.9998 9.75438C16.227 9.75438 16.4474 9.67701 16.6248 9.535C17.8636 8.5362 19.4085 7.99418 20.9998 8C22.5889 8.01845 24.1435 8.46541 25.4998 9.29375C23.8748 11.1088 22.9998 13.1025 22.9998 15C22.9998 17.9713 23.9548 20.3413 25.7723 21.9125C25.1999 23.0646 24.4626 24.127 23.5835 25.0663ZM16.0285 3.75C16.3059 2.67589 16.9325 1.72451 17.8099 1.04562C18.6872 0.366728 19.7655 -0.00111129 20.8748 2.52202e-06H20.9998C21.265 2.52202e-06 21.5194 0.105359 21.7069 0.292896C21.8944 0.480432 21.9998 0.734786 21.9998 1C21.9998 1.26522 21.8944 1.51957 21.7069 1.70711C21.5194 1.89465 21.265 2 20.9998 2H20.8748C20.2097 1.99994 19.5634 2.22093 19.0375 2.62821C18.5117 3.0355 18.1361 3.60599 17.9698 4.25C17.9035 4.50693 17.7378 4.727 17.5093 4.86179C17.2807 4.99658 17.008 5.03506 16.751 4.96875C16.4941 4.90245 16.274 4.7368 16.1393 4.50824C16.0045 4.27968 15.966 4.00693 16.0323 3.75H16.0285Z" fill="#4A4A4F"/>
</svg>
