<svg width="32" height="32" viewBox="0 0 32 32" fill="none" xmlns="http://www.w3.org/2000/svg">
<path d="M8.0425 24.5087L6.86125 26.5087C6.79444 26.6218 6.70601 26.7206 6.601 26.7995C6.496 26.8785 6.37647 26.9359 6.24926 26.9687C5.99233 27.0348 5.71967 26.9961 5.49125 26.8612C5.26283 26.7262 5.09737 26.5061 5.03126 26.2492C4.96516 25.9922 5.00382 25.7196 5.13875 25.4912L6.32125 23.4912C6.38646 23.375 6.47421 23.2731 6.57936 23.1913C6.68451 23.1095 6.80493 23.0496 6.93356 23.015C7.06219 22.9804 7.19644 22.9719 7.32842 22.9899C7.46039 23.0079 7.58744 23.0521 7.70211 23.1199C7.81677 23.1877 7.91674 23.2777 7.99614 23.3846C8.07554 23.4916 8.13278 23.6133 8.16448 23.7427C8.19619 23.872 8.20174 24.0064 8.18079 24.138C8.15984 24.2695 8.11282 24.3955 8.0425 24.5087ZM29 18.9999H23.025L19.1838 12.4999C19.1185 12.3838 19.0308 12.2818 18.9256 12.2001C18.8205 12.1183 18.7001 12.0583 18.5714 12.0238C18.4428 11.9892 18.3086 11.9806 18.1766 11.9986C18.0446 12.0166 17.9176 12.0608 17.8029 12.1286C17.6882 12.1964 17.5883 12.2864 17.5089 12.3934C17.4295 12.5003 17.3722 12.622 17.3405 12.7514C17.3088 12.8808 17.3033 13.0152 17.3242 13.1467C17.3452 13.2783 17.3922 13.4043 17.4625 13.5174L25.1388 26.5087C25.2737 26.7371 25.4938 26.9025 25.7507 26.9687C26.0077 27.0348 26.2803 26.9961 26.5088 26.8612C26.7372 26.7262 26.9026 26.5061 26.9687 26.2492C27.0348 25.9922 26.9962 25.7196 26.8612 25.4912L24.2075 20.9999H29C29.2652 20.9999 29.5196 20.8946 29.7071 20.707C29.8946 20.5195 30 20.2651 30 19.9999C30 19.7347 29.8946 19.4803 29.7071 19.2928C29.5196 19.1053 29.2652 18.9999 29 18.9999ZM17.8088 18.9999H11.2975L19.8612 4.50867C19.9962 4.28025 20.0348 4.00759 19.9687 3.75067C19.9026 3.49374 19.7372 3.2736 19.5088 3.13867C19.2803 3.00374 19.0077 2.96508 18.7507 3.03118C18.4938 3.09729 18.2737 3.26275 18.1388 3.49117L16 7.11117L13.8612 3.48617C13.7944 3.37307 13.706 3.27424 13.601 3.19531C13.496 3.11639 13.3765 3.05892 13.2493 3.02618C12.9923 2.96008 12.7197 2.99874 12.4913 3.13367C12.2628 3.2686 12.0974 3.48874 12.0313 3.74567C11.9652 4.00259 12.0038 4.27525 12.1388 4.50367L14.8387 9.07242L8.975 18.9999H3C2.73478 18.9999 2.48043 19.1053 2.29289 19.2928C2.10536 19.4803 2 19.7347 2 19.9999C2 20.2651 2.10536 20.5195 2.29289 20.707C2.48043 20.8946 2.73478 20.9999 3 20.9999H17.8088C18.074 20.9999 18.3283 20.8946 18.5159 20.707C18.7034 20.5195 18.8088 20.2651 18.8088 19.9999C18.8088 19.7347 18.7034 19.4803 18.5159 19.2928C18.3283 19.1053 18.074 18.9999 17.8088 18.9999Z" fill="#4A4A4F"/>
</svg>
