<svg width="32" height="32" viewBox="0 0 32 32" fill="none" xmlns="http://www.w3.org/2000/svg">
<path d="M27 5H5C4.46957 5 3.96086 5.21071 3.58579 5.58579C3.21071 5.96086 3 6.46957 3 7V25C3 25.5304 3.21071 26.0391 3.58579 26.4142C3.96086 26.7893 4.46957 27 5 27H27C27.5304 27 28.0391 26.7893 28.4142 26.4142C28.7893 26.0391 29 25.5304 29 25V7C29 6.46957 28.7893 5.96086 28.4142 5.58579C28.0391 5.21071 27.5304 5 27 5ZM27 25H5V7H27V25ZM10 10.5C10 10.7967 9.91203 11.0867 9.7472 11.3334C9.58238 11.58 9.34811 11.7723 9.07403 11.8858C8.79994 11.9994 8.49834 12.0291 8.20736 11.9712C7.91639 11.9133 7.64912 11.7704 7.43934 11.5607C7.22956 11.3509 7.0867 11.0836 7.02882 10.7926C6.97094 10.5017 7.00065 10.2001 7.11418 9.92597C7.22771 9.65189 7.41997 9.41762 7.66664 9.2528C7.91332 9.08797 8.20333 9 8.5 9C8.89782 9 9.27936 9.15804 9.56066 9.43934C9.84196 9.72064 10 10.1022 10 10.5ZM15 10.5C15 10.7967 14.912 11.0867 14.7472 11.3334C14.5824 11.58 14.3481 11.7723 14.074 11.8858C13.7999 11.9994 13.4983 12.0291 13.2074 11.9712C12.9164 11.9133 12.6491 11.7704 12.4393 11.5607C12.2296 11.3509 12.0867 11.0836 12.0288 10.7926C11.9709 10.5017 12.0006 10.2001 12.1142 9.92597C12.2277 9.65189 12.42 9.41762 12.6666 9.2528C12.9133 9.08797 13.2033 9 13.5 9C13.8978 9 14.2794 9.15804 14.5607 9.43934C14.842 9.72064 15 10.1022 15 10.5Z" fill="#4A4A4F"/>
</svg>
