<svg width="32" height="32" viewBox="0 0 32 32" fill="none" xmlns="http://www.w3.org/2000/svg">
<path d="M26 4H6C5.46957 4 4.96086 4.21071 4.58579 4.58579C4.21071 4.96086 4 5.46957 4 6V26C4 26.5304 4.21071 27.0391 4.58579 27.4142C4.96086 27.7893 5.46957 28 6 28H26C26.5304 28 27.0391 27.7893 27.4142 27.4142C27.7893 27.0391 28 26.5304 28 26V6C28 5.46957 27.7893 4.96086 27.4142 4.58579C27.0391 4.21071 26.5304 4 26 4ZM11.2925 14.2925C11.3854 14.1995 11.4957 14.1258 11.6171 14.0754C11.7385 14.0251 11.8686 13.9992 12 13.9992C12.1314 13.9992 12.2615 14.0251 12.3829 14.0754C12.5043 14.1258 12.6146 14.1995 12.7075 14.2925L15 16.5863V9C15 8.73478 15.1054 8.48043 15.2929 8.29289C15.4804 8.10536 15.7348 8 16 8C16.2652 8 16.5196 8.10536 16.7071 8.29289C16.8946 8.48043 17 8.73478 17 9V16.5863L19.2925 14.2925C19.3854 14.1996 19.4957 14.1259 19.6171 14.0756C19.7385 14.0253 19.8686 13.9994 20 13.9994C20.1314 13.9994 20.2615 14.0253 20.3829 14.0756C20.5043 14.1259 20.6146 14.1996 20.7075 14.2925C20.8004 14.3854 20.8741 14.4957 20.9244 14.6171C20.9747 14.7385 21.0006 14.8686 21.0006 15C21.0006 15.1314 20.9747 15.2615 20.9244 15.3829C20.8741 15.5043 20.8004 15.6146 20.7075 15.7075L16.7075 19.7075C16.6146 19.8005 16.5043 19.8742 16.3829 19.9246C16.2615 19.9749 16.1314 20.0008 16 20.0008C15.8686 20.0008 15.7385 19.9749 15.6171 19.9246C15.4957 19.8742 15.3854 19.8005 15.2925 19.7075L11.2925 15.7075C11.1995 15.6146 11.1258 15.5043 11.0754 15.3829C11.0251 15.2615 10.9992 15.1314 10.9992 15C10.9992 14.8686 11.0251 14.7385 11.0754 14.6171C11.1258 14.4957 11.1995 14.3854 11.2925 14.2925ZM26 26H6V21H9.58625L12 23.415C12.1853 23.6011 12.4056 23.7487 12.6483 23.8491C12.891 23.9495 13.1511 24.0008 13.4137 24H18.5863C18.849 24.0008 19.1093 23.9494 19.352 23.8488C19.5947 23.7482 19.815 23.6003 20 23.4137L22.4137 21H26V26Z" fill="#4A4A4F"/>
</svg>
