<svg width="32" height="32" viewBox="0 0 32 32" fill="none" xmlns="http://www.w3.org/2000/svg">
<path d="M27.895 8.5525L25.895 4.5525C25.8119 4.38636 25.6841 4.24667 25.526 4.14908C25.3679 4.05149 25.1858 3.99987 25 4H7C6.81422 3.99987 6.63208 4.05149 6.47399 4.14908C6.31591 4.24667 6.18814 4.38636 6.105 4.5525L4.105 8.5525C4.03607 8.69161 4.00014 8.84475 4 9V26C4 26.5304 4.21071 27.0391 4.58579 27.4142C4.96086 27.7893 5.46957 28 6 28H26C26.5304 28 27.0391 27.7893 27.4142 27.4142C27.7893 27.0391 28 26.5304 28 26V9C27.9999 8.84475 27.9639 8.69161 27.895 8.5525ZM7.6175 6H24.3825L25.3825 8H6.6175L7.6175 6ZM26 26H6V10H26V26ZM20.7075 18.2925C20.8005 18.3854 20.8742 18.4957 20.9246 18.6171C20.9749 18.7385 21.0008 18.8686 21.0008 19C21.0008 19.1314 20.9749 19.2615 20.9246 19.3829C20.8742 19.5043 20.8005 19.6146 20.7075 19.7075L16.7075 23.7075C16.6146 23.8005 16.5043 23.8742 16.3829 23.9246C16.2615 23.9749 16.1314 24.0008 16 24.0008C15.8686 24.0008 15.7385 23.9749 15.6171 23.9246C15.4957 23.8742 15.3854 23.8005 15.2925 23.7075L11.2925 19.7075C11.1049 19.5199 10.9994 19.2654 10.9994 19C10.9994 18.7346 11.1049 18.4801 11.2925 18.2925C11.4801 18.1049 11.7346 17.9994 12 17.9994C12.2654 17.9994 12.5199 18.1049 12.7075 18.2925L15 20.5863V13C15 12.7348 15.1054 12.4804 15.2929 12.2929C15.4804 12.1054 15.7348 12 16 12C16.2652 12 16.5196 12.1054 16.7071 12.2929C16.8946 12.4804 17 12.7348 17 13V20.5863L19.2925 18.2925C19.3854 18.1995 19.4957 18.1258 19.6171 18.0754C19.7385 18.0251 19.8686 17.9992 20 17.9992C20.1314 17.9992 20.2615 18.0251 20.3829 18.0754C20.5043 18.1258 20.6146 18.1995 20.7075 18.2925Z" fill="#4A4A4F"/>
</svg>
