<svg width="32" height="32" viewBox="0 0 32 32" fill="none" xmlns="http://www.w3.org/2000/svg">
<path d="M5 10.5138V9C5 7.67392 5.52678 6.40215 6.46447 5.46447C7.40215 4.52678 8.67392 4 10 4H22C23.3261 4 24.5979 4.52678 25.5355 5.46447C26.4732 6.40215 27 7.67392 27 9V10.5138C26.9995 10.5786 26.9862 10.6428 26.9607 10.7024C26.9352 10.7621 26.8981 10.8161 26.8516 10.8614C26.8051 10.9066 26.7501 10.9422 26.6897 10.966C26.6294 10.9898 26.5649 11.0013 26.5 11C25.2154 11.0019 23.9718 11.4527 22.9844 12.2744C21.9969 13.0961 21.3277 14.2371 21.0925 15.5H10.9075C10.6723 14.2371 10.0031 13.0961 9.01562 12.2744C8.02819 11.4527 6.78462 11.0019 5.5 11C5.43513 11.0013 5.37064 10.9898 5.31028 10.966C5.24992 10.9422 5.19488 10.9066 5.14837 10.8614C5.10185 10.8161 5.06479 10.7621 5.03932 10.7024C5.01385 10.6428 5.00048 10.5786 5 10.5138ZM26.5 13C25.5717 13 24.6815 13.3687 24.0251 14.0251C23.3687 14.6815 23 15.5717 23 16.5V21C23 21.2652 22.8946 21.5196 22.7071 21.7071C22.5196 21.8946 22.2652 22 22 22C21.7348 22 21.4804 21.8946 21.2929 21.7071C21.1054 21.5196 21 21.2652 21 21V17.5H11V21C11 21.2652 10.8946 21.5196 10.7071 21.7071C10.5196 21.8946 10.2652 22 10 22C9.73478 22 9.48043 21.8946 9.29289 21.7071C9.10536 21.5196 9 21.2652 9 21V16.5C9.00007 15.8291 8.80731 15.1723 8.44468 14.6079C8.08206 14.0434 7.56484 13.5951 6.95463 13.3162C6.34442 13.0374 5.66692 12.9398 5.00283 13.0351C4.33873 13.1304 3.71602 13.4146 3.20885 13.8538C2.70167 14.293 2.33141 14.8687 2.14215 15.5123C1.95289 16.156 1.95261 16.8404 2.14134 17.4842C2.33008 18.1281 2.69987 18.7041 3.20669 19.1436C3.7135 19.5832 4.33598 19.8679 5 19.9638V25C5 25.5304 5.21071 26.0391 5.58579 26.4142C5.96086 26.7893 6.46957 27 7 27H25C25.5304 27 26.0391 26.7893 26.4142 26.4142C26.7893 26.0391 27 25.5304 27 25V19.9638C27.8753 19.8368 28.6701 19.3832 29.2245 18.6941C29.7789 18.005 30.0519 17.1315 29.9886 16.2493C29.9252 15.3672 29.5303 14.5417 28.8831 13.9389C28.2359 13.3361 27.3844 13.0006 26.5 13Z" fill="#4A4A4F"/>
</svg>
