<svg width="32" height="32" viewBox="0 0 32 32" fill="none" xmlns="http://www.w3.org/2000/svg">
<path d="M26 4H6C5.46957 4 4.96086 4.21071 4.58579 4.58579C4.21071 4.96086 4 5.46957 4 6V26C4 26.5304 4.21071 27.0391 4.58579 27.4142C4.96086 27.7893 5.46957 28 6 28H26C26.5304 28 27.0391 27.7893 27.4142 27.4142C27.7893 27.0391 28 26.5304 28 26V6C28 5.46957 27.7893 4.96086 27.4142 4.58579C27.0391 4.21071 26.5304 4 26 4ZM20.7075 15.7075C20.6146 15.8005 20.5043 15.8742 20.3829 15.9246C20.2615 15.9749 20.1314 16.0008 20 16.0008C19.8686 16.0008 19.7385 15.9749 19.6171 15.9246C19.4957 15.8742 19.3854 15.8005 19.2925 15.7075L17 13.4137V21C17 21.2652 16.8946 21.5196 16.7071 21.7071C16.5196 21.8946 16.2652 22 16 22C15.7348 22 15.4804 21.8946 15.2929 21.7071C15.1054 21.5196 15 21.2652 15 21V13.4137L12.7075 15.7075C12.5199 15.8951 12.2654 16.0006 12 16.0006C11.7346 16.0006 11.4801 15.8951 11.2925 15.7075C11.1049 15.5199 10.9994 15.2654 10.9994 15C10.9994 14.7346 11.1049 14.4801 11.2925 14.2925L15.2925 10.2925C15.3854 10.1995 15.4957 10.1258 15.6171 10.0754C15.7385 10.0251 15.8686 9.99921 16 9.99921C16.1314 9.99921 16.2615 10.0251 16.3829 10.0754C16.5043 10.1258 16.6146 10.1995 16.7075 10.2925L20.7075 14.2925C20.8005 14.3854 20.8742 14.4957 20.9246 14.6171C20.9749 14.7385 21.0008 14.8686 21.0008 15C21.0008 15.1314 20.9749 15.2615 20.9246 15.3829C20.8742 15.5043 20.8005 15.6146 20.7075 15.7075Z" fill="#4A4A4F"/>
</svg>
