<svg width="32" height="32" viewBox="0 0 32 32" fill="none" xmlns="http://www.w3.org/2000/svg">
<path d="M6.2925 14.7075C6.15249 14.5676 6.05712 14.3894 6.01847 14.1953C5.97982 14.0012 5.99962 13.8 6.07538 13.6172C6.15113 13.4344 6.27942 13.2782 6.44402 13.1683C6.60861 13.0584 6.8021 12.9998 7 13H15V4C15 3.73478 15.1054 3.48043 15.2929 3.29289C15.4804 3.10536 15.7348 3 16 3C16.2652 3 16.5196 3.10536 16.7071 3.29289C16.8946 3.48043 17 3.73478 17 4V13H25C25.1979 12.9998 25.3914 13.0584 25.556 13.1683C25.7206 13.2782 25.8489 13.4344 25.9246 13.6172C26.0004 13.8 26.0202 14.0012 25.9815 14.1953C25.9429 14.3894 25.8475 14.5676 25.7075 14.7075L16.7075 23.7075C16.6146 23.8005 16.5043 23.8742 16.3829 23.9246C16.2615 23.9749 16.1314 24.0008 16 24.0008C15.8686 24.0008 15.7385 23.9749 15.6171 23.9246C15.4957 23.8742 15.3854 23.8005 15.2925 23.7075L6.2925 14.7075ZM27 26H5C4.73478 26 4.48043 26.1054 4.29289 26.2929C4.10536 26.4804 4 26.7348 4 27C4 27.2652 4.10536 27.5196 4.29289 27.7071C4.48043 27.8946 4.73478 28 5 28H27C27.2652 28 27.5196 27.8946 27.7071 27.7071C27.8946 27.5196 28 27.2652 28 27C28 26.7348 27.8946 26.4804 27.7071 26.2929C27.5196 26.1054 27.2652 26 27 26Z" fill="#4A4A4F"/>
</svg>
