<svg width="32" height="32" viewBox="0 0 32 32" fill="none" xmlns="http://www.w3.org/2000/svg">
<path d="M6.2925 14.7075C6.10486 14.5199 5.99944 14.2654 5.99944 14C5.99944 13.7346 6.10486 13.4801 6.2925 13.2925C6.48014 13.1049 6.73464 12.9994 7 12.9994C7.26536 12.9994 7.51986 13.1049 7.7075 13.2925L15 20.5863V4C15 3.73478 15.1054 3.48043 15.2929 3.29289C15.4804 3.10536 15.7348 3 16 3C16.2652 3 16.5196 3.10536 16.7071 3.29289C16.8946 3.48043 17 3.73478 17 4V20.5863L24.2925 13.2925C24.3854 13.1996 24.4957 13.1259 24.6171 13.0756C24.7385 13.0253 24.8686 12.9994 25 12.9994C25.1314 12.9994 25.2615 13.0253 25.3829 13.0756C25.5043 13.1259 25.6146 13.1996 25.7075 13.2925C25.8004 13.3854 25.8741 13.4957 25.9244 13.6171C25.9747 13.7385 26.0006 13.8686 26.0006 14C26.0006 14.1314 25.9747 14.2615 25.9244 14.3829C25.8741 14.5043 25.8004 14.6146 25.7075 14.7075L16.7075 23.7075C16.6146 23.8005 16.5043 23.8742 16.3829 23.9246C16.2615 23.9749 16.1314 24.0008 16 24.0008C15.8686 24.0008 15.7385 23.9749 15.6171 23.9246C15.4957 23.8742 15.3854 23.8005 15.2925 23.7075L6.2925 14.7075ZM27 26H5C4.73478 26 4.48043 26.1054 4.29289 26.2929C4.10536 26.4804 4 26.7348 4 27C4 27.2652 4.10536 27.5196 4.29289 27.7071C4.48043 27.8946 4.73478 28 5 28H27C27.2652 28 27.5196 27.8946 27.7071 27.7071C27.8946 27.5196 28 27.2652 28 27C28 26.7348 27.8946 26.4804 27.7071 26.2929C27.5196 26.1054 27.2652 26 27 26Z" fill="#4A4A4F"/>
</svg>
