<svg width="32" height="32" viewBox="0 0 32 32" fill="none" xmlns="http://www.w3.org/2000/svg">
<path d="M28.9998 14C28.9975 16.121 28.1539 18.1545 26.6541 19.6543C25.1543 21.1541 23.1208 21.9977 20.9998 22H6.41356L10.7073 26.2925C10.895 26.4801 11.0004 26.7346 11.0004 27C11.0004 27.2654 10.895 27.5199 10.7073 27.7075C10.5197 27.8951 10.2652 28.0006 9.99981 28.0006C9.73445 28.0006 9.47995 27.8951 9.29231 27.7075L3.29231 21.7075C3.19933 21.6146 3.12557 21.5043 3.07525 21.3829C3.02493 21.2615 2.99902 21.1314 2.99902 21C2.99902 20.8686 3.02493 20.7385 3.07525 20.6171C3.12557 20.4957 3.19933 20.3854 3.29231 20.2925L9.29231 14.2925C9.47995 14.1049 9.73445 13.9994 9.99981 13.9994C10.2652 13.9994 10.5197 14.1049 10.7073 14.2925C10.895 14.4801 11.0004 14.7346 11.0004 15C11.0004 15.2654 10.895 15.5199 10.7073 15.7075L6.41356 20H20.9998C22.5911 20 24.1172 19.3679 25.2425 18.2426C26.3677 17.1174 26.9998 15.5913 26.9998 14C26.9998 12.4087 26.3677 10.8826 25.2425 9.75736C24.1172 8.63214 22.5911 8 20.9998 8H9.99981C9.73459 8 9.48024 7.89464 9.2927 7.70711C9.10517 7.51957 8.99981 7.26522 8.99981 7C8.99981 6.73478 9.10517 6.48043 9.2927 6.29289C9.48024 6.10536 9.73459 6 9.99981 6H20.9998C23.1208 6.00232 25.1543 6.84591 26.6541 8.3457C28.1539 9.84549 28.9975 11.879 28.9998 14Z" fill="#4A4A4F"/>
</svg>
