<svg width="32" height="32" viewBox="0 0 32 32" fill="none" xmlns="http://www.w3.org/2000/svg">
<path d="M28.7075 12.7073C28.6146 12.8003 28.5043 12.874 28.3829 12.9244C28.2615 12.9747 28.1314 13.0006 28 13.0006C27.8686 13.0006 27.7385 12.9747 27.6171 12.9244C27.4957 12.874 27.3854 12.8003 27.2925 12.7073L23 8.41356V23.9998C23 24.265 22.8946 24.5194 22.7071 24.7069C22.5196 24.8945 22.2652 24.9998 22 24.9998H4C3.73478 24.9998 3.48043 24.8945 3.29289 24.7069C3.10536 24.5194 3 24.265 3 23.9998C3 23.7346 3.10536 23.4802 3.29289 23.2927C3.48043 23.1052 3.73478 22.9998 4 22.9998H21V8.41356L16.7075 12.7073C16.5199 12.895 16.2654 13.0004 16 13.0004C15.7346 13.0004 15.4801 12.895 15.2925 12.7073C15.1049 12.5197 14.9994 12.2652 14.9994 11.9998C14.9994 11.7344 15.1049 11.48 15.2925 11.2923L21.2925 5.29231C21.3854 5.19933 21.4957 5.12557 21.6171 5.07525C21.7385 5.02493 21.8686 4.99902 22 4.99902C22.1314 4.99902 22.2615 5.02493 22.3829 5.07525C22.5043 5.12557 22.6146 5.19933 22.7075 5.29231L28.7075 11.2923C28.8005 11.3852 28.8742 11.4955 28.9246 11.6169C28.9749 11.7383 29.0008 11.8684 29.0008 11.9998C29.0008 12.1312 28.9749 12.2614 28.9246 12.3828C28.8742 12.5041 28.8005 12.6144 28.7075 12.7073Z" fill="#4A4A4F"/>
</svg>
