<svg width="32" height="32" viewBox="0 0 32 32" fill="none" xmlns="http://www.w3.org/2000/svg">
<path d="M29.0001 23.9998C29.0001 24.265 28.8947 24.5194 28.7072 24.7069C28.5196 24.8945 28.2653 24.9998 28.0001 24.9998H10.0001C9.73485 24.9998 9.4805 24.8945 9.29296 24.7069C9.10542 24.5194 9.00007 24.265 9.00007 23.9998V8.41356L4.70757 12.7073C4.51993 12.895 4.26543 13.0004 4.00007 13.0004C3.7347 13.0004 3.48021 12.895 3.29257 12.7073C3.10493 12.5197 2.99951 12.2652 2.99951 11.9998C2.99951 11.7344 3.10493 11.48 3.29257 11.2923L9.29257 5.29231C9.38544 5.19933 9.49573 5.12557 9.61713 5.07525C9.73853 5.02493 9.86865 4.99902 10.0001 4.99902C10.1315 4.99902 10.2616 5.02493 10.383 5.07525C10.5044 5.12557 10.6147 5.19933 10.7076 5.29231L16.7076 11.2923C16.8952 11.48 17.0006 11.7344 17.0006 11.9998C17.0006 12.2652 16.8952 12.5197 16.7076 12.7073C16.5199 12.895 16.2654 13.0004 16.0001 13.0004C15.7347 13.0004 15.4802 12.895 15.2926 12.7073L11.0001 8.41356V22.9998H28.0001C28.2653 22.9998 28.5196 23.1052 28.7072 23.2927C28.8947 23.4802 29.0001 23.7346 29.0001 23.9998Z" fill="#4A4A4F"/>
</svg>
