<svg width="32" height="32" viewBox="0 0 32 32" fill="none" xmlns="http://www.w3.org/2000/svg">
<path d="M27.7075 10.7073C27.6146 10.8003 27.5043 10.874 27.3829 10.9244C27.2615 10.9747 27.1314 11.0006 27 11.0006C26.8686 11.0006 26.7385 10.9747 26.6171 10.9244C26.4957 10.874 26.3854 10.8003 26.2925 10.7073L22 6.41356V20.9998C22 23.1215 21.1571 25.1564 19.6569 26.6567C18.1566 28.157 16.1217 28.9998 14 28.9998C11.8783 28.9998 9.84344 28.157 8.34315 26.6567C6.84285 25.1564 6 23.1215 6 20.9998V9.99981C6 9.73459 6.10536 9.48024 6.29289 9.2927C6.48043 9.10517 6.73478 8.99981 7 8.99981C7.26522 8.99981 7.51957 9.10517 7.70711 9.2927C7.89464 9.48024 8 9.73459 8 9.99981V20.9998C8 22.5911 8.63214 24.1172 9.75736 25.2425C10.8826 26.3677 12.4087 26.9998 14 26.9998C15.5913 26.9998 17.1174 26.3677 18.2426 25.2425C19.3679 24.1172 20 22.5911 20 20.9998V6.41356L15.7075 10.7073C15.5199 10.895 15.2654 11.0004 15 11.0004C14.7346 11.0004 14.4801 10.895 14.2925 10.7073C14.1049 10.5197 13.9994 10.2652 13.9994 9.99981C13.9994 9.73445 14.1049 9.47995 14.2925 9.29231L20.2925 3.29231C20.3854 3.19933 20.4957 3.12557 20.6171 3.07525C20.7385 3.02493 20.8686 2.99902 21 2.99902C21.1314 2.99902 21.2615 3.02493 21.3829 3.07525C21.5043 3.12557 21.6146 3.19933 21.7075 3.29231L27.7075 9.29231C27.8005 9.38518 27.8742 9.49547 27.9246 9.61687C27.9749 9.73827 28.0008 9.86839 28.0008 9.99981C28.0008 10.1312 27.9749 10.2614 27.9246 10.3828C27.8742 10.5041 27.8005 10.6144 27.7075 10.7073Z" fill="#4A4A4F"/>
</svg>
