<svg width="32" height="32" viewBox="0 0 32 32" fill="none" xmlns="http://www.w3.org/2000/svg">
<path d="M28.7075 21.7075L22.7075 27.7075C22.5676 27.8475 22.3894 27.9429 22.1953 27.9815C22.0012 28.0202 21.8 28.0004 21.6172 27.9246C21.4344 27.8489 21.2782 27.7206 21.1683 27.556C21.0584 27.3914 20.9998 27.1979 21 27V22H11C8.87827 22 6.84344 21.1571 5.34315 19.6569C3.84285 18.1566 3 16.1217 3 14C3 11.8783 3.84285 9.84344 5.34315 8.34315C6.84344 6.84285 8.87827 6 11 6H22C22.2652 6 22.5196 6.10536 22.7071 6.29289C22.8946 6.48043 23 6.73478 23 7C23 7.26522 22.8946 7.51957 22.7071 7.70711C22.5196 7.89464 22.2652 8 22 8H11C9.4087 8 7.88258 8.63214 6.75736 9.75736C5.63214 10.8826 5 12.4087 5 14C5 15.5913 5.63214 17.1174 6.75736 18.2426C7.88258 19.3679 9.4087 20 11 20H21V15C20.9998 14.8021 21.0584 14.6086 21.1683 14.444C21.2782 14.2794 21.4344 14.1511 21.6172 14.0754C21.8 13.9996 22.0012 13.9798 22.1953 14.0185C22.3894 14.0571 22.5676 14.1525 22.7075 14.2925L28.7075 20.2925C28.8005 20.3854 28.8742 20.4957 28.9246 20.6171C28.9749 20.7385 29.0008 20.8686 29.0008 21C29.0008 21.1314 28.9749 21.2615 28.9246 21.3829C28.8742 21.5043 28.8005 21.6146 28.7075 21.7075Z" fill="#4A4A4F"/>
</svg>
