<svg width="32" height="32" viewBox="0 0 32 32" fill="none" xmlns="http://www.w3.org/2000/svg">
<path d="M14.9236 21.6173C14.9994 21.8 15.0193 22.0011 14.9808 22.1951C14.9423 22.3891 14.8471 22.5674 14.7073 22.7073L10.7073 26.7073C10.6144 26.8003 10.5041 26.874 10.3828 26.9244C10.2614 26.9747 10.1312 27.0006 9.99981 27.0006C9.8684 27.0006 9.73827 26.9747 9.61687 26.9244C9.49547 26.874 9.38518 26.8003 9.29231 26.7073L5.29231 22.7073C5.1523 22.5675 5.05693 22.3892 5.01828 22.1951C4.97963 22.001 4.99944 21.7998 5.07519 21.617C5.15094 21.4342 5.27923 21.278 5.44383 21.1681C5.60842 21.0582 5.80192 20.9997 5.99981 20.9998H8.99981V5.99981C8.99981 5.73459 9.10517 5.48024 9.2927 5.2927C9.48024 5.10517 9.73459 4.99981 9.99981 4.99981C10.265 4.99981 10.5194 5.10517 10.7069 5.2927C10.8945 5.48024 10.9998 5.73459 10.9998 5.99981V20.9998H13.9998C14.1976 20.9998 14.3909 21.0585 14.5553 21.1685C14.7198 21.2784 14.8479 21.4346 14.9236 21.6173ZM26.7073 9.29231L22.7073 5.29231C22.6144 5.19933 22.5042 5.12557 22.3828 5.07525C22.2614 5.02493 22.1312 4.99902 21.9998 4.99902C21.8684 4.99902 21.7383 5.02493 21.6169 5.07525C21.4955 5.12557 21.3852 5.19933 21.2923 5.29231L17.2923 9.29231C17.1523 9.43217 17.0569 9.61042 17.0183 9.8045C16.9796 9.99859 16.9994 10.1998 17.0752 10.3826C17.1509 10.5654 17.2792 10.7217 17.4438 10.8315C17.6084 10.9414 17.8019 11 17.9998 10.9998H20.9998V25.9998C20.9998 26.265 21.1052 26.5194 21.2927 26.7069C21.4802 26.8945 21.7346 26.9998 21.9998 26.9998C22.265 26.9998 22.5194 26.8945 22.7069 26.7069C22.8945 26.5194 22.9998 26.265 22.9998 25.9998V10.9998H25.9998C26.1977 11 26.3912 10.9414 26.5558 10.8315C26.7204 10.7217 26.8487 10.5654 26.9244 10.3826C27.0002 10.1998 27.02 9.99859 26.9813 9.8045C26.9427 9.61042 26.8473 9.43217 26.7073 9.29231Z" fill="#4A4A4F"/>
</svg>
