<svg width="32" height="32" viewBox="0 0 32 32" fill="none" xmlns="http://www.w3.org/2000/svg">
<path d="M8.99981 5C8.99981 4.73478 9.10517 4.48043 9.2927 4.29289C9.48024 4.10536 9.73459 4 9.99981 4H21.9998C22.265 4 22.5194 4.10536 22.7069 4.29289C22.8945 4.48043 22.9998 4.73478 22.9998 5C22.9998 5.26522 22.8945 5.51957 22.7069 5.70711C22.5194 5.89464 22.265 6 21.9998 6H9.99981C9.73459 6 9.48024 5.89464 9.2927 5.70711C9.10517 5.51957 8.99981 5.26522 8.99981 5ZM28.9236 16.6175C28.8479 16.4348 28.7198 16.2786 28.5553 16.1686C28.3909 16.0587 28.1976 16 27.9998 16H22.9998V9C22.9998 8.73478 22.8945 8.48043 22.7069 8.29289C22.5194 8.10536 22.265 8 21.9998 8H9.99981C9.73459 8 9.48024 8.10536 9.2927 8.29289C9.10517 8.48043 8.99981 8.73478 8.99981 9V16H3.99981C3.80192 15.9998 3.60842 16.0584 3.44383 16.1683C3.27923 16.2782 3.15094 16.4344 3.07519 16.6172C2.99944 16.8 2.97963 17.0012 3.01828 17.1953C3.05693 17.3894 3.1523 17.5676 3.29231 17.7075L15.2923 29.7075C15.3852 29.8005 15.4955 29.8742 15.6169 29.9246C15.7383 29.9749 15.8684 30.0008 15.9998 30.0008C16.1312 30.0008 16.2614 29.9749 16.3828 29.9246C16.5041 29.8742 16.6144 29.8005 16.7073 29.7075L28.7073 17.7075C28.8471 17.5676 28.9423 17.3893 28.9808 17.1953C29.0193 17.0013 28.9994 16.8002 28.9236 16.6175Z" fill="#4A4A4F"/>
</svg>
