<svg width="32" height="32" viewBox="0 0 32 32" fill="none" xmlns="http://www.w3.org/2000/svg">
<path d="M12.9998 16C12.9998 16.2652 12.8945 16.5196 12.7069 16.7071C12.5194 16.8946 12.265 17 11.9998 17H6.99981V20C6.99997 20.1979 6.9414 20.3914 6.83153 20.556C6.72166 20.7206 6.56542 20.8489 6.3826 20.9246C6.19978 21.0004 5.99859 21.0202 5.8045 20.9815C5.61042 20.9429 5.43217 20.8475 5.29231 20.7075L1.29231 16.7075C1.19933 16.6146 1.12557 16.5043 1.07525 16.3829C1.02493 16.2615 0.999023 16.1314 0.999023 16C0.999023 15.8686 1.02493 15.7385 1.07525 15.6171C1.12557 15.4957 1.19933 15.3854 1.29231 15.2925L5.29231 11.2925C5.43217 11.1525 5.61042 11.0571 5.8045 11.0185C5.99859 10.9798 6.19978 10.9996 6.3826 11.0754C6.56542 11.1511 6.72166 11.2794 6.83153 11.444C6.9414 11.6086 6.99997 11.8021 6.99981 12V15H11.9998C12.265 15 12.5194 15.1054 12.7069 15.2929C12.8945 15.4804 12.9998 15.7348 12.9998 16ZM30.7073 15.2925L26.7073 11.2925C26.5675 11.1525 26.3892 11.0571 26.1951 11.0185C26.001 10.9798 25.7998 10.9996 25.617 11.0754C25.4342 11.1511 25.278 11.2794 25.1681 11.444C25.0582 11.6086 24.9997 11.8021 24.9998 12V15H19.9998C19.7346 15 19.4802 15.1054 19.2927 15.2929C19.1052 15.4804 18.9998 15.7348 18.9998 16C18.9998 16.2652 19.1052 16.5196 19.2927 16.7071C19.4802 16.8946 19.7346 17 19.9998 17H24.9998V20C24.9997 20.1979 25.0582 20.3914 25.1681 20.556C25.278 20.7206 25.4342 20.8489 25.617 20.9246C25.7998 21.0004 26.001 21.0202 26.1951 20.9815C26.3892 20.9429 26.5675 20.8475 26.7073 20.7075L30.7073 16.7075C30.8003 16.6146 30.874 16.5043 30.9244 16.3829C30.9747 16.2615 31.0006 16.1314 31.0006 16C31.0006 15.8686 30.9747 15.7385 30.9244 15.6171C30.874 15.4957 30.8003 15.3854 30.7073 15.2925ZM15.9998 4C15.7346 4 15.4802 4.10536 15.2927 4.29289C15.1052 4.48043 14.9998 4.73478 14.9998 5V27C14.9998 27.2652 15.1052 27.5196 15.2927 27.7071C15.4802 27.8946 15.7346 28 15.9998 28C16.265 28 16.5194 27.8946 16.7069 27.7071C16.8945 27.5196 16.9998 27.2652 16.9998 27V5C16.9998 4.73478 16.8945 4.48043 16.7069 4.29289C16.5194 4.10536 16.265 4 15.9998 4Z" fill="#4A4A4F"/>
</svg>
