<svg width="32" height="32" viewBox="0 0 32 32" fill="none" xmlns="http://www.w3.org/2000/svg">
<path d="M16.0001 17V25C16.0001 25.2652 15.8947 25.5196 15.7072 25.7071C15.5196 25.8946 15.2653 26 15.0001 26C14.7349 26 14.4805 25.8946 14.293 25.7071C14.1054 25.5196 14.0001 25.2652 14.0001 25V19.415L5.70757 27.7075C5.61466 27.8004 5.50436 27.8741 5.38296 27.9244C5.26157 27.9747 5.13146 28.0006 5.00007 28.0006C4.86867 28.0006 4.73856 27.9747 4.61717 27.9244C4.49578 27.8741 4.38548 27.8004 4.29257 27.7075C4.19966 27.6146 4.12596 27.5043 4.07567 27.3829C4.02539 27.2615 3.99951 27.1314 3.99951 27C3.99951 26.8686 4.02539 26.7385 4.07567 26.6171C4.12596 26.4957 4.19966 26.3854 4.29257 26.2925L12.5851 18H7.00007C6.73485 18 6.4805 17.8946 6.29296 17.7071C6.10542 17.5196 6.00007 17.2652 6.00007 17C6.00007 16.7348 6.10542 16.4804 6.29296 16.2929C6.4805 16.1054 6.73485 16 7.00007 16H15.0001C15.2653 16 15.5196 16.1054 15.7072 16.2929C15.8947 16.4804 16.0001 16.7348 16.0001 17ZM26.0001 4H10.0001C9.46963 4 8.96093 4.21071 8.58585 4.58579C8.21078 4.96086 8.00007 5.46957 8.00007 6V12C8.00007 12.2652 8.10542 12.5196 8.29296 12.7071C8.4805 12.8946 8.73485 13 9.00007 13C9.26528 13 9.51964 12.8946 9.70717 12.7071C9.89471 12.5196 10.0001 12.2652 10.0001 12V6H26.0001V22H20.0001C19.7349 22 19.4805 22.1054 19.293 22.2929C19.1054 22.4804 19.0001 22.7348 19.0001 23C19.0001 23.2652 19.1054 23.5196 19.293 23.7071C19.4805 23.8946 19.7349 24 20.0001 24H26.0001C26.5305 24 27.0392 23.7893 27.4143 23.4142C27.7894 23.0391 28.0001 22.5304 28.0001 22V6C28.0001 5.46957 27.7894 4.96086 27.4143 4.58579C27.0392 4.21071 26.5305 4 26.0001 4Z" fill="#4A4A4F"/>
</svg>
