<svg width="32" height="32" viewBox="0 0 32 32" fill="none" xmlns="http://www.w3.org/2000/svg">
<path d="M25.0001 11.0001V24.0001C25.0001 24.2653 24.8947 24.5196 24.7072 24.7072C24.5196 24.8947 24.2653 25.0001 24.0001 25.0001H11.0001C10.8022 25.0002 10.6087 24.9417 10.4441 24.8318C10.2795 24.7219 10.1512 24.5657 10.0754 24.3829C9.99969 24.2 9.97989 23.9988 10.0185 23.8048C10.0572 23.6107 10.1526 23.4324 10.2926 23.2926L16.0863 17.5001L7.29257 8.70757C7.10493 8.51993 6.99951 8.26543 6.99951 8.00007C6.99951 7.7347 7.10493 7.48021 7.29257 7.29257C7.48021 7.10493 7.7347 6.99951 8.00007 6.99951C8.26543 6.99951 8.51993 7.10493 8.70757 7.29257L17.5001 16.0863L23.2926 10.2926C23.4324 10.1526 23.6107 10.0572 23.8048 10.0185C23.9988 9.97989 24.2 9.99969 24.3829 10.0754C24.5657 10.1512 24.7219 10.2795 24.8318 10.4441C24.9417 10.6087 25.0002 10.8022 25.0001 11.0001Z" fill="#4A4A4F"/>
</svg>
