<svg width="32" height="32" viewBox="0 0 32 32" fill="none" xmlns="http://www.w3.org/2000/svg">
<path d="M27.9998 15.9998C27.9998 16.265 27.8945 16.5194 27.7069 16.7069C27.5194 16.8945 27.265 16.9998 26.9998 16.9998H14.9998V24.9998C15 25.1977 14.9414 25.3912 14.8315 25.5558C14.7217 25.7204 14.5654 25.8487 14.3826 25.9244C14.1998 26.0002 13.9986 26.02 13.8045 25.9813C13.6104 25.9427 13.4322 25.8473 13.2923 25.7073L4.29231 16.7073C4.19933 16.6144 4.12557 16.5041 4.07525 16.3828C4.02493 16.2614 3.99902 16.1312 3.99902 15.9998C3.99902 15.8684 4.02493 15.7383 4.07525 15.6169C4.12557 15.4955 4.19933 15.3852 4.29231 15.2923L13.2923 6.29231C13.4322 6.1523 13.6104 6.05693 13.8045 6.01828C13.9986 5.97963 14.1998 5.99944 14.3826 6.07519C14.5654 6.15094 14.7217 6.27923 14.8315 6.44383C14.9414 6.60842 15 6.80192 14.9998 6.99981V14.9998H26.9998C27.265 14.9998 27.5194 15.1052 27.7069 15.2927C27.8945 15.4802 27.9998 15.7346 27.9998 15.9998Z" fill="#4A4A4F"/>
</svg>
