<svg width="32" height="32" viewBox="0 0 32 32" fill="none" xmlns="http://www.w3.org/2000/svg">
<path d="M28.7075 20.7075L22.7075 26.7075C22.6146 26.8005 22.5043 26.8742 22.3829 26.9246C22.2615 26.9749 22.1314 27.0008 22 27.0008C21.8686 27.0008 21.7385 26.9749 21.6171 26.9246C21.4957 26.8742 21.3854 26.8005 21.2925 26.7075L15.2925 20.7075C15.1049 20.5199 14.9994 20.2654 14.9994 20C14.9994 19.7346 15.1049 19.4801 15.2925 19.2925C15.4801 19.1049 15.7346 18.9994 16 18.9994C16.2654 18.9994 16.5199 19.1049 16.7075 19.2925L21 23.5863V9H4C3.73478 9 3.48043 8.89464 3.29289 8.70711C3.10536 8.51957 3 8.26522 3 8C3 7.73478 3.10536 7.48043 3.29289 7.29289C3.48043 7.10536 3.73478 7 4 7H22C22.2652 7 22.5196 7.10536 22.7071 7.29289C22.8946 7.48043 23 7.73478 23 8V23.5863L27.2925 19.2925C27.4801 19.1049 27.7346 18.9994 28 18.9994C28.2654 18.9994 28.5199 19.1049 28.7075 19.2925C28.8951 19.4801 29.0006 19.7346 29.0006 20C29.0006 20.2654 28.8951 20.5199 28.7075 20.7075Z" fill="#4A4A4F"/>
</svg>
