<svg width="32" height="32" viewBox="0 0 32 32" fill="none" xmlns="http://www.w3.org/2000/svg">
<path d="M28 15.9998C28 16.265 27.8946 16.5194 27.7071 16.7069C27.5196 16.8945 27.2652 16.9998 27 16.9998H5C4.73478 16.9998 4.48043 16.8945 4.29289 16.7069C4.10536 16.5194 4 16.265 4 15.9998C4 15.7346 4.10536 15.4802 4.29289 15.2927C4.48043 15.1052 4.73478 14.9998 5 14.9998H27C27.2652 14.9998 27.5196 15.1052 27.7071 15.2927C27.8946 15.4802 28 15.7346 28 15.9998ZM12.7075 6.70731L15 4.41356V11.9998C15 12.265 15.1054 12.5194 15.2929 12.7069C15.4804 12.8945 15.7348 12.9998 16 12.9998C16.2652 12.9998 16.5196 12.8945 16.7071 12.7069C16.8946 12.5194 17 12.265 17 11.9998V4.41356L19.2925 6.70731C19.4801 6.89495 19.7346 7.00037 20 7.00037C20.2654 7.00037 20.5199 6.89495 20.7075 6.70731C20.8951 6.51967 21.0006 6.26517 21.0006 5.99981C21.0006 5.73445 20.8951 5.47995 20.7075 5.29231L16.7075 1.29231C16.6146 1.19933 16.5043 1.12557 16.3829 1.07525C16.2615 1.02493 16.1314 0.999023 16 0.999023C15.8686 0.999023 15.7385 1.02493 15.6171 1.07525C15.4957 1.12557 15.3854 1.19933 15.2925 1.29231L11.2925 5.29231C11.1049 5.47995 10.9994 5.73445 10.9994 5.99981C10.9994 6.26517 11.1049 6.51967 11.2925 6.70731C11.4801 6.89495 11.7346 7.00037 12 7.00037C12.2654 7.00037 12.5199 6.89495 12.7075 6.70731ZM19.2925 25.2923L17 27.5861V19.9998C17 19.7346 16.8946 19.4802 16.7071 19.2927C16.5196 19.1052 16.2652 18.9998 16 18.9998C15.7348 18.9998 15.4804 19.1052 15.2929 19.2927C15.1054 19.4802 15 19.7346 15 19.9998V27.5861L12.7075 25.2923C12.5199 25.1047 12.2654 24.9993 12 24.9993C11.7346 24.9993 11.4801 25.1047 11.2925 25.2923C11.1049 25.4799 10.9994 25.7344 10.9994 25.9998C10.9994 26.2652 11.1049 26.5197 11.2925 26.7073L15.2925 30.7073C15.3854 30.8003 15.4957 30.874 15.6171 30.9244C15.7385 30.9747 15.8686 31.0006 16 31.0006C16.1314 31.0006 16.2615 30.9747 16.3829 30.9244C16.5043 30.874 16.6146 30.8003 16.7075 30.7073L20.7075 26.7073C20.8951 26.5197 21.0006 26.2652 21.0006 25.9998C21.0006 25.7344 20.8951 25.4799 20.7075 25.2923C20.5199 25.1047 20.2654 24.9993 20 24.9993C19.7346 24.9993 19.4801 25.1047 19.2925 25.2923Z" fill="#4A4A4F"/>
</svg>
