<svg width="32" height="32" viewBox="0 0 32 32" fill="none" xmlns="http://www.w3.org/2000/svg">
<path d="M7 19V7C7 6.73478 7.10536 6.48043 7.29289 6.29289C7.48043 6.10536 7.73478 6 8 6H20C20.1979 5.99984 20.3914 6.05841 20.556 6.16828C20.7206 6.27815 20.8489 6.43439 20.9246 6.61721C21.0004 6.80003 21.0202 7.00122 20.9815 7.19531C20.9429 7.38939 20.8475 7.56764 20.7075 7.7075L15.4137 13L22.7075 20.2925C22.8004 20.3854 22.8741 20.4957 22.9244 20.6171C22.9747 20.7385 23.0006 20.8686 23.0006 21C23.0006 21.1314 22.9747 21.2615 22.9244 21.3829C22.8741 21.5043 22.8004 21.6146 22.7075 21.7075C22.6146 21.8004 22.5043 21.8741 22.3829 21.9244C22.2615 21.9747 22.1314 22.0006 22 22.0006C21.8686 22.0006 21.7385 21.9747 21.6171 21.9244C21.4957 21.8741 21.3854 21.8004 21.2925 21.7075L14 14.4137L8.7075 19.7075C8.56765 19.8475 8.38939 19.9429 8.19531 19.9815C8.00122 20.0202 7.80003 20.0004 7.61721 19.9246C7.43439 19.8489 7.27815 19.7206 7.16828 19.556C7.05841 19.3914 6.99984 19.1979 7 19ZM27 26H5C4.73478 26 4.48043 26.1054 4.29289 26.2929C4.10536 26.4804 4 26.7348 4 27C4 27.2652 4.10536 27.5196 4.29289 27.7071C4.48043 27.8946 4.73478 28 5 28H27C27.2652 28 27.5196 27.8946 27.7071 27.7071C27.8946 27.5196 28 27.2652 28 27C28 26.7348 27.8946 26.4804 27.7071 26.2929C27.5196 26.1054 27.2652 26 27 26Z" fill="#4A4A4F"/>
</svg>
