<svg width="32" height="32" viewBox="0 0 32 32" fill="none" xmlns="http://www.w3.org/2000/svg">
<path d="M28.7075 13.7076L22.7075 19.7076C22.5199 19.8952 22.2654 20.0006 22 20.0006C21.7346 20.0006 21.4801 19.8952 21.2925 19.7076C21.1049 19.5199 20.9994 19.2654 20.9994 19.0001C20.9994 18.7347 21.1049 18.4802 21.2925 18.2926L25.5863 14.0001H16C13.0836 14.0034 10.2877 15.1634 8.22548 17.2255C6.1633 19.2877 5.00331 22.0837 5 25.0001C5 25.2653 4.89464 25.5196 4.70711 25.7072C4.51957 25.8947 4.26522 26.0001 4 26.0001C3.73478 26.0001 3.48043 25.8947 3.29289 25.7072C3.10536 25.5196 3 25.2653 3 25.0001C3.00364 21.5534 4.37445 18.2489 6.81163 15.8117C9.24882 13.3745 12.5533 12.0037 16 12.0001H25.5863L21.2925 7.70757C21.1996 7.61466 21.1259 7.50436 21.0756 7.38296C21.0253 7.26157 20.9994 7.13146 20.9994 7.00007C20.9994 6.86867 21.0253 6.73856 21.0756 6.61717C21.1259 6.49578 21.1996 6.38548 21.2925 6.29257C21.4801 6.10493 21.7346 5.99951 22 5.99951C22.1314 5.99951 22.2615 6.02539 22.3829 6.07567C22.5043 6.12596 22.6146 6.19966 22.7075 6.29257L28.7075 12.2926C28.8005 12.3854 28.8742 12.4957 28.9246 12.6171C28.9749 12.7385 29.0008 12.8687 29.0008 13.0001C29.0008 13.1315 28.9749 13.2616 28.9246 13.383C28.8742 13.5044 28.8005 13.6147 28.7075 13.7076Z" fill="#4A4A4F"/>
</svg>
