<svg width="32" height="32" viewBox="0 0 32 32" fill="none" xmlns="http://www.w3.org/2000/svg">
<path d="M16 3C13.4288 3 10.9154 3.76244 8.77759 5.1909C6.63975 6.61935 4.97351 8.64968 3.98957 11.0251C3.00563 13.4006 2.74819 16.0144 3.2498 18.5362C3.75141 21.0579 4.98953 23.3743 6.80762 25.1924C8.6257 27.0105 10.9421 28.2486 13.4638 28.7502C15.9856 29.2518 18.5995 28.9944 20.9749 28.0104C23.3503 27.0265 25.3807 25.3603 26.8091 23.2224C28.2376 21.0846 29 18.5712 29 16C28.9964 12.5533 27.6256 9.24882 25.1884 6.81163C22.7512 4.37445 19.4467 3.00364 16 3ZM20.7075 20.7075C20.6146 20.8005 20.5043 20.8742 20.3829 20.9246C20.2615 20.9749 20.1314 21.0008 20 21.0008C19.8686 21.0008 19.7385 20.9749 19.6171 20.9246C19.4957 20.8742 19.3854 20.8005 19.2925 20.7075L13 14.4137V18C13 18.2652 12.8946 18.5196 12.7071 18.7071C12.5196 18.8946 12.2652 19 12 19C11.7348 19 11.4804 18.8946 11.2929 18.7071C11.1054 18.5196 11 18.2652 11 18V12C11 11.7348 11.1054 11.4804 11.2929 11.2929C11.4804 11.1054 11.7348 11 12 11H18C18.2652 11 18.5196 11.1054 18.7071 11.2929C18.8946 11.4804 19 11.7348 19 12C19 12.2652 18.8946 12.5196 18.7071 12.7071C18.5196 12.8946 18.2652 13 18 13H14.4138L20.7075 19.2925C20.8005 19.3854 20.8742 19.4957 20.9246 19.6171C20.9749 19.7385 21.0008 19.8686 21.0008 20C21.0008 20.1314 20.9749 20.2615 20.9246 20.3829C20.8742 20.5043 20.8005 20.6146 20.7075 20.7075Z" fill="#4A4A4F"/>
</svg>
