<svg width="32" height="32" viewBox="0 0 32 32" fill="none" xmlns="http://www.w3.org/2000/svg">
<path d="M11.2925 8.7075C11.1049 8.51986 10.9994 8.26536 10.9994 8C10.9994 7.73464 11.1049 7.48014 11.2925 7.2925C11.4801 7.10486 11.7346 6.99944 12 6.99944C12.2654 6.99944 12.5199 7.10486 12.7075 7.2925L15 9.58625V3C15 2.73478 15.1054 2.48043 15.2929 2.29289C15.4804 2.10536 15.7348 2 16 2C16.2652 2 16.5196 2.10536 16.7071 2.29289C16.8946 2.48043 17 2.73478 17 3V9.58625L19.2925 7.2925C19.4801 7.10486 19.7346 6.99944 20 6.99944C20.2654 6.99944 20.5199 7.10486 20.7075 7.2925C20.8951 7.48014 21.0006 7.73464 21.0006 8C21.0006 8.26536 20.8951 8.51986 20.7075 8.7075L16.7075 12.7075C16.6146 12.8005 16.5043 12.8742 16.3829 12.9246C16.2615 12.9749 16.1314 13.0008 16 13.0008C15.8686 13.0008 15.7385 12.9749 15.6171 12.9246C15.4957 12.8742 15.3854 12.8005 15.2925 12.7075L11.2925 8.7075ZM16.7075 19.2925C16.6146 19.1995 16.5043 19.1258 16.3829 19.0754C16.2615 19.0251 16.1314 18.9992 16 18.9992C15.8686 18.9992 15.7385 19.0251 15.6171 19.0754C15.4957 19.1258 15.3854 19.1995 15.2925 19.2925L11.2925 23.2925C11.1996 23.3854 11.1259 23.4957 11.0756 23.6171C11.0253 23.7385 10.9994 23.8686 10.9994 24C10.9994 24.1314 11.0253 24.2615 11.0756 24.3829C11.1259 24.5043 11.1996 24.6146 11.2925 24.7075C11.4801 24.8951 11.7346 25.0006 12 25.0006C12.1314 25.0006 12.2615 24.9747 12.3829 24.9244C12.5043 24.8741 12.6146 24.8004 12.7075 24.7075L15 22.4137V29C15 29.2652 15.1054 29.5196 15.2929 29.7071C15.4804 29.8946 15.7348 30 16 30C16.2652 30 16.5196 29.8946 16.7071 29.7071C16.8946 29.5196 17 29.2652 17 29V22.4137L19.2925 24.7075C19.3854 24.8004 19.4957 24.8741 19.6171 24.9244C19.7385 24.9747 19.8686 25.0006 20 25.0006C20.1314 25.0006 20.2615 24.9747 20.3829 24.9244C20.5043 24.8741 20.6146 24.8004 20.7075 24.7075C20.8004 24.6146 20.8741 24.5043 20.9244 24.3829C20.9747 24.2615 21.0006 24.1314 21.0006 24C21.0006 23.8686 20.9747 23.7385 20.9244 23.6171C20.8741 23.4957 20.8004 23.3854 20.7075 23.2925L16.7075 19.2925ZM29 15H22.4137L24.7075 12.7075C24.8004 12.6146 24.8741 12.5043 24.9244 12.3829C24.9747 12.2615 25.0006 12.1314 25.0006 12C25.0006 11.8686 24.9747 11.7385 24.9244 11.6171C24.8741 11.4957 24.8004 11.3854 24.7075 11.2925C24.6146 11.1996 24.5043 11.1259 24.3829 11.0756C24.2615 11.0253 24.1314 10.9994 24 10.9994C23.8686 10.9994 23.7385 11.0253 23.6171 11.0756C23.4957 11.1259 23.3854 11.1996 23.2925 11.2925L19.2925 15.2925C19.1995 15.3854 19.1258 15.4957 19.0754 15.6171C19.0251 15.7385 18.9992 15.8686 18.9992 16C18.9992 16.1314 19.0251 16.2615 19.0754 16.3829C19.1258 16.5043 19.1995 16.6146 19.2925 16.7075L23.2925 20.7075C23.3854 20.8004 23.4957 20.8741 23.6171 20.9244C23.7385 20.9747 23.8686 21.0006 24 21.0006C24.1314 21.0006 24.2615 20.9747 24.3829 20.9244C24.5043 20.8741 24.6146 20.8004 24.7075 20.7075C24.8004 20.6146 24.8741 20.5043 24.9244 20.3829C24.9747 20.2615 25.0006 20.1314 25.0006 20C25.0006 19.8686 24.9747 19.7385 24.9244 19.6171C24.8741 19.4957 24.8004 19.3854 24.7075 19.2925L22.4137 17H29C29.2652 17 29.5196 16.8946 29.7071 16.7071C29.8946 16.5196 30 16.2652 30 16C30 15.7348 29.8946 15.4804 29.7071 15.2929C29.5196 15.1054 29.2652 15 29 15ZM12.7075 15.2925L8.7075 11.2925C8.51986 11.1049 8.26536 10.9994 8 10.9994C7.73464 10.9994 7.48014 11.1049 7.2925 11.2925C7.10486 11.4801 6.99944 11.7346 6.99944 12C6.99944 12.2654 7.10486 12.5199 7.2925 12.7075L9.58625 15H3C2.73478 15 2.48043 15.1054 2.29289 15.2929C2.10536 15.4804 2 15.7348 2 16C2 16.2652 2.10536 16.5196 2.29289 16.7071C2.48043 16.8946 2.73478 17 3 17H9.58625L7.2925 19.2925C7.19959 19.3854 7.12589 19.4957 7.07561 19.6171C7.02532 19.7385 6.99944 19.8686 6.99944 20C6.99944 20.1314 7.02532 20.2615 7.07561 20.3829C7.12589 20.5043 7.19959 20.6146 7.2925 20.7075C7.38541 20.8004 7.49571 20.8741 7.6171 20.9244C7.7385 20.9747 7.86861 21.0006 8 21.0006C8.13139 21.0006 8.2615 20.9747 8.3829 20.9244C8.50429 20.8741 8.61459 20.8004 8.7075 20.7075L12.7075 16.7075C12.8005 16.6146 12.8742 16.5043 12.9246 16.3829C12.9749 16.2615 13.0008 16.1314 13.0008 16C13.0008 15.8686 12.9749 15.7385 12.9246 15.6171C12.8742 15.4957 12.8005 15.3854 12.7075 15.2925Z" fill="#4A4A4F"/>
</svg>
