<svg width="32" height="32" viewBox="0 0 32 32" fill="none" xmlns="http://www.w3.org/2000/svg">
<path d="M28.9998 23.9998C28.9998 24.265 28.8945 24.5194 28.7069 24.7069C28.5194 24.8945 28.265 24.9998 27.9998 24.9998H9.99981C9.73459 24.9998 9.48024 24.8945 9.2927 24.7069C9.10517 24.5194 8.99981 24.265 8.99981 23.9998V12.9998H3.99981C3.80192 13 3.60842 12.9414 3.44383 12.8315C3.27923 12.7217 3.15094 12.5654 3.07519 12.3826C2.99944 12.1998 2.97963 11.9986 3.01828 11.8045C3.05693 11.6104 3.1523 11.4322 3.29231 11.2923L9.29231 5.29231C9.38518 5.19933 9.49547 5.12557 9.61687 5.07525C9.73827 5.02493 9.8684 4.99902 9.99981 4.99902C10.1312 4.99902 10.2614 5.02493 10.3828 5.07525C10.5041 5.12557 10.6144 5.19933 10.7073 5.29231L16.7073 11.2923C16.8473 11.4322 16.9427 11.6104 16.9813 11.8045C17.02 11.9986 17.0002 12.1998 16.9244 12.3826C16.8487 12.5654 16.7204 12.7217 16.5558 12.8315C16.3912 12.9414 16.1977 13 15.9998 12.9998H10.9998V22.9998H27.9998C28.265 22.9998 28.5194 23.1052 28.7069 23.2927C28.8945 23.4802 28.9998 23.7346 28.9998 23.9998Z" fill="#4A4A4F"/>
</svg>
