<svg width="32" height="32" viewBox="0 0 32 32" fill="none" xmlns="http://www.w3.org/2000/svg">
<path d="M29.7075 15.2923L17.7075 3.29231C17.5676 3.1523 17.3894 3.05693 17.1953 3.01828C17.0012 2.97963 16.8 2.99944 16.6172 3.07519C16.4344 3.15094 16.2782 3.27923 16.1683 3.44383C16.0584 3.60842 15.9998 3.80192 16 3.99981V8.99981H6C5.46957 8.99981 4.96086 9.21053 4.58579 9.5856C4.21071 9.96067 4 10.4694 4 10.9998V20.9998C4 21.5302 4.21071 22.039 4.58579 22.414C4.96086 22.7891 5.46957 22.9998 6 22.9998H16V27.9998C15.9998 28.1977 16.0584 28.3912 16.1683 28.5558C16.2782 28.7204 16.4344 28.8487 16.6172 28.9244C16.8 29.0002 17.0012 29.02 17.1953 28.9813C17.3894 28.9427 17.5676 28.8473 17.7075 28.7073L29.7075 16.7073C29.8005 16.6144 29.8742 16.5041 29.9246 16.3828C29.9749 16.2614 30.0008 16.1312 30.0008 15.9998C30.0008 15.8684 29.9749 15.7383 29.9246 15.6169C29.8742 15.4955 29.8005 15.3852 29.7075 15.2923ZM18 25.5861V21.9998C18 21.7346 17.8946 21.4802 17.7071 21.2927C17.5196 21.1052 17.2652 20.9998 17 20.9998H6V10.9998H17C17.2652 10.9998 17.5196 10.8945 17.7071 10.7069C17.8946 10.5194 18 10.265 18 9.99981V6.41356L27.5863 15.9998L18 25.5861Z" fill="#4A4A4F"/>
</svg>
