<svg width="32" height="32" viewBox="0 0 32 32" fill="none" xmlns="http://www.w3.org/2000/svg">
<path d="M11.0763 6.38231C11.0005 6.19961 10.9805 5.99853 11.019 5.80451C11.0575 5.61049 11.1527 5.43224 11.2925 5.29231L15.2925 1.29231C15.3854 1.19933 15.4957 1.12557 15.6171 1.07525C15.7385 1.02493 15.8686 0.999023 16 0.999023C16.1314 0.999023 16.2615 1.02493 16.3829 1.07525C16.5043 1.12557 16.6146 1.19933 16.7075 1.29231L20.7075 5.29231C20.8475 5.43217 20.9429 5.61042 20.9815 5.8045C21.0202 5.99859 21.0004 6.19978 20.9246 6.3826C20.8489 6.56542 20.7206 6.72166 20.556 6.83153C20.3914 6.9414 20.1979 6.99997 20 6.99981H17V11.9998C17 12.265 16.8946 12.5194 16.7071 12.7069C16.5196 12.8945 16.2652 12.9998 16 12.9998C15.7348 12.9998 15.4804 12.8945 15.2929 12.7069C15.1054 12.5194 15 12.265 15 11.9998V6.99981H12C11.8022 6.99977 11.6089 6.94108 11.4445 6.83117C11.28 6.72125 11.1519 6.56505 11.0763 6.38231ZM27 14.9998H5C4.73478 14.9998 4.48043 15.1052 4.29289 15.2927C4.10536 15.4802 4 15.7346 4 15.9998C4 16.265 4.10536 16.5194 4.29289 16.7069C4.48043 16.8945 4.73478 16.9998 5 16.9998H27C27.2652 16.9998 27.5196 16.8945 27.7071 16.7069C27.8946 16.5194 28 16.265 28 15.9998C28 15.7346 27.8946 15.4802 27.7071 15.2927C27.5196 15.1052 27.2652 14.9998 27 14.9998ZM20 24.9998H17V19.9998C17 19.7346 16.8946 19.4802 16.7071 19.2927C16.5196 19.1052 16.2652 18.9998 16 18.9998C15.7348 18.9998 15.4804 19.1052 15.2929 19.2927C15.1054 19.4802 15 19.7346 15 19.9998V24.9998H12C11.8021 24.9997 11.6086 25.0582 11.444 25.1681C11.2794 25.278 11.1511 25.4342 11.0754 25.617C10.9996 25.7998 10.9798 26.001 11.0185 26.1951C11.0571 26.3892 11.1525 26.5675 11.2925 26.7073L15.2925 30.7073C15.3854 30.8003 15.4957 30.874 15.6171 30.9244C15.7385 30.9747 15.8686 31.0006 16 31.0006C16.1314 31.0006 16.2615 30.9747 16.3829 30.9244C16.5043 30.874 16.6146 30.8003 16.7075 30.7073L20.7075 26.7073C20.8475 26.5675 20.9429 26.3892 20.9815 26.1951C21.0202 26.001 21.0004 25.7998 20.9246 25.617C20.8489 25.4342 20.7206 25.278 20.556 25.1681C20.3914 25.0582 20.1979 24.9997 20 24.9998Z" fill="#4A4A4F"/>
</svg>
