<svg width="32" height="32" viewBox="0 0 32 32" fill="none" xmlns="http://www.w3.org/2000/svg">
<path d="M28.7073 14.2923L16.7073 2.29231C16.6144 2.19933 16.5041 2.12557 16.3828 2.07525C16.2614 2.02493 16.1312 1.99902 15.9998 1.99902C15.8684 1.99902 15.7383 2.02493 15.6169 2.07525C15.4955 2.12557 15.3852 2.19933 15.2923 2.29231L3.29231 14.2923C3.1523 14.4322 3.05693 14.6104 3.01828 14.8045C2.97963 14.9986 2.99944 15.1998 3.07519 15.3826C3.15094 15.5654 3.27923 15.7217 3.44383 15.8315C3.60842 15.9414 3.80192 16 3.99981 15.9998H8.99981V25.9998C8.99981 26.5302 9.21053 27.0389 9.5856 27.414C9.96067 27.7891 10.4694 27.9998 10.9998 27.9998H20.9998C21.5302 27.9998 22.039 27.7891 22.414 27.414C22.7891 27.0389 22.9998 26.5302 22.9998 25.9998V15.9998H27.9998C28.1977 16 28.3912 15.9414 28.5558 15.8315C28.7204 15.7217 28.8487 15.5654 28.9244 15.3826C29.0002 15.1998 29.02 14.9986 28.9813 14.8045C28.9427 14.6104 28.8473 14.4322 28.7073 14.2923ZM21.9998 13.9998C21.7346 13.9998 21.4802 14.1052 21.2927 14.2927C21.1052 14.4802 20.9998 14.7346 20.9998 14.9998V25.9998H10.9998V14.9998C10.9998 14.7346 10.8945 14.4802 10.7069 14.2927C10.5194 14.1052 10.265 13.9998 9.99981 13.9998H6.41356L15.9998 4.41356L25.5861 13.9998H21.9998Z" fill="#4A4A4F"/>
</svg>
