<svg width="32" height="32" viewBox="0 0 32 32" fill="none" xmlns="http://www.w3.org/2000/svg">
<path d="M24 5V13C24.0001 13.1314 23.9743 13.2615 23.9241 13.3828C23.8739 13.5042 23.8003 13.6146 23.7075 13.7075L17 20.4137V26.5863L19.2925 24.2925C19.4801 24.1049 19.7346 23.9994 20 23.9994C20.2654 23.9994 20.5199 24.1049 20.7075 24.2925C20.8951 24.4801 21.0006 24.7346 21.0006 25C21.0006 25.2654 20.8951 25.5199 20.7075 25.7075L16.7075 29.7075C16.6146 29.8005 16.5043 29.8742 16.3829 29.9246C16.2615 29.9749 16.1314 30.0008 16 30.0008C15.8686 30.0008 15.7385 29.9749 15.6171 29.9246C15.4957 29.8742 15.3854 29.8005 15.2925 29.7075L11.2925 25.7075C11.1049 25.5199 10.9994 25.2654 10.9994 25C10.9994 24.7346 11.1049 24.4801 11.2925 24.2925C11.4801 24.1049 11.7346 23.9994 12 23.9994C12.2654 23.9994 12.5199 24.1049 12.7075 24.2925L15 26.5863V20.4137L8.2925 13.7075C8.19967 13.6146 8.12605 13.5042 8.07586 13.3828C8.02568 13.2615 7.9999 13.1314 8 13V5C8 4.73478 8.10536 4.48043 8.29289 4.29289C8.48043 4.10536 8.73478 4 9 4C9.26522 4 9.51957 4.10536 9.70711 4.29289C9.89464 4.48043 10 4.73478 10 5V12.5863L16 18.5863L22 12.5863V5C22 4.73478 22.1054 4.48043 22.2929 4.29289C22.4804 4.10536 22.7348 4 23 4C23.2652 4 23.5196 4.10536 23.7071 4.29289C23.8946 4.48043 24 4.73478 24 5Z" fill="#4A4A4F"/>
</svg>
