<svg width="32" height="32" viewBox="0 0 32 32" fill="none" xmlns="http://www.w3.org/2000/svg">
<path d="M10.7073 18.2926C10.895 18.4802 11.0004 18.7347 11.0004 19.0001C11.0004 19.2654 10.895 19.5199 10.7073 19.7076C10.5197 19.8952 10.2652 20.0006 9.99981 20.0006C9.73445 20.0006 9.47995 19.8952 9.29231 19.7076L3.29231 13.7076C3.19933 13.6147 3.12557 13.5044 3.07525 13.383C3.02493 13.2616 2.99902 13.1315 2.99902 13.0001C2.99902 12.8687 3.02493 12.7385 3.07525 12.6171C3.12557 12.4957 3.19933 12.3854 3.29231 12.2926L9.29231 6.29257C9.47995 6.10493 9.73445 5.99951 9.99981 5.99951C10.2652 5.99951 10.5197 6.10493 10.7073 6.29257C10.895 6.48021 11.0004 6.7347 11.0004 7.00007C11.0004 7.26543 10.895 7.51993 10.7073 7.70757L5.41356 13.0001L10.7073 18.2926ZM15.9998 12.0001H12.4136L16.7073 7.70757C16.895 7.51993 17.0004 7.26543 17.0004 7.00007C17.0004 6.7347 16.895 6.48021 16.7073 6.29257C16.5197 6.10493 16.2652 5.99951 15.9998 5.99951C15.7344 5.99951 15.4799 6.10493 15.2923 6.29257L9.29231 12.2926C9.19933 12.3854 9.12558 12.4957 9.07525 12.6171C9.02493 12.7385 8.99902 12.8687 8.99902 13.0001C8.99902 13.1315 9.02493 13.2616 9.07525 13.383C9.12558 13.5044 9.19933 13.6147 9.29231 13.7076L15.2923 19.7076C15.3852 19.8005 15.4955 19.8742 15.6169 19.9245C15.7383 19.9747 15.8684 20.0006 15.9998 20.0006C16.1312 20.0006 16.2613 19.9747 16.3827 19.9245C16.5041 19.8742 16.6144 19.8005 16.7073 19.7076C16.8002 19.6147 16.8739 19.5044 16.9242 19.383C16.9745 19.2616 17.0004 19.1315 17.0004 19.0001C17.0004 18.8687 16.9745 18.7386 16.9242 18.6172C16.8739 18.4958 16.8002 18.3855 16.7073 18.2926L12.4136 14.0001H15.9998C18.9162 14.0034 21.7121 15.1634 23.7743 17.2255C25.8365 19.2877 26.9965 22.0837 26.9998 25.0001C26.9998 25.2653 27.1052 25.5196 27.2927 25.7072C27.4802 25.8947 27.7346 26.0001 27.9998 26.0001C28.265 26.0001 28.5194 25.8947 28.7069 25.7072C28.8945 25.5196 28.9998 25.2653 28.9998 25.0001C28.9962 21.5534 27.6254 18.2489 25.1882 15.8117C22.751 13.3745 19.4465 12.0037 15.9998 12.0001Z" fill="#4A4A4F"/>
</svg>
