<svg width="32" height="32" viewBox="0 0 32 32" fill="none" xmlns="http://www.w3.org/2000/svg">
<path d="M26 4H6C5.46957 4 4.96086 4.21071 4.58579 4.58579C4.21071 4.96086 4 5.46957 4 6V26C4 26.5304 4.21071 27.0391 4.58579 27.4142C4.96086 27.7893 5.46957 28 6 28H26C26.5304 28 27.0391 27.7893 27.4142 27.4142C27.7893 27.0391 28 26.5304 28 26V6C28 5.46957 27.7893 4.96086 27.4142 4.58579C27.0391 4.21071 26.5304 4 26 4ZM26 26H6V6H26V26ZM11.2925 20.7075C11.1995 20.6146 11.1258 20.5043 11.0754 20.3829C11.0251 20.2615 10.9992 20.1314 10.9992 20C10.9992 19.8686 11.0251 19.7385 11.0754 19.6171C11.1258 19.4957 11.1995 19.3854 11.2925 19.2925L17.5863 13H14C13.7348 13 13.4804 12.8946 13.2929 12.7071C13.1054 12.5196 13 12.2652 13 12C13 11.7348 13.1054 11.4804 13.2929 11.2929C13.4804 11.1054 13.7348 11 14 11H20C20.2652 11 20.5196 11.1054 20.7071 11.2929C20.8946 11.4804 21 11.7348 21 12V18C21 18.2652 20.8946 18.5196 20.7071 18.7071C20.5196 18.8946 20.2652 19 20 19C19.7348 19 19.4804 18.8946 19.2929 18.7071C19.1054 18.5196 19 18.2652 19 18V14.4137L12.7075 20.7075C12.6146 20.8005 12.5043 20.8742 12.3829 20.9246C12.2615 20.9749 12.1314 21.0008 12 21.0008C11.8686 21.0008 11.7385 20.9749 11.6171 20.9246C11.4957 20.8742 11.3854 20.8005 11.2925 20.7075Z" fill="#4A4A4F"/>
</svg>
