<svg width="32" height="32" viewBox="0 0 32 32" fill="none" xmlns="http://www.w3.org/2000/svg">
<path d="M18.0001 13.0001V8.00007C18.0001 7.73485 18.1054 7.4805 18.293 7.29296C18.4805 7.10542 18.7349 7.00007 19.0001 7.00007C19.2653 7.00007 19.5196 7.10542 19.7072 7.29296C19.8947 7.4805 20.0001 7.73485 20.0001 8.00007V10.5863L25.2926 5.29257C25.4802 5.10493 25.7347 4.99951 26.0001 4.99951C26.2654 4.99951 26.5199 5.10493 26.7076 5.29257C26.8952 5.48021 27.0006 5.7347 27.0006 6.00007C27.0006 6.26543 26.8952 6.51993 26.7076 6.70757L21.4138 12.0001H24.0001C24.2653 12.0001 24.5196 12.1054 24.7072 12.293C24.8947 12.4805 25.0001 12.7349 25.0001 13.0001C25.0001 13.2653 24.8947 13.5196 24.7072 13.7072C24.5196 13.8947 24.2653 14.0001 24.0001 14.0001H19.0001C18.7349 14.0001 18.4805 13.8947 18.293 13.7072C18.1054 13.5196 18.0001 13.2653 18.0001 13.0001ZM13.0001 18.0001H8.00007C7.73485 18.0001 7.4805 18.1054 7.29296 18.293C7.10542 18.4805 7.00007 18.7349 7.00007 19.0001C7.00007 19.2653 7.10542 19.5196 7.29296 19.7072C7.4805 19.8947 7.73485 20.0001 8.00007 20.0001H10.5863L5.29257 25.2926C5.10493 25.4802 4.99951 25.7347 4.99951 26.0001C4.99951 26.2654 5.10493 26.5199 5.29257 26.7076C5.48021 26.8952 5.7347 27.0006 6.00007 27.0006C6.26543 27.0006 6.51993 26.8952 6.70757 26.7076L12.0001 21.4138V24.0001C12.0001 24.2653 12.1054 24.5196 12.293 24.7072C12.4805 24.8947 12.7349 25.0001 13.0001 25.0001C13.2653 25.0001 13.5196 24.8947 13.7072 24.7072C13.8947 24.5196 14.0001 24.2653 14.0001 24.0001V19.0001C14.0001 18.7349 13.8947 18.4805 13.7072 18.293C13.5196 18.1054 13.2653 18.0001 13.0001 18.0001ZM21.4138 20.0001H24.0001C24.2653 20.0001 24.5196 19.8947 24.7072 19.7072C24.8947 19.5196 25.0001 19.2653 25.0001 19.0001C25.0001 18.7349 24.8947 18.4805 24.7072 18.293C24.5196 18.1054 24.2653 18.0001 24.0001 18.0001H19.0001C18.7349 18.0001 18.4805 18.1054 18.293 18.293C18.1054 18.4805 18.0001 18.7349 18.0001 19.0001V24.0001C18.0001 24.2653 18.1054 24.5196 18.293 24.7072C18.4805 24.8947 18.7349 25.0001 19.0001 25.0001C19.2653 25.0001 19.5196 24.8947 19.7072 24.7072C19.8947 24.5196 20.0001 24.2653 20.0001 24.0001V21.4138L25.2926 26.7076C25.3855 26.8005 25.4958 26.8742 25.6172 26.9245C25.7386 26.9747 25.8687 27.0006 26.0001 27.0006C26.1315 27.0006 26.2616 26.9747 26.383 26.9245C26.5044 26.8742 26.6147 26.8005 26.7076 26.7076C26.8005 26.6147 26.8742 26.5044 26.9245 26.383C26.9747 26.2616 27.0006 26.1315 27.0006 26.0001C27.0006 25.8687 26.9747 25.7386 26.9245 25.6172C26.8742 25.4958 26.8005 25.3855 26.7076 25.2926L21.4138 20.0001ZM13.0001 7.00007C12.7349 7.00007 12.4805 7.10542 12.293 7.29296C12.1054 7.4805 12.0001 7.73485 12.0001 8.00007V10.5863L6.70757 5.29257C6.51993 5.10493 6.26543 4.99951 6.00007 4.99951C5.7347 4.99951 5.48021 5.10493 5.29257 5.29257C5.10493 5.48021 4.99951 5.7347 4.99951 6.00007C4.99951 6.26543 5.10493 6.51993 5.29257 6.70757L10.5863 12.0001H8.00007C7.73485 12.0001 7.4805 12.1054 7.29296 12.293C7.10542 12.4805 7.00007 12.7349 7.00007 13.0001C7.00007 13.2653 7.10542 13.5196 7.29296 13.7072C7.4805 13.8947 7.73485 14.0001 8.00007 14.0001H13.0001C13.2653 14.0001 13.5196 13.8947 13.7072 13.7072C13.8947 13.5196 14.0001 13.2653 14.0001 13.0001V8.00007C14.0001 7.73485 13.8947 7.4805 13.7072 7.29296C13.5196 7.10542 13.2653 7.00007 13.0001 7.00007Z" fill="#4A4A4F"/>
</svg>
