<svg width="32" height="32" viewBox="0 0 32 32" fill="none" xmlns="http://www.w3.org/2000/svg">
<path d="M19.9998 9.99981V21.9998C19.9998 22.265 19.8945 22.5194 19.7069 22.7069C19.5194 22.8945 19.265 22.9998 18.9998 22.9998H15.9998V27.9998C16 28.1977 15.9414 28.3912 15.8315 28.5558C15.7217 28.7204 15.5654 28.8487 15.3826 28.9244C15.1998 29.0002 14.9986 29.02 14.8045 28.9813C14.6104 28.9427 14.4322 28.8473 14.2923 28.7073L2.29231 16.7073C2.19933 16.6144 2.12557 16.5041 2.07525 16.3828C2.02493 16.2614 1.99902 16.1312 1.99902 15.9998C1.99902 15.8684 2.02493 15.7383 2.07525 15.6169C2.12557 15.4955 2.19933 15.3852 2.29231 15.2923L14.2923 3.29231C14.4322 3.1523 14.6104 3.05693 14.8045 3.01828C14.9986 2.97963 15.1998 2.99944 15.3826 3.07519C15.5654 3.15094 15.7217 3.27923 15.8315 3.44383C15.9414 3.60842 16 3.80192 15.9998 3.99981V8.99981H18.9998C19.265 8.99981 19.5194 9.10517 19.7069 9.2927C19.8945 9.48024 19.9998 9.73459 19.9998 9.99981ZM22.9998 8.99981C22.7346 8.99981 22.4802 9.10517 22.2927 9.2927C22.1052 9.48024 21.9998 9.73459 21.9998 9.99981V21.9998C21.9998 22.265 22.1052 22.5194 22.2927 22.7069C22.4802 22.8945 22.7346 22.9998 22.9998 22.9998C23.265 22.9998 23.5194 22.8945 23.7069 22.7069C23.8945 22.5194 23.9998 22.265 23.9998 21.9998V9.99981C23.9998 9.73459 23.8945 9.48024 23.7069 9.2927C23.5194 9.10517 23.265 8.99981 22.9998 8.99981ZM26.9998 8.99981C26.7346 8.99981 26.4802 9.10517 26.2927 9.2927C26.1052 9.48024 25.9998 9.73459 25.9998 9.99981V21.9998C25.9998 22.265 26.1052 22.5194 26.2927 22.7069C26.4802 22.8945 26.7346 22.9998 26.9998 22.9998C27.265 22.9998 27.5194 22.8945 27.7069 22.7069C27.8945 22.5194 27.9998 22.265 27.9998 21.9998V9.99981C27.9998 9.73459 27.8945 9.48024 27.7069 9.2927C27.5194 9.10517 27.265 8.99981 26.9998 8.99981Z" fill="#4A4A4F"/>
</svg>
