<svg width="32" height="32" viewBox="0 0 32 32" fill="none" xmlns="http://www.w3.org/2000/svg">
<path d="M27 6V12C27 12.2652 26.8946 12.5196 26.7071 12.7071C26.5196 12.8946 26.2652 13 26 13C25.7348 13 25.4804 12.8946 25.2929 12.7071C25.1054 12.5196 25 12.2652 25 12V8.41375L18.7075 14.7075C18.5199 14.8951 18.2654 15.0006 18 15.0006C17.7346 15.0006 17.4801 14.8951 17.2925 14.7075C17.1049 14.5199 16.9994 14.2654 16.9994 14C16.9994 13.7346 17.1049 13.4801 17.2925 13.2925L23.5863 7H20C19.7348 7 19.4804 6.89464 19.2929 6.70711C19.1054 6.51957 19 6.26522 19 6C19 5.73478 19.1054 5.48043 19.2929 5.29289C19.4804 5.10536 19.7348 5 20 5H26C26.2652 5 26.5196 5.10536 26.7071 5.29289C26.8946 5.48043 27 5.73478 27 6ZM13.2925 17.2925L7 23.5863V20C7 19.7348 6.89464 19.4804 6.70711 19.2929C6.51957 19.1054 6.26522 19 6 19C5.73478 19 5.48043 19.1054 5.29289 19.2929C5.10536 19.4804 5 19.7348 5 20V26C5 26.2652 5.10536 26.5196 5.29289 26.7071C5.48043 26.8946 5.73478 27 6 27H12C12.2652 27 12.5196 26.8946 12.7071 26.7071C12.8946 26.5196 13 26.2652 13 26C13 25.7348 12.8946 25.4804 12.7071 25.2929C12.5196 25.1054 12.2652 25 12 25H8.41375L14.7075 18.7075C14.8951 18.5199 15.0006 18.2654 15.0006 18C15.0006 17.7346 14.8951 17.4801 14.7075 17.2925C14.5199 17.1049 14.2654 16.9994 14 16.9994C13.7346 16.9994 13.4801 17.1049 13.2925 17.2925Z" fill="#4A4A4F"/>
</svg>
