<svg width="32" height="32" viewBox="0 0 32 32" fill="none" xmlns="http://www.w3.org/2000/svg">
<path d="M30 10.9998V18.9998C30 19.265 29.8946 19.5194 29.7071 19.7069C29.5196 19.8945 29.2652 19.9998 29 19.9998H21C20.8021 20 20.6086 19.9414 20.444 19.8315C20.2794 19.7217 20.1511 19.5654 20.0754 19.3826C19.9996 19.1998 19.9798 18.9986 20.0185 18.8045C20.0571 18.6104 20.1525 18.4322 20.2925 18.2923L23.5662 15.0198C22.0056 13.5409 20.0458 12.5518 17.9291 12.1748C15.8124 11.7977 13.6316 12.0492 11.6563 12.8982C9.68099 13.7472 7.9978 15.1565 6.81481 16.9518C5.63181 18.7471 5.00087 20.8498 5 22.9998C5 23.265 4.89464 23.5194 4.70711 23.7069C4.51957 23.8945 4.26522 23.9998 4 23.9998C3.73478 23.9998 3.48043 23.8945 3.29289 23.7069C3.10536 23.5194 3 23.265 3 22.9998C3.00002 20.4537 3.74773 17.9636 5.15033 15.8386C6.55294 13.7136 8.54869 12.0472 10.8899 11.0464C13.2311 10.0455 15.8146 9.7542 18.3199 10.2086C20.8252 10.663 23.1419 11.843 24.9825 13.6023L28.2925 10.2923C28.4324 10.1523 28.6106 10.0569 28.8047 10.0183C28.9988 9.97963 29.2 9.99944 29.3828 10.0752C29.5656 10.1509 29.7218 10.2792 29.8317 10.4438C29.9416 10.6084 30.0002 10.8019 30 10.9998Z" fill="#4A4A4F"/>
</svg>
