<svg width="32" height="32" viewBox="0 0 32 32" fill="none" xmlns="http://www.w3.org/2000/svg">
<path d="M25.9236 14.3823C25.8479 14.5651 25.7198 14.7213 25.5553 14.8312C25.3909 14.9411 25.1976 14.9998 24.9998 14.9998H16.9998V26.9998C16.9998 27.265 16.8945 27.5194 16.7069 27.7069C16.5194 27.8945 16.265 27.9998 15.9998 27.9998C15.7346 27.9998 15.4802 27.8945 15.2927 27.7069C15.1052 27.5194 14.9998 27.265 14.9998 26.9998V14.9998H6.99981C6.80192 15 6.60842 14.9414 6.44383 14.8315C6.27923 14.7217 6.15094 14.5654 6.07519 14.3826C5.99944 14.1998 5.97963 13.9986 6.01828 13.8045C6.05693 13.6104 6.1523 13.4322 6.29231 13.2923L15.2923 4.29231C15.3852 4.19933 15.4955 4.12557 15.6169 4.07525C15.7383 4.02493 15.8684 3.99902 15.9998 3.99902C16.1312 3.99902 16.2614 4.02493 16.3828 4.07525C16.5041 4.12557 16.6144 4.19933 16.7073 4.29231L25.7073 13.2923C25.8471 13.4322 25.9423 13.6105 25.9808 13.8045C26.0193 13.9985 25.9994 14.1996 25.9236 14.3823Z" fill="#4A4A4F"/>
</svg>
