<svg width="32" height="32" viewBox="0 0 32 32" fill="none" xmlns="http://www.w3.org/2000/svg">
<path d="M26.0001 11V22C26.0001 22.2652 25.8947 22.5196 25.7072 22.7071C25.5196 22.8946 25.2653 23 25.0001 23C24.7349 23 24.4805 22.8946 24.293 22.7071C24.1054 22.5196 24.0001 22.2652 24.0001 22V11C24.0001 9.4087 23.3679 7.88258 22.2427 6.75736C21.1175 5.63214 19.5914 5 18.0001 5C16.4088 5 14.8826 5.63214 13.7574 6.75736C12.6322 7.88258 12.0001 9.4087 12.0001 11V25.5863L16.2926 21.2925C16.4802 21.1049 16.7347 20.9994 17.0001 20.9994C17.2654 20.9994 17.5199 21.1049 17.7076 21.2925C17.8952 21.4801 18.0006 21.7346 18.0006 22C18.0006 22.2654 17.8952 22.5199 17.7076 22.7075L11.7076 28.7075C11.6147 28.8005 11.5044 28.8742 11.383 28.9246C11.2616 28.9749 11.1315 29.0008 11.0001 29.0008C10.8687 29.0008 10.7385 28.9749 10.6171 28.9246C10.4957 28.8742 10.3854 28.8005 10.2926 28.7075L4.29257 22.7075C4.19966 22.6146 4.12596 22.5043 4.07567 22.3829C4.02539 22.2615 3.99951 22.1314 3.99951 22C3.99951 21.8686 4.02539 21.7385 4.07567 21.6171C4.12596 21.4957 4.19966 21.3854 4.29257 21.2925C4.48021 21.1049 4.7347 20.9994 5.00007 20.9994C5.13146 20.9994 5.26157 21.0253 5.38296 21.0756C5.50436 21.1259 5.61466 21.1996 5.70757 21.2925L10.0001 25.5863V11C10.0001 8.87827 10.8429 6.84344 12.3432 5.34315C13.8435 3.84285 15.8783 3 18.0001 3C20.1218 3 22.1566 3.84285 23.6569 5.34315C25.1572 6.84344 26.0001 8.87827 26.0001 11Z" fill="#4A4A4F"/>
</svg>
