<svg width="32" height="32" viewBox="0 0 32 32" fill="none" xmlns="http://www.w3.org/2000/svg">
<path d="M25.9998 11V22C25.9998 22.2652 25.8945 22.5196 25.7069 22.7071C25.5194 22.8946 25.265 23 24.9998 23C24.7346 23 24.4802 22.8946 24.2927 22.7071C24.1052 22.5196 23.9998 22.2652 23.9998 22V11C23.9998 9.4087 23.3677 7.88258 22.2425 6.75736C21.1172 5.63214 19.5911 5 17.9998 5C16.4085 5 14.8824 5.63214 13.7572 6.75736C12.632 7.88258 11.9998 9.4087 11.9998 11V21H16.9998C17.1977 20.9998 17.3912 21.0584 17.5558 21.1683C17.7204 21.2782 17.8487 21.4344 17.9244 21.6172C18.0002 21.8 18.02 22.0012 17.9813 22.1953C17.9427 22.3894 17.8473 22.5676 17.7073 22.7075L11.7073 28.7075C11.6144 28.8005 11.5041 28.8742 11.3828 28.9246C11.2614 28.9749 11.1312 29.0008 10.9998 29.0008C10.8684 29.0008 10.7383 28.9749 10.6169 28.9246C10.4955 28.8742 10.3852 28.8005 10.2923 28.7075L4.29231 22.7075C4.1523 22.5676 4.05693 22.3894 4.01828 22.1953C3.97963 22.0012 3.99944 21.8 4.07519 21.6172C4.15094 21.4344 4.27923 21.2782 4.44383 21.1683C4.60842 21.0584 4.80192 20.9998 4.99981 21H9.99981V11C9.99981 8.87827 10.8427 6.84344 12.343 5.34315C13.8432 3.84285 15.8781 3 17.9998 3C20.1215 3 22.1564 3.84285 23.6567 5.34315C25.157 6.84344 25.9998 8.87827 25.9998 11Z" fill="#4A4A4F"/>
</svg>
