<svg width="32" height="32" viewBox="0 0 32 32" fill="none" xmlns="http://www.w3.org/2000/svg">
<path d="M16.9998 5V27C16.9998 27.2652 16.8945 27.5196 16.7069 27.7071C16.5194 27.8946 16.265 28 15.9998 28C15.7346 28 15.4802 27.8946 15.2927 27.7071C15.1052 27.5196 14.9998 27.2652 14.9998 27V5C14.9998 4.73478 15.1052 4.48043 15.2927 4.29289C15.4802 4.10536 15.7346 4 15.9998 4C16.265 4 16.5194 4.10536 16.7069 4.29289C16.8945 4.48043 16.9998 4.73478 16.9998 5ZM11.9998 15H4.41356L6.70731 12.7075C6.89495 12.5199 7.00037 12.2654 7.00037 12C7.00037 11.7346 6.89495 11.4801 6.70731 11.2925C6.51967 11.1049 6.26517 10.9994 5.99981 10.9994C5.73445 10.9994 5.47995 11.1049 5.29231 11.2925L1.29231 15.2925C1.19933 15.3854 1.12557 15.4957 1.07525 15.6171C1.02493 15.7385 0.999023 15.8686 0.999023 16C0.999023 16.1314 1.02493 16.2615 1.07525 16.3829C1.12557 16.5043 1.19933 16.6146 1.29231 16.7075L5.29231 20.7075C5.47995 20.8951 5.73445 21.0006 5.99981 21.0006C6.26517 21.0006 6.51967 20.8951 6.70731 20.7075C6.89495 20.5199 7.00037 20.2654 7.00037 20C7.00037 19.7346 6.89495 19.4801 6.70731 19.2925L4.41356 17H11.9998C12.265 17 12.5194 16.8946 12.7069 16.7071C12.8945 16.5196 12.9998 16.2652 12.9998 16C12.9998 15.7348 12.8945 15.4804 12.7069 15.2929C12.5194 15.1054 12.265 15 11.9998 15ZM30.7073 15.2925L26.7073 11.2925C26.5197 11.1049 26.2652 10.9994 25.9998 10.9994C25.7344 10.9994 25.4799 11.1049 25.2923 11.2925C25.1047 11.4801 24.9993 11.7346 24.9993 12C24.9993 12.2654 25.1047 12.5199 25.2923 12.7075L27.5861 15H19.9998C19.7346 15 19.4802 15.1054 19.2927 15.2929C19.1052 15.4804 18.9998 15.7348 18.9998 16C18.9998 16.2652 19.1052 16.5196 19.2927 16.7071C19.4802 16.8946 19.7346 17 19.9998 17H27.5861L25.2923 19.2925C25.1047 19.4801 24.9993 19.7346 24.9993 20C24.9993 20.2654 25.1047 20.5199 25.2923 20.7075C25.4799 20.8951 25.7344 21.0006 25.9998 21.0006C26.2652 21.0006 26.5197 20.8951 26.7073 20.7075L30.7073 16.7075C30.8003 16.6146 30.874 16.5043 30.9244 16.3829C30.9747 16.2615 31.0006 16.1314 31.0006 16C31.0006 15.8686 30.9747 15.7385 30.9244 15.6171C30.874 15.4957 30.8003 15.3854 30.7073 15.2925Z" fill="#4A4A4F"/>
</svg>
