<svg width="32" height="32" viewBox="0 0 32 32" fill="none" xmlns="http://www.w3.org/2000/svg">
<path d="M26.0001 9.99981V20.9998C26.0001 23.1215 25.1572 25.1564 23.6569 26.6567C22.1566 28.157 20.1218 28.9998 18.0001 28.9998C15.8783 28.9998 13.8435 28.157 12.3432 26.6567C10.8429 25.1564 10.0001 23.1215 10.0001 20.9998V6.41356L5.70757 10.7073C5.51993 10.895 5.26543 11.0004 5.00007 11.0004C4.7347 11.0004 4.48021 10.895 4.29257 10.7073C4.10493 10.5197 3.99951 10.2652 3.99951 9.99981C3.99951 9.73445 4.10493 9.47995 4.29257 9.29231L10.2926 3.29231C10.3854 3.19933 10.4957 3.12557 10.6171 3.07525C10.7385 3.02493 10.8687 2.99902 11.0001 2.99902C11.1315 2.99902 11.2616 3.02493 11.383 3.07525C11.5044 3.12557 11.6147 3.19933 11.7076 3.29231L17.7076 9.29231C17.8952 9.47995 18.0006 9.73445 18.0006 9.99981C18.0006 10.2652 17.8952 10.5197 17.7076 10.7073C17.5199 10.895 17.2654 11.0004 17.0001 11.0004C16.7347 11.0004 16.4802 10.895 16.2926 10.7073L12.0001 6.41356V20.9998C12.0001 22.5911 12.6322 24.1172 13.7574 25.2425C14.8826 26.3677 16.4088 26.9998 18.0001 26.9998C19.5914 26.9998 21.1175 26.3677 22.2427 25.2425C23.3679 24.1172 24.0001 22.5911 24.0001 20.9998V9.99981C24.0001 9.73459 24.1054 9.48024 24.293 9.2927C24.4805 9.10517 24.7349 8.99981 25.0001 8.99981C25.2653 8.99981 25.5196 9.10517 25.7072 9.2927C25.8947 9.48024 26.0001 9.73459 26.0001 9.99981Z" fill="#4A4A4F"/>
</svg>
