<svg width="32" height="32" viewBox="0 0 32 32" fill="none" xmlns="http://www.w3.org/2000/svg">
<path d="M25.0001 11.0001V24.0001C25.0001 24.2653 24.8947 24.5196 24.7072 24.7072C24.5196 24.8947 24.2653 25.0001 24.0001 25.0001H11.0001C10.7349 25.0001 10.4805 24.8947 10.293 24.7072C10.1054 24.5196 10.0001 24.2653 10.0001 24.0001C10.0001 23.7349 10.1054 23.4805 10.293 23.293C10.4805 23.1054 10.7349 23.0001 11.0001 23.0001H21.5863L7.29257 8.70757C7.10493 8.51993 6.99951 8.26543 6.99951 8.00007C6.99951 7.7347 7.10493 7.48021 7.29257 7.29257C7.48021 7.10493 7.7347 6.99951 8.00007 6.99951C8.26543 6.99951 8.51993 7.10493 8.70757 7.29257L23.0001 21.5863V11.0001C23.0001 10.7349 23.1054 10.4805 23.293 10.293C23.4805 10.1054 23.7349 10.0001 24.0001 10.0001C24.2653 10.0001 24.5196 10.1054 24.7072 10.293C24.8947 10.4805 25.0001 10.7349 25.0001 11.0001Z" fill="#4A4A4F"/>
</svg>
