<svg width="32" height="32" viewBox="0 0 32 32" fill="none" xmlns="http://www.w3.org/2000/svg">
<path d="M22.9998 8.99981H15.9998V3.99981C16 3.80192 15.9414 3.60842 15.8315 3.44383C15.7217 3.27923 15.5654 3.15094 15.3826 3.07519C15.1998 2.99944 14.9986 2.97963 14.8045 3.01828C14.6104 3.05693 14.4322 3.1523 14.2923 3.29231L2.29231 15.2923C2.19933 15.3852 2.12557 15.4955 2.07525 15.6169C2.02493 15.7383 1.99902 15.8684 1.99902 15.9998C1.99902 16.1312 2.02493 16.2614 2.07525 16.3828C2.12557 16.5041 2.19933 16.6144 2.29231 16.7073L14.2923 28.7073C14.4322 28.8473 14.6104 28.9427 14.8045 28.9813C14.9986 29.02 15.1998 29.0002 15.3826 28.9244C15.5654 28.8487 15.7217 28.7204 15.8315 28.5558C15.9414 28.3912 16 28.1977 15.9998 27.9998V22.9998H22.9998C23.265 22.9998 23.5194 22.8945 23.7069 22.7069C23.8945 22.5194 23.9998 22.265 23.9998 21.9998V9.99981C23.9998 9.73459 23.8945 9.48024 23.7069 9.2927C23.5194 9.10517 23.265 8.99981 22.9998 8.99981ZM21.9998 20.9998H14.9998C14.7346 20.9998 14.4802 21.1052 14.2927 21.2927C14.1052 21.4802 13.9998 21.7346 13.9998 21.9998V25.5861L4.41356 15.9998L13.9998 6.41356V9.99981C13.9998 10.265 14.1052 10.5194 14.2927 10.7069C14.4802 10.8945 14.7346 10.9998 14.9998 10.9998H21.9998V20.9998ZM27.9998 9.99981V21.9998C27.9998 22.265 27.8945 22.5194 27.7069 22.7069C27.5194 22.8945 27.265 22.9998 26.9998 22.9998C26.7346 22.9998 26.4802 22.8945 26.2927 22.7069C26.1052 22.5194 25.9998 22.265 25.9998 21.9998V9.99981C25.9998 9.73459 26.1052 9.48024 26.2927 9.2927C26.4802 9.10517 26.7346 8.99981 26.9998 8.99981C27.265 8.99981 27.5194 9.10517 27.7069 9.2927C27.8945 9.48024 27.9998 9.73459 27.9998 9.99981Z" fill="#4A4A4F"/>
</svg>
