<svg width="32" height="32" viewBox="0 0 32 32" fill="none" xmlns="http://www.w3.org/2000/svg">
<path d="M25.9998 4C25.9998 4.26522 25.8945 4.51957 25.7069 4.70711C25.5194 4.89464 25.265 5 24.9998 5C22.0834 5.00331 19.2875 6.1633 17.2253 8.22548C15.1631 10.2877 14.0031 13.0836 13.9998 16V21H18.9998C19.1977 20.9998 19.3912 21.0584 19.5558 21.1683C19.7204 21.2782 19.8487 21.4344 19.9244 21.6172C20.0002 21.8 20.02 22.0012 19.9813 22.1953C19.9427 22.3894 19.8473 22.5676 19.7073 22.7075L13.7073 28.7075C13.6144 28.8005 13.5041 28.8742 13.3828 28.9246C13.2614 28.9749 13.1312 29.0008 12.9998 29.0008C12.8684 29.0008 12.7383 28.9749 12.6169 28.9246C12.4955 28.8742 12.3852 28.8005 12.2923 28.7075L6.29231 22.7075C6.1523 22.5676 6.05693 22.3894 6.01828 22.1953C5.97963 22.0012 5.99944 21.8 6.07519 21.6172C6.15094 21.4344 6.27923 21.2782 6.44383 21.1683C6.60842 21.0584 6.80192 20.9998 6.99981 21H11.9998V16C12.0035 12.5533 13.3743 9.24882 15.8114 6.81163C18.2486 4.37445 21.5531 3.00364 24.9998 3C25.265 3 25.5194 3.10536 25.7069 3.29289C25.8945 3.48043 25.9998 3.73478 25.9998 4Z" fill="#4A4A4F"/>
</svg>
