<svg width="32" height="32" viewBox="0 0 32 32" fill="none" xmlns="http://www.w3.org/2000/svg">
<path d="M24.7075 24.7075C24.6146 24.8005 24.5043 24.8742 24.3829 24.9246C24.2615 24.9749 24.1314 25.0008 24 25.0008C23.8686 25.0008 23.7385 24.9749 23.6171 24.9246C23.4957 24.8742 23.3854 24.8005 23.2925 24.7075L14.5 15.9137L8.7075 21.7075C8.56765 21.8475 8.38939 21.9429 8.19531 21.9815C8.00122 22.0202 7.80003 22.0004 7.61721 21.9246C7.43439 21.8489 7.27815 21.7206 7.16828 21.556C7.05841 21.3914 6.99984 21.1979 7 21V8C7 7.73478 7.10536 7.48043 7.29289 7.29289C7.48043 7.10536 7.73478 7 8 7H21C21.1979 6.99984 21.3914 7.05841 21.556 7.16828C21.7206 7.27815 21.8489 7.43439 21.9246 7.61721C22.0004 7.80003 22.0202 8.00122 21.9815 8.19531C21.9429 8.38939 21.8475 8.56765 21.7075 8.7075L15.9137 14.5L24.7075 23.2925C24.8005 23.3854 24.8742 23.4957 24.9246 23.6171C24.9749 23.7385 25.0008 23.8686 25.0008 24C25.0008 24.1314 24.9749 24.2615 24.9246 24.3829C24.8742 24.5043 24.8005 24.6146 24.7075 24.7075Z" fill="#4A4A4F"/>
</svg>
