<svg width="32" height="32" viewBox="0 0 32 32" fill="none" xmlns="http://www.w3.org/2000/svg">
<path d="M28.9998 14C28.9975 16.121 28.1539 18.1545 26.6541 19.6543C25.1543 21.1541 23.1208 21.9977 20.9998 22H10.9998V27C11 27.1979 10.9414 27.3914 10.8315 27.556C10.7217 27.7206 10.5654 27.8489 10.3826 27.9246C10.1998 28.0004 9.99859 28.0202 9.8045 27.9815C9.61042 27.9429 9.43217 27.8475 9.29231 27.7075L3.29231 21.7075C3.19933 21.6146 3.12557 21.5043 3.07525 21.3829C3.02493 21.2615 2.99902 21.1314 2.99902 21C2.99902 20.8686 3.02493 20.7385 3.07525 20.6171C3.12557 20.4957 3.19933 20.3854 3.29231 20.2925L9.29231 14.2925C9.43217 14.1525 9.61042 14.0571 9.8045 14.0185C9.99859 13.9798 10.1998 13.9996 10.3826 14.0754C10.5654 14.1511 10.7217 14.2794 10.8315 14.444C10.9414 14.6086 11 14.8021 10.9998 15V20H20.9998C22.5911 20 24.1172 19.3679 25.2425 18.2426C26.3677 17.1174 26.9998 15.5913 26.9998 14C26.9998 12.4087 26.3677 10.8826 25.2425 9.75736C24.1172 8.63214 22.5911 8 20.9998 8H9.99981C9.73459 8 9.48024 7.89464 9.2927 7.70711C9.10517 7.51957 8.99981 7.26522 8.99981 7C8.99981 6.73478 9.10517 6.48043 9.2927 6.29289C9.48024 6.10536 9.73459 6 9.99981 6H20.9998C23.1208 6.00232 25.1543 6.84591 26.6541 8.3457C28.1539 9.84549 28.9975 11.879 28.9998 14Z" fill="#4A4A4F"/>
</svg>
