<svg width="32" height="32" viewBox="0 0 32 32" fill="none" xmlns="http://www.w3.org/2000/svg">
<path d="M28 27C28 27.2652 27.8946 27.5196 27.7071 27.7071C27.5196 27.8946 27.2652 28 27 28H5C4.73478 28 4.48043 27.8946 4.29289 27.7071C4.10536 27.5196 4 27.2652 4 27C4 26.7348 4.10536 26.4804 4.29289 26.2929C4.48043 26.1054 4.73478 26 5 26H27C27.2652 26 27.5196 26.1054 27.7071 26.2929C27.8946 26.4804 28 26.7348 28 27ZM8 20C8.26522 20 8.51957 19.8946 8.70711 19.7071C8.89464 19.5196 9 19.2652 9 19V9.41375L21.2925 21.7075C21.3854 21.8004 21.4957 21.8741 21.6171 21.9244C21.7385 21.9747 21.8686 22.0006 22 22.0006C22.1314 22.0006 22.2615 21.9747 22.3829 21.9244C22.5043 21.8741 22.6146 21.8004 22.7075 21.7075C22.8004 21.6146 22.8741 21.5043 22.9244 21.3829C22.9747 21.2615 23.0006 21.1314 23.0006 21C23.0006 20.8686 22.9747 20.7385 22.9244 20.6171C22.8741 20.4957 22.8004 20.3854 22.7075 20.2925L10.4137 8H20C20.2652 8 20.5196 7.89464 20.7071 7.70711C20.8946 7.51957 21 7.26522 21 7C21 6.73478 20.8946 6.48043 20.7071 6.29289C20.5196 6.10536 20.2652 6 20 6H8C7.73478 6 7.48043 6.10536 7.29289 6.29289C7.10536 6.48043 7 6.73478 7 7V19C7 19.2652 7.10536 19.5196 7.29289 19.7071C7.48043 19.8946 7.73478 20 8 20Z" fill="#4A4A4F"/>
</svg>
