<svg width="32" height="32" viewBox="0 0 32 32" fill="none" xmlns="http://www.w3.org/2000/svg">
<path d="M21.2925 16.2926L25.5863 12.0001H11C9.4087 12.0001 7.88258 12.6322 6.75736 13.7574C5.63214 14.8826 5 16.4088 5 18.0001C5 19.5914 5.63214 21.1175 6.75736 22.2427C7.88258 23.3679 9.4087 24.0001 11 24.0001H22C22.2652 24.0001 22.5196 24.1054 22.7071 24.293C22.8946 24.4805 23 24.7349 23 25.0001C23 25.2653 22.8946 25.5196 22.7071 25.7072C22.5196 25.8947 22.2652 26.0001 22 26.0001H11C8.87827 26.0001 6.84344 25.1572 5.34315 23.6569C3.84285 22.1566 3 20.1218 3 18.0001C3 15.8783 3.84285 13.8435 5.34315 12.3432C6.84344 10.8429 8.87827 10.0001 11 10.0001H25.5863L21.2925 5.70757C21.1996 5.61466 21.1259 5.50436 21.0756 5.38296C21.0253 5.26157 20.9994 5.13146 20.9994 5.00007C20.9994 4.86867 21.0253 4.73856 21.0756 4.61717C21.1259 4.49578 21.1996 4.38548 21.2925 4.29257C21.3854 4.19966 21.4957 4.12596 21.6171 4.07567C21.7385 4.02539 21.8686 3.99951 22 3.99951C22.1314 3.99951 22.2615 4.02539 22.3829 4.07567C22.5043 4.12596 22.6146 4.19966 22.7075 4.29257L28.7075 10.2926C28.8005 10.3854 28.8742 10.4957 28.9246 10.6171C28.9749 10.7385 29.0008 10.8687 29.0008 11.0001C29.0008 11.1315 28.9749 11.2616 28.9246 11.383C28.8742 11.5044 28.8005 11.6147 28.7075 11.7076L22.7075 17.7076C22.5199 17.8952 22.2654 18.0006 22 18.0006C21.7346 18.0006 21.4801 17.8952 21.2925 17.7076C21.1049 17.5199 20.9994 17.2654 20.9994 17.0001C20.9994 16.7347 21.1049 16.4802 21.2925 16.2926Z" fill="#4A4A4F"/>
</svg>
