<svg width="32" height="32" viewBox="0 0 32 32" fill="none" xmlns="http://www.w3.org/2000/svg">
<path d="M29.7073 16.7073L25.7073 20.7073C25.5675 20.8473 25.3892 20.9427 25.1951 20.9813C25.001 21.02 24.7998 21.0002 24.617 20.9244C24.4342 20.8487 24.278 20.7204 24.1681 20.5558C24.0582 20.3912 23.9997 20.1977 23.9998 19.9998V16.9998H7.99981V19.9998C7.99997 20.1977 7.9414 20.3912 7.83153 20.5558C7.72166 20.7204 7.56542 20.8487 7.3826 20.9244C7.19978 21.0002 6.99859 21.02 6.8045 20.9813C6.61042 20.9427 6.43217 20.8473 6.29231 20.7073L2.29231 16.7073C2.19933 16.6144 2.12557 16.5041 2.07525 16.3828C2.02493 16.2614 1.99902 16.1312 1.99902 15.9998C1.99902 15.8684 2.02493 15.7383 2.07525 15.6169C2.12557 15.4955 2.19933 15.3852 2.29231 15.2923L6.29231 11.2923C6.43217 11.1523 6.61042 11.0569 6.8045 11.0183C6.99859 10.9796 7.19978 10.9994 7.3826 11.0752C7.56542 11.1509 7.72166 11.2792 7.83153 11.4438C7.9414 11.6084 7.99997 11.8019 7.99981 11.9998V14.9998H23.9998V11.9998C23.9997 11.8019 24.0582 11.6084 24.1681 11.4438C24.278 11.2792 24.4342 11.1509 24.617 11.0752C24.7998 10.9994 25.001 10.9796 25.1951 11.0183C25.3892 11.0569 25.5675 11.1523 25.7073 11.2923L29.7073 15.2923C29.8003 15.3852 29.874 15.4955 29.9244 15.6169C29.9747 15.7383 30.0006 15.8684 30.0006 15.9998C30.0006 16.1312 29.9747 16.2614 29.9244 16.3828C29.874 16.5041 29.8003 16.6144 29.7073 16.7073Z" fill="#4A4A4F"/>
</svg>
