<svg width="32" height="32" viewBox="0 0 32 32" fill="none" xmlns="http://www.w3.org/2000/svg">
<path d="M25.9998 27.9998C25.9998 28.265 25.8945 28.5194 25.7069 28.7069C25.5194 28.8945 25.265 28.9998 24.9998 28.9998C21.5531 28.9962 18.2486 27.6254 15.8114 25.1882C13.3743 22.751 12.0035 19.4465 11.9998 15.9998V10.9998H6.99981C6.80192 11 6.60842 10.9414 6.44383 10.8315C6.27923 10.7217 6.15094 10.5654 6.07519 10.3826C5.99944 10.1998 5.97963 9.99859 6.01828 9.8045C6.05693 9.61042 6.1523 9.43217 6.29231 9.29231L12.2923 3.29231C12.3852 3.19933 12.4955 3.12557 12.6169 3.07525C12.7383 3.02493 12.8684 2.99902 12.9998 2.99902C13.1312 2.99902 13.2614 3.02493 13.3828 3.07525C13.5041 3.12557 13.6144 3.19933 13.7073 3.29231L19.7073 9.29231C19.8473 9.43217 19.9427 9.61042 19.9813 9.8045C20.02 9.99859 20.0002 10.1998 19.9244 10.3826C19.8487 10.5654 19.7204 10.7217 19.5558 10.8315C19.3912 10.9414 19.1977 11 18.9998 10.9998H13.9998V15.9998C14.0031 18.9162 15.1631 21.7121 17.2253 23.7743C19.2875 25.8365 22.0834 26.9965 24.9998 26.9998C25.265 26.9998 25.5194 27.1052 25.7069 27.2927C25.8945 27.4802 25.9998 27.7346 25.9998 27.9998Z" fill="#4A4A4F"/>
</svg>
