<svg width="32" height="32" viewBox="0 0 32 32" fill="none" xmlns="http://www.w3.org/2000/svg">
<path d="M25.7075 10.7073C25.6146 10.8003 25.5043 10.874 25.3829 10.9244C25.2615 10.9747 25.1314 11.0006 25 11.0006C24.8686 11.0006 24.7385 10.9747 24.6171 10.9244C24.4957 10.874 24.3854 10.8003 24.2925 10.7073L20 6.41356V15.9998C19.9964 19.4465 18.6256 22.751 16.1884 25.1882C13.7512 27.6254 10.4467 28.9962 7 28.9998C6.73478 28.9998 6.48043 28.8945 6.29289 28.7069C6.10536 28.5194 6 28.265 6 27.9998C6 27.7346 6.10536 27.4802 6.29289 27.2927C6.48043 27.1052 6.73478 26.9998 7 26.9998C9.91637 26.9965 12.7123 25.8365 14.7745 23.7743C16.8367 21.7121 17.9967 18.9162 18 15.9998V6.41356L13.7075 10.7073C13.5199 10.895 13.2654 11.0004 13 11.0004C12.7346 11.0004 12.4801 10.895 12.2925 10.7073C12.1049 10.5197 11.9994 10.2652 11.9994 9.99981C11.9994 9.73445 12.1049 9.47995 12.2925 9.29231L18.2925 3.29231C18.3854 3.19933 18.4957 3.12557 18.6171 3.07525C18.7385 3.02493 18.8686 2.99902 19 2.99902C19.1314 2.99902 19.2615 3.02493 19.3829 3.07525C19.5043 3.12557 19.6146 3.19933 19.7075 3.29231L25.7075 9.29231C25.8005 9.38518 25.8742 9.49547 25.9246 9.61687C25.9749 9.73827 26.0008 9.86839 26.0008 9.99981C26.0008 10.1312 25.9749 10.2614 25.9246 10.3828C25.8742 10.5041 25.8005 10.6144 25.7075 10.7073Z" fill="#4A4A4F"/>
</svg>
