<svg width="32" height="32" viewBox="0 0 32 32" fill="none" xmlns="http://www.w3.org/2000/svg">
<path d="M30.0002 6.99985V12.9999C30.0002 13.2651 29.8948 13.5194 29.7073 13.707C29.5197 13.8945 29.2654 13.9999 29.0002 13.9999H23.0002C22.735 13.9999 22.4806 13.8945 22.2931 13.707C22.1055 13.5194 22.0002 13.2651 22.0002 12.9999C22.0002 12.7346 22.1055 12.4803 22.2931 12.2927C22.4806 12.1052 22.735 11.9999 23.0002 11.9999H26.4252L23.1014 8.95485L23.0702 8.92485C21.6803 7.53546 19.9118 6.58642 17.9856 6.19628C16.0595 5.80615 14.0611 5.99221 12.24 6.73123C10.419 7.47025 8.85612 8.72946 7.7466 10.3516C6.63707 11.9737 6.03009 13.8867 6.0015 15.8518C5.97291 17.8168 6.52397 19.7468 7.58584 21.4004C8.64771 23.0541 10.1733 24.3583 11.9721 25.15C13.7708 25.9417 15.763 26.1858 17.6996 25.8518C19.6363 25.5179 21.4317 24.6207 22.8614 23.2724C23.0542 23.09 23.3115 22.9917 23.5768 22.9991C23.842 23.0065 24.0935 23.1189 24.2758 23.3117C24.4581 23.5045 24.5564 23.7618 24.549 24.0271C24.5417 24.2923 24.4292 24.5438 24.2364 24.7261C22.0133 26.8345 19.0641 28.0067 16.0002 27.9999H15.8352C13.8698 27.9729 11.9412 27.4637 10.2188 26.5168C8.49638 25.57 7.0329 24.2146 5.957 22.5697C4.88109 20.9248 4.2257 19.0408 4.04842 17.0833C3.87115 15.1258 4.17742 13.1547 4.94031 11.3433C5.7032 9.53188 6.89936 7.93559 8.42366 6.69472C9.94796 5.45385 11.7537 4.6064 13.6822 4.22684C15.6108 3.84729 17.603 3.94726 19.4838 4.51796C21.3646 5.08866 23.0765 6.11263 24.4689 7.49985L28.0002 10.7249V6.99985C28.0002 6.73464 28.1055 6.48028 28.2931 6.29275C28.4806 6.10521 28.735 5.99985 29.0002 5.99985C29.2654 5.99985 29.5197 6.10521 29.7073 6.29275C29.8948 6.48028 30.0002 6.73464 30.0002 6.99985Z" fill="#4A4A4F"/>
</svg>
