<svg width="32" height="32" viewBox="0 0 32 32" fill="none" xmlns="http://www.w3.org/2000/svg">
<path d="M24.7075 24.7075C24.6146 24.8005 24.5043 24.8742 24.3829 24.9246C24.2615 24.9749 24.1314 25.0008 24 25.0008C23.8686 25.0008 23.7385 24.9749 23.6171 24.9246C23.4957 24.8742 23.3854 24.8005 23.2925 24.7075L9 10.4137V21C9 21.2652 8.89464 21.5196 8.70711 21.7071C8.51957 21.8946 8.26522 22 8 22C7.73478 22 7.48043 21.8946 7.29289 21.7071C7.10536 21.5196 7 21.2652 7 21V8C7 7.73478 7.10536 7.48043 7.29289 7.29289C7.48043 7.10536 7.73478 7 8 7H21C21.2652 7 21.5196 7.10536 21.7071 7.29289C21.8946 7.48043 22 7.73478 22 8C22 8.26522 21.8946 8.51957 21.7071 8.70711C21.5196 8.89464 21.2652 9 21 9H10.4137L24.7075 23.2925C24.8005 23.3854 24.8742 23.4957 24.9246 23.6171C24.9749 23.7385 25.0008 23.8686 25.0008 24C25.0008 24.1314 24.9749 24.2615 24.9246 24.3829C24.8742 24.5043 24.8005 24.6146 24.7075 24.7075Z" fill="#4A4A4F"/>
</svg>
