<svg width="32" height="32" viewBox="0 0 32 32" fill="none" xmlns="http://www.w3.org/2000/svg">
<path d="M27.9998 10.9998V20.9998C27.9998 21.5302 27.7891 22.039 27.414 22.414C27.0389 22.7891 26.5302 22.9998 25.9998 22.9998H15.9998V27.9998C16 28.1977 15.9414 28.3912 15.8315 28.5558C15.7217 28.7204 15.5654 28.8487 15.3826 28.9244C15.1998 29.0002 14.9986 29.02 14.8045 28.9813C14.6104 28.9427 14.4322 28.8473 14.2923 28.7073L2.29231 16.7073C2.19933 16.6144 2.12557 16.5041 2.07525 16.3828C2.02493 16.2614 1.99902 16.1312 1.99902 15.9998C1.99902 15.8684 2.02493 15.7383 2.07525 15.6169C2.12557 15.4955 2.19933 15.3852 2.29231 15.2923L14.2923 3.29231C14.4322 3.1523 14.6104 3.05693 14.8045 3.01828C14.9986 2.97963 15.1998 2.99944 15.3826 3.07519C15.5654 3.15094 15.7217 3.27923 15.8315 3.44383C15.9414 3.60842 16 3.80192 15.9998 3.99981V8.99981H25.9998C26.5302 8.99981 27.0389 9.21053 27.414 9.5856C27.7891 9.96067 27.9998 10.4694 27.9998 10.9998Z" fill="#4A4A4F"/>
</svg>
