<svg width="32" height="32" viewBox="0 0 32 32" fill="none" xmlns="http://www.w3.org/2000/svg">
<path d="M27.7075 16.7073L18.7075 25.7073C18.5676 25.8473 18.3894 25.9427 18.1953 25.9813C18.0012 26.02 17.8 26.0002 17.6172 25.9244C17.4344 25.8487 17.2782 25.7204 17.1683 25.5558C17.0584 25.3912 16.9998 25.1977 17 24.9998V16.9998H5C4.73478 16.9998 4.48043 16.8945 4.29289 16.7069C4.10536 16.5194 4 16.265 4 15.9998C4 15.7346 4.10536 15.4802 4.29289 15.2927C4.48043 15.1052 4.73478 14.9998 5 14.9998H17V6.99981C16.9998 6.80192 17.0584 6.60842 17.1683 6.44383C17.2782 6.27923 17.4344 6.15094 17.6172 6.07519C17.8 5.99944 18.0012 5.97963 18.1953 6.01828C18.3894 6.05693 18.5676 6.1523 18.7075 6.29231L27.7075 15.2923C27.8005 15.3852 27.8742 15.4955 27.9246 15.6169C27.9749 15.7383 28.0008 15.8684 28.0008 15.9998C28.0008 16.1312 27.9749 16.2614 27.9246 16.3828C27.8742 16.5041 27.8005 16.6144 27.7075 16.7073Z" fill="#4A4A4F"/>
</svg>
