<svg width="32" height="32" viewBox="0 0 32 32" fill="none" xmlns="http://www.w3.org/2000/svg">
<path d="M10.7073 18.2923C10.895 18.48 11.0004 18.7344 11.0004 18.9998C11.0004 19.2652 10.895 19.5197 10.7073 19.7073C10.5197 19.895 10.2652 20.0004 9.99981 20.0004C9.73445 20.0004 9.47995 19.895 9.29231 19.7073L3.29231 13.7073C3.19933 13.6144 3.12557 13.5041 3.07525 13.3828C3.02493 13.2614 2.99902 13.1312 2.99902 12.9998C2.99902 12.8684 3.02493 12.7383 3.07525 12.6169C3.12557 12.4955 3.19933 12.3852 3.29231 12.2923L9.29231 6.29231C9.47995 6.10467 9.73445 5.99925 9.99981 5.99925C10.2652 5.99925 10.5197 6.10467 10.7073 6.29231C10.895 6.47995 11.0004 6.73445 11.0004 6.99981C11.0004 7.26517 10.895 7.51967 10.7073 7.70731L5.41356 12.9998L10.7073 18.2923ZM16.9998 12.0373V6.99981C17 6.80192 16.9414 6.60842 16.8315 6.44383C16.7217 6.27923 16.5654 6.15094 16.3826 6.07519C16.1998 5.99944 15.9986 5.97963 15.8045 6.01828C15.6104 6.05693 15.4322 6.1523 15.2923 6.29231L9.29231 12.2923C9.19933 12.3852 9.12558 12.4955 9.07525 12.6169C9.02493 12.7383 8.99902 12.8684 8.99902 12.9998C8.99902 13.1312 9.02493 13.2614 9.07525 13.3828C9.12558 13.5041 9.19933 13.6144 9.29231 13.7073L15.2923 19.7073C15.4322 19.8473 15.6104 19.9427 15.8045 19.9813C15.9986 20.02 16.1998 20.0002 16.3826 19.9244C16.5654 19.8487 16.7217 19.7204 16.8315 19.5558C16.9414 19.3912 17 19.1977 16.9998 18.9998V14.0461C19.7314 14.2986 22.2705 15.5614 24.12 17.5873C25.9696 19.6133 26.9965 22.2566 26.9998 24.9998C26.9998 25.265 27.1052 25.5194 27.2927 25.7069C27.4802 25.8945 27.7346 25.9998 27.9998 25.9998C28.265 25.9998 28.5194 25.8945 28.7069 25.7069C28.8945 25.5194 28.9998 25.265 28.9998 24.9998C28.9957 21.7262 27.7585 18.5743 25.5346 16.172C23.3107 13.7698 20.2634 12.2935 16.9998 12.0373Z" fill="#4A4A4F"/>
</svg>
