<svg width="32" height="32" viewBox="0 0 32 32" fill="none" xmlns="http://www.w3.org/2000/svg">
<path d="M27.7075 22.7075L21.7075 28.7075C21.6146 28.8005 21.5043 28.8742 21.3829 28.9246C21.2615 28.9749 21.1314 29.0008 21 29.0008C20.8686 29.0008 20.7385 28.9749 20.6171 28.9246C20.4957 28.8742 20.3854 28.8005 20.2925 28.7075L14.2925 22.7075C14.1525 22.5676 14.0571 22.3894 14.0185 22.1953C13.9798 22.0012 13.9996 21.8 14.0754 21.6172C14.1511 21.4344 14.2794 21.2782 14.444 21.1683C14.6086 21.0584 14.8021 20.9998 15 21H20V11C20 9.4087 19.3679 7.88258 18.2426 6.75736C17.1174 5.63214 15.5913 5 14 5C12.4087 5 10.8826 5.63214 9.75736 6.75736C8.63214 7.88258 8 9.4087 8 11V22C8 22.2652 7.89464 22.5196 7.70711 22.7071C7.51957 22.8946 7.26522 23 7 23C6.73478 23 6.48043 22.8946 6.29289 22.7071C6.10536 22.5196 6 22.2652 6 22V11C6 8.87827 6.84285 6.84344 8.34315 5.34315C9.84344 3.84285 11.8783 3 14 3C16.1217 3 18.1566 3.84285 19.6569 5.34315C21.1571 6.84344 22 8.87827 22 11V21H27C27.1979 20.9998 27.3914 21.0584 27.556 21.1683C27.7206 21.2782 27.8489 21.4344 27.9246 21.6172C28.0004 21.8 28.0202 22.0012 27.9815 22.1953C27.9429 22.3894 27.8475 22.5676 27.7075 22.7075Z" fill="#4A4A4F"/>
</svg>
