<svg width="32" height="32" viewBox="0 0 32 32" fill="none" xmlns="http://www.w3.org/2000/svg">
<path d="M25.7075 22.7075L19.7075 28.7075C19.6146 28.8005 19.5043 28.8742 19.3829 28.9246C19.2615 28.9749 19.1314 29.0008 19 29.0008C18.8686 29.0008 18.7385 28.9749 18.6171 28.9246C18.4957 28.8742 18.3854 28.8005 18.2925 28.7075L12.2925 22.7075C12.1525 22.5676 12.0571 22.3894 12.0185 22.1953C11.9798 22.0012 11.9996 21.8 12.0754 21.6172C12.1511 21.4344 12.2794 21.2782 12.444 21.1683C12.6086 21.0584 12.8021 20.9998 13 21H18V16C17.9967 13.0836 16.8367 10.2877 14.7745 8.22548C12.7123 6.1633 9.91637 5.00331 7 5C6.73478 5 6.48043 4.89464 6.29289 4.70711C6.10536 4.51957 6 4.26522 6 4C6 3.73478 6.10536 3.48043 6.29289 3.29289C6.48043 3.10536 6.73478 3 7 3C10.4467 3.00364 13.7512 4.37445 16.1884 6.81163C18.6256 9.24882 19.9964 12.5533 20 16V21H25C25.1979 20.9998 25.3914 21.0584 25.556 21.1683C25.7206 21.2782 25.8489 21.4344 25.9246 21.6172C26.0004 21.8 26.0202 22.0012 25.9815 22.1953C25.9429 22.3894 25.8475 22.5676 25.7075 22.7075Z" fill="#4A4A4F"/>
</svg>
