<svg width="32" height="32" viewBox="0 0 32 32" fill="none" xmlns="http://www.w3.org/2000/svg">
<path d="M25.7075 17.2925C25.8004 17.3854 25.8741 17.4957 25.9244 17.6171C25.9747 17.7385 26.0006 17.8686 26.0006 18C26.0006 18.1314 25.9747 18.2615 25.9244 18.3829C25.8741 18.5043 25.8004 18.6146 25.7075 18.7075C25.6146 18.8004 25.5043 18.8741 25.3829 18.9244C25.2615 18.9747 25.1314 19.0006 25 19.0006C24.8686 19.0006 24.7385 18.9747 24.6171 18.9244C24.4957 18.8741 24.3854 18.8004 24.2925 18.7075L17 11.4137V28C17 28.2652 16.8946 28.5196 16.7071 28.7071C16.5196 28.8946 16.2652 29 16 29C15.7348 29 15.4804 28.8946 15.2929 28.7071C15.1054 28.5196 15 28.2652 15 28V11.4137L7.7075 18.7075C7.61459 18.8004 7.50429 18.8741 7.3829 18.9244C7.2615 18.9747 7.13139 19.0006 7 19.0006C6.86861 19.0006 6.7385 18.9747 6.6171 18.9244C6.49571 18.8741 6.38541 18.8004 6.2925 18.7075C6.19959 18.6146 6.12589 18.5043 6.07561 18.3829C6.02532 18.2615 5.99944 18.1314 5.99944 18C5.99944 17.8686 6.02532 17.7385 6.07561 17.6171C6.12589 17.4957 6.19959 17.3854 6.2925 17.2925L15.2925 8.2925C15.3854 8.19952 15.4957 8.12576 15.6171 8.07544C15.7385 8.02512 15.8686 7.99921 16 7.99921C16.1314 7.99921 16.2615 8.02512 16.3829 8.07544C16.5043 8.12576 16.6146 8.19952 16.7075 8.2925L25.7075 17.2925ZM27 4H5C4.73478 4 4.48043 4.10536 4.29289 4.29289C4.10536 4.48043 4 4.73478 4 5C4 5.26522 4.10536 5.51957 4.29289 5.70711C4.48043 5.89464 4.73478 6 5 6H27C27.2652 6 27.5196 5.89464 27.7071 5.70711C27.8946 5.51957 28 5.26522 28 5C28 4.73478 27.8946 4.48043 27.7071 4.29289C27.5196 4.10536 27.2652 4 27 4Z" fill="#4A4A4F"/>
</svg>
