<svg width="32" height="32" viewBox="0 0 32 32" fill="none" xmlns="http://www.w3.org/2000/svg">
<path d="M9.2925 21.7075C9.19952 21.6146 9.12576 21.5043 9.07544 21.3829C9.02512 21.2615 8.99921 21.1314 8.99921 21C8.99921 20.8686 9.02512 20.7385 9.07544 20.6171C9.12576 20.4957 9.19952 20.3854 9.2925 20.2925L16.5863 13L11.2925 7.7075C11.1525 7.56764 11.0571 7.38939 11.0185 7.19531C10.9798 7.00122 10.9996 6.80003 11.0754 6.61721C11.1511 6.43439 11.2794 6.27815 11.444 6.16828C11.6086 6.05841 11.8021 5.99984 12 6H24C24.2652 6 24.5196 6.10536 24.7071 6.29289C24.8946 6.48043 25 6.73478 25 7V19C25.0002 19.1979 24.9416 19.3914 24.8317 19.556C24.7218 19.7206 24.5656 19.8489 24.3828 19.9246C24.2 20.0004 23.9988 20.0202 23.8047 19.9815C23.6106 19.9429 23.4324 19.8475 23.2925 19.7075L18 14.4137L10.7075 21.7075C10.6146 21.8005 10.5043 21.8742 10.3829 21.9246C10.2615 21.9749 10.1314 22.0008 10 22.0008C9.86858 22.0008 9.73846 21.9749 9.61706 21.9246C9.49566 21.8742 9.38537 21.8005 9.2925 21.7075ZM27 26H5C4.73478 26 4.48043 26.1054 4.29289 26.2929C4.10536 26.4804 4 26.7348 4 27C4 27.2652 4.10536 27.5196 4.29289 27.7071C4.48043 27.8946 4.73478 28 5 28H27C27.2652 28 27.5196 27.8946 27.7071 27.7071C27.8946 27.5196 28 27.2652 28 27C28 26.7348 27.8946 26.4804 27.7071 26.2929C27.5196 26.1054 27.2652 26 27 26Z" fill="#4A4A4F"/>
</svg>
