<svg width="32" height="32" viewBox="0 0 32 32" fill="none" xmlns="http://www.w3.org/2000/svg">
<path d="M24.9998 4V22C24.9998 22.2652 24.8945 22.5196 24.7069 22.7071C24.5194 22.8946 24.265 23 23.9998 23H8.41356L12.7073 27.2925C12.8002 27.3854 12.8739 27.4957 12.9242 27.6171C12.9745 27.7385 13.0004 27.8686 13.0004 28C13.0004 28.1314 12.9745 28.2615 12.9242 28.3829C12.8739 28.5043 12.8002 28.6146 12.7073 28.7075C12.6144 28.8004 12.5041 28.8741 12.3827 28.9244C12.2613 28.9747 12.1312 29.0006 11.9998 29.0006C11.8684 29.0006 11.7383 28.9747 11.6169 28.9244C11.4955 28.8741 11.3852 28.8004 11.2923 28.7075L5.29231 22.7075C5.19933 22.6146 5.12557 22.5043 5.07525 22.3829C5.02493 22.2615 4.99902 22.1314 4.99902 22C4.99902 21.8686 5.02493 21.7385 5.07525 21.6171C5.12557 21.4957 5.19933 21.3854 5.29231 21.2925L11.2923 15.2925C11.48 15.1049 11.7344 14.9994 11.9998 14.9994C12.2652 14.9994 12.5197 15.1049 12.7073 15.2925C12.895 15.4801 13.0004 15.7346 13.0004 16C13.0004 16.2654 12.895 16.5199 12.7073 16.7075L8.41356 21H22.9998V4C22.9998 3.73478 23.1052 3.48043 23.2927 3.29289C23.4802 3.10536 23.7346 3 23.9998 3C24.265 3 24.5194 3.10536 24.7069 3.29289C24.8945 3.48043 24.9998 3.73478 24.9998 4Z" fill="#4A4A4F"/>
</svg>
