<svg width="32" height="32" viewBox="0 0 32 32" fill="none" xmlns="http://www.w3.org/2000/svg">
<path d="M26.7076 6.70757L20.4138 13.0001H24.0001C24.2653 13.0001 24.5196 13.1054 24.7072 13.293C24.8947 13.4805 25.0001 13.7349 25.0001 14.0001C25.0001 14.2653 24.8947 14.5196 24.7072 14.7072C24.5196 14.8947 24.2653 15.0001 24.0001 15.0001H18.0001C17.7349 15.0001 17.4805 14.8947 17.293 14.7072C17.1054 14.5196 17.0001 14.2653 17.0001 14.0001V8.00007C17.0001 7.73485 17.1054 7.4805 17.293 7.29296C17.4805 7.10542 17.7349 7.00007 18.0001 7.00007C18.2653 7.00007 18.5196 7.10542 18.7072 7.29296C18.8947 7.4805 19.0001 7.73485 19.0001 8.00007V11.5863L25.2926 5.29257C25.4802 5.10493 25.7347 4.99951 26.0001 4.99951C26.2654 4.99951 26.5199 5.10493 26.7076 5.29257C26.8952 5.48021 27.0006 5.7347 27.0006 6.00007C27.0006 6.26543 26.8952 6.51993 26.7076 6.70757ZM14.0001 17.0001H8.00007C7.73485 17.0001 7.4805 17.1054 7.29296 17.293C7.10542 17.4805 7.00007 17.7349 7.00007 18.0001C7.00007 18.2653 7.10542 18.5196 7.29296 18.7072C7.4805 18.8947 7.73485 19.0001 8.00007 19.0001H11.5863L5.29257 25.2926C5.10493 25.4802 4.99951 25.7347 4.99951 26.0001C4.99951 26.2654 5.10493 26.5199 5.29257 26.7076C5.48021 26.8952 5.7347 27.0006 6.00007 27.0006C6.26543 27.0006 6.51993 26.8952 6.70757 26.7076L13.0001 20.4138V24.0001C13.0001 24.2653 13.1054 24.5196 13.293 24.7072C13.4805 24.8947 13.7349 25.0001 14.0001 25.0001C14.2653 25.0001 14.5196 24.8947 14.7072 24.7072C14.8947 24.5196 15.0001 24.2653 15.0001 24.0001V18.0001C15.0001 17.7349 14.8947 17.4805 14.7072 17.293C14.5196 17.1054 14.2653 17.0001 14.0001 17.0001Z" fill="#4A4A4F"/>
</svg>
