<svg width="32" height="32" viewBox="0 0 32 32" fill="none" xmlns="http://www.w3.org/2000/svg">
<path d="M15.0001 17.9998V23.9998C15.0002 24.1977 14.9417 24.3912 14.8318 24.5558C14.7219 24.7204 14.5657 24.8487 14.3829 24.9244C14.2 25.0002 13.9988 25.02 13.8048 24.9813C13.6107 24.9427 13.4324 24.8473 13.2926 24.7073L11.0001 22.4136L6.70757 26.7073C6.51993 26.895 6.26543 27.0004 6.00007 27.0004C5.7347 27.0004 5.48021 26.895 5.29257 26.7073C5.10493 26.5197 4.99951 26.2652 4.99951 25.9998C4.99951 25.7344 5.10493 25.4799 5.29257 25.2923L9.58632 20.9998L7.29257 18.7073C7.15256 18.5675 7.05719 18.3892 7.01854 18.1951C6.97989 18.001 6.99969 17.7998 7.07545 17.617C7.1512 17.4342 7.27949 17.278 7.44409 17.1681C7.60868 17.0582 7.80217 16.9997 8.00007 16.9998H14.0001C14.2653 16.9998 14.5196 17.1052 14.7072 17.2927C14.8947 17.4802 15.0001 17.7346 15.0001 17.9998ZM26.7076 5.29231C26.6147 5.19933 26.5044 5.12557 26.383 5.07525C26.2616 5.02493 26.1315 4.99902 26.0001 4.99902C25.8687 4.99902 25.7385 5.02493 25.6171 5.07525C25.4957 5.12557 25.3854 5.19933 25.2926 5.29231L21.0001 9.58606L18.7076 7.29231C18.5677 7.1523 18.3895 7.05693 18.1954 7.01828C18.0013 6.97963 17.8001 6.99944 17.6173 7.07519C17.4345 7.15094 17.2782 7.27923 17.1683 7.44383C17.0585 7.60842 16.9999 7.80191 17.0001 7.99981V13.9998C17.0001 14.265 17.1054 14.5194 17.293 14.7069C17.4805 14.8945 17.7349 14.9998 18.0001 14.9998H24.0001C24.198 15 24.3915 14.9414 24.556 14.8315C24.7206 14.7217 24.8489 14.5654 24.9247 14.3826C25.0004 14.1998 25.0202 13.9986 24.9816 13.8045C24.9429 13.6104 24.8476 13.4322 24.7076 13.2923L22.4138 10.9998L26.7076 6.70731C26.8005 6.61444 26.8743 6.50415 26.9246 6.38275C26.975 6.26135 27.0009 6.13123 27.0009 5.99981C27.0009 5.86839 26.975 5.73827 26.9246 5.61687C26.8743 5.49547 26.8005 5.38518 26.7076 5.29231Z" fill="#4A4A4F"/>
</svg>
