<svg width="32" height="32" viewBox="0 0 32 32" fill="none" xmlns="http://www.w3.org/2000/svg">
<path d="M28.7075 19.7075L22.7075 25.7075C22.5199 25.8951 22.2654 26.0006 22 26.0006C21.7346 26.0006 21.4801 25.8951 21.2925 25.7075C21.1049 25.5199 20.9994 25.2654 20.9994 25C20.9994 24.7346 21.1049 24.4801 21.2925 24.2925L25.5863 20H16C12.5533 19.9964 9.24882 18.6256 6.81163 16.1884C4.37445 13.7512 3.00364 10.4467 3 7C3 6.73478 3.10536 6.48043 3.29289 6.29289C3.48043 6.10536 3.73478 6 4 6C4.26522 6 4.51957 6.10536 4.70711 6.29289C4.89464 6.48043 5 6.73478 5 7C5.00331 9.91637 6.1633 12.7123 8.22548 14.7745C10.2877 16.8367 13.0836 17.9967 16 18H25.5863L21.2925 13.7075C21.1049 13.5199 20.9994 13.2654 20.9994 13C20.9994 12.7346 21.1049 12.4801 21.2925 12.2925C21.4801 12.1049 21.7346 11.9994 22 11.9994C22.2654 11.9994 22.5199 12.1049 22.7075 12.2925L28.7075 18.2925C28.8005 18.3854 28.8742 18.4957 28.9246 18.6171C28.9749 18.7385 29.0008 18.8686 29.0008 19C29.0008 19.1314 28.9749 19.2615 28.9246 19.3829C28.8742 19.5043 28.8005 19.6146 28.7075 19.7075Z" fill="#4A4A4F"/>
</svg>
