<svg width="32" height="32" viewBox="0 0 32 32" fill="none" xmlns="http://www.w3.org/2000/svg">
<path d="M28 20V26C28.0002 26.1979 27.9416 26.3914 27.8317 26.556C27.7218 26.7206 27.5656 26.8489 27.3828 26.9246C27.2 27.0004 26.9988 27.0202 26.8047 26.9815C26.6106 26.9429 26.4324 26.8475 26.2925 26.7075L24.285 24.6987C21.7663 26.8625 18.92 28 16 28C10.6475 28 7.4275 24.8413 7.2925 24.7075C7.10469 24.5202 6.99899 24.2659 6.99864 24.0007C6.99828 23.7355 7.10332 23.4809 7.29063 23.2931C7.47793 23.1053 7.73218 22.9996 7.99742 22.9993C8.26267 22.9989 8.51719 23.1039 8.705 23.2913C8.75 23.335 11.52 26 16 26C18.8962 26 21.24 24.6438 22.865 23.28L20.2925 20.7075C20.1525 20.5676 20.0571 20.3894 20.0185 20.1953C19.9798 20.0012 19.9996 19.8 20.0754 19.6172C20.1511 19.4344 20.2794 19.2782 20.444 19.1683C20.6086 19.0584 20.8021 18.9998 21 19H27C27.2652 19 27.5196 19.1054 27.7071 19.2929C27.8946 19.4804 28 19.7348 28 20ZM11.9238 12.3825C11.9995 12.1998 12.0195 11.9987 11.981 11.8047C11.9425 11.6107 11.8473 11.4324 11.7075 11.2925L9.135 8.72C10.76 7.35625 13.1038 6 16 6C20.4937 6 23.2663 8.68 23.295 8.71C23.483 8.89731 23.7377 9.00227 24.003 9.00181C24.2684 9.00134 24.5227 8.89547 24.71 8.7075C24.8973 8.51953 25.0023 8.26485 25.0018 7.99948C25.0013 7.73412 24.8955 7.47981 24.7075 7.2925C24.5725 7.15875 21.3525 4 16 4C13.08 4 10.2338 5.1375 7.715 7.30125L5.7075 5.2925C5.56764 5.15249 5.38939 5.05712 5.19531 5.01847C5.00122 4.97982 4.80003 4.99962 4.61721 5.07538C4.43439 5.15113 4.27815 5.27942 4.16828 5.44402C4.05841 5.60861 3.99984 5.8021 4 6V12C4 12.2652 4.10536 12.5196 4.29289 12.7071C4.48043 12.8946 4.73478 13 5 13H11C11.1978 13 11.3911 12.9413 11.5555 12.8314C11.72 12.7214 11.8481 12.5652 11.9238 12.3825Z" fill="#4A4A4F"/>
</svg>
