<svg width="32" height="32" viewBox="0 0 32 32" fill="none" xmlns="http://www.w3.org/2000/svg">
<path d="M26.0001 4C26.0001 4.26522 25.8947 4.51957 25.7072 4.70711C25.5196 4.89464 25.2653 5 25.0001 5C22.0837 5.00331 19.2877 6.1633 17.2255 8.22548C15.1634 10.2877 14.0034 13.0836 14.0001 16V25.5863L18.2926 21.2925C18.4802 21.1049 18.7347 20.9994 19.0001 20.9994C19.2654 20.9994 19.5199 21.1049 19.7076 21.2925C19.8952 21.4801 20.0006 21.7346 20.0006 22C20.0006 22.2654 19.8952 22.5199 19.7076 22.7075L13.7076 28.7075C13.6147 28.8005 13.5044 28.8742 13.383 28.9246C13.2616 28.9749 13.1315 29.0008 13.0001 29.0008C12.8687 29.0008 12.7385 28.9749 12.6171 28.9246C12.4957 28.8742 12.3854 28.8005 12.2926 28.7075L6.29257 22.7075C6.19966 22.6146 6.12596 22.5043 6.07567 22.3829C6.02539 22.2615 5.99951 22.1314 5.99951 22C5.99951 21.8686 6.02539 21.7385 6.07567 21.6171C6.12596 21.4957 6.19966 21.3854 6.29257 21.2925C6.48021 21.1049 6.7347 20.9994 7.00007 20.9994C7.13146 20.9994 7.26157 21.0253 7.38296 21.0756C7.50436 21.1259 7.61466 21.1996 7.70757 21.2925L12.0001 25.5863V16C12.0037 12.5533 13.3745 9.24882 15.8117 6.81163C18.2489 4.37445 21.5534 3.00364 25.0001 3C25.2653 3 25.5196 3.10536 25.7072 3.29289C25.8947 3.48043 26.0001 3.73478 26.0001 4Z" fill="#4A4A4F"/>
</svg>
