<svg width="32" height="32" viewBox="0 0 32 32" fill="none" xmlns="http://www.w3.org/2000/svg">
<path d="M28 5C28 5.26522 27.8946 5.51957 27.7071 5.70711C27.5196 5.89464 27.2652 6 27 6H5C4.73478 6 4.48043 5.89464 4.29289 5.70711C4.10536 5.51957 4 5.26522 4 5C4 4.73478 4.10536 4.48043 4.29289 4.29289C4.48043 4.10536 4.73478 4 5 4H27C27.2652 4 27.5196 4.10536 27.7071 4.29289C27.8946 4.48043 28 4.73478 28 5ZM24 12C23.7348 12 23.4804 12.1054 23.2929 12.2929C23.1054 12.4804 23 12.7348 23 13V22.5863L10.7075 10.2925C10.5199 10.1049 10.2654 9.99944 10 9.99944C9.73464 9.99944 9.48014 10.1049 9.2925 10.2925C9.10486 10.4801 8.99944 10.7346 8.99944 11C8.99944 11.2654 9.10486 11.5199 9.2925 11.7075L21.5863 24H12C11.7348 24 11.4804 24.1054 11.2929 24.2929C11.1054 24.4804 11 24.7348 11 25C11 25.2652 11.1054 25.5196 11.2929 25.7071C11.4804 25.8946 11.7348 26 12 26H24C24.2652 26 24.5196 25.8946 24.7071 25.7071C24.8946 25.5196 25 25.2652 25 25V13C25 12.7348 24.8946 12.4804 24.7071 12.2929C24.5196 12.1054 24.2652 12 24 12Z" fill="#4A4A4F"/>
</svg>
