<svg width="32" height="32" viewBox="0 0 32 32" fill="none" xmlns="http://www.w3.org/2000/svg">
<path d="M13.7075 18.2925C13.8005 18.3854 13.8742 18.4957 13.9246 18.6171C13.9749 18.7385 14.0008 18.8686 14.0008 19C14.0008 19.1314 13.9749 19.2615 13.9246 19.3829C13.8742 19.5043 13.8005 19.6146 13.7075 19.7075L10.4138 23L12.7075 25.2925C12.8475 25.4324 12.9429 25.6106 12.9815 25.8047C13.0202 25.9988 13.0004 26.2 12.9246 26.3828C12.8489 26.5656 12.7206 26.7218 12.556 26.8317C12.3914 26.9416 12.1979 27.0002 12 27H6C5.73478 27 5.48043 26.8946 5.29289 26.7071C5.10536 26.5196 5 26.2652 5 26V20C4.99984 19.8021 5.05841 19.6086 5.16828 19.444C5.27815 19.2794 5.43439 19.1511 5.61721 19.0754C5.80003 18.9996 6.00122 18.9798 6.19531 19.0185C6.38939 19.0571 6.56764 19.1525 6.7075 19.2925L9 21.5863L12.2925 18.2925C12.3854 18.1995 12.4957 18.1258 12.6171 18.0754C12.7385 18.0251 12.8686 17.9992 13 17.9992C13.1314 17.9992 13.2615 18.0251 13.3829 18.0754C13.5043 18.1258 13.6146 18.1995 13.7075 18.2925ZM10.4138 9L12.7075 6.7075C12.8475 6.56764 12.9429 6.38939 12.9815 6.19531C13.0202 6.00122 13.0004 5.80003 12.9246 5.61721C12.8489 5.43439 12.7206 5.27815 12.556 5.16828C12.3914 5.05841 12.1979 4.99984 12 5H6C5.73478 5 5.48043 5.10536 5.29289 5.29289C5.10536 5.48043 5 5.73478 5 6V12C4.99984 12.1979 5.05841 12.3914 5.16828 12.556C5.27815 12.7206 5.43439 12.8489 5.61721 12.9246C5.80003 13.0004 6.00122 13.0202 6.19531 12.9815C6.38939 12.9429 6.56764 12.8475 6.7075 12.7075L9 10.4138L12.2925 13.7075C12.4801 13.8951 12.7346 14.0006 13 14.0006C13.2654 14.0006 13.5199 13.8951 13.7075 13.7075C13.8951 13.5199 14.0006 13.2654 14.0006 13C14.0006 12.7346 13.8951 12.4801 13.7075 12.2925L10.4138 9ZM26 5H20C19.8021 4.99984 19.6086 5.05841 19.444 5.16828C19.2794 5.27815 19.1511 5.43439 19.0754 5.61721C18.9996 5.80003 18.9798 6.00122 19.0185 6.19531C19.0571 6.38939 19.1525 6.56764 19.2925 6.7075L21.5863 9L18.2925 12.2925C18.1049 12.4801 17.9994 12.7346 17.9994 13C17.9994 13.2654 18.1049 13.5199 18.2925 13.7075C18.4801 13.8951 18.7346 14.0006 19 14.0006C19.2654 14.0006 19.5199 13.8951 19.7075 13.7075L23 10.4138L25.2925 12.7075C25.4324 12.8475 25.6106 12.9429 25.8047 12.9815C25.9988 13.0202 26.2 13.0004 26.3828 12.9246C26.5656 12.8489 26.7218 12.7206 26.8317 12.556C26.9416 12.3914 27.0002 12.1979 27 12V6C27 5.73478 26.8946 5.48043 26.7071 5.29289C26.5196 5.10536 26.2652 5 26 5ZM26.3825 19.0763C26.1998 19.0005 25.9987 18.9805 25.8047 19.019C25.6107 19.0575 25.4324 19.1527 25.2925 19.2925L23 21.5863L19.7075 18.2925C19.5199 18.1049 19.2654 17.9994 19 17.9994C18.7346 17.9994 18.4801 18.1049 18.2925 18.2925C18.1049 18.4801 17.9994 18.7346 17.9994 19C17.9994 19.2654 18.1049 19.5199 18.2925 19.7075L21.5863 23L19.2925 25.2925C19.1525 25.4324 19.0571 25.6106 19.0185 25.8047C18.9798 25.9988 18.9996 26.2 19.0754 26.3828C19.1511 26.5656 19.2794 26.7218 19.444 26.8317C19.6086 26.9416 19.8021 27.0002 20 27H26C26.2652 27 26.5196 26.8946 26.7071 26.7071C26.8946 26.5196 27 26.2652 27 26V20C27 19.8022 26.9413 19.6089 26.8314 19.4445C26.7214 19.28 26.5652 19.1519 26.3825 19.0763Z" fill="#4A4A4F"/>
</svg>
