<svg width="32" height="32" viewBox="0 0 32 32" fill="none" xmlns="http://www.w3.org/2000/svg">
<path d="M28 27C28 27.2652 27.8946 27.5196 27.7071 27.7071C27.5196 27.8946 27.2652 28 27 28H5C4.73478 28 4.48043 27.8946 4.29289 27.7071C4.10536 27.5196 4 27.2652 4 27C4 26.7348 4.10536 26.4804 4.29289 26.2929C4.48043 26.1054 4.73478 26 5 26H27C27.2652 26 27.5196 26.1054 27.7071 26.2929C27.8946 26.4804 28 26.7348 28 27ZM10 22C10.1314 22.0001 10.2615 21.9743 10.3828 21.9241C10.5042 21.8739 10.6146 21.8003 10.7075 21.7075L23 9.41375V19C23 19.2652 23.1054 19.5196 23.2929 19.7071C23.4804 19.8946 23.7348 20 24 20C24.2652 20 24.5196 19.8946 24.7071 19.7071C24.8946 19.5196 25 19.2652 25 19V7C25 6.73478 24.8946 6.48043 24.7071 6.29289C24.5196 6.10536 24.2652 6 24 6H12C11.7348 6 11.4804 6.10536 11.2929 6.29289C11.1054 6.48043 11 6.73478 11 7C11 7.26522 11.1054 7.51957 11.2929 7.70711C11.4804 7.89464 11.7348 8 12 8H21.5863L9.2925 20.2925C9.15249 20.4324 9.05712 20.6106 9.01847 20.8047C8.97982 20.9988 8.99963 21.2 9.07538 21.3828C9.15113 21.5656 9.27942 21.7218 9.44402 21.8317C9.60861 21.9416 9.8021 22.0002 10 22Z" fill="#4A4A4F"/>
</svg>
