<svg width="32" height="32" viewBox="0 0 32 32" fill="none" xmlns="http://www.w3.org/2000/svg">
<path d="M26 4H6C5.46957 4 4.96086 4.21071 4.58579 4.58579C4.21071 4.96086 4 5.46957 4 6V26C4 26.5304 4.21071 27.0391 4.58579 27.4142C4.96086 27.7893 5.46957 28 6 28H26C26.5304 28 27.0391 27.7893 27.4142 27.4142C27.7893 27.0391 28 26.5304 28 26V6C28 5.46957 27.7893 4.96086 27.4142 4.58579C27.0391 4.21071 26.5304 4 26 4ZM26 26H6V6H26V26ZM11 18V12C11 11.7348 11.1054 11.4804 11.2929 11.2929C11.4804 11.1054 11.7348 11 12 11H18C18.2652 11 18.5196 11.1054 18.7071 11.2929C18.8946 11.4804 19 11.7348 19 12C19 12.2652 18.8946 12.5196 18.7071 12.7071C18.5196 12.8946 18.2652 13 18 13H14.4137L20.7075 19.2925C20.8004 19.3854 20.8741 19.4957 20.9244 19.6171C20.9747 19.7385 21.0006 19.8686 21.0006 20C21.0006 20.1314 20.9747 20.2615 20.9244 20.3829C20.8741 20.5043 20.8004 20.6146 20.7075 20.7075C20.6146 20.8004 20.5043 20.8741 20.3829 20.9244C20.2615 20.9747 20.1314 21.0006 20 21.0006C19.8686 21.0006 19.7385 20.9747 19.6171 20.9244C19.4957 20.8741 19.3854 20.8004 19.2925 20.7075L13 14.4137V18C13 18.2652 12.8946 18.5196 12.7071 18.7071C12.5196 18.8946 12.2652 19 12 19C11.7348 19 11.4804 18.8946 11.2929 18.7071C11.1054 18.5196 11 18.2652 11 18Z" fill="#4A4A4F"/>
</svg>
