<svg width="32" height="32" viewBox="0 0 32 32" fill="none" xmlns="http://www.w3.org/2000/svg">
<path d="M25.9998 9.99981V20.9998C25.9998 23.1215 25.157 25.1564 23.6567 26.6567C22.1564 28.157 20.1215 28.9998 17.9998 28.9998C15.8781 28.9998 13.8432 28.157 12.343 26.6567C10.8427 25.1564 9.99981 23.1215 9.99981 20.9998V10.9998H4.99981C4.80192 11 4.60842 10.9414 4.44383 10.8315C4.27923 10.7217 4.15094 10.5654 4.07519 10.3826C3.99944 10.1998 3.97963 9.99859 4.01828 9.8045C4.05693 9.61042 4.1523 9.43217 4.29231 9.29231L10.2923 3.29231C10.3852 3.19933 10.4955 3.12557 10.6169 3.07525C10.7383 3.02493 10.8684 2.99902 10.9998 2.99902C11.1312 2.99902 11.2614 3.02493 11.3828 3.07525C11.5041 3.12557 11.6144 3.19933 11.7073 3.29231L17.7073 9.29231C17.8473 9.43217 17.9427 9.61042 17.9813 9.8045C18.02 9.99859 18.0002 10.1998 17.9244 10.3826C17.8487 10.5654 17.7204 10.7217 17.5558 10.8315C17.3912 10.9414 17.1977 11 16.9998 10.9998H11.9998V20.9998C11.9998 22.5911 12.632 24.1172 13.7572 25.2425C14.8824 26.3677 16.4085 26.9998 17.9998 26.9998C19.5911 26.9998 21.1172 26.3677 22.2425 25.2425C23.3677 24.1172 23.9998 22.5911 23.9998 20.9998V9.99981C23.9998 9.73459 24.1052 9.48024 24.2927 9.2927C24.4802 9.10517 24.7346 8.99981 24.9998 8.99981C25.265 8.99981 25.5194 9.10517 25.7069 9.2927C25.8945 9.48024 25.9998 9.73459 25.9998 9.99981Z" fill="#4A4A4F"/>
</svg>
