<svg width="32" height="32" viewBox="0 0 32 32" fill="none" xmlns="http://www.w3.org/2000/svg">
<path d="M24.9998 9.99981V27.9998C24.9998 28.265 24.8945 28.5194 24.7069 28.7069C24.5194 28.8945 24.265 28.9998 23.9998 28.9998C23.7346 28.9998 23.4802 28.8945 23.2927 28.7069C23.1052 28.5194 22.9998 28.265 22.9998 27.9998V10.9998H12.9998V15.9998C13 16.1977 12.9414 16.3912 12.8315 16.5558C12.7217 16.7204 12.5654 16.8487 12.3826 16.9244C12.1998 17.0002 11.9986 17.02 11.8045 16.9813C11.6104 16.9427 11.4322 16.8473 11.2923 16.7073L5.29231 10.7073C5.19933 10.6144 5.12557 10.5041 5.07525 10.3828C5.02493 10.2614 4.99902 10.1312 4.99902 9.99981C4.99902 9.8684 5.02493 9.73827 5.07525 9.61687C5.12557 9.49547 5.19933 9.38518 5.29231 9.29231L11.2923 3.29231C11.4322 3.1523 11.6104 3.05693 11.8045 3.01828C11.9986 2.97963 12.1998 2.99944 12.3826 3.07519C12.5654 3.15094 12.7217 3.27923 12.8315 3.44383C12.9414 3.60842 13 3.80192 12.9998 3.99981V8.99981H23.9998C24.265 8.99981 24.5194 9.10517 24.7069 9.2927C24.8945 9.48024 24.9998 9.73459 24.9998 9.99981Z" fill="#4A4A4F"/>
</svg>
