<svg width="32" height="32" viewBox="0 0 32 32" fill="none" xmlns="http://www.w3.org/2000/svg">
<path d="M11.2923 7.70731C11.1993 7.61444 11.1256 7.50415 11.0753 7.38275C11.0249 7.26135 10.999 7.13123 10.999 6.99981C10.999 6.86839 11.0249 6.73827 11.0753 6.61687C11.1256 6.49547 11.1993 6.38518 11.2923 6.29231L15.2923 2.29231C15.3852 2.19933 15.4955 2.12557 15.6169 2.07525C15.7383 2.02493 15.8684 1.99902 15.9998 1.99902C16.1312 1.99902 16.2614 2.02493 16.3828 2.07525C16.5041 2.12557 16.6144 2.19933 16.7073 2.29231L20.7073 6.29231C20.895 6.47995 21.0004 6.73445 21.0004 6.99981C21.0004 7.26517 20.895 7.51967 20.7073 7.70731C20.5197 7.89495 20.2652 8.00037 19.9998 8.00037C19.7344 8.00037 19.4799 7.89495 19.2923 7.70731L16.9998 5.41356V11.9998C16.9998 12.265 16.8945 12.5194 16.7069 12.7069C16.5194 12.8945 16.265 12.9998 15.9998 12.9998C15.7346 12.9998 15.4802 12.8945 15.2927 12.7069C15.1052 12.5194 14.9998 12.265 14.9998 11.9998V5.41356L12.7073 7.70731C12.6144 7.80029 12.5041 7.87405 12.3828 7.92437C12.2614 7.97469 12.1312 8.0006 11.9998 8.0006C11.8684 8.0006 11.7383 7.97469 11.6169 7.92437C11.4955 7.87405 11.3852 7.80029 11.2923 7.70731ZM19.2923 24.2923L16.9998 26.5861V19.9998C16.9998 19.7346 16.8945 19.4802 16.7069 19.2927C16.5194 19.1052 16.265 18.9998 15.9998 18.9998C15.7346 18.9998 15.4802 19.1052 15.2927 19.2927C15.1052 19.4802 14.9998 19.7346 14.9998 19.9998V26.5861L12.7073 24.2923C12.5197 24.1047 12.2652 23.9993 11.9998 23.9993C11.7344 23.9993 11.4799 24.1047 11.2923 24.2923C11.1047 24.4799 10.9993 24.7344 10.9993 24.9998C10.9993 25.2652 11.1047 25.5197 11.2923 25.7073L15.2923 29.7073C15.3852 29.8003 15.4955 29.874 15.6169 29.9244C15.7383 29.9747 15.8684 30.0006 15.9998 30.0006C16.1312 30.0006 16.2614 29.9747 16.3828 29.9244C16.5041 29.874 16.6144 29.8003 16.7073 29.7073L20.7073 25.7073C20.895 25.5197 21.0004 25.2652 21.0004 24.9998C21.0004 24.7344 20.895 24.4799 20.7073 24.2923C20.5197 24.1047 20.2652 23.9993 19.9998 23.9993C19.7344 23.9993 19.4799 24.1047 19.2923 24.2923ZM29.7073 15.2923L25.7073 11.2923C25.5197 11.1047 25.2652 10.9993 24.9998 10.9993C24.7344 10.9993 24.4799 11.1047 24.2923 11.2923C24.1047 11.4799 23.9993 11.7344 23.9993 11.9998C23.9993 12.2652 24.1047 12.5197 24.2923 12.7073L26.5861 14.9998H19.9998C19.7346 14.9998 19.4802 15.1052 19.2927 15.2927C19.1052 15.4802 18.9998 15.7346 18.9998 15.9998C18.9998 16.265 19.1052 16.5194 19.2927 16.7069C19.4802 16.8945 19.7346 16.9998 19.9998 16.9998H26.5861L24.2923 19.2923C24.1047 19.4799 23.9993 19.7344 23.9993 19.9998C23.9993 20.2652 24.1047 20.5197 24.2923 20.7073C24.4799 20.895 24.7344 21.0004 24.9998 21.0004C25.2652 21.0004 25.5197 20.895 25.7073 20.7073L29.7073 16.7073C29.8003 16.6144 29.874 16.5041 29.9244 16.3828C29.9747 16.2614 30.0006 16.1312 30.0006 15.9998C30.0006 15.8684 29.9747 15.7383 29.9244 15.6169C29.874 15.4955 29.8003 15.3852 29.7073 15.2923ZM5.41356 16.9998H11.9998C12.265 16.9998 12.5194 16.8945 12.7069 16.7069C12.8945 16.5194 12.9998 16.265 12.9998 15.9998C12.9998 15.7346 12.8945 15.4802 12.7069 15.2927C12.5194 15.1052 12.265 14.9998 11.9998 14.9998H5.41356L7.70731 12.7073C7.89495 12.5197 8.00037 12.2652 8.00037 11.9998C8.00037 11.7344 7.89495 11.4799 7.70731 11.2923C7.51967 11.1047 7.26517 10.9993 6.99981 10.9993C6.73445 10.9993 6.47995 11.1047 6.29231 11.2923L2.29231 15.2923C2.19933 15.3852 2.12557 15.4955 2.07525 15.6169C2.02493 15.7383 1.99902 15.8684 1.99902 15.9998C1.99902 16.1312 2.02493 16.2614 2.07525 16.3828C2.12557 16.5041 2.19933 16.6144 2.29231 16.7073L6.29231 20.7073C6.47995 20.895 6.73445 21.0004 6.99981 21.0004C7.26517 21.0004 7.51967 20.895 7.70731 20.7073C7.89495 20.5197 8.00037 20.2652 8.00037 19.9998C8.00037 19.7344 7.89495 19.4799 7.70731 19.2923L5.41356 16.9998Z" fill="#4A4A4F"/>
</svg>
