<svg width="32" height="32" viewBox="0 0 32 32" fill="none" xmlns="http://www.w3.org/2000/svg">
<path d="M20.9236 24.6173C20.9994 24.8 21.0193 25.0011 20.9808 25.1951C20.9423 25.3891 20.8471 25.5674 20.7073 25.7073L16.7073 29.7073C16.6144 29.8003 16.5041 29.874 16.3828 29.9244C16.2614 29.9747 16.1312 30.0006 15.9998 30.0006C15.8684 30.0006 15.7383 29.9747 15.6169 29.9244C15.4955 29.874 15.3852 29.8003 15.2923 29.7073L11.2923 25.7073C11.1523 25.5675 11.0569 25.3892 11.0183 25.1951C10.9796 25.001 10.9994 24.7998 11.0752 24.617C11.1509 24.4342 11.2792 24.278 11.4438 24.1681C11.6084 24.0582 11.8019 23.9997 11.9998 23.9998H14.9998V7.99981H11.9998C11.8019 7.99997 11.6084 7.9414 11.4438 7.83153C11.2792 7.72166 11.1509 7.56542 11.0752 7.3826C10.9994 7.19978 10.9796 6.99859 11.0183 6.8045C11.0569 6.61042 11.1523 6.43217 11.2923 6.29231L15.2923 2.29231C15.3852 2.19933 15.4955 2.12557 15.6169 2.07525C15.7383 2.02493 15.8684 1.99902 15.9998 1.99902C16.1312 1.99902 16.2614 2.02493 16.3828 2.07525C16.5041 2.12557 16.6144 2.19933 16.7073 2.29231L20.7073 6.29231C20.8473 6.43217 20.9427 6.61042 20.9813 6.8045C21.02 6.99859 21.0002 7.19978 20.9244 7.3826C20.8487 7.56542 20.7204 7.72166 20.5558 7.83153C20.3912 7.9414 20.1977 7.99997 19.9998 7.99981H16.9998V23.9998H19.9998C20.1976 23.9998 20.3909 24.0585 20.5553 24.1685C20.7198 24.2784 20.8479 24.4346 20.9236 24.6173Z" fill="#4A4A4F"/>
</svg>
