<svg width="32" height="32" viewBox="0 0 32 32" fill="none" xmlns="http://www.w3.org/2000/svg">
<path d="M26 4H6C5.46957 4 4.96086 4.21071 4.58579 4.58579C4.21071 4.96086 4 5.46957 4 6V26C4 26.5304 4.21071 27.0391 4.58579 27.4142C4.96086 27.7893 5.46957 28 6 28H26C26.5304 28 27.0391 27.7893 27.4142 27.4142C27.7893 27.0391 28 26.5304 28 26V6C28 5.46957 27.7893 4.96086 27.4142 4.58579C27.0391 4.21071 26.5304 4 26 4ZM26 26H6V6H26V26ZM20.7075 16.2925C20.8005 16.3854 20.8742 16.4957 20.9246 16.6171C20.9749 16.7385 21.0008 16.8686 21.0008 17C21.0008 17.1314 20.9749 17.2615 20.9246 17.3829C20.8742 17.5043 20.8005 17.6146 20.7075 17.7075L16.7075 21.7075C16.6146 21.8005 16.5043 21.8742 16.3829 21.9246C16.2615 21.9749 16.1314 22.0008 16 22.0008C15.8686 22.0008 15.7385 21.9749 15.6171 21.9246C15.4957 21.8742 15.3854 21.8005 15.2925 21.7075L11.2925 17.7075C11.1049 17.5199 10.9994 17.2654 10.9994 17C10.9994 16.7346 11.1049 16.4801 11.2925 16.2925C11.4801 16.1049 11.7346 15.9994 12 15.9994C12.2654 15.9994 12.5199 16.1049 12.7075 16.2925L15 18.5863V11C15 10.7348 15.1054 10.4804 15.2929 10.2929C15.4804 10.1054 15.7348 10 16 10C16.2652 10 16.5196 10.1054 16.7071 10.2929C16.8946 10.4804 17 10.7348 17 11V18.5863L19.2925 16.2925C19.3854 16.1995 19.4957 16.1258 19.6171 16.0754C19.7385 16.0251 19.8686 15.9992 20 15.9992C20.1314 15.9992 20.2615 16.0251 20.3829 16.0754C20.5043 16.1258 20.6146 16.1995 20.7075 16.2925Z" fill="#4A4A4F"/>
</svg>
