<svg width="32" height="32" viewBox="0 0 32 32" fill="none" xmlns="http://www.w3.org/2000/svg">
<path d="M28.9998 7C28.9962 10.4467 27.6254 13.7512 25.1882 16.1884C22.751 18.6256 19.4465 19.9964 15.9998 20H6.41356L10.7073 24.2925C10.895 24.4801 11.0004 24.7346 11.0004 25C11.0004 25.2654 10.895 25.5199 10.7073 25.7075C10.5197 25.8951 10.2652 26.0006 9.99981 26.0006C9.73445 26.0006 9.47995 25.8951 9.29231 25.7075L3.29231 19.7075C3.19933 19.6146 3.12557 19.5043 3.07525 19.3829C3.02493 19.2615 2.99902 19.1314 2.99902 19C2.99902 18.8686 3.02493 18.7385 3.07525 18.6171C3.12557 18.4957 3.19933 18.3854 3.29231 18.2925L9.29231 12.2925C9.47995 12.1049 9.73445 11.9994 9.99981 11.9994C10.2652 11.9994 10.5197 12.1049 10.7073 12.2925C10.895 12.4801 11.0004 12.7346 11.0004 13C11.0004 13.2654 10.895 13.5199 10.7073 13.7075L6.41356 18H15.9998C18.9162 17.9967 21.7121 16.8367 23.7743 14.7745C25.8365 12.7123 26.9965 9.91637 26.9998 7C26.9998 6.73478 27.1052 6.48043 27.2927 6.29289C27.4802 6.10536 27.7346 6 27.9998 6C28.265 6 28.5194 6.10536 28.7069 6.29289C28.8945 6.48043 28.9998 6.73478 28.9998 7Z" fill="#4A4A4F"/>
</svg>
