<svg width="32" height="32" viewBox="0 0 32 32" fill="none" xmlns="http://www.w3.org/2000/svg">
<path d="M11.9998 16.9998H7.99981V19.9998C7.99997 20.1977 7.9414 20.3912 7.83153 20.5558C7.72166 20.7204 7.56542 20.8487 7.3826 20.9244C7.19978 21.0002 6.99859 21.02 6.8045 20.9813C6.61042 20.9427 6.43217 20.8473 6.29231 20.7073L2.29231 16.7073C2.19933 16.6144 2.12557 16.5041 2.07525 16.3828C2.02493 16.2614 1.99902 16.1312 1.99902 15.9998C1.99902 15.8684 2.02493 15.7383 2.07525 15.6169C2.12557 15.4955 2.19933 15.3852 2.29231 15.2923L6.29231 11.2923C6.43217 11.1523 6.61042 11.0569 6.8045 11.0183C6.99859 10.9796 7.19978 10.9994 7.3826 11.0752C7.56542 11.1509 7.72166 11.2792 7.83153 11.4438C7.9414 11.6084 7.99997 11.8019 7.99981 11.9998V14.9998H11.9998C12.265 14.9998 12.5194 15.1052 12.7069 15.2927C12.8945 15.4802 12.9998 15.7346 12.9998 15.9998C12.9998 16.265 12.8945 16.5194 12.7069 16.7069C12.5194 16.8945 12.265 16.9998 11.9998 16.9998ZM11.9998 7.99981H14.9998V11.9998C14.9998 12.265 15.1052 12.5194 15.2927 12.7069C15.4802 12.8945 15.7346 12.9998 15.9998 12.9998C16.265 12.9998 16.5194 12.8945 16.7069 12.7069C16.8945 12.5194 16.9998 12.265 16.9998 11.9998V7.99981H19.9998C20.1977 7.99997 20.3912 7.9414 20.5558 7.83153C20.7204 7.72166 20.8487 7.56542 20.9244 7.3826C21.0002 7.19978 21.02 6.99859 20.9813 6.8045C20.9427 6.61042 20.8473 6.43217 20.7073 6.29231L16.7073 2.29231C16.6144 2.19933 16.5041 2.12557 16.3828 2.07525C16.2614 2.02493 16.1312 1.99902 15.9998 1.99902C15.8684 1.99902 15.7383 2.02493 15.6169 2.07525C15.4955 2.12557 15.3852 2.19933 15.2923 2.29231L11.2923 6.29231C11.1523 6.43217 11.0569 6.61042 11.0183 6.8045C10.9796 6.99859 10.9994 7.19978 11.0752 7.3826C11.1509 7.56542 11.2792 7.72166 11.4438 7.83153C11.6084 7.9414 11.8019 7.99997 11.9998 7.99981ZM29.7073 15.2923L25.7073 11.2923C25.5675 11.1523 25.3892 11.0569 25.1951 11.0183C25.001 10.9796 24.7998 10.9994 24.617 11.0752C24.4342 11.1509 24.278 11.2792 24.1681 11.4438C24.0582 11.6084 23.9997 11.8019 23.9998 11.9998V14.9998H19.9998C19.7346 14.9998 19.4802 15.1052 19.2927 15.2927C19.1052 15.4802 18.9998 15.7346 18.9998 15.9998C18.9998 16.265 19.1052 16.5194 19.2927 16.7069C19.4802 16.8945 19.7346 16.9998 19.9998 16.9998H23.9998V19.9998C23.9997 20.1977 24.0582 20.3912 24.1681 20.5558C24.278 20.7204 24.4342 20.8487 24.617 20.9244C24.7998 21.0002 25.001 21.02 25.1951 20.9813C25.3892 20.9427 25.5675 20.8473 25.7073 20.7073L29.7073 16.7073C29.8003 16.6144 29.874 16.5041 29.9244 16.3828C29.9747 16.2614 30.0006 16.1312 30.0006 15.9998C30.0006 15.8684 29.9747 15.7383 29.9244 15.6169C29.874 15.4955 29.8003 15.3852 29.7073 15.2923ZM19.9998 23.9998H16.9998V19.9998C16.9998 19.7346 16.8945 19.4802 16.7069 19.2927C16.5194 19.1052 16.265 18.9998 15.9998 18.9998C15.7346 18.9998 15.4802 19.1052 15.2927 19.2927C15.1052 19.4802 14.9998 19.7346 14.9998 19.9998V23.9998H11.9998C11.8019 23.9997 11.6084 24.0582 11.4438 24.1681C11.2792 24.278 11.1509 24.4342 11.0752 24.617C10.9994 24.7998 10.9796 25.001 11.0183 25.1951C11.0569 25.3892 11.1523 25.5675 11.2923 25.7073L15.2923 29.7073C15.3852 29.8003 15.4955 29.874 15.6169 29.9244C15.7383 29.9747 15.8684 30.0006 15.9998 30.0006C16.1312 30.0006 16.2614 29.9747 16.3828 29.9244C16.5041 29.874 16.6144 29.8003 16.7073 29.7073L20.7073 25.7073C20.8473 25.5675 20.9427 25.3892 20.9813 25.1951C21.02 25.001 21.0002 24.7998 20.9244 24.617C20.8487 24.4342 20.7204 24.278 20.5558 24.1681C20.3912 24.0582 20.1977 23.9997 19.9998 23.9998Z" fill="#4A4A4F"/>
</svg>
