<svg width="32" height="32" viewBox="0 0 32 32" fill="none" xmlns="http://www.w3.org/2000/svg">
<path d="M29.0001 8C29.0001 8.26522 28.8947 8.51957 28.7072 8.70711C28.5196 8.89464 28.2653 9 28.0001 9H11.0001V23.5863L15.2926 19.2925C15.4802 19.1049 15.7347 18.9994 16.0001 18.9994C16.2654 18.9994 16.5199 19.1049 16.7076 19.2925C16.8952 19.4801 17.0006 19.7346 17.0006 20C17.0006 20.2654 16.8952 20.5199 16.7076 20.7075L10.7076 26.7075C10.6147 26.8005 10.5044 26.8742 10.383 26.9246C10.2616 26.9749 10.1315 27.0008 10.0001 27.0008C9.86865 27.0008 9.73853 26.9749 9.61713 26.9246C9.49573 26.8742 9.38544 26.8005 9.29257 26.7075L3.29257 20.7075C3.10493 20.5199 2.99951 20.2654 2.99951 20C2.99951 19.7346 3.10493 19.4801 3.29257 19.2925C3.48021 19.1049 3.7347 18.9994 4.00007 18.9994C4.26543 18.9994 4.51993 19.1049 4.70757 19.2925L9.00007 23.5863V8C9.00007 7.73478 9.10542 7.48043 9.29296 7.29289C9.4805 7.10536 9.73485 7 10.0001 7H28.0001C28.2653 7 28.5196 7.10536 28.7072 7.29289C28.8947 7.48043 29.0001 7.73478 29.0001 8Z" fill="#4A4A4F"/>
</svg>
