<svg width="32" height="32" viewBox="0 0 32 32" fill="none" xmlns="http://www.w3.org/2000/svg">
<path d="M29 16C29 16.2652 28.8946 16.5196 28.7071 16.7071C28.5196 16.8946 28.2652 17 28 17H11.4137L18.7075 24.2925C18.8004 24.3854 18.8741 24.4957 18.9244 24.6171C18.9747 24.7385 19.0006 24.8686 19.0006 25C19.0006 25.1314 18.9747 25.2615 18.9244 25.3829C18.8741 25.5043 18.8004 25.6146 18.7075 25.7075C18.6146 25.8004 18.5043 25.8741 18.3829 25.9244C18.2615 25.9747 18.1314 26.0006 18 26.0006C17.8686 26.0006 17.7385 25.9747 17.6171 25.9244C17.4957 25.8741 17.3854 25.8004 17.2925 25.7075L8.2925 16.7075C8.19952 16.6146 8.12576 16.5043 8.07544 16.3829C8.02512 16.2615 7.99921 16.1314 7.99921 16C7.99921 15.8686 8.02512 15.7385 8.07544 15.6171C8.12576 15.4957 8.19952 15.3854 8.2925 15.2925L17.2925 6.2925C17.3854 6.19959 17.4957 6.12589 17.6171 6.07561C17.7385 6.02532 17.8686 5.99944 18 5.99944C18.1314 5.99944 18.2615 6.02532 18.3829 6.07561C18.5043 6.12589 18.6146 6.19959 18.7075 6.2925C18.8004 6.38541 18.8741 6.49571 18.9244 6.6171C18.9747 6.7385 19.0006 6.86861 19.0006 7C19.0006 7.13139 18.9747 7.2615 18.9244 7.3829C18.8741 7.50429 18.8004 7.61459 18.7075 7.7075L11.4137 15H28C28.2652 15 28.5196 15.1054 28.7071 15.2929C28.8946 15.4804 29 15.7348 29 16ZM5 4C4.73478 4 4.48043 4.10536 4.29289 4.29289C4.10536 4.48043 4 4.73478 4 5V27C4 27.2652 4.10536 27.5196 4.29289 27.7071C4.48043 27.8946 4.73478 28 5 28C5.26522 28 5.51957 27.8946 5.70711 27.7071C5.89464 27.5196 6 27.2652 6 27V5C6 4.73478 5.89464 4.48043 5.70711 4.29289C5.51957 4.10536 5.26522 4 5 4Z" fill="#4A4A4F"/>
</svg>
