<svg width="32" height="32" viewBox="0 0 32 32" fill="none" xmlns="http://www.w3.org/2000/svg">
<path d="M28.7075 19.7075L22.7075 25.7075C22.5676 25.8475 22.3894 25.9429 22.1953 25.9815C22.0012 26.0202 21.8 26.0004 21.6172 25.9246C21.4344 25.8489 21.2782 25.7206 21.1683 25.556C21.0584 25.3914 20.9998 25.1979 21 25V20H16C12.5533 19.9964 9.24882 18.6256 6.81163 16.1884C4.37445 13.7512 3.00364 10.4467 3 7C3 6.73478 3.10536 6.48043 3.29289 6.29289C3.48043 6.10536 3.73478 6 4 6C4.26522 6 4.51957 6.10536 4.70711 6.29289C4.89464 6.48043 5 6.73478 5 7C5.00331 9.91637 6.1633 12.7123 8.22548 14.7745C10.2877 16.8367 13.0836 17.9967 16 18H21V13C20.9998 12.8021 21.0584 12.6086 21.1683 12.444C21.2782 12.2794 21.4344 12.1511 21.6172 12.0754C21.8 11.9996 22.0012 11.9798 22.1953 12.0185C22.3894 12.0571 22.5676 12.1525 22.7075 12.2925L28.7075 18.2925C28.8005 18.3854 28.8742 18.4957 28.9246 18.6171C28.9749 18.7385 29.0008 18.8686 29.0008 19C29.0008 19.1314 28.9749 19.2615 28.9246 19.3829C28.8742 19.5043 28.8005 19.6146 28.7075 19.7075Z" fill="#4A4A4F"/>
</svg>
