<svg width="32" height="32" viewBox="0 0 32 32" fill="none" xmlns="http://www.w3.org/2000/svg">
<path d="M25.7075 22.7075L19.7075 28.7075C19.6146 28.8005 19.5043 28.8742 19.3829 28.9246C19.2615 28.9749 19.1314 29.0008 19 29.0008C18.8686 29.0008 18.7385 28.9749 18.6171 28.9246C18.4957 28.8742 18.3854 28.8005 18.2925 28.7075L12.2925 22.7075C12.1049 22.5199 11.9994 22.2654 11.9994 22C11.9994 21.7346 12.1049 21.4801 12.2925 21.2925C12.4801 21.1049 12.7346 20.9994 13 20.9994C13.2654 20.9994 13.5199 21.1049 13.7075 21.2925L18 25.5863V16C17.9967 13.0836 16.8367 10.2877 14.7745 8.22548C12.7123 6.1633 9.91637 5.00331 7 5C6.73478 5 6.48043 4.89464 6.29289 4.70711C6.10536 4.51957 6 4.26522 6 4C6 3.73478 6.10536 3.48043 6.29289 3.29289C6.48043 3.10536 6.73478 3 7 3C10.4467 3.00364 13.7512 4.37445 16.1884 6.81163C18.6256 9.24882 19.9964 12.5533 20 16V25.5863L24.2925 21.2925C24.4801 21.1049 24.7346 20.9994 25 20.9994C25.2654 20.9994 25.5199 21.1049 25.7075 21.2925C25.8951 21.4801 26.0006 21.7346 26.0006 22C26.0006 22.2654 25.8951 22.5199 25.7075 22.7075Z" fill="#4A4A4F"/>
</svg>
