<svg width="32" height="32" viewBox="0 0 32 32" fill="none" xmlns="http://www.w3.org/2000/svg">
<path d="M30.0002 6.99985V12.9999C30.0002 13.2651 29.8948 13.5194 29.7073 13.707C29.5197 13.8945 29.2654 13.9999 29.0002 13.9999H23.0002C22.8023 14 22.6088 13.9414 22.4442 13.8316C22.2796 13.7217 22.1513 13.5655 22.0756 13.3826C21.9998 13.1998 21.98 12.9986 22.0186 12.8045C22.0573 12.6105 22.1527 12.4322 22.2927 12.2924L24.4177 10.1674L23.0989 8.9611L23.0677 8.9311C21.6778 7.54171 19.9093 6.59267 17.9831 6.20253C16.057 5.8124 14.0586 5.99846 12.2375 6.73748C10.4165 7.4765 8.85362 8.73571 7.7441 10.3578C6.63457 11.9799 6.02759 13.893 5.999 15.858C5.97041 17.8231 6.52147 19.753 7.58334 21.4067C8.64521 23.0604 10.1708 24.3645 11.9696 25.1562C13.7683 25.9479 15.7605 26.192 17.6971 25.8581C19.6338 25.5242 21.4292 24.627 22.8589 23.2786C22.9544 23.1883 23.0667 23.1177 23.1894 23.0708C23.3122 23.024 23.4429 23.0017 23.5743 23.0054C23.7056 23.009 23.8349 23.0385 23.9549 23.0921C24.0748 23.1458 24.183 23.2225 24.2733 23.318C24.3636 23.4134 24.4342 23.5257 24.4811 23.6485C24.5279 23.7712 24.5502 23.902 24.5465 24.0333C24.5429 24.1647 24.5134 24.294 24.4598 24.4139C24.4061 24.5339 24.3294 24.6421 24.2339 24.7324C22.0104 26.8379 19.0624 28.0078 16.0002 27.9999H15.8352C13.8698 27.9729 11.9412 27.4637 10.2188 26.5168C8.49638 25.57 7.0329 24.2146 5.957 22.5697C4.88109 20.9248 4.2257 19.0408 4.04842 17.0833C3.87115 15.1258 4.17742 13.1547 4.94031 11.3433C5.7032 9.53188 6.89936 7.93559 8.42366 6.69472C9.94796 5.45385 11.7537 4.6064 13.6822 4.22684C15.6108 3.84729 17.603 3.94726 19.4838 4.51796C21.3646 5.08866 23.0765 6.11263 24.4689 7.49985L25.8352 8.74985L28.2927 6.28735C28.4328 6.14703 28.6115 6.05156 28.8061 6.01307C29.0006 5.97457 29.2023 5.9948 29.3853 6.07117C29.5683 6.14755 29.7245 6.27662 29.834 6.44198C29.9435 6.60734 30.0013 6.80153 30.0002 6.99985Z" fill="#4A4A4F"/>
</svg>
