<svg width="32" height="32" viewBox="0 0 32 32" fill="none" xmlns="http://www.w3.org/2000/svg">
<path d="M26.7075 10.7076L20.7075 16.7076C20.5199 16.8952 20.2654 17.0006 20 17.0006C19.7346 17.0006 19.4801 16.8952 19.2925 16.7076C19.1049 16.5199 18.9994 16.2654 18.9994 16.0001C18.9994 15.7347 19.1049 15.4802 19.2925 15.2926L23.5863 11.0001H9V28.0001C9 28.2653 8.89464 28.5196 8.70711 28.7072C8.51957 28.8947 8.26522 29.0001 8 29.0001C7.73478 29.0001 7.48043 28.8947 7.29289 28.7072C7.10536 28.5196 7 28.2653 7 28.0001V10.0001C7 9.73485 7.10536 9.4805 7.29289 9.29296C7.48043 9.10542 7.73478 9.00007 8 9.00007H23.5863L19.2925 4.70757C19.1049 4.51993 18.9994 4.26543 18.9994 4.00007C18.9994 3.7347 19.1049 3.48021 19.2925 3.29257C19.4801 3.10493 19.7346 2.99951 20 2.99951C20.2654 2.99951 20.5199 3.10493 20.7075 3.29257L26.7075 9.29257C26.8005 9.38544 26.8742 9.49573 26.9246 9.61713C26.9749 9.73853 27.0008 9.86865 27.0008 10.0001C27.0008 10.1315 26.9749 10.2616 26.9246 10.383C26.8742 10.5044 26.8005 10.6147 26.7075 10.7076Z" fill="#4A4A4F"/>
</svg>
