<svg width="32" height="32" viewBox="0 0 32 32" fill="none" xmlns="http://www.w3.org/2000/svg">
<path d="M28.7075 20.7075L22.7075 26.7075C22.6146 26.8005 22.5043 26.8742 22.3829 26.9246C22.2615 26.9749 22.1314 27.0008 22 27.0008C21.8686 27.0008 21.7385 26.9749 21.6171 26.9246C21.4957 26.8742 21.3854 26.8005 21.2925 26.7075L15.2925 20.7075C15.1525 20.5676 15.0571 20.3894 15.0185 20.1953C14.9798 20.0012 14.9996 19.8 15.0754 19.6172C15.1511 19.4344 15.2794 19.2782 15.444 19.1683C15.6086 19.0584 15.8021 18.9998 16 19H21V9H4C3.73478 9 3.48043 8.89464 3.29289 8.70711C3.10536 8.51957 3 8.26522 3 8C3 7.73478 3.10536 7.48043 3.29289 7.29289C3.48043 7.10536 3.73478 7 4 7H22C22.2652 7 22.5196 7.10536 22.7071 7.29289C22.8946 7.48043 23 7.73478 23 8V19H28C28.1979 18.9998 28.3914 19.0584 28.556 19.1683C28.7206 19.2782 28.8489 19.4344 28.9246 19.6172C29.0004 19.8 29.0202 20.0012 28.9815 20.1953C28.9429 20.3894 28.8475 20.5676 28.7075 20.7075Z" fill="#4A4A4F"/>
</svg>
