<svg width="32" height="32" viewBox="0 0 32 32" fill="none" xmlns="http://www.w3.org/2000/svg">
<path d="M26.0001 27.9998C26.0001 28.265 25.8947 28.5194 25.7072 28.7069C25.5196 28.8945 25.2653 28.9998 25.0001 28.9998C21.5534 28.9962 18.2489 27.6254 15.8117 25.1882C13.3745 22.751 12.0037 19.4465 12.0001 15.9998V6.41356L7.70757 10.7073C7.51993 10.895 7.26543 11.0004 7.00007 11.0004C6.7347 11.0004 6.48021 10.895 6.29257 10.7073C6.10493 10.5197 5.99951 10.2652 5.99951 9.99981C5.99951 9.73445 6.10493 9.47995 6.29257 9.29231L12.2926 3.29231C12.3854 3.19933 12.4957 3.12557 12.6171 3.07525C12.7385 3.02493 12.8687 2.99902 13.0001 2.99902C13.1315 2.99902 13.2616 3.02493 13.383 3.07525C13.5044 3.12557 13.6147 3.19933 13.7076 3.29231L19.7076 9.29231C19.8952 9.47995 20.0006 9.73445 20.0006 9.99981C20.0006 10.2652 19.8952 10.5197 19.7076 10.7073C19.5199 10.895 19.2654 11.0004 19.0001 11.0004C18.7347 11.0004 18.4802 10.895 18.2926 10.7073L14.0001 6.41356V15.9998C14.0034 18.9162 15.1634 21.7121 17.2255 23.7743C19.2877 25.8365 22.0837 26.9965 25.0001 26.9998C25.2653 26.9998 25.5196 27.1052 25.7072 27.2927C25.8947 27.4802 26.0001 27.7346 26.0001 27.9998Z" fill="#4A4A4F"/>
</svg>
