<svg width="32" height="32" viewBox="0 0 32 32" fill="none" xmlns="http://www.w3.org/2000/svg">
<path d="M24.7087 23.2962C24.8954 23.4837 25.0002 23.7374 25.0002 24.0019C25.0002 24.2664 24.8954 24.5201 24.7087 24.7075C24.5725 24.8413 21.3525 28 16 28C11.3263 28 7.93375 25.2 6 23.0187V26C6 26.2652 5.89464 26.5196 5.70711 26.7071C5.51957 26.8946 5.26522 27 5 27C4.73478 27 4.48043 26.8946 4.29289 26.7071C4.10536 26.5196 4 26.2652 4 26V20C4 19.7348 4.10536 19.4804 4.29289 19.2929C4.48043 19.1054 4.73478 19 5 19H11C11.2652 19 11.5196 19.1054 11.7071 19.2929C11.8946 19.4804 12 19.7348 12 20C12 20.2652 11.8946 20.5196 11.7071 20.7071C11.5196 20.8946 11.2652 21 11 21H6.93C8.47 22.9188 11.625 26 16 26C20.5 26 23.2675 23.3175 23.295 23.29C23.4833 23.1034 23.7381 22.9993 24.0032 23.0005C24.2683 23.0016 24.5221 23.108 24.7087 23.2962ZM27 5C26.7348 5 26.4804 5.10536 26.2929 5.29289C26.1054 5.48043 26 5.73478 26 6V8.98125C24.0662 6.8 20.6737 4 16 4C10.6475 4 7.4275 7.15875 7.2925 7.2925C7.10453 7.47981 6.99866 7.73412 6.99819 7.99948C6.99773 8.26485 7.10269 8.51953 7.29 8.7075C7.47731 8.89547 7.73162 9.00134 7.99698 9.00181C8.26235 9.00227 8.51703 8.89731 8.705 8.71C8.7325 8.6825 11.5 6 16 6C20.375 6 23.53 9.08125 25.07 11H21C20.7348 11 20.4804 11.1054 20.2929 11.2929C20.1054 11.4804 20 11.7348 20 12C20 12.2652 20.1054 12.5196 20.2929 12.7071C20.4804 12.8946 20.7348 13 21 13H27C27.2652 13 27.5196 12.8946 27.7071 12.7071C27.8946 12.5196 28 12.2652 28 12V6C28 5.73478 27.8946 5.48043 27.7071 5.29289C27.5196 5.10536 27.2652 5 27 5Z" fill="#4A4A4F"/>
</svg>
