<svg width="32" height="32" viewBox="0 0 32 32" fill="none" xmlns="http://www.w3.org/2000/svg">
<path d="M28.9998 8C28.9998 8.26522 28.8945 8.51957 28.7069 8.70711C28.5194 8.89464 28.265 9 27.9998 9H10.9998V19H15.9998C16.1977 18.9998 16.3912 19.0584 16.5558 19.1683C16.7204 19.2782 16.8487 19.4344 16.9244 19.6172C17.0002 19.8 17.02 20.0012 16.9813 20.1953C16.9427 20.3894 16.8473 20.5676 16.7073 20.7075L10.7073 26.7075C10.6144 26.8005 10.5041 26.8742 10.3828 26.9246C10.2614 26.9749 10.1312 27.0008 9.99981 27.0008C9.8684 27.0008 9.73827 26.9749 9.61687 26.9246C9.49547 26.8742 9.38518 26.8005 9.29231 26.7075L3.29231 20.7075C3.1523 20.5676 3.05693 20.3894 3.01828 20.1953C2.97963 20.0012 2.99944 19.8 3.07519 19.6172C3.15094 19.4344 3.27923 19.2782 3.44383 19.1683C3.60842 19.0584 3.80192 18.9998 3.99981 19H8.99981V8C8.99981 7.73478 9.10517 7.48043 9.2927 7.29289C9.48024 7.10536 9.73459 7 9.99981 7H27.9998C28.265 7 28.5194 7.10536 28.7069 7.29289C28.8945 7.48043 28.9998 7.73478 28.9998 8Z" fill="#4A4A4F"/>
</svg>
