<svg width="32" height="32" viewBox="0 0 32 32" fill="none" xmlns="http://www.w3.org/2000/svg">
<path d="M29.7075 15.2923L17.7075 3.29231C17.5676 3.1523 17.3894 3.05693 17.1953 3.01828C17.0012 2.97963 16.8 2.99944 16.6172 3.07519C16.4344 3.15094 16.2782 3.27923 16.1683 3.44383C16.0584 3.60842 15.9998 3.80192 16 3.99981V8.99981H13C12.7348 8.99981 12.4804 9.10517 12.2929 9.2927C12.1054 9.48024 12 9.73459 12 9.99981V21.9998C12 22.265 12.1054 22.5194 12.2929 22.7069C12.4804 22.8945 12.7348 22.9998 13 22.9998H16V27.9998C15.9998 28.1977 16.0584 28.3912 16.1683 28.5558C16.2782 28.7204 16.4344 28.8487 16.6172 28.9244C16.8 29.0002 17.0012 29.02 17.1953 28.9813C17.3894 28.9427 17.5676 28.8473 17.7075 28.7073L29.7075 16.7073C29.8005 16.6144 29.8742 16.5041 29.9246 16.3828C29.9749 16.2614 30.0008 16.1312 30.0008 15.9998C30.0008 15.8684 29.9749 15.7383 29.9246 15.6169C29.8742 15.4955 29.8005 15.3852 29.7075 15.2923ZM18 25.5861V21.9998C18 21.7346 17.8946 21.4802 17.7071 21.2927C17.5196 21.1052 17.2652 20.9998 17 20.9998H14V10.9998H17C17.2652 10.9998 17.5196 10.8945 17.7071 10.7069C17.8946 10.5194 18 10.265 18 9.99981V6.41356L27.5863 15.9998L18 25.5861ZM6 9.99981V21.9998C6 22.265 5.89464 22.5194 5.70711 22.7069C5.51957 22.8945 5.26522 22.9998 5 22.9998C4.73478 22.9998 4.48043 22.8945 4.29289 22.7069C4.10536 22.5194 4 22.265 4 21.9998V9.99981C4 9.73459 4.10536 9.48024 4.29289 9.2927C4.48043 9.10517 4.73478 8.99981 5 8.99981C5.26522 8.99981 5.51957 9.10517 5.70711 9.2927C5.89464 9.48024 6 9.73459 6 9.99981ZM10 9.99981V21.9998C10 22.265 9.89464 22.5194 9.70711 22.7069C9.51957 22.8945 9.26522 22.9998 9 22.9998C8.73478 22.9998 8.48043 22.8945 8.29289 22.7069C8.10536 22.5194 8 22.265 8 21.9998V9.99981C8 9.73459 8.10536 9.48024 8.29289 9.2927C8.48043 9.10517 8.73478 8.99981 9 8.99981C9.26522 8.99981 9.51957 9.10517 9.70711 9.2927C9.89464 9.48024 10 9.73459 10 9.99981Z" fill="#4A4A4F"/>
</svg>
