<svg width="32" height="32" viewBox="0 0 32 32" fill="none" xmlns="http://www.w3.org/2000/svg">
<path d="M24.7075 8.70757L10.4137 23.0001H21C21.2652 23.0001 21.5196 23.1054 21.7071 23.293C21.8946 23.4805 22 23.7349 22 24.0001C22 24.2653 21.8946 24.5196 21.7071 24.7072C21.5196 24.8947 21.2652 25.0001 21 25.0001H8C7.73478 25.0001 7.48043 24.8947 7.29289 24.7072C7.10536 24.5196 7 24.2653 7 24.0001V11.0001C7 10.7349 7.10536 10.4805 7.29289 10.293C7.48043 10.1054 7.73478 10.0001 8 10.0001C8.26522 10.0001 8.51957 10.1054 8.70711 10.293C8.89464 10.4805 9 10.7349 9 11.0001V21.5863L23.2925 7.29257C23.3854 7.19966 23.4957 7.12596 23.6171 7.07567C23.7385 7.02539 23.8686 6.99951 24 6.99951C24.1314 6.99951 24.2615 7.02539 24.3829 7.07567C24.5043 7.12596 24.6146 7.19966 24.7075 7.29257C24.8004 7.38548 24.8741 7.49578 24.9244 7.61717C24.9747 7.73856 25.0006 7.86867 25.0006 8.00007C25.0006 8.13146 24.9747 8.26157 24.9244 8.38296C24.8741 8.50436 24.8004 8.61466 24.7075 8.70757Z" fill="#4A4A4F"/>
</svg>
