<svg width="32" height="32" viewBox="0 0 32 32" fill="none" xmlns="http://www.w3.org/2000/svg">
<path d="M12.7075 16.7075L8.7075 20.7075C8.56765 20.8475 8.38939 20.9429 8.19531 20.9815C8.00122 21.0202 7.80003 21.0004 7.61721 20.9246C7.43439 20.8489 7.27815 20.7206 7.16828 20.556C7.05841 20.3914 6.99984 20.1979 7 20V17H3C2.73478 17 2.48043 16.8946 2.29289 16.7071C2.10536 16.5196 2 16.2652 2 16C2 15.7348 2.10536 15.4804 2.29289 15.2929C2.48043 15.1054 2.73478 15 3 15H7V12C6.99984 11.8021 7.05841 11.6086 7.16828 11.444C7.27815 11.2794 7.43439 11.1511 7.61721 11.0754C7.80003 10.9996 8.00122 10.9798 8.19531 11.0185C8.38939 11.0571 8.56765 11.1525 8.7075 11.2925L12.7075 15.2925C12.8005 15.3854 12.8742 15.4957 12.9246 15.6171C12.9749 15.7385 13.0008 15.8686 13.0008 16C13.0008 16.1314 12.9749 16.2615 12.9246 16.3829C12.8742 16.5043 12.8005 16.6146 12.7075 16.7075ZM15.2925 12.7075C15.3854 12.8005 15.4957 12.8742 15.6171 12.9246C15.7385 12.9749 15.8686 13.0008 16 13.0008C16.1314 13.0008 16.2615 12.9749 16.3829 12.9246C16.5043 12.8742 16.6146 12.8005 16.7075 12.7075L20.7075 8.7075C20.8475 8.56765 20.9429 8.38939 20.9815 8.19531C21.0202 8.00122 21.0004 7.80003 20.9246 7.61721C20.8489 7.43439 20.7206 7.27815 20.556 7.16828C20.3914 7.05841 20.1979 6.99984 20 7H17V3C17 2.73478 16.8946 2.48043 16.7071 2.29289C16.5196 2.10536 16.2652 2 16 2C15.7348 2 15.4804 2.10536 15.2929 2.29289C15.1054 2.48043 15 2.73478 15 3V7H12C11.8021 6.99984 11.6086 7.05841 11.444 7.16828C11.2794 7.27815 11.1511 7.43439 11.0754 7.61721C10.9996 7.80003 10.9798 8.00122 11.0185 8.19531C11.0571 8.38939 11.1525 8.56765 11.2925 8.7075L15.2925 12.7075ZM16.7075 19.2925C16.6146 19.1995 16.5043 19.1258 16.3829 19.0754C16.2615 19.0251 16.1314 18.9992 16 18.9992C15.8686 18.9992 15.7385 19.0251 15.6171 19.0754C15.4957 19.1258 15.3854 19.1995 15.2925 19.2925L11.2925 23.2925C11.1525 23.4324 11.0571 23.6106 11.0185 23.8047C10.9798 23.9988 10.9996 24.2 11.0754 24.3828C11.1511 24.5656 11.2794 24.7218 11.444 24.8317C11.6086 24.9416 11.8021 25.0002 12 25H15V29C15 29.2652 15.1054 29.5196 15.2929 29.7071C15.4804 29.8946 15.7348 30 16 30C16.2652 30 16.5196 29.8946 16.7071 29.7071C16.8946 29.5196 17 29.2652 17 29V25H20C20.1979 25.0002 20.3914 24.9416 20.556 24.8317C20.7206 24.7218 20.8489 24.5656 20.9246 24.3828C21.0004 24.2 21.0202 23.9988 20.9815 23.8047C20.9429 23.6106 20.8475 23.4324 20.7075 23.2925L16.7075 19.2925ZM29 15H25V12C25.0002 11.8021 24.9416 11.6086 24.8317 11.444C24.7218 11.2794 24.5656 11.1511 24.3828 11.0754C24.2 10.9996 23.9988 10.9798 23.8047 11.0185C23.6106 11.0571 23.4324 11.1525 23.2925 11.2925L19.2925 15.2925C19.1995 15.3854 19.1258 15.4957 19.0754 15.6171C19.0251 15.7385 18.9992 15.8686 18.9992 16C18.9992 16.1314 19.0251 16.2615 19.0754 16.3829C19.1258 16.5043 19.1995 16.6146 19.2925 16.7075L23.2925 20.7075C23.4324 20.8475 23.6106 20.9429 23.8047 20.9815C23.9988 21.0202 24.2 21.0004 24.3828 20.9246C24.5656 20.8489 24.7218 20.7206 24.8317 20.556C24.9416 20.3914 25.0002 20.1979 25 20V17H29C29.2652 17 29.5196 16.8946 29.7071 16.7071C29.8946 16.5196 30 16.2652 30 16C30 15.7348 29.8946 15.4804 29.7071 15.2929C29.5196 15.1054 29.2652 15 29 15Z" fill="#4A4A4F"/>
</svg>
