<svg width="32" height="32" viewBox="0 0 32 32" fill="none" xmlns="http://www.w3.org/2000/svg">
<path d="M22.7075 10.2925C22.8005 10.3854 22.8742 10.4957 22.9246 10.6171C22.9749 10.7385 23.0008 10.8686 23.0008 11C23.0008 11.1314 22.9749 11.2615 22.9246 11.3829C22.8742 11.5043 22.8005 11.6146 22.7075 11.7075L15.4137 19L20.7075 24.2925C20.8475 24.4324 20.9429 24.6106 20.9815 24.8047C21.0202 24.9988 21.0004 25.2 20.9246 25.3828C20.8489 25.5656 20.7206 25.7218 20.556 25.8317C20.3914 25.9416 20.1979 26.0002 20 26H8C7.73478 26 7.48043 25.8946 7.29289 25.7071C7.10536 25.5196 7 25.2652 7 25V13C6.99984 12.8021 7.05841 12.6086 7.16828 12.444C7.27815 12.2794 7.43439 12.1511 7.61721 12.0754C7.80003 11.9996 8.00122 11.9798 8.19531 12.0185C8.38939 12.0571 8.56765 12.1525 8.7075 12.2925L14 17.5863L21.2925 10.2925C21.3854 10.1995 21.4957 10.1258 21.6171 10.0754C21.7385 10.0251 21.8686 9.99921 22 9.99921C22.1314 9.99921 22.2615 10.0251 22.3829 10.0754C22.5043 10.1258 22.6146 10.1995 22.7075 10.2925ZM27 4H5C4.73478 4 4.48043 4.10536 4.29289 4.29289C4.10536 4.48043 4 4.73478 4 5C4 5.26522 4.10536 5.51957 4.29289 5.70711C4.48043 5.89464 4.73478 6 5 6H27C27.2652 6 27.5196 5.89464 27.7071 5.70711C27.8946 5.51957 28 5.26522 28 5C28 4.73478 27.8946 4.48043 27.7071 4.29289C27.5196 4.10536 27.2652 4 27 4Z" fill="#4A4A4F"/>
</svg>
