<svg width="32" height="32" viewBox="0 0 32 32" fill="none" xmlns="http://www.w3.org/2000/svg">
<path d="M26 4H6C5.46957 4 4.96086 4.21071 4.58579 4.58579C4.21071 4.96086 4 5.46957 4 6V26C4 26.5304 4.21071 27.0391 4.58579 27.4142C4.96086 27.7893 5.46957 28 6 28H26C26.5304 28 27.0391 27.7893 27.4142 27.4142C27.7893 27.0391 28 26.5304 28 26V6C28 5.46957 27.7893 4.96086 27.4142 4.58579C27.0391 4.21071 26.5304 4 26 4ZM21 18C21 18.2652 20.8946 18.5196 20.7071 18.7071C20.5196 18.8946 20.2652 19 20 19C19.7348 19 19.4804 18.8946 19.2929 18.7071C19.1054 18.5196 19 18.2652 19 18V14.4137L12.7075 20.7075C12.6146 20.8004 12.5043 20.8741 12.3829 20.9244C12.2615 20.9747 12.1314 21.0006 12 21.0006C11.8686 21.0006 11.7385 20.9747 11.6171 20.9244C11.4957 20.8741 11.3854 20.8004 11.2925 20.7075C11.1996 20.6146 11.1259 20.5043 11.0756 20.3829C11.0253 20.2615 10.9994 20.1314 10.9994 20C10.9994 19.8686 11.0253 19.7385 11.0756 19.6171C11.1259 19.4957 11.1996 19.3854 11.2925 19.2925L17.5863 13H14C13.7348 13 13.4804 12.8946 13.2929 12.7071C13.1054 12.5196 13 12.2652 13 12C13 11.7348 13.1054 11.4804 13.2929 11.2929C13.4804 11.1054 13.7348 11 14 11H20C20.2652 11 20.5196 11.1054 20.7071 11.2929C20.8946 11.4804 21 11.7348 21 12V18Z" fill="#4A4A4F"/>
</svg>
