<svg width="32" height="32" viewBox="0 0 32 32" fill="none" xmlns="http://www.w3.org/2000/svg">
<path d="M24 5V13C24.0001 13.1314 23.9743 13.2615 23.9241 13.3828C23.8739 13.5042 23.8003 13.6146 23.7075 13.7075L17 20.4137V24H20C20.1979 23.9998 20.3914 24.0584 20.556 24.1683C20.7206 24.2782 20.8489 24.4344 20.9246 24.6172C21.0004 24.8 21.0202 25.0012 20.9815 25.1953C20.9429 25.3894 20.8475 25.5676 20.7075 25.7075L16.7075 29.7075C16.6146 29.8005 16.5043 29.8742 16.3829 29.9246C16.2615 29.9749 16.1314 30.0008 16 30.0008C15.8686 30.0008 15.7385 29.9749 15.6171 29.9246C15.4957 29.8742 15.3854 29.8005 15.2925 29.7075L11.2925 25.7075C11.1525 25.5676 11.0571 25.3894 11.0185 25.1953C10.9798 25.0012 10.9996 24.8 11.0754 24.6172C11.1511 24.4344 11.2794 24.2782 11.444 24.1683C11.6086 24.0584 11.8021 23.9998 12 24H15V20.4137L8.2925 13.7075C8.19967 13.6146 8.12605 13.5042 8.07586 13.3828C8.02568 13.2615 7.9999 13.1314 8 13V5C8 4.73478 8.10536 4.48043 8.29289 4.29289C8.48043 4.10536 8.73478 4 9 4C9.26522 4 9.51957 4.10536 9.70711 4.29289C9.89464 4.48043 10 4.73478 10 5V12.5863L16 18.5863L22 12.5863V5C22 4.73478 22.1054 4.48043 22.2929 4.29289C22.4804 4.10536 22.7348 4 23 4C23.2652 4 23.5196 4.10536 23.7071 4.29289C23.8946 4.48043 24 4.73478 24 5Z" fill="#4A4A4F"/>
</svg>
