<svg width="32" height="32" viewBox="0 0 32 32" fill="none" xmlns="http://www.w3.org/2000/svg">
<path d="M26.7075 22.7075L20.7075 28.7075C20.5676 28.8475 20.3894 28.9429 20.1953 28.9815C20.0012 29.0202 19.8 29.0004 19.6172 28.9246C19.4344 28.8489 19.2782 28.7206 19.1683 28.556C19.0584 28.3914 18.9998 28.1979 19 28V23H8C7.73478 23 7.48043 22.8946 7.29289 22.7071C7.10536 22.5196 7 22.2652 7 22V4C7 3.73478 7.10536 3.48043 7.29289 3.29289C7.48043 3.10536 7.73478 3 8 3C8.26522 3 8.51957 3.10536 8.70711 3.29289C8.89464 3.48043 9 3.73478 9 4V21H19V16C18.9998 15.8021 19.0584 15.6086 19.1683 15.444C19.2782 15.2794 19.4344 15.1511 19.6172 15.0754C19.8 14.9996 20.0012 14.9798 20.1953 15.0185C20.3894 15.0571 20.5676 15.1525 20.7075 15.2925L26.7075 21.2925C26.8005 21.3854 26.8742 21.4957 26.9246 21.6171C26.9749 21.7385 27.0008 21.8686 27.0008 22C27.0008 22.1314 26.9749 22.2615 26.9246 22.3829C26.8742 22.5043 26.8005 22.6146 26.7075 22.7075Z" fill="#4A4A4F"/>
</svg>
