<svg width="32" height="32" viewBox="0 0 32 32" fill="none" xmlns="http://www.w3.org/2000/svg">
<path d="M26.7075 22.7075L20.7075 28.7075C20.5199 28.8951 20.2654 29.0006 20 29.0006C19.7346 29.0006 19.4801 28.8951 19.2925 28.7075C19.1049 28.5199 18.9994 28.2654 18.9994 28C18.9994 27.7346 19.1049 27.4801 19.2925 27.2925L23.5863 23H8C7.73478 23 7.48043 22.8946 7.29289 22.7071C7.10536 22.5196 7 22.2652 7 22V4C7 3.73478 7.10536 3.48043 7.29289 3.29289C7.48043 3.10536 7.73478 3 8 3C8.26522 3 8.51957 3.10536 8.70711 3.29289C8.89464 3.48043 9 3.73478 9 4V21H23.5863L19.2925 16.7075C19.1049 16.5199 18.9994 16.2654 18.9994 16C18.9994 15.7346 19.1049 15.4801 19.2925 15.2925C19.4801 15.1049 19.7346 14.9994 20 14.9994C20.2654 14.9994 20.5199 15.1049 20.7075 15.2925L26.7075 21.2925C26.8005 21.3854 26.8742 21.4957 26.9246 21.6171C26.9749 21.7385 27.0008 21.8686 27.0008 22C27.0008 22.1314 26.9749 22.2615 26.9246 22.3829C26.8742 22.5043 26.8005 22.6146 26.7075 22.7075Z" fill="#4A4A4F"/>
</svg>
