<svg width="32" height="32" viewBox="0 0 32 32" fill="none" xmlns="http://www.w3.org/2000/svg">
<path d="M28.7075 13.7073L22.7075 19.7073C22.5676 19.8473 22.3894 19.9427 22.1953 19.9813C22.0012 20.02 21.8 20.0002 21.6172 19.9244C21.4344 19.8487 21.2782 19.7204 21.1683 19.5558C21.0584 19.3912 20.9998 19.1977 21 18.9998V13.9998H16C13.0836 14.0031 10.2877 15.1631 8.22548 17.2253C6.1633 19.2875 5.00331 22.0834 5 24.9998C5 25.265 4.89464 25.5194 4.70711 25.7069C4.51957 25.8945 4.26522 25.9998 4 25.9998C3.73478 25.9998 3.48043 25.8945 3.29289 25.7069C3.10536 25.5194 3 25.265 3 24.9998C3.00364 21.5531 4.37445 18.2486 6.81163 15.8114C9.24882 13.3743 12.5533 12.0035 16 11.9998H21V6.99981C20.9998 6.80192 21.0584 6.60842 21.1683 6.44383C21.2782 6.27923 21.4344 6.15094 21.6172 6.07519C21.8 5.99944 22.0012 5.97963 22.1953 6.01828C22.3894 6.05693 22.5676 6.1523 22.7075 6.29231L28.7075 12.2923C28.8005 12.3852 28.8742 12.4955 28.9246 12.6169C28.9749 12.7383 29.0008 12.8684 29.0008 12.9998C29.0008 13.1312 28.9749 13.2614 28.9246 13.3828C28.8742 13.5041 28.8005 13.6144 28.7075 13.7073Z" fill="#4A4A4F"/>
</svg>
