<svg width="32" height="32" viewBox="0 0 32 32" fill="none" xmlns="http://www.w3.org/2000/svg">
<path d="M30.0001 10V19C30.0001 19.2652 29.8947 19.5196 29.7072 19.7071C29.5196 19.8946 29.2653 20 29.0001 20C28.7349 20 28.4805 19.8946 28.293 19.7071C28.1054 19.5196 28.0001 19.2652 28.0001 19V12.4137L15.7076 24.7075C15.6147 24.8005 15.5044 24.8742 15.383 24.9246C15.2616 24.9749 15.1315 25.0008 15.0001 25.0008C14.8687 25.0008 14.7385 24.9749 14.6171 24.9246C14.4957 24.8742 14.3854 24.8005 14.2926 24.7075L2.29257 12.7075C2.10493 12.5199 1.99951 12.2654 1.99951 12C1.99951 11.7346 2.10493 11.4801 2.29257 11.2925C2.48021 11.1049 2.7347 10.9994 3.00007 10.9994C3.26543 10.9994 3.51993 11.1049 3.70757 11.2925L15.0001 22.5863L26.5863 11H20.0001C19.7349 11 19.4805 10.8946 19.293 10.7071C19.1054 10.5196 19.0001 10.2652 19.0001 10C19.0001 9.73478 19.1054 9.48043 19.293 9.29289C19.4805 9.10536 19.7349 9 20.0001 9H29.0001C29.2653 9 29.5196 9.10536 29.7072 9.29289C29.8947 9.48043 30.0001 9.73478 30.0001 10Z" fill="#4A4A4F"/>
</svg>
