<svg width="32" height="32" viewBox="0 0 32 32" fill="none" xmlns="http://www.w3.org/2000/svg">
<path d="M25.0002 10.0001V28.0001C25.0002 28.2653 24.8948 28.5196 24.7073 28.7072C24.5197 28.8947 24.2654 29.0001 24.0002 29.0001C23.735 29.0001 23.4806 28.8947 23.2931 28.7072C23.1055 28.5196 23.0002 28.2653 23.0002 28.0001V11.0001H8.41393L12.7077 15.2926C12.8953 15.4802 13.0007 15.7347 13.0007 16.0001C13.0007 16.2654 12.8953 16.5199 12.7077 16.7076C12.52 16.8952 12.2655 17.0006 12.0002 17.0006C11.7348 17.0006 11.4803 16.8952 11.2927 16.7076L5.29268 10.7076L5.28518 10.6988C5.26518 10.6788 5.24518 10.6563 5.22643 10.6338L5.19768 10.5951C5.18739 10.5823 5.17779 10.5689 5.16893 10.5551L5.14018 10.5088C5.13236 10.4967 5.12526 10.4842 5.11893 10.4713C5.11018 10.4563 5.10268 10.4401 5.09518 10.4238C5.08768 10.4076 5.08268 10.3976 5.07643 10.3826C5.07018 10.3676 5.06518 10.3513 5.05893 10.3363L5.04268 10.2913L5.03143 10.2426C5.03143 10.2263 5.02268 10.2113 5.01893 10.1963C5.01518 10.1813 5.01893 10.1576 5.01143 10.1388C5.00393 10.1201 5.01143 10.1126 5.00518 10.0988C4.99893 10.0331 4.99893 9.967 5.00518 9.90132C5.00518 9.88757 5.00518 9.87507 5.01143 9.86132C5.01768 9.84757 5.01143 9.82257 5.01893 9.80382C5.02643 9.78507 5.02643 9.77382 5.03143 9.75757L5.04268 9.70882L5.05893 9.66382C5.06518 9.64882 5.07018 9.63257 5.07643 9.61757C5.08268 9.60257 5.08893 9.59007 5.09518 9.57632C5.10143 9.56257 5.11018 9.54382 5.11893 9.52882C5.12526 9.51591 5.13236 9.50339 5.14018 9.49132L5.16893 9.44507C5.17779 9.43123 5.18739 9.41788 5.19768 9.40507L5.22643 9.36632C5.24518 9.34382 5.26518 9.32132 5.28518 9.30132L5.29268 9.29257L11.2927 3.29257C11.4803 3.10493 11.7348 2.99951 12.0002 2.99951C12.2655 2.99951 12.52 3.10493 12.7077 3.29257C12.8953 3.48021 13.0007 3.7347 13.0007 4.00007C13.0007 4.26543 12.8953 4.51993 12.7077 4.70757L8.41393 9.00007H24.0002C24.2654 9.00007 24.5197 9.10542 24.7073 9.29296C24.8948 9.4805 25.0002 9.73485 25.0002 10.0001Z" fill="#4A4A4F"/>
</svg>
