<svg width="32" height="32" viewBox="0 0 32 32" fill="none" xmlns="http://www.w3.org/2000/svg">
<path d="M23.7075 15.2925C23.8005 15.3854 23.8742 15.4957 23.9246 15.6171C23.9749 15.7385 24.0008 15.8686 24.0008 16C24.0008 16.1314 23.9749 16.2615 23.9246 16.3829C23.8742 16.5043 23.8005 16.6146 23.7075 16.7075L14.7075 25.7075C14.6146 25.8004 14.5043 25.8741 14.3829 25.9244C14.2615 25.9747 14.1314 26.0006 14 26.0006C13.8686 26.0006 13.7385 25.9747 13.6171 25.9244C13.4957 25.8741 13.3854 25.8004 13.2925 25.7075C13.1996 25.6146 13.1259 25.5043 13.0756 25.3829C13.0253 25.2615 12.9994 25.1314 12.9994 25C12.9994 24.8686 13.0253 24.7385 13.0756 24.6171C13.1259 24.4957 13.1996 24.3854 13.2925 24.2925L20.5863 17H4C3.73478 17 3.48043 16.8946 3.29289 16.7071C3.10536 16.5196 3 16.2652 3 16C3 15.7348 3.10536 15.4804 3.29289 15.2929C3.48043 15.1054 3.73478 15 4 15H20.5863L13.2925 7.7075C13.1049 7.51986 12.9994 7.26536 12.9994 7C12.9994 6.73464 13.1049 6.48014 13.2925 6.2925C13.4801 6.10486 13.7346 5.99944 14 5.99944C14.2654 5.99944 14.5199 6.10486 14.7075 6.2925L23.7075 15.2925ZM27 4C26.7348 4 26.4804 4.10536 26.2929 4.29289C26.1054 4.48043 26 4.73478 26 5V27C26 27.2652 26.1054 27.5196 26.2929 27.7071C26.4804 27.8946 26.7348 28 27 28C27.2652 28 27.5196 27.8946 27.7071 27.7071C27.8946 27.5196 28 27.2652 28 27V5C28 4.73478 27.8946 4.48043 27.7071 4.29289C27.5196 4.10536 27.2652 4 27 4Z" fill="#4A4A4F"/>
</svg>
