<svg width="32" height="32" viewBox="0 0 32 32" fill="none" xmlns="http://www.w3.org/2000/svg">
<path d="M28.7076 23.7075L24.7076 27.7075C24.6147 27.8005 24.5044 27.8742 24.383 27.9246C24.2616 27.9749 24.1315 28.0008 24.0001 28.0008C23.8687 28.0008 23.7385 27.9749 23.6171 27.9246C23.4957 27.8742 23.3854 27.8005 23.2926 27.7075L19.2926 23.7075C19.1049 23.5199 18.9995 23.2654 18.9995 23C18.9995 22.7346 19.1049 22.4801 19.2926 22.2925C19.4802 22.1049 19.7347 21.9994 20.0001 21.9994C20.2654 21.9994 20.5199 22.1049 20.7076 22.2925L23.0001 24.5863V17.4137L16.0001 10.4137L9.00007 17.4137V24.5863L11.2926 22.2925C11.4802 22.1049 11.7347 21.9994 12.0001 21.9994C12.2654 21.9994 12.5199 22.1049 12.7076 22.2925C12.8952 22.4801 13.0006 22.7346 13.0006 23C13.0006 23.2654 12.8952 23.5199 12.7076 23.7075L8.70757 27.7075C8.6147 27.8005 8.50441 27.8742 8.38301 27.9246C8.26161 27.9749 8.13148 28.0008 8.00007 28.0008C7.86865 28.0008 7.73853 27.9749 7.61713 27.9246C7.49573 27.8742 7.38544 27.8005 7.29257 27.7075L3.29257 23.7075C3.19966 23.6146 3.12596 23.5043 3.07567 23.3829C3.02539 23.2615 2.99951 23.1314 2.99951 23C2.99951 22.8686 3.02539 22.7385 3.07567 22.6171C3.12596 22.4957 3.19966 22.3854 3.29257 22.2925C3.48021 22.1049 3.7347 21.9994 4.00007 21.9994C4.13146 21.9994 4.26157 22.0253 4.38296 22.0756C4.50436 22.1259 4.61466 22.1996 4.70757 22.2925L7.00007 24.5863V17C6.99996 16.8686 7.02574 16.7385 7.07593 16.6171C7.12612 16.4958 7.19973 16.3854 7.29257 16.2925L15.0001 8.58625V3C15.0001 2.73478 15.1054 2.48043 15.293 2.29289C15.4805 2.10536 15.7349 2 16.0001 2C16.2653 2 16.5196 2.10536 16.7072 2.29289C16.8947 2.48043 17.0001 2.73478 17.0001 3V8.58625L24.7076 16.2925C24.8004 16.3854 24.874 16.4958 24.9242 16.6171C24.9744 16.7385 25.0002 16.8686 25.0001 17V24.5863L27.2926 22.2925C27.4802 22.1049 27.7347 21.9994 28.0001 21.9994C28.2654 21.9994 28.5199 22.1049 28.7076 22.2925C28.8952 22.4801 29.0006 22.7346 29.0006 23C29.0006 23.2654 28.8952 23.5199 28.7076 23.7075Z" fill="#4A4A4F"/>
</svg>
