<svg width="32" height="32" viewBox="0 0 32 32" fill="none" xmlns="http://www.w3.org/2000/svg">
<path d="M25.7075 17.2925C25.8475 17.4324 25.9429 17.6106 25.9815 17.8047C26.0202 17.9988 26.0004 18.2 25.9246 18.3828C25.8489 18.5656 25.7206 18.7218 25.556 18.8317C25.3914 18.9416 25.1979 19.0002 25 19H17V28C17 28.2652 16.8946 28.5196 16.7071 28.7071C16.5196 28.8946 16.2652 29 16 29C15.7348 29 15.4804 28.8946 15.2929 28.7071C15.1054 28.5196 15 28.2652 15 28V19H7C6.8021 19.0002 6.60861 18.9416 6.44402 18.8317C6.27942 18.7218 6.15113 18.5656 6.07538 18.3828C5.99962 18.2 5.97982 17.9988 6.01847 17.8047C6.05712 17.6106 6.15249 17.4324 6.2925 17.2925L15.2925 8.2925C15.3854 8.19952 15.4957 8.12576 15.6171 8.07544C15.7385 8.02512 15.8686 7.99921 16 7.99921C16.1314 7.99921 16.2615 8.02512 16.3829 8.07544C16.5043 8.12576 16.6146 8.19952 16.7075 8.2925L25.7075 17.2925ZM27 4H5C4.73478 4 4.48043 4.10536 4.29289 4.29289C4.10536 4.48043 4 4.73478 4 5C4 5.26522 4.10536 5.51957 4.29289 5.70711C4.48043 5.89464 4.73478 6 5 6H27C27.2652 6 27.5196 5.89464 27.7071 5.70711C27.8946 5.51957 28 5.26522 28 5C28 4.73478 27.8946 4.48043 27.7071 4.29289C27.5196 4.10536 27.2652 4 27 4Z" fill="#4A4A4F"/>
</svg>
