<svg width="32" height="32" viewBox="0 0 32 32" fill="none" xmlns="http://www.w3.org/2000/svg">
<path d="M26.7075 10.7073L20.7075 16.7073C20.5676 16.8473 20.3894 16.9427 20.1953 16.9813C20.0012 17.02 19.8 17.0002 19.6172 16.9244C19.4344 16.8487 19.2782 16.7204 19.1683 16.5558C19.0584 16.3912 18.9998 16.1977 19 15.9998V10.9998H9V27.9998C9 28.265 8.89464 28.5194 8.70711 28.7069C8.51957 28.8945 8.26522 28.9998 8 28.9998C7.73478 28.9998 7.48043 28.8945 7.29289 28.7069C7.10536 28.5194 7 28.265 7 27.9998V9.99981C7 9.73459 7.10536 9.48024 7.29289 9.2927C7.48043 9.10517 7.73478 8.99981 8 8.99981H19V3.99981C18.9998 3.80192 19.0584 3.60842 19.1683 3.44383C19.2782 3.27923 19.4344 3.15094 19.6172 3.07519C19.8 2.99944 20.0012 2.97963 20.1953 3.01828C20.3894 3.05693 20.5676 3.1523 20.7075 3.29231L26.7075 9.29231C26.8005 9.38518 26.8742 9.49547 26.9246 9.61687C26.9749 9.73827 27.0008 9.8684 27.0008 9.99981C27.0008 10.1312 26.9749 10.2614 26.9246 10.3828C26.8742 10.5041 26.8005 10.6144 26.7075 10.7073Z" fill="#4A4A4F"/>
</svg>
