<svg width="32" height="32" viewBox="0 0 32 32" fill="none" xmlns="http://www.w3.org/2000/svg">
<path d="M28.7075 13.7076L22.7075 19.7076C22.5199 19.8952 22.2654 20.0006 22 20.0006C21.7346 20.0006 21.4801 19.8952 21.2925 19.7076C21.1049 19.5199 20.9994 19.2654 20.9994 19.0001C20.9994 18.7347 21.1049 18.4802 21.2925 18.2926L26.5863 13.0001L21.2925 7.70757C21.1996 7.61466 21.1259 7.50436 21.0756 7.38296C21.0253 7.26157 20.9994 7.13146 20.9994 7.00007C20.9994 6.86867 21.0253 6.73856 21.0756 6.61717C21.1259 6.49578 21.1996 6.38548 21.2925 6.29257C21.4801 6.10493 21.7346 5.99951 22 5.99951C22.1314 5.99951 22.2615 6.02539 22.3829 6.07567C22.5043 6.12596 22.6146 6.19966 22.7075 6.29257L28.7075 12.2926C28.8005 12.3854 28.8742 12.4957 28.9246 12.6171C28.9749 12.7385 29.0008 12.8687 29.0008 13.0001C29.0008 13.1315 28.9749 13.2616 28.9246 13.383C28.8742 13.5044 28.8005 13.6147 28.7075 13.7076ZM22.7075 12.2926L16.7075 6.29257C16.5199 6.10493 16.2654 5.99951 16 5.99951C15.7346 5.99951 15.4801 6.10493 15.2925 6.29257C15.1049 6.48021 14.9994 6.7347 14.9994 7.00007C14.9994 7.26543 15.1049 7.51993 15.2925 7.70757L19.5863 12.0001H16C12.5533 12.0037 9.24882 13.3745 6.81163 15.8117C4.37445 18.2489 3.00364 21.5534 3 25.0001C3 25.2653 3.10536 25.5196 3.29289 25.7072C3.48043 25.8947 3.73478 26.0001 4 26.0001C4.26522 26.0001 4.51957 25.8947 4.70711 25.7072C4.89464 25.5196 5 25.2653 5 25.0001C5.00331 22.0837 6.1633 19.2877 8.22548 17.2255C10.2877 15.1634 13.0836 14.0034 16 14.0001H19.5863L15.2925 18.2926C15.1996 18.3855 15.1259 18.4958 15.0756 18.6172C15.0253 18.7386 14.9994 18.8687 14.9994 19.0001C14.9994 19.1315 15.0253 19.2616 15.0756 19.383C15.1259 19.5044 15.1996 19.6147 15.2925 19.7076C15.4801 19.8952 15.7346 20.0006 16 20.0006C16.1314 20.0006 16.2615 19.9747 16.3829 19.9245C16.5043 19.8742 16.6146 19.8005 16.7075 19.7076L22.7075 13.7076C22.8005 13.6147 22.8742 13.5044 22.9246 13.383C22.9749 13.2616 23.0008 13.1315 23.0008 13.0001C23.0008 12.8687 22.9749 12.7385 22.9246 12.6171C22.8742 12.4957 22.8005 12.3854 22.7075 12.2926Z" fill="#4A4A4F"/>
</svg>
