<svg width="32" height="32" viewBox="0 0 32 32" fill="none" xmlns="http://www.w3.org/2000/svg">
<path d="M28 5V27C28 27.2652 27.8946 27.5196 27.7071 27.7071C27.5196 27.8946 27.2652 28 27 28C26.7348 28 26.4804 27.8946 26.2929 27.7071C26.1054 27.5196 26 27.2652 26 27V5C26 4.73478 26.1054 4.48043 26.2929 4.29289C26.4804 4.10536 26.7348 4 27 4C27.2652 4 27.5196 4.10536 27.7071 4.29289C27.8946 4.48043 28 4.73478 28 5ZM14.7075 6.2925C14.5676 6.15249 14.3894 6.05712 14.1953 6.01847C14.0012 5.97982 13.8 5.99962 13.6172 6.07538C13.4344 6.15113 13.2782 6.27942 13.1683 6.44402C13.0584 6.60861 12.9998 6.8021 13 7V15H4C3.73478 15 3.48043 15.1054 3.29289 15.2929C3.10536 15.4804 3 15.7348 3 16C3 16.2652 3.10536 16.5196 3.29289 16.7071C3.48043 16.8946 3.73478 17 4 17H13V25C12.9998 25.1979 13.0584 25.3914 13.1683 25.556C13.2782 25.7206 13.4344 25.8489 13.6172 25.9246C13.8 26.0004 14.0012 26.0202 14.1953 25.9815C14.3894 25.9429 14.5676 25.8475 14.7075 25.7075L23.7075 16.7075C23.8005 16.6146 23.8742 16.5043 23.9246 16.3829C23.9749 16.2615 24.0008 16.1314 24.0008 16C24.0008 15.8686 23.9749 15.7385 23.9246 15.6171C23.8742 15.4957 23.8005 15.3854 23.7075 15.2925L14.7075 6.2925Z" fill="#4A4A4F"/>
</svg>
