<svg width="32" height="32" viewBox="0 0 32 32" fill="none" xmlns="http://www.w3.org/2000/svg">
<path d="M28.7073 17.7075L16.7073 29.7075C16.6144 29.8005 16.5041 29.8742 16.3828 29.9246C16.2614 29.9749 16.1312 30.0008 15.9998 30.0008C15.8684 30.0008 15.7383 29.9749 15.6169 29.9246C15.4955 29.8742 15.3852 29.8005 15.2923 29.7075L3.29231 17.7075C3.1523 17.5676 3.05693 17.3894 3.01828 17.1953C2.97963 17.0012 2.99944 16.8 3.07519 16.6172C3.15094 16.4344 3.27923 16.2782 3.44383 16.1683C3.60842 16.0584 3.80192 15.9998 3.99981 16H8.99981V6C8.99981 5.46957 9.21053 4.96086 9.5856 4.58579C9.96067 4.21071 10.4694 4 10.9998 4H20.9998C21.5302 4 22.039 4.21071 22.414 4.58579C22.7891 4.96086 22.9998 5.46957 22.9998 6V16H27.9998C28.1977 15.9998 28.3912 16.0584 28.5558 16.1683C28.7204 16.2782 28.8487 16.4344 28.9244 16.6172C29.0002 16.8 29.02 17.0012 28.9813 17.1953C28.9427 17.3894 28.8473 17.5676 28.7073 17.7075Z" fill="#4A4A4F"/>
</svg>
