<svg width="32" height="32" viewBox="0 0 32 32" fill="none" xmlns="http://www.w3.org/2000/svg">
<path d="M24.7075 8.70757L15.9137 17.5001L21.7075 23.2926C21.8475 23.4324 21.9429 23.6107 21.9815 23.8048C22.0202 23.9988 22.0004 24.2 21.9246 24.3829C21.8489 24.5657 21.7206 24.7219 21.556 24.8318C21.3914 24.9417 21.1979 25.0002 21 25.0001H8C7.73478 25.0001 7.48043 24.8947 7.29289 24.7072C7.10536 24.5196 7 24.2653 7 24.0001V11.0001C6.99984 10.8022 7.05841 10.6087 7.16828 10.4441C7.27815 10.2795 7.43439 10.1512 7.61721 10.0754C7.80003 9.99969 8.00122 9.97989 8.19531 10.0185C8.38939 10.0572 8.56765 10.1526 8.7075 10.2926L14.5 16.0863L23.2925 7.29257C23.3854 7.19966 23.4957 7.12596 23.6171 7.07567C23.7385 7.02539 23.8686 6.99951 24 6.99951C24.1314 6.99951 24.2615 7.02539 24.3829 7.07567C24.5043 7.12596 24.6146 7.19966 24.7075 7.29257C24.8004 7.38548 24.8741 7.49578 24.9244 7.61717C24.9747 7.73856 25.0006 7.86867 25.0006 8.00007C25.0006 8.13146 24.9747 8.26157 24.9244 8.38296C24.8741 8.50436 24.8004 8.61466 24.7075 8.70757Z" fill="#4A4A4F"/>
</svg>
