<svg width="32" height="32" viewBox="0 0 32 32" fill="none" xmlns="http://www.w3.org/2000/svg">
<path d="M18.0001 13.0001V8.00007C17.9999 7.80217 18.0585 7.60868 18.1683 7.44409C18.2782 7.27949 18.4345 7.1512 18.6173 7.07545C18.8001 6.99969 19.0013 6.97989 19.1954 7.01854C19.3895 7.05719 19.5677 7.15256 19.7076 7.29257L21.5001 9.08632L25.2926 5.29257C25.4802 5.10493 25.7347 4.99951 26.0001 4.99951C26.2654 4.99951 26.5199 5.10493 26.7076 5.29257C26.8952 5.48021 27.0006 5.7347 27.0006 6.00007C27.0006 6.26543 26.8952 6.51993 26.7076 6.70757L22.9138 10.5001L24.7076 12.2926C24.8476 12.4324 24.9429 12.6107 24.9816 12.8048C25.0202 12.9988 25.0004 13.2 24.9247 13.3829C24.8489 13.5657 24.7206 13.7219 24.556 13.8318C24.3915 13.9417 24.198 14.0002 24.0001 14.0001H19.0001C18.7349 14.0001 18.4805 13.8947 18.293 13.7072C18.1054 13.5196 18.0001 13.2653 18.0001 13.0001ZM13.0001 18.0001H8.00007C7.80217 17.9999 7.60868 18.0585 7.44409 18.1683C7.27949 18.2782 7.1512 18.4345 7.07545 18.6173C6.99969 18.8001 6.97989 19.0013 7.01854 19.1954C7.05719 19.3895 7.15256 19.5677 7.29257 19.7076L9.08632 21.5001L5.29257 25.2926C5.10493 25.4802 4.99951 25.7347 4.99951 26.0001C4.99951 26.2654 5.10493 26.5199 5.29257 26.7076C5.48021 26.8952 5.7347 27.0006 6.00007 27.0006C6.26543 27.0006 6.51993 26.8952 6.70757 26.7076L10.5001 22.9138L12.2926 24.7076C12.4324 24.8476 12.6107 24.9429 12.8048 24.9816C12.9988 25.0202 13.2 25.0004 13.3829 24.9247C13.5657 24.8489 13.7219 24.7206 13.8318 24.556C13.9417 24.3915 14.0002 24.198 14.0001 24.0001V19.0001C14.0001 18.7349 13.8947 18.4805 13.7072 18.293C13.5196 18.1054 13.2653 18.0001 13.0001 18.0001ZM13.3826 7.07632C13.1999 7.00052 12.9988 6.98061 12.8048 7.0191C12.6107 7.05759 12.4325 7.15276 12.2926 7.29257L10.5001 9.08632L6.70757 5.29257C6.51993 5.10493 6.26543 4.99951 6.00007 4.99951C5.7347 4.99951 5.48021 5.10493 5.29257 5.29257C5.10493 5.48021 4.99951 5.7347 4.99951 6.00007C4.99951 6.26543 5.10493 6.51993 5.29257 6.70757L9.08632 10.5001L7.29257 12.2926C7.15256 12.4324 7.05719 12.6107 7.01854 12.8048C6.97989 12.9988 6.99969 13.2 7.07545 13.3829C7.1512 13.5657 7.27949 13.7219 7.44409 13.8318C7.60868 13.9417 7.80217 14.0002 8.00007 14.0001H13.0001C13.2653 14.0001 13.5196 13.8947 13.7072 13.7072C13.8947 13.5196 14.0001 13.2653 14.0001 13.0001V8.00007C14 7.80229 13.9413 7.60896 13.8314 7.44453C13.7215 7.28011 13.5653 7.15197 13.3826 7.07632ZM22.9138 21.5001L24.7076 19.7076C24.8476 19.5677 24.9429 19.3895 24.9816 19.1954C25.0202 19.0013 25.0004 18.8001 24.9247 18.6173C24.8489 18.4345 24.7206 18.2782 24.556 18.1683C24.3915 18.0585 24.198 17.9999 24.0001 18.0001H19.0001C18.7349 18.0001 18.4805 18.1054 18.293 18.293C18.1054 18.4805 18.0001 18.7349 18.0001 19.0001V24.0001C17.9999 24.198 18.0585 24.3915 18.1683 24.556C18.2782 24.7206 18.4345 24.8489 18.6173 24.9247C18.8001 25.0004 19.0013 25.0202 19.1954 24.9816C19.3895 24.9429 19.5677 24.8476 19.7076 24.7076L21.5001 22.9138L25.2926 26.7076C25.3855 26.8005 25.4958 26.8742 25.6172 26.9245C25.7386 26.9747 25.8687 27.0006 26.0001 27.0006C26.1315 27.0006 26.2616 26.9747 26.383 26.9245C26.5044 26.8742 26.6147 26.8005 26.7076 26.7076C26.8005 26.6147 26.8742 26.5044 26.9245 26.383C26.9747 26.2616 27.0006 26.1315 27.0006 26.0001C27.0006 25.8687 26.9747 25.7386 26.9245 25.6172C26.8742 25.4958 26.8005 25.3855 26.7076 25.2926L22.9138 21.5001Z" fill="#4A4A4F"/>
</svg>
