<svg width="32" height="32" viewBox="0 0 32 32" fill="none" xmlns="http://www.w3.org/2000/svg">
<path d="M29 23.0002C29 23.2654 28.8946 23.5198 28.7071 23.7073C28.5196 23.8949 28.2652 24.0002 28 24.0002C27.7348 24.0002 27.4804 23.8949 27.2929 23.7073C27.1054 23.5198 27 23.2654 27 23.0002C26.9997 20.8248 26.3545 18.6984 25.1457 16.8897C23.937 15.081 22.2192 13.6713 20.2093 12.8388C18.1995 12.0064 15.988 11.7885 13.8544 12.2129C11.7208 12.6372 9.76087 13.6846 8.2225 15.2227L5.425 18.0002H11C11.2652 18.0002 11.5196 18.1056 11.7071 18.2931C11.8946 18.4807 12 18.735 12 19.0002C12 19.2654 11.8946 19.5198 11.7071 19.7073C11.5196 19.8949 11.2652 20.0002 11 20.0002H3C2.73478 20.0002 2.48043 19.8949 2.29289 19.7073C2.10536 19.5198 2 19.2654 2 19.0002V11.0002C2 10.735 2.10536 10.4807 2.29289 10.2931C2.48043 10.1056 2.73478 10.0002 3 10.0002C3.26522 10.0002 3.51957 10.1056 3.70711 10.2931C3.89464 10.4807 4 10.735 4 11.0002V16.5965L6.81 13.8052C8.62837 11.9878 10.9448 10.7503 13.4664 10.2493C15.988 9.74824 18.6015 10.0061 20.9765 10.9903C23.3516 11.9744 25.3815 13.6407 26.8097 15.7784C28.2378 17.9162 29 20.4293 29 23.0002Z" fill="#4A4A4F"/>
</svg>
