<svg width="32" height="32" viewBox="0 0 32 32" fill="none" xmlns="http://www.w3.org/2000/svg">
<path d="M25.7076 14.7073C25.6147 14.8003 25.5044 14.874 25.383 14.9244C25.2616 14.9747 25.1315 15.0006 25.0001 15.0006C24.8687 15.0006 24.7385 14.9747 24.6171 14.9244C24.4957 14.874 24.3854 14.8003 24.2926 14.7073L17.0001 7.41356V26.9998C17.0001 27.265 16.8947 27.5194 16.7072 27.7069C16.5196 27.8945 16.2653 27.9998 16.0001 27.9998C15.7349 27.9998 15.4805 27.8945 15.293 27.7069C15.1054 27.5194 15.0001 27.265 15.0001 26.9998V7.41356L7.70757 14.7073C7.51993 14.895 7.26543 15.0004 7.00007 15.0004C6.7347 15.0004 6.48021 14.895 6.29257 14.7073C6.10493 14.5197 5.99951 14.2652 5.99951 13.9998C5.99951 13.7344 6.10493 13.4799 6.29257 13.2923L15.2926 4.29231C15.3854 4.19933 15.4957 4.12557 15.6171 4.07525C15.7385 4.02493 15.8687 3.99902 16.0001 3.99902C16.1315 3.99902 16.2616 4.02493 16.383 4.07525C16.5044 4.12557 16.6147 4.19933 16.7076 4.29231L25.7076 13.2923C25.8005 13.3852 25.8743 13.4955 25.9246 13.6169C25.975 13.7383 26.0009 13.8684 26.0009 13.9998C26.0009 14.1312 25.975 14.2614 25.9246 14.3828C25.8743 14.5041 25.8005 14.6144 25.7076 14.7073Z" fill="#4A4A4F"/>
</svg>
