<svg width="32" height="32" viewBox="0 0 32 32" fill="none" xmlns="http://www.w3.org/2000/svg">
<path d="M6 5V27C6 27.2652 5.89464 27.5196 5.70711 27.7071C5.51957 27.8946 5.26522 28 5 28C4.73478 28 4.48043 27.8946 4.29289 27.7071C4.10536 27.5196 4 27.2652 4 27V5C4 4.73478 4.10536 4.48043 4.29289 4.29289C4.48043 4.10536 4.73478 4 5 4C5.26522 4 5.51957 4.10536 5.70711 4.29289C5.89464 4.48043 6 4.73478 6 5ZM28 15H19V7C19.0002 6.8021 18.9416 6.60861 18.8317 6.44402C18.7218 6.27942 18.5656 6.15113 18.3828 6.07538C18.2 5.99962 17.9988 5.97982 17.8047 6.01847C17.6106 6.05712 17.4324 6.15249 17.2925 6.2925L8.2925 15.2925C8.19952 15.3854 8.12576 15.4957 8.07544 15.6171C8.02512 15.7385 7.99921 15.8686 7.99921 16C7.99921 16.1314 8.02512 16.2615 8.07544 16.3829C8.12576 16.5043 8.19952 16.6146 8.2925 16.7075L17.2925 25.7075C17.4324 25.8475 17.6106 25.9429 17.8047 25.9815C17.9988 26.0202 18.2 26.0004 18.3828 25.9246C18.5656 25.8489 18.7218 25.7206 18.8317 25.556C18.9416 25.3914 19.0002 25.1979 19 25V17H28C28.2652 17 28.5196 16.8946 28.7071 16.7071C28.8946 16.5196 29 16.2652 29 16C29 15.7348 28.8946 15.4804 28.7071 15.2929C28.5196 15.1054 28.2652 15 28 15Z" fill="#4A4A4F"/>
</svg>
