<svg width="32" height="32" viewBox="0 0 32 32" fill="none" xmlns="http://www.w3.org/2000/svg">
<path d="M26 4H6C5.46957 4 4.96086 4.21071 4.58579 4.58579C4.21071 4.96086 4 5.46957 4 6V26C4 26.5304 4.21071 27.0391 4.58579 27.4142C4.96086 27.7893 5.46957 28 6 28H26C26.5304 28 27.0391 27.7893 27.4142 27.4142C27.7893 27.0391 28 26.5304 28 26V6C28 5.46957 27.7893 4.96086 27.4142 4.58579C27.0391 4.21071 26.5304 4 26 4ZM26 26H6V6H26V26ZM11 20V14C11 13.7348 11.1054 13.4804 11.2929 13.2929C11.4804 13.1054 11.7348 13 12 13C12.2652 13 12.5196 13.1054 12.7071 13.2929C12.8946 13.4804 13 13.7348 13 14V17.5863L19.2925 11.2925C19.3854 11.1996 19.4957 11.1259 19.6171 11.0756C19.7385 11.0253 19.8686 10.9994 20 10.9994C20.1314 10.9994 20.2615 11.0253 20.3829 11.0756C20.5043 11.1259 20.6146 11.1996 20.7075 11.2925C20.8004 11.3854 20.8741 11.4957 20.9244 11.6171C20.9747 11.7385 21.0006 11.8686 21.0006 12C21.0006 12.1314 20.9747 12.2615 20.9244 12.3829C20.8741 12.5043 20.8004 12.6146 20.7075 12.7075L14.4137 19H18C18.2652 19 18.5196 19.1054 18.7071 19.2929C18.8946 19.4804 19 19.7348 19 20C19 20.2652 18.8946 20.5196 18.7071 20.7071C18.5196 20.8946 18.2652 21 18 21H12C11.7348 21 11.4804 20.8946 11.2929 20.7071C11.1054 20.5196 11 20.2652 11 20Z" fill="#4A4A4F"/>
</svg>
