<svg width="32" height="32" viewBox="0 0 32 32" fill="none" xmlns="http://www.w3.org/2000/svg">
<path d="M14.7075 17.2925C14.8005 17.3854 14.8742 17.4957 14.9246 17.6171C14.9749 17.7385 15.0008 17.8686 15.0008 18C15.0008 18.1314 14.9749 18.2615 14.9246 18.3829C14.8742 18.5043 14.8005 18.6146 14.7075 18.7075L10.4138 23L12.7075 25.2925C12.8475 25.4324 12.9429 25.6106 12.9815 25.8047C13.0202 25.9988 13.0004 26.2 12.9246 26.3828C12.8489 26.5656 12.7206 26.7218 12.556 26.8317C12.3914 26.9416 12.1979 27.0002 12 27H6C5.73478 27 5.48043 26.8946 5.29289 26.7071C5.10536 26.5196 5 26.2652 5 26V20C4.99984 19.8021 5.05841 19.6086 5.16828 19.444C5.27815 19.2794 5.43439 19.1511 5.61721 19.0754C5.80003 18.9996 6.00122 18.9798 6.19531 19.0185C6.38939 19.0571 6.56764 19.1525 6.7075 19.2925L9 21.5863L13.2925 17.2925C13.3854 17.1995 13.4957 17.1258 13.6171 17.0754C13.7385 17.0251 13.8686 16.9992 14 16.9992C14.1314 16.9992 14.2615 17.0251 14.3829 17.0754C14.5043 17.1258 14.6146 17.1995 14.7075 17.2925ZM26 5H20C19.8021 4.99984 19.6086 5.05841 19.444 5.16828C19.2794 5.27815 19.1511 5.43439 19.0754 5.61721C18.9996 5.80003 18.9798 6.00122 19.0185 6.19531C19.0571 6.38939 19.1525 6.56764 19.2925 6.7075L21.5863 9L17.2925 13.2925C17.1049 13.4801 16.9994 13.7346 16.9994 14C16.9994 14.2654 17.1049 14.5199 17.2925 14.7075C17.4801 14.8951 17.7346 15.0006 18 15.0006C18.2654 15.0006 18.5199 14.8951 18.7075 14.7075L23 10.4138L25.2925 12.7075C25.4324 12.8475 25.6106 12.9429 25.8047 12.9815C25.9988 13.0202 26.2 13.0004 26.3828 12.9246C26.5656 12.8489 26.7218 12.7206 26.8317 12.556C26.9416 12.3914 27.0002 12.1979 27 12V6C27 5.73478 26.8946 5.48043 26.7071 5.29289C26.5196 5.10536 26.2652 5 26 5Z" fill="#4A4A4F"/>
</svg>
