<svg width="32" height="32" viewBox="0 0 32 32" fill="none" xmlns="http://www.w3.org/2000/svg">
<path d="M18.9999 13C18.9999 12.7348 19.1053 12.4804 19.2928 12.2929C19.4804 12.1054 19.7347 12 19.9999 12H29.9999C30.2652 12 30.5195 12.1054 30.7071 12.2929C30.8946 12.4804 30.9999 12.7348 30.9999 13C30.9999 13.2652 30.8946 13.5196 30.7071 13.7071C30.5195 13.8946 30.2652 14 29.9999 14H19.9999C19.7347 14 19.4804 13.8946 19.2928 13.7071C19.1053 13.5196 18.9999 13.2652 18.9999 13ZM29.9999 16H19.9999C19.7347 16 19.4804 16.1054 19.2928 16.2929C19.1053 16.4804 18.9999 16.7348 18.9999 17C18.9999 17.2652 19.1053 17.5196 19.2928 17.7071C19.4804 17.8946 19.7347 18 19.9999 18H29.9999C30.2652 18 30.5195 17.8946 30.7071 17.7071C30.8946 17.5196 30.9999 17.2652 30.9999 17C30.9999 16.7348 30.8946 16.4804 30.7071 16.2929C30.5195 16.1054 30.2652 16 29.9999 16ZM29.9999 20H19.9999C19.7347 20 19.4804 20.1054 19.2928 20.2929C19.1053 20.4804 18.9999 20.7348 18.9999 21C18.9999 21.2652 19.1053 21.5196 19.2928 21.7071C19.4804 21.8946 19.7347 22 19.9999 22H29.9999C30.2652 22 30.5195 21.8946 30.7071 21.7071C30.8946 21.5196 30.9999 21.2652 30.9999 21C30.9999 20.7348 30.8946 20.4804 30.7071 20.2929C30.5195 20.1054 30.2652 20 29.9999 20ZM29.9999 24H8.99995C8.73473 24 8.48038 24.1054 8.29284 24.2929C8.1053 24.4804 7.99995 24.7348 7.99995 25C7.99995 25.2652 8.1053 25.5196 8.29284 25.7071C8.48038 25.8946 8.73473 26 8.99995 26H29.9999C30.2652 26 30.5195 25.8946 30.7071 25.7071C30.8946 25.5196 30.9999 25.2652 30.9999 25C30.9999 24.7348 30.8946 24.4804 30.7071 24.2929C30.5195 24.1054 30.2652 24 29.9999 24ZM9.99995 22C8.14404 21.998 6.36472 21.2599 5.05239 19.9476C3.74007 18.6352 3.00193 16.8559 2.99995 15C2.99926 14.1 3.17376 13.2084 3.5137 12.375C2.90197 11.9503 2.44166 11.3415 2.19969 10.6373C1.95771 9.93297 1.94668 9.16985 2.1682 8.45886C2.38972 7.74787 2.83225 7.12607 3.43144 6.68386C4.03063 6.24166 4.75525 6.00209 5.49995 6C5.67002 5.99964 5.83738 6.04266 5.9862 6.125L14.7274 10.9813C15.0993 10.9219 15.4352 10.7249 15.6686 10.4294C15.9019 10.1338 16.0155 9.76131 15.9868 9.38584C15.9582 9.01038 15.7894 8.65943 15.5139 8.40269C15.2384 8.14595 14.8765 8.0022 14.4999 8C14.2347 8 13.9804 7.89465 13.7928 7.70711C13.6053 7.51957 13.4999 7.26522 13.4999 7C13.4999 6.73479 13.6053 6.48043 13.7928 6.2929C13.9804 6.10536 14.2347 6 14.4999 6C15.4282 6 16.3184 6.36875 16.9748 7.02513C17.6312 7.68151 17.9999 8.57174 17.9999 9.5C17.9999 10.4283 17.6312 11.3185 16.9748 11.9749C16.3184 12.6313 15.4282 13 14.4999 13C14.3299 13.0004 14.1625 12.9573 14.0137 12.875L9.0137 10.0988C7.88241 10.3261 6.86457 10.9377 6.13278 11.8299C5.401 12.722 5.00032 13.8399 4.99871 14.9938C4.99709 16.1477 5.39462 17.2666 6.1239 18.1608C6.85318 19.055 7.8693 19.6695 8.99995 19.9V15C8.99995 14.7348 9.1053 14.4804 9.29284 14.2929C9.48038 14.1054 9.73473 14 9.99995 14C10.2652 14 10.5195 14.1054 10.7071 14.2929C10.8946 14.4804 10.9999 14.7348 10.9999 15V19.8988C11.8453 19.7255 12.6315 19.3369 13.2826 18.7706C13.9337 18.2043 14.4275 17.4794 14.7162 16.6663C14.808 16.4207 14.9926 16.221 15.2302 16.1101C15.4679 15.9993 15.7395 15.9863 15.9867 16.0738C16.2338 16.1613 16.4367 16.3424 16.5517 16.5781C16.6666 16.8137 16.6844 17.0851 16.6012 17.3338C16.1171 18.6978 15.2227 19.8786 14.0408 20.714C12.8589 21.5495 11.4473 21.9987 9.99995 22ZM4.5287 10.6425C5.12615 9.89238 5.87053 9.2722 6.7162 8.82L5.27245 8.0175C4.98785 8.06028 4.72157 8.18402 4.50536 8.37396C4.28916 8.56391 4.13216 8.81204 4.0531 9.08876C3.97404 9.36548 3.97625 9.6591 4.05947 9.9346C4.14269 10.2101 4.30341 10.4558 4.52245 10.6425H4.5287Z" fill="#4A4A4F"/>
</svg>
