<svg width="32" height="32" viewBox="0 0 32 32" fill="none" xmlns="http://www.w3.org/2000/svg">
<path d="M30.9999 12V14C30.9999 14.2652 30.8946 14.5196 30.7071 14.7071C30.5195 14.8946 30.2652 15 29.9999 15H19.9999C19.7347 15 19.4804 14.8946 19.2928 14.7071C19.1053 14.5196 18.9999 14.2652 18.9999 14V12C18.9999 11.7348 19.1053 11.4804 19.2928 11.2929C19.4804 11.1054 19.7347 11 19.9999 11H29.9999C30.2652 11 30.5195 11.1054 30.7071 11.2929C30.8946 11.4804 30.9999 11.7348 30.9999 12ZM29.9999 17H19.9999C19.7347 17 19.4804 17.1054 19.2928 17.2929C19.1053 17.4804 18.9999 17.7348 18.9999 18V20C18.9999 20.2652 19.1053 20.5196 19.2928 20.7071C19.4804 20.8946 19.7347 21 19.9999 21H29.9999C30.2652 21 30.5195 20.8946 30.7071 20.7071C30.8946 20.5196 30.9999 20.2652 30.9999 20V18C30.9999 17.7348 30.8946 17.4804 30.7071 17.2929C30.5195 17.1054 30.2652 17 29.9999 17ZM29.9999 23H8.99995C8.73473 23 8.48038 23.1054 8.29284 23.2929C8.1053 23.4804 7.99995 23.7348 7.99995 24V26C7.99995 26.2652 8.1053 26.5196 8.29284 26.7071C8.48038 26.8946 8.73473 27 8.99995 27H29.9999C30.2652 27 30.5195 26.8946 30.7071 26.7071C30.8946 26.5196 30.9999 26.2652 30.9999 26V24C30.9999 23.7348 30.8946 23.4804 30.7071 23.2929C30.5195 23.1054 30.2652 23 29.9999 23ZM9.99995 21C8.14404 20.998 6.36472 20.2599 5.05239 18.9476C3.74007 17.6352 3.00193 15.8559 2.99995 14C2.99926 13.1 3.17376 12.2084 3.5137 11.375C2.90197 10.9503 2.44166 10.3415 2.19969 9.63726C1.95771 8.93297 1.94668 8.16985 2.1682 7.45886C2.38972 6.74787 2.83225 6.12607 3.43144 5.68386C4.03063 5.24166 4.75525 5.00209 5.49995 5C5.67002 4.99964 5.83738 5.04266 5.9862 5.125L14.7274 9.98125C15.0993 9.92194 15.4352 9.72494 15.6686 9.42938C15.9019 9.13381 16.0155 8.76131 15.9868 8.38584C15.9582 8.01038 15.7894 7.65943 15.5139 7.40269C15.2384 7.14595 14.8765 7.0022 14.4999 7C14.2347 7 13.9804 6.89465 13.7928 6.70711C13.6053 6.51957 13.4999 6.26522 13.4999 6C13.4999 5.73479 13.6053 5.48043 13.7928 5.2929C13.9804 5.10536 14.2347 5 14.4999 5C15.4282 5 16.3184 5.36875 16.9748 6.02513C17.6312 6.68151 17.9999 7.57174 17.9999 8.5C17.9999 9.42826 17.6312 10.3185 16.9748 10.9749C16.3184 11.6313 15.4282 12 14.4999 12C14.3299 12.0004 14.1625 11.9573 14.0137 11.875L9.0137 9.09875C7.88241 9.32607 6.86457 9.93768 6.13278 10.8299C5.401 11.722 5.00032 12.8399 4.99871 13.9938C4.99709 15.1477 5.39462 16.2666 6.1239 17.1608C6.85318 18.055 7.8693 18.6695 8.99995 18.9V14C8.99995 13.7348 9.1053 13.4804 9.29284 13.2929C9.48038 13.1054 9.73473 13 9.99995 13C10.2652 13 10.5195 13.1054 10.7071 13.2929C10.8946 13.4804 10.9999 13.7348 10.9999 14V18.8988C11.8453 18.7255 12.6315 18.3369 13.2826 17.7706C13.9337 17.2043 14.4275 16.4794 14.7162 15.6663C14.808 15.4207 14.9926 15.221 15.2302 15.1102C15.4679 14.9993 15.7395 14.9863 15.9867 15.0738C16.2338 15.1613 16.4367 15.3424 16.5517 15.5781C16.6666 15.8137 16.6844 16.0851 16.6012 16.3338C16.1171 17.6978 15.2227 18.8786 14.0408 19.714C12.8589 20.5495 11.4473 20.9987 9.99995 21ZM4.5287 9.6425C5.12615 8.89238 5.87053 8.2722 6.7162 7.82L5.27245 7.0175C4.98785 7.06028 4.72157 7.18402 4.50536 7.37396C4.28916 7.56391 4.13216 7.81204 4.0531 8.08876C3.97404 8.36548 3.97625 8.6591 4.05947 8.9346C4.14269 9.21009 4.30341 9.45583 4.52245 9.6425H4.5287Z" fill="#4A4A4F"/>
</svg>
