<svg width="32" height="32" viewBox="0 0 32 32" fill="none" xmlns="http://www.w3.org/2000/svg">
<path d="M7 18C7 18.2652 6.89464 18.5196 6.70711 18.7071C6.51957 18.8946 6.26522 19 6 19H3C2.73478 19 2.48043 18.8946 2.29289 18.7071C2.10536 18.5196 2 18.2652 2 18C2 17.7348 2.10536 17.4804 2.29289 17.2929C2.48043 17.1054 2.73478 17 3 17H4V9H3C2.73478 9 2.48043 8.89464 2.29289 8.70711C2.10536 8.51957 2 8.26522 2 8C2 7.73478 2.10536 7.48043 2.29289 7.29289C2.48043 7.10536 2.73478 7 3 7H5C5.16929 6.99982 5.33585 7.04262 5.48408 7.12438C5.63231 7.20615 5.75735 7.32421 5.8475 7.4675L10 14.1138L14.1525 7.47C14.2423 7.32625 14.3673 7.20769 14.5155 7.12548C14.6638 7.04326 14.8305 7.00008 15 7H17C17.2652 7 17.5196 7.10536 17.7071 7.29289C17.8946 7.48043 18 7.73478 18 8C18 8.26522 17.8946 8.51957 17.7071 8.70711C17.5196 8.89464 17.2652 9 17 9H16V17H17C17.2652 17 17.5196 17.1054 17.7071 17.2929C17.8946 17.4804 18 17.7348 18 18C18 18.2652 17.8946 18.5196 17.7071 18.7071C17.5196 18.8946 17.2652 19 17 19H14C13.7348 19 13.4804 18.8946 13.2929 18.7071C13.1054 18.5196 13 18.2652 13 18C13 17.7348 13.1054 17.4804 13.2929 17.2929C13.4804 17.1054 13.7348 17 14 17V11.4863L10.8475 16.53C10.7576 16.6736 10.6326 16.792 10.4844 16.8741C10.3361 16.9561 10.1694 16.9992 10 16.9992C9.83055 16.9992 9.66389 16.9561 9.51564 16.8741C9.3674 16.792 9.24244 16.6736 9.1525 16.53L6 11.4863V17C6.26522 17 6.51957 17.1054 6.70711 17.2929C6.89464 17.4804 7 17.7348 7 18ZM30 15H21C20.7348 15 20.4804 15.1054 20.2929 15.2929C20.1054 15.4804 20 15.7348 20 16V18C20 18.2652 20.1054 18.5196 20.2929 18.7071C20.4804 18.8946 20.7348 19 21 19H30C30.2652 19 30.5196 18.8946 30.7071 18.7071C30.8946 18.5196 31 18.2652 31 18V16C31 15.7348 30.8946 15.4804 30.7071 15.2929C30.5196 15.1054 30.2652 15 30 15ZM30 21H9C8.73478 21 8.48043 21.1054 8.29289 21.2929C8.10536 21.4804 8 21.7348 8 22V24C8 24.2652 8.10536 24.5196 8.29289 24.7071C8.48043 24.8946 8.73478 25 9 25H30C30.2652 25 30.5196 24.8946 30.7071 24.7071C30.8946 24.5196 31 24.2652 31 24V22C31 21.7348 30.8946 21.4804 30.7071 21.2929C30.5196 21.1054 30.2652 21 30 21ZM30 9H21C20.7348 9 20.4804 9.10536 20.2929 9.29289C20.1054 9.48043 20 9.73478 20 10V12C20 12.2652 20.1054 12.5196 20.2929 12.7071C20.4804 12.8946 20.7348 13 21 13H30C30.2652 13 30.5196 12.8946 30.7071 12.7071C30.8946 12.5196 31 12.2652 31 12V10C31 9.73478 30.8946 9.48043 30.7071 9.29289C30.5196 9.10536 30.2652 9 30 9Z" fill="#4A4A4F"/>
</svg>
