<svg width="32" height="32" viewBox="0 0 32 32" fill="none" xmlns="http://www.w3.org/2000/svg">
<path d="M26.8577 22.515C26.79 22.628 26.7008 22.7265 26.595 22.8049C26.4893 22.8833 26.369 22.94 26.2413 22.9718C26.1135 23.0036 25.9808 23.0099 25.8506 22.9903C25.7204 22.9707 25.5954 22.9256 25.4827 22.8575L17.0002 17.7663V27C17.0002 27.2652 16.8948 27.5196 16.7073 27.7071C16.5197 27.8946 16.2654 28 16.0002 28C15.7349 28 15.4806 27.8946 15.293 27.7071C15.1055 27.5196 15.0002 27.2652 15.0002 27V17.7663L6.51515 22.8575C6.4025 22.9267 6.27724 22.9729 6.14663 22.9934C6.01601 23.0139 5.88263 23.0082 5.7542 22.9768C5.62577 22.9454 5.50484 22.8889 5.39841 22.8104C5.29198 22.732 5.20216 22.6332 5.13415 22.5198C5.06614 22.4065 5.02129 22.2807 5.00219 22.1499C4.98309 22.0191 4.99012 21.8858 5.02288 21.7577C5.05564 21.6296 5.11347 21.5093 5.19304 21.4037C5.2726 21.2981 5.37231 21.2093 5.4864 21.1425L14.0564 16L5.4864 10.8575C5.37231 10.7907 5.2726 10.7019 5.19304 10.5963C5.11347 10.4907 5.05564 10.3704 5.02288 10.2423C4.99012 10.1142 4.98309 9.98092 5.00219 9.85009C5.02129 9.71927 5.06614 9.59353 5.13415 9.48015C5.20216 9.36677 5.29198 9.268 5.39841 9.18956C5.50484 9.11112 5.62577 9.05457 5.7542 9.02317C5.88263 8.99177 6.01601 8.98614 6.14663 9.00663C6.27724 9.02711 6.4025 9.07329 6.51515 9.1425L15.0002 14.2338V5C15.0002 4.73478 15.1055 4.48043 15.293 4.29289C15.4806 4.10536 15.7349 4 16.0002 4C16.2654 4 16.5197 4.10536 16.7073 4.29289C16.8948 4.48043 17.0002 4.73478 17.0002 5V14.2338L25.4852 9.1425C25.5978 9.07329 25.7231 9.02711 25.8537 9.00663C25.9843 8.98614 26.1177 8.99177 26.2461 9.02317C26.3745 9.05457 26.4955 9.11112 26.6019 9.18956C26.7083 9.268 26.7981 9.36677 26.8662 9.48015C26.9342 9.59353 26.979 9.71927 26.9981 9.85009C27.0172 9.98092 27.0102 10.1142 26.9774 10.2423C26.9447 10.3704 26.8868 10.4907 26.8073 10.5963C26.7277 10.7019 26.628 10.7907 26.5139 10.8575L17.9439 16L26.5139 21.1425C26.6266 21.21 26.725 21.2991 26.8033 21.4046C26.8816 21.5101 26.9383 21.63 26.9702 21.7575C27.0022 21.885 27.0086 22.0175 26.9893 22.1475C26.97 22.2774 26.9253 22.4023 26.8577 22.515Z" fill="#4A4A4F"/>
</svg>
