<svg width="32" height="32" viewBox="0 0 32 32" fill="none" xmlns="http://www.w3.org/2000/svg">
<path d="M16 3C13.4288 3 10.9154 3.76244 8.77759 5.1909C6.63975 6.61935 4.97351 8.64968 3.98957 11.0251C3.00563 13.4006 2.74819 16.0144 3.2498 18.5362C3.75141 21.0579 4.98953 23.3743 6.80762 25.1924C8.6257 27.0105 10.9421 28.2486 13.4638 28.7502C15.9856 29.2518 18.5995 28.9944 20.9749 28.0104C23.3503 27.0265 25.3807 25.3603 26.8091 23.2224C28.2376 21.0846 29 18.5712 29 16C28.9964 12.5533 27.6256 9.24882 25.1884 6.81163C22.7512 4.37445 19.4467 3.00364 16 3ZM24.015 19.6425C24.2424 19.7791 24.4063 20.0004 24.4705 20.2578C24.5347 20.5152 24.4941 20.7876 24.3575 21.015C24.2209 21.2424 23.9996 21.4063 23.7422 21.4705C23.4848 21.5347 23.2124 21.4941 22.985 21.3575L17 17.7663V24.25C17 24.5152 16.8946 24.7696 16.7071 24.9571C16.5196 25.1446 16.2652 25.25 16 25.25C15.7348 25.25 15.4804 25.1446 15.2929 24.9571C15.1054 24.7696 15 24.5152 15 24.25V17.7663L9.01501 21.3575C8.78758 21.4941 8.51522 21.5347 8.25782 21.4705C8.00043 21.4063 7.77909 21.2424 7.64251 21.015C7.50592 20.7876 7.46527 20.5152 7.5295 20.2578C7.59373 20.0004 7.75758 19.7791 7.98501 19.6425L14.0563 16L7.98501 12.3575C7.75758 12.2209 7.59373 11.9996 7.5295 11.7422C7.46527 11.4848 7.50592 11.2124 7.64251 10.985C7.77909 10.7576 8.00043 10.5937 8.25782 10.5295C8.51522 10.4653 8.78758 10.5059 9.01501 10.6425L15 14.2338V7.75C15 7.48478 15.1054 7.23043 15.2929 7.04289C15.4804 6.85536 15.7348 6.75 16 6.75C16.2652 6.75 16.5196 6.85536 16.7071 7.04289C16.8946 7.23043 17 7.48478 17 7.75V14.2338L22.985 10.6425C23.0976 10.5749 23.2224 10.5301 23.3524 10.5107C23.4823 10.4913 23.6147 10.4977 23.7422 10.5295C23.8696 10.5613 23.9896 10.6179 24.0951 10.6961C24.2007 10.7742 24.2899 10.8724 24.3575 10.985C24.4251 11.0976 24.4699 11.2224 24.4893 11.3524C24.5087 11.4823 24.5023 11.6147 24.4705 11.7422C24.4387 11.8696 24.3821 11.9896 24.304 12.0951C24.2258 12.2007 24.1276 12.2899 24.015 12.3575L17.9438 16L24.015 19.6425Z" fill="#4A4A4F"/>
</svg>
