<svg width="32" height="32" viewBox="0 0 32 32" fill="none" xmlns="http://www.w3.org/2000/svg">
<path d="M16 3C13.4288 3 10.9154 3.76244 8.77759 5.1909C6.63975 6.61935 4.97351 8.64968 3.98957 11.0251C3.00563 13.4006 2.74819 16.0144 3.2498 18.5362C3.75141 21.0579 4.98953 23.3743 6.80762 25.1924C8.6257 27.0105 10.9421 28.2486 13.4638 28.7502C15.9856 29.2518 18.5995 28.9944 20.9749 28.0104C23.3503 27.0265 25.3807 25.3603 26.8091 23.2224C28.2376 21.0846 29 18.5712 29 16C28.9964 12.5533 27.6256 9.24882 25.1884 6.81163C22.7512 4.37445 19.4467 3.00364 16 3ZM23.3938 13.9187L17.625 16.39L21.7663 21.36C21.936 21.5639 22.0178 21.8268 21.9936 22.091C21.9695 22.3552 21.8414 22.599 21.6375 22.7687C21.4336 22.9385 21.1707 23.0203 20.9065 22.9961C20.6423 22.972 20.3985 22.8439 20.2288 22.64L16 17.5625L11.7688 22.64C11.599 22.8439 11.3552 22.972 11.091 22.9961C10.8269 23.0203 10.5639 22.9385 10.36 22.7687C10.1561 22.599 10.028 22.3552 10.0039 22.091C9.97972 21.8268 10.0615 21.5639 10.2313 21.36L14.375 16.39L8.60626 13.9187C8.48179 13.8697 8.36844 13.7961 8.27291 13.7025C8.17739 13.6088 8.10163 13.4969 8.05013 13.3734C7.99862 13.2499 7.97242 13.1174 7.97307 12.9836C7.97372 12.8498 8.00121 12.7175 8.05392 12.5945C8.10662 12.4716 8.18346 12.3604 8.27989 12.2677C8.37633 12.1749 8.49039 12.1025 8.61532 12.0546C8.74026 12.0068 8.87353 11.9845 9.00724 11.989C9.14095 11.9936 9.27238 12.025 9.39376 12.0813L15 14.4838V8.75C15 8.48478 15.1054 8.23043 15.2929 8.04289C15.4804 7.85536 15.7348 7.75 16 7.75C16.2652 7.75 16.5196 7.85536 16.7071 8.04289C16.8946 8.23043 17 8.48478 17 8.75V14.4838L22.6063 12.0813C22.7276 12.025 22.8591 11.9936 22.9928 11.989C23.1265 11.9845 23.2598 12.0068 23.3847 12.0546C23.5096 12.1025 23.6237 12.1749 23.7201 12.2677C23.8166 12.3604 23.8934 12.4716 23.9461 12.5945C23.9988 12.7175 24.0263 12.8498 24.0269 12.9836C24.0276 13.1174 24.0014 13.2499 23.9499 13.3734C23.8984 13.4969 23.8226 13.6088 23.7271 13.7025C23.6316 13.7961 23.5182 13.8697 23.3938 13.9187Z" fill="#4A4A4F"/>
</svg>
