<svg width="32" height="32" viewBox="0 0 32 32" fill="none" xmlns="http://www.w3.org/2000/svg">
<path d="M29 15.9999C29 16.0637 29 16.1249 29 16.1899C28.9575 17.9724 28.2962 19.9999 25.5 19.9999C22.6075 19.9999 22 17.8249 22 15.9999V10.9999C22.0003 10.8629 21.9724 10.7272 21.9181 10.6013C21.8637 10.4755 21.7841 10.3621 21.6841 10.2683C21.5841 10.1746 21.4659 10.1023 21.3368 10.0562C21.2077 10.01 21.0705 9.99086 20.9338 9.99995C20.6762 10.0221 20.4366 10.1411 20.2633 10.3329C20.09 10.5248 19.9959 10.7752 20 11.0337V11.5337C19.0972 10.7246 17.9706 10.2079 16.7684 10.0518C15.5663 9.89561 14.345 10.1073 13.2655 10.6588C12.186 11.2104 11.2989 12.0761 10.721 13.1418C10.1431 14.2074 9.90165 15.4232 10.0283 16.6288C10.155 17.8344 10.6439 18.9734 11.4307 19.8957C12.2174 20.818 13.2651 21.4803 14.4356 21.7955C15.6062 22.1106 16.8448 22.0638 17.9883 21.6612C19.1317 21.2586 20.1264 20.519 20.8412 19.5399C20.9662 19.7586 21.1075 19.9675 21.2638 20.1649C21.935 20.9999 23.2137 21.9999 25.5 21.9999C25.8861 22.0012 26.2717 21.9699 26.6525 21.9062C26.7467 21.8905 26.8433 21.9021 26.9311 21.9396C27.0189 21.9771 27.0941 22.0389 27.1479 22.1178C27.2016 22.1966 27.2317 22.2892 27.2345 22.3847C27.2373 22.4801 27.2128 22.5743 27.1637 22.6562C25.9885 24.6276 24.3124 26.253 22.3058 27.3671C20.2992 28.4813 18.0335 29.0446 15.7388 28.9999C8.89125 28.8624 3.275 23.3574 3.01 16.5137C2.94222 14.7866 3.21954 13.0632 3.82575 11.4446C4.43196 9.82587 5.35488 8.34433 6.54052 7.0866C7.72616 5.82888 9.15072 4.82022 10.7308 4.11963C12.311 3.41905 14.0149 3.04061 15.7431 3.00645C17.4712 2.97229 19.1888 3.28309 20.7954 3.92068C22.402 4.55828 23.8653 5.50985 25.0997 6.71974C26.3341 7.92963 27.3149 9.37354 27.9846 10.967C28.6543 12.5605 28.9995 14.2715 29 15.9999ZM12 15.9999C12 16.7911 12.2346 17.5644 12.6741 18.2222C13.1136 18.88 13.7384 19.3927 14.4693 19.6955C15.2002 19.9982 16.0044 20.0774 16.7804 19.9231C17.5563 19.7687 18.269 19.3878 18.8284 18.8284C19.3878 18.269 19.7688 17.5562 19.9231 16.7803C20.0775 16.0044 19.9983 15.2001 19.6955 14.4692C19.3928 13.7383 18.8801 13.1136 18.2223 12.6741C17.5645 12.2345 16.7911 11.9999 16 11.9999C14.9391 11.9999 13.9217 12.4214 13.1716 13.1715C12.4214 13.9217 12 14.9391 12 15.9999Z" fill="#4A4A4F"/>
</svg>
