<svg width="32" height="32" viewBox="0 0 32 32" fill="none" xmlns="http://www.w3.org/2000/svg">
<path d="M16 3C12.5522 3 9.24558 4.36964 6.80761 6.80761C4.36964 9.24558 3 12.5522 3 16C3 19.4478 4.36964 22.7544 6.80761 25.1924C9.24558 27.6304 12.5522 29 16 29C18.6888 29 21.5125 28.19 23.5537 26.8337C23.6632 26.761 23.7572 26.6675 23.8304 26.5584C23.9037 26.4494 23.9547 26.327 23.9807 26.1982C24.0066 26.0694 24.0069 25.9368 23.9816 25.8078C23.9563 25.6789 23.9058 25.5563 23.8331 25.4469C23.7604 25.3375 23.6668 25.2435 23.5578 25.1702C23.4487 25.097 23.3263 25.0459 23.1975 25.02C23.0688 24.994 22.9361 24.9937 22.8072 25.019C22.6783 25.0443 22.5557 25.0948 22.4463 25.1675C20.75 26.2975 18.2762 27 16 27C13.8244 27 11.6977 26.3549 9.88873 25.1462C8.07979 23.9375 6.66989 22.2195 5.83733 20.2095C5.00476 18.1995 4.78692 15.9878 5.21136 13.854C5.6358 11.7202 6.68345 9.7602 8.22183 8.22183C9.7602 6.68345 11.7202 5.6358 13.854 5.21136C15.9878 4.78692 18.1995 5.00476 20.2095 5.83733C22.2195 6.66989 23.9375 8.07979 25.1462 9.88873C26.3549 11.6977 27 13.8244 27 16C27 19.3062 25.64 20 24.5 20C23.36 20 22 19.3062 22 16V11C22 10.7348 21.8946 10.4804 21.7071 10.2929C21.5196 10.1054 21.2652 10 21 10C20.7348 10 20.4804 10.1054 20.2929 10.2929C20.1054 10.4804 20 10.7348 20 11V11.5325C19.1026 10.7279 17.9837 10.2122 16.789 10.0527C15.5944 9.89311 14.3793 10.097 13.3022 10.6379C12.2251 11.1788 11.3359 12.0315 10.7503 13.0849C10.1648 14.1384 9.91007 15.3438 10.0194 16.5441C10.1287 17.7445 10.597 18.884 11.3633 19.8144C12.1295 20.7447 13.1582 21.4227 14.3153 21.7601C15.4724 22.0974 16.7043 22.0784 17.8505 21.7056C18.9967 21.3328 20.004 20.6235 20.7412 19.67C21.4912 21.17 22.785 22 24.5 22C27.3175 22 29 19.7575 29 16C28.9964 12.5533 27.6256 9.24882 25.1884 6.81163C22.7512 4.37445 19.4467 3.00364 16 3ZM16 20C15.2089 20 14.4355 19.7654 13.7777 19.3259C13.1199 18.8864 12.6072 18.2616 12.3045 17.5307C12.0017 16.7998 11.9225 15.9956 12.0769 15.2196C12.2312 14.4437 12.6122 13.731 13.1716 13.1716C13.731 12.6122 14.4437 12.2312 15.2196 12.0769C15.9956 11.9225 16.7998 12.0017 17.5307 12.3045C18.2616 12.6072 18.8864 13.1199 19.3259 13.7777C19.7654 14.4355 20 15.2089 20 16C20 17.0609 19.5786 18.0783 18.8284 18.8284C18.0783 19.5786 17.0609 20 16 20Z" fill="#4A4A4F"/>
</svg>
