<svg width="32" height="32" viewBox="0 0 32 32" fill="none" xmlns="http://www.w3.org/2000/svg">
<path d="M24.5151 15.9998C27.5963 11.6736 29.1676 7.20231 26.9826 5.01732C24.7976 2.83232 20.3263 4.40357 16.0001 7.48482C11.6738 4.40357 7.20256 2.83232 5.01756 5.01732C2.83256 7.20231 4.40381 11.6736 7.48506 15.9998C4.40381 20.3261 2.83256 24.7973 5.01756 26.9823C5.72131 27.6861 6.66131 27.9998 7.75631 27.9998C10.0663 27.9998 13.0663 26.6036 16.0063 24.5148C18.9338 26.6036 21.9338 27.9998 24.2501 27.9998C25.3451 27.9998 26.2863 27.6848 26.9888 26.9823C29.1676 24.7973 27.5963 20.3261 24.5151 15.9998ZM25.5688 6.43107C26.5238 7.38607 25.8788 10.4811 23.2538 14.3411C22.4234 13.313 21.5392 12.3296 20.6051 11.3948C19.6702 10.4619 18.6867 9.57904 17.6588 8.74981C21.5188 6.12481 24.6138 5.47482 25.5688 6.43107ZM22.0363 15.9998C21.1518 17.1188 20.2018 18.1844 19.1913 19.1911C18.1846 20.2015 17.119 21.1515 16.0001 22.0361C14.8811 21.1515 13.8155 20.2015 12.8088 19.1911C11.7983 18.1844 10.8483 17.1188 9.96381 15.9998C11.7384 13.7635 13.7638 11.7382 16.0001 9.96356C17.119 10.8481 18.1846 11.7981 19.1913 12.8086C20.2018 13.8152 21.1518 14.8809 22.0363 15.9998ZM6.43131 6.43107C6.70631 6.15482 7.16006 6.01231 7.75881 6.01231C9.23631 6.01231 11.5951 6.87481 14.3401 8.74981C13.3131 9.57972 12.3301 10.4626 11.3951 11.3948C10.4622 12.3297 9.57929 13.3131 8.75006 14.3411C6.12506 10.4811 5.47631 7.38607 6.43131 6.43107ZM6.43131 25.5686C5.47631 24.6136 6.12506 21.5186 8.75006 17.6586C9.5805 18.6866 10.4647 19.67 11.3988 20.6048C12.3331 21.537 13.3152 22.4198 14.3413 23.2498C10.4813 25.8748 7.38631 26.5248 6.43131 25.5686ZM25.5688 25.5686C24.6138 26.5248 21.5188 25.8786 17.6588 23.2536C18.6863 22.4224 19.6697 21.5383 20.6051 20.6048C21.5379 19.6699 22.4208 18.6865 23.2501 17.6586C25.8751 21.5186 26.5238 24.6136 25.5688 25.5686ZM17.5001 15.9998C17.5001 16.2965 17.4121 16.5865 17.2473 16.8332C17.0824 17.0798 16.8482 17.2721 16.5741 17.3856C16.3 17.4992 15.9984 17.5289 15.7074 17.471C15.4165 17.4131 15.1492 17.2703 14.9394 17.0605C14.7296 16.8507 14.5868 16.5834 14.5289 16.2924C14.471 16.0015 14.5007 15.6999 14.6142 15.4258C14.7278 15.1517 14.92 14.9174 15.1667 14.7526C15.4134 14.5878 15.7034 14.4998 16.0001 14.4998C16.3979 14.4998 16.7794 14.6579 17.0607 14.9392C17.342 15.2205 17.5001 15.602 17.5001 15.9998Z" fill="#4A4A4F"/>
</svg>
