<svg width="32" height="32" viewBox="0 0 32 32" fill="none" xmlns="http://www.w3.org/2000/svg">
<path d="M24.5151 15.9998C27.5963 11.6736 29.1676 7.20231 26.9826 5.01732C24.7976 2.83232 20.3263 4.40357 16.0001 7.48482C11.6738 4.40357 7.20256 2.83232 5.01756 5.01732C2.83256 7.20231 4.40381 11.6736 7.48506 15.9998C4.40381 20.3261 2.83256 24.7973 5.01756 26.9823C5.72131 27.6861 6.66131 27.9998 7.75631 27.9998C10.0651 27.9998 13.0663 26.6036 16.0063 24.5148C18.9338 26.6036 21.9338 27.9998 24.2501 27.9998C25.3451 27.9998 26.2863 27.6848 26.9888 26.9823C29.1676 24.7973 27.5963 20.3261 24.5151 15.9998ZM25.5688 6.43107C26.5238 7.38607 25.8788 10.4811 23.2538 14.3411C22.4234 13.313 21.5392 12.3296 20.6051 11.3948C19.6698 10.4623 18.6864 9.57942 17.6588 8.74981C21.5188 6.12481 24.6138 5.47607 25.5688 6.43107ZM6.43131 6.43107C6.70631 6.15482 7.16006 6.01231 7.75881 6.01231C9.23631 6.01231 11.5951 6.87481 14.3401 8.74981C13.3131 9.57972 12.3301 10.4626 11.3951 11.3948C10.4622 12.3297 9.57929 13.3131 8.75006 14.3411C6.12506 10.4811 5.47631 7.38607 6.43131 6.43107ZM6.43131 25.5686C5.47631 24.6136 6.12506 21.5186 8.75006 17.6586C9.5805 18.6866 10.4647 19.67 11.3988 20.6048C12.3331 21.537 13.3152 22.4198 14.3413 23.2498C10.4813 25.8748 7.38631 26.5236 6.43131 25.5686ZM16.0001 17.4998C15.7034 17.4998 15.4134 17.4118 15.1667 17.247C14.92 17.0822 14.7278 16.8479 14.6142 16.5738C14.5007 16.2998 14.471 15.9982 14.5289 15.7072C14.5868 15.4162 14.7296 15.1489 14.9394 14.9392C15.1492 14.7294 15.4165 14.5865 15.7074 14.5286C15.9984 14.4708 16.3 14.5005 16.5741 14.614C16.8482 14.7275 17.0824 14.9198 17.2473 15.1665C17.4121 15.4131 17.5001 15.7031 17.5001 15.9998C17.5001 16.3976 17.342 16.7792 17.0607 17.0605C16.7794 17.3418 16.3979 17.4998 16.0001 17.4998ZM25.5688 25.5698C24.6138 26.5261 21.5188 25.8798 17.6588 23.2548C18.6863 22.4237 19.6697 21.5396 20.6051 20.6061C21.538 19.6708 22.4209 18.6869 23.2501 17.6586C25.8751 21.5186 26.5238 24.6136 25.5688 25.5686V25.5698Z" fill="#4A4A4F"/>
</svg>
