<svg width="32" height="32" viewBox="0 0 32 32" fill="none" xmlns="http://www.w3.org/2000/svg">
<path d="M27.0001 5H8.56632C8.22121 5.00148 7.88226 5.09156 7.58196 5.26163C7.28166 5.4317 7.03008 5.67604 6.85132 5.97125L1.14257 15.485C1.04912 15.6405 0.999756 15.8186 0.999756 16C0.999756 16.1814 1.04912 16.3595 1.14257 16.515L6.85132 26.0287C7.02999 26.324 7.28155 26.5685 7.58187 26.7385C7.88219 26.9086 8.22118 26.9986 8.56632 27H27.0001C27.5305 27 28.0392 26.7893 28.4143 26.4142C28.7894 26.0391 29.0001 25.5304 29.0001 25V7C29.0001 6.46957 28.7894 5.96086 28.4143 5.58579C28.0392 5.21071 27.5305 5 27.0001 5ZM20.7076 18.2925C20.8005 18.3854 20.8742 18.4957 20.9245 18.6171C20.9747 18.7385 21.0006 18.8686 21.0006 19C21.0006 19.1314 20.9747 19.2615 20.9245 19.3829C20.8742 19.5043 20.8005 19.6146 20.7076 19.7075C20.6147 19.8004 20.5044 19.8741 20.383 19.9244C20.2616 19.9747 20.1315 20.0006 20.0001 20.0006C19.8687 20.0006 19.7386 19.9747 19.6172 19.9244C19.4958 19.8741 19.3855 19.8004 19.2926 19.7075L17.0001 17.4137L14.7063 19.7075C14.5187 19.895 14.2642 20.0002 13.999 20.0001C13.7338 20 13.4794 19.8945 13.2919 19.7069C13.1045 19.5192 12.9992 19.2648 12.9993 18.9996C12.9994 18.7343 13.1049 18.48 13.2926 18.2925L15.5863 16L13.2926 13.7075C13.1049 13.52 12.9994 13.2657 12.9993 13.0004C12.9993 12.8691 13.0251 12.739 13.0753 12.6177C13.1255 12.4963 13.1991 12.386 13.2919 12.2931C13.3848 12.2002 13.495 12.1265 13.6163 12.0762C13.7376 12.0259 13.8677 11.9999 13.999 11.9999C14.2642 11.9998 14.5187 12.105 14.7063 12.2925L17.0001 14.5863L19.2926 12.2925C19.3855 12.1996 19.4958 12.1259 19.6172 12.0756C19.7386 12.0253 19.8687 11.9994 20.0001 11.9994C20.1315 11.9994 20.2616 12.0253 20.383 12.0756C20.5044 12.1259 20.6147 12.1996 20.7076 12.2925C20.8005 12.3854 20.8742 12.4957 20.9245 12.6171C20.9747 12.7385 21.0006 12.8686 21.0006 13C21.0006 13.1314 20.9747 13.2615 20.9245 13.3829C20.8742 13.5043 20.8005 13.6146 20.7076 13.7075L18.4138 16L20.7076 18.2925Z" fill="#4A4A4F"/>
</svg>
