<svg width="32" height="32" viewBox="0 0 32 32" fill="none" xmlns="http://www.w3.org/2000/svg">
<path d="M27.0001 5H8.56632C8.22111 5.00099 7.88198 5.09088 7.5816 5.26099C7.28122 5.43111 7.02971 5.67571 6.85132 5.97125L1.14257 15.485C1.04912 15.6405 0.999756 15.8186 0.999756 16C0.999756 16.1814 1.04912 16.3595 1.14257 16.515L6.85132 26.0287C7.02971 26.3243 7.28122 26.5689 7.5816 26.739C7.88198 26.9091 8.22111 26.999 8.56632 27H27.0001C27.5305 27 28.0392 26.7893 28.4143 26.4142C28.7894 26.0391 29.0001 25.5304 29.0001 25V7C29.0001 6.46957 28.7894 5.96086 28.4143 5.58579C28.0392 5.21071 27.5305 5 27.0001 5ZM27.0001 25H8.56632L3.16632 16L8.56632 7H27.0001V25ZM13.2926 18.2925L15.5863 16L13.2926 13.7075C13.1049 13.5199 12.9995 13.2654 12.9995 13C12.9995 12.7346 13.1049 12.4801 13.2926 12.2925C13.4802 12.1049 13.7347 11.9994 14.0001 11.9994C14.2654 11.9994 14.5199 12.1049 14.7076 12.2925L17.0001 14.5863L19.2926 12.2925C19.3855 12.1996 19.4958 12.1259 19.6172 12.0756C19.7386 12.0253 19.8687 11.9994 20.0001 11.9994C20.1315 11.9994 20.2616 12.0253 20.383 12.0756C20.5044 12.1259 20.6147 12.1996 20.7076 12.2925C20.8005 12.3854 20.8742 12.4957 20.9245 12.6171C20.9747 12.7385 21.0006 12.8686 21.0006 13C21.0006 13.1314 20.9747 13.2615 20.9245 13.3829C20.8742 13.5043 20.8005 13.6146 20.7076 13.7075L18.4138 16L20.7076 18.2925C20.8005 18.3854 20.8742 18.4957 20.9245 18.6171C20.9747 18.7385 21.0006 18.8686 21.0006 19C21.0006 19.1314 20.9747 19.2615 20.9245 19.3829C20.8742 19.5043 20.8005 19.6146 20.7076 19.7075C20.6147 19.8004 20.5044 19.8741 20.383 19.9244C20.2616 19.9747 20.1315 20.0006 20.0001 20.0006C19.8687 20.0006 19.7386 19.9747 19.6172 19.9244C19.4958 19.8741 19.3855 19.8004 19.2926 19.7075L17.0001 17.4137L14.7076 19.7075C14.6147 19.8004 14.5044 19.8741 14.383 19.9244C14.2616 19.9747 14.1315 20.0006 14.0001 20.0006C13.8687 20.0006 13.7386 19.9747 13.6172 19.9244C13.4958 19.8741 13.3855 19.8004 13.2926 19.7075C13.1997 19.6146 13.126 19.5043 13.0757 19.3829C13.0254 19.2615 12.9995 19.1314 12.9995 19C12.9995 18.8686 13.0254 18.7385 13.0757 18.6171C13.126 18.4957 13.1997 18.3854 13.2926 18.2925Z" fill="#4A4A4F"/>
</svg>
