<svg width="32" height="32" viewBox="0 0 32 32" fill="none" xmlns="http://www.w3.org/2000/svg">
<path d="M16 2C13.0836 2.00331 10.2877 3.1633 8.22548 5.22548C6.1633 7.28766 5.00331 10.0836 5 13C5 15.9288 6.175 19.1775 8.14125 21.6875C9.65125 23.6138 11.4538 24.9375 13.38 25.5737L12.0813 28.6063C12.0161 28.7583 11.9897 28.9242 12.0044 29.0889C12.0191 29.2537 12.0745 29.4123 12.1655 29.5504C12.2566 29.6885 12.3805 29.8019 12.5261 29.8803C12.6717 29.9588 12.8346 29.9999 13 30H19C19.1654 29.9999 19.3283 29.9588 19.4739 29.8803C19.6195 29.8019 19.7434 29.6885 19.8345 29.5504C19.9255 29.4123 19.9809 29.2537 19.9956 29.0889C20.0103 28.9242 19.9839 28.7583 19.9188 28.6063L18.625 25.5737C20.55 24.94 22.3538 23.6138 23.8638 21.6875C25.825 19.1775 27 15.9288 27 13C26.9967 10.0836 25.8367 7.28766 23.7745 5.22548C21.7123 3.1633 18.9164 2.00331 16 2ZM22.165 12.9862C22.1104 12.9951 22.0553 12.9997 22 13C21.7636 12.9997 21.535 12.9157 21.3547 12.7628C21.1743 12.6099 21.054 12.3981 21.015 12.165C20.8301 11.1244 20.3302 10.1657 19.5829 9.41835C18.8356 8.67103 17.8768 8.17114 16.8363 7.98625C16.7058 7.96566 16.5806 7.91942 16.4681 7.8502C16.3556 7.78099 16.2579 7.69016 16.1807 7.58297C16.1035 7.47579 16.0483 7.35436 16.0183 7.22572C15.9883 7.09707 15.984 6.96375 16.0058 6.83346C16.0276 6.70317 16.075 6.57849 16.1453 6.46662C16.2155 6.35475 16.3073 6.25791 16.4151 6.1817C16.523 6.10548 16.645 6.05139 16.7739 6.02257C16.9028 5.99374 17.0362 5.99075 17.1663 6.01375C18.616 6.27099 19.9517 6.96725 20.9929 8.00838C22.034 9.04951 22.7303 10.3853 22.9875 11.835C23.0091 11.9646 23.005 12.0972 22.9754 12.2252C22.9458 12.3532 22.8912 12.4742 22.8148 12.5811C22.7385 12.688 22.6417 12.7788 22.5302 12.8483C22.4187 12.9179 22.2946 12.9647 22.165 12.9862Z" fill="#4A4A4F"/>
</svg>
