<svg width="32" height="32" viewBox="0 0 32 32" fill="none" xmlns="http://www.w3.org/2000/svg">
<path d="M23.0712 15.9999L26.5349 12.5349C27.0125 12.0737 27.3934 11.522 27.6554 10.9119C27.9175 10.3019 28.0554 9.64582 28.0612 8.98192C28.0669 8.31803 27.9404 7.65963 27.689 7.04515C27.4376 6.43067 27.0664 5.87241 26.5969 5.40294C26.1274 4.93348 25.5692 4.56221 24.9547 4.31081C24.3402 4.0594 23.6818 3.9329 23.0179 3.93867C22.354 3.94443 21.6979 4.08237 21.0879 4.34441C20.4779 4.60646 19.9262 4.98737 19.4649 5.46492L15.9999 8.92867L12.5349 5.46492C12.0737 4.98737 11.522 4.60646 10.9119 4.34441C10.3019 4.08237 9.64582 3.94443 8.98192 3.93867C8.31803 3.9329 7.65963 4.0594 7.04515 4.31081C6.43067 4.56221 5.87241 4.93348 5.40294 5.40294C4.93348 5.87241 4.56221 6.43067 4.31081 7.04515C4.0594 7.65963 3.9329 8.31803 3.93867 8.98192C3.94443 9.64582 4.08237 10.3019 4.34441 10.9119C4.60646 11.522 4.98737 12.0737 5.46492 12.5349L8.92867 15.9999L5.46492 19.4649C4.98737 19.9262 4.60646 20.4779 4.34441 21.0879C4.08237 21.6979 3.94443 22.354 3.93867 23.0179C3.9329 23.6818 4.0594 24.3402 4.31081 24.9547C4.56221 25.5692 4.93348 26.1274 5.40294 26.5969C5.87241 27.0664 6.43067 27.4376 7.04515 27.689C7.65963 27.9404 8.31803 28.0669 8.98192 28.0612C9.64582 28.0554 10.3019 27.9175 10.9119 27.6554C11.522 27.3934 12.0737 27.0125 12.5349 26.5349L15.9999 23.0712L19.4649 26.5349C19.9262 27.0125 20.4779 27.3934 21.0879 27.6554C21.6979 27.9175 22.354 28.0554 23.0179 28.0612C23.6818 28.0669 24.3402 27.9404 24.9547 27.689C25.5692 27.4376 26.1274 27.0664 26.5969 26.5969C27.0664 26.1274 27.4376 25.5692 27.689 24.9547C27.9404 24.3402 28.0669 23.6818 28.0612 23.0179C28.0554 22.354 27.9175 21.6979 27.6554 21.0879C27.3934 20.4779 27.0125 19.9262 26.5349 19.4649L23.0712 15.9999ZM20.8749 6.87492C21.154 6.59586 21.4853 6.3745 21.8499 6.22347C22.2145 6.07245 22.6053 5.99471 22.9999 5.99471C23.3946 5.99471 23.7854 6.07245 24.15 6.22347C24.5146 6.3745 24.8459 6.59586 25.1249 6.87492C25.404 7.15398 25.6253 7.48527 25.7764 7.84988C25.9274 8.21448 26.0051 8.60527 26.0051 8.99992C26.0051 9.39457 25.9274 9.78535 25.7764 10.15C25.6253 10.5146 25.404 10.8459 25.1249 11.1249L21.6599 14.5899L17.4137 10.3437L20.8749 6.87492ZM20.2387 15.9999L15.9999 20.2424L11.7574 15.9999L15.9999 11.7574L20.2387 15.9999ZM6.87492 11.1249C6.59586 10.8459 6.3745 10.5146 6.22347 10.15C6.07245 9.78535 5.99471 9.39457 5.99471 8.99992C5.99471 8.60527 6.07245 8.21448 6.22347 7.84988C6.3745 7.48527 6.59586 7.15398 6.87492 6.87492C7.15398 6.59586 7.48527 6.3745 7.84988 6.22347C8.21448 6.07245 8.60527 5.99471 8.99992 5.99471C9.39457 5.99471 9.78535 6.07245 10.15 6.22347C10.5146 6.3745 10.8459 6.59586 11.1249 6.87492L14.5899 10.3399L10.3437 14.5862L6.87492 11.1249ZM11.1249 25.1249C10.8459 25.404 10.5146 25.6253 10.15 25.7764C9.78535 25.9274 9.39457 26.0051 8.99992 26.0051C8.60527 26.0051 8.21448 25.9274 7.84988 25.7764C7.48527 25.6253 7.15398 25.404 6.87492 25.1249C6.59586 24.8459 6.3745 24.5146 6.22347 24.15C6.07245 23.7854 5.99471 23.3946 5.99471 22.9999C5.99471 22.6053 6.07245 22.2145 6.22347 21.8499C6.3745 21.4853 6.59586 21.154 6.87492 20.8749L10.3399 17.4099L14.5824 21.6524L11.1249 25.1249ZM25.1249 25.1249C24.8462 25.4046 24.515 25.6265 24.1504 25.7779C23.7857 25.9293 23.3948 26.0073 22.9999 26.0073C22.6051 26.0073 22.2141 25.9293 21.8495 25.7779C21.4848 25.6265 21.1536 25.4046 20.8749 25.1249L17.4099 21.6599L21.6524 17.4174L25.1249 20.8749C25.4046 21.1536 25.6265 21.4848 25.7779 21.8495C25.9293 22.2141 26.0073 22.6051 26.0073 22.9999C26.0073 23.3948 25.9293 23.7857 25.7779 24.1504C25.6265 24.515 25.4046 24.8462 25.1249 25.1249ZM14.4999 15.9999C14.4999 15.7032 14.5879 15.4132 14.7527 15.1666C14.9175 14.9199 15.1518 14.7276 15.4259 14.6141C15.7 14.5006 16.0016 14.4709 16.2926 14.5287C16.5835 14.5866 16.8508 14.7295 17.0606 14.9393C17.2704 15.149 17.4132 15.4163 17.4711 15.7073C17.529 15.9983 17.4993 16.2999 17.3857 16.5739C17.2722 16.848 17.0799 17.0823 16.8333 17.2471C16.5866 17.4119 16.2966 17.4999 15.9999 17.4999C15.6021 17.4999 15.2206 17.3419 14.9393 17.0606C14.658 16.7793 14.4999 16.3977 14.4999 15.9999Z" fill="#4A4A4F"/>
</svg>
