<svg width="32" height="32" viewBox="0 0 32 32" fill="none" xmlns="http://www.w3.org/2000/svg">
<path d="M25.0002 8V24C25.0002 24.5304 24.7895 25.0391 24.4145 25.4142C24.0394 25.7893 23.5307 26 23.0002 26H21.0002C20.4698 26 19.9611 25.7893 19.586 25.4142C19.211 25.0391 19.0002 24.5304 19.0002 24V17H13.0002V24C13.0002 24.5304 12.7895 25.0391 12.4145 25.4142C12.0394 25.7893 11.5307 26 11.0002 26H9.00024C8.46981 26 7.9611 25.7893 7.58603 25.4142C7.21096 25.0391 7.00024 24.5304 7.00024 24V8C7.00024 7.46957 7.21096 6.96086 7.58603 6.58579C7.9611 6.21071 8.46981 6 9.00024 6H11.0002C11.5307 6 12.0394 6.21071 12.4145 6.58579C12.7895 6.96086 13.0002 7.46957 13.0002 8V15H19.0002V8C19.0002 7.46957 19.211 6.96086 19.586 6.58579C19.9611 6.21071 20.4698 6 21.0002 6H23.0002C23.5307 6 24.0394 6.21071 24.4145 6.58579C24.7895 6.96086 25.0002 7.46957 25.0002 8ZM4.50024 9H4.00024C3.46981 9 2.9611 9.21071 2.58603 9.58579C2.21096 9.96086 2.00024 10.4696 2.00024 11V15H1.03399C0.775577 14.9962 0.5253 15.0904 0.333511 15.2636C0.141721 15.4368 0.0226482 15.6763 0.000244057 15.9338C-0.00883835 16.0705 0.0103009 16.2077 0.0564729 16.3368C0.102645 16.4659 0.174864 16.5841 0.268643 16.6841C0.362423 16.7841 0.47576 16.8637 0.601616 16.9181C0.727471 16.9724 0.863156 17.0003 1.00024 17H2.00024V21C2.00024 21.5304 2.21096 22.0391 2.58603 22.4142C2.9611 22.7893 3.46981 23 4.00024 23H4.50024C4.63285 23 4.76003 22.9473 4.8538 22.8536C4.94757 22.7598 5.00024 22.6326 5.00024 22.5V9.5C5.00024 9.36739 4.94757 9.24021 4.8538 9.14645C4.76003 9.05268 4.63285 9 4.50024 9ZM32.0002 15.9338C31.9779 15.6767 31.8592 15.4376 31.6679 15.2645C31.4766 15.0913 31.227 14.9968 30.969 15H30.0002V11C30.0002 10.4696 29.7895 9.96086 29.4145 9.58579C29.0394 9.21071 28.5307 9 28.0002 9H27.5002C27.3676 9 27.2405 9.05268 27.1467 9.14645C27.0529 9.24021 27.0002 9.36739 27.0002 9.5V22.5C27.0002 22.6326 27.0529 22.7598 27.1467 22.8536C27.2405 22.9473 27.3676 23 27.5002 23H28.0002C28.5307 23 29.0394 22.7893 29.4145 22.4142C29.7895 22.0391 30.0002 21.5304 30.0002 21V17H31.0002C31.1373 17.0003 31.273 16.9724 31.3989 16.9181C31.5247 16.8637 31.6381 16.7841 31.7318 16.6841C31.8256 16.5841 31.8978 16.4659 31.944 16.3368C31.9902 16.2077 32.0093 16.0705 32.0002 15.9338Z" fill="#4A4A4F"/>
</svg>
