<svg width="32" height="32" viewBox="0 0 32 32" fill="none" xmlns="http://www.w3.org/2000/svg">
<path d="M16 3C13.4288 3 10.9154 3.76244 8.77759 5.1909C6.63975 6.61935 4.97351 8.64968 3.98957 11.0251C3.00563 13.4006 2.74819 16.0144 3.2498 18.5362C3.75141 21.0579 4.98953 23.3743 6.80762 25.1924C8.6257 27.0105 10.9421 28.2486 13.4638 28.7502C15.9856 29.2518 18.5995 28.9944 20.9749 28.0104C23.3503 27.0265 25.3807 25.3603 26.8091 23.2224C28.2376 21.0846 29 18.5712 29 16C28.9964 12.5533 27.6256 9.24882 25.1884 6.81163C22.7512 4.37445 19.4467 3.00364 16 3ZM9.01126 24.4888C9.11376 24.3638 9.21626 24.2475 9.31376 24.125C9.39583 24.0223 9.45688 23.9045 9.49342 23.7782C9.52995 23.6519 9.54126 23.5197 9.52669 23.3891C9.51212 23.2584 9.47197 23.1319 9.40852 23.0168C9.34506 22.9017 9.25956 22.8002 9.15688 22.7181C9.0542 22.636 8.93637 22.575 8.81009 22.5385C8.68382 22.5019 8.55159 22.4906 8.42095 22.5052C8.29031 22.5198 8.16382 22.5599 8.0487 22.6234C7.93358 22.6868 7.83208 22.7723 7.75001 22.875L7.58251 23.0775C5.9124 21.0974 4.99634 18.5904 4.99634 16C4.99634 13.4096 5.9124 10.9026 7.58251 8.9225L7.75001 9.125C7.83208 9.22768 7.93358 9.31318 8.0487 9.37664C8.16382 9.44009 8.29031 9.48024 8.42095 9.49481C8.55159 9.50938 8.68382 9.49807 8.81009 9.46154C8.93637 9.425 9.0542 9.36395 9.15688 9.28187C9.25956 9.1998 9.34506 9.0983 9.40852 8.98318C9.47197 8.86806 9.51212 8.74157 9.52669 8.61093C9.54126 8.48029 9.52995 8.34806 9.49342 8.22179C9.45688 8.09551 9.39583 7.97768 9.31376 7.875C9.21626 7.75 9.11376 7.625 9.01126 7.51125C10.9784 5.88782 13.4494 4.99988 16 4.99988C18.5506 4.99988 21.0216 5.88782 22.9888 7.51125C22.8863 7.63625 22.7838 7.75125 22.6863 7.875C22.6042 7.97768 22.5431 8.09551 22.5066 8.22179C22.4701 8.34806 22.4588 8.48029 22.4733 8.61093C22.4879 8.74157 22.528 8.86806 22.5915 8.98318C22.6549 9.0983 22.7405 9.1998 22.8431 9.28187C22.9458 9.36395 23.0636 9.425 23.1899 9.46154C23.3162 9.49807 23.4484 9.50938 23.5791 9.49481C23.7097 9.48024 23.8362 9.44009 23.9513 9.37664C24.0664 9.31318 24.1679 9.22768 24.25 9.125L24.4175 8.9225C26.0876 10.9026 27.0037 13.4096 27.0037 16C27.0037 18.5904 26.0876 21.0974 24.4175 23.0775L24.25 22.875C24.1696 22.7679 24.0684 22.6781 23.9526 22.6108C23.8367 22.5436 23.7085 22.5003 23.5756 22.4835C23.4427 22.4667 23.3078 22.4768 23.1789 22.5132C23.05 22.5496 22.9297 22.6115 22.8252 22.6953C22.7206 22.779 22.634 22.8829 22.5704 23.0008C22.5068 23.1187 22.4675 23.2482 22.4549 23.3815C22.4423 23.5149 22.4566 23.6494 22.497 23.7771C22.5374 23.9048 22.603 24.0231 22.69 24.125C22.7875 24.25 22.89 24.3687 22.9925 24.4888C21.0253 26.1122 18.5543 27.0001 16.0038 27.0001C13.4532 27.0001 10.9822 26.1122 9.01501 24.4888H9.01126ZM11.9863 18.165C11.862 18.9026 11.6747 19.6282 11.4263 20.3337C11.3377 20.5839 11.1535 20.7886 10.914 20.9029C10.6746 21.0172 10.3995 21.0316 10.1494 20.9431C9.89925 20.8546 9.69452 20.6704 9.58024 20.4309C9.46596 20.1914 9.45149 19.9164 9.54001 19.6663C9.75075 19.0707 9.90926 18.458 10.0138 17.835C10.0343 17.7045 10.0806 17.5794 10.1498 17.4669C10.219 17.3544 10.3098 17.2567 10.417 17.1795C10.5242 17.1023 10.6456 17.047 10.7743 17.017C10.9029 16.987 11.0363 16.9828 11.1665 17.0046C11.2968 17.0264 11.4215 17.0738 11.5334 17.144C11.6453 17.2143 11.7421 17.306 11.8183 17.4139C11.8945 17.5218 11.9486 17.6437 11.9774 17.7726C12.0063 17.9016 12.0093 18.0349 11.9863 18.165ZM11.9863 13.835C12.03 14.0966 11.9681 14.3648 11.814 14.5807C11.66 14.7966 11.4266 14.9425 11.165 14.9862C11.1104 14.9951 11.0553 14.9997 11 15C10.7636 14.9997 10.535 14.9157 10.3547 14.7628C10.1743 14.6099 10.054 14.3981 10.015 14.165C9.91051 13.542 9.752 12.9293 9.54126 12.3337C9.45274 12.0836 9.46721 11.8086 9.58149 11.5691C9.69577 11.3296 9.9005 11.1454 10.1506 11.0569C10.4008 10.9684 10.6758 10.9828 10.9153 11.0971C11.1547 11.2114 11.339 11.4161 11.4275 11.6663C11.6755 12.3718 11.8624 13.0974 11.9863 13.835ZM21.85 20.9425C21.6 21.031 21.3252 21.0165 21.0858 20.9024C20.8465 20.7882 20.6623 20.5837 20.5738 20.3337C20.3253 19.6282 20.138 18.9026 20.0138 18.165C19.9908 18.0349 19.9937 17.9016 20.0226 17.7726C20.0514 17.6437 20.1055 17.5218 20.1817 17.4139C20.2579 17.306 20.3548 17.2143 20.4666 17.144C20.5785 17.0738 20.7032 17.0264 20.8335 17.0046C20.9638 16.9828 21.0971 16.987 21.2257 17.017C21.3544 17.047 21.4758 17.1023 21.583 17.1795C21.6902 17.2567 21.781 17.3544 21.8502 17.4669C21.9194 17.5794 21.9657 17.7045 21.9863 17.835C22.0907 18.458 22.2493 19.0707 22.46 19.6663C22.5038 19.7901 22.5227 19.9214 22.5158 20.0525C22.5088 20.1837 22.4761 20.3122 22.4194 20.4308C22.3628 20.5493 22.2833 20.6555 22.1856 20.7433C22.0879 20.8311 21.9739 20.8988 21.85 20.9425ZM20.0138 13.835C20.138 13.0974 20.3253 12.3718 20.5738 11.6663C20.6623 11.4161 20.8465 11.2114 21.086 11.0971C21.3254 10.9828 21.6005 10.9684 21.8506 11.0569C22.1008 11.1454 22.3055 11.3296 22.4198 11.5691C22.534 11.8086 22.5485 12.0836 22.46 12.3337C22.2493 12.9293 22.0907 13.542 21.9863 14.165C21.9472 14.3984 21.8267 14.6103 21.6461 14.7632C21.4655 14.9161 21.2366 15 21 15C20.9443 14.9998 20.8887 14.9952 20.8338 14.9862C20.5724 14.9422 20.3393 14.7962 20.1855 14.5803C20.0318 14.3645 19.97 14.0964 20.0138 13.835Z" fill="#4A4A4F"/>
</svg>
