<svg width="32" height="32" viewBox="0 0 32 32" fill="none" xmlns="http://www.w3.org/2000/svg">
<path d="M7.95016 5.79878C9.82491 4.31302 12.0749 3.37623 14.4502 3.09253C14.5204 3.08458 14.5915 3.0916 14.6588 3.11315C14.7261 3.13469 14.7881 3.17025 14.8407 3.2175C14.8932 3.26475 14.9352 3.3226 14.9638 3.38725C14.9923 3.45189 15.0069 3.52186 15.0064 3.59253V15H11.9627C11.7142 11.7803 10.2736 8.76899 7.92266 6.55503C7.87007 6.50615 7.82862 6.44651 7.80113 6.38018C7.77365 6.31385 7.76077 6.24237 7.76338 6.17061C7.76599 6.09886 7.78402 6.02851 7.81625 5.96434C7.84849 5.90018 7.89416 5.84371 7.95016 5.79878ZM5.75016 8.00878C4.29211 9.86957 3.37171 12.0943 3.08891 14.4413C3.08058 14.5117 3.08732 14.5831 3.10869 14.6507C3.13006 14.7183 3.16556 14.7806 3.21285 14.8335C3.26014 14.8863 3.31813 14.9285 3.38296 14.9572C3.4478 14.9859 3.518 15.0005 3.58891 15H9.95391C9.70724 12.3024 8.4723 9.79113 6.48641 7.94878C6.43554 7.90141 6.37536 7.86516 6.30969 7.84236C6.24403 7.81956 6.17433 7.8107 6.10505 7.81634C6.03577 7.82199 5.96843 7.84202 5.90732 7.87515C5.84622 7.90829 5.79269 7.9538 5.75016 8.00878ZM24.0502 5.79878C22.1754 4.31302 19.9254 3.37623 17.5502 3.09253C17.4799 3.08458 17.4088 3.0916 17.3415 3.11315C17.2742 3.13469 17.2122 3.17025 17.1597 3.2175C17.1071 3.26475 17.0651 3.3226 17.0366 3.38725C17.008 3.45189 16.9935 3.52186 16.9939 3.59253V15H20.0314C20.2799 11.7803 21.7205 8.76899 24.0714 6.55503C24.1244 6.50659 24.1663 6.44731 24.1943 6.38122C24.2223 6.31514 24.2358 6.24379 24.2338 6.17205C24.2317 6.1003 24.2143 6.02982 24.1826 5.96542C24.1509 5.90101 24.1058 5.84417 24.0502 5.79878ZM28.9077 14.4413C28.626 12.0946 27.7069 9.86998 26.2502 8.00878C26.2076 7.95438 26.1543 7.90938 26.0935 7.87661C26.0328 7.84384 25.9659 7.82401 25.8971 7.81838C25.8282 7.81274 25.759 7.82142 25.6937 7.84386C25.6284 7.8663 25.5685 7.90203 25.5177 7.94878C23.5304 9.79053 22.2941 12.3019 22.0464 15H28.4102C28.4809 15.0002 28.5508 14.9853 28.6153 14.9564C28.6799 14.9276 28.7375 14.8853 28.7846 14.8325C28.8316 14.7797 28.8669 14.7175 28.8881 14.6501C28.9093 14.5827 28.916 14.5115 28.9077 14.4413ZM3.09266 17.5588C3.37437 19.9054 4.29345 22.1301 5.75016 23.9913C5.79269 24.0457 5.84601 24.0907 5.90679 24.1234C5.96756 24.1562 6.03446 24.176 6.10328 24.1817C6.17209 24.1873 6.24133 24.1786 6.30662 24.1562C6.37192 24.1338 6.43186 24.098 6.48266 24.0513C8.46994 22.2095 9.70625 19.6982 9.95391 17H3.59016C3.51946 16.9999 3.44954 17.0148 3.385 17.0436C3.32047 17.0725 3.26279 17.1147 3.21577 17.1675C3.16876 17.2203 3.13348 17.2825 3.11225 17.35C3.09103 17.4174 3.08436 17.4886 3.09266 17.5588ZM26.2502 23.9913C27.7082 22.1305 28.6286 19.9058 28.9114 17.5588C28.9197 17.4884 28.913 17.417 28.8916 17.3494C28.8703 17.2817 28.8348 17.2194 28.7875 17.1666C28.7402 17.1138 28.6822 17.0716 28.6174 17.0429C28.5525 17.0141 28.4823 16.9995 28.4114 17H22.0464C22.2931 19.6976 23.528 22.2089 25.5139 24.0513C25.5648 24.0987 25.625 24.1349 25.6906 24.1577C25.7563 24.1805 25.826 24.1894 25.8953 24.1837C25.9646 24.1781 26.0319 24.158 26.093 24.1249C26.1541 24.0918 26.2076 24.0463 26.2502 23.9913ZM7.95016 26.2013C9.82491 27.687 12.0749 28.6238 14.4502 28.9075C14.5204 28.9155 14.5915 28.9085 14.6588 28.8869C14.7261 28.8654 14.7881 28.8298 14.8407 28.7826C14.8932 28.7353 14.9352 28.6775 14.9638 28.6128C14.9923 28.5482 15.0069 28.4782 15.0064 28.4075V17H11.9627C11.7142 20.2198 10.2736 23.2311 7.92266 25.445C7.87007 25.4939 7.82862 25.5535 7.80113 25.6199C7.77365 25.6862 7.76077 25.7577 7.76338 25.8294C7.76599 25.9012 7.78402 25.9716 7.81625 26.0357C7.84849 26.0999 7.89416 26.1563 7.95016 26.2013ZM20.0377 17H17.0002V28.41C16.9997 28.4807 17.0143 28.5507 17.0428 28.6153C17.0714 28.68 17.1133 28.7378 17.1659 28.7851C17.2185 28.8323 17.2804 28.8679 17.3478 28.8894C17.4151 28.911 17.4862 28.918 17.5564 28.91C19.9316 28.6263 22.1817 27.6895 24.0564 26.2038C24.1124 26.1588 24.1581 26.1024 24.1903 26.0382C24.2226 25.9741 24.2406 25.9037 24.2432 25.8319C24.2458 25.7602 24.2329 25.6887 24.2054 25.6224C24.178 25.556 24.1365 25.4964 24.0839 25.4475C21.7301 23.2339 20.2872 20.2215 20.0377 17Z" fill="#4A4A4F"/>
</svg>
