<svg width="32" height="32" viewBox="0 0 32 32" fill="none" xmlns="http://www.w3.org/2000/svg">
<path d="M29.5 10.6827C29.3128 10.4689 29.0822 10.2975 28.8235 10.1798C28.5649 10.0621 28.2841 10.0009 28 10.0002H23.4537L16.75 2.34149C16.6561 2.23509 16.5407 2.14986 16.4114 2.09149C16.2821 2.03312 16.1418 2.00293 16 2.00293C15.8581 2.00293 15.7178 2.03312 15.5885 2.09149C15.4592 2.14986 15.3438 2.23509 15.25 2.34149L8.54622 10.0002H3.99997C3.71505 10.0002 3.43342 10.0611 3.17394 10.1788C2.91447 10.2965 2.68312 10.4682 2.49541 10.6826C2.3077 10.8969 2.16795 11.1489 2.08553 11.4216C2.0031 11.6944 1.97989 11.9816 2.01747 12.264L3.74997 25.2652C3.8142 25.7457 4.05076 26.1865 4.41566 26.5057C4.78056 26.8248 5.24895 27.0006 5.73372 27.0002H26.2662C26.751 27.0006 27.2194 26.8248 27.5843 26.5057C27.9492 26.1865 28.1857 25.7457 28.25 25.2652L29.9837 12.2652C30.0207 11.9822 29.9966 11.6946 29.9132 11.4216C29.8297 11.1487 29.6889 10.8967 29.5 10.6827ZM10.2 23.0002C10.1662 23.0021 10.1324 23.0021 10.0987 23.0002C9.84995 23.0015 9.60965 22.91 9.42474 22.7435C9.23983 22.5771 9.12359 22.3478 9.09872 22.1002L8.39872 15.1002C8.3722 14.8364 8.45159 14.5727 8.61944 14.3674C8.78728 14.162 9.02983 14.0318 9.29372 14.0052C9.55761 13.9787 9.82123 14.0581 10.0266 14.226C10.2319 14.3938 10.3622 14.6364 10.3887 14.9002L11.0887 21.9002C11.1167 22.164 11.0388 22.428 10.8722 22.6343C10.7055 22.8406 10.4637 22.9722 10.2 23.0002ZM17 22.0002C17 22.2655 16.8946 22.5198 16.7071 22.7073C16.5195 22.8949 16.2652 23.0002 16 23.0002C15.7348 23.0002 15.4804 22.8949 15.2929 22.7073C15.1053 22.5198 15 22.2655 15 22.0002V15.0002C15 14.735 15.1053 14.4807 15.2929 14.2931C15.4804 14.1056 15.7348 14.0002 16 14.0002C16.2652 14.0002 16.5195 14.1056 16.7071 14.2931C16.8946 14.4807 17 14.735 17 15.0002V22.0002ZM11.2037 10.0002L16 4.51899L20.7962 10.0002H11.2037ZM23.595 15.1002L22.895 22.1002C22.8702 22.3467 22.7548 22.5752 22.5713 22.7414C22.3877 22.9077 22.1489 22.9999 21.9012 23.0002C21.8675 23.0021 21.8337 23.0021 21.8 23.0002C21.6693 22.9871 21.5425 22.9484 21.4268 22.8862C21.3111 22.8241 21.2088 22.7398 21.1257 22.6381C21.0426 22.5364 20.9803 22.4194 20.9424 22.2936C20.9046 22.1679 20.8918 22.0359 20.905 21.9052L21.605 14.9052C21.6315 14.6414 21.7618 14.3988 21.9671 14.231C22.1725 14.0631 22.4361 13.9837 22.7 14.0102C22.9639 14.0368 23.2064 14.167 23.3743 14.3724C23.5421 14.5777 23.6215 14.8414 23.595 15.1052V15.1002Z" fill="#4A4A4F"/>
</svg>
