<svg width="32" height="32" viewBox="0 0 32 32" fill="none" xmlns="http://www.w3.org/2000/svg">
<path d="M29 12H27C27 11.7348 26.8946 11.4805 26.7071 11.2929C26.5196 11.1054 26.2652 11 26 11H17C16.7348 11 16.4804 11.1054 16.2929 11.2929C16.1054 11.4805 16 11.7348 16 12H8V6.50005C8 6.10222 8.15804 5.72069 8.43934 5.43939C8.72064 5.15808 9.10218 5.00005 9.5 5.00005C9.85156 4.99861 10.1932 5.11635 10.4693 5.33405C10.7453 5.55176 10.9395 5.85658 11.02 6.1988C11.0749 6.4565 11.2294 6.68212 11.4497 6.8266C11.6701 6.97107 11.9385 7.02274 12.1968 6.97037C12.455 6.918 12.6822 6.76582 12.8288 6.5469C12.9755 6.32799 13.0298 6.06004 12.98 5.8013C12.8102 5.00556 12.3715 4.2926 11.7377 3.7824C11.1039 3.27221 10.3136 2.99592 9.5 3.00005C8.57174 3.00005 7.6815 3.36879 7.02513 4.02517C6.36875 4.68155 6 5.57179 6 6.50005V12H3C2.46957 12 1.96086 12.2108 1.58579 12.5858C1.21071 12.9609 1 13.4696 1 14V18C1.00199 19.856 1.74012 21.6353 3.05245 22.9476C4.36477 24.2599 6.14409 24.9981 8 25V27C8 27.2653 8.10536 27.5196 8.29289 27.7072C8.48043 27.8947 8.73478 28 9 28C9.26522 28 9.51957 27.8947 9.70711 27.7072C9.89464 27.5196 10 27.2653 10 27V25H22V27C22 27.2653 22.1054 27.5196 22.2929 27.7072C22.4804 27.8947 22.7348 28 23 28C23.2652 28 23.5196 27.8947 23.7071 27.7072C23.8946 27.5196 24 27.2653 24 27V25C25.8559 24.9981 27.6352 24.2599 28.9476 22.9476C30.2599 21.6353 30.998 19.856 31 18V14C31 13.4696 30.7893 12.9609 30.4142 12.5858C30.0391 12.2108 29.5304 12 29 12ZM25 18H18V13H25V18Z" fill="#4A4A4F"/>
</svg>
