<svg width="32" height="32" viewBox="0 0 32 32" fill="none" xmlns="http://www.w3.org/2000/svg">
<path d="M25 7H4C3.20435 7 2.44129 7.31607 1.87868 7.87868C1.31607 8.44129 1 9.20435 1 10V22C1 22.7956 1.31607 23.5587 1.87868 24.1213C2.44129 24.6839 3.20435 25 4 25H25C25.7956 25 26.5587 24.6839 27.1213 24.1213C27.6839 23.5587 28 22.7956 28 22V10C28 9.20435 27.6839 8.44129 27.1213 7.87868C26.5587 7.31607 25.7956 7 25 7ZM26 22C26 22.2652 25.8946 22.5196 25.7071 22.7071C25.5196 22.8946 25.2652 23 25 23H4C3.73478 23 3.48043 22.8946 3.29289 22.7071C3.10536 22.5196 3 22.2652 3 22V10C3 9.73478 3.10536 9.48043 3.29289 9.29289C3.48043 9.10536 3.73478 9 4 9H25C25.2652 9 25.5196 9.10536 25.7071 9.29289C25.8946 9.48043 26 9.73478 26 10V22ZM32 12V20C32 20.2652 31.8946 20.5196 31.7071 20.7071C31.5196 20.8946 31.2652 21 31 21C30.7348 21 30.4804 20.8946 30.2929 20.7071C30.1054 20.5196 30 20.2652 30 20V12C30 11.7348 30.1054 11.4804 30.2929 11.2929C30.4804 11.1054 30.7348 11 31 11C31.2652 11 31.5196 11.1054 31.7071 11.2929C31.8946 11.4804 32 11.7348 32 12ZM17.3512 15.4738C17.441 15.6188 17.4921 15.7845 17.4998 15.9549C17.5075 16.1254 17.4714 16.2949 17.395 16.4475L15.395 20.4475C15.3362 20.565 15.2549 20.6698 15.1556 20.7559C15.0564 20.842 14.9411 20.9077 14.8164 20.9493C14.6918 20.9908 14.5601 21.0074 14.4291 20.9981C14.298 20.9888 14.17 20.9538 14.0525 20.895C13.935 20.8362 13.8302 20.7549 13.7441 20.6556C13.658 20.5563 13.5923 20.4411 13.5507 20.3164C13.5092 20.1918 13.4926 20.0601 13.5019 19.9291C13.5112 19.798 13.5462 19.67 13.605 19.5525L14.8825 17H12.5C12.3295 17.0001 12.1617 16.9566 12.0127 16.8736C11.8637 16.7907 11.7384 16.671 11.6487 16.5259C11.559 16.3808 11.5079 16.2153 11.5003 16.0449C11.4926 15.8745 11.5287 15.705 11.605 15.5525L13.605 11.5525C13.6638 11.435 13.7451 11.3302 13.8444 11.2441C13.9436 11.158 14.0589 11.0923 14.1836 11.0507C14.3082 11.0092 14.4399 10.9926 14.5709 11.0019C14.702 11.0112 14.83 11.0462 14.9475 11.105C15.065 11.1638 15.1698 11.2451 15.2559 11.3444C15.342 11.4436 15.4077 11.5589 15.4493 11.6836C15.4908 11.8082 15.5074 11.9399 15.4981 12.0709C15.4888 12.202 15.4538 12.33 15.395 12.4475L14.1175 15H16.5C16.6705 14.9998 16.8382 15.0433 16.9872 15.1262C17.1362 15.2091 17.2615 15.3288 17.3512 15.4738Z" fill="#4A4A4F"/>
</svg>
