<svg width="32" height="32" viewBox="0 0 32 32" fill="none" xmlns="http://www.w3.org/2000/svg">
<path d="M22 4H10C9.20435 4 8.44129 4.31607 7.87868 4.87868C7.31607 5.44129 7 6.20435 7 7V28C7 28.7956 7.31607 29.5587 7.87868 30.1213C8.44129 30.6839 9.20435 31 10 31H22C22.7956 31 23.5587 30.6839 24.1213 30.1213C24.6839 29.5587 25 28.7956 25 28V7C25 6.20435 24.6839 5.44129 24.1213 4.87868C23.5587 4.31607 22.7956 4 22 4ZM23 28C23 28.2652 22.8946 28.5196 22.7071 28.7071C22.5196 28.8946 22.2652 29 22 29H10C9.73478 29 9.48043 28.8946 9.29289 28.7071C9.10536 28.5196 9 28.2652 9 28V7C9 6.73478 9.10536 6.48043 9.29289 6.29289C9.48043 6.10536 9.73478 6 10 6H22C22.2652 6 22.5196 6.10536 22.7071 6.29289C22.8946 6.48043 23 6.73478 23 7V28ZM21 25C21 25.2652 20.8946 25.5196 20.7071 25.7071C20.5196 25.8946 20.2652 26 20 26H12C11.7348 26 11.4804 25.8946 11.2929 25.7071C11.1054 25.5196 11 25.2652 11 25C11 24.7348 11.1054 24.4804 11.2929 24.2929C11.4804 24.1054 11.7348 24 12 24H20C20.2652 24 20.5196 24.1054 20.7071 24.2929C20.8946 24.4804 21 24.7348 21 25ZM11 1C11 0.734784 11.1054 0.48043 11.2929 0.292893C11.4804 0.105357 11.7348 0 12 0L20 0C20.2652 0 20.5196 0.105357 20.7071 0.292893C20.8946 0.48043 21 0.734784 21 1C21 1.26522 20.8946 1.51957 20.7071 1.70711C20.5196 1.89464 20.2652 2 20 2H12C11.7348 2 11.4804 1.89464 11.2929 1.70711C11.1054 1.51957 11 1.26522 11 1ZM21 20C21 20.2652 20.8946 20.5196 20.7071 20.7071C20.5196 20.8946 20.2652 21 20 21H12C11.7348 21 11.4804 20.8946 11.2929 20.7071C11.1054 20.5196 11 20.2652 11 20C11 19.7348 11.1054 19.4804 11.2929 19.2929C11.4804 19.1054 11.7348 19 12 19H20C20.2652 19 20.5196 19.1054 20.7071 19.2929C20.8946 19.4804 21 19.7348 21 20Z" fill="#4A4A4F"/>
</svg>
