<svg width="32" height="32" viewBox="0 0 32 32" fill="none" xmlns="http://www.w3.org/2000/svg">
<path d="M18.8512 16.4737C18.941 16.6188 18.9921 16.7845 18.9998 16.9549C19.0075 17.1254 18.9714 17.2949 18.895 17.4475L16.895 21.4475C16.7763 21.6849 16.5682 21.8654 16.3164 21.9493C16.0647 22.0332 15.7899 22.0137 15.5525 21.895C15.3151 21.7763 15.1346 21.5682 15.0507 21.3164C14.9668 21.0647 14.9863 20.7899 15.105 20.5525L16.3825 18H14C13.8295 18.0001 13.6617 17.9566 13.5127 17.8736C13.3637 17.7907 13.2384 17.671 13.1487 17.5259C13.059 17.3808 13.0079 17.2153 13.0003 17.0449C12.9926 16.8745 13.0287 16.705 13.105 16.5525L15.105 12.5525C15.2237 12.3151 15.4318 12.1346 15.6836 12.0507C15.9353 11.9668 16.2101 11.9863 16.4475 12.105C16.6849 12.2237 16.8654 12.4318 16.9493 12.6836C17.0332 12.9353 17.0137 13.2101 16.895 13.4475L15.6175 16H18C18.1705 15.9998 18.3382 16.0433 18.4872 16.1262C18.6362 16.2091 18.7615 16.3288 18.8512 16.4737ZM12 2H20C20.2652 2 20.5196 1.89464 20.7071 1.70711C20.8946 1.51957 21 1.26522 21 1C21 0.734784 20.8946 0.48043 20.7071 0.292893C20.5196 0.105357 20.2652 0 20 0L12 0C11.7348 0 11.4804 0.105357 11.2929 0.292893C11.1054 0.48043 11 0.734784 11 1C11 1.26522 11.1054 1.51957 11.2929 1.70711C11.4804 1.89464 11.7348 2 12 2ZM25 7V28C25 28.7956 24.6839 29.5587 24.1213 30.1213C23.5587 30.6839 22.7956 31 22 31H10C9.20435 31 8.44129 30.6839 7.87868 30.1213C7.31607 29.5587 7 28.7956 7 28V7C7 6.20435 7.31607 5.44129 7.87868 4.87868C8.44129 4.31607 9.20435 4 10 4H22C22.7956 4 23.5587 4.31607 24.1213 4.87868C24.6839 5.44129 25 6.20435 25 7ZM23 7C23 6.73478 22.8946 6.48043 22.7071 6.29289C22.5196 6.10536 22.2652 6 22 6H10C9.73478 6 9.48043 6.10536 9.29289 6.29289C9.10536 6.48043 9 6.73478 9 7V28C9 28.2652 9.10536 28.5196 9.29289 28.7071C9.48043 28.8946 9.73478 29 10 29H22C22.2652 29 22.5196 28.8946 22.7071 28.7071C22.8946 28.5196 23 28.2652 23 28V7Z" fill="#4A4A4F"/>
</svg>
