<svg width="32" height="32" viewBox="0 0 32 32" fill="none" xmlns="http://www.w3.org/2000/svg">
<path d="M22 4H10C9.20435 4 8.44129 4.31607 7.87868 4.87868C7.31607 5.44129 7 6.20435 7 7V28C7 28.7956 7.31607 29.5587 7.87868 30.1213C8.44129 30.6839 9.20435 31 10 31H22C22.7956 31 23.5587 30.6839 24.1213 30.1213C24.6839 29.5587 25 28.7956 25 28V7C25 6.20435 24.6839 5.44129 24.1213 4.87868C23.5587 4.31607 22.7956 4 22 4ZM18.895 17.4475L16.895 21.4475C16.8362 21.565 16.7549 21.6698 16.6556 21.7559C16.5563 21.842 16.4411 21.9077 16.3164 21.9493C16.1918 21.9908 16.0601 22.0074 15.9291 21.9981C15.798 21.9888 15.67 21.9538 15.5525 21.895C15.435 21.8362 15.3302 21.7549 15.2441 21.6556C15.158 21.5563 15.0923 21.4411 15.0507 21.3164C15.0092 21.1918 14.9926 21.0601 15.0019 20.9291C15.0112 20.798 15.0462 20.67 15.105 20.5525L16.3825 18H14C13.8295 18.0001 13.6617 17.9566 13.5127 17.8736C13.3637 17.7907 13.2384 17.671 13.1487 17.5259C13.059 17.3808 13.0079 17.2153 13.0003 17.0449C12.9926 16.8745 13.0287 16.705 13.105 16.5525L15.105 12.5525C15.2237 12.3151 15.4318 12.1346 15.6836 12.0507C15.9353 11.9668 16.2101 11.9863 16.4475 12.105C16.6849 12.2237 16.8654 12.4318 16.9493 12.6836C17.0332 12.9353 17.0137 13.2101 16.895 13.4475L15.6175 16H18C18.1705 15.9999 18.3383 16.0434 18.4873 16.1264C18.6363 16.2093 18.7616 16.329 18.8513 16.4741C18.941 16.6192 18.9921 16.7847 18.9997 16.9551C19.0074 17.1255 18.9713 17.295 18.895 17.4475ZM11 1C11 0.734784 11.1054 0.48043 11.2929 0.292893C11.4804 0.105357 11.7348 0 12 0L20 0C20.2652 0 20.5196 0.105357 20.7071 0.292893C20.8946 0.48043 21 0.734784 21 1C21 1.26522 20.8946 1.51957 20.7071 1.70711C20.5196 1.89464 20.2652 2 20 2H12C11.7348 2 11.4804 1.89464 11.2929 1.70711C11.1054 1.51957 11 1.26522 11 1Z" fill="#4A4A4F"/>
</svg>
