<svg width="32" height="32" viewBox="0 0 32 32" fill="none" xmlns="http://www.w3.org/2000/svg">
<path d="M19 16C19 16.2652 18.8946 16.5196 18.7071 16.7071C18.5196 16.8946 18.2652 17 18 17H15.5V19.5C15.5 19.7652 15.3946 20.0196 15.2071 20.2071C15.0196 20.3946 14.7652 20.5 14.5 20.5C14.2348 20.5 13.9804 20.3946 13.7929 20.2071C13.6054 20.0196 13.5 19.7652 13.5 19.5V17H11C10.7348 17 10.4804 16.8946 10.2929 16.7071C10.1054 16.5196 10 16.2652 10 16C10 15.7348 10.1054 15.4804 10.2929 15.2929C10.4804 15.1054 10.7348 15 11 15H13.5V12.5C13.5 12.2348 13.6054 11.9804 13.7929 11.7929C13.9804 11.6054 14.2348 11.5 14.5 11.5C14.7652 11.5 15.0196 11.6054 15.2071 11.7929C15.3946 11.9804 15.5 12.2348 15.5 12.5V15H18C18.2652 15 18.5196 15.1054 18.7071 15.2929C18.8946 15.4804 19 15.7348 19 16ZM28 10V22C28 22.7956 27.6839 23.5587 27.1213 24.1213C26.5587 24.6839 25.7956 25 25 25H4C3.20435 25 2.44129 24.6839 1.87868 24.1213C1.31607 23.5587 1 22.7956 1 22V10C1 9.20435 1.31607 8.44129 1.87868 7.87868C2.44129 7.31607 3.20435 7 4 7H25C25.7956 7 26.5587 7.31607 27.1213 7.87868C27.6839 8.44129 28 9.20435 28 10ZM26 10C26 9.73478 25.8946 9.48043 25.7071 9.29289C25.5196 9.10536 25.2652 9 25 9H4C3.73478 9 3.48043 9.10536 3.29289 9.29289C3.10536 9.48043 3 9.73478 3 10V22C3 22.2652 3.10536 22.5196 3.29289 22.7071C3.48043 22.8946 3.73478 23 4 23H25C25.2652 23 25.5196 22.8946 25.7071 22.7071C25.8946 22.5196 26 22.2652 26 22V10ZM31 11C30.7348 11 30.4804 11.1054 30.2929 11.2929C30.1054 11.4804 30 11.7348 30 12V20C30 20.2652 30.1054 20.5196 30.2929 20.7071C30.4804 20.8946 30.7348 21 31 21C31.2652 21 31.5196 20.8946 31.7071 20.7071C31.8946 20.5196 32 20.2652 32 20V12C32 11.7348 31.8946 11.4804 31.7071 11.2929C31.5196 11.1054 31.2652 11 31 11Z" fill="#4A4A4F"/>
</svg>
