<svg width="32" height="32" viewBox="0 0 32 32" fill="none" xmlns="http://www.w3.org/2000/svg">
<path d="M25 7H4C3.20435 7 2.44129 7.31607 1.87868 7.87868C1.31607 8.44129 1 9.20435 1 10V22C1 22.7956 1.31607 23.5587 1.87868 24.1213C2.44129 24.6839 3.20435 25 4 25H25C25.7956 25 26.5587 24.6839 27.1213 24.1213C27.6839 23.5587 28 22.7956 28 22V10C28 9.20435 27.6839 8.44129 27.1213 7.87868C26.5587 7.31607 25.7956 7 25 7ZM26 22C26 22.2652 25.8946 22.5196 25.7071 22.7071C25.5196 22.8946 25.2652 23 25 23H4C3.73478 23 3.48043 22.8946 3.29289 22.7071C3.10536 22.5196 3 22.2652 3 22V10C3 9.73478 3.10536 9.48043 3.29289 9.29289C3.48043 9.10536 3.73478 9 4 9H25C25.2652 9 25.5196 9.10536 25.7071 9.29289C25.8946 9.48043 26 9.73478 26 10V22ZM32 12V20C32 20.2652 31.8946 20.5196 31.7071 20.7071C31.5196 20.8946 31.2652 21 31 21C30.7348 21 30.4804 20.8946 30.2929 20.7071C30.1054 20.5196 30 20.2652 30 20V12C30 11.7348 30.1054 11.4804 30.2929 11.2929C30.4804 11.1054 30.7348 11 31 11C31.2652 11 31.5196 11.1054 31.7071 11.2929C31.8946 11.4804 32 11.7348 32 12Z" fill="#4A4A4F"/>
</svg>
