<svg width="32" height="32" viewBox="0 0 32 32" fill="none" xmlns="http://www.w3.org/2000/svg">
<path d="M11 1C11 0.734784 11.1054 0.48043 11.2929 0.292893C11.4804 0.105357 11.7348 0 12 0L20 0C20.2652 0 20.5196 0.105357 20.7071 0.292893C20.8946 0.48043 21 0.734784 21 1C21 1.26522 20.8946 1.51957 20.7071 1.70711C20.5196 1.89464 20.2652 2 20 2H12C11.7348 2 11.4804 1.89464 11.2929 1.70711C11.1054 1.51957 11 1.26522 11 1ZM25 7V28C25 28.7956 24.6839 29.5587 24.1213 30.1213C23.5587 30.6839 22.7956 31 22 31H10C9.20435 31 8.44129 30.6839 7.87868 30.1213C7.31607 29.5587 7 28.7956 7 28V7C7 6.20435 7.31607 5.44129 7.87868 4.87868C8.44129 4.31607 9.20435 4 10 4H22C22.7956 4 23.5587 4.31607 24.1213 4.87868C24.6839 5.44129 25 6.20435 25 7ZM23 7C23 6.73478 22.8946 6.48043 22.7071 6.29289C22.5196 6.10536 22.2652 6 22 6H10C9.73478 6 9.48043 6.10536 9.29289 6.29289C9.10536 6.48043 9 6.73478 9 7V28C9 28.2652 9.10536 28.5196 9.29289 28.7071C9.48043 28.8946 9.73478 29 10 29H22C22.2652 29 22.5196 28.8946 22.7071 28.7071C22.8946 28.5196 23 28.2652 23 28V7ZM20 9H12C11.7348 9 11.4804 9.10536 11.2929 9.29289C11.1054 9.48043 11 9.73478 11 10C11 10.2652 11.1054 10.5196 11.2929 10.7071C11.4804 10.8946 11.7348 11 12 11H20C20.2652 11 20.5196 10.8946 20.7071 10.7071C20.8946 10.5196 21 10.2652 21 10C21 9.73478 20.8946 9.48043 20.7071 9.29289C20.5196 9.10536 20.2652 9 20 9ZM20 14H12C11.7348 14 11.4804 14.1054 11.2929 14.2929C11.1054 14.4804 11 14.7348 11 15C11 15.2652 11.1054 15.5196 11.2929 15.7071C11.4804 15.8946 11.7348 16 12 16H20C20.2652 16 20.5196 15.8946 20.7071 15.7071C20.8946 15.5196 21 15.2652 21 15C21 14.7348 20.8946 14.4804 20.7071 14.2929C20.5196 14.1054 20.2652 14 20 14ZM20 19H12C11.7348 19 11.4804 19.1054 11.2929 19.2929C11.1054 19.4804 11 19.7348 11 20C11 20.2652 11.1054 20.5196 11.2929 20.7071C11.4804 20.8946 11.7348 21 12 21H20C20.2652 21 20.5196 20.8946 20.7071 20.7071C20.8946 20.5196 21 20.2652 21 20C21 19.7348 20.8946 19.4804 20.7071 19.2929C20.5196 19.1054 20.2652 19 20 19ZM20 24H12C11.7348 24 11.4804 24.1054 11.2929 24.2929C11.1054 24.4804 11 24.7348 11 25C11 25.2652 11.1054 25.5196 11.2929 25.7071C11.4804 25.8946 11.7348 26 12 26H20C20.2652 26 20.5196 25.8946 20.7071 25.7071C20.8946 25.5196 21 25.2652 21 25C21 24.7348 20.8946 24.4804 20.7071 24.2929C20.5196 24.1054 20.2652 24 20 24Z" fill="#4A4A4F"/>
</svg>
