<svg width="32" height="32" viewBox="0 0 32 32" fill="none" xmlns="http://www.w3.org/2000/svg">
<path d="M32 12V20C32 20.2652 31.8946 20.5196 31.7071 20.7071C31.5196 20.8946 31.2652 21 31 21C30.7348 21 30.4804 20.8946 30.2929 20.7071C30.1054 20.5196 30 20.2652 30 20V12C30 11.7348 30.1054 11.4804 30.2929 11.2929C30.4804 11.1054 30.7348 11 31 11C31.2652 11 31.5196 11.1054 31.7071 11.2929C31.8946 11.4804 32 11.7348 32 12ZM28 10V22C28 22.7956 27.6839 23.5587 27.1213 24.1213C26.5587 24.6839 25.7956 25 25 25H4C3.20435 25 2.44129 24.6839 1.87868 24.1213C1.31607 23.5587 1 22.7956 1 22V10C1 9.20435 1.31607 8.44129 1.87868 7.87868C2.44129 7.31607 3.20435 7 4 7H25C25.7956 7 26.5587 7.31607 27.1213 7.87868C27.6839 8.44129 28 9.20435 28 10ZM26 10C26 9.73478 25.8946 9.48043 25.7071 9.29289C25.5196 9.10536 25.2652 9 25 9H4C3.73478 9 3.48043 9.10536 3.29289 9.29289C3.10536 9.48043 3 9.73478 3 10V22C3 22.2652 3.10536 22.5196 3.29289 22.7071C3.48043 22.8946 3.73478 23 4 23H25C25.2652 23 25.5196 22.8946 25.7071 22.7071C25.8946 22.5196 26 22.2652 26 22V10ZM14.5 16.5C14.7652 16.5 15.0196 16.3946 15.2071 16.2071C15.3946 16.0196 15.5 15.7652 15.5 15.5V12C15.5 11.7348 15.3946 11.4804 15.2071 11.2929C15.0196 11.1054 14.7652 11 14.5 11C14.2348 11 13.9804 11.1054 13.7929 11.2929C13.6054 11.4804 13.5 11.7348 13.5 12V15.5C13.5 15.7652 13.6054 16.0196 13.7929 16.2071C13.9804 16.3946 14.2348 16.5 14.5 16.5ZM14.5 18C14.2033 18 13.9133 18.088 13.6666 18.2528C13.42 18.4176 13.2277 18.6519 13.1142 18.926C13.0006 19.2001 12.9709 19.5017 13.0288 19.7926C13.0867 20.0836 13.2296 20.3509 13.4393 20.5607C13.6491 20.7704 13.9164 20.9133 14.2074 20.9712C14.4983 21.0291 14.7999 20.9993 15.074 20.8858C15.3481 20.7723 15.5824 20.58 15.7472 20.3334C15.912 20.0867 16 19.7967 16 19.5C16 19.1022 15.842 18.7206 15.5607 18.4393C15.2794 18.158 14.8978 18 14.5 18Z" fill="#4A4A4F"/>
</svg>
