<svg width="32" height="32" viewBox="0 0 32 32" fill="none" xmlns="http://www.w3.org/2000/svg">
<path d="M25 7H4C3.20435 7 2.44129 7.31607 1.87868 7.87868C1.31607 8.44129 1 9.20435 1 10V22C1 22.7956 1.31607 23.5587 1.87868 24.1213C2.44129 24.6839 3.20435 25 4 25H25C25.7956 25 26.5587 24.6839 27.1213 24.1213C27.6839 23.5587 28 22.7956 28 22V10C28 9.20435 27.6839 8.44129 27.1213 7.87868C26.5587 7.31607 25.7956 7 25 7ZM13.5 11C13.5 10.7348 13.6054 10.4804 13.7929 10.2929C13.9804 10.1054 14.2348 10 14.5 10C14.7652 10 15.0196 10.1054 15.2071 10.2929C15.3946 10.4804 15.5 10.7348 15.5 11V16C15.5 16.2652 15.3946 16.5196 15.2071 16.7071C15.0196 16.8946 14.7652 17 14.5 17C14.2348 17 13.9804 16.8946 13.7929 16.7071C13.6054 16.5196 13.5 16.2652 13.5 16V11ZM14.5 22C14.2033 22 13.9133 21.912 13.6666 21.7472C13.42 21.5824 13.2277 21.3481 13.1142 21.074C13.0006 20.7999 12.9709 20.4983 13.0288 20.2074C13.0867 19.9164 13.2296 19.6491 13.4393 19.4393C13.6491 19.2296 13.9164 19.0867 14.2074 19.0288C14.4983 18.9709 14.7999 19.0007 15.074 19.1142C15.3481 19.2277 15.5824 19.42 15.7472 19.6666C15.912 19.9133 16 20.2033 16 20.5C16 20.8978 15.842 21.2794 15.5607 21.5607C15.2794 21.842 14.8978 22 14.5 22ZM32 12V20C32 20.2652 31.8946 20.5196 31.7071 20.7071C31.5196 20.8946 31.2652 21 31 21C30.7348 21 30.4804 20.8946 30.2929 20.7071C30.1054 20.5196 30 20.2652 30 20V12C30 11.7348 30.1054 11.4804 30.2929 11.2929C30.4804 11.1054 30.7348 11 31 11C31.2652 11 31.5196 11.1054 31.7071 11.2929C31.8946 11.4804 32 11.7348 32 12Z" fill="#4A4A4F"/>
</svg>
