<svg width="32" height="32" viewBox="0 0 32 32" fill="none" xmlns="http://www.w3.org/2000/svg">
<path d="M11 1C11 0.734784 11.1054 0.48043 11.2929 0.292893C11.4804 0.105357 11.7348 0 12 0L20 0C20.2652 0 20.5196 0.105357 20.7071 0.292893C20.8946 0.48043 21 0.734784 21 1C21 1.26522 20.8946 1.51957 20.7071 1.70711C20.5196 1.89464 20.2652 2 20 2H12C11.7348 2 11.4804 1.89464 11.2929 1.70711C11.1054 1.51957 11 1.26522 11 1ZM25 7V28C25 28.7956 24.6839 29.5587 24.1213 30.1213C23.5587 30.6839 22.7956 31 22 31H10C9.20435 31 8.44129 30.6839 7.87868 30.1213C7.31607 29.5587 7 28.7956 7 28V7C7 6.20435 7.31607 5.44129 7.87868 4.87868C8.44129 4.31607 9.20435 4 10 4H22C22.7956 4 23.5587 4.31607 24.1213 4.87868C24.6839 5.44129 25 6.20435 25 7ZM15 17C15 17.2652 15.1054 17.5196 15.2929 17.7071C15.4804 17.8946 15.7348 18 16 18C16.2652 18 16.5196 17.8946 16.7071 17.7071C16.8946 17.5196 17 17.2652 17 17V12C17 11.7348 16.8946 11.4804 16.7071 11.2929C16.5196 11.1054 16.2652 11 16 11C15.7348 11 15.4804 11.1054 15.2929 11.2929C15.1054 11.4804 15 11.7348 15 12V17ZM17.5 21.5C17.5 21.2033 17.412 20.9133 17.2472 20.6666C17.0824 20.42 16.8481 20.2277 16.574 20.1142C16.2999 20.0007 15.9983 19.9709 15.7074 20.0288C15.4164 20.0867 15.1491 20.2296 14.9393 20.4393C14.7296 20.6491 14.5867 20.9164 14.5288 21.2074C14.4709 21.4983 14.5006 21.7999 14.6142 22.074C14.7277 22.3481 14.92 22.5824 15.1666 22.7472C15.4133 22.912 15.7033 23 16 23C16.3978 23 16.7794 22.842 17.0607 22.5607C17.342 22.2794 17.5 21.8978 17.5 21.5Z" fill="#4A4A4F"/>
</svg>
