<svg width="32" height="32" viewBox="0 0 32 32" fill="none" xmlns="http://www.w3.org/2000/svg">
<path d="M27 11H25V9C25 7.67392 24.4732 6.40215 23.5355 5.46447C22.5979 4.52678 21.3261 4 20 4H18.6025C17.1138 2.725 15.1025 2 13 2C8.58875 2 5 5.14 5 9V26C5 26.5304 5.21071 27.0391 5.58579 27.4142C5.96086 27.7893 6.46957 28 7 28H23C23.5304 28 24.0391 27.7893 24.4142 27.4142C24.7893 27.0391 25 26.5304 25 26V25H27C27.7956 25 28.5587 24.6839 29.1213 24.1213C29.6839 23.5587 30 22.7956 30 22V14C30 13.2044 29.6839 12.4413 29.1213 11.8787C28.5587 11.3161 27.7956 11 27 11ZM13 23C13 23.2652 12.8946 23.5196 12.7071 23.7071C12.5196 23.8946 12.2652 24 12 24C11.7348 24 11.4804 23.8946 11.2929 23.7071C11.1054 23.5196 11 23.2652 11 23V13C11 12.7348 11.1054 12.4804 11.2929 12.2929C11.4804 12.1054 11.7348 12 12 12C12.2652 12 12.5196 12.1054 12.7071 12.2929C12.8946 12.4804 13 12.7348 13 13V23ZM19 23C19 23.2652 18.8946 23.5196 18.7071 23.7071C18.5196 23.8946 18.2652 24 18 24C17.7348 24 17.4804 23.8946 17.2929 23.7071C17.1054 23.5196 17 23.2652 17 23V13C17 12.7348 17.1054 12.4804 17.2929 12.2929C17.4804 12.1054 17.7348 12 18 12C18.2652 12 18.5196 12.1054 18.7071 12.2929C18.8946 12.4804 19 12.7348 19 13V23ZM7.125 8C7.6825 5.72 10.1062 4 13 4C14.7338 4 16.3825 4.625 17.5263 5.7225C17.7123 5.90057 17.9599 5.99997 18.2175 6H20C20.6202 6.00019 21.2251 6.19261 21.7315 6.55078C22.2379 6.90894 22.6208 7.41525 22.8275 8H7.125ZM28 22C28 22.2652 27.8946 22.5196 27.7071 22.7071C27.5196 22.8946 27.2652 23 27 23H25V13H27C27.2652 13 27.5196 13.1054 27.7071 13.2929C27.8946 13.4804 28 13.7348 28 14V22Z" fill="#4A4A4F"/>
</svg>
