<svg width="32" height="32" viewBox="0 0 32 32" fill="none" xmlns="http://www.w3.org/2000/svg">
<path d="M11.5 15H8V12H11.5C11.8978 12 12.2794 12.158 12.5607 12.4393C12.842 12.7206 13 13.1022 13 13.5C13 13.8978 12.842 14.2794 12.5607 14.5607C12.2794 14.842 11.8978 15 11.5 15ZM12 17H8V21H12C12.5304 21 13.0391 20.7893 13.4142 20.4142C13.7893 20.0391 14 19.5304 14 19C14 18.4696 13.7893 17.9609 13.4142 17.5858C13.0391 17.2107 12.5304 17 12 17ZM22 15C21.3798 15.0002 20.7749 15.1926 20.2685 15.5508C19.7621 15.9089 19.3792 16.4152 19.1725 17H24.8275C24.6208 16.4152 24.2379 15.9089 23.7315 15.5508C23.2251 15.1926 22.6202 15.0002 22 15ZM30 7V25C30 25.5304 29.7893 26.0391 29.4142 26.4142C29.0391 26.7893 28.5304 27 28 27H4C3.46957 27 2.96086 26.7893 2.58579 26.4142C2.21071 26.0391 2 25.5304 2 25V7C2 6.46957 2.21071 5.96086 2.58579 5.58579C2.96086 5.21071 3.46957 5 4 5H28C28.5304 5 29.0391 5.21071 29.4142 5.58579C29.7893 5.96086 30 6.46957 30 7ZM18 11C18 11.2652 18.1054 11.5196 18.2929 11.7071C18.4804 11.8946 18.7348 12 19 12H25C25.2652 12 25.5196 11.8946 25.7071 11.7071C25.8946 11.5196 26 11.2652 26 11C26 10.7348 25.8946 10.4804 25.7071 10.2929C25.5196 10.1054 25.2652 10 25 10H19C18.7348 10 18.4804 10.1054 18.2929 10.2929C18.1054 10.4804 18 10.7348 18 11ZM16 19C15.9997 18.3449 15.8385 17.6998 15.5305 17.1216C15.2225 16.5433 14.7772 16.0496 14.2338 15.6838C14.6448 15.1689 14.9022 14.5484 14.9764 13.8937C15.0505 13.239 14.9383 12.5767 14.6527 11.9829C14.3671 11.3892 13.9197 10.8881 13.362 10.5373C12.8043 10.1865 12.1589 10.0003 11.5 10H7C6.73478 10 6.48043 10.1054 6.29289 10.2929C6.10536 10.4804 6 10.7348 6 11V22C6 22.2652 6.10536 22.5196 6.29289 22.7071C6.48043 22.8946 6.73478 23 7 23H12C13.0609 23 14.0783 22.5786 14.8284 21.8284C15.5786 21.0783 16 20.0609 16 19ZM27 18C26.9999 16.8567 26.608 15.7479 25.8896 14.8585C25.1712 13.969 24.1696 13.3527 23.0519 13.1122C21.9341 12.8716 20.7677 13.0215 19.747 13.5367C18.7263 14.0518 17.913 14.9013 17.4427 15.9434C16.9723 16.9855 16.8733 18.1573 17.1622 19.2636C17.4511 20.3698 18.1104 21.3437 19.0302 22.0228C19.95 22.7018 21.0748 23.0452 22.217 22.9956C23.3593 22.9459 24.4501 22.5063 25.3075 21.75C25.5064 21.5745 25.6274 21.3271 25.644 21.0623C25.6605 20.7975 25.5712 20.537 25.3956 20.3381C25.3087 20.2396 25.2032 20.1592 25.0852 20.1015C24.9673 20.0438 24.839 20.0098 24.7079 20.0017C24.4432 19.9851 24.1827 20.0745 23.9837 20.25C23.6156 20.5743 23.1735 20.8034 22.6962 20.9172C22.219 21.031 21.7211 21.026 21.2462 20.9026C20.7713 20.7792 20.3339 20.5413 19.9724 20.2095C19.6109 19.8778 19.3362 19.4625 19.1725 19H26C26.2652 19 26.5196 18.8946 26.7071 18.7071C26.8946 18.5196 27 18.2652 27 18Z" fill="#4A4A4F"/>
</svg>
