<svg width="32" height="32" viewBox="0 0 32 32" fill="none" xmlns="http://www.w3.org/2000/svg">
<path d="M20.9999 27.9998C20.9999 28.265 20.8946 28.5194 20.7071 28.7069C20.5195 28.8945 20.2652 28.9998 19.9999 28.9998H11.9999C11.7347 28.9998 11.4804 28.8945 11.2928 28.7069C11.1053 28.5194 10.9999 28.265 10.9999 27.9998C10.9999 27.7346 11.1053 27.4803 11.2928 27.2927C11.4804 27.1052 11.7347 26.9998 11.9999 26.9998H19.9999C20.2652 26.9998 20.5195 27.1052 20.7071 27.2927C20.8946 27.4803 20.9999 27.7346 20.9999 27.9998ZM28.4237 7.53982C27.2998 5.34314 25.6122 3.48469 23.5337 2.15482C23.4226 2.08388 23.2987 2.03559 23.1689 2.01273C23.0391 1.98986 22.9061 1.99287 22.7775 2.02159C22.6489 2.0503 22.5272 2.10415 22.4195 2.18004C22.3117 2.25593 22.2201 2.35236 22.1497 2.4638C22.0794 2.57524 22.0318 2.69948 22.0096 2.82938C21.9874 2.95928 21.9912 3.09228 22.0206 3.22073C22.05 3.34918 22.1045 3.47056 22.181 3.57788C22.2574 3.68519 22.3544 3.77634 22.4662 3.84607C24.2494 4.98045 25.6942 6.57419 26.6487 8.45982C26.7748 8.68774 26.9849 8.85745 27.2343 8.93283C27.4836 9.00821 27.7525 8.98331 27.9838 8.86344C28.2151 8.74357 28.3905 8.53818 28.4726 8.29098C28.5548 8.04378 28.5372 7.77428 28.4237 7.53982ZM4.46369 8.99982C4.6469 8.99975 4.82656 8.94934 4.98307 8.85411C5.13958 8.75889 5.26692 8.62249 5.35119 8.45982C6.3057 6.57419 7.75047 4.98045 9.53369 3.84607C9.64551 3.77634 9.74244 3.68519 9.81891 3.57788C9.89538 3.47056 9.94989 3.34918 9.9793 3.22073C10.0087 3.09228 10.0124 2.95928 9.99028 2.82938C9.96811 2.69948 9.9205 2.57524 9.85016 2.4638C9.77982 2.35236 9.68815 2.25593 9.58042 2.18004C9.47269 2.10415 9.35102 2.0503 9.22241 2.02159C9.0938 1.99287 8.96078 1.98986 8.831 2.01273C8.70123 2.03559 8.57725 2.08388 8.46619 2.15482C6.38772 3.48469 4.7001 5.34314 3.57619 7.53982C3.49724 7.69222 3.45884 7.86238 3.46469 8.03391C3.47054 8.20545 3.52045 8.37259 3.6096 8.51926C3.69876 8.66592 3.82416 8.78717 3.97374 8.87134C4.12333 8.9555 4.29206 8.99975 4.46369 8.99982ZM25.9999 13.9998C25.9999 11.3477 24.9464 8.80412 23.071 6.92875C21.1956 5.05339 18.6521 3.99982 15.9999 3.99982C13.3478 3.99982 10.8042 5.05339 8.92887 6.92875C7.05351 8.80412 5.99994 11.3477 5.99994 13.9998C5.99994 17.2848 5.40244 20.0486 4.27369 21.9923C4.09653 22.2961 4.00261 22.6413 4.0014 22.993C4.0002 23.3446 4.09174 23.6904 4.26682 23.9954C4.44189 24.3004 4.69429 24.5539 4.99857 24.7302C5.30286 24.9066 5.64826 24.9996 5.99994 24.9998H25.9999C26.3514 24.9991 26.6965 24.9058 27.0004 24.7293C27.3044 24.5528 27.5564 24.2993 27.7312 23.9944C27.906 23.6894 27.9973 23.3438 27.996 22.9923C27.9947 22.6409 27.9007 22.2959 27.7237 21.9923C26.5974 20.0473 25.9999 17.2836 25.9999 13.9998Z" fill="#4A4A4F"/>
</svg>
