<svg width="32" height="32" viewBox="0 0 32 32" fill="none" xmlns="http://www.w3.org/2000/svg">
<path d="M6.74002 4.32738C6.6522 4.22839 6.54561 4.14781 6.42642 4.09032C6.30723 4.03282 6.17781 3.99956 6.04567 3.99245C5.91353 3.98534 5.7813 4.00453 5.65663 4.0489C5.53196 4.09328 5.41734 4.16195 5.3194 4.25095C5.22147 4.33995 5.14218 4.4475 5.08612 4.56737C5.03006 4.68724 4.99835 4.81705 4.99282 4.94926C4.9873 5.08148 5.00807 5.21348 5.05394 5.3376C5.0998 5.46173 5.16985 5.57552 5.26002 5.67238L7.35252 7.97488C6.46384 9.50022 5.99704 11.2345 6.00002 12.9999C6.00002 17.4174 4.96752 20.7974 4.27377 21.9924C4.0966 22.2962 4.00268 22.6413 4.00148 22.993C4.00027 23.3447 4.09182 23.6905 4.26689 23.9955C4.44196 24.3005 4.69437 24.554 4.99865 24.7303C5.30293 24.9066 5.64833 24.9996 6.00002 24.9999H11.1C11.3295 26.1302 11.9427 27.1464 12.8358 27.8763C13.7288 28.6062 14.8467 29.0049 16 29.0049C17.1534 29.0049 18.2713 28.6062 19.1643 27.8763C20.0573 27.1464 20.6705 26.1302 20.9 24.9999H22.83L25.26 27.6724C25.3478 27.7714 25.4544 27.8519 25.5736 27.9094C25.6928 27.9669 25.8222 28.0002 25.9544 28.0073C26.0865 28.0144 26.2187 27.9952 26.3434 27.9509C26.4681 27.9065 26.5827 27.8378 26.6806 27.7488C26.7786 27.6598 26.8579 27.5523 26.9139 27.4324C26.97 27.3125 27.0017 27.1827 27.0072 27.0505C27.0127 26.9183 26.992 26.7863 26.9461 26.6622C26.9002 26.538 26.8302 26.4242 26.74 26.3274L6.74002 4.32738ZM16 26.9999C15.3798 26.9997 14.7749 26.8073 14.2685 26.4491C13.7622 26.0909 13.3793 25.5846 13.1725 24.9999H18.8275C18.6208 25.5846 18.2379 26.0909 17.7315 26.4491C17.2252 26.8073 16.6202 26.9997 16 26.9999ZM6.00002 22.9999C6.96252 21.3449 8.00002 17.5099 8.00002 12.9999C7.99826 11.8049 8.26572 10.6248 8.78252 9.54738L21.0113 22.9999H6.00002ZM26.75 22.4086C26.6332 22.4539 26.509 22.4772 26.3838 22.4774C26.1829 22.4772 25.9868 22.4165 25.8209 22.3032C25.655 22.19 25.5271 22.0294 25.4538 21.8424C24.5438 19.5236 24 16.2186 24 12.9999C24.0004 11.6006 23.6338 10.2258 22.9368 9.01249C22.2398 7.79922 21.2367 6.78997 20.0278 6.0855C18.8188 5.38102 17.4462 5.00595 16.047 4.99773C14.6478 4.9895 13.2709 5.34841 12.0538 6.03863C11.8236 6.16333 11.5537 6.19282 11.3021 6.12077C11.0505 6.04872 10.8371 5.88086 10.7078 5.65325C10.5785 5.42564 10.5437 5.15641 10.6107 4.90337C10.6777 4.65034 10.8413 4.43367 11.0663 4.29988C12.5876 3.43694 14.3087 2.98812 16.0577 2.99821C17.8067 3.00831 19.5225 3.47696 21.0338 4.3574C22.5451 5.23784 23.7991 6.49927 24.6705 8.01577C25.5419 9.53228 26.0003 11.2508 26 12.9999C26 17.4186 27.0063 20.3236 27.315 21.1099C27.412 21.3567 27.4069 21.6319 27.3009 21.875C27.195 22.1181 26.9968 22.3091 26.75 22.4061V22.4086Z" fill="#4A4A4F"/>
</svg>
