<svg width="32" height="32" viewBox="0 0 32 32" fill="none" xmlns="http://www.w3.org/2000/svg">
<path d="M19 18C19 18.2652 18.8946 18.5196 18.7071 18.7071C18.5196 18.8946 18.2652 19 18 19H14C13.819 18.9999 13.6415 18.9507 13.4862 18.8576C13.331 18.7645 13.204 18.631 13.1187 18.4714C13.0334 18.3118 12.993 18.1321 13.0018 17.9513C13.0106 17.7705 13.0683 17.5955 13.1687 17.445L16.1312 13H14C13.7348 13 13.4804 12.8946 13.2929 12.7071C13.1053 12.5196 13 12.2652 13 12C13 11.7348 13.1053 11.4804 13.2929 11.2929C13.4804 11.1054 13.7348 11 14 11H18C18.181 11.0001 18.3585 11.0493 18.5137 11.1424C18.6689 11.2355 18.796 11.369 18.8813 11.5286C18.9666 11.6882 19.007 11.8679 18.9982 12.0487C18.9894 12.2295 18.9317 12.4045 18.8312 12.555L15.875 17H18C18.2652 17 18.5196 17.1054 18.7071 17.2929C18.8946 17.4804 19 17.7348 19 18ZM27.73 24C27.5566 24.3055 27.3049 24.5592 27.0008 24.7349C26.6967 24.9107 26.3512 25.0022 26 25H20.8987C20.668 26.1289 20.0545 27.1436 19.1618 27.8722C18.2692 28.6009 17.1523 28.9989 16 28.9989C14.8477 28.9989 13.7308 28.6009 12.8382 27.8722C11.9455 27.1436 11.332 26.1289 11.1012 25H5.99999C5.64841 24.9995 5.30317 24.9064 4.99906 24.73C4.69495 24.5535 4.44272 24.3 4.2678 23.9951C4.09288 23.6901 4.00144 23.3444 4.0027 22.9928C4.00396 22.6412 4.09788 22.2962 4.27499 21.9925C4.96874 20.7975 5.99999 17.4175 5.99999 13C5.99999 10.3478 7.05356 7.8043 8.92892 5.92893C10.8043 4.05357 13.3478 3 16 3C18.6522 3 21.1957 4.05357 23.0711 5.92893C24.9464 7.8043 26 10.3478 26 13C26 17.4163 27.0325 20.7975 27.7262 21.9925C27.9051 22.2966 27.9997 22.6429 28.0004 22.9957C28.0011 23.3486 27.9077 23.6952 27.73 24ZM18.8275 25H13.1725C13.3797 25.5843 13.7628 26.09 14.2691 26.4477C14.7754 26.8053 15.3801 26.9974 16 26.9974C16.6199 26.9974 17.2246 26.8053 17.7309 26.4477C18.2372 26.09 18.6203 25.5843 18.8275 25ZM26 23C25.0337 21.3412 24 17.5063 24 13C24 10.8783 23.1571 8.84344 21.6568 7.34315C20.1566 5.84285 18.1217 5 16 5C13.8783 5 11.8434 5.84285 10.3431 7.34315C8.84284 8.84344 7.99999 10.8783 7.99999 13C7.99999 17.5075 6.96499 21.3425 5.99999 23H26Z" fill="#4A4A4F"/>
</svg>
