<svg width="32" height="32" viewBox="0 0 32 32" fill="none" xmlns="http://www.w3.org/2000/svg">
<path d="M21 28C21 28.2652 20.8947 28.5196 20.7071 28.7071C20.5196 28.8946 20.2652 29 20 29H12C11.7348 29 11.4804 28.8946 11.2929 28.7071C11.1054 28.5196 11 28.2652 11 28C11 27.7348 11.1054 27.4804 11.2929 27.2929C11.4804 27.1054 11.7348 27 12 27H20C20.2652 27 20.5196 27.1054 20.7071 27.2929C20.8947 27.4804 21 27.7348 21 28ZM27.7263 21.9925C27.0313 20.7975 26 17.4163 26 13C26 10.3478 24.9464 7.8043 23.0711 5.92893C21.1957 4.05357 18.6522 3 16 3C13.3479 3 10.8043 4.05357 8.92895 5.92893C7.05358 7.8043 6.00002 10.3478 6.00002 13C6.00002 17.4175 4.96752 20.7975 4.27377 21.9925C4.0966 22.2963 4.00268 22.6415 4.00148 22.9931C4.00027 23.3448 4.09182 23.6906 4.26689 23.9956C4.44196 24.3006 4.69437 24.5541 4.99865 24.7304C5.30293 24.9068 5.64833 24.9997 6.00002 25H26C26.3516 24.9995 26.6968 24.9064 27.0009 24.73C27.3051 24.5535 27.5573 24.3 27.7322 23.9951C27.9071 23.6901 27.9986 23.3444 27.9973 22.9928C27.996 22.6412 27.9021 22.2962 27.725 21.9925H27.7263Z" fill="#4A4A4F"/>
</svg>
