<svg width="32" height="32" viewBox="0 0 32 32" fill="none" xmlns="http://www.w3.org/2000/svg">
<path d="M27.625 18.05C26.889 15.1619 25.1073 12.6497 22.625 11H30C30.2652 11 30.5196 10.8947 30.7071 10.7071C30.8946 10.5196 31 10.2652 31 10C31 9.73481 30.8946 9.48046 30.7071 9.29292C30.5196 9.10539 30.2652 9.00003 30 9.00003H19.875C19.6547 8.13962 19.1543 7.37699 18.4527 6.83239C17.7511 6.28779 16.8882 5.99219 16 5.99219C15.1118 5.99219 14.2489 6.28779 13.5473 6.83239C12.8457 7.37699 12.3453 8.13962 12.125 9.00003H2C1.73478 9.00003 1.48043 9.10539 1.29289 9.29292C1.10536 9.48046 1 9.73481 1 10C1 10.2652 1.10536 10.5196 1.29289 10.7071C1.48043 10.8947 1.73478 11 2 11H9.375C6.89271 12.6497 5.111 15.1619 4.375 18.05C3.66248 18.1631 2.9938 18.4668 2.43978 18.9288C1.88576 19.3909 1.46703 19.9943 1.22793 20.6749C0.988837 21.3556 0.938276 22.0882 1.08161 22.7953C1.22493 23.5023 1.55682 24.1575 2.04211 24.6913C2.5274 25.2251 3.14802 25.6177 3.83826 25.8276C4.52849 26.0375 5.26264 26.0568 5.96294 25.8834C6.66324 25.7101 7.30363 25.3506 7.81627 24.843C8.32892 24.3354 8.69475 23.6986 8.875 23H23.125C23.3053 23.6986 23.6711 24.3354 24.1837 24.843C24.6964 25.3506 25.3368 25.7101 26.0371 25.8834C26.7374 26.0568 27.4715 26.0375 28.1617 25.8276C28.852 25.6177 29.4726 25.2251 29.9579 24.6913C30.4432 24.1575 30.7751 23.5023 30.9184 22.7953C31.0617 22.0882 31.0112 21.3556 30.7721 20.6749C30.533 19.9943 30.1142 19.3909 29.5602 18.9288C29.0062 18.4668 28.3375 18.1631 27.625 18.05ZM5 24C4.60444 24 4.21776 23.8827 3.88886 23.663C3.55996 23.4432 3.30362 23.1308 3.15224 22.7654C3.00087 22.3999 2.96126 21.9978 3.03843 21.6098C3.1156 21.2219 3.30608 20.8655 3.58579 20.5858C3.86549 20.3061 4.22186 20.1156 4.60982 20.0385C4.99778 19.9613 5.39991 20.0009 5.76537 20.1523C6.13082 20.3036 6.44318 20.56 6.66294 20.8889C6.8827 21.2178 7 21.6045 7 22C7 22.5305 6.78929 23.0392 6.41421 23.4142C6.03914 23.7893 5.53043 24 5 24ZM16 8.00003C16.3956 8.00003 16.7822 8.11733 17.1111 8.33709C17.44 8.55685 17.6964 8.86921 17.8478 9.23466C17.9991 9.60012 18.0387 10.0022 17.9616 10.3902C17.8844 10.7782 17.6939 11.1345 17.4142 11.4142C17.1345 11.6939 16.7781 11.8844 16.3902 11.9616C16.0022 12.0388 15.6001 11.9992 15.2346 11.8478C14.8692 11.6964 14.5568 11.4401 14.3371 11.1112C14.1173 10.7823 14 10.3956 14 10C14 9.4696 14.2107 8.96089 14.5858 8.58582C14.9609 8.21075 15.4696 8.00003 16 8.00003ZM27 24C26.6044 24 26.2178 23.8827 25.8889 23.663C25.56 23.4432 25.3036 23.1308 25.1522 22.7654C25.0009 22.3999 24.9613 21.9978 25.0384 21.6098C25.1156 21.2219 25.3061 20.8655 25.5858 20.5858C25.8655 20.3061 26.2219 20.1156 26.6098 20.0385C26.9978 19.9613 27.3999 20.0009 27.7654 20.1523C28.1308 20.3036 28.4432 20.56 28.6629 20.8889C28.8827 21.2178 29 21.6045 29 22C29 22.5305 28.7893 23.0392 28.4142 23.4142C28.0391 23.7893 27.5304 24 27 24Z" fill="#4A4A4F"/>
</svg>
