<svg width="32" height="32" viewBox="0 0 32 32" fill="none" xmlns="http://www.w3.org/2000/svg">
<path d="M26.0002 14C25.2772 13.9997 24.5602 14.1306 23.884 14.3862L20.7415 9H24.0002C24.2654 9 24.5198 9.10536 24.7073 9.29289C24.8949 9.48043 25.0002 9.73478 25.0002 10C25.0002 10.2652 25.1056 10.5196 25.2931 10.7071C25.4806 10.8946 25.735 11 26.0002 11C26.2654 11 26.5198 10.8946 26.7073 10.7071C26.8949 10.5196 27.0002 10.2652 27.0002 10C27.0002 9.20435 26.6841 8.44129 26.1215 7.87868C25.5589 7.31607 24.7959 7 24.0002 7H19.0002C18.8249 7.0004 18.6527 7.0469 18.501 7.13483C18.3493 7.22276 18.2234 7.34903 18.1359 7.50098C18.0484 7.65294 18.0024 7.82522 18.0025 8.00057C18.0026 8.17591 18.0488 8.34815 18.1365 8.5L19.5927 11H12.4077L10.364 7.5C10.2764 7.34831 10.1505 7.22229 9.99893 7.13454C9.84734 7.04679 9.67537 7.0004 9.50022 7H6.00022C5.735 7 5.48065 7.10536 5.29311 7.29289C5.10558 7.48043 5.00022 7.73478 5.00022 8C5.00022 8.26522 5.10558 8.51957 5.29311 8.70711C5.48065 8.89464 5.735 9 6.00022 9H8.92647L10.6402 11.9388L8.67647 14.6325C7.32724 13.9573 5.77357 13.8137 4.32344 14.2301C2.87331 14.6466 1.63257 15.5927 0.847192 16.8809C0.0618095 18.1691 -0.210889 19.7054 0.0831539 21.1852C0.377196 22.665 1.21651 23.9803 2.43473 24.8704C3.65295 25.7605 5.16113 26.1604 6.66031 25.9908C8.15949 25.8212 9.54023 25.0945 10.5288 23.9548C11.5174 22.815 12.0417 21.3455 11.9977 19.8374C11.9538 18.3292 11.3448 16.8927 10.2915 15.8125L11.7402 13.825L15.6365 20.5C15.6974 20.6223 15.7826 20.7308 15.8871 20.8189C15.9915 20.9069 16.1129 20.9726 16.2437 21.012C16.3746 21.0513 16.512 21.0634 16.6477 21.0475C16.7834 21.0317 16.9144 20.9882 17.0326 20.9198C17.1509 20.8513 17.2538 20.7594 17.3351 20.6496C17.4165 20.5399 17.4744 20.4146 17.5055 20.2816C17.5365 20.1485 17.54 20.0105 17.5156 19.8761C17.4913 19.7417 17.4397 19.6137 17.364 19.5L13.574 13H20.759L22.1577 15.3962C21.0748 16.3013 20.3456 17.5592 20.0983 18.9487C19.851 20.3382 20.1015 21.7704 20.8057 22.9936C21.5098 24.2167 22.6226 25.1525 23.9484 25.6363C25.2742 26.1202 26.7282 26.1212 28.0546 25.6392C29.3811 25.1572 30.4952 24.2231 31.2011 23.0009C31.907 21.7788 32.1595 20.3469 31.9142 18.9571C31.6689 17.5672 30.9414 16.3083 29.8598 15.4017C28.7782 14.4951 27.4116 13.9988 26.0002 14ZM10.0002 20C10.0005 20.8556 9.72637 21.6887 9.2182 22.3769C8.71003 23.0652 7.99456 23.5725 7.17686 23.8241C6.35915 24.0758 5.48229 24.0587 4.67505 23.7752C3.8678 23.4918 3.17271 22.957 2.69183 22.2493C2.21096 21.5417 1.96964 20.6985 2.00332 19.8436C2.037 18.9888 2.3439 18.1672 2.87896 17.4996C3.41401 16.832 4.14903 16.3535 4.97607 16.1344C5.80311 15.9154 6.6786 15.9673 7.47397 16.2825L5.19272 19.4075C5.10966 19.5131 5.04875 19.6344 5.01362 19.7641C4.97849 19.8938 4.96986 20.0293 4.98824 20.1624C5.00663 20.2955 5.05165 20.4236 5.12063 20.5389C5.18961 20.6542 5.28112 20.7544 5.3897 20.8336C5.49828 20.9128 5.6217 20.9692 5.7526 20.9996C5.88349 21.03 6.01917 21.0338 6.15152 21.0106C6.28388 20.9873 6.41021 20.9377 6.52295 20.8646C6.63569 20.7915 6.73255 20.6964 6.80772 20.585L9.08897 17.46C9.67887 18.1749 10.0011 19.0731 10.0002 20ZM26.0002 24C25.208 23.9994 24.4337 23.7635 23.7757 23.3223C23.1176 22.8811 22.6054 22.2544 22.304 21.5217C22.0026 20.7891 21.9256 19.9834 22.0827 19.2068C22.2398 18.4303 22.624 17.7179 23.1865 17.16L25.1365 20.5C25.1974 20.6223 25.2827 20.7308 25.3871 20.8189C25.4915 20.9069 25.6129 20.9726 25.7437 21.012C25.8746 21.0513 26.012 21.0634 26.1477 21.0475C26.2834 21.0317 26.4144 20.9882 26.5326 20.9198C26.6509 20.8513 26.7538 20.7594 26.8351 20.6496C26.9165 20.5399 26.9744 20.4146 27.0055 20.2816C27.0365 20.1485 27.04 20.0105 27.0156 19.8761C26.9913 19.7417 26.9397 19.6137 26.864 19.5L24.9127 16.1513C25.4629 15.9955 26.0402 15.9595 26.6055 16.0457C27.1708 16.132 27.711 16.3384 28.1897 16.6511C28.6685 16.9639 29.0746 17.3756 29.3808 17.8586C29.6869 18.3416 29.8859 18.8846 29.9644 19.451C30.0429 20.0174 29.999 20.5941 29.8357 21.1421C29.6725 21.6902 29.3936 22.1968 29.0179 22.6279C28.6422 23.0591 28.1784 23.4046 27.6579 23.6413C27.1373 23.878 26.5721 24.0003 26.0002 24Z" fill="#4A4A4F"/>
</svg>
