<svg width="32" height="32" viewBox="0 0 32 32" fill="none" xmlns="http://www.w3.org/2000/svg">
<path d="M6.80763 20.5888L10.2914 15.8125C11.3412 16.8901 11.9479 18.3228 11.9912 19.8266C12.0345 21.3304 11.5113 22.7956 10.5253 23.9318C9.53925 25.0681 8.16235 25.7925 6.66743 25.9614C5.17251 26.1303 3.66868 25.7315 2.45395 24.844C1.23921 23.9564 0.402225 22.6449 0.108855 21.1694C-0.184516 19.6938 0.0871378 18.1619 0.869983 16.8772C1.65283 15.5925 2.88973 14.6488 4.33558 14.233C5.78143 13.8173 7.3307 13.9598 8.67638 14.6325L5.19263 19.4112C5.10957 19.5169 5.04866 19.6382 5.01353 19.7679C4.97839 19.8976 4.96976 20.033 4.98815 20.1662C5.00654 20.2993 5.05156 20.4273 5.12054 20.5426C5.18951 20.658 5.28102 20.7582 5.38961 20.8374C5.49819 20.9165 5.62161 20.973 5.7525 21.0034C5.8834 21.0338 6.01907 21.0375 6.15143 21.0143C6.28379 20.9911 6.41011 20.9415 6.52286 20.8683C6.6356 20.7952 6.73245 20.7001 6.80763 20.5888ZM26.0001 14C25.2772 13.9997 24.5601 14.1306 23.8839 14.3862L26.8639 19.5C26.9396 19.6137 26.9912 19.7417 27.0156 19.8761C27.0399 20.0105 27.0364 20.1485 27.0054 20.2816C26.9743 20.4146 26.9164 20.5399 26.835 20.6496C26.7537 20.7594 26.6508 20.8513 26.5325 20.9198C26.4143 20.9882 26.2833 21.0317 26.1476 21.0475C26.012 21.0634 25.8745 21.0513 25.7436 21.012C25.6128 20.9726 25.4914 20.9069 25.387 20.8189C25.2826 20.7308 25.1973 20.6223 25.1364 20.5L22.1576 15.3925C21.0738 16.2966 20.3434 17.5538 20.0947 18.9431C19.8461 20.3325 20.0953 21.765 20.7983 22.9888C21.5014 24.2126 22.6134 25.1494 23.9388 25.6345C25.2642 26.1196 26.7182 26.1219 28.0452 25.641C29.3721 25.1601 30.4871 24.2268 31.194 23.0053C31.901 21.7837 32.1546 20.3519 31.9104 18.9618C31.6662 17.5717 30.9398 16.3122 29.8588 15.4047C28.7778 14.4972 27.4115 13.9998 26.0001 14ZM20.7414 9H24.0001C24.2653 9 24.5197 9.10536 24.7072 9.29289C24.8948 9.48043 25.0001 9.73478 25.0001 10C25.0001 10.2652 25.1055 10.5196 25.293 10.7071C25.4806 10.8946 25.7349 11 26.0001 11C26.2653 11 26.5197 10.8946 26.7072 10.7071C26.8948 10.5196 27.0001 10.2652 27.0001 10C27.0001 9.20435 26.6841 8.44129 26.1214 7.87868C25.5588 7.31607 24.7958 7 24.0001 7H19.0001C18.8248 7.0004 18.6526 7.0469 18.5009 7.13483C18.3492 7.22276 18.2233 7.34903 18.1358 7.50098C18.0483 7.65294 18.0023 7.82522 18.0024 8.00057C18.0025 8.17591 18.0487 8.34815 18.1364 8.5L19.5926 11H12.4076L10.3639 7.5C10.2763 7.34831 10.1504 7.22229 9.99884 7.13454C9.84725 7.04679 9.67528 7.0004 9.50013 7H6.00013C5.73491 7 5.48056 7.10536 5.29302 7.29289C5.10548 7.48043 5.00013 7.73478 5.00013 8C5.00013 8.26522 5.10548 8.51957 5.29302 8.70711C5.48056 8.89464 5.73491 9 6.00013 9H8.92638L10.6401 11.9388L8.67638 14.6325C9.2771 14.9324 9.82306 15.3313 10.2914 15.8125L11.7401 13.825L15.6364 20.5C15.6973 20.6223 15.7826 20.7308 15.887 20.8189C15.9914 20.9069 16.1128 20.9726 16.2436 21.012C16.3745 21.0513 16.512 21.0634 16.6476 21.0475C16.7833 21.0317 16.9143 20.9882 17.0325 20.9198C17.1508 20.8513 17.2537 20.7594 17.335 20.6496C17.4164 20.5399 17.4743 20.4146 17.5054 20.2816C17.5364 20.1485 17.5399 20.0105 17.5156 19.8761C17.4912 19.7417 17.4396 19.6137 17.3639 19.5L13.5739 13H20.7589L22.1576 15.3962C22.6726 14.9656 23.2561 14.6242 23.8839 14.3862L20.7414 9Z" fill="#4A4A4F"/>
</svg>
