<svg width="32" height="32" viewBox="0 0 32 32" fill="none" xmlns="http://www.w3.org/2000/svg">
<path d="M29.6524 18.9875V18.975C29.6503 18.9656 29.6473 18.9564 29.6437 18.9475C29.5607 18.7211 29.4643 18.4999 29.3549 18.285L24.1587 6.475C24.1087 6.36125 24.0379 6.25781 23.9499 6.17C23.5785 5.79847 23.1375 5.50375 22.6521 5.30267C22.1668 5.1016 21.6466 4.99811 21.1212 4.99811C20.5958 4.99811 20.0756 5.1016 19.5902 5.30267C19.1049 5.50375 18.6639 5.79847 18.2924 6.17C18.1056 6.35709 18.0004 6.61057 17.9999 6.875V10H13.9999V6.875C14 6.74364 13.9743 6.61355 13.9241 6.49215C13.8739 6.37076 13.8003 6.26044 13.7074 6.1675C13.336 5.79597 12.895 5.50125 12.4096 5.30017C11.9243 5.0991 11.4041 4.99561 10.8787 4.99561C10.3533 4.99561 9.83311 5.0991 9.34775 5.30017C8.86238 5.50125 8.42139 5.79597 8.04994 6.1675C7.96201 6.25531 7.89122 6.35875 7.84119 6.4725L2.64994 18.285C2.54059 18.4999 2.44417 18.7211 2.36119 18.9475C2.35771 18.9561 2.35479 18.9648 2.35244 18.9738C2.35244 18.9738 2.35244 18.9838 2.35244 18.9875C1.83618 20.4792 1.92854 22.1142 2.60952 23.5383C3.29049 24.9624 4.50522 26.0607 5.99044 26.5953C7.47565 27.1299 9.11171 27.0577 10.544 26.3943C11.9764 25.7309 13.0896 24.5298 13.6424 23.0513C13.8859 22.3871 14.0086 21.6848 14.0049 20.9775V12H18.0049V20.9788C18.0013 21.6861 18.124 22.3884 18.3674 23.0525C18.9203 24.531 20.0335 25.7321 21.4658 26.3955C22.8982 27.0589 24.5342 27.1311 26.0194 26.5965C27.5047 26.0619 28.7194 24.9636 29.4004 23.5395C30.0813 22.1155 30.1737 20.4804 29.6574 18.9888L29.6524 18.9875ZM11.7587 22.3625C11.3894 23.3478 10.6468 24.1479 9.69168 24.5895C8.73658 25.0311 7.64595 25.0785 6.65612 24.7215C5.66629 24.3646 4.85697 23.632 4.40354 22.6824C3.95011 21.7329 3.88909 20.643 4.23369 19.6488L4.45994 19.1325C4.87578 18.3421 5.54421 17.7135 6.35872 17.3471C7.17324 16.9806 8.08697 16.8973 8.95433 17.1104C9.82169 17.3235 10.5928 17.8207 11.1447 18.5229C11.6967 19.2251 11.9977 20.0918 11.9999 20.985V21C11.9999 21.4664 11.9182 21.9292 11.7587 22.3675V22.3625ZM25.3749 24.7588C24.7703 24.9801 24.1212 25.0522 23.4827 24.9689C22.8442 24.8857 22.2353 24.6495 21.7076 24.2805C21.18 23.9115 20.7492 23.4206 20.4519 22.8495C20.1546 22.2783 19.9995 21.6439 19.9999 21V20.9863C20.0032 20.0935 20.3051 19.2276 20.8574 18.5262C21.4098 17.8249 22.1809 17.3284 23.048 17.116C23.9151 16.9035 24.8283 16.9872 25.6423 17.3538C26.4563 17.7203 27.1243 18.3487 27.5399 19.1388L27.7662 19.655C28.1219 20.6491 28.0701 21.7435 27.6221 22.6996C27.1742 23.6556 26.3664 24.3958 25.3749 24.7588Z" fill="#4A4A4F"/>
</svg>
