<svg width="32" height="32" viewBox="0 0 32 32" fill="none" xmlns="http://www.w3.org/2000/svg">
<path d="M29.5549 9.16726L26.6511 7.23226C26.1112 5.52402 24.9776 4.06549 23.4555 3.12061C21.9333 2.17573 20.1233 1.80693 18.3528 2.08093C16.5823 2.35494 14.9684 3.25365 13.8032 4.61445C12.6379 5.97524 11.9982 7.70821 11.9999 9.49976V11.6485L0.218644 26.3748C0.10086 26.5219 0.0270439 26.6993 0.00570161 26.8865C-0.0156407 27.0737 0.0163601 27.2632 0.0980157 27.4331C0.179671 27.6029 0.307658 27.7462 0.467224 27.8465C0.62679 27.9467 0.811441 27.9999 0.999894 27.9998H13.9999C17.4466 27.9961 20.7511 26.6253 23.1883 24.1881C25.6254 21.7509 26.9963 18.4465 26.9999 14.9998V12.5348L29.5549 10.8323C29.6921 10.741 29.8045 10.6172 29.8824 10.472C29.9602 10.3267 30.0009 10.1645 30.0009 9.99976C30.0009 9.83499 29.9602 9.67278 29.8824 9.52754C29.8045 9.3823 29.6921 9.25854 29.5549 9.16726ZM13.7686 17.6398L8.76864 23.6398C8.5989 23.8436 8.35512 23.9717 8.09093 23.9959C7.82674 24.02 7.56378 23.9382 7.35989 23.7685C7.15601 23.5988 7.0279 23.355 7.00376 23.0908C6.97961 22.8266 7.0614 22.5636 7.23114 22.3598L12.2311 16.3598C12.3152 16.2588 12.4183 16.1754 12.5346 16.1143C12.6509 16.0532 12.778 16.0156 12.9089 16.0036C13.0397 15.9917 13.1716 16.0056 13.297 16.0446C13.4224 16.0836 13.5389 16.147 13.6399 16.231C13.7408 16.3151 13.8243 16.4182 13.8854 16.5344C13.9465 16.6507 13.9841 16.7779 13.996 16.9087C14.008 17.0395 13.9941 17.1714 13.955 17.2969C13.916 17.4223 13.8527 17.5388 13.7686 17.6398ZM20.4999 9.99976C20.2032 9.99976 19.9132 9.91178 19.6665 9.74696C19.4199 9.58214 19.2276 9.34787 19.1141 9.07378C19.0005 8.79969 18.9708 8.49809 19.0287 8.20712C19.0866 7.91615 19.2295 7.64887 19.4392 7.4391C19.649 7.22932 19.9163 7.08646 20.2073 7.02858C20.4982 6.9707 20.7998 7.0004 21.0739 7.11394C21.348 7.22747 21.5823 7.41973 21.7471 7.6664C21.9119 7.91307 21.9999 8.20308 21.9999 8.49976C21.9999 8.89758 21.8419 9.27911 21.5606 9.56042C21.2792 9.84172 20.8977 9.99976 20.4999 9.99976Z" fill="#4A4A4F"/>
</svg>
