<svg width="32" height="32" viewBox="0 0 32 32" fill="none" xmlns="http://www.w3.org/2000/svg">
<path d="M21.9999 8.49976C21.9999 8.79643 21.9119 9.08644 21.7471 9.33311C21.5823 9.57978 21.348 9.77204 21.0739 9.88558C20.7998 9.99911 20.4982 10.0288 20.2073 9.97093C19.9163 9.91306 19.649 9.7702 19.4392 9.56042C19.2295 9.35064 19.0866 9.08336 19.0287 8.79239C18.9708 8.50142 19.0005 8.19982 19.1141 7.92573C19.2276 7.65164 19.4199 7.41737 19.6665 7.25255C19.9132 7.08773 20.2032 6.99976 20.4999 6.99976C20.8977 6.99976 21.2792 7.15779 21.5606 7.4391C21.8419 7.7204 21.9999 8.10193 21.9999 8.49976ZM15.6399 16.231C15.5392 16.1467 15.4229 16.0831 15.2976 16.0437C15.1723 16.0044 15.0404 15.9901 14.9096 16.0017C14.7788 16.0133 14.6516 16.0506 14.5351 16.1114C14.4187 16.1722 14.3154 16.2553 14.2311 16.356L9.23114 22.356C9.0614 22.5599 8.97961 22.8229 9.00376 23.087C9.0279 23.3512 9.15601 23.595 9.35989 23.7648C9.56378 23.9345 9.82674 24.0163 10.0909 23.9921C10.3551 23.968 10.5989 23.8399 10.7686 23.636L15.7686 17.636C15.9373 17.4324 16.0184 17.1702 15.9943 16.9069C15.9702 16.6436 15.8427 16.4006 15.6399 16.231ZM29.9999 9.99976C30 10.1644 29.9594 10.3266 29.8818 10.4718C29.8042 10.617 29.6919 10.7409 29.5549 10.8323L26.9999 12.5348V14.9998C26.9963 18.4465 25.6254 21.7509 23.1883 24.1881C20.7511 26.6253 17.4466 27.9961 13.9999 27.9998H0.999894C0.811441 27.9999 0.62679 27.9467 0.467224 27.8465C0.307658 27.7462 0.179671 27.6029 0.0980157 27.4331C0.0163601 27.2632 -0.0156407 27.0737 0.00570161 26.8865C0.0270439 26.6993 0.10086 26.5219 0.218644 26.3748L11.9999 11.6485V9.49976C11.9982 7.70821 12.6379 5.97524 13.8032 4.61445C14.9684 3.25365 16.5823 2.35494 18.3528 2.08093C20.1233 1.80693 21.9333 2.17573 23.4555 3.12061C24.9776 4.06549 26.1112 5.52402 26.6511 7.23226L29.5549 9.16726C29.6919 9.25865 29.8042 9.38246 29.8818 9.52769C29.9594 9.67292 30 9.83508 29.9999 9.99976ZM27.1974 9.99976L25.2374 8.69226C25.0329 8.55627 24.8857 8.34983 24.8236 8.11226C24.4875 6.81649 23.6903 5.68782 22.5815 4.93778C21.4727 4.18775 20.1284 3.86786 18.8006 4.03807C17.4728 4.20828 16.2526 4.85691 15.3689 5.86237C14.4851 6.86783 13.9984 8.1611 13.9999 9.49976V11.9998C14.0001 12.2269 13.9229 12.4473 13.7811 12.6248L3.07989 25.9998H13.9999C16.9163 25.9964 19.7122 24.8365 21.7744 22.7743C23.8366 20.7121 24.9966 17.9161 24.9999 14.9998V11.9998C24.9998 11.8351 25.0403 11.6729 25.118 11.5277C25.1956 11.3825 25.3079 11.2587 25.4449 11.1673L27.1974 9.99976Z" fill="#4A4A4F"/>
</svg>
