<svg width="32" height="32" viewBox="0 0 32 32" fill="none" xmlns="http://www.w3.org/2000/svg">
<path d="M26.6725 27.7402C26.4762 27.9186 26.2172 28.0116 25.9523 27.999C25.6874 27.9863 25.4384 27.869 25.26 27.6727L21.9538 24.0352L15.6 28.8002C15.4411 28.9193 15.2502 28.9884 15.0519 28.9986C14.8535 29.0089 14.6566 28.9598 14.4863 28.8577C14.3349 28.7625 14.2106 28.6299 14.1254 28.4727C14.0403 28.3155 13.9971 28.139 14 27.9602V18.0002L7.60001 22.8002C7.38894 22.9585 7.1239 23.0269 6.86261 22.9906C6.60133 22.9543 6.36497 22.8162 6.20501 22.6065C6.04822 22.3862 5.98397 22.1133 6.02603 21.8462C6.06809 21.5791 6.21311 21.3391 6.43001 21.1777L14.115 15.414L5.26001 5.67273C5.16984 5.57587 5.09979 5.46208 5.05393 5.33795C5.00806 5.21382 4.98729 5.08182 4.99282 4.94961C4.99834 4.81739 5.03005 4.68759 5.08611 4.56772C5.14217 4.44785 5.22146 4.3403 5.3194 4.2513C5.41733 4.1623 5.53195 4.09362 5.65662 4.04925C5.78129 4.00488 5.91352 3.98569 6.04566 3.9928C6.1778 3.99991 6.30722 4.03317 6.42641 4.09066C6.5456 4.14816 6.65219 4.22873 6.74001 4.32773L26.74 26.3277C26.9183 26.524 27.0114 26.7831 26.9988 27.048C26.9861 27.3128 26.8688 27.5619 26.6725 27.7402ZM18.0688 13.8165C18.2365 14.0003 18.4668 14.115 18.7146 14.1381C18.9624 14.1612 19.2099 14.0911 19.4088 13.9415L23.5775 10.8165C23.7525 10.6896 23.8836 10.5114 23.9525 10.3065C24.0162 10.1083 24.0164 9.89525 23.9532 9.69695C23.8901 9.49865 23.7666 9.32501 23.6 9.20022L15.6 3.20023C15.4184 3.06346 15.1957 2.99266 14.9684 2.99947C14.7412 3.00629 14.5231 3.09032 14.35 3.23773C14.2376 3.33648 14.1481 3.45853 14.0876 3.59539C14.0272 3.73225 13.9973 3.88064 14 4.03023V8.95397C14.0003 9.20224 14.093 9.44151 14.26 9.62523L18.0688 13.8165Z" fill="#4A4A4F"/>
</svg>
