<svg width="32" height="32" viewBox="0 0 32 32" fill="none" xmlns="http://www.w3.org/2000/svg">
<path d="M26.74 26.3275L6.74001 4.3275C6.65219 4.22851 6.5456 4.14793 6.42641 4.09044C6.30722 4.03295 6.1778 3.99968 6.04566 3.99257C5.91352 3.98546 5.78129 4.00465 5.65662 4.04903C5.53195 4.0934 5.41733 4.16208 5.3194 4.25107C5.22146 4.34007 5.14217 4.44762 5.08611 4.56749C5.03005 4.68736 4.99834 4.81717 4.99282 4.94938C4.98729 5.0816 5.00806 5.2136 5.05393 5.33772C5.09979 5.46185 5.16984 5.57564 5.26001 5.6725L14.115 15.4137L6.40001 21.2C6.29495 21.2788 6.20644 21.3775 6.13953 21.4905C6.07262 21.6035 6.02863 21.7286 6.01006 21.8586C5.97255 22.1211 6.04088 22.3878 6.20001 22.6C6.35914 22.8122 6.59603 22.9524 6.85859 22.99C7.12114 23.0275 7.38783 22.9591 7.60001 22.8L14 18V28C14 28.1857 14.0517 28.3678 14.1494 28.5257C14.247 28.6837 14.3867 28.8114 14.5528 28.8944C14.7189 28.9775 14.9049 29.0126 15.0898 28.996C15.2748 28.9793 15.4514 28.9114 15.6 28.8L21.9538 24.035L25.26 27.6725C25.3478 27.7715 25.4544 27.8521 25.5736 27.9096C25.6928 27.9671 25.8222 28.0003 25.9544 28.0074C26.0865 28.0145 26.2187 27.9953 26.3434 27.951C26.4681 27.9066 26.5827 27.8379 26.6806 27.7489C26.7786 27.6599 26.8578 27.5524 26.9139 27.4325C26.97 27.3126 27.0017 27.1828 27.0072 27.0506C27.0127 26.9184 26.992 26.7864 26.9461 26.6623C26.9002 26.5381 26.8302 26.4244 26.74 26.3275ZM16 26V18L17.4663 19.1L20.6013 22.5487L16 26ZM14 8.95375V4C14 3.81429 14.0517 3.63225 14.1494 3.47427C14.247 3.31629 14.3867 3.18863 14.5528 3.10557C14.7189 3.02252 14.9049 2.98736 15.0898 3.00404C15.2748 3.02072 15.4514 3.08857 15.6 3.2L23.6 9.2C23.7242 9.29315 23.825 9.41393 23.8944 9.55279C23.9639 9.69164 24 9.84476 24 10C24 10.1552 23.9639 10.3084 23.8944 10.4472C23.825 10.5861 23.7242 10.7069 23.6 10.8L19.4088 13.9438C19.1966 14.1029 18.9299 14.1712 18.6673 14.1337C18.4048 14.0962 18.1679 13.9559 18.0088 13.7437C17.8496 13.5316 17.7813 13.2649 17.8188 13.0023C17.8563 12.7398 17.9966 12.5029 18.2088 12.3438L21.3338 10L16 6V8.95375C16 9.21897 15.8947 9.47332 15.7071 9.66086C15.5196 9.84839 15.2652 9.95375 15 9.95375C14.7348 9.95375 14.4804 9.84839 14.2929 9.66086C14.1054 9.47332 14 9.21897 14 8.95375Z" fill="#4A4A4F"/>
</svg>
