<svg width="32" height="32" viewBox="0 0 32 32" fill="none" xmlns="http://www.w3.org/2000/svg">
<path d="M24 22C24 22.1552 23.9639 22.3084 23.8944 22.4472C23.825 22.5861 23.7242 22.7069 23.6 22.8L15.6 28.8C15.4269 28.9298 15.2164 29 15 29C14.7348 29 14.4804 28.8946 14.2929 28.7071C14.1054 28.5196 14 28.2652 14 28V18L7.6 22.8C7.49494 22.8788 7.37539 22.9361 7.24818 22.9687C7.12097 23.0013 6.98858 23.0085 6.85858 22.99C6.59603 22.9524 6.35913 22.8122 6.2 22.6C6.04087 22.3878 5.97254 22.1211 6.01005 21.8586C6.04756 21.596 6.18783 21.3591 6.4 21.2L13.3338 16L6.4 10.8C6.18783 10.6409 6.04756 10.404 6.01005 10.1414C5.97254 9.87887 6.04087 9.61217 6.2 9.4C6.35913 9.18783 6.59603 9.04756 6.85858 9.01005C7.12113 8.97254 7.38783 9.04087 7.6 9.2L14 14V4C14 3.81429 14.0517 3.63225 14.1494 3.47427C14.247 3.31629 14.3867 3.18863 14.5528 3.10557C14.7189 3.02252 14.9048 2.98736 15.0898 3.00404C15.2748 3.02072 15.4514 3.08857 15.6 3.2L23.6 9.2C23.7242 9.29315 23.825 9.41393 23.8944 9.55279C23.9639 9.69164 24 9.84476 24 10C24 10.1552 23.9639 10.3084 23.8944 10.4472C23.825 10.5861 23.7242 10.7069 23.6 10.8L16.6663 16L23.6 21.2C23.7242 21.2931 23.825 21.4139 23.8944 21.5528C23.9639 21.6916 24 21.8448 24 22ZM8 16C8 15.7033 7.91203 15.4133 7.74721 15.1666C7.58238 14.92 7.34811 14.7277 7.07403 14.6142C6.79994 14.5006 6.49834 14.4709 6.20737 14.5288C5.91639 14.5867 5.64912 14.7296 5.43934 14.9393C5.22956 15.1491 5.0867 15.4164 5.02882 15.7074C4.97094 15.9983 5.00065 16.2999 5.11418 16.574C5.22771 16.8481 5.41997 17.0824 5.66665 17.2472C5.91332 17.412 6.20333 17.5 6.5 17.5C6.89783 17.5 7.27936 17.342 7.56066 17.0607C7.84197 16.7794 8 16.3978 8 16ZM24.5 14.5C24.2033 14.5 23.9133 14.588 23.6666 14.7528C23.42 14.9176 23.2277 15.1519 23.1142 15.426C23.0007 15.7001 22.9709 16.0017 23.0288 16.2926C23.0867 16.5836 23.2296 16.8509 23.4393 17.0607C23.6491 17.2704 23.9164 17.4133 24.2074 17.4712C24.4983 17.5291 24.7999 17.4993 25.074 17.3858C25.3481 17.2723 25.5824 17.08 25.7472 16.8334C25.912 16.5867 26 16.2967 26 16C26 15.6022 25.842 15.2206 25.5607 14.9393C25.2794 14.658 24.8978 14.5 24.5 14.5Z" fill="#4A4A4F"/>
</svg>
