<svg width="32" height="32" viewBox="0 0 32 32" fill="none" xmlns="http://www.w3.org/2000/svg">
<path d="M24 22C24 22.1552 23.9639 22.3084 23.8944 22.4472C23.825 22.5861 23.7242 22.7069 23.6 22.8L15.6 28.8C15.4269 28.9298 15.2164 29 15 29C14.7348 29 14.4804 28.8946 14.2929 28.7071C14.1054 28.5196 14 28.2652 14 28V18L7.6 22.8C7.49495 22.8788 7.3754 22.9361 7.24819 22.9687C7.12097 23.0013 6.98858 23.0085 6.85858 22.99C6.59603 22.9524 6.35913 22.8122 6.2 22.6C6.04087 22.3878 5.97255 22.1211 6.01005 21.8586C6.04756 21.596 6.18783 21.3591 6.4 21.2L13.3338 16L6.4 10.8C6.18783 10.6409 6.04756 10.404 6.01005 10.1414C5.97255 9.87887 6.04087 9.61217 6.2 9.4C6.35913 9.18783 6.59603 9.04756 6.85858 9.01005C7.12113 8.97254 7.38783 9.04087 7.6 9.2L14 14V4C14 3.81429 14.0517 3.63225 14.1494 3.47427C14.247 3.31629 14.3867 3.18863 14.5528 3.10557C14.7189 3.02252 14.9048 2.98736 15.0898 3.00404C15.2748 3.02072 15.4514 3.08857 15.6 3.2L23.6 9.2C23.7242 9.29315 23.825 9.41393 23.8944 9.55279C23.9639 9.69164 24 9.84476 24 10C24 10.1552 23.9639 10.3084 23.8944 10.4472C23.825 10.5861 23.7242 10.7069 23.6 10.8L16.6663 16L23.6 21.2C23.7242 21.2931 23.825 21.4139 23.8944 21.5528C23.9639 21.6916 24 21.8448 24 22Z" fill="#4A4A4F"/>
</svg>
