<svg width="32" height="32" viewBox="0 0 32 32" fill="none" xmlns="http://www.w3.org/2000/svg">
<path d="M23.9999 22.0002C23.9999 22.1555 23.9637 22.3086 23.8943 22.4474C23.8249 22.5863 23.7241 22.7071 23.5999 22.8002L15.5999 28.8002C15.4268 28.93 15.2163 29.0002 14.9999 29.0002C14.8188 29.0007 14.6411 28.9514 14.4861 28.8577C14.3344 28.7629 14.2097 28.6304 14.1243 28.4731C14.0389 28.3159 13.9956 28.1392 13.9986 27.9602V18.0002L7.59489 22.8002C7.38383 22.9585 7.11879 23.0269 6.8575 22.9906C6.59622 22.9543 6.35985 22.8162 6.19989 22.6065C6.04279 22.3863 5.97835 22.1133 6.02042 21.8461C6.0625 21.5789 6.20773 21.3389 6.42489 21.1777L13.3324 16.0002L6.42239 10.8215C6.21396 10.6692 6.07072 10.4439 6.02135 10.1906C5.97198 9.93722 6.02012 9.67458 6.15614 9.45522C6.23119 9.34073 6.32895 9.24286 6.44337 9.16768C6.55778 9.0925 6.68642 9.04162 6.8213 9.01818C6.95618 8.99475 7.09444 8.99925 7.22751 9.03143C7.36057 9.0636 7.48562 9.12276 7.59489 9.20522L13.9999 14.0002V4.03023C13.9974 3.88031 14.0278 3.73166 14.0889 3.59474C14.15 3.45782 14.2404 3.33596 14.3536 3.23773C14.5267 3.09032 14.7448 3.00629 14.9721 2.99947C15.1993 2.99266 15.4221 3.06346 15.6036 3.20023L19.8061 6.35022C19.8671 6.39745 19.9163 6.45812 19.9499 6.52751C19.9835 6.5969 20.0006 6.67313 19.9999 6.75023V13.2502C19.9999 13.3278 19.9818 13.4044 19.9471 13.4738C19.9124 13.5433 19.862 13.6037 19.7999 13.6502L16.6674 16.0002L23.6049 21.2002C23.7282 21.2939 23.828 21.4149 23.8966 21.5537C23.9651 21.6926 24.0005 21.8454 23.9999 22.0002ZM29.6836 12.2665L27.4211 10.0002L29.6849 7.73647C29.8754 7.55207 29.9871 7.3011 29.9966 7.03617C30.0062 6.77123 29.9128 6.51287 29.7361 6.31523C29.6444 6.21755 29.534 6.13929 29.4115 6.08511C29.2889 6.03093 29.1568 6.00193 29.0228 5.99984C28.8888 5.99774 28.7558 6.02258 28.6316 6.0729C28.5074 6.12321 28.3946 6.19797 28.2999 6.29273L26.0061 8.58648L23.7411 6.32273C23.5564 6.13246 23.3052 6.02091 23.0402 6.01136C22.7751 6.00181 22.5166 6.095 22.3186 6.27147C22.221 6.36319 22.1427 6.47359 22.0885 6.59614C22.0344 6.71868 22.0054 6.85087 22.0033 6.98484C22.0012 7.11881 22.026 7.25183 22.0763 7.37601C22.1266 7.50019 22.2014 7.613 22.2961 7.70773L24.5911 10.0002L22.3224 12.2665C22.1379 12.4461 22.0278 12.6885 22.0139 12.9456C22 13.2027 22.0834 13.4555 22.2474 13.654C22.3372 13.758 22.4475 13.8424 22.5715 13.9019C22.6954 13.9614 22.8302 13.9947 22.9676 13.9997C23.1049 14.0048 23.2418 13.9814 23.3698 13.9312C23.4977 13.881 23.6139 13.8049 23.7111 13.7077L26.0061 11.414L28.2999 13.7077C28.3971 13.8051 28.5134 13.8813 28.6415 13.9317C28.7695 13.9821 28.9066 14.0054 29.0441 14.0004C29.1816 13.9954 29.3166 13.962 29.4406 13.9024C29.5647 13.8428 29.6751 13.7582 29.7649 13.654C29.9285 13.4553 30.0115 13.2024 29.9973 12.9454C29.9832 12.6884 29.873 12.4461 29.6886 12.2665H29.6836Z" fill="#4A4A4F"/>
</svg>
