<svg width="32" height="32" viewBox="0 0 32 32" fill="none" xmlns="http://www.w3.org/2000/svg">
<path d="M23.6 21.2L16.6663 16L23.6 10.8C23.7242 10.7069 23.825 10.5861 23.8944 10.4472C23.9639 10.3084 24 10.1552 24 10C24 9.84476 23.9639 9.69164 23.8944 9.55279C23.825 9.41393 23.7242 9.29315 23.6 9.2L15.6 3.2C15.4514 3.08857 15.2748 3.02072 15.0898 3.00404C14.9048 2.98736 14.7189 3.02252 14.5528 3.10557C14.3867 3.18863 14.247 3.31629 14.1494 3.47427C14.0517 3.63225 14 3.81429 14 4V14L7.6 9.2C7.38783 9.04087 7.12113 8.97254 6.85858 9.01005C6.59603 9.04756 6.35913 9.18783 6.2 9.4C6.04087 9.61217 5.97255 9.87887 6.01005 10.1414C6.04756 10.404 6.18783 10.6409 6.4 10.8L13.3338 16L6.4 21.2C6.29495 21.2788 6.20644 21.3775 6.13953 21.4905C6.07262 21.6035 6.02863 21.7286 6.01005 21.8586C5.97255 22.1211 6.04087 22.3878 6.2 22.6C6.35913 22.8122 6.59603 22.9524 6.85858 22.99C7.12113 23.0275 7.38783 22.9591 7.6 22.8L14 18V28C14 28.1857 14.0517 28.3678 14.1494 28.5257C14.247 28.6837 14.3867 28.8114 14.5528 28.8944C14.7189 28.9775 14.9048 29.0126 15.0898 28.996C15.2748 28.9793 15.4514 28.9114 15.6 28.8L23.6 22.8C23.7242 22.7069 23.825 22.5861 23.8944 22.4472C23.9639 22.3084 24 22.1552 24 22C24 21.8448 23.9639 21.6916 23.8944 21.5528C23.825 21.4139 23.7242 21.2931 23.6 21.2ZM16 6L21.3338 10L16 14V6ZM16 26V18L21.3338 22L16 26Z" fill="#4A4A4F"/>
</svg>
