<svg width="32" height="32" viewBox="0 0 32 32" fill="none" xmlns="http://www.w3.org/2000/svg">
<path d="M27.6325 13.8287L26 13.2837V7C26 6.46957 25.7893 5.96086 25.4142 5.58579C25.0391 5.21071 24.5304 5 24 5H17V3C17 2.73478 16.8946 2.48043 16.7071 2.29289C16.5196 2.10536 16.2652 2 16 2C15.7348 2 15.4804 2.10536 15.2929 2.29289C15.1054 2.48043 15 2.73478 15 3V5H8C7.46957 5 6.96086 5.21071 6.58579 5.58579C6.21072 5.96086 6 6.46957 6 7V13.2837L4.3675 13.8287C3.96906 13.9616 3.62255 14.2165 3.3771 14.5573C3.13164 14.8981 2.99971 15.3075 3 15.7275V20.0125C2.99973 20.1051 3.01278 20.1973 3.03875 20.2862C5.00375 27.1725 13.8038 29.5437 15.5475 29.9487C15.8453 30.0171 16.1547 30.0171 16.4525 29.9487C18.1963 29.5437 26.9963 27.1725 28.9613 20.2862C28.9872 20.1973 29.0003 20.1051 29 20.0125V15.7275C29.0003 15.3075 28.8684 14.8981 28.6229 14.5573C28.3775 14.2165 28.0309 13.9616 27.6325 13.8287ZM17 21C17 21.2652 16.8946 21.5196 16.7071 21.7071C16.5196 21.8946 16.2652 22 16 22C15.7348 22 15.4804 21.8946 15.2929 21.7071C15.1054 21.5196 15 21.2652 15 21V14C15 13.7348 15.1054 13.4804 15.2929 13.2929C15.4804 13.1054 15.7348 13 16 13C16.2652 13 16.5196 13.1054 16.7071 13.2929C16.8946 13.4804 17 13.7348 17 14V21ZM24 12.6163L16.3163 10.0513C16.111 9.98282 15.889 9.98282 15.6838 10.0513L8 12.6163V7H24V12.6163Z" fill="#4A4A4F"/>
</svg>
