<svg width="32" height="32" viewBox="0 0 32 32" fill="none" xmlns="http://www.w3.org/2000/svg">
<path d="M28.8901 13.465C28.187 14.2716 27.2188 14.8005 26.1602 14.9563C25.1016 15.1122 24.0221 14.8847 23.1163 14.315C23.1123 14.3134 23.1079 14.3134 23.1038 14.315L14.3101 23.11C14.3101 23.11 14.3101 23.11 14.3101 23.12C14.6664 23.6939 14.8889 24.3407 14.9611 25.0123C15.0333 25.684 14.9534 26.3633 14.7273 26.9999C14.5011 27.6364 14.1346 28.2139 13.6548 28.6894C13.175 29.165 12.5943 29.5264 11.9558 29.7469C11.3173 29.9674 10.6373 30.0414 9.9663 29.9632C9.2953 29.8851 8.65051 29.6568 8.07976 29.2955C7.509 28.9341 7.02692 28.4489 6.66928 27.8758C6.31165 27.3027 6.08762 26.6565 6.01383 25.985C5.34235 25.9112 4.69608 25.6872 4.12299 25.3295C3.5499 24.9719 3.06467 24.4898 2.70332 23.919C2.34196 23.3483 2.11374 22.7035 2.03559 22.0325C1.95744 21.3615 2.03135 20.6815 2.25186 20.043C2.47237 19.4045 2.83381 18.8238 3.30936 18.344C3.78492 17.8642 4.36239 17.4977 4.99895 17.2715C5.63551 17.0454 6.31481 16.9655 6.98647 17.0377C7.65813 17.1099 8.30491 17.3324 8.87883 17.6887C8.88286 17.6903 8.88731 17.6903 8.89133 17.6887L17.6851 8.89372C17.6851 8.89372 17.6851 8.89372 17.6851 8.88372C17.3288 8.30979 17.1063 7.66301 17.0341 6.99135C16.9618 6.31969 17.0418 5.64039 17.2679 5.00383C17.494 4.36728 17.8606 3.7898 18.3404 3.31425C18.8201 2.83869 19.4008 2.47725 20.0394 2.25674C20.6779 2.03624 21.3579 1.96232 22.0289 2.04047C22.6999 2.11862 23.3447 2.34684 23.9154 2.7082C24.4862 3.06956 24.9682 3.55478 25.3259 4.12787C25.6835 4.70097 25.9075 5.34723 25.9813 6.01872C26.8021 6.10511 27.5833 6.41555 28.2394 6.91607C28.8956 7.41659 29.4015 8.08792 29.7018 8.85663C30.0021 9.62535 30.0852 10.4618 29.942 11.2746C29.7989 12.0874 29.4349 12.8451 28.8901 13.465Z" fill="#4A4A4F"/>
</svg>
