<svg width="32" height="32" viewBox="0 0 32 32" fill="none" xmlns="http://www.w3.org/2000/svg">
<path d="M28.9587 7.61122C28.2121 6.71215 27.1435 6.14063 25.9812 6.01872C25.9074 5.34723 25.6834 4.70097 25.3258 4.12787C24.9681 3.55478 24.4861 3.06956 23.9153 2.7082C23.3445 2.34684 22.6998 2.11862 22.0288 2.04047C21.3578 1.96232 20.6778 2.03624 20.0392 2.25674C19.4007 2.47725 18.82 2.83869 18.3403 3.31425C17.8605 3.7898 17.4939 4.36728 17.2678 5.00383C17.0416 5.64039 16.9617 6.31969 17.0339 6.99135C17.1062 7.66301 17.3287 8.30979 17.685 8.88372C17.6855 8.88703 17.6855 8.89041 17.685 8.89372L8.89622 17.6887C8.89622 17.6887 8.89622 17.6887 8.88372 17.6887C8.30979 17.3324 7.66301 17.1099 6.99135 17.0377C6.31969 16.9655 5.64039 17.0454 5.00383 17.2715C4.36728 17.4977 3.7898 17.8642 3.31425 18.344C2.83869 18.8238 2.47725 19.4045 2.25674 20.043C2.03624 20.6815 1.96232 21.3615 2.04047 22.0325C2.11862 22.7035 2.34684 23.3483 2.7082 23.919C3.06956 24.4898 3.55478 24.9719 4.12787 25.3295C4.70097 25.6872 5.34723 25.9112 6.01872 25.985C6.09251 26.6565 6.31653 27.3027 6.67417 27.8758C7.0318 28.4489 7.51388 28.9341 8.08464 29.2955C8.6554 29.6568 9.30018 29.8851 9.97118 29.9632C10.6422 30.0414 11.3222 29.9674 11.9607 29.7469C12.5992 29.5264 13.1799 29.165 13.6597 28.6894C14.1395 28.2139 14.506 27.6364 14.7322 26.9999C14.9583 26.3633 15.0382 25.684 14.966 25.0123C14.8938 24.3407 14.6713 23.6939 14.315 23.12C14.3147 23.1166 14.3147 23.1133 14.315 23.11L23.1087 14.315C23.1087 14.315 23.1087 14.315 23.1212 14.315C24.0293 14.887 25.112 15.1155 26.1738 14.9595C27.2357 14.8034 28.2068 14.273 28.9119 13.4639C29.6171 12.6548 30.0098 11.6203 30.0193 10.5471C30.0288 9.47392 29.6544 8.43266 28.9637 7.61122H28.9587ZM27.3875 12.145C26.9964 12.5927 26.4586 12.8865 25.8706 12.9735C25.2825 13.0606 24.6827 12.9352 24.1787 12.62C23.795 12.3765 23.3399 12.271 22.8882 12.3207C22.4365 12.3705 22.0152 12.5726 21.6937 12.8937L12.8937 21.6937C12.5733 22.0158 12.3722 22.4374 12.3233 22.8891C12.2745 23.3407 12.3809 23.7956 12.625 24.1787C12.8378 24.5211 12.9647 24.9098 12.9948 25.3118C13.0249 25.7139 12.9574 26.1172 12.7979 26.4874C12.6385 26.8577 12.3919 27.1839 12.0791 27.4382C11.7663 27.6926 11.3967 27.8675 11.0017 27.9481C10.6067 28.0287 10.1981 28.0126 9.81066 27.9012C9.42324 27.7897 9.06852 27.5863 8.77674 27.3081C8.48496 27.0299 8.26477 26.6853 8.13496 26.3037C8.00515 25.922 7.96955 25.5146 8.03122 25.1162C8.05361 24.9735 8.04481 24.8276 8.0054 24.6885C7.966 24.5495 7.89694 24.4207 7.80297 24.3109C7.70899 24.2011 7.59235 24.113 7.46106 24.0527C7.32978 23.9923 7.18697 23.9611 7.04247 23.9612C6.99098 23.9617 6.9396 23.9658 6.88872 23.9737C6.49074 24.0349 6.08387 23.9991 5.70272 23.8692C5.32157 23.7394 4.97741 23.5195 4.69953 23.2281C4.42165 22.9367 4.21827 22.5824 4.10669 22.1956C3.9951 21.8087 3.97862 21.4006 4.05864 21.0059C4.13866 20.6113 4.31281 20.2419 4.56628 19.929C4.81976 19.6161 5.14505 19.3691 5.51449 19.209C5.88393 19.0488 6.28658 18.9803 6.6882 19.0092C7.08982 19.0381 7.47851 19.1636 7.82122 19.375C8.20491 19.6184 8.66007 19.724 9.11176 19.6742C9.56345 19.6245 9.98472 19.4224 10.3062 19.1012L19.1062 10.3012C19.4254 9.97945 19.6258 9.55882 19.6746 9.10825C19.7234 8.65768 19.6178 8.20389 19.375 7.82122C19.1621 7.47885 19.0352 7.09009 19.0051 6.68809C18.975 6.28608 19.0426 5.88276 19.202 5.5125C19.3614 5.14224 19.6081 4.81603 19.9208 4.56169C20.2336 4.30735 20.6032 4.13241 20.9982 4.0518C21.3932 3.97119 21.8019 3.9873 22.1893 4.09874C22.5767 4.21019 22.9314 4.41368 23.2232 4.69185C23.515 4.97002 23.7352 5.31462 23.865 5.69628C23.9948 6.07794 24.0304 6.48533 23.9687 6.88372C23.9444 7.03931 23.9571 7.19844 24.006 7.34817C24.0548 7.4979 24.1382 7.63398 24.2496 7.74533C24.361 7.85669 24.497 7.94017 24.6468 7.98898C24.7965 8.03779 24.9556 8.05055 25.1112 8.02622C25.6203 7.94384 26.1424 8.02091 26.6059 8.24685C27.0695 8.47279 27.4518 8.83656 27.7005 9.2883C27.9493 9.74004 28.0522 10.2576 27.9953 10.7702C27.9383 11.2827 27.7243 11.7651 27.3825 12.1512L27.3875 12.145Z" fill="#4A4A4F"/>
</svg>
