<svg width="32" height="32" viewBox="0 0 32 32" fill="none" xmlns="http://www.w3.org/2000/svg">
<path d="M28 6H20C19.2238 6 18.4582 6.18073 17.7639 6.52786C17.0697 6.875 16.4657 7.37902 16 8C15.5343 7.37902 14.9303 6.875 14.2361 6.52786C13.5418 6.18073 12.7762 6 12 6H4C3.46957 6 2.96086 6.21071 2.58579 6.58579C2.21071 6.96086 2 7.46957 2 8V24C2 24.5304 2.21071 25.0391 2.58579 25.4142C2.96086 25.7893 3.46957 26 4 26H12C12.7956 26 13.5587 26.3161 14.1213 26.8787C14.6839 27.4413 15 28.2044 15 29C15 29.2652 15.1054 29.5196 15.2929 29.7071C15.4804 29.8946 15.7348 30 16 30C16.2652 30 16.5196 29.8946 16.7071 29.7071C16.8946 29.5196 17 29.2652 17 29C17 28.2044 17.3161 27.4413 17.8787 26.8787C18.4413 26.3161 19.2044 26 20 26H28C28.5304 26 29.0391 25.7893 29.4142 25.4142C29.7893 25.0391 30 24.5304 30 24V8C30 7.46957 29.7893 6.96086 29.4142 6.58579C29.0391 6.21071 28.5304 6 28 6ZM12 24H4V8H12C12.7956 8 13.5587 8.31607 14.1213 8.87868C14.6839 9.44129 15 10.2044 15 11V25C14.1353 24.3493 13.0821 23.9983 12 24ZM28 24H20C18.9179 23.9983 17.8647 24.3493 17 25V11C17 10.2044 17.3161 9.44129 17.8787 8.87868C18.4413 8.31607 19.2044 8 20 8H28V24Z" fill="#4A4A4F"/>
</svg>
