<svg width="32" height="32" viewBox="0 0 32 32" fill="none" xmlns="http://www.w3.org/2000/svg">
<path d="M20 7H8C7.46957 7 6.96086 7.21071 6.58579 7.58579C6.21071 7.96086 6 8.46957 6 9V28C6 28.1837 6.05061 28.3639 6.1463 28.5208C6.24199 28.6776 6.37904 28.8051 6.54241 28.8892C6.70579 28.9733 6.88917 29.0107 7.07243 28.9974C7.25569 28.9841 7.43174 28.9205 7.58125 28.8137L14 24.2288L20.42 28.8137C20.5695 28.9202 20.7454 28.9835 20.9285 28.9966C21.1116 29.0097 21.2947 28.9722 21.4579 28.8882C21.621 28.8041 21.7579 28.6768 21.8536 28.5201C21.9492 28.3635 21.9998 28.1835 22 28V9C22 8.46957 21.7893 7.96086 21.4142 7.58579C21.0391 7.21071 20.5304 7 20 7Z" fill="#4A4A4F"/>
<path d="M24 3H11C10.7348 3 10.4804 3.10536 10.2929 3.29289C10.1054 3.48043 10 3.73478 10 4C10 4.26522 10.1054 4.51957 10.2929 4.70711C10.4804 4.89464 10.7348 5 11 5H24V24C24 24.2652 24.1054 24.5196 24.2929 24.7071C24.4804 24.8946 24.7348 25 25 25C25.2652 25 25.5196 24.8946 25.7071 24.7071C25.8946 24.5196 26 24.2652 26 24V5C26 4.46957 25.7893 3.96086 25.4142 3.58579C25.0391 3.21071 24.5304 3 24 3Z" fill="#4A4A4F"/>
</svg>
