<svg width="32" height="32" viewBox="0 0 32 32" fill="none" xmlns="http://www.w3.org/2000/svg">
<path d="M24.0001 14.0002H14.0338C13.7758 14.0036 13.5259 13.9093 13.3346 13.736C13.1433 13.5628 13.0247 13.3236 13.0026 13.0664C12.9935 12.9298 13.0126 12.7929 13.0586 12.6639C13.1046 12.535 13.1766 12.417 13.2701 12.317C13.3636 12.217 13.4767 12.1373 13.6022 12.0828C13.7278 12.0283 13.8632 12.0002 14.0001 12.0002H19.5001C19.6327 12.0002 19.7599 11.9475 19.8536 11.8537C19.9474 11.76 20.0001 11.6328 20.0001 11.5002V10.5002C20.0001 10.3676 19.9474 10.2404 19.8536 10.1466C19.7599 10.0528 19.6327 10.0002 19.5001 10.0002H14.0338C13.7753 10.0043 13.5249 9.9102 13.333 9.7369C13.1412 9.56361 13.0222 9.324 13.0001 9.06642C12.991 8.92963 13.0101 8.79244 13.0563 8.66336C13.1025 8.53428 13.1747 8.41607 13.2685 8.31608C13.3623 8.21609 13.4756 8.13645 13.6014 8.0821C13.7273 8.02775 13.863 7.99987 14.0001 8.00017H19.5001C19.6327 8.00017 19.7599 7.94749 19.8536 7.85372C19.9474 7.75995 20.0001 7.63278 20.0001 7.50017V7.00017C20.0001 6.46973 19.7894 5.96103 19.4143 5.58595C19.0392 5.21088 18.5305 5.00017 18.0001 5.00017H4.02758C3.79901 4.99605 3.57559 5.06818 3.39258 5.20517C3.22107 5.33631 3.09662 5.51943 3.03781 5.72717C2.979 5.9349 2.98901 6.15609 3.06633 6.35767C4.44883 9.96267 4.16133 16.8214 3.03883 20.7239C3.01307 20.8137 3.00002 20.9067 3.00008 21.0002V25.0002C3.00008 25.5306 3.21079 26.0393 3.58586 26.4144C3.96093 26.7895 4.46964 27.0002 5.00008 27.0002H8.26383C8.57452 27.0002 8.88095 26.9279 9.15882 26.7889L10.7363 26.0002H12.7638L14.3413 26.7889C14.6192 26.9279 14.9256 27.0002 15.2363 27.0002H18.7638C19.0745 27.0002 19.381 26.9279 19.6588 26.7889L21.2363 26.0002H23.2638L24.8413 26.7889C25.1192 26.9279 25.4256 27.0002 25.7363 27.0002H29.0001C29.5305 27.0002 30.0392 26.7895 30.4143 26.4144C30.7894 26.0393 31.0001 25.5306 31.0001 25.0002V21.0002C31.0001 19.1437 30.2626 17.3632 28.9498 16.0504C27.6371 14.7377 25.8566 14.0002 24.0001 14.0002ZM29.0001 25.0002H25.7363L24.1588 24.2114C23.881 24.0724 23.5745 24.0001 23.2638 24.0002H21.2363C20.9256 24.0001 20.6192 24.0724 20.3413 24.2114L18.7638 25.0002H15.2363L13.6588 24.2114C13.3809 24.0724 13.0745 24.0001 12.7638 24.0002H10.7363C10.4256 24.0001 10.1192 24.0724 9.84133 24.2114L8.26383 25.0002H5.00008V22.0002H29.0001V25.0002Z" fill="#4A4A4F"/>
</svg>
