<svg width="32" height="32" viewBox="0 0 32 32" fill="none" xmlns="http://www.w3.org/2000/svg">
<path d="M28 13.0002H26.9538C26.7025 10.2688 25.4398 7.72977 23.4134 5.88118C21.3869 4.0326 18.7429 3.00781 16 3.00781C13.2571 3.00781 10.6131 4.0326 8.58664 5.88118C6.5602 7.72977 5.29752 10.2688 5.04625 13.0002H4C3.73478 13.0002 3.48043 13.1055 3.29289 13.2931C3.10536 13.4806 3 13.7349 3 14.0002C3.00439 16.3783 3.65887 18.71 4.89264 20.7431C6.12641 22.7762 7.89253 24.4333 10 25.5352V26.0002C10 26.5306 10.2107 27.0393 10.5858 27.4144C10.9609 27.7894 11.4696 28.0002 12 28.0002H20C20.5304 28.0002 21.0391 27.7894 21.4142 27.4144C21.7893 27.0393 22 26.5306 22 26.0002V25.5352C24.1075 24.4333 25.8736 22.7762 27.1074 20.7431C28.3411 18.71 28.9956 16.3783 29 14.0002C29 13.7349 28.8946 13.4806 28.7071 13.2931C28.5196 13.1055 28.2652 13.0002 28 13.0002ZM21.685 7.02891C21.9142 7.21641 22.1338 7.41433 22.3438 7.62266C19.6817 8.5591 17.4819 10.4837 16.2 12.9977H12.5125C13.1375 11.2457 14.2882 9.72942 15.8073 8.65597C17.3264 7.58252 19.1399 7.00425 21 7.00016C21.2288 7.00016 21.4575 7.01141 21.685 7.02891ZM18.515 13.0002C19.7274 11.1813 21.5616 9.86705 23.6737 9.30391C24.3643 10.4272 24.7976 11.6895 24.9425 13.0002H18.515ZM16 5.00016C16.8025 5.00069 17.6012 5.10874 18.375 5.32141C16.4905 5.78888 14.7626 6.74484 13.3653 8.09294C11.9681 9.44104 10.9509 11.1336 10.4163 13.0002H7.0575C7.30556 10.8012 8.35415 8.7705 10.0034 7.29509C11.6526 5.81968 13.7871 5.00279 16 5.00016Z" fill="#4A4A4F"/>
</svg>
