<svg width="32" height="32" viewBox="0 0 32 32" fill="none" xmlns="http://www.w3.org/2000/svg">
<path d="M5.39756 16C5.82134 16.3486 6.16282 16.7865 6.39756 17.2825C6.99756 18.52 6.99756 20.0325 6.99756 21.5C6.99756 24.5387 7.12256 26 9.99756 26C10.2628 26 10.5171 26.1054 10.7047 26.2929C10.8922 26.4804 10.9976 26.7348 10.9976 27C10.9976 27.2652 10.8922 27.5196 10.7047 27.7071C10.5171 27.8946 10.2628 28 9.99756 28C7.81256 28 6.33256 27.2325 5.59756 25.7175C4.99756 24.48 4.99756 22.9675 4.99756 21.5C4.99756 18.4613 4.87256 17 1.99756 17C1.73234 17 1.47799 16.8946 1.29045 16.7071C1.10292 16.5196 0.997559 16.2652 0.997559 16C0.997559 15.7348 1.10292 15.4804 1.29045 15.2929C1.47799 15.1054 1.73234 15 1.99756 15C4.87256 15 4.99756 13.5387 4.99756 10.5C4.99756 9.035 4.99756 7.52 5.59756 6.2825C6.33506 4.7675 7.81506 4 10.0001 4C10.2653 4 10.5196 4.10536 10.7072 4.29289C10.8947 4.48043 11.0001 4.73478 11.0001 5C11.0001 5.26522 10.8947 5.51957 10.7072 5.70711C10.5196 5.89464 10.2653 6 10.0001 6C7.12506 6 7.00006 7.46125 7.00006 10.5C7.00006 11.965 7.00006 13.48 6.40006 14.7175C6.1646 15.2137 5.82225 15.6517 5.39756 16ZM30.0001 15C27.1251 15 27.0001 13.5387 27.0001 10.5C27.0001 9.035 27.0001 7.52 26.4001 6.2825C25.6651 4.7675 24.1851 4 22.0001 4C21.7348 4 21.4805 4.10536 21.293 4.29289C21.1054 4.48043 21.0001 4.73478 21.0001 5C21.0001 5.26522 21.1054 5.51957 21.293 5.70711C21.4805 5.89464 21.7348 6 22.0001 6C24.8751 6 25.0001 7.46125 25.0001 10.5C25.0001 11.965 25.0001 13.48 25.6001 14.7175C25.8348 15.2135 26.1763 15.6514 26.6001 16C26.1763 16.3486 25.8348 16.7865 25.6001 17.2825C25.0001 18.52 25.0001 20.0325 25.0001 21.5C25.0001 24.5387 24.8751 26 22.0001 26C21.7348 26 21.4805 26.1054 21.293 26.2929C21.1054 26.4804 21.0001 26.7348 21.0001 27C21.0001 27.2652 21.1054 27.5196 21.293 27.7071C21.4805 27.8946 21.7348 28 22.0001 28C24.1851 28 25.6651 27.2325 26.4001 25.7175C27.0001 24.48 27.0001 22.9675 27.0001 21.5C27.0001 18.4613 27.1251 17 30.0001 17C30.2653 17 30.5196 16.8946 30.7072 16.7071C30.8947 16.5196 31.0001 16.2652 31.0001 16C31.0001 15.7348 30.8947 15.4804 30.7072 15.2929C30.5196 15.1054 30.2653 15 30.0001 15Z" fill="#4A4A4F"/>
</svg>
