<svg width="32" height="32" viewBox="0 0 32 32" fill="none" xmlns="http://www.w3.org/2000/svg">
<path d="M5 16C5 23.2862 9.33375 26.0312 9.51875 26.145C9.74584 26.282 9.90918 26.5037 9.97282 26.7612C10.0365 27.0187 9.99521 27.291 9.85812 27.5181C9.72104 27.7452 9.49936 27.9085 9.24185 27.9721C8.98434 28.0358 8.71209 27.9945 8.485 27.8575C8.26125 27.7225 3 24.4687 3 16C3 7.5312 8.26125 4.27745 8.485 4.14245C8.71186 4.01116 8.9812 3.97419 9.23504 4.0395C9.48888 4.1048 9.70694 4.26716 9.84227 4.49163C9.97761 4.7161 10.0194 4.98473 9.95866 5.2397C9.89792 5.49468 9.7395 5.71561 9.5175 5.85495C9.3175 5.9787 5 8.72745 5 16ZM23.515 4.14245C23.2879 4.00537 23.0157 3.96411 22.7582 4.02775C22.5006 4.0914 22.279 4.25473 22.1419 4.48183C22.0048 4.70892 21.9635 4.98116 22.0272 5.23867C22.0908 5.49619 22.2542 5.71787 22.4813 5.85495C22.6663 5.9687 27 8.7137 27 16C27 23.2862 22.6663 26.0312 22.485 26.1425C22.2576 26.279 22.0937 26.5004 22.0295 26.7578C21.9653 27.0152 22.0059 27.2875 22.1425 27.5149C22.2791 27.7424 22.5004 27.9062 22.7578 27.9705C23.0152 28.0347 23.2876 27.994 23.515 27.8575C23.7387 27.7225 29 24.4687 29 16C29 7.5312 23.7387 4.27745 23.515 4.14245Z" fill="#4A4A4F"/>
</svg>
