<svg width="32" height="32" viewBox="0 0 32 32" fill="none" xmlns="http://www.w3.org/2000/svg">
<path d="M31 15.5C30.9986 14.1754 30.6223 12.8783 29.9144 11.7587C29.2065 10.6391 28.196 9.74291 27 9.17375V9C26.9988 7.71152 26.5829 6.45764 25.8138 5.42389C25.0447 4.39014 23.9632 3.63143 22.7294 3.26003C21.4957 2.88863 20.1751 2.92427 18.9631 3.36168C17.7512 3.79909 16.7122 4.61502 16 5.68875C15.2877 4.61502 14.2488 3.79909 13.0368 3.36168C11.8248 2.92427 10.5043 2.88863 9.27048 3.26003C8.03669 3.63143 6.95523 4.39014 6.18612 5.42389C5.41702 6.45764 5.00111 7.71152 4.99996 9V9.17375C3.80288 9.74136 2.79146 10.637 2.08322 11.7567C1.37499 12.8763 0.999023 14.1739 0.999023 15.4987C0.999023 16.8236 1.37499 18.1212 2.08322 19.2408C2.79146 20.3605 3.80288 21.2561 4.99996 21.8237V22C5.00111 23.2885 5.41702 24.5424 6.18612 25.5761C6.95523 26.6099 8.03669 27.3686 9.27048 27.74C10.5043 28.1114 11.8248 28.0757 13.0368 27.6383C14.2488 27.2009 15.2877 26.385 16 25.3113C16.7122 26.385 17.7512 27.2009 18.9631 27.6383C20.1751 28.0757 21.4957 28.1114 22.7294 27.74C23.9632 27.3686 25.0447 26.6099 25.8138 25.5761C26.5829 24.5424 26.9988 23.2885 27 22V21.8237C28.1958 21.255 29.2062 20.3592 29.9141 19.2401C30.622 18.121 30.9985 16.8242 31 15.5ZM11 26C10.0136 25.9999 9.06216 25.6353 8.32824 24.9764C7.59433 24.3175 7.12974 23.4106 7.02371 22.43C7.34709 22.4761 7.67331 22.4995 7.99996 22.5H8.99996C9.26518 22.5 9.51953 22.3946 9.70707 22.2071C9.8946 22.0196 9.99996 21.7652 9.99996 21.5C9.99996 21.2348 9.8946 20.9804 9.70707 20.7929C9.51953 20.6054 9.26518 20.5 8.99996 20.5H7.99996C6.81941 20.5014 5.67645 20.085 4.77343 19.3246C3.87042 18.5641 3.2656 17.5087 3.06606 16.3451C2.86652 15.1816 3.08513 13.9849 3.68318 12.9671C4.28123 11.9492 5.22015 11.1758 6.33371 10.7838C6.52855 10.7148 6.69723 10.5871 6.81654 10.4183C6.93585 10.2495 6.99993 10.0479 6.99996 9.84125V9C6.99996 7.93913 7.42139 6.92172 8.17153 6.17157C8.92168 5.42143 9.93909 5 11 5C12.0608 5 13.0782 5.42143 13.8284 6.17157C14.5785 6.92172 15 7.93913 15 9V17.5325C13.9019 16.5449 12.4769 15.9989 11 16C10.7347 16 10.4804 16.1054 10.2929 16.2929C10.1053 16.4804 9.99996 16.7348 9.99996 17C9.99996 17.2652 10.1053 17.5196 10.2929 17.7071C10.4804 17.8946 10.7347 18 11 18C12.0608 18 13.0782 18.4214 13.8284 19.1716C14.5785 19.9217 15 20.9391 15 22C15 23.0609 14.5785 24.0783 13.8284 24.8284C13.0782 25.5786 12.0608 26 11 26ZM24 20.5H23C22.7347 20.5 22.4804 20.6054 22.2929 20.7929C22.1053 20.9804 22 21.2348 22 21.5C22 21.7652 22.1053 22.0196 22.2929 22.2071C22.4804 22.3946 22.7347 22.5 23 22.5H24C24.3266 22.4995 24.6528 22.4761 24.9762 22.43C24.8931 23.1983 24.5893 23.9262 24.1013 24.5255C23.6134 25.1248 22.9623 25.5699 22.2268 25.807C21.4913 26.0442 20.7028 26.0632 19.9567 25.8617C19.2106 25.6603 18.5388 25.247 18.0226 24.6719C17.5064 24.0967 17.1679 23.3844 17.0479 22.621C16.9279 21.8575 17.0317 21.0757 17.3466 20.3699C17.6615 19.6642 18.1742 19.0648 18.8225 18.6442C19.4709 18.2237 20.2271 17.9999 21 18C21.2652 18 21.5195 17.8946 21.7071 17.7071C21.8946 17.5196 22 17.2652 22 17C22 16.7348 21.8946 16.4804 21.7071 16.2929C21.5195 16.1054 21.2652 16 21 16C19.5231 15.9989 18.0981 16.5449 17 17.5325V9C17 7.93913 17.4214 6.92172 18.1715 6.17157C18.9217 5.42143 19.9391 5 21 5C22.0608 5 23.0782 5.42143 23.8284 6.17157C24.5785 6.92172 25 7.93913 25 9V9.84125C25 10.0479 25.0641 10.2495 25.1834 10.4183C25.3027 10.5871 25.4714 10.7148 25.6662 10.7838C26.7798 11.1758 27.7187 11.9492 28.3167 12.9671C28.9148 13.9849 29.1334 15.1816 28.9339 16.3451C28.7343 17.5087 28.1295 18.5641 27.2265 19.3246C26.3235 20.085 25.1805 20.5014 24 20.5ZM26 14C26 14.2652 25.8946 14.5196 25.7071 14.7071C25.5195 14.8946 25.2652 15 25 15H24.5C23.3065 15 22.1619 14.5259 21.318 13.682C20.4741 12.8381 20 11.6935 20 10.5V10C20 9.73478 20.1053 9.48043 20.2929 9.29289C20.4804 9.10536 20.7347 9 21 9C21.2652 9 21.5195 9.10536 21.7071 9.29289C21.8946 9.48043 22 9.73478 22 10V10.5C22 11.163 22.2634 11.7989 22.7322 12.2678C23.201 12.7366 23.8369 13 24.5 13H25C25.2652 13 25.5195 13.1054 25.7071 13.2929C25.8946 13.4804 26 13.7348 26 14ZM7.49996 15H6.99996C6.73474 15 6.48039 14.8946 6.29285 14.7071C6.10532 14.5196 5.99996 14.2652 5.99996 14C5.99996 13.7348 6.10532 13.4804 6.29285 13.2929C6.48039 13.1054 6.73474 13 6.99996 13H7.49996C8.163 13 8.79889 12.7366 9.26773 12.2678C9.73657 11.7989 9.99996 11.163 9.99996 10.5V10C9.99996 9.73478 10.1053 9.48043 10.2929 9.29289C10.4804 9.10536 10.7347 9 11 9C11.2652 9 11.5195 9.10536 11.7071 9.29289C11.8946 9.48043 12 9.73478 12 10V10.5C12 11.6935 11.5259 12.8381 10.6819 13.682C9.83803 14.5259 8.69344 15 7.49996 15Z" fill="#4A4A4F"/>
</svg>
