<svg width="32" height="32" viewBox="0 0 32 32" fill="none" xmlns="http://www.w3.org/2000/svg">
<path d="M26.5001 9.5V9C26.4988 7.91656 26.1775 6.85764 25.5766 5.95612C24.9757 5.0546 24.1219 4.35065 23.1223 3.9326C22.1228 3.51454 21.022 3.40101 19.9582 3.60625C18.8944 3.81149 17.9149 4.32636 17.1426 5.08625C17.0969 5.13229 17.0608 5.18693 17.0363 5.247C17.0119 5.30707 16.9996 5.37139 17.0001 5.43625V16.5263C17.0003 16.6164 17.0249 16.7048 17.0713 16.7821C17.1177 16.8594 17.1841 16.9227 17.2635 16.9654C17.3429 17.0081 17.4324 17.0285 17.5225 17.0244C17.6125 17.0204 17.6998 16.9921 17.7751 16.9425C18.726 16.3328 19.8306 16.0059 20.9601 16C21.2216 15.9951 21.475 16.0907 21.6682 16.2669C21.8614 16.4431 21.9797 16.6867 21.9988 16.9475C22.006 17.0832 21.9854 17.2189 21.9383 17.3463C21.8913 17.4738 21.8188 17.5903 21.7252 17.6888C21.6316 17.7873 21.5189 17.8657 21.3941 17.9192C21.2692 17.9727 21.1347 18.0002 20.9988 18C19.938 18 18.9206 18.4214 18.1704 19.1716C17.4203 19.9217 16.9988 20.9391 16.9988 22V26.235C16.9987 26.3098 17.0154 26.3837 17.0477 26.4512C17.0799 26.5187 17.1269 26.5781 17.1851 26.625C17.8947 27.2123 18.7302 27.628 19.6266 27.8398C20.523 28.0516 21.4562 28.0539 22.3536 27.8464C23.2511 27.6388 24.0885 27.2272 24.801 26.6433C25.5134 26.0595 26.0816 25.3192 26.4613 24.48C26.4996 24.3956 26.5136 24.3023 26.5019 24.2104C26.4901 24.1185 26.4531 24.0316 26.3949 23.9595C26.3367 23.8875 26.2596 23.833 26.1722 23.8022C26.0849 23.7713 25.9906 23.7654 25.9001 23.785C25.2769 23.9278 24.6395 24 24.0001 24H23.0338C22.7759 24.0032 22.5262 23.9087 22.3349 23.7355C22.1437 23.5624 22.025 23.3233 22.0026 23.0662C21.9935 22.9295 22.0127 22.7923 22.0588 22.6632C22.105 22.5341 22.1772 22.4159 22.271 22.3159C22.3648 22.2159 22.4781 22.1363 22.604 22.0819C22.7298 22.0276 22.8655 21.9997 23.0026 22H24.0026C25.0474 22.0016 26.0769 21.7494 27.0026 21.265C28.0989 20.694 29.0096 19.8223 29.6281 18.7521C30.2465 17.6819 30.5469 16.4576 30.4942 15.2226C30.4415 13.9877 30.0377 12.7934 29.3303 11.7798C28.6228 10.7663 27.6411 9.9754 26.5001 9.5ZM25.0001 14H24.5001C23.3066 14 22.162 13.5259 21.3181 12.682C20.4742 11.8381 20.0001 10.6935 20.0001 9.5V9C20.0001 8.73478 20.1055 8.48043 20.293 8.29289C20.4805 8.10536 20.7349 8 21.0001 8C21.2653 8 21.5197 8.10536 21.7072 8.29289C21.8947 8.48043 22.0001 8.73478 22.0001 9V9.5C22.0001 9.82831 22.0648 10.1534 22.1904 10.4567C22.316 10.76 22.5002 11.0356 22.7323 11.2678C23.2012 11.7366 23.8371 12 24.5001 12H25.0001C25.2653 12 25.5197 12.1054 25.7072 12.2929C25.8947 12.4804 26.0001 12.7348 26.0001 13C26.0001 13.2652 25.8947 13.5196 25.7072 13.7071C25.5197 13.8946 25.2653 14 25.0001 14ZM11.0001 3.5C9.54192 3.50165 8.14393 4.08165 7.11284 5.11274C6.08175 6.14383 5.50175 7.54182 5.5001 9V9.5C4.35926 9.97565 3.37769 10.7667 2.6705 11.7805C1.96331 12.7942 1.55981 13.9885 1.50733 15.2234C1.45485 16.4583 1.75555 17.6826 2.37419 18.7527C2.99282 19.8228 3.90373 20.6943 5.0001 21.265C5.92581 21.7494 6.95533 22.0016 8.0001 22H8.96635C9.22477 21.9962 9.47504 22.0904 9.66683 22.2636C9.85862 22.4368 9.9777 22.6763 10.0001 22.9338C10.0092 23.0705 9.99004 23.2077 9.94387 23.3368C9.8977 23.4659 9.82548 23.5841 9.7317 23.6841C9.63792 23.7841 9.52458 23.8637 9.39873 23.9181C9.27287 23.9724 9.13719 24.0003 9.0001 24H8.0001C7.3602 24.0003 6.72234 23.9277 6.09885 23.7838C6.00837 23.764 5.91418 23.7698 5.82679 23.8004C5.73939 23.8311 5.66223 23.8854 5.60391 23.9574C5.54558 24.0293 5.50838 24.116 5.49645 24.2079C5.48452 24.2997 5.49833 24.3931 5.53635 24.4775C5.91602 25.3169 6.48415 26.0574 7.19658 26.6415C7.909 27.2256 8.74654 27.6376 9.64408 27.8453C10.5416 28.0531 11.475 28.0511 12.3716 27.8394C13.2682 27.6278 14.104 27.2122 14.8138 26.625C14.8721 26.5781 14.9191 26.5187 14.9513 26.4512C14.9835 26.3837 15.0002 26.3098 15.0001 26.235V22C15.0001 20.9391 14.5787 19.9217 13.8285 19.1716C13.0784 18.4214 12.061 18 11.0001 18C10.8642 18.0002 10.7298 17.9727 10.6049 17.9192C10.48 17.8657 10.3673 17.7873 10.2738 17.6888C10.1802 17.5903 10.1077 17.4738 10.0606 17.3463C10.0136 17.2189 9.99297 17.0832 10.0001 16.9475C10.0192 16.6865 10.1378 16.4427 10.3312 16.2665C10.5247 16.0902 10.7784 15.9948 11.0401 16C12.1696 16.0059 13.2742 16.3328 14.2251 16.9425C14.3004 16.9921 14.3877 17.0204 14.4777 17.0244C14.5678 17.0285 14.6573 17.0081 14.7367 16.9654C14.8161 16.9227 14.8825 16.8594 14.9289 16.7821C14.9753 16.7048 14.9999 16.6164 15.0001 16.5263V5.43625C15.0005 5.305 14.9494 5.17884 14.8576 5.085C13.8308 4.06903 12.4445 3.49942 11.0001 3.5ZM12.0001 9.5C12.0001 10.6935 11.526 11.8381 10.6821 12.682C9.83817 13.5259 8.69357 14 7.5001 14H7.0001C6.73488 14 6.48053 13.8946 6.29299 13.7071C6.10546 13.5196 6.0001 13.2652 6.0001 13C6.0001 12.7348 6.10546 12.4804 6.29299 12.2929C6.48053 12.1054 6.73488 12 7.0001 12H7.5001C7.8284 12 8.15349 11.9353 8.45681 11.8097C8.76012 11.6841 9.03572 11.4999 9.26787 11.2678C9.50001 11.0356 9.68416 10.76 9.8098 10.4567C9.93544 10.1534 10.0001 9.82831 10.0001 9.5V9C10.0001 8.73478 10.1055 8.48043 10.293 8.29289C10.4805 8.10536 10.7349 8 11.0001 8C11.2653 8 11.5197 8.10536 11.7072 8.29289C11.8947 8.48043 12.0001 8.73478 12.0001 9V9.5Z" fill="#4A4A4F"/>
</svg>
