<svg width="32" height="32" viewBox="0 0 32 32" fill="none" xmlns="http://www.w3.org/2000/svg">
<path d="M28 11C28.0032 8.67559 27.3285 6.40068 26.0588 4.45375C25.9679 4.31444 25.8437 4.19998 25.6975 4.12075C25.5513 4.04152 25.3876 4.00002 25.2213 4H6.77876C6.61244 4.00002 6.44875 4.04152 6.30252 4.12075C6.15628 4.19998 6.03211 4.31444 5.94126 4.45375C4.67148 6.40068 3.99687 8.67559 4.00001 11C4.00365 14.0084 5.13572 16.9059 7.17246 19.1199C9.2092 21.334 12.0024 22.7034 15 22.9575V27H11C10.7348 27 10.4804 27.1054 10.2929 27.2929C10.1054 27.4804 10 27.7348 10 28C10 28.2652 10.1054 28.5196 10.2929 28.7071C10.4804 28.8946 10.7348 29 11 29H21C21.2652 29 21.5196 28.8946 21.7071 28.7071C21.8947 28.5196 22 28.2652 22 28C22 27.7348 21.8947 27.4804 21.7071 27.2929C21.5196 27.1054 21.2652 27 21 27H17V22.9575C19.9976 22.7034 22.7908 21.334 24.8276 19.1199C26.8643 16.9059 27.9964 14.0084 28 11ZM7.33751 6H24.6625C25.3718 7.22635 25.8108 8.59015 25.95 10H6.05001C6.18922 8.59015 6.6282 7.22635 7.33751 6Z" fill="#4A4A4F"/>
</svg>
