<svg width="32" height="32" viewBox="0 0 32 32" fill="none" xmlns="http://www.w3.org/2000/svg">
<path d="M29 20H28V15.0625C28.2038 15.1637 28.4112 15.2587 28.625 15.345C28.8698 15.4393 29.1418 15.4337 29.3825 15.3293C29.6232 15.2249 29.8132 15.0301 29.9116 14.7869C30.0099 14.5437 30.0088 14.2716 29.9085 14.0293C29.8081 13.7869 29.6165 13.5937 29.375 13.4913C28.0799 12.9714 26.9706 12.0748 26.1906 10.9175C25.4106 9.76026 24.9959 8.39556 25 7C25 6.73478 24.8946 6.48043 24.7071 6.29289C24.5196 6.10536 24.2652 6 24 6C23.7348 6 23.4804 6.10536 23.2929 6.29289C23.1054 6.48043 23 6.73478 23 7C23 8.85652 22.2625 10.637 20.9497 11.9497C19.637 13.2625 17.8565 14 16 14C14.1435 14 12.363 13.2625 11.0503 11.9497C9.7375 10.637 9 8.85652 9 7C9 6.73478 8.89464 6.48043 8.70711 6.29289C8.51957 6.10536 8.26522 6 8 6C7.73478 6 7.48043 6.10536 7.29289 6.29289C7.10536 6.48043 7 6.73478 7 7C7.00413 8.39556 6.58938 9.76026 5.8094 10.9175C5.02942 12.0748 3.92012 12.9714 2.625 13.4913C2.38349 13.5937 2.1919 13.7869 2.09154 14.0293C1.99117 14.2716 1.99006 14.5437 2.08845 14.7869C2.18683 15.0301 2.37684 15.2249 2.6175 15.3293C2.85817 15.4337 3.13021 15.4393 3.375 15.345C3.58875 15.2587 3.79625 15.1637 4 15.0625V20H3.075C2.28625 20 2 20.5975 2 21C2 21.2652 2.10536 21.5196 2.29289 21.7071C2.48043 21.8946 2.73478 22 3 22H7V25C7 25.2652 7.10536 25.5196 7.29289 25.7071C7.48043 25.8946 7.73478 26 8 26C8.26522 26 8.51957 25.8946 8.70711 25.7071C8.89464 25.5196 9 25.2652 9 25V22H23V25C23 25.2652 23.1054 25.5196 23.2929 25.7071C23.4804 25.8946 23.7348 26 24 26C24.2652 26 24.5196 25.8946 24.7071 25.7071C24.8946 25.5196 25 25.2652 25 25V22H29C29.2652 22 29.5196 21.8946 29.7071 21.7071C29.8946 21.5196 30 21.2652 30 21C30 20.7348 29.8946 20.4804 29.7071 20.2929C29.5196 20.1054 29.2652 20 29 20ZM9 19C9 19.2652 8.89464 19.5196 8.70711 19.7071C8.51957 19.8946 8.26522 20 8 20C7.73478 20 7.48043 19.8946 7.29289 19.7071C7.10536 19.5196 7 19.2652 7 19V13.4187C7 13.1535 7.10536 12.8992 7.29289 12.7116C7.48043 12.5241 7.73478 12.4187 8 12.4187C8.26522 12.4187 8.51957 12.5241 8.70711 12.7116C8.89464 12.8992 9 13.1535 9 13.4187V19ZM14 19C14 19.2652 13.8946 19.5196 13.7071 19.7071C13.5196 19.8946 13.2652 20 13 20C12.7348 20 12.4804 19.8946 12.2929 19.7071C12.1054 19.5196 12 19.2652 12 19V16.4188C12 16.1535 12.1054 15.8992 12.2929 15.7116C12.4804 15.5241 12.7348 15.4187 13 15.4187C13.2652 15.4187 13.5196 15.5241 13.7071 15.7116C13.8946 15.8992 14 16.1535 14 16.4188V19ZM20 19C20 19.2652 19.8946 19.5196 19.7071 19.7071C19.5196 19.8946 19.2652 20 19 20C18.7348 20 18.4804 19.8946 18.2929 19.7071C18.1054 19.5196 18 19.2652 18 19V16.4188C18 16.1535 18.1054 15.8992 18.2929 15.7116C18.4804 15.5241 18.7348 15.4187 19 15.4187C19.2652 15.4187 19.5196 15.5241 19.7071 15.7116C19.8946 15.8992 20 16.1535 20 16.4188V19ZM25 19C25 19.2652 24.8946 19.5196 24.7071 19.7071C24.5196 19.8946 24.2652 20 24 20C23.7348 20 23.4804 19.8946 23.2929 19.7071C23.1054 19.5196 23 19.2652 23 19V13.4187C23 13.1535 23.1054 12.8992 23.2929 12.7116C23.4804 12.5241 23.7348 12.4187 24 12.4187C24.2652 12.4187 24.5196 12.5241 24.7071 12.7116C24.8946 12.8992 25 13.1535 25 13.4187V19Z" fill="#4A4A4F"/>
</svg>
