<svg width="32" height="32" viewBox="0 0 32 32" fill="none" xmlns="http://www.w3.org/2000/svg">
<path d="M20.9998 16C20.9998 16.9889 20.7066 17.9556 20.1572 18.7779C19.6078 19.6001 18.8269 20.241 17.9132 20.6194C16.9996 20.9979 15.9943 21.0969 15.0244 20.9039C14.0545 20.711 13.1636 20.2348 12.4643 19.5355C11.765 18.8363 11.2888 17.9454 11.0959 16.9755C10.903 16.0056 11.002 15.0002 11.3804 14.0866C11.7589 13.173 12.3997 12.3921 13.222 11.8427C14.0442 11.2933 15.0109 11 15.9998 11C17.3259 11 18.5977 11.5268 19.5354 12.4645C20.473 13.4022 20.9998 14.6739 20.9998 16ZM25.9998 16C26.0028 13.5398 25.0959 11.1655 23.4536 9.33376C23.3667 9.23353 23.2607 9.15158 23.1418 9.0927C23.023 9.03382 22.8935 8.99917 22.7612 8.99079C22.6288 8.98241 22.496 9.00045 22.3707 9.04387C22.2453 9.08729 22.1299 9.15522 22.031 9.2437C21.9322 9.33218 21.8519 9.43944 21.7949 9.55924C21.7379 9.67903 21.7054 9.80897 21.6991 9.94148C21.6928 10.074 21.713 10.2064 21.7584 10.3311C21.8038 10.4557 21.8735 10.5701 21.9636 10.6675C23.2753 12.1342 24.0005 14.0329 24.0005 16.0006C24.0005 17.9684 23.2753 19.8671 21.9636 21.3338C21.7917 21.5321 21.7046 21.79 21.7212 22.052C21.7378 22.3139 21.8567 22.5588 22.0522 22.7339C22.2478 22.9089 22.5043 23.0001 22.7665 22.9877C23.0287 22.9753 23.2754 22.8603 23.4536 22.6675C25.0957 20.8352 26.0026 18.4605 25.9998 16ZM10.0361 10.6675C10.1261 10.5701 10.1959 10.4557 10.2413 10.3311C10.2867 10.2064 10.3068 10.074 10.3006 9.94148C10.2943 9.80897 10.2617 9.67903 10.2047 9.55924C10.1477 9.43944 10.0675 9.33218 9.96863 9.2437C9.86979 9.15522 9.75433 9.08729 9.62898 9.04387C9.50362 9.00045 9.37089 8.98241 9.23849 8.99079C9.1061 8.99917 8.97669 9.03382 8.85782 9.0927C8.73894 9.15158 8.63297 9.23353 8.54607 9.33376C6.90456 11.1664 5.99688 13.5403 5.99688 16.0006C5.99688 18.461 6.90456 20.8348 8.54607 22.6675C8.72421 22.8603 8.97099 22.9753 9.23316 22.9877C9.49533 23.0001 9.75187 22.9089 9.94743 22.7339C10.143 22.5588 10.2619 22.3139 10.2785 22.052C10.2951 21.79 10.208 21.5321 10.0361 21.3338C8.72302 19.8677 7.99697 17.9688 7.99697 16.0006C7.99697 14.0325 8.72302 12.1336 10.0361 10.6675ZM29.8211 10.1675C29.0892 8.42944 28.0348 6.8457 26.7136 5.50001C26.6225 5.40265 26.5129 5.32448 26.3912 5.27009C26.2695 5.21571 26.1381 5.18621 26.0048 5.18334C25.8715 5.18046 25.739 5.20427 25.6151 5.25335C25.4911 5.30244 25.3782 5.37581 25.283 5.46916C25.1879 5.5625 25.1123 5.67394 25.0608 5.79691C25.0093 5.91988 24.983 6.05191 24.9832 6.18522C24.9835 6.31854 25.0105 6.45045 25.0625 6.5732C25.1145 6.69596 25.1905 6.80707 25.2861 6.90001C27.6695 9.32831 29.0048 12.595 29.0048 15.9975C29.0048 19.4001 27.6695 22.6667 25.2861 25.095C25.1938 25.1887 25.1209 25.2997 25.0716 25.4216C25.0222 25.5435 24.9973 25.674 24.9984 25.8055C24.9994 25.937 25.0264 26.067 25.0777 26.1881C25.129 26.3092 25.2036 26.419 25.2973 26.5113C25.3911 26.6035 25.502 26.6764 25.6239 26.7258C25.7458 26.7751 25.8763 26.8 26.0078 26.799C26.1393 26.7979 26.2693 26.771 26.3904 26.7197C26.5115 26.6684 26.6213 26.5937 26.7136 26.5C28.7839 24.3858 30.1833 21.7071 30.7362 18.8002C31.289 15.8933 30.9707 12.8878 29.8211 10.1613V10.1675ZM4.02107 21.06C3.02188 18.698 2.74437 16.093 3.22353 13.5736C3.70269 11.0541 4.91707 8.73283 6.71357 6.90251C6.89956 6.71322 7.00272 6.45779 7.00038 6.19243C6.99803 5.92706 6.89037 5.6735 6.70107 5.48751C6.51178 5.30153 6.25635 5.19836 5.99098 5.20071C5.72562 5.20305 5.47206 5.31072 5.28607 5.50001C2.5338 8.30192 0.991699 12.0725 0.991699 16C0.991699 19.9276 2.5338 23.6981 5.28607 26.5C5.37714 26.5974 5.48675 26.6756 5.60847 26.7299C5.73019 26.7843 5.86156 26.8138 5.99484 26.8167C6.12812 26.8196 6.26064 26.7958 6.38459 26.7467C6.50854 26.6976 6.62142 26.6242 6.7166 26.5309C6.81178 26.4375 6.88734 26.3261 6.93882 26.2031C6.99031 26.0801 7.01669 25.9481 7.0164 25.8148C7.01612 25.6815 6.98919 25.5496 6.93718 25.4268C6.88517 25.3041 6.80915 25.193 6.71357 25.1C5.56943 23.9351 4.65588 22.5644 4.02107 21.06Z" fill="#4A4A4F"/>
</svg>
