<svg width="32" height="32" viewBox="0 0 32 32" fill="none" xmlns="http://www.w3.org/2000/svg">
<path d="M15.9998 11C15.0109 11 14.0442 11.2933 13.222 11.8427C12.3997 12.3921 11.7589 13.173 11.3804 14.0866C11.002 15.0002 10.903 16.0056 11.0959 16.9755C11.2888 17.9454 11.765 18.8363 12.4643 19.5355C13.1636 20.2348 14.0545 20.711 15.0244 20.9039C15.9943 21.0969 16.9996 20.9979 17.9132 20.6194C18.8269 20.241 19.6078 19.6001 20.1572 18.7779C20.7066 17.9556 20.9998 16.9889 20.9998 16C20.9998 14.6739 20.473 13.4022 19.5354 12.4645C18.5977 11.5268 17.3259 11 15.9998 11ZM15.9998 19C15.4065 19 14.8265 18.8241 14.3331 18.4944C13.8398 18.1648 13.4552 17.6962 13.2282 17.1481C13.0011 16.5999 12.9417 15.9967 13.0575 15.4147C13.1732 14.8328 13.4589 14.2983 13.8785 13.8787C14.2981 13.4591 14.8326 13.1734 15.4146 13.0577C15.9965 12.9419 16.5997 13.0013 17.1479 13.2284C17.6961 13.4554 18.1646 13.84 18.4942 14.3333C18.8239 14.8267 18.9998 15.4067 18.9998 16C18.9998 16.7957 18.6838 17.5587 18.1211 18.1213C17.5585 18.6839 16.7955 19 15.9998 19ZM25.2136 19.8925C24.7839 20.9082 24.1892 21.8459 23.4536 22.6675C23.2754 22.8603 23.0287 22.9753 22.7665 22.9877C22.5043 23.0001 22.2478 22.9089 22.0522 22.7339C21.8567 22.5588 21.7378 22.3139 21.7212 22.052C21.7046 21.79 21.7917 21.5321 21.9636 21.3338C23.2766 19.8677 24.0027 17.9688 24.0027 16.0006C24.0027 14.0325 23.2766 12.1336 21.9636 10.6675C21.8735 10.5701 21.8038 10.4557 21.7584 10.3311C21.713 10.2064 21.6928 10.074 21.6991 9.94148C21.7054 9.80897 21.7379 9.67903 21.7949 9.55924C21.8519 9.43944 21.9322 9.33218 22.031 9.2437C22.1299 9.15522 22.2453 9.08729 22.3707 9.04387C22.496 9.00045 22.6288 8.98241 22.7612 8.99079C22.8935 8.99917 23.023 9.03382 23.1418 9.0927C23.2607 9.15158 23.3667 9.23353 23.4536 9.33376C24.7163 10.7467 25.552 12.489 25.8635 14.3581C26.1751 16.2272 25.9497 18.1464 25.2136 19.8925ZM8.62482 12.8863C8.0348 14.283 7.85384 15.8186 8.10303 17.3142C8.35223 18.8098 9.02131 20.2038 10.0323 21.3338C10.2042 21.5321 10.2913 21.79 10.2747 22.052C10.2581 22.3139 10.1392 22.5588 9.94368 22.7339C9.74812 22.9089 9.49158 23.0001 9.22941 22.9877C8.96724 22.9753 8.72046 22.8603 8.54232 22.6675C6.90056 20.835 5.9927 18.4611 5.9927 16.0006C5.9927 13.5402 6.90056 11.1663 8.54232 9.33376C8.71919 9.13568 8.9675 9.01597 9.23263 9.00097C9.49776 8.98596 9.75799 9.0769 9.95607 9.25376C10.1542 9.43063 10.2739 9.67894 10.2889 9.94407C10.3039 10.2092 10.2129 10.4694 10.0361 10.6675C9.44607 11.3239 8.96917 12.0737 8.62482 12.8863ZM30.9998 16C31.0059 19.9272 29.4662 23.699 26.7136 26.5C26.6225 26.5974 26.5129 26.6756 26.3912 26.7299C26.2695 26.7843 26.1381 26.8138 26.0048 26.8167C25.8715 26.8196 25.739 26.7958 25.6151 26.7467C25.4911 26.6976 25.3782 26.6242 25.283 26.5309C25.1879 26.4375 25.1123 26.3261 25.0608 26.2031C25.0093 26.0801 24.983 25.9481 24.9832 25.8148C24.9835 25.6815 25.0105 25.5496 25.0625 25.4268C25.1145 25.3041 25.1905 25.193 25.2861 25.1C27.6695 22.6717 29.0048 19.4051 29.0048 16.0025C29.0048 12.6 27.6695 9.33331 25.2861 6.90501C25.0998 6.71572 24.9963 6.46016 24.9984 6.19456C25.0005 5.92896 25.108 5.67508 25.2973 5.48876C25.4866 5.30245 25.7422 5.19896 26.0078 5.20107C26.2734 5.20318 26.5273 5.31072 26.7136 5.50001C29.4662 8.30105 31.0059 12.0728 30.9998 16ZM6.71357 25.0975C6.80566 25.1912 6.87839 25.3022 6.9276 25.424C6.97681 25.5459 7.00154 25.6762 7.00038 25.8076C6.99922 25.939 6.97219 26.0689 6.92083 26.1898C6.86948 26.3108 6.7948 26.4204 6.70107 26.5125C6.60734 26.6046 6.49639 26.6773 6.37455 26.7265C6.25272 26.7758 6.12238 26.8005 5.99098 26.7993C5.85959 26.7982 5.72971 26.7711 5.60876 26.7198C5.48781 26.6684 5.37816 26.5937 5.28607 26.5C2.5338 23.6981 0.991699 19.9276 0.991699 16C0.991699 12.0725 2.5338 8.30192 5.28607 5.50001C5.37714 5.40265 5.48675 5.32448 5.60847 5.27009C5.73019 5.21571 5.86156 5.18621 5.99484 5.18334C6.12812 5.18046 6.26064 5.20427 6.38459 5.25335C6.50854 5.30244 6.62142 5.37581 6.7166 5.46916C6.81178 5.5625 6.88734 5.67394 6.93882 5.79691C6.99031 5.91988 7.01669 6.05191 7.0164 6.18522C7.01612 6.31854 6.98919 6.45045 6.93718 6.5732C6.88517 6.69596 6.80915 6.80707 6.71357 6.90001C4.33015 9.32831 2.99487 12.595 2.99487 15.9975C2.99487 19.4001 4.33015 22.6667 6.71357 25.095V25.0975Z" fill="#4A4A4F"/>
</svg>
