<svg width="32" height="32" viewBox="0 0 32 32" fill="none" xmlns="http://www.w3.org/2000/svg">
<path d="M18 11.5C18 11.2033 18.088 10.9133 18.2528 10.6666C18.4176 10.42 18.6519 10.2277 18.926 10.1142C19.2001 10.0006 19.5017 9.97094 19.7926 10.0288C20.0836 10.0867 20.3509 10.2296 20.5607 10.4393C20.7704 10.6491 20.9133 10.9164 20.9712 11.2074C21.0291 11.4983 20.9993 11.7999 20.8858 12.074C20.7723 12.3481 20.58 12.5824 20.3334 12.7472C20.0867 12.912 19.7967 13 19.5 13C19.1022 13 18.7206 12.842 18.4393 12.5607C18.158 12.2794 18 11.8978 18 11.5ZM12.5 10C12.2033 10 11.9133 10.088 11.6666 10.2528C11.42 10.4176 11.2277 10.6519 11.1142 10.926C11.0006 11.2001 10.9709 11.5017 11.0288 11.7926C11.0867 12.0836 11.2296 12.3509 11.4393 12.5607C11.6491 12.7704 11.9164 12.9133 12.2074 12.9712C12.4983 13.0291 12.7999 12.9993 13.074 12.8858C13.3481 12.7723 13.5824 12.58 13.7472 12.3334C13.912 12.0867 14 11.7967 14 11.5C14 11.1022 13.842 10.7206 13.5607 10.4393C13.2794 10.158 12.8978 10 12.5 10ZM27 18C27.0028 18.9707 26.8766 19.9375 26.625 20.875L29.405 22.09C29.6121 22.1843 29.7808 22.3465 29.8833 22.5496C29.9858 22.7528 30.0159 22.9849 29.9687 23.2075C29.9215 23.4301 29.7998 23.6299 29.6237 23.774C29.4476 23.9181 29.2276 23.9978 29 24C28.8623 24.0003 28.726 23.9718 28.6 23.9162L25.9225 22.75C25.0267 24.622 23.6197 26.2023 21.8639 27.3086C20.1082 28.4149 18.0752 29.0019 16 29.0019C13.9248 29.0019 11.8918 28.4149 10.1361 27.3086C8.38028 26.2023 6.97326 24.622 6.0775 22.75L3.4 23.9162C3.27398 23.9718 3.13772 24.0003 3 24C2.77037 23.9999 2.54778 23.9207 2.36963 23.7758C2.19148 23.6309 2.06863 23.4291 2.02171 23.2043C1.97478 22.9795 2.00665 22.7455 2.11196 22.5414C2.21727 22.3373 2.3896 22.1757 2.6 22.0837L5.375 20.875C5.12335 19.9375 4.99725 18.9707 5 18V17H2C1.73478 17 1.48043 16.8946 1.29289 16.7071C1.10536 16.5196 1 16.2652 1 16C1 15.7348 1.10536 15.4804 1.29289 15.2929C1.48043 15.1054 1.73478 15 2 15H5V14C4.99725 13.0293 5.12335 12.0625 5.375 11.125L2.6 9.91625C2.4768 9.86566 2.36495 9.79099 2.271 9.69659C2.17706 9.6022 2.10291 9.48999 2.05292 9.36655C2.00293 9.24311 1.9781 9.11093 1.97989 8.97776C1.98167 8.8446 2.01004 8.71313 2.06332 8.59108C2.11661 8.46902 2.19374 8.35884 2.29018 8.267C2.38662 8.17516 2.50044 8.10351 2.62495 8.05625C2.74946 8.00899 2.88215 7.98708 3.01525 7.9918C3.14834 7.99653 3.27915 8.02778 3.4 8.08375L6.0775 9.25C6.97326 7.37803 8.38028 5.79765 10.1361 4.69137C11.8918 3.58509 13.9248 2.99805 16 2.99805C18.0752 2.99805 20.1082 3.58509 21.8639 4.69137C23.6197 5.79765 25.0267 7.37803 25.9225 9.25L28.6 8.08C28.8418 7.98072 29.1129 7.98007 29.3552 8.07819C29.5975 8.17631 29.7917 8.3654 29.8963 8.60497C30.0009 8.84453 30.0075 9.11553 29.9147 9.35991C29.822 9.6043 29.6372 9.80266 29.4 9.9125L26.625 11.1312C26.8766 12.0688 27.0028 13.0355 27 14.0062V15.0062H30C30.2652 15.0062 30.5196 15.1116 30.7071 15.2991C30.8946 15.4867 31 15.741 31 16.0062C31 16.2715 30.8946 16.5258 30.7071 16.7134C30.5196 16.9009 30.2652 17.0062 30 17.0062H27V18ZM7 15H25V14C25 11.613 24.0518 9.32386 22.364 7.63603C20.6761 5.94821 18.3869 5 16 5C13.6131 5 11.3239 5.94821 9.63604 7.63603C7.94821 9.32386 7 11.613 7 14V15ZM15 26.9425V17H7V18C7.00263 20.2129 7.81952 22.3474 9.29493 23.9966C10.7703 25.6458 12.8011 26.6944 15 26.9425ZM25 18V17H17V26.9425C19.1989 26.6944 21.2297 25.6458 22.7051 23.9966C24.1805 22.3474 24.9974 20.2129 25 18Z" fill="#4A4A4F"/>
</svg>
