<svg width="32" height="32" viewBox="0 0 32 32" fill="none" xmlns="http://www.w3.org/2000/svg">
<path d="M23.9788 5.43507L25.7075 3.70757C25.8004 3.61466 25.8741 3.50436 25.9244 3.38296C25.9747 3.26157 26.0006 3.13146 26.0006 3.00007C26.0006 2.86867 25.9747 2.73856 25.9244 2.61717C25.8741 2.49578 25.8004 2.38548 25.7075 2.29257C25.6146 2.19966 25.5043 2.12596 25.3829 2.07567C25.2615 2.02539 25.1314 1.99951 25 1.99951C24.8686 1.99951 24.7385 2.02539 24.6171 2.07567C24.4957 2.12596 24.3854 2.19966 24.2925 2.29257L22.4738 4.11257C20.5943 2.73994 18.3273 2.00021 16 2.00021C13.6727 2.00021 11.4057 2.73994 9.52625 4.11257L7.7075 2.29257C7.51986 2.10493 7.26537 1.99951 7 1.99951C6.73464 1.99951 6.48014 2.10493 6.2925 2.29257C6.10486 2.48021 5.99945 2.7347 5.99945 3.00007C5.99945 3.26543 6.10486 3.51993 6.2925 3.70757L8.02125 5.43507C6.0801 7.47521 4.99828 10.184 5 13.0001V18.0001C5 20.9174 6.15893 23.7153 8.22183 25.7782C10.2847 27.8411 13.0826 29.0001 16 29.0001C18.9174 29.0001 21.7153 27.8411 23.7782 25.7782C25.8411 23.7153 27 20.9174 27 18.0001V13.0001C27.0017 10.184 25.9199 7.47521 23.9788 5.43507ZM16 4.00007C18.3861 4.00271 20.6738 4.95178 22.361 6.63903C24.0483 8.32628 24.9974 10.6139 25 13.0001V14.0001H7V13.0001C7.00265 10.6139 7.95171 8.32628 9.63896 6.63903C11.3262 4.95178 13.6139 4.00271 16 4.00007ZM16 27.0001C13.6139 26.9974 11.3262 26.0484 9.63896 24.3611C7.95171 22.6739 7.00265 20.3862 7 18.0001V16.0001H25V18.0001C24.9974 20.3862 24.0483 22.6739 22.361 24.3611C20.6738 26.0484 18.3861 26.9974 16 27.0001ZM18 10.5001C18 10.2034 18.088 9.91339 18.2528 9.66671C18.4176 9.42004 18.6519 9.22778 18.926 9.11425C19.2001 9.00072 19.5017 8.97101 19.7926 9.02889C20.0836 9.08677 20.3509 9.22963 20.5607 9.43941C20.7704 9.64919 20.9133 9.91646 20.9712 10.2074C21.0291 10.4984 20.9994 10.8 20.8858 11.0741C20.7723 11.3482 20.58 11.5824 20.3334 11.7473C20.0867 11.9121 19.7967 12.0001 19.5 12.0001C19.1022 12.0001 18.7206 11.842 18.4393 11.5607C18.158 11.2794 18 10.8979 18 10.5001ZM11 10.5001C11 10.2034 11.088 9.91339 11.2528 9.66671C11.4176 9.42004 11.6519 9.22778 11.926 9.11425C12.2001 9.00072 12.5017 8.97101 12.7926 9.02889C13.0836 9.08677 13.3509 9.22963 13.5607 9.43941C13.7704 9.64919 13.9133 9.91646 13.9712 10.2074C14.0291 10.4984 13.9994 10.8 13.8858 11.0741C13.7723 11.3482 13.58 11.5824 13.3334 11.7473C13.0867 11.9121 12.7967 12.0001 12.5 12.0001C12.1022 12.0001 11.7206 11.842 11.4393 11.5607C11.158 11.2794 11 10.8979 11 10.5001Z" fill="#4A4A4F"/>
</svg>
