<svg width="32" height="32" viewBox="0 0 32 32" fill="none" xmlns="http://www.w3.org/2000/svg">
<path d="M29.9665 25.9999H28.0002V11.9999C28.0002 11.4695 27.7895 10.9608 27.4145 10.5857C27.0394 10.2106 26.5307 9.9999 26.0002 9.9999H20.5002C20.3676 9.9999 20.2405 10.0526 20.1467 10.1463C20.0529 10.2401 20.0002 10.3673 20.0002 10.4999V25.9999H18.0002V4.05115C18.0036 3.73963 17.9359 3.43143 17.8025 3.1499C17.6691 2.86836 17.4734 2.62087 17.2302 2.42615C16.8987 2.1677 16.4942 2.02026 16.0742 2.00478C15.6541 1.98929 15.2399 2.10655 14.8902 2.3399L4.89024 8.9999C4.61592 9.18293 4.39111 9.43095 4.23583 9.72188C4.08055 10.0128 3.99962 10.3376 4.00024 10.6674V25.9999H2.03399C1.77558 25.9961 1.5253 26.0903 1.33351 26.2635C1.14172 26.4367 1.02265 26.6762 1.00024 26.9337C0.991162 27.0704 1.0103 27.2076 1.05647 27.3367C1.10264 27.4658 1.17486 27.584 1.26864 27.684C1.36242 27.784 1.47576 27.8636 1.60162 27.918C1.72747 27.9723 1.86316 28.0002 2.00024 27.9999H30.0002C30.1373 28.0002 30.273 27.9723 30.3989 27.918C30.5247 27.8636 30.6381 27.784 30.7318 27.684C30.8256 27.584 30.8978 27.4658 30.944 27.3367C30.9902 27.2076 31.0093 27.0704 31.0002 26.9337C30.9778 26.6762 30.8588 26.4367 30.667 26.2635C30.4752 26.0903 30.2249 25.9961 29.9665 25.9999ZM9.50024 22.9999C9.50055 23.137 9.47266 23.2727 9.41831 23.3985C9.36397 23.5244 9.28432 23.6377 9.18433 23.7315C9.08434 23.8253 8.96613 23.8975 8.83705 23.9437C8.70797 23.9898 8.57078 24.009 8.43399 23.9999C8.1763 23.9775 7.93668 23.8582 7.76342 23.6662C7.59015 23.4741 7.49611 23.2235 7.50024 22.9649V21.0337C7.49672 20.7753 7.59101 20.5252 7.76419 20.3335C7.93737 20.1417 8.17663 20.0226 8.43399 19.9999C8.57078 19.9908 8.70797 20.01 8.83705 20.0561C8.96613 20.1023 9.08434 20.1745 9.18433 20.2683C9.28432 20.3621 9.36397 20.4754 9.41831 20.6013C9.47266 20.7271 9.50055 20.8628 9.50024 20.9999V22.9999ZM9.50024 15.9999C9.50055 16.137 9.47266 16.2727 9.41831 16.3985C9.36397 16.5244 9.28432 16.6377 9.18433 16.7315C9.08434 16.8253 8.96613 16.8975 8.83705 16.9437C8.70797 16.9898 8.57078 17.009 8.43399 16.9999C8.17641 16.9772 7.93697 16.8579 7.76376 16.6659C7.59055 16.4739 7.4964 16.2235 7.50024 15.9649V14.0337C7.49672 13.7753 7.59101 13.5252 7.76419 13.3335C7.93737 13.1417 8.17663 13.0226 8.43399 12.9999C8.57078 12.9908 8.70797 13.01 8.83705 13.0561C8.96613 13.1023 9.08434 13.1745 9.18433 13.2683C9.28432 13.3621 9.36397 13.4754 9.41831 13.6013C9.47266 13.7271 9.50055 13.8628 9.50024 13.9999V15.9999ZM14.5002 22.9999C14.5005 23.137 14.4727 23.2727 14.4183 23.3985C14.364 23.5244 14.2843 23.6377 14.1843 23.7315C14.0843 23.8253 13.9661 23.8975 13.8371 23.9437C13.708 23.9898 13.5708 24.009 13.434 23.9999C13.1767 23.9775 12.9375 23.8586 12.7643 23.6671C12.5911 23.4756 12.4967 23.2256 12.5002 22.9674V21.0337C12.497 20.7755 12.5915 20.5257 12.7646 20.3343C12.9378 20.1428 13.1769 20.0238 13.434 20.0012C13.5708 19.9921 13.708 20.0112 13.8371 20.0574C13.9661 20.1035 14.0843 20.1758 14.1843 20.2696C14.2843 20.3633 14.364 20.4767 14.4183 20.6025C14.4727 20.7284 14.5005 20.8641 14.5002 21.0012V22.9999ZM14.5002 15.9999C14.5005 16.137 14.4727 16.2727 14.4183 16.3985C14.364 16.5244 14.2843 16.6377 14.1843 16.7315C14.0843 16.8253 13.9661 16.8975 13.8371 16.9437C13.708 16.9898 13.5708 17.009 13.434 16.9999C13.1769 16.9772 12.9378 16.8582 12.7646 16.6668C12.5915 16.4753 12.497 16.2255 12.5002 15.9674V14.0337C12.497 13.7755 12.5915 13.5257 12.7646 13.3343C12.9378 13.1428 13.1769 13.0238 13.434 13.0012C13.5708 12.9921 13.708 13.0112 13.8371 13.0574C13.9661 13.1036 14.0843 13.1758 14.1843 13.2696C14.2843 13.3633 14.364 13.4767 14.4183 13.6025C14.4727 13.7284 14.5005 13.8641 14.5002 14.0012V15.9999Z" fill="#4A4A4F"/>
</svg>
