<svg width="32" height="32" viewBox="0 0 32 32" fill="none" xmlns="http://www.w3.org/2000/svg">
<path d="M23 4H9C7.93913 4 6.92172 4.42143 6.17157 5.17157C5.42143 5.92172 5 6.93913 5 8V26C5 26.5304 5.21071 27.0391 5.58579 27.4142C5.96086 27.7893 6.46957 28 7 28H10C10.5304 28 11.0391 27.7893 11.4142 27.4142C11.7893 27.0391 12 26.5304 12 26V24H20V26C20 26.5304 20.2107 27.0391 20.5858 27.4142C20.9609 27.7893 21.4696 28 22 28H25C25.5304 28 26.0391 27.7893 26.4142 27.4142C26.7893 27.0391 27 26.5304 27 26V8C27 6.93913 26.5786 5.92172 25.8284 5.17157C25.0783 4.42143 24.0609 4 23 4ZM7 22V15H25V22H7ZM7 10H25V13H7V10ZM9 6H23C23.5304 6 24.0391 6.21071 24.4142 6.58579C24.7893 6.96086 25 7.46957 25 8H7C7 7.46957 7.21071 6.96086 7.58579 6.58579C7.96086 6.21071 8.46957 6 9 6ZM10 26H7V24H10V26ZM22 26V24H25V26H22ZM13 18.5C13 18.7967 12.912 19.0867 12.7472 19.3334C12.5824 19.58 12.3481 19.7723 12.074 19.8858C11.7999 19.9993 11.4983 20.0291 11.2074 19.9712C10.9164 19.9133 10.6491 19.7704 10.4393 19.5607C10.2296 19.3509 10.0867 19.0836 10.0288 18.7926C9.97094 18.5017 10.0006 18.2001 10.1142 17.926C10.2277 17.6519 10.42 17.4176 10.6666 17.2528C10.9133 17.088 11.2033 17 11.5 17C11.8978 17 12.2794 17.158 12.5607 17.4393C12.842 17.7206 13 18.1022 13 18.5ZM22 18.5C22 18.7967 21.912 19.0867 21.7472 19.3334C21.5824 19.58 21.3481 19.7723 21.074 19.8858C20.7999 19.9993 20.4983 20.0291 20.2074 19.9712C19.9164 19.9133 19.6491 19.7704 19.4393 19.5607C19.2296 19.3509 19.0867 19.0836 19.0288 18.7926C18.9709 18.5017 19.0007 18.2001 19.1142 17.926C19.2277 17.6519 19.42 17.4176 19.6666 17.2528C19.9133 17.088 20.2033 17 20.5 17C20.8978 17 21.2794 17.158 21.5607 17.4393C21.842 17.7206 22 18.1022 22 18.5ZM31 10V13C31 13.2652 30.8946 13.5196 30.7071 13.7071C30.5196 13.8946 30.2652 14 30 14C29.7348 14 29.4804 13.8946 29.2929 13.7071C29.1054 13.5196 29 13.2652 29 13V10C29 9.73478 29.1054 9.48043 29.2929 9.29289C29.4804 9.10536 29.7348 9 30 9C30.2652 9 30.5196 9.10536 30.7071 9.29289C30.8946 9.48043 31 9.73478 31 10ZM3 10V13C3 13.2652 2.89464 13.5196 2.70711 13.7071C2.51957 13.8946 2.26522 14 2 14C1.73478 14 1.48043 13.8946 1.29289 13.7071C1.10536 13.5196 1 13.2652 1 13V10C1 9.73478 1.10536 9.48043 1.29289 9.29289C1.48043 9.10536 1.73478 9 2 9C2.26522 9 2.51957 9.10536 2.70711 9.29289C2.89464 9.48043 3 9.73478 3 10Z" fill="#4A4A4F"/>
</svg>
