<svg width="32" height="32" viewBox="0 0 32 32" fill="none" xmlns="http://www.w3.org/2000/svg">
<path d="M31 10V13C31 13.2652 30.8946 13.5196 30.7071 13.7071C30.5196 13.8946 30.2652 14 30 14C29.7348 14 29.4804 13.8946 29.2929 13.7071C29.1054 13.5196 29 13.2652 29 13V10C29 9.73478 29.1054 9.48043 29.2929 9.29289C29.4804 9.10536 29.7348 9 30 9C30.2652 9 30.5196 9.10536 30.7071 9.29289C30.8946 9.48043 31 9.73478 31 10ZM2 9C1.73478 9 1.48043 9.10536 1.29289 9.29289C1.10536 9.48043 1 9.73478 1 10V13C1 13.2652 1.10536 13.5196 1.29289 13.7071C1.48043 13.8946 1.73478 14 2 14C2.26522 14 2.51957 13.8946 2.70711 13.7071C2.89464 13.5196 3 13.2652 3 13V10C3 9.73478 2.89464 9.48043 2.70711 9.29289C2.51957 9.10536 2.26522 9 2 9ZM27 8V26C27 26.5304 26.7893 27.0391 26.4142 27.4142C26.0391 27.7893 25.5304 28 25 28H22C21.4696 28 20.9609 27.7893 20.5858 27.4142C20.2107 27.0391 20 26.5304 20 26V25H12V26C12 26.5304 11.7893 27.0391 11.4142 27.4142C11.0391 27.7893 10.5304 28 10 28H7C6.46957 28 5.96086 27.7893 5.58579 27.4142C5.21071 27.0391 5 26.5304 5 26V8C5 6.93913 5.42143 5.92172 6.17157 5.17157C6.92172 4.42143 7.93913 4 9 4H23C24.0609 4 25.0783 4.42143 25.8284 5.17157C26.5786 5.92172 27 6.93913 27 8ZM13 18.5C13 18.2033 12.912 17.9133 12.7472 17.6666C12.5824 17.42 12.3481 17.2277 12.074 17.1142C11.7999 17.0007 11.4983 16.9709 11.2074 17.0288C10.9164 17.0867 10.6491 17.2296 10.4393 17.4393C10.2296 17.6491 10.0867 17.9164 10.0288 18.2074C9.97094 18.4983 10.0006 18.7999 10.1142 19.074C10.2277 19.3481 10.42 19.5824 10.6666 19.7472C10.9133 19.912 11.2033 20 11.5 20C11.8978 20 12.2794 19.842 12.5607 19.5607C12.842 19.2794 13 18.8978 13 18.5ZM22 18.5C22 18.2033 21.912 17.9133 21.7472 17.6666C21.5824 17.42 21.3481 17.2277 21.074 17.1142C20.7999 17.0007 20.4983 16.9709 20.2074 17.0288C19.9164 17.0867 19.6491 17.2296 19.4393 17.4393C19.2296 17.6491 19.0867 17.9164 19.0288 18.2074C18.9709 18.4983 19.0007 18.7999 19.1142 19.074C19.2277 19.3481 19.42 19.5824 19.6666 19.7472C19.9133 19.912 20.2033 20 20.5 20C20.8978 20 21.2794 19.842 21.5607 19.5607C21.842 19.2794 22 18.8978 22 18.5ZM25 9H7V14H25V9Z" fill="#4A4A4F"/>
</svg>
