<svg width="32" height="32" viewBox="0 0 32 32" fill="none" xmlns="http://www.w3.org/2000/svg">
<path d="M16 12.5212C15.7035 11.9722 15.3693 11.4443 15 10.9412V7C15 6.73478 15.1054 6.48043 15.2929 6.29289C15.4804 6.10536 15.7348 6 16 6C16.2652 6 16.5196 6.10536 16.7071 6.29289C16.8947 6.48043 17 6.73478 17 7V10.9412C16.6307 11.4443 16.2966 11.9722 16 12.5212ZM29.0875 6.31C28.625 5.7125 27.73 5 26.125 5C24.0188 5 21.3175 6.41 18.8988 8.77C18.2072 9.4403 17.5721 10.1665 17 10.9412V22.5C17 22.7652 16.8947 23.0196 16.7071 23.2071C16.5196 23.3946 16.2652 23.5 16 23.5C15.7348 23.5 15.4804 23.3946 15.2929 23.2071C15.1054 23.0196 15 22.7652 15 22.5V10.9412C14.4295 10.1667 13.7961 9.4405 13.1063 8.77C10.6863 6.41 7.98502 5 5.87502 5C4.27002 5 3.37502 5.7125 2.91252 6.31C2.06002 7.40625 1.39002 9.32 2.88627 15.21C3.64252 18.1888 5.32502 19.335 6.71502 19.7625C5.95699 20.9934 5.71403 22.4732 6.03867 23.8818C6.36332 25.2904 7.22948 26.5146 8.44977 27.2895C9.67006 28.0645 11.1464 28.3278 12.5594 28.0226C13.9723 27.7174 15.2083 26.8682 16 25.6588C16.7917 26.8682 18.0277 27.7174 19.4407 28.0226C20.8536 28.3278 22.33 28.0645 23.5503 27.2895C24.7706 26.5146 25.6367 25.2904 25.9614 23.8818C26.286 22.4732 26.043 20.9934 25.285 19.7625C26.675 19.3375 28.3563 18.1888 29.1138 15.21C29.9538 11.905 30.6063 8.2625 29.0875 6.31Z" fill="#4A4A4F"/>
</svg>
