<svg width="32" height="32" viewBox="0 0 32 32" fill="none" xmlns="http://www.w3.org/2000/svg">
<path d="M27 26H21V23H21.5C23.7536 22.9977 25.9143 22.1014 27.5078 20.5078C29.1014 18.9143 29.9977 16.7536 30 14.5C30 13.5717 29.6313 12.6815 28.9749 12.0251C28.3185 11.3687 27.4283 11 26.5 11C25.5717 11 24.6815 11.3687 24.0251 12.0251C23.3687 12.6815 23 13.5717 23 14.5C23 14.8978 22.842 15.2794 22.5607 15.5607C22.2794 15.842 21.8978 16 21.5 16H21V7C21 5.67392 20.4732 4.40215 19.5355 3.46447C18.5979 2.52678 17.3261 2 16 2C14.6739 2 13.4021 2.52678 12.4645 3.46447C11.5268 4.40215 11 5.67392 11 7V11H10.5C10.1022 11 9.72064 10.842 9.43934 10.5607C9.15804 10.2794 9 9.89782 9 9.5C9 8.57174 8.63125 7.6815 7.97487 7.02513C7.3185 6.36875 6.42826 6 5.5 6C4.57174 6 3.6815 6.36875 3.02513 7.02513C2.36875 7.6815 2 8.57174 2 9.5C2.00232 11.7536 2.89859 13.9143 4.49215 15.5078C6.08571 17.1014 8.24637 17.9977 10.5 18H11V26H5C4.73478 26 4.48043 26.1054 4.29289 26.2929C4.10536 26.4804 4 26.7348 4 27C4 27.2652 4.10536 27.5196 4.29289 27.7071C4.48043 27.8946 4.73478 28 5 28H27C27.2652 28 27.5196 27.8946 27.7071 27.7071C27.8946 27.5196 28 27.2652 28 27C28 26.7348 27.8946 26.4804 27.7071 26.2929C27.5196 26.1054 27.2652 26 27 26ZM12 16H10.5C8.7767 15.998 7.12455 15.3126 5.906 14.094C4.68744 12.8754 4.00199 11.2233 4 9.5C4 9.10218 4.15804 8.72064 4.43934 8.43934C4.72064 8.15804 5.10218 8 5.5 8C5.89782 8 6.27936 8.15804 6.56066 8.43934C6.84196 8.72064 7 9.10218 7 9.5C7 10.4283 7.36875 11.3185 8.02513 11.9749C8.6815 12.6313 9.57174 13 10.5 13H12C12.2652 13 12.5196 12.8946 12.7071 12.7071C12.8946 12.5196 13 12.2652 13 12V7C13 6.20435 13.3161 5.44129 13.8787 4.87868C14.4413 4.31607 15.2044 4 16 4C16.7956 4 17.5587 4.31607 18.1213 4.87868C18.6839 5.44129 19 6.20435 19 7V17C19 17.2652 19.1054 17.5196 19.2929 17.7071C19.4804 17.8946 19.7348 18 20 18H21.5C22.4283 18 23.3185 17.6313 23.9749 16.9749C24.6313 16.3185 25 15.4283 25 14.5C25 14.1022 25.158 13.7206 25.4393 13.4393C25.7206 13.158 26.1022 13 26.5 13C26.8978 13 27.2794 13.158 27.5607 13.4393C27.842 13.7206 28 14.1022 28 14.5C27.998 16.2233 27.3126 17.8754 26.094 19.094C24.8754 20.3126 23.2233 20.998 21.5 21H20C19.7348 21 19.4804 21.1054 19.2929 21.2929C19.1054 21.4804 19 21.7348 19 22V26H13V17C13 16.7348 12.8946 16.4804 12.7071 16.2929C12.5196 16.1054 12.2652 16 12 16Z" fill="#4A4A4F"/>
</svg>
