<svg width="32" height="32" viewBox="0 0 32 32" fill="none" xmlns="http://www.w3.org/2000/svg">
<path d="M26 11.0002H17V9.87516C17.8583 9.65222 18.6185 9.15087 19.1613 8.44966C19.7042 7.74844 19.9992 6.88696 20 6.00016C20 2.50016 16.695 0.261411 16.555 0.167661C16.3907 0.0580224 16.1975 -0.000488281 16 -0.000488281C15.8025 -0.000488281 15.6093 0.0580224 15.445 0.167661C15.305 0.261411 12 2.50016 12 6.00016C12.0008 6.88696 12.2958 7.74844 12.8387 8.44966C13.3815 9.15087 14.1417 9.65222 15 9.87516V11.0002H6C5.20435 11.0002 4.44129 11.3162 3.87868 11.8788C3.31607 12.4414 3 13.2045 3 14.0002V16.9164C3.00103 18.0073 3.35148 19.0692 4 19.9464V25.0002C4 25.7958 4.31607 26.5589 4.87868 27.1215C5.44129 27.6841 6.20435 28.0002 7 28.0002H25C25.7956 28.0002 26.5587 27.6841 27.1213 27.1215C27.6839 26.5589 28 25.7958 28 25.0002V19.9464C28.6485 19.0692 28.999 18.0073 29 16.9164V14.0002C29 13.2045 28.6839 12.4414 28.1213 11.8788C27.5587 11.3162 26.7956 11.0002 26 11.0002ZM14 6.00016C14 4.30391 15.25 2.94266 16 2.27641C16.75 2.94266 18 4.30391 18 6.00016C18 6.53059 17.7893 7.0393 17.4142 7.41437C17.0391 7.78945 16.5304 8.00016 16 8.00016C15.4696 8.00016 14.9609 7.78945 14.5858 7.41437C14.2107 7.0393 14 6.53059 14 6.00016ZM27 16.9164C27 18.5727 25.6925 19.9552 24.085 19.9989C23.684 20.0103 23.2849 19.9411 22.9111 19.7955C22.5374 19.6499 22.1966 19.4309 21.909 19.1513C21.6213 18.8717 21.3927 18.5373 21.2366 18.1678C21.0805 17.7983 21 17.4013 21 17.0002C21 16.7349 20.8946 16.4806 20.7071 16.2931C20.5196 16.1055 20.2652 16.0002 20 16.0002C19.7348 16.0002 19.4804 16.1055 19.2929 16.2931C19.1054 16.4806 19 16.7349 19 17.0002C19 17.7958 18.6839 18.5589 18.1213 19.1215C17.5587 19.6841 16.7956 20.0002 16 20.0002C15.2044 20.0002 14.4413 19.6841 13.8787 19.1215C13.3161 18.5589 13 17.7958 13 17.0002C13 16.7349 12.8946 16.4806 12.7071 16.2931C12.5196 16.1055 12.2652 16.0002 12 16.0002C11.7348 16.0002 11.4804 16.1055 11.2929 16.2931C11.1054 16.4806 11 16.7349 11 17.0002C11.0002 17.4014 10.9198 17.7986 10.7638 18.1682C10.6077 18.5378 10.3791 18.8724 10.0915 19.1521C9.80384 19.4318 9.46302 19.651 9.08917 19.7967C8.71533 19.9423 8.31606 20.0115 7.915 20.0002C6.3075 19.9552 5 18.5727 5 16.9164V14.0002C5 13.7349 5.10536 13.4806 5.29289 13.2931C5.48043 13.1055 5.73478 13.0002 6 13.0002H26C26.2652 13.0002 26.5196 13.1055 26.7071 13.2931C26.8946 13.4806 27 13.7349 27 14.0002V16.9164Z" fill="#4A4A4F"/>
</svg>
