<svg width="32" height="32" viewBox="0 0 32 32" fill="none" xmlns="http://www.w3.org/2000/svg">
<path d="M25 3H7C6.46957 3 5.96086 3.21071 5.58579 3.58579C5.21071 3.96086 5 4.46957 5 5V27C5 27.5304 5.21071 28.0391 5.58579 28.4142C5.96086 28.7893 6.46957 29 7 29H25C25.5304 29 26.0391 28.7893 26.4142 28.4142C26.7893 28.0391 27 27.5304 27 27V5C27 4.46957 26.7893 3.96086 26.4142 3.58579C26.0391 3.21071 25.5304 3 25 3ZM11 25C10.7033 25 10.4133 24.912 10.1666 24.7472C9.91997 24.5824 9.72771 24.3481 9.61418 24.074C9.50065 23.7999 9.47094 23.4983 9.52882 23.2074C9.5867 22.9164 9.72956 22.6491 9.93934 22.4393C10.1491 22.2296 10.4164 22.0867 10.7074 22.0288C10.9983 21.9709 11.2999 22.0007 11.574 22.1142C11.8481 22.2277 12.0824 22.42 12.2472 22.6666C12.412 22.9133 12.5 23.2033 12.5 23.5C12.5 23.8978 12.342 24.2794 12.0607 24.5607C11.7794 24.842 11.3978 25 11 25ZM11 20C10.7033 20 10.4133 19.912 10.1666 19.7472C9.91997 19.5824 9.72771 19.3481 9.61418 19.074C9.50065 18.7999 9.47094 18.4983 9.52882 18.2074C9.5867 17.9164 9.72956 17.6491 9.93934 17.4393C10.1491 17.2296 10.4164 17.0867 10.7074 17.0288C10.9983 16.9709 11.2999 17.0007 11.574 17.1142C11.8481 17.2277 12.0824 17.42 12.2472 17.6666C12.412 17.9133 12.5 18.2033 12.5 18.5C12.5 18.8978 12.342 19.2794 12.0607 19.5607C11.7794 19.842 11.3978 20 11 20ZM16 25C15.7033 25 15.4133 24.912 15.1666 24.7472C14.92 24.5824 14.7277 24.3481 14.6142 24.074C14.5006 23.7999 14.4709 23.4983 14.5288 23.2074C14.5867 22.9164 14.7296 22.6491 14.9393 22.4393C15.1491 22.2296 15.4164 22.0867 15.7074 22.0288C15.9983 21.9709 16.2999 22.0007 16.574 22.1142C16.8481 22.2277 17.0824 22.42 17.2472 22.6666C17.412 22.9133 17.5 23.2033 17.5 23.5C17.5 23.8978 17.342 24.2794 17.0607 24.5607C16.7794 24.842 16.3978 25 16 25ZM16 20C15.7033 20 15.4133 19.912 15.1666 19.7472C14.92 19.5824 14.7277 19.3481 14.6142 19.074C14.5006 18.7999 14.4709 18.4983 14.5288 18.2074C14.5867 17.9164 14.7296 17.6491 14.9393 17.4393C15.1491 17.2296 15.4164 17.0867 15.7074 17.0288C15.9983 16.9709 16.2999 17.0007 16.574 17.1142C16.8481 17.2277 17.0824 17.42 17.2472 17.6666C17.412 17.9133 17.5 18.2033 17.5 18.5C17.5 18.8978 17.342 19.2794 17.0607 19.5607C16.7794 19.842 16.3978 20 16 20ZM21 25C20.7033 25 20.4133 24.912 20.1666 24.7472C19.92 24.5824 19.7277 24.3481 19.6142 24.074C19.5007 23.7999 19.4709 23.4983 19.5288 23.2074C19.5867 22.9164 19.7296 22.6491 19.9393 22.4393C20.1491 22.2296 20.4164 22.0867 20.7074 22.0288C20.9983 21.9709 21.2999 22.0007 21.574 22.1142C21.8481 22.2277 22.0824 22.42 22.2472 22.6666C22.412 22.9133 22.5 23.2033 22.5 23.5C22.5 23.8978 22.342 24.2794 22.0607 24.5607C21.7794 24.842 21.3978 25 21 25ZM21 20C20.7033 20 20.4133 19.912 20.1666 19.7472C19.92 19.5824 19.7277 19.3481 19.6142 19.074C19.5007 18.7999 19.4709 18.4983 19.5288 18.2074C19.5867 17.9164 19.7296 17.6491 19.9393 17.4393C20.1491 17.2296 20.4164 17.0867 20.7074 17.0288C20.9983 16.9709 21.2999 17.0007 21.574 17.1142C21.8481 17.2277 22.0824 17.42 22.2472 17.6666C22.412 17.9133 22.5 18.2033 22.5 18.5C22.5 18.8978 22.342 19.2794 22.0607 19.5607C21.7794 19.842 21.3978 20 21 20ZM23 13C23 13.2652 22.8946 13.5196 22.7071 13.7071C22.5196 13.8946 22.2652 14 22 14H10C9.73478 14 9.48043 13.8946 9.29289 13.7071C9.10536 13.5196 9 13.2652 9 13V8C9 7.73478 9.10536 7.48043 9.29289 7.29289C9.48043 7.10536 9.73478 7 10 7H22C22.2652 7 22.5196 7.10536 22.7071 7.29289C22.8946 7.48043 23 7.73478 23 8V13Z" fill="#4A4A4F"/>
</svg>
