<svg width="32" height="32" viewBox="0 0 32 32" fill="none" xmlns="http://www.w3.org/2000/svg">
<path d="M26 4H23V3C23 2.73478 22.8946 2.48043 22.7071 2.29289C22.5196 2.10536 22.2652 2 22 2C21.7348 2 21.4804 2.10536 21.2929 2.29289C21.1054 2.48043 21 2.73478 21 3V4H11V3C11 2.73478 10.8946 2.48043 10.7071 2.29289C10.5196 2.10536 10.2652 2 10 2C9.73478 2 9.48043 2.10536 9.29289 2.29289C9.10536 2.48043 9 2.73478 9 3V4H6C5.46957 4 4.96086 4.21071 4.58579 4.58579C4.21071 4.96086 4 5.46957 4 6V26C4 26.5304 4.21071 27.0391 4.58579 27.4142C4.96086 27.7893 5.46957 28 6 28H26C26.5304 28 27.0391 27.7893 27.4142 27.4142C27.7893 27.0391 28 26.5304 28 26V6C28 5.46957 27.7893 4.96086 27.4142 4.58579C27.0391 4.21071 26.5304 4 26 4ZM19.7075 21.2925C19.8004 21.3854 19.8741 21.4957 19.9244 21.6171C19.9747 21.7385 20.0006 21.8686 20.0006 22C20.0006 22.1314 19.9747 22.2615 19.9244 22.3829C19.8741 22.5043 19.8004 22.6146 19.7075 22.7075C19.6146 22.8004 19.5043 22.8741 19.3829 22.9244C19.2615 22.9747 19.1314 23.0006 19 23.0006C18.8686 23.0006 18.7385 22.9747 18.6171 22.9244C18.4957 22.8741 18.3854 22.8004 18.2925 22.7075L16 20.4137L13.7075 22.7075C13.6146 22.8004 13.5043 22.8741 13.3829 22.9244C13.2615 22.9747 13.1314 23.0006 13 23.0006C12.8686 23.0006 12.7385 22.9747 12.6171 22.9244C12.4957 22.8741 12.3854 22.8004 12.2925 22.7075C12.1996 22.6146 12.1259 22.5043 12.0756 22.3829C12.0253 22.2615 11.9994 22.1314 11.9994 22C11.9994 21.8686 12.0253 21.7385 12.0756 21.6171C12.1259 21.4957 12.1996 21.3854 12.2925 21.2925L14.5863 19L12.2925 16.7075C12.1049 16.5199 11.9994 16.2654 11.9994 16C11.9994 15.7346 12.1049 15.4801 12.2925 15.2925C12.4801 15.1049 12.7346 14.9994 13 14.9994C13.2654 14.9994 13.5199 15.1049 13.7075 15.2925L16 17.5863L18.2925 15.2925C18.3854 15.1996 18.4957 15.1259 18.6171 15.0756C18.7385 15.0253 18.8686 14.9994 19 14.9994C19.1314 14.9994 19.2615 15.0253 19.3829 15.0756C19.5043 15.1259 19.6146 15.1996 19.7075 15.2925C19.8004 15.3854 19.8741 15.4957 19.9244 15.6171C19.9747 15.7385 20.0006 15.8686 20.0006 16C20.0006 16.1314 19.9747 16.2615 19.9244 16.3829C19.8741 16.5043 19.8004 16.6146 19.7075 16.7075L17.4137 19L19.7075 21.2925ZM26 10H6V6H9V7C9 7.26522 9.10536 7.51957 9.29289 7.70711C9.48043 7.89464 9.73478 8 10 8C10.2652 8 10.5196 7.89464 10.7071 7.70711C10.8946 7.51957 11 7.26522 11 7V6H21V7C21 7.26522 21.1054 7.51957 21.2929 7.70711C21.4804 7.89464 21.7348 8 22 8C22.2652 8 22.5196 7.89464 22.7071 7.70711C22.8946 7.51957 23 7.26522 23 7V6H26V10Z" fill="#4A4A4F"/>
</svg>
