<svg width="32" height="32" viewBox="0 0 32 32" fill="none" xmlns="http://www.w3.org/2000/svg">
<path d="M2 22C2 21.7348 2.10536 21.4804 2.29289 21.2929C2.48043 21.1054 2.73478 21 3 21H4V19C4.00364 15.9916 5.13571 13.0941 7.17245 10.8801C9.20919 8.66605 12.0024 7.29664 15 7.0425V5H13C12.7348 5 12.4804 4.89464 12.2929 4.70711C12.1054 4.51957 12 4.26522 12 4C12 3.73478 12.1054 3.48043 12.2929 3.29289C12.4804 3.10536 12.7348 3 13 3H19C19.2652 3 19.5196 3.10536 19.7071 3.29289C19.8946 3.48043 20 3.73478 20 4C20 4.26522 19.8946 4.51957 19.7071 4.70711C19.5196 4.89464 19.2652 5 19 5H17V7.0425C19.9976 7.29664 22.7908 8.66605 24.8276 10.8801C26.8643 13.0941 27.9964 15.9916 28 19V21H29C29.2652 21 29.5196 21.1054 29.7071 21.2929C29.8946 21.4804 30 21.7348 30 22C30 22.2652 29.8946 22.5196 29.7071 22.7071C29.5196 22.8946 29.2652 23 29 23H3C2.73478 23 2.48043 22.8946 2.29289 22.7071C2.10536 22.5196 2 22.2652 2 22ZM29 25H3C2.73478 25 2.48043 25.1054 2.29289 25.2929C2.10536 25.4804 2 25.7348 2 26C2 26.2652 2.10536 26.5196 2.29289 26.7071C2.48043 26.8946 2.73478 27 3 27H29C29.2652 27 29.5196 26.8946 29.7071 26.7071C29.8946 26.5196 30 26.2652 30 26C30 25.7348 29.8946 25.4804 29.7071 25.2929C29.5196 25.1054 29.2652 25 29 25Z" fill="#4A4A4F"/>
</svg>
