<svg width="32" height="32" viewBox="0 0 32 32" fill="none" xmlns="http://www.w3.org/2000/svg">
<path d="M26 7H22.535L20.8312 4.445C20.74 4.30819 20.6164 4.196 20.4714 4.11838C20.3264 4.04076 20.1645 4.0001 20 4H12C11.8355 4.0001 11.6736 4.04076 11.5286 4.11838C11.3836 4.196 11.26 4.30819 11.1687 4.445L9.46375 7H6C5.20435 7 4.44129 7.31607 3.87868 7.87868C3.31607 8.44129 3 9.20435 3 10V24C3 24.7956 3.31607 25.5587 3.87868 26.1213C4.44129 26.6839 5.20435 27 6 27H26C26.7956 27 27.5587 26.6839 28.1213 26.1213C28.6839 25.5587 29 24.7956 29 24V10C29 9.20435 28.6839 8.44129 28.1213 7.87868C27.5587 7.31607 26.7956 7 26 7ZM19.6012 20.8C18.4896 21.6276 17.1267 22.0467 15.7422 21.9869C14.3576 21.927 13.036 21.3917 12 20.4713V21C12 21.2652 11.8946 21.5196 11.7071 21.7071C11.5196 21.8946 11.2652 22 11 22C10.7348 22 10.4804 21.8946 10.2929 21.7071C10.1054 21.5196 10 21.2652 10 21V18C10 17.7348 10.1054 17.4804 10.2929 17.2929C10.4804 17.1054 10.7348 17 11 17H14C14.2652 17 14.5196 17.1054 14.7071 17.2929C14.8946 17.4804 15 17.7348 15 18C15 18.2652 14.8946 18.5196 14.7071 18.7071C14.5196 18.8946 14.2652 19 14 19H13.3562C14.047 19.6052 14.9243 19.9552 15.8419 19.9919C16.7595 20.0285 17.662 19.7494 18.3988 19.2013C18.6108 19.0418 18.8774 18.9731 19.1401 19.0102C19.4028 19.0474 19.6399 19.1874 19.7994 19.3994C19.9588 19.6114 20.0275 19.8781 19.9904 20.1407C19.9532 20.4034 19.8133 20.6405 19.6012 20.8ZM22 15C22 15.2652 21.8946 15.5196 21.7071 15.7071C21.5196 15.8946 21.2652 16 21 16H18C17.7348 16 17.4804 15.8946 17.2929 15.7071C17.1054 15.5196 17 15.2652 17 15C17 14.7348 17.1054 14.4804 17.2929 14.2929C17.4804 14.1054 17.7348 14 18 14H18.6437C17.953 13.3948 17.0757 13.0448 16.1581 13.0081C15.2405 12.9715 14.338 13.2506 13.6012 13.7987C13.3892 13.9582 13.1226 14.0269 12.8599 13.9898C12.5972 13.9526 12.3601 13.8126 12.2006 13.6006C12.0412 13.3886 11.9725 13.1219 12.0096 12.8593C12.0468 12.5966 12.1867 12.3595 12.3988 12.2C13.5104 11.3724 14.8733 10.9533 16.2578 11.0131C17.6424 11.073 18.964 11.6083 20 12.5288V12C20 11.7348 20.1054 11.4804 20.2929 11.2929C20.4804 11.1054 20.7348 11 21 11C21.2652 11 21.5196 11.1054 21.7071 11.2929C21.8946 11.4804 22 11.7348 22 12V15Z" fill="#4A4A4F"/>
</svg>
