<svg width="32" height="32" viewBox="0 0 32 32" fill="none" xmlns="http://www.w3.org/2000/svg">
<path d="M6.74 4.32758C6.65218 4.22859 6.54559 4.14801 6.4264 4.09052C6.30721 4.03303 6.1778 3.99976 6.04566 3.99265C5.91352 3.98555 5.78128 4.00473 5.65661 4.04911C5.53194 4.09348 5.41732 4.16216 5.31939 4.25116C5.22146 4.34016 5.14216 4.44771 5.0861 4.56758C5.03004 4.68745 4.99833 4.81725 4.99281 4.94947C4.98728 5.08168 5.00806 5.21368 5.05392 5.33781C5.09979 5.46194 5.16983 5.57573 5.26 5.67258L6.46625 7.00008H6C5.20435 7.00008 4.44129 7.31615 3.87868 7.87876C3.31607 8.44137 3 9.20443 3 10.0001V24.0001C3 24.7957 3.31607 25.5588 3.87868 26.1214C4.44129 26.684 5.20435 27.0001 6 27.0001H24.6488L25.26 27.6726C25.3478 27.7716 25.4544 27.8522 25.5736 27.9096C25.6928 27.9671 25.8222 28.0004 25.9543 28.0075C26.0865 28.0146 26.2187 27.9954 26.3434 27.9511C26.4681 27.9067 26.5827 27.838 26.6806 27.749C26.7785 27.66 26.8578 27.5525 26.9139 27.4326C26.97 27.3127 27.0017 27.1829 27.0072 27.0507C27.0127 26.9185 26.9919 26.7865 26.9461 26.6624C26.9002 26.5382 26.8302 26.4244 26.74 26.3276L6.74 4.32758ZM16 21.0001C15.1486 21 14.3146 20.7583 13.595 20.3032C12.8754 19.848 12.2998 19.1981 11.9348 18.4288C11.5699 17.6596 11.4307 16.8025 11.5334 15.9573C11.6361 15.1121 11.9765 14.3133 12.515 13.6538L18.5 20.2401C17.7611 20.737 16.8905 21.0017 16 21.0001ZM29 10.0001V23.2501C29 23.4519 28.9389 23.649 28.8247 23.8155C28.7106 23.9819 28.5488 24.11 28.3605 24.1827C28.1722 24.2555 27.9664 24.2696 27.7699 24.2232C27.5735 24.1767 27.3958 24.0719 27.26 23.9226L11.01 6.04758C10.8602 5.8827 10.7697 5.6725 10.753 5.45036C10.7362 5.22821 10.7941 5.00683 10.9175 4.82133L11.1675 4.44633C11.2588 4.30912 11.3825 4.19658 11.5277 4.11872C11.673 4.04087 11.8352 4.00011 12 4.00008H20C20.1647 3.99998 20.3268 4.04054 20.4721 4.11817C20.6173 4.1958 20.7411 4.3081 20.8325 4.44508L22.535 7.00008H26C26.7956 7.00008 27.5587 7.31615 28.1213 7.87876C28.6839 8.44137 29 9.20443 29 10.0001Z" fill="#4A4A4F"/>
</svg>
