<svg width="32" height="32" viewBox="0 0 32 32" fill="none" xmlns="http://www.w3.org/2000/svg">
<path d="M16.5237 3.14862C16.3662 3.05176 16.1849 3.00049 16 3.00049C15.815 3.00049 15.6337 3.05176 15.4762 3.14862C14.2219 3.9637 13.0655 4.92041 12.03 5.99987C9.72121 8.39112 8.49996 10.9874 8.49996 13.4999C8.49996 15.489 9.29014 17.3966 10.6967 18.8032C12.1032 20.2097 14.0108 20.9999 16 20.9999C17.9891 20.9999 19.8967 20.2097 21.3033 18.8032C22.7098 17.3966 23.5 15.489 23.5 13.4999C23.5 7.50987 16.8087 3.32362 16.5237 3.14862ZM16 18.9999C15.2043 18.9999 14.4412 18.6838 13.8786 18.1212C13.316 17.5586 13 16.7955 13 15.9999C13 12.9999 16 10.9999 16 10.9999C16 10.9999 19 12.9999 19 15.9999C19 16.7955 18.6839 17.5586 18.1213 18.1212C17.5587 18.6838 16.7956 18.9999 16 18.9999ZM27.9525 28.3024C27.9127 28.4275 27.8486 28.5437 27.7639 28.6441C27.6793 28.7445 27.5756 28.8272 27.459 28.8876C27.3423 28.948 27.2149 28.9848 27.084 28.9959C26.9532 29.007 26.8214 28.9922 26.6962 28.9524L16 25.5486L5.30371 28.9524C5.17854 28.9922 5.04676 29.0069 4.91589 28.9958C4.78502 28.9847 4.65762 28.9479 4.54097 28.8875C4.42431 28.8272 4.32069 28.7444 4.23601 28.644C4.15134 28.5436 4.08727 28.4275 4.04746 28.3024C4.00765 28.1772 3.99289 28.0454 4.00401 27.9145C4.01513 27.7837 4.05192 27.6563 4.11228 27.5396C4.17264 27.423 4.25538 27.3193 4.35579 27.2347C4.45619 27.15 4.57229 27.0859 4.69746 27.0461L12.6975 24.4999L4.69746 21.9524C4.56884 21.9155 4.44891 21.8533 4.34478 21.7693C4.24065 21.6853 4.15444 21.5812 4.09124 21.4633C4.02805 21.3454 3.98916 21.216 3.97688 21.0828C3.9646 20.9495 3.97917 20.8152 4.01975 20.6877C4.06032 20.5602 4.12606 20.4422 4.21308 20.3406C4.3001 20.2389 4.40662 20.1558 4.52635 20.0961C4.64607 20.0364 4.77656 20.0013 4.91009 19.9929C5.04362 19.9846 5.17746 20.0031 5.30371 20.0474L16 23.4499L26.6962 20.0474C26.8225 20.0031 26.9563 19.9846 27.0898 19.9929C27.2234 20.0013 27.3538 20.0364 27.4736 20.0961C27.5933 20.1558 27.6998 20.2389 27.7868 20.3406C27.8739 20.4422 27.9396 20.5602 27.9802 20.6877C28.0207 20.8152 28.0353 20.9495 28.023 21.0828C28.0108 21.216 27.9719 21.3454 27.9087 21.4633C27.8455 21.5812 27.7593 21.6853 27.6551 21.7693C27.551 21.8533 27.4311 21.9155 27.3025 21.9524L19.3025 24.4999L27.3025 27.0461C27.4276 27.0859 27.5438 27.15 27.6442 27.2346C27.7446 27.3193 27.8273 27.4229 27.8877 27.5396C27.9481 27.6562 27.9848 27.7837 27.996 27.9145C28.0071 28.0454 27.9923 28.1772 27.9525 28.3024Z" fill="#4A4A4F"/>
</svg>
