<svg width="32" height="32" viewBox="0 0 32 32" fill="none" xmlns="http://www.w3.org/2000/svg">
<path d="M27.9525 28.3025C27.9127 28.4276 27.8486 28.5438 27.7639 28.6442C27.6793 28.7446 27.5756 28.8273 27.459 28.8877C27.3423 28.9481 27.2149 28.9848 27.084 28.996C26.9532 29.0071 26.8214 28.9923 26.6962 28.9525L16 25.5487L5.30371 28.9525C5.17854 28.9923 5.04676 29.007 4.91589 28.9959C4.78502 28.9848 4.65762 28.948 4.54097 28.8876C4.42431 28.8273 4.32069 28.7445 4.23601 28.6441C4.15134 28.5437 4.08727 28.4276 4.04746 28.3025C4.00765 28.1773 3.99289 28.0455 4.00401 27.9146C4.01513 27.7838 4.05192 27.6564 4.11228 27.5397C4.17264 27.4231 4.25538 27.3194 4.35579 27.2348C4.45619 27.1501 4.57229 27.086 4.69746 27.0462L12.6975 24.5L4.69746 21.9525C4.56884 21.9156 4.44891 21.8534 4.34478 21.7694C4.24065 21.6854 4.15444 21.5813 4.09124 21.4634C4.02805 21.3455 3.98916 21.2161 3.97688 21.0829C3.9646 20.9496 3.97917 20.8153 4.01975 20.6878C4.06032 20.5603 4.12606 20.4423 4.21308 20.3407C4.3001 20.239 4.40662 20.1559 4.52635 20.0962C4.64607 20.0365 4.77656 20.0014 4.91009 19.993C5.04362 19.9847 5.17746 20.0032 5.30371 20.0475L16 23.45L26.6962 20.0475C26.8225 20.0032 26.9563 19.9847 27.0898 19.993C27.2234 20.0014 27.3538 20.0365 27.4736 20.0962C27.5933 20.1559 27.6998 20.239 27.7868 20.3407C27.8739 20.4423 27.9396 20.5603 27.9802 20.6878C28.0207 20.8153 28.0353 20.9496 28.023 21.0829C28.0108 21.2161 27.9719 21.3455 27.9087 21.4634C27.8455 21.5813 27.7593 21.6854 27.6551 21.7694C27.551 21.8534 27.4311 21.9156 27.3025 21.9525L19.3025 24.5L27.3025 27.0462C27.4276 27.086 27.5438 27.1501 27.6442 27.2347C27.7446 27.3194 27.8273 27.423 27.8877 27.5397C27.9481 27.6563 27.9848 27.7838 27.996 27.9146C28.0071 28.0455 27.9923 28.1773 27.9525 28.3025ZM8.49996 13.5C8.49996 10.9875 9.72121 8.39121 12.03 5.99996C13.0659 4.9227 14.2222 3.9681 15.4762 3.15496C15.6337 3.05811 15.815 3.00684 16 3.00684C16.1849 3.00684 16.3662 3.05811 16.5237 3.15496C16.8087 3.32371 23.5 7.50996 23.5 13.5C23.5 15.4891 22.7098 17.3967 21.3033 18.8033C19.8967 20.2098 17.9891 21 16 21C14.0108 21 12.1032 20.2098 10.6967 18.8033C9.29014 17.3967 8.49996 15.4891 8.49996 13.5ZM16 19C16.5304 19 17.0391 18.7892 17.4142 18.4142C17.7892 18.0391 18 17.5304 18 17C18 15.3037 16.75 13.9425 16 13.2762C15.25 13.9425 14 15.3037 14 17C14 17.5304 14.2107 18.0391 14.5857 18.4142C14.9608 18.7892 15.4695 19 16 19ZM10.5 13.5C10.4995 14.9073 11.0407 16.2608 12.0112 17.28C12.0112 17.1875 12 17.0937 12 17C12 13.5 15.305 11.2612 15.445 11.1675C15.6093 11.0578 15.8024 10.9993 16 10.9993C16.1975 10.9993 16.3906 11.0578 16.555 11.1675C16.695 11.2612 20 13.5 20 17C20 17.0937 20 17.1875 19.9887 17.28C20.9592 16.2608 21.5004 14.9073 21.5 13.5C21.5 9.49996 17.4675 6.24996 16 5.20746C14.5337 6.24996 10.5 9.49996 10.5 13.5Z" fill="#4A4A4F"/>
</svg>
