<svg width="32" height="32" viewBox="0 0 32 32" fill="none" xmlns="http://www.w3.org/2000/svg">
<path d="M25.1927 6.80766C22.7547 4.36966 19.448 3 16.0002 3C12.5523 3 9.24566 4.36966 6.80766 6.80766C4.36966 9.24566 3 12.5523 3 16.0002C3 19.448 4.36966 22.7547 6.80766 25.1927C9.24566 27.6307 12.5523 29.0003 16.0002 29.0003C19.448 29.0003 22.7547 27.6307 25.1927 25.1927C27.6307 22.7547 29.0003 19.448 29.0003 16.0002C29.0003 12.5523 27.6307 9.24566 25.1927 6.80766ZM23.7789 23.7789C22.2405 25.3171 20.2805 26.3646 18.1467 26.7889C16.013 27.2132 13.8013 26.9953 11.7914 26.1627C9.78152 25.3301 8.06365 23.9202 6.85503 22.1113C5.64641 20.3024 5.00131 18.1757 5.00131 16.0002C5.00131 13.8246 5.64641 11.698 6.85503 9.88906C8.06365 8.08015 9.78152 6.67025 11.7914 5.83764C13.8013 5.00503 16.013 4.7871 18.1467 5.2114C20.2805 5.63571 22.2405 6.68319 23.7789 8.22141C25.8388 10.2861 26.9956 13.0836 26.9956 16.0002C26.9956 18.9167 25.8388 21.7142 23.7789 23.7789ZM21.7077 12.7077L18.4139 16.0002L21.7077 19.2927C21.8006 19.3856 21.8743 19.4959 21.9246 19.6173C21.9748 19.7387 22.0007 19.8688 22.0007 20.0002C22.0007 20.1316 21.9748 20.2617 21.9246 20.3831C21.8743 20.5044 21.8006 20.6147 21.7077 20.7077C21.6147 20.8006 21.5044 20.8743 21.3831 20.9246C21.2617 20.9748 21.1316 21.0007 21.0002 21.0007C20.8688 21.0007 20.7387 20.9748 20.6173 20.9246C20.4959 20.8743 20.3856 20.8006 20.2927 20.7077L16.2927 16.7077C16.1997 16.6148 16.1259 16.5045 16.0756 16.3831C16.0253 16.2617 15.9994 16.1316 15.9994 16.0002C15.9994 15.8687 16.0253 15.7386 16.0756 15.6172C16.1259 15.4958 16.1997 15.3855 16.2927 15.2927L20.2927 11.2927C20.3856 11.1997 20.4959 11.126 20.6173 11.0758C20.7387 11.0255 20.8688 10.9996 21.0002 10.9996C21.1316 10.9996 21.2617 11.0255 21.3831 11.0758C21.5044 11.126 21.6147 11.1997 21.7077 11.2927C21.8006 11.3856 21.8743 11.4959 21.9246 11.6173C21.9748 11.7387 22.0007 11.8688 22.0007 12.0002C22.0007 12.1316 21.9748 12.2617 21.9246 12.3831C21.8743 12.5044 21.8006 12.6147 21.7077 12.7077ZM14.7077 12.7077L11.4139 16.0002L14.7077 19.2927C14.8006 19.3856 14.8743 19.4959 14.9246 19.6173C14.9748 19.7387 15.0007 19.8688 15.0007 20.0002C15.0007 20.1316 14.9748 20.2617 14.9246 20.3831C14.8743 20.5044 14.8006 20.6147 14.7077 20.7077C14.6147 20.8006 14.5044 20.8743 14.3831 20.9246C14.2617 20.9748 14.1316 21.0007 14.0002 21.0007C13.8688 21.0007 13.7387 20.9748 13.6173 20.9246C13.4959 20.8743 13.3856 20.8006 13.2927 20.7077L9.29266 16.7077C9.19968 16.6148 9.12592 16.5045 9.0756 16.3831C9.02527 16.2617 8.99937 16.1316 8.99937 16.0002C8.99937 15.8687 9.02527 15.7386 9.0756 15.6172C9.12592 15.4958 9.19968 15.3855 9.29266 15.2927L13.2927 11.2927C13.4803 11.105 13.7348 10.9996 14.0002 10.9996C14.2655 10.9996 14.52 11.105 14.7077 11.2927C14.8953 11.4803 15.0007 11.7348 15.0007 12.0002C15.0007 12.2655 14.8953 12.52 14.7077 12.7077Z" fill="#4A4A4F"/>
</svg>
