<svg width="32" height="32" viewBox="0 0 32 32" fill="none" xmlns="http://www.w3.org/2000/svg">
<path d="M25.1962 6.80393C23.0681 4.67159 20.2665 3.34324 17.2687 3.04529C14.271 2.74735 11.2627 3.49825 8.75657 5.17001C6.25048 6.84177 4.40171 9.33092 3.52539 12.2132C2.64907 15.0954 2.79944 18.1924 3.95087 20.9762C5.10231 23.76 7.18353 26.0583 9.8398 27.4794C12.4961 28.9005 15.563 29.3564 18.5178 28.7695C21.4726 28.1825 24.1323 26.589 26.0438 24.2605C27.9552 21.932 28.9999 19.0127 28.9999 16.0002C28.9996 12.552 27.6317 9.2448 25.1962 6.80393ZM20.7087 18.7089L16.7087 22.7089C16.6158 22.8019 16.5055 22.8757 16.3841 22.926C16.2627 22.9763 16.1326 23.0022 16.0012 23.0022C15.8697 23.0022 15.7396 22.9763 15.6182 22.926C15.4968 22.8757 15.3865 22.8019 15.2937 22.7089L11.2937 18.7089C11.2007 18.616 11.127 18.5057 11.0768 18.3843C11.0265 18.2629 11.0006 18.1328 11.0006 18.0014C11.0006 17.87 11.0265 17.7399 11.0768 17.6185C11.127 17.4971 11.2007 17.3868 11.2937 17.2939C11.3866 17.201 11.4969 17.1273 11.6183 17.077C11.7397 17.0268 11.8698 17.0009 12.0012 17.0009C12.1326 17.0009 12.2627 17.0268 12.3841 17.077C12.5054 17.1273 12.6157 17.201 12.7087 17.2939L15.9999 20.5889L19.2937 17.2939C19.4813 17.1063 19.7358 17.0009 20.0012 17.0009C20.2665 17.0009 20.521 17.1063 20.7087 17.2939C20.8963 17.4816 21.0017 17.7361 21.0017 18.0014C21.0017 18.2668 20.8963 18.5213 20.7087 18.7089ZM20.7087 11.7089L16.7087 15.7089C16.6158 15.8019 16.5055 15.8757 16.3841 15.926C16.2627 15.9763 16.1326 16.0022 16.0012 16.0022C15.8697 16.0022 15.7396 15.9763 15.6182 15.926C15.4968 15.8757 15.3865 15.8019 15.2937 15.7089L11.2937 11.7089C11.2007 11.616 11.127 11.5057 11.0768 11.3843C11.0265 11.2629 11.0006 11.1328 11.0006 11.0014C11.0006 10.87 11.0265 10.7399 11.0768 10.6185C11.127 10.4971 11.2007 10.3868 11.2937 10.2939C11.3866 10.201 11.4969 10.1273 11.6183 10.077C11.7397 10.0268 11.8698 10.0009 12.0012 10.0009C12.1326 10.0009 12.2627 10.0268 12.3841 10.077C12.5054 10.1273 12.6157 10.201 12.7087 10.2939L15.9999 13.5852L19.2937 10.2902C19.4813 10.1025 19.7358 9.99713 20.0012 9.99713C20.2665 9.99713 20.521 10.1025 20.7087 10.2902C20.8963 10.4778 21.0017 10.7323 21.0017 10.9977C21.0017 11.263 20.8963 11.5175 20.7087 11.7052V11.7089Z" fill="#4A4A4F"/>
</svg>
