<svg width="32" height="32" viewBox="0 0 32 32" fill="none" xmlns="http://www.w3.org/2000/svg">
<path d="M25.1927 6.80766C22.7547 4.36966 19.448 3 16.0002 3C12.5523 3 9.24566 4.36966 6.80766 6.80766C4.36966 9.24566 3 12.5523 3 16.0002C3 19.448 4.36966 22.7547 6.80766 25.1927C9.24566 27.6307 12.5523 29.0003 16.0002 29.0003C19.448 29.0003 22.7547 27.6307 25.1927 25.1927C27.6307 22.7547 29.0003 19.448 29.0003 16.0002C29.0003 12.5523 27.6307 9.24566 25.1927 6.80766ZM23.7789 23.7789C22.2405 25.3171 20.2805 26.3646 18.1467 26.7889C16.013 27.2132 13.8013 26.9953 11.7914 26.1627C9.78152 25.3301 8.06365 23.9202 6.85503 22.1113C5.64641 20.3024 5.00131 18.1757 5.00131 16.0002C5.00131 13.8246 5.64641 11.698 6.85503 9.88906C8.06365 8.08015 9.78152 6.67025 11.7914 5.83764C13.8013 5.00503 16.013 4.7871 18.1467 5.2114C20.2805 5.63571 22.2405 6.68319 23.7789 8.22141C25.8388 10.2861 26.9956 13.0836 26.9956 16.0002C26.9956 18.9167 25.8388 21.7142 23.7789 23.7789ZM15.7077 15.2927C15.8006 15.3855 15.8744 15.4958 15.9247 15.6172C15.975 15.7386 16.0009 15.8687 16.0009 16.0002C16.0009 16.1316 15.975 16.2617 15.9247 16.3831C15.8744 16.5045 15.8006 16.6148 15.7077 16.7077L11.7077 20.7077C11.6147 20.8006 11.5044 20.8743 11.3831 20.9246C11.2617 20.9748 11.1316 21.0007 11.0002 21.0007C10.8688 21.0007 10.7387 20.9748 10.6173 20.9246C10.4959 20.8743 10.3856 20.8006 10.2927 20.7077C10.1997 20.6147 10.126 20.5044 10.0758 20.3831C10.0255 20.2617 9.9996 20.1316 9.9996 20.0002C9.9996 19.8688 10.0255 19.7387 10.0758 19.6173C10.126 19.4959 10.1997 19.3856 10.2927 19.2927L13.5864 16.0002L10.2927 12.7077C10.105 12.52 9.9996 12.2655 9.9996 12.0002C9.9996 11.7348 10.105 11.4803 10.2927 11.2927C10.4803 11.105 10.7348 10.9996 11.0002 10.9996C11.2655 10.9996 11.52 11.105 11.7077 11.2927L15.7077 15.2927ZM22.7077 15.2927C22.8006 15.3855 22.8744 15.4958 22.9247 15.6172C22.975 15.7386 23.0009 15.8687 23.0009 16.0002C23.0009 16.1316 22.975 16.2617 22.9247 16.3831C22.8744 16.5045 22.8006 16.6148 22.7077 16.7077L18.7077 20.7077C18.52 20.8953 18.2655 21.0007 18.0002 21.0007C17.7348 21.0007 17.4803 20.8953 17.2927 20.7077C17.105 20.52 16.9996 20.2655 16.9996 20.0002C16.9996 19.7348 17.105 19.4803 17.2927 19.2927L20.5864 16.0002L17.2927 12.7077C17.105 12.52 16.9996 12.2655 16.9996 12.0002C16.9996 11.7348 17.105 11.4803 17.2927 11.2927C17.4803 11.105 17.7348 10.9996 18.0002 10.9996C18.2655 10.9996 18.52 11.105 18.7077 11.2927L22.7077 15.2927Z" fill="#4A4A4F"/>
</svg>
