<svg width="32" height="32" viewBox="0 0 32 32" fill="none" xmlns="http://www.w3.org/2000/svg">
<path d="M25.1927 6.80766C22.7547 4.36966 19.448 3 16.0002 3C12.5523 3 9.24566 4.36966 6.80766 6.80766C4.36966 9.24566 3 12.5523 3 16.0002C3 19.448 4.36966 22.7547 6.80766 25.1927C9.24566 27.6307 12.5523 29.0003 16.0002 29.0003C19.448 29.0003 22.7547 27.6307 25.1927 25.1927C27.6307 22.7547 29.0003 19.448 29.0003 16.0002C29.0003 12.5523 27.6307 9.24566 25.1927 6.80766ZM23.7789 23.7789C22.2405 25.3171 20.2805 26.3646 18.1467 26.7889C16.013 27.2132 13.8013 26.9953 11.7914 26.1627C9.78152 25.3301 8.06365 23.9202 6.85503 22.1113C5.64641 20.3024 5.00131 18.1757 5.00131 16.0002C5.00131 13.8246 5.64641 11.698 6.85503 9.88906C8.06365 8.08015 9.78152 6.67025 11.7914 5.83764C13.8013 5.00503 16.013 4.7871 18.1467 5.2114C20.2805 5.63571 22.2405 6.68319 23.7789 8.22141C25.8388 10.2861 26.9956 13.0836 26.9956 16.0002C26.9956 18.9167 25.8388 21.7142 23.7789 23.7789ZM20.7077 20.2927C20.8953 20.4803 21.0007 20.7348 21.0007 21.0002C21.0007 21.2655 20.8953 21.52 20.7077 21.7077C20.52 21.8953 20.2655 22.0007 20.0002 22.0007C19.7348 22.0007 19.4803 21.8953 19.2927 21.7077L16.0002 18.4139L12.7077 21.7077C12.6147 21.8006 12.5044 21.8743 12.3831 21.9246C12.2617 21.9748 12.1316 22.0007 12.0002 22.0007C11.8688 22.0007 11.7387 21.9748 11.6173 21.9246C11.4959 21.8743 11.3856 21.8006 11.2927 21.7077C11.1997 21.6147 11.126 21.5044 11.0758 21.3831C11.0255 21.2617 10.9996 21.1316 10.9996 21.0002C10.9996 20.8688 11.0255 20.7387 11.0758 20.6173C11.126 20.4959 11.1997 20.3856 11.2927 20.2927L15.2927 16.2927C15.3855 16.1997 15.4958 16.1259 15.6172 16.0756C15.7386 16.0253 15.8687 15.9994 16.0002 15.9994C16.1316 15.9994 16.2617 16.0253 16.3831 16.0756C16.5045 16.1259 16.6148 16.1997 16.7077 16.2927L20.7077 20.2927ZM20.7077 13.2927C20.8006 13.3856 20.8743 13.4959 20.9246 13.6173C20.9748 13.7387 21.0007 13.8688 21.0007 14.0002C21.0007 14.1316 20.9748 14.2617 20.9246 14.3831C20.8743 14.5044 20.8006 14.6147 20.7077 14.7077C20.6147 14.8006 20.5044 14.8743 20.3831 14.9246C20.2617 14.9748 20.1316 15.0007 20.0002 15.0007C19.8688 15.0007 19.7387 14.9748 19.6173 14.9246C19.4959 14.8743 19.3856 14.8006 19.2927 14.7077L16.0002 11.4139L12.7077 14.7077C12.52 14.8953 12.2655 15.0007 12.0002 15.0007C11.7348 15.0007 11.4803 14.8953 11.2927 14.7077C11.105 14.52 10.9996 14.2655 10.9996 14.0002C10.9996 13.7348 11.105 13.4803 11.2927 13.2927L15.2927 9.29266C15.3855 9.19968 15.4958 9.12592 15.6172 9.0756C15.7386 9.02527 15.8687 8.99937 16.0002 8.99937C16.1316 8.99937 16.2617 9.02527 16.3831 9.0756C16.5045 9.12592 16.6148 9.19968 16.7077 9.29266L20.7077 13.2927Z" fill="#4A4A4F"/>
</svg>
