<svg width="32" height="32" viewBox="0 0 32 32" fill="none" xmlns="http://www.w3.org/2000/svg">
<path d="M25.1962 6.80264C23.3776 4.98583 21.0612 3.74896 18.5398 3.24838C16.0184 2.7478 13.4052 3.00599 11.0305 3.9903C8.65579 4.97461 6.62621 6.64086 5.19831 8.77842C3.77042 10.916 3.0083 13.4289 3.0083 15.9995C3.0083 18.5701 3.77042 21.083 5.19831 23.2206C6.62621 25.3582 8.65579 27.0244 11.0305 28.0087C13.4052 28.993 16.0184 29.2512 18.5398 28.7507C21.0612 28.2501 23.3776 27.0132 25.1962 25.1964C27.6317 22.7553 28.9995 19.4478 28.9995 15.9995C28.9995 12.5512 27.6317 9.24374 25.1962 6.80264ZM14.7062 19.2939C14.7991 19.3868 14.8728 19.4971 14.9231 19.6185C14.9734 19.7399 14.9993 19.87 14.9993 20.0014C14.9993 20.1328 14.9734 20.2629 14.9231 20.3843C14.8728 20.5057 14.7991 20.616 14.7062 20.7089C14.6133 20.8018 14.503 20.8755 14.3816 20.9258C14.2602 20.9761 14.1301 21.0019 13.9987 21.0019C13.8673 21.0019 13.7372 20.9761 13.6158 20.9258C13.4944 20.8755 13.3841 20.8018 13.2912 20.7089L9.2912 16.7089C9.19822 16.616 9.12446 16.5057 9.07414 16.3843C9.02382 16.2629 8.99791 16.1328 8.99791 16.0014C8.99791 15.87 9.02382 15.7399 9.07414 15.6185C9.12446 15.4971 9.19822 15.3868 9.2912 15.2939L13.2912 11.2939C13.3841 11.201 13.4944 11.1273 13.6158 11.077C13.7372 11.0267 13.8673 11.0008 13.9987 11.0008C14.1301 11.0008 14.2602 11.0267 14.3816 11.077C14.503 11.1273 14.6133 11.201 14.7062 11.2939C14.7991 11.3868 14.8728 11.4971 14.9231 11.6185C14.9734 11.7399 14.9993 11.87 14.9993 12.0014C14.9993 12.1328 14.9734 12.2629 14.9231 12.3843C14.8728 12.5057 14.7991 12.616 14.7062 12.7089L11.4112 16.0001L14.7062 19.2939ZM21.7062 19.2939C21.7991 19.3868 21.8728 19.4971 21.9231 19.6185C21.9734 19.7399 21.9993 19.87 21.9993 20.0014C21.9993 20.1328 21.9734 20.2629 21.9231 20.3843C21.8728 20.5057 21.7991 20.616 21.7062 20.7089C21.6133 20.8018 21.503 20.8755 21.3816 20.9258C21.2602 20.9761 21.1301 21.0019 20.9987 21.0019C20.8673 21.0019 20.7372 20.9761 20.6158 20.9258C20.4944 20.8755 20.3841 20.8018 20.2912 20.7089L16.2912 16.7089C16.1982 16.616 16.1245 16.5057 16.0741 16.3843C16.0238 16.2629 15.9979 16.1328 15.9979 16.0014C15.9979 15.87 16.0238 15.7399 16.0741 15.6185C16.1245 15.4971 16.1982 15.3868 16.2912 15.2939L20.2912 11.2939C20.3841 11.201 20.4944 11.1273 20.6158 11.077C20.7372 11.0267 20.8673 11.0008 20.9987 11.0008C21.1301 11.0008 21.2602 11.0267 21.3816 11.077C21.503 11.1273 21.6133 11.201 21.7062 11.2939C21.7991 11.3868 21.8728 11.4971 21.9231 11.6185C21.9734 11.7399 21.9993 11.87 21.9993 12.0014C21.9993 12.1328 21.9734 12.2629 21.9231 12.3843C21.8728 12.5057 21.7991 12.616 21.7062 12.7089L18.415 16.0001L21.7062 19.2939Z" fill="#4A4A4F"/>
</svg>
