<svg width="32" height="32" viewBox="0 0 32 32" fill="none" xmlns="http://www.w3.org/2000/svg">
<path d="M20.7073 25.2926C20.8002 25.3855 20.8739 25.4958 20.9242 25.6172C20.9745 25.7386 21.0004 25.8687 21.0004 26.0001C21.0004 26.1315 20.9745 26.2616 20.9242 26.383C20.8739 26.5044 20.8002 26.6147 20.7073 26.7076C20.6144 26.8005 20.5041 26.8742 20.3827 26.9245C20.2613 26.9747 20.1312 27.0006 19.9998 27.0006C19.8684 27.0006 19.7383 26.9747 19.6169 26.9245C19.4955 26.8742 19.3852 26.8005 19.2923 26.7076L9.29231 16.7076C9.19933 16.6147 9.12557 16.5044 9.07525 16.383C9.02493 16.2616 8.99902 16.1315 8.99902 16.0001C8.99902 15.8687 9.02493 15.7385 9.07525 15.6171C9.12557 15.4957 9.19933 15.3854 9.29231 15.2926L19.2923 5.29257C19.4799 5.10493 19.7344 4.99951 19.9998 4.99951C20.2652 4.99951 20.5197 5.10493 20.7073 5.29257C20.895 5.48021 21.0004 5.7347 21.0004 6.00007C21.0004 6.26543 20.895 6.51993 20.7073 6.70757L11.4136 16.0001L20.7073 25.2926Z" fill="#4A4A4F"/>
</svg>
