<svg width="32" height="32" viewBox="0 0 32 32" fill="none" xmlns="http://www.w3.org/2000/svg">
<path d="M22.7076 21.2923C22.8005 21.3852 22.8743 21.4955 22.9246 21.6169C22.975 21.7383 23.0009 21.8684 23.0009 21.9998C23.0009 22.1312 22.975 22.2614 22.9246 22.3827C22.8743 22.5041 22.8005 22.6144 22.7076 22.7073L16.7076 28.7073C16.6147 28.8003 16.5044 28.874 16.383 28.9244C16.2616 28.9747 16.1315 29.0006 16.0001 29.0006C15.8687 29.0006 15.7385 28.9747 15.6171 28.9244C15.4957 28.874 15.3854 28.8003 15.2926 28.7073L9.29257 22.7073C9.10493 22.5197 8.99951 22.2652 8.99951 21.9998C8.99951 21.7344 9.10493 21.4799 9.29257 21.2923C9.48021 21.1047 9.7347 20.9993 10.0001 20.9993C10.2654 20.9993 10.5199 21.1047 10.7076 21.2923L16.0001 26.5861L21.2926 21.2923C21.3854 21.1993 21.4957 21.1256 21.6171 21.0752C21.7385 21.0249 21.8687 20.999 22.0001 20.999C22.1315 20.999 22.2616 21.0249 22.383 21.0752C22.5044 21.1256 22.6147 21.1993 22.7076 21.2923ZM10.7076 10.7073L16.0001 5.41356L21.2926 10.7073C21.4802 10.895 21.7347 11.0004 22.0001 11.0004C22.2654 11.0004 22.5199 10.895 22.7076 10.7073C22.8952 10.5197 23.0006 10.2652 23.0006 9.99981C23.0006 9.73445 22.8952 9.47995 22.7076 9.29231L16.7076 3.29231C16.6147 3.19933 16.5044 3.12557 16.383 3.07525C16.2616 3.02493 16.1315 2.99902 16.0001 2.99902C15.8687 2.99902 15.7385 3.02493 15.6171 3.07525C15.4957 3.12557 15.3854 3.19933 15.2926 3.29231L9.29257 9.29231C9.10493 9.47995 8.99951 9.73445 8.99951 9.99981C8.99951 10.2652 9.10493 10.5197 9.29257 10.7073C9.48021 10.895 9.7347 11.0004 10.0001 11.0004C10.2654 11.0004 10.5199 10.895 10.7076 10.7073Z" fill="#4A4A4F"/>
</svg>
