<svg width="32" height="32" viewBox="0 0 32 32" fill="none" xmlns="http://www.w3.org/2000/svg">
<path d="M25.7073 25.2926C25.8002 25.3855 25.8739 25.4958 25.9242 25.6172C25.9745 25.7386 26.0004 25.8687 26.0004 26.0001C26.0004 26.1315 25.9745 26.2616 25.9242 26.383C25.8739 26.5044 25.8002 26.6147 25.7073 26.7076C25.6144 26.8005 25.5041 26.8742 25.3827 26.9245C25.2613 26.9747 25.1312 27.0006 24.9998 27.0006C24.8684 27.0006 24.7383 26.9747 24.6169 26.9245C24.4955 26.8742 24.3852 26.8005 24.2923 26.7076L14.2923 16.7076C14.1993 16.6147 14.1256 16.5044 14.0753 16.383C14.0249 16.2616 13.999 16.1315 13.999 16.0001C13.999 15.8687 14.0249 15.7385 14.0753 15.6171C14.1256 15.4957 14.1993 15.3854 14.2923 15.2926L24.2923 5.29257C24.4799 5.10493 24.7344 4.99951 24.9998 4.99951C25.2652 4.99951 25.5197 5.10493 25.7073 5.29257C25.895 5.48021 26.0004 5.7347 26.0004 6.00007C26.0004 6.26543 25.895 6.51993 25.7073 6.70757L16.4136 16.0001L25.7073 25.2926ZM6.41356 16.0001L15.7073 6.70757C15.895 6.51993 16.0004 6.26543 16.0004 6.00007C16.0004 5.7347 15.895 5.48021 15.7073 5.29257C15.5197 5.10493 15.2652 4.99951 14.9998 4.99951C14.7344 4.99951 14.4799 5.10493 14.2923 5.29257L4.29231 15.2926C4.19933 15.3854 4.12557 15.4957 4.07525 15.6171C4.02493 15.7385 3.99902 15.8687 3.99902 16.0001C3.99902 16.1315 4.02493 16.2616 4.07525 16.383C4.12557 16.5044 4.19933 16.6147 4.29231 16.7076L14.2923 26.7076C14.3852 26.8005 14.4955 26.8742 14.6169 26.9245C14.7383 26.9747 14.8684 27.0006 14.9998 27.0006C15.1312 27.0006 15.2613 26.9747 15.3827 26.9245C15.5041 26.8742 15.6144 26.8005 15.7073 26.7076C15.8002 26.6147 15.8739 26.5044 15.9242 26.383C15.9745 26.2616 16.0004 26.1315 16.0004 26.0001C16.0004 25.8687 15.9745 25.7386 15.9242 25.6172C15.8739 25.4958 15.8002 25.3855 15.7073 25.2926L6.41356 16.0001Z" fill="#4A4A4F"/>
</svg>
