<svg width="32" height="32" viewBox="0 0 32 32" fill="none" xmlns="http://www.w3.org/2000/svg">
<path d="M16 3C13.4288 3 10.9154 3.76244 8.77759 5.1909C6.63975 6.61935 4.97351 8.64968 3.98957 11.0251C3.00563 13.4006 2.74819 16.0144 3.2498 18.5362C3.75141 21.0579 4.98953 23.3743 6.80762 25.1924C8.6257 27.0105 10.9421 28.2486 13.4638 28.7502C15.9856 29.2518 18.5995 28.9944 20.9749 28.0104C23.3503 27.0265 25.3807 25.3603 26.8091 23.2224C28.2376 21.0846 29 18.5712 29 16C28.9964 12.5533 27.6256 9.24882 25.1884 6.81163C22.7512 4.37445 19.4467 3.00364 16 3ZM19.7075 16.7075L14.7075 21.7075C14.6146 21.8004 14.5043 21.8741 14.3829 21.9244C14.2615 21.9747 14.1314 22.0006 14 22.0006C13.8686 22.0006 13.7385 21.9747 13.6171 21.9244C13.4957 21.8741 13.3854 21.8004 13.2925 21.7075C13.1996 21.6146 13.1259 21.5043 13.0756 21.3829C13.0253 21.2615 12.9994 21.1314 12.9994 21C12.9994 20.8686 13.0253 20.7385 13.0756 20.6171C13.1259 20.4957 13.1996 20.3854 13.2925 20.2925L17.5863 16L13.2925 11.7075C13.1049 11.5199 12.9994 11.2654 12.9994 11C12.9994 10.7346 13.1049 10.4801 13.2925 10.2925C13.4801 10.1049 13.7346 9.99944 14 9.99944C14.2654 9.99944 14.5199 10.1049 14.7075 10.2925L19.7075 15.2925C19.8005 15.3854 19.8742 15.4957 19.9246 15.6171C19.9749 15.7385 20.0008 15.8686 20.0008 16C20.0008 16.1314 19.9749 16.2615 19.9246 16.3829C19.8742 16.5043 19.8005 16.6146 19.7075 16.7075Z" fill="#4A4A4F"/>
</svg>
