<svg width="32" height="32" viewBox="0 0 32 32" fill="none" xmlns="http://www.w3.org/2000/svg">
<path d="M25.1973 6.80376C23.3788 4.98677 21.0624 3.74972 18.5409 3.249C16.0195 2.74828 13.4062 3.00636 11.0314 3.99062C8.65658 4.97488 6.6269 6.64113 5.19893 8.77873C3.77095 10.9163 3.00879 13.4293 3.00879 16C3.00879 18.5707 3.77095 21.0837 5.19893 23.2213C6.6269 25.3589 8.65658 27.0251 11.0314 28.0094C13.4062 28.9937 16.0195 29.2517 18.5409 28.751C21.0624 28.2503 23.3788 27.0132 25.1973 25.1963C27.6325 22.7552 29 19.448 29 16C29 12.552 27.6325 9.2448 25.1973 6.80376ZM20.7098 21.71C20.6169 21.803 20.5067 21.8767 20.3853 21.9271C20.2639 21.9774 20.1337 22.0033 20.0023 22.0033C19.8709 22.0033 19.7408 21.9774 19.6194 21.9271C19.498 21.8767 19.3877 21.803 19.2948 21.71L15.9998 18.415L12.7061 21.71C12.5184 21.8976 12.2639 22.0031 11.9986 22.0031C11.7332 22.0031 11.4787 21.8976 11.2911 21.71C11.1034 21.5224 10.998 21.2679 10.998 21.0025C10.998 20.7371 11.1034 20.4826 11.2911 20.295L15.2911 16.295C15.3839 16.202 15.4942 16.1283 15.6156 16.0779C15.737 16.0276 15.8671 16.0017 15.9986 16.0017C16.13 16.0017 16.2601 16.0276 16.3815 16.0779C16.5029 16.1283 16.6132 16.202 16.7061 16.295L20.7061 20.295C20.7993 20.3876 20.8733 20.4977 20.924 20.619C20.9746 20.7403 21.0009 20.8703 21.0012 21.0017C21.0016 21.1331 20.976 21.2633 20.926 21.3849C20.876 21.5064 20.8025 21.6169 20.7098 21.71ZM20.7098 14.71C20.6169 14.803 20.5067 14.8767 20.3853 14.9271C20.2639 14.9774 20.1337 15.0033 20.0023 15.0033C19.8709 15.0033 19.7408 14.9774 19.6194 14.9271C19.498 14.8767 19.3877 14.803 19.2948 14.71L15.9998 11.4113L12.7061 14.7063C12.5184 14.8939 12.2639 14.9993 11.9986 14.9993C11.7332 14.9993 11.4787 14.8939 11.2911 14.7063C11.1034 14.5186 10.998 14.2641 10.998 13.9988C10.998 13.7334 11.1034 13.4789 11.2911 13.2913L15.2911 9.29126C15.3839 9.19828 15.4942 9.12452 15.6156 9.0742C15.737 9.02387 15.8671 8.99797 15.9986 8.99797C16.13 8.99797 16.2601 9.02387 16.3815 9.0742C16.5029 9.12452 16.6132 9.19828 16.7061 9.29126L20.7061 13.2913C20.7993 13.3839 20.8733 13.494 20.924 13.6152C20.9746 13.7365 21.0009 13.8666 21.0012 13.998C21.0016 14.1294 20.976 14.2596 20.926 14.3811C20.876 14.5027 20.8025 14.6131 20.7098 14.7063V14.71Z" fill="#4A4A4F"/>
</svg>
