<svg width="32" height="32" viewBox="0 0 32 32" fill="none" xmlns="http://www.w3.org/2000/svg">
<path d="M25.1927 6.80766C22.7547 4.36966 19.448 3 16.0002 3C12.5523 3 9.24566 4.36966 6.80766 6.80766C4.36966 9.24566 3 12.5523 3 16.0002C3 19.448 4.36966 22.7547 6.80766 25.1927C9.24566 27.6307 12.5523 29.0003 16.0002 29.0003C19.448 29.0003 22.7547 27.6307 25.1927 25.1927C27.6307 22.7547 29.0003 19.448 29.0003 16.0002C29.0003 12.5523 27.6307 9.24566 25.1927 6.80766ZM23.7789 23.7789C22.2405 25.3171 20.2805 26.3646 18.1467 26.7889C16.013 27.2132 13.8013 26.9953 11.7914 26.1627C9.78152 25.3301 8.06365 23.9202 6.85503 22.1113C5.64641 20.3024 5.00131 18.1757 5.00131 16.0002C5.00131 13.8246 5.64641 11.698 6.85503 9.88906C8.06365 8.08015 9.78152 6.67025 11.7914 5.83764C13.8013 5.00503 16.013 4.7871 18.1467 5.2114C20.2805 5.63571 22.2405 6.68319 23.7789 8.22141C25.8388 10.2861 26.9956 13.0836 26.9956 16.0002C26.9956 18.9167 25.8388 21.7142 23.7789 23.7789ZM20.7077 10.2927C20.8006 10.3855 20.8744 10.4958 20.9247 10.6172C20.975 10.7386 21.0009 10.8687 21.0009 11.0002C21.0009 11.1316 20.975 11.2617 20.9247 11.3831C20.8744 11.5045 20.8006 11.6148 20.7077 11.7077L16.7077 15.7077C16.6148 15.8006 16.5045 15.8744 16.3831 15.9247C16.2617 15.975 16.1316 16.0009 16.0002 16.0009C15.8687 16.0009 15.7386 15.975 15.6172 15.9247C15.4958 15.8744 15.3855 15.8006 15.2927 15.7077L11.2927 11.7077C11.105 11.52 10.9996 11.2655 10.9996 11.0002C10.9996 10.7348 11.105 10.4803 11.2927 10.2927C11.4803 10.105 11.7348 9.9996 12.0002 9.9996C12.2655 9.9996 12.52 10.105 12.7077 10.2927L16.0002 13.5864L19.2927 10.2927C19.3855 10.1997 19.4958 10.1259 19.6172 10.0756C19.7386 10.0253 19.8687 9.99937 20.0002 9.99937C20.1316 9.99937 20.2617 10.0253 20.3831 10.0756C20.5045 10.1259 20.6148 10.1997 20.7077 10.2927ZM20.7077 17.2927C20.8006 17.3855 20.8744 17.4958 20.9247 17.6172C20.975 17.7386 21.0009 17.8687 21.0009 18.0002C21.0009 18.1316 20.975 18.2617 20.9247 18.3831C20.8744 18.5045 20.8006 18.6148 20.7077 18.7077L16.7077 22.7077C16.6148 22.8006 16.5045 22.8744 16.3831 22.9247C16.2617 22.975 16.1316 23.0009 16.0002 23.0009C15.8687 23.0009 15.7386 22.975 15.6172 22.9247C15.4958 22.8744 15.3855 22.8006 15.2927 22.7077L11.2927 18.7077C11.105 18.52 10.9996 18.2655 10.9996 18.0002C10.9996 17.7348 11.105 17.4803 11.2927 17.2927C11.4803 17.105 11.7348 16.9996 12.0002 16.9996C12.2655 16.9996 12.52 17.105 12.7077 17.2927L16.0002 20.5864L19.2927 17.2927C19.3855 17.1997 19.4958 17.1259 19.6172 17.0756C19.7386 17.0253 19.8687 16.9994 20.0002 16.9994C20.1316 16.9994 20.2617 17.0253 20.3831 17.0756C20.5045 17.1259 20.6148 17.1997 20.7077 17.2927Z" fill="#4A4A4F"/>
</svg>
