<svg width="32" height="32" viewBox="0 0 32 32" fill="none" xmlns="http://www.w3.org/2000/svg">
<path d="M25.1962 6.80264C23.3776 4.98583 21.0612 3.74896 18.5398 3.24838C16.0184 2.7478 13.4052 3.00599 11.0305 3.9903C8.65579 4.97461 6.62621 6.64086 5.19831 8.77842C3.77042 10.916 3.0083 13.4289 3.0083 15.9995C3.0083 18.5701 3.77042 21.083 5.19831 23.2206C6.62621 25.3582 8.65579 27.0244 11.0305 28.0087C13.4052 28.993 16.0184 29.2512 18.5398 28.7507C21.0612 28.2501 23.3776 27.0132 25.1962 25.1964C27.6317 22.7553 28.9995 19.4478 28.9995 15.9995C28.9995 12.5512 27.6317 9.24374 25.1962 6.80264ZM15.7075 16.7076L11.7075 20.7076C11.6145 20.8006 11.5042 20.8743 11.3828 20.9245C11.2615 20.9748 11.1313 21.0007 10.9999 21.0007C10.8686 21.0007 10.7384 20.9748 10.6171 20.9245C10.4957 20.8743 10.3854 20.8006 10.2924 20.7076C10.1995 20.6147 10.1258 20.5044 10.0756 20.383C10.0253 20.2616 9.99939 20.1315 9.99939 20.0001C9.99939 19.8687 10.0253 19.7386 10.0756 19.6172C10.1258 19.4959 10.1995 19.3856 10.2924 19.2926L13.5849 16.0001L10.2899 12.7051C10.197 12.6122 10.1233 12.5019 10.0731 12.3805C10.0228 12.2591 9.99689 12.129 9.99689 11.9976C9.99689 11.8662 10.0228 11.7361 10.0731 11.6147C10.1233 11.4934 10.197 11.3831 10.2899 11.2901C10.3829 11.1972 10.4932 11.1235 10.6146 11.0732C10.7359 11.023 10.8661 10.9971 10.9975 10.9971C11.1288 10.9971 11.259 11.023 11.3803 11.0732C11.5017 11.1235 11.612 11.1972 11.705 11.2901L15.705 15.2901C15.7985 15.3829 15.8727 15.4932 15.9235 15.6147C15.9743 15.7363 16.0005 15.8667 16.0007 15.9984C16.001 16.1301 15.9752 16.2605 15.9249 16.3823C15.8745 16.504 15.8006 16.6146 15.7075 16.7076ZM22.7075 16.7076L18.7075 20.7076C18.5198 20.8953 18.2653 21.0007 18 21.0007C17.7346 21.0007 17.4801 20.8953 17.2924 20.7076C17.1048 20.52 16.9994 20.2655 16.9994 20.0001C16.9994 19.7348 17.1048 19.4803 17.2924 19.2926L20.5887 16.0001L17.2937 12.7051C17.2008 12.6122 17.1271 12.5019 17.0768 12.3805C17.0265 12.2591 17.0006 12.129 17.0006 11.9976C17.0006 11.8662 17.0265 11.7361 17.0768 11.6147C17.1271 11.4934 17.2008 11.3831 17.2937 11.2901C17.3866 11.1972 17.4969 11.1235 17.6183 11.0732C17.7397 11.023 17.8698 10.9971 18.0012 10.9971C18.1326 10.9971 18.2627 11.023 18.3841 11.0732C18.5055 11.1235 18.6158 11.1972 18.7087 11.2901L22.7087 15.2901C22.8021 15.383 22.8763 15.4934 22.927 15.6149C22.9776 15.7365 23.0037 15.8669 23.0039 15.9986C23.004 16.1303 22.9781 16.2608 22.9276 16.3825C22.8772 16.5041 22.8032 16.6146 22.7099 16.7076H22.7075Z" fill="#4A4A4F"/>
</svg>
