<svg width="32" height="32" viewBox="0 0 32 32" fill="none" xmlns="http://www.w3.org/2000/svg">
<path d="M26.9236 20.3823C26.8479 20.5651 26.7198 20.7213 26.5553 20.8312C26.3909 20.9411 26.1976 20.9998 25.9998 20.9998H5.99981C5.80192 21 5.60842 20.9414 5.44383 20.8315C5.27923 20.7217 5.15094 20.5654 5.07519 20.3826C4.99944 20.1998 4.97963 19.9986 5.01828 19.8045C5.05693 19.6104 5.1523 19.4322 5.29231 19.2923L15.2923 9.29231C15.3852 9.19933 15.4955 9.12557 15.6169 9.07525C15.7383 9.02493 15.8684 8.99902 15.9998 8.99902C16.1312 8.99902 16.2614 9.02493 16.3828 9.07525C16.5041 9.12557 16.6144 9.19933 16.7073 9.29231L26.7073 19.2923C26.8471 19.4322 26.9423 19.6105 26.9808 19.8045C27.0193 19.9985 26.9994 20.1996 26.9236 20.3823Z" fill="#4A4A4F"/>
</svg>
