<svg width="32" height="32" viewBox="0 0 32 32" fill="none" xmlns="http://www.w3.org/2000/svg">
<path d="M17.7076 16.7076L7.70757 26.7076C7.51993 26.8952 7.26543 27.0006 7.00007 27.0006C6.7347 27.0006 6.48021 26.8952 6.29257 26.7076C6.10493 26.5199 5.99951 26.2654 5.99951 26.0001C5.99951 25.7347 6.10493 25.4802 6.29257 25.2926L15.5863 16.0001L6.29257 6.70757C6.10493 6.51993 5.99951 6.26543 5.99951 6.00007C5.99951 5.7347 6.10493 5.48021 6.29257 5.29257C6.48021 5.10493 6.7347 4.99951 7.00007 4.99951C7.26543 4.99951 7.51993 5.10493 7.70757 5.29257L17.7076 15.2926C17.8005 15.3854 17.8743 15.4957 17.9246 15.6171C17.975 15.7385 18.0009 15.8687 18.0009 16.0001C18.0009 16.1315 17.975 16.2616 17.9246 16.383C17.8743 16.5044 17.8005 16.6147 17.7076 16.7076ZM27.7076 15.2926L17.7076 5.29257C17.5199 5.10493 17.2654 4.99951 17.0001 4.99951C16.7347 4.99951 16.4802 5.10493 16.2926 5.29257C16.1049 5.48021 15.9995 5.7347 15.9995 6.00007C15.9995 6.26543 16.1049 6.51993 16.2926 6.70757L25.5863 16.0001L16.2926 25.2926C16.1049 25.4802 15.9995 25.7347 15.9995 26.0001C15.9995 26.2654 16.1049 26.5199 16.2926 26.7076C16.4802 26.8952 16.7347 27.0006 17.0001 27.0006C17.2654 27.0006 17.5199 26.8952 17.7076 26.7076L27.7076 16.7076C27.8005 16.6147 27.8743 16.5044 27.9246 16.383C27.975 16.2616 28.0009 16.1315 28.0009 16.0001C28.0009 15.8687 27.975 15.7385 27.9246 15.6171C27.8743 15.4957 27.8005 15.3854 27.7076 15.2926Z" fill="#4A4A4F"/>
</svg>
