<svg width="32" height="32" viewBox="0 0 32 32" fill="none" xmlns="http://www.w3.org/2000/svg">
<path d="M9.07606 10.3823C9.00026 10.1996 8.98035 9.99853 9.01884 9.80451C9.05734 9.61049 9.1525 9.43224 9.29231 9.29231L15.2923 3.29231C15.3852 3.19933 15.4955 3.12557 15.6169 3.07525C15.7383 3.02493 15.8684 2.99902 15.9998 2.99902C16.1312 2.99902 16.2614 3.02493 16.3828 3.07525C16.5041 3.12557 16.6144 3.19933 16.7073 3.29231L22.7073 9.29231C22.8473 9.43217 22.9427 9.61042 22.9813 9.8045C23.02 9.99859 23.0002 10.1998 22.9244 10.3826C22.8487 10.5654 22.7204 10.7217 22.5558 10.8315C22.3912 10.9414 22.1977 11 21.9998 10.9998H9.99981C9.80203 10.9998 9.6087 10.9411 9.44428 10.8312C9.27985 10.7213 9.15171 10.5651 9.07606 10.3823ZM21.9998 20.9998H9.99981C9.80192 20.9997 9.60842 21.0582 9.44383 21.1681C9.27924 21.278 9.15094 21.4342 9.07519 21.617C8.99944 21.7998 8.97963 22.001 9.01828 22.1951C9.05693 22.3892 9.1523 22.5675 9.29231 22.7073L15.2923 28.7073C15.3852 28.8003 15.4955 28.874 15.6169 28.9244C15.7383 28.9747 15.8684 29.0006 15.9998 29.0006C16.1312 29.0006 16.2614 28.9747 16.3828 28.9244C16.5041 28.874 16.6144 28.8003 16.7073 28.7073L22.7073 22.7073C22.8473 22.5675 22.9427 22.3892 22.9813 22.1951C23.02 22.001 23.0002 21.7998 22.9244 21.617C22.8487 21.4342 22.7204 21.278 22.5558 21.1681C22.3912 21.0582 22.1977 20.9997 21.9998 20.9998Z" fill="#4A4A4F"/>
</svg>
