<svg width="32" height="32" viewBox="0 0 32 32" fill="none" xmlns="http://www.w3.org/2000/svg">
<path d="M25.9998 5.99981V25.9998C26 26.1977 25.9414 26.3912 25.8315 26.5558C25.7217 26.7204 25.5654 26.8487 25.3826 26.9244C25.1998 27.0002 24.9986 27.02 24.8045 26.9813C24.6104 26.9427 24.4322 26.8473 24.2923 26.7073L15.9998 18.4136V25.9998C16 26.1977 15.9414 26.3912 15.8315 26.5558C15.7217 26.7204 15.5654 26.8487 15.3826 26.9244C15.1998 27.0002 14.9986 27.02 14.8045 26.9813C14.6104 26.9427 14.4322 26.8473 14.2923 26.7073L4.29231 16.7073C4.19933 16.6144 4.12557 16.5041 4.07525 16.3828C4.02493 16.2614 3.99902 16.1312 3.99902 15.9998C3.99902 15.8684 4.02493 15.7383 4.07525 15.6169C4.12557 15.4955 4.19933 15.3852 4.29231 15.2923L14.2923 5.29231C14.4322 5.1523 14.6104 5.05693 14.8045 5.01828C14.9986 4.97963 15.1998 4.99944 15.3826 5.07519C15.5654 5.15094 15.7217 5.27923 15.8315 5.44383C15.9414 5.60842 16 5.80192 15.9998 5.99981V13.5861L24.2923 5.29231C24.4322 5.1523 24.6104 5.05693 24.8045 5.01828C24.9986 4.97963 25.1998 4.99944 25.3826 5.07519C25.5654 5.15094 25.7217 5.27923 25.8315 5.44383C25.9414 5.60842 26 5.80192 25.9998 5.99981Z" fill="#4A4A4F"/>
</svg>
