<svg width="32" height="32" viewBox="0 0 32 32" fill="none" xmlns="http://www.w3.org/2000/svg">
<path d="M26.7073 25.2923C26.8473 25.4322 26.9427 25.6104 26.9813 25.8045C27.02 25.9986 27.0002 26.1998 26.9244 26.3826C26.8487 26.5654 26.7204 26.7217 26.5558 26.8315C26.3912 26.9414 26.1977 27 25.9998 26.9998H5.99981C5.80192 27 5.60842 26.9414 5.44383 26.8315C5.27923 26.7217 5.15094 26.5654 5.07519 26.3826C4.99944 26.1998 4.97963 25.9986 5.01828 25.8045C5.05693 25.6104 5.1523 25.4322 5.29231 25.2923L13.5861 16.9998H5.99981C5.80192 17 5.60842 16.9414 5.44383 16.8315C5.27923 16.7217 5.15094 16.5654 5.07519 16.3826C4.99944 16.1998 4.97963 15.9986 5.01828 15.8045C5.05693 15.6104 5.1523 15.4322 5.29231 15.2923L15.2923 5.29231C15.3852 5.19933 15.4955 5.12557 15.6169 5.07525C15.7383 5.02493 15.8684 4.99902 15.9998 4.99902C16.1312 4.99902 16.2614 5.02493 16.3828 5.07525C16.5041 5.12557 16.6144 5.19933 16.7073 5.29231L26.7073 15.2923C26.8473 15.4322 26.9427 15.6104 26.9813 15.8045C27.02 15.9986 27.0002 16.1998 26.9244 16.3826C26.8487 16.5654 26.7204 16.7217 26.5558 16.8315C26.3912 16.9414 26.1977 17 25.9998 16.9998H18.4136L26.7073 25.2923Z" fill="#4A4A4F"/>
</svg>
