<svg width="32" height="32" viewBox="0 0 32 32" fill="none" xmlns="http://www.w3.org/2000/svg">
<path d="M16 3C13.4288 3 10.9154 3.76244 8.77759 5.1909C6.63975 6.61935 4.97351 8.64968 3.98957 11.0251C3.00563 13.4006 2.74819 16.0144 3.2498 18.5362C3.75141 21.0579 4.98953 23.3743 6.80762 25.1924C8.6257 27.0105 10.9421 28.2486 13.4638 28.7502C15.9856 29.2518 18.5995 28.9944 20.9749 28.0104C23.3503 27.0265 25.3807 25.3603 26.8091 23.2224C28.2376 21.0846 29 18.5712 29 16C28.9964 12.5533 27.6256 9.24882 25.1884 6.81163C22.7512 4.37445 19.4467 3.00364 16 3ZM20.7075 19.7075L16.7075 23.7075C16.6146 23.8005 16.5043 23.8742 16.3829 23.9246C16.2615 23.9749 16.1314 24.0008 16 24.0008C15.8686 24.0008 15.7385 23.9749 15.6171 23.9246C15.4957 23.8742 15.3854 23.8005 15.2925 23.7075L11.2925 19.7075C11.1049 19.5199 10.9994 19.2654 10.9994 19C10.9994 18.7346 11.1049 18.4801 11.2925 18.2925C11.4801 18.1049 11.7346 17.9994 12 17.9994C12.2654 17.9994 12.5199 18.1049 12.7075 18.2925L16 21.5863L19.2925 18.2925C19.4801 18.1049 19.7346 17.9994 20 17.9994C20.2654 17.9994 20.5199 18.1049 20.7075 18.2925C20.8951 18.4801 21.0006 18.7346 21.0006 19C21.0006 19.2654 20.8951 19.5199 20.7075 19.7075ZM20.7075 13.7075C20.6146 13.8005 20.5043 13.8742 20.3829 13.9246C20.2615 13.9749 20.1314 14.0008 20 14.0008C19.8686 14.0008 19.7385 13.9749 19.6171 13.9246C19.4957 13.8742 19.3854 13.8005 19.2925 13.7075L16 10.4137L12.7075 13.7075C12.5199 13.8951 12.2654 14.0006 12 14.0006C11.7346 14.0006 11.4801 13.8951 11.2925 13.7075C11.1049 13.5199 10.9994 13.2654 10.9994 13C10.9994 12.7346 11.1049 12.4801 11.2925 12.2925L15.2925 8.2925C15.3854 8.19952 15.4957 8.12576 15.6171 8.07544C15.7385 8.02512 15.8686 7.99921 16 7.99921C16.1314 7.99921 16.2615 8.02512 16.3829 8.07544C16.5043 8.12576 16.6146 8.19952 16.7075 8.2925L20.7075 12.2925C20.8005 12.3854 20.8742 12.4957 20.9246 12.6171C20.9749 12.7385 21.0008 12.8686 21.0008 13C21.0008 13.1314 20.9749 13.2615 20.9246 13.3829C20.8742 13.5043 20.8005 13.6146 20.7075 13.7075Z" fill="#4A4A4F"/>
</svg>
