<svg width="32" height="32" viewBox="0 0 32 32" fill="none" xmlns="http://www.w3.org/2000/svg">
<path d="M16 3C13.4288 3 10.9154 3.76244 8.77759 5.1909C6.63975 6.61935 4.97351 8.64968 3.98957 11.0251C3.00563 13.4006 2.74819 16.0144 3.2498 18.5362C3.75141 21.0579 4.98953 23.3743 6.80762 25.1924C8.6257 27.0105 10.9421 28.2486 13.4638 28.7502C15.9856 29.2518 18.5995 28.9944 20.9749 28.0104C23.3503 27.0265 25.3807 25.3603 26.8091 23.2224C28.2376 21.0846 29 18.5712 29 16C28.9964 12.5533 27.6256 9.24882 25.1884 6.81163C22.7512 4.37445 19.4467 3.00364 16 3ZM16 27C13.8244 27 11.6977 26.3549 9.88873 25.1462C8.07979 23.9375 6.66989 22.2195 5.83733 20.2095C5.00477 18.1995 4.78693 15.9878 5.21137 13.854C5.63581 11.7202 6.68345 9.7602 8.22183 8.22183C9.76021 6.68345 11.7202 5.6358 13.854 5.21136C15.9878 4.78692 18.1995 5.00476 20.2095 5.83733C22.2195 6.66989 23.9375 8.07979 25.1462 9.88873C26.3549 11.6977 27 13.8244 27 16C26.9967 18.9164 25.8367 21.7123 23.7745 23.7745C21.7123 25.8367 18.9164 26.9967 16 27ZM20.7075 12.2925C20.8004 12.3854 20.8741 12.4957 20.9244 12.6171C20.9747 12.7385 21.0006 12.8686 21.0006 13C21.0006 13.1314 20.9747 13.2615 20.9244 13.3829C20.8741 13.5043 20.8004 13.6146 20.7075 13.7075C20.6146 13.8004 20.5043 13.8741 20.3829 13.9244C20.2615 13.9747 20.1314 14.0006 20 14.0006C19.8686 14.0006 19.7385 13.9747 19.6171 13.9244C19.4957 13.8741 19.3854 13.8004 19.2925 13.7075L16 10.4137L12.7075 13.7075C12.5199 13.8951 12.2654 14.0006 12 14.0006C11.7346 14.0006 11.4801 13.8951 11.2925 13.7075C11.1049 13.5199 10.9994 13.2654 10.9994 13C10.9994 12.7346 11.1049 12.4801 11.2925 12.2925L15.2925 8.2925C15.3854 8.19952 15.4957 8.12576 15.6171 8.07544C15.7385 8.02512 15.8686 7.99921 16 7.99921C16.1314 7.99921 16.2615 8.02512 16.3829 8.07544C16.5043 8.12576 16.6146 8.19952 16.7075 8.2925L20.7075 12.2925ZM20.7075 18.2925C20.8005 18.3854 20.8742 18.4957 20.9246 18.6171C20.9749 18.7385 21.0008 18.8686 21.0008 19C21.0008 19.1314 20.9749 19.2615 20.9246 19.3829C20.8742 19.5043 20.8005 19.6146 20.7075 19.7075L16.7075 23.7075C16.6146 23.8005 16.5043 23.8742 16.3829 23.9246C16.2615 23.9749 16.1314 24.0008 16 24.0008C15.8686 24.0008 15.7385 23.9749 15.6171 23.9246C15.4957 23.8742 15.3854 23.8005 15.2925 23.7075L11.2925 19.7075C11.1049 19.5199 10.9994 19.2654 10.9994 19C10.9994 18.7346 11.1049 18.4801 11.2925 18.2925C11.4801 18.1049 11.7346 17.9994 12 17.9994C12.2654 17.9994 12.5199 18.1049 12.7075 18.2925L16 21.5863L19.2925 18.2925C19.3854 18.1995 19.4957 18.1258 19.6171 18.0754C19.7385 18.0251 19.8686 17.9992 20 17.9992C20.1314 17.9992 20.2615 18.0251 20.3829 18.0754C20.5043 18.1258 20.6146 18.1995 20.7075 18.2925Z" fill="#4A4A4F"/>
</svg>
