<svg width="32" height="32" viewBox="0 0 32 32" fill="none" xmlns="http://www.w3.org/2000/svg">
<path d="M22.7076 16.7076L12.7076 26.7076C12.6147 26.8005 12.5044 26.8742 12.383 26.9245C12.2616 26.9747 12.1315 27.0006 12.0001 27.0006C11.8687 27.0006 11.7386 26.9747 11.6172 26.9245C11.4958 26.8742 11.3855 26.8005 11.2926 26.7076C11.1997 26.6147 11.126 26.5044 11.0757 26.383C11.0254 26.2616 10.9995 26.1315 10.9995 26.0001C10.9995 25.8687 11.0254 25.7386 11.0757 25.6172C11.126 25.4958 11.1997 25.3855 11.2926 25.2926L20.5863 16.0001L11.2926 6.70757C11.1049 6.51993 10.9995 6.26543 10.9995 6.00007C10.9995 5.7347 11.1049 5.48021 11.2926 5.29257C11.4802 5.10493 11.7347 4.99951 12.0001 4.99951C12.2654 4.99951 12.5199 5.10493 12.7076 5.29257L22.7076 15.2926C22.8005 15.3854 22.8743 15.4957 22.9246 15.6171C22.975 15.7385 23.0009 15.8687 23.0009 16.0001C23.0009 16.1315 22.975 16.2616 22.9246 16.383C22.8743 16.5044 22.8005 16.6147 22.7076 16.7076Z" fill="#4A4A4F"/>
</svg>
