<svg width="32" height="32" viewBox="0 0 32 32" fill="none" xmlns="http://www.w3.org/2000/svg">
<path d="M29 9.99984H24.93C25.8104 11.5253 26.1628 13.2986 25.9325 15.0448C25.7022 16.791 24.9021 18.4123 23.6563 19.6573C22.5913 20.7436 21.205 21.7723 19.675 22.7211C19.5792 22.7794 19.4667 22.8038 19.3554 22.7904C19.2441 22.7771 19.1405 22.7267 19.0613 22.6473L14.7063 18.2923C14.6115 18.1976 14.4987 18.1228 14.3745 18.0725C14.2504 18.0222 14.1173 17.9974 13.9834 17.9995C13.8494 18.0015 13.7172 18.0306 13.5947 18.0847C13.4721 18.1389 13.3617 18.2172 13.27 18.3148C13.0935 18.5128 13.0003 18.7713 13.0099 19.0364C13.0194 19.3014 13.131 19.5526 13.3213 19.7373L17.0563 23.4723C17.112 23.528 17.1539 23.5961 17.1783 23.6711C17.2028 23.746 17.2092 23.8256 17.197 23.9035C17.1848 23.9814 17.1544 24.0553 17.1082 24.1192C17.062 24.1831 17.0014 24.2351 16.9313 24.2711C11.9675 26.8486 6.62501 28.5673 5.84751 28.8098C5.47557 28.9831 5.05935 29.0378 4.65528 28.9665C4.25121 28.8951 3.87885 28.7013 3.58872 28.4111C3.29858 28.121 3.1047 27.7486 3.03338 27.3446C2.96205 26.9405 3.01674 26.5243 3.19001 26.1523C3.53126 25.0636 6.81501 14.8686 11.2975 9.48359C11.3421 9.43031 11.3972 9.38689 11.4595 9.3561C11.5217 9.32532 11.5897 9.30784 11.6591 9.30478C11.7285 9.30172 11.7977 9.31315 11.8625 9.33834C11.9272 9.36353 11.9859 9.40193 12.035 9.45109L17.2913 14.7086C17.3885 14.8058 17.5047 14.8818 17.6326 14.9321C17.7606 14.9823 17.8975 15.0056 18.0348 15.0006C18.1722 14.9955 18.307 14.9622 18.431 14.9028C18.5549 14.8433 18.6652 14.7589 18.755 14.6548C18.9193 14.4565 19.0029 14.2036 18.989 13.9464C18.9751 13.6893 18.8647 13.4468 18.68 13.2673L13.51 8.09734C13.4573 8.04484 13.417 7.98124 13.3919 7.91118C13.3669 7.84111 13.3578 7.76635 13.3654 7.69233C13.3729 7.61832 13.3969 7.54692 13.4355 7.48335C13.4742 7.41977 13.5265 7.36562 13.5888 7.32484C14.829 6.50615 16.2728 6.04911 17.7582 6.00495C19.2437 5.96079 20.7121 6.33127 21.9988 7.07484V2.99984C21.9984 2.86264 22.0264 2.72684 22.0808 2.6009C22.1352 2.47495 22.215 2.36155 22.3151 2.26776C22.4152 2.17396 22.5336 2.10177 22.6628 2.05568C22.792 2.00958 22.9294 1.99058 23.0663 1.99984C23.3239 2.02226 23.5636 2.14151 23.7368 2.33356C23.9101 2.52562 24.0041 2.77621 24 3.03484V6.58609L27.2925 3.29234C27.3854 3.19943 27.4957 3.12573 27.6171 3.07545C27.7385 3.02516 27.8686 2.99928 28 2.99928C28.1314 2.99928 28.2615 3.02516 28.3829 3.07545C28.5043 3.12573 28.6146 3.19943 28.7075 3.29234C28.8004 3.38525 28.8741 3.49555 28.9244 3.61694C28.9747 3.73834 29.0006 3.86844 29.0006 3.99984C29.0006 4.13123 28.9747 4.26134 28.9244 4.38274C28.8741 4.50413 28.8004 4.61443 28.7075 4.70734L25.4138 7.99984H28.965C29.2236 7.9957 29.4742 8.08974 29.6663 8.26301C29.8583 8.43628 29.9776 8.6759 30 8.93359C30.0091 9.07038 29.99 9.20757 29.9438 9.33665C29.8976 9.46573 29.8254 9.58393 29.7316 9.68393C29.6378 9.78392 29.5245 9.86356 29.3986 9.91791C29.2728 9.97225 29.1371 10.0001 29 9.99984Z" fill="#4A4A4F"/>
</svg>
