<svg width="32" height="32" viewBox="0 0 32 32" fill="none" xmlns="http://www.w3.org/2000/svg">
<path d="M30 14H28.65L25.1775 6.1875C25.0204 5.83403 24.7641 5.53372 24.4397 5.32296C24.1153 5.11219 23.7368 5 23.35 5H8.65C8.26317 5 7.88465 5.11219 7.56029 5.32296C7.23593 5.53372 6.97965 5.83403 6.8225 6.1875L3.35 14H2C1.73478 14 1.48043 14.1054 1.29289 14.2929C1.10536 14.4804 1 14.7348 1 15C1 15.2652 1.10536 15.5196 1.29289 15.7071C1.48043 15.8946 1.73478 16 2 16H3V26C3 26.5304 3.21071 27.0391 3.58579 27.4142C3.96086 27.7893 4.46957 28 5 28H8C8.53043 28 9.03914 27.7893 9.41421 27.4142C9.78929 27.0391 10 26.5304 10 26V24H22V26C22 26.5304 22.2107 27.0391 22.5858 27.4142C22.9609 27.7893 23.4696 28 24 28H27C27.5304 28 28.0391 27.7893 28.4142 27.4142C28.7893 27.0391 29 26.5304 29 26V16H30C30.2652 16 30.5196 15.8946 30.7071 15.7071C30.8946 15.5196 31 15.2652 31 15C31 14.7348 30.8946 14.4804 30.7071 14.2929C30.5196 14.1054 30.2652 14 30 14Z" fill="#4A4A4F"/>
</svg>
