<svg width="32" height="32" viewBox="0 0 32 32" fill="none" xmlns="http://www.w3.org/2000/svg">
<path d="M11 14C11 14.3956 10.8827 14.7822 10.6629 15.1111C10.4432 15.44 10.1308 15.6964 9.76537 15.8478C9.39991 15.9991 8.99778 16.0387 8.60982 15.9616C8.22186 15.8844 7.86549 15.6939 7.58579 15.4142C7.30608 15.1345 7.1156 14.7781 7.03843 14.3902C6.96126 14.0022 7.00087 13.6001 7.15224 13.2346C7.30362 12.8692 7.55996 12.5568 7.88886 12.3371C8.21776 12.1173 8.60444 12 9 12C9.53043 12 10.0391 12.2107 10.4142 12.5858C10.7893 12.9609 11 13.4696 11 14ZM30 8V24C30 24.5304 29.7893 25.0391 29.4142 25.4142C29.0391 25.7893 28.5304 26 28 26H4C3.46957 26 2.96086 25.7893 2.58579 25.4142C2.21071 25.0391 2 24.5304 2 24V8C2 7.46957 2.21071 6.96086 2.58579 6.58579C2.96086 6.21071 3.46957 6 4 6H28C28.5304 6 29.0391 6.21071 29.4142 6.58579C29.7893 6.96086 30 7.46957 30 8ZM23.25 24L21.3 21.4C21.2069 21.2758 21.0861 21.175 20.9472 21.1056C20.8084 21.0361 20.6552 21 20.5 21H11.5C11.3448 21 11.1916 21.0361 11.0528 21.1056C10.9139 21.175 10.7931 21.2758 10.7 21.4L8.75 24H23.25ZM27 14C27 12.9391 26.5786 11.9217 25.8284 11.1716C25.0783 10.4214 24.0609 10 23 10H9C7.93913 10 6.92172 10.4214 6.17157 11.1716C5.42143 11.9217 5 12.9391 5 14C5 15.0609 5.42143 16.0783 6.17157 16.8284C6.92172 17.5786 7.93913 18 9 18H23C24.0609 18 25.0783 17.5786 25.8284 16.8284C26.5786 16.0783 27 15.0609 27 14ZM12.4625 12C12.8146 12.6077 13 13.2976 13 14C13 14.7023 12.8146 15.3923 12.4625 16H19.5375C19.1854 15.3923 19 14.7023 19 14C19 13.2976 19.1854 12.6077 19.5375 12H12.4625ZM23 12C22.6044 12 22.2178 12.1173 21.8889 12.3371C21.56 12.5568 21.3036 12.8692 21.1522 13.2346C21.0009 13.6001 20.9613 14.0022 21.0384 14.3902C21.1156 14.7781 21.3061 15.1345 21.5858 15.4142C21.8655 15.6939 22.2219 15.8844 22.6098 15.9616C22.9978 16.0387 23.3999 15.9991 23.7654 15.8478C24.1308 15.6964 24.4432 15.44 24.6629 15.1111C24.8827 14.7822 25 14.3956 25 14C25 13.4696 24.7893 12.9609 24.4142 12.5858C24.0391 12.2107 23.5304 12 23 12Z" fill="#4A4A4F"/>
</svg>
