<svg width="32" height="32" viewBox="0 0 32 32" fill="none" xmlns="http://www.w3.org/2000/svg">
<path d="M28 6H4C3.46957 6 2.96086 6.21071 2.58579 6.58579C2.21071 6.96086 2 7.46957 2 8V24C2 24.5304 2.21071 25.0391 2.58579 25.4142C2.96086 25.7893 3.46957 26 4 26H28C28.5304 26 29.0391 25.7893 29.4142 25.4142C29.7893 25.0391 30 24.5304 30 24V8C30 7.46957 29.7893 6.96086 29.4142 6.58579C29.0391 6.21071 28.5304 6 28 6ZM10 24L11.5 22H20.5L22 24H10ZM28 24H24.5L22.1 20.8C21.9132 20.5521 21.6716 20.3509 21.394 20.2121C21.1164 20.0733 20.8104 20.0007 20.5 20H11.5C11.1896 20.0007 10.8836 20.0733 10.606 20.2121C10.3284 20.3509 10.0868 20.5521 9.9 20.8L7.5 24H4V8H28V24ZM22 10H10C8.93913 10 7.92172 10.4214 7.17157 11.1716C6.42143 11.9217 6 12.9391 6 14C6 15.0609 6.42143 16.0783 7.17157 16.8284C7.92172 17.5786 8.93913 18 10 18H22C23.0609 18 24.0783 17.5786 24.8284 16.8284C25.5786 16.0783 26 15.0609 26 14C26 12.9391 25.5786 11.9217 24.8284 11.1716C24.0783 10.4214 23.0609 10 22 10ZM18.5375 12C18.1854 12.6077 18 13.2976 18 14C18 14.7023 18.1854 15.3923 18.5375 16H13.4625C13.8146 15.3923 14 14.7023 14 14C14 13.2976 13.8146 12.6077 13.4625 12H18.5375ZM8 14C8 13.6044 8.1173 13.2178 8.33706 12.8889C8.55682 12.56 8.86918 12.3036 9.23463 12.1522C9.60009 12.0009 10.0022 11.9613 10.3902 12.0384C10.7781 12.1156 11.1345 12.3061 11.4142 12.5858C11.6939 12.8655 11.8844 13.2219 11.9616 13.6098C12.0387 13.9978 11.9991 14.3999 11.8478 14.7654C11.6964 15.1308 11.44 15.4432 11.1111 15.6629C10.7822 15.8827 10.3956 16 10 16C9.46957 16 8.96086 15.7893 8.58579 15.4142C8.21071 15.0391 8 14.5304 8 14ZM22 16C21.6044 16 21.2178 15.8827 20.8889 15.6629C20.56 15.4432 20.3036 15.1308 20.1522 14.7654C20.0009 14.3999 19.9613 13.9978 20.0384 13.6098C20.1156 13.2219 20.3061 12.8655 20.5858 12.5858C20.8655 12.3061 21.2219 12.1156 21.6098 12.0384C21.9978 11.9613 22.3999 12.0009 22.7654 12.1522C23.1308 12.3036 23.4432 12.56 23.6629 12.8889C23.8827 13.2178 24 13.6044 24 14C24 14.5304 23.7893 15.0391 23.4142 15.4142C23.0391 15.7893 22.5304 16 22 16Z" fill="#4A4A4F"/>
</svg>
