<svg width="32" height="32" viewBox="0 0 32 32" fill="none" xmlns="http://www.w3.org/2000/svg">
<path d="M25 3H23C22.4696 3 21.9609 3.21071 21.5858 3.58579C21.2107 3.96086 21 4.46957 21 5V7H19V5C19 4.46957 18.7893 3.96086 18.4142 3.58579C18.0392 3.21071 17.5304 3 17 3H15C14.4696 3 13.9609 3.21071 13.5858 3.58579C13.2107 3.96086 13 4.46957 13 5V7H11V5C11 4.46957 10.7893 3.96086 10.4142 3.58579C10.0392 3.21071 9.53044 3 9.00001 3H7.00001C6.46958 3 5.96087 3.21071 5.5858 3.58579C5.21072 3.96086 5.00001 4.46957 5.00001 5V10.5863C4.99917 10.849 5.05057 11.1093 5.15121 11.352C5.25185 11.5947 5.39973 11.815 5.58626 12L7.00001 13.4137V27C7.00001 27.5304 7.21072 28.0391 7.5858 28.4142C7.96087 28.7893 8.46958 29 9.00001 29H23C23.5304 29 24.0392 28.7893 24.4142 28.4142C24.7893 28.0391 25 27.5304 25 27V13.4137L26.4138 12C26.6003 11.815 26.7482 11.5947 26.8488 11.352C26.9495 11.1093 27.0008 10.849 27 10.5863V5C27 4.46957 26.7893 3.96086 26.4142 3.58579C26.0392 3.21071 25.5304 3 25 3ZM18 27H14V19C14 18.4696 14.2107 17.9609 14.5858 17.5858C14.9609 17.2107 15.4696 17 16 17C16.5304 17 17.0392 17.2107 17.4142 17.5858C17.7893 17.9609 18 18.4696 18 19V27ZM25 10.5863L23.5863 12C23.3997 12.185 23.2519 12.4053 23.1512 12.648C23.0506 12.8907 22.9992 13.151 23 13.4137V27H20V19C20 17.9391 19.5786 16.9217 18.8284 16.1716C18.0783 15.4214 17.0609 15 16 15C14.9391 15 13.9217 15.4214 13.1716 16.1716C12.4214 16.9217 12 17.9391 12 19V27H9.00001V13.4137C9.00085 13.151 8.94945 12.8907 8.84881 12.648C8.74817 12.4053 8.60029 12.185 8.41376 12L7.00001 10.5863V5H9.00001V7C9.00001 7.53043 9.21072 8.03914 9.5858 8.41421C9.96087 8.78929 10.4696 9 11 9H13C13.5304 9 14.0392 8.78929 14.4142 8.41421C14.7893 8.03914 15 7.53043 15 7V5H17V7C17 7.53043 17.2107 8.03914 17.5858 8.41421C17.9609 8.78929 18.4696 9 19 9H21C21.5304 9 22.0392 8.78929 22.4142 8.41421C22.7893 8.03914 23 7.53043 23 7V5H25V10.5863Z" fill="#4A4A4F"/>
</svg>
