<svg width="32" height="32" viewBox="0 0 32 32" fill="none" xmlns="http://www.w3.org/2000/svg">
<path d="M12 17.5001C12 17.7967 11.912 18.0867 11.7472 18.3334C11.5824 18.5801 11.3481 18.7723 11.074 18.8859C10.7999 18.9994 10.4983 19.0291 10.2074 18.9712C9.91639 18.9134 9.64912 18.7705 9.43934 18.5607C9.22956 18.3509 9.0867 18.0837 9.02882 17.7927C8.97094 17.5017 9.00065 17.2001 9.11418 16.926C9.22771 16.6519 9.41997 16.4177 9.66665 16.2528C9.91332 16.088 10.2033 16.0001 10.5 16.0001C10.8978 16.0001 11.2794 16.1581 11.5607 16.4394C11.842 16.7207 12 17.1022 12 17.5001ZM21.5 16.0001C21.2033 16.0001 20.9133 16.088 20.6666 16.2528C20.42 16.4177 20.2277 16.6519 20.1142 16.926C20.0007 17.2001 19.9709 17.5017 20.0288 17.7927C20.0867 18.0837 20.2296 18.3509 20.4393 18.5607C20.6491 18.7705 20.9164 18.9134 21.2074 18.9712C21.4983 19.0291 21.7999 18.9994 22.074 18.8859C22.3481 18.7723 22.5824 18.5801 22.7472 18.3334C22.912 18.0867 23 17.7967 23 17.5001C23 17.1022 22.842 16.7207 22.5607 16.4394C22.2794 16.1581 21.8978 16.0001 21.5 16.0001ZM29 6.00005V17.0001C29 23.6163 23.1688 29.0001 16 29.0001C8.83125 29.0001 3 23.6163 3 17.0001V6.00005C3.00018 5.60462 3.11758 5.21812 3.33736 4.8894C3.55713 4.56067 3.86942 4.30447 4.23476 4.15317C4.6001 4.00187 5.00209 3.96226 5.38993 4.03936C5.77777 4.11645 6.13405 4.30678 6.41375 4.5863C6.43125 4.6038 6.44625 4.62005 6.46125 4.63755L8.625 7.12505C10.8374 5.7389 13.3955 5.00375 16.0063 5.00375C18.617 5.00375 21.1751 5.7389 23.3875 7.12505L25.5387 4.63755C25.5537 4.62005 25.5688 4.6038 25.5863 4.5863C25.866 4.30678 26.2222 4.11645 26.6101 4.03936C26.9979 3.96226 27.3999 4.00187 27.7652 4.15317C28.1306 4.30447 28.4429 4.56067 28.6626 4.8894C28.8824 5.21812 28.9998 5.60462 29 6.00005ZM27 6.00005L24.305 9.10005C24.1401 9.29077 23.9093 9.41219 23.6588 9.44C23.4082 9.46782 23.1564 9.39997 22.9538 9.25005C22.3437 8.79892 21.689 8.41148 21 8.0938V11.0001C21 11.2653 20.8946 11.5196 20.7071 11.7072C20.5196 11.8947 20.2652 12.0001 20 12.0001C19.7348 12.0001 19.4804 11.8947 19.2929 11.7072C19.1054 11.5196 19 11.2653 19 11.0001V7.3813C18.3439 7.21254 17.675 7.09881 17 7.0413V11.0001C17 11.2653 16.8946 11.5196 16.7071 11.7072C16.5196 11.8947 16.2652 12.0001 16 12.0001C15.7348 12.0001 15.4804 11.8947 15.2929 11.7072C15.1054 11.5196 15 11.2653 15 11.0001V7.0413C14.325 7.09881 13.6561 7.21254 13 7.3813V11.0001C13 11.2653 12.8946 11.5196 12.7071 11.7072C12.5196 11.8947 12.2652 12.0001 12 12.0001C11.7348 12.0001 11.4804 11.8947 11.2929 11.7072C11.1054 11.5196 11 11.2653 11 11.0001V8.0938C10.311 8.41148 9.6563 8.79892 9.04625 9.25005C8.84403 9.40041 8.59249 9.46888 8.34196 9.44177C8.09143 9.41465 7.86037 9.29395 7.695 9.1038L5 6.00005V17.0001C5 22.2076 9.40125 26.5001 15 26.9588V24.4138L13.2925 22.7063C13.1997 22.6134 13.1261 22.5031 13.0758 22.3817C13.0256 22.2604 12.9998 22.1303 12.9999 21.999C12.9999 21.8676 13.0259 21.7376 13.0762 21.6163C13.1265 21.495 13.2002 21.3848 13.2931 21.2919C13.4808 21.1045 13.7352 20.9992 14.0004 20.9993C14.1318 20.9994 14.2618 21.0253 14.3831 21.0756C14.5045 21.1259 14.6147 21.1996 14.7075 21.2926L16 22.5851L17.2925 21.2926C17.3853 21.1996 17.4955 21.1259 17.6169 21.0756C17.7382 21.0253 17.8682 20.9994 17.9996 20.9993C18.1309 20.9993 18.261 21.0251 18.3823 21.0753C18.5037 21.1255 18.614 21.1991 18.7069 21.2919C18.7998 21.3848 18.8735 21.495 18.9238 21.6163C18.9741 21.7376 19.0001 21.8676 19.0001 21.999C19.0002 22.1303 18.9744 22.2604 18.9242 22.3817C18.8739 22.5031 18.8003 22.6134 18.7075 22.7063L17 24.4138V26.9588C22.5988 26.4976 27 22.2088 27 17.0001V6.00005Z" fill="#4A4A4F"/>
</svg>
