<svg width="32" height="32" viewBox="0 0 32 32" fill="none" xmlns="http://www.w3.org/2000/svg">
<path d="M27.8537 4.19242C27.4812 4.01655 27.0634 3.95999 26.6576 4.03047C26.2517 4.10094 25.8776 4.29502 25.5862 4.58617C25.5687 4.60367 25.5537 4.61992 25.5387 4.63742L23.3812 7.12492C21.1691 5.74087 18.6124 5.00692 16.003 5.00692C13.3937 5.00692 10.8369 5.74087 8.62491 7.12492L6.46116 4.63742C6.44616 4.61992 6.43116 4.60367 6.41366 4.58617C6.12226 4.29502 5.74807 4.10094 5.34222 4.03047C4.93637 3.95999 4.51865 4.01655 4.14616 4.19242C3.79838 4.3632 3.50613 4.62903 3.30325 4.95911C3.10038 5.28919 2.9952 5.67001 2.99991 6.05742V16.9999C2.99991 23.1249 8.00741 28.2037 14.4449 28.9149C14.515 28.9227 14.586 28.9155 14.6532 28.8939C14.7203 28.8723 14.7822 28.8367 14.8346 28.7894C14.887 28.7422 14.9288 28.6844 14.9573 28.6199C14.9858 28.5553 15.0003 28.4855 14.9999 28.4149V24.4149L13.3224 22.7362C13.1322 22.5516 13.0207 22.3007 13.0112 22.0358C13.0016 21.771 13.0948 21.5127 13.2712 21.3149C13.3629 21.2172 13.4733 21.139 13.5958 21.0848C13.7184 21.0306 13.8505 21.0016 13.9845 20.9995C14.1185 20.9974 14.2515 21.0223 14.3757 21.0726C14.4999 21.1229 14.6127 21.1977 14.7074 21.2924L15.9999 22.5849L17.2924 21.2912C17.3871 21.1964 17.4999 21.1217 17.6241 21.0713C17.7483 21.021 17.8813 20.9962 18.0153 20.9983C18.1493 21.0004 18.2814 21.0294 18.404 21.0836C18.5265 21.1377 18.6369 21.216 18.7287 21.3137C18.9051 21.5115 18.9982 21.7697 18.9887 22.0346C18.9791 22.2994 18.8676 22.5504 18.6774 22.7349L16.9999 24.4137V28.4137C16.9995 28.4842 17.014 28.5541 17.0425 28.6186C17.071 28.6832 17.1128 28.741 17.1652 28.7882C17.2177 28.8354 17.2795 28.871 17.3466 28.8926C17.4138 28.9143 17.4848 28.9214 17.5549 28.9137C23.9924 28.2024 28.9999 23.1249 28.9999 16.9999V6.05742C29.0046 5.67001 28.8994 5.28919 28.6966 4.95911C28.4937 4.62903 28.2014 4.3632 27.8537 4.19242ZM10.4999 18.9999C10.2032 18.9999 9.91323 18.9119 9.66655 18.7471C9.41988 18.5823 9.22762 18.348 9.11409 18.0739C9.00056 17.7999 8.97085 17.4983 9.02873 17.2073C9.08661 16.9163 9.22947 16.649 9.43925 16.4393C9.64903 16.2295 9.9163 16.0866 10.2073 16.0287C10.4982 15.9709 10.7998 16.0006 11.0739 16.1141C11.348 16.2276 11.5823 16.4199 11.7471 16.6666C11.9119 16.9132 11.9999 17.2032 11.9999 17.4999C11.9999 17.8977 11.8419 18.2793 11.5606 18.5606C11.2793 18.8419 10.8977 18.9999 10.4999 18.9999ZM12.9999 10.9999C12.9999 11.2651 12.8945 11.5195 12.707 11.707C12.5195 11.8946 12.2651 11.9999 11.9999 11.9999C11.7347 11.9999 11.4803 11.8946 11.2928 11.707C11.1053 11.5195 10.9999 11.2651 10.9999 10.9999V8.62492C10.9999 8.3597 11.1053 8.10535 11.2928 7.91781C11.4803 7.73028 11.7347 7.62492 11.9999 7.62492C12.2651 7.62492 12.5195 7.73028 12.707 7.91781C12.8945 8.10535 12.9999 8.3597 12.9999 8.62492V10.9999ZM16.9999 10.9999C16.9999 11.2651 16.8946 11.5195 16.707 11.707C16.5195 11.8946 16.2651 11.9999 15.9999 11.9999C15.7347 11.9999 15.4803 11.8946 15.2928 11.707C15.1053 11.5195 14.9999 11.2651 14.9999 10.9999V7.99992C14.9999 7.7347 15.1053 7.48035 15.2928 7.29281C15.4803 7.10528 15.7347 6.99992 15.9999 6.99992C16.2651 6.99992 16.5195 7.10528 16.707 7.29281C16.8946 7.48035 16.9999 7.7347 16.9999 7.99992V10.9999ZM18.9999 10.9999V8.62492C18.9999 8.3597 19.1053 8.10535 19.2928 7.91781C19.4803 7.73028 19.7347 7.62492 19.9999 7.62492C20.2651 7.62492 20.5195 7.73028 20.707 7.91781C20.8946 8.10535 20.9999 8.3597 20.9999 8.62492V10.9999C20.9999 11.2651 20.8946 11.5195 20.707 11.707C20.5195 11.8946 20.2651 11.9999 19.9999 11.9999C19.7347 11.9999 19.4803 11.8946 19.2928 11.707C19.1053 11.5195 18.9999 11.2651 18.9999 10.9999ZM21.4999 18.9999C21.2032 18.9999 20.9132 18.9119 20.6666 18.7471C20.4199 18.5823 20.2276 18.348 20.1141 18.0739C20.0006 17.7999 19.9708 17.4983 20.0287 17.2073C20.0866 16.9163 20.2295 16.649 20.4392 16.4393C20.649 16.2295 20.9163 16.0866 21.2073 16.0287C21.4982 15.9709 21.7998 16.0006 22.0739 16.1141C22.348 16.2276 22.5823 16.4199 22.7471 16.6666C22.9119 16.9132 22.9999 17.2032 22.9999 17.4999C22.9999 17.8977 22.8419 18.2793 22.5606 18.5606C22.2793 18.8419 21.8977 18.9999 21.4999 18.9999Z" fill="#4A4A4F"/>
</svg>
