<svg width="32" height="32" viewBox="0 0 32 32" fill="none" xmlns="http://www.w3.org/2000/svg">
<path d="M16 14V25C16 25.2652 15.8946 25.5196 15.7071 25.7071C15.5196 25.8946 15.2652 26 15 26C14.7348 26 14.4804 25.8946 14.2929 25.7071C14.1054 25.5196 14 25.2652 14 25V14C14 13.7348 14.1054 13.4804 14.2929 13.2929C14.4804 13.1054 14.7348 13 15 13C15.2652 13 15.5196 13.1054 15.7071 13.2929C15.8946 13.4804 16 13.7348 16 14ZM10 18C9.73478 18 9.48043 18.1054 9.29289 18.2929C9.10536 18.4804 9 18.7348 9 19V25C9 25.2652 9.10536 25.5196 9.29289 25.7071C9.48043 25.8946 9.73478 26 10 26C10.2652 26 10.5196 25.8946 10.7071 25.7071C10.8946 25.5196 11 25.2652 11 25V19C11 18.7348 10.8946 18.4804 10.7071 18.2929C10.5196 18.1054 10.2652 18 10 18ZM5 23C4.73478 23 4.48043 23.1054 4.29289 23.2929C4.10536 23.4804 4 23.7348 4 24V25C4 25.2652 4.10536 25.5196 4.29289 25.7071C4.48043 25.8946 4.73478 26 5 26C5.26522 26 5.51957 25.8946 5.70711 25.7071C5.89464 25.5196 6 25.2652 6 25V24C6 23.7348 5.89464 23.4804 5.70711 23.2929C5.51957 23.1054 5.26522 23 5 23Z" fill="#4A4A4F"/>
</svg>
