<svg width="32" height="32" viewBox="0 0 32 32" fill="none" xmlns="http://www.w3.org/2000/svg">
<path d="M11 19V25C11 25.2652 10.8946 25.5196 10.7071 25.7071C10.5196 25.8946 10.2652 26 10 26C9.73478 26 9.48043 25.8946 9.29289 25.7071C9.10536 25.5196 9 25.2652 9 25V19C9 18.7348 9.10536 18.4804 9.29289 18.2929C9.48043 18.1054 9.73478 18 10 18C10.2652 18 10.5196 18.1054 10.7071 18.2929C10.8946 18.4804 11 18.7348 11 19ZM5 23C4.73478 23 4.48043 23.1054 4.29289 23.2929C4.10536 23.4804 4 23.7348 4 24V25C4 25.2652 4.10536 25.5196 4.29289 25.7071C4.48043 25.8946 4.73478 26 5 26C5.26522 26 5.51957 25.8946 5.70711 25.7071C5.89464 25.5196 6 25.2652 6 25V24C6 23.7348 5.89464 23.4804 5.70711 23.2929C5.51957 23.1054 5.26522 23 5 23ZM26.74 26.3275L6.74 4.3275C6.65218 4.22851 6.54559 4.14793 6.4264 4.09044C6.30721 4.03294 6.1778 3.99968 6.04566 3.99257C5.91352 3.98546 5.78128 4.00465 5.65661 4.04902C5.53194 4.0934 5.41732 4.16208 5.31939 4.25107C5.22146 4.34007 5.14216 4.44762 5.0861 4.56749C5.03004 4.68736 4.99833 4.81717 4.99281 4.94938C4.98728 5.0816 5.00806 5.2136 5.05392 5.33772C5.09979 5.46185 5.16983 5.57564 5.26 5.6725L14 15.2863V25C14 25.2652 14.1054 25.5196 14.2929 25.7071C14.4804 25.8946 14.7348 26 15 26C15.2652 26 15.5196 25.8946 15.7071 25.7071C15.8946 25.5196 16 25.2652 16 25V17.4862L19 20.7862V25C19 25.2652 19.1054 25.5196 19.2929 25.7071C19.4804 25.8946 19.7348 26 20 26C20.2652 26 20.5196 25.8946 20.7071 25.7071C20.8946 25.5196 21 25.2652 21 25V22.9862L25.26 27.6725C25.3478 27.7715 25.4544 27.8521 25.5736 27.9096C25.6928 27.9671 25.8222 28.0003 25.9543 28.0074C26.0865 28.0145 26.2187 27.9953 26.3434 27.951C26.4681 27.9066 26.5827 27.8379 26.6806 27.7489C26.7785 27.6599 26.8578 27.5524 26.9139 27.4325C26.97 27.3126 27.0017 27.1828 27.0072 27.0506C27.0127 26.9184 26.9919 26.7864 26.9461 26.6623C26.9002 26.5381 26.8302 26.4244 26.74 26.3275ZM20 15.4525C20.2652 15.4525 20.5196 15.3471 20.7071 15.1596C20.8946 14.9721 21 14.7177 21 14.4525V9C21 8.73478 20.8946 8.48043 20.7071 8.29289C20.5196 8.10536 20.2652 8 20 8C19.7348 8 19.4804 8.10536 19.2929 8.29289C19.1054 8.48043 19 8.73478 19 9V14.4537C19 14.719 19.1054 14.9733 19.2929 15.1609C19.4804 15.3484 19.7348 15.4537 20 15.4537V15.4525ZM25 20.9525C25.2652 20.9525 25.5196 20.8471 25.7071 20.6596C25.8946 20.4721 26 20.2177 26 19.9525V4C26 3.73478 25.8946 3.48043 25.7071 3.29289C25.5196 3.10536 25.2652 3 25 3C24.7348 3 24.4804 3.10536 24.2929 3.29289C24.1054 3.48043 24 3.73478 24 4V19.9538C24 20.219 24.1054 20.4733 24.2929 20.6609C24.4804 20.8484 24.7348 20.9538 25 20.9538V20.9525Z" fill="#4A4A4F"/>
</svg>
