<svg width="32" height="32" viewBox="0 0 32 32" fill="none" xmlns="http://www.w3.org/2000/svg">
<path d="M26.6726 27.7398C26.4763 27.9181 26.2173 28.0112 25.9524 27.9985C25.6875 27.9859 25.4385 27.8685 25.2601 27.6723L24.6489 26.9998H4.00011C3.60432 27.0001 3.21733 26.883 2.88815 26.6632C2.55896 26.4435 2.30237 26.131 2.15087 25.7654C1.99936 25.3997 1.95975 24.9973 2.03705 24.6092C2.11435 24.221 2.30509 23.8645 2.58511 23.5848L12.5164 13.6548L5.25886 5.67228C5.17046 5.5751 5.10207 5.46146 5.0576 5.33785C5.01312 5.21425 4.99342 5.08309 4.99963 4.95187C5.00584 4.82064 5.03783 4.69193 5.09379 4.57308C5.14974 4.45422 5.22856 4.34755 5.32573 4.25915C5.42291 4.17076 5.53655 4.10237 5.66016 4.05789C5.78377 4.01341 5.91493 3.99371 6.04615 3.99992C6.17737 4.00613 6.30608 4.03813 6.42494 4.09408C6.54379 4.15003 6.65046 4.22885 6.73886 4.32603L26.7389 26.326C26.8274 26.4232 26.896 26.5368 26.9406 26.6604C26.9852 26.7841 27.005 26.9153 26.9989 27.0466C26.9927 27.1779 26.9607 27.3068 26.9047 27.4257C26.8488 27.5446 26.7699 27.6514 26.6726 27.7398ZM24.2601 20.6248C24.3958 20.7741 24.5735 20.8788 24.7698 20.9253C24.9661 20.9717 25.1718 20.9578 25.36 20.8852C25.5482 20.8125 25.7101 20.6847 25.8243 20.5185C25.9386 20.3522 25.9998 20.1553 26.0001 19.9535V4.99978C25.9997 4.60446 25.8821 4.21813 25.6622 3.88959C25.4424 3.56106 25.1301 3.30505 24.7648 3.1539C24.3995 3.00276 23.9976 2.96326 23.6099 3.04039C23.2222 3.11753 22.866 3.30784 22.5864 3.58728L16.0226 10.1498C15.8423 10.3313 15.7385 10.575 15.7324 10.8308C15.7264 11.0866 15.8186 11.3349 15.9901 11.5248L24.2601 20.6248Z" fill="#4A4A4F"/>
</svg>
