<svg width="32" height="32" viewBox="0 0 32 32" fill="none" xmlns="http://www.w3.org/2000/svg">
<path d="M26.7075 24.2925C26.8004 24.3854 26.8741 24.4957 26.9244 24.6171C26.9747 24.7385 27.0006 24.8686 27.0006 25C27.0006 25.1314 26.9747 25.2615 26.9244 25.3829C26.8741 25.5043 26.8004 25.6146 26.7075 25.7075C26.6146 25.8004 26.5043 25.8741 26.3829 25.9244C26.2615 25.9747 26.1314 26.0006 26 26.0006C25.8686 26.0006 25.7385 25.9747 25.6171 25.9244C25.4957 25.8741 25.3854 25.8004 25.2925 25.7075L23 23.4137L20.7075 25.7075C20.5199 25.8951 20.2654 26.0006 20 26.0006C19.7346 26.0006 19.4801 25.8951 19.2925 25.7075C19.1049 25.5199 18.9994 25.2654 18.9994 25C18.9994 24.7346 19.1049 24.4801 19.2925 24.2925L21.5863 22L19.2925 19.7075C19.1049 19.5199 18.9994 19.2654 18.9994 19C18.9994 18.7346 19.1049 18.4801 19.2925 18.2925C19.4801 18.1049 19.7346 17.9994 20 17.9994C20.2654 17.9994 20.5199 18.1049 20.7075 18.2925L23 20.5863L25.2925 18.2925C25.4801 18.1049 25.7346 17.9994 26 17.9994C26.2654 17.9994 26.5199 18.1049 26.7075 18.2925C26.8951 18.4801 27.0006 18.7346 27.0006 19C27.0006 19.2654 26.8951 19.5199 26.7075 19.7075L24.4137 22L26.7075 24.2925ZM20 16C20.2652 16 20.5196 15.8946 20.7071 15.7071C20.8946 15.5196 21 15.2652 21 15V9C21 8.73478 20.8946 8.48043 20.7071 8.29289C20.5196 8.10536 20.2652 8 20 8C19.7348 8 19.4804 8.10536 19.2929 8.29289C19.1054 8.48043 19 8.73478 19 9V15C19 15.2652 19.1054 15.5196 19.2929 15.7071C19.4804 15.8946 19.7348 16 20 16ZM25 16C25.2652 16 25.5196 15.8946 25.7071 15.7071C25.8946 15.5196 26 15.2652 26 15V4C26 3.73478 25.8946 3.48043 25.7071 3.29289C25.5196 3.10536 25.2652 3 25 3C24.7348 3 24.4804 3.10536 24.2929 3.29289C24.1054 3.48043 24 3.73478 24 4V15C24 15.2652 24.1054 15.5196 24.2929 15.7071C24.4804 15.8946 24.7348 16 25 16ZM15 13C14.7348 13 14.4804 13.1054 14.2929 13.2929C14.1054 13.4804 14 13.7348 14 14V25C14 25.2652 14.1054 25.5196 14.2929 25.7071C14.4804 25.8946 14.7348 26 15 26C15.2652 26 15.5196 25.8946 15.7071 25.7071C15.8946 25.5196 16 25.2652 16 25V14C16 13.7348 15.8946 13.4804 15.7071 13.2929C15.5196 13.1054 15.2652 13 15 13ZM10 18C9.73478 18 9.48043 18.1054 9.29289 18.2929C9.10536 18.4804 9 18.7348 9 19V25C9 25.2652 9.10536 25.5196 9.29289 25.7071C9.48043 25.8946 9.73478 26 10 26C10.2652 26 10.5196 25.8946 10.7071 25.7071C10.8946 25.5196 11 25.2652 11 25V19C11 18.7348 10.8946 18.4804 10.7071 18.2929C10.5196 18.1054 10.2652 18 10 18ZM5 23C4.73478 23 4.48043 23.1054 4.29289 23.2929C4.10536 23.4804 4 23.7348 4 24V25C4 25.2652 4.10536 25.5196 4.29289 25.7071C4.48043 25.8946 4.73478 26 5 26C5.26522 26 5.51957 25.8946 5.70711 25.7071C5.89464 25.5196 6 25.2652 6 25V24C6 23.7348 5.89464 23.4804 5.70711 23.2929C5.51957 23.1054 5.26522 23 5 23Z" fill="#4A4A4F"/>
</svg>
