<svg width="32" height="32" viewBox="0 0 32 32" fill="none" xmlns="http://www.w3.org/2000/svg">
<path d="M26.0001 5.00005V25.0001C26.0001 25.5305 25.7893 26.0392 25.4143 26.4143C25.0392 26.7893 24.5305 27.0001 24.0001 27.0001H4.00005C3.60447 26.9999 3.21783 26.8824 2.88903 26.6625C2.56022 26.4425 2.30402 26.13 2.15283 25.7645C2.00163 25.3989 1.96223 24.9968 2.03962 24.6088C2.117 24.2209 2.30768 23.8646 2.58755 23.5851L22.5876 3.58505C22.8674 3.30589 23.2237 3.11591 23.6114 3.0391C23.9992 2.96229 24.401 3.0021 24.7661 3.15351C25.1312 3.30491 25.4433 3.56111 25.6629 3.88976C25.8826 4.21842 25.9999 4.60478 26.0001 5.00005Z" fill="#4A4A4F"/>
</svg>
