<svg width="32" height="32" viewBox="0 0 32 32" fill="none" xmlns="http://www.w3.org/2000/svg">
<path d="M18.4014 21.6461C18.4478 21.6926 18.4847 21.7477 18.5099 21.8084C18.535 21.8691 18.548 21.9342 18.548 21.9999C18.548 22.0656 18.535 22.1307 18.5099 22.1914C18.4847 22.2521 18.4478 22.3072 18.4014 22.3536L17.8751 22.8749C17.4371 23.3139 17.1459 23.8779 17.0415 24.4892C16.9372 25.1006 17.0249 25.7292 17.2926 26.2886C17.3273 26.3648 17.3424 26.4485 17.3364 26.532C17.3304 26.6155 17.3035 26.6962 17.2582 26.7666C17.2129 26.837 17.1507 26.8949 17.0772 26.935C17.0037 26.9751 16.9213 26.9961 16.8376 26.9961H4.0001C3.5882 26.9962 3.18632 26.8691 2.84938 26.6321C2.51244 26.3952 2.25688 26.06 2.1176 25.6724C1.99308 25.3063 1.97478 24.9124 2.06482 24.5363C2.15485 24.1603 2.34954 23.8174 2.62635 23.5474L22.5851 3.58613C22.8763 3.29504 23.2502 3.10089 23.6558 3.03019C24.0614 2.9595 24.4789 3.0157 24.8514 3.19113C25.1997 3.36176 25.4925 3.62767 25.6958 3.95799C25.8992 4.28832 26.0047 4.66952 26.0001 5.05738V15.5361C26.0012 15.6578 25.9579 15.7758 25.8783 15.8678C25.7987 15.9599 25.6882 16.0197 25.5676 16.0361C24.9276 16.1255 24.3338 16.4198 23.8751 16.8749L23.3501 17.3999C23.3037 17.4464 23.2485 17.4832 23.1878 17.5084C23.1271 17.5336 23.0621 17.5465 22.9964 17.5465C22.9306 17.5465 22.8656 17.5336 22.8049 17.5084C22.7442 17.4832 22.689 17.4464 22.6426 17.3999L22.1251 16.8749C21.5696 16.3189 20.8182 16.0031 20.0323 15.9954C19.2464 15.9877 18.4889 16.2887 17.9226 16.8336C16.7114 17.9999 16.7401 19.9761 17.9226 21.1649L18.4014 21.6461ZM24.4139 21.9999L26.7076 19.7061C26.8951 19.5185 27.0003 19.2641 27.0002 18.9988C27.0001 18.7336 26.8946 18.4792 26.707 18.2918C26.5193 18.1043 26.2649 17.999 25.9997 17.9991C25.7344 17.9993 25.4801 18.1047 25.2926 18.2924L23.0001 20.5849L20.7064 18.2924C20.5173 18.1128 20.2655 18.0141 20.0048 18.0174C19.744 18.0208 19.4949 18.1258 19.3105 18.3103C19.1261 18.4947 19.021 18.7438 19.0177 19.0046C19.0143 19.2653 19.113 19.5171 19.2926 19.7061L21.5851 21.9999L19.2914 24.2924C19.1037 24.4799 18.9982 24.7342 18.9981 24.9994C18.998 25.2647 19.1033 25.5191 19.2907 25.7068C19.4782 25.8944 19.7325 25.9999 19.9978 26C20.263 26.0001 20.5175 25.8949 20.7051 25.7074L23.0001 23.4136L25.2939 25.7074C25.4815 25.895 25.736 26.0004 26.0014 26.0004C26.2667 26.0004 26.5212 25.895 26.7089 25.7074C26.8965 25.5197 27.0019 25.2652 27.0019 24.9999C27.0019 24.7345 26.8965 24.48 26.7089 24.2924L24.4139 21.9999Z" fill="#4A4A4F"/>
</svg>
