<svg width="32" height="32" viewBox="0 0 32 32" fill="none" xmlns="http://www.w3.org/2000/svg">
<path d="M29 11.1075V7C29 6.46957 28.7893 5.96086 28.4142 5.58579C28.0391 5.21071 27.5304 5 27 5H5C4.46957 5 3.96086 5.21071 3.58579 5.58579C3.21071 5.96086 3 6.46957 3 7V23C3 23.5304 3.21071 24.0391 3.58579 24.4142C3.96086 24.7893 4.46957 25 5 25H19V28C18.9999 28.1705 19.0434 28.3383 19.1264 28.4873C19.2093 28.6363 19.329 28.7616 19.4741 28.8513C19.6192 28.941 19.7847 28.9921 19.9551 28.9997C20.1255 29.0074 20.295 28.9713 20.4475 28.895L24 27.1175L27.5525 28.895C27.705 28.9713 27.8745 29.0074 28.0449 28.9997C28.2153 28.9921 28.3808 28.941 28.5259 28.8513C28.671 28.7616 28.7907 28.6363 28.8736 28.4873C28.9566 28.3383 29.0001 28.1705 29 28V20.8925C30.2819 19.5867 31.0002 17.8299 31.0002 16C31.0002 14.1701 30.2819 12.4133 29 11.1075ZM16 18H9C8.73478 18 8.48043 17.8946 8.29289 17.7071C8.10536 17.5196 8 17.2652 8 17C8 16.7348 8.10536 16.4804 8.29289 16.2929C8.48043 16.1054 8.73478 16 9 16H16C16.2652 16 16.5196 16.1054 16.7071 16.2929C16.8946 16.4804 17 16.7348 17 17C17 17.2652 16.8946 17.5196 16.7071 17.7071C16.5196 17.8946 16.2652 18 16 18ZM16 14H9C8.73478 14 8.48043 13.8946 8.29289 13.7071C8.10536 13.5196 8 13.2652 8 13C8 12.7348 8.10536 12.4804 8.29289 12.2929C8.48043 12.1054 8.73478 12 9 12H16C16.2652 12 16.5196 12.1054 16.7071 12.2929C16.8946 12.4804 17 12.7348 17 13C17 13.2652 16.8946 13.5196 16.7071 13.7071C16.5196 13.8946 16.2652 14 16 14ZM27 26.3825L24.4475 25.105C24.3086 25.0355 24.1554 24.9993 24 24.9993C23.8446 24.9993 23.6914 25.0355 23.5525 25.105L21 26.3825V22.3237C21.9374 22.769 22.9622 23 24 23C25.0378 23 26.0626 22.769 27 22.3237V26.3825ZM24 21C23.0111 21 22.0444 20.7068 21.2221 20.1573C20.3999 19.6079 19.759 18.827 19.3806 17.9134C19.0022 16.9998 18.9031 15.9945 19.0961 15.0245C19.289 14.0546 19.7652 13.1637 20.4645 12.4645C21.1637 11.7652 22.0546 11.289 23.0245 11.0961C23.9945 10.9031 24.9998 11.0022 25.9134 11.3806C26.827 11.759 27.6079 12.3999 28.1573 13.2221C28.7068 14.0444 29 15.0111 29 16C29 17.3261 28.4732 18.5979 27.5355 19.5355C26.5979 20.4732 25.3261 21 24 21Z" fill="#4A4A4F"/>
</svg>
