<svg width="32" height="32" viewBox="0 0 32 32" fill="none" xmlns="http://www.w3.org/2000/svg">
<path d="M27 5H5C4.46957 5 3.96086 5.21071 3.58579 5.58579C3.21071 5.96086 3 6.46957 3 7V25C3 25.5304 3.21071 26.0391 3.58579 26.4142C3.96086 26.7893 4.46957 27 5 27H6.67375C6.86301 27.0001 7.0484 26.9464 7.20838 26.8453C7.36836 26.7442 7.49636 26.5997 7.5775 26.4287C8.06377 25.4021 8.83151 24.5346 9.79143 23.9271C10.7514 23.3196 11.864 22.9971 13 22.9971C14.136 22.9971 15.2486 23.3196 16.2086 23.9271C17.1685 24.5346 17.9362 25.4021 18.4225 26.4287C18.5036 26.5997 18.6316 26.7442 18.7916 26.8453C18.9516 26.9464 19.137 27.0001 19.3263 27H27C27.5304 27 28.0391 26.7893 28.4142 26.4142C28.7893 26.0391 29 25.5304 29 25V7C29 6.46957 28.7893 5.96086 28.4142 5.58579C28.0391 5.21071 27.5304 5 27 5ZM13 21C12.2089 21 11.4355 20.7654 10.7777 20.3259C10.1199 19.8864 9.60723 19.2616 9.30448 18.5307C9.00173 17.7998 8.92252 16.9956 9.07686 16.2196C9.2312 15.4437 9.61216 14.731 10.1716 14.1716C10.731 13.6122 11.4437 13.2312 12.2196 13.0769C12.9956 12.9225 13.7998 13.0017 14.5307 13.3045C15.2616 13.6072 15.8864 14.1199 16.3259 14.7777C16.7654 15.4355 17 16.2089 17 17C17 18.0609 16.5786 19.0783 15.8284 19.8284C15.0783 20.5786 14.0609 21 13 21ZM27 25H19.9287C19.4928 24.2483 18.9372 23.5728 18.2838 23H24C24.2652 23 24.5196 22.8946 24.7071 22.7071C24.8946 22.5196 25 22.2652 25 22V10C25 9.73478 24.8946 9.48043 24.7071 9.29289C24.5196 9.10536 24.2652 9 24 9H8C7.73478 9 7.48043 9.10536 7.29289 9.29289C7.10536 9.48043 7 9.73478 7 10V22C6.99989 22.2218 7.07351 22.4373 7.20928 22.6127C7.34505 22.788 7.53526 22.9133 7.75 22.9688C7.08152 23.5479 6.51417 24.2344 6.07125 25H5V7H27V25Z" fill="#4A4A4F"/>
</svg>
