<svg width="32" height="32" viewBox="0 0 32 32" fill="none" xmlns="http://www.w3.org/2000/svg">
<path d="M27 5H5C4.46957 5 3.96086 5.21071 3.58579 5.58579C3.21071 5.96086 3 6.46957 3 7V25C3 25.5304 3.21071 26.0391 3.58579 26.4142C3.96086 26.7893 4.46957 27 5 27H6.67375C6.86301 27.0001 7.0484 26.9464 7.20838 26.8453C7.36836 26.7442 7.49636 26.5997 7.5775 26.4287C8.06377 25.4021 8.83151 24.5346 9.79143 23.9271C10.7514 23.3196 11.864 22.9971 13 22.9971C14.136 22.9971 15.2486 23.3196 16.2086 23.9271C17.1685 24.5346 17.9362 25.4021 18.4225 26.4287C18.5036 26.5997 18.6316 26.7442 18.7916 26.8453C18.9516 26.9464 19.137 27.0001 19.3263 27H27C27.5304 27 28.0391 26.7893 28.4142 26.4142C28.7893 26.0391 29 25.5304 29 25V7C29 6.46957 28.7893 5.96086 28.4142 5.58579C28.0391 5.21071 27.5304 5 27 5ZM10 18C10 17.4067 10.1759 16.8266 10.5056 16.3333C10.8352 15.8399 11.3038 15.4554 11.8519 15.2284C12.4001 15.0013 13.0033 14.9419 13.5853 15.0576C14.1672 15.1734 14.7018 15.4591 15.1213 15.8787C15.5409 16.2982 15.8266 16.8328 15.9424 17.4147C16.0581 17.9967 15.9987 18.5999 15.7716 19.1481C15.5446 19.6962 15.1601 20.1648 14.6667 20.4944C14.1734 20.8241 13.5933 21 13 21C12.2044 21 11.4413 20.6839 10.8787 20.1213C10.3161 19.5587 10 18.7956 10 18ZM27 25H19.9287C19.0937 23.5643 17.8349 22.4221 16.325 21.73C17.082 21.056 17.6162 20.1678 17.857 19.1832C18.0977 18.1986 18.0335 17.1642 17.6729 16.2169C17.3122 15.2696 16.6723 14.4543 15.8377 13.8791C15.0032 13.3038 14.0136 12.9958 13 12.9958C11.9864 12.9958 10.9968 13.3038 10.1623 13.8791C9.32774 14.4543 8.68776 15.2696 8.32715 16.2169C7.96654 17.1642 7.90234 18.1986 8.14305 19.1832C8.38376 20.1678 8.91802 21.056 9.675 21.73C8.16513 22.4221 6.90633 23.5643 6.07125 25H5V7H27V25ZM7 12V10C7 9.73478 7.10536 9.48043 7.29289 9.29289C7.48043 9.10536 7.73478 9 8 9H24C24.2652 9 24.5196 9.10536 24.7071 9.29289C24.8946 9.48043 25 9.73478 25 10V22C25 22.2652 24.8946 22.5196 24.7071 22.7071C24.5196 22.8946 24.2652 23 24 23H22C21.7348 23 21.4804 22.8946 21.2929 22.7071C21.1054 22.5196 21 22.2652 21 22C21 21.7348 21.1054 21.4804 21.2929 21.2929C21.4804 21.1054 21.7348 21 22 21H23V11H9V12C9 12.2652 8.89464 12.5196 8.70711 12.7071C8.51957 12.8946 8.26522 13 8 13C7.73478 13 7.48043 12.8946 7.29289 12.7071C7.10536 12.5196 7 12.2652 7 12Z" fill="#4A4A4F"/>
</svg>
