<svg width="32" height="32" viewBox="0 0 32 32" fill="none" xmlns="http://www.w3.org/2000/svg">
<path d="M12.5002 14.5538C12.6522 14.466 12.7785 14.3397 12.8663 14.1876C12.954 14.0356 13.0002 13.8631 13.0002 13.6875V4.6875C12.9993 4.52807 12.9603 4.37116 12.8864 4.22986C12.8126 4.08857 12.706 3.96698 12.5756 3.87524C12.4452 3.7835 12.2948 3.72426 12.1368 3.70248C11.9789 3.68069 11.818 3.69699 11.6677 3.75C8.74891 4.78302 6.29433 6.8233 4.7452 9.50409C3.19608 12.1849 2.65401 15.3303 3.21643 18.375C3.24559 18.5324 3.31212 18.6806 3.41044 18.807C3.50876 18.9333 3.63599 19.0343 3.78143 19.1012C3.9125 19.1625 4.05549 19.1941 4.20018 19.1938C4.3757 19.1938 4.54814 19.1477 4.70018 19.06L12.5002 14.5538ZM11.0002 6.2025V13.11L5.01518 16.5637C5.00018 16.375 5.00018 16.185 5.00018 16C5.00196 13.973 5.56305 11.9857 6.62168 10.2571C7.6803 8.5284 9.19541 7.12539 11.0002 6.2025ZM27.2927 9.565C27.2814 9.5425 27.2702 9.51875 27.2564 9.49625C27.2427 9.47375 27.2314 9.455 27.2177 9.435C26.0715 7.47725 24.4332 5.85335 22.4654 4.72451C20.4976 3.59567 18.2688 3.00116 16.0002 3C15.735 3 15.4806 3.10536 15.2931 3.29289C15.1055 3.48043 15.0002 3.73478 15.0002 4V15.4788L5.14893 21.2162C5.03462 21.2825 4.93457 21.3708 4.85457 21.4759C4.77456 21.5811 4.7162 21.7011 4.68284 21.8289C4.64948 21.9568 4.64179 22.09 4.66022 22.2208C4.67864 22.3517 4.72281 22.4776 4.79018 22.5912C6.23552 25.0525 8.45069 26.9696 11.0938 28.0468C13.737 29.1241 16.6612 29.3015 19.4152 28.5517C22.1692 27.8019 24.5999 26.1666 26.3321 23.8982C28.0644 21.6297 29.002 18.8542 29.0002 16C29.0031 13.7427 28.4143 11.524 27.2927 9.565ZM17.0002 5.045C18.5862 5.19099 20.1216 5.67945 21.5004 6.47666C22.8793 7.27387 24.0686 8.36083 24.9864 9.6625L17.0002 14.3138V5.045ZM16.0002 27C14.2545 26.9955 12.5346 26.5777 10.9814 25.7808C9.42815 24.9839 8.08571 23.8305 7.06393 22.415L16.4889 16.9263L16.5164 16.9088L25.9877 11.3925C26.7608 13.0684 27.0997 14.9119 26.9733 16.7532C26.8469 18.5945 26.2593 20.3745 25.2645 21.929C24.2697 23.4836 22.8997 24.7629 21.2807 25.6491C19.6617 26.5353 17.8458 26.9998 16.0002 27Z" fill="#4A4A4F"/>
</svg>
