<svg width="32" height="32" viewBox="0 0 32 32" fill="none" xmlns="http://www.w3.org/2000/svg">
<path d="M16.8275 15.4388C16.9193 15.5741 16.9766 15.7298 16.9942 15.8924C17.0119 16.055 16.9894 16.2194 16.9287 16.3713L14.9288 21.3713C14.8298 21.6176 14.637 21.8145 14.3929 21.9187C14.1487 22.0229 13.8732 22.0258 13.6269 21.9269C13.3806 21.8279 13.1836 21.6352 13.0794 21.391C12.9752 21.1469 12.9723 20.8713 13.0712 20.625L14.5225 17H12C11.8361 17.0003 11.6747 16.9603 11.5299 16.8835C11.385 16.8067 11.2613 16.6955 11.1696 16.5597C11.0779 16.4239 11.0209 16.2676 11.0038 16.1046C10.9866 15.9416 11.0098 15.7769 11.0712 15.625L13.0712 10.625C13.1205 10.503 13.1933 10.392 13.2855 10.2981C13.3776 10.2043 13.4874 10.1295 13.6084 10.0781C13.7295 10.0267 13.8595 9.99962 13.991 9.99844C14.1226 9.99726 14.253 10.022 14.375 10.0712C14.497 10.1205 14.608 10.1933 14.7019 10.2855C14.7957 10.3776 14.8705 10.4874 14.9219 10.6084C14.9733 10.7295 15.0004 10.8595 15.0016 10.991C15.0027 11.1226 14.978 11.253 14.9288 11.375L13.4775 15H16C16.1633 15 16.324 15.04 16.4683 15.1165C16.6125 15.193 16.7359 15.3036 16.8275 15.4388ZM31 10.8287V21C31 21.7956 30.6839 22.5587 30.1213 23.1213C29.5587 23.6839 28.7956 24 28 24C27.2044 24 26.4413 23.6839 25.8787 23.1213C25.3161 22.5587 25 21.7956 25 21V16C25 15.7348 24.8946 15.4804 24.7071 15.2929C24.5196 15.1054 24.2652 15 24 15H22V26H24C24.2652 26 24.5196 26.1054 24.7071 26.2929C24.8946 26.4804 25 26.7348 25 27C25 27.2652 24.8946 27.5196 24.7071 27.7071C24.5196 27.8946 24.2652 28 24 28H4C3.73478 28 3.48043 27.8946 3.29289 27.7071C3.10536 27.5196 3 27.2652 3 27C3 26.7348 3.10536 26.4804 3.29289 26.2929C3.48043 26.1054 3.73478 26 4 26H6V7C6 6.20435 6.31607 5.44129 6.87868 4.87868C7.44129 4.31607 8.20435 4 9 4H19C19.7956 4 20.5587 4.31607 21.1213 4.87868C21.6839 5.44129 22 6.20435 22 7V13H24C24.7956 13 25.5587 13.3161 26.1213 13.8787C26.6839 14.4413 27 15.2044 27 16V21C27 21.2652 27.1054 21.5196 27.2929 21.7071C27.4804 21.8946 27.7348 22 28 22C28.2652 22 28.5196 21.8946 28.7071 21.7071C28.8946 21.5196 29 21.2652 29 21V10.8287C28.9992 10.5648 28.8941 10.3118 28.7075 10.125L26.2925 7.7075C26.1049 7.51986 25.9994 7.26536 25.9994 7C25.9994 6.73464 26.1049 6.48014 26.2925 6.2925C26.4801 6.10486 26.7346 5.99944 27 5.99944C27.2654 5.99944 27.5199 6.10486 27.7075 6.2925L30.125 8.7075C30.4037 8.98575 30.6246 9.31648 30.7748 9.68057C30.9249 10.0447 31.0015 10.4349 31 10.8287ZM20 26V7C20 6.73478 19.8946 6.48043 19.7071 6.29289C19.5196 6.10536 19.2652 6 19 6H9C8.73478 6 8.48043 6.10536 8.29289 6.29289C8.10536 6.48043 8 6.73478 8 7V26H20Z" fill="#4A4A4F"/>
</svg>
