<svg width="32" height="32" viewBox="0 0 32 32" fill="none" xmlns="http://www.w3.org/2000/svg">
<path d="M15.0002 24.9427V28.4102C15.0006 28.481 14.9861 28.5511 14.9574 28.6158C14.9288 28.6805 14.8867 28.7385 14.834 28.7857C14.7813 28.833 14.7192 28.8685 14.6517 28.89C14.5842 28.9114 14.513 28.9183 14.4427 28.9102C11.5552 28.5571 8.86898 27.2478 6.81203 25.1908C4.75507 23.1339 3.44574 20.4476 3.09267 17.5602C3.08453 17.4899 3.09141 17.4186 3.11287 17.3511C3.13432 17.2837 3.16986 17.2215 3.21713 17.1688C3.2644 17.1161 3.32232 17.0741 3.38706 17.0454C3.4518 17.0168 3.52188 17.0022 3.59267 17.0027H7.05767C7.28774 19.0296 8.19855 20.9186 9.64124 22.3608C11.0839 23.803 12.9732 24.7132 15.0002 24.9427ZM22.9277 17.0002H17.0002V22.9277C18.4947 22.7096 19.8789 22.0149 20.9469 20.9469C22.0149 19.8789 22.7096 18.4947 22.9277 17.0002ZM17.0002 9.07267V15.0002H22.9277C22.7096 13.5056 22.0149 12.1214 20.9469 11.0535C19.8789 9.98547 18.4947 9.29076 17.0002 9.07267ZM28.4102 17.0002H24.9427C24.7131 19.0276 23.8026 20.9171 22.3598 22.3598C20.9171 23.8026 19.0276 24.7131 17.0002 24.9427V28.4102C16.9997 28.481 17.0143 28.5511 17.0429 28.6158C17.0716 28.6805 17.1136 28.7385 17.1663 28.7857C17.219 28.833 17.2812 28.8685 17.3486 28.89C17.4161 28.9114 17.4874 28.9183 17.5577 28.9102C20.4451 28.5571 23.1314 27.2478 25.1883 25.1908C27.2453 23.1339 28.5546 20.4476 28.9077 17.5602C28.9162 17.4899 28.9096 17.4186 28.8885 17.351C28.8674 17.2834 28.8321 17.221 28.7851 17.1681C28.738 17.1152 28.6803 17.0728 28.6157 17.0439C28.551 17.0149 28.481 17 28.4102 17.0002ZM24.9427 15.0002H28.4102C28.481 15.0006 28.5511 14.9861 28.6158 14.9574C28.6805 14.9288 28.7385 14.8867 28.7857 14.834C28.833 14.7813 28.8685 14.7192 28.89 14.6517C28.9114 14.5842 28.9183 14.513 28.9102 14.4427C28.5571 11.5552 27.2478 8.86898 25.1908 6.81203C23.1339 4.75507 20.4476 3.44574 17.5602 3.09267C17.4899 3.08453 17.4186 3.09141 17.3511 3.11287C17.2837 3.13432 17.2215 3.16986 17.1688 3.21713C17.1161 3.2644 17.0741 3.32232 17.0454 3.38706C17.0168 3.4518 17.0022 3.52188 17.0027 3.59267V7.05767C19.0296 7.28774 20.9186 8.19855 22.3608 9.64124C23.803 11.0839 24.7132 12.9732 24.9427 15.0002ZM14.4427 3.09267C11.5552 3.44574 8.86898 4.75507 6.81203 6.81203C4.75507 8.86898 3.44574 11.5552 3.09267 14.4427C3.08453 14.513 3.09141 14.5842 3.11287 14.6517C3.13432 14.7192 3.16986 14.7813 3.21713 14.834C3.2644 14.8867 3.32232 14.9288 3.38706 14.9574C3.4518 14.9861 3.52188 15.0006 3.59267 15.0002H7.05767C7.28721 12.9728 8.19778 11.0833 9.64052 9.64052C11.0833 8.19778 12.9728 7.28721 15.0002 7.05767V3.59017C15.0003 3.51959 14.9855 3.44979 14.9567 3.38535C14.9279 3.32091 14.8857 3.26329 14.8331 3.2163C14.7804 3.1693 14.7184 3.13399 14.6511 3.11268C14.5838 3.09138 14.5128 3.08456 14.4427 3.09267ZM9.07267 15.0002H15.0002V9.07267C13.5056 9.29076 12.1214 9.98547 11.0535 11.0535C9.98547 12.1214 9.29076 13.5056 9.07267 15.0002ZM15.0002 22.9277V17.0002H9.07267C9.29076 18.4947 9.98547 19.8789 11.0535 20.9469C12.1214 22.0149 13.5056 22.7096 15.0002 22.9277Z" fill="#4A4A4F"/>
</svg>
