<svg width="32" height="32" viewBox="0 0 32 32" fill="none" xmlns="http://www.w3.org/2000/svg">
<path d="M28 14V18C28 18.2652 27.8946 18.5196 27.7071 18.7071C27.5196 18.8946 27.2652 19 27 19H6V21H17C17.2652 21 17.5196 21.1054 17.7071 21.2929C17.8946 21.4804 18 21.7348 18 22V25C18 25.2652 17.8946 25.5196 17.7071 25.7071C17.5196 25.8946 17.2652 26 17 26H6V27C6 27.2652 5.89464 27.5196 5.70711 27.7071C5.51957 27.8946 5.26522 28 5 28C4.73478 28 4.48043 27.8946 4.29289 27.7071C4.10536 27.5196 4 27.2652 4 27V5C4 4.73478 4.10536 4.48043 4.29289 4.29289C4.48043 4.10536 4.73478 4 5 4C5.26522 4 5.51957 4.10536 5.70711 4.29289C5.89464 4.48043 6 4.73478 6 5V6H21C21.2652 6 21.5196 6.10536 21.7071 6.29289C21.8946 6.48043 22 6.73478 22 7V10C22 10.2652 21.8946 10.5196 21.7071 10.7071C21.5196 10.8946 21.2652 11 21 11H6V13H27C27.2652 13 27.5196 13.1054 27.7071 13.2929C27.8946 13.4804 28 13.7348 28 14Z" fill="#4A4A4F"/>
</svg>
