<svg width="32" height="32" viewBox="0 0 32 32" fill="none" xmlns="http://www.w3.org/2000/svg">
<path d="M17.1738 3.00756C16.8975 2.98347 16.6193 3.01709 16.3567 3.10628C16.0942 3.19547 15.853 3.33829 15.6486 3.52566C15.4442 3.71303 15.281 3.94086 15.1693 4.19468C15.0577 4.4485 15 4.72277 15 5.00006V10.0838C14.9966 10.5555 15.1614 11.013 15.465 11.3741C15.7686 11.7352 16.191 11.9762 16.6563 12.0538C17.3997 12.1785 18.0928 12.5108 18.6556 13.0123C19.2184 13.5139 19.628 14.1642 19.8373 14.8885C20.0465 15.6127 20.0468 16.3813 19.8382 17.1057C19.6296 17.8301 19.2205 18.4808 18.6581 18.9828C18.0957 19.4848 17.4029 19.8176 16.6596 19.943C15.9162 20.0683 15.1526 19.9811 14.4567 19.6913C13.7607 19.4015 13.1609 18.9209 12.7263 18.305C12.2916 17.6891 12.0399 16.9629 12 16.2101C11.9488 15.1826 12.1588 14.3351 12.625 13.6776C12.899 13.2953 13.0282 12.8281 12.9895 12.3594C12.9508 11.8906 12.7468 11.4509 12.4138 11.1188L8.96126 7.58506C8.76447 7.38826 8.52876 7.23469 8.26923 7.13419C8.00969 7.03369 7.73203 6.98847 7.45402 7.00141C7.176 7.01435 6.90375 7.08518 6.65467 7.20935C6.40559 7.33353 6.18517 7.50833 6.00751 7.72256C3.92373 10.22 2.85608 13.4102 3.01681 16.6589C3.17754 19.9075 4.55488 22.9767 6.87501 25.2563C9.30101 27.6632 12.5826 29.0096 16 29.0001H16.1863C19.5669 28.9425 22.793 27.5739 25.1837 25.1829C27.5745 22.792 28.9428 19.5657 29 16.1851C29.0938 9.39756 23.8988 3.61006 17.1738 3.00756ZM7.54001 8.99256L10.9913 12.5163V12.5238C10.479 13.259 10.1573 14.1099 10.055 15.0001H5.04501C5.24528 12.7902 6.11579 10.6941 7.54001 8.99256ZM5.04626 17.0001H10.0838C10.2911 18.2287 10.8759 19.3624 11.7569 20.2436C12.6379 21.1248 13.7714 21.7099 15 21.9176V26.9551C12.4388 26.7211 10.0406 25.5971 8.22211 23.7784C6.40364 21.9597 5.27992 19.5613 5.04626 17.0001ZM23.7675 23.7676C21.9562 25.5915 19.56 26.7188 17 26.9513V21.9176C18.1589 21.7247 19.2346 21.1927 20.0913 20.3888C20.9103 19.6258 21.4995 18.6488 21.7923 17.5684C22.0851 16.488 22.0699 15.3473 21.7483 14.2751C21.4267 13.2029 20.8116 12.2421 19.9725 11.5012C19.1334 10.7603 18.1038 10.2689 17 10.0826V5.00006C22.69 5.51006 27.0838 10.4101 27 16.1563C26.9607 19.0188 25.8001 21.7516 23.7675 23.7676Z" fill="#4A4A4F"/>
</svg>
