<svg width="32" height="32" viewBox="0 0 32 32" fill="none" xmlns="http://www.w3.org/2000/svg">
<path d="M29 26C29 26.2652 28.8946 26.5196 28.7071 26.7071C28.5196 26.8946 28.2652 27 28 27H4C3.73478 27 3.48043 26.8946 3.29289 26.7071C3.10536 26.5196 3 26.2652 3 26V6C3 5.73478 3.10536 5.48043 3.29289 5.29289C3.48043 5.10536 3.73478 5 4 5C4.26522 5 4.51957 5.10536 4.70711 5.29289C4.89464 5.48043 5 5.73478 5 6V7.58625L12 14.5863L15.2925 11.2925C15.3854 11.1995 15.4957 11.1258 15.6171 11.0754C15.7385 11.0251 15.8686 10.9992 16 10.9992C16.1314 10.9992 16.2615 11.0251 16.3829 11.0754C16.5043 11.1258 16.6146 11.1995 16.7075 11.2925L24 18.5863V16C24 15.7348 24.1054 15.4804 24.2929 15.2929C24.4804 15.1054 24.7348 15 25 15C25.2652 15 25.5196 15.1054 25.7071 15.2929C25.8946 15.4804 26 15.7348 26 16V21C26.0019 21.0333 26.0019 21.0667 26 21.1C26 21.1138 26 21.1262 25.9937 21.14C25.9875 21.1537 25.9938 21.1775 25.985 21.1975C25.9823 21.2132 25.9785 21.2286 25.9737 21.2437C25.9737 21.26 25.9662 21.2762 25.9613 21.2925C25.9563 21.3088 25.9513 21.3213 25.9463 21.3363L25.9287 21.385L25.91 21.4237C25.9025 21.44 25.895 21.4575 25.8862 21.4737C25.8775 21.49 25.8725 21.4963 25.8662 21.5088L25.8363 21.5575L25.81 21.5925L25.7775 21.6362C25.7638 21.6537 25.7475 21.67 25.7325 21.6863L25.7125 21.7087L25.6912 21.7275C25.6747 21.7439 25.6571 21.7594 25.6388 21.7738C25.626 21.7849 25.6126 21.7953 25.5987 21.805L25.5613 21.8325L25.5138 21.8612C25.5017 21.8691 25.4892 21.8762 25.4762 21.8825L25.43 21.9062L25.3875 21.925L25.3425 21.9412C25.3271 21.9478 25.3112 21.9532 25.295 21.9575L25.25 21.97C25.2325 21.97 25.2175 21.9788 25.2 21.9813L25.1475 21.99L25.1038 21.9963C25.0709 21.9981 25.0379 21.9981 25.005 21.9963H20C19.7348 21.9963 19.4804 21.8909 19.2929 21.7034C19.1054 21.5158 19 21.2615 19 20.9963C19 20.731 19.1054 20.4767 19.2929 20.2891C19.4804 20.1016 19.7348 19.9963 20 19.9963H22.5863L16 13.4137L12.7075 16.7075C12.6146 16.8005 12.5043 16.8742 12.3829 16.9246C12.2615 16.9749 12.1314 17.0008 12 17.0008C11.8686 17.0008 11.7385 16.9749 11.6171 16.9246C11.4957 16.8742 11.3854 16.8005 11.2925 16.7075L5 10.4137V25H28C28.2652 25 28.5196 25.1054 28.7071 25.2929C28.8946 25.4804 29 25.7348 29 26Z" fill="#4A4A4F"/>
</svg>
