<svg width="32" height="32" viewBox="0 0 32 32" fill="none" xmlns="http://www.w3.org/2000/svg">
<path d="M12.5002 14.5538C12.6522 14.466 12.7785 14.3397 12.8663 14.1876C12.954 14.0356 13.0002 13.8631 13.0002 13.6875V4.6875C12.9993 4.52807 12.9603 4.37116 12.8864 4.22986C12.8126 4.08857 12.706 3.96698 12.5756 3.87524C12.4452 3.7835 12.2948 3.72426 12.1368 3.70248C11.9789 3.68069 11.818 3.69699 11.6677 3.75C8.74891 4.78302 6.29433 6.8233 4.7452 9.50409C3.19608 12.1849 2.65401 15.3303 3.21643 18.375C3.24559 18.5324 3.31212 18.6806 3.41044 18.807C3.50876 18.9333 3.63599 19.0343 3.78143 19.1012C3.9125 19.1625 4.05549 19.1941 4.20018 19.1938C4.3757 19.1938 4.54814 19.1477 4.70018 19.06L12.5002 14.5538ZM11.0002 6.2025V13.11L5.01518 16.5637C5.00018 16.375 5.00018 16.185 5.00018 16C5.00196 13.973 5.56305 11.9857 6.62168 10.2571C7.6803 8.5284 9.19541 7.12539 11.0002 6.2025ZM29.0002 16C29.0012 18.8539 28.063 21.6288 26.3304 23.8967C24.5979 26.1645 22.1672 27.7991 19.4134 28.5484C16.6596 29.2977 13.7357 29.12 11.093 28.0427C8.4502 26.9655 6.23536 25.0484 4.79018 22.5875C4.72281 22.4738 4.67864 22.3479 4.66022 22.2171C4.64179 22.0862 4.64948 21.953 4.68284 21.8252C4.7162 21.6973 4.77456 21.5774 4.85457 21.4722C4.93457 21.367 5.03462 21.2788 5.14893 21.2125L15.0002 15.4788V4C15.0002 3.73478 15.1055 3.48043 15.2931 3.29289C15.4806 3.10536 15.735 3 16.0002 3C18.2688 3.00116 20.4976 3.59567 22.4654 4.72451C24.4332 5.85335 26.0715 7.47725 27.2177 9.435C27.2314 9.455 27.2439 9.475 27.2564 9.49625C27.2689 9.5175 27.2814 9.5425 27.2927 9.565C28.4143 11.524 29.0031 13.7427 29.0002 16Z" fill="#4A4A4F"/>
</svg>
