<svg width="32" height="32" viewBox="0 0 32 32" fill="none" xmlns="http://www.w3.org/2000/svg">
<path d="M16 3C13.4288 3 10.9154 3.76244 8.77759 5.1909C6.63975 6.61935 4.97351 8.64968 3.98957 11.0251C3.00563 13.4006 2.74819 16.0144 3.2498 18.5362C3.75141 21.0579 4.98953 23.3743 6.80762 25.1924C8.6257 27.0105 10.9421 28.2486 13.4638 28.7502C15.9856 29.2518 18.5995 28.9944 20.9749 28.0104C23.3503 27.0265 25.3807 25.3603 26.8091 23.2224C28.2376 21.0846 29 18.5712 29 16C28.9964 12.5533 27.6256 9.24882 25.1884 6.81163C22.7512 4.37445 19.4467 3.00364 16 3ZM24.9838 9.65875L17 14.2675V5.04625C18.5853 5.19159 20.1201 5.67927 21.4985 6.47562C22.8769 7.27197 24.066 8.35802 24.9838 9.65875ZM15 5.04625V15.4213L6.01376 20.6087C5.27606 19.0098 4.933 17.2571 5.01344 15.498C5.09388 13.739 5.59546 12.0249 6.47601 10.5C7.35656 8.97501 8.59034 7.68375 10.0736 6.73472C11.5569 5.7857 13.2464 5.20665 15 5.04625ZM16 27C14.239 26.9993 12.5039 26.5758 10.9406 25.7651C9.37726 24.9544 8.03144 23.7802 7.01626 22.3412L25.9863 11.39C26.7598 13.0659 27.0992 14.9096 26.9732 16.7512C26.8471 18.5927 26.2597 20.3729 25.265 21.9278C24.2702 23.4827 22.9002 24.7623 21.2811 25.6487C19.662 26.5351 17.8459 26.9998 16 27Z" fill="#4A4A4F"/>
</svg>
