<svg width="32" height="32" viewBox="0 0 32 32" fill="none" xmlns="http://www.w3.org/2000/svg">
<path d="M29 26C29 26.2652 28.8946 26.5196 28.7071 26.7071C28.5196 26.8946 28.2652 27 28 27H4C3.73478 27 3.48043 26.8946 3.29289 26.7071C3.10536 26.5196 3 26.2652 3 26V6C3 5.73478 3.10536 5.48043 3.29289 5.29289C3.48043 5.10536 3.73478 5 4 5C4.26522 5 4.51957 5.10536 4.70711 5.29289C4.89464 5.48043 5 5.73478 5 6V19.5863L11.2925 13.2925C11.3854 13.1995 11.4957 13.1258 11.6171 13.0754C11.7385 13.0251 11.8686 12.9992 12 12.9992C12.1314 12.9992 12.2615 13.0251 12.3829 13.0754C12.5043 13.1258 12.6146 13.1995 12.7075 13.2925L16 16.5863L22.5863 10H20C19.7348 10 19.4804 9.89464 19.2929 9.70711C19.1054 9.51957 19 9.26522 19 9C19 8.73478 19.1054 8.48043 19.2929 8.29289C19.4804 8.10536 19.7348 8 20 8H25C25.2652 8 25.5196 8.10536 25.7071 8.29289C25.8946 8.48043 26 8.73478 26 9V14C26 14.2652 25.8946 14.5196 25.7071 14.7071C25.5196 14.8946 25.2652 15 25 15C24.7348 15 24.4804 14.8946 24.2929 14.7071C24.1054 14.5196 24 14.2652 24 14V11.4137L16.7075 18.7075C16.6146 18.8005 16.5043 18.8742 16.3829 18.9246C16.2615 18.9749 16.1314 19.0008 16 19.0008C15.8686 19.0008 15.7385 18.9749 15.6171 18.9246C15.4957 18.8742 15.3854 18.8005 15.2925 18.7075L12 15.4137L5 22.4137V25H28C28.2652 25 28.5196 25.1054 28.7071 25.2929C28.8946 25.4804 29 25.7348 29 26Z" fill="#4A4A4F"/>
</svg>
