<svg width="32" height="32" viewBox="0 0 32 32" fill="none" xmlns="http://www.w3.org/2000/svg">
<path d="M29 26C29 26.2652 28.8946 26.5196 28.7071 26.7071C28.5196 26.8946 28.2652 27 28 27H4C3.73478 27 3.48043 26.8946 3.29289 26.7071C3.10536 26.5196 3 26.2652 3 26V6C3 5.73478 3.10536 5.48043 3.29289 5.29289C3.48043 5.10536 3.73478 5 4 5C4.26522 5 4.51957 5.10536 4.70711 5.29289C4.89464 5.48043 5 5.73478 5 6V7.58625L12 14.5863L15.2925 11.2925C15.3854 11.1995 15.4957 11.1258 15.6171 11.0754C15.7385 11.0251 15.8686 10.9992 16 10.9992C16.1314 10.9992 16.2615 11.0251 16.3829 11.0754C16.5043 11.1258 16.6146 11.1995 16.7075 11.2925L22.5 17.0863L24.2925 15.2925C24.4324 15.1525 24.6106 15.0571 24.8047 15.0185C24.9988 14.9798 25.2 14.9996 25.3828 15.0754C25.5656 15.1511 25.7218 15.2794 25.8317 15.444C25.9416 15.6086 26.0002 15.8021 26 16V21C26 21.2652 25.8946 21.5196 25.7071 21.7071C25.5196 21.8946 25.2652 22 25 22H20C19.8021 22.0002 19.6086 21.9416 19.444 21.8317C19.2794 21.7218 19.1511 21.5656 19.0754 21.3828C18.9996 21.2 18.9798 20.9988 19.0185 20.8047C19.0571 20.6106 19.1525 20.4324 19.2925 20.2925L21.0863 18.5L16 13.4137L12.7075 16.7075C12.6146 16.8005 12.5043 16.8742 12.3829 16.9246C12.2615 16.9749 12.1314 17.0008 12 17.0008C11.8686 17.0008 11.7385 16.9749 11.6171 16.9246C11.4957 16.8742 11.3854 16.8005 11.2925 16.7075L5 10.4137V25H28C28.2652 25 28.5196 25.1054 28.7071 25.2929C28.8946 25.4804 29 25.7348 29 26Z" fill="#4A4A4F"/>
</svg>
