<svg width="32" height="32" viewBox="0 0 32 32" fill="none" xmlns="http://www.w3.org/2000/svg">
<path d="M29 26C29 26.2652 28.8946 26.5196 28.7071 26.7071C28.5196 26.8946 28.2652 27 28 27H4C3.73478 27 3.48043 26.8946 3.29289 26.7071C3.10536 26.5196 3 26.2652 3 26V6C3 5.73478 3.10536 5.48043 3.29289 5.29289C3.48043 5.10536 3.73478 5 4 5C4.26522 5 4.51957 5.10536 4.70711 5.29289C4.89464 5.48043 5 5.73478 5 6V17.7962L11.3413 12.25C11.5138 12.0989 11.733 12.0118 11.9622 12.0031C12.1914 11.9945 12.4166 12.0649 12.6 12.2025L19.9513 17.7162L27.3412 11.25C27.4381 11.1541 27.5536 11.079 27.6806 11.0293C27.8076 10.9797 27.9434 10.9565 28.0796 10.9613C28.2159 10.9661 28.3497 10.9986 28.4729 11.057C28.5961 11.1154 28.7061 11.1983 28.7961 11.3008C28.8861 11.4032 28.9541 11.523 28.9961 11.6527C29.0381 11.7824 29.0532 11.9193 29.0403 12.055C29.0274 12.1908 28.9869 12.3224 28.9213 12.4419C28.8557 12.5615 28.7664 12.6663 28.6588 12.75L20.6588 19.75C20.4862 19.9011 20.267 19.9882 20.0378 19.9969C19.8086 20.0055 19.5835 19.9351 19.4 19.7975L12.0487 14.2863L5 20.4538V25H28C28.2652 25 28.5196 25.1054 28.7071 25.2929C28.8946 25.4804 29 25.7348 29 26Z" fill="#4A4A4F"/>
</svg>
