<svg width="32" height="32" viewBox="0 0 32 32" fill="none" xmlns="http://www.w3.org/2000/svg">
<path d="M16 3C13.4288 3 10.9154 3.76244 8.77759 5.1909C6.63975 6.61935 4.97351 8.64968 3.98957 11.0251C3.00563 13.4006 2.74819 16.0144 3.2498 18.5362C3.75141 21.0579 4.98953 23.3743 6.80762 25.1924C8.6257 27.0105 10.9421 28.2486 13.4638 28.7502C15.9856 29.2518 18.5995 28.9944 20.9749 28.0104C23.3503 27.0265 25.3807 25.3603 26.8091 23.2224C28.2376 21.0846 29 18.5712 29 16C28.9964 12.5533 27.6256 9.24882 25.1884 6.81163C22.7512 4.37445 19.4467 3.00364 16 3ZM26.9538 15H23.935C23.7105 13.2391 22.9077 11.6027 21.6525 10.3475C20.3973 9.0923 18.7609 8.28946 17 8.065V5.04625C19.5599 5.28325 21.9562 6.40808 23.7741 8.22592C25.5919 10.0438 26.7168 12.4401 26.9538 15ZM15 15H10.085C10.2943 13.7726 10.8797 12.6405 11.7601 11.7601C12.6405 10.8797 13.7726 10.2943 15 10.085V15ZM15 17V21.915C13.7726 21.7057 12.6405 21.1203 11.7601 20.2399C10.8797 19.3595 10.2943 18.2274 10.085 17H15ZM17 17H21.915C21.7057 18.2274 21.1204 19.3595 20.2399 20.2399C19.3595 21.1203 18.2274 21.7057 17 21.915V17ZM17 15V10.085C18.2274 10.2943 19.3595 10.8797 20.2399 11.7601C21.1204 12.6405 21.7057 13.7726 21.915 15H17ZM15 5.04625V8.065C13.2392 8.28946 11.6027 9.0923 10.3475 10.3475C9.09231 11.6027 8.28947 13.2391 8.06501 15H5.04626C5.28326 12.4401 6.40809 10.0438 8.22593 8.22592C10.0438 6.40808 12.4401 5.28325 15 5.04625ZM5.04626 17H8.06501C8.28947 18.7609 9.09231 20.3973 10.3475 21.6525C11.6027 22.9077 13.2392 23.7105 15 23.935V26.9538C12.4401 26.7167 10.0438 25.5919 8.22593 23.7741C6.40809 21.9562 5.28326 19.5599 5.04626 17ZM17 26.9538V23.935C18.7609 23.7105 20.3973 22.9077 21.6525 21.6525C22.9077 20.3973 23.7105 18.7609 23.935 17H26.9538C26.7168 19.5599 25.5919 21.9562 23.7741 23.7741C21.9562 25.5919 19.5599 26.7167 17 26.9538Z" fill="#4A4A4F"/>
</svg>
