<svg width="32" height="32" viewBox="0 0 32 32" fill="none" xmlns="http://www.w3.org/2000/svg">
<path d="M30.125 8.7075L27.7075 6.2925C27.5199 6.10486 27.2654 5.99944 27 5.99944C26.7346 5.99944 26.4801 6.10486 26.2925 6.2925C26.1049 6.48014 25.9994 6.73464 25.9994 7C25.9994 7.26536 26.1049 7.51986 26.2925 7.7075L28.7075 10.125C28.8941 10.3118 28.9992 10.5648 29 10.8287V21C29 21.2652 28.8946 21.5196 28.7071 21.7071C28.5196 21.8946 28.2652 22 28 22C27.7348 22 27.4804 21.8946 27.2929 21.7071C27.1054 21.5196 27 21.2652 27 21V16C27 15.2044 26.6839 14.4413 26.1213 13.8787C25.5587 13.3161 24.7956 13 24 13H22V7C22 6.20435 21.6839 5.44129 21.1213 4.87868C20.5587 4.31607 19.7956 4 19 4H9C8.20435 4 7.44129 4.31607 6.87868 4.87868C6.31607 5.44129 6 6.20435 6 7V26H4C3.73478 26 3.48043 26.1054 3.29289 26.2929C3.10536 26.4804 3 26.7348 3 27C3 27.2652 3.10536 27.5196 3.29289 27.7071C3.48043 27.8946 3.73478 28 4 28H24C24.2652 28 24.5196 27.8946 24.7071 27.7071C24.8946 27.5196 25 27.2652 25 27C25 26.7348 24.8946 26.4804 24.7071 26.2929C24.5196 26.1054 24.2652 26 24 26H22V15H24C24.2652 15 24.5196 15.1054 24.7071 15.2929C24.8946 15.4804 25 15.7348 25 16V21C25 21.7956 25.3161 22.5587 25.8787 23.1213C26.4413 23.6839 27.2044 24 28 24C28.7956 24 29.5587 23.6839 30.1213 23.1213C30.6839 22.5587 31 21.7956 31 21V10.8287C31.0015 10.4349 30.9249 10.0447 30.7748 9.68057C30.6246 9.31648 30.4037 8.98575 30.125 8.7075ZM16.9287 16.375L14.9288 21.375C14.8293 21.6213 14.6361 21.818 14.3916 21.9219C14.1471 22.0257 13.8713 22.0282 13.625 21.9287C13.3787 21.8293 13.182 21.6361 13.0781 21.3916C12.9743 21.1471 12.9718 20.8713 13.0712 20.625L14.5225 17H12C11.8361 17.0003 11.6747 16.9603 11.5299 16.8835C11.385 16.8067 11.2613 16.6955 11.1696 16.5597C11.0779 16.4239 11.0209 16.2676 11.0038 16.1046C10.9866 15.9416 11.0098 15.7769 11.0712 15.625L13.0712 10.625C13.1205 10.503 13.1933 10.392 13.2855 10.2981C13.3776 10.2043 13.4874 10.1295 13.6084 10.0781C13.7295 10.0267 13.8595 9.99962 13.991 9.99844C14.1226 9.99726 14.253 10.022 14.375 10.0712C14.497 10.1205 14.608 10.1933 14.7019 10.2855C14.7957 10.3776 14.8705 10.4874 14.9219 10.6084C14.9733 10.7295 15.0004 10.8595 15.0016 10.991C15.0027 11.1226 14.978 11.253 14.9288 11.375L13.4775 15H16C16.1639 14.9997 16.3253 15.0397 16.4701 15.1165C16.615 15.1933 16.7387 15.3045 16.8304 15.4403C16.9221 15.5761 16.9791 15.7324 16.9962 15.8954C17.0134 16.0584 16.9902 16.2231 16.9287 16.375Z" fill="#4A4A4F"/>
</svg>
