<svg width="32" height="32" viewBox="0 0 32 32" fill="none" xmlns="http://www.w3.org/2000/svg">
<path d="M21 14C21 14.2652 20.8946 14.5196 20.7071 14.7071C20.5196 14.8946 20.2652 15 20 15H12C11.7348 15 11.4804 14.8946 11.2929 14.7071C11.1054 14.5196 11 14.2652 11 14C11 13.7348 11.1054 13.4804 11.2929 13.2929C11.4804 13.1054 11.7348 13 12 13H20C20.2652 13 20.5196 13.1054 20.7071 13.2929C20.8946 13.4804 21 13.7348 21 14ZM20 17H12C11.7348 17 11.4804 17.1054 11.2929 17.2929C11.1054 17.4804 11 17.7348 11 18C11 18.2652 11.1054 18.5196 11.2929 18.7071C11.4804 18.8946 11.7348 19 12 19H20C20.2652 19 20.5196 18.8946 20.7071 18.7071C20.8946 18.5196 21 18.2652 21 18C21 17.7348 20.8946 17.4804 20.7071 17.2929C20.5196 17.1054 20.2652 17 20 17ZM29 15.5C28.9964 18.8141 27.6782 21.9914 25.3348 24.3348C22.9914 26.6782 19.8141 27.9964 16.5 28H5.95875C5.43946 27.9993 4.94163 27.7928 4.57444 27.4256C4.20724 27.0584 4.00066 26.5605 4 26.0413V15.5C4 12.1848 5.31696 9.00537 7.66117 6.66116C10.0054 4.31696 13.1848 3 16.5 3C19.8152 3 22.9946 4.31696 25.3388 6.66116C27.683 9.00537 29 12.1848 29 15.5ZM27 15.5C27 12.7152 25.8938 10.0445 23.9246 8.07538C21.9555 6.10625 19.2848 5 16.5 5C13.7152 5 11.0445 6.10625 9.07538 8.07538C7.10625 10.0445 6 12.7152 6 15.5V26H16.5C19.2839 25.997 21.9528 24.8898 23.9213 22.9213C25.8898 20.9528 26.997 18.2839 27 15.5Z" fill="#4A4A4F"/>
</svg>
