<svg width="32" height="32" viewBox="0 0 32 32" fill="none" xmlns="http://www.w3.org/2000/svg">
<path d="M28.9739 23.4163C29.6792 21.9827 30.0307 20.4009 29.9989 18.8035C29.9672 17.2062 29.5532 15.6396 28.7916 14.2351C28.03 12.8306 26.943 11.6291 25.6215 10.7311C24.3 9.83308 22.7827 9.26478 21.1964 9.07378C20.6703 7.84743 19.9041 6.73878 18.943 5.81314C17.9818 4.8875 16.8451 4.1636 15.5998 3.68408C14.3545 3.20456 13.0258 2.97912 11.6921 3.02105C10.3583 3.06298 9.04644 3.37143 7.83374 3.92823C6.62103 4.48503 5.53203 5.27891 4.6309 6.26309C3.72976 7.24728 3.03472 8.40187 2.58672 9.65884C2.13872 10.9158 1.94682 12.2497 2.02234 13.582C2.09785 14.9143 2.43925 16.218 3.02642 17.4163L2.06892 20.7688C1.98347 21.0687 1.97973 21.386 2.05807 21.6879C2.13642 21.9897 2.294 22.2652 2.51452 22.4857C2.73503 22.7062 3.01047 22.8638 3.31233 22.9421C3.61418 23.0205 3.93149 23.0167 4.23142 22.9313L7.58392 21.9738C8.59555 22.4705 9.68374 22.7929 10.8027 22.9275C11.336 24.1771 12.1185 25.305 13.1022 26.2422C14.0859 27.1793 15.2503 27.9062 16.5243 28.3785C17.7983 28.8507 19.1551 29.0584 20.512 28.9888C21.8689 28.9192 23.1974 28.5738 24.4164 27.9738L27.7689 28.9313C28.0688 29.0167 28.3861 29.0205 28.688 28.9421C28.9899 28.8638 29.2653 28.7062 29.4858 28.4857C29.7063 28.2652 29.8639 27.9897 29.9423 27.6879C30.0206 27.386 30.0169 27.0687 29.9314 26.7688L28.9739 23.4163ZM7.69142 19.9038C7.59847 19.9038 7.50596 19.9164 7.41642 19.9413L4.11517 20.885L5.05892 17.5838C5.12964 17.3323 5.09913 17.0631 4.97392 16.8338C4.05443 15.1457 3.77404 13.1828 4.18411 11.3048C4.59419 9.42679 5.66726 7.75944 7.20671 6.60827C8.74616 5.45711 10.6489 4.89923 12.5662 5.03686C14.4835 5.17449 16.287 5.99842 17.6463 7.35766C19.0055 8.7169 19.8295 10.5204 19.9671 12.4377C20.1047 14.3551 19.5468 16.2578 18.3957 17.7972C17.2445 19.3367 15.5772 20.4098 13.6991 20.8198C11.8211 21.2299 9.85825 20.9495 8.17017 20.03C8.02381 19.9482 7.8591 19.9047 7.69142 19.9038ZM26.9414 23.5838L27.8852 26.885L24.5839 25.9413C24.3324 25.8706 24.0632 25.9011 23.8339 26.0263C21.9905 27.0292 19.8271 27.2683 17.8092 26.6923C15.7913 26.1163 14.0801 24.7711 13.0439 22.9463C14.4132 22.8037 15.7383 22.3796 16.936 21.7007C18.1337 21.0218 19.1781 20.1027 20.0038 19.0011C20.8295 17.8994 21.4186 16.6391 21.7342 15.299C22.0498 13.9589 22.085 12.5681 21.8377 11.2138C23.0359 11.4962 24.1529 12.0513 25.1015 12.836C26.0501 13.6206 26.8049 14.6137 27.307 15.7377C27.8091 16.8618 28.045 18.0866 27.9963 19.3167C27.9477 20.5468 27.6157 21.7491 27.0264 22.83C26.9002 23.0604 26.8697 23.3311 26.9414 23.5838Z" fill="#4A4A4F"/>
</svg>
