<svg width="32" height="32" viewBox="0 0 32 32" fill="none" xmlns="http://www.w3.org/2000/svg">
<path d="M16.5 3C13.1859 3.00364 10.0086 4.32177 7.66518 6.66518C5.32177 9.0086 4.00364 12.1859 4 15.5V26.0413C4.00066 26.5605 4.20724 27.0584 4.57444 27.4256C4.94163 27.7928 5.43946 27.9993 5.95875 28H16.5C19.8152 28 22.9946 26.683 25.3388 24.3388C27.683 21.9946 29 18.8152 29 15.5C29 12.1848 27.683 9.00537 25.3388 6.66117C22.9946 4.31696 19.8152 3 16.5 3ZM11 17.5C10.7033 17.5 10.4133 17.412 10.1666 17.2472C9.91997 17.0824 9.72771 16.8481 9.61418 16.574C9.50065 16.2999 9.47094 15.9983 9.52882 15.7074C9.5867 15.4164 9.72956 15.1491 9.93934 14.9393C10.1491 14.7296 10.4164 14.5867 10.7074 14.5288C10.9983 14.4709 11.2999 14.5006 11.574 14.6142C11.8481 14.7277 12.0824 14.92 12.2472 15.1666C12.412 15.4133 12.5 15.7033 12.5 16C12.5 16.3978 12.342 16.7794 12.0607 17.0607C11.7794 17.342 11.3978 17.5 11 17.5ZM16.5 17.5C16.2033 17.5 15.9133 17.412 15.6666 17.2472C15.42 17.0824 15.2277 16.8481 15.1142 16.574C15.0006 16.2999 14.9709 15.9983 15.0288 15.7074C15.0867 15.4164 15.2296 15.1491 15.4393 14.9393C15.6491 14.7296 15.9164 14.5867 16.2074 14.5288C16.4983 14.4709 16.7999 14.5006 17.074 14.6142C17.3481 14.7277 17.5824 14.92 17.7472 15.1666C17.912 15.4133 18 15.7033 18 16C18 16.3978 17.842 16.7794 17.5607 17.0607C17.2794 17.342 16.8978 17.5 16.5 17.5ZM22 17.5C21.7033 17.5 21.4133 17.412 21.1666 17.2472C20.92 17.0824 20.7277 16.8481 20.6142 16.574C20.5007 16.2999 20.4709 15.9983 20.5288 15.7074C20.5867 15.4164 20.7296 15.1491 20.9393 14.9393C21.1491 14.7296 21.4164 14.5867 21.7074 14.5288C21.9983 14.4709 22.2999 14.5006 22.574 14.6142C22.8481 14.7277 23.0824 14.92 23.2472 15.1666C23.412 15.4133 23.5 15.7033 23.5 16C23.5 16.3978 23.342 16.7794 23.0607 17.0607C22.7794 17.342 22.3978 17.5 22 17.5Z" fill="#4A4A4F"/>
</svg>
