<svg width="32" height="32" viewBox="0 0 32 32" fill="none" xmlns="http://www.w3.org/2000/svg">
<path d="M27 6H5.00004C4.4696 6 3.9609 6.21071 3.58582 6.58579C3.21075 6.96086 3.00004 7.46957 3.00004 8V28C2.99773 28.3814 3.10562 28.7553 3.31074 29.0768C3.51585 29.3984 3.80947 29.6538 4.15629 29.8125C4.42057 29.9356 4.7085 29.9995 5.00004 30C5.46954 29.9989 5.92347 29.8315 6.28129 29.5275C6.28725 29.5236 6.29271 29.519 6.29754 29.5138L10.3125 26H27C27.5305 26 28.0392 25.7893 28.4142 25.4142C28.7893 25.0391 29 24.5304 29 24V8C29 7.46957 28.7893 6.96086 28.4142 6.58579C28.0392 6.21071 27.5305 6 27 6ZM10.5 17.5C10.2034 17.5 9.91335 17.412 9.66668 17.2472C9.42001 17.0824 9.22775 16.8481 9.11422 16.574C9.00069 16.2999 8.97098 15.9983 9.02886 15.7074C9.08674 15.4164 9.2296 15.1491 9.43938 14.9393C9.64915 14.7296 9.91643 14.5867 10.2074 14.5288C10.4984 14.4709 10.8 14.5006 11.0741 14.6142C11.3482 14.7277 11.5824 14.92 11.7472 15.1666C11.9121 15.4133 12 15.7033 12 16C12 16.3978 11.842 16.7794 11.5607 17.0607C11.2794 17.342 10.8979 17.5 10.5 17.5ZM16 17.5C15.7034 17.5 15.4134 17.412 15.1667 17.2472C14.92 17.0824 14.7277 16.8481 14.6142 16.574C14.5007 16.2999 14.471 15.9983 14.5289 15.7074C14.5867 15.4164 14.7296 15.1491 14.9394 14.9393C15.1492 14.7296 15.4164 14.5867 15.7074 14.5288C15.9984 14.4709 16.3 14.5006 16.5741 14.6142C16.8481 14.7277 17.0824 14.92 17.2472 15.1666C17.4121 15.4133 17.5 15.7033 17.5 16C17.5 16.3978 17.342 16.7794 17.0607 17.0607C16.7794 17.342 16.3979 17.5 16 17.5ZM21.5 17.5C21.2034 17.5 20.9134 17.412 20.6667 17.2472C20.42 17.0824 20.2277 16.8481 20.1142 16.574C20.0007 16.2999 19.971 15.9983 20.0289 15.7074C20.0867 15.4164 20.2296 15.1491 20.4394 14.9393C20.6492 14.7296 20.9164 14.5867 21.2074 14.5288C21.4984 14.4709 21.8 14.5006 22.0741 14.6142C22.3482 14.7277 22.5824 14.92 22.7472 15.1666C22.9121 15.4133 23 15.7033 23 16C23 16.3978 22.842 16.7794 22.5607 17.0607C22.2794 17.342 21.8979 17.5 21.5 17.5Z" fill="#4A4A4F"/>
</svg>
