<svg width="32" height="32" viewBox="0 0 32 32" fill="none" xmlns="http://www.w3.org/2000/svg">
<path d="M27 6H5.00003C4.4696 6 3.96089 6.21071 3.58582 6.58579C3.21075 6.96086 3.00003 7.46957 3.00003 8V28C2.99778 28.3812 3.10554 28.755 3.31041 29.0765C3.51528 29.398 3.80855 29.6535 4.15504 29.8125C4.41981 29.9354 4.70812 29.9994 5.00003 30C5.46954 29.9989 5.92347 29.8315 6.28128 29.5275C6.28725 29.5236 6.29271 29.519 6.29753 29.5138L10.3125 26H27C27.5305 26 28.0392 25.7893 28.4142 25.4142C28.7893 25.0391 29 24.5304 29 24V8C29 7.46957 28.7893 6.96086 28.4142 6.58579C28.0392 6.21071 27.5305 6 27 6ZM27 24H10.3125C9.84156 23.9998 9.38562 24.1658 9.02503 24.4688L9.01004 24.4825L5.00003 28V8H27V24ZM14.5 16C14.5 15.7033 14.588 15.4133 14.7528 15.1666C14.9177 14.92 15.1519 14.7277 15.426 14.6142C15.7001 14.5006 16.0017 14.4709 16.2927 14.5288C16.5836 14.5867 16.8509 14.7296 17.0607 14.9393C17.2705 15.1491 17.4133 15.4164 17.4712 15.7074C17.5291 15.9983 17.4994 16.2999 17.3859 16.574C17.2723 16.8481 17.0801 17.0824 16.8334 17.2472C16.5867 17.412 16.2967 17.5 16 17.5C15.6022 17.5 15.2207 17.342 14.9394 17.0607C14.6581 16.7794 14.5 16.3978 14.5 16ZM9.00003 16C9.00003 15.7033 9.08801 15.4133 9.25283 15.1666C9.41765 14.92 9.65192 14.7277 9.92601 14.6142C10.2001 14.5006 10.5017 14.4709 10.7927 14.5288C11.0836 14.5867 11.3509 14.7296 11.5607 14.9393C11.7705 15.1491 11.9133 15.4164 11.9712 15.7074C12.0291 15.9983 11.9994 16.2999 11.8859 16.574C11.7723 16.8481 11.5801 17.0824 11.3334 17.2472C11.0867 17.412 10.7967 17.5 10.5 17.5C10.1022 17.5 9.72068 17.342 9.43937 17.0607C9.15807 16.7794 9.00003 16.3978 9.00003 16ZM20 16C20 15.7033 20.088 15.4133 20.2528 15.1666C20.4177 14.92 20.6519 14.7277 20.926 14.6142C21.2001 14.5006 21.5017 14.4709 21.7927 14.5288C22.0836 14.5867 22.3509 14.7296 22.5607 14.9393C22.7705 15.1491 22.9133 15.4164 22.9712 15.7074C23.0291 15.9983 22.9994 16.2999 22.8859 16.574C22.7723 16.8481 22.5801 17.0824 22.3334 17.2472C22.0867 17.412 21.7967 17.5 21.5 17.5C21.1022 17.5 20.7207 17.342 20.4394 17.0607C20.1581 16.7794 20 16.3978 20 16Z" fill="#4A4A4F"/>
</svg>
