<svg width="32" height="32" viewBox="0 0 32 32" fill="none" xmlns="http://www.w3.org/2000/svg">
<path d="M29 8V24C29 24.5304 28.7893 25.0391 28.4142 25.4142C28.0392 25.7893 27.5305 26 27 26H10.3125L6.30253 29.5138C6.29771 29.519 6.29225 29.5236 6.28629 29.5275C5.92716 29.8326 5.47126 30.0001 5.00004 30C4.70663 29.9995 4.4169 29.9346 4.15128 29.81C3.80579 29.6508 3.51348 29.3954 3.30931 29.0744C3.10515 28.7534 2.99777 28.3804 3.00003 28V8C3.00003 7.46957 3.21075 6.96086 3.58582 6.58579C3.96089 6.21071 4.4696 6 5.00004 6H27C27.5305 6 28.0392 6.21071 28.4142 6.58579C28.7893 6.96086 29 7.46957 29 8Z" fill="#4A4A4F"/>
</svg>
