<svg width="32" height="32" viewBox="0 0 32 32" fill="none" xmlns="http://www.w3.org/2000/svg">
<path d="M15.9999 3C13.7555 2.99951 11.5492 3.58011 9.59572 4.68529C7.64227 5.79046 6.00822 7.38256 4.85262 9.30662C3.69703 11.2307 3.05926 13.4212 3.00139 15.6648C2.94353 17.9085 3.46753 20.1289 4.52241 22.11L3.10366 26.3662C2.98614 26.7186 2.96908 27.0968 3.05441 27.4583C3.13973 27.8199 3.32405 28.1505 3.58672 28.4132C3.84939 28.6759 4.18003 28.8602 4.54157 28.9455C4.90311 29.0308 5.28127 29.0138 5.63366 28.8962L9.88991 27.4775C11.6334 28.4048 13.5652 28.9228 15.5387 28.992C17.5122 29.0613 19.4756 28.68 21.2797 27.8772C23.0839 27.0743 24.6815 25.871 25.9512 24.3586C27.2209 22.8462 28.1293 21.0644 28.6076 19.1484C29.0858 17.2325 29.1213 15.2328 28.7113 13.301C28.3013 11.3693 27.4567 9.55642 26.2414 7.9999C25.0262 6.44337 23.4723 5.18415 21.6978 4.31782C19.9232 3.45149 17.9746 3.00081 15.9999 3ZM10.4999 17.5C10.2032 17.5 9.91323 17.412 9.66655 17.2472C9.41988 17.0824 9.22762 16.8481 9.11409 16.574C9.00056 16.2999 8.97085 15.9983 9.02873 15.7074C9.08661 15.4164 9.22947 15.1491 9.43925 14.9393C9.64903 14.7296 9.9163 14.5867 10.2073 14.5288C10.4982 14.4709 10.7998 14.5006 11.0739 14.6142C11.348 14.7277 11.5823 14.92 11.7471 15.1666C11.9119 15.4133 11.9999 15.7033 11.9999 16C11.9999 16.3978 11.8419 16.7794 11.5606 17.0607C11.2793 17.342 10.8977 17.5 10.4999 17.5ZM15.9999 17.5C15.7032 17.5 15.4132 17.412 15.1666 17.2472C14.9199 17.0824 14.7276 16.8481 14.6141 16.574C14.5006 16.2999 14.4709 15.9983 14.5287 15.7074C14.5866 15.4164 14.7295 15.1491 14.9392 14.9393C15.149 14.7296 15.4163 14.5867 15.7073 14.5288C15.9982 14.4709 16.2998 14.5006 16.5739 14.6142C16.848 14.7277 17.0823 14.92 17.2471 15.1666C17.4119 15.4133 17.4999 15.7033 17.4999 16C17.4999 16.3978 17.3419 16.7794 17.0606 17.0607C16.7793 17.342 16.3977 17.5 15.9999 17.5ZM21.4999 17.5C21.2032 17.5 20.9132 17.412 20.6666 17.2472C20.4199 17.0824 20.2276 16.8481 20.1141 16.574C20.0006 16.2999 19.9709 15.9983 20.0287 15.7074C20.0866 15.4164 20.2295 15.1491 20.4392 14.9393C20.649 14.7296 20.9163 14.5867 21.2073 14.5288C21.4982 14.4709 21.7998 14.5006 22.0739 14.6142C22.348 14.7277 22.5823 14.92 22.7471 15.1666C22.9119 15.4133 22.9999 15.7033 22.9999 16C22.9999 16.3978 22.8419 16.7794 22.5606 17.0607C22.2793 17.342 21.8977 17.5 21.4999 17.5Z" fill="#4A4A4F"/>
</svg>
