<svg width="32" height="32" viewBox="0 0 32 32" fill="none" xmlns="http://www.w3.org/2000/svg">
<path d="M21.1963 9.07399C20.2913 6.95519 18.6824 5.21388 16.6416 4.14446C14.6009 3.07504 12.2534 2.74311 9.99616 3.20479C7.73891 3.66647 5.71031 4.89344 4.25334 6.67826C2.79637 8.46308 2.0004 10.6963 2 13.0002V21.2502C2 21.7144 2.18437 22.1595 2.51256 22.4877C2.84075 22.8159 3.28587 23.0002 3.75 23.0002H10.8337C11.6141 24.7823 12.8964 26.2986 14.5241 27.3641C16.1519 28.4296 18.0546 28.9981 20 29.0002H28.25C28.7141 29.0002 29.1592 28.8159 29.4874 28.4877C29.8156 28.1595 30 27.7144 30 27.2502V19.0002C29.9995 16.5556 29.1036 14.1958 27.4814 12.3668C25.8593 10.5378 23.6234 9.36644 21.1963 9.07399ZM4 13.0002C4 11.418 4.46919 9.87127 5.34824 8.55568C6.22729 7.24009 7.47672 6.21471 8.93853 5.60921C10.4003 5.00371 12.0089 4.84528 13.5607 5.15396C15.1126 5.46264 16.538 6.22457 17.6569 7.34339C18.7757 8.46221 19.5376 9.88767 19.8463 11.4395C20.155 12.9914 19.9965 14.5999 19.391 16.0617C18.7855 17.5235 17.7602 18.7729 16.4446 19.652C15.129 20.5311 13.5823 21.0002 12 21.0002H4V13.0002ZM28 27.0002H20C18.5854 26.9986 17.1964 26.6228 15.974 25.9108C14.7516 25.1988 13.7394 24.1761 13.04 22.9465C14.4096 22.8044 15.7351 22.3807 16.9333 21.702C18.1314 21.0233 19.1763 20.1042 20.0024 19.0025C20.8284 17.9009 21.4179 16.6403 21.7337 15.3C22.0495 13.9597 22.0848 12.5686 21.8375 11.214C23.5916 11.628 25.1545 12.6221 26.273 14.0353C27.3915 15.4485 28 17.198 28 19.0002V27.0002Z" fill="#4A4A4F"/>
</svg>
