<svg width="32" height="32" viewBox="0 0 32 32" fill="none" xmlns="http://www.w3.org/2000/svg">
<path d="M15.9999 3C13.7555 2.99951 11.5492 3.58011 9.59572 4.68529C7.64227 5.79046 6.00822 7.38256 4.85262 9.30662C3.69703 11.2307 3.05926 13.4212 3.00139 15.6648C2.94353 17.9085 3.46753 20.1289 4.52241 22.11L3.10366 26.3662C2.98614 26.7186 2.96908 27.0968 3.05441 27.4583C3.13973 27.8199 3.32405 28.1505 3.58672 28.4132C3.84939 28.6759 4.18003 28.8602 4.54157 28.9455C4.90311 29.0308 5.28127 29.0138 5.63366 28.8962L9.88991 27.4775C11.6334 28.4048 13.5652 28.9228 15.5387 28.992C17.5122 29.0613 19.4756 28.68 21.2797 27.8772C23.0839 27.0743 24.6815 25.871 25.9512 24.3586C27.2209 22.8462 28.1293 21.0644 28.6076 19.1484C29.0858 17.2325 29.1213 15.2328 28.7113 13.301C28.3013 11.3693 27.4567 9.55642 26.2414 7.9999C25.0262 6.44337 23.4723 5.18415 21.6978 4.31782C19.9232 3.45149 17.9746 3.00081 15.9999 3ZM19.9999 19H11.9999C11.7347 19 11.4803 18.8946 11.2928 18.7071C11.1053 18.5196 10.9999 18.2652 10.9999 18C10.9999 17.7348 11.1053 17.4804 11.2928 17.2929C11.4803 17.1054 11.7347 17 11.9999 17H19.9999C20.2651 17 20.5195 17.1054 20.707 17.2929C20.8946 17.4804 20.9999 17.7348 20.9999 18C20.9999 18.2652 20.8946 18.5196 20.707 18.7071C20.5195 18.8946 20.2651 19 19.9999 19ZM19.9999 15H11.9999C11.7347 15 11.4803 14.8946 11.2928 14.7071C11.1053 14.5196 10.9999 14.2652 10.9999 14C10.9999 13.7348 11.1053 13.4804 11.2928 13.2929C11.4803 13.1054 11.7347 13 11.9999 13H19.9999C20.2651 13 20.5195 13.1054 20.707 13.2929C20.8946 13.4804 20.9999 13.7348 20.9999 14C20.9999 14.2652 20.8946 14.5196 20.707 14.7071C20.5195 14.8946 20.2651 15 19.9999 15Z" fill="#4A4A4F"/>
</svg>
