<svg width="32" height="32" viewBox="0 0 32 32" fill="none" xmlns="http://www.w3.org/2000/svg">
<path d="M27 5H5C4.46957 5 3.96086 5.21071 3.58579 5.58579C3.21071 5.96086 3 6.46957 3 7V23C3 23.5304 3.21071 24.0391 3.58579 24.4142C3.96086 24.7893 4.46957 25 5 25L12.4375 25.0075L14.285 28.0287C14.4623 28.3244 14.713 28.5693 15.0127 28.7396C15.3125 28.9098 15.6512 28.9997 15.996 29.0004C16.3408 29.0012 16.6799 28.9128 16.9804 28.7439C17.2809 28.5749 17.5327 28.3312 17.7113 28.0362L19.5662 25H27C27.5304 25 28.0391 24.7893 28.4142 24.4142C28.7893 24.0391 29 23.5304 29 23V7C29 6.46957 28.7893 5.96086 28.4142 5.58579C28.0391 5.21071 27.5304 5 27 5ZM10.5 16.5C10.2033 16.5 9.91332 16.412 9.66665 16.2472C9.41997 16.0824 9.22771 15.8481 9.11418 15.574C9.00065 15.2999 8.97094 14.9983 9.02882 14.7074C9.0867 14.4164 9.22956 14.1491 9.43934 13.9393C9.64912 13.7296 9.91639 13.5867 10.2074 13.5288C10.4983 13.4709 10.7999 13.5006 11.074 13.6142C11.3481 13.7277 11.5824 13.92 11.7472 14.1666C11.912 14.4133 12 14.7033 12 15C12 15.3978 11.842 15.7794 11.5607 16.0607C11.2794 16.342 10.8978 16.5 10.5 16.5ZM16 16.5C15.7033 16.5 15.4133 16.412 15.1666 16.2472C14.92 16.0824 14.7277 15.8481 14.6142 15.574C14.5006 15.2999 14.4709 14.9983 14.5288 14.7074C14.5867 14.4164 14.7296 14.1491 14.9393 13.9393C15.1491 13.7296 15.4164 13.5867 15.7074 13.5288C15.9983 13.4709 16.2999 13.5006 16.574 13.6142C16.8481 13.7277 17.0824 13.92 17.2472 14.1666C17.412 14.4133 17.5 14.7033 17.5 15C17.5 15.3978 17.342 15.7794 17.0607 16.0607C16.7794 16.342 16.3978 16.5 16 16.5ZM21.5 16.5C21.2033 16.5 20.9133 16.412 20.6666 16.2472C20.42 16.0824 20.2277 15.8481 20.1142 15.574C20.0007 15.2999 19.9709 14.9983 20.0288 14.7074C20.0867 14.4164 20.2296 14.1491 20.4393 13.9393C20.6491 13.7296 20.9164 13.5867 21.2074 13.5288C21.4983 13.4709 21.7999 13.5006 22.074 13.6142C22.3481 13.7277 22.5824 13.92 22.7472 14.1666C22.912 14.4133 23 14.7033 23 15C23 15.3978 22.842 15.7794 22.5607 16.0607C22.2794 16.342 21.8978 16.5 21.5 16.5Z" fill="#4A4A4F"/>
</svg>
