<svg width="32" height="32" viewBox="0 0 32 32" fill="none" xmlns="http://www.w3.org/2000/svg">
<path d="M15.7076 20.7075L8.70757 27.7075C8.6147 27.8005 8.50441 27.8742 8.38301 27.9246C8.26161 27.9749 8.13148 28.0008 8.00007 28.0008C7.86865 28.0008 7.73853 27.9749 7.61713 27.9246C7.49573 27.8742 7.38544 27.8005 7.29257 27.7075L4.29257 24.7075C4.19966 24.6146 4.12596 24.5043 4.07567 24.3829C4.02539 24.2615 3.99951 24.1314 3.99951 24C3.99951 23.8686 4.02539 23.7385 4.07567 23.6171C4.12596 23.4957 4.19966 23.3854 4.29257 23.2925C4.38548 23.1996 4.49578 23.1259 4.61717 23.0756C4.73856 23.0253 4.86867 22.9994 5.00007 22.9994C5.13146 22.9994 5.26157 23.0253 5.38296 23.0756C5.50436 23.1259 5.61466 23.1996 5.70757 23.2925L8.00007 25.5863L14.2926 19.2925C14.4802 19.1049 14.7347 18.9994 15.0001 18.9994C15.2654 18.9994 15.5199 19.1049 15.7076 19.2925C15.8952 19.4801 16.0006 19.7346 16.0006 20C16.0006 20.2654 15.8952 20.5199 15.7076 20.7075ZM26.0001 4H6.00007C5.46963 4 4.96093 4.21071 4.58585 4.58579C4.21078 4.96086 4.00007 5.46957 4.00007 6V19.5287C3.9997 19.599 4.01412 19.6685 4.04239 19.7327C4.07066 19.797 4.11214 19.8546 4.16414 19.9017C4.21614 19.9489 4.2775 19.9846 4.3442 20.0065C4.41091 20.0284 4.48148 20.0359 4.55132 20.0287C5.14855 19.9611 5.75335 20.0289 6.32077 20.2271C6.88819 20.4254 7.40364 20.7489 7.82882 21.1737C7.85124 21.1964 7.87792 21.2143 7.90731 21.2265C7.9367 21.2388 7.96823 21.2451 8.00007 21.2451C8.03191 21.2451 8.06343 21.2388 8.09282 21.2265C8.12221 21.2143 8.14889 21.1964 8.17132 21.1737L12.1713 17.1737C12.9215 16.4235 13.9391 16.002 15.0001 16.002C16.0611 16.002 17.0786 16.4235 17.8288 17.1737C18.579 17.924 19.0005 18.9415 19.0005 20.0025C19.0005 21.0635 18.579 22.081 17.8288 22.8312L13.5101 27.1488C13.4401 27.2187 13.3924 27.3078 13.3731 27.4048C13.3537 27.5019 13.3636 27.6025 13.4015 27.6939C13.4394 27.7853 13.5035 27.8634 13.5858 27.9184C13.6681 27.9733 13.7649 28.0026 13.8638 28.0025H26.0001C26.5305 28.0025 27.0392 27.7918 27.4143 27.4167C27.7894 27.0416 28.0001 26.5329 28.0001 26.0025V6C28.0001 5.46957 27.7894 4.96086 27.4143 4.58579C27.0392 4.21071 26.5305 4 26.0001 4Z" fill="#4A4A4F"/>
</svg>
