<svg width="32" height="32" viewBox="0 0 32 32" fill="none" xmlns="http://www.w3.org/2000/svg">
<path d="M18.7012 10.7136L7.50115 21.7136C7.31412 21.8976 7.06226 22.0007 6.79991 22.0007C6.53755 22.0007 6.2857 21.8976 6.09866 21.7136L1.29866 16.9999C1.20501 16.9078 1.13041 16.7981 1.07913 16.6772C1.02785 16.5563 1.00089 16.4265 0.999791 16.2951C0.998688 16.1638 1.02347 16.0335 1.07271 15.9118C1.12195 15.79 1.19469 15.6791 1.28678 15.5855C1.37887 15.4918 1.4885 15.4172 1.60942 15.366C1.73034 15.3147 1.86017 15.2877 1.99151 15.2866C2.12285 15.2855 2.25311 15.3103 2.37487 15.3595C2.49664 15.4088 2.60751 15.4815 2.70116 15.5736L6.79991 19.5986L17.2999 9.28612C17.4892 9.10013 17.7446 8.99697 18.01 8.99931C18.1414 9.00047 18.2713 9.0275 18.3922 9.07885C18.5132 9.13021 18.6228 9.20488 18.7149 9.29862C18.807 9.39235 18.8797 9.5033 18.9289 9.62514C18.9781 9.74697 19.0029 9.87731 19.0017 10.0087C19.0005 10.1401 18.9735 10.27 18.9222 10.3909C18.8708 10.5119 18.7961 10.6215 18.7024 10.7136H18.7012ZM30.7137 9.29862C30.6216 9.20481 30.512 9.13008 30.391 9.07868C30.2701 9.02728 30.1402 9.00022 30.0087 8.99906C29.8773 8.9979 29.747 9.02266 29.6251 9.07191C29.5033 9.12117 29.3923 9.19395 29.2987 9.28612L18.7987 19.5986L16.4449 17.2861C16.2556 17.1003 16.0002 16.9973 15.735 16.9998C15.4698 17.0022 15.2163 17.1099 15.0305 17.2992C14.8447 17.4885 14.7417 17.7439 14.7442 18.0091C14.7466 18.2744 14.8544 18.5278 15.0437 18.7136L18.0974 21.7136C18.2844 21.8976 18.5363 22.0007 18.7987 22.0007C19.061 22.0007 19.3129 21.8976 19.4999 21.7136L30.6999 10.7136C30.7938 10.6216 30.8686 10.5121 30.9201 10.3912C30.9716 10.2703 30.9988 10.1404 31.0001 10.009C31.0014 9.87755 30.9767 9.74717 30.9276 9.62528C30.8784 9.50339 30.8057 9.39239 30.7137 9.29862Z" fill="#4A4A4F"/>
</svg>
