<svg width="32" height="32" viewBox="0 0 32 32" fill="none" xmlns="http://www.w3.org/2000/svg">
<path d="M30.4099 8.52978L27.4099 5.58478C27.0351 5.21152 26.5277 5.00195 25.9987 5.00195C25.4697 5.00195 24.9623 5.21152 24.5874 5.58478L12.9999 16.9998L12.9862 16.986L8.40619 12.5773C8.03043 12.2054 7.5227 11.9974 6.99402 11.9988C6.46534 12.0002 5.95873 12.2109 5.58494 12.5848L2.58494 15.5848C2.21054 15.9598 2.00024 16.468 2.00024 16.9979C2.00024 17.5278 2.21054 18.036 2.58494 18.411L11.5374 27.411C11.7232 27.5968 11.9437 27.7442 12.1863 27.8447C12.429 27.9452 12.6891 27.997 12.9518 27.997C13.2145 27.997 13.4746 27.9452 13.7173 27.8447C13.96 27.7442 14.1805 27.5968 14.3662 27.411L30.4162 11.3635C30.6023 11.1773 30.7498 10.9562 30.8503 10.7128C30.9507 10.4694 31.0021 10.2086 31.0015 9.94536C31.0009 9.68208 30.9484 9.42151 30.8469 9.17859C30.7453 8.93567 30.5969 8.71518 30.4099 8.52978ZM12.9524 25.9998L3.99994 16.9998L6.99994 13.9998L7.01369 14.0135L11.5937 18.4223C11.9682 18.7933 12.474 19.0014 13.0012 19.0014C13.5283 19.0014 14.0342 18.7933 14.4087 18.4223L26.0074 6.99978L28.9999 9.94978L12.9524 25.9998Z" fill="#4A4A4F"/>
</svg>
