<svg width="32" height="32" viewBox="0 0 32 32" fill="none" xmlns="http://www.w3.org/2000/svg">
<path d="M30.4162 11.3639L14.365 27.4139C14.1792 27.5996 13.9587 27.747 13.7161 27.8475C13.4734 27.9481 13.2133 27.9998 12.9506 27.9998C12.6879 27.9998 12.4278 27.9481 12.1851 27.8475C11.9424 27.747 11.7219 27.5996 11.5362 27.4139L2.58372 18.4139C2.20931 18.0389 1.99902 17.5306 1.99902 17.0007C1.99902 16.4708 2.20931 15.9626 2.58372 15.5876L5.58372 12.5876C5.95751 12.2137 6.46412 12.0031 6.9928 12.0017C7.52148 12.0002 8.0292 12.2082 8.40497 12.5801L12.985 16.9889L12.9987 17.0026L24.59 5.58136C24.9648 5.2081 25.4722 4.99854 26.0012 4.99854C26.5302 4.99854 27.0376 5.2081 27.4125 5.58136L30.4125 8.52636C30.5998 8.712 30.7486 8.93285 30.8502 9.1762C30.9518 9.41956 31.0043 9.68061 31.0047 9.94433C31.005 10.2081 30.9532 10.4692 30.8522 10.7129C30.7512 10.9565 30.6031 11.1777 30.4162 11.3639Z" fill="#4A4A4F"/>
</svg>
