<svg width="32" height="32" viewBox="0 0 32 32" fill="none" xmlns="http://www.w3.org/2000/svg">
<path d="M28.0001 6V26C28.0001 26.5304 27.7894 27.0391 27.4143 27.4142C27.0392 27.7893 26.5305 28 26.0001 28H17.0001C16.7349 28 16.4805 27.8946 16.293 27.7071C16.1054 27.5196 16.0001 27.2652 16.0001 27C16.0001 26.7348 16.1054 26.4804 16.293 26.2929C16.4805 26.1054 16.7349 26 17.0001 26H26.0001V6H6.00007V18C6.00007 18.2652 5.89471 18.5196 5.70717 18.7071C5.51964 18.8946 5.26528 19 5.00007 19C4.73485 19 4.4805 18.8946 4.29296 18.7071C4.10542 18.5196 4.00007 18.2652 4.00007 18V6C4.00007 5.46957 4.21078 4.96086 4.58585 4.58579C4.96093 4.21071 5.46963 4 6.00007 4H26.0001C26.5305 4 27.0392 4.21071 27.4143 4.58579C27.7894 4.96086 28.0001 5.46957 28.0001 6ZM15.7076 19.2925C15.6147 19.1995 15.5044 19.1258 15.383 19.0754C15.2616 19.0251 15.1315 18.9992 15.0001 18.9992C14.8687 18.9992 14.7385 19.0251 14.6171 19.0754C14.4957 19.1258 14.3854 19.1995 14.2926 19.2925L8.00007 25.5863L5.70757 23.2925C5.61466 23.1996 5.50436 23.1259 5.38296 23.0756C5.26157 23.0253 5.13146 22.9994 5.00007 22.9994C4.86867 22.9994 4.73856 23.0253 4.61717 23.0756C4.49578 23.1259 4.38548 23.1996 4.29257 23.2925C4.19966 23.3854 4.12596 23.4957 4.07567 23.6171C4.02539 23.7385 3.99951 23.8686 3.99951 24C3.99951 24.1314 4.02539 24.2615 4.07567 24.3829C4.12596 24.5043 4.19966 24.6146 4.29257 24.7075L7.29257 27.7075C7.38544 27.8005 7.49573 27.8742 7.61713 27.9246C7.73853 27.9749 7.86865 28.0008 8.00007 28.0008C8.13148 28.0008 8.26161 27.9749 8.38301 27.9246C8.50441 27.8742 8.6147 27.8005 8.70757 27.7075L15.7076 20.7075C15.8005 20.6146 15.8743 20.5043 15.9246 20.3829C15.975 20.2615 16.0009 20.1314 16.0009 20C16.0009 19.8686 15.975 19.7385 15.9246 19.6171C15.8743 19.4957 15.8005 19.3854 15.7076 19.2925Z" fill="#4A4A4F"/>
</svg>
