<svg width="32" height="32" viewBox="0 0 32 32" fill="none" xmlns="http://www.w3.org/2000/svg">
<path d="M27 5H5C4.46957 5 3.96086 5.21071 3.58579 5.58579C3.21071 5.96086 3 6.46957 3 7V25C3 25.5304 3.21071 26.0391 3.58579 26.4142C3.96086 26.7893 4.46957 27 5 27H27C27.5304 27 28.0391 26.7893 28.4142 26.4142C28.7893 26.0391 29 25.5304 29 25V7C29 6.46957 28.7893 5.96086 28.4142 5.58579C28.0391 5.21071 27.5304 5 27 5ZM25.7075 10.7075L13.7075 22.7075C13.6146 22.8005 13.5043 22.8742 13.3829 22.9246C13.2615 22.9749 13.1314 23.0008 13 23.0008C12.8686 23.0008 12.7385 22.9749 12.6171 22.9246C12.4957 22.8742 12.3854 22.8005 12.2925 22.7075L7.2925 17.7075C7.10486 17.5199 6.99944 17.2654 6.99944 17C6.99944 16.7346 7.10486 16.4801 7.2925 16.2925C7.48014 16.1049 7.73464 15.9994 8 15.9994C8.26536 15.9994 8.51986 16.1049 8.7075 16.2925L13 20.5863L24.2925 9.2925C24.4801 9.10486 24.7346 8.99944 25 8.99944C25.2654 8.99944 25.5199 9.10486 25.7075 9.2925C25.8951 9.48014 26.0006 9.73464 26.0006 10C26.0006 10.2654 25.8951 10.5199 25.7075 10.7075Z" fill="#4A4A4F"/>
</svg>
