<svg width="32" height="32" viewBox="0 0 32 32" fill="none" xmlns="http://www.w3.org/2000/svg">
<path d="M28 6H4C3.46957 6 2.96086 6.21071 2.58579 6.58579C2.21071 6.96086 2 7.46957 2 8V24C2 24.5304 2.21071 25.0391 2.58579 25.4142C2.96086 25.7893 3.46957 26 4 26H28C28.5304 26 29.0391 25.7893 29.4142 25.4142C29.7893 25.0391 30 24.5304 30 24V8C30 7.46957 29.7893 6.96086 29.4142 6.58579C29.0391 6.21071 28.5304 6 28 6ZM10 20C9.86864 20.0001 9.73855 19.9743 9.61715 19.9241C9.49576 19.8739 9.38544 19.8003 9.2925 19.7075L6.2925 16.7075C6.10486 16.5199 5.99944 16.2654 5.99944 16C5.99944 15.7346 6.10486 15.4801 6.2925 15.2925C6.48014 15.1049 6.73464 14.9994 7 14.9994C7.26536 14.9994 7.51986 15.1049 7.7075 15.2925L10 17.5863L16.2925 11.2925C16.3854 11.1996 16.4957 11.1259 16.6171 11.0756C16.7385 11.0253 16.8686 10.9994 17 10.9994C17.1314 10.9994 17.2615 11.0253 17.3829 11.0756C17.5043 11.1259 17.6146 11.1996 17.7075 11.2925C17.8004 11.3854 17.8741 11.4957 17.9244 11.6171C17.9747 11.7385 18.0006 11.8686 18.0006 12C18.0006 12.1314 17.9747 12.2615 17.9244 12.3829C17.8741 12.5043 17.8004 12.6146 17.7075 12.7075L10.7075 19.7075C10.6146 19.8003 10.5042 19.8739 10.3828 19.9241C10.2615 19.9743 10.1314 20.0001 10 20ZM26.7075 12.7075L19.7075 19.7075C19.6146 19.8005 19.5043 19.8742 19.3829 19.9246C19.2615 19.9749 19.1314 20.0008 19 20.0008C18.8686 20.0008 18.7385 19.9749 18.6171 19.9246C18.4957 19.8742 18.3854 19.8005 18.2925 19.7075L16.2925 17.7075C16.1049 17.5199 15.9994 17.2654 15.9994 17C15.9994 16.7346 16.1049 16.4801 16.2925 16.2925C16.4801 16.1049 16.7346 15.9994 17 15.9994C17.2654 15.9994 17.5199 16.1049 17.7075 16.2925L19 17.5863L25.2925 11.2925C25.3854 11.1996 25.4957 11.1259 25.6171 11.0756C25.7385 11.0253 25.8686 10.9994 26 10.9994C26.1314 10.9994 26.2615 11.0253 26.3829 11.0756C26.5043 11.1259 26.6146 11.1996 26.7075 11.2925C26.8004 11.3854 26.8741 11.4957 26.9244 11.6171C26.9747 11.7385 27.0006 11.8686 27.0006 12C27.0006 12.1314 26.9747 12.2615 26.9244 12.3829C26.8741 12.5043 26.8004 12.6146 26.7075 12.7075Z" fill="#4A4A4F"/>
</svg>
