<svg width="32" height="32" viewBox="0 0 32 32" fill="none" xmlns="http://www.w3.org/2000/svg">
<path d="M21.7075 12.2925C21.8005 12.3854 21.8742 12.4957 21.9246 12.6171C21.9749 12.7385 22.0008 12.8686 22.0008 13C22.0008 13.1314 21.9749 13.2615 21.9246 13.3829C21.8742 13.5043 21.8005 13.6146 21.7075 13.7075L14.7075 20.7075C14.6146 20.8005 14.5043 20.8742 14.3829 20.9246C14.2615 20.9749 14.1314 21.0008 14 21.0008C13.8686 21.0008 13.7385 20.9749 13.6171 20.9246C13.4957 20.8742 13.3854 20.8005 13.2925 20.7075L10.2925 17.7075C10.1049 17.5199 9.99944 17.2654 9.99944 17C9.99944 16.7346 10.1049 16.4801 10.2925 16.2925C10.4801 16.1049 10.7346 15.9994 11 15.9994C11.2654 15.9994 11.5199 16.1049 11.7075 16.2925L14 18.5863L20.2925 12.2925C20.3854 12.1995 20.4957 12.1258 20.6171 12.0754C20.7385 12.0251 20.8686 11.9992 21 11.9992C21.1314 11.9992 21.2615 12.0251 21.3829 12.0754C21.5043 12.1258 21.6146 12.1995 21.7075 12.2925ZM28 6V26C28 26.5304 27.7893 27.0391 27.4142 27.4142C27.0391 27.7893 26.5304 28 26 28H6C5.46957 28 4.96086 27.7893 4.58579 27.4142C4.21071 27.0391 4 26.5304 4 26V6C4 5.46957 4.21071 4.96086 4.58579 4.58579C4.96086 4.21071 5.46957 4 6 4H26C26.5304 4 27.0391 4.21071 27.4142 4.58579C27.7893 4.96086 28 5.46957 28 6ZM26 26V6H6V26H26Z" fill="#4A4A4F"/>
</svg>
