<svg width="32" height="32" viewBox="0 0 32 32" fill="none" xmlns="http://www.w3.org/2000/svg">
<path d="M28.515 18.1425L24 15.4338V13C24.0016 12.8229 23.9561 12.6486 23.8683 12.4949C23.7804 12.3412 23.6533 12.2135 23.5 12.125L17 8.42V6H19C19.2652 6 19.5196 5.89464 19.7071 5.70711C19.8946 5.51957 20 5.26522 20 5C20 4.73478 19.8946 4.48043 19.7071 4.29289C19.5196 4.10536 19.2652 4 19 4H17V2C17 1.73478 16.8946 1.48043 16.7071 1.29289C16.5196 1.10536 16.2652 1 16 1C15.7348 1 15.4804 1.10536 15.2929 1.29289C15.1054 1.48043 15 1.73478 15 2V4H13C12.7348 4 12.4804 4.10536 12.2929 4.29289C12.1054 4.48043 12 4.73478 12 5C12 5.26522 12.1054 5.51957 12.2929 5.70711C12.4804 5.89464 12.7348 6 13 6H15V8.42L8.5 12.1313C8.34666 12.2198 8.21956 12.3474 8.13172 12.5012C8.04387 12.6549 7.99841 12.8292 8 13.0063V15.44L3.485 18.1425C3.33702 18.2314 3.21457 18.3571 3.12958 18.5074C3.04459 18.6576 2.99995 18.8274 3 19V27C3 27.2652 3.10536 27.5196 3.29289 27.7071C3.48043 27.8946 3.73478 28 4 28H13C13.2652 28 13.5196 27.8946 13.7071 27.7071C13.8946 27.5196 14 27.2652 14 27V21C14 20.4696 14.2107 19.9609 14.5858 19.5858C14.9609 19.2107 15.4696 19 16 19C16.5304 19 17.0391 19.2107 17.4142 19.5858C17.7893 19.9609 18 20.4696 18 21V27C18 27.2652 18.1054 27.5196 18.2929 27.7071C18.4804 27.8946 18.7348 28 19 28H28C28.2652 28 28.5196 27.8946 28.7071 27.7071C28.8946 27.5196 29 27.2652 29 27V19C29.0001 18.8274 28.9554 18.6576 28.8704 18.5074C28.7854 18.3571 28.663 18.2314 28.515 18.1425ZM8 26H5V19.5662L8 17.7663V26ZM27 26H24V17.7663L27 19.5662V26Z" fill="#4A4A4F"/>
</svg>
