<svg width="32" height="32" viewBox="0 0 32 32" fill="none" xmlns="http://www.w3.org/2000/svg">
<path d="M16 15C14.9122 15 13.8488 14.6774 12.9444 14.0731C12.0399 13.4687 11.3349 12.6098 10.9187 11.6048C10.5024 10.5998 10.3935 9.4939 10.6057 8.42701C10.8179 7.36011 11.3417 6.3801 12.1109 5.61092C12.8801 4.84173 13.8601 4.3179 14.927 4.10568C15.9939 3.89346 17.0998 4.00238 18.1048 4.41867C19.1098 4.83495 19.9687 5.5399 20.5731 6.44437C21.1774 7.34884 21.5 8.41221 21.5 9.5C21.4983 10.9582 20.9184 12.3562 19.8873 13.3873C18.8562 14.4184 17.4582 14.9983 16 15ZM23.5 16C22.4122 16 21.3488 16.3226 20.4444 16.9269C19.5399 17.5313 18.8349 18.3903 18.4187 19.3952C18.0024 20.4002 17.8935 21.5061 18.1057 22.573C18.3179 23.6399 18.8417 24.6199 19.6109 25.3891C20.3801 26.1583 21.3601 26.6821 22.427 26.8943C23.4939 27.1065 24.5998 26.9976 25.6048 26.5813C26.6098 26.1651 27.4687 25.4601 28.0731 24.5556C28.6774 23.6512 29 22.5878 29 21.5C28.9983 20.0418 28.4184 18.6438 27.3873 17.6127C26.3562 16.5817 24.9582 16.0017 23.5 16ZM8.5 16C7.41221 16 6.34884 16.3226 5.44437 16.9269C4.5399 17.5313 3.83495 18.3903 3.41867 19.3952C3.00238 20.4002 2.89346 21.5061 3.10568 22.573C3.3179 23.6399 3.84173 24.6199 4.61092 25.3891C5.3801 26.1583 6.36011 26.6821 7.42701 26.8943C8.4939 27.1065 9.59977 26.9976 10.6048 26.5813C11.6098 26.1651 12.4687 25.4601 13.0731 24.5556C13.6774 23.6512 14 22.5878 14 21.5C13.9983 20.0418 13.4184 18.6438 12.3873 17.6127C11.3562 16.5817 9.95819 16.0017 8.5 16Z" fill="#4A4A4F"/>
</svg>
