<svg width="32" height="32" viewBox="0 0 32 32" fill="none" xmlns="http://www.w3.org/2000/svg">
<path d="M16 3C13.4288 3 10.9154 3.76244 8.77759 5.1909C6.63975 6.61935 4.97351 8.64968 3.98957 11.0251C3.00563 13.4006 2.74819 16.0144 3.2498 18.5362C3.75141 21.0579 4.98953 23.3743 6.80762 25.1924C8.6257 27.0105 10.9421 28.2486 13.4638 28.7502C15.9856 29.2518 18.5995 28.9944 20.9749 28.0104C23.3503 27.0265 25.3807 25.3603 26.8091 23.2224C28.2376 21.0846 29 18.5712 29 16C28.9964 12.5533 27.6256 9.24882 25.1884 6.81163C22.7512 4.37445 19.4467 3.00364 16 3ZM16 25C14.0186 25.0003 12.0924 24.3467 10.5203 23.1406C8.94823 21.9344 7.81813 20.2432 7.30531 18.3293C6.79249 16.4153 6.92563 14.3856 7.68407 12.5551C8.44251 10.7245 9.78385 9.19543 11.5 8.205C11.7291 8.08062 11.9976 8.05058 12.2485 8.12131C12.4994 8.19203 12.7128 8.35791 12.8431 8.58362C12.9735 8.80933 13.0106 9.07703 12.9465 9.32968C12.8824 9.58233 12.7222 9.79998 12.5 9.93625C11.1655 10.7067 10.1225 11.896 9.53285 13.3196C8.94316 14.7433 8.8397 16.3217 9.23853 17.8102C9.63735 19.2986 10.5162 20.6138 11.7387 21.5519C12.9612 22.49 14.4591 22.9984 16 22.9984C17.5409 22.9984 19.0388 22.49 20.2613 21.5519C21.4838 20.6138 22.3627 19.2986 22.7615 17.8102C23.1603 16.3217 23.0569 14.7433 22.4672 13.3196C21.8775 11.896 20.8345 10.7067 19.5 9.93625C19.2778 9.79998 19.1176 9.58233 19.0535 9.32968C18.9894 9.07703 19.0265 8.80933 19.1569 8.58362C19.2873 8.35791 19.5006 8.19203 19.7515 8.12131C20.0024 8.05058 20.2709 8.08062 20.5 8.205C22.2162 9.19543 23.5575 10.7245 24.3159 12.5551C25.0744 14.3856 25.2075 16.4153 24.6947 18.3293C24.1819 20.2432 23.0518 21.9344 21.4797 23.1406C19.9076 24.3467 17.9815 25.0003 16 25Z" fill="#4A4A4F"/>
</svg>
