<svg width="32" height="32" viewBox="0 0 32 32" fill="none" xmlns="http://www.w3.org/2000/svg">
<path d="M16 3C13.4288 3 10.9154 3.76244 8.77759 5.1909C6.63975 6.61935 4.97351 8.64968 3.98957 11.0251C3.00563 13.4006 2.74819 16.0144 3.2498 18.5362C3.75141 21.0579 4.98953 23.3743 6.80762 25.1924C8.6257 27.0105 10.9421 28.2486 13.4638 28.7502C15.9856 29.2518 18.5995 28.9944 20.9749 28.0104C23.3503 27.0265 25.3807 25.3603 26.8091 23.2224C28.2376 21.0846 29 18.5712 29 16C28.9964 12.5533 27.6256 9.24882 25.1884 6.81163C22.7512 4.37445 19.4467 3.00364 16 3ZM22.8238 8.625C23.0225 8.44951 23.2829 8.36014 23.5475 8.37654C23.8121 8.39295 24.0594 8.5138 24.235 8.7125C25.2173 9.82102 25.9656 11.1165 26.435 12.5212C26.5192 12.7729 26.5 13.0476 26.3816 13.2851C26.2632 13.5226 26.0554 13.7033 25.8038 13.7875C25.5521 13.8717 25.2774 13.8525 25.0399 13.7341C24.8024 13.6157 24.6217 13.4079 24.5375 13.1562C24.1549 12.0036 23.5426 10.9405 22.7375 10.0312C22.5634 9.8329 22.4748 9.57378 22.4909 9.31036C22.5071 9.04694 22.6267 8.80058 22.8238 8.625ZM9.17626 23.3813C8.97749 23.5567 8.71716 23.6461 8.45251 23.6297C8.18787 23.6133 7.94057 23.4925 7.76501 23.2938C6.78273 22.1852 6.03444 20.8897 5.56501 19.485C5.4808 19.2334 5.5 18.9586 5.61838 18.7211C5.73676 18.4837 5.94463 18.303 6.19626 18.2188C6.44788 18.1345 6.72265 18.1537 6.96012 18.2721C7.19758 18.3905 7.3783 18.5984 7.46251 18.85C7.84588 20.0004 8.45817 21.0613 9.26251 21.9688C9.34967 22.0671 9.41658 22.1817 9.45943 22.306C9.50227 22.4302 9.5202 22.5617 9.51219 22.6929C9.50418 22.8241 9.47038 22.9524 9.41274 23.0705C9.3551 23.1886 9.27474 23.2942 9.17626 23.3813ZM9.26251 10.0312C8.45745 10.9405 7.84511 12.0036 7.46251 13.1562C7.42081 13.2808 7.35498 13.396 7.26878 13.4952C7.18258 13.5943 7.0777 13.6755 6.96012 13.7341C6.84253 13.7927 6.71456 13.8276 6.58349 13.8368C6.45243 13.8459 6.32085 13.8292 6.19626 13.7875C6.07166 13.7458 5.95651 13.68 5.85735 13.5938C5.7582 13.5076 5.677 13.4027 5.61838 13.2851C5.55977 13.1675 5.52488 13.0396 5.51572 12.9085C5.50656 12.7774 5.52331 12.6458 5.56501 12.5212C6.03444 11.1165 6.78273 9.82102 7.76501 8.7125C7.94071 8.51359 8.18824 8.39262 8.45313 8.37621C8.71803 8.3598 8.97859 8.44929 9.17751 8.625C9.37642 8.80071 9.49738 9.04823 9.51379 9.31313C9.5302 9.57802 9.44071 9.83859 9.26501 10.0375L9.26251 10.0312ZM18.1988 26.7812C16.7479 27.0779 15.2521 27.0779 13.8013 26.7812C13.5435 26.7263 13.3179 26.5719 13.1735 26.3515C13.029 26.1312 12.9773 25.8627 13.0297 25.6045C13.0821 25.3462 13.2342 25.1191 13.4531 24.9724C13.6721 24.8258 13.94 24.7714 14.1988 24.8213C15.3873 25.0638 16.6127 25.0638 17.8013 24.8213C18.06 24.7714 18.328 24.8258 18.5469 24.9724C18.7658 25.1191 18.918 25.3462 18.9703 25.6045C19.0227 25.8627 18.971 26.1312 18.8266 26.3515C18.6821 26.5719 18.4565 26.7263 18.1988 26.7812ZM18.98 6.40625C18.9329 6.6312 18.8097 6.83306 18.6312 6.97785C18.4528 7.12264 18.2298 7.20153 18 7.20125C17.9328 7.20141 17.8658 7.19471 17.8 7.18125C16.6114 6.93874 15.3861 6.93874 14.1975 7.18125C14.0683 7.2088 13.9348 7.21046 13.8049 7.18613C13.675 7.1618 13.5512 7.11196 13.4407 7.0395C13.3302 6.96703 13.2351 6.87338 13.161 6.76396C13.0869 6.65453 13.0353 6.5315 13.009 6.40198C12.9827 6.27246 12.9824 6.13902 13.008 6.00937C13.0336 5.87972 13.0847 5.75643 13.1582 5.64664C13.2318 5.53684 13.3264 5.44272 13.4365 5.3697C13.5467 5.29669 13.6702 5.24623 13.8 5.22125C15.2509 4.92499 16.7466 4.92499 18.1975 5.22125C18.3263 5.24721 18.4487 5.29831 18.5578 5.37161C18.6668 5.44492 18.7604 5.53899 18.833 5.64846C18.9057 5.75793 18.9561 5.88065 18.9813 6.00961C19.0065 6.13856 19.0061 6.27122 18.98 6.4V6.40625ZM26.435 19.4912C25.9656 20.896 25.2173 22.1915 24.235 23.3C24.148 23.3985 24.0425 23.4789 23.9244 23.5366C23.8063 23.5943 23.678 23.6282 23.5469 23.6363C23.4157 23.6444 23.2842 23.6266 23.1599 23.5839C23.0357 23.5413 22.921 23.4745 22.8225 23.3875C22.724 23.3005 22.6436 23.195 22.5859 23.0769C22.5282 22.9588 22.4943 22.8305 22.4862 22.6994C22.4781 22.5682 22.4959 22.4367 22.5386 22.3124C22.5813 22.1882 22.648 22.0735 22.735 21.975C23.5393 21.0676 24.1516 20.0067 24.535 18.8563C24.6192 18.6046 24.7999 18.3968 25.0374 18.2784C25.2749 18.16 25.5496 18.1408 25.8013 18.225C26.0529 18.3092 26.2607 18.4899 26.3791 18.7274C26.4975 18.9649 26.5167 19.2396 26.4325 19.4912H26.435Z" fill="#4A4A4F"/>
</svg>
