<svg width="32" height="32" viewBox="0 0 32 32" fill="none" xmlns="http://www.w3.org/2000/svg">
<path d="M15 10C15 10.9889 14.7068 11.9556 14.1573 12.7779C13.6079 13.6001 12.827 14.241 11.9134 14.6194C10.9998 14.9978 9.99446 15.0969 9.02455 14.9039C8.05465 14.711 7.16373 14.2348 6.46447 13.5355C5.76521 12.8363 5.289 11.9454 5.09608 10.9755C4.90315 10.0055 5.00217 9.00022 5.3806 8.08659C5.75904 7.17295 6.39991 6.39206 7.22215 5.84265C8.0444 5.29325 9.0111 5 10 5C11.3261 5 12.5979 5.52679 13.5355 6.46447C14.4732 7.40215 15 8.67392 15 10ZM22 15C22.9889 15 23.9556 14.7068 24.7779 14.1573C25.6001 13.6079 26.241 12.827 26.6194 11.9134C26.9978 10.9998 27.0969 9.99446 26.9039 9.02455C26.711 8.05465 26.2348 7.16373 25.5355 6.46447C24.8363 5.76521 23.9454 5.289 22.9755 5.09608C22.0055 4.90315 21.0002 5.00217 20.0866 5.3806C19.173 5.75904 18.3921 6.39991 17.8427 7.22215C17.2932 8.0444 17 9.0111 17 10C17 11.3261 17.5268 12.5979 18.4645 13.5355C19.4022 14.4732 20.6739 15 22 15ZM10 17C9.0111 17 8.0444 17.2932 7.22215 17.8427C6.39991 18.3921 5.75904 19.173 5.3806 20.0866C5.00217 21.0002 4.90315 22.0055 5.09608 22.9755C5.289 23.9454 5.76521 24.8363 6.46447 25.5355C7.16373 26.2348 8.05465 26.711 9.02455 26.9039C9.99446 27.0969 10.9998 26.9978 11.9134 26.6194C12.827 26.241 13.6079 25.6001 14.1573 24.7779C14.7068 23.9556 15 22.9889 15 22C15 20.6739 14.4732 19.4022 13.5355 18.4645C12.5979 17.5268 11.3261 17 10 17ZM26 21H23V18C23 17.7348 22.8946 17.4804 22.7071 17.2929C22.5196 17.1054 22.2652 17 22 17C21.7348 17 21.4804 17.1054 21.2929 17.2929C21.1054 17.4804 21 17.7348 21 18V21H18C17.7348 21 17.4804 21.1054 17.2929 21.2929C17.1054 21.4804 17 21.7348 17 22C17 22.2652 17.1054 22.5196 17.2929 22.7071C17.4804 22.8946 17.7348 23 18 23H21V26C21 26.2652 21.1054 26.5196 21.2929 26.7071C21.4804 26.8946 21.7348 27 22 27C22.2652 27 22.5196 26.8946 22.7071 26.7071C22.8946 26.5196 23 26.2652 23 26V23H26C26.2652 23 26.5196 22.8946 26.7071 22.7071C26.8946 22.5196 27 22.2652 27 22C27 21.7348 26.8946 21.4804 26.7071 21.2929C26.5196 21.1054 26.2652 21 26 21Z" fill="#4A4A4F"/>
</svg>
