<svg width="32" height="32" viewBox="0 0 32 32" fill="none" xmlns="http://www.w3.org/2000/svg">
<path d="M16 3C13.4288 3 10.9154 3.76244 8.77759 5.1909C6.63975 6.61935 4.97351 8.64968 3.98957 11.0251C3.00563 13.4006 2.74819 16.0144 3.2498 18.5362C3.75141 21.0579 4.98953 23.3743 6.80762 25.1924C8.6257 27.0105 10.9421 28.2486 13.4638 28.7502C15.9856 29.2518 18.5995 28.9944 20.9749 28.0104C23.3503 27.0265 25.3807 25.3603 26.8091 23.2224C28.2376 21.0846 29 18.5712 29 16C28.9964 12.5533 27.6256 9.24882 25.1884 6.81163C22.7512 4.37445 19.4467 3.00364 16 3ZM5.00001 16C5.00126 13.8253 5.64708 11.6998 6.85586 9.89205C8.06464 8.08427 9.78214 6.67536 11.7913 5.84332C13.8006 5.01127 16.0113 4.79345 18.1443 5.21736C20.2772 5.64127 22.2367 6.6879 23.775 8.225L8.22501 23.775C7.20204 22.7552 6.39055 21.5434 5.83712 20.2091C5.28368 18.8749 4.9992 17.4445 5.00001 16Z" fill="#4A4A4F"/>
</svg>
