<svg width="32" height="32" viewBox="0 0 32 32" fill="none" xmlns="http://www.w3.org/2000/svg">
<path d="M25 3.99982H20.4675C19.9056 3.37072 19.2172 2.86739 18.4473 2.52277C17.6775 2.17814 16.8435 2 16 2C15.1565 2 14.3225 2.17814 13.5527 2.52277C12.7828 2.86739 12.0944 3.37072 11.5325 3.99982H7C6.46957 3.99982 5.96086 4.21053 5.58579 4.58561C5.21071 4.96068 5 5.46939 5 5.99982V26.9998C5 27.5303 5.21071 28.039 5.58579 28.414C5.96086 28.7891 6.46957 28.9998 7 28.9998H25C25.5304 28.9998 26.0391 28.7891 26.4142 28.414C26.7893 28.039 27 27.5303 27 26.9998V5.99982C27 5.46939 26.7893 4.96068 26.4142 4.58561C26.0391 4.21053 25.5304 3.99982 25 3.99982ZM16 3.99982C17.0609 3.99982 18.0783 4.42125 18.8284 5.17139C19.5786 5.92154 20 6.93895 20 7.99982H12C12 6.93895 12.4214 5.92154 13.1716 5.17139C13.9217 4.42125 14.9391 3.99982 16 3.99982ZM25 26.9998H7V5.99982H10.3438C10.1163 6.64209 10 7.31846 10 7.99982V8.99982C10 9.26504 10.1054 9.51939 10.2929 9.70693C10.4804 9.89446 10.7348 9.99982 11 9.99982H21C21.2652 9.99982 21.5196 9.89446 21.7071 9.70693C21.8946 9.51939 22 9.26504 22 8.99982V7.99982C22 7.31846 21.8837 6.64209 21.6562 5.99982H25V26.9998Z" fill="#4A4A4F"/>
</svg>
