<svg width="32" height="32" viewBox="0 0 32 32" fill="none" xmlns="http://www.w3.org/2000/svg">
<path d="M25 3.99982H20.4675C19.9056 3.37072 19.2172 2.86739 18.4473 2.52277C17.6775 2.17814 16.8435 2 16 2C15.1565 2 14.3225 2.17814 13.5527 2.52277C12.7828 2.86739 12.0944 3.37072 11.5325 3.99982H7C6.46957 3.99982 5.96086 4.21053 5.58579 4.58561C5.21071 4.96068 5 5.46939 5 5.99982V26.9998C5 27.5303 5.21071 28.039 5.58579 28.414C5.96086 28.7891 6.46957 28.9998 7 28.9998H25C25.5304 28.9998 26.0391 28.7891 26.4142 28.414C26.7893 28.039 27 27.5303 27 26.9998V5.99982C27 5.46939 26.7893 4.96068 26.4142 4.58561C26.0391 4.21053 25.5304 3.99982 25 3.99982ZM16 3.99982C17.0609 3.99982 18.0783 4.42125 18.8284 5.17139C19.5786 5.92154 20 6.93895 20 7.99982H12C12 6.93895 12.4214 5.92154 13.1716 5.17139C13.9217 4.42125 14.9391 3.99982 16 3.99982ZM20 19.9998H12C11.7348 19.9998 11.4804 19.8945 11.2929 19.7069C11.1054 19.5194 11 19.265 11 18.9998C11 18.7346 11.1054 18.4802 11.2929 18.2927C11.4804 18.1052 11.7348 17.9998 12 17.9998H20C20.2652 17.9998 20.5196 18.1052 20.7071 18.2927C20.8946 18.4802 21 18.7346 21 18.9998C21 19.265 20.8946 19.5194 20.7071 19.7069C20.5196 19.8945 20.2652 19.9998 20 19.9998ZM20 15.9998H12C11.7348 15.9998 11.4804 15.8945 11.2929 15.7069C11.1054 15.5194 11 15.265 11 14.9998C11 14.7346 11.1054 14.4802 11.2929 14.2927C11.4804 14.1052 11.7348 13.9998 12 13.9998H20C20.2652 13.9998 20.5196 14.1052 20.7071 14.2927C20.8946 14.4802 21 14.7346 21 14.9998C21 15.265 20.8946 15.5194 20.7071 15.7069C20.5196 15.8945 20.2652 15.9998 20 15.9998Z" fill="#4A4A4F"/>
</svg>
