<svg width="32" height="32" viewBox="0 0 32 32" fill="none" xmlns="http://www.w3.org/2000/svg">
<path d="M28 15.9998C28.0001 18.3436 27.3137 20.6362 26.0257 22.5944C24.7377 24.5526 22.9044 26.0908 20.7522 27.019C18.6 27.9472 16.2231 28.2248 13.9149 27.8175C11.6067 27.4103 9.46835 26.336 7.76375 24.7273C7.66821 24.637 7.5914 24.5288 7.53768 24.4088C7.48397 24.2888 7.45441 24.1595 7.45069 24.0281C7.44698 23.8967 7.46918 23.7658 7.51603 23.643C7.56288 23.5202 7.63347 23.4078 7.72375 23.3123C7.90609 23.1193 8.1576 23.0067 8.42297 22.9992C8.55436 22.9955 8.6852 23.0177 8.80802 23.0646C8.93083 23.1114 9.04321 23.182 9.13875 23.2723C10.5684 24.6211 12.3639 25.5186 14.3007 25.8528C16.2376 26.187 18.23 25.943 20.029 25.1513C21.828 24.3596 23.3538 23.0553 24.4158 21.4014C25.4777 19.7475 26.0287 17.8173 25.9999 15.852C25.9712 13.8867 25.3639 11.9735 24.254 10.3514C23.1441 8.72928 21.5807 7.47022 19.7593 6.73152C17.9379 5.99283 15.9392 5.80726 14.013 6.19801C12.0867 6.58875 10.3183 7.53848 8.92875 8.92853C8.4875 9.37478 8.0725 9.81353 7.66875 10.2498L9.7075 12.2923C9.84751 12.4321 9.94288 12.6104 9.98153 12.8045C10.0202 12.9986 10.0004 13.1997 9.92462 13.3826C9.84887 13.5654 9.72058 13.7216 9.55598 13.8315C9.39139 13.9414 9.1979 13.9999 9 13.9998H4C3.73478 13.9998 3.48043 13.8944 3.29289 13.7069C3.10536 13.5194 3 13.265 3 12.9998V7.99978C2.99984 7.80189 3.05841 7.60839 3.16828 7.4438C3.27815 7.27921 3.43439 7.15091 3.61721 7.07516C3.80003 6.99941 4.00122 6.9796 4.19531 7.01825C4.38939 7.0569 4.56764 7.15227 4.7075 7.29228L6.25 8.83728C6.6525 8.40103 7.0675 7.96228 7.5075 7.51853C9.18511 5.83807 11.3236 4.69308 13.6522 4.2285C15.9808 3.76393 18.3949 4.00064 20.589 4.90869C22.783 5.81674 24.6583 7.35529 25.9775 9.32961C27.2968 11.3039 28.0006 13.6253 28 15.9998ZM16 8.99978C15.7348 8.99978 15.4804 9.10514 15.2929 9.29267C15.1054 9.48021 15 9.73456 15 9.99978V15.9998C14.9999 16.1724 15.0446 16.3421 15.1296 16.4924C15.2146 16.6427 15.337 16.7684 15.485 16.8573L20.485 19.8573C20.5976 19.9249 20.7224 19.9697 20.8524 19.9891C20.9823 20.0085 21.1147 20.0021 21.2422 19.9703C21.3696 19.9385 21.4896 19.8819 21.5951 19.8037C21.7007 19.7256 21.7899 19.6274 21.8575 19.5148C21.9251 19.4022 21.9699 19.2773 21.9893 19.1474C22.0087 19.0175 22.0023 18.885 21.9705 18.7576C21.9387 18.6301 21.8821 18.5102 21.8039 18.4046C21.7258 18.2991 21.6276 18.2099 21.515 18.1423L17 15.4335V9.99978C17 9.73456 16.8946 9.48021 16.7071 9.29267C16.5196 9.10514 16.2652 8.99978 16 8.99978Z" fill="#4A4A4F"/>
</svg>
