<svg width="32" height="32" viewBox="0 0 32 32" fill="none" xmlns="http://www.w3.org/2000/svg">
<path d="M17 10.0002V15.4339L21.515 18.1427C21.7424 18.2793 21.9062 18.5006 21.9705 18.758C22.0347 19.0154 21.994 19.2878 21.8575 19.5152C21.7209 19.7426 21.4995 19.9065 21.2421 19.9707C20.9847 20.0349 20.7124 19.9943 20.485 19.8577L15.485 16.8577C15.337 16.7688 15.2145 16.6431 15.1295 16.4928C15.0445 16.3425 14.9999 16.1728 15 16.0002V10.0002C15 9.73497 15.1053 9.48062 15.2929 9.29308C15.4804 9.10555 15.7347 9.00019 16 9.00019C16.2652 9.00019 16.5195 9.10555 16.7071 9.29308C16.8946 9.48062 17 9.73497 17 10.0002ZM28.3825 7.07644C28.1998 7.00064 27.9987 6.98073 27.8047 7.01922C27.6106 7.05771 27.4324 7.15288 27.2925 7.29269L25.75 8.83894C25.3462 8.40019 24.93 7.96394 24.4875 7.51519C22.8198 5.84732 20.6976 4.70789 18.386 4.23926C16.0744 3.77063 13.676 3.99359 11.4904 4.88027C9.30487 5.76696 7.42905 7.27805 6.09738 9.22474C4.7657 11.1714 4.03723 13.4674 4.00298 15.8257C3.96872 18.1841 4.63021 20.5002 5.90478 22.4848C7.17936 24.4693 9.0105 26.0342 11.1694 26.984C13.3283 27.9338 15.7192 28.2263 18.0434 27.825C20.3676 27.4237 22.522 26.3464 24.2375 24.7277C24.333 24.6374 24.4098 24.5292 24.4635 24.4092C24.5172 24.2892 24.5468 24.1599 24.5505 24.0285C24.5542 23.8971 24.532 23.7662 24.4852 23.6434C24.4383 23.5206 24.3677 23.4082 24.2775 23.3127C24.1872 23.2172 24.079 23.1403 23.959 23.0866C23.839 23.0329 23.7096 23.0033 23.5782 22.9996C23.4468 22.9959 23.316 23.0181 23.1932 23.065C23.0704 23.1118 22.958 23.1824 22.8625 23.2727C21.4331 24.6214 19.6379 25.5191 17.7013 25.8535C15.7647 26.188 13.7725 25.9444 11.9736 25.1532C10.1746 24.362 8.64866 23.0582 7.58636 21.4048C6.52406 19.7514 5.97249 17.8216 6.00057 15.8565C6.02865 13.8915 6.63512 11.9783 7.74423 10.3559C8.85334 8.73347 10.4159 7.47385 12.2367 6.73436C14.0576 5.99487 16.0559 5.80829 17.9822 6.19793C19.9084 6.58757 21.6772 7.53616 23.0675 8.92519C23.51 9.37269 23.9262 9.81269 24.3312 10.2539L22.2925 12.2927C22.1524 12.4325 22.0571 12.6108 22.0184 12.8049C21.9798 12.999 21.9996 13.2002 22.0753 13.383C22.1511 13.5658 22.2794 13.722 22.444 13.8319C22.6086 13.9418 22.8021 14.0003 23 14.0002H28C28.2652 14.0002 28.5195 13.8948 28.7071 13.7073C28.8946 13.5198 29 13.2654 29 13.0002V8.00019C28.9999 7.80241 28.9412 7.60908 28.8313 7.44466C28.7214 7.28023 28.5652 7.15209 28.3825 7.07644Z" fill="#4A4A4F"/>
</svg>
