<svg width="32" height="32" viewBox="0 0 32 32" fill="none" xmlns="http://www.w3.org/2000/svg">
<path d="M16 3C13.4288 3 10.9154 3.76244 8.77759 5.1909C6.63975 6.61935 4.97351 8.64968 3.98957 11.0251C3.00563 13.4006 2.74819 16.0144 3.2498 18.5362C3.75141 21.0579 4.98953 23.3743 6.80762 25.1924C8.6257 27.0105 10.9421 28.2486 13.4638 28.7502C15.9856 29.2518 18.5995 28.9944 20.9749 28.0104C23.3503 27.0265 25.3807 25.3603 26.8091 23.2224C28.2376 21.0846 29 18.5712 29 16C28.9964 12.5533 27.6256 9.24882 25.1884 6.81163C22.7512 4.37445 19.4467 3.00364 16 3ZM23 17H18.4138L21.7075 20.2925C21.8004 20.3854 21.8741 20.4957 21.9244 20.6171C21.9747 20.7385 22.0006 20.8686 22.0006 21C22.0006 21.1314 21.9747 21.2615 21.9244 21.3829C21.8741 21.5043 21.8004 21.6146 21.7075 21.7075C21.6146 21.8004 21.5043 21.8741 21.3829 21.9244C21.2615 21.9747 21.1314 22.0006 21 22.0006C20.8686 22.0006 20.7385 21.9747 20.6171 21.9244C20.4957 21.8741 20.3854 21.8004 20.2925 21.7075L15.2925 16.7075C15.1525 16.5676 15.0571 16.3894 15.0185 16.1953C14.9798 16.0012 14.9996 15.8 15.0754 15.6172C15.1511 15.4344 15.2794 15.2782 15.444 15.1683C15.6086 15.0584 15.8021 14.9998 16 15H23C23.2652 15 23.5196 15.1054 23.7071 15.2929C23.8946 15.4804 24 15.7348 24 16C24 16.2652 23.8946 16.5196 23.7071 16.7071C23.5196 16.8946 23.2652 17 23 17Z" fill="#4A4A4F"/>
</svg>
