<svg width="32" height="32" viewBox="0 0 32 32" fill="none" xmlns="http://www.w3.org/2000/svg">
<path d="M28.9999 17.0825C28.7875 19.5524 27.874 21.9104 26.367 23.8788C24.86 25.8473 22.8221 27.3443 20.4932 28.1939C18.1642 29.0435 15.641 29.2103 13.2205 28.6746C10.8 28.1389 8.58281 26.9231 6.82983 25.1701C5.07685 23.4171 3.86099 21.1999 3.3253 18.7794C2.78962 16.3589 2.95638 13.8357 3.80598 11.5068C4.65558 9.17781 6.15267 7.13994 8.12112 5.63293C10.0896 4.12591 12.4475 3.21244 14.9174 2.99998C15.0488 2.98915 15.1809 3.00428 15.3064 3.04453C15.4319 3.08477 15.5482 3.14934 15.6487 3.23454C15.7492 3.31973 15.832 3.4239 15.8923 3.54108C15.9525 3.65826 15.9891 3.78616 15.9999 3.91748C16.0108 4.0488 15.9956 4.18097 15.9554 4.30644C15.9151 4.43191 15.8506 4.54823 15.7654 4.64875C15.6802 4.74927 15.576 4.83202 15.4588 4.89229C15.3417 4.95255 15.2138 4.98915 15.0824 4.99998C12.9919 5.1796 10.9962 5.95256 9.33008 7.22793C7.66396 8.5033 6.39677 10.228 5.6776 12.1991C4.95843 14.1703 4.81721 16.3058 5.27055 18.3544C5.72389 20.4031 6.75293 22.2797 8.2366 23.7633C9.72026 25.247 11.5968 26.276 13.6455 26.7294C15.6941 27.1827 17.8297 27.0415 19.8008 26.3223C21.7719 25.6032 23.4966 24.336 24.772 22.6698C26.0474 21.0037 26.8203 19.008 26.9999 16.9175C27.0218 16.6523 27.1482 16.4066 27.3512 16.2345C27.5542 16.0625 27.8172 15.9781 28.0824 16C28.3477 16.0219 28.5933 16.1482 28.7654 16.3512C28.9375 16.5542 29.0218 16.8173 28.9999 17.0825ZM14.9999 8.99998V16C14.9999 16.2652 15.1053 16.5196 15.2928 16.7071C15.4804 16.8946 15.7347 17 15.9999 17H22.9999C23.2652 17 23.5195 16.8946 23.7071 16.7071C23.8946 16.5196 23.9999 16.2652 23.9999 16C23.9999 15.7348 23.8946 15.4804 23.7071 15.2929C23.5195 15.1053 23.2652 15 22.9999 15H16.9999V8.99998C16.9999 8.73476 16.8946 8.48041 16.7071 8.29287C16.5195 8.10534 16.2652 7.99998 15.9999 7.99998C15.7347 7.99998 15.4804 8.10534 15.2928 8.29287C15.1053 8.48041 14.9999 8.73476 14.9999 8.99998ZM19.9999 5.99998C20.2966 5.99998 20.5866 5.91201 20.8333 5.74718C21.08 5.58236 21.2722 5.34809 21.3858 5.074C21.4993 4.79992 21.529 4.49832 21.4711 4.20734C21.4132 3.91637 21.2704 3.6491 21.0606 3.43932C20.8508 3.22954 20.5835 3.08668 20.2926 3.0288C20.0016 2.97092 19.7 3.00063 19.4259 3.11416C19.1518 3.22769 18.9176 3.41995 18.7527 3.66662C18.5879 3.9133 18.4999 4.20331 18.4999 4.49998C18.4999 4.8978 18.658 5.27934 18.9393 5.56064C19.2206 5.84194 19.6021 5.99998 19.9999 5.99998ZM24.4999 8.99998C24.7966 8.99998 25.0866 8.91201 25.3333 8.74718C25.58 8.58236 25.7722 8.34809 25.8858 8.074C25.9993 7.79992 26.029 7.49832 25.9711 7.20734C25.9132 6.91637 25.7704 6.6491 25.5606 6.43932C25.3508 6.22954 25.0835 6.08668 24.7926 6.0288C24.5016 5.97092 24.2 6.00063 23.9259 6.11416C23.6518 6.22769 23.4176 6.41995 23.2527 6.66662C23.0879 6.9133 22.9999 7.20331 22.9999 7.49998C22.9999 7.8978 23.158 8.27934 23.4393 8.56064C23.7206 8.84194 24.1021 8.99998 24.4999 8.99998ZM27.4999 13.5C27.7966 13.5 28.0866 13.412 28.3333 13.2472C28.58 13.0824 28.7722 12.8481 28.8858 12.574C28.9993 12.2999 29.029 11.9983 28.9711 11.7073C28.9132 11.4164 28.7704 11.1491 28.5606 10.9393C28.3508 10.7295 28.0835 10.5867 27.7926 10.5288C27.5016 10.4709 27.2 10.5006 26.9259 10.6142C26.6518 10.7277 26.4176 10.92 26.2527 11.1666C26.0879 11.4133 25.9999 11.7033 25.9999 12C25.9999 12.3978 26.158 12.7793 26.4393 13.0606C26.7206 13.3419 27.1021 13.5 27.4999 13.5Z" fill="#4A4A4F"/>
</svg>
