<svg width="32" height="32" viewBox="0 0 32 32" fill="none" xmlns="http://www.w3.org/2000/svg">
<path d="M6.74 4.32758C6.65218 4.22859 6.54559 4.14801 6.4264 4.09052C6.30721 4.03303 6.1778 3.99976 6.04566 3.99265C5.91352 3.98555 5.78128 4.00473 5.65661 4.04911C5.53194 4.09348 5.41732 4.16216 5.31939 4.25116C5.22146 4.34016 5.14216 4.44771 5.0861 4.56758C5.03004 4.68745 4.99833 4.81725 4.99281 4.94947C4.98728 5.08168 5.00806 5.21368 5.05392 5.33781C5.09979 5.46194 5.16983 5.57573 5.26 5.67258L10.165 11.0688L10.1575 11.0838C9.77416 11.0284 9.38734 11.0004 9 11.0001C6.87827 11.0001 4.84344 11.8429 3.34315 13.3432C1.84285 14.8435 1 16.8784 1 19.0001C1 21.1218 1.84285 23.1566 3.34315 24.6569C4.84344 26.1572 6.87827 27.0001 9 27.0001H20C21.3596 27.0027 22.7077 26.7513 23.975 26.2588L25.26 27.6726C25.3478 27.7716 25.4544 27.8522 25.5736 27.9096C25.6928 27.9671 25.8222 28.0004 25.9543 28.0075C26.0865 28.0146 26.2187 27.9954 26.3434 27.9511C26.4681 27.9067 26.5827 27.838 26.6806 27.749C26.7785 27.66 26.8578 27.5525 26.9139 27.4326C26.97 27.3127 27.0017 27.1829 27.0072 27.0507C27.0127 26.9185 26.9919 26.7865 26.9461 26.6624C26.9002 26.5382 26.8302 26.4244 26.74 26.3276L6.74 4.32758ZM20 25.0001H9C7.4087 25.0001 5.88258 24.3679 4.75736 23.2427C3.63214 22.1175 3 20.5914 3 19.0001C3 17.4088 3.63214 15.8827 4.75736 14.7574C5.88258 13.6322 7.4087 13.0001 9 13.0001C9.1375 13.0001 9.275 13.0001 9.4125 13.0151C9.13934 13.9866 9.00055 14.9909 9 16.0001C9 16.2653 9.10536 16.5197 9.29289 16.7072C9.48043 16.8947 9.73478 17.0001 10 17.0001C10.2652 17.0001 10.5196 16.8947 10.7071 16.7072C10.8946 16.5197 11 16.2653 11 16.0001C11.0004 14.8643 11.2149 13.7388 11.6325 12.6826L22.5075 24.6451C21.6927 24.8816 20.8484 25.0011 20 25.0001ZM31 16.0001C31.0016 18.7027 30.0069 21.311 28.2062 23.3263C28.026 23.5069 27.7835 23.6117 27.5284 23.6193C27.2734 23.6269 27.0251 23.5368 26.8343 23.3673C26.6436 23.1978 26.5249 22.9618 26.5025 22.7076C26.48 22.4535 26.5556 22.2003 26.7138 22.0001C28.1993 20.341 29.0169 18.19 29.0086 15.9631C29.0003 13.7362 28.1667 11.5914 26.6689 9.94336C25.171 8.29536 23.1154 7.2612 20.8994 7.04079C18.6834 6.82039 16.4643 7.4294 14.6713 8.75008C14.5655 8.82789 14.4454 8.8841 14.3178 8.9155C14.1903 8.9469 14.0579 8.95287 13.928 8.93308C13.7982 8.91329 13.6736 8.86812 13.5612 8.80016C13.4488 8.73219 13.3509 8.64276 13.2731 8.53696C13.116 8.32329 13.0502 8.05596 13.0901 7.79376C13.1301 7.53156 13.2726 7.29597 13.4862 7.13883C15.1249 5.9347 17.0652 5.20834 19.0917 5.04043C21.1182 4.87252 23.1516 5.26964 24.9661 6.18768C26.7805 7.10571 28.305 8.50873 29.3702 10.2409C30.4353 11.9731 30.9995 13.9666 31 16.0001Z" fill="#4A4A4F"/>
</svg>
