<svg width="32" height="32" viewBox="0 0 32 32" fill="none" xmlns="http://www.w3.org/2000/svg">
<path d="M11 24.5002C11 24.7969 10.912 25.0869 10.7472 25.3336C10.5824 25.5802 10.3481 25.7725 10.074 25.886C9.79994 25.9995 9.49834 26.0293 9.20736 25.9714C8.91639 25.9135 8.64912 25.7706 8.43934 25.5609C8.22956 25.3511 8.0867 25.0838 8.02882 24.7928C7.97094 24.5019 8.00065 24.2003 8.11418 23.9262C8.22771 23.6521 8.41997 23.4178 8.66665 23.253C8.91332 23.0882 9.20333 23.0002 9.5 23.0002C9.89782 23.0002 10.2794 23.1582 10.5607 23.4395C10.842 23.7208 11 24.1024 11 24.5002ZM14.5 25.0002C14.2033 25.0002 13.9133 25.0882 13.6666 25.253C13.42 25.4178 13.2277 25.6521 13.1142 25.9262C13.0006 26.2003 12.9709 26.5019 13.0288 26.7928C13.0867 27.0838 13.2296 27.3511 13.4393 27.5609C13.6491 27.7706 13.9164 27.9135 14.2074 27.9714C14.4983 28.0293 14.7999 27.9995 15.074 27.886C15.3481 27.7725 15.5824 27.5802 15.7472 27.3336C15.912 27.0869 16 26.7969 16 26.5002C16 26.1024 15.842 25.7208 15.5607 25.4395C15.2794 25.1582 14.8978 25.0002 14.5 25.0002ZM20.5 23.0002C20.2033 23.0002 19.9133 23.0882 19.6666 23.253C19.42 23.4178 19.2277 23.6521 19.1142 23.9262C19.0007 24.2003 18.9709 24.5019 19.0288 24.7928C19.0867 25.0838 19.2296 25.3511 19.4393 25.5609C19.6491 25.7706 19.9164 25.9135 20.2074 25.9714C20.4983 26.0293 20.7999 25.9995 21.074 25.886C21.3481 25.7725 21.5824 25.5802 21.7472 25.3336C21.912 25.0869 22 24.7969 22 24.5002C22 24.1024 21.842 23.7208 21.5607 23.4395C21.2794 23.1582 20.8978 23.0002 20.5 23.0002ZM8.5 28.0002C8.20333 28.0002 7.91332 28.0882 7.66664 28.253C7.41997 28.4178 7.22771 28.6521 7.11418 28.9262C7.00065 29.2003 6.97094 29.5019 7.02882 29.7928C7.0867 30.0838 7.22956 30.3511 7.43934 30.5609C7.64912 30.7706 7.91639 30.9135 8.20736 30.9714C8.49834 31.0293 8.79994 30.9995 9.07403 30.886C9.34811 30.7725 9.58238 30.5802 9.7472 30.3336C9.91203 30.0869 10 29.7969 10 29.5002C10 29.1024 9.84196 28.7208 9.56066 28.4395C9.27936 28.1582 8.89782 28.0002 8.5 28.0002ZM19.5 28.0002C19.2033 28.0002 18.9133 28.0882 18.6666 28.253C18.42 28.4178 18.2277 28.6521 18.1142 28.9262C18.0007 29.2003 17.9709 29.5019 18.0288 29.7928C18.0867 30.0838 18.2296 30.3511 18.4393 30.5609C18.6491 30.7706 18.9164 30.9135 19.2074 30.9714C19.4983 31.0293 19.7999 30.9995 20.074 30.886C20.3481 30.7725 20.5824 30.5802 20.7472 30.3336C20.912 30.0869 21 29.7969 21 29.5002C21 29.1024 20.842 28.7208 20.5607 28.4395C20.2794 28.1582 19.8978 28.0002 19.5 28.0002ZM29 11.5002C28.9974 14.0189 27.9956 16.4338 26.2146 18.2148C24.4336 19.9958 22.0187 20.9975 19.5 21.0002H9.5C7.77609 21.0002 6.12279 20.3154 4.90381 19.0964C3.68482 17.8774 3 16.2241 3 14.5002C3 12.7763 3.68482 11.123 4.90381 9.904C6.12279 8.68502 7.77609 8.0002 9.5 8.0002C9.87367 8.00052 10.2467 8.03229 10.615 8.0952C11.4125 6.02366 12.9096 4.29636 14.8467 3.21256C16.7839 2.12876 19.0392 1.75676 21.2219 2.16099C23.4045 2.56523 25.377 3.72024 26.7975 5.42591C28.2181 7.13158 28.9973 9.28044 29 11.5002ZM27 11.5002C26.992 9.55277 26.2276 7.68465 24.8681 6.29023C23.5087 4.89582 21.6605 4.08423 19.7139 4.0268C17.7673 3.96938 15.8746 4.67061 14.4353 5.98247C12.996 7.29432 12.1228 9.11413 12 11.0577C11.9924 11.189 11.9591 11.3176 11.9019 11.436C11.8446 11.5544 11.7646 11.6604 11.6664 11.748C11.4681 11.9247 11.2077 12.0154 10.9425 12.0002C10.6773 11.9849 10.429 11.865 10.2522 11.6666C10.0755 11.4683 9.98475 11.2079 10 10.9427C10.0175 10.6377 10.0496 10.3364 10.0962 10.0389C9.89851 10.0136 9.69937 10.0006 9.5 10.0002C8.30653 10.0002 7.16193 10.4743 6.31802 11.3182C5.47411 12.1621 5 13.3067 5 14.5002C5 15.6937 5.47411 16.8383 6.31802 17.6822C7.16193 18.5261 8.30653 19.0002 9.5 19.0002H19.5C21.4884 18.9979 23.3947 18.207 24.8007 16.8009C26.2068 15.3949 26.9977 13.4886 27 11.5002Z" fill="#4A4A4F"/>
</svg>
