<svg width="32" height="32" viewBox="0 0 32 32" fill="none" xmlns="http://www.w3.org/2000/svg">
<path d="M19.4999 8.99977C18.6443 8.99925 17.7924 9.11403 16.9674 9.34102C16.6418 8.80965 16.2461 8.32447 15.7912 7.89852L16.9799 6.20227C17.0553 6.09467 17.1087 5.97328 17.1371 5.84503C17.1656 5.71679 17.1684 5.5842 17.1456 5.45484C17.1228 5.32547 17.0748 5.20187 17.0042 5.09108C16.9336 4.98029 16.8419 4.88449 16.7343 4.80914C16.6267 4.7338 16.5053 4.68038 16.3771 4.65195C16.2488 4.62352 16.1162 4.62062 15.9869 4.64343C15.8575 4.66624 15.7339 4.7143 15.6231 4.78488C15.5123 4.85546 15.4165 4.94717 15.3412 5.05477L14.1524 6.74977C13.1749 6.25619 12.095 5.99928 10.9999 5.99977C10.9274 5.99977 10.8549 5.99977 10.7824 5.99977L10.4212 3.96352C10.4022 3.83084 10.3568 3.70332 10.2876 3.58855C10.2183 3.47378 10.1268 3.37409 10.0183 3.29541C9.90976 3.21674 9.78654 3.16067 9.65594 3.13055C9.52534 3.10044 9.39002 3.09688 9.25802 3.1201C9.12602 3.14331 9.00003 3.19283 8.88754 3.2657C8.77505 3.33857 8.67836 3.43331 8.60321 3.54428C8.52806 3.65526 8.47599 3.78021 8.45009 3.91171C8.42418 4.04322 8.42498 4.17858 8.45243 4.30977L8.81243 6.35227C7.70337 6.71909 6.70352 7.35716 5.90368 8.20852L4.20118 7.01727C4.09366 6.94007 3.97189 6.88499 3.84292 6.85521C3.71396 6.82543 3.58036 6.82155 3.44988 6.84379C3.3194 6.86604 3.19464 6.91396 3.08282 6.98479C2.97101 7.05562 2.87437 7.14794 2.7985 7.2564C2.72264 7.36486 2.66906 7.48731 2.64087 7.61663C2.61269 7.74595 2.61046 7.87959 2.63431 8.00978C2.65816 8.13998 2.70763 8.26414 2.77983 8.37507C2.85203 8.486 2.94554 8.5815 3.05493 8.65602L4.74993 9.84602C4.2546 10.8234 3.9976 11.9041 3.99993 12.9998C3.99993 13.071 3.99993 13.1435 3.99993 13.2148L1.96368 13.5748C1.71721 13.6179 1.49589 13.752 1.34339 13.9503C1.1909 14.1487 1.11832 14.3971 1.13999 14.6463C1.16165 14.8956 1.27598 15.1277 1.46041 15.2968C1.64484 15.4659 1.88596 15.5598 2.13618 15.5598C2.19441 15.5597 2.25254 15.5547 2.30993 15.5448L4.34993 15.1848C4.52917 15.7305 4.7752 16.2519 5.08243 16.7373C4.12592 17.6257 3.4591 18.7816 3.1688 20.0544C2.87851 21.3272 2.9782 22.6579 3.45489 23.8732C3.93158 25.0886 4.76318 26.1322 5.84139 26.8682C6.9196 27.6042 8.19445 27.9985 9.49993 27.9998H19.4999C22.0195 27.9998 24.4358 26.9989 26.2174 25.2173C27.999 23.4357 28.9999 21.0193 28.9999 18.4998C28.9999 15.9802 27.999 13.5639 26.2174 11.7823C24.4358 10.0007 22.0195 8.99977 19.4999 8.99977ZM5.99993 12.9998C6.00053 11.9408 6.33731 10.9094 6.96173 10.0542C7.58616 9.19897 8.46599 8.56407 9.47443 8.24099C10.4829 7.91791 11.5678 7.92334 12.573 8.2565C13.5782 8.58965 14.4516 9.23333 15.0674 10.0948C13.0275 11.1683 11.4457 12.9446 10.6149 15.0948C9.30036 14.8679 7.94781 15.0498 6.73993 15.616C6.25633 14.829 6.0002 13.9235 5.99993 12.9998ZM19.4999 25.9998H9.49993C8.88446 25.9986 8.27576 25.8713 7.71148 25.6255C7.1472 25.3798 6.63932 25.0209 6.21926 24.5711C5.79919 24.1212 5.47587 23.59 5.26928 23.0102C5.06269 22.4305 4.97723 21.8145 5.01818 21.2004C5.05912 20.5863 5.22561 19.9871 5.50734 19.4399C5.78907 18.8927 6.18006 18.4091 6.65612 18.019C7.13219 17.6289 7.68321 17.3407 8.27513 17.172C8.86704 17.0034 9.48726 16.9579 10.0974 17.0385C10.0512 17.3348 10.0187 17.6373 10.0012 17.9423C9.99363 18.0736 10.012 18.2051 10.0553 18.3293C10.0986 18.4535 10.1659 18.568 10.2534 18.6662C10.3409 18.7644 10.4469 18.8444 10.5654 18.9016C10.6838 18.9589 10.8124 18.9922 10.9437 18.9998C11.075 19.0073 11.2065 18.9889 11.3307 18.9457C11.455 18.9024 11.5694 18.8351 11.6676 18.7475C11.7658 18.66 11.8458 18.554 11.9031 18.4356C11.9603 18.3171 11.9936 18.1886 12.0012 18.0573C12.0292 17.5585 12.108 17.0639 12.2362 16.581C12.2362 16.561 12.2474 16.541 12.2512 16.521C12.6187 15.1703 13.3566 13.9493 14.3814 12.9958C15.4063 12.0423 16.6773 11.3943 18.0509 11.125C19.4246 10.8557 20.8462 10.9758 22.1552 11.4718C23.4642 11.9677 24.6085 12.8198 25.4588 13.9317C26.3091 15.0437 26.8317 16.3712 26.9674 17.7644C27.1031 19.1576 26.8466 20.561 26.2269 21.8162C25.6071 23.0713 24.6488 24.1282 23.4601 24.8674C22.2714 25.6067 20.8997 25.9989 19.4999 25.9998Z" fill="#4A4A4F"/>
</svg>
