<svg width="32" height="32" viewBox="0 0 32 32" fill="none" xmlns="http://www.w3.org/2000/svg">
<path d="M30.9912 15.565C30.7637 9.6925 25.8837 5 20.0075 5C17.9634 5.00032 15.9597 5.56958 14.2207 6.64404C12.4817 7.71851 11.0761 9.25577 10.1613 11.0837C9.40087 12.5992 9.00332 14.2707 9 15.9663C9.00392 16.2239 8.91043 16.4735 8.73823 16.6652C8.56603 16.8568 8.32782 16.9764 8.07125 17C7.93406 17.0098 7.79632 16.9912 7.66665 16.9453C7.53698 16.8995 7.41816 16.8274 7.31762 16.7335C7.21708 16.6397 7.13698 16.5261 7.08233 16.3999C7.02768 16.2737 6.99965 16.1375 7 16C6.99894 14.6013 7.22436 13.2116 7.6675 11.885C7.6967 11.7999 7.70241 11.7086 7.68404 11.6205C7.66566 11.5325 7.62388 11.451 7.5631 11.3848C7.50232 11.3185 7.42478 11.2698 7.33866 11.2439C7.25254 11.218 7.16102 11.2158 7.07375 11.2375C5.34103 11.6694 3.80227 12.6678 2.70185 14.0742C1.60143 15.4805 1.00244 17.2143 1 19C1 23.3988 4.71875 27 9.125 27H20C21.4807 26.9984 22.9459 26.6982 24.3079 26.1173C25.6699 25.5364 26.9007 24.6868 27.9268 23.6193C28.9529 22.5518 29.7531 21.2883 30.2797 19.9044C30.8062 18.5205 31.0482 17.0446 30.9912 15.565ZM24.7075 14.7075L18.7075 20.7075C18.6146 20.8005 18.5043 20.8742 18.3829 20.9246C18.2615 20.9749 18.1314 21.0008 18 21.0008C17.8686 21.0008 17.7385 20.9749 17.6171 20.9246C17.4957 20.8742 17.3854 20.8005 17.2925 20.7075L14.2925 17.7075C14.1049 17.5199 13.9994 17.2654 13.9994 17C13.9994 16.7346 14.1049 16.4801 14.2925 16.2925C14.4801 16.1049 14.7346 15.9994 15 15.9994C15.2654 15.9994 15.5199 16.1049 15.7075 16.2925L18 18.5863L23.2925 13.2925C23.3854 13.1996 23.4957 13.1259 23.6171 13.0756C23.7385 13.0253 23.8686 12.9994 24 12.9994C24.1314 12.9994 24.2615 13.0253 24.3829 13.0756C24.5043 13.1259 24.6146 13.1996 24.7075 13.2925C24.8004 13.3854 24.8741 13.4957 24.9244 13.6171C24.9747 13.7385 25.0006 13.8686 25.0006 14C25.0006 14.1314 24.9747 14.2615 24.9244 14.3829C24.8741 14.5043 24.8004 14.6146 24.7075 14.7075Z" fill="#4A4A4F"/>
</svg>
