<svg width="32" height="32" viewBox="0 0 32 32" fill="none" xmlns="http://www.w3.org/2000/svg">
<path d="M19.8325 24.5552L15.8325 30.5552C15.7596 30.6645 15.6659 30.7584 15.5567 30.8315C15.4476 30.9046 15.3251 30.9555 15.1962 30.9813C14.936 31.0333 14.6658 30.9799 14.445 30.8327C14.2242 30.6855 14.0709 30.4566 14.0189 30.1964C13.9668 29.9362 14.0203 29.666 14.1675 29.4452L18.1675 23.4452C18.3147 23.2244 18.5436 23.0711 18.8038 23.0191C19.064 22.967 19.3342 23.0205 19.555 23.1677C19.7758 23.3149 19.9291 23.5438 19.9811 23.804C20.0332 24.0642 19.9797 24.3344 19.8325 24.5552ZM29 11.5002C28.9974 14.0189 27.9956 16.4338 26.2146 18.2148C24.4336 19.9958 22.0187 20.9975 19.5 21.0002H16.535L12.8325 26.5552C12.7596 26.6645 12.6659 26.7584 12.5567 26.8315C12.4476 26.9046 12.3251 26.9555 12.1962 26.9813C12.0674 27.0071 11.9347 27.0072 11.8058 26.9817C11.6769 26.9562 11.5543 26.9056 11.445 26.8327C11.3357 26.7598 11.2418 26.6661 11.1687 26.5569C11.0956 26.4478 11.0447 26.3253 11.0189 26.1964C10.9931 26.0676 10.993 25.9349 11.0185 25.806C11.044 25.6771 11.0946 25.5545 11.1675 25.4452L14.1313 21.0002H9.5C7.77609 21.0002 6.12279 20.3154 4.90381 19.0964C3.68482 17.8774 3 16.2241 3 14.5002C3 12.7763 3.68482 11.123 4.90381 9.904C6.12279 8.68502 7.77609 8.0002 9.5 8.0002C9.87367 8.00052 10.2467 8.03229 10.615 8.0952C11.4125 6.02366 12.9096 4.29636 14.8467 3.21256C16.7839 2.12876 19.0392 1.75676 21.2219 2.16099C23.4045 2.56523 25.377 3.72024 26.7975 5.42591C28.2181 7.13158 28.9973 9.28044 29 11.5002ZM27 11.5002C26.992 9.55277 26.2276 7.68465 24.8681 6.29023C23.5087 4.89582 21.6605 4.08423 19.7139 4.0268C17.7673 3.96938 15.8746 4.67061 14.4353 5.98247C12.996 7.29432 12.1228 9.11413 12 11.0577C11.9924 11.189 11.9591 11.3176 11.9019 11.436C11.8446 11.5544 11.7646 11.6604 11.6664 11.748C11.4681 11.9247 11.2077 12.0154 10.9425 12.0002C10.6773 11.9849 10.429 11.865 10.2522 11.6666C10.0755 11.4683 9.98475 11.2079 10 10.9427C10.0175 10.6377 10.0496 10.3364 10.0962 10.0389C9.89851 10.0136 9.69937 10.0006 9.5 10.0002C8.30653 10.0002 7.16193 10.4743 6.31802 11.3182C5.47411 12.1621 5 13.3067 5 14.5002C5 15.6937 5.47411 16.8383 6.31802 17.6822C7.16193 18.5261 8.30653 19.0002 9.5 19.0002H19.5C21.4884 18.9979 23.3947 18.207 24.8007 16.8009C26.2068 15.3949 26.9977 13.4886 27 11.5002Z" fill="#4A4A4F"/>
</svg>
