<svg width="32" height="32" viewBox="0 0 32 32" fill="none" xmlns="http://www.w3.org/2000/svg">
<path d="M19.8326 24.5548L15.8326 30.5548C15.7597 30.6641 15.666 30.758 15.5569 30.8311C15.4477 30.9042 15.3252 30.9551 15.1963 30.9809C14.9361 31.0329 14.6659 30.9795 14.4451 30.8323C14.2243 30.6851 14.071 30.4562 14.019 30.196C13.967 29.9358 14.0204 29.6656 14.1676 29.4448L18.1676 23.4448C18.3148 23.224 18.5437 23.0707 18.8039 23.0187C19.0641 22.9666 19.3343 23.0201 19.5551 23.1673C19.7759 23.3145 19.9292 23.5433 19.9812 23.8036C20.0333 24.0638 19.9798 24.334 19.8326 24.5548ZM28.9839 10.9435C28.8419 8.51622 27.7747 6.23571 26.0019 4.57161C24.2292 2.9075 21.8858 1.98646 19.4544 1.99816C17.0229 2.00985 14.6885 2.95338 12.9319 4.63447C11.1752 6.31555 10.1299 8.60621 10.0114 11.0348C9.99678 11.2939 9.88417 11.5379 9.69638 11.7171C9.50859 11.8963 9.25967 11.9973 9.00011 11.9998H8.92511C8.66113 11.9762 8.41677 11.8505 8.24402 11.6495C8.07126 11.4485 7.98376 11.1881 8.00011 10.9235C8.03486 10.2282 8.13234 9.53752 8.29136 8.85978C8.31188 8.77468 8.30969 8.68569 8.28503 8.6017C8.26036 8.51771 8.21408 8.44166 8.1508 8.38117C8.08753 8.32068 8.00948 8.27787 7.92447 8.257C7.83945 8.23614 7.75045 8.23796 7.66636 8.26228C6.31273 8.6622 5.1257 9.49116 4.28409 10.6243C3.44247 11.7574 2.99186 13.1333 3.00011 14.5448C3.02511 18.1335 6.01511 20.9998 9.60511 20.9998H14.1314L11.1676 25.4448C11.0204 25.6656 10.967 25.9358 11.019 26.196C11.071 26.4562 11.2243 26.6851 11.4451 26.8323C11.6659 26.9795 11.9361 27.0329 12.1963 26.9809C12.4565 26.9288 12.6854 26.7756 12.8326 26.5548L16.5351 20.9998H19.5001C20.7941 20.9983 22.0742 20.7328 23.262 20.2195C24.4498 19.7062 25.5204 18.9559 26.4082 18.0145C27.296 17.0732 27.9823 15.9605 28.4252 14.7446C28.8681 13.5288 29.0582 12.2354 28.9839 10.9435Z" fill="#4A4A4F"/>
</svg>
