<svg width="32" height="32" viewBox="0 0 32 32" fill="none" xmlns="http://www.w3.org/2000/svg">
<path d="M21.0001 27.9998C21.0001 28.265 20.8948 28.5193 20.7072 28.7069C20.5197 28.8944 20.2653 28.9998 20.0001 28.9998H13.0001C12.7349 28.9998 12.4805 28.8944 12.293 28.7069C12.1055 28.5193 12.0001 28.265 12.0001 27.9998C12.0001 27.7346 12.1055 27.4802 12.293 27.2927C12.4805 27.1051 12.7349 26.9998 13.0001 26.9998H20.0001C20.2653 26.9998 20.5197 27.1051 20.7072 27.2927C20.8948 27.4802 21.0001 27.7346 21.0001 27.9998ZM16.0001 23.9998C16.0001 23.7346 15.8948 23.4802 15.7072 23.2927C15.5197 23.1051 15.2653 22.9998 15.0001 22.9998H9.00011C8.7349 22.9998 8.48054 23.1051 8.293 23.2927C8.10547 23.4802 8.00011 23.7346 8.00011 23.9998C8.00011 24.265 8.10547 24.5193 8.293 24.7069C8.48054 24.8944 8.7349 24.9998 9.00011 24.9998H15.0001C15.2653 24.9998 15.5197 24.8944 15.7072 24.7069C15.8948 24.5193 16.0001 24.265 16.0001 23.9998ZM23.0001 22.9998H20.0001C19.7349 22.9998 19.4805 23.1051 19.293 23.2927C19.1055 23.4802 19.0001 23.7346 19.0001 23.9998C19.0001 24.265 19.1055 24.5193 19.293 24.7069C19.4805 24.8944 19.7349 24.9998 20.0001 24.9998H23.0001C23.2653 24.9998 23.5197 24.8944 23.7072 24.7069C23.8948 24.5193 24.0001 24.265 24.0001 23.9998C24.0001 23.7346 23.8948 23.4802 23.7072 23.2927C23.5197 23.1051 23.2653 22.9998 23.0001 22.9998ZM28.9839 10.9435C28.8419 8.51622 27.7747 6.23571 26.0019 4.57161C24.2292 2.9075 21.8858 1.98646 19.4544 1.99816C17.0229 2.00985 14.6885 2.95338 12.9319 4.63447C11.1752 6.31555 10.1299 8.60621 10.0114 11.0348C9.99678 11.2939 9.88417 11.5379 9.69638 11.7171C9.50859 11.8963 9.25967 11.9973 9.00011 11.9998H8.92511C8.66113 11.9762 8.41677 11.8505 8.24402 11.6495C8.07126 11.4485 7.98376 11.1881 8.00011 10.9235C8.03486 10.2282 8.13234 9.53752 8.29136 8.85978C8.31188 8.77468 8.30969 8.68569 8.28503 8.6017C8.26036 8.51771 8.21408 8.44166 8.1508 8.38117C8.08753 8.32068 8.00948 8.27787 7.92447 8.257C7.83945 8.23614 7.75045 8.23796 7.66636 8.26228C6.31273 8.6622 5.1257 9.49116 4.28409 10.6243C3.44247 11.7574 2.99186 13.1333 3.00011 14.5448C3.02511 18.1335 6.01511 20.9998 9.60511 20.9998H19.5001C20.7941 20.9983 22.0742 20.7328 23.262 20.2195C24.4498 19.7062 25.5204 18.9559 26.4082 18.0145C27.296 17.0732 27.9823 15.9605 28.4252 14.7446C28.8681 13.5288 29.0582 12.2354 28.9839 10.9435Z" fill="#4A4A4F"/>
</svg>
