<svg width="32" height="32" viewBox="0 0 32 32" fill="none" xmlns="http://www.w3.org/2000/svg">
<path d="M30.9999 16.0002C31.0062 18.3816 30.2336 20.6998 28.7999 22.6014C28.7209 22.7065 28.6221 22.7949 28.5089 22.8618C28.3958 22.9286 28.2705 22.9725 28.1404 22.991C28.0103 23.0094 27.8778 23.0021 27.7505 22.9694C27.6233 22.9366 27.5037 22.8791 27.3986 22.8002C27.2936 22.7212 27.2051 22.6223 27.1383 22.5092C27.0714 22.396 27.0275 22.2708 27.0091 22.1407C26.9906 22.0106 26.9979 21.8781 27.0307 21.7508C27.0634 21.6235 27.1209 21.504 27.1999 21.3989C28.3734 19.8442 29.0056 17.948 28.9999 16.0002C28.9999 13.6132 28.0517 11.324 26.3638 9.6362C24.676 7.94837 22.3868 7.00016 19.9999 7.00016C17.6129 7.00016 15.3238 7.94837 13.6359 9.6362C11.9481 11.324 10.9999 13.6132 10.9999 16.0002C10.9999 16.2654 10.8945 16.5197 10.707 16.7073C10.5195 16.8948 10.2651 17.0002 9.99988 17.0002C9.73467 17.0002 9.48031 16.8948 9.29278 16.7073C9.10524 16.5197 8.99988 16.2654 8.99988 16.0002C8.9994 14.991 9.13778 13.9866 9.41113 13.0152C9.27489 13.0002 9.13738 13.0002 8.99988 13.0002C7.40859 13.0002 5.88246 13.6323 4.75724 14.7575C3.63203 15.8827 2.99988 17.4089 2.99988 19.0002C2.99988 20.5915 3.63203 22.1176 4.75724 23.2428C5.88246 24.368 7.40859 25.0002 8.99988 25.0002H11.9999C12.2651 25.0002 12.5195 25.1055 12.707 25.2931C12.8945 25.4806 12.9999 25.7349 12.9999 26.0002C12.9999 26.2654 12.8945 26.5197 12.707 26.7073C12.5195 26.8948 12.2651 27.0002 11.9999 27.0002H8.99988C7.9001 27.0004 6.81208 26.7739 5.80377 26.3348C4.79546 25.8957 3.88853 25.2533 3.1396 24.448C2.39068 23.6426 1.81585 22.6914 1.45103 21.6539C1.08621 20.6164 0.939225 19.5148 1.01926 18.418C1.09929 17.3211 1.40462 16.2525 1.91619 15.279C2.42775 14.3054 3.13455 13.4478 3.99245 12.7596C4.85035 12.0715 5.84092 11.5677 6.90229 11.2795C7.96366 10.9914 9.07304 10.9253 10.1611 11.0852C11.2691 8.8691 13.0928 7.092 15.3368 6.0417C17.5808 4.99139 20.1136 4.7294 22.525 5.29816C24.9365 5.86692 27.0853 7.23312 28.6234 9.17547C30.1616 11.1178 30.9989 13.5225 30.9999 16.0002ZM19.7074 15.2927C19.6145 15.1997 19.5042 15.1259 19.3828 15.0756C19.2614 15.0253 19.1313 14.9994 18.9999 14.9994C18.8685 14.9994 18.7383 15.0253 18.6169 15.0756C18.4955 15.1259 18.3853 15.1997 18.2924 15.2927L14.2924 19.2927C14.1995 19.3856 14.1258 19.4959 14.0755 19.6173C14.0252 19.7387 13.9993 19.8688 13.9993 20.0002C13.9993 20.1316 14.0252 20.2617 14.0755 20.3831C14.1258 20.5044 14.1995 20.6147 14.2924 20.7077C14.48 20.8953 14.7345 21.0007 14.9999 21.0007C15.1313 21.0007 15.2614 20.9748 15.3828 20.9246C15.5042 20.8743 15.6145 20.8006 15.7074 20.7077L17.9999 18.4139V26.0002C17.9999 26.2654 18.1052 26.5197 18.2928 26.7073C18.4803 26.8948 18.7347 27.0002 18.9999 27.0002C19.2651 27.0002 19.5195 26.8948 19.707 26.7073C19.8945 26.5197 19.9999 26.2654 19.9999 26.0002V18.4139L22.2924 20.7077C22.3853 20.8006 22.4956 20.8743 22.617 20.9246C22.7384 20.9748 22.8685 21.0007 22.9999 21.0007C23.1313 21.0007 23.2614 20.9748 23.3828 20.9246C23.5042 20.8743 23.6145 20.8006 23.7074 20.7077C23.8003 20.6147 23.874 20.5044 23.9243 20.3831C23.9746 20.2617 24.0004 20.1316 24.0004 20.0002C24.0004 19.8688 23.9746 19.7387 23.9243 19.6173C23.874 19.4959 23.8003 19.3856 23.7074 19.2927L19.7074 15.2927Z" fill="#4A4A4F"/>
</svg>
