<svg width="32" height="32" viewBox="0 0 32 32" fill="none" xmlns="http://www.w3.org/2000/svg">
<path d="M15 25.0002H9C8.73478 25.0002 8.48043 24.8948 8.29289 24.7073C8.10536 24.5198 8 24.2654 8 24.0002C8 23.735 8.10536 23.4806 8.29289 23.2931C8.48043 23.1056 8.73478 23.0002 9 23.0002H15C15.2652 23.0002 15.5196 23.1056 15.7071 23.2931C15.8946 23.4806 16 23.735 16 24.0002C16 24.2654 15.8946 24.5198 15.7071 24.7073C15.5196 24.8948 15.2652 25.0002 15 25.0002ZM23 23.0002H20C19.7348 23.0002 19.4804 23.1056 19.2929 23.2931C19.1054 23.4806 19 23.735 19 24.0002C19 24.2654 19.1054 24.5198 19.2929 24.7073C19.4804 24.8948 19.7348 25.0002 20 25.0002H23C23.2652 25.0002 23.5196 24.8948 23.7071 24.7073C23.8946 24.5198 24 24.2654 24 24.0002C24 23.735 23.8946 23.4806 23.7071 23.2931C23.5196 23.1056 23.2652 23.0002 23 23.0002ZM20 27.0002H13C12.7348 27.0002 12.4804 27.1056 12.2929 27.2931C12.1054 27.4806 12 27.735 12 28.0002C12 28.2654 12.1054 28.5198 12.2929 28.7073C12.4804 28.8948 12.7348 29.0002 13 29.0002H20C20.2652 29.0002 20.5196 28.8948 20.7071 28.7073C20.8946 28.5198 21 28.2654 21 28.0002C21 27.735 20.8946 27.4806 20.7071 27.2931C20.5196 27.1056 20.2652 27.0002 20 27.0002ZM29 11.5002C28.9974 14.0189 27.9956 16.4338 26.2146 18.2148C24.4336 19.9958 22.0187 20.9975 19.5 21.0002H9.5C7.77609 21.0002 6.12279 20.3154 4.90381 19.0964C3.68482 17.8774 3 16.2241 3 14.5002C3 12.7763 3.68482 11.123 4.90381 9.904C6.12279 8.68502 7.77609 8.0002 9.5 8.0002C9.87367 8.00052 10.2467 8.03229 10.615 8.0952C11.4125 6.02366 12.9096 4.29636 14.8467 3.21256C16.7839 2.12876 19.0392 1.75676 21.2219 2.16099C23.4045 2.56523 25.377 3.72024 26.7975 5.42591C28.2181 7.13158 28.9973 9.28044 29 11.5002ZM27 11.5002C26.992 9.55277 26.2276 7.68465 24.8681 6.29023C23.5087 4.89582 21.6605 4.08423 19.7139 4.0268C17.7673 3.96938 15.8746 4.67061 14.4353 5.98247C12.996 7.29432 12.1228 9.11413 12 11.0577C11.9924 11.189 11.9591 11.3176 11.9019 11.436C11.8446 11.5544 11.7646 11.6604 11.6664 11.748C11.4681 11.9247 11.2077 12.0154 10.9425 12.0002C10.6773 11.9849 10.429 11.865 10.2522 11.6666C10.0755 11.4683 9.98475 11.2079 10 10.9427C10.0175 10.6377 10.0496 10.3364 10.0962 10.0389C9.89851 10.0136 9.69937 10.0006 9.5 10.0002C8.30653 10.0002 7.16193 10.4743 6.31802 11.3182C5.47411 12.1621 5 13.3067 5 14.5002C5 15.6937 5.47411 16.8383 6.31802 17.6822C7.16193 18.5261 8.30653 19.0002 9.5 19.0002H19.5C21.4884 18.9979 23.3947 18.207 24.8007 16.8009C26.2068 15.3949 26.9977 13.4886 27 11.5002Z" fill="#4A4A4F"/>
</svg>
