<svg width="32" height="32" viewBox="0 0 32 32" fill="none" xmlns="http://www.w3.org/2000/svg">
<path d="M30.9912 15.565C30.7637 9.6925 25.8837 5 20.0075 5C17.9634 5.00032 15.9597 5.56958 14.2207 6.64404C12.4817 7.71851 11.0761 9.25577 10.1613 11.0837C9.40087 12.5992 9.00332 14.2707 9 15.9663C9.00392 16.2239 8.91043 16.4735 8.73823 16.6652C8.56603 16.8568 8.32782 16.9764 8.07125 17C7.93406 17.0098 7.79632 16.9912 7.66665 16.9453C7.53698 16.8995 7.41816 16.8274 7.31762 16.7335C7.21708 16.6397 7.13698 16.5261 7.08233 16.3999C7.02768 16.2737 6.99965 16.1375 7 16C6.99894 14.6013 7.22436 13.2116 7.6675 11.885C7.6967 11.7999 7.70241 11.7086 7.68404 11.6205C7.66566 11.5325 7.62388 11.451 7.5631 11.3848C7.50232 11.3185 7.42478 11.2698 7.33866 11.2439C7.25254 11.218 7.16102 11.2158 7.07375 11.2375C5.34103 11.6694 3.80227 12.6678 2.70185 14.0742C1.60143 15.4805 1.00244 17.2143 1 19C1 23.3988 4.71875 27 9.125 27H20C21.4807 26.9984 22.9459 26.6982 24.3079 26.1173C25.6699 25.5364 26.9007 24.6868 27.9268 23.6193C28.9529 22.5518 29.7531 21.2883 30.2797 19.9044C30.8062 18.5205 31.0482 17.0446 30.9912 15.565ZM23.7075 19.2925C23.8004 19.3854 23.8741 19.4957 23.9244 19.6171C23.9747 19.7385 24.0006 19.8686 24.0006 20C24.0006 20.1314 23.9747 20.2615 23.9244 20.3829C23.8741 20.5043 23.8004 20.6146 23.7075 20.7075C23.6146 20.8004 23.5043 20.8741 23.3829 20.9244C23.2615 20.9747 23.1314 21.0006 23 21.0006C22.8686 21.0006 22.7385 20.9747 22.6171 20.9244C22.4957 20.8741 22.3854 20.8004 22.2925 20.7075L20 18.4137L17.7075 20.7075C17.5199 20.8951 17.2654 21.0006 17 21.0006C16.7346 21.0006 16.4801 20.8951 16.2925 20.7075C16.1049 20.5199 15.9994 20.2654 15.9994 20C15.9994 19.7346 16.1049 19.4801 16.2925 19.2925L18.5863 17L16.2925 14.7075C16.1049 14.5199 15.9994 14.2654 15.9994 14C15.9994 13.7346 16.1049 13.4801 16.2925 13.2925C16.4801 13.1049 16.7346 12.9994 17 12.9994C17.2654 12.9994 17.5199 13.1049 17.7075 13.2925L20 15.5863L22.2925 13.2925C22.3854 13.1996 22.4957 13.1259 22.6171 13.0756C22.7385 13.0253 22.8686 12.9994 23 12.9994C23.1314 12.9994 23.2615 13.0253 23.3829 13.0756C23.5043 13.1259 23.6146 13.1996 23.7075 13.2925C23.8004 13.3854 23.8741 13.4957 23.9244 13.6171C23.9747 13.7385 24.0006 13.8686 24.0006 14C24.0006 14.1314 23.9747 14.2615 23.9244 14.3829C23.8741 14.5043 23.8004 14.6146 23.7075 14.7075L21.4137 17L23.7075 19.2925Z" fill="#4A4A4F"/>
</svg>
