<svg width="32" height="32" viewBox="0 0 32 32" fill="none" xmlns="http://www.w3.org/2000/svg">
<path d="M19.5 2C17.5768 2.0002 15.6988 2.58256 14.1129 3.67046C12.527 4.75836 11.3075 6.30085 10.615 8.095C10.2467 8.0321 9.87367 8.00032 9.5 8C7.77609 8 6.12279 8.68482 4.90381 9.90381C3.68482 11.1228 3 12.7761 3 14.5C3 16.2239 3.68482 17.8772 4.90381 19.0962C6.12279 20.3152 7.77609 21 9.5 21H14.2338L12.1425 24.485C12.0513 24.6368 12.0021 24.81 11.9998 24.987C11.9975 25.164 12.0422 25.3385 12.1294 25.4926C12.2166 25.6467 12.3432 25.7748 12.4961 25.864C12.6491 25.9531 12.823 26.0001 13 26H16.2337L14.1425 29.485C14.0749 29.5976 14.0301 29.7224 14.0107 29.8524C13.9913 29.9823 13.9977 30.1147 14.0295 30.2422C14.0613 30.3696 14.1179 30.4896 14.1961 30.5951C14.2742 30.7007 14.3724 30.7899 14.485 30.8575C14.7124 30.9941 14.9848 31.0347 15.2422 30.9705C15.3696 30.9387 15.4896 30.8821 15.5951 30.8039C15.7007 30.7258 15.7899 30.6276 15.8575 30.515L18.8575 25.515C18.9487 25.3632 18.9979 25.19 19.0002 25.013C19.0025 24.836 18.9578 24.6615 18.8706 24.5074C18.7834 24.3533 18.6568 24.2252 18.5039 24.136C18.3509 24.0469 18.177 23.9999 18 24H14.7662L16.5662 21H19.5C22.0196 21 24.4359 19.9991 26.2175 18.2175C27.9991 16.4359 29 14.0196 29 11.5C29 8.98044 27.9991 6.56408 26.2175 4.78249C24.4359 3.00089 22.0196 2 19.5 2ZM19.5 19H9.5C8.30653 19 7.16193 18.5259 6.31802 17.682C5.47411 16.8381 5 15.6935 5 14.5C5 13.3065 5.47411 12.1619 6.31802 11.318C7.16193 10.4741 8.30653 10 9.5 10C9.69978 10.0004 9.89934 10.0133 10.0975 10.0387C10.0508 10.3362 10.0188 10.6375 10.0013 10.9425C9.986 11.2077 10.0767 11.4681 10.2535 11.6664C10.4302 11.8648 10.6785 11.9847 10.9438 12C11.209 12.0153 11.4694 11.9245 11.6677 11.7478C11.866 11.571 11.986 11.3227 12.0013 11.0575C12.0862 9.59381 12.5979 8.18703 13.4731 7.01079C14.3484 5.83455 15.5489 4.94032 16.9264 4.43848C18.304 3.93664 19.7984 3.84915 21.2251 4.18681C22.6519 4.52447 23.9485 5.27251 24.955 6.33858C25.9616 7.40466 26.6339 8.74212 26.8891 10.1859C27.1442 11.6297 26.9711 13.1166 26.3909 14.4631C25.8108 15.8096 24.8491 16.9567 23.6246 17.763C22.4 18.5692 20.9661 18.9992 19.5 19Z" fill="#4A4A4F"/>
</svg>
