<svg width="32" height="32" viewBox="0 0 32 32" fill="none" xmlns="http://www.w3.org/2000/svg">
<path d="M20.5001 8.99976C19.9826 8.99947 19.4659 9.04128 18.9551 9.12476C18.7734 7.24771 18.0062 5.4753 16.7619 4.05825C15.5176 2.64121 13.8592 1.65128 12.0214 1.22851C11.8563 1.1906 11.6843 1.19521 11.5215 1.24194C11.3588 1.28866 11.2105 1.37596 11.0907 1.49565C10.9709 1.61534 10.8834 1.76349 10.8366 1.92622C10.7897 2.08895 10.7849 2.26092 10.8226 2.42601C10.9406 2.94227 11.0002 3.47018 11.0001 3.99976C10.9981 5.85567 10.26 7.63499 8.94766 8.94732C7.63534 10.2596 5.85601 10.9978 4.00011 10.9998C3.47053 10.9998 2.94262 10.9403 2.42636 10.8223C2.26118 10.7843 2.08905 10.7889 1.92615 10.8356C1.76324 10.8824 1.61489 10.9698 1.49504 11.0897C1.37519 11.2095 1.28777 11.3579 1.24099 11.5208C1.19421 11.6837 1.18961 11.8558 1.22761 12.021C1.49625 13.1794 1.99112 14.2734 2.68379 15.24C3.37645 16.2066 4.25326 17.0268 5.26386 17.6535C4.55311 18.6218 4.12456 19.7681 4.02576 20.9651C3.92697 22.1622 4.1618 23.3632 4.70418 24.4349C5.24657 25.5066 6.07531 26.4071 7.09841 27.0363C8.12151 27.6656 9.29897 27.9991 10.5001 27.9998H20.5001C23.0197 27.9998 25.436 26.9989 27.2176 25.2173C28.9992 23.4357 30.0001 21.0193 30.0001 18.4998C30.0001 15.9802 28.9992 13.5638 27.2176 11.7823C25.436 10.0007 23.0197 8.99976 20.5001 8.99976ZM3.67136 12.9998C3.78011 12.9998 3.89011 12.9998 4.00011 12.9998C6.38624 12.9971 8.67389 12.0481 10.3611 10.3608C12.0484 8.67355 12.9975 6.3859 13.0001 3.99976C13.0001 3.88851 13.0001 3.77726 13.0001 3.66601C14.1525 4.20549 15.1347 5.05075 15.84 6.10977C16.5453 7.1688 16.9466 8.40101 17.0001 9.67226C15.7792 10.1581 14.6716 10.8906 13.7467 11.8241C12.8219 12.7576 12.0996 13.8719 11.6251 15.0973C11.2536 15.0324 10.8772 14.9998 10.5001 14.9998C9.15584 14.9995 7.84497 15.4186 6.75011 16.1985C5.40517 15.493 4.32499 14.3707 3.67136 12.9998Z" fill="#4A4A4F"/>
</svg>
