<svg width="32" height="32" viewBox="0 0 32 32" fill="none" xmlns="http://www.w3.org/2000/svg">
<path d="M20.5001 8.99976C19.9826 8.99953 19.4659 9.04133 18.9551 9.12476C18.7734 7.24771 18.0062 5.4753 16.7619 4.05825C15.5176 2.64121 13.8592 1.65128 12.0214 1.22851C11.8563 1.1906 11.6843 1.19521 11.5215 1.24194C11.3588 1.28866 11.2105 1.37596 11.0907 1.49565C10.9709 1.61534 10.8834 1.76349 10.8366 1.92622C10.7897 2.08895 10.7849 2.26092 10.8226 2.42601C10.9406 2.94227 11.0002 3.47018 11.0001 3.99976C10.9981 5.85567 10.26 7.63499 8.94766 8.94732C7.63534 10.2596 5.85601 10.9978 4.00011 10.9998C3.47053 10.9998 2.94262 10.9403 2.42636 10.8223C2.26118 10.7843 2.08905 10.7889 1.92615 10.8356C1.76324 10.8824 1.61489 10.9698 1.49504 11.0897C1.37519 11.2095 1.28777 11.3579 1.24099 11.5208C1.19421 11.6837 1.18961 11.8558 1.22761 12.021C1.49625 13.1794 1.99112 14.2734 2.68379 15.24C3.37645 16.2066 4.25326 17.0268 5.26386 17.6535C4.55311 18.6218 4.12456 19.7681 4.02576 20.9651C3.92697 22.1622 4.1618 23.3632 4.70418 24.4349C5.24657 25.5066 6.07531 26.4071 7.09841 27.0363C8.12151 27.6656 9.29897 27.9991 10.5001 27.9998H20.5001C23.0197 27.9998 25.436 26.9989 27.2176 25.2173C28.9992 23.4357 30.0001 21.0193 30.0001 18.4998C30.0001 15.9802 28.9992 13.5638 27.2176 11.7823C25.436 10.0007 23.0197 8.99976 20.5001 8.99976ZM3.67136 12.9998C3.78011 12.9998 3.89011 12.9998 4.00011 12.9998C6.38624 12.9971 8.67389 12.0481 10.3611 10.3608C12.0484 8.67355 12.9975 6.3859 13.0001 3.99976C13.0001 3.88851 13.0001 3.77726 13.0001 3.66601C14.1516 4.20489 15.1334 5.04915 15.8386 6.107C16.5439 7.16485 16.9456 8.39581 17.0001 9.66601C15.7787 10.151 14.6707 10.8833 13.7458 11.8169C12.8208 12.7505 12.0988 13.8652 11.6251 15.091C10.7796 14.9447 9.91358 14.9673 9.07688 15.1573C8.24017 15.3474 7.44938 15.7013 6.75011 16.1985C5.40517 15.493 4.32499 14.3707 3.67136 12.9998ZM20.5001 25.9998H10.5001C9.88464 25.9986 9.27594 25.8713 8.71166 25.6255C8.14738 25.3798 7.6395 25.0209 7.21944 24.5711C6.79937 24.1212 6.47605 23.59 6.26946 23.0102C6.06287 22.4305 5.97741 21.8145 6.01836 21.2004C6.0593 20.5863 6.22579 19.9871 6.50752 19.4399C6.78925 18.8927 7.18024 18.4091 7.6563 18.019C8.13237 17.6289 8.68339 17.3407 9.27531 17.172C9.86722 17.0034 10.4874 16.9579 11.0976 17.0385C11.0514 17.3348 11.0189 17.6373 11.0014 17.9423C10.9861 18.2075 11.0768 18.4679 11.2536 18.6662C11.4303 18.8645 11.6786 18.9845 11.9439 18.9998C12.2091 19.015 12.4695 18.9243 12.6678 18.7475C12.8661 18.5708 12.9861 18.3225 13.0014 18.0573C13.0294 17.5585 13.1082 17.0639 13.2364 16.581C13.2364 16.561 13.2476 16.541 13.2514 16.521C13.6189 15.1703 14.3568 13.9493 15.3816 12.9958C16.4065 12.0423 17.6775 11.3943 19.0511 11.125C20.4248 10.8557 21.8464 10.9758 23.1554 11.4718C24.4644 11.9677 25.6087 12.8198 26.459 13.9317C27.3093 15.0437 27.8319 16.3712 27.9676 17.7644C28.1033 19.1576 27.8468 20.561 27.227 21.8161C26.6073 23.0713 25.649 24.1282 24.4603 24.8674C23.2716 25.6067 21.8999 25.9989 20.5001 25.9998Z" fill="#4A4A4F"/>
</svg>
