<svg width="32" height="32" viewBox="0 0 32 32" fill="none" xmlns="http://www.w3.org/2000/svg">
<path d="M29.9999 18.0001C29.9994 19.2386 29.6704 20.4548 29.0464 21.5246C28.4223 22.5944 27.5256 23.4795 26.4478 24.0895C25.3699 24.6995 24.1495 25.0127 22.9111 24.997C21.6727 24.9813 20.4607 24.6373 19.3987 24.0001H18.8437L19.9574 27.7126C20.0022 27.8619 20.0115 28.0196 19.9845 28.1732C19.9576 28.3267 19.8951 28.4718 19.802 28.5969C19.709 28.722 19.588 28.8236 19.4488 28.8936C19.3095 28.9636 19.1558 29.0001 18.9999 29.0001H12.9999C12.844 29.0001 12.6903 28.9636 12.551 28.8936C12.4118 28.8236 12.2908 28.722 12.1978 28.5969C12.1047 28.4718 12.0422 28.3267 12.0153 28.1732C11.9883 28.0196 11.9976 27.8619 12.0424 27.7126L13.1562 24.0001H12.6012C11.6762 24.5559 10.6354 24.8904 9.55979 24.9773C8.48424 25.0643 7.40314 24.9015 6.40094 24.5015C5.39873 24.1015 4.50257 23.4752 3.78245 22.6716C3.06232 21.868 2.53774 20.9088 2.24966 19.8689C1.96159 18.829 1.91783 17.7365 2.1218 16.6769C2.32577 15.6173 2.77196 14.6192 3.42549 13.7606C4.07903 12.9019 4.92223 12.206 5.88923 11.7271C6.85623 11.2483 7.92084 10.9995 8.99991 11.0001C9.0974 11.0001 9.19366 11.0001 9.29116 11.0001C8.97999 9.9554 8.91711 8.85244 9.10754 7.77913C9.29796 6.70581 9.73643 5.6918 10.388 4.81789C11.0396 3.94397 11.8862 3.2343 12.8605 2.74542C13.8348 2.25654 14.9098 2.00195 15.9999 2.00195C17.09 2.00195 18.165 2.25654 19.1393 2.74542C20.1136 3.2343 20.9603 3.94397 21.6118 4.81789C22.2634 5.6918 22.7018 6.70581 22.8923 7.77913C23.0827 8.85244 23.0198 9.9554 22.7087 11.0001C22.8049 11.0001 22.9024 11.0001 22.9999 11.0001C24.8558 11.0021 26.6351 11.7402 27.9475 13.0526C29.2598 14.3649 29.9979 16.1442 29.9999 18.0001Z" fill="#4A4A4F"/>
</svg>
