<svg width="32" height="32" viewBox="0 0 32 32" fill="none" xmlns="http://www.w3.org/2000/svg">
<path d="M23 11.0001C22.9025 11.0001 22.805 11.0001 22.7088 11.0001C23.0199 9.9554 23.0828 8.85244 22.8924 7.77913C22.702 6.70581 22.2635 5.6918 21.6119 4.81789C20.9604 3.94397 20.1137 3.2343 19.1394 2.74542C18.1651 2.25654 17.0901 2.00195 16 2.00195C14.9099 2.00195 13.8349 2.25654 12.8606 2.74542C11.8863 3.2343 11.0397 3.94397 10.3881 4.81789C9.73654 5.6918 9.29808 6.70581 9.10765 7.77913C8.91723 8.85244 8.9801 9.9554 9.29127 11.0001C9.19377 11.0001 9.09752 11.0001 9.00002 11.0001C7.94728 11.0006 6.90822 11.2386 5.96018 11.6963C5.01214 12.1539 4.17954 12.8195 3.52435 13.6435C2.86916 14.4675 2.40827 15.4287 2.17597 16.4555C1.94367 17.4823 1.94595 18.5482 2.18265 19.574C2.41934 20.5998 2.88435 21.559 3.54307 22.3801C4.20178 23.2013 5.03723 23.8634 5.98722 24.317C6.93721 24.7706 7.97728 25.0041 9.03001 25.0001C10.0827 24.9961 11.121 24.7547 12.0675 24.2939L11.0425 27.7126C10.9977 27.8619 10.9884 28.0196 11.0154 28.1732C11.0424 28.3267 11.1048 28.4718 11.1979 28.5969C11.2909 28.722 11.4119 28.8236 11.5511 28.8936C11.6904 28.9636 11.8441 29.0001 12 29.0001H20C20.1559 29.0001 20.3096 28.9636 20.4489 28.8936C20.5882 28.8236 20.7091 28.722 20.8022 28.5969C20.8952 28.4718 20.9577 28.3267 20.9847 28.1732C21.0116 28.0196 21.0023 27.8619 20.9575 27.7126L19.9325 24.2939C20.879 24.7547 21.9173 24.9961 22.97 25.0001C24.0228 25.0041 25.0628 24.7706 26.0128 24.317C26.9628 23.8634 27.7983 23.2013 28.457 22.3801C29.1157 21.559 29.5807 20.5998 29.8174 19.574C30.0541 18.5482 30.0564 17.4823 29.8241 16.4555C29.5918 15.4287 29.1309 14.4675 28.4757 13.6435C27.8205 12.8195 26.9879 12.1539 26.0399 11.6963C25.0918 11.2386 24.0527 11.0006 23 11.0001ZM23 23.0001C22.1722 23 21.3575 22.7943 20.6288 22.4016C19.9001 22.0089 19.2803 21.4414 18.825 20.7501C18.6924 20.5507 18.4926 20.4054 18.262 20.3408C18.0313 20.2762 17.7851 20.2966 17.5682 20.3981C17.3513 20.4997 17.178 20.6758 17.0799 20.8943C16.9819 21.1128 16.9655 21.3593 17.0338 21.5889L18.6588 26.9964H13.3463L14.9713 21.5889C15.0438 21.3577 15.03 21.108 14.9323 20.8863C14.8347 20.6645 14.6598 20.4858 14.4403 20.3833C14.2207 20.2807 13.9714 20.2614 13.7387 20.3289C13.506 20.3964 13.3057 20.5461 13.175 20.7501C12.6583 21.5327 11.932 22.1542 11.079 22.5436C10.2259 22.9331 9.28056 23.0748 8.35082 22.9526C7.42108 22.8304 6.54445 22.4492 5.82102 21.8525C5.0976 21.2558 4.55655 20.4677 4.25965 19.5782C3.96276 18.6888 3.92199 17.7337 4.14199 16.8221C4.362 15.9106 4.83392 15.0792 5.50386 14.4231C6.17379 13.7669 7.01475 13.3124 7.93069 13.1114C8.84663 12.9104 9.80064 12.971 10.6838 13.2864C10.8821 13.3573 11.0977 13.3638 11.2999 13.3049C11.5021 13.246 11.6806 13.1248 11.8099 12.9585C11.9392 12.7923 12.0126 12.5894 12.0198 12.379C12.027 12.1685 11.9676 11.9611 11.85 11.7864C11.3444 11.0339 11.0528 10.1582 11.0065 9.25278C10.9603 8.3474 11.161 7.44647 11.5873 6.64639C12.0136 5.84631 12.6494 5.17719 13.4267 4.71061C14.2039 4.24403 15.0935 3.99755 16 3.99755C16.9066 3.99755 17.7961 4.24403 18.5734 4.71061C19.3506 5.17719 19.9864 5.84631 20.4127 6.64639C20.839 7.44647 21.0398 8.3474 20.9935 9.25278C20.9472 10.1582 20.6557 11.0339 20.15 11.7864C20.0324 11.9611 19.973 12.1685 19.9802 12.379C19.9874 12.5894 20.0609 12.7923 20.1901 12.9585C20.3194 13.1248 20.4979 13.246 20.7001 13.3049C20.9023 13.3638 21.118 13.3573 21.3163 13.2864C22.0021 13.0438 22.7327 12.9537 23.4569 13.0226C24.1812 13.0915 24.8817 13.3175 25.5096 13.6851C26.1374 14.0526 26.6775 14.5527 27.0922 15.1505C27.5068 15.7483 27.786 16.4294 27.9102 17.1462C28.0345 17.863 28.0008 18.5983 27.8116 19.3008C27.6223 20.0033 27.282 20.656 26.8145 21.2134C26.347 21.7708 25.7634 22.2194 25.1046 22.528C24.4458 22.8366 23.7275 22.9977 23 23.0001Z" fill="#4A4A4F"/>
</svg>
