<svg width="32" height="32" viewBox="0 0 32 32" fill="none" xmlns="http://www.w3.org/2000/svg">
<path d="M30.1964 21.4L17.6664 12L20.5989 9.8C20.7233 9.70698 20.8244 9.58626 20.894 9.44739C20.9637 9.30853 21 9.15535 21.0002 9C21.0002 7.67392 20.4734 6.40215 19.5357 5.46447C18.598 4.52678 17.3262 4 16.0002 4C14.6741 4 13.4023 4.52678 12.4646 5.46447C11.5269 6.40215 11.0002 7.67392 11.0002 9C11.0002 9.26522 11.1055 9.51957 11.2931 9.70711C11.4806 9.89464 11.7349 10 12.0002 10C12.2654 10 12.5197 9.89464 12.7073 9.70711C12.8948 9.51957 13.0002 9.26522 13.0002 9C13.0022 8.24678 13.2875 7.52188 13.7994 6.96931C14.3112 6.41674 15.0122 6.07695 15.7631 6.01744C16.514 5.95792 17.2598 6.18304 17.8523 6.64807C18.4448 7.11309 18.8408 7.784 18.9614 8.5275L1.80391 21.4C1.46835 21.6517 1.22041 22.0025 1.09516 22.4028C0.969906 22.8031 0.97368 23.2326 1.10595 23.6307C1.23821 24.0287 1.49228 24.3751 1.83221 24.6208C2.17213 24.8666 2.58072 24.9992 3.00016 25H29.0002C29.4199 25 29.8291 24.8679 30.1696 24.6225C30.5101 24.377 30.7648 24.0307 30.8975 23.6325C31.0303 23.2342 31.0343 22.8043 30.9092 22.4037C30.784 22.003 30.536 21.6519 30.2002 21.4H30.1964ZM4.09141 23C6.70016 21.3237 11.1864 19 16.0002 19C20.8139 19 25.3002 21.3237 27.9089 23H4.09141Z" fill="#4A4A4F"/>
</svg>
