<svg width="32" height="32" viewBox="0 0 32 32" fill="none" xmlns="http://www.w3.org/2000/svg">
<path d="M22 11C22.9516 10.9915 23.8856 11.2561 24.6912 11.7625C24.9179 11.9076 25.1793 11.989 25.4482 11.9983C25.7171 12.0076 25.9836 11.9444 26.2197 11.8153C26.4558 11.6862 26.6528 11.496 26.7901 11.2646C26.9273 11.0331 26.9999 10.7691 27 10.5V6C27 5.46957 26.7893 4.96086 26.4142 4.58579C26.0391 4.21071 25.5304 4 25 4H7C6.46957 4 5.96086 4.21071 5.58579 4.58579C5.21071 4.96086 5 5.46957 5 6V26C5 26.5304 5.21071 27.0391 5.58579 27.4142C5.96086 27.7893 6.46957 28 7 28H25C25.5304 28 26.0391 27.7893 26.4142 27.4142C26.7893 27.0391 27 26.5304 27 26V21.5C26.9997 21.2314 26.9272 20.9678 26.7902 20.7368C26.6532 20.5058 26.4566 20.3158 26.2211 20.1867C25.9856 20.0575 25.7197 19.994 25.4513 20.0027C25.1828 20.0115 24.9216 20.0921 24.695 20.2362C23.7887 20.8175 23.0188 21.0375 22.04 21H22C20.6739 21 19.4021 20.4732 18.4645 19.5355C17.5268 18.5979 17 17.3261 17 16C17 14.6739 17.5268 13.4021 18.4645 12.4645C19.4021 11.5268 20.6739 11 22 11ZM15 16C15.0023 17.8523 15.7378 19.6285 17.0457 20.9401C18.3537 22.2518 20.1277 22.9924 21.98 23C23.025 23.052 24.0656 22.8319 25 22.3612V26H7V6H25V9.65375C23.9305 9.15739 22.7534 8.9377 21.5769 9.01486C20.4003 9.09202 19.262 9.46355 18.2665 10.0953C17.271 10.7271 16.4501 11.5989 15.8794 12.6306C15.3086 13.6624 15.0062 14.8209 15 16Z" fill="#4A4A4F"/>
</svg>
