<svg width="32" height="32" viewBox="0 0 32 32" fill="none" xmlns="http://www.w3.org/2000/svg">
<path d="M17 16C17 17.3261 17.5268 18.5979 18.4645 19.5355C19.4021 20.4732 20.6739 21 22 21H22.04C23.0188 21.0375 23.79 20.8175 24.695 20.2362C24.9216 20.0921 25.1828 20.0115 25.4513 20.0027C25.7197 19.994 25.9856 20.0575 26.2211 20.1867C26.4566 20.3158 26.6532 20.5058 26.7902 20.7368C26.9272 20.9678 26.9997 21.2314 27 21.5V26C27 26.5304 26.7893 27.0391 26.4142 27.4142C26.0391 27.7893 25.5304 28 25 28H7C6.46957 28 5.96086 27.7893 5.58579 27.4142C5.21071 27.0391 5 26.5304 5 26V6C5 5.46957 5.21071 4.96086 5.58579 4.58579C5.96086 4.21071 6.46957 4 7 4H25C25.5304 4 26.0391 4.21071 26.4142 4.58579C26.7893 4.96086 27 5.46957 27 6V10.5C26.9999 10.7691 26.9273 11.0331 26.7901 11.2646C26.6528 11.496 26.4558 11.6862 26.2197 11.8153C25.9836 11.9444 25.7171 12.0076 25.4482 11.9983C25.1793 11.989 24.9179 11.9076 24.6912 11.7625C23.932 11.2886 23.0601 11.026 22.1654 11.0016C21.2708 10.9773 20.3859 11.1922 19.602 11.624C18.8181 12.0559 18.1637 12.6891 17.7063 13.4584C17.2489 14.2277 17.0051 15.105 17 16Z" fill="#4A4A4F"/>
</svg>
