<svg width="32" height="32" viewBox="0 0 32 32" fill="none" xmlns="http://www.w3.org/2000/svg">
<path d="M11.6637 8.74977L3.49999 15.9998L11.6587 23.2498C11.7572 23.3369 11.8376 23.4426 11.8952 23.5609C11.9529 23.6791 11.9867 23.8075 11.9947 23.9388C12.0027 24.0701 11.9847 24.2016 11.9419 24.326C11.8991 24.4503 11.8322 24.565 11.745 24.6635C11.6578 24.762 11.5521 24.8424 11.4339 24.9C11.3157 24.9576 11.1873 24.9914 11.056 24.9994C10.9247 25.0075 10.7931 24.9895 10.6688 24.9467C10.5444 24.9038 10.4297 24.8369 10.3312 24.7498L1.33124 16.7498C1.22483 16.6559 1.13961 16.5405 1.08124 16.4112C1.02286 16.2819 0.992676 16.1416 0.992676 15.9998C0.992676 15.8579 1.02286 15.7176 1.08124 15.5883C1.13961 15.459 1.22483 15.3436 1.33124 15.2498L10.3312 7.24977C10.4297 7.16228 10.5445 7.09504 10.669 7.0519C10.7934 7.00876 10.9252 6.99055 11.0567 6.99833C11.1882 7.00611 11.3169 7.03971 11.4354 7.09722C11.554 7.15474 11.66 7.23503 11.7475 7.33352C11.835 7.43201 11.9022 7.54677 11.9454 7.67125C11.9885 7.79573 12.0067 7.92748 11.9989 8.05899C11.9911 8.1905 11.9575 8.31919 11.9 8.43772C11.8425 8.55624 11.7622 8.66228 11.6637 8.74977ZM30.6637 15.2498L21.6637 7.24977C21.4648 7.07373 21.2041 6.98392 20.939 7.0001C20.6739 7.01627 20.426 7.13711 20.25 7.33602C20.074 7.53493 19.9841 7.79563 20.0003 8.06076C20.0165 8.32589 20.1373 8.57373 20.3362 8.74977L28.5 15.9998L20.3412 23.2498C20.2427 23.3369 20.1624 23.4426 20.1048 23.5609C20.0471 23.6791 20.0133 23.8075 20.0053 23.9388C19.9973 24.0701 20.0152 24.2016 20.0581 24.326C20.1009 24.4503 20.1678 24.565 20.255 24.6635C20.3422 24.762 20.4479 24.8424 20.5661 24.9C20.6843 24.9576 20.8127 24.9914 20.944 24.9994C21.0753 25.0075 21.2069 24.9895 21.3312 24.9467C21.4556 24.9038 21.5702 24.8369 21.6687 24.7498L30.6687 16.7498C30.7751 16.6559 30.8604 16.5405 30.9187 16.4112C30.9771 16.2819 31.0073 16.1416 31.0073 15.9998C31.0073 15.8579 30.9771 15.7176 30.9187 15.5883C30.8604 15.459 30.7751 15.3436 30.6687 15.2498H30.6637Z" fill="#4A4A4F"/>
</svg>
