<svg width="32" height="32" viewBox="0 0 32 32" fill="none" xmlns="http://www.w3.org/2000/svg">
<path d="M8.64019 11.7688L3.56269 16L8.64019 20.2313C8.74399 20.3144 8.83018 20.4173 8.89372 20.5342C8.95725 20.651 8.99685 20.7793 9.01019 20.9116C9.02354 21.0439 9.01037 21.1775 8.97144 21.3047C8.93252 21.4318 8.86863 21.5499 8.78352 21.6521C8.6984 21.7542 8.59376 21.8384 8.47573 21.8996C8.35769 21.9609 8.22863 21.9979 8.0961 22.0087C7.96356 22.0194 7.83021 22.0036 7.70385 21.9622C7.57749 21.9208 7.46066 21.8546 7.36019 21.7675L1.36019 16.7675C1.2476 16.6737 1.15703 16.5562 1.09487 16.4235C1.03271 16.2908 1.00049 16.146 1.00049 15.9994C1.00049 15.8528 1.03271 15.7081 1.09487 15.5753C1.15703 15.4426 1.2476 15.3251 1.36019 15.2313L7.36019 10.2313C7.56407 10.0615 7.82704 9.97975 8.09123 10.0039C8.35542 10.028 8.5992 10.1561 8.76894 10.36C8.93868 10.5639 9.02047 10.8269 8.99633 11.0911C8.97218 11.3553 8.84407 11.599 8.64019 11.7688ZM30.6402 15.2313L24.6402 10.2313C24.5392 10.1472 24.4227 10.0839 24.2973 10.0449C24.1719 10.0059 24.04 9.99194 23.9091 10.0039C23.7783 10.0159 23.6512 10.0535 23.5349 10.1146C23.4186 10.1757 23.3155 10.2591 23.2314 10.36C23.0617 10.5639 22.9799 10.8269 23.0041 11.0911C23.0282 11.3553 23.1563 11.599 23.3602 11.7688L28.4377 16L23.3602 20.2313C23.2564 20.3144 23.1702 20.4173 23.1067 20.5342C23.0431 20.651 23.0035 20.7793 22.9902 20.9116C22.9768 21.0439 22.99 21.1775 23.0289 21.3047C23.0679 21.4318 23.1317 21.5499 23.2169 21.6521C23.302 21.7542 23.4066 21.8384 23.5247 21.8996C23.6427 21.9609 23.7717 21.9979 23.9043 22.0087C24.0368 22.0194 24.1702 22.0036 24.2965 21.9622C24.4229 21.9208 24.5397 21.8546 24.6402 21.7675L30.6402 16.7675C30.7528 16.6737 30.8434 16.5562 30.9055 16.4235C30.9677 16.2908 30.9999 16.146 30.9999 15.9994C30.9999 15.8528 30.9677 15.7081 30.9055 15.5753C30.8434 15.4426 30.7528 15.3251 30.6402 15.2313ZM20.3414 4.06003C20.218 4.01522 20.0869 3.99515 19.9557 4.00099C19.8245 4.00682 19.6958 4.03844 19.5768 4.09404C19.4578 4.14964 19.351 4.22813 19.2623 4.32503C19.1737 4.42193 19.105 4.53534 19.0602 4.65878L11.0602 26.6588C11.0152 26.7823 10.995 26.9135 11.0007 27.0448C11.0064 27.1761 11.038 27.3051 11.0936 27.4242C11.1492 27.5433 11.2278 27.6503 11.3248 27.739C11.4218 27.8277 11.5353 27.8965 11.6589 27.9413C11.7685 27.9802 11.8839 28.0001 12.0002 28C12.2056 28 12.4059 27.9368 12.5741 27.819C12.7423 27.7011 12.8701 27.5343 12.9402 27.3413L20.9402 5.34128C20.985 5.21784 21.0051 5.08678 20.9992 4.95558C20.9934 4.82439 20.9618 4.69562 20.9062 4.57665C20.8506 4.45767 20.7721 4.35081 20.6752 4.26217C20.5783 4.17353 20.4649 4.10484 20.3414 4.06003Z" fill="#4A4A4F"/>
</svg>
