<svg width="32" height="32" viewBox="0 0 32 32" fill="none" xmlns="http://www.w3.org/2000/svg">
<path d="M29.4737 11.1252L16.4737 4.1252C16.3281 4.04686 16.1654 4.00586 16 4.00586C15.8346 4.00586 15.6719 4.04686 15.5262 4.1252L2.52625 11.1252C2.36801 11.2103 2.23564 11.3365 2.14303 11.4905C2.05043 11.6444 2.00102 11.8205 2 12.0002V20.0002C2.00102 20.1799 2.05043 20.356 2.14303 20.5099C2.23564 20.6639 2.36801 20.7901 2.52625 20.8752L14.2625 27.2002C14.3387 27.2413 14.4242 27.262 14.5107 27.2601C14.5973 27.2582 14.6818 27.2339 14.7562 27.1896C14.8305 27.1452 14.8921 27.0824 14.9348 27.0071C14.9775 26.9318 15 26.8468 15 26.7602V19.5977L8.31875 16.0002L4 18.3265V13.674L8.31875 16.0002L10.4288 14.864L5.10875 12.0002L15 6.67395V12.4027L10.4288 14.864L16 17.864L21.5713 14.864L23.6812 16.0002L28 13.674V18.3265L23.6812 16.0002L17 19.5977V26.7602C17 26.8468 17.0225 26.9318 17.0652 27.0071C17.1079 27.0824 17.1695 27.1452 17.2438 27.1896C17.3182 27.2339 17.4027 27.2582 17.4893 27.2601C17.5758 27.262 17.6613 27.2413 17.7375 27.2002L29.4737 20.8752C29.632 20.7901 29.7644 20.6639 29.857 20.5099C29.9496 20.356 29.999 20.1799 30 20.0002V12.0002C29.999 11.8205 29.9496 11.6444 29.857 11.4905C29.7644 11.3365 29.632 11.2103 29.4737 11.1252ZM21.5713 14.8752L17 12.4027V6.67395L26.8913 12.0002L21.5713 14.8752Z" fill="#4A4A4F"/>
</svg>
