<svg width="32" height="32" viewBox="0 0 32 32" fill="none" xmlns="http://www.w3.org/2000/svg">
<path d="M25.9475 7.98C23.3563 6.685 19.9163 6 16 6C12.0837 6 8.64375 6.685 6.0525 7.98C3.46125 9.275 2 11.0975 2 13V19C2 20.9025 3.4775 22.7313 6.0525 24.02C8.6275 25.3088 12.0837 26 16 26C19.9163 26 23.3563 25.315 25.9475 24.02C28.5387 22.725 30 20.9025 30 19V13C30 11.0975 28.5225 9.26875 25.9475 7.98ZM15 19.98V23.98C12.625 23.9025 10.625 23.5525 9 23.0438V19.1313C10.9589 19.6532 12.9732 19.9389 15 19.9825V19.98ZM17 19.98C19.0268 19.9364 21.0411 19.6507 23 19.1287V23.0425C21.375 23.5513 19.375 23.9013 17 23.9788V19.98ZM4 19V16.6912C4.62932 17.2136 5.31828 17.6597 6.0525 18.02C6.35625 18.1713 6.6775 18.3137 7 18.4487V22.25C5.02125 21.27 4 20.0363 4 19ZM25 22.25V18.4487C25.3263 18.3137 25.6438 18.1713 25.9475 18.02C26.6817 17.6597 27.3707 17.2136 28 16.6912V19C28 20.0363 26.9788 21.27 25 22.25Z" fill="#4A4A4F"/>
</svg>
