<svg width="32" height="32" viewBox="0 0 32 32" fill="none" xmlns="http://www.w3.org/2000/svg">
<path d="M16 3C13.4288 3 10.9154 3.76244 8.77759 5.1909C6.63975 6.61935 4.97351 8.64968 3.98957 11.0251C3.00563 13.4006 2.74819 16.0144 3.2498 18.5362C3.75141 21.0579 4.98953 23.3743 6.80762 25.1924C8.6257 27.0105 10.9421 28.2486 13.4638 28.7502C15.9856 29.2518 18.5995 28.9944 20.9749 28.0104C23.3503 27.0265 25.3807 25.3603 26.8091 23.2224C28.2376 21.0846 29 18.5712 29 16C28.9964 12.5533 27.6256 9.24882 25.1884 6.81163C22.7512 4.37445 19.4467 3.00364 16 3ZM22.4475 10.2238L18.4475 18.2237C18.3985 18.3202 18.3202 18.3985 18.2238 18.4475L10.2238 22.4475C10.1298 22.4947 10.0234 22.5111 9.91967 22.4943C9.81591 22.4776 9.72005 22.4286 9.64573 22.3543C9.57141 22.2799 9.5224 22.1841 9.50567 22.0803C9.48893 21.9766 9.50532 21.8702 9.55251 21.7763L13.5525 13.7762C13.6015 13.6798 13.6798 13.6015 13.7763 13.5525L21.7763 9.5525C21.8702 9.50531 21.9766 9.48892 22.0803 9.50566C22.1841 9.5224 22.28 9.57141 22.3543 9.64573C22.4286 9.72005 22.4776 9.8159 22.4943 9.91967C22.5111 10.0234 22.4947 10.1298 22.4475 10.2238Z" fill="#4A4A4F"/>
</svg>
