<svg width="32" height="32" viewBox="0 0 32 32" fill="none" xmlns="http://www.w3.org/2000/svg">
<path d="M26.8899 15.455C26.9544 15.3377 26.9946 15.2087 27.0082 15.0756C27.0218 14.9425 27.0086 14.808 26.9693 14.68C26.93 14.5521 26.8655 14.4334 26.7795 14.3309C26.6935 14.2284 26.5878 14.1442 26.4686 14.0833C26.3495 14.0224 26.2193 13.986 26.0858 13.9763C25.9524 13.9666 25.8183 13.9838 25.6916 14.0268C25.5649 14.0699 25.4482 14.1379 25.3483 14.2269C25.2483 14.316 25.1673 14.4241 25.1099 14.545C24.1855 16.3259 22.7441 17.7857 20.9749 18.7325L18.6949 13.6012C19.3818 13.0865 19.9071 12.386 20.2088 11.5825C20.5106 10.7789 20.5763 9.90587 20.3981 9.06623C20.2199 8.2266 19.8053 7.45543 19.2032 6.84371C18.6011 6.23199 17.8366 5.80522 16.9999 5.61375V3C16.9999 2.73478 16.8946 2.48043 16.7071 2.29289C16.5195 2.10536 16.2652 2 15.9999 2C15.7347 2 15.4804 2.10536 15.2928 2.29289C15.1053 2.48043 14.9999 2.73478 14.9999 3V5.61375C14.1632 5.80522 13.3988 6.23199 12.7967 6.84371C12.1946 7.45543 11.78 8.2266 11.6018 9.06623C11.4236 9.90587 11.4893 10.7789 11.7911 11.5825C12.0928 12.386 12.6181 13.0865 13.3049 13.6012L7.0862 27.5938C7.03212 27.7139 7.00231 27.8435 6.99847 27.9751C6.99463 28.1068 7.01684 28.2379 7.06382 28.361C7.1108 28.484 7.18163 28.5966 7.27223 28.6922C7.36284 28.7878 7.47144 28.8645 7.59179 28.918C7.71215 28.9715 7.84189 29.0007 7.97357 29.004C8.10524 29.0072 8.23626 28.9844 8.35909 28.9368C8.48192 28.8893 8.59415 28.8179 8.68932 28.7269C8.7845 28.6358 8.86075 28.5269 8.9137 28.4062L12.0562 21.3363C13.3241 21.7777 14.6574 22.0021 15.9999 22C17.3432 21.9984 18.6773 21.7785 19.9499 21.3487L23.0862 28.4062C23.1947 28.6473 23.3944 28.8356 23.6414 28.93C23.8884 29.0243 24.1627 29.0169 24.4043 28.9095C24.6459 28.8021 24.8351 28.6033 24.9306 28.3568C25.0261 28.1102 25.02 27.8359 24.9137 27.5938L21.7887 20.5625C23.9739 19.4252 25.7553 17.6416 26.8899 15.455ZM15.9999 20C14.9383 20.0013 13.8832 19.8325 12.8749 19.5L15.1349 14.415C15.7077 14.5283 16.2972 14.5283 16.8699 14.415L19.1374 19.515C18.1226 19.8363 17.0644 19.9998 15.9999 20Z" fill="#4A4A4F"/>
</svg>
