<svg width="32" height="32" viewBox="0 0 32 32" fill="none" xmlns="http://www.w3.org/2000/svg">
<path d="M11 9C11 8.73478 11.1054 8.48043 11.2929 8.29289C11.4804 8.10536 11.7348 8 12 8H20C20.2652 8 20.5196 8.10536 20.7071 8.29289C20.8946 8.48043 21 8.73478 21 9C21 9.26522 20.8946 9.51957 20.7071 9.70711C20.5196 9.89464 20.2652 10 20 10H12C11.7348 10 11.4804 9.89464 11.2929 9.70711C11.1054 9.51957 11 9.26522 11 9ZM12 14H20C20.2652 14 20.5196 13.8946 20.7071 13.7071C20.8946 13.5196 21 13.2652 21 13C21 12.7348 20.8946 12.4804 20.7071 12.2929C20.5196 12.1054 20.2652 12 20 12H12C11.7348 12 11.4804 12.1054 11.2929 12.2929C11.1054 12.4804 11 12.7348 11 13C11 13.2652 11.1054 13.5196 11.2929 13.7071C11.4804 13.8946 11.7348 14 12 14ZM26 5V27C26 27.5304 25.7893 28.0391 25.4142 28.4142C25.0391 28.7893 24.5304 29 24 29H8C7.46957 29 6.96086 28.7893 6.58579 28.4142C6.21071 28.0391 6 27.5304 6 27V5C6 4.46957 6.21071 3.96086 6.58579 3.58579C6.96086 3.21071 7.46957 3 8 3H24C24.5304 3 25.0391 3.21071 25.4142 3.58579C25.7893 3.96086 26 4.46957 26 5ZM24 5H8V27H24V5ZM16 21C15.7033 21 15.4133 21.088 15.1666 21.2528C14.92 21.4176 14.7277 21.6519 14.6142 21.926C14.5006 22.2001 14.4709 22.5017 14.5288 22.7926C14.5867 23.0836 14.7296 23.3509 14.9393 23.5607C15.1491 23.7704 15.4164 23.9133 15.7074 23.9712C15.9983 24.0291 16.2999 23.9993 16.574 23.8858C16.8481 23.7723 17.0824 23.58 17.2472 23.3334C17.412 23.0867 17.5 22.7967 17.5 22.5C17.5 22.1022 17.342 21.7206 17.0607 21.4393C16.7794 21.158 16.3978 21 16 21Z" fill="#4A4A4F"/>
</svg>
