<svg width="32" height="32" viewBox="0 0 32 32" fill="none" xmlns="http://www.w3.org/2000/svg">
<path d="M25.9238 15.3823C25.8482 15.5651 25.72 15.7213 25.5556 15.8312C25.3912 15.9411 25.1978 15.9998 25.0001 15.9998H7.00006C6.80216 16 6.60867 15.9414 6.44407 15.8315C6.27948 15.7217 6.15119 15.5654 6.07543 15.3826C5.99968 15.1998 5.97988 14.9986 6.01853 14.8045C6.05718 14.6104 6.15254 14.4322 6.29256 14.2923L15.2926 5.29231C15.3854 5.19933 15.4957 5.12557 15.6171 5.07525C15.7385 5.02493 15.8686 4.99902 16.0001 4.99902C16.1315 4.99902 16.2616 5.02493 16.383 5.07525C16.5044 5.12557 16.6147 5.19933 16.7076 5.29231L25.7076 14.2923C25.8474 14.4322 25.9425 14.6105 25.981 14.8045C26.0195 14.9985 25.9996 15.1996 25.9238 15.3823Z" fill="#4A4A4F"/>
</svg>
