<svg width="32" height="32" viewBox="0 0 32 32" fill="none" xmlns="http://www.w3.org/2000/svg">
<path d="M25.7076 15.7073C25.6147 15.8003 25.5044 15.874 25.383 15.9244C25.2616 15.9747 25.1315 16.0006 25.0001 16.0006C24.8687 16.0006 24.7385 15.9747 24.6171 15.9244C24.4957 15.874 24.3854 15.8003 24.2926 15.7073L16.0001 7.41356L7.70757 15.7073C7.51993 15.895 7.26543 16.0004 7.00007 16.0004C6.7347 16.0004 6.48021 15.895 6.29257 15.7073C6.10493 15.5197 5.99951 15.2652 5.99951 14.9998C5.99951 14.7344 6.10493 14.4799 6.29257 14.2923L15.2926 5.29231C15.3854 5.19933 15.4957 5.12557 15.6171 5.07525C15.7385 5.02493 15.8687 4.99902 16.0001 4.99902C16.1315 4.99902 16.2616 5.02493 16.383 5.07525C16.5044 5.12557 16.6147 5.19933 16.7076 5.29231L25.7076 14.2923C25.8005 14.3852 25.8743 14.4955 25.9246 14.6169C25.975 14.7383 26.0009 14.8684 26.0009 14.9998C26.0009 15.1312 25.975 15.2614 25.9246 15.3828C25.8743 15.5041 25.8005 15.6144 25.7076 15.7073Z" fill="#4A4A4F"/>
</svg>
