<svg width="32" height="32" viewBox="0 0 32 32" fill="none" xmlns="http://www.w3.org/2000/svg">
<path d="M16 3C13.4288 3 10.9154 3.76244 8.77759 5.1909C6.63975 6.61935 4.97351 8.64968 3.98957 11.0251C3.00563 13.4006 2.74819 16.0144 3.2498 18.5362C3.75141 21.0579 4.98953 23.3743 6.80762 25.1924C8.6257 27.0105 10.9421 28.2486 13.4638 28.7502C15.9856 29.2518 18.5995 28.9944 20.9749 28.0104C23.3503 27.0265 25.3807 25.3603 26.8091 23.2224C28.2376 21.0846 29 18.5712 29 16C28.9964 12.5533 27.6256 9.24882 25.1884 6.81163C22.7512 4.37445 19.4467 3.00364 16 3ZM12.1338 19.4675C12.074 19.5864 11.9911 19.6922 11.8899 19.7786C11.7888 19.865 11.6714 19.9304 11.5446 19.9709C11.4178 20.0114 11.2843 20.0262 11.1517 20.0144C11.0192 20.0026 10.8903 19.9645 10.7727 19.9023C10.6551 19.84 10.5511 19.755 10.4667 19.652C10.3824 19.5491 10.3195 19.4304 10.2816 19.3028C10.2438 19.1752 10.2318 19.0414 10.2463 18.9091C10.2608 18.7768 10.3016 18.6488 10.3663 18.5325C10.7847 17.754 11.0038 16.8839 11.0038 16C11.0038 15.1161 10.7847 14.246 10.3663 13.4675C10.2487 13.2338 10.2275 12.9633 10.3071 12.714C10.3867 12.4648 10.5608 12.2567 10.7921 12.1344C11.0234 12.012 11.2934 11.9852 11.5442 12.0596C11.795 12.1341 12.0067 12.3038 12.1338 12.5325C12.6989 13.6009 12.9943 14.7913 12.9943 16C12.9943 17.2087 12.6989 18.3991 12.1338 19.4675ZM15.6338 21.4675C15.5734 21.5857 15.49 21.6908 15.3886 21.7764C15.2872 21.8621 15.1698 21.9268 15.0431 21.9666C14.9165 22.0064 14.7831 22.0206 14.6509 22.0084C14.5187 21.9961 14.3903 21.9577 14.2731 21.8953C14.1559 21.8328 14.0524 21.7477 13.9684 21.6449C13.8845 21.542 13.8219 21.4235 13.7842 21.2961C13.7466 21.1688 13.7347 21.0353 13.7492 20.9033C13.7637 20.7714 13.8043 20.6436 13.8688 20.5275C14.6117 19.1331 15.0003 17.5774 15.0003 15.9975C15.0003 14.4176 14.6117 12.8619 13.8688 11.4675C13.8043 11.3514 13.7637 11.2236 13.7492 11.0917C13.7347 10.9597 13.7466 10.8262 13.7842 10.6989C13.8219 10.5715 13.8845 10.453 13.9684 10.3501C14.0524 10.2473 14.1559 10.1622 14.2731 10.0997C14.3903 10.0373 14.5187 9.99889 14.6509 9.98664C14.7831 9.97439 14.9165 9.98859 15.0431 10.0284C15.1698 10.0682 15.2872 10.1329 15.3886 10.2186C15.49 10.3042 15.5734 10.4093 15.6338 10.5275C16.5317 12.2114 17.0013 14.0905 17.0011 15.9989C17.0009 17.9073 16.5309 19.7863 15.6325 21.47L15.6338 21.4675ZM19.1338 23.4675C18.998 23.6791 18.7876 23.8318 18.5444 23.8953C18.3011 23.9587 18.0429 23.9282 17.8211 23.8098C17.5994 23.6914 17.4303 23.4939 17.3476 23.2565C17.265 23.0191 17.2747 22.7593 17.375 22.5287C18.4506 20.5207 19.0134 18.278 19.0134 16C19.0134 13.722 18.4506 11.4793 17.375 9.47125C17.25 9.2372 17.2231 8.96308 17.3003 8.7092C17.3774 8.45533 17.5522 8.24248 17.7863 8.1175C18.0203 7.99252 18.2944 7.96563 18.5483 8.04275C18.8022 8.11988 19.015 8.2947 19.14 8.52875C20.369 10.8275 21.0115 13.3941 21.0104 16.0008C21.0093 18.6075 20.3647 21.1735 19.1338 23.4713V23.4675Z" fill="#4A4A4F"/>
</svg>
