<svg width="32" height="32" viewBox="0 0 32 32" fill="none" xmlns="http://www.w3.org/2000/svg">
<path d="M11 6V2C11 1.73478 11.1054 1.48043 11.2929 1.29289C11.4804 1.10536 11.7348 1 12 1C12.2652 1 12.5196 1.10536 12.7071 1.29289C12.8946 1.48043 13 1.73478 13 2V6C13 6.26522 12.8946 6.51957 12.7071 6.70711C12.5196 6.89464 12.2652 7 12 7C11.7348 7 11.4804 6.89464 11.2929 6.70711C11.1054 6.51957 11 6.26522 11 6ZM16 7C16.2652 7 16.5196 6.89464 16.7071 6.70711C16.8946 6.51957 17 6.26522 17 6V2C17 1.73478 16.8946 1.48043 16.7071 1.29289C16.5196 1.10536 16.2652 1 16 1C15.7348 1 15.4804 1.10536 15.2929 1.29289C15.1054 1.48043 15 1.73478 15 2V6C15 6.26522 15.1054 6.51957 15.2929 6.70711C15.4804 6.89464 15.7348 7 16 7ZM20 7C20.2652 7 20.5196 6.89464 20.7071 6.70711C20.8946 6.51957 21 6.26522 21 6V2C21 1.73478 20.8946 1.48043 20.7071 1.29289C20.5196 1.10536 20.2652 1 20 1C19.7348 1 19.4804 1.10536 19.2929 1.29289C19.1054 1.48043 19 1.73478 19 2V6C19 6.26522 19.1054 6.51957 19.2929 6.70711C19.4804 6.89464 19.7348 7 20 7ZM31.8 11.4C31.6409 11.1878 31.404 11.0476 31.1414 11.0101C30.8789 10.9725 30.6122 11.0409 30.4 11.2L28 13V11C28 10.4696 27.7893 9.96086 27.4142 9.58579C27.0391 9.21071 26.5304 9 26 9H6C5.46957 9 4.96086 9.21071 4.58579 9.58579C4.21072 9.96086 4 10.4696 4 11V13L1.6 11.2C1.38783 11.0409 1.12113 10.9725 0.858583 11.0101C0.596032 11.0476 0.359134 11.1878 0.200004 11.4C0.0408742 11.6122 -0.0274527 11.8789 0.0100546 12.1414C0.0475619 12.404 0.187831 12.6409 0.400004 12.8L4 15.5V23C4 24.0609 4.42143 25.0783 5.17158 25.8284C5.92172 26.5786 6.93914 27 8 27H24C25.0609 27 26.0783 26.5786 26.8284 25.8284C27.5786 25.0783 28 24.0609 28 23V15.5L31.6 12.8C31.7051 12.7212 31.7936 12.6225 31.8605 12.5095C31.9274 12.3965 31.9714 12.2714 31.99 12.1414C32.0085 12.0114 32.0013 11.879 31.9687 11.7518C31.9361 11.6246 31.8788 11.5051 31.8 11.4Z" fill="#4A4A4F"/>
</svg>
