<svg width="32" height="32" viewBox="0 0 32 32" fill="none" xmlns="http://www.w3.org/2000/svg">
<path d="M28 15C26.6739 15 25.4022 14.4732 24.4645 13.5355C23.5268 12.5979 23 11.3261 23 10C23 9.73478 22.8946 9.48043 22.7071 9.29289C22.5196 9.10536 22.2652 9 22 9C20.6739 9 19.4022 8.47322 18.4645 7.53553C17.5268 6.59785 17 5.32608 17 4C17 3.73478 16.8946 3.48043 16.7071 3.29289C16.5196 3.10536 16.2652 3 16 3C13.4288 3 10.9154 3.76244 8.77759 5.1909C6.63975 6.61935 4.97351 8.64968 3.98957 11.0251C3.00563 13.4006 2.74819 16.0144 3.2498 18.5362C3.75141 21.0579 4.98953 23.3743 6.80762 25.1924C8.6257 27.0105 10.9421 28.2486 13.4638 28.7502C15.9856 29.2518 18.5995 28.9944 20.9749 28.0104C23.3503 27.0265 25.3807 25.3603 26.8091 23.2224C28.2376 21.0846 29 18.5712 29 16C29 15.7348 28.8946 15.4804 28.7071 15.2929C28.5196 15.1054 28.2652 15 28 15ZM9.43876 12.4388C9.64874 12.2295 9.91602 12.0871 10.2069 12.0297C10.4977 11.9722 10.799 12.0022 11.0728 12.1159C11.3466 12.2296 11.5805 12.4219 11.7451 12.6684C11.9097 12.915 11.9976 13.2048 11.9976 13.5013C11.9976 13.7977 11.9097 14.0875 11.7451 14.3341C11.5805 14.5806 11.3466 14.7729 11.0728 14.8866C10.799 15.0003 10.4977 15.0303 10.2069 14.9728C9.91602 14.9154 9.64874 14.773 9.43876 14.5638C9.29892 14.4244 9.18796 14.2588 9.11225 14.0765C9.03654 13.8942 8.99757 13.6987 8.99757 13.5013C8.99757 13.3038 9.03654 13.1083 9.11225 12.926C9.18796 12.7437 9.29892 12.5781 9.43876 12.4388ZM12.5638 21.5637C12.3538 21.773 12.0865 21.9154 11.7957 21.9728C11.5048 22.0303 11.2035 22.0003 10.9297 21.8866C10.6559 21.7729 10.422 21.5806 10.2574 21.3341C10.0928 21.0875 10.0049 20.7977 10.0049 20.5012C10.0049 20.2048 10.0928 19.915 10.2574 19.6684C10.422 19.4219 10.6559 19.2296 10.9297 19.1159C11.2035 19.0022 11.5048 18.9722 11.7957 19.0297C12.0865 19.0871 12.3538 19.2295 12.5638 19.4387C12.7031 19.5782 12.8135 19.7438 12.8888 19.926C12.964 20.1082 13.0027 20.3034 13.0024 20.5005C13.0022 20.6976 12.9631 20.8928 12.8874 21.0748C12.8117 21.2568 12.7009 21.4221 12.5613 21.5613L12.5638 21.5637ZM15.4388 16.5637C15.2295 16.3538 15.0872 16.0865 15.0297 15.7957C14.9722 15.5048 15.0023 15.2035 15.1159 14.9297C15.2296 14.6559 15.4219 14.422 15.6684 14.2574C15.915 14.0928 16.2048 14.0049 16.5013 14.0049C16.7977 14.0049 17.0875 14.0928 17.3341 14.2574C17.5806 14.422 17.7729 14.6559 17.8866 14.9297C18.0003 15.2035 18.0303 15.5048 17.9728 15.7957C17.9154 16.0865 17.773 16.3538 17.5638 16.5637C17.4242 16.7034 17.2585 16.8142 17.0761 16.8897C16.8937 16.9652 16.6982 17.0039 16.5007 17.0037C16.3033 17.0035 16.1079 16.9642 15.9256 16.8883C15.7434 16.8124 15.5779 16.7013 15.4388 16.5613V16.5637ZM20.5638 22.5637C20.3538 22.773 20.0865 22.9154 19.7957 22.9728C19.5048 23.0303 19.2035 23.0003 18.9297 22.8866C18.6559 22.7729 18.422 22.5806 18.2574 22.3341C18.0928 22.0875 18.0049 21.7977 18.0049 21.5012C18.0049 21.2048 18.0928 20.915 18.2574 20.6684C18.422 20.4219 18.6559 20.2296 18.9297 20.1159C19.2035 20.0022 19.5048 19.9722 19.7957 20.0297C20.0865 20.0871 20.3538 20.2295 20.5638 20.4387C20.7031 20.5782 20.8135 20.7438 20.8888 20.926C20.964 21.1082 21.0027 21.3034 21.0024 21.5005C21.0022 21.6976 20.9631 21.8928 20.8874 22.0748C20.8117 22.2568 20.7009 22.4221 20.5613 22.5613L20.5638 22.5637Z" fill="#4A4A4F"/>
</svg>
