<svg width="32" height="32" viewBox="0 0 32 32" fill="none" xmlns="http://www.w3.org/2000/svg">
<path d="M16 3C13.4288 3 10.9154 3.76244 8.77759 5.1909C6.63975 6.61935 4.97351 8.64968 3.98957 11.0251C3.00563 13.4006 2.74819 16.0144 3.2498 18.5362C3.75141 21.0579 4.98953 23.3743 6.80762 25.1924C8.6257 27.0105 10.9421 28.2486 13.4638 28.7502C15.9856 29.2518 18.5995 28.9944 20.9749 28.0104C23.3503 27.0265 25.3807 25.3603 26.8091 23.2224C28.2376 21.0846 29 18.5712 29 16C28.9964 12.5533 27.6256 9.24882 25.1884 6.81163C22.7512 4.37445 19.4467 3.00364 16 3ZM16 27C13.8244 27 11.6977 26.3549 9.88873 25.1462C8.07979 23.9375 6.66989 22.2195 5.83733 20.2095C5.00477 18.1995 4.78693 15.9878 5.21137 13.854C5.63581 11.7202 6.68345 9.7602 8.22183 8.22183C9.76021 6.68345 11.7202 5.6358 13.854 5.21136C15.9878 4.78692 18.1995 5.00476 20.2095 5.83733C22.2195 6.66989 23.9375 8.07979 25.1462 9.88873C26.3549 11.6977 27 13.8244 27 16C26.9967 18.9164 25.8367 21.7123 23.7745 23.7745C21.7123 25.8367 18.9164 26.9967 16 27ZM12 16C12 16.8395 12.2642 17.6578 12.755 18.3388C13.2459 19.0199 13.9386 19.5293 14.7351 19.7947C15.5315 20.0602 16.3913 20.0684 17.1927 19.8181C17.994 19.5677 18.6963 19.0716 19.2 18.4C19.3593 18.1878 19.5964 18.0476 19.859 18.0102C20.1217 17.9728 20.3885 18.0413 20.6006 18.2006C20.8128 18.3599 20.953 18.597 20.9904 18.8596C21.0278 19.1223 20.9593 19.3891 20.8 19.6012C20.0442 20.6084 18.9908 21.3522 17.7888 21.7274C16.5869 22.1026 15.2973 22.0902 14.1028 21.6919C12.9083 21.2935 11.8694 20.5295 11.1333 19.5079C10.3971 18.4864 10.0009 17.2592 10.0009 16C10.0009 14.7408 10.3971 13.5136 11.1333 12.4921C11.8694 11.4705 12.9083 10.7065 14.1028 10.3081C15.2973 9.90981 16.5869 9.89736 17.7888 10.2726C18.9908 10.6478 20.0442 11.3916 20.8 12.3988C20.8789 12.5038 20.9363 12.6234 20.969 12.7506C21.0016 12.8779 21.0089 13.0103 20.9904 13.1404C20.9719 13.2704 20.9279 13.3956 20.8611 13.5086C20.7942 13.6217 20.7057 13.7205 20.6006 13.7994C20.4956 13.8783 20.376 13.9357 20.2488 13.9683C20.1215 14.001 19.9891 14.0083 19.859 13.9898C19.729 13.9713 19.6038 13.9273 19.4908 13.8604C19.3777 13.7936 19.2789 13.7051 19.2 13.6C18.6963 12.9284 17.994 12.4323 17.1927 12.1819C16.3913 11.9316 15.5315 11.9398 14.7351 12.2053C13.9386 12.4707 13.2459 12.9801 12.755 13.6612C12.2642 14.3422 12 15.1605 12 16Z" fill="#4A4A4F"/>
</svg>
