<svg width="32" height="32" viewBox="0 0 32 32" fill="none" xmlns="http://www.w3.org/2000/svg">
<path d="M16 3C13.4288 3 10.9154 3.76244 8.77759 5.1909C6.63975 6.61935 4.97351 8.64968 3.98957 11.0251C3.00563 13.4006 2.74819 16.0144 3.2498 18.5362C3.75141 21.0579 4.98953 23.3743 6.80762 25.1924C8.6257 27.0105 10.9421 28.2486 13.4638 28.7502C15.9856 29.2518 18.5995 28.9944 20.9749 28.0104C23.3503 27.0265 25.3807 25.3603 26.8091 23.2224C28.2376 21.0846 29 18.5712 29 16C28.9964 12.5533 27.6256 9.24882 25.1884 6.81163C22.7512 4.37445 19.4467 3.00364 16 3ZM16 27C13.8244 27 11.6977 26.3549 9.88873 25.1462C8.07979 23.9375 6.66989 22.2195 5.83733 20.2095C5.00477 18.1995 4.78693 15.9878 5.21137 13.854C5.63581 11.7202 6.68345 9.7602 8.22183 8.22183C9.76021 6.68345 11.7202 5.6358 13.854 5.21136C15.9878 4.78692 18.1995 5.00476 20.2095 5.83733C22.2195 6.66989 23.9375 8.07979 25.1462 9.88873C26.3549 11.6977 27 13.8244 27 16C26.9967 18.9164 25.8367 21.7123 23.7745 23.7745C21.7123 25.8367 18.9164 26.9967 16 27ZM22 16C22.0003 17.2594 21.6042 18.487 20.868 19.5088C20.1318 20.5305 19.0927 21.2948 17.898 21.6932C16.7032 22.0915 15.4134 22.1039 14.2113 21.7284C13.0092 21.353 11.9556 20.6088 11.2 19.6012C11.0407 19.3891 10.9722 19.1223 11.0096 18.8596C11.047 18.597 11.1872 18.3599 11.3994 18.2006C11.6116 18.0413 11.8783 17.9728 12.141 18.0102C12.4037 18.0476 12.6407 18.1878 12.8 18.4C13.3037 19.0716 14.006 19.5677 14.8073 19.8181C15.6087 20.0684 16.4685 20.0602 17.2649 19.7947C18.0614 19.5293 18.7541 19.0199 19.245 18.3388C19.7359 17.6578 20 16.8395 20 16C20 15.1605 19.7359 14.3422 19.245 13.6612C18.7541 12.9801 18.0614 12.4707 17.2649 12.2053C16.4685 11.9398 15.6087 11.9316 14.8073 12.1819C14.006 12.4323 13.3037 12.9284 12.8 13.6C12.6407 13.8122 12.4037 13.9524 12.141 13.9898C11.8783 14.0272 11.6116 13.9587 11.3994 13.7994C11.1872 13.6401 11.047 13.403 11.0096 13.1404C10.9722 12.8777 11.0407 12.6109 11.2 12.3988C11.9556 11.3912 13.0092 10.647 14.2113 10.2716C15.4134 9.89613 16.7032 9.90847 17.898 10.3068C19.0927 10.7052 20.1318 11.4695 20.868 12.4912C21.6042 13.513 22.0003 14.7406 22 16Z" fill="#4A4A4F"/>
</svg>
