<svg width="32" height="32" viewBox="0 0 32 32" fill="none" xmlns="http://www.w3.org/2000/svg">
<path d="M16 7C14.22 7 12.4799 7.52784 10.9999 8.51677C9.51983 9.50571 8.36628 10.9113 7.68509 12.5558C7.0039 14.2004 6.82567 16.01 7.17294 17.7558C7.52021 19.5016 8.37737 21.1053 9.63604 22.364C10.8947 23.6226 12.4984 24.4798 14.2442 24.8271C15.99 25.1743 17.7996 24.9961 19.4442 24.3149C21.0887 23.6337 22.4943 22.4802 23.4832 21.0001C24.4722 19.5201 25 17.78 25 16C24.9974 13.6139 24.0483 11.3262 22.361 9.63896C20.6738 7.95171 18.3861 7.00265 16 7ZM16 22C15.0681 22.0035 14.1483 21.7883 13.3146 21.3716C12.481 20.955 11.7567 20.3487 11.2 19.6012C11.0407 19.3891 10.9722 19.1223 11.0096 18.8596C11.047 18.597 11.1872 18.3599 11.3994 18.2006C11.6116 18.0413 11.8783 17.9728 12.141 18.0102C12.4037 18.0476 12.6407 18.1878 12.8 18.4C13.3037 19.0716 14.006 19.5677 14.8073 19.8181C15.6087 20.0684 16.4685 20.0602 17.2649 19.7947C18.0614 19.5293 18.7541 19.0199 19.245 18.3388C19.7359 17.6578 20 16.8395 20 16C20 15.1605 19.7359 14.3422 19.245 13.6612C18.7541 12.9801 18.0614 12.4707 17.2649 12.2053C16.4685 11.9398 15.6087 11.9316 14.8073 12.1819C14.006 12.4323 13.3037 12.9284 12.8 13.6C12.6407 13.8122 12.4037 13.9524 12.141 13.9898C11.8783 14.0272 11.6116 13.9587 11.3994 13.7994C11.1872 13.6401 11.047 13.403 11.0096 13.1404C10.9722 12.8777 11.0407 12.6109 11.2 12.3988C11.8138 11.5808 12.6265 10.9333 13.5609 10.5177C14.4952 10.1022 15.5203 9.93233 16.5388 10.0243C17.5573 10.1163 18.5354 10.4671 19.3802 11.0434C20.225 11.6197 20.9085 12.4023 21.3658 13.317C21.8231 14.2317 22.039 15.2481 21.993 16.2697C21.947 17.2913 21.6407 18.2842 21.1031 19.1541C20.5656 20.0241 19.8145 20.7421 18.9214 21.2402C18.0283 21.7383 17.0226 21.9998 16 22ZM16 3C13.4288 3 10.9154 3.76244 8.77759 5.1909C6.63975 6.61935 4.97351 8.64968 3.98957 11.0251C3.00563 13.4006 2.74819 16.0144 3.2498 18.5362C3.75141 21.0579 4.98953 23.3743 6.80762 25.1924C8.6257 27.0105 10.9421 28.2486 13.4638 28.7502C15.9856 29.2518 18.5995 28.9944 20.9749 28.0104C23.3503 27.0265 25.3807 25.3603 26.8091 23.2224C28.2376 21.0846 29 18.5712 29 16C29 12.5522 27.6304 9.24558 25.1924 6.80761C22.7544 4.36964 19.4478 3 16 3ZM16 27C13.8244 27 11.6977 26.3549 9.88873 25.1462C8.07979 23.9375 6.66989 22.2195 5.83733 20.2095C5.00477 18.1995 4.78693 15.9878 5.21137 13.854C5.63581 11.7202 6.68345 9.7602 8.22183 8.22183C9.76021 6.68345 11.7202 5.6358 13.854 5.21136C15.9878 4.78692 18.1995 5.00476 20.2095 5.83733C22.2195 6.66989 23.9375 8.07979 25.1462 9.88873C26.3549 11.6977 27 13.8244 27 16C26.9967 18.9164 25.8367 21.7123 23.7745 23.7745C21.7123 25.8367 18.9164 26.9967 16 27Z" fill="#4A4A4F"/>
</svg>
