<svg width="32" height="32" viewBox="0 0 32 32" fill="none" xmlns="http://www.w3.org/2000/svg">
<path d="M16 7C14.22 7 12.4799 7.52784 10.9999 8.51677C9.51983 9.50571 8.36628 10.9113 7.68509 12.5558C7.0039 14.2004 6.82567 16.01 7.17294 17.7558C7.52021 19.5016 8.37737 21.1053 9.63604 22.364C10.8947 23.6226 12.4984 24.4798 14.2442 24.8271C15.99 25.1743 17.7996 24.9961 19.4442 24.3149C21.0887 23.6337 22.4943 22.4802 23.4832 21.0001C24.4722 19.5201 25 17.78 25 16C24.9974 13.6139 24.0483 11.3262 22.361 9.63896C20.6738 7.95171 18.3861 7.00265 16 7ZM16 20C16.6215 20.0022 17.2349 19.8585 17.7909 19.5807C18.3468 19.3028 18.8299 18.8984 19.2013 18.4C19.2793 18.2927 19.3778 18.202 19.4912 18.1332C19.6046 18.0643 19.7306 18.0188 19.8617 17.9991C19.9929 17.9794 20.1267 17.986 20.2553 18.0185C20.3839 18.0511 20.5048 18.1088 20.6108 18.1885C20.7169 18.2682 20.806 18.3682 20.873 18.4827C20.9401 18.5971 20.9837 18.7238 21.0013 18.8553C21.0189 18.9867 21.0101 19.1204 20.9756 19.2485C20.941 19.3766 20.8814 19.4965 20.8 19.6012C20.0442 20.6082 18.9907 21.3519 17.7887 21.727C16.5868 22.102 15.2973 22.0895 14.1029 21.6911C12.9085 21.2927 11.8697 20.5287 11.1336 19.5072C10.3975 18.4857 10.0014 17.2585 10.0014 15.9994C10.0014 14.7403 10.3975 13.5131 11.1336 12.4916C11.8697 11.4701 12.9085 10.706 14.1029 10.3076C15.2973 9.90925 16.5868 9.8967 17.7887 10.2718C18.9907 10.6468 20.0442 11.3905 20.8 12.3975C20.8814 12.5023 20.941 12.6222 20.9756 12.7503C21.0101 12.8783 21.0189 13.012 21.0013 13.1435C20.9837 13.275 20.9401 13.4016 20.873 13.5161C20.806 13.6306 20.7169 13.7305 20.6108 13.8102C20.5048 13.8899 20.3839 13.9477 20.2553 13.9802C20.1267 14.0127 19.9929 14.0194 19.8617 13.9997C19.7306 13.98 19.6046 13.9344 19.4912 13.8656C19.3778 13.7968 19.2793 13.706 19.2013 13.5988C18.792 13.0536 18.2503 12.622 17.6274 12.3451C17.0046 12.0681 16.3213 11.9549 15.6423 12.0162C14.9634 12.0775 14.3115 12.3113 13.7483 12.6954C13.1852 13.0795 12.7295 13.6012 12.4246 14.2109C12.1197 14.8205 11.9757 15.498 12.0062 16.179C12.0367 16.86 12.2407 17.5219 12.5989 18.1019C12.9571 18.6818 13.4576 19.1606 14.0528 19.4928C14.6481 19.8251 15.3183 19.9996 16 20ZM16 3C13.4288 3 10.9154 3.76244 8.77759 5.1909C6.63975 6.61935 4.97351 8.64968 3.98957 11.0251C3.00563 13.4006 2.74819 16.0144 3.2498 18.5362C3.75141 21.0579 4.98953 23.3743 6.80762 25.1924C8.6257 27.0105 10.9421 28.2486 13.4638 28.7502C15.9856 29.2518 18.5995 28.9944 20.9749 28.0104C23.3503 27.0265 25.3807 25.3603 26.8091 23.2224C28.2376 21.0846 29 18.5712 29 16C28.9964 12.5533 27.6256 9.24882 25.1884 6.81163C22.7512 4.37445 19.4467 3.00364 16 3ZM16 27C13.8244 27 11.6977 26.3549 9.88873 25.1462C8.07979 23.9375 6.66989 22.2195 5.83733 20.2095C5.00477 18.1995 4.78693 15.9878 5.21137 13.854C5.63581 11.7202 6.68345 9.7602 8.22183 8.22183C9.76021 6.68345 11.7202 5.6358 13.854 5.21136C15.9878 4.78692 18.1995 5.00476 20.2095 5.83733C22.2195 6.66989 23.9375 8.07979 25.1462 9.88873C26.3549 11.6977 27 13.8244 27 16C26.9967 18.9164 25.8367 21.7123 23.7745 23.7745C21.7123 25.8367 18.9164 26.9967 16 27Z" fill="#4A4A4F"/>
</svg>
