<svg width="32" height="32" viewBox="0 0 32 32" fill="none" xmlns="http://www.w3.org/2000/svg">
<path d="M18.9998 11.9998V5.99981C18.9997 5.80192 19.0582 5.60842 19.1681 5.44383C19.278 5.27923 19.4342 5.15094 19.617 5.07519C19.7998 4.99944 20.001 4.97963 20.1951 5.01828C20.3892 5.05693 20.5675 5.1523 20.7073 5.29231L26.7073 11.2923C26.8473 11.4322 26.9427 11.6104 26.9813 11.8045C27.02 11.9986 27.0002 12.1998 26.9244 12.3826C26.8487 12.5654 26.7204 12.7217 26.5558 12.8315C26.3912 12.9414 26.1977 13 25.9998 12.9998H19.9998C19.7346 12.9998 19.4802 12.8945 19.2927 12.7069C19.1052 12.5194 18.9998 12.265 18.9998 11.9998ZM11.9998 18.9998H5.99981C5.80192 18.9997 5.60842 19.0582 5.44383 19.1681C5.27923 19.278 5.15094 19.4342 5.07519 19.617C4.99944 19.7998 4.97963 20.001 5.01828 20.1951C5.05693 20.3892 5.1523 20.5675 5.29231 20.7073L11.2923 26.7073C11.4322 26.8473 11.6104 26.9427 11.8045 26.9813C11.9986 27.02 12.1998 27.0002 12.3826 26.9244C12.5654 26.8487 12.7217 26.7204 12.8315 26.5558C12.9414 26.3912 13 26.1977 12.9998 25.9998V19.9998C12.9998 19.7346 12.8945 19.4802 12.7069 19.2927C12.5194 19.1052 12.265 18.9998 11.9998 18.9998ZM12.3823 5.07606C12.1996 5.00026 11.9985 4.98035 11.8045 5.01884C11.6105 5.05734 11.4322 5.1525 11.2923 5.29231L5.29231 11.2923C5.1523 11.4322 5.05693 11.6104 5.01828 11.8045C4.97963 11.9986 4.99944 12.1998 5.07519 12.3826C5.15094 12.5654 5.27923 12.7217 5.44383 12.8315C5.60842 12.9414 5.80192 13 5.99981 12.9998H11.9998C12.265 12.9998 12.5194 12.8945 12.7069 12.7069C12.8945 12.5194 12.9998 12.265 12.9998 11.9998V5.99981C12.9998 5.80203 12.9411 5.6087 12.8312 5.44428C12.7213 5.27985 12.5651 5.15171 12.3823 5.07606ZM25.9998 18.9998H19.9998C19.7346 18.9998 19.4802 19.1052 19.2927 19.2927C19.1052 19.4802 18.9998 19.7346 18.9998 19.9998V25.9998C18.9997 26.1977 19.0582 26.3912 19.1681 26.5558C19.278 26.7204 19.4342 26.8487 19.617 26.9244C19.7998 27.0002 20.001 27.02 20.1951 26.9813C20.3892 26.9427 20.5675 26.8473 20.7073 26.7073L26.7073 20.7073C26.8473 20.5675 26.9427 20.3892 26.9813 20.1951C27.02 20.001 27.0002 19.7998 26.9244 19.617C26.8487 19.4342 26.7204 19.278 26.5558 19.1681C26.3912 19.0582 26.1977 18.9997 25.9998 18.9998Z" fill="#4A4A4F"/>
</svg>
