<svg width="32" height="32" viewBox="0 0 32 32" fill="none" xmlns="http://www.w3.org/2000/svg">
<path d="M19 12V6C19 5.73478 19.1054 5.48043 19.2929 5.29289C19.4804 5.10536 19.7348 5 20 5C20.2652 5 20.5196 5.10536 20.7071 5.29289C20.8946 5.48043 21 5.73478 21 6V11H26C26.2652 11 26.5196 11.1054 26.7071 11.2929C26.8946 11.4804 27 11.7348 27 12C27 12.2652 26.8946 12.5196 26.7071 12.7071C26.5196 12.8946 26.2652 13 26 13H20C19.7348 13 19.4804 12.8946 19.2929 12.7071C19.1054 12.5196 19 12.2652 19 12ZM12 19H6C5.73478 19 5.48043 19.1054 5.29289 19.2929C5.10536 19.4804 5 19.7348 5 20C5 20.2652 5.10536 20.5196 5.29289 20.7071C5.48043 20.8946 5.73478 21 6 21H11V26C11 26.2652 11.1054 26.5196 11.2929 26.7071C11.4804 26.8946 11.7348 27 12 27C12.2652 27 12.5196 26.8946 12.7071 26.7071C12.8946 26.5196 13 26.2652 13 26V20C13 19.7348 12.8946 19.4804 12.7071 19.2929C12.5196 19.1054 12.2652 19 12 19ZM26 19H20C19.7348 19 19.4804 19.1054 19.2929 19.2929C19.1054 19.4804 19 19.7348 19 20V26C19 26.2652 19.1054 26.5196 19.2929 26.7071C19.4804 26.8946 19.7348 27 20 27C20.2652 27 20.5196 26.8946 20.7071 26.7071C20.8946 26.5196 21 26.2652 21 26V21H26C26.2652 21 26.5196 20.8946 26.7071 20.7071C26.8946 20.5196 27 20.2652 27 20C27 19.7348 26.8946 19.4804 26.7071 19.2929C26.5196 19.1054 26.2652 19 26 19ZM12 5C11.7348 5 11.4804 5.10536 11.2929 5.29289C11.1054 5.48043 11 5.73478 11 6V11H6C5.73478 11 5.48043 11.1054 5.29289 11.2929C5.10536 11.4804 5 11.7348 5 12C5 12.2652 5.10536 12.5196 5.29289 12.7071C5.48043 12.8946 5.73478 13 6 13H12C12.2652 13 12.5196 12.8946 12.7071 12.7071C12.8946 12.5196 13 12.2652 13 12V6C13 5.73478 12.8946 5.48043 12.7071 5.29289C12.5196 5.10536 12.2652 5 12 5Z" fill="#4A4A4F"/>
</svg>
