<svg width="32" height="32" viewBox="0 0 32 32" fill="none" xmlns="http://www.w3.org/2000/svg">
<path d="M11.7075 25.2925C11.8475 25.4324 11.9429 25.6106 11.9815 25.8047C12.0202 25.9988 12.0004 26.2 11.9246 26.3828C11.8489 26.5656 11.7206 26.7218 11.556 26.8317C11.3914 26.9416 11.1979 27.0002 11 27H6C5.73478 27 5.48043 26.8946 5.29289 26.7071C5.10536 26.5196 5 26.2652 5 26V21C4.99984 20.8021 5.05841 20.6086 5.16828 20.444C5.27815 20.2794 5.43439 20.1511 5.61721 20.0754C5.80003 19.9996 6.00122 19.9798 6.19531 20.0185C6.38939 20.0571 6.56764 20.1525 6.7075 20.2925L11.7075 25.2925ZM11 5H6C5.73478 5 5.48043 5.10536 5.29289 5.29289C5.10536 5.48043 5 5.73478 5 6V11C4.99984 11.1979 5.05841 11.3914 5.16828 11.556C5.27815 11.7206 5.43439 11.8489 5.61721 11.9246C5.80003 12.0004 6.00122 12.0202 6.19531 11.9815C6.38939 11.9429 6.56764 11.8475 6.7075 11.7075L11.7075 6.7075C11.8475 6.56764 11.9429 6.38939 11.9815 6.19531C12.0202 6.00122 12.0004 5.80003 11.9246 5.61721C11.8489 5.43439 11.7206 5.27815 11.556 5.16828C11.3914 5.05841 11.1979 4.99984 11 5ZM26.3825 20.0763C26.1998 20.0005 25.9987 19.9805 25.8047 20.019C25.6107 20.0575 25.4324 20.1527 25.2925 20.2925L20.2925 25.2925C20.1525 25.4324 20.0571 25.6106 20.0185 25.8047C19.9798 25.9988 19.9996 26.2 20.0754 26.3828C20.1511 26.5656 20.2794 26.7218 20.444 26.8317C20.6086 26.9416 20.8021 27.0002 21 27H26C26.2652 27 26.5196 26.8946 26.7071 26.7071C26.8946 26.5196 27 26.2652 27 26V21C27 20.8022 26.9413 20.6089 26.8314 20.4445C26.7214 20.28 26.5652 20.1519 26.3825 20.0763ZM26 5H21C20.8021 4.99984 20.6086 5.05841 20.444 5.16828C20.2794 5.27815 20.1511 5.43439 20.0754 5.61721C19.9996 5.80003 19.9798 6.00122 20.0185 6.19531C20.0571 6.38939 20.1525 6.56764 20.2925 6.7075L25.2925 11.7075C25.4324 11.8475 25.6106 11.9429 25.8047 11.9815C25.9988 12.0202 26.2 12.0004 26.3828 11.9246C26.5656 11.8489 26.7218 11.7206 26.8317 11.556C26.9416 11.3914 27.0002 11.1979 27 11V6C27 5.73478 26.8946 5.48043 26.7071 5.29289C26.5196 5.10536 26.2652 5 26 5Z" fill="#4A4A4F"/>
</svg>
