<svg width="32" height="32" viewBox="0 0 32 32" fill="none" xmlns="http://www.w3.org/2000/svg">
<path d="M31 15V21C31 21.5304 30.7893 22.0391 30.4142 22.4142C30.0391 22.7893 29.5304 23 29 23H28V25C28 25.2652 27.8946 25.5196 27.7071 25.7071C27.5196 25.8946 27.2652 26 27 26C26.7348 26 26.4804 25.8946 26.2929 25.7071C26.1054 25.5196 26 25.2652 26 25V23H6V25C6 25.2652 5.89464 25.5196 5.70711 25.7071C5.51957 25.8946 5.26522 26 5 26C4.73478 26 4.48043 25.8946 4.29289 25.7071C4.10536 25.5196 4 25.2652 4 25V23H3C2.46957 23 1.96086 22.7893 1.58579 22.4142C1.21071 22.0391 1 21.5304 1 21V15C1 14.4696 1.21071 13.9609 1.58579 13.5858C1.96086 13.2107 2.46957 13 3 13H4C4.53043 13 5.03914 13.2107 5.41421 13.5858C5.78929 13.9609 6 14.4696 6 15V17C6 17.2652 6.10536 17.5196 6.29289 17.7071C6.48043 17.8946 6.73478 18 7 18H25C25.2652 18 25.5196 17.8946 25.7071 17.7071C25.8946 17.5196 26 17.2652 26 17V15C26 14.4696 26.2107 13.9609 26.5858 13.5858C26.9609 13.2107 27.4696 13 28 13H29C29.5304 13 30.0391 13.2107 30.4142 13.5858C30.7893 13.9609 31 14.4696 31 15ZM24 15C24 13.9391 24.4214 12.9217 25.1716 12.1716C25.9217 11.4214 26.9391 11 28 11H29.5C29.6326 11 29.7598 10.9473 29.8536 10.8536C29.9473 10.7598 30 10.6326 30 10.5V9C30 8.46957 29.7893 7.96086 29.4142 7.58579C29.0391 7.21071 28.5304 7 28 7H17.5C17.3674 7 17.2402 7.05268 17.1464 7.14645C17.0527 7.24021 17 7.36739 17 7.5V16H24V15ZM2.5 11H4C5.06087 11 6.07828 11.4214 6.82843 12.1716C7.57857 12.9217 8 13.9391 8 15V16H15V7.5C15 7.36739 14.9473 7.24021 14.8536 7.14645C14.7598 7.05268 14.6326 7 14.5 7H4C3.46957 7 2.96086 7.21071 2.58579 7.58579C2.21071 7.96086 2 8.46957 2 9V10.5C2 10.6326 2.05268 10.7598 2.14645 10.8536C2.24021 10.9473 2.36739 11 2.5 11Z" fill="#4A4A4F"/>
</svg>
