<svg width="32" height="32" viewBox="0 0 32 32" fill="none" xmlns="http://www.w3.org/2000/svg">
<path d="M26 4H6C5.46957 4 4.96086 4.21071 4.58579 4.58579C4.21071 4.96086 4 5.46957 4 6V26C4 26.5304 4.21071 27.0391 4.58579 27.4142C4.96086 27.7893 5.46957 28 6 28H26C26.5304 28 27.0391 27.7893 27.4142 27.4142C27.7893 27.0391 28 26.5304 28 26V6C28 5.46957 27.7893 4.96086 27.4142 4.58579C27.0391 4.21071 26.5304 4 26 4ZM15 10H21C21.2652 10 21.5196 10.1054 21.7071 10.2929C21.8946 10.4804 22 10.7348 22 11V17C22 17.2652 21.8946 17.5196 21.7071 17.7071C21.5196 17.8946 21.2652 18 21 18C20.7348 18 20.4804 17.8946 20.2929 17.7071C20.1054 17.5196 20 17.2652 20 17V12H15C14.7348 12 14.4804 11.8946 14.2929 11.7071C14.1054 11.5196 14 11.2652 14 11C14 10.7348 14.1054 10.4804 14.2929 10.2929C14.4804 10.1054 14.7348 10 15 10ZM24 22H22V24C22 24.2652 21.8946 24.5196 21.7071 24.7071C21.5196 24.8946 21.2652 25 21 25C20.7348 25 20.4804 24.8946 20.2929 24.7071C20.1054 24.5196 20 24.2652 20 24V22H11C10.7348 22 10.4804 21.8946 10.2929 21.7071C10.1054 21.5196 10 21.2652 10 21V12H8C7.73478 12 7.48043 11.8946 7.29289 11.7071C7.10536 11.5196 7 11.2652 7 11C7 10.7348 7.10536 10.4804 7.29289 10.2929C7.48043 10.1054 7.73478 10 8 10H10V8C10 7.73478 10.1054 7.48043 10.2929 7.29289C10.4804 7.10536 10.7348 7 11 7C11.2652 7 11.5196 7.10536 11.7071 7.29289C11.8946 7.48043 12 7.73478 12 8V20H24C24.2652 20 24.5196 20.1054 24.7071 20.2929C24.8946 20.4804 25 20.7348 25 21C25 21.2652 24.8946 21.5196 24.7071 21.7071C24.5196 21.8946 24.2652 22 24 22Z" fill="#4A4A4F"/>
</svg>
