<svg width="32" height="32" viewBox="0 0 32 32" fill="none" xmlns="http://www.w3.org/2000/svg">
<path d="M25 9H20V4C20 3.46957 19.7893 2.96086 19.4142 2.58579C19.0391 2.21071 18.5304 2 18 2H14C13.4696 2 12.9609 2.21071 12.5858 2.58579C12.2107 2.96086 12 3.46957 12 4V9H7C6.46957 9 5.96086 9.21071 5.58579 9.58579C5.21071 9.96086 5 10.4696 5 11V15C5 15.5304 5.21071 16.0391 5.58579 16.4142C5.96086 16.7893 6.46957 17 7 17H12V28C12 28.5304 12.2107 29.0391 12.5858 29.4142C12.9609 29.7893 13.4696 30 14 30H18C18.5304 30 19.0391 29.7893 19.4142 29.4142C19.7893 29.0391 20 28.5304 20 28V17H25C25.5304 17 26.0391 16.7893 26.4142 16.4142C26.7893 16.0391 27 15.5304 27 15V11C27 10.4696 26.7893 9.96086 26.4142 9.58579C26.0391 9.21071 25.5304 9 25 9ZM25 15H20C19.4696 15 18.9609 15.2107 18.5858 15.5858C18.2107 15.9609 18 16.4696 18 17V28H14V17C14 16.4696 13.7893 15.9609 13.4142 15.5858C13.0391 15.2107 12.5304 15 12 15H7V11H12C12.5304 11 13.0391 10.7893 13.4142 10.4142C13.7893 10.0391 14 9.53043 14 9V4H18V9C18 9.53043 18.2107 10.0391 18.5858 10.4142C18.9609 10.7893 19.4696 11 20 11H25V15Z" fill="#4A4A4F"/>
</svg>
