<svg width="32" height="32" viewBox="0 0 32 32" fill="none" xmlns="http://www.w3.org/2000/svg">
<path d="M27 11.5V14.5C27 15.0304 26.7893 15.5391 26.4142 15.9142C26.0391 16.2893 25.5304 16.5 25 16.5H19.5V28C19.5 28.5304 19.2893 29.0391 18.9142 29.4142C18.5391 29.7893 18.0304 30 17.5 30H14.5C13.9696 30 13.4609 29.7893 13.0858 29.4142C12.7107 29.0391 12.5 28.5304 12.5 28V16.5H7C6.46957 16.5 5.96086 16.2893 5.58579 15.9142C5.21071 15.5391 5 15.0304 5 14.5V11.5C5 10.9696 5.21071 10.4609 5.58579 10.0858C5.96086 9.71071 6.46957 9.5 7 9.5H12.5V4C12.5 3.46957 12.7107 2.96086 13.0858 2.58579C13.4609 2.21071 13.9696 2 14.5 2H17.5C18.0304 2 18.5391 2.21071 18.9142 2.58579C19.2893 2.96086 19.5 3.46957 19.5 4V9.5H25C25.5304 9.5 26.0391 9.71071 26.4142 10.0858C26.7893 10.4609 27 10.9696 27 11.5Z" fill="#4A4A4F"/>
</svg>
