<svg width="32" height="32" viewBox="0 0 32 32" fill="none" xmlns="http://www.w3.org/2000/svg">
<path d="M29 15H27.9575C27.7175 12.1743 26.486 9.5245 24.4808 7.51924C22.4755 5.51398 19.8257 4.28247 17 4.0425V3C17 2.73478 16.8946 2.48043 16.7071 2.29289C16.5196 2.10536 16.2652 2 16 2C15.7348 2 15.4804 2.10536 15.2929 2.29289C15.1054 2.48043 15 2.73478 15 3V4.0425C12.1743 4.28247 9.5245 5.51398 7.51924 7.51924C5.51398 9.5245 4.28247 12.1743 4.0425 15H3C2.73478 15 2.48043 15.1054 2.29289 15.2929C2.10536 15.4804 2 15.7348 2 16C2 16.2652 2.10536 16.5196 2.29289 16.7071C2.48043 16.8946 2.73478 17 3 17H4.0425C4.28247 19.8257 5.51398 22.4755 7.51924 24.4808C9.5245 26.486 12.1743 27.7175 15 27.9575V29C15 29.2652 15.1054 29.5196 15.2929 29.7071C15.4804 29.8946 15.7348 30 16 30C16.2652 30 16.5196 29.8946 16.7071 29.7071C16.8946 29.5196 17 29.2652 17 29V27.9575C19.8257 27.7175 22.4755 26.486 24.4808 24.4808C26.486 22.4755 27.7175 19.8257 27.9575 17H29C29.2652 17 29.5196 16.8946 29.7071 16.7071C29.8946 16.5196 30 16.2652 30 16C30 15.7348 29.8946 15.4804 29.7071 15.2929C29.5196 15.1054 29.2652 15 29 15ZM17 25.95V25C17 24.7348 16.8946 24.4804 16.7071 24.2929C16.5196 24.1054 16.2652 24 16 24C15.7348 24 15.4804 24.1054 15.2929 24.2929C15.1054 24.4804 15 24.7348 15 25V25.95C12.7061 25.7159 10.5631 24.6978 8.93267 23.0673C7.30221 21.4369 6.28406 19.2939 6.05 17H7C7.26522 17 7.51957 16.8946 7.70711 16.7071C7.89464 16.5196 8 16.2652 8 16C8 15.7348 7.89464 15.4804 7.70711 15.2929C7.51957 15.1054 7.26522 15 7 15H6.05C6.28406 12.7061 7.30221 10.5631 8.93267 8.93267C10.5631 7.30221 12.7061 6.28406 15 6.05V7C15 7.26522 15.1054 7.51957 15.2929 7.70711C15.4804 7.89464 15.7348 8 16 8C16.2652 8 16.5196 7.89464 16.7071 7.70711C16.8946 7.51957 17 7.26522 17 7V6.05C19.2939 6.28406 21.4369 7.30221 23.0673 8.93267C24.6978 10.5631 25.7159 12.7061 25.95 15H25C24.7348 15 24.4804 15.1054 24.2929 15.2929C24.1054 15.4804 24 15.7348 24 16C24 16.2652 24.1054 16.5196 24.2929 16.7071C24.4804 16.8946 24.7348 17 25 17H25.95C25.7159 19.2939 24.6978 21.4369 23.0673 23.0673C21.4369 24.6978 19.2939 25.7159 17 25.95ZM16 11C15.0111 11 14.0444 11.2932 13.2221 11.8427C12.3999 12.3921 11.759 13.173 11.3806 14.0866C11.0022 15.0002 10.9031 16.0055 11.0961 16.9755C11.289 17.9454 11.7652 18.8363 12.4645 19.5355C13.1637 20.2348 14.0546 20.711 15.0245 20.9039C15.9945 21.0969 16.9998 20.9978 17.9134 20.6194C18.827 20.241 19.6079 19.6001 20.1573 18.7779C20.7068 17.9556 21 16.9889 21 16C21 14.6739 20.4732 13.4021 19.5355 12.4645C18.5979 11.5268 17.3261 11 16 11ZM16 19C15.4067 19 14.8266 18.8241 14.3333 18.4944C13.8399 18.1648 13.4554 17.6962 13.2284 17.1481C13.0013 16.5999 12.9419 15.9967 13.0576 15.4147C13.1734 14.8328 13.4591 14.2982 13.8787 13.8787C14.2982 13.4591 14.8328 13.1734 15.4147 13.0576C15.9967 12.9419 16.5999 13.0013 17.1481 13.2284C17.6962 13.4554 18.1648 13.8399 18.4944 14.3333C18.8241 14.8266 19 15.4067 19 16C19 16.7956 18.6839 17.5587 18.1213 18.1213C17.5587 18.6839 16.7956 19 16 19Z" fill="#4A4A4F"/>
</svg>
