<svg width="32" height="32" viewBox="0 0 32 32" fill="none" xmlns="http://www.w3.org/2000/svg">
<path d="M22.3237 11.2775L16 14.9288L9.67625 11.2775C9.60019 11.2336 9.53702 11.1705 9.4931 11.0945C9.44918 11.0184 9.42605 10.9322 9.42605 10.8444C9.42605 10.7566 9.44918 10.6703 9.4931 10.5943C9.53702 10.5182 9.60019 10.4551 9.67625 10.4113L15.22 7.21C15.4572 7.07308 15.7262 7.001 16 7.001C16.2738 7.001 16.5429 7.07308 16.78 7.21L22.3237 10.4113C22.3998 10.4551 22.463 10.5182 22.5069 10.5943C22.5508 10.6703 22.5739 10.7566 22.5739 10.8444C22.5739 10.9322 22.5508 11.0184 22.5069 11.0945C22.463 11.1705 22.3998 11.2336 22.3237 11.2775ZM8 13.485V19.6787C7.99938 19.9626 8.07315 20.2417 8.21395 20.4882C8.35474 20.7347 8.55767 20.9401 8.8025 21.0837L14.25 24.23C14.326 24.2739 14.4121 24.297 14.4999 24.297C14.5876 24.297 14.6738 24.274 14.7498 24.2301C14.8258 24.1863 14.8889 24.1233 14.9328 24.0473C14.9767 23.9714 14.9999 23.8852 15 23.7975V16.6612L8.75 13.0525C8.67403 13.0086 8.58785 12.9855 8.50013 12.9855C8.4124 12.9855 8.32622 13.0085 8.25022 13.0524C8.17423 13.0962 8.1111 13.1592 8.06718 13.2352C8.02326 13.3111 8.00009 13.3973 8 13.485ZM24 19.6787V13.485C23.9999 13.3973 23.9767 13.3111 23.9328 13.2352C23.8889 13.1592 23.8258 13.0962 23.7498 13.0524C23.6738 13.0085 23.5876 12.9855 23.4999 12.9855C23.4121 12.9855 23.326 13.0086 23.25 13.0525L17 16.6612V23.7975C17.0001 23.8852 17.0233 23.9714 17.0672 24.0473C17.1111 24.1233 17.1742 24.1863 17.2502 24.2301C17.3262 24.274 17.4124 24.297 17.5001 24.297C17.5879 24.297 17.674 24.2739 17.75 24.23L23.1963 21.0837C23.4413 20.9402 23.6445 20.735 23.7855 20.4884C23.9265 20.2419 24.0005 19.9628 24 19.6787ZM28 5H23C22.7348 5 22.4804 5.10536 22.2929 5.29289C22.1054 5.48043 22 5.73478 22 6C22 6.26522 22.1054 6.51957 22.2929 6.70711C22.4804 6.89464 22.7348 7 23 7H27V11C27 11.2652 27.1054 11.5196 27.2929 11.7071C27.4804 11.8946 27.7348 12 28 12C28.2652 12 28.5196 11.8946 28.7071 11.7071C28.8946 11.5196 29 11.2652 29 11V6C29 5.73478 28.8946 5.48043 28.7071 5.29289C28.5196 5.10536 28.2652 5 28 5ZM9 25H5V21C5 20.7348 4.89464 20.4804 4.70711 20.2929C4.51957 20.1054 4.26522 20 4 20C3.73478 20 3.48043 20.1054 3.29289 20.2929C3.10536 20.4804 3 20.7348 3 21V26C3 26.2652 3.10536 26.5196 3.29289 26.7071C3.48043 26.8946 3.73478 27 4 27H9C9.26522 27 9.51957 26.8946 9.70711 26.7071C9.89464 26.5196 10 26.2652 10 26C10 25.7348 9.89464 25.4804 9.70711 25.2929C9.51957 25.1054 9.26522 25 9 25ZM28 20C27.7348 20 27.4804 20.1054 27.2929 20.2929C27.1054 20.4804 27 20.7348 27 21V25H23C22.7348 25 22.4804 25.1054 22.2929 25.2929C22.1054 25.4804 22 25.7348 22 26C22 26.2652 22.1054 26.5196 22.2929 26.7071C22.4804 26.8946 22.7348 27 23 27H28C28.2652 27 28.5196 26.8946 28.7071 26.7071C28.8946 26.5196 29 26.2652 29 26V21C29 20.7348 28.8946 20.4804 28.7071 20.2929C28.5196 20.1054 28.2652 20 28 20ZM4 12C4.26522 12 4.51957 11.8946 4.70711 11.7071C4.89464 11.5196 5 11.2652 5 11V7H9C9.26522 7 9.51957 6.89464 9.70711 6.70711C9.89464 6.51957 10 6.26522 10 6C10 5.73478 9.89464 5.48043 9.70711 5.29289C9.51957 5.10536 9.26522 5 9 5H4C3.73478 5 3.48043 5.10536 3.29289 5.29289C3.10536 5.48043 3 5.73478 3 6V11C3 11.2652 3.10536 11.5196 3.29289 11.7071C3.48043 11.8946 3.73478 12 4 12Z" fill="#4A4A4F"/>
</svg>
