<svg width="32" height="32" viewBox="0 0 32 32" fill="none" xmlns="http://www.w3.org/2000/svg">
<path d="M13 19V13H19V19H13ZM4.00002 6.625V18.5C4.00002 18.6326 4.0527 18.7598 4.14646 18.8536C4.24023 18.9473 4.36741 19 4.50002 19H11V12.4137L4.85377 6.2675C4.78361 6.19726 4.69414 6.1495 4.59675 6.13029C4.49935 6.11108 4.39844 6.1213 4.30688 6.15964C4.21531 6.19798 4.13723 6.26272 4.08258 6.34559C4.02793 6.42847 3.99919 6.52573 4.00002 6.625ZM27.5 13H21V19.5863L27.1463 25.7325C27.2164 25.8027 27.3059 25.8505 27.4033 25.8697C27.5007 25.8889 27.6016 25.8787 27.6932 25.8404C27.7847 25.802 27.8628 25.7373 27.9175 25.6544C27.9721 25.5715 28.0008 25.4743 28 25.375V13.5C28 13.3674 27.9473 13.2402 27.8536 13.1464C27.7598 13.0527 27.6326 13 27.5 13ZM19 4.5C19 4.36739 18.9473 4.24022 18.8536 4.14645C18.7598 4.05268 18.6326 4 18.5 4H6.62502C6.52607 3.99992 6.42932 4.0292 6.34703 4.08414C6.26473 4.13908 6.20058 4.21719 6.16271 4.3086C6.12483 4.40002 6.11493 4.50061 6.13425 4.59765C6.15358 4.6947 6.20126 4.78382 6.27127 4.85375L12.4138 11H19V4.5ZM26.5613 10.1462L21.8538 5.43875C21.7838 5.36874 21.6947 5.32106 21.5977 5.30174C21.5006 5.28241 21.4 5.29231 21.3086 5.33019C21.2172 5.36807 21.1391 5.43221 21.0842 5.51451C21.0292 5.59681 20.9999 5.69355 21 5.7925V11H26.2075C26.3065 11.0001 26.4032 10.9708 26.4855 10.9159C26.5678 10.8609 26.632 10.7828 26.6698 10.6914C26.7077 10.6 26.7176 10.4994 26.6983 10.4023C26.679 10.3053 26.6313 10.2162 26.5613 10.1462ZM19.5863 21H13V27.5C13 27.6326 13.0527 27.7598 13.1465 27.8536C13.2402 27.9473 13.3674 28 13.5 28H25.375C25.474 28.0001 25.5707 27.9708 25.653 27.9159C25.7353 27.8609 25.7995 27.7828 25.8373 27.6914C25.8752 27.6 25.8851 27.4994 25.8658 27.4023C25.8465 27.3053 25.7988 27.2162 25.7288 27.1462L19.5863 21ZM5.43877 21.8538L10.1463 26.5613C10.2162 26.6313 10.3053 26.6789 10.4024 26.6983C10.4994 26.7176 10.6 26.7077 10.6914 26.6698C10.7828 26.6319 10.8609 26.5678 10.9159 26.4855C10.9708 26.4032 11.0001 26.3064 11 26.2075V21H5.79252C5.69357 20.9999 5.59682 21.0292 5.51453 21.0841C5.43223 21.1391 5.36808 21.2172 5.33021 21.3086C5.29233 21.4 5.28243 21.5006 5.30175 21.5977C5.32108 21.6947 5.36876 21.7838 5.43877 21.8538Z" fill="#4A4A4F"/>
</svg>
