<svg width="32" height="32" viewBox="0 0 32 32" fill="none" xmlns="http://www.w3.org/2000/svg">
<path d="M16 3C13.4288 3 10.9154 3.76244 8.77759 5.1909C6.63975 6.61935 4.97351 8.64968 3.98957 11.0251C3.00563 13.4006 2.74819 16.0144 3.2498 18.5362C3.75141 21.0579 4.98953 23.3743 6.80762 25.1924C8.6257 27.0105 10.9421 28.2486 13.4638 28.7502C15.9856 29.2518 18.5995 28.9944 20.9749 28.0104C23.3503 27.0265 25.3807 25.3603 26.8091 23.2224C28.2376 21.0846 29 18.5712 29 16C28.9964 12.5533 27.6256 9.24882 25.1884 6.81163C22.7512 4.37445 19.4467 3.00364 16 3ZM16 13C16.2652 13 16.5196 13.1054 16.7071 13.2929C16.8946 13.4804 17 13.7348 17 14C17 14.2652 16.8946 14.5196 16.7071 14.7071C16.5196 14.8946 16.2652 15 16 15H11V17H15C15.2652 17 15.5196 17.1054 15.7071 17.2929C15.8946 17.4804 16 17.7348 16 18C16 18.2652 15.8946 18.5196 15.7071 18.7071C15.5196 18.8946 15.2652 19 15 19H11.2363C11.5197 19.8928 12.0253 20.6991 12.7056 21.3431C13.3859 21.9871 14.2187 22.4477 15.1257 22.6818C16.0327 22.916 16.9844 22.9159 17.8914 22.6816C18.7984 22.4474 19.631 21.9866 20.3113 21.3425C20.4051 21.2458 20.5176 21.169 20.6419 21.1168C20.7663 21.0647 20.8998 21.0382 21.0346 21.039C21.1695 21.0398 21.3027 21.0678 21.4264 21.1214C21.5501 21.175 21.6617 21.2531 21.7545 21.3509C21.8472 21.4487 21.9193 21.5643 21.9662 21.6906C22.0132 21.817 22.0341 21.9516 22.0277 22.0862C22.0214 22.2209 21.9878 22.3529 21.9291 22.4742C21.8705 22.5956 21.7878 22.7039 21.6863 22.7925C20.722 23.7059 19.5333 24.348 18.2407 24.6535C16.9481 24.9589 15.5977 24.917 14.3265 24.5318C13.0554 24.1466 11.9088 23.432 11.0032 22.4605C10.0975 21.4889 9.46507 20.295 9.17001 19H8.00001C7.73479 19 7.48044 18.8946 7.2929 18.7071C7.10536 18.5196 7.00001 18.2652 7.00001 18C7.00001 17.7348 7.10536 17.4804 7.2929 17.2929C7.48044 17.1054 7.73479 17 8.00001 17H9.00001V15H8.00001C7.73479 15 7.48044 14.8946 7.2929 14.7071C7.10536 14.5196 7.00001 14.2652 7.00001 14C7.00001 13.7348 7.10536 13.4804 7.2929 13.2929C7.48044 13.1054 7.73479 13 8.00001 13H9.14001C9.41192 11.6869 10.0297 10.4703 10.9295 9.47599C11.8293 8.48172 12.9784 7.74591 14.258 7.34468C15.5375 6.94344 16.901 6.89136 18.2074 7.19381C19.5138 7.49626 20.7157 8.14227 21.6888 9.065C21.7903 9.15363 21.873 9.26188 21.9316 9.38325C21.9903 9.50462 22.0239 9.63661 22.0302 9.77127C22.0366 9.90593 22.0157 10.0405 21.9687 10.1669C21.9218 10.2932 21.8497 10.4088 21.757 10.5066C21.6642 10.6044 21.5526 10.6825 21.4289 10.7361C21.3052 10.7897 21.172 10.8177 21.0371 10.8185C20.9023 10.8193 20.7688 10.7928 20.6444 10.7407C20.5201 10.6885 20.4076 10.6117 20.3138 10.515C19.6245 9.86174 18.7787 9.39697 17.8578 9.16545C16.9368 8.93394 15.9718 8.94348 15.0556 9.19316C14.1394 9.44283 13.3029 9.92424 12.6267 10.591C11.9506 11.2577 11.4575 12.0874 11.195 13H16Z" fill="#4A4A4F"/>
</svg>
