<svg width="32" height="32" viewBox="0 0 32 32" fill="none" xmlns="http://www.w3.org/2000/svg">
<path d="M11 11.7037L13.8263 15H11V11.7037ZM21 20.2962V17H18.1738L21 20.2962ZM29 16C29 18.5712 28.2376 21.0846 26.8091 23.2224C25.3807 25.3603 23.3503 27.0265 20.9749 28.0104C18.5995 28.9944 15.9856 29.2518 13.4638 28.7502C10.9421 28.2486 8.6257 27.0105 6.80762 25.1924C4.98953 23.3743 3.75141 21.0579 3.2498 18.5362C2.74819 16.0144 3.00563 13.4006 3.98957 11.0251C4.97351 8.64968 6.63975 6.61935 8.77759 5.1909C10.9154 3.76244 13.4288 3 16 3C19.4467 3.00364 22.7512 4.37445 25.1884 6.81163C27.6256 9.24882 28.9964 12.5533 29 16ZM25 16C25 15.7348 24.8946 15.4804 24.7071 15.2929C24.5196 15.1054 24.2652 15 24 15H23V9C23 8.73478 22.8946 8.48043 22.7071 8.29289C22.5196 8.10536 22.2652 8 22 8C21.7348 8 21.4804 8.10536 21.2929 8.29289C21.1054 8.48043 21 8.73478 21 9V15H16.46L10.7588 8.34875C10.6257 8.19378 10.4484 8.08326 10.2507 8.03206C10.053 7.98086 9.84429 7.99143 9.65276 8.06236C9.46122 8.13328 9.29599 8.26116 9.1793 8.42879C9.0626 8.59641 9.00003 8.79575 9.00001 9V15H8.00001C7.73479 15 7.48044 15.1054 7.2929 15.2929C7.10536 15.4804 7.00001 15.7348 7.00001 16C7.00001 16.2652 7.10536 16.5196 7.2929 16.7071C7.48044 16.8946 7.73479 17 8.00001 17H9.00001V23C9.00001 23.2652 9.10536 23.5196 9.2929 23.7071C9.48044 23.8946 9.73479 24 10 24C10.2652 24 10.5196 23.8946 10.7071 23.7071C10.8946 23.5196 11 23.2652 11 23V17H15.54L21.2413 23.6513C21.3351 23.7606 21.4515 23.8484 21.5825 23.9086C21.7134 23.9688 21.8559 24 22 24C22.2652 24 22.5196 23.8946 22.7071 23.7071C22.8946 23.5196 23 23.2652 23 23V17H24C24.2652 17 24.5196 16.8946 24.7071 16.7071C24.8946 16.5196 25 16.2652 25 16Z" fill="#4A4A4F"/>
</svg>
