<svg width="32" height="32" viewBox="0 0 32 32" fill="none" xmlns="http://www.w3.org/2000/svg">
<path d="M16 3C13.4288 3 10.9154 3.76244 8.77759 5.1909C6.63975 6.61935 4.97351 8.64968 3.98957 11.0251C3.00563 13.4006 2.74819 16.0144 3.2498 18.5362C3.75141 21.0579 4.98953 23.3743 6.80762 25.1924C8.6257 27.0105 10.9421 28.2486 13.4638 28.7502C15.9856 29.2518 18.5995 28.9944 20.9749 28.0104C23.3503 27.0265 25.3807 25.3603 26.8091 23.2224C28.2376 21.0846 29 18.5712 29 16C28.9964 12.5533 27.6256 9.24882 25.1884 6.81163C22.7512 4.37445 19.4467 3.00364 16 3ZM10 9H22C22.2652 9 22.5196 9.10536 22.7071 9.29289C22.8946 9.48043 23 9.73478 23 10C23 10.2652 22.8946 10.5196 22.7071 10.7071C22.5196 10.8946 22.2652 11 22 11H10C9.73479 11 9.48044 10.8946 9.2929 10.7071C9.10536 10.5196 9.00001 10.2652 9.00001 10C9.00001 9.73478 9.10536 9.48043 9.2929 9.29289C9.48044 9.10536 9.73479 9 10 9ZM25 22C25 22.2652 24.8946 22.5196 24.7071 22.7071C24.5196 22.8946 24.2652 23 24 23H21C19.9391 23 18.9217 22.5786 18.1716 21.8284C17.4214 21.0783 17 20.0609 17 19V16H14.935C14.7101 17.7356 13.9249 19.3503 12.6988 20.599C11.4726 21.8478 9.87243 22.6622 8.14126 22.9188C8.09409 22.9258 8.04644 22.9292 7.99876 22.9287C7.74587 22.9285 7.50248 22.8324 7.31759 22.6599C7.13269 22.4874 7.02003 22.2512 7.00228 21.9989C6.98454 21.7467 7.06302 21.4971 7.22194 21.3003C7.38086 21.1036 7.6084 20.9744 7.85876 20.9387C9.11388 20.7523 10.2782 20.1745 11.1858 19.2877C12.0934 18.401 12.6981 17.2505 12.9138 16H9.00001C8.73479 16 8.48044 15.8946 8.2929 15.7071C8.10536 15.5196 8.00001 15.2652 8.00001 15C8.00001 14.7348 8.10536 14.4804 8.2929 14.2929C8.48044 14.1054 8.73479 14 9.00001 14H23C23.2652 14 23.5196 14.1054 23.7071 14.2929C23.8946 14.4804 24 14.7348 24 15C24 15.2652 23.8946 15.5196 23.7071 15.7071C23.5196 15.8946 23.2652 16 23 16H19V19C19 19.5304 19.2107 20.0391 19.5858 20.4142C19.9609 20.7893 20.4696 21 21 21H23V20C23 19.7348 23.1054 19.4804 23.2929 19.2929C23.4804 19.1054 23.7348 19 24 19C24.2652 19 24.5196 19.1054 24.7071 19.2929C24.8946 19.4804 25 19.7348 25 20V22Z" fill="#4A4A4F"/>
</svg>
