<svg width="32" height="32" viewBox="0 0 32 32" fill="none" xmlns="http://www.w3.org/2000/svg">
<path d="M22 13.5C22 14.4283 21.6313 15.3185 20.9749 15.9749C20.3185 16.6313 19.4283 17 18.5 17H14V10H18.5C19.4283 10 20.3185 10.3687 20.9749 11.0251C21.6313 11.6815 22 12.5717 22 13.5ZM29 16C29 18.5712 28.2376 21.0846 26.8091 23.2224C25.3807 25.3603 23.3503 27.0265 20.9749 28.0104C18.5995 28.9944 15.9856 29.2518 13.4638 28.7502C10.9421 28.2486 8.6257 27.0105 6.80762 25.1924C4.98953 23.3743 3.75141 21.0579 3.2498 18.5362C2.74819 16.0144 3.00563 13.4006 3.98957 11.0251C4.97351 8.64968 6.63975 6.61935 8.77759 5.1909C10.9154 3.76244 13.4288 3 16 3C19.4467 3.00364 22.7512 4.37445 25.1884 6.81163C27.6256 9.24882 28.9964 12.5533 29 16ZM24 13.5C23.9984 12.0418 23.4184 10.6438 22.3873 9.61274C21.3562 8.58165 19.9582 8.00165 18.5 8H13C12.7348 8 12.4804 8.10536 12.2929 8.29289C12.1054 8.48043 12 8.73478 12 9V17H10C9.73479 17 9.48044 17.1054 9.2929 17.2929C9.10536 17.4804 9.00001 17.7348 9.00001 18C9.00001 18.2652 9.10536 18.5196 9.2929 18.7071C9.48044 18.8946 9.73479 19 10 19H12V21H10C9.73479 21 9.48044 21.1054 9.2929 21.2929C9.10536 21.4804 9.00001 21.7348 9.00001 22C9.00001 22.2652 9.10536 22.5196 9.2929 22.7071C9.48044 22.8946 9.73479 23 10 23H12V25C12 25.2652 12.1054 25.5196 12.2929 25.7071C12.4804 25.8946 12.7348 26 13 26C13.2652 26 13.5196 25.8946 13.7071 25.7071C13.8946 25.5196 14 25.2652 14 25V23H19C19.2652 23 19.5196 22.8946 19.7071 22.7071C19.8946 22.5196 20 22.2652 20 22C20 21.7348 19.8946 21.4804 19.7071 21.2929C19.5196 21.1054 19.2652 21 19 21H14V19H18.5C19.9582 18.9983 21.3562 18.4184 22.3873 17.3873C23.4184 16.3562 23.9984 14.9582 24 13.5Z" fill="#4A4A4F"/>
</svg>
