<svg width="32" height="32" viewBox="0 0 32 32" fill="none" xmlns="http://www.w3.org/2000/svg">
<path d="M16 13.8475L16.8075 16H15.1925L16 13.8475ZM11.5 20.1525L12.3075 18H10.6925L11.5 20.1525ZM29 16C29 18.5712 28.2376 21.0846 26.8091 23.2224C25.3807 25.3603 23.3503 27.0265 20.9749 28.0104C18.5995 28.9944 15.9856 29.2518 13.4638 28.7502C10.9421 28.2486 8.6257 27.0105 6.80762 25.1924C4.98953 23.3743 3.75141 21.0579 3.2498 18.5362C2.74819 16.0144 3.00563 13.4006 3.98957 11.0251C4.97351 8.64968 6.63975 6.61935 8.77759 5.1909C10.9154 3.76244 13.4288 3 16 3C19.4467 3.00364 22.7512 4.37445 25.1884 6.81163C27.6256 9.24882 28.9964 12.5533 29 16ZM27 17C27 16.7348 26.8946 16.4804 26.7071 16.2929C26.5196 16.1054 26.2652 16 26 16H24.1925L25.9425 11.3512C26.0357 11.1026 26.0262 10.8271 25.9163 10.5855C25.8063 10.3438 25.6049 10.1557 25.3563 10.0625C25.1076 9.96934 24.8322 9.97877 24.5905 10.0887C24.3488 10.1987 24.1607 10.4001 24.0675 10.6488L22.0675 16H18.9425L16.9425 10.6488C16.8715 10.4574 16.7436 10.2923 16.576 10.1758C16.4084 10.0592 16.2091 9.99674 16.005 9.99674C15.8009 9.99674 15.6016 10.0592 15.434 10.1758C15.2664 10.2923 15.1385 10.4574 15.0675 10.6488L13.0575 16H9.94251L7.93626 10.6488C7.8431 10.4001 7.65498 10.1987 7.4133 10.0887C7.17161 9.97877 6.89615 9.96934 6.64751 10.0625C6.39887 10.1557 6.19742 10.3438 6.08747 10.5855C5.97753 10.8271 5.9681 11.1026 6.06126 11.3512L7.81126 16H6.00001C5.73479 16 5.48044 16.1054 5.2929 16.2929C5.10536 16.4804 5.00001 16.7348 5.00001 17C5.00001 17.2652 5.10536 17.5196 5.2929 17.7071C5.48044 17.8946 5.73479 18 6.00001 18H8.55751L10.5638 23.3512C10.6348 23.5426 10.7627 23.7077 10.9303 23.8242C11.0979 23.9408 11.2971 24.0033 11.5013 24.0033C11.7054 24.0033 11.9046 23.9408 12.0722 23.8242C12.2398 23.7077 12.3677 23.5426 12.4388 23.3512L14.4425 18H17.5575L19.5575 23.3512C19.6285 23.5426 19.7564 23.7077 19.924 23.8242C20.0916 23.9408 20.2909 24.0033 20.495 24.0033C20.6991 24.0033 20.8984 23.9408 21.066 23.8242C21.2336 23.7077 21.3615 23.5426 21.4325 23.3512L23.4325 18H26C26.2652 18 26.5196 17.8946 26.7071 17.7071C26.8946 17.5196 27 17.2652 27 17ZM20.5 20.1525L21.3075 18H19.6925L20.5 20.1525Z" fill="#4A4A4F"/>
</svg>
