<svg width="32" height="32" viewBox="0 0 32 32" fill="none" xmlns="http://www.w3.org/2000/svg">
<path d="M16 3C13.4288 3 10.9154 3.76244 8.77759 5.1909C6.63975 6.61935 4.97351 8.64968 3.98957 11.0251C3.00563 13.4006 2.74819 16.0144 3.2498 18.5362C3.75141 21.0579 4.98953 23.3743 6.80762 25.1924C8.6257 27.0105 10.9421 28.2486 13.4638 28.7502C15.9856 29.2518 18.5995 28.9944 20.9749 28.0104C23.3503 27.0265 25.3807 25.3603 26.8091 23.2224C28.2376 21.0846 29 18.5712 29 16C28.9964 12.5533 27.6256 9.24882 25.1884 6.81163C22.7512 4.37445 19.4467 3.00364 16 3ZM19.6563 11H22C22.2652 11 22.5196 11.1054 22.7071 11.2929C22.8946 11.4804 23 11.7348 23 12C23 12.2652 22.8946 12.5196 22.7071 12.7071C22.5196 12.8946 22.2652 13 22 13H20C19.9984 14.5908 19.3657 16.116 18.2408 17.2408C17.116 18.3657 15.5908 18.9983 14 19H13.6613L19.6613 24.25C19.8424 24.4293 19.9483 24.6711 19.9571 24.9258C19.966 25.1806 19.8773 25.4291 19.7091 25.6206C19.5409 25.8121 19.3059 25.9322 19.0521 25.9562C18.7983 25.9803 18.545 25.9065 18.3438 25.75L10.3438 18.75C10.1917 18.6159 10.0841 18.4389 10.035 18.2422C9.98586 18.0456 9.99768 17.8386 10.0688 17.6489C10.14 17.4591 10.2672 17.2954 10.4335 17.1795C10.5997 17.0637 10.7973 17.001 11 17H14C15.0609 17 16.0783 16.5786 16.8284 15.8284C17.5786 15.0783 18 14.0609 18 13H11C10.7348 13 10.4804 12.8946 10.2929 12.7071C10.1054 12.5196 10 12.2652 10 12C10 11.7348 10.1054 11.4804 10.2929 11.2929C10.4804 11.1054 10.7348 11 11 11H17.4613C17.1104 10.3923 16.6059 9.88766 15.9984 9.53661C15.3909 9.18556 14.7017 9.0005 14 9H11C10.7348 9 10.4804 8.89464 10.2929 8.70711C10.1054 8.51957 10 8.26522 10 8C10 7.73478 10.1054 7.48043 10.2929 7.29289C10.4804 7.10536 10.7348 7 11 7H22C22.2652 7 22.5196 7.10536 22.7071 7.29289C22.8946 7.48043 23 7.73478 23 8C23 8.26522 22.8946 8.51957 22.7071 8.70711C22.5196 8.89464 22.2652 9 22 9H18.4675C18.9901 9.583 19.3939 10.2624 19.6563 11Z" fill="#4A4A4F"/>
</svg>
