<svg width="32" height="32" viewBox="0 0 32 32" fill="none" xmlns="http://www.w3.org/2000/svg">
<path d="M16 3C13.4288 3 10.9154 3.76244 8.77759 5.1909C6.63975 6.61935 4.97351 8.64968 3.98957 11.0251C3.00563 13.4006 2.74819 16.0144 3.2498 18.5362C3.75141 21.0579 4.98953 23.3743 6.80762 25.1924C8.6257 27.0105 10.9421 28.2486 13.4638 28.7502C15.9856 29.2518 18.5995 28.9944 20.9749 28.0104C23.3503 27.0265 25.3807 25.3603 26.8091 23.2224C28.2376 21.0846 29 18.5712 29 16C28.9964 12.5533 27.6256 9.24882 25.1884 6.81163C22.7512 4.37445 19.4467 3.00364 16 3ZM18.5 24H17V25C17 25.2652 16.8946 25.5196 16.7071 25.7071C16.5196 25.8946 16.2652 26 16 26C15.7348 26 15.4804 25.8946 15.2929 25.7071C15.1054 25.5196 15 25.2652 15 25V24H14C12.8065 24 11.6619 23.5259 10.818 22.682C9.97411 21.8381 9.50001 20.6935 9.50001 19.5C9.50001 19.2348 9.60536 18.9804 9.7929 18.7929C9.98044 18.6054 10.2348 18.5 10.5 18.5C10.7652 18.5 11.0196 18.6054 11.2071 18.7929C11.3946 18.9804 11.5 19.2348 11.5 19.5C11.5 20.163 11.7634 20.7989 12.2322 21.2678C12.7011 21.7366 13.337 22 14 22H18.5C19.163 22 19.7989 21.7366 20.2678 21.2678C20.7366 20.7989 21 20.163 21 19.5C21 18.837 20.7366 18.2011 20.2678 17.7322C19.7989 17.2634 19.163 17 18.5 17H14.5C13.3065 17 12.1619 16.5259 11.318 15.682C10.4741 14.8381 10 13.6935 10 12.5C10 11.3065 10.4741 10.1619 11.318 9.31802C12.1619 8.47411 13.3065 8 14.5 8H15V7C15 6.73478 15.1054 6.48043 15.2929 6.29289C15.4804 6.10536 15.7348 6 16 6C16.2652 6 16.5196 6.10536 16.7071 6.29289C16.8946 6.48043 17 6.73478 17 7V8H17.5C18.6935 8 19.8381 8.47411 20.682 9.31802C21.5259 10.1619 22 11.3065 22 12.5C22 12.7652 21.8946 13.0196 21.7071 13.2071C21.5196 13.3946 21.2652 13.5 21 13.5C20.7348 13.5 20.4804 13.3946 20.2929 13.2071C20.1054 13.0196 20 12.7652 20 12.5C20 11.837 19.7366 11.2011 19.2678 10.7322C18.7989 10.2634 18.163 10 17.5 10H14.5C13.837 10 13.2011 10.2634 12.7322 10.7322C12.2634 11.2011 12 11.837 12 12.5C12 13.163 12.2634 13.7989 12.7322 14.2678C13.2011 14.7366 13.837 15 14.5 15H18.5C19.6935 15 20.8381 15.4741 21.682 16.318C22.5259 17.1619 23 18.3065 23 19.5C23 20.6935 22.5259 21.8381 21.682 22.682C20.8381 23.5259 19.6935 24 18.5 24Z" fill="#4A4A4F"/>
</svg>
