<svg width="32" height="32" viewBox="0 0 32 32" fill="none" xmlns="http://www.w3.org/2000/svg">
<path d="M14.5 10H15V15H14.5C13.837 15 13.2011 14.7366 12.7322 14.2678C12.2634 13.7989 12 13.163 12 12.5C12 11.837 12.2634 11.2011 12.7322 10.7322C13.2011 10.2634 13.837 10 14.5 10ZM18.5 17H17V22H18.5C19.163 22 19.7989 21.7366 20.2678 21.2678C20.7366 20.7989 21 20.163 21 19.5C21 18.837 20.7366 18.2011 20.2678 17.7322C19.7989 17.2634 19.163 17 18.5 17ZM29 16C29 18.5712 28.2376 21.0846 26.8091 23.2224C25.3807 25.3603 23.3503 27.0265 20.9749 28.0104C18.5995 28.9944 15.9856 29.2518 13.4638 28.7502C10.9421 28.2486 8.6257 27.0105 6.80762 25.1924C4.98953 23.3743 3.75141 21.0579 3.2498 18.5362C2.74819 16.0144 3.00563 13.4006 3.98957 11.0251C4.97351 8.64968 6.63975 6.61935 8.77759 5.1909C10.9154 3.76244 13.4288 3 16 3C19.4467 3.00364 22.7512 4.37445 25.1884 6.81163C27.6256 9.24882 28.9964 12.5533 29 16ZM23 19.5C23 18.3065 22.5259 17.1619 21.682 16.318C20.8381 15.4741 19.6935 15 18.5 15H17V10H17.5C18.163 10 18.7989 10.2634 19.2678 10.7322C19.7366 11.2011 20 11.837 20 12.5C20 12.7652 20.1054 13.0196 20.2929 13.2071C20.4804 13.3946 20.7348 13.5 21 13.5C21.2652 13.5 21.5196 13.3946 21.7071 13.2071C21.8946 13.0196 22 12.7652 22 12.5C22 11.3065 21.5259 10.1619 20.682 9.31802C19.8381 8.47411 18.6935 8 17.5 8H17V7C17 6.73478 16.8946 6.48043 16.7071 6.29289C16.5196 6.10536 16.2652 6 16 6C15.7348 6 15.4804 6.10536 15.2929 6.29289C15.1054 6.48043 15 6.73478 15 7V8H14.5C13.3065 8 12.1619 8.47411 11.318 9.31802C10.4741 10.1619 10 11.3065 10 12.5C10 13.6935 10.4741 14.8381 11.318 15.682C12.1619 16.5259 13.3065 17 14.5 17H15V22H14C13.337 22 12.7011 21.7366 12.2322 21.2678C11.7634 20.7989 11.5 20.163 11.5 19.5C11.5 19.2348 11.3946 18.9804 11.2071 18.7929C11.0196 18.6054 10.7652 18.5 10.5 18.5C10.2348 18.5 9.98044 18.6054 9.7929 18.7929C9.60536 18.9804 9.50001 19.2348 9.50001 19.5C9.50001 20.6935 9.97411 21.8381 10.818 22.682C11.6619 23.5259 12.8065 24 14 24H15V25C15 25.2652 15.1054 25.5196 15.2929 25.7071C15.4804 25.8946 15.7348 26 16 26C16.2652 26 16.5196 25.8946 16.7071 25.7071C16.8946 25.5196 17 25.2652 17 25V24H18.5C19.6935 24 20.8381 23.5259 21.682 22.682C22.5259 21.8381 23 20.6935 23 19.5Z" fill="#4A4A4F"/>
</svg>
