<svg width="32" height="32" viewBox="0 0 32 32" fill="none" xmlns="http://www.w3.org/2000/svg">
<path d="M16 3C13.4288 3 10.9154 3.76244 8.77759 5.1909C6.63975 6.61935 4.97351 8.64968 3.98957 11.0251C3.00563 13.4006 2.74819 16.0144 3.2498 18.5362C3.75141 21.0579 4.98953 23.3743 6.80762 25.1924C8.6257 27.0105 10.9421 28.2486 13.4638 28.7502C15.9856 29.2518 18.5995 28.9944 20.9749 28.0104C23.3503 27.0265 25.3807 25.3603 26.8091 23.2224C28.2376 21.0846 29 18.5712 29 16C28.9964 12.5533 27.6256 9.24882 25.1884 6.81163C22.7512 4.37445 19.4467 3.00364 16 3ZM21 24H10C9.73479 24 9.48044 23.8946 9.2929 23.7071C9.10536 23.5196 9.00001 23.2652 9.00001 23C9.00001 22.7348 9.10536 22.4804 9.2929 22.2929C9.48044 22.1054 9.73479 22 10 22H10.5C11.163 22 11.7989 21.7366 12.2678 21.2678C12.7366 20.7989 13 20.163 13 19.5V17H10C9.73479 17 9.48044 16.8946 9.2929 16.7071C9.10536 16.5196 9.00001 16.2652 9.00001 16C9.00001 15.7348 9.10536 15.4804 9.2929 15.2929C9.48044 15.1054 9.73479 15 10 15H13V12C13 11.1223 13.2311 10.2601 13.6699 9.50004C14.1088 8.73997 14.74 8.10879 15.5001 7.66997C16.2602 7.23114 17.1224 7.00012 18 7.00013C18.8777 7.00013 19.7399 7.23116 20.5 7.67C20.6174 7.73372 20.7208 7.82031 20.8041 7.92464C20.8875 8.02897 20.9491 8.14894 20.9853 8.27747C21.0215 8.406 21.0316 8.54049 21.0151 8.67299C20.9985 8.80549 20.9555 8.93334 20.8887 9.04897C20.8219 9.1646 20.7327 9.26569 20.6262 9.34626C20.5197 9.42683 20.3981 9.48526 20.2687 9.5181C20.1393 9.55093 20.0045 9.55751 19.8725 9.53744C19.7405 9.51737 19.6138 9.47106 19.5 9.40125C19.0439 9.13792 18.5265 8.9993 17.9998 8.99933C17.4732 8.99936 16.9558 9.13803 16.4997 9.40142C16.0436 9.6648 15.6649 10.0436 15.4017 10.4998C15.1384 10.9559 14.9999 11.4733 15 12V15H18C18.2652 15 18.5196 15.1054 18.7071 15.2929C18.8946 15.4804 19 15.7348 19 16C19 16.2652 18.8946 16.5196 18.7071 16.7071C18.5196 16.8946 18.2652 17 18 17H15V19.5C15.0011 20.3904 14.7365 21.2609 14.24 22H21C21.2652 22 21.5196 22.1054 21.7071 22.2929C21.8946 22.4804 22 22.7348 22 23C22 23.2652 21.8946 23.5196 21.7071 23.7071C21.5196 23.8946 21.2652 24 21 24Z" fill="#4A4A4F"/>
</svg>
