<svg width="32" height="32" viewBox="0 0 32 32" fill="none" xmlns="http://www.w3.org/2000/svg">
<path d="M16 3C13.4288 3 10.9154 3.76244 8.77759 5.1909C6.63975 6.61935 4.97351 8.64968 3.98957 11.0251C3.00563 13.4006 2.74819 16.0144 3.2498 18.5362C3.75141 21.0579 4.98953 23.3743 6.80762 25.1924C8.6257 27.0105 10.9421 28.2486 13.4638 28.7502C15.9856 29.2518 18.5995 28.9944 20.9749 28.0104C23.3503 27.0265 25.3807 25.3603 26.8091 23.2224C28.2376 21.0846 29 18.5712 29 16C28.9964 12.5533 27.6256 9.24882 25.1884 6.81163C22.7512 4.37445 19.4467 3.00364 16 3ZM23.75 9.65875L18.2038 16H20C20.2652 16 20.5196 16.1054 20.7071 16.2929C20.8946 16.4804 21 16.7348 21 17C21 17.2652 20.8946 17.5196 20.7071 17.7071C20.5196 17.8946 20.2652 18 20 18H17V20H20C20.2652 20 20.5196 20.1054 20.7071 20.2929C20.8946 20.4804 21 20.7348 21 21C21 21.2652 20.8946 21.5196 20.7071 21.7071C20.5196 21.8946 20.2652 22 20 22H17V24C17 24.2652 16.8946 24.5196 16.7071 24.7071C16.5196 24.8946 16.2652 25 16 25C15.7348 25 15.4804 24.8946 15.2929 24.7071C15.1054 24.5196 15 24.2652 15 24V22H12C11.7348 22 11.4804 21.8946 11.2929 21.7071C11.1054 21.5196 11 21.2652 11 21C11 20.7348 11.1054 20.4804 11.2929 20.2929C11.4804 20.1054 11.7348 20 12 20H15V18H12C11.7348 18 11.4804 17.8946 11.2929 17.7071C11.1054 17.5196 11 17.2652 11 17C11 16.7348 11.1054 16.4804 11.2929 16.2929C11.4804 16.1054 11.7348 16 12 16H13.7963L8.25001 9.65875C8.0935 9.45755 8.01973 9.20418 8.04378 8.95041C8.06783 8.69664 8.18788 8.46164 8.37939 8.29342C8.57091 8.1252 8.81944 8.03647 9.07419 8.04536C9.32894 8.05425 9.57068 8.16009 9.75001 8.34125L16 15.4812L22.25 8.34125C22.3337 8.23364 22.4385 8.14428 22.5581 8.07866C22.6776 8.01305 22.8092 7.97257 22.945 7.9597C23.0807 7.94684 23.2176 7.96187 23.3473 8.00387C23.477 8.04586 23.5968 8.11394 23.6992 8.20391C23.8017 8.29388 23.8846 8.40385 23.943 8.52706C24.0014 8.65027 24.034 8.78411 24.0387 8.92037C24.0435 9.05663 24.0203 9.19242 23.9707 9.31939C23.921 9.44637 23.8459 9.56185 23.75 9.65875Z" fill="#4A4A4F"/>
</svg>
