<svg width="32" height="32" viewBox="0 0 32 32" fill="none" xmlns="http://www.w3.org/2000/svg">
<path d="M27.7864 15.3826L16.7864 1.38258C16.6928 1.26352 16.5735 1.16726 16.4373 1.10107C16.3011 1.03488 16.1516 1.00049 16.0002 1.00049C15.8487 1.00049 15.6993 1.03488 15.5631 1.10107C15.4269 1.16726 15.3075 1.26352 15.2139 1.38258L4.21392 15.3826C4.07564 15.5587 4.00049 15.7762 4.00049 16.0001C4.00049 16.224 4.07564 16.4414 4.21392 16.6176L15.2139 30.6176C15.3075 30.7366 15.4269 30.8329 15.5631 30.8991C15.6993 30.9653 15.8487 30.9997 16.0002 30.9997C16.1516 30.9997 16.3011 30.9653 16.4373 30.8991C16.5735 30.8329 16.6928 30.7366 16.7864 30.6176L27.7864 16.6176C27.9247 16.4414 27.9998 16.224 27.9998 16.0001C27.9998 15.7762 27.9247 15.5587 27.7864 15.3826ZM17.0002 19.4476V4.89133L25.4277 15.6163L17.0002 19.4476ZM15.0002 19.4476L6.57267 15.6163L15.0002 4.89133V19.4476ZM15.0002 21.6438V27.1088L8.32142 18.6088L15.0002 21.6438Z" fill="#4A4A4F"/>
</svg>
