<svg width="32" height="32" viewBox="0 0 32 32" fill="none" xmlns="http://www.w3.org/2000/svg">
<path d="M15 9.5V23.5C15 23.6326 14.9473 23.7598 14.8536 23.8536C14.7598 23.9473 14.6326 24 14.5 24H12V26H13.9663C14.2242 25.9968 14.4739 26.0913 14.6651 26.2645C14.8564 26.4376 14.9751 26.6767 14.9975 26.9338C15.0066 27.0705 14.9874 27.2077 14.9413 27.3368C14.8951 27.4659 14.8229 27.5841 14.7291 27.6841C14.6353 27.7841 14.522 27.8637 14.3961 27.9181C14.2703 27.9724 14.1346 28.0003 13.9975 28H8.03375C7.77533 28.0038 7.52506 27.9096 7.33327 27.7364C7.14148 27.5632 7.0224 27.3237 7 27.0662C6.99092 26.9295 7.01006 26.7923 7.05623 26.6632C7.1024 26.5341 7.17462 26.4159 7.2684 26.3159C7.36218 26.2159 7.47552 26.1363 7.60137 26.0819C7.72723 26.0276 7.86291 25.9997 8 26H10V24H4C3.20435 24 2.44129 23.6839 1.87868 23.1213C1.31607 22.5587 1 21.7956 1 21V12C1 11.2044 1.31607 10.4413 1.87868 9.87868C2.44129 9.31607 3.20435 9 4 9H14.5C14.6326 9 14.7598 9.05268 14.8536 9.14645C14.9473 9.24021 15 9.36739 15 9.5ZM31 6V26C31 26.5304 30.7893 27.0391 30.4142 27.4142C30.0391 27.7893 29.5304 28 29 28H19C18.4696 28 17.9609 27.7893 17.5858 27.4142C17.2107 27.0391 17 26.5304 17 26V6C17 5.46957 17.2107 4.96086 17.5858 4.58579C17.9609 4.21071 18.4696 4 19 4H29C29.5304 4 30.0391 4.21071 30.4142 4.58579C30.7893 4.96086 31 5.46957 31 6ZM25.4875 22.6963C25.5285 22.3856 25.4711 22.0698 25.3234 21.7934C25.1758 21.517 24.9453 21.2938 24.6643 21.1551C24.3832 21.0164 24.0658 20.9692 23.7566 21.0201C23.4474 21.071 23.1619 21.2175 22.9402 21.439C22.7185 21.6605 22.5718 21.9458 22.5205 22.255C22.4693 22.5642 22.5162 22.8816 22.6546 23.1628C22.7931 23.4439 23.0161 23.6746 23.2923 23.8226C23.5686 23.9705 23.8843 24.0282 24.195 23.9875C24.5226 23.9446 24.8268 23.7948 25.0605 23.5614C25.2942 23.3279 25.4443 23.0238 25.4875 22.6963ZM28 12.9338C27.9776 12.6763 27.8585 12.4368 27.6667 12.2636C27.4749 12.0904 27.2247 11.9962 26.9662 12H21.0338C20.7758 11.9968 20.5261 12.0913 20.3349 12.2645C20.1436 12.4376 20.0249 12.6767 20.0025 12.9338C19.9934 13.0705 20.0126 13.2077 20.0587 13.3368C20.1049 13.4659 20.1771 13.5841 20.2709 13.6841C20.3647 13.7841 20.478 13.8637 20.6039 13.9181C20.7297 13.9724 20.8654 14.0003 21.0025 14H27.0025C27.1394 14 27.2748 13.9718 27.4003 13.9173C27.5259 13.8628 27.6389 13.7831 27.7325 13.6832C27.826 13.5832 27.898 13.4651 27.944 13.3362C27.99 13.2073 28.0091 13.0703 28 12.9338ZM28 8.93375C27.9776 8.67628 27.8585 8.43684 27.6667 8.2636C27.4749 8.09037 27.2247 7.99618 26.9662 8H21.0338C20.7753 7.99618 20.5251 8.09037 20.3333 8.2636C20.1415 8.43684 20.0224 8.67628 20 8.93375C19.9909 9.07054 20.0101 9.20773 20.0562 9.33681C20.1024 9.46589 20.1746 9.58409 20.2684 9.68409C20.3622 9.78408 20.4755 9.86372 20.6014 9.91807C20.7272 9.97241 20.8629 10.0003 21 10H27C27.1371 10.0003 27.2728 9.97241 27.3986 9.91807C27.5245 9.86372 27.6378 9.78408 27.7316 9.68409C27.8254 9.58409 27.8976 9.46589 27.9438 9.33681C27.9899 9.20773 28.0091 9.07054 28 8.93375Z" fill="#4A4A4F"/>
</svg>
