<svg width="32" height="32" viewBox="0 0 32 32" fill="none" xmlns="http://www.w3.org/2000/svg">
<path d="M32 15.0002C32 15.2655 31.8946 15.5198 31.7071 15.7073C31.5196 15.8949 31.2652 16.0002 31 16.0002H1C0.734784 16.0002 0.48043 15.8949 0.292893 15.7073C0.105357 15.5198 0 15.2655 0 15.0002C0 14.735 0.105357 14.4807 0.292893 14.2931C0.48043 14.1056 0.734784 14.0002 1 14.0002H4.49L10.4275 5.82399C10.6074 5.57696 10.8416 5.37444 11.112 5.23199C11.3824 5.08955 11.6818 5.01096 11.9873 5.00227C12.2928 4.99358 12.5962 5.05502 12.8742 5.18186C13.1523 5.30871 13.3976 5.49758 13.5913 5.73399L15.1975 7.59649L15.2225 7.62524C15.3156 7.74217 15.4338 7.83659 15.5684 7.90149C15.703 7.96639 15.8506 8.0001 16 8.0001C16.1494 8.0001 16.297 7.96639 16.4316 7.90149C16.5662 7.83659 16.6844 7.74217 16.7775 7.62524L16.8025 7.59649L18.4088 5.73399C18.6024 5.49758 18.8477 5.30871 19.1258 5.18186C19.4038 5.05502 19.7072 4.99358 20.0127 5.00227C20.3182 5.01096 20.6176 5.08955 20.888 5.23199C21.1584 5.37444 21.3926 5.57696 21.5725 5.82399L27.51 14.0002H31C31.2652 14.0002 31.5196 14.1056 31.7071 14.2931C31.8946 14.4807 32 14.735 32 15.0002ZM22.5 18.0002C21.3933 18.0005 20.3254 18.4085 19.5006 19.1464C18.6757 19.8843 18.1517 20.9004 18.0287 22.0002H13.9712C13.848 20.9014 13.3244 19.8863 12.5005 19.1488C11.6766 18.4114 10.61 18.0031 9.5042 18.0018C8.39843 18.0006 7.33092 18.4066 6.50539 19.1423C5.67985 19.878 5.1541 20.8919 5.02844 21.9905C4.90279 23.0891 5.18604 24.1955 5.82413 25.0986C6.46223 26.0017 7.4105 26.6382 8.48799 26.8867C9.56548 27.1352 10.6967 26.9783 11.6659 26.4459C12.6351 25.9135 13.3743 25.0429 13.7425 24.0002H18.2575C18.5325 24.7781 19.016 25.4653 19.6553 25.9869C20.2945 26.5084 21.0648 26.8442 21.8819 26.9576C22.6991 27.0709 23.5317 26.9574 24.2888 26.6295C25.0458 26.3016 25.6981 25.7719 26.1744 25.0983C26.6507 24.4246 26.9327 23.6331 26.9895 22.81C27.0463 21.987 26.8757 21.1641 26.4964 20.4315C26.1172 19.6988 25.5438 19.0846 24.839 18.6558C24.1341 18.227 23.325 18.0002 22.5 18.0002Z" fill="#4A4A4F"/>
</svg>
