<svg width="32" height="32" viewBox="0 0 32 32" fill="none" xmlns="http://www.w3.org/2000/svg">
<path d="M31 14.0002H27.51L21.5725 5.82399C21.3926 5.57696 21.1584 5.37444 20.888 5.23199C20.6176 5.08955 20.3182 5.01096 20.0127 5.00227C19.7072 4.99358 19.4038 5.05502 19.1258 5.18186C18.8477 5.30871 18.6024 5.49758 18.4088 5.73399L16.8025 7.59649L16.7775 7.62524C16.6844 7.74217 16.5662 7.83659 16.4316 7.90149C16.297 7.96639 16.1494 8.0001 16 8.0001C15.8506 8.0001 15.703 7.96639 15.5684 7.90149C15.4338 7.83659 15.3156 7.74217 15.2225 7.62524L15.1975 7.59649L13.5913 5.73399C13.3976 5.49758 13.1523 5.30871 12.8742 5.18186C12.5962 5.05502 12.2928 4.99358 11.9873 5.00227C11.6818 5.01096 11.3824 5.08955 11.112 5.23199C10.8416 5.37444 10.6074 5.57696 10.4275 5.82399L4.49 14.0002H1C0.734784 14.0002 0.48043 14.1056 0.292893 14.2931C0.105357 14.4807 0 14.735 0 15.0002C0 15.2655 0.105357 15.5198 0.292893 15.7073C0.48043 15.8949 0.734784 16.0002 1 16.0002H31C31.2652 16.0002 31.5196 15.8949 31.7071 15.7073C31.8946 15.5198 32 15.2655 32 15.0002C32 14.735 31.8946 14.4807 31.7071 14.2931C31.5196 14.1056 31.2652 14.0002 31 14.0002ZM12.0425 7.00024L12.0662 7.02899L13.6725 8.89024C13.9538 9.23615 14.3087 9.515 14.7113 9.70653C15.1139 9.89805 15.5541 9.99743 16 9.99743C16.4459 9.99743 16.8861 9.89805 17.2887 9.70653C17.6913 9.515 18.0462 9.23615 18.3275 8.89024L19.9338 7.02899C19.9412 7.01899 19.9462 7.01024 19.955 7.00024L25.0375 14.0002H6.96125L12.0425 7.00024ZM22.5 18.0002C21.3933 18.0005 20.3254 18.4085 19.5006 19.1464C18.6757 19.8843 18.1517 20.9004 18.0287 22.0002H13.9712C13.848 20.9014 13.3244 19.8863 12.5005 19.1488C11.6766 18.4114 10.61 18.0031 9.5042 18.0018C8.39843 18.0006 7.33092 18.4066 6.50539 19.1423C5.67985 19.878 5.1541 20.8919 5.02844 21.9905C4.90279 23.0891 5.18604 24.1955 5.82413 25.0986C6.46223 26.0017 7.4105 26.6382 8.48799 26.8867C9.56548 27.1352 10.6967 26.9783 11.6659 26.4459C12.6351 25.9135 13.3743 25.0429 13.7425 24.0002H18.2575C18.5325 24.7781 19.016 25.4653 19.6553 25.9869C20.2945 26.5084 21.0648 26.8442 21.8819 26.9576C22.6991 27.0709 23.5317 26.9574 24.2888 26.6295C25.0458 26.3016 25.6981 25.7719 26.1744 25.0983C26.6507 24.4246 26.9327 23.6331 26.9895 22.81C27.0463 21.987 26.8757 21.1641 26.4964 20.4315C26.1172 19.6988 25.5438 19.0846 24.839 18.6558C24.1341 18.227 23.325 18.0002 22.5 18.0002ZM9.5 25.0002C9.00555 25.0002 8.5222 24.8536 8.11107 24.5789C7.69995 24.3042 7.37952 23.9138 7.1903 23.457C7.00108 23.0001 6.95157 22.4975 7.04804 22.0125C7.1445 21.5276 7.3826 21.0821 7.73223 20.7325C8.08186 20.3828 8.52732 20.1447 9.01227 20.0483C9.49723 19.9518 9.99989 20.0013 10.4567 20.1905C10.9135 20.3798 11.304 20.7002 11.5787 21.1113C11.8534 21.5224 12 22.0058 12 22.5002C12 22.8285 11.9353 23.1536 11.8097 23.457C11.6841 23.7603 11.4999 24.0359 11.2678 24.268C11.0356 24.5002 10.76 24.6843 10.4567 24.8099C10.1534 24.9356 9.8283 25.0002 9.5 25.0002ZM22.5 25.0002C22.0055 25.0002 21.5222 24.8536 21.1111 24.5789C20.7 24.3042 20.3795 23.9138 20.1903 23.457C20.0011 23.0001 19.9516 22.4975 20.048 22.0125C20.1445 21.5276 20.3826 21.0821 20.7322 20.7325C21.0819 20.3828 21.5273 20.1447 22.0123 20.0483C22.4972 19.9518 22.9999 20.0013 23.4567 20.1905C23.9135 20.3798 24.304 20.7002 24.5787 21.1113C24.8534 21.5224 25 22.0058 25 22.5002C25 23.1633 24.7366 23.7992 24.2678 24.268C23.7989 24.7369 23.163 25.0002 22.5 25.0002Z" fill="#4A4A4F"/>
</svg>
