<svg width="32" height="32" viewBox="0 0 32 32" fill="none" xmlns="http://www.w3.org/2000/svg">
<path d="M24 3H8C7.20435 3 6.44129 3.31607 5.87868 3.87868C5.31607 4.44129 5 5.20435 5 6V26C5 26.7956 5.31607 27.5587 5.87868 28.1213C6.44129 28.6839 7.20435 29 8 29H24C24.7956 29 25.5587 28.6839 26.1213 28.1213C26.6839 27.5587 27 26.7956 27 26V6C27 5.20435 26.6839 4.44129 26.1213 3.87868C25.5587 3.31607 24.7956 3 24 3ZM16 10C15.7033 10 15.4133 9.91203 15.1666 9.7472C14.92 9.58238 14.7277 9.34811 14.6142 9.07403C14.5006 8.79994 14.4709 8.49834 14.5288 8.20736C14.5867 7.91639 14.7296 7.64912 14.9393 7.43934C15.1491 7.22956 15.4164 7.0867 15.7074 7.02882C15.9983 6.97094 16.2999 7.00065 16.574 7.11418C16.8481 7.22771 17.0824 7.41997 17.2472 7.66664C17.412 7.91332 17.5 8.20333 17.5 8.5C17.5 8.89782 17.342 9.27936 17.0607 9.56066C16.7794 9.84196 16.3978 10 16 10Z" fill="#4A4A4F"/>
</svg>
