<svg width="32" height="32" viewBox="0 0 32 32" fill="none" xmlns="http://www.w3.org/2000/svg">
<path d="M24 3H8C7.20435 3 6.44129 3.31607 5.87868 3.87868C5.31607 4.44129 5 5.20435 5 6V26C5 26.7956 5.31607 27.5587 5.87868 28.1213C6.44129 28.6839 7.20435 29 8 29H24C24.7956 29 25.5587 28.6839 26.1213 28.1213C26.6839 27.5587 27 26.7956 27 26V6C27 5.20435 26.6839 4.44129 26.1213 3.87868C25.5587 3.31607 24.7956 3 24 3ZM25 26C25 26.2652 24.8946 26.5196 24.7071 26.7071C24.5196 26.8946 24.2652 27 24 27H8C7.73478 27 7.48043 26.8946 7.29289 26.7071C7.10536 26.5196 7 26.2652 7 26V6C7 5.73478 7.10536 5.48043 7.29289 5.29289C7.48043 5.10536 7.73478 5 8 5H24C24.2652 5 24.5196 5.10536 24.7071 5.29289C24.8946 5.48043 25 5.73478 25 6V26ZM17.5 8.5C17.5 8.79667 17.412 9.08668 17.2472 9.33335C17.0824 9.58003 16.8481 9.77229 16.574 9.88582C16.2999 9.99935 15.9983 10.0291 15.7074 9.97118C15.4164 9.9133 15.1491 9.77044 14.9393 9.56066C14.7296 9.35088 14.5867 9.08361 14.5288 8.79264C14.4709 8.50166 14.5006 8.20006 14.6142 7.92597C14.7277 7.65189 14.92 7.41762 15.1666 7.2528C15.4133 7.08797 15.7033 7 16 7C16.3978 7 16.7794 7.15804 17.0607 7.43934C17.342 7.72064 17.5 8.10218 17.5 8.5Z" fill="#4A4A4F"/>
</svg>
