<svg width="32" height="32" viewBox="0 0 32 32" fill="none" xmlns="http://www.w3.org/2000/svg">
<path d="M29 7H3C2.46957 7 1.96086 7.21071 1.58579 7.58579C1.21071 7.96086 1 8.46957 1 9V23C1 23.5304 1.21071 24.0391 1.58579 24.4142C1.96086 24.7893 2.46957 25 3 25H29C29.5304 25 30.0391 24.7893 30.4142 24.4142C30.7893 24.0391 31 23.5304 31 23V9C31 8.46957 30.7893 7.96086 30.4142 7.58579C30.0391 7.21071 29.5304 7 29 7ZM29 23H3V9H29V23ZM16 13V15H17C17.2652 15 17.5196 15.1054 17.7071 15.2929C17.8946 15.4804 18 15.7348 18 16C18 16.2652 17.8946 16.5196 17.7071 16.7071C17.5196 16.8946 17.2652 17 17 17H16V19H18C18.2652 19 18.5196 19.1054 18.7071 19.2929C18.8946 19.4804 19 19.7348 19 20C19 20.2652 18.8946 20.5196 18.7071 20.7071C18.5196 20.8946 18.2652 21 18 21H15C14.7348 21 14.4804 20.8946 14.2929 20.7071C14.1054 20.5196 14 20.2652 14 20V12C14 11.7348 14.1054 11.4804 14.2929 11.2929C14.4804 11.1054 14.7348 11 15 11H18C18.2652 11 18.5196 11.1054 18.7071 11.2929C18.8946 11.4804 19 11.7348 19 12C19 12.2652 18.8946 12.5196 18.7071 12.7071C18.5196 12.8946 18.2652 13 18 13H16ZM26.9625 12.2712L24.7125 20.2712C24.6534 20.481 24.5274 20.6657 24.3536 20.7972C24.1799 20.9288 23.9679 21 23.75 21C23.5321 21 23.3201 20.9288 23.1464 20.7972C22.9726 20.6657 22.8466 20.481 22.7875 20.2712L20.5375 12.2712C20.4668 12.0164 20.5 11.7439 20.6297 11.5134C20.7595 11.2829 20.9753 11.1132 21.2299 11.0415C21.4845 10.9697 21.7571 11.0018 21.9881 11.1306C22.2191 11.2594 22.3897 11.4745 22.4625 11.7288L23.75 16.3062L25.0375 11.7288C25.0727 11.6019 25.1326 11.4832 25.2138 11.3795C25.2949 11.2758 25.3958 11.1892 25.5105 11.1246C25.6253 11.06 25.7516 11.0187 25.8824 11.0031C26.0131 10.9874 26.1456 10.9978 26.2724 11.0335C26.3991 11.0692 26.5175 11.1296 26.6209 11.2112C26.7242 11.2928 26.8104 11.394 26.8745 11.509C26.9387 11.624 26.9794 11.7506 26.9945 11.8814C27.0096 12.0122 26.9987 12.1447 26.9625 12.2712ZM8 11H7C6.73478 11 6.48043 11.1054 6.29289 11.2929C6.10536 11.4804 6 11.7348 6 12V20C6 20.2652 6.10536 20.5196 6.29289 20.7071C6.48043 20.8946 6.73478 21 7 21H8C9.06087 21 10.0783 20.5786 10.8284 19.8284C11.5786 19.0783 12 18.0609 12 17V15C12 13.9391 11.5786 12.9217 10.8284 12.1716C10.0783 11.4214 9.06087 11 8 11ZM10 17C10 17.5304 9.78929 18.0391 9.41421 18.4142C9.03914 18.7893 8.53043 19 8 19V13C8.53043 13 9.03914 13.2107 9.41421 13.5858C9.78929 13.9609 10 14.4696 10 15V17Z" fill="#4A4A4F"/>
</svg>
