<svg width="32" height="32" viewBox="0 0 32 32" fill="none" xmlns="http://www.w3.org/2000/svg">
<path d="M10 15V17C10 17.5304 9.78929 18.0391 9.41421 18.4142C9.03914 18.7893 8.53043 19 8 19V13C8.53043 13 9.03914 13.2107 9.41421 13.5858C9.78929 13.9609 10 14.4696 10 15ZM31 9V23C31 23.5304 30.7893 24.0391 30.4142 24.4142C30.0391 24.7893 29.5304 25 29 25H3C2.46957 25 1.96086 24.7893 1.58579 24.4142C1.21071 24.0391 1 23.5304 1 23V9C1 8.46957 1.21071 7.96086 1.58579 7.58579C1.96086 7.21071 2.46957 7 3 7H29C29.5304 7 30.0391 7.21071 30.4142 7.58579C30.7893 7.96086 31 8.46957 31 9ZM12 15C12 13.9391 11.5786 12.9217 10.8284 12.1716C10.0783 11.4214 9.06087 11 8 11H7C6.73478 11 6.48043 11.1054 6.29289 11.2929C6.10536 11.4804 6 11.7348 6 12V20C6 20.2652 6.10536 20.5196 6.29289 20.7071C6.48043 20.8946 6.73478 21 7 21H8C9.06087 21 10.0783 20.5786 10.8284 19.8284C11.5786 19.0783 12 18.0609 12 17V15ZM16 15V13H18C18.2652 13 18.5196 12.8946 18.7071 12.7071C18.8946 12.5196 19 12.2652 19 12C19 11.7348 18.8946 11.4804 18.7071 11.2929C18.5196 11.1054 18.2652 11 18 11H15C14.7348 11 14.4804 11.1054 14.2929 11.2929C14.1054 11.4804 14 11.7348 14 12V20C14 20.2652 14.1054 20.5196 14.2929 20.7071C14.4804 20.8946 14.7348 21 15 21H18C18.2652 21 18.5196 20.8946 18.7071 20.7071C18.8946 20.5196 19 20.2652 19 20C19 19.7348 18.8946 19.4804 18.7071 19.2929C18.5196 19.1054 18.2652 19 18 19H16V17H17C17.2652 17 17.5196 16.8946 17.7071 16.7071C17.8946 16.5196 18 16.2652 18 16C18 15.7348 17.8946 15.4804 17.7071 15.2929C17.5196 15.1054 17.2652 15 17 15H16ZM26.2712 11.0375C26.016 10.9656 25.7426 10.998 25.5112 11.1276C25.2798 11.2572 25.1094 11.4735 25.0375 11.7288L23.75 16.3062L22.4625 11.7288C22.3897 11.4745 22.2191 11.2594 21.9881 11.1306C21.7571 11.0018 21.4845 10.9697 21.2299 11.0415C20.9753 11.1132 20.7595 11.2829 20.6297 11.5134C20.5 11.7439 20.4668 12.0164 20.5375 12.2712L22.7875 20.2712C22.8466 20.481 22.9726 20.6657 23.1464 20.7972C23.3201 20.9288 23.5321 21 23.75 21C23.9679 21 24.1799 20.9288 24.3536 20.7972C24.5274 20.6657 24.6534 20.481 24.7125 20.2712L26.9625 12.2712C27.0344 12.016 27.002 11.7426 26.8724 11.5112C26.7428 11.2798 26.5265 11.1094 26.2712 11.0375Z" fill="#4A4A4F"/>
</svg>
