<svg width="32" height="32" viewBox="0 0 32 32" fill="none" xmlns="http://www.w3.org/2000/svg">
<path d="M29.9999 16.0001C30.0006 16.262 29.9494 16.5215 29.8492 16.7635C29.749 17.0055 29.6018 17.2253 29.4161 17.4101L17.4099 29.4176C17.0352 29.7901 16.5283 29.9991 15.9999 29.9991C15.4715 29.9991 14.9646 29.7901 14.5899 29.4176L2.58989 17.4101C2.21738 17.0353 2.0083 16.5284 2.0083 16.0001C2.0083 15.4717 2.21738 14.9648 2.58989 14.5901L14.5961 2.58256C14.9709 2.21006 15.4778 2.00098 16.0061 2.00098C16.5345 2.00098 17.0414 2.21006 17.4161 2.58256L29.4224 14.5901C29.6069 14.7753 29.753 14.9953 29.8521 15.2373C29.9512 15.4793 30.0014 15.7386 29.9999 16.0001Z" fill="#4A4A4F"/>
</svg>
