<svg width="32" height="32" viewBox="0 0 32 32" fill="none" xmlns="http://www.w3.org/2000/svg">
<path d="M24 4H8C6.93913 4 5.92172 4.42143 5.17157 5.17157C4.42143 5.92172 4 6.93913 4 8V24C4 25.0609 4.42143 26.0783 5.17157 26.8284C5.92172 27.5786 6.93913 28 8 28H24C25.0609 28 26.0783 27.5786 26.8284 26.8284C27.5786 26.0783 28 25.0609 28 24V8C28 6.93913 27.5786 5.92172 26.8284 5.17157C26.0783 4.42143 25.0609 4 24 4ZM26 24C26 24.5304 25.7893 25.0391 25.4142 25.4142C25.0391 25.7893 24.5304 26 24 26H8C7.46957 26 6.96086 25.7893 6.58579 25.4142C6.21071 25.0391 6 24.5304 6 24V8C6 7.46957 6.21071 6.96086 6.58579 6.58579C6.96086 6.21071 7.46957 6 8 6H24C24.5304 6 25.0391 6.21071 25.4142 6.58579C25.7893 6.96086 26 7.46957 26 8V24ZM14 12.5C14 12.7967 13.912 13.0867 13.7472 13.3334C13.5824 13.58 13.3481 13.7723 13.074 13.8858C12.7999 13.9994 12.4983 14.0291 12.2074 13.9712C11.9164 13.9133 11.6491 13.7704 11.4393 13.5607C11.2296 13.3509 11.0867 13.0836 11.0288 12.7926C10.9709 12.5017 11.0006 12.2001 11.1142 11.926C11.2277 11.6519 11.42 11.4176 11.6666 11.2528C11.9133 11.088 12.2033 11 12.5 11C12.8978 11 13.2794 11.158 13.5607 11.4393C13.842 11.7206 14 12.1022 14 12.5ZM21 12.5C21 12.7967 20.912 13.0867 20.7472 13.3334C20.5824 13.58 20.3481 13.7723 20.074 13.8858C19.7999 13.9994 19.4983 14.0291 19.2074 13.9712C18.9164 13.9133 18.6491 13.7704 18.4393 13.5607C18.2296 13.3509 18.0867 13.0836 18.0288 12.7926C17.9709 12.5017 18.0007 12.2001 18.1142 11.926C18.2277 11.6519 18.42 11.4176 18.6666 11.2528C18.9133 11.088 19.2033 11 19.5 11C19.8978 11 20.2794 11.158 20.5607 11.4393C20.842 11.7206 21 12.1022 21 12.5ZM14 19.5C14 19.7967 13.912 20.0867 13.7472 20.3334C13.5824 20.58 13.3481 20.7723 13.074 20.8858C12.7999 20.9993 12.4983 21.0291 12.2074 20.9712C11.9164 20.9133 11.6491 20.7704 11.4393 20.5607C11.2296 20.3509 11.0867 20.0836 11.0288 19.7926C10.9709 19.5017 11.0006 19.2001 11.1142 18.926C11.2277 18.6519 11.42 18.4176 11.6666 18.2528C11.9133 18.088 12.2033 18 12.5 18C12.8978 18 13.2794 18.158 13.5607 18.4393C13.842 18.7206 14 19.1022 14 19.5ZM21 19.5C21 19.7967 20.912 20.0867 20.7472 20.3334C20.5824 20.58 20.3481 20.7723 20.074 20.8858C19.7999 20.9993 19.4983 21.0291 19.2074 20.9712C18.9164 20.9133 18.6491 20.7704 18.4393 20.5607C18.2296 20.3509 18.0867 20.0836 18.0288 19.7926C17.9709 19.5017 18.0007 19.2001 18.1142 18.926C18.2277 18.6519 18.42 18.4176 18.6666 18.2528C18.9133 18.088 19.2033 18 19.5 18C19.8978 18 20.2794 18.158 20.5607 18.4393C20.842 18.7206 21 19.1022 21 19.5Z" fill="#4A4A4F"/>
</svg>
