<svg width="32" height="32" viewBox="0 0 32 32" fill="none" xmlns="http://www.w3.org/2000/svg">
<path d="M24 4H8C6.93913 4 5.92172 4.42143 5.17157 5.17157C4.42143 5.92172 4 6.93913 4 8V24C4 25.0609 4.42143 26.0783 5.17157 26.8284C5.92172 27.5786 6.93913 28 8 28H24C25.0609 28 26.0783 27.5786 26.8284 26.8284C27.5786 26.0783 28 25.0609 28 24V8C28 6.93913 27.5786 5.92172 26.8284 5.17157C26.0783 4.42143 25.0609 4 24 4ZM11.5 23C11.2033 23 10.9133 22.912 10.6666 22.7472C10.42 22.5824 10.2277 22.3481 10.1142 22.074C10.0006 21.7999 9.97094 21.4983 10.0288 21.2074C10.0867 20.9164 10.2296 20.6491 10.4393 20.4393C10.6491 20.2296 10.9164 20.0867 11.2074 20.0288C11.4983 19.9709 11.7999 20.0007 12.074 20.1142C12.3481 20.2277 12.5824 20.42 12.7472 20.6666C12.912 20.9133 13 21.2033 13 21.5C13 21.8978 12.842 22.2794 12.5607 22.5607C12.2794 22.842 11.8978 23 11.5 23ZM11.5 17.5C11.2033 17.5 10.9133 17.412 10.6666 17.2472C10.42 17.0824 10.2277 16.8481 10.1142 16.574C10.0006 16.2999 9.97094 15.9983 10.0288 15.7074C10.0867 15.4164 10.2296 15.1491 10.4393 14.9393C10.6491 14.7296 10.9164 14.5867 11.2074 14.5288C11.4983 14.4709 11.7999 14.5006 12.074 14.6142C12.3481 14.7277 12.5824 14.92 12.7472 15.1666C12.912 15.4133 13 15.7033 13 16C13 16.3978 12.842 16.7794 12.5607 17.0607C12.2794 17.342 11.8978 17.5 11.5 17.5ZM11.5 12C11.2033 12 10.9133 11.912 10.6666 11.7472C10.42 11.5824 10.2277 11.3481 10.1142 11.074C10.0006 10.7999 9.97094 10.4983 10.0288 10.2074C10.0867 9.91639 10.2296 9.64912 10.4393 9.43934C10.6491 9.22956 10.9164 9.0867 11.2074 9.02882C11.4983 8.97094 11.7999 9.00065 12.074 9.11418C12.3481 9.22771 12.5824 9.41997 12.7472 9.66665C12.912 9.91332 13 10.2033 13 10.5C13 10.8978 12.842 11.2794 12.5607 11.5607C12.2794 11.842 11.8978 12 11.5 12ZM20.5 23C20.2033 23 19.9133 22.912 19.6666 22.7472C19.42 22.5824 19.2277 22.3481 19.1142 22.074C19.0007 21.7999 18.9709 21.4983 19.0288 21.2074C19.0867 20.9164 19.2296 20.6491 19.4393 20.4393C19.6491 20.2296 19.9164 20.0867 20.2074 20.0288C20.4983 19.9709 20.7999 20.0007 21.074 20.1142C21.3481 20.2277 21.5824 20.42 21.7472 20.6666C21.912 20.9133 22 21.2033 22 21.5C22 21.8978 21.842 22.2794 21.5607 22.5607C21.2794 22.842 20.8978 23 20.5 23ZM20.5 17.5C20.2033 17.5 19.9133 17.412 19.6666 17.2472C19.42 17.0824 19.2277 16.8481 19.1142 16.574C19.0007 16.2999 18.9709 15.9983 19.0288 15.7074C19.0867 15.4164 19.2296 15.1491 19.4393 14.9393C19.6491 14.7296 19.9164 14.5867 20.2074 14.5288C20.4983 14.4709 20.7999 14.5006 21.074 14.6142C21.3481 14.7277 21.5824 14.92 21.7472 15.1666C21.912 15.4133 22 15.7033 22 16C22 16.3978 21.842 16.7794 21.5607 17.0607C21.2794 17.342 20.8978 17.5 20.5 17.5ZM20.5 12C20.2033 12 19.9133 11.912 19.6666 11.7472C19.42 11.5824 19.2277 11.3481 19.1142 11.074C19.0007 10.7999 18.9709 10.4983 19.0288 10.2074C19.0867 9.91639 19.2296 9.64912 19.4393 9.43934C19.6491 9.22956 19.9164 9.0867 20.2074 9.02882C20.4983 8.97094 20.7999 9.00065 21.074 9.11418C21.3481 9.22771 21.5824 9.41997 21.7472 9.66665C21.912 9.91332 22 10.2033 22 10.5C22 10.8978 21.842 11.2794 21.5607 11.5607C21.2794 11.842 20.8978 12 20.5 12Z" fill="#4A4A4F"/>
</svg>
