<svg width="32" height="32" viewBox="0 0 32 32" fill="none" xmlns="http://www.w3.org/2000/svg">
<path d="M24 4H8C6.93913 4 5.92172 4.42143 5.17157 5.17157C4.42143 5.92172 4 6.93913 4 8V24C4 25.0609 4.42143 26.0783 5.17157 26.8284C5.92172 27.5786 6.93913 28 8 28H24C25.0609 28 26.0783 27.5786 26.8284 26.8284C27.5786 26.0783 28 25.0609 28 24V8C28 6.93913 27.5786 5.92172 26.8284 5.17157C26.0783 4.42143 25.0609 4 24 4ZM12.5 21C12.2033 21 11.9133 20.912 11.6666 20.7472C11.42 20.5824 11.2277 20.3481 11.1142 20.074C11.0006 19.7999 10.9709 19.4983 11.0288 19.2074C11.0867 18.9164 11.2296 18.6491 11.4393 18.4393C11.6491 18.2296 11.9164 18.0867 12.2074 18.0288C12.4983 17.9709 12.7999 18.0007 13.074 18.1142C13.3481 18.2277 13.5824 18.42 13.7472 18.6666C13.912 18.9133 14 19.2033 14 19.5C14 19.8978 13.842 20.2794 13.5607 20.5607C13.2794 20.842 12.8978 21 12.5 21ZM12.5 14C12.2033 14 11.9133 13.912 11.6666 13.7472C11.42 13.5824 11.2277 13.3481 11.1142 13.074C11.0006 12.7999 10.9709 12.4983 11.0288 12.2074C11.0867 11.9164 11.2296 11.6491 11.4393 11.4393C11.6491 11.2296 11.9164 11.0867 12.2074 11.0288C12.4983 10.9709 12.7999 11.0006 13.074 11.1142C13.3481 11.2277 13.5824 11.42 13.7472 11.6666C13.912 11.9133 14 12.2033 14 12.5C14 12.8978 13.842 13.2794 13.5607 13.5607C13.2794 13.842 12.8978 14 12.5 14ZM19.5 21C19.2033 21 18.9133 20.912 18.6666 20.7472C18.42 20.5824 18.2277 20.3481 18.1142 20.074C18.0007 19.7999 17.9709 19.4983 18.0288 19.2074C18.0867 18.9164 18.2296 18.6491 18.4393 18.4393C18.6491 18.2296 18.9164 18.0867 19.2074 18.0288C19.4983 17.9709 19.7999 18.0007 20.074 18.1142C20.3481 18.2277 20.5824 18.42 20.7472 18.6666C20.912 18.9133 21 19.2033 21 19.5C21 19.8978 20.842 20.2794 20.5607 20.5607C20.2794 20.842 19.8978 21 19.5 21ZM19.5 14C19.2033 14 18.9133 13.912 18.6666 13.7472C18.42 13.5824 18.2277 13.3481 18.1142 13.074C18.0007 12.7999 17.9709 12.4983 18.0288 12.2074C18.0867 11.9164 18.2296 11.6491 18.4393 11.4393C18.6491 11.2296 18.9164 11.0867 19.2074 11.0288C19.4983 10.9709 19.7999 11.0006 20.074 11.1142C20.3481 11.2277 20.5824 11.42 20.7472 11.6666C20.912 11.9133 21 12.2033 21 12.5C21 12.8978 20.842 13.2794 20.5607 13.5607C20.2794 13.842 19.8978 14 19.5 14Z" fill="#4A4A4F"/>
</svg>
