<svg width="32" height="32" viewBox="0 0 32 32" fill="none" xmlns="http://www.w3.org/2000/svg">
<path d="M24 4H8C6.93913 4 5.92172 4.42143 5.17157 5.17157C4.42143 5.92172 4 6.93913 4 8V24C4 25.0609 4.42143 26.0783 5.17157 26.8284C5.92172 27.5786 6.93913 28 8 28H24C25.0609 28 26.0783 27.5786 26.8284 26.8284C27.5786 26.0783 28 25.0609 28 24V8C28 6.93913 27.5786 5.92172 26.8284 5.17157C26.0783 4.42143 25.0609 4 24 4ZM26 24C26 24.5304 25.7893 25.0391 25.4142 25.4142C25.0391 25.7893 24.5304 26 24 26H8C7.46957 26 6.96086 25.7893 6.58579 25.4142C6.21071 25.0391 6 24.5304 6 24V8C6 7.46957 6.21071 6.96086 6.58579 6.58579C6.96086 6.21071 7.46957 6 8 6H24C24.5304 6 25.0391 6.21071 25.4142 6.58579C25.7893 6.96086 26 7.46957 26 8V24ZM13 10.5C13 10.7967 12.912 11.0867 12.7472 11.3334C12.5824 11.58 12.3481 11.7723 12.074 11.8858C11.7999 11.9994 11.4983 12.0291 11.2074 11.9712C10.9164 11.9133 10.6491 11.7704 10.4393 11.5607C10.2296 11.3509 10.0867 11.0836 10.0288 10.7926C9.97094 10.5017 10.0006 10.2001 10.1142 9.92597C10.2277 9.65189 10.42 9.41762 10.6666 9.2528C10.9133 9.08797 11.2033 9 11.5 9C11.8978 9 12.2794 9.15804 12.5607 9.43934C12.842 9.72064 13 10.1022 13 10.5ZM22 10.5C22 10.7967 21.912 11.0867 21.7472 11.3334C21.5824 11.58 21.3481 11.7723 21.074 11.8858C20.7999 11.9994 20.4983 12.0291 20.2074 11.9712C19.9164 11.9133 19.6491 11.7704 19.4393 11.5607C19.2296 11.3509 19.0867 11.0836 19.0288 10.7926C18.9709 10.5017 19.0007 10.2001 19.1142 9.92597C19.2277 9.65189 19.42 9.41762 19.6666 9.2528C19.9133 9.08797 20.2033 9 20.5 9C20.8978 9 21.2794 9.15804 21.5607 9.43934C21.842 9.72064 22 10.1022 22 10.5ZM13 16C13 16.2967 12.912 16.5867 12.7472 16.8334C12.5824 17.08 12.3481 17.2723 12.074 17.3858C11.7999 17.4993 11.4983 17.5291 11.2074 17.4712C10.9164 17.4133 10.6491 17.2704 10.4393 17.0607C10.2296 16.8509 10.0867 16.5836 10.0288 16.2926C9.97094 16.0017 10.0006 15.7001 10.1142 15.426C10.2277 15.1519 10.42 14.9176 10.6666 14.7528C10.9133 14.588 11.2033 14.5 11.5 14.5C11.8978 14.5 12.2794 14.658 12.5607 14.9393C12.842 15.2206 13 15.6022 13 16ZM22 16C22 16.2967 21.912 16.5867 21.7472 16.8334C21.5824 17.08 21.3481 17.2723 21.074 17.3858C20.7999 17.4993 20.4983 17.5291 20.2074 17.4712C19.9164 17.4133 19.6491 17.2704 19.4393 17.0607C19.2296 16.8509 19.0867 16.5836 19.0288 16.2926C18.9709 16.0017 19.0007 15.7001 19.1142 15.426C19.2277 15.1519 19.42 14.9176 19.6666 14.7528C19.9133 14.588 20.2033 14.5 20.5 14.5C20.8978 14.5 21.2794 14.658 21.5607 14.9393C21.842 15.2206 22 15.6022 22 16ZM13 21.5C13 21.7967 12.912 22.0867 12.7472 22.3334C12.5824 22.58 12.3481 22.7723 12.074 22.8858C11.7999 22.9993 11.4983 23.0291 11.2074 22.9712C10.9164 22.9133 10.6491 22.7704 10.4393 22.5607C10.2296 22.3509 10.0867 22.0836 10.0288 21.7926C9.97094 21.5017 10.0006 21.2001 10.1142 20.926C10.2277 20.6519 10.42 20.4176 10.6666 20.2528C10.9133 20.088 11.2033 20 11.5 20C11.8978 20 12.2794 20.158 12.5607 20.4393C12.842 20.7206 13 21.1022 13 21.5ZM22 21.5C22 21.7967 21.912 22.0867 21.7472 22.3334C21.5824 22.58 21.3481 22.7723 21.074 22.8858C20.7999 22.9993 20.4983 23.0291 20.2074 22.9712C19.9164 22.9133 19.6491 22.7704 19.4393 22.5607C19.2296 22.3509 19.0867 22.0836 19.0288 21.7926C18.9709 21.5017 19.0007 21.2001 19.1142 20.926C19.2277 20.6519 19.42 20.4176 19.6666 20.2528C19.9133 20.088 20.2033 20 20.5 20C20.8978 20 21.2794 20.158 21.5607 20.4393C21.842 20.7206 22 21.1022 22 21.5Z" fill="#4A4A4F"/>
</svg>
