<svg width="32" height="32" viewBox="0 0 32 32" fill="none" xmlns="http://www.w3.org/2000/svg">
<path d="M24 4H8C6.93913 4 5.92172 4.42143 5.17157 5.17157C4.42143 5.92172 4 6.93913 4 8V24C4 25.0609 4.42143 26.0783 5.17157 26.8284C5.92172 27.5786 6.93913 28 8 28H24C25.0609 28 26.0783 27.5786 26.8284 26.8284C27.5786 26.0783 28 25.0609 28 24V8C28 6.93913 27.5786 5.92172 26.8284 5.17157C26.0783 4.42143 25.0609 4 24 4ZM26 24C26 24.5304 25.7893 25.0391 25.4142 25.4142C25.0391 25.7893 24.5304 26 24 26H8C7.46957 26 6.96086 25.7893 6.58579 25.4142C6.21071 25.0391 6 24.5304 6 24V8C6 7.46957 6.21071 6.96086 6.58579 6.58579C6.96086 6.21071 7.46957 6 8 6H24C24.5304 6 25.0391 6.21071 25.4142 6.58579C25.7893 6.96086 26 7.46957 26 8V24ZM13 11.5C13 11.7967 12.912 12.0867 12.7472 12.3334C12.5824 12.58 12.3481 12.7723 12.074 12.8858C11.7999 12.9994 11.4983 13.0291 11.2074 12.9712C10.9164 12.9133 10.6491 12.7704 10.4393 12.5607C10.2296 12.3509 10.0867 12.0836 10.0288 11.7926C9.97094 11.5017 10.0006 11.2001 10.1142 10.926C10.2277 10.6519 10.42 10.4176 10.6666 10.2528C10.9133 10.088 11.2033 10 11.5 10C11.8978 10 12.2794 10.158 12.5607 10.4393C12.842 10.7206 13 11.1022 13 11.5ZM17.5 16C17.5 16.2967 17.412 16.5867 17.2472 16.8334C17.0824 17.08 16.8481 17.2723 16.574 17.3858C16.2999 17.4993 15.9983 17.5291 15.7074 17.4712C15.4164 17.4133 15.1491 17.2704 14.9393 17.0607C14.7296 16.8509 14.5867 16.5836 14.5288 16.2926C14.4709 16.0017 14.5006 15.7001 14.6142 15.426C14.7277 15.1519 14.92 14.9176 15.1666 14.7528C15.4133 14.588 15.7033 14.5 16 14.5C16.3978 14.5 16.7794 14.658 17.0607 14.9393C17.342 15.2206 17.5 15.6022 17.5 16ZM22 20.5C22 20.7967 21.912 21.0867 21.7472 21.3334C21.5824 21.58 21.3481 21.7723 21.074 21.8858C20.7999 21.9993 20.4983 22.0291 20.2074 21.9712C19.9164 21.9133 19.6491 21.7704 19.4393 21.5607C19.2296 21.3509 19.0867 21.0836 19.0288 20.7926C18.9709 20.5017 19.0007 20.2001 19.1142 19.926C19.2277 19.6519 19.42 19.4176 19.6666 19.2528C19.9133 19.088 20.2033 19 20.5 19C20.8978 19 21.2794 19.158 21.5607 19.4393C21.842 19.7206 22 20.1022 22 20.5Z" fill="#4A4A4F"/>
</svg>
