<svg width="32" height="32" viewBox="0 0 32 32" fill="none" xmlns="http://www.w3.org/2000/svg">
<path d="M24 4H8C6.93913 4 5.92172 4.42143 5.17157 5.17157C4.42143 5.92172 4 6.93913 4 8V24C4 25.0609 4.42143 26.0783 5.17157 26.8284C5.92172 27.5786 6.93913 28 8 28H24C25.0609 28 26.0783 27.5786 26.8284 26.8284C27.5786 26.0783 28 25.0609 28 24V8C28 6.93913 27.5786 5.92172 26.8284 5.17157C26.0783 4.42143 25.0609 4 24 4ZM11.5 22C11.2033 22 10.9133 21.912 10.6666 21.7472C10.42 21.5824 10.2277 21.3481 10.1142 21.074C10.0006 20.7999 9.97094 20.4983 10.0288 20.2074C10.0867 19.9164 10.2296 19.6491 10.4393 19.4393C10.6491 19.2296 10.9164 19.0867 11.2074 19.0288C11.4983 18.9709 11.7999 19.0007 12.074 19.1142C12.3481 19.2277 12.5824 19.42 12.7472 19.6666C12.912 19.9133 13 20.2033 13 20.5C13 20.8978 12.842 21.2794 12.5607 21.5607C12.2794 21.842 11.8978 22 11.5 22ZM11.5 13C11.2033 13 10.9133 12.912 10.6666 12.7472C10.42 12.5824 10.2277 12.3481 10.1142 12.074C10.0006 11.7999 9.97094 11.4983 10.0288 11.2074C10.0867 10.9164 10.2296 10.6491 10.4393 10.4393C10.6491 10.2296 10.9164 10.0867 11.2074 10.0288C11.4983 9.97094 11.7999 10.0006 12.074 10.1142C12.3481 10.2277 12.5824 10.42 12.7472 10.6666C12.912 10.9133 13 11.2033 13 11.5C13 11.8978 12.842 12.2794 12.5607 12.5607C12.2794 12.842 11.8978 13 11.5 13ZM16 17.5C15.7033 17.5 15.4133 17.412 15.1666 17.2472C14.92 17.0824 14.7277 16.8481 14.6142 16.574C14.5006 16.2999 14.4709 15.9983 14.5288 15.7074C14.5867 15.4164 14.7296 15.1491 14.9393 14.9393C15.1491 14.7296 15.4164 14.5867 15.7074 14.5288C15.9983 14.4709 16.2999 14.5006 16.574 14.6142C16.8481 14.7277 17.0824 14.92 17.2472 15.1666C17.412 15.4133 17.5 15.7033 17.5 16C17.5 16.3978 17.342 16.7794 17.0607 17.0607C16.7794 17.342 16.3978 17.5 16 17.5ZM20.5 22C20.2033 22 19.9133 21.912 19.6666 21.7472C19.42 21.5824 19.2277 21.3481 19.1142 21.074C19.0007 20.7999 18.9709 20.4983 19.0288 20.2074C19.0867 19.9164 19.2296 19.6491 19.4393 19.4393C19.6491 19.2296 19.9164 19.0867 20.2074 19.0288C20.4983 18.9709 20.7999 19.0007 21.074 19.1142C21.3481 19.2277 21.5824 19.42 21.7472 19.6666C21.912 19.9133 22 20.2033 22 20.5C22 20.8978 21.842 21.2794 21.5607 21.5607C21.2794 21.842 20.8978 22 20.5 22ZM20.5 13C20.2033 13 19.9133 12.912 19.6666 12.7472C19.42 12.5824 19.2277 12.3481 19.1142 12.074C19.0007 11.7999 18.9709 11.4983 19.0288 11.2074C19.0867 10.9164 19.2296 10.6491 19.4393 10.4393C19.6491 10.2296 19.9164 10.0867 20.2074 10.0288C20.4983 9.97094 20.7999 10.0006 21.074 10.1142C21.3481 10.2277 21.5824 10.42 21.7472 10.6666C21.912 10.9133 22 11.2033 22 11.5C22 11.8978 21.842 12.2794 21.5607 12.5607C21.2794 12.842 20.8978 13 20.5 13Z" fill="#4A4A4F"/>
</svg>
