<svg width="32" height="32" viewBox="0 0 32 32" fill="none" xmlns="http://www.w3.org/2000/svg">
<path d="M12.9998 17.5001C12.9998 17.7968 12.9118 18.0868 12.747 18.3335C12.5822 18.5802 12.3479 18.7724 12.0738 18.886C11.7997 18.9995 11.4981 19.0292 11.2072 18.9713C10.9162 18.9134 10.6489 18.7706 10.4391 18.5608C10.2294 18.351 10.0865 18.0837 10.0286 17.7928C9.97074 17.5018 10.0004 17.2002 10.114 16.9261C10.2275 16.652 10.4198 16.4178 10.6664 16.2529C10.9131 16.0881 11.2031 16.0001 11.4998 16.0001C11.8976 16.0001 12.2792 16.1582 12.5605 16.4395C12.8418 16.7208 12.9998 17.1023 12.9998 17.5001ZM20.4998 16.0001C20.2031 16.0001 19.9131 16.0881 19.6664 16.2529C19.4198 16.4178 19.2275 16.652 19.114 16.9261C19.0004 17.2002 18.9707 17.5018 19.0286 17.7928C19.0865 18.0837 19.2294 18.351 19.4391 18.5608C19.6489 18.7706 19.9162 18.9134 20.2072 18.9713C20.4981 19.0292 20.7997 18.9995 21.0738 18.886C21.3479 18.7724 21.5822 18.5802 21.747 18.3335C21.9118 18.0868 21.9998 17.7968 21.9998 17.5001C21.9998 17.1023 21.8418 16.7208 21.5605 16.4395C21.2792 16.1582 20.8976 16.0001 20.4998 16.0001ZM29.806 24.1126L21.431 27.8264C21.1792 27.9383 20.9072 27.9976 20.6316 28.0006C20.356 28.0035 20.0827 27.9501 19.8286 27.8435C19.5744 27.737 19.3447 27.5796 19.1536 27.3811C18.9625 27.1825 18.814 26.9469 18.7173 26.6889L17.7035 23.9389C17.1435 23.9764 16.5756 23.9956 15.9998 23.9964C15.424 23.9972 14.856 23.9781 14.296 23.9389L13.2823 26.6889C13.1854 26.9468 13.0368 27.1823 12.8457 27.3807C12.6546 27.5792 12.4249 27.7365 12.1708 27.843C11.9167 27.9495 11.6435 28.003 11.368 28.0001C11.0924 27.9973 10.8204 27.9382 10.5685 27.8264L2.19355 24.1126C1.76128 23.9236 1.41016 23.5873 1.20275 23.1636C0.995344 22.7398 0.945126 22.2562 1.06105 21.7989L4.7498 7.25014C4.84715 6.87177 5.05272 6.53001 5.34134 6.26669C5.62997 6.00338 5.98911 5.82995 6.3748 5.76764L10.8823 5.02639C11.3792 4.94646 11.8881 5.05421 12.3099 5.32868C12.7318 5.60315 13.0365 6.02471 13.1648 6.51139L13.5723 8.11639C14.3665 8.03889 15.1756 8.00014 15.9998 8.00014C16.824 8.00014 17.6323 8.03889 18.4248 8.11639L18.8323 6.51139C18.9603 6.02456 19.265 5.60283 19.6869 5.32832C20.1088 5.0538 20.6179 4.94617 21.1148 5.02639L25.6248 5.76764C26.0105 5.82995 26.3696 6.00338 26.6582 6.26669C26.9469 6.53001 27.1524 6.87177 27.2498 7.25014L30.941 21.7976C31.0571 22.2554 31.0067 22.7396 30.7988 23.1636C30.5909 23.5877 30.239 23.924 29.806 24.1126ZM28.9998 22.2851L25.3085 7.75014C25.3085 7.75014 25.3085 7.75014 25.2985 7.75014L20.791 7.00014C20.7878 6.99827 20.7842 6.99729 20.7804 6.99729C20.7767 6.99729 20.773 6.99827 20.7698 7.00014L20.416 8.39264C21.041 8.51014 21.666 8.65014 22.2698 8.82014C22.5078 8.88081 22.7152 9.02697 22.8524 9.23075C22.9895 9.43452 23.0469 9.68166 23.0135 9.92502C22.9801 10.1684 22.8584 10.3909 22.6714 10.5503C22.4844 10.7096 22.2454 10.7945 21.9998 10.7889C21.9085 10.7886 21.8177 10.776 21.7298 10.7514C19.8622 10.2446 17.9349 9.99193 15.9998 10.0001C14.0648 9.99152 12.1374 10.2438 10.2698 10.7501C10.1422 10.7896 10.008 10.8031 9.87515 10.7898C9.74227 10.7765 9.61339 10.7368 9.49612 10.6729C9.37885 10.6091 9.27556 10.5223 9.19234 10.4179C9.10912 10.3135 9.04767 10.1934 9.0116 10.0648C8.97553 9.93627 8.96558 9.80177 8.98234 9.66929C8.99909 9.5368 9.04221 9.40902 9.10915 9.29347C9.17609 9.17792 9.2655 9.07695 9.37209 8.99651C9.47869 8.91608 9.60031 8.8578 9.7298 8.82514C10.3323 8.65514 10.9523 8.51514 11.5823 8.39764L11.2285 7.00014C11.2285 7.00014 11.2285 7.00014 11.2135 7.00014L6.70105 7.74139C6.69736 7.74038 6.69348 7.74038 6.6898 7.74139L2.9998 22.2914L11.3748 26.0001C11.379 26.0024 11.3837 26.0036 11.3885 26.0036C11.3933 26.0036 11.3981 26.0024 11.4023 26.0001L12.2498 23.7151C11.4007 23.5852 10.56 23.4049 9.7323 23.1751C9.48576 23.0964 9.27937 22.9251 9.15651 22.6973C9.03365 22.4695 9.0039 22.2029 9.0735 21.9536C9.1431 21.7044 9.30665 21.4918 9.52974 21.3606C9.75284 21.2294 10.0181 21.1898 10.2698 21.2501C12.1373 21.7571 14.0647 22.0094 15.9998 22.0001C17.9349 22.0094 19.8623 21.7571 21.7298 21.2501C21.9852 21.1785 22.2587 21.2113 22.4899 21.3413C22.7212 21.4713 22.8913 21.6878 22.9629 21.9433C23.0345 22.1987 23.0017 22.4721 22.8717 22.7034C22.7418 22.9346 22.5252 23.1048 22.2698 23.1764C21.4412 23.4058 20.5997 23.5857 19.7498 23.7151L20.5935 26.0001C20.5976 26.0023 20.6021 26.0035 20.6067 26.0035C20.6113 26.0035 20.6158 26.0023 20.6198 26.0001L28.9998 22.2851Z" fill="#4A4A4F"/>
</svg>
