<svg width="32" height="32" viewBox="0 0 32 32" fill="none" xmlns="http://www.w3.org/2000/svg">
<path d="M26 4H6C5.46957 4 4.96086 4.21071 4.58579 4.58579C4.21071 4.96086 4 5.46957 4 6V26C4 26.5304 4.21071 27.0391 4.58579 27.4142C4.96086 27.7893 5.46957 28 6 28H26C26.5304 28 27.0391 27.7893 27.4142 27.4142C27.7893 27.0391 28 26.5304 28 26V6C28 5.46957 27.7893 4.96086 27.4142 4.58579C27.0391 4.21071 26.5304 4 26 4ZM16 8C16.3956 8 16.7822 8.1173 17.1111 8.33706C17.44 8.55682 17.6964 8.86918 17.8478 9.23463C17.9991 9.60009 18.0387 10.0022 17.9616 10.3902C17.8844 10.7781 17.6939 11.1345 17.4142 11.4142C17.1345 11.6939 16.7781 11.8844 16.3902 11.9616C16.0022 12.0387 15.6001 11.9991 15.2346 11.8478C14.8692 11.6964 14.5568 11.44 14.3371 11.1111C14.1173 10.7822 14 10.3956 14 10C14 9.46957 14.2107 8.96086 14.5858 8.58579C14.9609 8.21071 15.4696 8 16 8ZM16 24C15.6044 24 15.2178 23.8827 14.8889 23.6629C14.56 23.4432 14.3036 23.1308 14.1522 22.7654C14.0009 22.3999 13.9613 21.9978 14.0384 21.6098C14.1156 21.2219 14.3061 20.8655 14.5858 20.5858C14.8655 20.3061 15.2219 20.1156 15.6098 20.0384C15.9978 19.9613 16.3999 20.0009 16.7654 20.1522C17.1308 20.3036 17.4432 20.56 17.6629 20.8889C17.8827 21.2178 18 21.6044 18 22C18 22.5304 17.7893 23.0391 17.4142 23.4142C17.0391 23.7893 16.5304 24 16 24ZM23 17H9C8.73478 17 8.48043 16.8946 8.29289 16.7071C8.10536 16.5196 8 16.2652 8 16C8 15.7348 8.10536 15.4804 8.29289 15.2929C8.48043 15.1054 8.73478 15 9 15H23C23.2652 15 23.5196 15.1054 23.7071 15.2929C23.8946 15.4804 24 15.7348 24 16C24 16.2652 23.8946 16.5196 23.7071 16.7071C23.5196 16.8946 23.2652 17 23 17Z" fill="#4A4A4F"/>
</svg>
