<svg width="32" height="32" viewBox="0 0 32 32" fill="none" xmlns="http://www.w3.org/2000/svg">
<path d="M25.0001 25.5625V29C25.0001 29.2652 24.8947 29.5196 24.7072 29.7071C24.5196 29.8946 24.2653 30 24.0001 30C23.7348 30 23.4805 29.8946 23.2929 29.7071C23.1054 29.5196 23.0001 29.2652 23.0001 29V25.5625C23.005 24.0756 22.5933 22.6171 21.8116 21.3523C21.0299 20.0875 19.9096 19.0669 18.5776 18.4062L12.5276 15.3825C10.8626 14.5567 9.46227 13.281 8.48531 11.7C7.50834 10.119 6.99382 8.29598 7.00006 6.4375V3C7.00006 2.73478 7.10541 2.48043 7.29295 2.29289C7.48049 2.10536 7.73484 2 8.00006 2C8.26527 2 8.51963 2.10536 8.70716 2.29289C8.8947 2.48043 9.00006 2.73478 9.00006 3V6.4375C8.99515 7.92436 9.40686 9.38287 10.1885 10.6477C10.9702 11.9125 12.0905 12.9331 13.4226 13.5938L19.4726 16.6175C21.1375 17.4433 22.5378 18.719 23.5148 20.3C24.4918 21.881 25.0063 23.704 25.0001 25.5625ZM20.0001 25H9.02131C9.06941 24.3188 9.20511 23.6466 9.42506 23H18.5138C18.779 23 19.0334 22.8946 19.2209 22.7071C19.4085 22.5196 19.5138 22.2652 19.5138 22C19.5138 21.7348 19.4085 21.4804 19.2209 21.2929C19.0334 21.1054 18.779 21 18.5138 21H10.4326C10.9344 20.2746 11.5532 19.6376 12.2638 19.115C12.3698 19.0373 12.4595 18.9394 12.5278 18.827C12.596 18.7146 12.6414 18.5899 12.6614 18.46C12.6815 18.33 12.6757 18.1974 12.6445 18.0697C12.6132 17.942 12.5572 17.8217 12.4794 17.7156C12.4017 17.6096 12.3039 17.5199 12.1915 17.4517C12.0791 17.3834 11.9543 17.338 11.8244 17.318C11.6945 17.298 11.5618 17.3037 11.4341 17.335C11.3064 17.3662 11.1861 17.4223 11.0801 17.5C9.81685 18.4312 8.78969 19.6457 8.0811 21.046C7.3725 22.4462 7.00224 23.9932 7.00006 25.5625V29C7.00006 29.2652 7.10541 29.5196 7.29295 29.7071C7.48049 29.8946 7.73484 30 8.00006 30C8.26527 30 8.51963 29.8946 8.70716 29.7071C8.8947 29.5196 9.00006 29.2652 9.00006 29V27H20.0001C20.2653 27 20.5196 26.8946 20.7072 26.7071C20.8947 26.5196 21.0001 26.2652 21.0001 26C21.0001 25.7348 20.8947 25.4804 20.7072 25.2929C20.5196 25.1054 20.2653 25 20.0001 25ZM24.0001 2C23.7348 2 23.4805 2.10536 23.2929 2.29289C23.1054 2.48043 23.0001 2.73478 23.0001 3V5H12.0001C11.7348 5 11.4805 5.10536 11.2929 5.29289C11.1054 5.48043 11.0001 5.73478 11.0001 6C11.0001 6.26522 11.1054 6.51957 11.2929 6.70711C11.4805 6.89464 11.7348 7 12.0001 7H22.9788C22.9307 7.68124 22.795 8.35345 22.5751 9H13.4863C13.2211 9 12.9667 9.10536 12.7792 9.29289C12.5917 9.48043 12.4863 9.73478 12.4863 10C12.4863 10.2652 12.5917 10.5196 12.7792 10.7071C12.9667 10.8946 13.2211 11 13.4863 11H21.5676C21.0657 11.7254 20.4469 12.3624 19.7363 12.885C19.6304 12.9627 19.5409 13.0605 19.4728 13.1729C19.4047 13.2852 19.3595 13.4098 19.3396 13.5397C19.3196 13.6695 19.3255 13.802 19.3568 13.9295C19.3881 14.0571 19.4442 14.1772 19.5219 14.2831C19.6789 14.497 19.9144 14.6397 20.1766 14.6799C20.3064 14.6998 20.4389 14.6939 20.5665 14.6626C20.694 14.6313 20.8142 14.5752 20.9201 14.4975C22.1829 13.5666 23.2099 12.3524 23.9185 10.9526C24.627 9.55286 24.9975 8.00641 25.0001 6.4375V3C25.0001 2.73478 24.8947 2.48043 24.7072 2.29289C24.5196 2.10536 24.2653 2 24.0001 2Z" fill="#4A4A4F"/>
</svg>
