<svg width="32" height="32" viewBox="0 0 32 32" fill="none" xmlns="http://www.w3.org/2000/svg">
<path d="M25.0001 25.5627V29.0002C25.0001 29.2655 24.8948 29.5198 24.7072 29.7074C24.5197 29.8949 24.2653 30.0002 24.0001 30.0002C23.7349 30.0002 23.4805 29.8949 23.293 29.7074C23.1055 29.5198 23.0001 29.2655 23.0001 29.0002V25.5627C23.005 24.0759 22.5933 22.6174 21.8117 21.3525C21.03 20.0877 19.9097 19.0671 18.5776 18.4065L12.5276 15.3827C10.8627 14.557 9.46233 13.2813 8.48536 11.7003C7.5084 10.1193 6.99387 8.29623 7.00011 6.43774V3.00024C7.00011 2.73503 7.10547 2.48067 7.29301 2.29314C7.48054 2.1056 7.7349 2.00024 8.00011 2.00024C8.26533 2.00024 8.51968 2.1056 8.70722 2.29314C8.89475 2.48067 9.00011 2.73503 9.00011 3.00024V6.43774C8.99521 7.92461 9.40692 9.38311 10.1886 10.6479C10.9702 11.9128 12.0906 12.9334 13.4226 13.594L19.4726 16.6177C21.1376 17.4435 22.5379 18.7192 23.5149 20.3002C24.4918 21.8812 25.0063 23.7043 25.0001 25.5627ZM20.3976 24.0002H10.3751C10.238 24.0005 10.1023 23.9727 9.97648 23.9183C9.85063 23.864 9.73729 23.7843 9.64351 23.6843C9.54973 23.5843 9.47751 23.4661 9.43134 23.3371C9.38517 23.208 9.36603 23.0708 9.37511 22.934C9.39777 22.6771 9.51657 22.4382 9.70777 22.265C9.89896 22.0919 10.1485 21.9974 10.4064 22.0002H18.7126C18.8125 22.0001 18.9101 21.9701 18.9928 21.9139C19.0755 21.8578 19.1395 21.7782 19.1765 21.6854C19.2135 21.5925 19.2218 21.4907 19.2004 21.3931C19.179 21.2955 19.1288 21.2066 19.0564 21.1377C18.6438 20.7619 18.181 20.4451 17.6814 20.1965L12.1251 17.414C11.9606 17.3318 11.7765 17.2966 11.5933 17.3123C11.41 17.328 11.2346 17.3939 11.0864 17.5027C9.82235 18.433 8.79419 19.6469 8.0845 21.0467C7.37482 22.4465 7.00341 23.9933 7.00011 25.5627V28.9665C6.9963 29.2249 7.09048 29.4752 7.26371 29.667C7.43695 29.8588 7.67639 29.9778 7.93386 30.0002C8.07065 30.0093 8.20784 29.9902 8.33692 29.944C8.466 29.8978 8.58421 29.8256 8.6842 29.7318C8.78419 29.6381 8.86383 29.5247 8.91818 29.3989C8.97252 29.273 9.00041 29.1373 9.00011 29.0002V27.0002H20.0001C20.2653 27.0002 20.5197 26.8949 20.7072 26.7074C20.8948 26.5198 21.0001 26.2655 21.0001 26.0002V25.5627C21.0001 25.1717 20.9624 24.7816 20.8876 24.3977C20.8641 24.2853 20.8025 24.1843 20.7132 24.1119C20.624 24.0395 20.5125 24.0001 20.3976 24.0002ZM23.9339 2.00024C23.6764 2.02265 23.437 2.14172 23.2637 2.33351C23.0905 2.5253 22.9963 2.77558 23.0001 3.03399V5.00024H12.0001C11.7349 5.00024 11.4805 5.1056 11.293 5.29314C11.1055 5.48067 11.0001 5.73503 11.0001 6.00024V6.43774C11.0002 6.82879 11.0378 7.21892 11.1126 7.60274C11.1362 7.71522 11.1978 7.81615 11.287 7.88854C11.3762 7.96094 11.4877 8.00039 11.6026 8.00024H21.5939C21.8518 7.99736 22.1013 8.09193 22.2925 8.26504C22.4837 8.43816 22.6025 8.67707 22.6251 8.93399C22.6342 9.07078 22.6151 9.20797 22.5689 9.33705C22.5227 9.46613 22.4505 9.58434 22.3567 9.68433C22.2629 9.78432 22.1496 9.86397 22.0237 9.91831C21.8979 9.97266 21.7622 10.0005 21.6251 10.0002H13.2876C13.1877 10.0004 13.0901 10.0304 13.0074 10.0866C12.9247 10.1427 12.8608 10.2223 12.8238 10.3151C12.7868 10.408 12.7784 10.5097 12.7998 10.6074C12.8212 10.705 12.8714 10.7939 12.9439 10.8627C13.3564 11.2386 13.8192 11.5554 14.3189 11.804L19.8751 14.5865C20.0395 14.6695 20.2238 14.705 20.4073 14.6891C20.5908 14.6732 20.7662 14.6065 20.9139 14.4965C22.1777 13.5663 23.2058 12.3527 23.9154 10.9531C24.6251 9.55352 24.9966 8.00698 25.0001 6.43774V3.00024C25.0004 2.86316 24.9725 2.72747 24.9182 2.60162C24.8638 2.47576 24.7842 2.36242 24.6842 2.26864C24.5842 2.17486 24.466 2.10264 24.3369 2.05647C24.2078 2.0103 24.0707 1.99116 23.9339 2.00024Z" fill="#4A4A4F"/>
</svg>
