<svg width="32" height="32" viewBox="0 0 32 32" fill="none" xmlns="http://www.w3.org/2000/svg">
<path d="M29 27H26V5C26 4.46957 25.7893 3.96086 25.4142 3.58579C25.0391 3.21071 24.5304 3 24 3H8C7.46957 3 6.96086 3.21071 6.58579 3.58579C6.21071 3.96086 6 4.46957 6 5V27H3C2.73478 27 2.48043 27.1054 2.29289 27.2929C2.10536 27.4804 2 27.7348 2 28C2 28.2652 2.10536 28.5196 2.29289 28.7071C2.48043 28.8946 2.73478 29 3 29H29C29.2652 29 29.5196 28.8946 29.7071 28.7071C29.8946 28.5196 30 28.2652 30 28C30 27.7348 29.8946 27.4804 29.7071 27.2929C29.5196 27.1054 29.2652 27 29 27ZM20.5 18C20.2033 18 19.9133 17.912 19.6666 17.7472C19.42 17.5824 19.2277 17.3481 19.1142 17.074C19.0007 16.7999 18.9709 16.4983 19.0288 16.2074C19.0867 15.9164 19.2296 15.6491 19.4393 15.4393C19.6491 15.2296 19.9164 15.0867 20.2074 15.0288C20.4983 14.9709 20.7999 15.0006 21.074 15.1142C21.3481 15.2277 21.5824 15.42 21.7472 15.6666C21.912 15.9133 22 16.2033 22 16.5C22 16.8978 21.842 17.2794 21.5607 17.5607C21.2794 17.842 20.8978 18 20.5 18Z" fill="#4A4A4F"/>
</svg>
