<svg width="32" height="32" viewBox="0 0 32 32" fill="none" xmlns="http://www.w3.org/2000/svg">
<path d="M29 27H26V5C26 4.46957 25.7893 3.96086 25.4142 3.58579C25.0391 3.21071 24.5304 3 24 3H8C7.46957 3 6.96086 3.21071 6.58579 3.58579C6.21071 3.96086 6 4.46957 6 5V27H3C2.73478 27 2.48043 27.1054 2.29289 27.2929C2.10536 27.4804 2 27.7348 2 28C2 28.2652 2.10536 28.5196 2.29289 28.7071C2.48043 28.8946 2.73478 29 3 29H29C29.2652 29 29.5196 28.8946 29.7071 28.7071C29.8946 28.5196 30 28.2652 30 28C30 27.7348 29.8946 27.4804 29.7071 27.2929C29.5196 27.1054 29.2652 27 29 27ZM21 27H8V5H21V27ZM16 16.5C16 16.2033 16.088 15.9133 16.2528 15.6666C16.4176 15.42 16.6519 15.2277 16.926 15.1142C17.2001 15.0006 17.5017 14.9709 17.7926 15.0288C18.0836 15.0867 18.3509 15.2296 18.5607 15.4393C18.7704 15.6491 18.9133 15.9164 18.9712 16.2074C19.0291 16.4983 18.9993 16.7999 18.8858 17.074C18.7723 17.3481 18.58 17.5824 18.3334 17.7472C18.0867 17.912 17.7967 18 17.5 18C17.1022 18 16.7206 17.842 16.4393 17.5607C16.158 17.2794 16 16.8978 16 16.5Z" fill="#4A4A4F"/>
</svg>
