<svg width="32" height="32" viewBox="0 0 32 32" fill="none" xmlns="http://www.w3.org/2000/svg">
<path d="M17.5 16C17.5 16.2967 17.412 16.5867 17.2472 16.8334C17.0824 17.08 16.8481 17.2723 16.574 17.3858C16.2999 17.4993 15.9983 17.5291 15.7074 17.4712C15.4164 17.4133 15.1491 17.2704 14.9393 17.0607C14.7296 16.8509 14.5867 16.5836 14.5288 16.2926C14.4709 16.0017 14.5006 15.7001 14.6142 15.426C14.7277 15.1519 14.92 14.9176 15.1666 14.7528C15.4133 14.588 15.7033 14.5 16 14.5C16.3978 14.5 16.7794 14.658 17.0607 14.9393C17.342 15.2206 17.5 15.6022 17.5 16Z" fill="#4A4A4F"/>
</svg>
