<svg width="32" height="32" viewBox="0 0 32 32" fill="none" xmlns="http://www.w3.org/2000/svg">
<path d="M19.5 16C19.5 16.6922 19.2947 17.3689 18.9101 17.9445C18.5256 18.5201 17.9789 18.9687 17.3394 19.2336C16.6999 19.4985 15.9961 19.5678 15.3172 19.4327C14.6383 19.2977 14.0146 18.9644 13.5251 18.4749C13.0356 17.9854 12.7023 17.3617 12.5673 16.6828C12.4322 16.0039 12.5015 15.3001 12.7664 14.6606C13.0313 14.0211 13.4799 13.4744 14.0555 13.0899C14.6311 12.7053 15.3078 12.5 16 12.5C16.9283 12.5 17.8185 12.8687 18.4749 13.5251C19.1313 14.1815 19.5 15.0717 19.5 16Z" fill="#4A4A4F"/>
</svg>
