<svg width="32" height="32" viewBox="0 0 32 32" fill="none" xmlns="http://www.w3.org/2000/svg">
<path d="M16 3C13.4288 3 10.9154 3.76244 8.77759 5.1909C6.63975 6.61935 4.97351 8.64968 3.98957 11.0251C3.00563 13.4006 2.74819 16.0144 3.2498 18.5362C3.75141 21.0579 4.98953 23.3743 6.80762 25.1924C8.6257 27.0105 10.9421 28.2486 13.4638 28.7502C15.9856 29.2518 18.5995 28.9944 20.9749 28.0104C23.3503 27.0265 25.3807 25.3603 26.8091 23.2224C28.2376 21.0846 29 18.5712 29 16C28.9957 12.5535 27.6247 9.2494 25.1876 6.81236C22.7506 4.37532 19.4465 3.0043 16 3ZM10.5 17.5C10.2033 17.5 9.91332 17.412 9.66665 17.2472C9.41998 17.0824 9.22772 16.8481 9.11419 16.574C9.00065 16.2999 8.97095 15.9983 9.02883 15.7074C9.08671 15.4164 9.22957 15.1491 9.43935 14.9393C9.64912 14.7296 9.9164 14.5867 10.2074 14.5288C10.4983 14.4709 10.7999 14.5006 11.074 14.6142C11.3481 14.7277 11.5824 14.92 11.7472 15.1666C11.912 15.4133 12 15.7033 12 16C12 16.3978 11.842 16.7794 11.5607 17.0607C11.2794 17.342 10.8978 17.5 10.5 17.5ZM16 17.5C15.7033 17.5 15.4133 17.412 15.1667 17.2472C14.92 17.0824 14.7277 16.8481 14.6142 16.574C14.5007 16.2999 14.471 15.9983 14.5288 15.7074C14.5867 15.4164 14.7296 15.1491 14.9393 14.9393C15.1491 14.7296 15.4164 14.5867 15.7074 14.5288C15.9983 14.4709 16.2999 14.5006 16.574 14.6142C16.8481 14.7277 17.0824 14.92 17.2472 15.1666C17.412 15.4133 17.5 15.7033 17.5 16C17.5 16.3978 17.342 16.7794 17.0607 17.0607C16.7794 17.342 16.3978 17.5 16 17.5ZM21.5 17.5C21.2033 17.5 20.9133 17.412 20.6667 17.2472C20.42 17.0824 20.2277 16.8481 20.1142 16.574C20.0007 16.2999 19.9709 15.9983 20.0288 15.7074C20.0867 15.4164 20.2296 15.1491 20.4393 14.9393C20.6491 14.7296 20.9164 14.5867 21.2074 14.5288C21.4983 14.4709 21.7999 14.5006 22.074 14.6142C22.3481 14.7277 22.5824 14.92 22.7472 15.1666C22.912 15.4133 23 15.7033 23 16C23 16.3978 22.842 16.7794 22.5607 17.0607C22.2794 17.342 21.8978 17.5 21.5 17.5Z" fill="#4A4A4F"/>
</svg>
