<svg width="32" height="32" viewBox="0 0 32 32" fill="none" xmlns="http://www.w3.org/2000/svg">
<path d="M19.5 16C19.5 16.6922 19.2947 17.3689 18.9101 17.9445C18.5256 18.5201 17.9789 18.9687 17.3394 19.2336C16.6999 19.4985 15.9961 19.5678 15.3172 19.4327C14.6383 19.2977 14.0146 18.9644 13.5251 18.4749C13.0356 17.9854 12.7023 17.3617 12.5673 16.6828C12.4322 16.0039 12.5015 15.3001 12.7664 14.6606C13.0313 14.0211 13.4799 13.4744 14.0555 13.0899C14.6311 12.7053 15.3078 12.5 16 12.5C16.9283 12.5 17.8185 12.8687 18.4749 13.5251C19.1313 14.1815 19.5 15.0717 19.5 16ZM6 12.5C5.30777 12.5 4.63108 12.7053 4.05551 13.0899C3.47993 13.4744 3.03133 14.0211 2.76642 14.6606C2.50152 15.3001 2.4322 16.0039 2.56725 16.6828C2.7023 17.3617 3.03564 17.9854 3.52513 18.4749C4.01461 18.9644 4.63825 19.2977 5.31719 19.4327C5.99612 19.5678 6.69985 19.4985 7.33939 19.2336C7.97894 18.9687 8.52556 18.5201 8.91015 17.9445C9.29473 17.3689 9.5 16.6922 9.5 16C9.5 15.0717 9.13125 14.1815 8.47487 13.5251C7.8185 12.8687 6.92826 12.5 6 12.5ZM26 12.5C25.3078 12.5 24.6311 12.7053 24.0555 13.0899C23.4799 13.4744 23.0313 14.0211 22.7664 14.6606C22.5015 15.3001 22.4322 16.0039 22.5673 16.6828C22.7023 17.3617 23.0356 17.9854 23.5251 18.4749C24.0146 18.9644 24.6383 19.2977 25.3172 19.4327C25.9961 19.5678 26.6999 19.4985 27.3394 19.2336C27.9789 18.9687 28.5256 18.5201 28.9101 17.9445C29.2947 17.3689 29.5 16.6922 29.5 16C29.5 15.5404 29.4095 15.0852 29.2336 14.6606C29.0577 14.236 28.7999 13.8501 28.4749 13.5251C28.1499 13.2001 27.764 12.9423 27.3394 12.7664C26.9148 12.5905 26.4596 12.5 26 12.5Z" fill="#4A4A4F"/>
</svg>
