<svg width="32" height="32" viewBox="0 0 32 32" fill="none" xmlns="http://www.w3.org/2000/svg">
<path d="M24 2H8C7.46957 2 6.96086 2.21071 6.58579 2.58579C6.21071 2.96086 6 3.46957 6 4V28C6 28.5304 6.21071 29.0391 6.58579 29.4142C6.96086 29.7893 7.46957 30 8 30H24C24.5304 30 25.0391 29.7893 25.4142 29.4142C25.7893 29.0391 26 28.5304 26 28V4C26 3.46957 25.7893 2.96086 25.4142 2.58579C25.0391 2.21071 24.5304 2 24 2ZM12.5 25C12.2033 25 11.9133 24.912 11.6666 24.7472C11.42 24.5824 11.2277 24.3481 11.1142 24.074C11.0006 23.7999 10.9709 23.4983 11.0288 23.2074C11.0867 22.9164 11.2296 22.6491 11.4393 22.4393C11.6491 22.2296 11.9164 22.0867 12.2074 22.0288C12.4983 21.9709 12.7999 22.0007 13.074 22.1142C13.3481 22.2277 13.5824 22.42 13.7472 22.6666C13.912 22.9133 14 23.2033 14 23.5C14 23.8978 13.842 24.2794 13.5607 24.5607C13.2794 24.842 12.8978 25 12.5 25ZM12.5 17.5C12.2033 17.5 11.9133 17.412 11.6666 17.2472C11.42 17.0824 11.2277 16.8481 11.1142 16.574C11.0006 16.2999 10.9709 15.9983 11.0288 15.7074C11.0867 15.4164 11.2296 15.1491 11.4393 14.9393C11.6491 14.7296 11.9164 14.5867 12.2074 14.5288C12.4983 14.4709 12.7999 14.5006 13.074 14.6142C13.3481 14.7277 13.5824 14.92 13.7472 15.1666C13.912 15.4133 14 15.7033 14 16C14 16.3978 13.842 16.7794 13.5607 17.0607C13.2794 17.342 12.8978 17.5 12.5 17.5ZM12.5 10C12.2033 10 11.9133 9.91203 11.6666 9.7472C11.42 9.58238 11.2277 9.34811 11.1142 9.07403C11.0006 8.79994 10.9709 8.49834 11.0288 8.20736C11.0867 7.91639 11.2296 7.64912 11.4393 7.43934C11.6491 7.22956 11.9164 7.0867 12.2074 7.02882C12.4983 6.97094 12.7999 7.00065 13.074 7.11418C13.3481 7.22771 13.5824 7.41997 13.7472 7.66664C13.912 7.91332 14 8.20333 14 8.5C14 8.89782 13.842 9.27936 13.5607 9.56066C13.2794 9.84196 12.8978 10 12.5 10ZM19.5 25C19.2033 25 18.9133 24.912 18.6666 24.7472C18.42 24.5824 18.2277 24.3481 18.1142 24.074C18.0007 23.7999 17.9709 23.4983 18.0288 23.2074C18.0867 22.9164 18.2296 22.6491 18.4393 22.4393C18.6491 22.2296 18.9164 22.0867 19.2074 22.0288C19.4983 21.9709 19.7999 22.0007 20.074 22.1142C20.3481 22.2277 20.5824 22.42 20.7472 22.6666C20.912 22.9133 21 23.2033 21 23.5C21 23.8978 20.842 24.2794 20.5607 24.5607C20.2794 24.842 19.8978 25 19.5 25ZM19.5 17.5C19.2033 17.5 18.9133 17.412 18.6666 17.2472C18.42 17.0824 18.2277 16.8481 18.1142 16.574C18.0007 16.2999 17.9709 15.9983 18.0288 15.7074C18.0867 15.4164 18.2296 15.1491 18.4393 14.9393C18.6491 14.7296 18.9164 14.5867 19.2074 14.5288C19.4983 14.4709 19.7999 14.5006 20.074 14.6142C20.3481 14.7277 20.5824 14.92 20.7472 15.1666C20.912 15.4133 21 15.7033 21 16C21 16.3978 20.842 16.7794 20.5607 17.0607C20.2794 17.342 19.8978 17.5 19.5 17.5ZM19.5 10C19.2033 10 18.9133 9.91203 18.6666 9.7472C18.42 9.58238 18.2277 9.34811 18.1142 9.07403C18.0007 8.79994 17.9709 8.49834 18.0288 8.20736C18.0867 7.91639 18.2296 7.64912 18.4393 7.43934C18.6491 7.22956 18.9164 7.0867 19.2074 7.02882C19.4983 6.97094 19.7999 7.00065 20.074 7.11418C20.3481 7.22771 20.5824 7.41997 20.7472 7.66664C20.912 7.91332 21 8.20333 21 8.5C21 8.89782 20.842 9.27936 20.5607 9.56066C20.2794 9.84196 19.8978 10 19.5 10Z" fill="#4A4A4F"/>
</svg>
