<svg width="32" height="32" viewBox="0 0 32 32" fill="none" xmlns="http://www.w3.org/2000/svg">
<path d="M24 2H8C7.46957 2 6.96086 2.21071 6.58579 2.58579C6.21071 2.96086 6 3.46957 6 4V28C6 28.5304 6.21071 29.0391 6.58579 29.4142C6.96086 29.7893 7.46957 30 8 30H24C24.5304 30 25.0391 29.7893 25.4142 29.4142C25.7893 29.0391 26 28.5304 26 28V4C26 3.46957 25.7893 2.96086 25.4142 2.58579C25.0391 2.21071 24.5304 2 24 2ZM16 26C15.7033 26 15.4133 25.912 15.1666 25.7472C14.92 25.5824 14.7277 25.3481 14.6142 25.074C14.5006 24.7999 14.4709 24.4983 14.5288 24.2074C14.5867 23.9164 14.7296 23.6491 14.9393 23.4393C15.1491 23.2296 15.4164 23.0867 15.7074 23.0288C15.9983 22.9709 16.2999 23.0007 16.574 23.1142C16.8481 23.2277 17.0824 23.42 17.2472 23.6666C17.412 23.9133 17.5 24.2033 17.5 24.5C17.5 24.8978 17.342 25.2794 17.0607 25.5607C16.7794 25.842 16.3978 26 16 26ZM16 17.5C15.7033 17.5 15.4133 17.412 15.1666 17.2472C14.92 17.0824 14.7277 16.8481 14.6142 16.574C14.5006 16.2999 14.4709 15.9983 14.5288 15.7074C14.5867 15.4164 14.7296 15.1491 14.9393 14.9393C15.1491 14.7296 15.4164 14.5867 15.7074 14.5288C15.9983 14.4709 16.2999 14.5006 16.574 14.6142C16.8481 14.7277 17.0824 14.92 17.2472 15.1666C17.412 15.4133 17.5 15.7033 17.5 16C17.5 16.3978 17.342 16.7794 17.0607 17.0607C16.7794 17.342 16.3978 17.5 16 17.5ZM16 9C15.7033 9 15.4133 8.91203 15.1666 8.7472C14.92 8.58238 14.7277 8.34811 14.6142 8.07403C14.5006 7.79994 14.4709 7.49834 14.5288 7.20736C14.5867 6.91639 14.7296 6.64912 14.9393 6.43934C15.1491 6.22956 15.4164 6.0867 15.7074 6.02882C15.9983 5.97094 16.2999 6.00065 16.574 6.11418C16.8481 6.22771 17.0824 6.41997 17.2472 6.66664C17.412 6.91332 17.5 7.20333 17.5 7.5C17.5 7.89782 17.342 8.27936 17.0607 8.56066C16.7794 8.84196 16.3978 9 16 9Z" fill="#4A4A4F"/>
</svg>
