<svg width="32" height="32" viewBox="0 0 32 32" fill="none" xmlns="http://www.w3.org/2000/svg">
<path d="M28 6H4C3.46957 6 2.96086 6.21071 2.58579 6.58579C2.21071 6.96086 2 7.46957 2 8V24C2 24.5304 2.21071 25.0391 2.58579 25.4142C2.96086 25.7893 3.46957 26 4 26H28C28.5304 26 29.0391 25.7893 29.4142 25.4142C29.7893 25.0391 30 24.5304 30 24V8C30 7.46957 29.7893 6.96086 29.4142 6.58579C29.0391 6.21071 28.5304 6 28 6ZM8.5 21C8.20333 21 7.91332 20.912 7.66664 20.7472C7.41997 20.5824 7.22771 20.3481 7.11418 20.074C7.00065 19.7999 6.97094 19.4983 7.02882 19.2074C7.0867 18.9164 7.22956 18.6491 7.43934 18.4393C7.64912 18.2296 7.91639 18.0867 8.20736 18.0288C8.49834 17.9709 8.79994 18.0007 9.07403 18.1142C9.34811 18.2277 9.58238 18.42 9.7472 18.6666C9.91203 18.9133 10 19.2033 10 19.5C10 19.8978 9.84196 20.2794 9.56066 20.5607C9.27936 20.842 8.89782 21 8.5 21ZM8.5 14C8.20333 14 7.91332 13.912 7.66664 13.7472C7.41997 13.5824 7.22771 13.3481 7.11418 13.074C7.00065 12.7999 6.97094 12.4983 7.02882 12.2074C7.0867 11.9164 7.22956 11.6491 7.43934 11.4393C7.64912 11.2296 7.91639 11.0867 8.20736 11.0288C8.49834 10.9709 8.79994 11.0006 9.07403 11.1142C9.34811 11.2277 9.58238 11.42 9.7472 11.6666C9.91203 11.9133 10 12.2033 10 12.5C10 12.8978 9.84196 13.2794 9.56066 13.5607C9.27936 13.842 8.89782 14 8.5 14ZM16 21C15.7033 21 15.4133 20.912 15.1666 20.7472C14.92 20.5824 14.7277 20.3481 14.6142 20.074C14.5006 19.7999 14.4709 19.4983 14.5288 19.2074C14.5867 18.9164 14.7296 18.6491 14.9393 18.4393C15.1491 18.2296 15.4164 18.0867 15.7074 18.0288C15.9983 17.9709 16.2999 18.0007 16.574 18.1142C16.8481 18.2277 17.0824 18.42 17.2472 18.6666C17.412 18.9133 17.5 19.2033 17.5 19.5C17.5 19.8978 17.342 20.2794 17.0607 20.5607C16.7794 20.842 16.3978 21 16 21ZM16 14C15.7033 14 15.4133 13.912 15.1666 13.7472C14.92 13.5824 14.7277 13.3481 14.6142 13.074C14.5006 12.7999 14.4709 12.4983 14.5288 12.2074C14.5867 11.9164 14.7296 11.6491 14.9393 11.4393C15.1491 11.2296 15.4164 11.0867 15.7074 11.0288C15.9983 10.9709 16.2999 11.0006 16.574 11.1142C16.8481 11.2277 17.0824 11.42 17.2472 11.6666C17.412 11.9133 17.5 12.2033 17.5 12.5C17.5 12.8978 17.342 13.2794 17.0607 13.5607C16.7794 13.842 16.3978 14 16 14ZM23.5 21C23.2033 21 22.9133 20.912 22.6666 20.7472C22.42 20.5824 22.2277 20.3481 22.1142 20.074C22.0007 19.7999 21.9709 19.4983 22.0288 19.2074C22.0867 18.9164 22.2296 18.6491 22.4393 18.4393C22.6491 18.2296 22.9164 18.0867 23.2074 18.0288C23.4983 17.9709 23.7999 18.0007 24.074 18.1142C24.3481 18.2277 24.5824 18.42 24.7472 18.6666C24.912 18.9133 25 19.2033 25 19.5C25 19.8978 24.842 20.2794 24.5607 20.5607C24.2794 20.842 23.8978 21 23.5 21ZM23.5 14C23.2033 14 22.9133 13.912 22.6666 13.7472C22.42 13.5824 22.2277 13.3481 22.1142 13.074C22.0007 12.7999 21.9709 12.4983 22.0288 12.2074C22.0867 11.9164 22.2296 11.6491 22.4393 11.4393C22.6491 11.2296 22.9164 11.0867 23.2074 11.0288C23.4983 10.9709 23.7999 11.0006 24.074 11.1142C24.3481 11.2277 24.5824 11.42 24.7472 11.6666C24.912 11.9133 25 12.2033 25 12.5C25 12.8978 24.842 13.2794 24.5607 13.5607C24.2794 13.842 23.8978 14 23.5 14Z" fill="#4A4A4F"/>
</svg>
