<svg width="32" height="32" viewBox="0 0 32 32" fill="none" xmlns="http://www.w3.org/2000/svg">
<path d="M16 12C15.2089 12 14.4355 12.2346 13.7777 12.6741C13.1199 13.1136 12.6072 13.7384 12.3045 14.4693C12.0017 15.2002 11.9225 16.0044 12.0769 16.7804C12.2312 17.5563 12.6122 18.269 13.1716 18.8284C13.731 19.3878 14.4437 19.7688 15.2196 19.9231C15.9956 20.0775 16.7998 19.9983 17.5307 19.6955C18.2616 19.3928 18.8864 18.8801 19.3259 18.2223C19.7654 17.5645 20 16.7911 20 16C20 14.9391 19.5786 13.9217 18.8284 13.1716C18.0783 12.4214 17.0609 12 16 12ZM16 18C15.6044 18 15.2178 17.8827 14.8889 17.6629C14.56 17.4432 14.3036 17.1308 14.1522 16.7654C14.0009 16.3999 13.9613 15.9978 14.0384 15.6098C14.1156 15.2219 14.3061 14.8655 14.5858 14.5858C14.8655 14.3061 15.2219 14.1156 15.6098 14.0384C15.9978 13.9613 16.3999 14.0009 16.7654 14.1522C17.1308 14.3036 17.4432 14.56 17.6629 14.8889C17.8827 15.2178 18 15.6044 18 16C18 16.5304 17.7893 17.0391 17.4142 17.4142C17.0391 17.7893 16.5304 18 16 18ZM16 10C16.7911 10 17.5645 9.76541 18.2223 9.32588C18.8801 8.88635 19.3928 8.26164 19.6955 7.53074C19.9983 6.79983 20.0775 5.99556 19.9231 5.21964C19.7688 4.44372 19.3878 3.73098 18.8284 3.17157C18.269 2.61216 17.5563 2.2312 16.7804 2.07686C16.0044 1.92252 15.2002 2.00173 14.4693 2.30448C13.7384 2.60723 13.1136 3.11992 12.6741 3.77772C12.2346 4.43552 12 5.20888 12 6C12 7.06087 12.4214 8.07828 13.1716 8.82843C13.9217 9.57857 14.9391 10 16 10ZM16 4C16.3956 4 16.7822 4.1173 17.1111 4.33706C17.44 4.55683 17.6964 4.86918 17.8478 5.23463C17.9991 5.60009 18.0387 6.00222 17.9616 6.39018C17.8844 6.77814 17.6939 7.13451 17.4142 7.41422C17.1345 7.69392 16.7781 7.8844 16.3902 7.96157C16.0022 8.03874 15.6001 7.99914 15.2346 7.84776C14.8692 7.69639 14.5568 7.44004 14.3371 7.11114C14.1173 6.78224 14 6.39556 14 6C14 5.46957 14.2107 4.96086 14.5858 4.58579C14.9609 4.21072 15.4696 4 16 4ZM16 22C15.2089 22 14.4355 22.2346 13.7777 22.6741C13.1199 23.1136 12.6072 23.7384 12.3045 24.4693C12.0017 25.2002 11.9225 26.0044 12.0769 26.7804C12.2312 27.5563 12.6122 28.269 13.1716 28.8284C13.731 29.3878 14.4437 29.7688 15.2196 29.9231C15.9956 30.0775 16.7998 29.9983 17.5307 29.6955C18.2616 29.3928 18.8864 28.8801 19.3259 28.2223C19.7654 27.5645 20 26.7911 20 26C20 24.9391 19.5786 23.9217 18.8284 23.1716C18.0783 22.4214 17.0609 22 16 22ZM16 28C15.6044 28 15.2178 27.8827 14.8889 27.6629C14.56 27.4432 14.3036 27.1308 14.1522 26.7654C14.0009 26.3999 13.9613 25.9978 14.0384 25.6098C14.1156 25.2219 14.3061 24.8655 14.5858 24.5858C14.8655 24.3061 15.2219 24.1156 15.6098 24.0384C15.9978 23.9613 16.3999 24.0009 16.7654 24.1522C17.1308 24.3036 17.4432 24.56 17.6629 24.8889C17.8827 25.2178 18 25.6044 18 26C18 26.5304 17.7893 27.0391 17.4142 27.4142C17.0391 27.7893 16.5304 28 16 28Z" fill="#4A4A4F"/>
</svg>
