<svg width="32" height="32" viewBox="0 0 32 32" fill="none" xmlns="http://www.w3.org/2000/svg">
<path d="M10.2925 14.7075C10.1525 14.5676 10.0571 14.3894 10.0185 14.1953C9.97982 14.0012 9.99963 13.8 10.0754 13.6172C10.1511 13.4344 10.2794 13.2782 10.444 13.1683C10.6086 13.0584 10.8021 12.9998 11 13H15V5C15 4.73478 15.1054 4.48043 15.2929 4.29289C15.4804 4.10536 15.7348 4 16 4C16.2652 4 16.5196 4.10536 16.7071 4.29289C16.8946 4.48043 17 4.73478 17 5V13H21C21.1979 12.9998 21.3914 13.0584 21.556 13.1683C21.7206 13.2782 21.8489 13.4344 21.9246 13.6172C22.0004 13.8 22.0202 14.0012 21.9815 14.1953C21.9429 14.3894 21.8475 14.5676 21.7075 14.7075L16.7075 19.7075C16.6146 19.8005 16.5043 19.8742 16.3829 19.9246C16.2615 19.9749 16.1314 20.0008 16 20.0008C15.8686 20.0008 15.7385 19.9749 15.6171 19.9246C15.4957 19.8742 15.3854 19.8005 15.2925 19.7075L10.2925 14.7075ZM27 18C26.7348 18 26.4804 18.1054 26.2929 18.2929C26.1054 18.4804 26 18.7348 26 19V26H6V19C6 18.7348 5.89464 18.4804 5.70711 18.2929C5.51957 18.1054 5.26522 18 5 18C4.73478 18 4.48043 18.1054 4.29289 18.2929C4.10536 18.4804 4 18.7348 4 19V26C4 26.5304 4.21071 27.0391 4.58579 27.4142C4.96086 27.7893 5.46957 28 6 28H26C26.5304 28 27.0391 27.7893 27.4142 27.4142C27.7893 27.0391 28 26.5304 28 26V19C28 18.7348 27.8946 18.4804 27.7071 18.2929C27.5196 18.1054 27.2652 18 27 18Z" fill="#4A4A4F"/>
</svg>
