<svg width="32" height="32" viewBox="0 0 32 32" fill="none" xmlns="http://www.w3.org/2000/svg">
<path d="M28 19V26C28 26.5304 27.7893 27.0391 27.4142 27.4142C27.0391 27.7893 26.5304 28 26 28H6C5.46957 28 4.96086 27.7893 4.58579 27.4142C4.21071 27.0391 4 26.5304 4 26V19C4 18.7348 4.10536 18.4804 4.29289 18.2929C4.48043 18.1054 4.73478 18 5 18C5.26522 18 5.51957 18.1054 5.70711 18.2929C5.89464 18.4804 6 18.7348 6 19V26H26V19C26 18.7348 26.1054 18.4804 26.2929 18.2929C26.4804 18.1054 26.7348 18 27 18C27.2652 18 27.5196 18.1054 27.7071 18.2929C27.8946 18.4804 28 18.7348 28 19ZM15.2925 19.7075C15.3854 19.8005 15.4957 19.8742 15.6171 19.9246C15.7385 19.9749 15.8686 20.0008 16 20.0008C16.1314 20.0008 16.2615 19.9749 16.3829 19.9246C16.5043 19.8742 16.6146 19.8005 16.7075 19.7075L21.7075 14.7075C21.8004 14.6146 21.8741 14.5043 21.9244 14.3829C21.9747 14.2615 22.0006 14.1314 22.0006 14C22.0006 13.8686 21.9747 13.7385 21.9244 13.6171C21.8741 13.4957 21.8004 13.3854 21.7075 13.2925C21.6146 13.1996 21.5043 13.1259 21.3829 13.0756C21.2615 13.0253 21.1314 12.9994 21 12.9994C20.8686 12.9994 20.7385 13.0253 20.6171 13.0756C20.4957 13.1259 20.3854 13.1996 20.2925 13.2925L17 16.5863V5C17 4.73478 16.8946 4.48043 16.7071 4.29289C16.5196 4.10536 16.2652 4 16 4C15.7348 4 15.4804 4.10536 15.2929 4.29289C15.1054 4.48043 15 4.73478 15 5V16.5863L11.7075 13.2925C11.5199 13.1049 11.2654 12.9994 11 12.9994C10.7346 12.9994 10.4801 13.1049 10.2925 13.2925C10.1049 13.4801 9.99944 13.7346 9.99944 14C9.99944 14.2654 10.1049 14.5199 10.2925 14.7075L15.2925 19.7075Z" fill="#4A4A4F"/>
</svg>
