<svg width="32" height="32" viewBox="0 0 32 32" fill="none" xmlns="http://www.w3.org/2000/svg">
<path d="M9.2925 10.7075C9.10486 10.5199 8.99944 10.2654 8.99944 10C8.99944 9.73464 9.10486 9.48014 9.2925 9.2925C9.48014 9.10486 9.73464 8.99944 10 8.99944C10.2654 8.99944 10.5199 9.10486 10.7075 9.2925L15 13.5863V3C15 2.73478 15.1054 2.48043 15.2929 2.29289C15.4804 2.10536 15.7348 2 16 2C16.2652 2 16.5196 2.10536 16.7071 2.29289C16.8946 2.48043 17 2.73478 17 3V13.5863L21.2925 9.2925C21.4801 9.10486 21.7346 8.99944 22 8.99944C22.2654 8.99944 22.5199 9.10486 22.7075 9.2925C22.8951 9.48014 23.0006 9.73464 23.0006 10C23.0006 10.2654 22.8951 10.5199 22.7075 10.7075L16.7075 16.7075C16.6146 16.8005 16.5043 16.8742 16.3829 16.9246C16.2615 16.9749 16.1314 17.0008 16 17.0008C15.8686 17.0008 15.7385 16.9749 15.6171 16.9246C15.4957 16.8742 15.3854 16.8005 15.2925 16.7075L9.2925 10.7075ZM30 17V25C30 25.5304 29.7893 26.0391 29.4142 26.4142C29.0391 26.7893 28.5304 27 28 27H4C3.46957 27 2.96086 26.7893 2.58579 26.4142C2.21071 26.0391 2 25.5304 2 25V17C2 16.4696 2.21071 15.9609 2.58579 15.5858C2.96086 15.2107 3.46957 15 4 15H10.55C10.6157 14.9999 10.6807 15.0128 10.7414 15.0379C10.8021 15.063 10.8573 15.0998 10.9038 15.1462L13.875 18.125C14.1537 18.4047 14.4849 18.6266 14.8495 18.778C15.2142 18.9294 15.6052 19.0074 16 19.0074C16.3948 19.0074 16.7858 18.9294 17.1505 18.778C17.5151 18.6266 17.8463 18.4047 18.125 18.125L21.1 15.15C21.1923 15.0558 21.3181 15.0019 21.45 15H28C28.5304 15 29.0391 15.2107 29.4142 15.5858C29.7893 15.9609 30 16.4696 30 17ZM25 21C25 20.7033 24.912 20.4133 24.7472 20.1666C24.5824 19.92 24.3481 19.7277 24.074 19.6142C23.7999 19.5007 23.4983 19.4709 23.2074 19.5288C22.9164 19.5867 22.6491 19.7296 22.4393 19.9393C22.2296 20.1491 22.0867 20.4164 22.0288 20.7074C21.9709 20.9983 22.0007 21.2999 22.1142 21.574C22.2277 21.8481 22.42 22.0824 22.6666 22.2472C22.9133 22.412 23.2033 22.5 23.5 22.5C23.8978 22.5 24.2794 22.342 24.5607 22.0607C24.842 21.7794 25 21.3978 25 21Z" fill="#4A4A4F"/>
</svg>
