<svg width="32" height="32" viewBox="0 0 32 32" fill="none" xmlns="http://www.w3.org/2000/svg">
<path d="M8.28238 10.029C8.1445 9.80355 8.05497 9.55191 8.01947 9.29003C7.98396 9.02816 8.00326 8.76177 8.07613 8.50774C8.12571 8.29686 8.21021 8.09575 8.32613 7.91274L10.9999 4.08774V1.00024C10.9996 0.863156 11.0275 0.727471 11.0818 0.601616C11.1362 0.47576 11.2158 0.362423 11.3158 0.268643C11.4158 0.174864 11.534 0.102645 11.6631 0.0564729C11.7922 0.0103009 11.9293 -0.00883835 12.0661 0.000244057C12.3237 0.0223622 12.5633 0.14135 12.7366 0.333204C12.9099 0.525057 13.004 0.775495 12.9999 1.03399V4.05274L13.6561 4.87524C13.9418 5.23353 14.306 5.52132 14.7207 5.71639C15.1353 5.91146 15.5892 6.00858 16.0474 6.00024C16.4998 5.98745 16.9439 5.87521 17.3481 5.67149C17.7523 5.46777 18.1067 5.17757 18.3861 4.82149L18.9999 4.05274V1.00024C18.9996 0.863156 19.0275 0.727471 19.0818 0.601616C19.1362 0.47576 19.2158 0.362423 19.3158 0.268643C19.4158 0.174864 19.534 0.102645 19.6631 0.0564729C19.7922 0.0103009 19.9293 -0.00883835 20.0661 0.000244057C20.3237 0.0223622 20.5633 0.14135 20.7366 0.333204C20.9099 0.525057 21.004 0.775495 20.9999 1.03399V4.08774L23.6774 7.91274C23.7933 8.09575 23.8778 8.29686 23.9274 8.50774C24.0003 8.76177 24.0196 9.02816 23.9841 9.29003C23.9485 9.55191 23.859 9.80355 23.7211 10.029C23.7161 10.0362 23.7115 10.0437 23.7074 10.0515L21.9749 12.769C21.9294 12.8404 21.8666 12.899 21.7922 12.9395C21.7179 12.9799 21.6345 13.0008 21.5499 13.0002H10.4499C10.3659 13.0002 10.2833 12.979 10.2097 12.9385C10.136 12.8981 10.0738 12.8398 10.0286 12.769L8.29613 10.0515C8.29201 10.0437 8.28742 10.0362 8.28238 10.029ZM26.8449 26.224C26.8397 26.2094 26.8334 26.1952 26.8261 26.1815L21.7111 15.2877C21.6707 15.2016 21.6065 15.1288 21.5261 15.0779C21.4458 15.027 21.3525 15 21.2574 15.0002H10.7424C10.6472 15 10.554 15.027 10.4736 15.0779C10.3932 15.1288 10.3291 15.2016 10.2886 15.2877L5.17363 26.1815C5.16635 26.1952 5.16008 26.2094 5.15488 26.224C5.04584 26.4869 4.99349 26.7699 5.00124 27.0544C5.00899 27.339 5.07668 27.6187 5.19988 27.8752C5.36411 28.2128 5.62001 28.4973 5.93832 28.6962C6.25664 28.8952 6.62451 29.0005 6.99988 29.0002H24.9999C25.375 29.0003 25.7427 28.8948 26.0607 28.6959C26.3788 28.497 26.6345 28.2126 26.7986 27.8752C26.922 27.6187 26.9899 27.3391 26.9979 27.0546C27.0059 26.77 26.9537 26.487 26.8449 26.224Z" fill="#4A4A4F"/>
</svg>
