<svg width="32" height="32" viewBox="0 0 32 32" fill="none" xmlns="http://www.w3.org/2000/svg">
<path d="M16 3C13.4288 3 10.9154 3.76244 8.77759 5.1909C6.63975 6.61935 4.97351 8.64968 3.98957 11.0251C3.00563 13.4006 2.74819 16.0144 3.2498 18.5362C3.75141 21.0579 4.98953 23.3743 6.80762 25.1924C8.6257 27.0105 10.9421 28.2486 13.4638 28.7502C15.9856 29.2518 18.5995 28.9944 20.9749 28.0104C23.3503 27.0265 25.3807 25.3603 26.8091 23.2224C28.2376 21.0846 29 18.5712 29 16C28.9964 12.5533 27.6256 9.24882 25.1884 6.81163C22.7512 4.37445 19.4467 3.00364 16 3ZM26.9563 15.0225C26.6379 15.0075 26.3192 15 26 15C24.145 15.0005 22.2982 15.246 20.5075 15.73C20.0709 14.4345 19.5078 13.1851 18.8263 12C20.6037 10.9281 22.2128 9.59917 23.6013 8.05625C25.5278 9.89433 26.7202 12.3703 26.9563 15.0225ZM22.035 6.8075C20.7859 8.17998 19.3422 9.36173 17.75 10.315C16.4165 8.43802 14.7854 6.79136 12.9213 5.44C14.4505 4.99356 16.0585 4.88463 17.6341 5.12074C19.2096 5.35686 20.715 5.93238 22.0463 6.8075H22.035ZM10.7063 6.36C12.7495 7.64675 14.5308 9.30847 15.9563 11.2575C13.4615 12.4073 10.7469 13.0018 8.00001 13C7.15221 12.9996 6.30537 12.9432 5.46501 12.8313C6.3012 10.0731 8.18202 7.75093 10.7063 6.36ZM5.00001 16C4.99995 15.5974 5.02207 15.1951 5.06626 14.795C6.03822 14.9315 7.01851 15 8.00001 15C11.1369 15.003 14.2346 14.3024 17.065 12.95C17.6886 14.0269 18.204 15.1628 18.6038 16.3412C17.5415 16.7403 16.5135 17.2252 15.53 17.7913C12.7863 19.3763 10.4338 21.5575 8.64626 24.1737C7.49833 23.144 6.58032 21.8838 5.95206 20.4755C5.3238 19.0671 4.9994 17.5421 5.00001 16ZM10.25 25.375C11.873 22.9746 14.0204 20.9746 16.53 19.5263C17.369 19.042 18.2446 18.6241 19.1488 18.2763C19.4582 19.6493 19.6145 21.0525 19.615 22.46C19.6157 23.8284 19.4694 25.1929 19.1788 26.53C17.6933 26.9788 16.1296 27.1078 14.5907 26.9088C13.0517 26.7097 11.5724 26.187 10.25 25.375ZM21.3825 25.5912C21.5368 24.5567 21.6145 23.5122 21.615 22.4662C21.6148 20.8473 21.4282 19.2337 21.0588 17.6575C22.6699 17.2227 24.3312 17.0017 26 17C26.3167 17 26.6338 17.0079 26.9513 17.0238C26.7838 18.7952 26.1898 20.4997 25.22 21.9915C24.2502 23.4833 22.9335 24.718 21.3825 25.59V25.5912Z" fill="#4A4A4F"/>
</svg>
