<svg width="32" height="32" viewBox="0 0 32 32" fill="none" xmlns="http://www.w3.org/2000/svg">
<path d="M29.5687 18.6775L24.2562 15L29.5687 11.3225C29.7018 11.2305 29.8105 11.1076 29.8856 10.9643C29.9607 10.8211 30 10.6617 30 10.5C30 10.3382 29.9607 10.1789 29.8856 10.0356C29.8105 9.89239 29.7018 9.76949 29.5687 9.67749L23.0687 5.17749C22.9016 5.06191 22.7032 5 22.5 5C22.2968 5 22.0984 5.06191 21.9312 5.17749L16 9.28374L10.0687 5.17749C9.90159 5.06191 9.7032 5 9.49998 5C9.29677 5 9.09838 5.06191 8.93123 5.17749L2.43124 9.67749C2.29819 9.76949 2.18946 9.89239 2.11435 10.0356C2.03924 10.1789 2 10.3382 2 10.5C2 10.6617 2.03924 10.8211 2.11435 10.9643C2.18946 11.1076 2.29819 11.2305 2.43124 11.3225L7.74998 15L2.43748 18.6775C2.30444 18.7695 2.19571 18.8924 2.1206 19.0356C2.04549 19.1789 2.00625 19.3382 2.00625 19.5C2.00625 19.6617 2.04549 19.8211 2.1206 19.9643C2.19571 20.1076 2.30444 20.2305 2.43748 20.3225L8.93748 24.8225C9.10463 24.9381 9.30302 25 9.50624 25C9.70945 25 9.90784 24.9381 10.075 24.8225L16 20.7162L21.9312 24.8225C22.0984 24.9381 22.2968 25 22.5 25C22.7032 25 22.9016 24.9381 23.0687 24.8225L29.5687 20.3225C29.7018 20.2305 29.8105 20.1076 29.8856 19.9643C29.9607 19.8211 30 19.6617 30 19.5C30 19.3382 29.9607 19.1789 29.8856 19.0356C29.8105 18.8924 29.7018 18.7695 29.5687 18.6775ZM16 18.2837L11.2562 15L16.0062 11.7162L20.75 15L16 18.2837ZM22.5 7.21624L27.25 10.5L22.5 13.7837L17.7562 10.5L22.5 7.21624ZM9.49998 7.21624L14.25 10.5L9.49998 13.7837L4.75623 10.5L9.49998 7.21624ZM9.49998 22.7837L4.75623 19.5L9.50624 16.2162L14.25 19.5L9.49998 22.7837ZM22.5 22.7837L17.7562 19.5L22.5 16.2162L27.25 19.5L22.5 22.7837ZM19.8087 25.8637C19.9599 26.0814 20.0186 26.3502 19.9717 26.6111C19.9248 26.872 19.7763 27.1036 19.5587 27.255L16.5725 29.3225C16.4053 29.4381 16.2069 29.5 16.0037 29.5C15.8005 29.5 15.6021 29.4381 15.435 29.3225L12.445 27.25C12.2281 27.0987 12.0799 26.8675 12.033 26.6072C11.9861 26.3469 12.0442 26.0786 12.1946 25.8611C12.3451 25.6435 12.5756 25.4944 12.8357 25.4464C13.0958 25.3985 13.3643 25.4555 13.5825 25.605L16 27.2837L18.4175 25.61C18.6356 25.4592 18.9048 25.4011 19.1657 25.4487C19.4266 25.4963 19.6579 25.6456 19.8087 25.8637Z" fill="#4A4A4F"/>
</svg>
