<svg width="32" height="32" viewBox="0 0 32 32" fill="none" xmlns="http://www.w3.org/2000/svg">
<path d="M23.5002 15.0002L16.0002 10.0002L22.9452 5.37518C23.1095 5.26554 23.3026 5.20703 23.5002 5.20703C23.6977 5.20703 23.8908 5.26554 24.0552 5.37518L29.7502 9.16768C29.8873 9.25896 29.9998 9.38273 30.0776 9.52797C30.1554 9.6732 30.1961 9.83542 30.1961 10.0002C30.1961 10.1649 30.1554 10.3272 30.0776 10.4724C29.9998 10.6176 29.8873 10.7414 29.7502 10.8327L23.5002 15.0002ZM9.05517 5.37518C8.89084 5.26554 8.69772 5.20703 8.50017 5.20703C8.30263 5.20703 8.1095 5.26554 7.94517 5.37518L2.25017 9.16768C2.11301 9.25896 2.00052 9.38273 1.92272 9.52797C1.84491 9.6732 1.8042 9.83542 1.8042 10.0002C1.8042 10.1649 1.84491 10.3272 1.92272 10.4724C2.00052 10.6176 2.11301 10.7414 2.25017 10.8327L8.50017 15.0002L16.0002 10.0002L9.05517 5.37518ZM29.7502 19.1677L23.5002 15.0002L16.0002 20.0002L22.9452 24.6252C23.1095 24.7348 23.3026 24.7933 23.5002 24.7933C23.6977 24.7933 23.8908 24.7348 24.0552 24.6252L29.7502 20.8327C29.8873 20.7414 29.9998 20.6176 30.0776 20.4724C30.1554 20.3272 30.1961 20.1649 30.1961 20.0002C30.1961 19.8354 30.1554 19.6732 30.0776 19.528C29.9998 19.3827 29.8873 19.259 29.7502 19.1677ZM2.25017 19.1677C2.11301 19.259 2.00052 19.3827 1.92272 19.528C1.84491 19.6732 1.8042 19.8354 1.8042 20.0002C1.8042 20.1649 1.84491 20.3272 1.92272 20.4724C2.00052 20.6176 2.11301 20.7414 2.25017 20.8327L7.94517 24.6252C8.1095 24.7348 8.30263 24.7933 8.50017 24.7933C8.69772 24.7933 8.89084 24.7348 9.05517 24.6252L16.0002 20.0002L8.50017 15.0002L2.25017 19.1677ZM21.0764 25.7864L16.2802 22.5889C16.198 22.5341 16.1014 22.5049 16.0027 22.5049C15.9039 22.5049 15.8073 22.5341 15.7252 22.5889L10.9264 25.7864C10.8581 25.8321 10.8021 25.8939 10.7634 25.9664C10.7246 26.0389 10.7044 26.1199 10.7044 26.2021C10.7044 26.2842 10.7246 26.3652 10.7634 26.4377C10.8021 26.5102 10.8581 26.572 10.9264 26.6177L15.4452 29.6252C15.6095 29.7348 15.8026 29.7933 16.0002 29.7933C16.1977 29.7933 16.3908 29.7348 16.5552 29.6252L21.0739 26.6127C21.1412 26.5668 21.1963 26.5052 21.2343 26.4332C21.2724 26.3612 21.2923 26.281 21.2923 26.1996C21.2923 26.1181 21.2724 26.0379 21.2343 25.9659C21.1963 25.8939 21.1412 25.8323 21.0739 25.7864H21.0764Z" fill="#4A4A4F"/>
</svg>
