<svg width="32" height="32" viewBox="0 0 32 32" fill="none" xmlns="http://www.w3.org/2000/svg">
<path d="M21.75 5.96896C20.206 4.18575 18.4682 2.58002 16.5688 1.18146C16.4006 1.06367 16.2003 1.00049 15.995 1.00049C15.7897 1.00049 15.5894 1.06367 15.4213 1.18146C13.5253 2.58061 11.7909 4.18631 10.25 5.96896C6.81375 9.91521 5 14.0752 5 18.0002C5 20.9176 6.15893 23.7155 8.22183 25.7784C10.2847 27.8413 13.0826 29.0002 16 29.0002C18.9174 29.0002 21.7153 27.8413 23.7782 25.7784C25.8411 23.7155 27 20.9176 27 18.0002C27 14.0752 25.1863 9.91521 21.75 5.96896ZM22.9813 19.1677C22.7219 20.6161 22.0251 21.9503 20.9846 22.9906C19.944 24.0309 18.6097 24.7275 17.1612 24.9865C17.1079 24.995 17.054 24.9996 17 25.0002C16.7492 25.0001 16.5075 24.9058 16.323 24.7359C16.1384 24.566 16.0245 24.333 16.0037 24.083C15.9829 23.833 16.0569 23.5844 16.2108 23.3863C16.3648 23.1883 16.5876 23.0554 16.835 23.014C18.9062 22.6652 20.6637 20.9077 21.015 18.8327C21.0594 18.5711 21.2059 18.3379 21.4223 18.1844C21.6387 18.0308 21.9072 17.9695 22.1688 18.014C22.4303 18.0584 22.6635 18.2049 22.8171 18.4213C22.9706 18.6376 23.0319 18.9061 22.9875 19.1677H22.9813Z" fill="#4A4A4F"/>
</svg>
