<svg width="32" height="32" viewBox="0 0 32 32" fill="none" xmlns="http://www.w3.org/2000/svg">
<path d="M27 13C27 13.2652 26.8946 13.5196 26.7071 13.7071C26.5196 13.8946 26.2652 14 26 14C25.7348 14 25.4804 13.8946 25.2929 13.7071C25.1054 13.5196 25 13.2652 25 13C25 10.6131 24.0518 8.32387 22.364 6.63604C20.6761 4.94821 18.3869 4 16 4C13.6131 4 11.3239 4.94821 9.63604 6.63604C7.94821 8.32387 7 10.6131 7 13C7 16.3375 8.06625 17.365 9.19625 18.455C10.2762 19.5 11.5 20.6763 11.5 23.5C11.5 24.6935 11.9741 25.8381 12.818 26.682C13.6619 27.5259 14.8065 28 16 28C17.28 28 18.3063 27.48 19.2288 26.3638C19.3114 26.2596 19.4139 26.173 19.5304 26.109C19.6469 26.045 19.775 26.0048 19.9072 25.9909C20.0393 25.9769 20.173 25.9895 20.3003 26.0278C20.4275 26.0661 20.5459 26.1294 20.6484 26.214C20.751 26.2986 20.8356 26.4027 20.8974 26.5204C20.9592 26.6381 20.9969 26.7669 21.0084 26.8993C21.0198 27.0318 21.0047 27.1651 20.964 27.2917C20.9233 27.4182 20.8578 27.5353 20.7712 27.6362C19.4762 29.205 17.875 30 16 30C14.2767 29.998 12.6246 29.3126 11.406 28.094C10.1874 26.8754 9.50199 25.2233 9.5 23.5C9.5 21.5263 8.79 20.8413 7.8075 19.895C6.5575 18.6875 5 17.1875 5 13C5 10.0826 6.15893 7.28473 8.22183 5.22183C10.2847 3.15893 13.0826 2 16 2C18.9174 2 21.7153 3.15893 23.7782 5.22183C25.8411 7.28473 27 10.0826 27 13ZM22.2337 20.135C22.12 20.0691 21.9944 20.0262 21.8641 20.0089C21.7338 19.9915 21.6013 20.0001 21.4743 20.034C21.3473 20.0679 21.2282 20.1265 21.1239 20.2064C21.0195 20.2864 20.932 20.3862 20.8662 20.5C20.7562 20.6908 20.5863 20.8399 20.3829 20.9242C20.1795 21.0085 19.9539 21.0233 19.7412 20.9663C19.5285 20.9093 19.3406 20.7837 19.2065 20.609C19.0725 20.4343 18.9999 20.2202 19 20C19 18.8337 19.6025 18.03 20.3 17.1C21.0962 16.0375 22 14.8337 22 13C22 11.4087 21.3679 9.88258 20.2426 8.75736C19.1174 7.63214 17.5913 7 16 7C14.4087 7 12.8826 7.63214 11.7574 8.75736C10.6321 9.88258 10 11.4087 10 13C10 13.2652 10.1054 13.5196 10.2929 13.7071C10.4804 13.8946 10.7348 14 11 14C11.2652 14 11.5196 13.8946 11.7071 13.7071C11.8946 13.5196 12 13.2652 12 13C12 11.9391 12.4214 10.9217 13.1716 10.1716C13.9217 9.42143 14.9391 9 16 9C17.0609 9 18.0783 9.42143 18.8284 10.1716C19.5786 10.9217 20 11.9391 20 13C20 14.1663 19.3975 14.97 18.7 15.9C17.9038 16.9625 17 18.1663 17 20C17.0002 20.6602 17.2182 21.3019 17.6202 21.8257C18.0222 22.3494 18.5858 22.7259 19.2235 22.8968C19.8612 23.0677 20.5375 23.0234 21.1475 22.7709C21.7575 22.5183 22.2672 22.0716 22.5975 21.5C22.73 21.2707 22.7661 20.9982 22.6979 20.7423C22.6297 20.4864 22.4628 20.268 22.2337 20.135Z" fill="#4A4A4F"/>
</svg>
