<svg width="32" height="32" viewBox="0 0 32 32" fill="none" xmlns="http://www.w3.org/2000/svg">
<path d="M16 3C13.4288 3 10.9154 3.76244 8.77759 5.1909C6.63975 6.61935 4.97351 8.64968 3.98957 11.0251C3.00563 13.4006 2.74819 16.0144 3.2498 18.5362C3.75141 21.0579 4.98953 23.3743 6.80762 25.1924C8.6257 27.0105 10.9421 28.2486 13.4638 28.7502C15.9856 29.2518 18.5995 28.9944 20.9749 28.0104C23.3503 27.0265 25.3807 25.3603 26.8091 23.2224C28.2376 21.0846 29 18.5712 29 16C28.9964 12.5533 27.6256 9.24882 25.1884 6.81163C22.7512 4.37445 19.4467 3.00364 16 3ZM18.5 19C18.5565 18.9998 18.6127 18.9905 18.6663 18.9725C18.9149 18.8893 19.1863 18.9071 19.4219 19.022C19.6576 19.137 19.8387 19.3399 19.9262 19.587C20.0137 19.8342 20.0007 20.1058 19.8899 20.3434C19.779 20.5811 19.5793 20.7657 19.3338 20.8575C18.9566 20.9909 18.553 21.0319 18.1567 20.9769C17.7605 20.922 17.3832 20.7728 17.0566 20.5418C16.7299 20.3108 16.4635 20.0049 16.2797 19.6496C16.0958 19.2943 15.9999 18.9 16 18.5C16 17.3938 16.5963 16.5962 17.125 15.8912C17.5963 15.2662 18 14.7188 18 14C18 13.4696 17.7893 12.9609 17.4142 12.5858C17.0391 12.2107 16.5304 12 16 12C15.4696 12 14.9609 12.2107 14.5858 12.5858C14.2107 12.9609 14 13.4696 14 14C14 14.2652 13.8946 14.5196 13.7071 14.7071C13.5196 14.8946 13.2652 15 13 15C12.7348 15 12.4804 14.8946 12.2929 14.7071C12.1054 14.5196 12 14.2652 12 14C12 12.9391 12.4214 11.9217 13.1716 11.1716C13.9217 10.4214 14.9391 10 16 10C17.0609 10 18.0783 10.4214 18.8284 11.1716C19.5786 11.9217 20 12.9391 20 14C20 15.3837 19.2925 16.3288 18.725 17.0888C18.275 17.69 18 18.08 18 18.5C18 18.6326 18.0527 18.7598 18.1465 18.8536C18.2402 18.9473 18.3674 19 18.5 19ZM23 15C22.7348 15 22.4804 14.8946 22.2929 14.7071C22.1054 14.5196 22 14.2652 22 14C22 12.4087 21.3679 10.8826 20.2426 9.75736C19.1174 8.63214 17.5913 8 16 8C14.4087 8 12.8826 8.63214 11.7574 9.75736C10.6321 10.8826 10 12.4087 10 14C10 15.4875 10.8388 16.5625 11.7275 17.7C12.6025 18.815 13.5 19.9688 13.5 21.5C13.4998 21.9924 13.6451 22.4739 13.9175 22.8841C14.1899 23.2942 14.5774 23.6148 15.0313 23.8056C15.4853 23.9964 15.9855 24.0489 16.4691 23.9565C16.9528 23.8641 17.3984 23.6309 17.75 23.2862C17.8424 23.1885 17.9537 23.1105 18.077 23.0567C18.2003 23.003 18.3332 22.9747 18.4677 22.9735C18.6022 22.9723 18.7355 22.9983 18.8598 23.0499C18.984 23.1014 19.0966 23.1775 19.1907 23.2736C19.2848 23.3697 19.3586 23.4838 19.4077 23.609C19.4567 23.7343 19.4799 23.8681 19.476 24.0026C19.4721 24.1371 19.4411 24.2693 19.3849 24.3915C19.3286 24.5137 19.2483 24.6233 19.1488 24.7138C18.5158 25.3337 17.714 25.753 16.8438 25.9191C15.9735 26.0852 15.0736 25.9907 14.2569 25.6476C13.4401 25.3044 12.7428 24.7277 12.2524 23.9899C11.762 23.2521 11.5002 22.3859 11.5 21.5C11.5 20.6575 10.875 19.8575 10.1513 18.9312C9.19251 17.7037 8.00001 16.1763 8.00001 14C8.00001 11.8783 8.84286 9.84344 10.3432 8.34315C11.8434 6.84285 13.8783 6 16 6C18.1217 6 20.1566 6.84285 21.6569 8.34315C23.1572 9.84344 24 11.8783 24 14C24 14.2652 23.8946 14.5196 23.7071 14.7071C23.5196 14.8946 23.2652 15 23 15Z" fill="#4A4A4F"/>
</svg>
