<svg width="32" height="32" viewBox="0 0 32 32" fill="none" xmlns="http://www.w3.org/2000/svg">
<path d="M26.74 26.3277C26.8302 26.4246 26.9002 26.5384 26.9461 26.6625C26.992 26.7866 27.0127 26.9186 27.0072 27.0508C27.0017 27.183 26.97 27.3129 26.9139 27.4327C26.8578 27.5526 26.7786 27.6601 26.6806 27.7491C26.5827 27.8381 26.4681 27.9068 26.3434 27.9512C26.2187 27.9956 26.0865 28.0148 25.9544 28.0076C25.8222 28.0005 25.6928 27.9673 25.5736 27.9098C25.4544 27.8523 25.3478 27.7717 25.26 27.6727L20.885 22.8665C20.4362 23.005 19.9612 23.0363 19.4981 22.9577C19.0351 22.8791 18.5969 22.6929 18.219 22.4141C17.841 22.1352 17.5338 21.7715 17.3221 21.3523C17.1104 20.933 17 20.4699 17 20.0002C16.9986 19.5789 17.0494 19.159 17.1513 18.7502L12 13.0827C11.9891 13.3479 11.8732 13.5979 11.6779 13.7777C11.4827 13.9575 11.224 14.0524 10.9588 14.0415C10.6935 14.0305 10.4435 13.9147 10.2637 13.7194C10.0839 13.5241 9.98907 13.2654 10 13.0002C9.99929 12.3871 10.0929 11.7774 10.2775 11.1927L8.06251 8.75022C7.3611 10.0567 6.99596 11.5173 7.00001 13.0002C7.00001 16.3377 8.06626 17.3652 9.19626 18.4552C10.2763 19.5002 11.5 20.6765 11.5 23.5002C11.5 24.6937 11.9741 25.8383 12.818 26.6822C13.6619 27.5261 14.8065 28.0002 16 28.0002C17.28 28.0002 18.3063 27.4802 19.2288 26.364C19.3114 26.2598 19.4139 26.1733 19.5304 26.1092C19.6469 26.0452 19.775 26.0051 19.9072 25.9911C20.0393 25.9772 20.173 25.9897 20.3003 26.028C20.4275 26.0663 20.5459 26.1296 20.6484 26.2142C20.751 26.2988 20.8356 26.403 20.8974 26.5206C20.9592 26.6383 20.9969 26.7671 21.0084 26.8996C21.0198 27.032 21.0047 27.1654 20.964 27.2919C20.9233 27.4184 20.8578 27.5356 20.7713 27.6365C19.4763 29.2052 17.875 30.0002 16 30.0002C14.2767 29.9982 12.6246 29.3128 11.406 28.0942C10.1874 26.8757 9.50199 25.2235 9.50001 23.5002C9.50001 21.5265 8.79001 20.8415 7.80751 19.8952C6.55751 18.6877 5.00001 17.1877 5.00001 13.0002C4.99489 10.951 5.56716 8.94173 6.65126 7.20271L5.26001 5.67272C5.16984 5.57586 5.09979 5.46207 5.05393 5.33794C5.00806 5.21381 4.98729 5.08181 4.99282 4.9496C4.99834 4.81738 5.03005 4.68758 5.08611 4.56771C5.14217 4.44784 5.22146 4.34029 5.3194 4.25129C5.41733 4.16229 5.53195 4.09361 5.65662 4.04924C5.78129 4.00487 5.91352 3.98568 6.04566 3.99279C6.1778 3.9999 6.30722 4.03316 6.42641 4.09065C6.5456 4.14815 6.65219 4.22872 6.74001 4.32771L26.74 26.3277ZM11.3863 5.27146C12.7524 4.45579 14.3104 4.01688 15.9014 3.99944C17.4924 3.98201 19.0596 4.38669 20.4433 5.17223C21.827 5.95777 22.9777 7.09611 23.7782 8.47122C24.5786 9.84634 25.0002 11.4091 25 13.0002C25 13.2654 25.1054 13.5198 25.2929 13.7073C25.4804 13.8949 25.7348 14.0002 26 14.0002C26.2652 14.0002 26.5196 13.8949 26.7071 13.7073C26.8947 13.5198 27 13.2654 27 13.0002C27.0003 11.0553 26.4849 9.14504 25.5064 7.4642C24.5278 5.78335 23.1211 4.39201 21.4297 3.43198C19.7382 2.47195 17.8224 1.97757 15.8776 1.99922C13.9328 2.02087 12.0285 2.55777 10.3588 3.55522C10.1312 3.69147 9.96703 3.91255 9.90245 4.16983C9.83786 4.42711 9.87813 4.6995 10.0144 4.92709C10.1506 5.15468 10.3717 5.31882 10.629 5.3834C10.8863 5.44799 11.1587 5.40772 11.3863 5.27146ZM20.04 15.8965C20.1567 15.9567 20.2842 15.9934 20.415 16.0044C20.5459 16.0154 20.6777 16.0005 20.8028 15.9606C20.928 15.9207 21.044 15.8565 21.1443 15.7717C21.2446 15.6869 21.3273 15.5832 21.3875 15.4665C21.7909 14.7071 22.0012 13.8601 22 13.0002C22.0003 12.045 21.7725 11.1035 21.3356 10.254C20.8987 9.40455 20.2653 8.67168 19.4881 8.11635C18.7109 7.56103 17.8123 7.1993 16.8671 7.06126C15.9218 6.92323 14.9573 7.01286 14.0538 7.32272C13.8028 7.40874 13.5963 7.59094 13.4797 7.82923C13.363 8.06752 13.3459 8.34238 13.4319 8.59334C13.5179 8.8443 13.7001 9.05081 13.9384 9.16743C14.1767 9.28406 14.4515 9.30124 14.7025 9.21522C15.3049 9.00865 15.9479 8.94889 16.578 9.04092C17.2082 9.13294 17.8072 9.37409 18.3254 9.74431C18.8436 10.1145 19.2658 10.6031 19.5571 11.1694C19.8484 11.7357 20.0002 12.3634 20 13.0002C19.9998 13.5388 19.8658 14.0688 19.61 14.5427C19.5497 14.6594 19.5131 14.7869 19.5021 14.9177C19.491 15.0486 19.5059 15.1804 19.5459 15.3055C19.5858 15.4307 19.65 15.5467 19.7348 15.647C19.8196 15.7474 19.9233 15.83 20.04 15.8902V15.8965Z" fill="#4A4A4F"/>
</svg>
