<svg width="32" height="32" viewBox="0 0 32 32" fill="none" xmlns="http://www.w3.org/2000/svg">
<path d="M26.9999 19C26.9963 21.9119 25.8396 24.704 23.7829 26.7654C21.7262 28.8267 18.9368 29.9898 16.0249 30C9.69239 30.015 4.74865 24.625 5.0099 18.2975C5.16115 14.6463 6.47365 10.73 8.66365 7.445C10.9374 4.03625 13.6786 2 15.9999 2C17.6561 2 19.5286 3.04 21.2924 4.875C21.3797 4.96603 21.4294 5.08669 21.4314 5.21279C21.4335 5.3389 21.3879 5.46113 21.3036 5.555L15.2499 12.3337C15.1352 12.4619 15.0555 12.6176 15.0185 12.7856C14.9815 12.9536 14.9885 13.1283 15.0388 13.2928C15.0891 13.4573 15.1809 13.6061 15.3055 13.7247C15.4301 13.8433 15.5831 13.9278 15.7499 13.97L18.8261 14.7388L18.0124 18.8037C17.9605 19.0638 18.0141 19.3339 18.1613 19.5544C18.3085 19.775 18.5373 19.9281 18.7974 19.98C18.864 19.9938 18.9319 20.0005 18.9999 20C19.2307 19.9996 19.4543 19.9193 19.6327 19.7728C19.8111 19.6263 19.9333 19.4226 19.9786 19.1963L20.9786 14.1962C21.0291 13.9443 20.9806 13.6827 20.8433 13.4655C20.706 13.2484 20.4904 13.0924 20.2411 13.03L17.8461 12.4312L22.4574 7.265C22.508 7.20833 22.5708 7.16392 22.641 7.13515C22.7113 7.10637 22.7872 7.09398 22.863 7.09892C22.9388 7.10386 23.0125 7.126 23.0784 7.16366C23.1444 7.20131 23.2009 7.2535 23.2436 7.31625C23.2736 7.35875 23.3024 7.40125 23.3311 7.44125C25.6624 10.9425 26.9999 15.1537 26.9999 19Z" fill="#4A4A4F"/>
</svg>
