<svg width="32" height="32" viewBox="0 0 32 32" fill="none" xmlns="http://www.w3.org/2000/svg">
<path d="M26 20.0002H6C5.46957 20.0002 4.96086 20.2109 4.58579 20.5859C4.21071 20.961 4 21.4697 4 22.0002V25.0002C4 25.5306 4.21071 26.0393 4.58579 26.4144C4.96086 26.7894 5.46957 27.0002 6 27.0002H26C26.5304 27.0002 27.0391 26.7894 27.4142 26.4144C27.7893 26.0393 28 25.5306 28 25.0002V22.0002C28 21.4697 27.7893 20.961 27.4142 20.5859C27.0391 20.2109 26.5304 20.0002 26 20.0002ZM26 25.0002H6V22.0002H26V25.0002ZM6.03 18.0002H25.97C26.3664 18.0021 26.7546 17.8875 27.0864 17.6706C27.4182 17.4537 27.679 17.144 27.8363 16.7802C27.9917 16.4253 28.0378 16.0322 27.9688 15.6511C27.8998 15.2699 27.7187 14.918 27.4487 14.6402L18.2325 4.95141C17.9437 4.6506 17.597 4.41126 17.2134 4.24777C16.8297 4.08428 16.417 4 16 4C15.583 4 15.1703 4.08428 14.7866 4.24777C14.403 4.41126 14.0563 4.6506 13.7675 4.95141L4.55125 14.6402C4.28128 14.918 4.10023 15.2699 4.03121 15.6511C3.96219 16.0322 4.00833 16.4253 4.16375 16.7802C4.32103 17.144 4.58178 17.4537 4.91358 17.6706C5.24537 17.8875 5.6336 18.0021 6.03 18.0002ZM15.2163 6.33016C15.3183 6.22577 15.4403 6.14282 15.5749 6.0862C15.7094 6.02957 15.854 6.0004 16 6.0004C16.146 6.0004 16.2906 6.02957 16.4251 6.0862C16.5597 6.14282 16.6817 6.22577 16.7838 6.33016L25.9813 16.0002H6.0175L15.2163 6.33016Z" fill="#4A4A4F"/>
</svg>
