<svg width="32" height="32" viewBox="0 0 32 32" fill="none" xmlns="http://www.w3.org/2000/svg">
<path d="M29 26.0001C29 26.2653 28.8946 26.5197 28.7071 26.7072C28.5196 26.8947 28.2652 27.0001 28 27.0001H4C3.73478 27.0001 3.48043 26.8947 3.29289 26.7072C3.10536 26.5197 3 26.2653 3 26.0001C3 25.7349 3.10536 25.4805 3.29289 25.293C3.48043 25.1055 3.73478 25.0001 4 25.0001H28C28.2652 25.0001 28.5196 25.1055 28.7071 25.293C28.8946 25.4805 29 25.7349 29 26.0001ZM5.01125 21.0001H26.9888C27.3685 20.9993 27.7402 20.8911 28.061 20.688C28.3819 20.4849 28.6387 20.1951 28.8018 19.8523C28.965 19.5094 29.0278 19.1273 28.983 18.7503C28.9382 18.3732 28.7877 18.0165 28.5487 17.7214L18.3425 5.1176C18.06 4.76856 17.703 4.48708 17.2977 4.29371C16.8924 4.10035 16.4491 4 16 4C15.5509 4 15.1076 4.10035 14.7023 4.29371C14.297 4.48708 13.94 4.76856 13.6575 5.1176L3.45125 17.7214C3.21233 18.0165 3.06179 18.3732 3.01701 18.7503C2.97222 19.1273 3.03503 19.5094 3.19817 19.8523C3.36131 20.1951 3.61813 20.4849 3.93896 20.688C4.25979 20.8911 4.63153 20.9993 5.01125 21.0001Z" fill="#4A4A4F"/>
</svg>
