<svg width="32" height="32" viewBox="0 0 32 32" fill="none" xmlns="http://www.w3.org/2000/svg">
<path d="M28.9999 26.0001C28.9999 26.2653 28.8946 26.5197 28.707 26.7072C28.5195 26.8947 28.2651 27.0001 27.9999 27.0001H3.99993C3.73471 27.0001 3.48036 26.8947 3.29282 26.7072C3.10528 26.5197 2.99993 26.2653 2.99993 26.0001C2.99993 25.7349 3.10528 25.4805 3.29282 25.293C3.48036 25.1055 3.73471 25.0001 3.99993 25.0001H27.9999C28.2651 25.0001 28.5195 25.1055 28.707 25.293C28.8946 25.4805 28.9999 25.7349 28.9999 26.0001ZM3.19868 19.8551C3.03304 19.5125 2.96857 19.1298 3.01286 18.7518C3.05714 18.3739 3.20833 18.0164 3.44868 17.7214L13.6574 5.1176C13.94 4.76856 14.2969 4.48708 14.7022 4.29371C15.1075 4.10035 15.5509 4 15.9999 4C16.449 4 16.8924 4.10035 17.2976 4.29371C17.7029 4.48708 18.0599 4.76856 18.3424 5.1176L28.5487 17.7214C28.7876 18.0165 28.9381 18.3732 28.9829 18.7503C29.0277 19.1273 28.9649 19.5094 28.8018 19.8523C28.6386 20.1951 28.3818 20.4849 28.061 20.688C27.7401 20.8911 27.3684 20.9993 26.9887 21.0001H5.01118C4.63154 21.0009 4.2595 20.8937 3.93855 20.691C3.61759 20.4882 3.36097 20.1983 3.19868 19.8551ZM4.99993 18.9889C4.99993 18.9889 4.99993 19.0001 5.00993 19.0026H26.9887C26.9887 19.0026 26.9987 18.9914 26.9987 18.9864L16.7874 6.3751C16.6925 6.25765 16.5725 6.16293 16.4363 6.09785C16.3 6.03277 16.1509 5.999 15.9999 5.999C15.8489 5.999 15.6998 6.03277 15.5636 6.09785C15.4273 6.16293 15.3073 6.25765 15.2124 6.3751L4.99993 18.9801C4.99956 18.983 4.99956 18.9859 4.99993 18.9889Z" fill="#4A4A4F"/>
</svg>
