<svg width="32" height="32" viewBox="0 0 32 32" fill="none" xmlns="http://www.w3.org/2000/svg">
<path d="M31 13C30.7348 13 30.4804 13.1054 30.2929 13.2929C30.1054 13.4804 30 13.7348 30 14V17H28V15C28 14.4696 27.7893 13.9609 27.4142 13.5858C27.0391 13.2107 26.5304 13 26 13H24.4137L20 8.58625C19.815 8.39972 19.5947 8.25184 19.352 8.1512C19.1093 8.05056 18.849 7.99916 18.5863 8H16V6H19C19.2652 6 19.5196 5.89464 19.7071 5.70711C19.8946 5.51957 20 5.26522 20 5C20 4.73478 19.8946 4.48043 19.7071 4.29289C19.5196 4.10536 19.2652 4 19 4H11C10.7348 4 10.4804 4.10536 10.2929 4.29289C10.1054 4.48043 10 4.73478 10 5C10 5.26522 10.1054 5.51957 10.2929 5.70711C10.4804 5.89464 10.7348 6 11 6H14V8H6C5.46957 8 4.96086 8.21071 4.58579 8.58579C4.21071 8.96086 4 9.46957 4 10V17H2V14C2 13.7348 1.89464 13.4804 1.70711 13.2929C1.51957 13.1054 1.26522 13 1 13C0.734784 13 0.48043 13.1054 0.292893 13.2929C0.105357 13.4804 0 13.7348 0 14L0 22C0 22.2652 0.105357 22.5196 0.292893 22.7071C0.48043 22.8946 0.734784 23 1 23C1.26522 23 1.51957 22.8946 1.70711 22.7071C1.89464 22.5196 2 22.2652 2 22V19H4V21.5863C3.99916 21.849 4.05056 22.1093 4.1512 22.352C4.25184 22.5947 4.39972 22.815 4.58625 23L9 27.4137C9.18504 27.6003 9.40532 27.7482 9.64802 27.8488C9.89072 27.9494 10.151 28.0008 10.4137 28H18.5863C18.849 28.0008 19.1093 27.9494 19.352 27.8488C19.5947 27.7482 19.815 27.6003 20 27.4137L24.4137 23H26C26.5304 23 27.0391 22.7893 27.4142 22.4142C27.7893 22.0391 28 21.5304 28 21V19H30V22C30 22.2652 30.1054 22.5196 30.2929 22.7071C30.4804 22.8946 30.7348 23 31 23C31.2652 23 31.5196 22.8946 31.7071 22.7071C31.8946 22.5196 32 22.2652 32 22V14C32 13.7348 31.8946 13.4804 31.7071 13.2929C31.5196 13.1054 31.2652 13 31 13ZM26 21H24.4137C24.151 20.9992 23.8907 21.0506 23.648 21.1512C23.4053 21.2518 23.185 21.3997 23 21.5863L18.5863 26H10.4137L6 21.5863V10H18.5863L23 14.4137C23.185 14.6003 23.4053 14.7482 23.648 14.8488C23.8907 14.9494 24.151 15.0008 24.4137 15H26V21Z" fill="#4A4A4F"/>
</svg>
