<svg width="32" height="32" viewBox="0 0 32 32" fill="none" xmlns="http://www.w3.org/2000/svg">
<path d="M28.555 11.1677L16.555 3.16766C16.3907 3.05802 16.1975 2.99951 16 2.99951C15.8025 2.99951 15.6093 3.05802 15.445 3.16766L3.445 11.1677C3.30801 11.2591 3.19572 11.3829 3.11809 11.5281C3.04046 11.6733 2.99989 11.8355 3 12.0002V25.0002C3 25.5306 3.21071 26.0393 3.58579 26.4144C3.96086 26.7894 4.46957 27.0002 5 27.0002H27C27.5304 27.0002 28.0391 26.7894 28.4142 26.4144C28.7893 26.0393 29 25.5306 29 25.0002V12.0002C29.0001 11.8355 28.9595 11.6733 28.8819 11.5281C28.8043 11.3829 28.692 11.2591 28.555 11.1677ZM12.09 19.0002L5 24.0002V13.9414L12.09 19.0002ZM14.1362 20.0002H17.8638L24.9425 25.0002H7.0575L14.1362 20.0002ZM19.91 19.0002L27 13.9414V24.0002L19.91 19.0002Z" fill="#4A4A4F"/>
</svg>
