<svg width="32" height="32" viewBox="0 0 32 32" fill="none" xmlns="http://www.w3.org/2000/svg">
<path d="M28.1252 10.0502L22.9502 4.87519C22.3876 4.31263 21.6246 3.99658 20.8289 3.99658C20.0333 3.99658 19.2703 4.31263 18.7077 4.87519L3.87519 19.7077C3.31263 20.2703 2.99658 21.0333 2.99658 21.8289C2.99658 22.6246 3.31263 23.3876 3.87519 23.9502L7.63269 27.7077C7.72593 27.8008 7.83665 27.8746 7.9585 27.9248C8.08034 27.975 8.21091 28.0006 8.34269 28.0002H27.0002C27.2654 28.0002 27.5198 27.8948 27.7073 27.7073C27.8948 27.5198 28.0002 27.2654 28.0002 27.0002C28.0002 26.735 27.8948 26.4806 27.7073 26.2931C27.5198 26.1055 27.2654 26.0002 27.0002 26.0002H16.4127L28.1252 14.2927C28.6878 13.7301 29.0038 12.9671 29.0038 12.1714C29.0038 11.3758 28.6878 10.6128 28.1252 10.0502ZM26.7089 12.8752L20.0002 19.5864L13.4139 13.0002L20.1252 6.29269C20.2181 6.19972 20.3284 6.12596 20.4498 6.07563C20.5711 6.02531 20.7013 5.9994 20.8327 5.9994C20.9641 5.9994 21.0942 6.02531 21.2156 6.07563C21.337 6.12596 21.4473 6.19972 21.5402 6.29269L26.7127 11.4652C26.9001 11.6527 27.0054 11.907 27.0054 12.1721C27.0054 12.4372 26.9001 12.6914 26.7127 12.8789L26.7089 12.8752Z" fill="#4A4A4F"/>
</svg>
