<svg width="32" height="32" viewBox="0 0 32 32" fill="none" xmlns="http://www.w3.org/2000/svg">
<path d="M28 5H21.4375C21.1615 5.00016 20.8885 5.05743 20.6358 5.16822C20.383 5.27901 20.1559 5.44092 19.9688 5.64375L8.5625 18H4C3.46957 18 2.96086 18.2107 2.58579 18.5858C2.21071 18.9609 2 19.4696 2 20V25C2 25.5304 2.21071 26.0391 2.58579 26.4142C2.96086 26.7893 3.46957 27 4 27H10.5625C10.8385 26.9998 11.1114 26.9426 11.3642 26.8318C11.617 26.721 11.8441 26.5591 12.0312 26.3563L23.4375 14H28C28.5304 14 29.0391 13.7893 29.4142 13.4142C29.7893 13.0391 30 12.5304 30 12V7C30 6.46957 29.7893 5.96086 29.4142 5.58579C29.0391 5.21071 28.5304 5 28 5ZM28 12H23.4375C23.1615 12.0002 22.8885 12.0574 22.6358 12.1682C22.383 12.279 22.1559 12.4409 21.9688 12.6438L10.5625 25H4V20H8.5625C8.83848 19.9998 9.11145 19.9426 9.36422 19.8318C9.61699 19.721 9.8441 19.5591 10.0312 19.3563L21.4375 7H28V12ZM28.7075 21.2925C28.8004 21.3854 28.8741 21.4957 28.9244 21.6171C28.9747 21.7385 29.0006 21.8686 29.0006 22C29.0006 22.1314 28.9747 22.2615 28.9244 22.3829C28.8741 22.5043 28.8004 22.6146 28.7075 22.7075C28.6146 22.8004 28.5043 22.8741 28.3829 22.9244C28.2615 22.9747 28.1314 23.0006 28 23.0006C27.8686 23.0006 27.7385 22.9747 27.6171 22.9244C27.4957 22.8741 27.3854 22.8004 27.2925 22.7075L26 21.4137V26C26 26.2652 25.8946 26.5196 25.7071 26.7071C25.5196 26.8946 25.2652 27 25 27C24.7348 27 24.4804 26.8946 24.2929 26.7071C24.1054 26.5196 24 26.2652 24 26V21.4137L22.7075 22.7075C22.5199 22.8951 22.2654 23.0006 22 23.0006C21.7346 23.0006 21.4801 22.8951 21.2925 22.7075C21.1049 22.5199 20.9994 22.2654 20.9994 22C20.9994 21.7346 21.1049 21.4801 21.2925 21.2925L24.2925 18.2925C24.3854 18.1995 24.4957 18.1258 24.6171 18.0754C24.7385 18.0251 24.8686 17.9992 25 17.9992C25.1314 17.9992 25.2615 18.0251 25.3829 18.0754C25.5043 18.1258 25.6146 18.1995 25.7075 18.2925L28.7075 21.2925Z" fill="#4A4A4F"/>
</svg>
