<svg width="32" height="32" viewBox="0 0 32 32" fill="none" xmlns="http://www.w3.org/2000/svg">
<path d="M21.2925 10.7075C21.1049 10.5199 20.9994 10.2654 20.9994 10C20.9994 9.73464 21.1049 9.48014 21.2925 9.2925C21.4801 9.10486 21.7346 8.99944 22 8.99944C22.2654 8.99944 22.5199 9.10486 22.7075 9.2925L24 10.5863V6C24 5.73478 24.1054 5.48043 24.2929 5.29289C24.4804 5.10536 24.7348 5 25 5C25.2652 5 25.5196 5.10536 25.7071 5.29289C25.8946 5.48043 26 5.73478 26 6V10.5863L27.2925 9.2925C27.4801 9.10486 27.7346 8.99944 28 8.99944C28.2654 8.99944 28.5199 9.10486 28.7075 9.2925C28.8951 9.48014 29.0006 9.73464 29.0006 10C29.0006 10.2654 28.8951 10.5199 28.7075 10.7075L25.7075 13.7075C25.6146 13.8005 25.5043 13.8742 25.3829 13.9246C25.2615 13.9749 25.1314 14.0008 25 14.0008C24.8686 14.0008 24.7385 13.9749 24.6171 13.9246C24.4957 13.8742 24.3854 13.8005 24.2925 13.7075L21.2925 10.7075ZM30 20V25C30 25.5304 29.7893 26.0391 29.4142 26.4142C29.0391 26.7893 28.5304 27 28 27H21.4375C21.1614 26.9996 20.8883 26.9422 20.6354 26.8314C20.3824 26.7206 20.1551 26.5589 19.9675 26.3563L8.5625 14H4C3.46957 14 2.96086 13.7893 2.58579 13.4142C2.21071 13.0391 2 12.5304 2 12V7C2 6.46957 2.21071 5.96086 2.58579 5.58579C2.96086 5.21071 3.46957 5 4 5H10.5625C10.8386 5.00044 11.1117 5.05783 11.3646 5.1686C11.6176 5.27936 11.8449 5.44112 12.0325 5.64375L23.4375 18H28C28.5304 18 29.0391 18.2107 29.4142 18.5858C29.7893 18.9609 30 19.4696 30 20ZM28 20H23.4375C23.1614 19.9996 22.8883 19.9422 22.6354 19.8314C22.3824 19.7206 22.1551 19.5589 21.9675 19.3563L10.5625 7H4V12H8.5625C8.83862 12.0004 9.11169 12.0578 9.36462 12.1686C9.61756 12.2794 9.84492 12.4411 10.0325 12.6438L21.4375 25H28V20Z" fill="#4A4A4F"/>
</svg>
