<svg width="32" height="32" viewBox="0 0 32 32" fill="none" xmlns="http://www.w3.org/2000/svg">
<path d="M30 7V12C30 12.5304 29.7893 13.0391 29.4142 13.4142C29.0391 13.7893 28.5304 14 28 14H23.4375L12.0312 26.3563C11.8441 26.5591 11.617 26.721 11.3642 26.8318C11.1114 26.9426 10.8385 26.9998 10.5625 27H4C3.46957 27 2.96086 26.7893 2.58579 26.4142C2.21071 26.0391 2 25.5304 2 25V20C2 19.4696 2.21071 18.9609 2.58579 18.5858C2.96086 18.2107 3.46957 18 4 18H8.5625L19.9688 5.64375C20.1559 5.44092 20.383 5.27901 20.6358 5.16822C20.8885 5.05743 21.1615 5.00016 21.4375 5H28C28.5304 5 29.0391 5.21071 29.4142 5.58579C29.7893 5.96086 30 6.46957 30 7ZM25.7075 18.2925C25.6146 18.1995 25.5043 18.1258 25.3829 18.0754C25.2615 18.0251 25.1314 17.9992 25 17.9992C24.8686 17.9992 24.7385 18.0251 24.6171 18.0754C24.4957 18.1258 24.3854 18.1995 24.2925 18.2925L21.2925 21.2925C21.1049 21.4801 20.9994 21.7346 20.9994 22C20.9994 22.2654 21.1049 22.5199 21.2925 22.7075C21.4801 22.8951 21.7346 23.0006 22 23.0006C22.2654 23.0006 22.5199 22.8951 22.7075 22.7075L24 21.4137V26C24 26.2652 24.1054 26.5196 24.2929 26.7071C24.4804 26.8946 24.7348 27 25 27C25.2652 27 25.5196 26.8946 25.7071 26.7071C25.8946 26.5196 26 26.2652 26 26V21.4137L27.2925 22.7075C27.3854 22.8004 27.4957 22.8741 27.6171 22.9244C27.7385 22.9747 27.8686 23.0006 28 23.0006C28.1314 23.0006 28.2615 22.9747 28.3829 22.9244C28.5043 22.8741 28.6146 22.8004 28.7075 22.7075C28.8004 22.6146 28.8741 22.5043 28.9244 22.3829C28.9747 22.2615 29.0006 22.1314 29.0006 22C29.0006 21.8686 28.9747 21.7385 28.9244 21.6171C28.8741 21.4957 28.8004 21.3854 28.7075 21.2925L25.7075 18.2925Z" fill="#4A4A4F"/>
</svg>
