<svg width="32" height="32" viewBox="0 0 32 32" fill="none" xmlns="http://www.w3.org/2000/svg">
<path d="M27 5H5C4.46957 5 3.96086 5.21071 3.58579 5.58579C3.21071 5.96086 3 6.46957 3 7V27C2.99988 27.1705 3.04337 27.3383 3.12636 27.4873C3.20934 27.6363 3.32904 27.7616 3.4741 27.8513C3.61916 27.941 3.78474 27.9921 3.95511 27.9997C4.12549 28.0074 4.29499 27.9713 4.4475 27.895L8 26.1175L11.5525 27.895C11.6914 27.9645 11.8446 28.0007 12 28.0007C12.1554 28.0007 12.3086 27.9645 12.4475 27.895L16 26.1175L19.5525 27.895C19.6914 27.9645 19.8446 28.0007 20 28.0007C20.1554 28.0007 20.3086 27.9645 20.4475 27.895L24 26.1175L27.5525 27.895C27.705 27.9713 27.8745 28.0074 28.0449 27.9997C28.2153 27.9921 28.3808 27.941 28.5259 27.8513C28.671 27.7616 28.7907 27.6363 28.8736 27.4873C28.9566 27.3383 29.0001 27.1705 29 27V7C29 6.46957 28.7893 5.96086 28.4142 5.58579C28.0391 5.21071 27.5304 5 27 5ZM27 25.3825L24.4475 24.105C24.3086 24.0355 24.1554 23.9993 24 23.9993C23.8446 23.9993 23.6914 24.0355 23.5525 24.105L20 25.8825L16.4475 24.105C16.3086 24.0355 16.1554 23.9993 16 23.9993C15.8446 23.9993 15.6914 24.0355 15.5525 24.105L12 25.8825L8.4475 24.105C8.30857 24.0355 8.15535 23.9993 8 23.9993C7.84465 23.9993 7.69143 24.0355 7.5525 24.105L5 25.3825V7H27V25.3825ZM7.5525 20.895C7.67002 20.9539 7.79798 20.989 7.92908 20.9983C8.06017 21.0077 8.19183 20.9911 8.31651 20.9495C8.4412 20.908 8.55647 20.8422 8.65573 20.7561C8.75499 20.67 8.8363 20.5651 8.895 20.4475L9.6175 19H14.3825L15.105 20.4475C15.1638 20.565 15.2451 20.6698 15.3444 20.7559C15.4436 20.842 15.5589 20.9077 15.6836 20.9493C15.8082 20.9908 15.9399 21.0074 16.0709 20.9981C16.202 20.9888 16.33 20.9538 16.4475 20.895C16.565 20.8362 16.6698 20.7549 16.7559 20.6556C16.842 20.5563 16.9077 20.4411 16.9493 20.3164C16.9908 20.1918 17.0074 20.0601 16.9981 19.9291C16.9888 19.798 16.9538 19.67 16.895 19.5525L12.895 11.5525C12.8121 11.3861 12.6844 11.2461 12.5263 11.1483C12.3682 11.0504 12.1859 10.9986 12 10.9986C11.8141 10.9986 11.6318 11.0504 11.4737 11.1483C11.3156 11.2461 11.1879 11.3861 11.105 11.5525L7.105 19.5525C7.04615 19.67 7.01104 19.798 7.00168 19.9291C6.99232 20.0602 7.0089 20.1918 7.05046 20.3165C7.09202 20.4412 7.15775 20.5565 7.2439 20.6557C7.33004 20.755 7.43491 20.8363 7.5525 20.895ZM12 14.2362L13.3825 17H10.6175L12 14.2362ZM17 16C17 15.7348 17.1054 15.4804 17.2929 15.2929C17.4804 15.1054 17.7348 15 18 15H20V13C20 12.7348 20.1054 12.4804 20.2929 12.2929C20.4804 12.1054 20.7348 12 21 12C21.2652 12 21.5196 12.1054 21.7071 12.2929C21.8946 12.4804 22 12.7348 22 13V15H24C24.2652 15 24.5196 15.1054 24.7071 15.2929C24.8946 15.4804 25 15.7348 25 16C25 16.2652 24.8946 16.5196 24.7071 16.7071C24.5196 16.8946 24.2652 17 24 17H22V19C22 19.2652 21.8946 19.5196 21.7071 19.7071C21.5196 19.8946 21.2652 20 21 20C20.7348 20 20.4804 19.8946 20.2929 19.7071C20.1054 19.5196 20 19.2652 20 19V17H18C17.7348 17 17.4804 16.8946 17.2929 16.7071C17.1054 16.5196 17 16.2652 17 16Z" fill="#4A4A4F"/>
</svg>
