<svg width="32" height="32" viewBox="0 0 32 32" fill="none" xmlns="http://www.w3.org/2000/svg">
<path d="M12 14.2362L13.3825 17H10.6175L12 14.2362ZM29 7V27C29.0001 27.1705 28.9566 27.3383 28.8736 27.4873C28.7907 27.6363 28.671 27.7616 28.5259 27.8513C28.3808 27.941 28.2153 27.9921 28.0449 27.9997C27.8745 28.0074 27.705 27.9713 27.5525 27.895L24 26.1175L20.4475 27.895C20.3086 27.9645 20.1554 28.0007 20 28.0007C19.8446 28.0007 19.6914 27.9645 19.5525 27.895L16 26.1175L12.4475 27.895C12.3086 27.9645 12.1554 28.0007 12 28.0007C11.8446 28.0007 11.6914 27.9645 11.5525 27.895L8 26.1175L4.4475 27.895C4.29499 27.9713 4.12549 28.0074 3.95511 27.9997C3.78474 27.9921 3.61916 27.941 3.4741 27.8513C3.32904 27.7616 3.20934 27.6363 3.12636 27.4873C3.04337 27.3383 2.99988 27.1705 3 27V7C3 6.46957 3.21071 5.96086 3.58579 5.58579C3.96086 5.21071 4.46957 5 5 5H27C27.5304 5 28.0391 5.21071 28.4142 5.58579C28.7893 5.96086 29 6.46957 29 7ZM16.895 19.5525L12.895 11.5525C12.8121 11.3861 12.6844 11.2461 12.5263 11.1483C12.3682 11.0504 12.1859 10.9986 12 10.9986C11.8141 10.9986 11.6318 11.0504 11.4737 11.1483C11.3156 11.2461 11.1879 11.3861 11.105 11.5525L7.105 19.5525C6.98632 19.7899 6.96679 20.0647 7.05071 20.3164C7.13463 20.5682 7.31513 20.7763 7.5525 20.895C7.78987 21.0137 8.06466 21.0332 8.31643 20.9493C8.5682 20.8654 8.77632 20.6849 8.895 20.4475L9.6175 19H14.3825L15.105 20.4475C15.1638 20.565 15.2451 20.6698 15.3444 20.7559C15.4436 20.842 15.5589 20.9077 15.6836 20.9493C15.8082 20.9908 15.9399 21.0074 16.0709 20.9981C16.202 20.9888 16.33 20.9538 16.4475 20.895C16.565 20.8362 16.6698 20.7549 16.7559 20.6556C16.842 20.5563 16.9077 20.4411 16.9493 20.3164C16.9908 20.1918 17.0074 20.0601 16.9981 19.9291C16.9888 19.798 16.9538 19.67 16.895 19.5525ZM26 16C26 15.7348 25.8946 15.4804 25.7071 15.2929C25.5196 15.1054 25.2652 15 25 15H23V13C23 12.7348 22.8946 12.4804 22.7071 12.2929C22.5196 12.1054 22.2652 12 22 12C21.7348 12 21.4804 12.1054 21.2929 12.2929C21.1054 12.4804 21 12.7348 21 13V15H19C18.7348 15 18.4804 15.1054 18.2929 15.2929C18.1054 15.4804 18 15.7348 18 16C18 16.2652 18.1054 16.5196 18.2929 16.7071C18.4804 16.8946 18.7348 17 19 17H21V19C21 19.2652 21.1054 19.5196 21.2929 19.7071C21.4804 19.8946 21.7348 20 22 20C22.2652 20 22.5196 19.8946 22.7071 19.7071C22.8946 19.5196 23 19.2652 23 19V17H25C25.2652 17 25.5196 16.8946 25.7071 16.7071C25.8946 16.5196 26 16.2652 26 16Z" fill="#4A4A4F"/>
</svg>
