<svg width="32" height="32" viewBox="0 0 32 32" fill="none" xmlns="http://www.w3.org/2000/svg">
<path d="M29.9999 19.9999C29.9984 22.492 29.0665 24.8936 27.3867 26.7345C25.7069 28.5753 23.4004 29.7226 20.9189 29.9516C18.4374 30.1806 15.9598 29.4748 13.9715 27.9725C11.9832 26.4702 10.6275 24.2796 10.1699 21.8299C11.766 22.1268 13.4103 22.0306 14.9609 21.5497C16.5115 21.0688 17.9217 20.2176 19.0696 19.0696C20.2176 17.9217 21.0688 16.5115 21.5497 14.9609C22.0306 13.4103 22.1268 11.766 21.8299 10.1699C24.125 10.5971 26.1983 11.8139 27.6905 13.6092C29.1826 15.4046 29.9997 17.6654 29.9999 19.9999ZM19.9999 9.99992C20.6138 10.0005 21.2264 10.0574 21.8299 10.1699C21.4968 8.37918 20.681 6.71342 19.4704 5.35244C18.2599 3.99147 16.7006 2.98698 14.9609 2.44739C13.2212 1.90781 11.3672 1.85363 9.59895 2.29071C7.83071 2.72778 6.21543 3.63951 4.92747 4.92747C3.63951 6.21543 2.72778 7.83071 2.29071 9.59895C1.85363 11.3672 1.90781 13.2212 2.44739 14.9609C2.98698 16.7006 3.99147 18.2599 5.35244 19.4704C6.71342 20.681 8.37918 21.4968 10.1699 21.8299C9.90125 20.3866 9.95369 18.9017 10.3235 17.4809C10.6933 16.0601 11.3715 14.7382 12.3098 13.609C13.2481 12.4798 14.4235 11.571 15.7526 10.9473C17.0817 10.3235 18.5318 10.0001 19.9999 9.99992Z" fill="#4A4A4F"/>
</svg>
