<svg width="32" height="32" viewBox="0 0 32 32" fill="none" xmlns="http://www.w3.org/2000/svg">
<path d="M17 11.9998H15V5.41356L11.7075 8.70731C11.5199 8.89495 11.2654 9.00037 11 9.00037C10.7346 9.00037 10.4801 8.89495 10.2925 8.70731C10.1049 8.51967 9.99944 8.26517 9.99944 7.99981C9.99944 7.73445 10.1049 7.47995 10.2925 7.29231L15.2925 2.29231C15.3854 2.19933 15.4957 2.12557 15.6171 2.07525C15.7385 2.02493 15.8686 1.99902 16 1.99902C16.1314 1.99902 16.2615 2.02493 16.3829 2.07525C16.5043 2.12557 16.6146 2.19933 16.7075 2.29231L21.7075 7.29231C21.8004 7.38522 21.8741 7.49552 21.9244 7.61691C21.9747 7.73831 22.0006 7.86842 22.0006 7.99981C22.0006 8.13121 21.9747 8.26131 21.9244 8.38271C21.8741 8.5041 21.8004 8.6144 21.7075 8.70731C21.6146 8.80022 21.5043 8.87392 21.3829 8.9242C21.2615 8.97449 21.1314 9.00037 21 9.00037C20.8686 9.00037 20.7385 8.97449 20.6171 8.9242C20.4957 8.87392 20.3854 8.80022 20.2925 8.70731L17 5.41356V11.9998ZM25 11.9998H17V16.9998C17 17.265 16.8946 17.5194 16.7071 17.7069C16.5196 17.8945 16.2652 17.9998 16 17.9998C15.7348 17.9998 15.4804 17.8945 15.2929 17.7069C15.1054 17.5194 15 17.265 15 16.9998V11.9998H7C6.46957 11.9998 5.96086 12.2105 5.58579 12.5856C5.21071 12.9607 5 13.4694 5 13.9998V25.9998C5 26.5302 5.21071 27.0389 5.58579 27.414C5.96086 27.7891 6.46957 27.9998 7 27.9998H25C25.5304 27.9998 26.0391 27.7891 26.4142 27.414C26.7893 27.0389 27 26.5302 27 25.9998V13.9998C27 13.4694 26.7893 12.9607 26.4142 12.5856C26.0391 12.2105 25.5304 11.9998 25 11.9998Z" fill="#4A4A4F"/>
</svg>
