<svg width="32" height="32" viewBox="0 0 32 32" fill="none" xmlns="http://www.w3.org/2000/svg">
<path d="M28.8675 20.5C29.0001 20.7302 29.0358 21.0037 28.9667 21.2603C28.8977 21.5169 28.7296 21.7355 28.4993 21.8681C28.3853 21.9338 28.2595 21.9763 28.129 21.9934C27.9986 22.0104 27.8661 22.0016 27.739 21.9674C27.4824 21.8984 27.2638 21.7302 27.1312 21.5L24.7562 17.35C23.3766 18.2832 21.8547 18.9865 20.25 19.4325L20.9837 23.835C21.0054 23.9646 21.0012 24.0972 20.9716 24.2252C20.942 24.3532 20.8874 24.4742 20.811 24.5811C20.7347 24.688 20.6379 24.7788 20.5264 24.8483C20.4149 24.9179 20.2908 24.9647 20.1612 24.9862C20.1079 24.995 20.054 24.9996 20 25C19.7634 24.9996 19.5346 24.9154 19.3543 24.7623C19.1739 24.6092 19.0537 24.3971 19.0149 24.1637L18.2937 19.8412C16.7727 20.0529 15.2297 20.0529 13.7087 19.8412L12.9875 24.1637C12.9486 24.3976 12.8281 24.61 12.6472 24.7631C12.4663 24.9163 12.237 25.0002 12 25C11.9447 24.9998 11.8895 24.9952 11.835 24.9862C11.7053 24.9647 11.5812 24.9179 11.4697 24.8483C11.3582 24.7788 11.2615 24.688 11.1851 24.5811C11.1087 24.4742 11.0542 24.3532 11.0245 24.2252C10.9949 24.0972 10.9908 23.9646 11.0125 23.835L11.75 19.4325C10.1445 18.9855 8.6222 18.2809 7.24245 17.3463L4.87495 21.5C4.74234 21.7311 4.52337 21.9 4.26621 21.9696C4.00906 22.0392 3.73477 22.0039 3.5037 21.8713C3.27263 21.7386 3.1037 21.5197 3.03408 21.2625C2.96446 21.0054 2.99984 20.7311 3.13245 20.5L5.63245 16.125C4.75401 15.3667 3.9465 14.5299 3.21995 13.625C3.07606 13.447 2.99756 13.2251 2.99756 12.9963C2.99756 12.7674 3.07606 12.5455 3.21995 12.3675C5.56995 9.465 9.6937 6 16 6C22.3062 6 26.43 9.465 28.7775 12.375C28.9213 12.553 28.9998 12.7749 28.9998 13.0037C28.9998 13.2326 28.9213 13.4545 28.7775 13.6325C28.0509 14.5374 27.2434 15.3742 26.365 16.1325L28.8675 20.5Z" fill="#4A4A4F"/>
</svg>
