<svg width="32" height="32" viewBox="0 0 32 32" fill="none" xmlns="http://www.w3.org/2000/svg">
<path d="M28.0001 8.41255C27.9933 7.81073 27.8652 7.21646 27.6233 6.66533C27.3815 6.11419 27.0309 5.61752 26.5926 5.20505C24.8426 3.54505 22.0026 3.60755 20.2651 5.3463L17.3501 8.27505C16.7798 7.75523 16.031 7.47518 15.2596 7.4931C14.4881 7.51103 13.7532 7.82555 13.2076 8.3713L12.5826 8.9963C12.3967 9.18205 12.2491 9.40262 12.1485 9.64542C12.0478 9.88822 11.996 10.1485 11.996 10.4113C11.996 10.6741 12.0478 10.9344 12.1485 11.1772C12.2491 11.42 12.3967 11.6406 12.5826 11.8263L12.8326 12.0838L6.45761 18.4588C5.84398 19.0676 5.39981 19.826 5.16897 20.6591C4.93813 21.4921 4.92861 22.371 5.14136 23.2088L4.14136 25.5101C4.00164 25.826 3.96114 26.177 4.02519 26.5164C4.08925 26.8559 4.25486 27.168 4.50011 27.4113C4.78323 27.6971 5.14644 27.8903 5.54171 27.9653C5.93699 28.0403 6.34571 27.9936 6.71386 27.8313L8.9051 26.8751C9.72771 27.0609 10.584 27.0351 11.3939 26.8001C12.2039 26.5651 12.941 26.1286 13.5364 25.5313L19.9114 19.1563L20.1689 19.4138C20.5439 19.7886 21.0524 19.9991 21.5826 19.9991C22.1128 19.9991 22.6213 19.7886 22.9964 19.4138L23.6214 18.7888C24.168 18.2425 24.4828 17.5063 24.5 16.7336C24.5173 15.9609 24.2356 15.2114 23.7139 14.6413L26.6826 11.6576C27.1094 11.2332 27.4461 10.7271 27.6725 10.1695C27.8989 9.61188 28.0103 9.01429 28.0001 8.41255ZM17.2501 19.0001H8.75885L14.2589 13.5001L18.5014 17.7501L17.2501 19.0001Z" fill="#4A4A4F"/>
</svg>
