<svg width="32" height="32" viewBox="0 0 32 32" fill="none" xmlns="http://www.w3.org/2000/svg">
<path d="M27.9998 8.41255C27.993 7.81073 27.8648 7.21646 27.623 6.66533C27.3811 6.11419 27.0306 5.61752 26.5923 5.20505C24.8423 3.54505 22.0023 3.60755 20.2648 5.3463L17.3498 8.27505C16.7794 7.75523 16.0307 7.47518 15.2592 7.4931C14.4878 7.51103 13.7528 7.82555 13.2073 8.3713L12.5823 8.9963C12.3963 9.18205 12.2488 9.40262 12.1481 9.64542C12.0475 9.88822 11.9957 10.1485 11.9957 10.4113C11.9957 10.6741 12.0475 10.9344 12.1481 11.1772C12.2488 11.42 12.3963 11.6406 12.5823 11.8263L12.8323 12.0838L6.45727 18.4588C5.84364 19.0676 5.39947 19.826 5.16863 20.6591C4.93779 21.4921 4.92827 22.371 5.14102 23.2088L4.14102 25.5101C4.00155 25.8263 3.96118 26.1773 4.02522 26.517C4.08926 26.8566 4.25471 27.1688 4.49977 27.4126C4.78322 27.6979 5.14649 27.8906 5.54167 27.9654C5.93686 28.0401 6.34543 27.9934 6.71352 27.8313L8.90352 26.8751C9.7263 27.0612 10.5829 27.0356 11.3931 26.8006C12.2033 26.5656 12.9406 26.1289 13.536 25.5313L19.911 19.1563L20.1685 19.4138C20.5436 19.7886 21.0521 19.9991 21.5823 19.9991C22.1125 19.9991 22.621 19.7886 22.996 19.4138L23.621 18.7888C24.1677 18.2425 24.4825 17.5063 24.4997 16.7336C24.5169 15.9609 24.2353 15.2114 23.7135 14.6413L26.6823 11.6576C27.1091 11.2332 27.4458 10.7271 27.6722 10.1695C27.8986 9.61188 28.01 9.01429 27.9998 8.41255ZM12.1248 24.1251C11.7399 24.5107 11.2574 24.7842 10.7288 24.9164C10.2003 25.0485 9.64579 25.0342 9.12477 24.8751C8.89632 24.8046 8.6502 24.8184 8.43102 24.9138L6.16852 25.9026L7.12477 23.6763C7.22399 23.4489 7.23513 23.1927 7.15602 22.9576C6.9748 22.428 6.9461 21.8582 7.07319 21.3132C7.20028 20.7681 7.47804 20.2698 7.87477 19.8751L14.2498 13.5001L18.4923 17.7501L12.1248 24.1251Z" fill="#4A4A4F"/>
</svg>
