<svg width="32" height="32" viewBox="0 0 32 32" fill="none" xmlns="http://www.w3.org/2000/svg">
<path d="M29 9V20.5C28.9973 21.9135 28.4505 23.2718 27.473 24.2929C26.4955 25.314 25.1624 25.9195 23.7503 25.9838C22.3382 26.0482 20.9556 25.5663 19.8893 24.6383C18.823 23.7104 18.1549 22.4074 18.0238 21H13.9762C13.8451 22.4074 13.177 23.7104 12.1107 24.6383C11.0444 25.5663 9.66179 26.0482 8.24971 25.9838C6.83762 25.9195 5.50451 25.314 4.52702 24.2929C3.54952 23.2718 3.00269 21.9135 3 20.5V9C3 7.93913 3.42143 6.92172 4.17157 6.17157C4.92172 5.42143 5.93913 5 7 5C7.26522 5 7.51957 5.10536 7.70711 5.29289C7.89464 5.48043 8 5.73478 8 6C8 6.26522 7.89464 6.51957 7.70711 6.70711C7.51957 6.89464 7.26522 7 7 7C6.46957 7 5.96086 7.21071 5.58579 7.58579C5.21071 7.96086 5 8.46957 5 9V16.26C5.70501 15.6786 6.54379 15.282 7.44053 15.106C8.33727 14.9301 9.26372 14.9804 10.1362 15.2523C11.0086 15.5243 11.7995 16.0093 12.4375 16.6637C13.0754 17.318 13.5402 18.121 13.79 19H18.21C18.4598 18.121 18.9246 17.318 19.5625 16.6637C20.2005 16.0093 20.9914 15.5243 21.8638 15.2523C22.7363 14.9804 23.6627 14.9301 24.5595 15.106C25.4562 15.282 26.295 15.6786 27 16.26V9C27 8.46957 26.7893 7.96086 26.4142 7.58579C26.0391 7.21071 25.5304 7 25 7C24.7348 7 24.4804 6.89464 24.2929 6.70711C24.1054 6.51957 24 6.26522 24 6C24 5.73478 24.1054 5.48043 24.2929 5.29289C24.4804 5.10536 24.7348 5 25 5C26.0609 5 27.0783 5.42143 27.8284 6.17157C28.5786 6.92172 29 7.93913 29 9Z" fill="#4A4A4F"/>
</svg>
