<svg width="32" height="32" viewBox="0 0 32 32" fill="none" xmlns="http://www.w3.org/2000/svg">
<path d="M28 8.99991H27.8937C27.7992 8.71388 27.6413 8.4529 27.4318 8.23646C27.2223 8.02001 26.9666 7.85369 26.6838 7.74991L16.6838 4.12491C16.242 3.96487 15.758 3.96487 15.3162 4.12491L5.31625 7.76116C5.03345 7.86494 4.77774 8.03126 4.56822 8.24771C4.3587 8.46415 4.20078 8.72513 4.10625 9.01116H4C2.94108 9.01116 1.92537 9.43104 1.17554 10.1788C0.42572 10.9265 0.00297821 11.941 0 12.9999L0 15.9999C0 17.0608 0.421427 18.0782 1.17157 18.8283C1.92172 19.5785 2.93913 19.9999 4 19.9999H4.64125C5.45875 21.8049 7.04875 23.3899 9.35375 24.6699C11.9788 26.1299 14.7937 26.7949 15.5938 26.9574C15.8616 27.0141 16.1384 27.0141 16.4062 26.9574C17.2062 26.7899 20.0187 26.1299 22.6462 24.6699C24.9513 23.3899 26.5413 21.8049 27.3587 19.9999H28C29.0609 19.9999 30.0783 19.5785 30.8284 18.8283C31.5786 18.0782 32 17.0608 32 15.9999V12.9999C32 11.939 31.5786 10.9216 30.8284 10.1715C30.0783 9.42134 29.0609 8.99991 28 8.99991ZM4 17.9999C3.46957 17.9999 2.96086 17.7892 2.58579 17.4141C2.21071 17.0391 2 16.5303 2 15.9999V12.9999C2 12.4695 2.21071 11.9608 2.58579 11.5857C2.96086 11.2106 3.46957 10.9999 4 10.9999V17.0187C4.00057 17.3468 4.0227 17.6746 4.06625 17.9999H4ZM21 17.9999H11C10.7348 17.9999 10.4804 17.8946 10.2929 17.707C10.1054 17.5195 10 17.2651 10 16.9999C10 16.7347 10.1054 16.4803 10.2929 16.2928C10.4804 16.1053 10.7348 15.9999 11 15.9999H21C21.2652 15.9999 21.5196 16.1053 21.7071 16.2928C21.8946 16.4803 22 16.7347 22 16.9999C22 17.2651 21.8946 17.5195 21.7071 17.707C21.5196 17.8946 21.2652 17.9999 21 17.9999ZM21 13.9999H11C10.7348 13.9999 10.4804 13.8946 10.2929 13.707C10.1054 13.5195 10 13.2651 10 12.9999C10 12.7347 10.1054 12.4803 10.2929 12.2928C10.4804 12.1053 10.7348 11.9999 11 11.9999H21C21.2652 11.9999 21.5196 12.1053 21.7071 12.2928C21.8946 12.4803 22 12.7347 22 12.9999C22 13.2651 21.8946 13.5195 21.7071 13.707C21.5196 13.8946 21.2652 13.9999 21 13.9999ZM30 15.9999C30 16.5303 29.7893 17.0391 29.4142 17.4141C29.0391 17.7892 28.5304 17.9999 28 17.9999H27.9338C27.9773 17.6746 27.9994 17.3468 28 17.0187V10.9999C28.5304 10.9999 29.0391 11.2106 29.4142 11.5857C29.7893 11.9608 30 12.4695 30 12.9999V15.9999Z" fill="#4A4A4F"/>
</svg>
