<svg width="32" height="32" viewBox="0 0 32 32" fill="none" xmlns="http://www.w3.org/2000/svg">
<path d="M30 26H28V17C28 16.9938 28 16.9888 28 16.9825C28 16.9763 28 16.9463 28 16.9288C28 16.9113 28 16.8938 28 16.8775C28.0006 16.8713 28.0006 16.865 28 16.8588L26.125 3.7175C26.0547 3.23957 25.8146 2.80294 25.4487 2.48754C25.0828 2.17214 24.6156 1.99907 24.1325 2H21.8675C21.3866 2.00206 20.9223 2.17649 20.559 2.49162C20.1957 2.80675 19.9575 3.2417 19.8875 3.7175L18.4425 13.8313L13.6 10.2C13.4514 10.0886 13.2748 10.0207 13.0898 10.004C12.9048 9.98737 12.7189 10.0225 12.5528 10.1056C12.3867 10.1886 12.247 10.3163 12.1493 10.4743C12.0517 10.6322 12 10.8143 12 11V15L5.6 10.2C5.45143 10.0886 5.27477 10.0207 5.08981 10.004C4.90484 9.98737 4.71889 10.0225 4.55279 10.1056C4.38668 10.1886 4.24698 10.3163 4.14935 10.4743C4.05171 10.6322 4 10.8143 4 11V26H2C1.73478 26 1.48043 26.1054 1.29289 26.2929C1.10536 26.4804 1 26.7348 1 27C1 27.2652 1.10536 27.5196 1.29289 27.7071C1.48043 27.8946 1.73478 28 2 28H30C30.2652 28 30.5196 27.8946 30.7071 27.7071C30.8946 27.5196 31 27.2652 31 27C31 26.7348 30.8946 26.4804 30.7071 26.2929C30.5196 26.1054 30.2652 26 30 26ZM13.5 23H10C9.73478 23 9.48043 22.8946 9.29289 22.7071C9.10536 22.5196 9 22.2652 9 22C9 21.7348 9.10536 21.4804 9.29289 21.2929C9.48043 21.1054 9.73478 21 10 21H13.5C13.7652 21 14.0196 21.1054 14.2071 21.2929C14.3946 21.4804 14.5 21.7348 14.5 22C14.5 22.2652 14.3946 22.5196 14.2071 22.7071C14.0196 22.8946 13.7652 23 13.5 23ZM22 23H18.5C18.2348 23 17.9804 22.8946 17.7929 22.7071C17.6054 22.5196 17.5 22.2652 17.5 22C17.5 21.7348 17.6054 21.4804 17.7929 21.2929C17.9804 21.1054 18.2348 21 18.5 21H22C22.2652 21 22.5196 21.1054 22.7071 21.2929C22.8946 21.4804 23 21.7348 23 22C23 22.2652 22.8946 22.5196 22.7071 22.7071C22.5196 22.8946 22.2652 23 22 23ZM21.3337 16L20.2675 15.2L21.8675 4H24.1325L25.8475 16H21.3337Z" fill="#4A4A4F"/>
</svg>
