<svg width="32" height="32" viewBox="0 0 32 32" fill="none" xmlns="http://www.w3.org/2000/svg">
<path d="M29.1252 16.8752C28.8224 15.7441 28.2589 14.6995 27.4799 13.8253C26.7009 12.951 25.728 12.2713 24.6391 11.8406C23.5502 11.4098 22.3756 11.2401 21.2093 11.3449C20.043 11.4496 18.9174 11.8261 17.9227 12.444L19.9715 4.26397C20.0223 4.06073 20.008 3.84667 19.9306 3.65199C19.8533 3.45732 19.7167 3.29185 19.5402 3.17897C18.6897 2.64191 17.7399 2.28143 16.7472 2.11897C15.7545 1.95651 14.7393 1.9954 13.7619 2.23332C12.7846 2.47124 11.8651 2.90333 11.0581 3.50387C10.2512 4.10442 9.57331 4.86115 9.0648 5.72904C8.5563 6.59693 8.22757 7.55824 8.09818 8.55577C7.96879 9.5533 8.04139 10.5667 8.31164 11.5356C8.5819 12.5045 9.0443 13.4091 9.67132 14.1957C10.2983 14.9822 11.0772 15.6346 11.9615 16.114L3.85273 18.4302C3.65128 18.4876 3.47293 18.6068 3.34285 18.7709C3.21277 18.9351 3.13752 19.136 3.12773 19.3452C3.05077 21.0526 3.55927 22.7351 4.56904 24.114C5.57881 25.493 7.02927 26.4856 8.68023 26.9277C9.31701 27.0987 9.9734 27.1857 10.6327 27.1865C11.6374 27.1838 12.6314 26.9795 13.5557 26.5858C14.48 26.192 15.3159 25.6168 16.0139 24.8941C16.7118 24.1714 17.2577 23.316 17.6191 22.3786C17.9804 21.4411 18.15 20.4406 18.1177 19.4365L24.1777 25.3015C24.3284 25.4473 24.5212 25.542 24.7286 25.5723C24.9361 25.6026 25.1479 25.5669 25.334 25.4702C26.8503 24.6835 28.0525 23.4027 28.742 21.8398C29.4314 20.2769 29.5666 18.5254 29.1252 16.8752ZM16.3052 18.4815C15.8145 18.5418 15.3168 18.4553 14.8753 18.2328C14.4337 18.0103 14.068 17.6619 13.8244 17.2315C13.5809 16.8012 13.4704 16.3083 13.507 15.8152C13.5436 15.3221 13.7255 14.8509 14.0299 14.4613C14.3343 14.0716 14.7474 13.7809 15.2169 13.626C15.6865 13.4711 16.1915 13.4589 16.668 13.591C17.1444 13.7231 17.5711 13.9935 17.8939 14.368C18.2167 14.7426 18.4212 15.2044 18.4815 15.6952C18.5624 16.3533 18.3785 17.0165 17.9704 17.539C17.5623 18.0616 16.9633 18.4006 16.3052 18.4815Z" fill="#4A4A4F"/>
</svg>
