<svg width="32" height="32" viewBox="0 0 32 32" fill="none" xmlns="http://www.w3.org/2000/svg">
<path d="M16 3C13.4288 3 10.9154 3.76244 8.77759 5.1909C6.63975 6.61935 4.97351 8.64968 3.98957 11.0251C3.00563 13.4006 2.74819 16.0144 3.2498 18.5362C3.75141 21.0579 4.98953 23.3743 6.80762 25.1924C8.6257 27.0105 10.9421 28.2486 13.4638 28.7502C15.9856 29.2518 18.5995 28.9944 20.9749 28.0104C23.3503 27.0265 25.3807 25.3603 26.8091 23.2224C28.2376 21.0846 29 18.5712 29 16C28.9964 12.5533 27.6256 9.24882 25.1884 6.81163C22.7512 4.37445 19.4467 3.00364 16 3ZM16 27C13.8244 27 11.6977 26.3549 9.88873 25.1462C8.07979 23.9375 6.66989 22.2195 5.83733 20.2095C5.00477 18.1995 4.78693 15.9878 5.21137 13.854C5.63581 11.7202 6.68345 9.7602 8.22183 8.22183C9.76021 6.68345 11.7202 5.6358 13.854 5.21136C15.9878 4.78692 18.1995 5.00476 20.2095 5.83733C22.2195 6.66989 23.9375 8.07979 25.1462 9.88873C26.3549 11.6977 27 13.8244 27 16C26.9967 18.9164 25.8367 21.7123 23.7745 23.7745C21.7123 25.8367 18.9164 26.9967 16 27ZM16.555 15.1675L10.555 11.1675C10.4044 11.067 10.2293 11.0093 10.0484 11.0005C9.86752 10.9918 9.68767 11.0323 9.52802 11.1177C9.36837 11.2032 9.23493 11.3304 9.14194 11.4858C9.04894 11.6412 8.99989 11.8189 9.00001 12V20C8.99989 20.1811 9.04894 20.3588 9.14194 20.5142C9.23493 20.6696 9.36837 20.7968 9.52802 20.8823C9.68767 20.9677 9.86752 21.0082 10.0484 20.9995C10.2293 20.9907 10.4044 20.933 10.555 20.8325L16.555 16.8325C16.6922 16.7412 16.8047 16.6175 16.8825 16.4722C16.9603 16.327 17.001 16.1648 17.001 16C17.001 15.8352 16.9603 15.673 16.8825 15.5278C16.8047 15.3825 16.6922 15.2588 16.555 15.1675ZM11 18.1313V13.875L14.1975 16L11 18.1313ZM24.555 15.1675L18.555 11.1675C18.4044 11.067 18.2293 11.0093 18.0484 11.0005C17.8675 10.9918 17.6877 11.0323 17.528 11.1177C17.3684 11.2032 17.2349 11.3304 17.1419 11.4858C17.0489 11.6412 16.9999 11.8189 17 12V20C16.9999 20.1811 17.0489 20.3588 17.1419 20.5142C17.2349 20.6696 17.3684 20.7968 17.528 20.8823C17.6877 20.9677 17.8675 21.0082 18.0484 20.9995C18.2293 20.9907 18.4044 20.933 18.555 20.8325L24.555 16.8325C24.6922 16.7412 24.8047 16.6175 24.8825 16.4722C24.9603 16.327 25.001 16.1648 25.001 16C25.001 15.8352 24.9603 15.673 24.8825 15.5278C24.8047 15.3825 24.6922 15.2588 24.555 15.1675ZM19 18.1313V13.875L22.1975 16L19 18.1313Z" fill="#4A4A4F"/>
</svg>
