<svg width="32" height="32" viewBox="0 0 32 32" fill="none" xmlns="http://www.w3.org/2000/svg">
<path d="M30.0837 14.3327L19.06 7.3127C18.76 7.12091 18.4141 7.01317 18.0582 7.00073C17.7024 6.98828 17.3498 7.0716 17.0371 7.24197C16.7245 7.41233 16.4633 7.66351 16.2809 7.96927C16.0984 8.27503 16.0014 8.62415 16 8.9802V13.6427L6.06 7.3127C5.76002 7.12091 5.41406 7.01317 5.05823 7.00073C4.7024 6.98828 4.34976 7.0716 4.03712 7.24197C3.72448 7.41233 3.46331 7.66351 3.28088 7.96927C3.09844 8.27503 3.00144 8.62415 3 8.9802V23.0202C3.00185 23.3761 3.0991 23.725 3.28162 24.0305C3.46415 24.336 3.72526 24.587 4.03776 24.7573C4.35026 24.9275 4.7027 25.0109 5.05838 24.9987C5.41405 24.9865 5.75994 24.8791 6.06 24.6877L16 18.3577V23.0202C16.0018 23.3761 16.0991 23.725 16.2816 24.0305C16.4641 24.336 16.7253 24.587 17.0378 24.7573C17.3503 24.9275 17.7027 25.0109 18.0584 24.9987C18.4141 24.9865 18.7599 24.8791 19.06 24.6877L30.0837 17.6677C30.3646 17.4894 30.5959 17.2431 30.7561 16.9516C30.9164 16.6601 31.0004 16.3328 31.0004 16.0002C31.0004 15.6675 30.9164 15.3403 30.7561 15.0488C30.5959 14.7573 30.3646 14.511 30.0837 14.3327ZM5 22.9927V9.00895L15.9775 16.0002L5 22.9927ZM18 22.9927V9.00895L28.9775 16.0002L18 22.9927Z" fill="#4A4A4F"/>
</svg>
