<svg width="32" height="32" viewBox="0 0 32 32" fill="none" xmlns="http://www.w3.org/2000/svg">
<path d="M16 3C13.4288 3 10.9154 3.76244 8.77759 5.1909C6.63975 6.61935 4.97351 8.64968 3.98957 11.0251C3.00563 13.4006 2.74819 16.0144 3.2498 18.5362C3.75141 21.0579 4.98953 23.3743 6.80762 25.1924C8.6257 27.0105 10.9421 28.2486 13.4638 28.7502C15.9856 29.2518 18.5995 28.9944 20.9749 28.0104C23.3503 27.0265 25.3807 25.3603 26.8091 23.2224C28.2376 21.0846 29 18.5712 29 16C28.9964 12.5533 27.6256 9.24882 25.1884 6.81163C22.7512 4.37445 19.4467 3.00364 16 3ZM23.5738 16.8188L18.5738 20.3188C18.4239 20.4237 18.2482 20.4856 18.0656 20.4976C17.8831 20.5096 17.7008 20.4713 17.5385 20.3868C17.3762 20.3024 17.2402 20.1751 17.1452 20.0187C17.0503 19.8624 17.0001 19.6829 17 19.5V16C17 16.1607 16.9612 16.319 16.887 16.4615C16.8128 16.604 16.7054 16.7266 16.5738 16.8188L11.5738 20.3188C11.4239 20.4237 11.2482 20.4856 11.0656 20.4976C10.8831 20.5096 10.7008 20.4713 10.5385 20.3868C10.3762 20.3024 10.2402 20.1751 10.1452 20.0187C10.0503 19.8624 10.0001 19.6829 10 19.5V12.5C10.0001 12.3171 10.0503 12.1377 10.1452 11.9813C10.2402 11.8249 10.3762 11.6976 10.5385 11.6132C10.7008 11.5287 10.8831 11.4904 11.0656 11.5024C11.2482 11.5144 11.4239 11.5763 11.5738 11.6812L16.5738 15.1812C16.7054 15.2734 16.8128 15.396 16.887 15.5385C16.9612 15.681 17 15.8393 17 16V12.5C17.0001 12.3171 17.0503 12.1377 17.1452 11.9813C17.2402 11.8249 17.3762 11.6976 17.5385 11.6132C17.7008 11.5287 17.8831 11.4904 18.0656 11.5024C18.2482 11.5144 18.4239 11.5763 18.5738 11.6812L23.5738 15.1812C23.7053 15.2735 23.8127 15.396 23.8868 15.5386C23.9609 15.6811 23.9996 15.8394 23.9996 16C23.9996 16.1606 23.9609 16.3189 23.8868 16.4614C23.8127 16.604 23.7053 16.7265 23.5738 16.8188Z" fill="#4A4A4F"/>
</svg>
