<svg width="32" height="32" viewBox="0 0 32 32" fill="none" xmlns="http://www.w3.org/2000/svg">
<path d="M27.6601 4.34387C26.1599 2.84433 24.1256 2.00195 22.0044 2.00195C19.8833 2.00195 17.849 2.84433 16.3488 4.34387L7.58632 13.0001C7.40002 13.1853 7.25228 13.4056 7.15165 13.6483C7.05103 13.891 6.9995 14.1512 7.00007 14.4139V23.5864L3.29257 27.2926C3.19966 27.3855 3.12596 27.4958 3.07567 27.6172C3.02539 27.7386 2.99951 27.8687 2.99951 28.0001C2.99951 28.1315 3.02539 28.2616 3.07567 28.383C3.12596 28.5044 3.19966 28.6147 3.29257 28.7076C3.48021 28.8953 3.7347 29.0007 4.00007 29.0007C4.13146 29.0007 4.26157 28.9748 4.38296 28.9245C4.50436 28.8742 4.61466 28.8005 4.70757 28.7076L8.41507 25.0001H17.5876C17.8499 25.0005 18.1098 24.9491 18.3522 24.8487C18.5947 24.7483 18.8148 24.6009 19.0001 24.4151L27.6538 15.6651C28.3982 14.9225 28.9889 14.0405 29.3922 13.0694C29.7954 12.0983 30.0033 11.0573 30.0039 10.0058C30.0044 8.95432 29.7977 7.91304 29.3956 6.94152C28.9934 5.97 28.4037 5.08729 27.6601 4.34387ZM17.7588 5.75762C18.8635 4.65246 20.3557 4.02186 21.9182 3.99992C23.4806 3.97799 24.9899 4.56646 26.1252 5.64017C27.2605 6.71388 27.9321 8.18812 27.9972 9.74935C28.0623 11.3106 27.5157 12.8356 26.4738 14.0001H19.4163L23.7101 9.70762C23.8977 9.51998 24.0031 9.26548 24.0031 9.00012C24.0031 8.73476 23.8977 8.48026 23.7101 8.29262C23.5224 8.10498 23.2679 7.99956 23.0026 7.99956C22.7372 7.99956 22.4827 8.10498 22.2951 8.29262L15.0001 15.5864V8.48387L17.7588 5.75762ZM9.00007 14.4189L13.0001 10.4601V17.5851L9.00007 21.5851V14.4189ZM17.5876 23.0001H10.4151L17.4151 16.0001H24.5076L17.5876 23.0001Z" fill="#4A4A4F"/>
</svg>
