<svg width="32" height="32" viewBox="0 0 32 32" fill="none" xmlns="http://www.w3.org/2000/svg">
<path d="M26.7075 10.2925L19.7075 3.2925C19.6146 3.19967 19.5042 3.12605 19.3829 3.07586C19.2615 3.02568 19.1314 2.9999 19 3H7C6.46957 3 5.96086 3.21071 5.58579 3.58579C5.21071 3.96086 5 4.46957 5 5V27C5 27.5304 5.21071 28.0391 5.58579 28.4142C5.96086 28.7893 6.46957 29 7 29H25C25.5304 29 26.0391 28.7893 26.4142 28.4142C26.7893 28.0391 27 27.5304 27 27V11C27.0001 10.8686 26.9743 10.7385 26.9241 10.6172C26.8739 10.4958 26.8003 10.3854 26.7075 10.2925ZM20 6.41375L23.5863 10H20V6.41375ZM25 27H7V5H18V11C18 11.2652 18.1054 11.5196 18.2929 11.7071C18.4804 11.8946 18.7348 12 19 12H25V27ZM19.7075 19.2925C19.8005 19.3854 19.8742 19.4957 19.9246 19.6171C19.9749 19.7385 20.0008 19.8686 20.0008 20C20.0008 20.1314 19.9749 20.2615 19.9246 20.3829C19.8742 20.5043 19.8005 20.6146 19.7075 20.7075L16.7075 23.7075C16.6146 23.8005 16.5043 23.8742 16.3829 23.9246C16.2615 23.9749 16.1314 24.0008 16 24.0008C15.8686 24.0008 15.7385 23.9749 15.6171 23.9246C15.4957 23.8742 15.3854 23.8005 15.2925 23.7075L12.2925 20.7075C12.1049 20.5199 11.9994 20.2654 11.9994 20C11.9994 19.7346 12.1049 19.4801 12.2925 19.2925C12.4801 19.1049 12.7346 18.9994 13 18.9994C13.2654 18.9994 13.5199 19.1049 13.7075 19.2925L15 20.5863V15C15 14.7348 15.1054 14.4804 15.2929 14.2929C15.4804 14.1054 15.7348 14 16 14C16.2652 14 16.5196 14.1054 16.7071 14.2929C16.8946 14.4804 17 14.7348 17 15V20.5863L18.2925 19.2925C18.3854 19.1995 18.4957 19.1258 18.6171 19.0754C18.7385 19.0251 18.8686 18.9992 19 18.9992C19.1314 18.9992 19.2615 19.0251 19.3829 19.0754C19.5043 19.1258 19.6146 19.1995 19.7075 19.2925Z" fill="#4A4A4F"/>
</svg>
