<svg width="32" height="32" viewBox="0 0 32 32" fill="none" xmlns="http://www.w3.org/2000/svg">
<path d="M19.8324 27.445C19.9329 27.5956 19.9906 27.7707 19.9994 27.9516C20.0081 28.1325 19.9676 28.3123 19.8822 28.472C19.7967 28.6316 19.6695 28.7651 19.5141 28.8581C19.3587 28.9511 19.181 29.0001 18.9999 29H2.9999C2.82023 29.0001 2.64386 28.9517 2.48934 28.8601C2.33481 28.7684 2.20783 28.6368 2.12175 28.4791C2.03567 28.3214 1.99367 28.1434 2.00017 27.9639C2.00666 27.7843 2.0614 27.6098 2.15865 27.4587L6.65865 20.4587C6.74919 20.3179 6.87367 20.202 7.02065 20.1217C7.16764 20.0415 7.33243 19.9994 7.4999 19.9994C7.66737 19.9994 7.83216 20.0415 7.97915 20.1217C8.12613 20.202 8.25061 20.3179 8.34115 20.4587L9.56115 22.3563L12.1674 18.445C12.2587 18.3078 12.3824 18.1953 12.5277 18.1175C12.6729 18.0397 12.8351 17.999 12.9999 17.999C13.1647 17.999 13.3269 18.0397 13.4721 18.1175C13.6174 18.1953 13.7411 18.3078 13.8324 18.445L19.8324 27.445ZM26.9999 11V27C26.9999 27.5304 26.7892 28.0391 26.4141 28.4142C26.039 28.7893 25.5303 29 24.9999 29H23.9999C23.7347 29 23.4803 28.8946 23.2928 28.7071C23.1053 28.5196 22.9999 28.2652 22.9999 28C22.9999 27.7348 23.1053 27.4804 23.2928 27.2929C23.4803 27.1054 23.7347 27 23.9999 27H24.9999V12H18.9999C18.7347 12 18.4803 11.8946 18.2928 11.7071C18.1053 11.5196 17.9999 11.2652 17.9999 11V5H6.9999V17C6.9999 17.2652 6.89454 17.5196 6.70701 17.7071C6.51947 17.8946 6.26512 18 5.9999 18C5.73468 18 5.48033 17.8946 5.29279 17.7071C5.10526 17.5196 4.9999 17.2652 4.9999 17V5C4.9999 4.46957 5.21061 3.96086 5.58569 3.58579C5.96076 3.21071 6.46947 3 6.9999 3H18.9999C19.1313 2.9999 19.2614 3.02568 19.3828 3.07586C19.5041 3.12605 19.6145 3.19967 19.7074 3.2925L26.7074 10.2925C26.8002 10.3854 26.8738 10.4958 26.924 10.6172C26.9742 10.7385 27 10.8686 26.9999 11ZM19.9999 10H23.5862L19.9999 6.41375V10Z" fill="#4A4A4F"/>
</svg>
