<svg width="32" height="32" viewBox="0 0 32 32" fill="none" xmlns="http://www.w3.org/2000/svg">
<path d="M12.3825 16.0763C12.1998 16.0005 11.9987 15.9805 11.8047 16.019C11.6107 16.0575 11.4324 16.1527 11.2925 16.2925L8.58625 19H6C5.73478 19 5.48043 19.1054 5.29289 19.2929C5.10536 19.4804 5 19.7348 5 20V25C5 25.2652 5.10536 25.5196 5.29289 25.7071C5.48043 25.8946 5.73478 26 6 26H8.58625L11.2925 28.7075C11.4324 28.8475 11.6106 28.9429 11.8047 28.9815C11.9988 29.0202 12.2 29.0004 12.3828 28.9246C12.5656 28.8489 12.7218 28.7206 12.8317 28.556C12.9416 28.3914 13.0002 28.1979 13 28V17C13 16.8022 12.9413 16.6089 12.8314 16.4445C12.7214 16.28 12.5652 16.1519 12.3825 16.0763ZM11 25.5863L9.7075 24.2925C9.61456 24.1997 9.50424 24.1261 9.38285 24.0759C9.26145 24.0257 9.13136 23.9999 9 24H7V21H9C9.13136 21.0001 9.26145 20.9743 9.38285 20.9241C9.50424 20.8739 9.61456 20.8003 9.7075 20.7075L11 19.4137V25.5863ZM19 22.5C18.999 23.382 18.7678 24.2485 18.3294 25.0138C17.8909 25.7791 17.2604 26.4168 16.5 26.8638C16.2723 26.9771 16.01 26.9995 15.7664 26.9262C15.5228 26.853 15.3163 26.6897 15.1888 26.4696C15.0614 26.2494 15.0227 25.989 15.0805 25.7413C15.1383 25.4936 15.2883 25.2772 15.5 25.1362C15.9585 24.8656 16.3384 24.4802 16.6024 24.0178C16.8663 23.5555 17.0052 23.0324 17.0052 22.5C17.0052 21.9676 16.8663 21.4445 16.6024 20.9822C16.3384 20.5198 15.9585 20.1344 15.5 19.8638C15.2883 19.7228 15.1383 19.5064 15.0805 19.2587C15.0227 19.011 15.0614 18.7506 15.1888 18.5304C15.3163 18.3103 15.5228 18.147 15.7664 18.0738C16.01 18.0005 16.2723 18.0229 16.5 18.1362C17.2604 18.5832 17.8909 19.2209 18.3294 19.9862C18.7678 20.7515 18.999 21.618 19 22.5ZM26.7075 10.2925L19.7075 3.2925C19.6146 3.19967 19.5042 3.12605 19.3829 3.07586C19.2615 3.02568 19.1314 2.9999 19 3H7C6.46957 3 5.96086 3.21071 5.58579 3.58579C5.21071 3.96086 5 4.46957 5 5V15C5 15.2652 5.10536 15.5196 5.29289 15.7071C5.48043 15.8946 5.73478 16 6 16C6.26522 16 6.51957 15.8946 6.70711 15.7071C6.89464 15.5196 7 15.2652 7 15V5H18V11C18 11.2652 18.1054 11.5196 18.2929 11.7071C18.4804 11.8946 18.7348 12 19 12H25V27H21C20.7348 27 20.4804 27.1054 20.2929 27.2929C20.1054 27.4804 20 27.7348 20 28C20 28.2652 20.1054 28.5196 20.2929 28.7071C20.4804 28.8946 20.7348 29 21 29H25C25.5304 29 26.0391 28.7893 26.4142 28.4142C26.7893 28.0391 27 27.5304 27 27V11C27.0001 10.8686 26.9743 10.7385 26.9241 10.6172C26.8739 10.4958 26.8003 10.3854 26.7075 10.2925ZM20 6.41375L23.5863 10H20V6.41375Z" fill="#4A4A4F"/>
</svg>
