<svg width="32" height="32" viewBox="0 0 32 32" fill="none" xmlns="http://www.w3.org/2000/svg">
<path d="M18.4762 24.5387C18.4373 24.9212 18.314 25.2903 18.1154 25.6195C17.9168 25.9487 17.6477 26.2297 17.3275 26.4425C16.6787 26.875 15.875 27 15.1412 27C14.5003 26.9973 13.8623 26.9133 13.2425 26.75C12.9871 26.6786 12.7705 26.5086 12.6404 26.2774C12.5103 26.0463 12.4773 25.7729 12.5487 25.5175C12.6202 25.2621 12.7902 25.0455 13.0213 24.9154C13.2525 24.7853 13.5258 24.7523 13.7812 24.8237C14.3287 24.975 15.6562 25.1625 16.225 24.78C16.335 24.705 16.4538 24.59 16.4925 24.2887C16.535 23.955 16.4025 23.7763 14.895 23.34C13.7263 23.0025 11.77 22.4363 12.02 20.4513C12.0592 20.0764 12.1802 19.7147 12.3746 19.3917C12.569 19.0688 12.832 18.7926 13.145 18.5825C14.6263 17.5825 16.985 18.1687 17.25 18.2375C17.5066 18.305 17.7259 18.4716 17.8596 18.7007C17.9934 18.9299 18.0306 19.2028 17.9631 19.4594C17.8957 19.716 17.729 19.9353 17.4999 20.069C17.2707 20.2027 16.9978 20.24 16.7412 20.1725C16.18 20.0263 14.8375 19.8525 14.2625 20.2425C14.1871 20.2933 14.1251 20.3616 14.0816 20.4414C14.0381 20.5212 14.0144 20.6103 14.0125 20.7013C13.9975 20.8137 13.995 20.8362 14.1512 20.9387C14.44 21.125 14.9575 21.2738 15.4575 21.4188C16.6863 21.7713 18.75 22.375 18.4762 24.5387ZM9 18C8.73478 18 8.48043 18.1054 8.29289 18.2929C8.10536 18.4804 8 18.7348 8 19V23.75C8 24.0815 7.8683 24.3995 7.63388 24.6339C7.39946 24.8683 7.08152 25 6.75 25C6.41848 25 6.10054 24.8683 5.86612 24.6339C5.6317 24.3995 5.5 24.0815 5.5 23.75C5.5 23.4848 5.39464 23.2304 5.20711 23.0429C5.01957 22.8554 4.76522 22.75 4.5 22.75C4.23478 22.75 3.98043 22.8554 3.79289 23.0429C3.60536 23.2304 3.5 23.4848 3.5 23.75C3.5 24.612 3.84241 25.4386 4.4519 26.0481C5.0614 26.6576 5.88805 27 6.75 27C7.61195 27 8.4386 26.6576 9.0481 26.0481C9.65759 25.4386 10 24.612 10 23.75V19C10 18.7348 9.89464 18.4804 9.70711 18.2929C9.51957 18.1054 9.26522 18 9 18ZM26.5812 18.1863C26.4744 18.1099 26.3535 18.0554 26.2256 18.0258C26.0977 17.9961 25.9651 17.992 25.8356 18.0136C25.7061 18.0352 25.582 18.0821 25.4706 18.1516C25.3592 18.2211 25.2626 18.3119 25.1863 18.4188L23.5 20.78L21.8137 18.4188C21.6547 18.2162 21.4237 18.0828 21.1688 18.0464C20.9139 18.0099 20.6548 18.0732 20.4454 18.223C20.236 18.3728 20.0924 18.5976 20.0446 18.8506C19.9968 19.1037 20.0484 19.3654 20.1887 19.5812L22.2712 22.5L20.1863 25.4188C20.0459 25.6346 19.9943 25.8963 20.0421 26.1494C20.0899 26.4024 20.2335 26.6272 20.4429 26.777C20.6523 26.9268 20.9114 26.9901 21.1663 26.9536C21.4212 26.9172 21.6522 26.7838 21.8113 26.5812L23.5 24.22L25.1863 26.5812C25.3453 26.7838 25.5763 26.9172 25.8312 26.9536C26.0861 26.9901 26.3452 26.9268 26.5546 26.777C26.764 26.6272 26.9076 26.4024 26.9554 26.1494C27.0032 25.8963 26.9516 25.6346 26.8113 25.4188L24.7288 22.5L26.8137 19.5812C26.8901 19.4744 26.9446 19.3535 26.9742 19.2256C27.0039 19.0977 27.008 18.9651 26.9864 18.8356C26.9648 18.7061 26.9179 18.582 26.8484 18.4706C26.7789 18.3592 26.6881 18.2626 26.5812 18.1863ZM27 11V14C27 14.2652 26.8946 14.5196 26.7071 14.7071C26.5196 14.8946 26.2652 15 26 15C25.7348 15 25.4804 14.8946 25.2929 14.7071C25.1054 14.5196 25 14.2652 25 14V12H19C18.7348 12 18.4804 11.8946 18.2929 11.7071C18.1054 11.5196 18 11.2652 18 11V5H7V14C7 14.2652 6.89464 14.5196 6.70711 14.7071C6.51957 14.8946 6.26522 15 6 15C5.73478 15 5.48043 14.8946 5.29289 14.7071C5.10536 14.5196 5 14.2652 5 14V5C5 4.46957 5.21071 3.96086 5.58579 3.58579C5.96086 3.21071 6.46957 3 7 3H19C19.1314 2.9999 19.2615 3.02568 19.3829 3.07586C19.5042 3.12605 19.6146 3.19967 19.7075 3.2925L26.7075 10.2925C26.8003 10.3854 26.8739 10.4958 26.9241 10.6172C26.9743 10.7385 27.0001 10.8686 27 11ZM23.5863 10L20 6.41375V10H23.5863Z" fill="#4A4A4F"/>
</svg>
