<svg width="32" height="32" viewBox="0 0 32 32" fill="none" xmlns="http://www.w3.org/2000/svg">
<path d="M26.8137 19.5812L24.7288 22.5L26.8137 25.4188C26.9541 25.6346 27.0057 25.8963 26.9579 26.1494C26.9101 26.4024 26.7665 26.6272 26.5571 26.777C26.3477 26.9268 26.0886 26.9901 25.8337 26.9536C25.5788 26.9172 25.3478 26.7838 25.1887 26.5812L23.5 24.22L21.8137 26.5812C21.7401 26.6945 21.6443 26.7917 21.5321 26.8669C21.4199 26.9421 21.2937 26.9938 21.1609 27.0189C21.0282 27.044 20.8918 27.0419 20.7599 27.0128C20.628 26.9837 20.5033 26.9282 20.3935 26.8496C20.2836 26.771 20.1908 26.671 20.1207 26.5555C20.0505 26.4401 20.0045 26.3116 19.9854 26.1779C19.9662 26.0442 19.9744 25.908 20.0093 25.7775C20.0443 25.647 20.1053 25.525 20.1887 25.4188L22.2712 22.5L20.1863 19.5812C20.0459 19.3654 19.9943 19.1037 20.0421 18.8506C20.0899 18.5976 20.2335 18.3728 20.4429 18.223C20.6523 18.0732 20.9114 18.0099 21.1663 18.0464C21.4212 18.0828 21.6522 18.2162 21.8113 18.4188L23.5 20.78L25.1863 18.4188C25.3453 18.2162 25.5763 18.0828 25.8312 18.0464C26.0861 18.0099 26.3452 18.0732 26.5546 18.223C26.764 18.3728 26.9076 18.5976 26.9554 18.8506C27.0032 19.1037 26.9516 19.3654 26.8113 19.5812H26.8137ZM15.45 21.4137C14.95 21.2687 14.4325 21.12 14.1438 20.9338C13.9875 20.8312 13.99 20.8088 14.005 20.6963C14.0069 20.6054 14.0306 20.5162 14.0741 20.4364C14.1176 20.3566 14.1796 20.2883 14.255 20.2375C14.83 19.8475 16.1725 20.0212 16.7337 20.1675C16.9903 20.236 17.2636 20.1997 17.4935 20.0666C17.7233 19.9336 17.8909 19.7147 17.9594 19.4581C18.0278 19.2015 17.9916 18.9282 17.8585 18.6984C17.7255 18.4685 17.5066 18.301 17.25 18.2325C16.985 18.1637 14.625 17.58 13.145 18.5775C12.832 18.7875 12.569 19.0638 12.3746 19.3867C12.1802 19.7097 12.0592 20.0714 12.02 20.4463C11.77 22.4313 13.7263 22.9975 14.895 23.335C16.4025 23.7712 16.535 23.95 16.4925 24.2838C16.4538 24.585 16.335 24.7 16.225 24.775C15.65 25.1575 14.3287 24.97 13.7812 24.8188C13.5252 24.7473 13.2512 24.7805 13.0196 24.9111C12.7879 25.0417 12.6177 25.2589 12.5463 25.515C12.4748 25.7711 12.508 26.0451 12.6386 26.2767C12.7692 26.5083 12.9864 26.6786 13.2425 26.75C13.8623 26.9133 14.5003 26.9973 15.1412 27C15.8687 27 16.6787 26.875 17.3275 26.4425C17.6477 26.2297 17.9168 25.9487 18.1154 25.6195C18.314 25.2903 18.4373 24.9212 18.4762 24.5387C18.75 22.375 16.6862 21.7712 15.45 21.4137ZM10 18H5C4.73478 18 4.48043 18.1054 4.29289 18.2929C4.10536 18.4804 4 18.7348 4 19C4 19.2652 4.10536 19.5196 4.29289 19.7071C4.48043 19.8946 4.73478 20 5 20H6.5V26C6.5 26.2652 6.60536 26.5196 6.79289 26.7071C6.98043 26.8946 7.23478 27 7.5 27C7.76522 27 8.01957 26.8946 8.20711 26.7071C8.39464 26.5196 8.5 26.2652 8.5 26V20H10C10.2652 20 10.5196 19.8946 10.7071 19.7071C10.8946 19.5196 11 19.2652 11 19C11 18.7348 10.8946 18.4804 10.7071 18.2929C10.5196 18.1054 10.2652 18 10 18ZM27 11V14C27 14.2652 26.8946 14.5196 26.7071 14.7071C26.5196 14.8946 26.2652 15 26 15C25.7348 15 25.4804 14.8946 25.2929 14.7071C25.1054 14.5196 25 14.2652 25 14V12H19C18.7348 12 18.4804 11.8946 18.2929 11.7071C18.1054 11.5196 18 11.2652 18 11V5H7V14C7 14.2652 6.89464 14.5196 6.70711 14.7071C6.51957 14.8946 6.26522 15 6 15C5.73478 15 5.48043 14.8946 5.29289 14.7071C5.10536 14.5196 5 14.2652 5 14V5C5 4.46957 5.21071 3.96086 5.58579 3.58579C5.96086 3.21071 6.46957 3 7 3H19C19.1314 2.9999 19.2615 3.02568 19.3829 3.07586C19.5042 3.12605 19.6146 3.19967 19.7075 3.2925L26.7075 10.2925C26.8003 10.3854 26.8739 10.4958 26.9241 10.6172C26.9743 10.7385 27.0001 10.8686 27 11ZM23.5863 10L20 6.41375V10H23.5863Z" fill="#4A4A4F"/>
</svg>
