<svg width="32" height="32" viewBox="0 0 32 32" fill="none" xmlns="http://www.w3.org/2000/svg">
<path d="M26.7075 10.2925L19.7075 3.2925C19.6146 3.19967 19.5042 3.12605 19.3829 3.07586C19.2615 3.02568 19.1314 2.9999 19 3H7C6.46957 3 5.96086 3.21071 5.58579 3.58579C5.21071 3.96086 5 4.46957 5 5V27C5 27.5304 5.21071 28.0391 5.58579 28.4142C5.96086 28.7893 6.46957 29 7 29H25C25.5304 29 26.0391 28.7893 26.4142 28.4142C26.7893 28.0391 27 27.5304 27 27V11C27.0001 10.8686 26.9743 10.7385 26.9241 10.6172C26.8739 10.4958 26.8003 10.3854 26.7075 10.2925ZM19.7075 20.7075L16.7075 23.7075C16.6146 23.8005 16.5043 23.8742 16.3829 23.9246C16.2615 23.9749 16.1314 24.0008 16 24.0008C15.8686 24.0008 15.7385 23.9749 15.6171 23.9246C15.4957 23.8742 15.3854 23.8005 15.2925 23.7075L12.2925 20.7075C12.1049 20.5199 11.9994 20.2654 11.9994 20C11.9994 19.7346 12.1049 19.4801 12.2925 19.2925C12.4801 19.1049 12.7346 18.9994 13 18.9994C13.2654 18.9994 13.5199 19.1049 13.7075 19.2925L15 20.5863V15C15 14.7348 15.1054 14.4804 15.2929 14.2929C15.4804 14.1054 15.7348 14 16 14C16.2652 14 16.5196 14.1054 16.7071 14.2929C16.8946 14.4804 17 14.7348 17 15V20.5863L18.2925 19.2925C18.4801 19.1049 18.7346 18.9994 19 18.9994C19.2654 18.9994 19.5199 19.1049 19.7075 19.2925C19.8951 19.4801 20.0006 19.7346 20.0006 20C20.0006 20.2654 19.8951 20.5199 19.7075 20.7075ZM19 11V5.5L24.5 11H19Z" fill="#4A4A4F"/>
</svg>
