<svg width="32" height="32" viewBox="0 0 32 32" fill="none" xmlns="http://www.w3.org/2000/svg">
<path d="M18.5287 19.1513C18.3847 19.0616 18.2202 19.0101 18.0507 19.0016C17.8812 18.993 17.7123 19.0278 17.56 19.1025L14.9075 20.4013C14.7801 19.9951 14.5264 19.6402 14.1833 19.3882C13.8402 19.1361 13.4257 19.0002 13 19H6C5.46957 19 4.96086 19.2107 4.58579 19.5858C4.21071 19.9609 4 20.4696 4 21V26C4 26.5304 4.21071 27.0391 4.58579 27.4142C4.96086 27.7893 5.46957 28 6 28H13C13.4401 27.9995 13.8678 27.8538 14.2168 27.5856C14.5657 27.3173 14.8164 26.9415 14.93 26.5163L17.535 27.8913C17.6879 27.9715 17.8589 28.0109 18.0315 28.0055C18.204 28 18.3723 27.95 18.5198 27.8603C18.6673 27.7705 18.789 27.6441 18.8732 27.4934C18.9573 27.3426 19.001 27.1727 19 27V20C19 19.8302 18.9567 19.6631 18.8743 19.5146C18.7918 19.3661 18.6729 19.2411 18.5287 19.1513ZM17 25.345L15 24.2925V22.5825L17 21.6038V25.345ZM26.7075 10.2925L19.7075 3.2925C19.6146 3.19967 19.5042 3.12605 19.3829 3.07586C19.2615 3.02568 19.1314 2.9999 19 3H7C6.46957 3 5.96086 3.21071 5.58579 3.58579C5.21071 3.96086 5 4.46957 5 5V16C5 16.2652 5.10536 16.5196 5.29289 16.7071C5.48043 16.8946 5.73478 17 6 17C6.26522 17 6.51957 16.8946 6.70711 16.7071C6.89464 16.5196 7 16.2652 7 16V5H18V11C18 11.2652 18.1054 11.5196 18.2929 11.7071C18.4804 11.8946 18.7348 12 19 12H25V27H22C21.7348 27 21.4804 27.1054 21.2929 27.2929C21.1054 27.4804 21 27.7348 21 28C21 28.2652 21.1054 28.5196 21.2929 28.7071C21.4804 28.8946 21.7348 29 22 29H25C25.5304 29 26.0391 28.7893 26.4142 28.4142C26.7893 28.0391 27 27.5304 27 27V11C27.0001 10.8686 26.9743 10.7385 26.9241 10.6172C26.8739 10.4958 26.8003 10.3854 26.7075 10.2925ZM20 6.41375L23.5863 10H20V6.41375Z" fill="#4A4A4F"/>
</svg>
