<svg width="32" height="32" viewBox="0 0 32 32" fill="none" xmlns="http://www.w3.org/2000/svg">
<path d="M26.7075 10.2925L19.7075 3.2925C19.6146 3.19967 19.5042 3.12605 19.3829 3.07586C19.2615 3.02568 19.1314 2.9999 19 3H7C6.46957 3 5.96086 3.21071 5.58579 3.58579C5.21071 3.96086 5 4.46957 5 5V14C5 14.2652 5.10536 14.5196 5.29289 14.7071C5.48043 14.8946 5.73478 15 6 15H21C21.2652 15 21.5196 15.1054 21.7071 15.2929C21.8946 15.4804 22 15.7348 22 16V28C22 28.2652 22.1054 28.5196 22.2929 28.7071C22.4804 28.8946 22.7348 29 23 29H25C25.5304 29 26.0391 28.7893 26.4142 28.4142C26.7893 28.0391 27 27.5304 27 27V11C27.0001 10.8686 26.9743 10.7385 26.9241 10.6172C26.8739 10.4958 26.8003 10.3854 26.7075 10.2925ZM19 11V5.5L24.5 11H19ZM8 18H6C5.73478 18 5.48043 18.1054 5.29289 18.2929C5.10536 18.4804 5 18.7348 5 19V26C5 26.2652 5.10536 26.5196 5.29289 26.7071C5.48043 26.8946 5.73478 27 6 27C6.26522 27 6.51957 26.8946 6.70711 26.7071C6.89464 26.5196 7 26.2652 7 26V25H8C8.24063 24.9997 8.48061 24.975 8.71625 24.9263L9.63625 26.5C9.77724 26.7117 9.9936 26.8617 10.2413 26.9195C10.489 26.9773 10.7494 26.9386 10.9696 26.8112C11.1897 26.6837 11.353 26.4772 11.4262 26.2336C11.4995 25.99 11.4771 25.7277 11.3638 25.5L10.475 23.9725C10.9637 23.4829 11.2963 22.8594 11.4309 22.1809C11.5655 21.5024 11.4959 20.7992 11.2311 20.1601C10.9663 19.521 10.518 18.9748 9.94295 18.5903C9.36787 18.2059 8.69176 18.0004 8 18ZM8 23H7V20H8C8.39782 20 8.77936 20.158 9.06066 20.4393C9.34196 20.7206 9.5 21.1022 9.5 21.5C9.5 21.8978 9.34196 22.2794 9.06066 22.5607C8.77936 22.842 8.39782 23 8 23ZM19.4762 24.5387C19.4373 24.9212 19.314 25.2903 19.1154 25.6195C18.9168 25.9487 18.6477 26.2297 18.3275 26.4425C17.6787 26.875 16.875 27 16.1413 27C15.5029 26.996 14.8675 26.912 14.25 26.75C14.122 26.716 14.0021 26.657 13.8971 26.5763C13.7921 26.4957 13.7042 26.395 13.6384 26.28C13.5727 26.1651 13.5304 26.0383 13.5141 25.9069C13.4977 25.7755 13.5076 25.6422 13.5432 25.5147C13.5788 25.3871 13.6394 25.2679 13.7214 25.164C13.8034 25.0601 13.9052 24.9734 14.021 24.9092C14.1367 24.8449 14.2641 24.8043 14.3957 24.7896C14.5273 24.7749 14.6604 24.7865 14.7875 24.8237C15.335 24.9737 16.6563 25.1612 17.2313 24.7787C17.3413 24.705 17.46 24.5888 17.4988 24.2875C17.5425 23.9538 17.41 23.775 15.9012 23.3388C14.7325 23.0013 12.7762 22.435 13.0262 20.45C13.0652 20.0751 13.1862 19.7133 13.3807 19.3904C13.5751 19.0674 13.8382 18.7912 14.1512 18.5812C15.6313 17.5812 17.99 18.1675 18.255 18.2362C18.5116 18.3037 18.7309 18.4703 18.8646 18.6995C18.9984 18.9286 19.0356 19.2015 18.9681 19.4581C18.9007 19.7147 18.734 19.934 18.5049 20.0677C18.2757 20.2015 18.0028 20.2387 17.7463 20.1712C17.185 20.025 15.8425 19.8512 15.2675 20.2412C15.1921 20.2921 15.1301 20.3603 15.0866 20.4401C15.0431 20.52 15.0194 20.6091 15.0175 20.7C15.0025 20.8125 15 20.8363 15.1562 20.9375C15.445 21.1238 15.9625 21.2725 16.4625 21.4175C17.6862 21.7712 19.7562 22.375 19.4762 24.5387Z" fill="#4A4A4F"/>
</svg>
