<svg width="32" height="32" viewBox="0 0 32 32" fill="none" xmlns="http://www.w3.org/2000/svg">
<path d="M20 22.625C19.9653 24.3265 19.2655 25.9468 18.0505 27.1385C16.8354 28.3301 15.2019 28.9984 13.5 29H7.59C5.10875 29 3 26.9713 3 24.49C3.00209 23.671 3.22763 22.8682 3.65231 22.1679C4.077 21.4677 4.68472 20.8966 5.41 20.5163C5.49362 20.4727 5.58784 20.4537 5.68179 20.4614C5.77575 20.4691 5.86561 20.5032 5.94101 20.5598C6.01641 20.6164 6.07428 20.6932 6.10794 20.7812C6.1416 20.8693 6.14968 20.965 6.13125 21.0575C6.04865 21.5175 6.00682 21.9839 6.00625 22.4513C5.99985 22.7125 6.09323 22.9664 6.2674 23.1612C6.44156 23.356 6.68342 23.4772 6.94375 23.5C7.07973 23.5077 7.21584 23.4875 7.34373 23.4407C7.47162 23.3938 7.58861 23.3214 7.68751 23.2278C7.78641 23.1341 7.86514 23.0213 7.91887 22.8961C7.97261 22.771 8.00022 22.6362 8 22.5C7.99841 21.6369 8.18481 20.7838 8.54625 20C9.12091 18.7453 10.1105 17.727 11.3483 17.1168C12.5862 16.5066 13.9965 16.3417 15.3417 16.65C16.6869 16.9583 17.8846 17.7209 18.7332 18.8093C19.5817 19.8976 20.0291 21.2453 20 22.625ZM27 11V27C27 27.5304 26.7893 28.0391 26.4142 28.4142C26.0391 28.7893 25.5304 29 25 29H22C21.7348 29 21.4804 28.8946 21.2929 28.7071C21.1054 28.5196 21 28.2652 21 28C21 27.7348 21.1054 27.4804 21.2929 27.2929C21.4804 27.1054 21.7348 27 22 27H25V12H19C18.7348 12 18.4804 11.8946 18.2929 11.7071C18.1054 11.5196 18 11.2652 18 11V5H7V16C7 16.2652 6.89464 16.5196 6.70711 16.7071C6.51957 16.8946 6.26522 17 6 17C5.73478 17 5.48043 16.8946 5.29289 16.7071C5.10536 16.5196 5 16.2652 5 16V5C5 4.46957 5.21071 3.96086 5.58579 3.58579C5.96086 3.21071 6.46957 3 7 3H19C19.1314 2.9999 19.2615 3.02568 19.3829 3.07586C19.5042 3.12605 19.6146 3.19967 19.7075 3.2925L26.7075 10.2925C26.8003 10.3854 26.8739 10.4958 26.9241 10.6172C26.9743 10.7385 27.0001 10.8686 27 11ZM23.5863 10L20 6.41375V10H23.5863Z" fill="#4A4A4F"/>
</svg>
