<svg width="32" height="32" viewBox="0 0 32 32" fill="none" xmlns="http://www.w3.org/2000/svg">
<path d="M26.7075 10.2925L19.7075 3.2925C19.6146 3.19967 19.5042 3.12605 19.3829 3.07586C19.2615 3.02568 19.1314 2.9999 19 3H7C6.46957 3 5.96086 3.21071 5.58579 3.58579C5.21071 3.96086 5 4.46957 5 5V16C5 16.2652 5.10536 16.5196 5.29289 16.7071C5.48043 16.8946 5.73478 17 6 17C6.26522 17 6.51957 16.8946 6.70711 16.7071C6.89464 16.5196 7 16.2652 7 16V5H18V11C18 11.2652 18.1054 11.5196 18.2929 11.7071C18.4804 11.8946 18.7348 12 19 12H25V27H22C21.7348 27 21.4804 27.1054 21.2929 27.2929C21.1054 27.4804 21 27.7348 21 28C21 28.2652 21.1054 28.5196 21.2929 28.7071C21.4804 28.8946 21.7348 29 22 29H25C25.5304 29 26.0391 28.7893 26.4142 28.4142C26.7893 28.0391 27 27.5304 27 27V11C27.0001 10.8686 26.9743 10.7385 26.9241 10.6172C26.8739 10.4958 26.8003 10.3854 26.7075 10.2925ZM20 6.41375L23.5863 10H20V6.41375ZM13.5 16C12.2167 16 10.9622 16.3798 9.89445 17.0917C8.82671 17.8035 7.99356 18.8154 7.5 20C6.30653 20 5.16193 20.4741 4.31802 21.318C3.47411 22.1619 3 23.3065 3 24.5C3 25.6935 3.47411 26.8381 4.31802 27.682C5.16193 28.5259 6.30653 29 7.5 29H13.5C15.2239 29 16.8772 28.3152 18.0962 27.0962C19.3152 25.8772 20 24.2239 20 22.5C20 20.7761 19.3152 19.1228 18.0962 17.9038C16.8772 16.6848 15.2239 16 13.5 16ZM13.5 27H7.5C6.87767 27.001 6.27733 26.7699 5.81636 26.3518C5.3554 25.9337 5.06694 25.3587 5.0074 24.7392C4.94786 24.1197 5.12151 23.5003 5.4944 23.002C5.8673 22.5038 6.41262 22.1625 7.02375 22.045C7.01778 22.3102 7.11742 22.5669 7.30073 22.7587C7.48405 22.9505 7.73603 23.0615 8.00125 23.0675C8.26647 23.0735 8.52319 22.9738 8.71495 22.7905C8.9067 22.6072 9.01778 22.3552 9.02375 22.09C9.04717 21.8331 9.09148 21.5785 9.15625 21.3288C9.17034 21.2879 9.18162 21.2461 9.19 21.2038C9.43026 20.405 9.88777 19.6888 10.5115 19.135C11.1352 18.5812 11.9005 18.2117 12.722 18.0676C13.5435 17.9236 14.3889 18.0107 15.1638 18.3192C15.9388 18.6277 16.6127 19.1455 17.1104 19.8148C17.608 20.4842 17.9099 21.2786 17.9823 22.1095C18.0547 22.9405 17.8947 23.7751 17.5202 24.5204C17.1457 25.2657 16.5715 25.8922 15.8616 26.3301C15.1517 26.7679 14.3341 26.9999 13.5 27Z" fill="#4A4A4F"/>
</svg>
