<svg width="32" height="32" viewBox="0 0 32 32" fill="none" xmlns="http://www.w3.org/2000/svg">
<path d="M6 22.5C6 23.875 6.8975 25 8 25C8.24131 24.9946 8.47899 24.9402 8.69861 24.84C8.91822 24.7399 9.11518 24.5961 9.2775 24.4175C9.36701 24.3177 9.47568 24.2369 9.59705 24.1799C9.71842 24.1229 9.85 24.0909 9.98398 24.0858C10.118 24.0808 10.2516 24.1026 10.3769 24.1502C10.5023 24.1978 10.6168 24.2701 10.7136 24.3629C10.8105 24.4556 10.8877 24.5668 10.9406 24.69C10.9936 24.8132 11.0213 24.9457 11.022 25.0798C11.0227 25.2139 10.9964 25.3467 10.9448 25.4705C10.8931 25.5942 10.8171 25.7062 10.7212 25.8C10.3735 26.175 9.95265 26.4749 9.48467 26.6813C9.01669 26.8877 8.51145 26.9961 8 27C5.79375 27 4 24.9813 4 22.5C4 20.0187 5.79375 18 8 18C8.51145 18.0039 9.01669 18.1123 9.48467 18.3187C9.95265 18.5251 10.3735 18.825 10.7212 19.2C10.8171 19.2938 10.8931 19.4058 10.9448 19.5295C10.9964 19.6533 11.0227 19.7861 11.022 19.9202C11.0213 20.0543 10.9936 20.1868 10.9406 20.31C10.8877 20.4332 10.8105 20.5444 10.7136 20.6371C10.6168 20.7299 10.5023 20.8022 10.3769 20.8498C10.2516 20.8974 10.118 20.9192 9.98398 20.9142C9.85 20.9091 9.71842 20.8771 9.59705 20.8201C9.47568 20.7631 9.36701 20.6823 9.2775 20.5825C9.11537 20.4036 8.91845 20.2597 8.69879 20.1596C8.47914 20.0594 8.24136 20.0051 8 20C6.8975 20 6 21.125 6 22.5ZM15.95 21.4137C15.45 21.2687 14.9325 21.12 14.6438 20.9338C14.4862 20.8325 14.49 20.8088 14.5037 20.6963C14.5056 20.6054 14.5293 20.5162 14.5728 20.4364C14.6163 20.3566 14.6784 20.2883 14.7537 20.2375C15.3287 19.8475 16.6725 20.0212 17.2325 20.1675C17.4891 20.235 17.762 20.1977 17.9911 20.064C18.2203 19.9303 18.3869 19.711 18.4544 19.4544C18.5218 19.1978 18.4846 18.9249 18.3509 18.6957C18.2171 18.4666 17.9978 18.3 17.7412 18.2325C17.4762 18.1637 15.1163 17.58 13.6375 18.5775C13.3243 18.7874 13.0612 19.0636 12.8668 19.3865C12.6724 19.7095 12.5514 20.0713 12.5125 20.4463C12.2625 22.4313 14.2175 22.9975 15.3875 23.335C16.8962 23.7712 17.0288 23.95 16.985 24.2838C16.9463 24.585 16.8275 24.7013 16.7175 24.775C16.1425 25.1575 14.8212 24.97 14.2738 24.82C14.0195 24.7526 13.749 24.788 13.5207 24.9186C13.2924 25.0492 13.1248 25.2645 13.0541 25.5178C12.9834 25.7711 13.0154 26.0421 13.1431 26.272C13.2707 26.5019 13.4839 26.6723 13.7362 26.7463C14.3558 26.9086 14.9933 26.9926 15.6337 26.9963C16.3625 26.9963 17.1712 26.8713 17.82 26.4387C18.1402 26.226 18.4093 25.9449 18.6079 25.6157C18.8065 25.2866 18.9298 24.9175 18.9688 24.535C19.25 22.375 17.185 21.7712 15.95 21.4137ZM23.95 21.4137C23.45 21.2687 22.9325 21.12 22.6437 20.9338C22.4875 20.8325 22.49 20.8088 22.5037 20.6963C22.5056 20.6054 22.5293 20.5162 22.5728 20.4364C22.6163 20.3566 22.6784 20.2883 22.7537 20.2375C23.3288 19.8475 24.6713 20.0212 25.2313 20.1675C25.4878 20.235 25.7607 20.1977 25.9899 20.064C26.219 19.9303 26.3857 19.711 26.4531 19.4544C26.5206 19.1978 26.4834 18.9249 26.3496 18.6957C26.2159 18.4666 25.9966 18.3 25.74 18.2325C25.4762 18.1637 23.115 17.58 21.6362 18.5775C21.3244 18.7882 21.0626 19.0647 20.8693 19.3876C20.676 19.7105 20.5559 20.0719 20.5175 20.4463C20.2675 22.4313 22.2237 22.9975 23.3925 23.335C24.9 23.7712 25.0325 23.95 24.99 24.2838C24.9513 24.585 24.8325 24.7013 24.7213 24.775C24.1462 25.1575 22.8263 24.97 22.2787 24.82C22.0228 24.7487 21.7491 24.782 21.5177 24.9126C21.2863 25.0432 21.1163 25.2603 21.045 25.5163C20.9737 25.7722 21.007 26.0459 21.1376 26.2773C21.2682 26.5087 21.4853 26.6787 21.7412 26.75C22.3612 26.9124 22.9991 26.9963 23.64 27C24.3675 27 25.1775 26.875 25.8263 26.4425C26.1463 26.2297 26.4152 25.9485 26.6136 25.6194C26.812 25.2902 26.935 24.9211 26.9737 24.5387C27.25 22.375 25.185 21.7712 23.9487 21.4137H23.95ZM5 14V5C5 4.46957 5.21071 3.96086 5.58579 3.58579C5.96086 3.21071 6.46957 3 7 3H19C19.1314 2.9999 19.2615 3.02568 19.3829 3.07586C19.5042 3.12605 19.6146 3.19967 19.7075 3.2925L26.7075 10.2925C26.8003 10.3854 26.8739 10.4958 26.9241 10.6172C26.9743 10.7385 27.0001 10.8686 27 11V14C27 14.2652 26.8946 14.5196 26.7071 14.7071C26.5196 14.8946 26.2652 15 26 15H6C5.73478 15 5.48043 14.8946 5.29289 14.7071C5.10536 14.5196 5 14.2652 5 14ZM19 11H24.5L19 5.5V11Z" fill="#4A4A4F"/>
</svg>
