<svg width="32" height="32" viewBox="0 0 32 32" fill="none" xmlns="http://www.w3.org/2000/svg">
<path d="M5.99988 15H25.9999C26.2651 15 26.5194 14.8946 26.707 14.7071C26.8945 14.5196 26.9999 14.2652 26.9999 14V11C27 10.8686 26.9742 10.7385 26.924 10.6172C26.8738 10.4958 26.8002 10.3854 26.7074 10.2925L19.7074 3.2925C19.6144 3.19967 19.5041 3.12605 19.3827 3.07586C19.2613 3.02568 19.1312 2.9999 18.9999 3H6.99988C6.46944 3 5.96073 3.21071 5.58566 3.58579C5.21059 3.96086 4.99988 4.46957 4.99988 5V14C4.99988 14.2652 5.10523 14.5196 5.29277 14.7071C5.48031 14.8946 5.73466 15 5.99988 15ZM18.9999 5.5L24.4999 11H18.9999V5.5ZM19.4999 26C19.4999 26.2652 19.3945 26.5196 19.207 26.7071C19.0194 26.8946 18.7651 27 18.4999 27H14.9999C14.7347 27 14.4803 26.8946 14.2928 26.7071C14.1052 26.5196 13.9999 26.2652 13.9999 26V19C13.9999 18.7348 14.1052 18.4804 14.2928 18.2929C14.4803 18.1054 14.7347 18 14.9999 18C15.2651 18 15.5194 18.1054 15.707 18.2929C15.8945 18.4804 15.9999 18.7348 15.9999 19V25H18.4999C18.7651 25 19.0194 25.1054 19.207 25.2929C19.3945 25.4804 19.4999 25.7348 19.4999 26ZM11.8136 19.5812L9.72863 22.5L11.8136 25.4188C11.9539 25.6346 12.0056 25.8963 11.9578 26.1494C11.91 26.4024 11.7664 26.6272 11.557 26.777C11.3476 26.9268 11.0884 26.9901 10.8335 26.9536C10.5786 26.9172 10.3476 26.7838 10.1886 26.5812L8.49988 24.22L6.81363 26.5812C6.74001 26.6945 6.64422 26.7917 6.53202 26.8669C6.41982 26.9421 6.29355 26.9938 6.16082 27.0189C6.02809 27.044 5.89165 27.0419 5.75974 27.0128C5.62783 26.9837 5.50319 26.9282 5.39333 26.8496C5.28346 26.771 5.19066 26.671 5.12053 26.5555C5.05039 26.4401 5.00437 26.3116 4.98524 26.1779C4.96611 26.0442 4.97426 25.908 5.00922 25.7775C5.04418 25.647 5.10521 25.525 5.18863 25.4188L7.27113 22.5L5.18613 19.5812C5.10271 19.475 5.04168 19.353 5.00672 19.2225C4.97176 19.092 4.96361 18.9558 4.98274 18.8221C5.00186 18.6884 5.04789 18.5599 5.11803 18.4445C5.18816 18.329 5.28096 18.229 5.39083 18.1504C5.50069 18.0718 5.62533 18.0163 5.75724 17.9872C5.88915 17.9581 6.02559 17.956 6.15832 17.9811C6.29105 18.0062 6.41732 18.0579 6.52952 18.1331C6.64172 18.2083 6.73751 18.3055 6.81113 18.4188L8.49988 20.78L10.1861 18.4188C10.3451 18.2162 10.5761 18.0828 10.831 18.0464C11.0859 18.0099 11.3451 18.0732 11.5545 18.223C11.7639 18.3728 11.9075 18.5976 11.9553 18.8506C12.0031 19.1037 11.9514 19.3654 11.8111 19.5812H11.8136ZM26.9736 24.5387C26.9349 24.9211 26.8119 25.2902 26.6135 25.6194C26.4151 25.9485 26.1462 26.2297 25.8261 26.4425C25.1774 26.875 24.3674 27 23.6399 27C22.9989 26.9973 22.3609 26.9133 21.7411 26.75C21.4857 26.6786 21.2691 26.5086 21.139 26.2774C21.0089 26.0463 20.9759 25.7729 21.0474 25.5175C21.1188 25.2621 21.2888 25.0455 21.5199 24.9154C21.7511 24.7853 22.0244 24.7523 22.2799 24.8237C22.8274 24.975 24.1474 25.1625 24.7224 24.78C24.8336 24.705 24.9524 24.59 24.9911 24.2887C25.0336 23.955 24.9011 23.7763 23.3936 23.34C22.2249 23.0025 20.2686 22.4363 20.5186 20.45C20.5572 20.0759 20.6774 19.7147 20.8707 19.3921C21.064 19.0694 21.3257 18.7931 21.6374 18.5825C23.1174 17.5825 25.4774 18.1687 25.7411 18.2375C25.9977 18.305 26.217 18.4716 26.3507 18.7007C26.4845 18.9299 26.5217 19.2028 26.4543 19.4594C26.3868 19.716 26.2202 19.9353 25.991 20.069C25.7619 20.2027 25.489 20.24 25.2324 20.1725C24.6724 20.0263 23.3299 19.8525 22.7549 20.2425C22.6795 20.2933 22.6175 20.3616 22.5739 20.4414C22.5304 20.5212 22.5068 20.6103 22.5049 20.7013C22.4911 20.8137 22.4886 20.8362 22.6449 20.9387C22.9336 21.125 23.4511 21.2738 23.9511 21.4188C25.1849 21.7713 27.2499 22.375 26.9736 24.5387Z" fill="#4A4A4F"/>
</svg>
