<svg width="32" height="32" viewBox="0 0 32 32" fill="none" xmlns="http://www.w3.org/2000/svg">
<path d="M6 15H26C26.2652 15 26.5196 14.8946 26.7071 14.7071C26.8946 14.5196 27 14.2652 27 14V11C27.0001 10.8686 26.9743 10.7385 26.9241 10.6172C26.8739 10.4958 26.8003 10.3854 26.7075 10.2925L19.7075 3.2925C19.6146 3.19967 19.5042 3.12605 19.3829 3.07586C19.2615 3.02568 19.1314 2.9999 19 3H7C6.46957 3 5.96086 3.21071 5.58579 3.58579C5.21071 3.96086 5 4.46957 5 5V14C5 14.2652 5.10536 14.5196 5.29289 14.7071C5.48043 14.8946 5.73478 15 6 15ZM19 5.5L24.5 11H19V5.5ZM28.5 26C28.5 26.2652 28.3946 26.5196 28.2071 26.7071C28.0196 26.8946 27.7652 27 27.5 27H24C23.7348 27 23.4804 26.8946 23.2929 26.7071C23.1054 26.5196 23 26.2652 23 26V19C23 18.7348 23.1054 18.4804 23.2929 18.2929C23.4804 18.1054 23.7348 18 24 18C24.2652 18 24.5196 18.1054 24.7071 18.2929C24.8946 18.4804 25 18.7348 25 19V25H27.5C27.7652 25 28.0196 25.1054 28.2071 25.2929C28.3946 25.4804 28.5 25.7348 28.5 26ZM11.4775 24.5387C11.4385 24.9212 11.3153 25.2903 11.1167 25.6195C10.918 25.9487 10.649 26.2297 10.3287 26.4425C9.68 26.875 8.875 27 8.1425 27C7.50366 26.9966 6.8678 26.9126 6.25 26.75C5.9976 26.6761 5.78449 26.5057 5.65681 26.2758C5.52914 26.0458 5.49718 25.7749 5.56787 25.5215C5.63856 25.2682 5.80619 25.0529 6.03447 24.9223C6.26275 24.7917 6.53329 24.7563 6.7875 24.8237C7.335 24.9737 8.65625 25.1612 9.23125 24.7787C9.3425 24.705 9.46 24.5888 9.49875 24.2875C9.5425 23.9538 9.41 23.775 7.90125 23.3388C6.7325 23.0013 4.77625 22.435 5.02625 20.45C5.06516 20.075 5.18612 19.7132 5.38055 19.3903C5.57497 19.0673 5.8381 18.7911 6.15125 18.5812C7.63125 17.5812 9.99125 18.1675 10.255 18.2362C10.3821 18.2697 10.5013 18.3279 10.6058 18.4075C10.7104 18.487 10.7983 18.5864 10.8644 18.6999C10.9306 18.8135 10.9738 18.9389 10.9914 19.0691C11.0091 19.1993 11.001 19.3317 10.9675 19.4587C10.934 19.5858 10.8758 19.705 10.7963 19.8096C10.7167 19.9142 10.6173 20.002 10.5038 20.0682C10.3903 20.1343 10.2649 20.1775 10.1347 20.1952C10.0045 20.2129 9.87205 20.2047 9.745 20.1712C9.18375 20.025 7.8425 19.8512 7.2675 20.2412C7.19213 20.2921 7.13008 20.3603 7.08657 20.4401C7.04306 20.52 7.01938 20.6091 7.0175 20.7C7.0025 20.8125 7 20.835 7.1575 20.9375C7.44625 21.1238 7.9625 21.2725 8.46375 21.4175C9.6875 21.7712 11.7575 22.375 11.4775 24.5387ZM20.3525 24.9425C20.779 24.1993 21.0023 23.3569 21 22.5C21 20.0187 19.2063 18 17 18C14.7937 18 13 20.0187 13 22.5C13 24.9813 14.7937 27 17 27C17.7064 26.9975 18.3968 26.7899 18.9875 26.4025L19.2925 26.7075C19.4801 26.895 19.7346 27.0002 19.9998 27.0001C20.2651 27 20.5194 26.8945 20.7069 26.7069C20.8944 26.5192 20.9996 26.2648 20.9995 25.9996C20.9994 25.7343 20.8939 25.48 20.7062 25.2925L20.3525 24.9425ZM17 25C15.8975 25 15 23.875 15 22.5C15 21.125 15.8975 20 17 20C18.1025 20 19 21.125 19 22.5C19.0002 22.8187 18.9504 23.1355 18.8525 23.4387L18.7062 23.2925C18.6133 23.1997 18.5031 23.1261 18.3817 23.0758C18.2603 23.0256 18.1303 22.9998 17.9989 22.9999C17.7337 23 17.4794 23.1055 17.2919 23.2931C17.1044 23.4808 16.9991 23.7352 16.9993 24.0004C16.9994 24.2657 17.1049 24.52 17.2925 24.7075L17.5025 24.9163C17.3405 24.9706 17.1709 24.9988 17 25Z" fill="#4A4A4F"/>
</svg>
