<svg width="32" height="32" viewBox="0 0 32 32" fill="none" xmlns="http://www.w3.org/2000/svg">
<path d="M18 18.5C18 18.9945 17.8534 19.4778 17.5787 19.8889C17.304 20.3 16.9135 20.6205 16.4567 20.8097C15.9999 20.9989 15.4972 21.0484 15.0123 20.952C14.5273 20.8555 14.0819 20.6174 13.7322 20.2678C13.3826 19.9181 13.1445 19.4727 13.048 18.9877C12.9516 18.5028 13.0011 18.0001 13.1903 17.5433C13.3795 17.0865 13.7 16.696 14.1111 16.4213C14.5222 16.1466 15.0055 16 15.5 16C16.163 16 16.7989 16.2634 17.2678 16.7322C17.7366 17.2011 18 17.837 18 18.5ZM27 11V27C27 27.5304 26.7893 28.0391 26.4142 28.4142C26.0391 28.7893 25.5304 29 25 29H7C6.46957 29 5.96086 28.7893 5.58579 28.4142C5.21071 28.0391 5 27.5304 5 27V5C5 4.46957 5.21071 3.96086 5.58579 3.58579C5.96086 3.21071 6.46957 3 7 3H19C19.1314 2.9999 19.2615 3.02568 19.3829 3.07586C19.5042 3.12605 19.6146 3.19967 19.7075 3.2925L26.7075 10.2925C26.8003 10.3854 26.8739 10.4958 26.9241 10.6172C26.9743 10.7385 27.0001 10.8686 27 11ZM20.7075 22.2925L19.3075 20.8937C19.8977 19.956 20.1216 18.8336 19.9366 17.7411C19.7516 16.6486 19.1705 15.6626 18.3044 14.9715C17.4384 14.2803 16.348 13.9325 15.2417 13.9944C14.1354 14.0564 13.0907 14.5237 12.3072 15.3072C11.5237 16.0907 11.0564 17.1354 10.9944 18.2417C10.9325 19.348 11.2803 20.4384 11.9715 21.3044C12.6626 22.1705 13.6486 22.7516 14.7411 22.9366C15.8336 23.1216 16.956 22.8977 17.8937 22.3075L19.2925 23.7075C19.3854 23.8004 19.4957 23.8741 19.6171 23.9244C19.7385 23.9747 19.8686 24.0006 20 24.0006C20.1314 24.0006 20.2615 23.9747 20.3829 23.9244C20.5043 23.8741 20.6146 23.8004 20.7075 23.7075C20.8004 23.6146 20.8741 23.5043 20.9244 23.3829C20.9747 23.2615 21.0006 23.1314 21.0006 23C21.0006 22.8686 20.9747 22.7385 20.9244 22.6171C20.8741 22.4957 20.8004 22.3854 20.7075 22.2925ZM24.5 11L19 5.5V11H24.5Z" fill="#4A4A4F"/>
</svg>
