<svg width="32" height="32" viewBox="0 0 32 32" fill="none" xmlns="http://www.w3.org/2000/svg">
<path d="M26.7062 10.2925L19.7062 3.2925C19.5189 3.10532 19.2649 3.00012 19 3H7C6.46957 3 5.96086 3.21071 5.58579 3.58579C5.21071 3.96086 5 4.46957 5 5V14C5 14.2652 5.10536 14.5196 5.29289 14.7071C5.48043 14.8946 5.73478 15 6 15H26C26.2652 15 26.5196 14.8946 26.7071 14.7071C26.8946 14.5196 27 14.2652 27 14V11C26.9999 10.8686 26.974 10.7384 26.9236 10.617C26.8732 10.4956 26.7993 10.3853 26.7062 10.2925ZM19 11V5.5L24.5 11H19ZM6 22.5C6 23.875 6.8975 25 8 25C8.24131 24.9946 8.47899 24.9402 8.69861 24.84C8.91822 24.7399 9.11518 24.5961 9.2775 24.4175C9.46174 24.2298 9.71248 24.1223 9.97543 24.1182C10.2384 24.1141 10.4924 24.2137 10.6824 24.3955C10.8724 24.5773 10.9831 24.8267 10.9907 25.0895C10.9982 25.3524 10.9018 25.6076 10.7225 25.8C10.3743 26.1748 9.95323 26.4746 9.48508 26.6809C9.01694 26.8873 8.51159 26.9959 8 27C5.795 27 4 24.9813 4 22.5C4 20.0187 5.795 18 8 18C8.51159 18.0041 9.01694 18.1127 9.48508 18.3191C9.95323 18.5254 10.3743 18.8252 10.7225 19.2C10.9018 19.3924 10.9982 19.6476 10.9907 19.9105C10.9831 20.1733 10.8724 20.4227 10.6824 20.6045C10.4924 20.7863 10.2384 20.8859 9.97543 20.8818C9.71248 20.8777 9.46174 20.7702 9.2775 20.5825C9.11551 20.4035 8.91862 20.2594 8.69893 20.1593C8.47924 20.0591 8.2414 20.0049 8 20C6.8975 20 6 21.125 6 22.5ZM18.9762 24.5387C18.9373 24.9212 18.814 25.2903 18.6154 25.6195C18.4168 25.9487 18.1477 26.2297 17.8275 26.4425C17.1787 26.875 16.375 27 15.6412 27C15.0004 26.9963 14.3625 26.9124 13.7425 26.75C13.4871 26.6786 13.2705 26.5086 13.1404 26.2774C13.0103 26.0463 12.9773 25.7729 13.0487 25.5175C13.1202 25.2621 13.2902 25.0455 13.5213 24.9154C13.7525 24.7853 14.0258 24.7523 14.2812 24.8237C14.8287 24.9737 16.15 25.1612 16.725 24.7787C16.835 24.705 16.9538 24.5888 16.9925 24.2875C17.035 23.9538 16.9025 23.775 15.395 23.3388C14.2263 23.0013 12.27 22.435 12.52 20.45C12.5592 20.0751 12.6802 19.7134 12.8746 19.3905C13.069 19.0676 13.332 18.7913 13.645 18.5812C15.1263 17.5812 17.485 18.1675 17.75 18.2362C18.0066 18.3037 18.2259 18.4703 18.3596 18.6995C18.4934 18.9286 18.5306 19.2015 18.4631 19.4581C18.3957 19.7147 18.229 19.934 17.9999 20.0677C17.7707 20.2015 17.4978 20.2387 17.2412 20.1712C16.68 20.025 15.3375 19.8512 14.7625 20.2412C14.6873 20.2923 14.6255 20.3606 14.582 20.4404C14.5385 20.5202 14.5147 20.6092 14.5125 20.7C14.4987 20.8125 14.4963 20.8363 14.6525 20.9375C14.9412 21.1238 15.4587 21.2725 15.9587 21.4175C17.1862 21.7712 19.25 22.375 18.9762 24.5387ZM26.9412 19.3363L24.4412 26.3363C24.3719 26.5306 24.2442 26.6987 24.0756 26.8176C23.907 26.9365 23.7057 27.0003 23.4994 27.0003C23.2931 27.0003 23.0918 26.9365 22.9232 26.8176C22.7545 26.6987 22.6268 26.5306 22.5575 26.3363L20.0575 19.3363C19.9683 19.0864 19.982 18.8115 20.0956 18.5718C20.2092 18.3321 20.4133 18.1473 20.6631 18.0581C20.9129 17.9689 21.1879 17.9827 21.4276 18.0962C21.6673 18.2098 21.8521 18.4139 21.9412 18.6637L23.5 23.0263L25.0575 18.6637C25.1467 18.4139 25.3314 18.2098 25.5711 18.0962C25.8108 17.9827 26.0858 17.9689 26.3356 18.0581C26.5854 18.1473 26.7896 18.3321 26.9031 18.5718C27.0167 18.8115 27.0304 19.0864 26.9412 19.3363Z" fill="#4A4A4F"/>
</svg>
