<svg width="32" height="32" viewBox="0 0 32 32" fill="none" xmlns="http://www.w3.org/2000/svg">
<path d="M10.9775 24.5387C10.9385 24.9212 10.8153 25.2903 10.6166 25.6195C10.418 25.9487 10.1489 26.2297 9.82872 26.4425C9.17997 26.875 8.37497 27 7.64247 27C7.00368 26.996 6.3679 26.912 5.74997 26.75C5.49757 26.6761 5.28446 26.5057 5.15678 26.2758C5.02911 26.0458 4.99715 25.7749 5.06784 25.5215C5.13853 25.2682 5.30616 25.0529 5.53444 24.9223C5.76272 24.7917 6.03326 24.7563 6.28747 24.8237C6.83497 24.9737 8.15622 25.1612 8.73122 24.7787C8.84122 24.705 8.95997 24.5888 8.99872 24.2875C9.04247 23.9538 8.90997 23.775 7.40122 23.3388C6.23247 23.0013 4.27622 22.435 4.52622 20.45C4.56513 20.075 4.68609 19.7132 4.88052 19.3903C5.07494 19.0673 5.33807 18.7911 5.65122 18.5812C7.13122 17.5812 9.49122 18.1675 9.75497 18.2362C10.0116 18.3037 10.2309 18.4703 10.3646 18.6995C10.4983 18.9286 10.5356 19.2015 10.4681 19.4581C10.4006 19.7147 10.234 19.934 10.0049 20.0677C9.7757 20.2015 9.50282 20.2387 9.24622 20.1712C8.68622 20.025 7.34247 19.8512 6.76747 20.2412C6.6921 20.2921 6.63005 20.3603 6.58654 20.4401C6.54303 20.52 6.51934 20.6091 6.51747 20.7C6.50372 20.8125 6.49997 20.8363 6.65747 20.9375C6.94622 21.1238 7.46247 21.2725 7.96372 21.4175C9.18747 21.7712 11.2575 22.375 10.9775 24.5387ZM27 11V14C27 14.2652 26.8946 14.5196 26.7071 14.7071C26.5195 14.8946 26.2652 15 26 15C25.7348 15 25.4804 14.8946 25.2929 14.7071C25.1053 14.5196 25 14.2652 25 14V12H19C18.7348 12 18.4804 11.8946 18.2929 11.7071C18.1053 11.5196 18 11.2652 18 11V5H6.99997V14C6.99997 14.2652 6.89461 14.5196 6.70708 14.7071C6.51954 14.8946 6.26519 15 5.99997 15C5.73475 15 5.4804 14.8946 5.29286 14.7071C5.10533 14.5196 4.99997 14.2652 4.99997 14V5C4.99997 4.46957 5.21068 3.96086 5.58576 3.58579C5.96083 3.21071 6.46954 3 6.99997 3H19C19.2648 3.00012 19.5188 3.10532 19.7062 3.2925L26.7062 10.2925C26.7993 10.3853 26.8731 10.4956 26.9235 10.617C26.9739 10.7384 26.9999 10.8686 27 11ZM20 10H23.5862L20 6.41375V10ZM18.3375 18.0588C18.2138 18.0145 18.0826 17.995 17.9514 18.0014C17.8202 18.0079 17.6915 18.0401 17.5727 18.0963C17.454 18.1525 17.3475 18.2315 17.2593 18.3289C17.1711 18.4262 17.1029 18.54 17.0587 18.6637L15.5 23.0263L13.9412 18.6637C13.9001 18.5362 13.8338 18.4183 13.7463 18.3169C13.6587 18.2155 13.5517 18.1327 13.4316 18.0735C13.3114 18.0143 13.1806 17.9798 13.0468 17.9721C12.9131 17.9644 12.7792 17.9837 12.653 18.0287C12.5268 18.0738 12.411 18.1438 12.3124 18.2345C12.2138 18.3251 12.1345 18.4347 12.079 18.5567C12.0236 18.6786 11.9932 18.8105 11.9898 18.9444C11.9863 19.0783 12.0097 19.2116 12.0587 19.3363L14.5587 26.3363C14.628 26.5306 14.7558 26.6987 14.9244 26.8176C15.093 26.9365 15.2943 27.0003 15.5006 27.0003C15.7069 27.0003 15.9082 26.9365 16.0768 26.8176C16.2454 26.6987 16.3732 26.5306 16.4425 26.3363L18.9425 19.3363C19.0315 19.0866 19.0178 18.8118 18.9044 18.5723C18.7909 18.3327 18.587 18.148 18.3375 18.0588ZM26 22H25C24.7348 22 24.4804 22.1054 24.2929 22.2929C24.1053 22.4804 24 22.7348 24 23C24 23.2652 24.1053 23.5196 24.2929 23.7071C24.4804 23.8946 24.7348 24 25 24V24.6612C24.712 24.8792 24.3611 24.998 24 25C22.8975 25 22 23.875 22 22.5C22 21.125 22.8975 20 24 20C24.3366 20.0013 24.6649 20.1051 24.9412 20.2975C25.1611 20.4407 25.4284 20.4917 25.6855 20.4396C25.9426 20.3875 26.169 20.2364 26.3158 20.019C26.4625 19.8015 26.518 19.5351 26.4701 19.2771C26.4223 19.0192 26.275 18.7903 26.06 18.64C25.4529 18.2253 24.7352 18.0023 24 18C21.795 18 20 20.0187 20 22.5C20 24.9813 21.795 27 24 27C24.5116 26.9959 25.0169 26.8873 25.4851 26.6809C25.9532 26.4746 26.3743 26.1748 26.7225 25.8C26.9005 25.6139 26.9999 25.3663 27 25.1087V23C27 22.7348 26.8946 22.4804 26.7071 22.2929C26.5195 22.1054 26.2652 22 26 22Z" fill="#4A4A4F"/>
</svg>
