<svg width="32" height="32" viewBox="0 0 32 32" fill="none" xmlns="http://www.w3.org/2000/svg">
<path d="M16 19C16 19.2652 15.8946 19.5196 15.7071 19.7071C15.5196 19.8946 15.2652 20 15 20H14V26C14 26.2652 13.8946 26.5196 13.7071 26.7071C13.5196 26.8946 13.2652 27 13 27C12.7348 27 12.4804 26.8946 12.2929 26.7071C12.1054 26.5196 12 26.2652 12 26V20H11C10.7348 20 10.4804 19.8946 10.2929 19.7071C10.1054 19.5196 10 19.2652 10 19C10 18.7348 10.1054 18.4804 10.2929 18.2929C10.4804 18.1054 10.7348 18 11 18H15C15.2652 18 15.5196 18.1054 15.7071 18.2929C15.8946 18.4804 16 18.7348 16 19ZM8 18C7.73478 18 7.48043 18.1054 7.29289 18.2929C7.10536 18.4804 7 18.7348 7 19V21.5H5V19C5 18.7348 4.89464 18.4804 4.70711 18.2929C4.51957 18.1054 4.26522 18 4 18C3.73478 18 3.48043 18.1054 3.29289 18.2929C3.10536 18.4804 3 18.7348 3 19V26C3 26.2652 3.10536 26.5196 3.29289 26.7071C3.48043 26.8946 3.73478 27 4 27C4.26522 27 4.51957 26.8946 4.70711 26.7071C4.89464 26.5196 5 26.2652 5 26V23.5H7V26C7 26.2652 7.10536 26.5196 7.29289 26.7071C7.48043 26.8946 7.73478 27 8 27C8.26522 27 8.51957 26.8946 8.70711 26.7071C8.89464 26.5196 9 26.2652 9 26V19C9 18.7348 8.89464 18.4804 8.70711 18.2929C8.51957 18.1054 8.26522 18 8 18ZM30 25H28.5V19C28.5 18.7348 28.3946 18.4804 28.2071 18.2929C28.0196 18.1054 27.7652 18 27.5 18C27.2348 18 26.9804 18.1054 26.7929 18.2929C26.6054 18.4804 26.5 18.7348 26.5 19V26C26.5 26.2652 26.6054 26.5196 26.7929 26.7071C26.9804 26.8946 27.2348 27 27.5 27H30C30.2652 27 30.5196 26.8946 30.7071 26.7071C30.8946 26.5196 31 26.2652 31 26C31 25.7348 30.8946 25.4804 30.7071 25.2929C30.5196 25.1054 30.2652 25 30 25ZM24.2675 18.0362C24.0567 17.9777 23.8325 17.9899 23.6293 18.0709C23.4261 18.152 23.2551 18.2974 23.1425 18.485L21 22.0562L18.8575 18.485C18.745 18.2974 18.574 18.1519 18.3709 18.0708C18.1677 17.9897 17.9436 17.9774 17.7328 18.0358C17.522 18.0943 17.3362 18.2202 17.2039 18.3944C17.0715 18.5685 16.9999 18.7813 17 19V26C17 26.2652 17.1054 26.5196 17.2929 26.7071C17.4804 26.8946 17.7348 27 18 27C18.2652 27 18.5196 26.8946 18.7071 26.7071C18.8946 26.5196 19 26.2652 19 26V22.61L20.1425 24.515C20.2313 24.6631 20.357 24.7856 20.5073 24.8707C20.6576 24.9558 20.8273 25.0005 21 25.0005C21.1727 25.0005 21.3424 24.9558 21.4927 24.8707C21.643 24.7856 21.7687 24.6631 21.8575 24.515L23 22.61V26C23 26.2652 23.1054 26.5196 23.2929 26.7071C23.4804 26.8946 23.7348 27 24 27C24.2652 27 24.5196 26.8946 24.7071 26.7071C24.8946 26.5196 25 26.2652 25 26V19C25 18.7814 24.9284 18.5688 24.7961 18.3947C24.6638 18.2206 24.4782 18.0947 24.2675 18.0362ZM26 15C25.7348 15 25.4804 14.8946 25.2929 14.7071C25.1054 14.5196 25 14.2652 25 14V12H19C18.7348 12 18.4804 11.8946 18.2929 11.7071C18.1054 11.5196 18 11.2652 18 11V5H7V14C7 14.2652 6.89464 14.5196 6.70711 14.7071C6.51957 14.8946 6.26522 15 6 15C5.73478 15 5.48043 14.8946 5.29289 14.7071C5.10536 14.5196 5 14.2652 5 14V5C5 4.46957 5.21071 3.96086 5.58579 3.58579C5.96086 3.21071 6.46957 3 7 3H19C19.1314 2.9999 19.2615 3.02568 19.3829 3.07586C19.5042 3.12605 19.6146 3.19967 19.7075 3.2925L26.7075 10.2925C26.8003 10.3854 26.8739 10.4958 26.9241 10.6172C26.9743 10.7385 27.0001 10.8686 27 11V14C27 14.2652 26.8946 14.5196 26.7071 14.7071C26.5196 14.8946 26.2652 15 26 15ZM23.5863 10L20 6.41375V10H23.5863Z" fill="#4A4A4F"/>
</svg>
