<svg width="32" height="32" viewBox="0 0 32 32" fill="none" xmlns="http://www.w3.org/2000/svg">
<path d="M26.7075 10.2925L19.7075 3.2925C19.6146 3.19967 19.5042 3.12605 19.3829 3.07586C19.2615 3.02568 19.1314 2.9999 19 3H7C6.46957 3 5.96086 3.21071 5.58579 3.58579C5.21071 3.96086 5 4.46957 5 5V14C5 14.2652 5.10536 14.5196 5.29289 14.7071C5.48043 14.8946 5.73478 15 6 15H20C20.2652 15 20.5196 15.1054 20.7071 15.2929C20.8946 15.4804 21 15.7348 21 16V28C21 28.2652 21.1054 28.5196 21.2929 28.7071C21.4804 28.8946 21.7348 29 22 29H25C25.5304 29 26.0391 28.7893 26.4142 28.4142C26.7893 28.0391 27 27.5304 27 27V11C27.0001 10.8686 26.9743 10.7385 26.9241 10.6172C26.8739 10.4958 26.8003 10.3854 26.7075 10.2925ZM19 11V5.5L24.5 11H19ZM18.4762 24.5387C18.4373 24.9212 18.314 25.2903 18.1154 25.6195C17.9168 25.9487 17.6477 26.2297 17.3275 26.4425C16.6787 26.875 15.875 27 15.1412 27C14.5029 26.996 13.8675 26.912 13.25 26.75C13.122 26.716 13.0021 26.657 12.8971 26.5763C12.7921 26.4957 12.7042 26.395 12.6384 26.28C12.5727 26.1651 12.5304 26.0383 12.5141 25.9069C12.4977 25.7755 12.5076 25.6422 12.5432 25.5147C12.5788 25.3871 12.6394 25.2679 12.7214 25.164C12.8034 25.0601 12.9052 24.9734 13.021 24.9092C13.1367 24.8449 13.2641 24.8043 13.3957 24.7896C13.5273 24.7749 13.6604 24.7865 13.7875 24.8237C14.335 24.9737 15.6625 25.1612 16.2313 24.7787C16.3413 24.705 16.46 24.5888 16.4988 24.2875C16.5425 23.9538 16.41 23.775 14.9012 23.3388C13.7325 23.0013 11.7762 22.435 12.0262 20.45C12.0652 20.0751 12.1862 19.7133 12.3807 19.3904C12.5751 19.0674 12.8382 18.7912 13.1512 18.5812C14.6313 17.5812 16.99 18.1675 17.255 18.2362C17.5116 18.3037 17.7309 18.4703 17.8646 18.6995C17.9984 18.9286 18.0356 19.2015 17.9681 19.4581C17.9007 19.7147 17.734 19.934 17.5049 20.0677C17.2757 20.2015 17.0028 20.2387 16.7463 20.1712C16.185 20.025 14.8425 19.8512 14.2675 20.2412C14.1921 20.2921 14.1301 20.3603 14.0866 20.4401C14.0431 20.52 14.0194 20.6091 14.0175 20.7C14.0025 20.8125 14 20.8363 14.1562 20.9375C14.445 21.1238 14.9625 21.2725 15.4625 21.4175C16.6862 21.7712 18.7562 22.375 18.4762 24.5387ZM10 19V23.75C10 24.612 9.65759 25.4386 9.0481 26.0481C8.4386 26.6576 7.61195 27 6.75 27C5.88805 27 5.0614 26.6576 4.4519 26.0481C3.84241 25.4386 3.5 24.612 3.5 23.75C3.5 23.4848 3.60536 23.2304 3.79289 23.0429C3.98043 22.8554 4.23478 22.75 4.5 22.75C4.76522 22.75 5.01957 22.8554 5.20711 23.0429C5.39464 23.2304 5.5 23.4848 5.5 23.75C5.5 24.0815 5.6317 24.3995 5.86612 24.6339C6.10054 24.8683 6.41848 25 6.75 25C7.08152 25 7.39946 24.8683 7.63388 24.6339C7.8683 24.3995 8 24.0815 8 23.75V19C8 18.7348 8.10536 18.4804 8.29289 18.2929C8.48043 18.1054 8.73478 18 9 18C9.26522 18 9.51957 18.1054 9.70711 18.2929C9.89464 18.4804 10 18.7348 10 19Z" fill="#4A4A4F"/>
</svg>
