<svg width="32" height="32" viewBox="0 0 32 32" fill="none" xmlns="http://www.w3.org/2000/svg">
<path d="M26.7075 10.2925L19.7075 3.2925C19.6146 3.19967 19.5042 3.12605 19.3829 3.07586C19.2615 3.02568 19.1314 2.9999 19 3H7C6.46957 3 5.96086 3.21071 5.58579 3.58579C5.21071 3.96086 5 4.46957 5 5V27C5 27.5304 5.21071 28.0391 5.58579 28.4142C5.96086 28.7893 6.46957 29 7 29H25C25.5304 29 26.0391 28.7893 26.4142 28.4142C26.7893 28.0391 27 27.5304 27 27V11C27.0001 10.8686 26.9743 10.7385 26.9241 10.6172C26.8739 10.4958 26.8003 10.3854 26.7075 10.2925ZM13.7075 21.2925C13.8004 21.3854 13.8741 21.4957 13.9244 21.6171C13.9747 21.7385 14.0006 21.8686 14.0006 22C14.0006 22.1314 13.9747 22.2615 13.9244 22.3829C13.8741 22.5043 13.8004 22.6146 13.7075 22.7075C13.6146 22.8004 13.5043 22.8741 13.3829 22.9244C13.2615 22.9747 13.1314 23.0006 13 23.0006C12.8686 23.0006 12.7385 22.9747 12.6171 22.9244C12.4957 22.8741 12.3854 22.8004 12.2925 22.7075L9.2925 19.7075C9.19952 19.6146 9.12576 19.5043 9.07544 19.3829C9.02512 19.2615 8.99921 19.1314 8.99921 19C8.99921 18.8686 9.02512 18.7385 9.07544 18.6171C9.12576 18.4957 9.19952 18.3854 9.2925 18.2925L12.2925 15.2925C12.4801 15.1049 12.7346 14.9994 13 14.9994C13.2654 14.9994 13.5199 15.1049 13.7075 15.2925C13.8951 15.4801 14.0006 15.7346 14.0006 16C14.0006 16.2654 13.8951 16.5199 13.7075 16.7075L11.4137 19L13.7075 21.2925ZM22.7075 19.7075L19.7075 22.7075C19.5199 22.8951 19.2654 23.0006 19 23.0006C18.7346 23.0006 18.4801 22.8951 18.2925 22.7075C18.1049 22.5199 17.9994 22.2654 17.9994 22C17.9994 21.7346 18.1049 21.4801 18.2925 21.2925L20.5863 19L18.2925 16.7075C18.1049 16.5199 17.9994 16.2654 17.9994 16C17.9994 15.7346 18.1049 15.4801 18.2925 15.2925C18.4801 15.1049 18.7346 14.9994 19 14.9994C19.2654 14.9994 19.5199 15.1049 19.7075 15.2925L22.7075 18.2925C22.8005 18.3854 22.8742 18.4957 22.9246 18.6171C22.9749 18.7385 23.0008 18.8686 23.0008 19C23.0008 19.1314 22.9749 19.2615 22.9246 19.3829C22.8742 19.5043 22.8005 19.6146 22.7075 19.7075ZM19 11V5.5L24.5 11H19Z" fill="#4A4A4F"/>
</svg>
