<svg width="32" height="32" viewBox="0 0 32 32" fill="none" xmlns="http://www.w3.org/2000/svg">
<path d="M26.7075 10.2925L19.7075 3.2925C19.6145 3.19967 19.5042 3.12605 19.3828 3.07586C19.2614 3.02568 19.1313 2.9999 19 3H6.99997C6.46954 3 5.96083 3.21071 5.58576 3.58579C5.21068 3.96086 4.99997 4.46957 4.99997 5V14C4.99997 14.2652 5.10533 14.5196 5.29286 14.7071C5.4804 14.8946 5.73475 15 5.99997 15H26C26.2652 15 26.5195 14.8946 26.7071 14.7071C26.8946 14.5196 27 14.2652 27 14V11C27.0001 10.8686 26.9743 10.7385 26.9241 10.6172C26.8739 10.4958 26.8003 10.3854 26.7075 10.2925ZM19 11V5.5L24.5 11H19ZM10.9775 24.5387C10.9385 24.9212 10.8153 25.2903 10.6166 25.6195C10.418 25.9487 10.1489 26.2297 9.82872 26.4425C9.17997 26.875 8.37497 27 7.64247 27C7.00368 26.996 6.3679 26.912 5.74997 26.75C5.49757 26.6761 5.28446 26.5057 5.15678 26.2758C5.02911 26.0458 4.99715 25.7749 5.06784 25.5215C5.13853 25.2682 5.30616 25.0529 5.53444 24.9223C5.76272 24.7917 6.03326 24.7563 6.28747 24.8237C6.83497 24.9737 8.15622 25.1612 8.73122 24.7787C8.84122 24.705 8.95997 24.5888 8.99872 24.2875C9.04247 23.9538 8.90997 23.775 7.40122 23.3388C6.23247 23.0013 4.27622 22.435 4.52622 20.45C4.56513 20.075 4.68609 19.7132 4.88052 19.3903C5.07494 19.0673 5.33807 18.7911 5.65122 18.5812C7.13122 17.5812 9.49122 18.1675 9.75497 18.2362C10.0116 18.3037 10.2309 18.4703 10.3646 18.6995C10.4983 18.9286 10.5356 19.2015 10.4681 19.4581C10.4006 19.7147 10.234 19.934 10.0049 20.0677C9.7757 20.2015 9.50282 20.2387 9.24622 20.1712C8.68622 20.025 7.34247 19.8512 6.76747 20.2412C6.6921 20.2921 6.63005 20.3603 6.58654 20.4401C6.54303 20.52 6.51934 20.6091 6.51747 20.7C6.50372 20.8125 6.49997 20.8363 6.65747 20.9375C6.94622 21.1238 7.46247 21.2725 7.96372 21.4175C9.18747 21.7712 11.2575 22.375 10.9775 24.5387ZM18.9425 19.3363L16.4425 26.3363C16.3732 26.5306 16.2454 26.6987 16.0768 26.8176C15.9082 26.9365 15.7069 27.0003 15.5006 27.0003C15.2943 27.0003 15.093 26.9365 14.9244 26.8176C14.7558 26.6987 14.628 26.5306 14.5587 26.3363L12.0587 19.3363C12.0097 19.2116 11.9863 19.0783 11.9898 18.9444C11.9932 18.8105 12.0236 18.6786 12.079 18.5567C12.1345 18.4347 12.2138 18.3251 12.3124 18.2345C12.411 18.1438 12.5268 18.0738 12.653 18.0287C12.7792 17.9837 12.9131 17.9644 13.0468 17.9721C13.1806 17.9798 13.3114 18.0143 13.4316 18.0735C13.5517 18.1327 13.6587 18.2155 13.7463 18.3169C13.8338 18.4183 13.9001 18.5362 13.9412 18.6637L15.5 23.0263L17.0575 18.6637C17.1466 18.4139 17.3314 18.2098 17.5711 18.0962C17.8108 17.9827 18.0858 17.9689 18.3356 18.0581C18.5854 18.1473 18.7895 18.3321 18.9031 18.5718C19.0167 18.8115 19.0304 19.0864 18.9412 19.3363H18.9425ZM27 23V25.1087C26.9999 25.3663 26.9005 25.6139 26.7225 25.8C26.3743 26.1748 25.9532 26.4746 25.4851 26.6809C25.0169 26.8873 24.5116 26.9959 24 27C21.795 27 20 24.9813 20 22.5C20 20.0187 21.795 18 24 18C24.7352 18.0023 25.4529 18.2253 26.06 18.64C26.275 18.7903 26.4223 19.0192 26.4701 19.2771C26.518 19.5351 26.4625 19.8015 26.3158 20.019C26.169 20.2364 25.9426 20.3875 25.6855 20.4396C25.4284 20.4917 25.1611 20.4407 24.9412 20.2975C24.6649 20.1051 24.3366 20.0013 24 20C22.8975 20 22 21.125 22 22.5C22 23.875 22.8975 25 24 25C24.3611 24.998 24.712 24.8792 25 24.6612V24C24.7348 24 24.4804 23.8946 24.2929 23.7071C24.1053 23.5196 24 23.2652 24 23C24 22.7348 24.1053 22.4804 24.2929 22.2929C24.4804 22.1054 24.7348 22 25 22H26C26.2652 22 26.5195 22.1054 26.7071 22.2929C26.8946 22.4804 27 22.7348 27 23Z" fill="#4A4A4F"/>
</svg>
