<svg width="32" height="32" viewBox="0 0 32 32" fill="none" xmlns="http://www.w3.org/2000/svg">
<path d="M26.7075 10.2925L19.7075 3.2925C19.6146 3.19967 19.5042 3.12605 19.3829 3.07586C19.2615 3.02568 19.1314 2.9999 19 3H7C6.46957 3 5.96086 3.21071 5.58579 3.58579C5.21071 3.96086 5 4.46957 5 5V14C5 14.2652 5.10536 14.5196 5.29289 14.7071C5.48043 14.8946 5.73478 15 6 15H26C26.2652 15 26.5196 14.8946 26.7071 14.7071C26.8946 14.5196 27 14.2652 27 14V11C27.0001 10.8686 26.9743 10.7385 26.9241 10.6172C26.8739 10.4958 26.8003 10.3854 26.7075 10.2925ZM19 11V5.5L24.5 11H19ZM26.8137 19.5812L24.7288 22.5L26.8137 25.4188C26.9541 25.6346 27.0057 25.8963 26.9579 26.1494C26.9101 26.4024 26.7665 26.6272 26.5571 26.777C26.3477 26.9268 26.0886 26.9901 25.8337 26.9536C25.5788 26.9172 25.3478 26.7838 25.1887 26.5812L23.5 24.22L21.8137 26.5812C21.7401 26.6945 21.6443 26.7917 21.5321 26.8669C21.4199 26.9421 21.2937 26.9938 21.1609 27.0189C21.0282 27.044 20.8918 27.0419 20.7599 27.0128C20.628 26.9837 20.5033 26.9282 20.3935 26.8496C20.2836 26.771 20.1908 26.671 20.1207 26.5555C20.0505 26.4401 20.0045 26.3116 19.9854 26.1779C19.9662 26.0442 19.9744 25.908 20.0093 25.7775C20.0443 25.647 20.1053 25.525 20.1887 25.4188L22.2712 22.5L20.1863 19.5812C20.0459 19.3654 19.9943 19.1037 20.0421 18.8506C20.0899 18.5976 20.2335 18.3728 20.4429 18.223C20.6523 18.0732 20.9114 18.0099 21.1663 18.0464C21.4212 18.0828 21.6522 18.2162 21.8113 18.4188L23.5 20.78L25.1863 18.4188C25.3453 18.2162 25.5763 18.0828 25.8312 18.0464C26.0861 18.0099 26.3452 18.0732 26.5546 18.223C26.764 18.3728 26.9076 18.5976 26.9554 18.8506C27.0032 19.1037 26.9516 19.3654 26.8113 19.5812H26.8137ZM18.4762 24.5387C18.4373 24.9212 18.314 25.2903 18.1154 25.6195C17.9168 25.9487 17.6477 26.2297 17.3275 26.4425C16.6787 26.875 15.875 27 15.1412 27C14.5028 26.9969 13.8673 26.9129 13.25 26.75C13.122 26.716 13.0021 26.657 12.8971 26.5763C12.7921 26.4957 12.7042 26.395 12.6384 26.28C12.5727 26.1651 12.5304 26.0383 12.5141 25.9069C12.4977 25.7755 12.5076 25.6422 12.5432 25.5147C12.5788 25.3871 12.6394 25.2679 12.7214 25.164C12.8034 25.0601 12.9052 24.9734 13.021 24.9092C13.1367 24.8449 13.2641 24.8043 13.3957 24.7896C13.5273 24.7749 13.6604 24.7865 13.7875 24.8237C14.335 24.975 15.6625 25.1625 16.2313 24.78C16.3413 24.705 16.46 24.59 16.4988 24.2887C16.5413 23.955 16.4087 23.7763 14.9012 23.34C13.7325 23.0025 11.7762 22.4363 12.0262 20.45C12.0656 20.0753 12.1867 19.7139 12.3811 19.3912C12.5755 19.0685 12.8384 18.7924 13.1512 18.5825C14.6325 17.5825 16.9913 18.1687 17.2563 18.2375C17.5128 18.305 17.7321 18.4716 17.8659 18.7007C17.9996 18.9299 18.0368 19.2028 17.9694 19.4594C17.9019 19.716 17.7353 19.9353 17.5061 20.069C17.277 20.2027 17.0041 20.24 16.7475 20.1725C16.1862 20.0263 14.8438 19.8525 14.2688 20.2425C14.1934 20.2933 14.1313 20.3616 14.0878 20.4414C14.0443 20.5212 14.0206 20.6103 14.0188 20.7013C14.0037 20.8137 14.0013 20.8362 14.1575 20.9387C14.4462 21.125 14.9637 21.2738 15.4637 21.4188C16.6862 21.7713 18.75 22.375 18.4762 24.5387ZM11 19C11 19.2652 10.8946 19.5196 10.7071 19.7071C10.5196 19.8946 10.2652 20 10 20H8.5V26C8.5 26.2652 8.39464 26.5196 8.20711 26.7071C8.01957 26.8946 7.76522 27 7.5 27C7.23478 27 6.98043 26.8946 6.79289 26.7071C6.60536 26.5196 6.5 26.2652 6.5 26V20H5C4.73478 20 4.48043 19.8946 4.29289 19.7071C4.10536 19.5196 4 19.2652 4 19C4 18.7348 4.10536 18.4804 4.29289 18.2929C4.48043 18.1054 4.73478 18 5 18H10C10.2652 18 10.5196 18.1054 10.7071 18.2929C10.8946 18.4804 11 18.7348 11 19Z" fill="#4A4A4F"/>
</svg>
