<svg width="32" height="32" viewBox="0 0 32 32" fill="none" xmlns="http://www.w3.org/2000/svg">
<path d="M22.7075 18.2925C22.8005 18.3854 22.8742 18.4957 22.9246 18.6171C22.9749 18.7385 23.0008 18.8686 23.0008 19C23.0008 19.1314 22.9749 19.2615 22.9246 19.3829C22.8742 19.5043 22.8005 19.6146 22.7075 19.7075L19.7075 22.7075C19.5199 22.8951 19.2654 23.0006 19 23.0006C18.7346 23.0006 18.4801 22.8951 18.2925 22.7075C18.1049 22.5199 17.9994 22.2654 17.9994 22C17.9994 21.7346 18.1049 21.4801 18.2925 21.2925L20.5863 19L18.2925 16.7075C18.1049 16.5199 17.9994 16.2654 17.9994 16C17.9994 15.7346 18.1049 15.4801 18.2925 15.2925C18.4801 15.1049 18.7346 14.9994 19 14.9994C19.2654 14.9994 19.5199 15.1049 19.7075 15.2925L22.7075 18.2925ZM13.7075 15.2925C13.6146 15.1995 13.5043 15.1258 13.3829 15.0754C13.2615 15.0251 13.1314 14.9992 13 14.9992C12.8686 14.9992 12.7385 15.0251 12.6171 15.0754C12.4957 15.1258 12.3854 15.1995 12.2925 15.2925L9.2925 18.2925C9.19952 18.3854 9.12576 18.4957 9.07544 18.6171C9.02512 18.7385 8.99921 18.8686 8.99921 19C8.99921 19.1314 9.02512 19.2615 9.07544 19.3829C9.12576 19.5043 9.19952 19.6146 9.2925 19.7075L12.2925 22.7075C12.3854 22.8004 12.4957 22.8741 12.6171 22.9244C12.7385 22.9747 12.8686 23.0006 13 23.0006C13.1314 23.0006 13.2615 22.9747 13.3829 22.9244C13.5043 22.8741 13.6146 22.8004 13.7075 22.7075C13.8004 22.6146 13.8741 22.5043 13.9244 22.3829C13.9747 22.2615 14.0006 22.1314 14.0006 22C14.0006 21.8686 13.9747 21.7385 13.9244 21.6171C13.8741 21.4957 13.8004 21.3854 13.7075 21.2925L11.4137 19L13.7075 16.7075C13.8005 16.6146 13.8742 16.5043 13.9246 16.3829C13.9749 16.2615 14.0008 16.1314 14.0008 16C14.0008 15.8686 13.9749 15.7385 13.9246 15.6171C13.8742 15.4957 13.8005 15.3854 13.7075 15.2925ZM27 11V27C27 27.5304 26.7893 28.0391 26.4142 28.4142C26.0391 28.7893 25.5304 29 25 29H7C6.46957 29 5.96086 28.7893 5.58579 28.4142C5.21071 28.0391 5 27.5304 5 27V5C5 4.46957 5.21071 3.96086 5.58579 3.58579C5.96086 3.21071 6.46957 3 7 3H19C19.1314 2.9999 19.2615 3.02568 19.3829 3.07586C19.5042 3.12605 19.6146 3.19967 19.7075 3.2925L26.7075 10.2925C26.8003 10.3854 26.8739 10.4958 26.9241 10.6172C26.9743 10.7385 27.0001 10.8686 27 11ZM20 10H23.5863L20 6.41375V10ZM25 27V12H19C18.7348 12 18.4804 11.8946 18.2929 11.7071C18.1054 11.5196 18 11.2652 18 11V5H7V27H25Z" fill="#4A4A4F"/>
</svg>
