<svg width="32" height="32" viewBox="0 0 32 32" fill="none" xmlns="http://www.w3.org/2000/svg">
<path d="M19.5001 26C19.5001 26.2652 19.3947 26.5196 19.2072 26.7071C19.0196 26.8946 18.7653 27 18.5001 27H15.0001C14.7348 27 14.4805 26.8946 14.293 26.7071C14.1054 26.5196 14.0001 26.2652 14.0001 26V19C14.0001 18.7348 14.1054 18.4804 14.293 18.2929C14.4805 18.1054 14.7348 18 15.0001 18C15.2653 18 15.5196 18.1054 15.7072 18.2929C15.8947 18.4804 16.0001 18.7348 16.0001 19V25H18.5001C18.7653 25 19.0196 25.1054 19.2072 25.2929C19.3947 25.4804 19.5001 25.7348 19.5001 26ZM11.5813 18.1863C11.4744 18.1099 11.3536 18.0554 11.2257 18.0258C11.0977 17.9961 10.9652 17.992 10.8357 18.0136C10.7061 18.0352 10.5821 18.0821 10.4707 18.1516C10.3593 18.2211 10.2626 18.3119 10.1863 18.4188L8.50006 20.78L6.81381 18.4188C6.7402 18.3055 6.6444 18.2083 6.53221 18.1331C6.42001 18.0579 6.29374 18.0062 6.161 17.9811C6.02827 17.956 5.89184 17.9581 5.75993 17.9872C5.62802 18.0163 5.50337 18.0718 5.39351 18.1504C5.28365 18.229 5.19085 18.329 5.12071 18.4445C5.05057 18.5599 5.00455 18.6884 4.98542 18.8221C4.96629 18.9558 4.97445 19.092 5.00941 19.2225C5.04436 19.353 5.10539 19.475 5.18881 19.5812L7.27131 22.5L5.18631 25.4188C5.04599 25.6346 4.99436 25.8963 5.04217 26.1494C5.08997 26.4024 5.23353 26.6272 5.44295 26.777C5.65237 26.9268 5.91151 26.9901 6.1664 26.9536C6.42129 26.9172 6.6523 26.7838 6.81131 26.5812L8.50006 24.22L10.1863 26.5812C10.3453 26.7838 10.5763 26.9172 10.8312 26.9536C11.0861 26.9901 11.3453 26.9268 11.5547 26.777C11.7641 26.6272 11.9076 26.4024 11.9555 26.1494C12.0033 25.8963 11.9516 25.6346 11.8113 25.4188L9.72881 22.5L11.8138 19.5812C11.8901 19.4744 11.9447 19.3535 11.9743 19.2256C12.0039 19.0977 12.0081 18.9651 11.9865 18.8356C11.9649 18.7061 11.918 18.582 11.8485 18.4706C11.779 18.3592 11.6882 18.2626 11.5813 18.1863ZM23.9488 21.4137C23.4488 21.2687 22.9313 21.12 22.6426 20.9338C22.4863 20.8312 22.4888 20.8088 22.5026 20.6963C22.5044 20.6054 22.5281 20.5162 22.5716 20.4364C22.6151 20.3566 22.6772 20.2883 22.7526 20.2375C23.3276 19.8475 24.6701 20.0225 25.2301 20.1675C25.4867 20.235 25.7595 20.1977 25.9887 20.064C26.2178 19.9303 26.3845 19.711 26.4519 19.4544C26.5194 19.1978 26.4822 18.9249 26.3484 18.6957C26.2147 18.4666 25.9954 18.3 25.7388 18.2325C25.4751 18.1637 23.1138 17.58 21.6351 18.5775C21.3232 18.7882 21.0615 19.0647 20.8682 19.3876C20.6749 19.7105 20.5547 20.0719 20.5163 20.4463C20.2663 22.4313 22.2226 22.9975 23.3913 23.335C24.8988 23.7712 25.0313 23.95 24.9888 24.2838C24.9501 24.585 24.8313 24.7 24.7201 24.775C24.1451 25.1575 22.8251 24.9688 22.2776 24.8188C22.0215 24.7476 21.7476 24.7812 21.5162 24.912C21.4017 24.9768 21.301 25.0635 21.2199 25.1671C21.1389 25.2708 21.079 25.3894 21.0438 25.5163C21.0086 25.6431 20.9987 25.7756 21.0147 25.9062C21.0307 26.0368 21.0723 26.163 21.137 26.2776C21.2678 26.509 21.4852 26.6789 21.7413 26.75C22.3611 26.9133 22.9991 26.9973 23.6401 27C24.3676 27 25.1776 26.875 25.8263 26.4425C26.1463 26.2297 26.4152 25.9485 26.6137 25.6194C26.8121 25.2902 26.9351 24.9211 26.9738 24.5387C27.2501 22.375 25.1851 21.7712 23.9488 21.4137ZM5.00006 14V5C5.00006 4.46957 5.21077 3.96086 5.58585 3.58579C5.96092 3.21071 6.46963 3 7.00006 3H19.0001C19.1314 2.9999 19.2615 3.02568 19.3829 3.07586C19.5043 3.12605 19.6146 3.19967 19.7076 3.2925L26.7076 10.2925C26.8004 10.3854 26.874 10.4958 26.9242 10.6172C26.9744 10.7385 27.0002 10.8686 27.0001 11V14C27.0001 14.2652 26.8947 14.5196 26.7072 14.7071C26.5196 14.8946 26.2653 15 26.0001 15C25.7348 15 25.4805 14.8946 25.293 14.7071C25.1054 14.5196 25.0001 14.2652 25.0001 14V12H19.0001C18.7348 12 18.4805 11.8946 18.293 11.7071C18.1054 11.5196 18.0001 11.2652 18.0001 11V5H7.00006V14C7.00006 14.2652 6.8947 14.5196 6.70717 14.7071C6.51963 14.8946 6.26528 15 6.00006 15C5.73484 15 5.48049 14.8946 5.29295 14.7071C5.10542 14.5196 5.00006 14.2652 5.00006 14ZM20.0001 10H23.5851L20.0001 6.41375V10Z" fill="#4A4A4F"/>
</svg>
