<svg width="32" height="32" viewBox="0 0 32 32" fill="none" xmlns="http://www.w3.org/2000/svg">
<path d="M10 28C10 28.2652 9.89464 28.5196 9.70711 28.7071C9.51957 28.8946 9.26522 29 9 29H7C6.46957 29 5.96086 28.7893 5.58579 28.4142C5.21071 28.0391 5 27.5304 5 27V23C5 22.7348 5.10536 22.4804 5.29289 22.2929C5.48043 22.1054 5.73478 22 6 22C6.26522 22 6.51957 22.1054 6.70711 22.2929C6.89464 22.4804 7 22.7348 7 23V27H9C9.26522 27 9.51957 27.1054 9.70711 27.2929C9.89464 27.4804 10 27.7348 10 28ZM26.7075 10.2925L19.7075 3.2925C19.6146 3.19967 19.5042 3.12605 19.3829 3.07586C19.2615 3.02568 19.1314 2.9999 19 3H15C14.7348 3 14.4804 3.10536 14.2929 3.29289C14.1054 3.48043 14 3.73478 14 4C14 4.26522 14.1054 4.51957 14.2929 4.70711C14.4804 4.89464 14.7348 5 15 5H18V11C18 11.2652 18.1054 11.5196 18.2929 11.7071C18.4804 11.8946 18.7348 12 19 12H25V17C25 17.2652 25.1054 17.5196 25.2929 17.7071C25.4804 17.8946 25.7348 18 26 18C26.2652 18 26.5196 17.8946 26.7071 17.7071C26.8946 17.5196 27 17.2652 27 17V11C27.0001 10.8686 26.9743 10.7385 26.9241 10.6172C26.8739 10.4958 26.8003 10.3854 26.7075 10.2925ZM10 3H7C6.46957 3 5.96086 3.21071 5.58579 3.58579C5.21071 3.96086 5 4.46957 5 5V8C5 8.26522 5.10536 8.51957 5.29289 8.70711C5.48043 8.89464 5.73478 9 6 9C6.26522 9 6.51957 8.89464 6.70711 8.70711C6.89464 8.51957 7 8.26522 7 8V5H10C10.2652 5 10.5196 4.89464 10.7071 4.70711C10.8946 4.51957 11 4.26522 11 4C11 3.73478 10.8946 3.48043 10.7071 3.29289C10.5196 3.10536 10.2652 3 10 3ZM26 21C25.7348 21 25.4804 21.1054 25.2929 21.2929C25.1054 21.4804 25 21.7348 25 22V27H24C23.7348 27 23.4804 27.1054 23.2929 27.2929C23.1054 27.4804 23 27.7348 23 28C23 28.2652 23.1054 28.5196 23.2929 28.7071C23.4804 28.8946 23.7348 29 24 29H25C25.5304 29 26.0391 28.7893 26.4142 28.4142C26.7893 28.0391 27 27.5304 27 27V22C27 21.7348 26.8946 21.4804 26.7071 21.2929C26.5196 21.1054 26.2652 21 26 21ZM6 19C6.26522 19 6.51957 18.8946 6.70711 18.7071C6.89464 18.5196 7 18.2652 7 18V13C7 12.7348 6.89464 12.4804 6.70711 12.2929C6.51957 12.1054 6.26522 12 6 12C5.73478 12 5.48043 12.1054 5.29289 12.2929C5.10536 12.4804 5 12.7348 5 13V18C5 18.2652 5.10536 18.5196 5.29289 18.7071C5.48043 18.8946 5.73478 19 6 19ZM19 27H14C13.7348 27 13.4804 27.1054 13.2929 27.2929C13.1054 27.4804 13 27.7348 13 28C13 28.2652 13.1054 28.5196 13.2929 28.7071C13.4804 28.8946 13.7348 29 14 29H19C19.2652 29 19.5196 28.8946 19.7071 28.7071C19.8946 28.5196 20 28.2652 20 28C20 27.7348 19.8946 27.4804 19.7071 27.2929C19.5196 27.1054 19.2652 27 19 27Z" fill="#4A4A4F"/>
</svg>
