<svg width="32" height="32" viewBox="0 0 32 32" fill="none" xmlns="http://www.w3.org/2000/svg">
<path d="M26.9999 13.0002H12.7612L26.2499 9.43891C26.3776 9.40527 26.4974 9.34667 26.6023 9.26651C26.7072 9.18634 26.7952 9.08619 26.8612 8.97184C26.9272 8.85749 26.9699 8.73119 26.9869 8.60025C27.0038 8.4693 26.9947 8.3363 26.9599 8.20891L25.9399 4.45891C25.7996 3.95439 25.4661 3.52549 25.0117 3.26509C24.5574 3.00469 24.0187 2.93376 23.5124 3.06766L4.47619 8.09266C4.22272 8.15845 3.98493 8.27416 3.77673 8.43299C3.56854 8.59182 3.39412 8.79059 3.26369 9.01766C3.13253 9.24195 3.04779 9.49031 3.01451 9.74799C2.98123 10.0057 3.00008 10.2674 3.06994 10.5177L3.99994 13.9452C3.99994 13.9627 3.99994 13.9814 3.99994 14.0002V25.0002C3.99994 25.5306 4.21065 26.0393 4.58573 26.4144C4.9608 26.7894 5.46951 27.0002 5.99994 27.0002H25.9999C26.5304 27.0002 27.0391 26.7894 27.4142 26.4144C27.7892 26.0393 27.9999 25.5306 27.9999 25.0002V14.0002C27.9999 13.7349 27.8946 13.4806 27.707 13.2931C27.5195 13.1055 27.2652 13.0002 26.9999 13.0002ZM24.0199 5.00016L24.7699 7.75891L21.9424 8.50891L18.4274 6.47891L24.0199 5.00016ZM15.6837 7.20016L19.1987 9.23016L14.5812 10.4489L11.0662 8.42141L15.6837 7.20016ZM5.75869 12.7777L5.00869 10.0177L8.32119 9.14266L11.8362 11.1752L5.75869 12.7777ZM25.9999 25.0002H5.99994V15.0002H25.9999V25.0002Z" fill="#4A4A4F"/>
</svg>
