<svg width="32" height="32" viewBox="0 0 32 32" fill="none" xmlns="http://www.w3.org/2000/svg">
<path d="M25 3H7C6.46957 3 5.96086 3.21071 5.58579 3.58579C5.21071 3.96086 5 4.46957 5 5V27C5 27.5304 5.21071 28.0391 5.58579 28.4142C5.96086 28.7893 6.46957 29 7 29H25C25.5304 29 26.0391 28.7893 26.4142 28.4142C26.7893 28.0391 27 27.5304 27 27V5C27 4.46957 26.7893 3.96086 26.4142 3.58579C26.0391 3.21071 25.5304 3 25 3ZM9.5 23.5C9.20333 23.5 8.91332 23.412 8.66665 23.2472C8.41997 23.0824 8.22771 22.8481 8.11418 22.574C8.00065 22.2999 7.97094 21.9983 8.02882 21.7074C8.0867 21.4164 8.22956 21.1491 8.43934 20.9393C8.64912 20.7296 8.91639 20.5867 9.20736 20.5288C9.49834 20.4709 9.79994 20.5007 10.074 20.6142C10.3481 20.7277 10.5824 20.92 10.7472 21.1666C10.912 21.4133 11 21.7033 11 22C11 22.3978 10.842 22.7794 10.5607 23.0607C10.2794 23.342 9.89782 23.5 9.5 23.5ZM9.5 17.5C9.20333 17.5 8.91332 17.412 8.66665 17.2472C8.41997 17.0824 8.22771 16.8481 8.11418 16.574C8.00065 16.2999 7.97094 15.9983 8.02882 15.7074C8.0867 15.4164 8.22956 15.1491 8.43934 14.9393C8.64912 14.7296 8.91639 14.5867 9.20736 14.5288C9.49834 14.4709 9.79994 14.5006 10.074 14.6142C10.3481 14.7277 10.5824 14.92 10.7472 15.1666C10.912 15.4133 11 15.7033 11 16C11 16.3978 10.842 16.7794 10.5607 17.0607C10.2794 17.342 9.89782 17.5 9.5 17.5ZM9.5 11.5C9.20333 11.5 8.91332 11.412 8.66665 11.2472C8.41997 11.0824 8.22771 10.8481 8.11418 10.574C8.00065 10.2999 7.97094 9.99834 8.02882 9.70736C8.0867 9.41639 8.22956 9.14912 8.43934 8.93934C8.64912 8.72956 8.91639 8.5867 9.20736 8.52882C9.49834 8.47094 9.79994 8.50065 10.074 8.61418C10.3481 8.72771 10.5824 8.91997 10.7472 9.16665C10.912 9.41332 11 9.70333 11 10C11 10.3978 10.842 10.7794 10.5607 11.0607C10.2794 11.342 9.89782 11.5 9.5 11.5Z" fill="#4A4A4F"/>
</svg>
