<svg width="32" height="32" viewBox="0 0 32 32" fill="none" xmlns="http://www.w3.org/2000/svg">
<path d="M27 5H5C4.46957 5 3.96086 5.21071 3.58579 5.58579C3.21071 5.96086 3 6.46957 3 7V25C3 25.5304 3.21071 26.0391 3.58579 26.4142C3.96086 26.7893 4.46957 27 5 27H27C27.5304 27 28.0391 26.7893 28.4142 26.4142C28.7893 26.0391 29 25.5304 29 25V7C29 6.46957 28.7893 5.96086 28.4142 5.58579C28.0391 5.21071 27.5304 5 27 5ZM5 11H15V21H5V11ZM17 9V7H21V9H17ZM15 9H11V7H15V9ZM15 23V25H11V23H15ZM17 23H21V25H17V23ZM17 21V11H27V21H17ZM27 9H23V7H27V9ZM9 7V9H5V7H9ZM5 23H9V25H5V23ZM27 25H23V23H27V25Z" fill="#4A4A4F"/>
</svg>
