<svg width="32" height="32" viewBox="0 0 32 32" fill="none" xmlns="http://www.w3.org/2000/svg">
<path d="M25 3H7C6.46957 3 5.96086 3.21071 5.58579 3.58579C5.21071 3.96086 5 4.46957 5 5V27C5 27.5304 5.21071 28.0391 5.58579 28.4142C5.96086 28.7893 6.46957 29 7 29H25C25.5304 29 26.0391 28.7893 26.4142 28.4142C26.7893 28.0391 27 27.5304 27 27V5C27 4.46957 26.7893 3.96086 26.4142 3.58579C26.0391 3.21071 25.5304 3 25 3ZM25 27H7V5H25V27ZM12 9.5C12 9.79667 11.912 10.0867 11.7472 10.3334C11.5824 10.58 11.3481 10.7723 11.074 10.8858C10.7999 10.9994 10.4983 11.0291 10.2074 10.9712C9.91639 10.9133 9.64912 10.7704 9.43934 10.5607C9.22956 10.3509 9.0867 10.0836 9.02882 9.79264C8.97094 9.50166 9.00065 9.20006 9.11418 8.92597C9.22771 8.65189 9.41997 8.41762 9.66665 8.2528C9.91332 8.08797 10.2033 8 10.5 8C10.8978 8 11.2794 8.15804 11.5607 8.43934C11.842 8.72064 12 9.10218 12 9.5ZM12 22.5C12 22.7967 11.912 23.0867 11.7472 23.3334C11.5824 23.58 11.3481 23.7723 11.074 23.8858C10.7999 23.9993 10.4983 24.0291 10.2074 23.9712C9.91639 23.9133 9.64912 23.7704 9.43934 23.5607C9.22956 23.3509 9.0867 23.0836 9.02882 22.7926C8.97094 22.5017 9.00065 22.2001 9.11418 21.926C9.22771 21.6519 9.41997 21.4176 9.66665 21.2528C9.91332 21.088 10.2033 21 10.5 21C10.8978 21 11.2794 21.158 11.5607 21.4393C11.842 21.7206 12 22.1022 12 22.5ZM12 16C12 16.2967 11.912 16.5867 11.7472 16.8334C11.5824 17.08 11.3481 17.2723 11.074 17.3858C10.7999 17.4993 10.4983 17.5291 10.2074 17.4712C9.91639 17.4133 9.64912 17.2704 9.43934 17.0607C9.22956 16.8509 9.0867 16.5836 9.02882 16.2926C8.97094 16.0017 9.00065 15.7001 9.11418 15.426C9.22771 15.1519 9.41997 14.9176 9.66665 14.7528C9.91332 14.588 10.2033 14.5 10.5 14.5C10.8978 14.5 11.2794 14.658 11.5607 14.9393C11.842 15.2206 12 15.6022 12 16Z" fill="#4A4A4F"/>
</svg>
