<svg width="32" height="32" viewBox="0 0 32 32" fill="none" xmlns="http://www.w3.org/2000/svg">
<path d="M15.8014 2.99992C8.84011 3.10617 3.15136 8.75867 3.00011 15.7187C2.94736 18.0596 3.53103 20.3709 4.68886 22.4062C4.73427 22.4858 4.80072 22.5515 4.88093 22.5959C4.96114 22.6403 5.05202 22.6619 5.14364 22.6581C5.23526 22.6544 5.32409 22.6255 5.40041 22.5747C5.47673 22.5239 5.5376 22.453 5.57636 22.3699C6.51555 20.3778 7.00178 18.2023 7.00011 15.9999C6.99923 13.8245 7.78707 11.7226 9.21761 10.0837C9.37932 9.89107 9.60605 9.76447 9.85485 9.72784C10.1037 9.69121 10.3573 9.7471 10.5676 9.88492C10.6848 9.96511 10.7836 10.0693 10.8574 10.1907C10.9312 10.312 10.9783 10.4477 10.9956 10.5887C11.0128 10.7296 10.9999 10.8727 10.9575 11.0082C10.9152 11.1438 10.8445 11.2688 10.7501 11.3749C9.62273 12.6519 9.00042 14.2965 9.00011 15.9999C9.00386 19.0004 8.20825 21.9477 6.69511 24.5387C6.63901 24.6339 6.61606 24.7451 6.62985 24.8548C6.64365 24.9645 6.69341 25.0665 6.77136 25.1449C7.26764 25.648 7.80399 26.11 8.37511 26.5262C8.43161 26.5676 8.49618 26.5967 8.56465 26.6115C8.63311 26.6264 8.70393 26.6267 8.77252 26.6125C8.84112 26.5982 8.90594 26.5697 8.96281 26.5288C9.01967 26.4878 9.0673 26.4354 9.10261 26.3749C9.63873 25.4957 10.106 24.5763 10.5001 23.6249C10.5502 23.5034 10.6237 23.393 10.7164 23.3C10.8092 23.2069 10.9193 23.133 11.0406 23.0825C11.1619 23.032 11.292 23.0059 11.4234 23.0057C11.5547 23.0055 11.6849 23.0311 11.8064 23.0812C11.9278 23.1312 12.0383 23.2047 12.1313 23.2975C12.2244 23.3902 12.2983 23.5004 12.3488 23.6217C12.3993 23.743 12.4254 23.873 12.4256 24.0044C12.4258 24.1358 12.4002 24.2659 12.3501 24.3874C11.9302 25.4037 11.4351 26.3873 10.8689 27.3299C10.8321 27.3914 10.8091 27.4601 10.8012 27.5313C10.7933 27.6025 10.8009 27.6745 10.8233 27.7426C10.8457 27.8106 10.8824 27.873 10.9311 27.9256C10.9797 27.9782 11.039 28.0198 11.1051 28.0474C12.1076 28.4563 13.1575 28.7377 14.2301 28.8849C14.3302 28.8996 14.4325 28.8836 14.5233 28.839C14.6142 28.7943 14.6893 28.7232 14.7389 28.6349C16.5711 25.3433 17.662 21.691 17.9351 17.9337C17.9406 17.7998 17.973 17.6684 18.0303 17.5473C18.0875 17.4262 18.1686 17.3179 18.2685 17.2287C18.3685 17.1395 18.4853 17.0713 18.6122 17.0282C18.739 16.985 18.8732 16.9678 19.0068 16.9775C19.1404 16.9872 19.2707 17.0237 19.3899 17.0847C19.5092 17.1458 19.615 17.2302 19.701 17.3329C19.787 17.4356 19.8515 17.5545 19.8906 17.6826C19.9298 17.8108 19.9428 17.9454 19.9289 18.0787C19.6744 21.5833 18.7592 25.0081 17.2314 28.1724C17.1914 28.2533 17.1741 28.3436 17.1813 28.4335C17.1885 28.5235 17.2199 28.6099 17.2722 28.6834C17.3245 28.757 17.3957 28.815 17.4783 28.8514C17.5609 28.8877 17.6518 28.901 17.7414 28.8899C18.6186 28.7721 19.4814 28.5648 20.3164 28.2712C20.3821 28.2478 20.4421 28.2109 20.4927 28.1629C20.5433 28.1149 20.5833 28.0568 20.6101 27.9924C22.1689 24.2623 22.9809 20.2626 23.0001 16.2199C23.0276 12.3899 20.0751 9.13617 16.2501 9.00367C15.5766 8.98033 14.9031 9.05315 14.2501 9.21992C14.1182 9.25379 13.9808 9.26035 13.8462 9.23922C13.7117 9.21808 13.5829 9.16969 13.4677 9.09701C13.3526 9.02432 13.2535 8.92888 13.1765 8.81654C13.0995 8.7042 13.0463 8.57731 13.0201 8.44367C12.9765 8.18463 13.0337 7.91873 13.1799 7.70049C13.3261 7.48225 13.5502 7.3282 13.8064 7.26992C15.1338 6.93756 16.5194 6.91204 17.8582 7.1953C19.1969 7.47856 20.4535 8.06315 21.5325 8.90468C22.6116 9.74621 23.4847 10.8225 24.0855 12.052C24.6863 13.2814 24.9991 14.6315 25.0001 15.9999C25.0031 19.1571 24.5544 22.2985 23.6676 25.3287C23.6367 25.4326 23.6403 25.5438 23.6781 25.6454C23.7158 25.7471 23.7856 25.8337 23.8769 25.8923C23.9681 25.9508 24.076 25.9781 24.1841 25.97C24.2922 25.9619 24.3948 25.9189 24.4764 25.8474C26.4989 24.1049 27.9359 21.7821 28.5922 19.1944C29.2484 16.6067 29.0922 13.8797 28.1445 11.384C27.1969 8.88823 25.5039 6.74473 23.2956 5.24472C21.0873 3.74472 18.4707 2.96095 15.8014 2.99992ZM16.0001 11.9999C16.5628 12.0004 17.1192 12.1194 17.6328 12.3492C18.1465 12.579 18.606 12.9144 18.9814 13.3337C19.0744 13.4377 19.1447 13.5601 19.1876 13.6929C19.2305 13.8257 19.2451 13.9661 19.2305 14.1049C19.2159 14.2437 19.1724 14.3779 19.1028 14.4989C19.0332 14.6199 18.939 14.725 18.8264 14.8074C18.6184 14.9506 18.3652 15.0127 18.1146 14.9818C17.864 14.9509 17.6334 14.8293 17.4664 14.6399C17.2052 14.3584 16.8686 14.1581 16.4966 14.0628C16.1247 13.9675 15.7332 13.9812 15.3689 14.1024C14.9633 14.2436 14.6124 14.5087 14.3656 14.8602C14.1189 15.2116 13.9888 15.6318 13.9939 16.0612C13.9904 17.4456 13.8569 18.8267 13.5951 20.1862C13.5521 20.4129 13.4321 20.6178 13.2553 20.7661C13.0785 20.9144 12.8559 20.997 12.6251 20.9999C12.5622 21.0002 12.4994 20.9944 12.4376 20.9824C12.1752 20.9227 11.9463 20.7634 11.7991 20.5381C11.6519 20.3128 11.5981 20.0392 11.6489 19.7749C11.8844 18.5304 12.002 17.2665 12.0001 15.9999C12.0001 14.9391 12.4215 13.9216 13.1717 13.1715C13.9218 12.4213 14.9392 11.9999 16.0001 11.9999Z" fill="#4A4A4F"/>
</svg>
