<svg width="32" height="32" viewBox="0 0 32 32" fill="none" xmlns="http://www.w3.org/2000/svg">
<path d="M8.99998 16C9.00713 18.6231 8.401 21.2115 7.22998 23.5588C7.17408 23.6804 7.09431 23.7897 6.9954 23.8799C6.89649 23.9702 6.78045 24.0397 6.65418 24.0843C6.5279 24.1289 6.39395 24.1477 6.26029 24.1395C6.12662 24.1313 5.99595 24.0964 5.87604 24.0368C5.75613 23.9772 5.64941 23.8941 5.56223 23.7924C5.47504 23.6908 5.40916 23.5726 5.36849 23.445C5.32782 23.3175 5.31319 23.183 5.32547 23.0496C5.33775 22.9163 5.37669 22.7868 5.43998 22.6688C6.47248 20.5977 7.00668 18.3141 6.99998 16C6.99763 14.6506 7.29991 13.318 7.88428 12.1016C8.46865 10.8853 9.32004 9.8165 10.375 8.975C10.582 8.80924 10.8464 8.73251 11.11 8.7617C11.3736 8.79088 11.6148 8.92359 11.7806 9.13062C11.9464 9.33766 12.0231 9.60206 11.9939 9.86567C11.9647 10.1293 11.832 10.3705 11.625 10.5363C10.8043 11.1906 10.142 12.0218 9.68742 12.9678C9.23289 13.9139 8.9979 14.9504 8.99998 16ZM16 15C15.7348 15 15.4804 15.1054 15.2929 15.2929C15.1053 15.4804 15 15.7348 15 16C14.9998 19.896 14.0105 23.7282 12.125 27.1375C11.9963 27.3696 11.9652 27.6432 12.0383 27.8983C12.1114 28.1533 12.2829 28.3689 12.515 28.4975C12.747 28.6261 13.0207 28.6573 13.2757 28.5842C13.5308 28.511 13.7463 28.3396 13.875 28.1075C15.9245 24.4011 16.9997 20.2353 17 16C17 15.7348 16.8946 15.4804 16.7071 15.2929C16.5195 15.1054 16.2652 15 16 15ZM16 11C14.6739 11 13.4021 11.5268 12.4644 12.4645C11.5268 13.4021 11 14.6739 11 16C11 16.2652 11.1053 16.5196 11.2929 16.7071C11.4804 16.8946 11.7348 17 12 17C12.2652 17 12.5195 16.8946 12.7071 16.7071C12.8946 16.5196 13 16.2652 13 16C13 15.2044 13.316 14.4413 13.8787 13.8787C14.4413 13.3161 15.2043 13 16 13C16.7956 13 17.5587 13.3161 18.1213 13.8787C18.6839 14.4413 19 15.2044 19 16C19.0103 19.9762 18.1345 23.9047 16.4362 27.5C16.3802 27.6191 16.3481 27.7481 16.3419 27.8795C16.3357 28.011 16.3554 28.1424 16.4 28.2663C16.4446 28.3901 16.5131 28.504 16.6017 28.6014C16.6902 28.6987 16.7971 28.7777 16.9162 28.8337C17.0353 28.8898 17.1643 28.9219 17.2958 28.9281C17.4272 28.9343 17.5587 28.9146 17.6825 28.87C17.8064 28.8254 17.9202 28.7569 18.0176 28.6683C18.115 28.5797 18.1939 28.4728 18.25 28.3538C20.0729 24.4912 21.0123 20.2711 21 16C21 14.6739 20.4732 13.4021 19.5355 12.4645C18.5978 11.5268 17.3261 11 16 11ZM16 3C12.5533 3.00364 9.24879 4.37445 6.81161 6.81163C4.37442 9.24882 3.00361 12.5533 2.99998 16C3.00183 17.2487 2.79046 18.4886 2.37498 19.6663C2.28662 19.9164 2.30126 20.1914 2.41566 20.4307C2.53005 20.6701 2.73484 20.8541 2.98497 20.9425C3.23511 21.0308 3.51009 21.0162 3.74944 20.9018C3.98878 20.7874 4.17287 20.5826 4.26123 20.3325C4.75182 18.9408 5.00164 17.4756 4.99998 16C4.99998 13.0826 6.1589 10.2847 8.2218 8.22183C10.2847 6.15893 13.0826 5 16 5C18.9174 5 21.7153 6.15893 23.7782 8.22183C25.8411 10.2847 27 13.0826 27 16C27.0005 18.2848 26.779 20.5643 26.3387 22.8062C26.3133 22.9351 26.3134 23.0677 26.3392 23.1965C26.365 23.3253 26.4159 23.4478 26.4891 23.5569C26.5622 23.666 26.6561 23.7596 26.7654 23.8325C26.8748 23.9053 26.9974 23.9558 27.1262 23.9813C27.1901 23.9936 27.2549 23.9999 27.32 24C27.5514 23.9998 27.7755 23.9193 27.9543 23.7722C28.133 23.6252 28.2551 23.4208 28.3 23.1938C28.7657 20.8242 29.0001 18.4149 29 16C28.996 12.5534 27.6251 9.24911 25.188 6.812C22.7509 4.37488 19.4466 3.00397 16 3ZM11.8 19.0212C11.5406 18.9697 11.2714 19.0229 11.0512 19.1693C10.831 19.3157 10.6777 19.5434 10.625 19.8025C10.2192 21.7995 9.49273 23.7177 8.47373 25.4825C8.34112 25.7122 8.30521 25.9853 8.37389 26.2415C8.44258 26.4977 8.61023 26.7161 8.83998 26.8487C9.06972 26.9814 9.34273 27.0173 9.59895 26.9486C9.85518 26.8799 10.0736 26.7122 10.2062 26.4825C11.3323 24.531 12.1344 22.4097 12.5812 20.2013C12.6075 20.0725 12.6081 19.9398 12.5831 19.8107C12.558 19.6817 12.5078 19.5589 12.4352 19.4493C12.3627 19.3397 12.2692 19.2455 12.1602 19.172C12.0512 19.0986 11.9288 19.0473 11.8 19.0212ZM16 7C15.6239 7.00008 15.2482 7.02346 14.875 7.07C14.6167 7.10877 14.3839 7.247 14.2263 7.45516C14.0686 7.66331 13.9986 7.92488 14.0313 8.18395C14.0639 8.44303 14.1966 8.67905 14.401 8.84159C14.6054 9.00412 14.8652 9.08027 15.125 9.05375C16.1101 8.93125 17.1101 9.01939 18.0586 9.31234C19.0071 9.60529 19.8826 10.0964 20.6271 10.7531C21.3716 11.4098 21.9681 12.2171 22.3772 13.1216C22.7863 14.0262 22.9985 15.0073 23 16C22.9997 17.2954 22.9195 18.5895 22.76 19.875C22.7424 20.0057 22.7509 20.1386 22.785 20.2661C22.819 20.3935 22.8779 20.513 22.9583 20.6175C23.0387 20.7221 23.139 20.8097 23.2534 20.8754C23.3679 20.941 23.4941 20.9834 23.625 21C23.6665 21.005 23.7082 21.0075 23.75 21.0075C23.9932 21.007 24.2278 20.9178 24.4101 20.7568C24.5923 20.5957 24.7096 20.3738 24.74 20.1325C24.9086 18.764 24.9921 17.3863 24.99 16.0075C24.9893 13.6218 24.0425 11.3337 22.3572 9.64514C20.6719 7.95655 18.3857 7.0053 16 7ZM23.2412 23.0312C23.114 22.9984 22.9815 22.9909 22.8514 23.0092C22.7213 23.0275 22.5961 23.0713 22.4829 23.138C22.3697 23.2048 22.2708 23.2932 22.1918 23.3982C22.1128 23.5032 22.0552 23.6227 22.0225 23.75C21.84 24.4613 21.6287 25.175 21.3975 25.875C21.3129 26.1258 21.3311 26.3999 21.4483 26.6373C21.5654 26.8747 21.7719 27.0559 22.0225 27.1413C22.1251 27.1762 22.2328 27.1939 22.3412 27.1938C22.5507 27.1936 22.7549 27.1276 22.9249 27.0052C23.0949 26.8827 23.2222 26.7099 23.2887 26.5112C23.5387 25.7712 23.7625 25.0112 23.9575 24.255C23.991 24.1278 23.9991 23.9952 23.9813 23.8648C23.9635 23.7345 23.9201 23.6089 23.8537 23.4954C23.7873 23.3818 23.6991 23.2825 23.5942 23.203C23.4893 23.1236 23.3698 23.0657 23.2425 23.0325L23.2412 23.0312Z" fill="#4A4A4F"/>
</svg>
