<svg width="32" height="32" viewBox="0 0 32 32" fill="none" xmlns="http://www.w3.org/2000/svg">
<path d="M23 16C23.0069 20.0406 22.2195 24.0431 20.6825 27.78C20.6079 27.9643 20.4801 28.1223 20.3153 28.2336C20.1506 28.3449 19.9564 28.4046 19.7575 28.405C19.6289 28.4038 19.5017 28.3783 19.3825 28.33C19.2609 28.2801 19.1503 28.2067 19.0571 28.114C18.9638 28.0214 18.8898 27.9112 18.8392 27.7899C18.7885 27.6686 18.7623 27.5384 18.7621 27.407C18.7618 27.2755 18.7874 27.1453 18.8375 27.0238C20.2741 23.5265 21.0089 19.7808 21 16C21 15.7348 21.1054 15.4804 21.2929 15.2929C21.4804 15.1054 21.7348 15 22 15C22.2652 15 22.5196 15.1054 22.7071 15.2929C22.8947 15.4804 23 15.7348 23 16ZM16 11C16.7033 11.0005 17.3986 11.1491 18.0406 11.4362C18.6826 11.7233 19.257 12.1424 19.7263 12.6663C19.8132 12.7665 19.9191 12.8484 20.038 12.9073C20.1569 12.9662 20.2863 13.0008 20.4187 13.0092C20.5511 13.0176 20.6838 12.9996 20.8092 12.9562C20.9345 12.9127 21.05 12.8448 21.1488 12.7563C21.2477 12.6678 21.3279 12.5606 21.3849 12.4408C21.4419 12.321 21.4745 12.1911 21.4807 12.0585C21.487 11.926 21.4669 11.7936 21.4215 11.6689C21.3761 11.5443 21.3063 11.4299 21.2163 11.3325C20.271 10.2762 19.0273 9.53183 17.6498 9.19776C16.2723 8.86368 14.8258 8.95568 13.5016 9.46159C12.1775 9.9675 11.0382 10.8635 10.2344 12.031C9.43056 13.1985 9.00012 14.5825 9.00001 16C8.99988 18.8794 8.2687 21.7116 6.87501 24.2313C6.81132 24.3462 6.77088 24.4725 6.75601 24.603C6.74114 24.7336 6.75213 24.8657 6.78834 24.992C6.82456 25.1183 6.88529 25.2362 6.96708 25.3391C7.04886 25.4419 7.1501 25.5276 7.26501 25.5913C7.37991 25.6549 7.50624 25.6954 7.63677 25.7103C7.76731 25.7251 7.89949 25.7141 8.02578 25.6779C8.15207 25.6417 8.26999 25.581 8.3728 25.4992C8.47562 25.4174 8.56132 25.3162 8.62501 25.2013C10.1826 22.3846 10.9997 19.2187 11 16C11 14.6739 11.5268 13.4022 12.4645 12.4645C13.4022 11.5268 14.6739 11 16 11ZM16 3.00001C14.5238 2.99823 13.0582 3.2485 11.6663 3.74001C11.4207 3.83183 11.221 4.01643 11.1102 4.25406C10.9993 4.49169 10.9863 4.76333 11.0738 5.01048C11.1613 5.25764 11.3424 5.46053 11.5781 5.57547C11.8137 5.69041 12.0851 5.7082 12.3338 5.62501C13.9932 5.03988 15.7688 4.86114 17.5115 5.1038C19.2543 5.34645 20.9135 6.00341 22.35 7.01959C23.7865 8.03578 24.9584 9.38157 25.7675 10.9441C26.5766 12.5067 26.9992 14.2404 27 16C27.0012 18.6171 26.7102 21.2262 26.1325 23.7788C26.0738 24.0368 26.1197 24.3076 26.2603 24.5319C26.4009 24.7561 26.6246 24.9154 26.8825 24.975C26.9555 24.9919 27.0301 25.0003 27.105 25C27.3317 25 27.5517 24.9229 27.7289 24.7814C27.906 24.6399 28.0298 24.4424 28.08 24.2213C28.6909 21.5235 28.9994 18.7661 29 16C28.9964 12.5533 27.6256 9.24883 25.1884 6.81164C22.7512 4.37446 19.4467 3.00365 16 3.00001ZM8.66751 7.80251C8.76542 7.71493 8.84513 7.60893 8.90208 7.49055C8.95903 7.37217 8.99211 7.24373 8.99942 7.11257C9.00673 6.98141 8.98814 6.85009 8.9447 6.72611C8.90126 6.60213 8.83383 6.48793 8.74626 6.39001C8.65868 6.29209 8.55268 6.21238 8.4343 6.15543C8.31592 6.09848 8.18748 6.06541 8.05632 6.0581C7.92515 6.05078 7.79384 6.06938 7.66986 6.11281C7.54588 6.15625 7.43167 6.22368 7.33376 6.31126C5.97148 7.5313 4.88149 9.02463 4.13479 10.694C3.3881 12.3633 3.00144 14.1713 3.00001 16C3.00281 17.5819 2.66159 19.1456 2.00001 20.5825C1.94518 20.7018 1.9144 20.8308 1.90941 20.9621C1.90443 21.0933 1.92534 21.2242 1.97096 21.3474C2.06308 21.5961 2.25024 21.798 2.49126 21.9088C2.73227 22.0195 3.0074 22.0299 3.25612 21.9378C3.50484 21.8457 3.70678 21.6585 3.81751 21.4175C4.59984 19.7188 5.00333 17.8702 5.00001 16C5.00133 14.4527 5.32861 12.923 5.96051 11.5106C6.59241 10.0982 7.51477 8.8347 8.66751 7.80251ZM14.24 25.0925C14.1207 25.0377 13.9917 25.0069 13.8605 25.0019C13.7292 24.9969 13.5983 25.0178 13.4751 25.0634C13.352 25.1091 13.239 25.1785 13.1427 25.2678C13.0464 25.357 12.9686 25.4644 12.9138 25.5838C12.6738 26.1088 12.4138 26.6325 12.1275 27.1388C12.0636 27.2537 12.0229 27.3801 12.0079 27.5108C11.9929 27.6415 12.0038 27.7739 12.0401 27.9003C12.0763 28.0268 12.1371 28.1448 12.219 28.2477C12.301 28.3506 12.4024 28.4364 12.5175 28.5C12.6653 28.5826 12.8319 28.6256 13.0013 28.625C13.1798 28.6251 13.3551 28.5774 13.509 28.4868C13.6628 28.3963 13.7897 28.2661 13.8763 28.11C14.1813 27.5588 14.4688 26.985 14.7313 26.42C14.7863 26.3006 14.8172 26.1715 14.8223 26.0402C14.8274 25.9088 14.8065 25.7777 14.7609 25.6544C14.7153 25.5311 14.6458 25.418 14.5564 25.3216C14.467 25.2252 14.3595 25.1473 14.24 25.0925ZM16 15C15.7348 15 15.4804 15.1054 15.2929 15.2929C15.1054 15.4804 15 15.7348 15 16C15.0007 17.9394 14.7576 19.8713 14.2763 21.75C14.2102 22.0068 14.2488 22.2793 14.3836 22.5076C14.5184 22.7359 14.7383 22.9013 14.995 22.9675C15.0767 22.9883 15.1607 22.9988 15.245 22.9988C15.4666 22.9986 15.6818 22.9248 15.8569 22.7891C16.032 22.6534 16.1571 22.4633 16.2125 22.2488C16.7366 20.2068 17.0012 18.1069 17 15.9988C16.9997 15.7338 16.8942 15.4797 16.7067 15.2925C16.5192 15.1052 16.265 15 16 15Z" fill="#4A4A4F"/>
</svg>
