<svg width="32" height="32" viewBox="0 0 32 32" fill="none" xmlns="http://www.w3.org/2000/svg">
<path d="M21 12.0001H11C9.67393 12.0001 8.40216 12.5269 7.46447 13.4645C6.52679 14.4022 6.00001 15.674 6.00001 17.0001V18.0001C6.00001 18.6567 6.12934 19.3069 6.38061 19.9135C6.63188 20.5201 7.00018 21.0713 7.46447 21.5356C8.40216 22.4733 9.67393 23.0001 11 23.0001H21C21.6566 23.0001 22.3068 22.8707 22.9134 22.6195C23.5201 22.3682 24.0712 21.9999 24.5355 21.5356C24.9998 21.0713 25.3681 20.5201 25.6194 19.9135C25.8707 19.3069 26 18.6567 26 18.0001V17.0001C26 15.674 25.4732 14.4022 24.5355 13.4645C23.5979 12.5269 22.3261 12.0001 21 12.0001ZM24 18.0001C24 18.7957 23.6839 19.5588 23.1213 20.1214C22.5587 20.684 21.7957 21.0001 21 21.0001H11C10.2044 21.0001 9.4413 20.684 8.87869 20.1214C8.31608 19.5588 8.00001 18.7957 8.00001 18.0001V17.0001C8.00001 16.2044 8.31608 15.4414 8.87869 14.8787C9.4413 14.3161 10.2044 14.0001 11 14.0001H21C21.7957 14.0001 22.5587 14.3161 23.1213 14.8787C23.6839 15.4414 24 16.2044 24 17.0001V18.0001ZM26 4.00007C25.1132 4.00091 24.2517 4.29587 23.5505 4.83874C22.8493 5.38162 22.348 6.14175 22.125 7.00007H9.87501C9.63319 6.05558 9.05475 5.23193 8.24839 4.68391C7.44204 4.1359 6.46329 3.90125 5.49611 4.02406C4.52893 4.14688 3.63989 4.61871 2.9961 5.35087C2.35231 6.08304 1.99809 7.02512 2.00001 8.00007V18.0001C2.00265 20.3862 2.95172 22.6739 4.63897 24.3611C6.32622 26.0484 8.61387 26.9974 11 27.0001H21C23.3861 26.9974 25.6738 26.0484 27.361 24.3611C29.0483 22.6739 29.9974 20.3862 30 18.0001V8.00007C30 6.93921 29.5786 5.92179 28.8284 5.17164C28.0783 4.4215 27.0609 4.00007 26 4.00007ZM28 18.0001C27.998 19.856 27.2599 21.6353 25.9476 22.9476C24.6352 24.26 22.8559 24.9981 21 25.0001H11C9.1441 24.9981 7.36478 24.26 6.05245 22.9476C4.74013 21.6353 4.00199 19.856 4.00001 18.0001V8.00007C4.00001 7.46964 4.21072 6.96093 4.58579 6.58586C4.96087 6.21078 5.46957 6.00007 6.00001 6.00007C6.53044 6.00007 7.03915 6.21078 7.41422 6.58586C7.78929 6.96093 8.00001 7.46964 8.00001 8.00007C8.00001 8.26529 8.10536 8.51964 8.2929 8.70718C8.48044 8.89471 8.73479 9.00007 9.00001 9.00007H23C23.2652 9.00007 23.5196 8.89471 23.7071 8.70718C23.8947 8.51964 24 8.26529 24 8.00007C24 7.46964 24.2107 6.96093 24.5858 6.58586C24.9609 6.21078 25.4696 6.00007 26 6.00007C26.5304 6.00007 27.0391 6.21078 27.4142 6.58586C27.7893 6.96093 28 7.46964 28 8.00007V18.0001ZM13 17.5001C13 17.7967 12.912 18.0868 12.7472 18.3334C12.5824 18.5801 12.3481 18.7724 12.074 18.8859C11.7999 18.9994 11.4983 19.0291 11.2074 18.9712C10.9164 18.9134 10.6491 18.7705 10.4393 18.5607C10.2296 18.351 10.0867 18.0837 10.0288 17.7927C9.97095 17.5017 10.0007 17.2001 10.1142 16.926C10.2277 16.652 10.42 16.4177 10.6667 16.2529C10.9133 16.088 11.2033 16.0001 11.5 16.0001C11.8978 16.0001 12.2794 16.1581 12.5607 16.4394C12.842 16.7207 13 17.1022 13 17.5001ZM22 17.5001C22 17.7967 21.912 18.0868 21.7472 18.3334C21.5824 18.5801 21.3481 18.7724 21.074 18.8859C20.7999 18.9994 20.4983 19.0291 20.2074 18.9712C19.9164 18.9134 19.6491 18.7705 19.4393 18.5607C19.2296 18.351 19.0867 18.0837 19.0288 17.7927C18.971 17.5017 19.0007 17.2001 19.1142 16.926C19.2277 16.652 19.42 16.4177 19.6667 16.2529C19.9133 16.088 20.2033 16.0001 20.5 16.0001C20.8978 16.0001 21.2794 16.1581 21.5607 16.4394C21.842 16.7207 22 17.1022 22 17.5001Z" fill="#4A4A4F"/>
</svg>
