<svg width="32" height="32" viewBox="0 0 32 32" fill="none" xmlns="http://www.w3.org/2000/svg">
<path d="M27.2875 6.04272L19.7025 3.76772L23.4525 1.89272C23.6894 1.77338 23.8691 1.56482 23.9522 1.31294C24.0353 1.06105 24.015 0.78647 23.8956 0.549599C23.7763 0.312727 23.5677 0.132968 23.3158 0.049866C23.064 -0.033236 22.7894 -0.0128736 22.5525 0.106474L16.75 3.00647C14.1422 3.07423 11.6639 4.15732 9.84284 6.02511C8.02174 7.89291 7.00173 10.3978 7 13.0065V26.0002C7 26.2654 7.10536 26.5198 7.29289 26.7073C7.48043 26.8949 7.73478 27.0002 8 27.0002C8.26522 27.0002 8.51957 26.8949 8.70711 26.7073C8.89464 26.5198 9 26.2654 9 26.0002V22.0002H11V29.0002C11 29.5307 11.2107 30.0394 11.5858 30.4144C11.9609 30.7895 12.4696 31.0002 13 31.0002H21C21.5304 31.0002 22.0391 30.7895 22.4142 30.4144C22.7893 30.0394 23 29.5307 23 29.0002V13.0002C22.998 11.583 22.4951 10.212 21.5802 9.12965C20.6652 8.04728 19.3971 7.32315 18 7.08522V5.34397L26.7125 7.95772C26.8392 7.999 26.9729 8.01453 27.1057 8.0034C27.2385 7.99227 27.3678 7.9547 27.4859 7.89291C27.6039 7.83112 27.7085 7.74635 27.7933 7.64358C27.8782 7.54081 27.9416 7.42211 27.98 7.29447C28.0183 7.16682 28.0307 7.03281 28.0165 6.90029C28.0023 6.76778 27.9617 6.63944 27.8972 6.52283C27.8327 6.40621 27.7456 6.30366 27.6408 6.22121C27.5361 6.13877 27.416 6.07808 27.2875 6.04272ZM9 20.0002V13.0002C9.00242 11.0526 9.71449 9.1726 11.0029 7.71205C12.2914 6.25151 14.0679 5.31054 16 5.06522V7.08522C14.6029 7.32315 13.3348 8.04728 12.4198 9.12965C11.5049 10.212 11.002 11.583 11 13.0002V20.0002H9ZM21 29.0002H13V22.0002H21V29.0002ZM21 13.0002V20.0002H13V13.0002C13 11.9394 13.4214 10.9219 14.1716 10.1718C14.9217 9.42165 15.9391 9.00022 17 9.00022C18.0609 9.00022 19.0783 9.42165 19.8284 10.1718C20.5786 10.9219 21 11.9394 21 13.0002Z" fill="#4A4A4F"/>
</svg>
