<svg width="32" height="32" viewBox="0 0 32 32" fill="none" xmlns="http://www.w3.org/2000/svg">
<path d="M17.9225 2.23105C17.7992 2.12856 17.6531 2.05721 17.4965 2.02301C17.3399 1.98882 17.1773 1.99278 17.0225 2.03457C16.8678 2.07636 16.7253 2.15474 16.6072 2.26312C16.489 2.3715 16.3987 2.50669 16.3438 2.6573L13.5938 10.2085L10.5737 7.2823C10.4723 7.18393 10.3512 7.10817 10.2184 7.06001C10.0856 7.01185 9.94403 6.99238 9.80313 7.00289C9.66223 7.01341 9.52516 7.05365 9.40095 7.12099C9.27674 7.18833 9.1682 7.28122 9.0825 7.39355C6.375 10.941 5 14.5098 5 17.9998C5 20.9172 6.15893 23.7151 8.22183 25.778C10.2847 27.8409 13.0826 28.9998 16 28.9998C18.9174 28.9998 21.7153 27.8409 23.7782 25.778C25.8411 23.7151 27 20.9172 27 17.9998C27 10.5685 20.6513 4.4998 17.9225 2.23105ZM22.9862 19.1673C22.7269 20.6157 22.0301 21.9498 20.9896 22.9902C19.949 24.0305 18.6147 24.7271 17.1663 24.986C17.1113 24.9955 17.0557 25.0001 17 24.9998C16.7492 24.9997 16.5075 24.9054 16.323 24.7355C16.1384 24.5656 16.0245 24.3326 16.0037 24.0826C15.9829 23.8326 16.0569 23.584 16.2108 23.3859C16.3648 23.1879 16.5876 23.055 16.835 23.0135C18.9062 22.6648 20.6637 20.9073 21.015 18.8323C21.0594 18.5707 21.2059 18.3375 21.4223 18.184C21.6387 18.0304 21.9072 17.9691 22.1688 18.0135C22.4303 18.058 22.6635 18.2045 22.8171 18.4209C22.9706 18.6372 23.0319 18.9057 22.9875 19.1673H22.9862Z" fill="#4A4A4F"/>
</svg>
