<svg width="32" height="32" viewBox="0 0 32 32" fill="none" xmlns="http://www.w3.org/2000/svg">
<path d="M20.9999 9.50021C20.9999 9.79688 20.9119 10.0869 20.7471 10.3336C20.5823 10.5802 20.348 10.7725 20.0739 10.886C19.7998 10.9996 19.4982 11.0293 19.2073 10.9714C18.9163 10.9135 18.649 10.7706 18.4392 10.5609C18.2295 10.3511 18.0866 10.0838 18.0287 9.79284C17.9708 9.50187 18.0005 9.20027 18.1141 8.92618C18.2276 8.65209 18.4199 8.41782 18.6665 8.253C18.9132 8.08818 19.2032 8.00021 19.4999 8.00021C19.8977 8.00021 20.2792 8.15824 20.5605 8.43955C20.8419 8.72085 20.9999 9.10238 20.9999 9.50021ZM24.9424 20.8465C21.5599 24.2215 16.2649 25.6402 9.15239 25.0902C9.35155 26.5769 9.63072 28.1423 9.98989 29.7865C10.0464 30.0455 9.99764 30.3164 9.85442 30.5396C9.71119 30.7628 9.4852 30.9199 9.22614 30.9765C9.15557 30.9923 9.08346 31.0003 9.01114 31.0002C8.78338 30.9998 8.56259 30.9216 8.38529 30.7786C8.208 30.6357 8.08482 30.4365 8.03614 30.214C7.62697 28.3448 7.31906 26.5681 7.11239 24.884C5.42906 24.6765 3.65364 24.3685 1.78614 23.9602C1.52821 23.9024 1.30367 23.7448 1.1616 23.5219C1.01953 23.299 0.971497 23.0289 1.028 22.7707C1.0845 22.5125 1.24094 22.2871 1.46312 22.1439C1.68529 22.0007 1.95513 21.9513 2.21364 22.0065C3.85614 22.3648 5.42031 22.644 6.90614 22.844C6.35739 15.7327 7.78114 10.439 11.1561 7.05771C16.6249 1.57271 25.3036 3.11271 26.9874 3.47771C27.3634 3.55964 27.708 3.74787 27.9801 4.02C28.2522 4.29212 28.4405 4.63669 28.5224 5.01271C28.8874 6.69646 30.4286 15.3752 24.9424 20.8465ZM26.5674 5.43646C24.5436 5.01805 22.4691 4.90096 20.4111 5.08896C17.8811 5.33896 15.7361 6.06771 14.0049 7.27146C14.0737 10.0944 15.2254 12.7828 17.2216 14.78C19.2179 16.7771 21.9057 17.9301 24.7286 18.0002C25.9311 16.269 26.6649 14.1252 26.9111 11.594C27.0984 9.53569 26.9826 7.46109 26.5674 5.43646Z" fill="#4A4A4F"/>
</svg>
