<svg width="32" height="32" viewBox="0 0 32 32" fill="none" xmlns="http://www.w3.org/2000/svg">
<path d="M28.9024 7.43L18.9024 28.43C18.848 28.5518 18.7698 28.6614 18.6724 28.7525C18.5749 28.8436 18.4603 28.9143 18.3351 28.9604C18.21 29.0065 18.0769 29.0271 17.9436 29.0209C17.8104 29.0148 17.6797 28.9821 17.5593 28.9248C17.4389 28.8674 17.3312 28.7865 17.2425 28.6869C17.1538 28.5873 17.086 28.4709 17.0429 28.3447C16.9999 28.2185 16.9826 28.0849 16.9919 27.9518C17.0013 27.8188 17.0371 27.689 17.0974 27.57L20.7024 20H3.99993C3.80544 20.0001 3.61514 19.9435 3.45233 19.8372C3.28951 19.7308 3.16125 19.5792 3.08325 19.4011C3.00525 19.2229 2.98089 19.0259 3.01316 18.8341C3.04543 18.6423 3.13292 18.4641 3.26493 18.3213L8.58493 12.5588L3.32368 7.7375C3.17499 7.60135 3.07094 7.42343 3.02515 7.2271C2.97937 7.03076 2.994 6.82517 3.06712 6.63729C3.14024 6.44942 3.26844 6.28803 3.43491 6.1743C3.60137 6.06058 3.79832 5.99982 3.99993 6H27.9999C28.1687 6.00006 28.3348 6.04284 28.4826 6.12438C28.6304 6.20591 28.7552 6.32353 28.8453 6.46629C28.9354 6.60904 28.9878 6.77228 28.9978 6.94079C29.0078 7.1093 28.975 7.2776 28.9024 7.43Z" fill="#4A4A4F"/>
</svg>
