<svg width="32" height="32" viewBox="0 0 32 32" fill="none" xmlns="http://www.w3.org/2000/svg">
<path d="M28.8449 6.46625C28.7549 6.32355 28.6301 6.20596 28.4824 6.12444C28.3347 6.04292 28.1687 6.00011 27.9999 6H3.99993C3.79832 5.99982 3.60137 6.06058 3.43491 6.1743C3.26844 6.28803 3.14024 6.44942 3.06712 6.63729C2.994 6.82517 2.97937 7.03076 3.02515 7.2271C3.07094 7.42343 3.17499 7.60135 3.32368 7.7375L8.58493 12.5588L3.26493 18.3213C3.13292 18.4641 3.04543 18.6423 3.01316 18.8341C2.98089 19.0259 3.00525 19.2229 3.08325 19.4011C3.16125 19.5792 3.28951 19.7308 3.45233 19.8372C3.61514 19.9435 3.80544 20.0001 3.99993 20H20.7024L17.0974 27.57C17.0371 27.689 17.0013 27.8188 16.9919 27.9518C16.9826 28.0849 16.9999 28.2185 17.0429 28.3447C17.086 28.4709 17.1538 28.5873 17.2425 28.6869C17.3312 28.7865 17.4389 28.8674 17.5593 28.9248C17.6797 28.9821 17.8104 29.0148 17.9436 29.0209C18.0769 29.0271 18.21 29.0065 18.3351 28.9604C18.4603 28.9143 18.5749 28.8436 18.6724 28.7525C18.7698 28.6614 18.848 28.5518 18.9024 28.43L28.9024 7.43C28.975 7.27756 29.0077 7.10924 28.9977 6.94073C28.9876 6.77221 28.9351 6.60898 28.8449 6.46625ZM21.6537 18H6.27868L10.7299 13.1788C10.8193 13.082 10.8888 12.9686 10.9342 12.845C10.9797 12.7214 11.0003 12.59 10.9948 12.4584C10.9894 12.3268 10.958 12.1976 10.9024 12.0782C10.8469 11.9587 10.7683 11.8515 10.6712 11.7625L6.57118 8H26.4162L21.6537 18Z" fill="#4A4A4F"/>
</svg>
