<svg width="32" height="32" viewBox="0 0 32 32" fill="none" xmlns="http://www.w3.org/2000/svg">
<path d="M27.415 5.09369C27.2404 5.01443 27.0468 4.98701 26.8571 5.01471C26.6674 5.04242 26.4896 5.12407 26.345 5.24994C22.845 8.27744 19.88 6.80994 16.4438 5.10869C12.8838 3.34494 8.8475 1.34869 4.345 5.24994C4.23742 5.34319 4.15099 5.45834 4.09149 5.58768C4.032 5.71702 4.0008 5.85757 4 5.99994V26.9999C4 27.2652 4.10536 27.5195 4.29289 27.707C4.48043 27.8946 4.73478 27.9999 5 27.9999C5.26522 27.9999 5.51957 27.8946 5.70711 27.707C5.89464 27.5195 6 27.2652 6 26.9999V21.4712C9.34875 18.8262 12.2337 20.2524 15.5562 21.8974C19.1175 23.6587 23.1525 25.6549 27.655 21.7562C27.7626 21.6629 27.849 21.5478 27.9085 21.4185C27.968 21.2891 27.9992 21.1486 28 21.0062V5.99994C27.9993 5.80877 27.9438 5.62179 27.8402 5.46118C27.7365 5.30056 27.5889 5.17303 27.415 5.09369ZM26 7.94994V13.5312C24.25 14.9137 22.625 15.1837 21 14.8912V8.91744C22.7285 9.18746 24.497 8.84525 26 7.94994ZM19 8.41994V14.2949C18.1675 13.9612 17.3212 13.5449 16.4438 13.1087C15.3413 12.5637 14.1938 11.9962 13 11.5874V5.71244C13.8325 6.04494 14.6788 6.46244 15.5562 6.89744C16.6587 7.44369 17.8075 8.01119 19 8.41994ZM11 5.11369V11.0862C9.27137 10.8167 7.50288 11.1593 6 12.0549V6.47244C7.75 5.08994 9.375 4.82119 11 5.11369ZM9.8225 17.9999C8.47692 18.0023 7.15671 18.3662 6 19.0537V14.4724C7.75 13.0899 9.375 12.8199 11 13.1124V18.0874C10.6101 18.03 10.2166 18.0008 9.8225 17.9999ZM13 18.5837V13.7087C13.8325 14.0412 14.6788 14.4587 15.5562 14.8937C16.6587 15.4399 17.8062 16.0062 19 16.4149V21.2899C18.1675 20.9562 17.3212 20.5399 16.4438 20.1049C15.3413 19.5587 14.1925 18.9924 13 18.5837ZM21 21.8899V16.9149C21.3898 16.9732 21.7833 17.0033 22.1775 17.0049C23.5235 17.0008 24.8437 16.6351 26 15.9462V20.5312C24.25 21.9137 22.625 22.1824 21 21.8899Z" fill="#4A4A4F"/>
</svg>
