<svg width="32" height="32" viewBox="0 0 32 32" fill="none" xmlns="http://www.w3.org/2000/svg">
<path d="M30.3288 12.0551L7.32875 4.05509C7.178 4.00262 7.01688 3.98699 6.85886 4.00952C6.70084 4.03205 6.55051 4.09208 6.42043 4.18459C6.29035 4.2771 6.18431 4.3994 6.11117 4.54128C6.03803 4.68315 5.99991 4.84048 6 5.00009V27.0001C6 27.2653 6.10536 27.5197 6.29289 27.7072C6.48043 27.8947 6.73478 28.0001 7 28.0001C7.26522 28.0001 7.51957 27.8947 7.70711 27.7072C7.89464 27.5197 8 27.2653 8 27.0001V21.7113L30.3288 13.9451C30.5252 13.8771 30.6956 13.7495 30.8163 13.5802C30.9369 13.4108 31.0017 13.208 31.0017 13.0001C31.0017 12.7922 30.9369 12.5894 30.8163 12.42C30.6956 12.2507 30.5252 12.1231 30.3288 12.0551ZM8 19.5938V6.40634L26.9562 13.0001L8 19.5938Z" fill="#4A4A4F"/>
</svg>
