<svg width="32" height="32" viewBox="0 0 32 32" fill="none" xmlns="http://www.w3.org/2000/svg">
<path d="M31 13.0001C31.0001 13.2078 30.9356 13.4104 30.8153 13.5798C30.695 13.7491 30.5249 13.8768 30.3288 13.9451L8 21.7113V27.0001C8 27.2653 7.89464 27.5197 7.70711 27.7072C7.51957 27.8947 7.26522 28.0001 7 28.0001C6.73478 28.0001 6.48043 27.8947 6.29289 27.7072C6.10536 27.5197 6 27.2653 6 27.0001V5.00009C5.99991 4.84048 6.03803 4.68315 6.11117 4.54128C6.18431 4.3994 6.29035 4.2771 6.42043 4.18459C6.55051 4.09208 6.70084 4.03205 6.85886 4.00952C7.01688 3.98699 7.178 4.00262 7.32875 4.05509L30.3288 12.0551C30.5249 12.1234 30.695 12.2511 30.8153 12.4204C30.9356 12.5898 31.0001 12.7924 31 13.0001Z" fill="#4A4A4F"/>
</svg>
