<svg width="32" height="32" viewBox="0 0 32 32" fill="none" xmlns="http://www.w3.org/2000/svg">
<path d="M4.345 5.24984C4.23742 5.34309 4.15099 5.45824 4.09149 5.58758C4.032 5.71692 4.0008 5.85748 4 5.99984V26.9998C4 27.2651 4.10536 27.5194 4.29289 27.707C4.48043 27.8945 4.73478 27.9998 5 27.9998C5.26522 27.9998 5.51957 27.8945 5.70711 27.707C5.89464 27.5194 6 27.2651 6 26.9998V21.4711C9.34875 18.8261 12.2337 20.2523 15.5562 21.8973C17.6062 22.9111 19.8137 24.0036 22.1812 24.0036C23.9225 24.0036 25.7488 23.4098 27.6588 21.7536C27.7663 21.6603 27.8528 21.5452 27.9123 21.4159C27.9718 21.2865 28.0029 21.146 28.0037 21.0036V5.99984C28.0033 5.8079 27.9476 5.62015 27.8433 5.45899C27.7391 5.29784 27.5906 5.17009 27.4157 5.09102C27.2408 5.01194 27.0469 4.98486 26.857 5.01303C26.6672 5.04119 26.4894 5.1234 26.345 5.24984C22.845 8.27859 19.88 6.81109 16.4438 5.10984C12.8838 3.34484 8.8475 1.34859 4.345 5.24984ZM26 20.5311C22.6512 23.1761 19.7663 21.7486 16.4438 20.1048C13.3188 18.5611 9.8425 16.8386 6 19.0548V6.47359C9.34875 3.82859 12.2337 5.25484 15.5562 6.89859C18.6812 8.44234 22.1588 10.1648 26 7.94859V20.5311Z" fill="#4A4A4F"/>
</svg>
