<svg width="32" height="32" viewBox="0 0 32 32" fill="none" xmlns="http://www.w3.org/2000/svg">
<path d="M27.415 5.09369C27.2404 5.01443 27.0468 4.98701 26.8571 5.01471C26.6674 5.04242 26.4896 5.12407 26.345 5.24994C22.845 8.27744 19.88 6.80994 16.4438 5.10869C12.8838 3.34494 8.8475 1.34869 4.345 5.24994C4.23742 5.34319 4.15099 5.45834 4.09149 5.58768C4.032 5.71702 4.0008 5.85757 4 5.99994V26.9999C4 27.2652 4.10536 27.5195 4.29289 27.707C4.48043 27.8946 4.73478 27.9999 5 27.9999C5.26522 27.9999 5.51957 27.8946 5.70711 27.707C5.89464 27.5195 6 27.2652 6 26.9999V21.4712C9.34875 18.8262 12.2337 20.2524 15.5562 21.8974C17.6062 22.9112 19.8137 24.0037 22.1812 24.0037C23.9225 24.0037 25.7488 23.4099 27.6588 21.7537C27.7663 21.6604 27.8528 21.5453 27.9123 21.416C27.9718 21.2866 28.0029 21.1461 28.0037 21.0037V5.99994C28.0027 5.80836 27.9467 5.62109 27.8423 5.46043C27.738 5.29977 27.5896 5.17248 27.415 5.09369ZM6 19.0549V13.2349C8.10625 11.8249 10.08 11.7862 12 12.3174V18.2849C10.1087 17.8087 8.10875 17.8387 6 19.0549ZM26 20.5312C23.8913 22.1962 21.9662 22.2462 20 21.6449V15.6862C17.2975 14.9362 14.7025 13.0612 12 12.3174V5.35869C13.1562 5.71244 14.3263 6.28994 15.5562 6.89869C16.9637 7.59494 18.445 8.32744 20 8.71869V15.6862C21.9188 16.2174 23.8925 16.1787 26 14.7674V20.5312Z" fill="#4A4A4F"/>
</svg>
