<svg width="32" height="32" viewBox="0 0 32 32" fill="none" xmlns="http://www.w3.org/2000/svg">
<path d="M21.7237 6.43482C20.1693 4.79669 18.42 3.35513 16.515 2.14232C16.3595 2.04888 16.1814 1.99951 16 1.99951C15.8186 1.99951 15.6405 2.04888 15.485 2.14232C13.58 3.35513 11.8307 4.79669 10.2762 6.43482C6.82375 10.0598 5 14.0586 5 17.9998C5 20.9172 6.15893 23.7151 8.22183 25.778C10.2847 27.8409 13.0826 28.9998 16 28.9998C18.9174 28.9998 21.7153 27.8409 23.7782 25.778C25.8411 23.7151 27 20.9172 27 17.9998C27 14.0586 25.1762 10.0598 21.7237 6.43482ZM12 22.9998C12 19.5411 14.8162 17.0898 16 16.2123C17.185 17.0873 20 19.5411 20 22.9998C20 24.0607 19.5786 25.0781 18.8284 25.8282C18.0783 26.5784 17.0609 26.9998 16 26.9998C14.9391 26.9998 13.9217 26.5784 13.1716 25.8282C12.4214 25.0781 12 24.0607 12 22.9998Z" fill="#4A4A4F"/>
</svg>
