<svg width="32" height="32" viewBox="0 0 32 32" fill="none" xmlns="http://www.w3.org/2000/svg">
<path d="M21.7237 6.43482C20.1693 4.79669 18.42 3.35513 16.515 2.14232C16.3595 2.04888 16.1814 1.99951 16 1.99951C15.8186 1.99951 15.6405 2.04888 15.485 2.14232C13.58 3.35513 11.8307 4.79669 10.2762 6.43482C6.82375 10.0598 5 14.0586 5 17.9998C5 20.9172 6.15893 23.7151 8.22183 25.778C10.2847 27.8409 13.0826 28.9998 16 28.9998C18.9174 28.9998 21.7153 27.8409 23.7782 25.778C25.8411 23.7151 27 20.9172 27 17.9998C27 14.0586 25.1762 10.0598 21.7237 6.43482ZM12 22.9998C12 19.5411 14.8162 17.0898 16 16.2123C17.185 17.0873 20 19.5411 20 22.9998C20 24.0607 19.5786 25.0781 18.8284 25.8282C18.0783 26.5784 17.0609 26.9998 16 26.9998C14.9391 26.9998 13.9217 26.5784 13.1716 25.8282C12.4214 25.0781 12 24.0607 12 22.9998ZM21.6588 24.9911C21.8847 24.3515 22.0001 23.6781 22 22.9998C22 17.4998 16.7387 14.2761 16.515 14.1423C16.3595 14.0489 16.1814 13.9995 16 13.9995C15.8186 13.9995 15.6405 14.0489 15.485 14.1423C15.2612 14.2761 10 17.4998 10 22.9998C9.9999 23.6781 10.1153 24.3515 10.3413 24.9911C9.29797 24.1489 8.4564 23.0839 7.87824 21.8741C7.30009 20.6644 7.00001 19.3406 7 17.9998C7 13.6986 9.55 10.1061 11.69 7.85107C12.9948 6.48416 14.4394 5.25787 16 4.19232C17.5609 5.25755 19.0055 6.48387 20.31 7.85107C24.1862 11.9373 25 15.6248 25 17.9998C25 19.3406 24.6999 20.6644 24.1218 21.8741C23.5436 23.0839 22.702 24.1489 21.6588 24.9911Z" fill="#4A4A4F"/>
</svg>
