<svg width="32" height="32" viewBox="0 0 32 32" fill="none" xmlns="http://www.w3.org/2000/svg">
<path d="M23 2H9C8.46957 2 7.96086 2.21071 7.58579 2.58579C7.21071 2.96086 7 3.46957 7 4V9.66625C7.00107 10.0988 7.14132 10.5196 7.4 10.8663L10 14.3337V28C10 28.5304 10.2107 29.0391 10.5858 29.4142C10.9609 29.7893 11.4696 30 12 30H20C20.5304 30 21.0391 29.7893 21.4142 29.4142C21.7893 29.0391 22 28.5304 22 28V14.3337L24.6 10.8663C24.8587 10.5196 24.9989 10.0988 25 9.66625V4C25 3.46957 24.7893 2.96086 24.4142 2.58579C24.0391 2.21071 23.5304 2 23 2ZM9 4H23V7H9V4ZM20.4 13.1337C20.1413 13.4804 20.0011 13.9012 20 14.3337V28H12V14.3337C11.9989 13.9012 11.8587 13.4804 11.6 13.1337L9 9.66625V9H23V9.66625L20.4 13.1337ZM17 15V19C17 19.2652 16.8946 19.5196 16.7071 19.7071C16.5196 19.8946 16.2652 20 16 20C15.7348 20 15.4804 19.8946 15.2929 19.7071C15.1054 19.5196 15 19.2652 15 19V15C15 14.7348 15.1054 14.4804 15.2929 14.2929C15.4804 14.1054 15.7348 14 16 14C16.2652 14 16.5196 14.1054 16.7071 14.2929C16.8946 14.4804 17 14.7348 17 15Z" fill="#4A4A4F"/>
</svg>
