<svg width="32" height="32" viewBox="0 0 32 32" fill="none" xmlns="http://www.w3.org/2000/svg">
<path d="M27.4137 10L22 4.58626C21.815 4.39973 21.5947 4.25185 21.352 4.15121C21.1093 4.05057 20.849 3.99917 20.5863 4.00001H6C5.46957 4.00001 4.96086 4.21072 4.58579 4.5858C4.21071 4.96087 4 5.46958 4 6.00001V26C4 26.5304 4.21071 27.0392 4.58579 27.4142C4.96086 27.7893 5.46957 28 6 28H26C26.5304 28 27.0391 27.7893 27.4142 27.4142C27.7893 27.0392 28 26.5304 28 26V11.4138C28.0008 11.151 27.9494 10.8907 27.8488 10.648C27.7482 10.4053 27.6003 10.1851 27.4137 10ZM26 26H23V19C23 18.4696 22.7893 17.9609 22.4142 17.5858C22.0391 17.2107 21.5304 17 21 17H11C10.4696 17 9.96086 17.2107 9.58579 17.5858C9.21071 17.9609 9 18.4696 9 19V26H6V6.00001H20.5863L26 11.4138V26ZM20 9.00001C20 9.26523 19.8946 9.51958 19.7071 9.70712C19.5196 9.89465 19.2652 10 19 10H12C11.7348 10 11.4804 9.89465 11.2929 9.70712C11.1054 9.51958 11 9.26523 11 9.00001C11 8.73479 11.1054 8.48044 11.2929 8.2929C11.4804 8.10537 11.7348 8.00001 12 8.00001H19C19.2652 8.00001 19.5196 8.10537 19.7071 8.2929C19.8946 8.48044 20 8.73479 20 9.00001Z" fill="#4A4A4F"/>
</svg>
