<svg width="32" height="32" viewBox="0 0 32 32" fill="none" xmlns="http://www.w3.org/2000/svg">
<path d="M26 4.00001H23.5C23.3674 4.00001 23.2402 4.05269 23.1465 4.14646C23.0527 4.24023 23 4.3674 23 4.50001V10C23 10.5304 22.7893 11.0392 22.4142 11.4142C22.0392 11.7893 21.5304 12 21 12H11.0338C10.7753 12.0041 10.5248 11.91 10.333 11.7367C10.1411 11.5635 10.0221 11.3238 10 11.0663C9.99093 10.9295 10.0101 10.7923 10.0562 10.6632C10.1024 10.5341 10.1746 10.4159 10.2684 10.3159C10.3622 10.2159 10.4755 10.1363 10.6014 10.0819C10.7272 10.0276 10.8629 9.99971 11 10H20.5C20.6326 10 20.7598 9.94733 20.8536 9.85356C20.9473 9.7598 21 9.63262 21 9.50001V4.50001C21 4.3674 20.9473 4.24023 20.8536 4.14646C20.7598 4.05269 20.6326 4.00001 20.5 4.00001H11.4138C11.151 3.99917 10.8907 4.05057 10.648 4.15121C10.4053 4.25185 10.1851 4.39973 10 4.58626L4.58626 10C4.39973 10.1851 4.25185 10.4053 4.15121 10.648C4.05057 10.8907 3.99917 11.151 4.00001 11.4138V26C4.00001 26.5304 4.21072 27.0392 4.5858 27.4142C4.96087 27.7893 5.46958 28 6.00001 28H26C26.5304 28 27.0392 27.7893 27.4142 27.4142C27.7893 27.0392 28 26.5304 28 26V6.00001C28 5.46958 27.7893 4.96087 27.4142 4.5858C27.0392 4.21072 26.5304 4.00001 26 4.00001ZM16 23C15.2089 23 14.4355 22.7654 13.7777 22.3259C13.1199 21.8864 12.6072 21.2616 12.3045 20.5307C12.0017 19.7998 11.9225 18.9956 12.0769 18.2196C12.2312 17.4437 12.6122 16.731 13.1716 16.1716C13.731 15.6122 14.4437 15.2312 15.2196 15.0769C15.9956 14.9225 16.7998 15.0017 17.5307 15.3045C18.2616 15.6072 18.8864 16.1199 19.3259 16.7777C19.7654 17.4355 20 18.2089 20 19C20 20.0609 19.5786 21.0783 18.8284 21.8284C18.0783 22.5786 17.0609 23 16 23Z" fill="#4A4A4F"/>
</svg>
