<svg width="32" height="32" viewBox="0 0 32 32" fill="none" xmlns="http://www.w3.org/2000/svg">
<path d="M26 4.00001H11.4138C11.151 3.99917 10.8907 4.05057 10.648 4.15121C10.4053 4.25185 10.1851 4.39973 10 4.58626L4.58626 10C4.39973 10.1851 4.25185 10.4053 4.15121 10.648C4.05057 10.8907 3.99917 11.151 4.00001 11.4138V26C4.00001 26.5304 4.21072 27.0392 4.5858 27.4142C4.96087 27.7893 5.46958 28 6.00001 28H26C26.5304 28 27.0392 27.7893 27.4142 27.4142C27.7893 27.0392 28 26.5304 28 26V6.00001C28 5.46958 27.7893 4.96087 27.4142 4.5858C27.0392 4.21072 26.5304 4.00001 26 4.00001ZM26 26H6.00001V11.4138L11.4138 6.00001H21V10H11C10.7348 10 10.4804 10.1054 10.2929 10.2929C10.1054 10.4804 10 10.7348 10 11C10 11.2652 10.1054 11.5196 10.2929 11.7071C10.4804 11.8947 10.7348 12 11 12H21C21.5304 12 22.0392 11.7893 22.4142 11.4142C22.7893 11.0392 23 10.5304 23 10V6.00001H26V26ZM16 14C15.0111 14 14.0444 14.2933 13.2222 14.8427C12.3999 15.3921 11.759 16.173 11.3806 17.0866C11.0022 18.0002 10.9032 19.0056 11.0961 19.9755C11.289 20.9454 11.7652 21.8363 12.4645 22.5355C13.1637 23.2348 14.0547 23.711 15.0246 23.9039C15.9945 24.0969 16.9998 23.9978 17.9134 23.6194C18.8271 23.241 19.608 22.6001 20.1574 21.7779C20.7068 20.9556 21 19.9889 21 19C21 17.6739 20.4732 16.4022 19.5355 15.4645C18.5979 14.5268 17.3261 14 16 14ZM16 22C15.4067 22 14.8266 21.8241 14.3333 21.4944C13.84 21.1648 13.4554 20.6962 13.2284 20.1481C13.0013 19.5999 12.9419 18.9967 13.0577 18.4147C13.1734 17.8328 13.4591 17.2982 13.8787 16.8787C14.2982 16.4591 14.8328 16.1734 15.4147 16.0577C15.9967 15.9419 16.5999 16.0013 17.1481 16.2284C17.6962 16.4554 18.1648 16.84 18.4944 17.3333C18.8241 17.8266 19 18.4067 19 19C19 19.7957 18.6839 20.5587 18.1213 21.1213C17.5587 21.6839 16.7957 22 16 22Z" fill="#4A4A4F"/>
</svg>
