<svg width="32" height="32" viewBox="0 0 32 32" fill="none" xmlns="http://www.w3.org/2000/svg">
<path d="M26.2937 16.1699C26.1925 16.1112 26.0812 16.0549 25.9662 15.9999C26.0812 15.9449 26.1925 15.8887 26.2937 15.8299C26.8669 15.504 27.37 15.0679 27.774 14.5468C28.1781 14.0256 28.475 13.4297 28.6478 12.7934C28.8205 12.157 28.8657 11.4927 28.7807 10.8388C28.6957 10.1849 28.4822 9.55432 28.1525 8.98326C27.8228 8.41221 27.3834 7.91201 26.8596 7.51147C26.3358 7.11093 25.7379 6.81795 25.1004 6.64941C24.4629 6.48086 23.7984 6.44008 23.1451 6.52941C22.4918 6.61874 21.8626 6.83641 21.2937 7.1699C21.1925 7.22865 21.0875 7.2949 20.9837 7.36865C20.9937 7.24365 21 7.11865 21 6.99365C21 5.66757 20.4732 4.3958 19.5355 3.45812C18.5978 2.52044 17.326 1.99365 16 1.99365C14.6739 1.99365 13.4021 2.52044 12.4644 3.45812C11.5267 4.3958 11 5.66757 11 6.99365C11 7.11115 11 7.23615 11.0162 7.36865C10.9125 7.2974 10.8075 7.22865 10.7062 7.1699C10.1374 6.83641 9.50816 6.61874 8.85484 6.52941C8.20152 6.44008 7.53698 6.48086 6.89948 6.64941C6.26199 6.81795 5.66412 7.11093 5.14032 7.51147C4.61651 7.91201 4.1771 8.41221 3.8474 8.98326C3.51769 9.55432 3.30419 10.1849 3.2192 10.8388C3.13421 11.4927 3.17939 12.157 3.35216 12.7934C3.52493 13.4297 3.82187 14.0256 4.22588 14.5468C4.62988 15.0679 5.13299 15.504 5.70621 15.8299C5.80746 15.8887 5.91871 15.9449 6.03371 15.9999C5.91871 16.0549 5.80746 16.1112 5.70621 16.1699C5.13299 16.4958 4.62988 16.9319 4.22588 17.453C3.82187 17.9742 3.52493 18.5701 3.35216 19.2064C3.17939 19.8428 3.13421 20.5071 3.2192 21.161C3.30419 21.8149 3.51769 22.4455 3.8474 23.0165C4.1771 23.5876 4.61651 24.0878 5.14032 24.4883C5.66412 24.8889 6.26199 25.1819 6.89948 25.3504C7.53698 25.5189 8.20152 25.5597 8.85484 25.4704C9.50816 25.3811 10.1374 25.1634 10.7062 24.8299C10.8075 24.7712 10.9125 24.7049 11.0162 24.6312C11.0062 24.7562 11 24.8812 11 24.9999C11 26.326 11.5267 27.5978 12.4644 28.5354C13.4021 29.4731 14.6739 29.9999 16 29.9999C17.326 29.9999 18.5978 29.4731 19.5355 28.5354C20.4732 27.5978 21 26.326 21 24.9999C21 24.8824 20.9937 24.7574 20.9837 24.6312C21.0875 24.7024 21.1925 24.7712 21.2937 24.8299C22.0511 25.2687 22.9109 25.4998 23.7862 25.4999C24.226 25.4993 24.6639 25.4413 25.0887 25.3274C26.0439 25.0714 26.9018 24.5378 27.5538 23.7943C28.2058 23.0507 28.6226 22.1305 28.7516 21.15C28.8806 20.1695 28.7159 19.1728 28.2784 18.2859C27.8409 17.399 27.1502 16.6618 26.2937 16.1674V16.1699ZM16 19.4999C15.3077 19.4999 14.631 19.2946 14.0555 18.91C13.4799 18.5255 13.0313 17.9788 12.7664 17.3393C12.5015 16.6998 12.4322 15.996 12.5672 15.3171C12.7023 14.6382 13.0356 14.0145 13.5251 13.525C14.0146 13.0355 14.6382 12.7022 15.3171 12.5672C15.9961 12.4321 16.6998 12.5014 17.3394 12.7663C17.9789 13.0312 18.5255 13.4798 18.9101 14.0554C19.2947 14.631 19.5 15.3077 19.5 15.9999C19.5 16.9282 19.1312 17.8184 18.4748 18.4748C17.8185 19.1312 16.9282 19.4999 16 19.4999Z" fill="#4A4A4F"/>
</svg>
