<svg width="32" height="32" viewBox="0 0 32 32" fill="none" xmlns="http://www.w3.org/2000/svg">
<path d="M30.7074 10.7076L26.7074 14.7076C26.5198 14.8952 26.2653 15.0006 25.9999 15.0006C25.7346 15.0006 25.4801 14.8952 25.2924 14.7076C25.1048 14.5199 24.9994 14.2654 24.9994 14.0001C24.9994 13.7347 25.1048 13.4802 25.2924 13.2926L27.5862 11.0001H23.9999C23.7924 11.0001 18.8312 11.0963 17.9862 16.1638C17.3749 19.8251 15.2187 21.5001 13.5162 22.2501C12.4321 22.7264 11.2639 22.9814 10.0799 23.0001H9.87494C9.63154 23.9427 9.05271 24.7643 8.24693 25.3107C7.44115 25.8571 6.46375 26.0909 5.49794 25.9682C4.53212 25.8455 3.6442 25.3748 3.00061 24.6443C2.35703 23.9138 2.00195 22.9736 2.00195 22.0001C2.00195 21.0265 2.35703 20.0863 3.00061 19.3558C3.6442 18.6253 4.53212 18.1546 5.49794 18.0319C6.46375 17.9093 7.44115 18.1431 8.24693 18.6895C9.05271 19.2359 9.63154 20.0574 9.87494 21.0001H10.0412C10.2437 21.0001 15.1374 21.1013 16.0149 15.8351C16.6024 12.3051 18.7499 10.6251 20.4562 9.84132C21.5705 9.33035 22.7748 9.04447 23.9999 9.00007H27.5862L25.2924 6.70757C25.1048 6.51993 24.9994 6.26543 24.9994 6.00007C24.9994 5.7347 25.1048 5.48021 25.2924 5.29257C25.4801 5.10493 25.7346 4.99951 25.9999 4.99951C26.2653 4.99951 26.5198 5.10493 26.7074 5.29257L30.7074 9.29257C30.8004 9.38544 30.8742 9.49573 30.9245 9.61713C30.9748 9.73853 31.0007 9.86865 31.0007 10.0001C31.0007 10.1315 30.9748 10.2616 30.9245 10.383C30.8742 10.5044 30.8004 10.6147 30.7074 10.7076Z" fill="#4A4A4F"/>
</svg>
