<svg width="32" height="32" viewBox="0 0 32 32" fill="none" xmlns="http://www.w3.org/2000/svg">
<path d="M26.2937 16.1699C26.1925 16.1112 26.0812 16.0549 25.9662 15.9999C26.0812 15.9449 26.1925 15.8887 26.2937 15.8299C26.8669 15.504 27.37 15.0679 27.774 14.5468C28.1781 14.0256 28.475 13.4297 28.6478 12.7934C28.8205 12.157 28.8657 11.4927 28.7807 10.8388C28.6957 10.1849 28.4822 9.55432 28.1525 8.98326C27.8228 8.41221 27.3834 7.91201 26.8596 7.51147C26.3358 7.11093 25.7379 6.81795 25.1004 6.64941C24.4629 6.48086 23.7984 6.44008 23.1451 6.52941C22.4918 6.61874 21.8626 6.83641 21.2937 7.1699C21.1925 7.22865 21.0875 7.2949 20.9837 7.36865C20.9937 7.24365 21 7.11865 21 6.99365C21 5.66757 20.4732 4.3958 19.5355 3.45812C18.5978 2.52044 17.326 1.99365 16 1.99365C14.6739 1.99365 13.4021 2.52044 12.4644 3.45812C11.5267 4.3958 11 5.66757 11 6.99365C11 7.11115 11 7.23615 11.0162 7.36865C10.9125 7.2974 10.8075 7.22865 10.7062 7.1699C10.1374 6.83641 9.50816 6.61874 8.85484 6.52941C8.20152 6.44008 7.53698 6.48086 6.89948 6.64941C6.26199 6.81795 5.66412 7.11093 5.14032 7.51147C4.61651 7.91201 4.1771 8.41221 3.8474 8.98326C3.51769 9.55432 3.30419 10.1849 3.2192 10.8388C3.13421 11.4927 3.17939 12.157 3.35216 12.7934C3.52493 13.4297 3.82187 14.0256 4.22588 14.5468C4.62988 15.0679 5.13299 15.504 5.70621 15.8299C5.80746 15.8887 5.91871 15.9449 6.03371 15.9999C5.91871 16.0549 5.80746 16.1112 5.70621 16.1699C5.13299 16.4958 4.62988 16.9319 4.22588 17.453C3.82187 17.9742 3.52493 18.5701 3.35216 19.2064C3.17939 19.8428 3.13421 20.5071 3.2192 21.161C3.30419 21.8149 3.51769 22.4455 3.8474 23.0165C4.1771 23.5876 4.61651 24.0878 5.14032 24.4883C5.66412 24.8889 6.26199 25.1819 6.89948 25.3504C7.53698 25.5189 8.20152 25.5597 8.85484 25.4704C9.50816 25.3811 10.1374 25.1634 10.7062 24.8299C10.8075 24.7712 10.9125 24.7049 11.0162 24.6312C11.0062 24.7562 11 24.8812 11 24.9999C11 26.326 11.5267 27.5978 12.4644 28.5354C13.4021 29.4731 14.6739 29.9999 16 29.9999C17.326 29.9999 18.5978 29.4731 19.5355 28.5354C20.4732 27.5978 21 26.326 21 24.9999C21 24.8824 20.9937 24.7574 20.9837 24.6312C21.0875 24.7024 21.1925 24.7712 21.2937 24.8299C22.0511 25.2687 22.9109 25.4998 23.7862 25.4999C24.226 25.4993 24.6639 25.4413 25.0887 25.3274C26.0439 25.0714 26.9018 24.5378 27.5538 23.7943C28.2058 23.0507 28.6226 22.1305 28.7516 21.15C28.8806 20.1695 28.7159 19.1728 28.2784 18.2859C27.8409 17.399 27.1502 16.6618 26.2937 16.1674V16.1699ZM13 15.9999C13 15.4066 13.1759 14.8265 13.5056 14.3332C13.8352 13.8398 14.3037 13.4553 14.8519 13.2283C15.4001 13.0012 16.0033 12.9418 16.5852 13.0575C17.1672 13.1733 17.7017 13.459 18.1213 13.8786C18.5408 14.2981 18.8266 14.8327 18.9423 15.4146C19.0581 15.9966 18.9987 16.5998 18.7716 17.148C18.5445 17.6961 18.16 18.1647 17.6667 18.4943C17.1733 18.824 16.5933 18.9999 16 18.9999C15.2043 18.9999 14.4413 18.6838 13.8786 18.1212C13.316 17.5586 13 16.7956 13 15.9999ZM22.2937 8.90115C22.6349 8.70417 23.0116 8.57632 23.4022 8.5249C23.7928 8.47348 24.1897 8.4995 24.5702 8.60147C24.9508 8.70344 25.3075 8.87936 25.62 9.1192C25.9326 9.35904 26.1949 9.65809 26.3918 9.99928C26.5888 10.3405 26.7167 10.7171 26.7681 11.1077C26.8195 11.4983 26.7935 11.8952 26.6915 12.2758C26.5896 12.6563 26.4136 13.0131 26.1738 13.3256C25.934 13.6382 25.6349 13.9004 25.2937 14.0974C24.51 14.5512 22.9675 14.8637 20.8987 14.9962C20.6805 13.9378 20.1253 12.9787 19.3162 12.2624C20.4662 10.5349 21.51 9.3549 22.2937 8.90115ZM16 3.9999C16.7956 3.9999 17.5587 4.31597 18.1213 4.87858C18.6839 5.44119 19 6.20425 19 6.9999C19 7.9049 18.5 9.39865 17.58 11.2574C16.5546 10.9141 15.4453 10.9141 14.42 11.2574C13.5 9.39865 13 7.9049 13 6.9999C13 6.20425 13.316 5.44119 13.8786 4.87858C14.4413 4.31597 15.2043 3.9999 16 3.9999ZM5.60746 9.9999C5.80439 9.65857 6.06663 9.35938 6.37922 9.11943C6.6918 8.87947 7.04859 8.70345 7.42922 8.60142C7.80984 8.49938 8.20684 8.47333 8.59753 8.52476C8.98823 8.57619 9.36496 8.70409 9.70621 8.90115C10.49 9.3549 11.5337 10.5349 12.6837 12.2624C11.874 12.9797 11.3187 13.9402 11.1012 14.9999C9.03246 14.8674 7.48996 14.5549 6.70621 14.1024C6.36439 13.9055 6.06476 13.6431 5.82448 13.3302C5.58419 13.0173 5.40798 12.6601 5.30592 12.279C5.20386 11.898 5.17796 11.5005 5.22971 11.1094C5.28145 10.7184 5.40982 10.3413 5.60746 9.9999ZM9.70621 23.0987C9.01715 23.4965 8.19827 23.6043 7.42972 23.3983C6.66117 23.1924 6.00591 22.6896 5.60809 22.0005C5.21026 21.3115 5.10246 20.4926 5.3084 19.724C5.51434 18.9555 6.01715 18.3002 6.70621 17.9024C7.48996 17.4487 9.03246 17.1362 11.1012 17.0037C11.3195 18.062 11.8747 19.0211 12.6837 19.7374C11.5337 21.4649 10.49 22.6449 9.70621 23.0987ZM16 27.9999C15.2043 27.9999 14.4413 27.6838 13.8786 27.1212C13.316 26.5586 13 25.7956 13 24.9999C13 24.0949 13.5 22.6012 14.42 20.7424C15.4453 21.0857 16.5546 21.0857 17.58 20.7424C18.5 22.6012 19 24.0949 19 24.9999C19 25.7956 18.6839 26.5586 18.1213 27.1212C17.5587 27.6838 16.7956 27.9999 16 27.9999ZM26.3925 21.9999C26.1955 22.3412 25.9333 22.6404 25.6207 22.8804C25.3081 23.1203 24.9513 23.2964 24.5707 23.3984C24.1901 23.5004 23.7931 23.5265 23.4024 23.475C23.0117 23.4236 22.635 23.2957 22.2937 23.0987C21.51 22.6449 20.4662 21.4649 19.3162 19.7374C20.126 19.0201 20.6812 18.0596 20.8987 16.9999C22.9675 17.1324 24.51 17.4449 25.2937 17.8974C25.6355 18.0943 25.9352 18.3567 26.1755 18.6696C26.4157 18.9825 26.5919 19.3397 26.694 19.7208C26.7961 20.1018 26.822 20.4993 26.7702 20.8904C26.7185 21.2814 26.5901 21.6585 26.3925 21.9999Z" fill="#4A4A4F"/>
</svg>
