<svg width="32" height="32" viewBox="0 0 32 32" fill="none" xmlns="http://www.w3.org/2000/svg">
<path d="M26 6.00023C24.4781 5.99885 22.9726 6.31518 21.58 6.92898C19.6925 3.75773 16.59 2.17898 16.4475 2.10523C16.3086 2.03571 16.1554 1.99951 16 1.99951C15.8446 1.99951 15.6914 2.03571 15.5525 2.10523C15.41 2.17773 12.3025 3.75773 10.42 6.92898C9.02735 6.31518 7.52191 5.99885 6 6.00023C5.73478 6.00023 5.48043 6.10559 5.29289 6.29312C5.10536 6.48066 5 6.73501 5 7.00023V12.0002C5.0033 14.7435 6.03022 17.3867 7.87979 19.4127C9.72935 21.4387 12.2684 22.7015 15 22.954V27.3827L10.4475 25.1052C10.33 25.0465 10.202 25.0114 10.0709 25.0021C9.93986 24.9928 9.80823 25.0094 9.68357 25.0509C9.55891 25.0925 9.44365 25.1582 9.34438 25.2443C9.24511 25.3304 9.16377 25.4352 9.105 25.5527C9.04623 25.6703 9.01119 25.7982 9.00188 25.9293C8.99256 26.0604 9.00915 26.192 9.05071 26.3167C9.09226 26.4413 9.15797 26.5566 9.24406 26.6558C9.33016 26.7551 9.43497 26.8365 9.5525 26.8952L15.5525 29.8952C15.6914 29.9647 15.8446 30.0009 16 30.0009C16.1554 30.0009 16.3086 29.9647 16.4475 29.8952L22.4475 26.8952C22.6849 26.7765 22.8654 26.5684 22.9493 26.3167C23.0332 26.0649 23.0137 25.7901 22.895 25.5527C22.7763 25.3154 22.5682 25.1349 22.3164 25.0509C22.0647 24.967 21.7899 24.9865 21.5525 25.1052L17 27.3827V22.954C19.7316 22.7015 22.2707 21.4387 24.1202 19.4127C25.9698 17.3867 26.9967 14.7435 27 12.0002V7.00023C27 6.73501 26.8946 6.48066 26.7071 6.29312C26.5196 6.10559 26.2652 6.00023 26 6.00023ZM15 20.9452C12.8009 20.6966 10.7701 19.6475 9.29473 17.9978C7.81937 16.3482 7.00257 14.2134 7 12.0002V8.05523C9.19914 8.30386 11.2299 9.35297 12.7053 11.0026C14.1806 12.6523 14.9974 14.7871 15 17.0002V20.9452ZM16 12.4202C15.1588 10.5926 13.8345 9.02927 12.17 7.89898C13.3663 5.92523 15.17 4.66148 16 4.14898C16.8313 4.65898 18.635 5.92273 19.83 7.89898C18.1658 9.02956 16.8416 10.5928 16 12.4202ZM25 12.0002C24.9974 14.2134 24.1806 16.3482 22.7053 17.9978C21.2299 19.6475 19.1991 20.6966 17 20.9452V17.0002C17.0026 14.7871 17.8194 12.6523 19.2947 11.0026C20.7701 9.35297 22.8009 8.30386 25 8.05523V12.0002Z" fill="#4A4A4F"/>
</svg>
