<svg width="32" height="32" viewBox="0 0 32 32" fill="none" xmlns="http://www.w3.org/2000/svg">
<path d="M30.7288 15.2037C30.6012 14.9796 30.4303 14.7832 30.226 14.6259C30.0217 14.4686 29.7881 14.3535 29.5388 14.2875C28.6345 14.0547 27.7 13.9612 26.7676 14.01C27.2676 11.5288 26.8926 9.56625 26.5101 8.4025C26.3576 7.92446 26.0326 7.52032 25.5983 7.26889C25.1641 7.01746 24.6518 6.93675 24.1613 7.0425C22.8893 7.32579 21.6799 7.83923 20.5926 8.5575C19.7962 6.9308 18.6368 5.50881 17.2038 4.40125C16.8565 4.14079 16.4341 4 16.0001 4C15.566 4 15.1436 4.14079 14.7963 4.40125C13.363 5.50849 12.2035 6.93056 11.4076 8.5575C10.3202 7.83923 9.11078 7.32579 7.8388 7.0425C7.3483 6.93675 6.836 7.01746 6.40178 7.26889C5.96755 7.52032 5.64252 7.92446 5.49005 8.4025C5.11505 9.56625 4.74005 11.5275 5.23255 14.01C4.30007 13.9612 3.36559 14.0547 2.4613 14.2875C2.21204 14.3535 1.97842 14.4686 1.77411 14.6259C1.56979 14.7832 1.39886 14.9796 1.2713 15.2037C1.13781 15.4333 1.05137 15.6872 1.01703 15.9505C0.982696 16.2138 1.00114 16.4814 1.0713 16.7375C1.49505 18.3087 2.7963 21.2975 6.73755 23.6525C10.6788 26.0075 14.1413 26 16.0063 26C17.8713 26 21.3401 26 25.2563 23.6525C29.1976 21.2975 30.4988 18.3087 30.9226 16.7375C30.9936 16.4818 31.0131 16.2145 30.9799 15.9511C30.9466 15.6878 30.8613 15.4338 30.7288 15.2037ZM7.39255 9.0175C7.39405 9.0113 7.39786 9.0059 7.4032 9.00241C7.40855 8.99893 7.41502 8.99762 7.4213 8.99875C8.58441 9.26149 9.68202 9.75778 10.6476 10.4575C10.2079 11.8957 9.98959 13.3924 10.0001 14.8962C10.0001 17.2387 10.4713 19.1462 11.1388 20.6812C10.1899 19.7315 9.36878 18.662 8.6963 17.5C6.4438 13.5775 6.91255 10.5 7.39255 9.0175ZM7.76755 21.9363C4.4338 19.9463 3.35255 17.5062 3.00005 16.2125C3.91983 15.986 4.87425 15.9364 5.81255 16.0662C6.1258 16.9053 6.50837 17.7169 6.9563 18.4925C8.05612 20.3887 9.497 22.0652 11.2063 23.4375C9.99762 23.09 8.8398 22.5853 7.76255 21.9363H7.76755ZM16.0001 23.8C14.8338 22.9325 12.0001 20.2712 12.0001 14.8962C12.0001 9.5875 14.7976 6.905 16.0001 6C17.2026 6.9075 20.0001 9.59 20.0001 14.8988C20.0001 20.2712 17.1663 22.9325 16.0001 23.8ZM21.3526 10.4575C22.3182 9.75822 23.4158 9.26237 24.5788 9C24.5851 8.99887 24.5916 9.00017 24.5969 9.00366C24.6022 9.00715 24.6061 9.01255 24.6076 9.01875C25.0876 10.5 25.5563 13.5775 23.3038 17.5C22.6319 18.6636 21.8108 19.7343 20.8613 20.685C21.5288 19.1525 22.0001 17.2425 22.0001 14.9C22.0109 13.3949 21.7926 11.8969 21.3526 10.4575ZM29.0001 16.215C28.6538 17.4963 27.5751 19.9413 24.2388 21.9363C23.1615 22.5848 22.0037 23.0891 20.7951 23.4363C22.5044 22.0639 23.9452 20.3874 25.0451 18.4912C25.493 17.7156 25.8756 16.9041 26.1888 16.065C27.1268 15.9357 28.0809 15.9862 29.0001 16.2138V16.215Z" fill="#4A4A4F"/>
</svg>
