<svg width="32" height="32" viewBox="0 0 32 32" fill="none" xmlns="http://www.w3.org/2000/svg">
<path d="M22.9487 26.6837C23.0326 26.9353 23.0131 27.2099 22.8945 27.4472C22.7759 27.6844 22.5679 27.8648 22.3162 27.9487C22.0646 28.0326 21.79 28.013 21.5528 27.8944C21.3155 27.7758 21.1351 27.5678 21.0513 27.3162L20.0513 24.3162C20.0097 24.1916 19.9931 24.06 20.0024 23.929C20.0118 23.798 20.0468 23.6702 20.1055 23.5527C20.1642 23.4352 20.2455 23.3305 20.3448 23.2444C20.444 23.1584 20.5592 23.0927 20.6838 23.0512C20.8083 23.0097 20.9399 22.9931 21.0709 23.0024C21.2019 23.0117 21.3298 23.0467 21.4472 23.1054C21.5647 23.1642 21.6695 23.2455 21.7555 23.3447C21.8416 23.4439 21.9072 23.5591 21.9487 23.6837L22.9487 26.6837ZM16 22.9999C15.7348 22.9999 15.4804 23.1053 15.2929 23.2928C15.1054 23.4804 15 23.7347 15 23.9999V27.9999C15 28.2652 15.1054 28.5195 15.2929 28.707C15.4804 28.8946 15.7348 28.9999 16 28.9999C16.2652 28.9999 16.5196 28.8946 16.7071 28.707C16.8946 28.5195 17 28.2652 17 27.9999V23.9999C17 23.7347 16.8946 23.4804 16.7071 23.2928C16.5196 23.1053 16.2652 22.9999 16 22.9999ZM11.3162 23.0512C11.1917 23.0096 11.0601 22.9931 10.9291 23.0024C10.7981 23.0117 10.6702 23.0467 10.5527 23.1054C10.4353 23.1642 10.3305 23.2455 10.2445 23.3447C10.1584 23.4439 10.0928 23.5591 10.0513 23.6837L9.05125 26.6837C8.96738 26.9353 8.98689 27.2099 9.10551 27.4472C9.22413 27.6844 9.43213 27.8648 9.68375 27.9487C9.93537 28.0326 10.21 28.013 10.4472 27.8944C10.6845 27.7758 10.8649 27.5678 10.9487 27.3162L11.9487 24.3162C11.9903 24.1916 12.0069 24.06 11.9976 23.929C11.9883 23.798 11.9532 23.6701 11.8945 23.5527C11.8358 23.4352 11.7545 23.3305 11.6553 23.2444C11.556 23.1584 11.4408 23.0927 11.3162 23.0512ZM31 13.9999C31 16.0274 29.3288 17.8612 26.2938 19.1612C23.5275 20.3474 19.875 20.9999 16 20.9999C12.125 20.9999 8.4725 20.3474 5.70625 19.1612C2.67125 17.8612 1 16.0274 1 13.9999C1 12.9537 1.45875 11.4012 3.64625 9.93744C5.0675 8.98619 7.01375 8.21744 9.29375 7.70619C9.92956 6.69882 10.7835 5.8471 11.7925 5.21391C12.8015 4.58072 13.9399 4.18223 15.1235 4.04785C16.3071 3.91347 17.5058 4.04663 18.6311 4.4375C19.7564 4.82838 20.7795 5.46699 21.625 6.30619C22.0563 6.73291 22.4382 7.20672 22.7638 7.71869C27.9287 8.88619 31 11.2174 31 13.9999ZM22 11.9999C22.002 10.9782 21.7411 9.97304 21.2425 9.08119L21.235 9.06993C20.7068 8.12774 19.9344 7.34535 18.9991 6.80509C18.0637 6.26483 17.0001 5.98669 15.92 5.99994C12.6562 6.04244 10 8.78119 10 12.1037V12.4787C9.99873 12.7033 10.0739 12.9217 10.2131 13.098C10.3524 13.2742 10.5474 13.3979 10.7662 13.4487C12.4847 13.8276 14.2403 14.0125 16 13.9999C17.7587 14.0141 19.5134 13.8309 21.2313 13.4537C21.4504 13.4032 21.6459 13.2797 21.7856 13.1034C21.9253 12.9271 22.0009 12.7086 22 12.4837V11.9999Z" fill="#4A4A4F"/>
</svg>
