<svg width="32" height="32" viewBox="0 0 32 32" fill="none" xmlns="http://www.w3.org/2000/svg">
<path d="M28.9662 27.7425C29.0057 27.8906 29.0106 28.0458 28.9806 28.1961C28.9505 28.3464 28.8863 28.4878 28.7929 28.6093C28.6995 28.7308 28.5795 28.8293 28.442 28.897C28.3045 28.9648 28.1533 29 28 29H20C19.8476 28.9997 19.6972 28.9646 19.5604 28.8972C19.4236 28.8299 19.3041 28.7322 19.2108 28.6116C19.1176 28.491 19.0532 28.3506 19.0225 28.2013C18.9918 28.052 18.9956 27.8976 19.0338 27.75C19.3578 26.5451 20.1207 25.5049 21.1725 24.8338C20.6128 24.2745 20.2316 23.5617 20.0771 22.7857C19.9225 22.0097 20.0016 21.2053 20.3042 20.4743C20.6069 19.7432 21.1196 19.1184 21.7774 18.6787C22.4353 18.2391 23.2088 18.0044 24 18.0044C24.7912 18.0044 25.5647 18.2391 26.2226 18.6787C26.8804 19.1184 27.3931 19.7432 27.6958 20.4743C27.9984 21.2053 28.0775 22.0097 27.9229 22.7857C27.7684 23.5617 27.3872 24.2745 26.8275 24.8338C27.8778 25.5031 28.6405 26.5404 28.9662 27.7425ZM29 11V15C29 15.2652 28.8946 15.5196 28.7071 15.7071C28.5196 15.8947 28.2652 16 28 16C27.7348 16 27.4804 15.8947 27.2929 15.7071C27.1054 15.5196 27 15.2652 27 15V11H5V25H15.07C15.3352 25 15.5896 25.1054 15.7771 25.2929C15.9646 25.4804 16.07 25.7348 16.07 26C16.07 26.2652 15.9646 26.5196 15.7771 26.7071C15.5896 26.8947 15.3352 27 15.07 27H4.9225C4.41282 26.9993 3.92421 26.7966 3.56382 26.4362C3.20342 26.0758 3.00066 25.5872 3 25.0775V7.00001C3 6.46958 3.21071 5.96087 3.58579 5.5858C3.96086 5.21072 4.46957 5.00001 5 5.00001H11.5863C11.849 4.99917 12.1093 5.05057 12.352 5.15121C12.5947 5.25185 12.815 5.39973 13 5.58626L16.4137 9.00001H27C27.5304 9.00001 28.0391 9.21072 28.4142 9.5858C28.7893 9.96087 29 10.4696 29 11ZM13.5863 9.00001L11.5863 7.00001H5V9.00001H13.5863Z" fill="#4A4A4F"/>
</svg>
