<svg width="32" height="32" viewBox="0 0 32 32" fill="none" xmlns="http://www.w3.org/2000/svg">
<path d="M27 9H16.3337L12.865 6.4C12.5195 6.14087 12.0994 6.00054 11.6675 6H5C4.46957 6 3.96086 6.21071 3.58579 6.58579C3.21071 6.96086 3 7.46957 3 8V25C3 25.5304 3.21071 26.0391 3.58579 26.4142C3.96086 26.7893 4.46957 27 5 27H27.1112C27.612 26.9993 28.092 26.8001 28.4461 26.4461C28.8001 26.092 28.9993 25.612 29 25.1112V11C29 10.4696 28.7893 9.96086 28.4142 9.58579C28.0391 9.21071 27.5304 9 27 9Z" fill="#4A4A4F"/>
</svg>
