<svg width="32" height="32" viewBox="0 0 32 32" fill="none" xmlns="http://www.w3.org/2000/svg">
<path d="M16 26C16 26.2652 15.8946 26.5196 15.7071 26.7071C15.5196 26.8946 15.2652 27 15 27H5C4.46957 27 3.96086 26.7893 3.58579 26.4142C3.21071 26.0391 3 25.5304 3 25V8C3 7.46957 3.21071 6.96086 3.58579 6.58579C3.96086 6.21071 4.46957 6 5 6H11.6663C12.0988 6.00107 12.5196 6.14132 12.8663 6.4L16.3337 9H27C27.5304 9 28.0391 9.21071 28.4142 9.58579C28.7893 9.96086 29 10.4696 29 11V15C29 15.2652 28.8946 15.5196 28.7071 15.7071C28.5196 15.8946 28.2652 16 28 16C27.7348 16 27.4804 15.8946 27.2929 15.7071C27.1054 15.5196 27 15.2652 27 15V11H16.3337C15.9012 10.9989 15.4804 10.8587 15.1337 10.6L11.6663 8H5V25H15C15.2652 25 15.5196 25.1054 15.7071 25.2929C15.8946 25.4804 16 25.7348 16 26ZM29.9538 19.9C29.8936 19.7102 29.7783 19.5427 29.6224 19.4189C29.4665 19.2951 29.2772 19.2206 29.0788 19.205L25.3487 18.9163L23.92 15.6038C23.8428 15.4241 23.7146 15.271 23.5513 15.1635C23.388 15.0559 23.1968 14.9986 23.0012 14.9986C22.8057 14.9986 22.6145 15.0559 22.4512 15.1635C22.2879 15.271 22.1597 15.4241 22.0825 15.6038L20.6537 18.9163L16.9237 19.205C16.7252 19.2206 16.5359 19.2952 16.3801 19.4191C16.2242 19.543 16.1089 19.7106 16.0488 19.9005C15.9888 20.0903 15.9868 20.2938 16.0432 20.4848C16.0995 20.6758 16.2116 20.8456 16.365 20.9725L19.1787 23.2962L18.3225 26.76C18.2755 26.951 18.2858 27.1516 18.3523 27.3367C18.4187 27.5218 18.5382 27.6832 18.6959 27.8008C18.8536 27.9183 19.0425 27.9867 19.2388 27.9975C19.4352 28.0083 19.6304 27.9609 19.8 27.8612L23 25.9775L26.2013 27.8612C26.3708 27.9609 26.566 28.0083 26.7624 27.9975C26.9588 27.9867 27.1476 27.9183 27.3053 27.8008C27.463 27.6832 27.5826 27.5218 27.649 27.3367C27.7154 27.1516 27.7258 26.951 27.6787 26.76L26.8225 23.2962L29.6362 20.9725C29.79 20.8457 29.9024 20.6759 29.959 20.4848C30.0155 20.2937 30.0137 20.0901 29.9538 19.9Z" fill="#4A4A4F"/>
</svg>
