<svg width="32" height="32" viewBox="0 0 32 32" fill="none" xmlns="http://www.w3.org/2000/svg">
<path d="M12 26C12 26.2652 11.8946 26.5196 11.7071 26.7071C11.5196 26.8947 11.2652 27 11 27H4.9225C4.41282 26.9993 3.92421 26.7966 3.56382 26.4362C3.20342 26.0758 3.00066 25.5872 3 25.0775V24C3 23.7348 3.10536 23.4804 3.29289 23.2929C3.48043 23.1054 3.73478 23 4 23C4.26522 23 4.51957 23.1054 4.70711 23.2929C4.89464 23.4804 5 23.7348 5 24V25H11C11.2652 25 11.5196 25.1054 11.7071 25.2929C11.8946 25.4804 12 25.7348 12 26ZM20 25H16C15.7348 25 15.4804 25.1054 15.2929 25.2929C15.1054 25.4804 15 25.7348 15 26C15 26.2652 15.1054 26.5196 15.2929 26.7071C15.4804 26.8947 15.7348 27 16 27H20C20.2652 27 20.5196 26.8947 20.7071 26.7071C20.8946 26.5196 21 26.2652 21 26C21 25.7348 20.8946 25.4804 20.7071 25.2929C20.5196 25.1054 20.2652 25 20 25ZM28 18C27.7348 18 27.4804 18.1054 27.2929 18.2929C27.1054 18.4804 27 18.7348 27 19V25H25C24.7348 25 24.4804 25.1054 24.2929 25.2929C24.1054 25.4804 24 25.7348 24 26C24 26.2652 24.1054 26.5196 24.2929 26.7071C24.4804 26.8947 24.7348 27 25 27H27.1112C27.612 26.9993 28.092 26.8001 28.4461 26.4461C28.8001 26.092 28.9993 25.612 29 25.1113V19C29 18.7348 28.8946 18.4804 28.7071 18.2929C28.5196 18.1054 28.2652 18 28 18ZM27 9.00001H21C20.7348 9.00001 20.4804 9.10537 20.2929 9.2929C20.1054 9.48044 20 9.73479 20 10C20 10.2652 20.1054 10.5196 20.2929 10.7071C20.4804 10.8947 20.7348 11 21 11H27V14C27 14.2652 27.1054 14.5196 27.2929 14.7071C27.4804 14.8947 27.7348 15 28 15C28.2652 15 28.5196 14.8947 28.7071 14.7071C28.8946 14.5196 29 14.2652 29 14V11C29 10.4696 28.7893 9.96087 28.4142 9.5858C28.0391 9.21072 27.5304 9.00001 27 9.00001ZM4 11H16C16.1979 11.0002 16.3914 10.9416 16.556 10.8317C16.7206 10.7219 16.8489 10.5656 16.9246 10.3828C17.0004 10.2 17.0202 9.99879 16.9815 9.8047C16.9429 9.61062 16.8475 9.43236 16.7075 9.29251L13 5.58626C12.815 5.39973 12.5947 5.25185 12.352 5.15121C12.1093 5.05057 11.849 4.99917 11.5863 5.00001H5C4.46957 5.00001 3.96086 5.21072 3.58579 5.5858C3.21071 5.96087 3 6.46958 3 7.00001V10C3 10.2652 3.10536 10.5196 3.29289 10.7071C3.48043 10.8947 3.73478 11 4 11ZM4 20C4.26522 20 4.51957 19.8947 4.70711 19.7071C4.89464 19.5196 5 19.2652 5 19V15C5 14.7348 4.89464 14.4804 4.70711 14.2929C4.51957 14.1054 4.26522 14 4 14C3.73478 14 3.48043 14.1054 3.29289 14.2929C3.10536 14.4804 3 14.7348 3 15V19C3 19.2652 3.10536 19.5196 3.29289 19.7071C3.48043 19.8947 3.73478 20 4 20Z" fill="#4A4A4F"/>
</svg>
