<svg width="32" height="32" viewBox="0 0 32 32" fill="none" xmlns="http://www.w3.org/2000/svg">
<path d="M15.07 25H5V11H27V15C27 15.2652 27.1054 15.5196 27.2929 15.7071C27.4804 15.8947 27.7348 16 28 16C28.2652 16 28.5196 15.8947 28.7071 15.7071C28.8946 15.5196 29 15.2652 29 15V11C29 10.4696 28.7893 9.96087 28.4142 9.5858C28.0391 9.21072 27.5304 9.00001 27 9.00001H16.4137L13 5.58626C12.815 5.39973 12.5947 5.25185 12.352 5.15121C12.1093 5.05057 11.849 4.99917 11.5863 5.00001H5C4.46957 5.00001 3.96086 5.21072 3.58579 5.5858C3.21071 5.96087 3 6.46958 3 7.00001V25.0775C3.00066 25.5872 3.20342 26.0758 3.56382 26.4362C3.92421 26.7966 4.41282 26.9993 4.9225 27H15.07C15.3352 27 15.5896 26.8947 15.7771 26.7071C15.9646 26.5196 16.07 26.2652 16.07 26C16.07 25.7348 15.9646 25.4804 15.7771 25.2929C15.5896 25.1054 15.3352 25 15.07 25ZM11.5863 7.00001L13.5863 9.00001H5V7.00001H11.5863ZM29.9538 19.9C29.8936 19.7102 29.7783 19.5427 29.6224 19.4189C29.4665 19.2951 29.2772 19.2206 29.0788 19.205L25.3487 18.9163L23.92 15.6038C23.8428 15.4241 23.7146 15.271 23.5513 15.1635C23.388 15.0559 23.1968 14.9986 23.0012 14.9986C22.8057 14.9986 22.6145 15.0559 22.4512 15.1635C22.2879 15.271 22.1597 15.4241 22.0825 15.6038L20.6537 18.9163L16.9237 19.205C16.7252 19.2207 16.5359 19.2952 16.3801 19.4191C16.2242 19.543 16.1089 19.7106 16.0488 19.9005C15.9888 20.0904 15.9868 20.2938 16.0432 20.4848C16.0995 20.6758 16.2116 20.8456 16.365 20.9725L19.1787 23.2963L18.3225 26.76C18.2755 26.951 18.2858 27.1516 18.3523 27.3367C18.4187 27.5218 18.5382 27.6833 18.6959 27.8008C18.8536 27.9183 19.0425 27.9868 19.2388 27.9975C19.4352 28.0083 19.6304 27.9609 19.8 27.8613L23 25.9775L26.2013 27.8613C26.3708 27.9609 26.566 28.0083 26.7624 27.9975C26.9588 27.9868 27.1476 27.9183 27.3053 27.8008C27.463 27.6833 27.5826 27.5218 27.649 27.3367C27.7154 27.1516 27.7258 26.951 27.6787 26.76L26.8225 23.2963L29.6362 20.9725C29.79 20.8457 29.9024 20.6759 29.959 20.4848C30.0155 20.2937 30.0137 20.0901 29.9538 19.9ZM25.0637 22.15C24.9183 22.2699 24.8097 22.4284 24.7504 22.6073C24.6911 22.7862 24.6836 22.9783 24.7288 23.1613L25.1663 24.9263L23.5075 23.95C23.3537 23.8594 23.1785 23.8117 23 23.8117C22.8215 23.8117 22.6463 23.8594 22.4925 23.95L20.8337 24.9263L21.2712 23.1613C21.3164 22.9783 21.3089 22.7862 21.2496 22.6073C21.1903 22.4284 21.0817 22.2699 20.9363 22.15L19.5475 21.0025L21.4088 20.8588C21.5903 20.8448 21.7646 20.7816 21.9129 20.6758C22.0611 20.5701 22.1777 20.4259 22.25 20.2588L23 18.5188L23.75 20.2588C23.8223 20.4259 23.9389 20.5701 24.0871 20.6758C24.2354 20.7816 24.4097 20.8448 24.5912 20.8588L26.4525 21.0025L25.0637 22.15Z" fill="#4A4A4F"/>
</svg>
