<svg width="32" height="32" viewBox="0 0 32 32" fill="none" xmlns="http://www.w3.org/2000/svg">
<path d="M28.9662 27.7425C29.0057 27.8906 29.0106 28.0458 28.9806 28.1961C28.9505 28.3464 28.8863 28.4878 28.7929 28.6093C28.6995 28.7308 28.5795 28.8293 28.442 28.897C28.3045 28.9648 28.1533 29 28 29H20C19.8476 28.9997 19.6972 28.9645 19.5604 28.8972C19.4236 28.8299 19.3041 28.7322 19.2108 28.6116C19.1176 28.491 19.0532 28.3506 19.0225 28.2013C18.9918 28.052 18.9956 27.8976 19.0338 27.75C19.3578 26.5451 20.1207 25.5049 21.1725 24.8337C20.6128 24.2744 20.2316 23.5617 20.0771 22.7857C19.9225 22.0097 20.0016 21.2053 20.3042 20.4743C20.6069 19.7432 21.1196 19.1183 21.7774 18.6787C22.4353 18.2391 23.2088 18.0044 24 18.0044C24.7912 18.0044 25.5647 18.2391 26.2226 18.6787C26.8804 19.1183 27.3931 19.7432 27.6958 20.4743C27.9984 21.2053 28.0775 22.0097 27.9229 22.7857C27.7684 23.5617 27.3872 24.2744 26.8275 24.8337C27.8778 25.5031 28.6405 26.5404 28.9662 27.7425ZM27 9H16.3337L12.8663 6.4C12.5196 6.14132 12.0988 6.00107 11.6663 6H5C4.46957 6 3.96086 6.21071 3.58579 6.58579C3.21071 6.96086 3 7.46957 3 8V25C3 25.5304 3.21071 26.0391 3.58579 26.4142C3.96086 26.7893 4.46957 27 5 27H15C15.2652 27 15.5196 26.8946 15.7071 26.7071C15.8946 26.5196 16 26.2652 16 26C16 25.7348 15.8946 25.4804 15.7071 25.2929C15.5196 25.1054 15.2652 25 15 25H5V8H11.6663L15.1337 10.6C15.4804 10.8587 15.9012 10.9989 16.3337 11H27V15C27 15.2652 27.1054 15.5196 27.2929 15.7071C27.4804 15.8946 27.7348 16 28 16C28.2652 16 28.5196 15.8946 28.7071 15.7071C28.8946 15.5196 29 15.2652 29 15V11C29 10.4696 28.7893 9.96086 28.4142 9.58579C28.0391 9.21071 27.5304 9 27 9Z" fill="#4A4A4F"/>
</svg>
