<svg width="32" height="32" viewBox="0 0 32 32" fill="none" xmlns="http://www.w3.org/2000/svg">
<path d="M29.6362 20.9725L26.8225 23.2963L27.6787 26.76C27.7258 26.951 27.7154 27.1516 27.649 27.3367C27.5826 27.5218 27.463 27.6833 27.3053 27.8008C27.1476 27.9183 26.9588 27.9868 26.7624 27.9975C26.566 28.0083 26.3708 27.9609 26.2013 27.8613L23 25.9775L19.7987 27.8613C19.6292 27.9609 19.434 28.0083 19.2376 27.9975C19.0412 27.9868 18.8524 27.9183 18.6947 27.8008C18.537 27.6833 18.4174 27.5218 18.351 27.3367C18.2846 27.1516 18.2742 26.951 18.3213 26.76L19.1775 23.2963L16.3638 20.9725C16.2103 20.8456 16.0983 20.6758 16.0419 20.4848C15.9856 20.2938 15.9876 20.0904 16.0476 19.9005C16.1076 19.7106 16.2229 19.543 16.3788 19.4191C16.5347 19.2952 16.724 19.2207 16.9225 19.205L20.6525 18.9163L22.0812 15.6038C22.1585 15.4241 22.2866 15.271 22.4499 15.1635C22.6132 15.0559 22.8045 14.9986 23 14.9986C23.1955 14.9986 23.3868 15.0559 23.5501 15.1635C23.7134 15.271 23.8415 15.4241 23.9188 15.6038L25.3475 18.9163L29.0775 19.205C29.276 19.2207 29.4653 19.2952 29.6212 19.4191C29.7771 19.543 29.8924 19.7106 29.9524 19.9005C30.0124 20.0904 30.0144 20.2938 29.9581 20.4848C29.9018 20.6758 29.7897 20.8456 29.6362 20.9725ZM16.07 26C16.07 26.2652 15.9646 26.5196 15.7771 26.7071C15.5896 26.8947 15.3352 27 15.07 27H4.9225C4.41282 26.9993 3.92421 26.7966 3.56382 26.4362C3.20342 26.0758 3.00066 25.5872 3 25.0775V7.00001C3 6.46958 3.21071 5.96087 3.58579 5.5858C3.96086 5.21072 4.46957 5.00001 5 5.00001H11.5863C11.849 4.99917 12.1093 5.05057 12.352 5.15121C12.5947 5.25185 12.815 5.39973 13 5.58626L16.4137 9.00001H27C27.5304 9.00001 28.0391 9.21072 28.4142 9.5858C28.7893 9.96087 29 10.4696 29 11V15C29 15.2652 28.8946 15.5196 28.7071 15.7071C28.5196 15.8947 28.2652 16 28 16C27.7348 16 27.4804 15.8947 27.2929 15.7071C27.1054 15.5196 27 15.2652 27 15V11H5V25H15.07C15.3352 25 15.5896 25.1054 15.7771 25.2929C15.9646 25.4804 16.07 25.7348 16.07 26ZM5 9.00001H13.5863L11.5863 7.00001H5V9.00001Z" fill="#4A4A4F"/>
</svg>
