<svg width="32" height="32" viewBox="0 0 32 32" fill="none" xmlns="http://www.w3.org/2000/svg">
<path d="M27 9.00001H16.4137L13 5.58626C12.8149 5.39984 12.5946 5.25203 12.3519 5.1514C12.1092 5.05077 11.849 4.99931 11.5863 5.00001H5C4.46957 5.00001 3.96086 5.21072 3.58579 5.58579C3.21071 5.96087 3 6.46957 3 7.00001V25.0775C3.00099 25.5873 3.20403 26.0759 3.56462 26.4363C3.92522 26.7966 4.41396 26.9993 4.92375 27H27.1112C27.612 26.9993 28.092 26.8001 28.4461 26.4461C28.8001 26.092 28.9993 25.612 29 25.1113V11C29 10.4696 28.7893 9.96087 28.4142 9.58579C28.0391 9.21072 27.5304 9.00001 27 9.00001ZM5 7.00001H11.5863L13.5863 9.00001H5V7.00001ZM19 19H13C12.7348 19 12.4804 18.8947 12.2929 18.7071C12.1054 18.5196 12 18.2652 12 18C12 17.7348 12.1054 17.4804 12.2929 17.2929C12.4804 17.1054 12.7348 17 13 17H19C19.2652 17 19.5196 17.1054 19.7071 17.2929C19.8946 17.4804 20 17.7348 20 18C20 18.2652 19.8946 18.5196 19.7071 18.7071C19.5196 18.8947 19.2652 19 19 19Z" fill="#4A4A4F"/>
</svg>
