<svg width="32" height="32" viewBox="0 0 32 32" fill="none" xmlns="http://www.w3.org/2000/svg">
<path d="M16 26C16 26.2652 15.8946 26.5196 15.7071 26.7071C15.5196 26.8946 15.2652 27 15 27H5C4.46957 27 3.96086 26.7893 3.58579 26.4142C3.21071 26.0391 3 25.5304 3 25V8C3 7.46957 3.21071 6.96086 3.58579 6.58579C3.96086 6.21071 4.46957 6 5 6H11.6663C12.0988 6.00107 12.5196 6.14132 12.8663 6.4L16.3337 9H27C27.5304 9 28.0391 9.21071 28.4142 9.58579C28.7893 9.96086 29 10.4696 29 11V15C29 15.2652 28.8946 15.5196 28.7071 15.7071C28.5196 15.8946 28.2652 16 28 16C27.7348 16 27.4804 15.8946 27.2929 15.7071C27.1054 15.5196 27 15.2652 27 15V11H16.3337C15.9012 10.9989 15.4804 10.8587 15.1337 10.6L11.6663 8H5V25H15C15.2652 25 15.5196 25.1054 15.7071 25.2929C15.8946 25.4804 16 25.7348 16 26ZM29.6362 20.9725L26.8225 23.2962L27.6787 26.76C27.7258 26.951 27.7154 27.1516 27.649 27.3367C27.5826 27.5218 27.463 27.6832 27.3053 27.8008C27.1476 27.9183 26.9588 27.9867 26.7624 27.9975C26.566 28.0083 26.3708 27.9609 26.2013 27.8612L23 25.9775L19.7987 27.8612C19.6292 27.9609 19.434 28.0083 19.2376 27.9975C19.0412 27.9867 18.8524 27.9183 18.6947 27.8008C18.537 27.6832 18.4174 27.5218 18.351 27.3367C18.2846 27.1516 18.2742 26.951 18.3213 26.76L19.1775 23.2962L16.3638 20.9725C16.2103 20.8456 16.0983 20.6758 16.0419 20.4848C15.9856 20.2938 15.9876 20.0903 16.0476 19.9005C16.1076 19.7106 16.2229 19.543 16.3788 19.4191C16.5347 19.2952 16.724 19.2206 16.9225 19.205L20.6525 18.9163L22.0812 15.6038C22.1585 15.4241 22.2866 15.271 22.4499 15.1635C22.6132 15.0559 22.8045 14.9986 23 14.9986C23.1955 14.9986 23.3868 15.0559 23.5501 15.1635C23.7134 15.271 23.8415 15.4241 23.9188 15.6038L25.3475 18.9163L29.0775 19.205C29.276 19.2206 29.4653 19.2952 29.6212 19.4191C29.7771 19.543 29.8924 19.7106 29.9524 19.9005C30.0124 20.0903 30.0144 20.2938 29.9581 20.4848C29.9018 20.6758 29.7897 20.8456 29.6362 20.9725ZM26.4525 21.0075L24.5912 20.8638C24.4097 20.8498 24.2354 20.7866 24.0871 20.6808C23.9389 20.5751 23.8223 20.4309 23.75 20.2638L23 18.5238L22.25 20.2638C22.1777 20.4309 22.0611 20.5751 21.9129 20.6808C21.7646 20.7866 21.5903 20.8498 21.4088 20.8638L19.5475 21.0075L20.9363 22.155C21.0817 22.2749 21.1903 22.4334 21.2496 22.6123C21.3089 22.7912 21.3164 22.9833 21.2712 23.1663L20.8337 24.9312L22.4925 23.955C22.6463 23.8644 22.8215 23.8167 23 23.8167C23.1785 23.8167 23.3537 23.8644 23.5075 23.955L25.1663 24.9312L24.7288 23.1663C24.6836 22.9833 24.6911 22.7912 24.7504 22.6123C24.8097 22.4334 24.9183 22.2749 25.0637 22.155L26.4525 21.0075Z" fill="#4A4A4F"/>
</svg>
