<svg width="32" height="32" viewBox="0 0 32 32" fill="none" xmlns="http://www.w3.org/2000/svg">
<path d="M26.8263 24.8275C27.3861 24.2683 27.7675 23.5555 27.9222 22.7795C28.0769 22.0035 27.9979 21.199 27.6953 20.4678C27.3927 19.7366 26.88 19.1117 26.2221 18.6719C25.5642 18.2322 24.7907 17.9975 23.9994 17.9975C23.2081 17.9975 22.4345 18.2322 21.7766 18.6719C21.1187 19.1117 20.6061 19.7366 20.3034 20.4678C20.0008 21.199 19.9219 22.0035 20.0766 22.7795C20.2313 23.5555 20.6127 24.2683 21.1725 24.8275C20.1209 25.4984 19.3581 26.5381 19.0338 27.7425C18.9655 27.9988 19.0018 28.2717 19.1347 28.5012C19.2676 28.7307 19.4862 28.8979 19.7425 28.9662C19.8265 28.9884 19.9131 28.9998 20 29C20.2205 28.9999 20.4348 28.9269 20.6096 28.7924C20.7844 28.6579 20.9097 28.4694 20.9662 28.2563C21.32 26.9275 22.5675 26 24 26C25.4325 26 26.68 26.9275 27.0338 28.2563C27.0654 28.3854 27.1225 28.5069 27.2017 28.6137C27.2809 28.7205 27.3806 28.8104 27.4949 28.8783C27.6093 28.9461 27.736 28.9904 27.8677 29.0087C27.9994 29.0269 28.1334 29.0187 28.2619 28.9846C28.3904 28.9504 28.5108 28.891 28.616 28.8097C28.7213 28.7285 28.8093 28.6271 28.8749 28.5114C28.9404 28.3958 28.9823 28.2682 28.998 28.1362C29.0137 28.0041 29.0029 27.8703 28.9662 27.7425C28.6416 26.5379 27.8783 25.4981 26.8263 24.8275ZM24 20C24.3956 20 24.7822 20.1173 25.1111 20.3371C25.44 20.5568 25.6964 20.8692 25.8478 21.2346C25.9991 21.6001 26.0387 22.0022 25.9616 22.3902C25.8844 22.7781 25.6939 23.1345 25.4142 23.4142C25.1345 23.6939 24.7781 23.8844 24.3902 23.9616C24.0022 24.0387 23.6001 23.9991 23.2346 23.8478C22.8692 23.6964 22.5568 23.44 22.3371 23.1111C22.1173 22.7822 22 22.3956 22 22C22 21.4696 22.2107 20.9609 22.5858 20.5858C22.9609 20.2107 23.4696 20 24 20ZM29 11V15C29 15.2652 28.8946 15.5196 28.7071 15.7071C28.5196 15.8946 28.2652 16 28 16C27.7348 16 27.4804 15.8946 27.2929 15.7071C27.1054 15.5196 27 15.2652 27 15V11H16.3337C15.9012 10.9989 15.4804 10.8587 15.1337 10.6L11.6663 8H5V25H15C15.2652 25 15.5196 25.1054 15.7071 25.2929C15.8946 25.4804 16 25.7348 16 26C16 26.2652 15.8946 26.5196 15.7071 26.7071C15.5196 26.8946 15.2652 27 15 27H5C4.46957 27 3.96086 26.7893 3.58579 26.4142C3.21071 26.0391 3 25.5304 3 25V8C3 7.46957 3.21071 6.96086 3.58579 6.58579C3.96086 6.21071 4.46957 6 5 6H11.6663C12.0988 6.00107 12.5196 6.14132 12.8663 6.4L16.3337 9H27C27.5304 9 28.0391 9.21071 28.4142 9.58579C28.7893 9.96086 29 10.4696 29 11Z" fill="#4A4A4F"/>
</svg>
