<svg width="32" height="32" viewBox="0 0 32 32" fill="none" xmlns="http://www.w3.org/2000/svg">
<path d="M27 9.00001H16.4137L13 5.58626C12.815 5.39973 12.5947 5.25185 12.352 5.15121C12.1093 5.05057 11.849 4.99917 11.5863 5.00001H5C4.46957 5.00001 3.96086 5.21072 3.58579 5.5858C3.21071 5.96087 3 6.46958 3 7.00001V25.0775C3.00066 25.5872 3.20342 26.0758 3.56382 26.4362C3.92421 26.7966 4.41282 26.9993 4.9225 27H14.07C14.3352 27 14.5896 26.8947 14.7771 26.7071C14.9646 26.5196 15.07 26.2652 15.07 26C15.07 25.7348 14.9646 25.4804 14.7771 25.2929C14.5896 25.1054 14.3352 25 14.07 25H5V11H27V13C27 13.2652 27.1054 13.5196 27.2929 13.7071C27.4804 13.8947 27.7348 14 28 14C28.2652 14 28.5196 13.8947 28.7071 13.7071C28.8946 13.5196 29 13.2652 29 13V11C29 10.4696 28.7893 9.96087 28.4142 9.5858C28.0391 9.21072 27.5304 9.00001 27 9.00001ZM5 9.00001V7.00001H11.5863L13.5863 9.00001H5ZM28 20H27V19.5C27 18.5718 26.6313 17.6815 25.9749 17.0251C25.3185 16.3688 24.4283 16 23.5 16C22.5717 16 21.6815 16.3688 21.0251 17.0251C20.3687 17.6815 20 18.5718 20 19.5V20H19C18.7348 20 18.4804 20.1054 18.2929 20.2929C18.1054 20.4804 18 20.7348 18 21V26C18 26.2652 18.1054 26.5196 18.2929 26.7071C18.4804 26.8947 18.7348 27 19 27H28C28.2652 27 28.5196 26.8947 28.7071 26.7071C28.8946 26.5196 29 26.2652 29 26V21C29 20.7348 28.8946 20.4804 28.7071 20.2929C28.5196 20.1054 28.2652 20 28 20ZM25 20H22V19.5C22 19.1022 22.158 18.7207 22.4393 18.4394C22.7206 18.158 23.1022 18 23.5 18C23.8978 18 24.2794 18.158 24.5607 18.4394C24.842 18.7207 25 19.1022 25 19.5V20Z" fill="#4A4A4F"/>
</svg>
