<svg width="32" height="32" viewBox="0 0 32 32" fill="none" xmlns="http://www.w3.org/2000/svg">
<path d="M28 8H19.3337L15.8663 5.4C15.5196 5.14132 15.0988 5.00107 14.6663 5H9C8.46957 5 7.96086 5.21071 7.58579 5.58579C7.21071 5.96086 7 6.46957 7 7V9H5C4.46957 9 3.96086 9.21071 3.58579 9.58579C3.21071 9.96086 3 10.4696 3 11V25C3 25.5304 3.21071 26.0391 3.58579 26.4142C3.96086 26.7893 4.46957 27 5 27H24.1112C24.612 26.9993 25.092 26.8001 25.4461 26.4461C25.8001 26.092 25.9993 25.612 26 25.1112V23H28.1112C28.612 22.9993 29.092 22.8001 29.4461 22.4461C29.8001 22.092 29.9993 21.612 30 21.1112V10C30 9.46957 29.7893 8.96086 29.4142 8.58579C29.0391 8.21071 28.5304 8 28 8ZM24 25H5V11H10.6663L14.1337 13.6C14.4804 13.8587 14.9012 13.9989 15.3337 14H24V25ZM28 21H26V14C26 13.4696 25.7893 12.9609 25.4142 12.5858C25.0391 12.2107 24.5304 12 24 12H15.3337L11.8663 9.4C11.5196 9.14132 11.0988 9.00107 10.6663 9H9V7H14.6663L18.1338 9.6C18.4804 9.85868 18.9012 9.99893 19.3337 10H28V21Z" fill="#4A4A4F"/>
</svg>
