<svg width="32" height="32" viewBox="0 0 32 32" fill="none" xmlns="http://www.w3.org/2000/svg">
<path d="M28.6326 6.73636C28.4899 5.8948 28.0889 5.11847 27.4854 4.51489C26.8818 3.91132 26.1055 3.51038 25.2639 3.36761C21.2164 2.68136 13.5901 2.36761 7.98015 7.98011C2.37015 13.5926 2.6814 21.2176 3.36765 25.2639C3.5108 26.1063 3.91266 26.8833 4.51745 27.4869C5.12224 28.0906 5.89995 28.491 6.74265 28.6326C8.16033 28.8744 9.59574 28.9973 11.0339 29.0001C15.0451 29.0001 20.0401 28.0001 24.0201 24.0201C29.6314 18.4101 29.3189 10.7826 28.6326 6.73636ZM7.07015 26.6626C6.63742 26.589 6.23825 26.3828 5.92787 26.0724C5.6175 25.762 5.41124 25.3628 5.33765 24.9301C4.99456 22.9958 4.90589 21.0249 5.0739 19.0676L12.9326 26.9264C10.9753 27.0944 9.00446 27.0057 7.07015 26.6626ZM20.7051 12.7089L18.9126 14.5001L19.7051 15.2926C19.804 15.384 19.8833 15.4945 19.9384 15.6173C19.9935 15.7401 20.0232 15.8728 20.0258 16.0074C20.0284 16.142 20.0038 16.2758 19.9534 16.4006C19.9031 16.5255 19.828 16.6389 19.7328 16.734C19.6376 16.8292 19.5241 16.9041 19.3992 16.9544C19.2743 17.0046 19.1405 17.0291 19.0059 17.0264C18.8713 17.0237 18.7387 16.9939 18.6159 16.9386C18.4931 16.8834 18.3827 16.804 18.2914 16.7051L17.5001 15.9139L15.9139 17.5001L16.7064 18.2926C16.8053 18.384 16.8847 18.4943 16.9399 18.6171C16.9951 18.7399 17.025 18.8726 17.0277 19.0071C17.0304 19.1417 17.0059 19.2755 16.9557 19.4004C16.9054 19.5253 16.8305 19.6388 16.7353 19.734C16.6402 19.8292 16.5268 19.9043 16.4019 19.9546C16.2771 20.005 16.1433 20.0296 16.0087 20.027C15.8741 20.0244 15.7414 19.9947 15.6186 19.9396C15.4958 19.8845 15.3853 19.8052 15.2939 19.7064L14.5001 18.9126L12.7076 20.7051C12.6157 20.8019 12.5053 20.8793 12.383 20.9327C12.2607 20.9861 12.1289 21.0145 11.9955 21.0163C11.862 21.018 11.7295 20.9929 11.6059 20.9426C11.4823 20.8924 11.3699 20.8178 11.2756 20.7234C11.1812 20.6291 11.1066 20.5167 11.0564 20.3931C11.0061 20.2695 10.981 20.137 10.9828 20.0035C10.9845 19.8701 11.0129 19.7383 11.0663 19.616C11.1197 19.4937 11.1971 19.3833 11.2939 19.2914L13.0876 17.5001L12.2951 16.7076C12.1198 16.5178 12.0248 16.2674 12.0299 16.009C12.0351 15.7507 12.1401 15.5043 12.323 15.3217C12.5058 15.139 12.7522 15.0342 13.0106 15.0293C13.269 15.0243 13.5192 15.1196 13.7089 15.2951L14.5014 16.0876L16.0864 14.5001L15.2939 13.7076C15.1184 13.5179 15.0231 13.2677 15.0281 13.0093C15.033 12.7509 15.1378 12.5045 15.3205 12.3217C15.5031 12.1389 15.7495 12.0338 16.0078 12.0287C16.2662 12.0235 16.5166 12.1185 16.7064 12.2939L17.5001 13.0876L19.2926 11.2951C19.3846 11.1983 19.495 11.121 19.6173 11.0675C19.7396 11.0141 19.8714 10.9857 20.0048 10.984C20.1383 10.9823 20.2707 11.0073 20.3944 11.0576C20.518 11.1079 20.6304 11.1824 20.7247 11.2768C20.8191 11.3712 20.8936 11.4835 20.9439 11.6071C20.9942 11.7308 21.0193 11.8632 21.0175 11.9967C21.0158 12.1301 20.9874 12.2619 20.934 12.3842C20.8805 12.5065 20.8032 12.6169 20.7064 12.7089H20.7051ZM26.9264 12.9326L19.0676 5.07386C19.6626 5.01886 20.2826 4.98761 20.9314 4.98761C22.2722 4.99234 23.6102 5.10942 24.9314 5.33761C25.3639 5.41144 25.7628 5.6178 26.0729 5.92816C26.3831 6.23852 26.5891 6.63755 26.6626 7.07011C27.0057 9.00442 27.0944 10.9753 26.9264 12.9326Z" fill="#4A4A4F"/>
</svg>
