<svg width="32" height="32" viewBox="0 0 32 32" fill="none" xmlns="http://www.w3.org/2000/svg">
<path d="M27.0076 24V25.5C27.0076 26.6945 26.5331 27.84 25.6885 28.6846C24.8439 29.5292 23.6983 30.0037 22.5039 30.0037C21.3094 30.0037 20.1638 29.5292 19.3192 28.6846C18.4746 27.84 18.0001 26.6945 18.0001 25.5V24C18.0001 23.7348 18.1055 23.4804 18.293 23.2929C18.4805 23.1054 18.7349 23 19.0001 23H26.0001C26.1321 22.999 26.2629 23.0241 26.3851 23.074C26.5073 23.1238 26.6184 23.1973 26.7121 23.2902C26.8057 23.3832 26.8801 23.4938 26.9308 23.6156C26.9815 23.7374 27.0076 23.868 27.0076 24ZM13.0001 20H6.00011C5.73489 20 5.48054 20.1054 5.293 20.2929C5.10547 20.4804 5.00011 20.7348 5.00011 21V22.5C5.00011 23.6935 5.47421 24.8381 6.31813 25.682C7.16204 26.5259 8.30663 27 9.50011 27C10.6936 27 11.8382 26.5259 12.6821 25.682C13.526 24.8381 14.0001 23.6935 14.0001 22.5V21C14.0001 20.7348 13.8948 20.4804 13.7072 20.2929C13.5197 20.1054 13.2653 20 13.0001 20ZM9.50011 2C8.04511 2 6.63386 3.28875 5.52511 5.625C3.78386 9.2975 3.20511 14.75 5.56136 17.625C5.65531 17.7397 5.77359 17.832 5.90763 17.8954C6.04166 17.9587 6.18811 17.9915 6.33636 17.9912H12.6551C12.8034 17.9915 12.9498 17.9587 13.0838 17.8954C13.2179 17.832 13.3362 17.7397 13.4301 17.625C15.7864 14.75 15.2076 9.29375 13.4664 5.625C12.3564 3.28875 10.9464 2 9.50011 2ZM19.3501 21H25.6689C25.8171 21.0002 25.9636 20.9675 26.0976 20.9041C26.2316 20.8408 26.3499 20.7484 26.4439 20.6338C28.8001 17.7588 28.2214 12.3025 26.4801 8.63375C25.3664 6.28875 23.9551 5 22.5001 5C21.0451 5 19.6389 6.28875 18.5289 8.625C16.7876 12.2975 16.2089 17.75 18.5651 20.625C18.6587 20.7419 18.7774 20.8363 18.9124 20.9013C19.0474 20.9662 19.1953 20.9999 19.3451 21H19.3501Z" fill="#4A4A4F"/>
</svg>
