<svg width="32" height="32" viewBox="0 0 32 32" fill="none" xmlns="http://www.w3.org/2000/svg">
<path d="M28.6326 6.73636C28.4899 5.8948 28.0889 5.11847 27.4854 4.51489C26.8818 3.91132 26.1055 3.51038 25.2639 3.36761C21.2176 2.68136 13.5901 2.36761 7.98015 7.98011C2.37015 13.5926 2.6814 21.2176 3.36765 25.2639C3.5108 26.1063 3.91266 26.8833 4.51745 27.4869C5.12224 28.0906 5.89995 28.491 6.74265 28.6326C8.16033 28.8744 9.59574 28.9973 11.0339 29.0001C15.0451 29.0001 20.0401 28.0001 24.0201 24.0201C29.6314 18.4101 29.3189 10.7826 28.6326 6.73636ZM20.9314 4.98636C22.2722 4.99109 23.6102 5.10817 24.9314 5.33636C25.3641 5.41027 25.7631 5.61681 26.0732 5.92741C26.3834 6.23801 26.5894 6.63733 26.6626 7.07011C26.9205 8.5649 27.0336 10.0811 27.0001 11.5976L20.4014 5.00011C20.5764 4.99011 20.7501 4.98761 20.9314 4.98761V4.98636ZM7.07015 26.6626C6.63742 26.589 6.23825 26.3828 5.92787 26.0724C5.6175 25.762 5.41124 25.3628 5.33765 24.9301C5.07975 23.4353 4.96672 21.9191 5.00015 20.4026L11.5976 27.0001C10.0811 27.0342 8.56486 26.9211 7.07015 26.6626ZM22.6076 22.6076C21.1564 24.0576 18.4489 26.0739 14.1864 26.7664L5.2339 17.8139C5.9264 13.5514 7.94265 10.8439 9.39265 9.39261C10.8426 7.94136 13.5501 5.92511 17.8126 5.23261L26.7664 14.1864C26.0739 18.4489 24.0576 21.1564 22.6076 22.6076ZM20.7051 11.2951C20.8925 11.4826 20.9978 11.7369 20.9978 12.002C20.9978 12.2671 20.8925 12.5213 20.7051 12.7089L18.9126 14.5001L19.7051 15.2926C19.804 15.384 19.8833 15.4945 19.9384 15.6173C19.9935 15.7401 20.0232 15.8728 20.0258 16.0074C20.0284 16.142 20.0038 16.2758 19.9534 16.4006C19.9031 16.5255 19.828 16.6389 19.7328 16.734C19.6376 16.8292 19.5241 16.9041 19.3992 16.9544C19.2743 17.0046 19.1405 17.0291 19.0059 17.0264C18.8713 17.0237 18.7387 16.9939 18.6159 16.9386C18.4931 16.8834 18.3827 16.804 18.2914 16.7051L17.5001 15.9139L15.9139 17.5001L16.7064 18.2926C16.8053 18.384 16.8847 18.4943 16.9399 18.6171C16.9951 18.7399 17.025 18.8726 17.0277 19.0071C17.0304 19.1417 17.0059 19.2755 16.9557 19.4004C16.9054 19.5253 16.8305 19.6388 16.7353 19.734C16.6402 19.8292 16.5268 19.9043 16.4019 19.9546C16.2771 20.005 16.1433 20.0296 16.0087 20.027C15.8741 20.0244 15.7414 19.9947 15.6186 19.9396C15.4958 19.8845 15.3853 19.8052 15.2939 19.7064L14.5001 18.9126L12.7076 20.7051C12.6157 20.8019 12.5053 20.8793 12.383 20.9327C12.2607 20.9861 12.1289 21.0145 11.9955 21.0163C11.862 21.018 11.7295 20.9929 11.6059 20.9426C11.4823 20.8924 11.3699 20.8178 11.2756 20.7234C11.1812 20.6291 11.1066 20.5167 11.0564 20.3931C11.0061 20.2695 10.981 20.137 10.9828 20.0035C10.9845 19.8701 11.0129 19.7383 11.0663 19.616C11.1197 19.4937 11.1971 19.3833 11.2939 19.2914L13.0876 17.5001L12.2951 16.7076C12.1198 16.5178 12.0248 16.2674 12.0299 16.009C12.0351 15.7507 12.1401 15.5043 12.323 15.3217C12.5058 15.139 12.7522 15.0342 13.0106 15.0293C13.269 15.0243 13.5192 15.1196 13.7089 15.2951L14.5014 16.0876L16.0864 14.5001L15.2939 13.7076C15.1184 13.5179 15.0231 13.2677 15.0281 13.0093C15.033 12.7509 15.1378 12.5045 15.3205 12.3217C15.5031 12.1389 15.7495 12.0338 16.0078 12.0287C16.2662 12.0235 16.5166 12.1185 16.7064 12.2939L17.5001 13.0876L19.2926 11.2951C19.4801 11.1081 19.7341 11.0031 19.9989 11.0031C20.2637 11.0031 20.5177 11.1081 20.7051 11.2951Z" fill="#4A4A4F"/>
</svg>
