<svg width="32" height="32" viewBox="0 0 32 32" fill="none" xmlns="http://www.w3.org/2000/svg">
<path d="M24.9999 13H18.6249L25.6586 19.25C25.8108 19.3842 25.9185 19.5615 25.9676 19.7584C26.0166 19.9553 26.0046 20.1624 25.9331 20.3523C25.8616 20.5422 25.7341 20.7058 25.5674 20.8215C25.4007 20.9372 25.2028 20.9995 24.9999 21H16.9999V29C17 29.1979 16.9415 29.3914 16.8316 29.556C16.7217 29.7206 16.5655 29.8489 16.3827 29.9246C16.1998 30.0004 15.9987 30.0202 15.8046 29.9815C15.6105 29.9429 15.4322 29.8475 15.2924 29.7075L6.29237 20.7075C6.19954 20.6146 6.12593 20.5042 6.07574 20.3829C6.02555 20.2615 5.99977 20.1314 5.99987 20V12C5.99987 11.7348 6.10523 11.4804 6.29277 11.2929C6.4803 11.1054 6.73466 11 6.99987 11H13.3749L6.33612 4.75C6.18363 4.61552 6.07576 4.43775 6.02688 4.24039C5.97801 4.04304 5.99045 3.83547 6.06255 3.64537C6.13466 3.45526 6.263 3.29165 6.43046 3.17635C6.59792 3.06105 6.79656 2.99953 6.99987 3H24.9999C25.2651 3 25.5194 3.10536 25.707 3.2929C25.8945 3.48043 25.9999 3.73479 25.9999 4V12C25.9999 12.2652 25.8945 12.5196 25.707 12.7071C25.5194 12.8946 25.2651 13 24.9999 13Z" fill="#4A4A4F"/>
</svg>
