<svg width="32" height="32" viewBox="0 0 32 32" fill="none" xmlns="http://www.w3.org/2000/svg">
<path d="M25 10V14C25 14.2652 24.8946 14.5196 24.7071 14.7071C24.5196 14.8946 24.2652 15 24 15C23.7348 15 23.4804 14.8946 23.2929 14.7071C23.1054 14.5196 23 14.2652 23 14V11H20C19.7348 11 19.4804 10.8946 19.2929 10.7071C19.1054 10.5196 19 10.2652 19 10C19 9.73478 19.1054 9.48043 19.2929 9.29289C19.4804 9.10536 19.7348 9 20 9H24C24.2652 9 24.5196 9.10536 24.7071 9.29289C24.8946 9.48043 25 9.73478 25 10ZM12 21H9V18C9 17.7348 8.89464 17.4804 8.70711 17.2929C8.51957 17.1054 8.26522 17 8 17C7.73478 17 7.48043 17.1054 7.29289 17.2929C7.10536 17.4804 7 17.7348 7 18V22C7 22.2652 7.10536 22.5196 7.29289 22.7071C7.48043 22.8946 7.73478 23 8 23H12C12.2652 23 12.5196 22.8946 12.7071 22.7071C12.8946 22.5196 13 22.2652 13 22C13 21.7348 12.8946 21.4804 12.7071 21.2929C12.5196 21.1054 12.2652 21 12 21ZM29 7V25C29 25.5304 28.7893 26.0391 28.4142 26.4142C28.0391 26.7893 27.5304 27 27 27H5C4.46957 27 3.96086 26.7893 3.58579 26.4142C3.21071 26.0391 3 25.5304 3 25V7C3 6.46957 3.21071 5.96086 3.58579 5.58579C3.96086 5.21071 4.46957 5 5 5H27C27.5304 5 28.0391 5.21071 28.4142 5.58579C28.7893 5.96086 29 6.46957 29 7ZM27 25V7H5V25H27Z" fill="#4A4A4F"/>
</svg>
