<svg width="32" height="32" viewBox="0 0 32 32" fill="none" xmlns="http://www.w3.org/2000/svg">
<path d="M25.9999 12V4C25.9999 3.73479 25.8945 3.48043 25.707 3.2929C25.5194 3.10536 25.2651 3 24.9999 3H6.99987C6.79656 2.99953 6.59792 3.06105 6.43046 3.17635C6.263 3.29165 6.13466 3.45526 6.06255 3.64537C5.99045 3.83547 5.97801 4.04304 6.02688 4.24039C6.07576 4.43775 6.18363 4.61552 6.33612 4.75L13.3749 11H6.99987C6.73466 11 6.4803 11.1054 6.29277 11.2929C6.10523 11.4804 5.99987 11.7348 5.99987 12V20C5.99977 20.1314 6.02555 20.2615 6.07574 20.3829C6.12593 20.5042 6.19954 20.6146 6.29237 20.7075L15.2924 29.7075C15.4322 29.8475 15.6105 29.9429 15.8046 29.9815C15.9987 30.0202 16.1998 30.0004 16.3827 29.9246C16.5655 29.8489 16.7217 29.7206 16.8316 29.556C16.9415 29.3914 17 29.1979 16.9999 29V21H24.9999C25.2032 21.0005 25.4018 20.939 25.5693 20.8237C25.7368 20.7084 25.8651 20.5447 25.9372 20.3546C26.0093 20.1645 26.0217 19.957 25.9729 19.7596C25.924 19.5623 25.8161 19.3845 25.6636 19.25L18.6249 13H24.9999C25.2651 13 25.5194 12.8946 25.707 12.7071C25.8945 12.5196 25.9999 12.2652 25.9999 12ZM22.3749 19H15.9999C15.7347 19 15.4803 19.1054 15.2928 19.2929C15.1052 19.4804 14.9999 19.7348 14.9999 20V26.5863L7.99987 19.5863V13H15.6249L22.3749 19ZM23.9999 11H16.3749L9.62487 5H23.9999V11Z" fill="#4A4A4F"/>
</svg>
