<svg width="32" height="32" viewBox="0 0 32 32" fill="none" xmlns="http://www.w3.org/2000/svg">
<path d="M26 4H6C5.46957 4 4.96086 4.21071 4.58579 4.58579C4.21071 4.96086 4 5.46957 4 6V26C4 26.5304 4.21071 27.0391 4.58579 27.4142C4.96086 27.7893 5.46957 28 6 28H26C26.5304 28 27.0391 27.7893 27.4142 27.4142C27.7893 27.0391 28 26.5304 28 26V6C28 5.46957 27.7893 4.96086 27.4142 4.58579C27.0391 4.21071 26.5304 4 26 4ZM22 9H19.99C19.5243 8.9996 19.0731 9.1617 18.7142 9.45835C18.3552 9.755 18.1111 10.1676 18.0238 10.625L17.205 15H21C21.2652 15 21.5196 15.1054 21.7071 15.2929C21.8946 15.4804 22 15.7348 22 16C22 16.2652 21.8946 16.5196 21.7071 16.7071C21.5196 16.8946 21.2652 17 21 17H16.83L15.9412 21.7375C15.7692 22.6544 15.2822 23.4823 14.5643 24.0781C13.8464 24.6739 12.9429 25 12.01 25H10C9.73478 25 9.48043 24.8946 9.29289 24.7071C9.10536 24.5196 9 24.2652 9 24C9 23.7348 9.10536 23.4804 9.29289 23.2929C9.48043 23.1054 9.73478 23 10 23H12.01C12.4757 23.0004 12.9269 22.8383 13.2858 22.5417C13.6448 22.245 13.8889 21.8324 13.9762 21.375L14.795 17H11C10.7348 17 10.4804 16.8946 10.2929 16.7071C10.1054 16.5196 10 16.2652 10 16C10 15.7348 10.1054 15.4804 10.2929 15.2929C10.4804 15.1054 10.7348 15 11 15H15.17L16.0588 10.2625C16.2308 9.34561 16.7178 8.51767 17.4357 7.92191C18.1536 7.32615 19.0571 7.00004 19.99 7H22C22.2652 7 22.5196 7.10536 22.7071 7.29289C22.8946 7.48043 23 7.73478 23 8C23 8.26522 22.8946 8.51957 22.7071 8.70711C22.5196 8.89464 22.2652 9 22 9Z" fill="#4A4A4F"/>
</svg>
