<svg width="32" height="32" viewBox="0 0 32 32" fill="none" xmlns="http://www.w3.org/2000/svg">
<path d="M26 5C26 5.26522 25.8946 5.51957 25.7071 5.70711C25.5196 5.89464 25.2652 6 25 6H21.3388C20.636 5.99981 19.9554 6.24635 19.4158 6.69662C18.8763 7.14688 18.5119 7.77229 18.3862 8.46375L17.1987 15H23C23.2652 15 23.5196 15.1054 23.7071 15.2929C23.8946 15.4804 24 15.7348 24 16C24 16.2652 23.8946 16.5196 23.7071 16.7071C23.5196 16.8946 23.2652 17 23 17H16.835L15.585 23.895C15.3753 25.0477 14.7674 26.0901 13.8675 26.8404C12.9676 27.5906 11.8329 28.0011 10.6613 28H7C6.73478 28 6.48043 27.8946 6.29289 27.7071C6.10536 27.5196 6 27.2652 6 27C6 26.7348 6.10536 26.4804 6.29289 26.2929C6.48043 26.1054 6.73478 26 7 26H10.6613C11.364 26.0002 12.0446 25.7537 12.5842 25.3034C13.1237 24.8531 13.4881 24.2277 13.6138 23.5363L14.8013 17H9C8.73478 17 8.48043 16.8946 8.29289 16.7071C8.10536 16.5196 8 16.2652 8 16C8 15.7348 8.10536 15.4804 8.29289 15.2929C8.48043 15.1054 8.73478 15 9 15H15.165L16.415 8.105C16.6247 6.95231 17.2326 5.90987 18.1325 5.15961C19.0324 4.40936 20.1671 3.99895 21.3388 4H25C25.2652 4 25.5196 4.10536 25.7071 4.2929C25.8946 4.48043 26 4.73479 26 5Z" fill="#4A4A4F"/>
</svg>
