<svg width="32" height="32" viewBox="0 0 32 32" fill="none" xmlns="http://www.w3.org/2000/svg">
<path d="M30.9301 21.7188C30.9307 21.7129 30.9307 21.7071 30.9301 21.7013L28.8814 11.18C28.8814 11.1725 28.8814 11.165 28.8814 11.1575C28.5651 9.43007 27.6534 7.86809 26.3049 6.74314C24.9564 5.61818 23.2562 5.00139 21.5001 5H10.4864C8.72528 4.99932 7.02037 5.61962 5.67146 6.75179C4.32255 7.88395 3.41604 9.45549 3.11135 11.19L1.0726 21.7013C1.072 21.7071 1.072 21.7129 1.0726 21.7188C0.906654 22.661 1.04536 23.6317 1.46858 24.4898C1.89181 25.3479 2.57751 26.0487 3.42615 26.4906C4.27478 26.9325 5.24216 27.0924 6.18785 26.947C7.13353 26.8017 8.00828 26.3588 8.6851 25.6825L8.72885 25.6362L13.6901 20H18.3151L23.2789 25.6362C23.2926 25.6525 23.3076 25.6675 23.3226 25.6825C24.1661 26.5242 25.3085 26.9979 26.5001 27C27.1569 26.9996 27.8057 26.8554 28.4009 26.5775C28.9961 26.2996 29.5232 25.8948 29.9453 25.3915C30.3673 24.8882 30.6741 24.2986 30.844 23.6641C31.0139 23.0296 31.0429 22.3656 30.9289 21.7188H30.9301ZM13.0001 14H12.0001V15C12.0001 15.2652 11.8947 15.5196 11.7072 15.7071C11.5197 15.8946 11.2653 16 11.0001 16C10.7349 16 10.4805 15.8946 10.293 15.7071C10.1055 15.5196 10.0001 15.2652 10.0001 15V14H9.0001C8.73488 14 8.48053 13.8946 8.29299 13.7071C8.10546 13.5196 8.0001 13.2652 8.0001 13C8.0001 12.7348 8.10546 12.4804 8.29299 12.2929C8.48053 12.1054 8.73488 12 9.0001 12H10.0001V11C10.0001 10.7348 10.1055 10.4804 10.293 10.2929C10.4805 10.1054 10.7349 10 11.0001 10C11.2653 10 11.5197 10.1054 11.7072 10.2929C11.8947 10.4804 12.0001 10.7348 12.0001 11V12H13.0001C13.2653 12 13.5197 12.1054 13.7072 12.2929C13.8947 12.4804 14.0001 12.7348 14.0001 13C14.0001 13.2652 13.8947 13.5196 13.7072 13.7071C13.5197 13.8946 13.2653 14 13.0001 14ZM18.0001 13C18.0001 12.7348 18.1055 12.4804 18.293 12.2929C18.4805 12.1054 18.7349 12 19.0001 12H22.0001C22.2653 12 22.5197 12.1054 22.7072 12.2929C22.8947 12.4804 23.0001 12.7348 23.0001 13C23.0001 13.2652 22.8947 13.5196 22.7072 13.7071C22.5197 13.8946 22.2653 14 22.0001 14H19.0001C18.7349 14 18.4805 13.8946 18.293 13.7071C18.1055 13.5196 18.0001 13.2652 18.0001 13ZM28.5464 23.9338C28.3591 24.2034 28.1201 24.4332 27.8433 24.6098C27.5665 24.7864 27.2573 24.9063 26.9339 24.9625C26.5425 25.0309 26.1405 25.0056 25.7609 24.8884C25.3813 24.7713 25.0349 24.5658 24.7501 24.2887L20.9751 20H21.5001C22.7768 20.0002 24.0324 19.6744 25.148 19.0536C26.2636 18.4328 27.2023 17.5375 27.8751 16.4525L28.9676 22.0775C29.0232 22.3994 29.0147 22.7291 28.9424 23.0477C28.8701 23.3663 28.7355 23.6674 28.5464 23.9338Z" fill="#4A4A4F"/>
</svg>
