<svg width="32" height="32" viewBox="0 0 32 32" fill="none" xmlns="http://www.w3.org/2000/svg">
<path d="M30 24.0001H29V12.3339C29 12.0047 28.9188 11.6807 28.7635 11.3904C28.6083 11.1002 28.3838 10.8528 28.11 10.6701L17.11 3.33637C16.7815 3.11736 16.3955 3.00049 16.0006 3.00049C15.6058 3.00049 15.2198 3.11736 14.8912 3.33637L3.89125 10.6701C3.61722 10.8527 3.3925 11.1 3.23702 11.3902C3.08154 11.6805 3.00013 12.0046 3 12.3339V24.0001H2C1.73478 24.0001 1.48043 24.1055 1.29289 24.293C1.10536 24.4805 1 24.7349 1 25.0001C1 25.2653 1.10536 25.5197 1.29289 25.7072C1.48043 25.8948 1.73478 26.0001 2 26.0001H30C30.2652 26.0001 30.5196 25.8948 30.7071 25.7072C30.8946 25.5197 31 25.2653 31 25.0001C31 24.7349 30.8946 24.4805 30.7071 24.293C30.5196 24.1055 30.2652 24.0001 30 24.0001ZM17 16.0001H24V19.0001H17V16.0001ZM15 19.0001H8V16.0001H15V19.0001ZM8 21.0001H15V24.0001H8V21.0001ZM17 21.0001H24V24.0001H17V21.0001Z" fill="#4A4A4F"/>
</svg>
