<svg width="32" height="32" viewBox="0 0 32 32" fill="none" xmlns="http://www.w3.org/2000/svg">
<path d="M25 3.00001H15.4138C15.151 2.99917 14.8907 3.05057 14.648 3.15121C14.4053 3.25185 14.1851 3.39973 14 3.58626L12.7075 4.87501L11.4138 3.58626C11.0387 3.21147 10.5302 3.00094 10 3.00094C9.4698 3.00094 8.9613 3.21147 8.58626 3.58626L5.58626 6.58626C5.21147 6.96129 5.00094 7.4698 5.00094 8.00001C5.00094 8.53022 5.21147 9.03872 5.58626 9.41376L6.87501 10.7075L5.58626 12C5.39973 12.1851 5.25185 12.4053 5.15121 12.648C5.05057 12.8907 4.99917 13.151 5.00001 13.4138V27C5.00001 27.5304 5.21072 28.0392 5.5858 28.4142C5.96087 28.7893 6.46958 29 7.00001 29H25C25.5304 29 26.0392 28.7893 26.4142 28.4142C26.7893 28.0392 27 27.5304 27 27V5.00001C27 4.46958 26.7893 3.96087 26.4142 3.5858C26.0392 3.21072 25.5304 3.00001 25 3.00001ZM7.00001 8.00001L10 5.00001L11.2925 6.29251L8.29251 9.29251L7.00001 8.00001ZM25 27H7.00001V13.4138L9.00001 11.4138L15.4138 5.00001H25V27ZM16 8.00001C16 7.73479 16.1054 7.48044 16.2929 7.2929C16.4804 7.10537 16.7348 7.00001 17 7.00001H22C22.2652 7.00001 22.5196 7.10537 22.7071 7.2929C22.8947 7.48044 23 7.73479 23 8.00001C23 8.26523 22.8947 8.51958 22.7071 8.70712C22.5196 8.89465 22.2652 9.00001 22 9.00001H17C16.7348 9.00001 16.4804 8.89465 16.2929 8.70712C16.1054 8.51958 16 8.26523 16 8.00001ZM22.6 15.8L17.6663 19.5L22.6 23.2C22.7051 23.2788 22.7936 23.3775 22.8605 23.4905C22.9274 23.6035 22.9714 23.7286 22.99 23.8586C23.0085 23.9886 23.0013 24.121 22.9687 24.2482C22.9361 24.3754 22.8788 24.495 22.8 24.6C22.7212 24.7051 22.6225 24.7936 22.5095 24.8605C22.3965 24.9274 22.2714 24.9714 22.1414 24.99C22.0114 25.0085 21.879 25.0013 21.7518 24.9687C21.6246 24.9361 21.5051 24.8788 21.4 24.8L16 20.75L10.6 24.8C10.3878 24.9591 10.1211 25.0275 9.85859 24.99C9.59604 24.9525 9.35914 24.8122 9.20001 24.6C9.04088 24.3878 8.97255 24.1211 9.01006 23.8586C9.04757 23.596 9.18784 23.3591 9.40001 23.2L14.3338 19.5L9.40001 15.8C9.18784 15.6409 9.04757 15.404 9.01006 15.1414C8.97255 14.8789 9.04088 14.6122 9.20001 14.4C9.35914 14.1878 9.59604 14.0476 9.85859 14.0101C10.1211 13.9726 10.3878 14.0409 10.6 14.2L16 18.25L21.4 14.2C21.6122 14.0409 21.8789 13.9726 22.1414 14.0101C22.404 14.0476 22.6409 14.1878 22.8 14.4C22.9591 14.6122 23.0275 14.8789 22.99 15.1414C22.9525 15.404 22.8122 15.6409 22.6 15.8Z" fill="#4A4A4F"/>
</svg>
