<svg width="32" height="32" viewBox="0 0 32 32" fill="none" xmlns="http://www.w3.org/2000/svg">
<path d="M30.125 8.7075L27.7075 6.2925C27.5199 6.10486 27.2654 5.99944 27 5.99944C26.7346 5.99944 26.4801 6.10486 26.2925 6.2925C26.1049 6.48014 25.9994 6.73464 25.9994 7C25.9994 7.26536 26.1049 7.51986 26.2925 7.7075L28.7075 10.125C28.8941 10.3118 28.9992 10.5648 29 10.8287V21C29 21.2652 28.8946 21.5196 28.7071 21.7071C28.5196 21.8946 28.2652 22 28 22C27.7348 22 27.4804 21.8946 27.2929 21.7071C27.1054 21.5196 27 21.2652 27 21V16C27 15.2044 26.6839 14.4413 26.1213 13.8787C25.5587 13.3161 24.7956 13 24 13H22V7C22 6.20435 21.6839 5.44129 21.1213 4.87868C20.5587 4.31607 19.7956 4 19 4H9C8.20435 4 7.44129 4.31607 6.87868 4.87868C6.31607 5.44129 6 6.20435 6 7V26H4C3.73478 26 3.48043 26.1054 3.29289 26.2929C3.10536 26.4804 3 26.7348 3 27C3 27.2652 3.10536 27.5196 3.29289 27.7071C3.48043 27.8946 3.73478 28 4 28H24C24.2652 28 24.5196 27.8946 24.7071 27.7071C24.8946 27.5196 25 27.2652 25 27C25 26.7348 24.8946 26.4804 24.7071 26.2929C24.5196 26.1054 24.2652 26 24 26H22V15H24C24.2652 15 24.5196 15.1054 24.7071 15.2929C24.8946 15.4804 25 15.7348 25 16V21C25 21.7956 25.3161 22.5587 25.8787 23.1213C26.4413 23.6839 27.2044 24 28 24C28.7956 24 29.5587 23.6839 30.1213 23.1213C30.6839 22.5587 31 21.7956 31 21V10.8287C31.0015 10.4349 30.9249 10.0447 30.7748 9.68057C30.6246 9.31648 30.4037 8.98575 30.125 8.7075ZM18 15H10C9.73478 15 9.48043 14.8946 9.29289 14.7071C9.10536 14.5196 9 14.2652 9 14C9 13.7348 9.10536 13.4804 9.29289 13.2929C9.48043 13.1054 9.73478 13 10 13H18C18.2652 13 18.5196 13.1054 18.7071 13.2929C18.8946 13.4804 19 13.7348 19 14C19 14.2652 18.8946 14.5196 18.7071 14.7071C18.5196 14.8946 18.2652 15 18 15Z" fill="#4A4A4F"/>
</svg>
