<svg width="32" height="32" viewBox="0 0 32 32" fill="none" xmlns="http://www.w3.org/2000/svg">
<path d="M30 20.0002V23.0002C30 23.5306 29.7893 24.0393 29.4142 24.4144C29.0391 24.7895 28.5304 25.0002 28 25.0002H14.4913C14.399 25.0003 14.3086 24.9748 14.2299 24.9267C14.1512 24.8786 14.0874 24.8096 14.0455 24.7275C14.0036 24.6453 13.9852 24.5532 13.9924 24.4612C13.9996 24.3693 14.0321 24.2811 14.0863 24.2065L21.7838 13.6252C21.9433 13.4133 22.0146 13.1478 21.9827 12.8845C21.9507 12.6211 21.8181 12.3804 21.6125 12.2127C21.5067 12.1306 21.3856 12.0707 21.2562 12.0363C21.1268 12.0019 20.9918 11.9939 20.8593 12.0127C20.7268 12.0314 20.5993 12.0766 20.4846 12.1456C20.3698 12.2145 20.2701 12.3058 20.1912 12.414L11.1912 24.7965C11.1441 24.8606 11.0823 24.9126 11.0109 24.948C10.9396 24.9835 10.8609 25.0013 10.7812 25.0002H4C3.46957 25.0002 2.96086 24.7895 2.58579 24.4144C2.21071 24.0393 2 23.5306 2 23.0002V20.1415C2 19.9177 2 19.6952 2.01625 19.4752C2.02267 19.347 2.07817 19.2261 2.17125 19.1377C2.26433 19.0493 2.38786 19 2.51625 19.0002H6C6.13709 19.0005 6.27277 18.9726 6.39863 18.9183C6.52448 18.8639 6.63782 18.7843 6.7316 18.6843C6.82538 18.5843 6.8976 18.4661 6.94377 18.337C6.98994 18.2079 7.00908 18.0707 7 17.934C6.97788 17.6764 6.85889 17.4368 6.66704 17.2635C6.47519 17.0902 6.22475 16.9961 5.96625 17.0002H2.99C2.91372 17.0001 2.83847 16.9826 2.77 16.949C2.70153 16.9154 2.64166 16.8666 2.59497 16.8062C2.54829 16.7459 2.51602 16.6757 2.50064 16.601C2.48526 16.5263 2.48718 16.4491 2.50625 16.3752C4.00625 10.8952 8.71375 6.73395 14.4462 6.0902C14.5163 6.08263 14.5871 6.08994 14.6541 6.11165C14.7211 6.13337 14.7828 6.16899 14.8351 6.2162C14.8874 6.26341 14.9291 6.32113 14.9575 6.38558C14.9859 6.45003 15.0004 6.51976 15 6.5902V10.0002C14.9997 10.1373 15.0276 10.273 15.0819 10.3988C15.1363 10.5247 15.2159 10.638 15.3159 10.7318C15.4159 10.8256 15.5341 10.8978 15.6632 10.944C15.7923 10.9901 15.9295 11.0093 16.0662 11.0002C16.3238 10.9781 16.5634 10.8591 16.7367 10.6672C16.91 10.4754 17.0041 10.225 17 9.96645V6.58395C16.9996 6.51351 17.0141 6.44378 17.0425 6.37933C17.0709 6.31488 17.1126 6.25716 17.1649 6.20995C17.2172 6.16274 17.2789 6.12712 17.3459 6.1054C17.4129 6.08369 17.4837 6.07638 17.5537 6.08395C20.3524 6.39844 22.9915 7.54834 25.1274 9.38392C27.2633 11.2195 28.797 13.6557 29.5287 16.3752C29.5478 16.4492 29.5497 16.5265 29.5343 16.6013C29.5189 16.6761 29.4865 16.7464 29.4396 16.8067C29.3928 16.8671 29.3328 16.9159 29.2642 16.9494C29.1955 16.983 29.1201 17.0003 29.0438 17.0002H26.0338C25.7757 16.9967 25.5259 17.0911 25.3345 17.2643C25.1432 17.4376 25.0246 17.6768 25.0025 17.934C24.9934 18.0707 25.0126 18.2079 25.0587 18.337C25.1049 18.4661 25.1771 18.5843 25.2709 18.6843C25.3647 18.7843 25.478 18.8639 25.6039 18.9183C25.7297 18.9726 25.8654 19.0005 26.0025 19.0002H29.4925C29.6221 19.0001 29.7467 19.0504 29.84 19.1404C29.9333 19.2304 29.988 19.3532 29.9925 19.4827C30 19.654 30 19.8265 30 20.0002Z" fill="#4A4A4F"/>
</svg>
