<svg width="32" height="32" viewBox="0 0 32 32" fill="none" xmlns="http://www.w3.org/2000/svg">
<path d="M16 10.0001C14.8133 10.0001 13.6533 10.352 12.6666 11.0113C11.6799 11.6706 10.9108 12.6077 10.4567 13.704C10.0026 14.8004 9.88377 16.0068 10.1153 17.1707C10.3468 18.3346 10.9182 19.4037 11.7574 20.2428C12.5965 21.0819 13.6656 21.6533 14.8295 21.8849C15.9933 22.1164 17.1997 21.9975 18.2961 21.5434C19.3925 21.0893 20.3295 20.3203 20.9888 19.3336C21.6481 18.3469 22 17.1868 22 16.0001C21.9983 14.4093 21.3657 12.8842 20.2408 11.7593C19.1159 10.6345 17.5908 10.0018 16 10.0001ZM16 20.0001C15.2089 20.0001 14.4355 19.7655 13.7777 19.326C13.1199 18.8865 12.6072 18.2618 12.3045 17.5309C12.0017 16.8 11.9225 15.9957 12.0769 15.2198C12.2312 14.4439 12.6122 13.7311 13.1716 13.1717C13.731 12.6123 14.4437 12.2313 15.2196 12.077C15.9956 11.9227 16.7998 12.0019 17.5307 12.3046C18.2616 12.6074 18.8863 13.1201 19.3259 13.7779C19.7654 14.4357 20 15.209 20 16.0001C20 17.061 19.5786 18.0784 18.8284 18.8286C18.0783 19.5787 17.0609 20.0001 16 20.0001ZM29.7425 13.4014C29.7146 13.2606 29.6568 13.1274 29.5729 13.0109C29.489 12.8945 29.381 12.7974 29.2562 12.7264L25.5275 10.6014L25.5125 6.39889C25.512 6.25416 25.4802 6.11125 25.4191 5.98003C25.358 5.84882 25.2692 5.73242 25.1587 5.63889C23.8062 4.49476 22.2485 3.61797 20.5687 3.05514C20.4365 3.01036 20.2963 2.99379 20.1572 3.0065C20.0181 3.0192 19.8832 3.06089 19.7612 3.12889L16 5.23139L12.235 3.12514C12.1129 3.05676 11.9779 3.01475 11.8386 3.00183C11.6993 2.98891 11.5588 3.00537 11.4262 3.05014C9.74768 3.61709 8.19186 4.49722 6.84124 5.64389C6.73095 5.73729 6.64222 5.85348 6.58115 5.98446C6.52008 6.11545 6.48813 6.25812 6.48749 6.40264L6.46874 10.6089L2.73999 12.7339C2.61525 12.8049 2.50725 12.902 2.42335 13.0184C2.33944 13.1349 2.2816 13.2681 2.25374 13.4089C1.91249 15.1237 1.91249 16.889 2.25374 18.6039C2.2816 18.7447 2.33944 18.8779 2.42335 18.9944C2.50725 19.1108 2.61525 19.2079 2.73999 19.2789L6.46874 21.4039L6.48374 25.6064C6.4842 25.7511 6.51606 25.894 6.57714 26.0252C6.63821 26.1565 6.72704 26.2729 6.83749 26.3664C8.19008 27.5105 9.74769 28.3873 11.4275 28.9501C11.5598 28.9949 11.7 29.0115 11.8391 28.9988C11.9781 28.9861 12.113 28.9444 12.235 28.8764L16 26.7689L19.765 28.8751C19.914 28.9582 20.0819 29.0012 20.2525 29.0001C20.3617 29.0001 20.4702 28.9824 20.5737 28.9476C22.2521 28.3814 23.8079 27.5022 25.1587 26.3564C25.269 26.263 25.3578 26.1468 25.4188 26.0158C25.4799 25.8848 25.5119 25.7422 25.5125 25.5976L25.5312 21.3914L29.26 19.2664C29.3847 19.1954 29.4927 19.0983 29.5766 18.9819C29.6605 18.8654 29.7184 18.7322 29.7462 18.5914C30.0856 16.8779 30.0843 15.1144 29.7425 13.4014ZM27.8675 17.7651L24.2962 19.7964C24.1398 19.8854 24.0102 20.0149 23.9212 20.1714C23.8487 20.2964 23.7725 20.4289 23.695 20.5539C23.5958 20.7115 23.5429 20.8939 23.5425 21.0801L23.5237 25.1114C22.5638 25.8652 21.4944 26.468 20.3525 26.8989L16.75 24.8914C16.6004 24.8086 16.4322 24.7656 16.2612 24.7664H16.2375C16.0862 24.7664 15.9337 24.7664 15.7825 24.7664C15.6036 24.7619 15.4267 24.8051 15.27 24.8914L11.665 26.9039C10.5206 26.4763 9.44827 25.8765 8.48499 25.1251L8.47124 21.1001C8.47063 20.9135 8.4178 20.7308 8.31874 20.5726C8.24124 20.4476 8.16499 20.3226 8.09374 20.1901C8.0054 20.0312 7.87585 19.8991 7.71874 19.8076L4.14374 17.7714C3.95874 16.6012 3.95874 15.4091 4.14374 14.2389L7.70874 12.2039C7.86522 12.1149 7.99477 11.9854 8.08374 11.8289C8.15624 11.7039 8.23249 11.5714 8.30999 11.4464C8.4092 11.2888 8.46204 11.1064 8.46249 10.9201L8.48124 6.88889C9.44115 6.13507 10.5106 5.53229 11.6525 5.10139L15.25 7.10889C15.4066 7.19568 15.5836 7.23884 15.7625 7.23389C15.9137 7.23389 16.0662 7.23389 16.2175 7.23389C16.3964 7.23836 16.5732 7.19522 16.73 7.10889L20.335 5.09639C21.4794 5.52398 22.5517 6.12381 23.515 6.87514L23.5287 10.9001C23.5294 11.0868 23.5822 11.2695 23.6812 11.4276C23.7587 11.5526 23.835 11.6776 23.9062 11.8101C23.9946 11.969 24.1241 12.1012 24.2812 12.1926L27.8562 14.2289C28.0437 15.4 28.0458 16.5934 27.8625 17.7651H27.8675Z" fill="#4A4A4F"/>
</svg>
