<svg width="32" height="32" viewBox="0 0 32 32" fill="none" xmlns="http://www.w3.org/2000/svg">
<path d="M29.7425 13.4014C29.7146 13.2606 29.6568 13.1274 29.5729 13.0109C29.489 12.8945 29.381 12.7974 29.2562 12.7264L25.5275 10.6014L25.5125 6.39889C25.512 6.25416 25.4802 6.11125 25.4191 5.98003C25.358 5.84882 25.2692 5.73242 25.1587 5.63889C23.8062 4.49476 22.2485 3.61797 20.5687 3.05514C20.4365 3.01036 20.2963 2.99379 20.1572 3.0065C20.0181 3.0192 19.8832 3.06089 19.7612 3.12889L16 5.23139L12.235 3.12514C12.1129 3.05676 11.9779 3.01475 11.8386 3.00183C11.6993 2.98891 11.5588 3.00537 11.4262 3.05014C9.74746 3.61659 8.19154 4.49677 6.84124 5.64389C6.73095 5.73729 6.64222 5.85348 6.58115 5.98446C6.52008 6.11545 6.48813 6.25812 6.48749 6.40264L6.46874 10.6089L2.73999 12.7339C2.61525 12.8049 2.50725 12.902 2.42335 13.0184C2.33944 13.1349 2.2816 13.2681 2.25374 13.4089C1.91249 15.1237 1.91249 16.889 2.25374 18.6039C2.2816 18.7447 2.33944 18.8779 2.42335 18.9944C2.50725 19.1108 2.61525 19.2079 2.73999 19.2789L6.46874 21.4039L6.48374 25.6076C6.4842 25.7524 6.51606 25.8953 6.57714 26.0265C6.63821 26.1577 6.72704 26.2741 6.83749 26.3676C8.19008 27.5118 9.74769 28.3886 11.4275 28.9514C11.5598 28.9962 11.7 29.0127 11.8391 29C11.9781 28.9873 12.113 28.9456 12.235 28.8776L16 26.7689L19.765 28.8751C19.914 28.9582 20.0819 29.0012 20.2525 29.0001C20.3617 29.0001 20.4702 28.9824 20.5737 28.9476C22.2521 28.3814 23.8079 27.5022 25.1587 26.3564C25.269 26.263 25.3578 26.1468 25.4188 26.0158C25.4799 25.8848 25.5119 25.7422 25.5125 25.5976L25.5312 21.3914L29.26 19.2664C29.3847 19.1954 29.4927 19.0983 29.5766 18.9819C29.6605 18.8654 29.7184 18.7322 29.7462 18.5914C30.0856 16.8779 30.0843 15.1144 29.7425 13.4014ZM16 21.0001C15.0111 21.0001 14.0444 20.7069 13.2221 20.1575C12.3999 19.6081 11.759 18.8272 11.3806 17.9136C11.0022 16.9999 10.9031 15.9946 11.0961 15.0247C11.289 14.0548 11.7652 13.1639 12.4645 12.4646C13.1637 11.7653 14.0546 11.2891 15.0245 11.0962C15.9944 10.9033 16.9998 11.0023 17.9134 11.3807C18.827 11.7592 19.6079 12.4 20.1573 13.2223C20.7068 14.0445 21 15.0112 21 16.0001C21 17.3262 20.4732 18.598 19.5355 19.5357C18.5978 20.4734 17.3261 21.0001 16 21.0001Z" fill="#4A4A4F"/>
</svg>
