<svg width="32" height="32" viewBox="0 0 32 32" fill="none" xmlns="http://www.w3.org/2000/svg">
<path d="M27.0001 16.2701C27.0051 16.0901 27.0051 15.9101 27.0001 15.7301L28.8651 13.4001C28.9628 13.2777 29.0305 13.1341 29.0627 12.9808C29.0948 12.8276 29.0905 12.6689 29.0501 12.5176C28.7438 11.3685 28.2865 10.2651 27.6901 9.23631C27.6119 9.1017 27.5034 8.9872 27.3732 8.90192C27.243 8.81664 27.0947 8.76292 26.9401 8.74506L23.9751 8.41506C23.8517 8.28506 23.7267 8.16006 23.6001 8.04006L23.2501 5.06756C23.2321 4.91282 23.1782 4.76443 23.0926 4.63422C23.0071 4.50401 22.8924 4.39557 22.7576 4.31756C21.7288 3.72162 20.6254 3.26512 19.4763 2.96006C19.325 2.91963 19.1663 2.91531 19.013 2.94745C18.8597 2.97958 18.7161 3.04727 18.5938 3.14506L16.2701 5.00006C16.0901 5.00006 15.9101 5.00006 15.7301 5.00006L13.4001 3.13881C13.2777 3.04102 13.1341 2.97333 12.9808 2.9412C12.8276 2.90906 12.6689 2.91338 12.5176 2.95381C11.3685 3.26009 10.2651 3.71741 9.23631 4.31381C9.1017 4.39196 8.9872 4.50046 8.90192 4.63067C8.81664 4.76087 8.76292 4.90919 8.74506 5.06381L8.41506 8.03381C8.28506 8.15797 8.16006 8.28297 8.04006 8.40881L5.06756 8.75006C4.91282 8.76806 4.76443 8.82196 4.63422 8.90747C4.50401 8.99298 4.39557 9.10772 4.31756 9.24256C3.72174 10.2715 3.26485 11.3749 2.95881 12.5238C2.91855 12.6752 2.91444 12.834 2.94679 12.9872C2.97914 13.1405 3.04705 13.2841 3.14506 13.4063L5.00006 15.7301C5.00006 15.9101 5.00006 16.0901 5.00006 16.2701L3.13881 18.6001C3.04102 18.7224 2.97333 18.866 2.9412 19.0193C2.90906 19.1726 2.91338 19.3312 2.95381 19.4826C3.26009 20.6316 3.71741 21.735 4.31381 22.7638C4.39196 22.8984 4.50046 23.0129 4.63067 23.0982C4.76087 23.1835 4.90919 23.2372 5.06381 23.2551L8.02881 23.5851C8.15297 23.7151 8.27797 23.8401 8.40381 23.9601L8.75006 26.9326C8.76806 27.0873 8.82196 27.2357 8.90747 27.3659C8.99298 27.4961 9.10772 27.6045 9.24256 27.6826C10.2715 28.2784 11.3749 28.7353 12.5238 29.0413C12.6752 29.0816 12.834 29.0857 12.9872 29.0533C13.1405 29.021 13.2841 28.9531 13.4063 28.8551L15.7301 27.0001C15.9101 27.0051 16.0901 27.0051 16.2701 27.0001L18.6001 28.8651C18.7224 28.9628 18.866 29.0305 19.0193 29.0627C19.1726 29.0948 19.3312 29.0905 19.4826 29.0501C20.6318 28.7443 21.7352 28.287 22.7638 27.6901C22.8984 27.6119 23.0129 27.5034 23.0982 27.3732C23.1835 27.243 23.2372 27.0947 23.2551 26.9401L23.5851 23.9751C23.7151 23.8517 23.8401 23.7267 23.9601 23.6001L26.9326 23.2501C27.0873 23.2321 27.2357 23.1782 27.3659 23.0926C27.4961 23.0071 27.6045 22.8924 27.6826 22.7576C28.2784 21.7286 28.7353 20.6253 29.0413 19.4763C29.0816 19.3249 29.0857 19.1662 29.0533 19.0129C29.021 18.8596 28.9531 18.716 28.8551 18.5938L27.0001 16.2701ZM16.0001 21.0001C15.0112 21.0001 14.0445 20.7068 13.2222 20.1574C12.4 19.608 11.7591 18.8271 11.3807 17.9135C11.0022 16.9998 10.9032 15.9945 11.0961 15.0246C11.2891 14.0547 11.7653 13.1638 12.4645 12.4645C13.1638 11.7653 14.0547 11.2891 15.0246 11.0961C15.9945 10.9032 16.9998 11.0022 17.9135 11.3807C18.8271 11.7591 19.608 12.4 20.1574 13.2222C20.7068 14.0445 21.0001 15.0112 21.0001 16.0001C21.0001 17.3261 20.4733 18.5979 19.5356 19.5356C18.5979 20.4733 17.3261 21.0001 16.0001 21.0001Z" fill="#4A4A4F"/>
</svg>
