<svg width="32" height="32" viewBox="0 0 32 32" fill="none" xmlns="http://www.w3.org/2000/svg">
<path d="M17 12.0573V7.76603L20.485 9.85728C20.5976 9.92491 20.7224 9.9697 20.8524 9.98909C20.9823 10.0085 21.1147 10.0021 21.2422 9.97028C21.3696 9.93848 21.4896 9.88189 21.5952 9.80373C21.7007 9.72557 21.7899 9.62739 21.8575 9.51478C21.9251 9.40217 21.9699 9.27734 21.9893 9.14743C22.0087 9.01751 22.0023 8.88505 21.9705 8.7576C21.9387 8.63015 21.8821 8.51021 21.804 8.40464C21.7258 8.29906 21.6276 8.20991 21.515 8.14228L17.9438 5.99978L21.515 3.85728C21.6276 3.78965 21.7258 3.7005 21.804 3.59493C21.8821 3.48935 21.9387 3.36941 21.9705 3.24196C22.0023 3.11452 22.0087 2.98205 21.9893 2.85213C21.9699 2.72222 21.9251 2.59739 21.8575 2.48478C21.7899 2.37217 21.7007 2.27399 21.5952 2.19583C21.4896 2.11768 21.3696 2.06108 21.2422 2.02928C21.1147 1.99747 20.9823 1.99108 20.8524 2.01047C20.7224 2.02986 20.5976 2.07465 20.485 2.14228L16 4.83353L11.515 2.14228C11.2876 2.00569 11.0152 1.96505 10.7578 2.02928C10.5004 2.09351 10.2791 2.25736 10.1425 2.48478C10.0059 2.7122 9.96528 2.98457 10.0295 3.24196C10.0937 3.49936 10.2576 3.72069 10.485 3.85728L14.0563 5.99978L10.485 8.14228C10.2576 8.27887 10.0937 8.5002 10.0295 8.7576C9.96528 9.01499 10.0059 9.28736 10.1425 9.51478C10.2791 9.7422 10.5004 9.90605 10.7578 9.97028C11.0152 10.0345 11.2876 9.99387 11.515 9.85728L15 7.76603V12.0573C12.714 12.3129 10.6126 13.4341 9.12742 15.1906C7.64222 16.9471 6.88596 19.2056 7.01395 21.5023C7.14194 23.799 8.14447 25.9595 9.81564 27.5402C11.4868 29.1208 13.6998 30.0016 16 30.0016C18.3003 30.0016 20.5132 29.1208 22.1844 27.5402C23.8556 25.9595 24.8581 23.799 24.9861 21.5023C25.1141 19.2056 24.3578 16.9471 22.8726 15.1906C21.3874 13.4341 19.286 12.3129 17 12.0573ZM16 27.9998C14.6155 27.9998 13.2622 27.5892 12.111 26.8201C10.9599 26.0509 10.0627 24.9576 9.53285 23.6786C9.00304 22.3995 8.86442 20.992 9.13451 19.6341C9.40461 18.2763 10.0713 17.029 11.0503 16.05C12.0292 15.0711 13.2765 14.4044 14.6344 14.1343C15.9922 13.8642 17.3997 14.0028 18.6788 14.5326C19.9579 15.0624 21.0511 15.9596 21.8203 17.1108C22.5895 18.2619 23 19.6153 23 20.9998C22.998 22.8557 22.2599 24.635 20.9476 25.9473C19.6352 27.2597 17.8559 27.9978 16 27.9998Z" fill="#4A4A4F"/>
</svg>
