<svg width="32" height="32" viewBox="0 0 32 32" fill="none" xmlns="http://www.w3.org/2000/svg">
<path d="M26 11.9999C26 10.0647 25.4385 8.17111 24.3835 6.54875C23.3286 4.92639 21.8257 3.64497 20.0569 2.85989C18.2881 2.07481 16.3295 1.81981 14.4187 2.12582C12.5079 2.43182 10.7269 3.28569 9.29175 4.58385C7.8566 5.88201 6.82894 7.5687 6.33341 9.43935C5.83788 11.31 5.89576 13.2843 6.50005 15.1227C7.10434 16.9611 8.22906 18.5846 9.73781 19.7965C11.2466 21.0083 13.0745 21.7564 15 21.9499V24.9999H11C10.7348 24.9999 10.4804 25.1052 10.2929 25.2928C10.1054 25.4803 10 25.7347 10 25.9999C10 26.2651 10.1054 26.5195 10.2929 26.707C10.4804 26.8945 10.7348 26.9999 11 26.9999H15V29.9999C15 30.2651 15.1054 30.5195 15.2929 30.707C15.4804 30.8945 15.7348 30.9999 16 30.9999C16.2652 30.9999 16.5196 30.8945 16.7071 30.707C16.8946 30.5195 17 30.2651 17 29.9999V26.9999H21C21.2652 26.9999 21.5196 26.8945 21.7071 26.707C21.8946 26.5195 22 26.2651 22 25.9999C22 25.7347 21.8946 25.4803 21.7071 25.2928C21.5196 25.1052 21.2652 24.9999 21 24.9999H17V21.9499C19.4654 21.699 21.7503 20.5428 23.4127 18.705C25.0751 16.8671 25.997 14.4781 26 11.9999ZM8 11.9999C8 10.4176 8.46919 8.87091 9.34824 7.55532C10.2273 6.23973 11.4767 5.21434 12.9385 4.60884C14.4003 4.00334 16.0089 3.84492 17.5607 4.1536C19.1126 4.46228 20.538 5.22421 21.6569 6.34303C22.7757 7.46185 23.5376 8.88731 23.8463 10.4392C24.155 11.991 23.9965 13.5995 23.391 15.0613C22.7855 16.5232 21.7602 17.7726 20.4446 18.6516C19.129 19.5307 17.5823 19.9999 16 19.9999C13.879 19.9976 11.8455 19.154 10.3457 17.6542C8.84592 16.1544 8.00232 14.1209 8 11.9999Z" fill="#4A4A4F"/>
</svg>
