<svg width="32" height="32" viewBox="0 0 32 32" fill="none" xmlns="http://www.w3.org/2000/svg">
<path d="M16 18C15.0111 18 14.0444 17.7068 13.2221 17.1573C12.3999 16.6079 11.759 15.827 11.3806 14.9134C11.0022 13.9998 10.9031 12.9945 11.0961 12.0245C11.289 11.0546 11.7652 10.1637 12.4645 9.46447C13.1637 8.7652 14.0546 8.289 15.0245 8.09607C15.9945 7.90315 16.9998 8.00216 17.9134 8.3806C18.827 8.75904 19.6079 9.3999 20.1573 10.2221C20.7068 11.0444 21 12.0111 21 13C21 14.3261 20.4732 15.5979 19.5355 16.5355C18.5979 17.4732 17.3261 18 16 18ZM27 5V27C27 27.5304 26.7893 28.0391 26.4142 28.4142C26.0391 28.7893 25.5304 29 25 29H7C6.46957 29 5.96086 28.7893 5.58579 28.4142C5.21071 28.0391 5 27.5304 5 27V5C5 4.46957 5.21071 3.96086 5.58579 3.58579C5.96086 3.21071 6.46957 3 7 3H25C25.5304 3 26.0391 3.21071 26.4142 3.58579C26.7893 3.96086 27 4.46957 27 5ZM17 22V19.9275C18.7516 19.6747 20.3424 18.7678 21.4523 17.3893C22.5622 16.0109 23.1088 14.2632 22.982 12.498C22.8553 10.7328 22.0647 9.08114 20.7692 7.87538C19.4738 6.66963 17.7697 5.9993 16 5.9993C14.2303 5.9993 12.5262 6.66963 11.2308 7.87538C9.93535 9.08114 9.14471 10.7328 9.01797 12.498C8.89124 14.2632 9.43781 16.0109 10.5477 17.3893C11.6576 18.7678 13.2484 19.6747 15 19.9275V22H12C11.7348 22 11.4804 22.1054 11.2929 22.2929C11.1054 22.4804 11 22.7348 11 23C11 23.2652 11.1054 23.5196 11.2929 23.7071C11.4804 23.8946 11.7348 24 12 24H15V26C15 26.2652 15.1054 26.5196 15.2929 26.7071C15.4804 26.8946 15.7348 27 16 27C16.2652 27 16.5196 26.8946 16.7071 26.7071C16.8946 26.5196 17 26.2652 17 26V24H20C20.2652 24 20.5196 23.8946 20.7071 23.7071C20.8946 23.5196 21 23.2652 21 23C21 22.7348 20.8946 22.4804 20.7071 22.2929C20.5196 22.1054 20.2652 22 20 22H17Z" fill="#4A4A4F"/>
</svg>
