<svg width="32" height="32" viewBox="0 0 32 32" fill="none" xmlns="http://www.w3.org/2000/svg">
<path d="M20.98 13.5437C21.0736 14.5673 20.8496 15.5948 20.3383 16.4864C19.8271 17.378 19.0535 18.0904 18.1228 18.5266C17.1922 18.9628 16.1498 19.1016 15.1374 18.9241C14.1251 18.7466 13.192 18.2615 12.4653 17.5347C11.7385 16.808 11.2534 15.8749 11.0759 14.8626C10.8984 13.8502 11.0372 12.8078 11.4734 11.8772C11.9096 10.9465 12.622 10.1729 13.5136 9.66169C14.4052 9.15044 15.4327 8.92638 16.4562 9.02C17.6201 9.12646 18.7099 9.63727 19.5363 10.4637C20.3627 11.2901 20.8735 12.3799 20.98 13.5437ZM27 5V27C27 27.5304 26.7893 28.0391 26.4142 28.4142C26.0391 28.7893 25.5304 29 25 29H7C6.46957 29 5.96086 28.7893 5.58579 28.4142C5.21071 28.0391 5 27.5304 5 27V5C5 4.46957 5.21071 3.96086 5.58579 3.58579C5.96086 3.21071 6.46957 3 7 3H25C25.5304 3 26.0391 3.21071 26.4142 3.58579C26.7893 3.96086 27 4.46957 27 5ZM23 14C23.0001 12.6582 22.6146 11.3446 21.8894 10.2157C21.1641 9.08683 20.1297 8.19015 18.9093 7.63249C17.6888 7.07483 16.3338 6.87968 15.0057 7.07028C13.6775 7.26088 12.432 7.8292 11.4177 8.70756C10.4033 9.58593 9.66282 10.7373 9.2843 12.0246C8.90578 13.3119 8.90522 14.6809 9.28269 15.9685C9.66016 17.2561 10.3997 18.4081 11.4134 19.2873C12.427 20.1665 13.672 20.7358 15 20.9275V24.9662C14.9968 25.2242 15.0913 25.4739 15.2645 25.6651C15.4376 25.8564 15.6767 25.9751 15.9338 25.9975C16.0705 26.0066 16.2077 25.9874 16.3368 25.9413C16.4659 25.8951 16.5841 25.8229 16.6841 25.7291C16.7841 25.6353 16.8637 25.522 16.9181 25.3961C16.9724 25.2703 17.0003 25.1346 17 24.9975V20.9275C18.6649 20.6848 20.187 19.8516 21.2885 18.5798C22.39 17.308 22.9975 15.6825 23 14Z" fill="#4A4A4F"/>
</svg>
