<svg width="32" height="32" viewBox="0 0 32 32" fill="none" xmlns="http://www.w3.org/2000/svg">
<path d="M27.0001 4H21.0001C20.7348 4 20.4805 4.10536 20.2929 4.29289C20.1054 4.48043 20.0001 4.73478 20.0001 5C20.0001 5.26522 20.1054 5.51957 20.2929 5.70711C20.4805 5.89464 20.7348 6 21.0001 6H24.5863L19.3276 11.2587C17.3412 9.63509 14.8068 8.83697 12.2485 9.02946C9.69019 9.22195 7.30373 10.3903 5.58269 12.2929C3.86166 14.1956 2.9377 16.6869 3.00192 19.2516C3.06613 21.8163 4.11362 24.2582 5.92772 26.0723C7.74182 27.8864 10.1838 28.9339 12.7485 28.9981C15.3132 29.0624 17.8045 28.1384 19.7071 26.4174C21.6097 24.6963 22.7781 22.3099 22.9706 19.7516C23.1631 17.1933 22.365 14.6589 20.7413 12.6725L26.0001 7.415V11C26.0001 11.2652 26.1054 11.5196 26.2929 11.7071C26.4805 11.8946 26.7348 12 27.0001 12C27.2653 12 27.5196 11.8946 27.7072 11.7071C27.8947 11.5196 28.0001 11.2652 28.0001 11V5C28.0001 4.73478 27.8947 4.48043 27.7072 4.29289C27.5196 4.10536 27.2653 4 27.0001 4ZM18.6551 24.6612C17.5361 25.7797 16.1106 26.5413 14.5589 26.8497C13.0071 27.1581 11.3988 26.9994 9.93717 26.3938C8.47557 25.7882 7.22636 24.7628 6.34746 23.4473C5.46857 22.1318 4.99947 20.5852 4.99947 19.0031C4.99947 17.421 5.46857 15.8745 6.34746 14.5589C7.22636 13.2434 8.47557 12.218 9.93717 11.6124C11.3988 11.0068 13.0071 10.8482 14.5589 11.1566C16.1106 11.465 17.5361 12.2265 18.6551 13.345C20.1531 14.847 20.9943 16.8818 20.9943 19.0031C20.9943 21.1245 20.1531 23.1592 18.6551 24.6612Z" fill="#4A4A4F"/>
</svg>
