<svg width="32" height="32" viewBox="0 0 32 32" fill="none" xmlns="http://www.w3.org/2000/svg">
<path d="M27.0001 4H21.0001C20.7348 4 20.4805 4.10536 20.293 4.29289C20.1054 4.48043 20.0001 4.73478 20.0001 5C20.0001 5.26522 20.1054 5.51957 20.293 5.70711C20.4805 5.89464 20.7348 6 21.0001 6H24.5863L21.0001 9.58625L18.7076 7.29375C18.6147 7.20084 18.5045 7.12712 18.3832 7.07681C18.2619 7.02649 18.1318 7.00057 18.0005 7.00051C17.8692 7.00045 17.7391 7.02626 17.6177 7.07647C17.4964 7.12668 17.3861 7.2003 17.2932 7.29313C17.2003 7.38595 17.1266 7.49617 17.0762 7.61749C17.0259 7.73881 17 7.86885 16.9999 8.00018C16.9999 8.13152 17.0257 8.26158 17.0759 8.38294C17.1261 8.50431 17.1997 8.61459 17.2926 8.7075L19.5863 11L17.6163 12.97C15.8199 11.5365 13.5428 10.8452 11.2527 11.0381C8.96252 11.231 6.83314 12.2934 5.30182 14.0072C3.77049 15.721 2.95346 17.956 3.0185 20.2534C3.08354 22.5507 4.02572 24.7359 5.65155 26.3603C7.27738 27.9847 9.46346 28.925 11.7609 28.988C14.0582 29.051 16.2926 28.232 18.005 26.6992C19.7174 25.1663 20.778 23.036 20.9688 20.7457C21.1597 18.4554 20.4664 16.1789 19.0313 14.3837L21.0001 12.4163L23.2926 14.7087C23.48 14.8964 23.7344 15.0019 23.9996 15.002C24.2649 15.0021 24.5193 14.8969 24.7069 14.7094C24.8946 14.5219 25.0001 14.2676 25.0002 14.0023C25.0003 13.7371 24.895 13.4826 24.7076 13.295L22.4138 11L26.0001 7.415V11C26.0001 11.2652 26.1054 11.5196 26.293 11.7071C26.4805 11.8946 26.7348 12 27.0001 12C27.2653 12 27.5196 11.8946 27.7072 11.7071C27.8947 11.5196 28.0001 11.2652 28.0001 11V5C28.0001 4.73478 27.8947 4.48043 27.7072 4.29289C27.5196 4.10536 27.2653 4 27.0001 4ZM16.9501 24.9538C15.8051 26.0988 14.2985 26.8116 12.687 26.9705C11.0755 27.1294 9.45877 26.7247 8.11218 25.8253C6.76559 24.9259 5.77248 23.5875 5.30201 22.038C4.83154 20.4885 4.91283 18.8239 5.53203 17.3276C6.15122 15.8313 7.27002 14.596 8.69783 13.8321C10.1256 13.0682 11.7741 12.8229 13.3625 13.1381C14.9508 13.4533 16.3808 14.3094 17.4087 15.5606C18.4367 16.8118 18.9991 18.3807 19.0001 20C19.0001 21.8576 18.2628 23.6394 16.9501 24.9538Z" fill="#4A4A4F"/>
</svg>
