<svg width="32" height="32" viewBox="0 0 32 32" fill="none" xmlns="http://www.w3.org/2000/svg">
<path d="M25 3H7C6.46957 3 5.96086 3.21071 5.58579 3.58579C5.21071 3.96086 5 4.46957 5 5V27C5 27.5304 5.21071 28.0391 5.58579 28.4142C5.96086 28.7893 6.46957 29 7 29H25C25.5304 29 26.0391 28.7893 26.4142 28.4142C26.7893 28.0391 27 27.5304 27 27V5C27 4.46957 26.7893 3.96086 26.4142 3.58579C26.0391 3.21071 25.5304 3 25 3ZM16 26C14.363 25.9998 12.7864 25.382 11.5851 24.27C10.3839 23.1579 9.64642 21.6336 9.52012 20.0015C9.39382 18.3694 9.88798 16.7498 10.9039 15.4662C11.9198 14.1826 13.3826 13.3295 15 13.0775V10.4775L11.375 11.9288C11.1287 12.0282 10.8529 12.0257 10.6084 11.9219C10.3639 11.818 10.1707 11.6213 10.0712 11.375C9.97179 11.1287 9.97426 10.8529 10.0781 10.6084C10.182 10.3639 10.3787 10.1707 10.625 10.0712L13.3075 9L10.625 7.92875C10.3787 7.82929 10.182 7.63606 10.0781 7.39156C9.97426 7.14706 9.97179 6.87132 10.0712 6.625C10.1707 6.37868 10.3639 6.18196 10.6084 6.07811C10.8529 5.97426 11.1287 5.97179 11.375 6.07125L16 7.9225L20.625 6.07125C20.747 6.022 20.8774 5.99726 21.009 5.99844C21.1405 5.99962 21.2705 6.02669 21.3916 6.07811C21.5126 6.12953 21.6224 6.20429 21.7145 6.29813C21.8067 6.39196 21.8795 6.50303 21.9287 6.625C21.978 6.74697 22.0027 6.87744 22.0016 7.00896C22.0004 7.14049 21.9733 7.2705 21.9219 7.39156C21.8705 7.51262 21.7957 7.62238 21.7019 7.71455C21.608 7.80672 21.497 7.8795 21.375 7.92875L18.6925 9L21.375 10.0712C21.6213 10.1707 21.818 10.3639 21.9219 10.6084C22.0257 10.8529 22.0282 11.1287 21.9287 11.375C21.8293 11.6213 21.6361 11.818 21.3916 11.9219C21.1471 12.0257 20.8713 12.0282 20.625 11.9288L17 10.4775V13.0775C18.6174 13.3295 20.0802 14.1826 21.0961 15.4662C22.112 16.7498 22.6062 18.3694 22.4799 20.0015C22.3536 21.6336 21.6161 23.1579 20.4149 24.27C19.2136 25.382 17.637 25.9998 16 26ZM20.5 19.5C20.5 20.39 20.2361 21.26 19.7416 22.0001C19.2471 22.7401 18.5443 23.3169 17.7221 23.6575C16.8998 23.9981 15.995 24.0872 15.1221 23.9135C14.2492 23.7399 13.4474 23.3113 12.818 22.682C12.1887 22.0526 11.7601 21.2508 11.5865 20.3779C11.4128 19.505 11.5019 18.6002 11.8425 17.7779C12.1831 16.9557 12.7599 16.2529 13.4999 15.7584C14.24 15.2639 15.11 15 16 15C17.1935 15 18.3381 15.4741 19.182 16.318C20.0259 17.1619 20.5 18.3065 20.5 19.5Z" fill="#4A4A4F"/>
</svg>
