<svg width="32" height="32" viewBox="0 0 32 32" fill="none" xmlns="http://www.w3.org/2000/svg">
<path d="M14 14.5C14 14.7967 13.912 15.0867 13.7472 15.3334C13.5824 15.58 13.3481 15.7723 13.074 15.8858C12.7999 15.9994 12.4983 16.0291 12.2074 15.9712C11.9164 15.9133 11.6491 15.7704 11.4393 15.5607C11.2296 15.3509 11.0867 15.0836 11.0288 14.7926C10.9709 14.5017 11.0006 14.2001 11.1142 13.926C11.2277 13.6519 11.42 13.4176 11.6666 13.2528C11.9133 13.088 12.2033 13 12.5 13C12.8978 13 13.2794 13.158 13.5607 13.4393C13.842 13.7206 14 14.1022 14 14.5ZM19.5 13C19.2033 13 18.9133 13.088 18.6666 13.2528C18.42 13.4176 18.2277 13.6519 18.1142 13.926C18.0007 14.2001 17.9709 14.5017 18.0288 14.7926C18.0867 15.0836 18.2296 15.3509 18.4393 15.5607C18.6491 15.7704 18.9164 15.9133 19.2074 15.9712C19.4983 16.0291 19.7999 15.9994 20.074 15.8858C20.3481 15.7723 20.5824 15.58 20.7472 15.3334C20.912 15.0867 21 14.7967 21 14.5C21 14.1022 20.842 13.7206 20.5607 13.4393C20.2794 13.158 19.8978 13 19.5 13ZM28 15V27C28 27.1894 27.9463 27.3749 27.8451 27.5349C27.7438 27.6949 27.5992 27.8229 27.428 27.904C27.2569 27.985 27.0662 28.0158 26.8783 27.9928C26.6903 27.9697 26.5127 27.8938 26.3662 27.7738L23.3337 25.2925L20.3 27.7738C20.1214 27.9199 19.8977 27.9997 19.6669 27.9997C19.4361 27.9997 19.2124 27.9199 19.0338 27.7738L16 25.2925L12.9663 27.7738C12.7876 27.9199 12.5639 27.9997 12.3331 27.9997C12.1023 27.9997 11.8786 27.9199 11.7 27.7738L8.66625 25.2925L5.63375 27.7738C5.48726 27.8938 5.30971 27.9697 5.12174 27.9928C4.93377 28.0158 4.74312 27.985 4.57197 27.904C4.40082 27.8229 4.25621 27.6949 4.15495 27.5349C4.05369 27.3749 3.99996 27.1894 4 27V15C4 11.8174 5.26428 8.76515 7.51472 6.51472C9.76515 4.26428 12.8174 3 16 3C19.1826 3 22.2348 4.26428 24.4853 6.51472C26.7357 8.76515 28 11.8174 28 15ZM26 15C26 12.3478 24.9464 9.8043 23.0711 7.92893C21.1957 6.05357 18.6522 5 16 5C13.3478 5 10.8043 6.05357 8.92893 7.92893C7.05357 9.8043 6 12.3478 6 15V24.89L8.03375 23.2262C8.21239 23.0801 8.43608 23.0003 8.66687 23.0003C8.89767 23.0003 9.12136 23.0801 9.3 23.2262L12.3337 25.7075L15.3663 23.2262C15.545 23.0798 15.7689 22.9998 16 22.9998C16.2311 22.9998 16.455 23.0798 16.6338 23.2262L19.6663 25.7075L22.7 23.2262C22.8786 23.0801 23.1023 23.0003 23.3331 23.0003C23.5639 23.0003 23.7876 23.0801 23.9662 23.2262L26 24.89V15Z" fill="#4A4A4F"/>
</svg>
