<svg width="32" height="32" viewBox="0 0 32 32" fill="none" xmlns="http://www.w3.org/2000/svg">
<path d="M18 9V23C18 23.2652 17.8946 23.5196 17.7071 23.7071C17.5196 23.8946 17.2652 24 17 24C16.7348 24 16.4804 23.8946 16.2929 23.7071C16.1054 23.5196 16 23.2652 16 23V9C16 8.73478 16.1054 8.48043 16.2929 8.29289C16.4804 8.10536 16.7348 8 17 8C17.2652 8 17.5196 8.10536 17.7071 8.29289C17.8946 8.48043 18 8.73478 18 9ZM28 8H22C21.7348 8 21.4804 8.10536 21.2929 8.29289C21.1054 8.48043 21 8.73478 21 9V23C21 23.2652 21.1054 23.5196 21.2929 23.7071C21.4804 23.8946 21.7348 24 22 24C22.2652 24 22.5196 23.8946 22.7071 23.7071C22.8946 23.5196 23 23.2652 23 23V17H27C27.2652 17 27.5196 16.8946 27.7071 16.7071C27.8946 16.5196 28 16.2652 28 16C28 15.7348 27.8946 15.4804 27.7071 15.2929C27.5196 15.1054 27.2652 15 27 15H23V10H28C28.2652 10 28.5196 9.89464 28.7071 9.70711C28.8946 9.51957 29 9.26522 29 9C29 8.73478 28.8946 8.48043 28.7071 8.29289C28.5196 8.10536 28.2652 8 28 8ZM12 15H9C8.73478 15 8.48043 15.1054 8.29289 15.2929C8.10536 15.4804 8 15.7348 8 16C8 16.2652 8.10536 16.5196 8.29289 16.7071C8.48043 16.8946 8.73478 17 9 17H11V19C11 19.7956 10.6839 20.5587 10.1213 21.1213C9.55871 21.6839 8.79565 22 8 22C7.20435 22 6.44129 21.6839 5.87868 21.1213C5.31607 20.5587 5 19.7956 5 19V13C5 12.2044 5.31607 11.4413 5.87868 10.8787C6.44129 10.3161 7.20435 10 8 10C9.39875 10 10.7013 10.9675 11.0312 12.25C11.0976 12.5069 11.2632 12.727 11.4918 12.8618C11.7203 12.9966 11.9931 13.0351 12.25 12.9688C12.5069 12.9024 12.727 12.7368 12.8618 12.5082C12.9966 12.2797 13.0351 12.0069 12.9688 11.75C12.4087 9.5775 10.32 8 8 8C6.67392 8 5.40215 8.52678 4.46447 9.46447C3.52678 10.4021 3 11.6739 3 13V19C3 20.3261 3.52678 21.5979 4.46447 22.5355C5.40215 23.4732 6.67392 24 8 24C9.32608 24 10.5979 23.4732 11.5355 22.5355C12.4732 21.5979 13 20.3261 13 19V16C13 15.7348 12.8946 15.4804 12.7071 15.2929C12.5196 15.1054 12.2652 15 12 15Z" fill="#4A4A4F"/>
</svg>
