<svg width="32" height="32" viewBox="0 0 32 32" fill="none" xmlns="http://www.w3.org/2000/svg">
<path d="M27 8.99979H22.615C22.6637 8.95854 22.7137 8.91854 22.7612 8.87479C23.1409 8.53751 23.4468 8.12553 23.66 7.66461C23.8731 7.20368 23.9889 6.70374 24 6.19604C24.0164 5.64063 23.9191 5.08773 23.7142 4.57128C23.5092 4.05482 23.2008 3.58571 22.8079 3.19275C22.4151 2.79979 21.9461 2.49126 21.4297 2.28612C20.9133 2.08097 20.3604 1.98354 19.805 1.99979C19.2971 2.01073 18.7969 2.1264 18.3358 2.33955C17.8746 2.5527 17.4624 2.85875 17.125 3.23854C16.6581 3.77966 16.2785 4.39034 16 5.04854C15.7215 4.39034 15.3419 3.77966 14.875 3.23854C14.5376 2.85875 14.1254 2.5527 13.6642 2.33955C13.2031 2.1264 12.7029 2.01073 12.195 1.99979C11.6396 1.98354 11.0867 2.08097 10.5703 2.28612C10.0539 2.49126 9.58491 2.79979 9.19206 3.19275C8.79922 3.58571 8.49083 4.05482 8.28584 4.57128C8.08085 5.08773 7.98358 5.64063 8 6.19604C8.01111 6.70374 8.12686 7.20368 8.34001 7.66461C8.55315 8.12553 8.85911 8.53751 9.23875 8.87479C9.28625 8.91604 9.33625 8.95604 9.385 8.99979H5C4.46957 8.99979 3.96086 9.21051 3.58579 9.58558C3.21071 9.96065 3 10.4694 3 10.9998V14.9998C3 15.5302 3.21071 16.0389 3.58579 16.414C3.96086 16.7891 4.46957 16.9998 5 16.9998V24.9998C5 25.5302 5.21071 26.0389 5.58579 26.414C5.96086 26.7891 6.46957 26.9998 7 26.9998H14.5C14.6326 26.9998 14.7598 26.9471 14.8536 26.8533C14.9473 26.7596 15 26.6324 15 26.4998V14.9998H5V10.9998H15V14.9998H17V10.9998H27V14.9998H17V26.4998C17 26.6324 17.0527 26.7596 17.1464 26.8533C17.2402 26.9471 17.3674 26.9998 17.5 26.9998H25C25.5304 26.9998 26.0391 26.7891 26.4142 26.414C26.7893 26.0389 27 25.5302 27 24.9998V16.9998C27.5304 16.9998 28.0391 16.7891 28.4142 16.414C28.7893 16.0389 29 15.5302 29 14.9998V10.9998C29 10.4694 28.7893 9.96065 28.4142 9.58558C28.0391 9.21051 27.5304 8.99979 27 8.99979ZM10.5638 7.37479C10.3889 7.21646 10.2487 7.02368 10.1519 6.80857C10.0551 6.59346 10.0038 6.36066 10.0013 6.12479C9.99493 5.84842 10.0438 5.57357 10.1451 5.31633C10.2463 5.0591 10.3979 4.82467 10.5909 4.62676C10.784 4.42885 11.0145 4.27146 11.2691 4.1638C11.5238 4.05614 11.7973 4.00039 12.0737 3.99979H12.135C12.3709 4.00234 12.6037 4.05362 12.8188 4.15042C13.0339 4.24722 13.2267 4.38744 13.385 4.56229C14.4338 5.74729 14.8038 7.71229 14.9338 8.92729C13.7137 8.79854 11.75 8.42854 10.5638 7.37479ZM21.4387 7.37479C20.2525 8.42479 18.2837 8.79479 17.0637 8.92479C17.2125 7.61104 17.625 5.68729 18.625 4.56354C18.7833 4.38869 18.9761 4.24847 19.1912 4.15167C19.4063 4.05487 19.6391 4.00359 19.875 4.00104H19.9363C20.2127 4.00277 20.486 4.05966 20.7402 4.16838C20.9944 4.2771 21.2244 4.43546 21.4166 4.63419C21.6088 4.83291 21.7594 5.068 21.8596 5.32567C21.9597 5.58335 22.0075 5.85843 22 6.13479C21.9959 6.36906 21.9438 6.6 21.8468 6.8133C21.7498 7.0266 21.6101 7.21771 21.4363 7.37479H21.4387Z" fill="#4A4A4F"/>
</svg>
