<svg width="32" height="32" viewBox="0 0 32 32" fill="none" xmlns="http://www.w3.org/2000/svg">
<path d="M28 7.99994C27.9996 7.25189 27.7895 6.51894 27.3935 5.88432C26.9974 5.2497 26.4314 4.73884 25.7596 4.40977C25.0878 4.08071 24.3372 3.94661 23.5931 4.02271C22.8489 4.09881 22.141 4.38206 21.5497 4.84029C20.9585 5.29853 20.5075 5.91338 20.2482 6.61502C19.9888 7.31667 19.9314 8.07698 20.0824 8.80962C20.2334 9.54226 20.5869 10.2179 21.1026 10.7597C21.6184 11.3016 22.2757 11.6879 23 11.8749V12.9999C23 13.5304 22.7893 14.0391 22.4142 14.4142C22.0392 14.7892 21.5304 14.9999 21 14.9999H12C11.2974 14.9991 10.6071 15.185 10 15.5387V11.8749C10.9427 11.6315 11.7642 11.0527 12.3106 10.2469C12.857 9.44115 13.0908 8.46375 12.9681 7.49794C12.8455 6.53212 12.3747 5.64421 11.6442 5.00062C10.9137 4.35703 9.97358 4.00195 9.00001 4.00195C8.02644 4.00195 7.08628 4.35703 6.35578 5.00062C5.62527 5.64421 5.15457 6.53212 5.03189 7.49794C4.90922 8.46375 5.143 9.44115 5.68941 10.2469C6.23582 11.0527 7.05735 11.6315 8.00001 11.8749V20.1249C7.05735 20.3683 6.23582 20.9472 5.68941 21.7529C5.143 22.5587 4.90922 23.5361 5.03189 24.5019C5.15457 25.4678 5.62527 26.3557 6.35578 26.9993C7.08628 27.6429 8.02644 27.9979 9.00001 27.9979C9.97358 27.9979 10.9137 27.6429 11.6442 26.9993C12.3747 26.3557 12.8455 25.4678 12.9681 24.5019C13.0908 23.5361 12.857 22.5587 12.3106 21.7529C11.7642 20.9472 10.9427 20.3683 10 20.1249V18.9999C10 18.4695 10.2107 17.9608 10.5858 17.5857C10.9609 17.2107 11.4696 16.9999 12 16.9999H21C22.0609 16.9999 23.0783 16.5785 23.8284 15.8284C24.5786 15.0782 25 14.0608 25 12.9999V11.8749C25.8583 11.652 26.6185 11.1506 27.1613 10.4494C27.7042 9.74822 27.9992 8.88674 28 7.99994ZM7.00001 7.99994C7.00001 7.60438 7.11731 7.2177 7.33707 6.8888C7.55683 6.5599 7.86919 6.30355 8.23464 6.15218C8.6001 6.0008 9.00223 5.9612 9.39019 6.03837C9.77815 6.11554 10.1345 6.30602 10.4142 6.58572C10.6939 6.86543 10.8844 7.2218 10.9616 7.60976C11.0388 7.99772 10.9991 8.39985 10.8478 8.76531C10.6964 9.13076 10.44 9.44311 10.1111 9.66288C9.78225 9.88264 9.39557 9.99994 9.00001 9.99994C8.46958 9.99994 7.96087 9.78922 7.5858 9.41415C7.21072 9.03908 7.00001 8.53037 7.00001 7.99994ZM11 23.9999C11 24.3955 10.8827 24.7822 10.6629 25.1111C10.4432 25.44 10.1308 25.6963 9.76538 25.8477C9.39992 25.9991 8.99779 26.0387 8.60983 25.9615C8.22187 25.8843 7.8655 25.6939 7.5858 25.4142C7.30609 25.1344 7.11561 24.7781 7.03844 24.3901C6.96127 24.0022 7.00087 23.6 7.15225 23.2346C7.30363 22.8691 7.55997 22.5568 7.88887 22.337C8.21777 22.1172 8.60445 21.9999 9.00001 21.9999C9.53044 21.9999 10.0391 22.2107 10.4142 22.5857C10.7893 22.9608 11 23.4695 11 23.9999ZM24 9.99994C23.6044 9.99994 23.2178 9.88264 22.8889 9.66288C22.56 9.44311 22.3036 9.13076 22.1523 8.76531C22.0009 8.39985 21.9613 7.99772 22.0384 7.60976C22.1156 7.2218 22.3061 6.86543 22.5858 6.58572C22.8655 6.30602 23.2219 6.11554 23.6098 6.03837C23.9978 5.9612 24.3999 6.0008 24.7654 6.15218C25.1308 6.30355 25.4432 6.5599 25.6629 6.8888C25.8827 7.2177 26 7.60438 26 7.99994C26 8.53037 25.7893 9.03908 25.4142 9.41415C25.0392 9.78922 24.5304 9.99994 24 9.99994Z" fill="#4A4A4F"/>
</svg>
