<svg width="32" height="32" viewBox="0 0 32 32" fill="none" xmlns="http://www.w3.org/2000/svg">
<path d="M28 7.99994C27.9996 7.25189 27.7895 6.51894 27.3935 5.88432C26.9974 5.2497 26.4314 4.73884 25.7596 4.40977C25.0878 4.08071 24.3372 3.94661 23.5931 4.02271C22.8489 4.09881 22.141 4.38206 21.5497 4.84029C20.9585 5.29853 20.5075 5.91338 20.2482 6.61502C19.9888 7.31667 19.9314 8.07698 20.0824 8.80962C20.2334 9.54226 20.5869 10.2179 21.1026 10.7597C21.6184 11.3016 22.2757 11.6879 23 11.8749V12.9999C23 13.5304 22.7893 14.0391 22.4142 14.4142C22.0392 14.7892 21.5304 14.9999 21 14.9999H11C10.4696 14.9999 9.96087 14.7892 9.5858 14.4142C9.21072 14.0391 9.00001 13.5304 9.00001 12.9999V11.8749C9.94267 11.6315 10.7642 11.0527 11.3106 10.2469C11.857 9.44115 12.0908 8.46375 11.9681 7.49794C11.8455 6.53212 11.3747 5.64421 10.6442 5.00062C9.91374 4.35703 8.97358 4.00195 8.00001 4.00195C7.02644 4.00195 6.08628 4.35703 5.35578 5.00062C4.62527 5.64421 4.15457 6.53212 4.03189 7.49794C3.90922 8.46375 4.143 9.44115 4.68941 10.2469C5.23582 11.0527 6.05735 11.6315 7.00001 11.8749V12.9999C7.00001 14.0608 7.42144 15.0782 8.17158 15.8284C8.92173 16.5785 9.93914 16.9999 11 16.9999H15V20.1249C14.0574 20.3683 13.2358 20.9472 12.6894 21.7529C12.143 22.5587 11.9092 23.5361 12.0319 24.5019C12.1546 25.4678 12.6253 26.3557 13.3558 26.9993C14.0863 27.6429 15.0264 27.9979 16 27.9979C16.9736 27.9979 17.9137 27.6429 18.6442 26.9993C19.3747 26.3557 19.8455 25.4678 19.9681 24.5019C20.0908 23.5361 19.857 22.5587 19.3106 21.7529C18.7642 20.9472 17.9427 20.3683 17 20.1249V16.9999H21C22.0609 16.9999 23.0783 16.5785 23.8284 15.8284C24.5786 15.0782 25 14.0608 25 12.9999V11.8749C25.8583 11.652 26.6185 11.1506 27.1613 10.4494C27.7042 9.74822 27.9992 8.88674 28 7.99994ZM6.00001 7.99994C6.00001 7.60438 6.11731 7.2177 6.33707 6.8888C6.55683 6.5599 6.86919 6.30355 7.23464 6.15218C7.60009 6.0008 8.00223 5.9612 8.39019 6.03837C8.77815 6.11554 9.13452 6.30602 9.41422 6.58572C9.69393 6.86543 9.88441 7.2218 9.96158 7.60976C10.0388 7.99772 9.99914 8.39985 9.84777 8.76531C9.69639 9.13076 9.44005 9.44311 9.11115 9.66288C8.78225 9.88264 8.39557 9.99994 8.00001 9.99994C7.46958 9.99994 6.96087 9.78922 6.5858 9.41415C6.21072 9.03908 6.00001 8.53037 6.00001 7.99994ZM18 23.9999C18 24.3955 17.8827 24.7822 17.6629 25.1111C17.4432 25.44 17.1308 25.6963 16.7654 25.8477C16.3999 25.9991 15.9978 26.0387 15.6098 25.9615C15.2219 25.8843 14.8655 25.6939 14.5858 25.4142C14.3061 25.1344 14.1156 24.7781 14.0384 24.3901C13.9613 24.0022 14.0009 23.6 14.1523 23.2346C14.3036 22.8691 14.56 22.5568 14.8889 22.337C15.2178 22.1172 15.6044 21.9999 16 21.9999C16.5304 21.9999 17.0392 22.2107 17.4142 22.5857C17.7893 22.9608 18 23.4695 18 23.9999ZM24 9.99994C23.6044 9.99994 23.2178 9.88264 22.8889 9.66288C22.56 9.44311 22.3036 9.13076 22.1523 8.76531C22.0009 8.39985 21.9613 7.99772 22.0384 7.60976C22.1156 7.2218 22.3061 6.86543 22.5858 6.58572C22.8655 6.30602 23.2219 6.11554 23.6098 6.03837C23.9978 5.9612 24.3999 6.0008 24.7654 6.15218C25.1308 6.30355 25.4432 6.5599 25.6629 6.8888C25.8827 7.2177 26 7.60438 26 7.99994C26 8.53037 25.7893 9.03908 25.4142 9.41415C25.0392 9.78922 24.5304 9.99994 24 9.99994Z" fill="#4A4A4F"/>
</svg>
