<svg width="32" height="32" viewBox="0 0 32 32" fill="none" xmlns="http://www.w3.org/2000/svg">
<path d="M26.0177 22.2575L16.8589 28.7275C16.6077 28.9049 16.3077 29.0001 16.0002 29.0001C15.6926 29.0001 15.3926 28.9049 15.1414 28.7275L5.98268 22.2575C4.8063 21.4143 3.91356 20.2339 3.42252 18.8724C2.93149 17.5109 2.86529 16.0324 3.23268 14.6325L5.71893 5.12499C5.79808 4.81604 5.97413 4.54058 6.22125 4.33897C6.46837 4.13736 6.77357 4.02022 7.09212 4.0047C7.41066 3.98919 7.72581 4.07612 7.99135 4.25276C8.25689 4.42939 8.45887 4.68645 8.56768 4.98624L10.7777 11H21.2227L23.4327 4.98374C23.5417 4.68399 23.7439 4.42707 24.0096 4.25062C24.2753 4.07418 24.5906 3.9875 24.9092 4.0033C25.2277 4.01909 25.5329 4.13653 25.7798 4.33839C26.0268 4.54026 26.2026 4.81593 26.2814 5.12499L28.7689 14.64C29.1345 16.039 29.0673 17.516 28.5761 18.8759C28.0849 20.2359 27.1929 21.415 26.0177 22.2575Z" fill="#4A4A4F"/>
</svg>
