<svg width="32" height="32" viewBox="0 0 32 32" fill="none" xmlns="http://www.w3.org/2000/svg">
<path d="M26 13.9998C25.1132 14.0007 24.2517 14.2956 23.5505 14.8385C22.8493 15.3814 22.3479 16.1415 22.125 16.9998H19C18.2241 16.998 17.4592 16.8165 16.7652 16.4695C16.0712 16.1225 15.467 15.6195 15 14.9998L11.7112 10.6148C12.5614 10.2115 13.2421 9.52131 13.6337 8.6657C14.0253 7.81008 14.1028 6.84379 13.8524 5.93673C13.602 5.02966 13.0399 4.2399 12.2649 3.7063C11.4898 3.1727 10.5514 2.92942 9.61475 3.01925C8.67807 3.10907 7.80304 3.52625 7.14351 4.19742C6.48399 4.86859 6.0822 5.75079 6.00878 6.6889C5.93536 7.62702 6.19503 8.56098 6.74211 9.32658C7.2892 10.0922 8.08868 10.6404 8.99999 10.8748V21.1248C8.05733 21.3682 7.2358 21.9471 6.68938 22.7528C6.14297 23.5586 5.90919 24.536 6.03187 25.5018C6.15454 26.4677 6.62525 27.3556 7.35575 27.9992C8.08626 28.6428 9.02641 28.9978 9.99999 28.9978C10.9736 28.9978 11.9137 28.6428 12.6442 27.9992C13.3747 27.3556 13.8454 26.4677 13.9681 25.5018C14.0908 24.536 13.857 23.5586 13.3106 22.7528C12.7642 21.9471 11.9426 21.3682 11 21.1248V12.9998L13.4 16.1998C14.0538 17.0674 14.8996 17.7716 15.8712 18.2574C16.8428 18.7432 17.9137 18.9973 19 18.9998H22.125C22.312 19.7241 22.6984 20.3815 23.2402 20.8972C23.7821 21.4129 24.4577 21.7664 25.1903 21.9175C25.9229 22.0685 26.6833 22.0111 27.3849 21.7517C28.0865 21.4923 28.7014 21.0414 29.1596 20.4501C29.6179 19.8589 29.9011 19.1509 29.9772 18.4068C30.0533 17.6626 29.9192 16.912 29.5902 16.2402C29.2611 15.5684 28.7502 15.0024 28.1156 14.6064C27.481 14.2104 26.748 14.0002 26 13.9998ZM7.99999 6.99984C7.99999 6.60428 8.11728 6.2176 8.33705 5.8887C8.55681 5.5598 8.86917 5.30346 9.23462 5.15208C9.60007 5.00071 10.0022 4.9611 10.3902 5.03827C10.7781 5.11544 11.1345 5.30592 11.4142 5.58563C11.6939 5.86533 11.8844 6.2217 11.9616 6.60966C12.0387 6.99762 11.9991 7.39976 11.8477 7.76521C11.6964 8.13066 11.44 8.44302 11.1111 8.66278C10.7822 8.88254 10.3955 8.99984 9.99999 8.99984C9.46955 8.99984 8.96085 8.78913 8.58577 8.41406C8.2107 8.03898 7.99999 7.53028 7.99999 6.99984ZM12 24.9998C12 25.3954 11.8827 25.7821 11.6629 26.111C11.4432 26.4399 11.1308 26.6962 10.7654 26.8476C10.3999 26.999 9.99777 27.0386 9.60981 26.9614C9.22184 26.8842 8.86548 26.6938 8.58577 26.4141C8.30607 26.1343 8.11559 25.778 8.03842 25.39C7.96125 25.0021 8.00085 24.5999 8.15223 24.2345C8.3036 23.869 8.55995 23.5567 8.88885 23.3369C9.21774 23.1171 9.60442 22.9998 9.99999 22.9998C10.5304 22.9998 11.0391 23.2106 11.4142 23.5856C11.7893 23.9607 12 24.4694 12 24.9998ZM26 19.9998C25.6044 19.9998 25.2177 19.8825 24.8888 19.6628C24.5599 19.443 24.3036 19.1307 24.1522 18.7652C24.0009 18.3998 23.9612 17.9976 24.0384 17.6097C24.1156 17.2217 24.3061 16.8653 24.5858 16.5856C24.8655 16.3059 25.2218 16.1154 25.6098 16.0383C25.9978 15.9611 26.3999 16.0007 26.7654 16.1521C27.1308 16.3035 27.4432 16.5598 27.6629 16.8887C27.8827 17.2176 28 17.6043 28 17.9998C28 18.5303 27.7893 19.039 27.4142 19.4141C27.0391 19.7891 26.5304 19.9998 26 19.9998Z" fill="#4A4A4F"/>
</svg>
