<svg width="32" height="32" viewBox="0 0 32 32" fill="none" xmlns="http://www.w3.org/2000/svg">
<path d="M13 7.99994C12.9996 7.25189 12.7895 6.51894 12.3935 5.88432C11.9974 5.2497 11.4314 4.73884 10.7596 4.40977C10.0878 4.08071 9.33725 3.94661 8.59308 4.02271C7.84891 4.09881 7.14099 4.38206 6.54972 4.84029C5.95845 5.29853 5.50753 5.91338 5.24815 6.61502C4.98878 7.31667 4.93136 8.07698 5.0824 8.80962C5.23344 9.54226 5.5869 10.2179 6.10264 10.7597C6.61837 11.3016 7.27571 11.6879 8.00001 11.8749V20.1249C7.05735 20.3683 6.23582 20.9472 5.68941 21.7529C5.143 22.5587 4.90922 23.5361 5.03189 24.5019C5.15457 25.4678 5.62527 26.3557 6.35578 26.9993C7.08628 27.6429 8.02644 27.9979 9.00001 27.9979C9.97358 27.9979 10.9137 27.6429 11.6442 26.9993C12.3747 26.3557 12.8455 25.4678 12.9681 24.5019C13.0908 23.5361 12.857 22.5587 12.3106 21.7529C11.7642 20.9472 10.9427 20.3683 10 20.1249V11.8749C10.8583 11.652 11.6185 11.1506 12.1613 10.4494C12.7042 9.74822 12.9992 8.88674 13 7.99994ZM11 23.9999C11 24.3955 10.8827 24.7822 10.6629 25.1111C10.4432 25.44 10.1308 25.6963 9.76538 25.8477C9.39992 25.9991 8.99779 26.0387 8.60983 25.9615C8.22187 25.8843 7.8655 25.6939 7.5858 25.4142C7.30609 25.1344 7.11561 24.7781 7.03844 24.3901C6.96127 24.0022 7.00087 23.6 7.15225 23.2346C7.30363 22.8691 7.55997 22.5568 7.88887 22.337C8.21777 22.1172 8.60445 21.9999 9.00001 21.9999C9.53044 21.9999 10.0391 22.2107 10.4142 22.5857C10.7893 22.9608 11 23.4695 11 23.9999ZM9.00001 9.99994C8.60445 9.99994 8.21777 9.88264 7.88887 9.66288C7.55997 9.44311 7.30363 9.13076 7.15225 8.76531C7.00087 8.39985 6.96127 7.99772 7.03844 7.60976C7.11561 7.2218 7.30609 6.86543 7.5858 6.58572C7.8655 6.30602 8.22187 6.11554 8.60983 6.03837C8.99779 5.9612 9.39992 6.0008 9.76538 6.15218C10.1308 6.30355 10.4432 6.5599 10.6629 6.8888C10.8827 7.2177 11 7.60438 11 7.99994C11 8.53037 10.7893 9.03908 10.4142 9.41415C10.0391 9.78922 9.53044 9.99994 9.00001 9.99994ZM26 20.1249V15.4849C26.0023 14.5653 25.8224 13.6544 25.4705 12.8047C25.1186 11.9551 24.6018 11.1836 23.95 10.5349L20.4138 6.99994H24C24.2652 6.99994 24.5196 6.89458 24.7071 6.70705C24.8947 6.51951 25 6.26516 25 5.99994C25 5.73472 24.8947 5.48037 24.7071 5.29283C24.5196 5.1053 24.2652 4.99994 24 4.99994H18C17.7348 4.99994 17.4804 5.1053 17.2929 5.29283C17.1054 5.48037 17 5.73472 17 5.99994V11.9999C17 12.2652 17.1054 12.5195 17.2929 12.707C17.4804 12.8946 17.7348 12.9999 18 12.9999C18.2652 12.9999 18.5196 12.8946 18.7071 12.707C18.8947 12.5195 19 12.2652 19 11.9999V8.41369L22.535 11.9499C23.0009 12.4129 23.3704 12.9638 23.6218 13.5706C23.8733 14.1774 24.0019 14.8281 24 15.4849V20.1249C23.0574 20.3683 22.2358 20.9472 21.6894 21.7529C21.143 22.5587 20.9092 23.5361 21.0319 24.5019C21.1546 25.4678 21.6253 26.3557 22.3558 26.9993C23.0863 27.6429 24.0264 27.9979 25 27.9979C25.9736 27.9979 26.9137 27.6429 27.6442 26.9993C28.3747 26.3557 28.8455 25.4678 28.9681 24.5019C29.0908 23.5361 28.857 22.5587 28.3106 21.7529C27.7642 20.9472 26.9427 20.3683 26 20.1249ZM25 25.9999C24.6044 25.9999 24.2178 25.8826 23.8889 25.6629C23.56 25.4431 23.3036 25.1308 23.1523 24.7653C23.0009 24.3999 22.9613 23.9977 23.0384 23.6098C23.1156 23.2218 23.3061 22.8654 23.5858 22.5857C23.8655 22.306 24.2219 22.1155 24.6098 22.0384C24.9978 21.9612 25.3999 22.0008 25.7654 22.1522C26.1308 22.3036 26.4432 22.5599 26.6629 22.8888C26.8827 23.2177 27 23.6044 27 23.9999C27 24.5304 26.7893 25.0391 26.4142 25.4142C26.0392 25.7892 25.5304 25.9999 25 25.9999Z" fill="#4A4A4F"/>
</svg>
