<svg width="32" height="32" viewBox="0 0 32 32" fill="none" xmlns="http://www.w3.org/2000/svg">
<path d="M16 3C13.4288 3 10.9154 3.76244 8.77759 5.1909C6.63975 6.61935 4.97351 8.64968 3.98957 11.0251C3.00563 13.4006 2.74819 16.0144 3.2498 18.5362C3.75141 21.0579 4.98953 23.3743 6.80762 25.1924C8.6257 27.0105 10.9421 28.2486 13.4638 28.7502C15.9856 29.2518 18.5995 28.9944 20.9749 28.0104C23.3503 27.0265 25.3807 25.3603 26.8091 23.2224C28.2376 21.0846 29 18.5712 29 16C28.9964 12.5533 27.6256 9.24882 25.1884 6.81163C22.7512 4.37445 19.4467 3.00364 16 3ZM7.78626 23.3088L8.10126 23.1025C8.37632 22.9211 8.6023 22.6745 8.75909 22.3847C8.91589 22.0948 8.99864 21.7708 9.00001 21.4412L9.02626 16.9125L11.6463 13C11.6591 13.0099 11.6724 13.0191 11.6863 13.0275L14.145 14.6362C14.5571 14.9271 15.0641 15.0508 15.5638 14.9825L19.5 14.4487C19.9854 14.384 20.4302 14.1433 20.75 13.7725L23.5213 10.5525C23.8312 10.1894 24.001 9.72739 24 9.25V8.45875C25.3526 9.88974 26.2956 11.658 26.7304 13.5785C27.1651 15.499 27.0756 17.501 26.4713 19.375L24.4538 17.53C24.1733 17.2726 23.8252 17.1005 23.4503 17.0341C23.0754 16.9677 22.6894 17.0096 22.3375 17.155L18.53 18.7362C18.2116 18.8699 17.9331 19.0833 17.7211 19.3559C17.5092 19.6284 17.371 19.951 17.32 20.2925L17.0213 22.3162C16.9494 22.8034 17.0599 23.2998 17.3313 23.7106C17.6028 24.1214 18.0162 24.4176 18.4925 24.5425L21.175 25.25L21.47 25.5462C19.2795 26.8031 16.7229 27.2667 14.2305 26.8592C11.7382 26.4517 9.46235 25.1978 7.78626 23.3088Z" fill="#4A4A4F"/>
</svg>
