<svg width="32" height="32" viewBox="0 0 32 32" fill="none" xmlns="http://www.w3.org/2000/svg">
<path d="M16 3C13.4288 3 10.9154 3.76244 8.77759 5.1909C6.63975 6.61935 4.97351 8.64968 3.98957 11.0251C3.00563 13.4006 2.74819 16.0144 3.2498 18.5362C3.75141 21.0579 4.98953 23.3743 6.80762 25.1924C8.6257 27.0105 10.9421 28.2486 13.4638 28.7502C15.9856 29.2518 18.5995 28.9944 20.9749 28.0104C23.3503 27.0265 25.3807 25.3603 26.8091 23.2224C28.2376 21.0846 29 18.5712 29 16C28.9964 12.5533 27.6256 9.24882 25.1884 6.81163C22.7512 4.37445 19.4467 3.00364 16 3ZM26.9538 15H21.975C21.7988 11.4425 20.6913 8.06625 18.835 5.375C21.009 5.95867 22.9523 7.1938 24.4036 8.91443C25.855 10.6351 26.7449 12.7587 26.9538 15ZM12.0288 17H19.9713C19.7613 20.8587 18.3463 24.4525 16 26.9862C13.6588 24.4525 12.2388 20.8587 12.0288 17ZM12.0288 15C12.2388 11.1412 13.6538 7.5475 16 5.01375C18.3413 7.5475 19.7613 11.1388 19.9713 15H12.0288ZM18.835 26.625C20.6913 23.93 21.7988 20.5537 21.975 17H26.9538C26.7449 19.2413 25.855 21.3649 24.4036 23.0856C22.9523 24.8062 21.009 26.0413 18.835 26.625Z" fill="#4A4A4F"/>
</svg>
