<svg width="32" height="32" viewBox="0 0 32 32" fill="none" xmlns="http://www.w3.org/2000/svg">
<path d="M15.9998 22C17.9776 22 19.911 21.4135 21.5555 20.3147C23.2 19.2159 24.4817 17.6541 25.2386 15.8268C25.9955 13.9996 26.1935 11.9889 25.8077 10.0491C25.4218 8.10928 24.4694 6.32745 23.0709 4.92893C21.6723 3.5304 19.8905 2.57799 17.9507 2.19214C16.0109 1.80629 14.0002 2.00432 12.173 2.7612C10.3457 3.51808 8.78392 4.7998 7.6851 6.44429C6.58629 8.08878 5.9998 10.0222 5.9998 12C6.00278 14.6512 7.0573 17.1931 8.93202 19.0678C10.8067 20.9425 13.3485 21.997 15.9998 22ZM15.9998 4C17.582 4 19.1288 4.46919 20.4444 5.34824C21.76 6.22729 22.7853 7.47672 23.3908 8.93853C23.9963 10.4003 24.1548 12.0089 23.8461 13.5607C23.5374 15.1126 22.7755 16.538 21.6567 17.6568C20.5378 18.7757 19.1124 19.5376 17.5605 19.8463C16.0087 20.155 14.4001 19.9965 12.9383 19.391C11.4765 18.7855 10.2271 17.7601 9.34804 16.4446C8.46899 15.129 7.9998 13.5822 7.9998 12C8.00211 9.87897 8.84571 7.84549 10.3455 6.3457C11.8453 4.84591 13.8788 4.00231 15.9998 4ZM25.721 20.6875C25.8122 20.7822 25.8837 20.894 25.9316 21.0165C25.9794 21.1389 26.0027 21.2695 26 21.401C25.9974 21.5324 25.9688 21.662 25.916 21.7824C25.8632 21.9027 25.7872 22.0115 25.6923 22.1025C23.339 24.3718 20.2613 25.7394 16.9998 25.965V28H19.9998C20.265 28 20.5194 28.1054 20.7069 28.2929C20.8944 28.4804 20.9998 28.7348 20.9998 29C20.9998 29.2652 20.8944 29.5196 20.7069 29.7071C20.5194 29.8946 20.265 30 19.9998 30H11.9998C11.7346 30 11.4802 29.8946 11.2927 29.7071C11.1052 29.5196 10.9998 29.2652 10.9998 29C10.9998 28.7348 11.1052 28.4804 11.2927 28.2929C11.4802 28.1054 11.7346 28 11.9998 28H14.9998V25.9637C12.3476 25.7738 9.80425 24.8324 7.66747 23.2498C5.53069 21.6672 3.8888 19.5088 2.9339 17.0271C1.979 14.5455 1.75058 11.8432 2.27538 9.23643C2.80018 6.6297 4.05648 4.22632 5.8973 2.3075C5.98766 2.21041 6.09643 2.13226 6.21728 2.07761C6.33812 2.02296 6.46864 1.99289 6.60122 1.98916C6.73379 1.98544 6.86579 2.00812 6.98952 2.05589C7.11325 2.10366 7.22624 2.17557 7.32191 2.26743C7.41758 2.35929 7.49403 2.46926 7.54679 2.59095C7.59955 2.71263 7.62758 2.8436 7.62925 2.97622C7.63091 3.10884 7.60618 3.24047 7.55649 3.36344C7.50679 3.48641 7.43314 3.59826 7.3398 3.6925C5.1599 5.95684 3.95543 8.98606 3.98529 12.129C4.01515 15.272 5.27695 18.2778 7.49947 20.5003C9.72199 22.7228 12.7278 23.9846 15.8708 24.0145C19.0137 24.0444 22.043 22.8399 24.3073 20.66C24.4984 20.4762 24.7547 20.3758 25.0199 20.381C25.285 20.3862 25.5372 20.4964 25.721 20.6875Z" fill="#4A4A4F"/>
</svg>
