<svg width="32" height="32" viewBox="0 0 32 32" fill="none" xmlns="http://www.w3.org/2000/svg">
<path d="M32 17C31.9974 14.6139 31.0483 12.3262 29.361 10.639C27.6738 8.95171 25.3861 8.00265 23 8H9C6.61386 8.00265 4.32622 8.95171 2.63896 10.639C0.951708 12.3262 0.00264685 14.6139 0 17C2.32569e-05 17.6435 0.206448 18.27 0.58894 18.7875C0.971433 19.305 1.50982 19.6862 2.125 19.875C2.8825 22.4213 6.82875 24 9 24C10.1522 23.9986 11.2687 23.6 12.1613 22.8713C13.0539 22.1427 13.6679 21.1286 13.9 20H18.1C18.3321 21.1286 18.9461 22.1427 19.8387 22.8713C20.7313 23.6 21.8478 23.9986 23 24C25.1663 24 29.1125 22.4175 29.875 19.875C30.4902 19.6862 31.0286 19.305 31.4111 18.7875C31.7936 18.27 32 17.6435 32 17ZM5.68125 20.9675C4.625 20.345 4 19.61 4 19C4 18.39 4.61375 17.6737 5.64125 17.0562L10.2925 21.7062C9.88932 21.9004 9.44747 22.0008 9 22C8.05875 22 6.725 21.585 5.68125 20.9675ZM11.7063 20.2925L7.625 16.2125C8.07209 16.0819 8.53435 16.0105 9 16C9.79565 16 10.5587 16.3161 11.1213 16.8787C11.6839 17.4413 12 18.2044 12 19C12.0008 19.4475 11.9004 19.8893 11.7063 20.2925ZM20 19C19.9993 18.3058 20.2407 17.633 20.6825 17.0975L25.125 21.54C24.375 21.8275 23.6063 22 23 22C22.2044 22 21.4413 21.6839 20.8787 21.1213C20.3161 20.5587 20 19.7956 20 19ZM26.9538 20.5387L22.4638 16.0487C22.6407 16.0166 22.8202 16.0003 23 16C23.9412 16 25.275 16.415 26.3188 17.0325C27.3625 17.65 28 18.39 28 19C28 19.4738 27.625 20.025 26.9538 20.5387ZM29.71 17.7025C28.6675 15.4062 25.0425 14 23 14C21.8478 14.0014 20.7313 14.4 19.8387 15.1287C18.9461 15.8573 18.3321 16.8714 18.1 18H13.9C13.6679 16.8714 13.0539 15.8573 12.1613 15.1287C11.2687 14.4 10.1522 14.0014 9 14C6.9575 14 3.3325 15.4062 2.29 17.7025C2.10465 17.5156 2.00045 17.2632 2 17C2.00199 15.1441 2.74012 13.3648 4.05245 12.0524C5.36477 10.7401 7.14409 10.002 9 10H23C24.8559 10.002 26.6352 10.7401 27.9476 12.0524C29.2599 13.3648 29.998 15.1441 30 17C29.9996 17.2632 29.8953 17.5156 29.71 17.7025Z" fill="#4A4A4F"/>
</svg>
