<svg width="32" height="32" viewBox="0 0 32 32" fill="none" xmlns="http://www.w3.org/2000/svg">
<path d="M20 13V14C20 15.0609 19.5786 16.0783 18.8284 16.8284C18.0783 17.5786 17.0609 18 16 18C14.9391 18 13.9217 17.5786 13.1716 16.8284C12.4214 16.0783 12 15.0609 12 14V13C12 11.9391 12.4214 10.9217 13.1716 10.1716C13.9217 9.42143 14.9391 9 16 9C17.0609 9 18.0783 9.42143 18.8284 10.1716C19.5786 10.9217 20 11.9391 20 13ZM29 16C29 18.5712 28.2376 21.0846 26.8091 23.2224C25.3807 25.3603 23.3503 27.0265 20.9749 28.0104C18.5995 28.9944 15.9856 29.2518 13.4638 28.7502C10.9421 28.2486 8.6257 27.0105 6.80762 25.1924C4.98953 23.3743 3.75141 21.0579 3.2498 18.5362C2.74819 16.0144 3.00563 13.4006 3.98957 11.0251C4.97351 8.64968 6.63975 6.61935 8.77759 5.1909C10.9154 3.76244 13.4288 3 16 3C19.4467 3.00364 22.7512 4.37445 25.1884 6.81163C27.6256 9.24882 28.9964 12.5533 29 16ZM22 8C22 7.73478 21.8946 7.48043 21.7071 7.29289C21.5196 7.10536 21.2652 7 21 7C20.7348 7 20.4804 7.10536 20.2929 7.29289C20.1054 7.48043 20 7.73478 20 8V8.5325C19.137 7.76059 18.0691 7.25488 16.925 7.07637C15.781 6.89786 14.6098 7.05418 13.5526 7.52646C12.4955 7.99875 11.5975 8.76683 10.9672 9.73805C10.3368 10.7093 10.0009 11.8421 10 13V14C10.0009 15.1579 10.3368 16.2907 10.9672 17.2619C11.5975 18.2332 12.4955 19.0013 13.5526 19.4735C14.6098 19.9458 15.781 20.1021 16.925 19.9236C18.0691 19.7451 19.137 19.2394 20 18.4675V20C20 20.8395 19.7359 21.6578 19.245 22.3388C18.7541 23.0199 18.0614 23.5293 17.2649 23.7947C16.4685 24.0602 15.6087 24.0684 14.8073 23.8181C14.006 23.5677 13.3037 23.0716 12.8 22.4C12.7212 22.2949 12.6225 22.2064 12.5095 22.1395C12.3965 22.0726 12.2714 22.0286 12.1414 22.01C12.0114 21.9915 11.879 21.9987 11.7518 22.0313C11.6246 22.0639 11.5051 22.1212 11.4 22.2C11.2949 22.2788 11.2064 22.3775 11.1395 22.4905C11.0726 22.6035 11.0286 22.7286 11.0101 22.8586C10.9915 22.9886 10.9987 23.121 11.0313 23.2482C11.0639 23.3754 11.1212 23.4949 11.2 23.6C11.9556 24.6074 13.009 25.3516 14.211 25.7271C15.413 26.1026 16.7027 26.0903 17.8974 25.6921C19.092 25.2939 20.1311 24.5299 20.8675 23.5083C21.6038 22.4867 22 21.2593 22 20V8Z" fill="#4A4A4F"/>
</svg>
