<svg width="32" height="32" viewBox="0 0 32 32" fill="none" xmlns="http://www.w3.org/2000/svg">
<path d="M16 3C13.4288 3 10.9154 3.76244 8.77759 5.1909C6.63975 6.61935 4.97351 8.64968 3.98957 11.0251C3.00563 13.4006 2.74819 16.0144 3.2498 18.5362C3.75141 21.0579 4.98953 23.3743 6.80762 25.1924C8.6257 27.0105 10.9421 28.2486 13.4638 28.7502C15.9856 29.2518 18.5995 28.9944 20.9749 28.0104C23.3503 27.0265 25.3807 25.3603 26.8091 23.2224C28.2376 21.0846 29 18.5712 29 16C29 12.5522 27.6304 9.24558 25.1924 6.80761C22.7544 4.36964 19.4478 3 16 3ZM16 26C14.3791 25.9998 12.7825 25.6056 11.3478 24.8514C9.91306 24.0971 8.68318 23.0054 7.76408 21.6703C6.84497 20.3352 6.2642 18.7966 6.07177 17.1872C5.87934 15.5777 6.08103 13.9456 6.65946 12.4314C7.2379 10.9172 8.17574 9.56635 9.39221 8.49512C10.6087 7.42389 12.0673 6.66441 13.6425 6.28212C15.2177 5.89982 16.8622 5.90615 18.4344 6.30057C20.0066 6.69499 21.4593 7.46568 22.6675 8.54625C22.8603 8.72439 22.9752 8.97117 22.9877 9.23334C23.0001 9.4955 22.9089 9.75205 22.7339 9.94761C22.5588 10.1432 22.3139 10.2621 22.052 10.2786C21.79 10.2952 21.5321 10.2082 21.3338 10.0363C20.0005 8.84376 18.3061 8.13248 16.5212 8.01602C14.7363 7.89957 12.9638 8.38466 11.487 9.39381C10.0101 10.403 8.91405 11.8779 8.37388 13.5831C7.83371 15.2883 7.88059 17.1254 8.50703 18.8008C9.13348 20.4762 10.3033 21.8934 11.8298 22.8259C13.3562 23.7584 15.1511 24.1525 16.9277 23.9451C18.7044 23.7378 20.3603 22.941 21.631 21.6821C22.9016 20.4231 23.7137 18.7747 23.9375 17H16C15.7348 17 15.4804 16.8946 15.2929 16.7071C15.1054 16.5196 15 16.2652 15 16C15 15.7348 15.1054 15.4804 15.2929 15.2929C15.4804 15.1054 15.7348 15 16 15H25C25.2652 15 25.5196 15.1054 25.7071 15.2929C25.8946 15.4804 26 15.7348 26 16C25.997 18.6513 24.9425 21.1931 23.0678 23.0678C21.1931 24.9425 18.6513 25.997 16 26Z" fill="#4A4A4F"/>
</svg>
