<svg width="32" height="32" viewBox="0 0 32 32" fill="none" xmlns="http://www.w3.org/2000/svg">
<path d="M28 15.9999C28.0001 18.8254 27.0032 21.5604 25.1849 23.7231C23.3665 25.8858 20.8433 27.3374 18.0597 27.8224C15.2761 28.3074 12.4106 27.7946 9.96801 26.3743C7.52539 24.954 5.66229 22.7173 4.70686 20.0582C3.75142 17.3991 3.76495 14.4881 4.74505 11.838C5.72516 9.18793 7.60897 6.96867 10.0647 5.57113C12.5204 4.17359 15.3905 3.68742 18.1695 4.19825C20.9485 4.70908 23.4581 6.18415 25.2563 8.36364C25.3455 8.46409 25.4136 8.5815 25.4565 8.70885C25.4994 8.83621 25.5162 8.97091 25.5058 9.10489C25.4955 9.23888 25.4582 9.36941 25.3963 9.48868C25.3344 9.60795 25.2491 9.71351 25.1455 9.79907C25.0418 9.88463 24.922 9.94843 24.7932 9.98664C24.6643 10.0249 24.5291 10.0367 24.3956 10.0215C24.2621 10.0063 24.133 9.96434 24.0161 9.89813C23.8991 9.83191 23.7967 9.74281 23.715 9.63614C22.2442 7.85279 20.201 6.63406 17.933 6.18728C15.665 5.7405 13.3122 6.09327 11.275 7.18557C9.23769 8.27788 7.64178 10.0422 6.7587 12.1785C5.87562 14.3148 5.75992 16.6911 6.43128 18.903C7.10265 21.115 8.51961 23.0261 10.4411 24.3111C12.3626 25.5962 14.67 26.1759 16.9707 25.9515C19.2714 25.7272 21.4233 24.7127 23.0604 23.0807C24.6975 21.4487 25.7186 19.2999 25.95 16.9999H16C15.7348 16.9999 15.4804 16.8945 15.2929 16.707C15.1054 16.5195 15 16.2651 15 15.9999C15 15.7347 15.1054 15.4803 15.2929 15.2928C15.4804 15.1052 15.7348 14.9999 16 14.9999H27C27.2652 14.9999 27.5196 15.1052 27.7071 15.2928C27.8946 15.4803 28 15.7347 28 15.9999Z" fill="#4A4A4F"/>
</svg>
