<svg width="32" height="32" viewBox="0 0 32 32" fill="none" xmlns="http://www.w3.org/2000/svg">
<path d="M28 6H4C3.46957 6 2.96086 6.21071 2.58579 6.58579C2.21071 6.96086 2 7.46957 2 8V24C2 24.5304 2.21071 25.0391 2.58579 25.4142C2.96086 25.7893 3.46957 26 4 26H11.5863C11.849 26.0008 12.1093 25.9494 12.352 25.8488C12.5947 25.7482 12.815 25.6003 13 25.4137L15.6462 22.7675C15.6927 22.721 15.7478 22.6841 15.8085 22.659C15.8692 22.6338 15.9343 22.6209 16 22.6209C16.0657 22.6209 16.1308 22.6338 16.1915 22.659C16.2522 22.6841 16.3073 22.721 16.3538 22.7675L19 25.415C19.1853 25.6011 19.4056 25.7487 19.6483 25.8491C19.891 25.9495 20.1511 26.0008 20.4137 26H28C28.5304 26 29.0391 25.7893 29.4142 25.4142C29.7893 25.0391 30 24.5304 30 24V8C30 7.46957 29.7893 6.96086 29.4142 6.58579C29.0391 6.21071 28.5304 6 28 6ZM10 19C9.40666 19 8.82664 18.8241 8.33329 18.4944C7.83994 18.1648 7.45542 17.6962 7.22836 17.1481C7.0013 16.5999 6.94189 15.9967 7.05764 15.4147C7.1734 14.8328 7.45912 14.2982 7.87868 13.8787C8.29824 13.4591 8.83279 13.1734 9.41473 13.0576C9.99667 12.9419 10.5999 13.0013 11.1481 13.2284C11.6962 13.4554 12.1648 13.8399 12.4944 14.3333C12.8241 14.8266 13 15.4067 13 16C13 16.7956 12.6839 17.5587 12.1213 18.1213C11.5587 18.6839 10.7956 19 10 19ZM22 19C21.4067 19 20.8266 18.8241 20.3333 18.4944C19.8399 18.1648 19.4554 17.6962 19.2284 17.1481C19.0013 16.5999 18.9419 15.9967 19.0576 15.4147C19.1734 14.8328 19.4591 14.2982 19.8787 13.8787C20.2982 13.4591 20.8328 13.1734 21.4147 13.0576C21.9967 12.9419 22.5999 13.0013 23.1481 13.2284C23.6962 13.4554 24.1648 13.8399 24.4944 14.3333C24.8241 14.8266 25 15.4067 25 16C25 16.7956 24.6839 17.5587 24.1213 18.1213C23.5587 18.6839 22.7956 19 22 19Z" fill="#4A4A4F"/>
</svg>
