<svg width="32" height="32" viewBox="0 0 32 32" fill="none" xmlns="http://www.w3.org/2000/svg">
<path d="M29.7 18.9725L21.1412 4.94001C20.9622 4.65159 20.7123 4.41378 20.4154 4.24924C20.1185 4.0847 19.7844 3.9989 19.445 4.00001H12.5537C12.2144 3.99888 11.8805 4.08468 11.5838 4.24923C11.287 4.41378 11.0374 4.6516 10.8587 4.94001L10.8525 4.94876L2.30496 18.9625C2.11324 19.269 2.00816 19.6217 2.00089 19.9831C1.99363 20.3445 2.08445 20.7011 2.26371 21.015L5.67871 26.9925C5.85364 27.2986 6.10637 27.5529 6.41128 27.7299C6.71618 27.9068 7.06243 28 7.41496 28H24.5837C24.9362 28 25.2825 27.9068 25.5874 27.7299C25.8923 27.5529 26.145 27.2986 26.32 26.9925L29.735 21.015C29.9144 20.7032 30.0059 20.3486 29.9997 19.9889C29.9936 19.6292 29.89 19.278 29.7 18.9725ZM27.375 19H21.565L17.1662 11.6663L20.01 6.92626L27.375 19ZM12.7662 19L16 13.61L19.2337 19H12.7662ZM20.4337 21L23.4337 26H8.56621L11.5662 21H20.4337ZM16 9.72251L13.765 6.00001L18.2375 5.99376L16 9.72251ZM11.9887 6.92626L14.8337 11.6663L10.4337 19H4.62496L11.9887 6.92626ZM4.56746 21H9.23371L6.83996 24.99L4.56746 21ZM25.16 24.9913L22.765 21H27.4412L25.16 24.9913Z" fill="#4A4A4F"/>
</svg>
