<svg width="32" height="32" viewBox="0 0 32 32" fill="none" xmlns="http://www.w3.org/2000/svg">
<path d="M16 3C13.4288 3 10.9154 3.76244 8.77759 5.1909C6.63975 6.61935 4.97351 8.64968 3.98957 11.0251C3.00563 13.4006 2.74819 16.0144 3.2498 18.5362C3.75141 21.0579 4.98953 23.3743 6.80762 25.1924C8.6257 27.0105 10.9421 28.2486 13.4638 28.7502C15.9856 29.2518 18.5995 28.9944 20.9749 28.0104C23.3503 27.0265 25.3807 25.3603 26.8091 23.2224C28.2376 21.0846 29 18.5712 29 16C28.9964 12.5533 27.6256 9.24882 25.1884 6.81163C22.7512 4.37445 19.4467 3.00364 16 3ZM16 5C17.8308 5.00076 19.6324 5.45844 21.2415 6.33154C22.8506 7.20465 24.2164 8.46558 25.215 10H16C14.737 10.0014 13.5065 10.4007 12.4833 11.1412C11.4601 11.8817 10.6961 12.9257 10.3 14.125L7.41501 9.125C8.44473 7.83729 9.75109 6.79786 11.2372 6.08378C12.7234 5.3697 14.3512 4.99929 16 5ZM20 16C20 16.7911 19.7654 17.5645 19.3259 18.2223C18.8864 18.8801 18.2616 19.3928 17.5307 19.6955C16.7998 19.9983 15.9956 20.0775 15.2196 19.9231C14.4437 19.7688 13.731 19.3878 13.1716 18.8284C12.6122 18.269 12.2312 17.5563 12.0769 16.7804C11.9225 16.0044 12.0017 15.2002 12.3045 14.4693C12.6072 13.7384 13.1199 13.1136 13.7777 12.6741C14.4355 12.2346 15.2089 12 16 12C17.0609 12 18.0783 12.4214 18.8284 13.1716C19.5786 13.9217 20 14.9391 20 16ZM5.00001 16C4.99793 14.2679 5.40752 12.5602 6.19501 11.0175L10.8038 19C10.8113 19.0125 10.82 19.0238 10.8275 19.035C11.4627 20.1188 12.4221 20.9758 13.5703 21.4854C14.7185 21.9949 15.9977 22.1312 17.2275 21.875L14.34 26.875C11.7418 26.4747 9.37227 25.1586 7.65944 23.1643C5.94662 21.1699 5.00336 18.6289 5.00001 16ZM16.5863 26.9837L21.1963 19C21.2063 18.9825 21.2138 18.965 21.2238 18.9475C21.8422 17.8568 22.1025 16.5995 21.968 15.3529C21.8334 14.1064 21.3107 12.9335 20.4738 12H26.25C26.8827 13.6211 27.1218 15.3693 26.9475 17.1008C26.7733 18.8323 26.1907 20.4977 25.2477 21.9603C24.3046 23.4229 23.028 24.6408 21.5228 25.5141C20.0175 26.3874 18.3265 26.8911 16.5888 26.9837H16.5863Z" fill="#4A4A4F"/>
</svg>
