<svg width="32" height="32" viewBox="0 0 32 32" fill="none" xmlns="http://www.w3.org/2000/svg">
<path d="M30.4151 14.5851L17.4151 1.58511C17.2294 1.39916 17.0088 1.25164 16.766 1.15099C16.5232 1.05034 16.2629 0.998535 16.0001 0.998535C15.7373 0.998535 15.477 1.05034 15.2342 1.15099C14.9914 1.25164 14.7709 1.39916 14.5851 1.58511L1.58511 14.5851C1.39916 14.7709 1.25164 14.9914 1.15099 15.2342C1.05034 15.477 0.998535 15.7373 0.998535 16.0001C0.998535 16.2629 1.05034 16.5232 1.15099 16.766C1.25164 17.0088 1.39916 17.2294 1.58511 17.4151L14.5851 30.4151C14.7709 30.6011 14.9914 30.7486 15.2342 30.8492C15.477 30.9499 15.7373 31.0017 16.0001 31.0017C16.2629 31.0017 16.5232 30.9499 16.766 30.8492C17.0088 30.7486 17.2294 30.6011 17.4151 30.4151L30.4151 17.4151C30.6011 17.2294 30.7486 17.0088 30.8492 16.766C30.9499 16.5232 31.0017 16.2629 31.0017 16.0001C31.0017 15.7373 30.9499 15.477 30.8492 15.2342C30.7486 14.9914 30.6011 14.7709 30.4151 14.5851ZM7.00011 17.0001C7.00011 17.2653 6.89475 17.5197 6.70722 17.7072C6.51968 17.8948 6.26533 18.0001 6.00011 18.0001C5.73489 18.0001 5.48054 17.8948 5.293 17.7072C5.10547 17.5197 5.00011 17.2653 5.00011 17.0001V15.0001C5.00011 14.7349 5.10547 14.4805 5.293 14.293C5.48054 14.1055 5.73489 14.0001 6.00011 14.0001C6.26533 14.0001 6.51968 14.1055 6.70722 14.293C6.89475 14.4805 7.00011 14.7349 7.00011 15.0001V17.0001ZM12.0001 22.0001C12.0001 22.2653 11.8948 22.5197 11.7072 22.7072C11.5197 22.8948 11.2653 23.0001 11.0001 23.0001C10.7349 23.0001 10.4805 22.8948 10.293 22.7072C10.1055 22.5197 10.0001 22.2653 10.0001 22.0001V20.0001C10.0001 19.7349 10.1055 19.4805 10.293 19.293C10.4805 19.1055 10.7349 19.0001 11.0001 19.0001C11.2653 19.0001 11.5197 19.1055 11.7072 19.293C11.8948 19.4805 12.0001 19.7349 12.0001 20.0001V22.0001ZM12.0001 16.0001C12.0001 16.2653 11.8948 16.5197 11.7072 16.7072C11.5197 16.8948 11.2653 17.0001 11.0001 17.0001C10.7349 17.0001 10.4805 16.8948 10.293 16.7072C10.1055 16.5197 10.0001 16.2653 10.0001 16.0001V10.0001C10.0001 9.73489 10.1055 9.48054 10.293 9.293C10.4805 9.10547 10.7349 9.00011 11.0001 9.00011C11.2653 9.00011 11.5197 9.10547 11.7072 9.293C11.8948 9.48054 12.0001 9.73489 12.0001 10.0001V16.0001ZM17.0001 27.0001C17.0001 27.2653 16.8948 27.5197 16.7072 27.7072C16.5197 27.8948 16.2653 28.0001 16.0001 28.0001C15.7349 28.0001 15.4805 27.8948 15.293 27.7072C15.1055 27.5197 15.0001 27.2653 15.0001 27.0001V25.0001C15.0001 24.7349 15.1055 24.4805 15.293 24.293C15.4805 24.1055 15.7349 24.0001 16.0001 24.0001C16.2653 24.0001 16.5197 24.1055 16.7072 24.293C16.8948 24.4805 17.0001 24.7349 17.0001 25.0001V27.0001ZM17.0001 21.0001C17.0001 21.2653 16.8948 21.5197 16.7072 21.7072C16.5197 21.8948 16.2653 22.0001 16.0001 22.0001C15.7349 22.0001 15.4805 21.8948 15.293 21.7072C15.1055 21.5197 15.0001 21.2653 15.0001 21.0001V11.0001C15.0001 10.7349 15.1055 10.4805 15.293 10.293C15.4805 10.1055 15.7349 10.0001 16.0001 10.0001C16.2653 10.0001 16.5197 10.1055 16.7072 10.293C16.8948 10.4805 17.0001 10.7349 17.0001 11.0001V21.0001ZM17.0001 7.00011C17.0001 7.26533 16.8948 7.51968 16.7072 7.70722C16.5197 7.89475 16.2653 8.00011 16.0001 8.00011C15.7349 8.00011 15.4805 7.89475 15.293 7.70722C15.1055 7.51968 15.0001 7.26533 15.0001 7.00011V5.00011C15.0001 4.73489 15.1055 4.48054 15.293 4.293C15.4805 4.10547 15.7349 4.00011 16.0001 4.00011C16.2653 4.00011 16.5197 4.10547 16.7072 4.293C16.8948 4.48054 17.0001 4.73489 17.0001 5.00011V7.00011ZM22.0001 22.0001C22.0001 22.2653 21.8948 22.5197 21.7072 22.7072C21.5197 22.8948 21.2653 23.0001 21.0001 23.0001C20.7349 23.0001 20.4805 22.8948 20.293 22.7072C20.1055 22.5197 20.0001 22.2653 20.0001 22.0001V16.0001C20.0001 15.7349 20.1055 15.4805 20.293 15.293C20.4805 15.1055 20.7349 15.0001 21.0001 15.0001C21.2653 15.0001 21.5197 15.1055 21.7072 15.293C21.8948 15.4805 22.0001 15.7349 22.0001 16.0001V22.0001ZM22.0001 12.0001C22.0001 12.2653 21.8948 12.5197 21.7072 12.7072C21.5197 12.8948 21.2653 13.0001 21.0001 13.0001C20.7349 13.0001 20.4805 12.8948 20.293 12.7072C20.1055 12.5197 20.0001 12.2653 20.0001 12.0001V10.0001C20.0001 9.73489 20.1055 9.48054 20.293 9.293C20.4805 9.10547 20.7349 9.00011 21.0001 9.00011C21.2653 9.00011 21.5197 9.10547 21.7072 9.293C21.8948 9.48054 22.0001 9.73489 22.0001 10.0001V12.0001ZM27.0001 17.0001C27.0001 17.2653 26.8948 17.5197 26.7072 17.7072C26.5197 17.8948 26.2653 18.0001 26.0001 18.0001C25.7349 18.0001 25.4805 17.8948 25.293 17.7072C25.1055 17.5197 25.0001 17.2653 25.0001 17.0001V15.0001C25.0001 14.7349 25.1055 14.4805 25.293 14.293C25.4805 14.1055 25.7349 14.0001 26.0001 14.0001C26.2653 14.0001 26.5197 14.1055 26.7072 14.293C26.8948 14.4805 27.0001 14.7349 27.0001 15.0001V17.0001Z" fill="#4A4A4F"/>
</svg>
