<svg width="32" height="32" viewBox="0 0 32 32" fill="none" xmlns="http://www.w3.org/2000/svg">
<path d="M28 6H4C3.46957 6 2.96086 6.21071 2.58579 6.58579C2.21071 6.96086 2 7.46957 2 8V24C2 24.5304 2.21071 25.0391 2.58579 25.4142C2.96086 25.7893 3.46957 26 4 26H11.5863C11.849 26.0008 12.1093 25.9494 12.352 25.8488C12.5947 25.7482 12.815 25.6003 13 25.4137L16 22.4137L19 25.4137C19.185 25.6003 19.4053 25.7482 19.648 25.8488C19.8907 25.9494 20.151 26.0008 20.4137 26H28C28.5304 26 29.0391 25.7893 29.4142 25.4142C29.7893 25.0391 30 24.5304 30 24V8C30 7.46957 29.7893 6.96086 29.4142 6.58579C29.0391 6.21071 28.5304 6 28 6ZM28 24H20.4137L17.4137 21C17.0387 20.6252 16.5302 20.4147 16 20.4147C15.4698 20.4147 14.9613 20.6252 14.5863 21L11.5863 24H4V8H28V24ZM10 20C10.7911 20 11.5645 19.7654 12.2223 19.3259C12.8801 18.8864 13.3928 18.2616 13.6955 17.5307C13.9983 16.7998 14.0775 15.9956 13.9231 15.2196C13.7688 14.4437 13.3878 13.731 12.8284 13.1716C12.269 12.6122 11.5563 12.2312 10.7804 12.0769C10.0044 11.9225 9.20017 12.0017 8.46927 12.3045C7.73836 12.6072 7.11365 13.1199 6.67412 13.7777C6.2346 14.4355 6 15.2089 6 16C6 17.0609 6.42143 18.0783 7.17157 18.8284C7.92172 19.5786 8.93913 20 10 20ZM10 14C10.3956 14 10.7822 14.1173 11.1111 14.3371C11.44 14.5568 11.6964 14.8692 11.8478 15.2346C11.9991 15.6001 12.0387 16.0022 11.9616 16.3902C11.8844 16.7781 11.6939 17.1345 11.4142 17.4142C11.1345 17.6939 10.7781 17.8844 10.3902 17.9616C10.0022 18.0387 9.60009 17.9991 9.23463 17.8478C8.86918 17.6964 8.55682 17.44 8.33706 17.1111C8.1173 16.7822 8 16.3956 8 16C8 15.4696 8.21071 14.9609 8.58579 14.5858C8.96086 14.2107 9.46957 14 10 14ZM22 20C22.7911 20 23.5645 19.7654 24.2223 19.3259C24.8801 18.8864 25.3928 18.2616 25.6955 17.5307C25.9983 16.7998 26.0775 15.9956 25.9231 15.2196C25.7688 14.4437 25.3878 13.731 24.8284 13.1716C24.269 12.6122 23.5563 12.2312 22.7804 12.0769C22.0044 11.9225 21.2002 12.0017 20.4693 12.3045C19.7384 12.6072 19.1136 13.1199 18.6741 13.7777C18.2346 14.4355 18 15.2089 18 16C18 17.0609 18.4214 18.0783 19.1716 18.8284C19.9217 19.5786 20.9391 20 22 20ZM22 14C22.3956 14 22.7822 14.1173 23.1111 14.3371C23.44 14.5568 23.6964 14.8692 23.8478 15.2346C23.9991 15.6001 24.0387 16.0022 23.9616 16.3902C23.8844 16.7781 23.6939 17.1345 23.4142 17.4142C23.1345 17.6939 22.7781 17.8844 22.3902 17.9616C22.0022 18.0387 21.6001 17.9991 21.2346 17.8478C20.8692 17.6964 20.5568 17.44 20.3371 17.1111C20.1173 16.7822 20 16.3956 20 16C20 15.4696 20.2107 14.9609 20.5858 14.5858C20.9609 14.2107 21.4696 14 22 14Z" fill="#4A4A4F"/>
</svg>
