<svg width="32" height="32" viewBox="0 0 32 32" fill="none" xmlns="http://www.w3.org/2000/svg">
<path d="M29 15H24.0613C24.742 13.6279 25.0613 12.1048 24.9889 10.5749C24.9166 9.0449 24.455 7.55872 23.6478 6.25701C22.8406 4.9553 21.7146 3.88113 20.3763 3.13618C19.0379 2.39124 17.5317 2.00017 16 2C15.7348 2 15.4804 2.10536 15.2929 2.29289C15.1054 2.48043 15 2.73478 15 3V7.93875C13.6279 7.25801 12.1048 6.9387 10.5749 7.01105C9.0449 7.08341 7.55872 7.54503 6.25701 8.35221C4.9553 9.1594 3.88113 10.2854 3.13618 11.6237C2.39124 12.9621 2.00017 14.4683 2 16C2 16.2652 2.10536 16.5196 2.29289 16.7071C2.48043 16.8946 2.73478 17 3 17H7.93875C7.25801 18.3721 6.9387 19.8952 7.01105 21.4251C7.08341 22.9551 7.54503 24.4413 8.35221 25.743C9.1594 27.0447 10.2854 28.1189 11.6237 28.8638C12.9621 29.6088 14.4683 29.9998 16 30C16.2652 30 16.5196 29.8946 16.7071 29.7071C16.8946 29.5196 17 29.2652 17 29V24.0613C18.3721 24.742 19.8952 25.0613 21.4251 24.9889C22.9551 24.9166 24.4413 24.455 25.743 23.6478C27.0447 22.8406 28.1189 21.7146 28.8638 20.3763C29.6088 19.0379 29.9998 17.5317 30 16C30 15.7348 29.8946 15.4804 29.7071 15.2929C29.5196 15.1054 29.2652 15 29 15ZM11 9C12.4305 8.9928 13.8281 9.42954 15 10.25V15H4.07125C4.31395 13.3349 5.14741 11.8126 6.41946 10.7111C7.69151 9.60952 9.31729 9.00221 11 9ZM21 23C19.5695 23.0072 18.1719 22.5705 17 21.75V17H27.9287C27.6861 18.6651 26.8526 20.1874 25.5805 21.2889C24.3085 22.3905 22.6827 22.9978 21 23Z" fill="#4A4A4F"/>
</svg>
