<svg width="32" height="32" viewBox="0 0 32 32" fill="none" xmlns="http://www.w3.org/2000/svg">
<path d="M22.0002 25.9048C22.69 25.633 23.3585 25.3101 24.0002 24.9386V29.9998C24.0002 30.2651 23.8948 30.5194 23.7073 30.7069C23.5197 30.8945 23.2654 30.9998 23.0002 30.9998C22.735 30.9998 22.4806 30.8945 22.2931 30.7069C22.1055 30.5194 22.0002 30.2651 22.0002 29.9998V25.9048ZM23.4702 14.8511L16.4702 11.1173C16.2366 10.998 15.9656 10.9753 15.7154 11.0539C15.4652 11.1326 15.2559 11.3064 15.1327 11.5378C15.0094 11.7693 14.982 12.0399 15.0563 12.2914C15.1307 12.5429 15.3009 12.7551 15.5302 12.8823L21.3752 15.9998L23.5002 14.8673L23.4702 14.8511ZM31.4702 11.1173L16.4702 3.11733C16.3255 3.04029 16.1641 3 16.0002 3C15.8363 3 15.6749 3.04029 15.5302 3.11733L0.530176 11.1173C0.370181 11.2026 0.236377 11.3298 0.143076 11.4852C0.0497749 11.6407 0.000488281 11.8185 0.000488281 11.9998C0.000488281 12.1811 0.0497749 12.359 0.143076 12.5145C0.236377 12.6699 0.370181 12.7971 0.530176 12.8823L4.00018 14.7336V20.7861C3.99914 21.2773 4.17991 21.7515 4.50768 22.1173C6.14518 23.9411 9.81392 26.9998 16.0002 26.9998C18.0514 27.0168 20.0872 26.6453 22.0002 25.9048V16.3336L21.3752 15.9998L16.0002 18.8661L5.47893 13.2498L3.12518 11.9998L16.0002 5.13358L28.8752 11.9998L26.5277 13.2498H26.5202L23.5002 14.8673C23.6522 14.9551 23.7785 15.0814 23.8663 15.2335C23.954 15.3855 24.0002 15.558 24.0002 15.7336V24.9386C25.3042 24.1858 26.4826 23.2339 27.4927 22.1173C27.8204 21.7515 28.0012 21.2773 28.0002 20.7861V14.7336L31.4702 12.8823C31.6302 12.7971 31.764 12.6699 31.8573 12.5145C31.9506 12.359 31.9999 12.1811 31.9999 11.9998C31.9999 11.8185 31.9506 11.6407 31.8573 11.4852C31.764 11.3298 31.6302 11.2026 31.4702 11.1173Z" fill="#4A4A4F"/>
</svg>
