<svg width="32" height="32" viewBox="0 0 32 32" fill="none" xmlns="http://www.w3.org/2000/svg">
<path d="M4.4475 12.2575C4.25889 12.0255 4.12472 11.7541 4.05484 11.4634C3.98497 11.1726 3.98118 10.8699 4.04375 10.5775C4.9725 6.1875 10 3 16 3C22 3 27.0275 6.1875 27.9562 10.5775C28.0195 10.8701 28.0162 11.1732 27.9467 11.4644C27.8772 11.7556 27.7432 12.0274 27.5546 12.2599C27.3661 12.4924 27.1277 12.6796 26.8571 12.8077C26.5865 12.9358 26.2906 13.0015 25.9912 13H6.00875C5.70955 13.0009 5.41396 12.9347 5.14375 12.8062C4.87355 12.6777 4.63562 12.4902 4.4475 12.2575ZM28.6575 19.06L23.5163 20.935L18.875 19.0713C18.6367 18.976 18.3708 18.976 18.1325 19.0713L13.5075 20.9225L8.875 19.0713C8.64694 18.9801 8.39332 18.9761 8.1625 19.06L2.6625 21.06C2.43005 21.1623 2.24523 21.3493 2.14557 21.5829C2.04591 21.8165 2.03888 22.0792 2.12589 22.3179C2.2129 22.5565 2.38744 22.753 2.61409 22.8676C2.84073 22.9823 3.1025 23.0063 3.34625 22.935L5 22.3363V23C5 24.3261 5.52678 25.5979 6.46447 26.5355C7.40215 27.4732 8.67392 28 10 28H22C23.3261 28 24.5979 27.4732 25.5355 26.5355C26.4732 25.5979 27 24.3261 27 23V21.7913L29.3412 20.94C29.4725 20.9016 29.5945 20.8366 29.6997 20.7492C29.8049 20.6617 29.891 20.5536 29.9528 20.4315C30.0145 20.3095 30.0505 20.176 30.0586 20.0395C30.0667 19.9029 30.0467 19.7662 29.9999 19.6377C29.953 19.5091 29.8803 19.3916 29.7862 19.2923C29.6921 19.1931 29.5786 19.1141 29.4528 19.0605C29.3269 19.0068 29.1915 18.9795 29.0547 18.9803C28.9179 18.9811 28.7827 19.0099 28.6575 19.065V19.06ZM3 17H29C29.2652 17 29.5196 16.8946 29.7071 16.7071C29.8946 16.5196 30 16.2652 30 16C30 15.7348 29.8946 15.4804 29.7071 15.2929C29.5196 15.1054 29.2652 15 29 15H3C2.73478 15 2.48043 15.1054 2.29289 15.2929C2.10536 15.4804 2 15.7348 2 16C2 16.2652 2.10536 16.5196 2.29289 16.7071C2.48043 16.8946 2.73478 17 3 17Z" fill="#4A4A4F"/>
</svg>
