<svg width="32" height="32" viewBox="0 0 32 32" fill="none" xmlns="http://www.w3.org/2000/svg">
<path d="M31.4175 13.9999L22.985 5.50989C20.7329 3.26231 17.6811 2 14.4993 2C11.3176 2 8.26581 3.26231 6.01372 5.50989L6.00247 5.52114L4.28122 7.29989C4.10292 7.49151 4.00685 7.7454 4.01364 8.00705C4.02043 8.26871 4.12954 8.51727 4.31754 8.69938C4.50554 8.88149 4.75745 8.98263 5.01919 8.98109C5.28092 8.97955 5.53163 8.87545 5.71747 8.69114L7.43372 6.91864C8.12421 6.2283 8.91217 5.64291 9.77247 5.18114L15.585 10.9999L3.58497 22.9999C3.39921 23.1856 3.25185 23.4061 3.15131 23.6488C3.05077 23.8915 2.99902 24.1516 2.99902 24.4143C2.99902 24.677 3.05077 24.9371 3.15131 25.1797C3.25185 25.4224 3.39921 25.6429 3.58497 25.8286L6.17122 28.4149C6.35694 28.6007 6.57744 28.748 6.82012 28.8486C7.06281 28.9491 7.32291 29.0008 7.5856 29.0008C7.84828 29.0008 8.10839 28.9491 8.35107 28.8486C8.59375 28.748 8.81425 28.6007 8.99997 28.4149L21 16.4149L25 20.4149C25.1857 20.6007 25.4062 20.748 25.6489 20.8486C25.8916 20.9491 26.1517 21.0008 26.4143 21.0008C26.677 21.0008 26.9371 20.9491 27.1798 20.8486C27.4225 20.748 27.643 20.6007 27.8287 20.4149L31.415 16.8286C31.6009 16.6431 31.7485 16.4227 31.8492 16.1801C31.95 15.9375 32.0019 15.6775 32.0022 15.4148C32.0024 15.1521 31.9509 14.8919 31.8506 14.6492C31.7502 14.4064 31.6031 14.1858 31.4175 13.9999ZM20.2925 14.2911L17.5 17.0836L14.9137 14.4999L17.7075 11.7061C17.8004 11.6133 17.8742 11.503 17.9245 11.3816C17.9749 11.2602 18.0008 11.1301 18.0008 10.9986C18.0008 10.8672 17.9749 10.7371 17.9245 10.6157C17.8742 10.4943 17.8004 10.384 17.7075 10.2911L11.79 4.37489C13.4996 3.89339 15.3067 3.87593 17.0253 4.32433C18.744 4.77272 20.3122 5.67077 21.5687 6.92614L27.0962 12.4899L23.5 16.0824L21.7075 14.2899C21.6146 14.1969 21.5043 14.1232 21.3829 14.0728C21.2615 14.0225 21.1314 13.9966 21 13.9966C20.8686 13.9966 20.7384 14.0225 20.617 14.0728C20.4956 14.1232 20.3853 14.1969 20.2925 14.2899V14.2911ZM26.4175 18.9986L24.9175 17.4986L28.5 13.9061L30 15.4061L26.4175 18.9986Z" fill="#4A4A4F"/>
</svg>
