<svg width="32" height="32" viewBox="0 0 32 32" fill="none" xmlns="http://www.w3.org/2000/svg">
<path d="M27 12.9999V19.3661C27 25.1411 22.3938 29.9349 16.625 29.9986C15.2249 30.0175 13.8353 29.7552 12.5384 29.2272C11.2415 28.6992 10.0638 27.9163 9.07502 26.9249C6.34877 24.0411 3.26877 16.9999 3.26877 16.9999C3.13329 16.7654 3.04684 16.5058 3.01466 16.237C2.98248 15.9681 3.00524 15.6955 3.08157 15.4356C3.15789 15.1758 3.28618 14.9342 3.45867 14.7254C3.63116 14.5166 3.84425 14.3451 4.08502 14.2211C5.04252 13.7211 6.22252 14.1161 6.76002 15.0486L9.38502 19.6036C9.45803 19.7348 9.56818 19.8414 9.70162 19.9101C9.83507 19.9789 9.98585 20.0066 10.135 19.9899H10.15C10.3902 19.9485 10.6078 19.8228 10.7636 19.6354C10.9194 19.448 11.0033 19.2111 11 18.9674V3.99988C10.9997 3.72893 11.0544 3.46075 11.1609 3.21161C11.2674 2.96246 11.4234 2.73755 11.6194 2.55051C11.8154 2.36348 12.0474 2.21823 12.3013 2.12358C12.5552 2.02892 12.8256 1.98684 13.0963 1.99988C14.1725 2.04988 15 2.97738 15 4.05363V12.9999C14.9997 13.137 15.0276 13.2726 15.082 13.3985C15.1363 13.5244 15.2159 13.6377 15.3159 13.7315C15.4159 13.8253 15.5341 13.8975 15.6632 13.9436C15.7923 13.9898 15.9295 14.009 16.0663 13.9999C16.3234 13.9778 16.5627 13.8592 16.7359 13.6678C16.9091 13.4765 17.0035 13.2267 17 12.9686V10.9999C16.9997 10.7289 17.0544 10.4608 17.1609 10.2116C17.2674 9.96246 17.4234 9.73755 17.6194 9.55051C17.8154 9.36348 18.0474 9.21823 18.3013 9.12358C18.5552 9.02892 18.8256 8.98684 19.0963 8.99988C20.1725 9.04988 21 9.97738 21 11.0536V13.9999C20.9997 14.137 21.0276 14.2726 21.082 14.3985C21.1363 14.5244 21.2159 14.6377 21.3159 14.7315C21.4159 14.8253 21.5341 14.8975 21.6632 14.9436C21.7923 14.9898 21.9295 15.009 22.0663 14.9999C22.3234 14.9778 22.5627 14.8592 22.7359 14.6678C22.9091 14.4765 23.0035 14.2267 23 13.9686V13.0586C23 11.9824 23.8275 11.0586 24.9038 11.0049C25.174 10.9919 25.444 11.0338 25.6976 11.1281C25.9511 11.2225 26.1828 11.3673 26.3788 11.5538C26.5748 11.7403 26.7309 11.9646 26.8376 12.2132C26.9444 12.4617 26.9997 12.7294 27 12.9999Z" fill="#4A4A4F"/>
</svg>
