<svg width="32" height="32" viewBox="0 0 32 32" fill="none" xmlns="http://www.w3.org/2000/svg">
<path d="M27.5251 12.4999L25.2751 8.60237C24.98 8.09068 24.5603 7.66198 24.0549 7.35619C23.5496 7.0504 22.9751 6.87748 22.3849 6.85352C21.7948 6.82957 21.2081 6.95536 20.6797 7.21918C20.1512 7.483 19.6981 7.87628 19.3626 8.36237L17.4451 5.03862C17.1417 4.51336 16.7071 4.07594 16.1838 3.76925C15.6605 3.46256 15.0665 3.29714 14.46 3.2892C13.8534 3.28126 13.2553 3.43107 12.7241 3.72395C12.193 4.01684 11.747 4.44273 11.4301 4.95987C10.811 4.40253 10.0135 4.08425 9.18077 4.06223C8.34808 4.04021 7.53483 4.31589 6.88718 4.83974C6.23953 5.36358 5.79994 6.10124 5.64742 6.92014C5.4949 7.73904 5.63943 8.58549 6.05506 9.30737L6.47256 10.0311C5.88374 10.0784 5.31647 10.274 4.8236 10.5997C4.33074 10.9253 3.9283 11.3704 3.65379 11.8934C3.37928 12.4165 3.24163 13.0005 3.25365 13.5911C3.26568 14.1817 3.42699 14.7597 3.72256 15.2711L8.47256 23.4986C9.19186 24.7519 10.1525 25.8501 11.2989 26.7298C12.4452 27.6094 13.7546 28.2531 15.1513 28.6236C16.0858 28.8733 17.049 28.9993 18.0163 28.9986C19.9455 28.9954 21.84 28.4849 23.5096 27.5182C25.1792 26.5516 26.5652 25.1629 27.5285 23.4914C28.4919 21.8199 28.9987 19.9244 28.9981 17.9951C28.9975 16.0659 28.4895 14.1708 27.5251 12.4999ZM26.6913 20.3286C26.2307 22.048 25.2705 23.5922 23.9323 24.7659C22.594 25.9396 20.9378 26.6902 19.173 26.9226C17.4082 27.155 15.6141 26.8588 14.0176 26.0716C12.4211 25.2844 11.0939 24.0414 10.2038 22.4999L5.45381 14.2724C5.35532 14.1017 5.2914 13.9134 5.26571 13.718C5.24001 13.5227 5.25305 13.3242 5.30406 13.1339C5.40709 12.7496 5.65857 12.4219 6.00319 12.223C6.3478 12.0241 6.75732 11.9702 7.14165 12.0732C7.33196 12.1243 7.51035 12.2123 7.66664 12.3322C7.82293 12.4522 7.95407 12.6017 8.05256 12.7724L10.8026 17.5349C10.8663 17.6522 10.9529 17.7556 11.0572 17.839C11.1615 17.9223 11.2815 17.9839 11.41 18.0202C11.5386 18.0564 11.673 18.0665 11.8056 18.0499C11.9381 18.0333 12.0659 17.9904 12.1815 17.9236C12.2972 17.8568 12.3983 17.7675 12.4788 17.661C12.5594 17.5545 12.6178 17.433 12.6507 17.3036C12.6835 17.1741 12.6901 17.0394 12.67 16.9074C12.6499 16.7754 12.6036 16.6487 12.5338 16.5349L7.78381 8.30862C7.63549 8.05168 7.56669 7.75653 7.58612 7.46048C7.60555 7.16444 7.71233 6.88081 7.89296 6.64546C8.07359 6.4101 8.31996 6.2336 8.6009 6.13826C8.88184 6.04293 9.18475 6.03305 9.47131 6.10987C9.66193 6.16015 9.84065 6.24782 9.99708 6.36777C10.1535 6.48773 10.2845 6.63758 10.3826 6.80862L14.6326 14.1699C14.7688 14.3921 14.9865 14.5523 15.2391 14.6164C15.4918 14.6805 15.7595 14.6434 15.9852 14.513C16.2109 14.3826 16.3768 14.1693 16.4475 13.9184C16.5182 13.6675 16.4882 13.3989 16.3638 13.1699L13.1138 7.54487C12.9235 7.20094 12.8758 6.79604 12.9809 6.41728C13.0861 6.03852 13.3357 5.71617 13.6761 5.5196C14.0165 5.32302 14.4205 5.26792 14.8011 5.36616C15.1817 5.46439 15.5086 5.70811 15.7113 6.04487L20.0001 13.4724C18.9083 14.377 18.1715 15.6384 17.9198 17.0337C17.6682 18.4291 17.918 19.8684 18.6251 21.0974C18.7577 21.3271 18.9761 21.4948 19.2323 21.5635C19.4886 21.6321 19.7616 21.5962 19.9913 21.4636C20.2211 21.331 20.3887 21.1126 20.4574 20.8564C20.5261 20.6001 20.4902 20.3271 20.3576 20.0974C19.8272 19.1787 19.6835 18.087 19.958 17.0624C20.2325 16.0378 20.9027 15.1641 21.8213 14.6336C21.9351 14.568 22.0348 14.4806 22.1148 14.3764C22.1948 14.2722 22.2535 14.1532 22.2875 14.0264C22.3215 13.8995 22.3302 13.7672 22.313 13.6369C22.2959 13.5067 22.2532 13.3811 22.1876 13.2674L20.9376 11.1024C20.7472 10.7584 20.6995 10.3535 20.8047 9.97478C20.9098 9.59602 21.1595 9.27367 21.4999 9.0771C21.8403 8.88052 22.2442 8.82542 22.6249 8.92366C23.0055 9.02189 23.3323 9.26561 23.5351 9.60237L25.7851 13.4999C26.3802 14.5214 26.7668 15.6508 26.9224 16.8228C27.0779 17.9948 26.9994 19.186 26.6913 20.3274V20.3286ZM23.0338 3.74112C23.0678 3.61421 23.1264 3.49523 23.2063 3.39099C23.2863 3.28674 23.386 3.19926 23.4997 3.13356C23.6135 3.06786 23.7391 3.02522 23.8693 3.00807C23.9996 2.99092 24.1319 2.9996 24.2588 3.03362C26.2476 3.56737 27.8838 4.79737 28.8663 6.49987C28.9989 6.72962 29.0348 7.00263 28.9661 7.25885C28.8975 7.51507 28.7298 7.73351 28.5001 7.86612C28.2703 7.99873 27.9973 8.03464 27.7411 7.96596C27.4849 7.89727 27.2664 7.72962 27.1338 7.49987C26.4188 6.25987 25.2138 5.35987 23.7413 4.96612C23.6144 4.93218 23.4954 4.87356 23.3912 4.79362C23.2869 4.71367 23.1995 4.61397 23.1337 4.50021C23.068 4.38645 23.0254 4.26086 23.0083 4.13061C22.9911 4.00036 22.9998 3.86801 23.0338 3.74112ZM10.1138 29.6249C10.0325 29.7281 9.93166 29.8143 9.81703 29.8785C9.7024 29.9427 9.57624 29.9837 9.44576 29.9992C9.31528 30.0146 9.18304 30.0042 9.05659 29.9685C8.93014 29.9328 8.81196 29.8725 8.70881 29.7911C7.33381 28.7049 6.19506 27.3436 5.13381 25.5061C5.0012 25.2764 4.96529 25.0034 5.03398 24.7471C5.10266 24.4909 5.27032 24.2725 5.50006 24.1399C5.72981 24.0073 6.00282 23.9714 6.25904 24.04C6.51526 24.1087 6.7337 24.2764 6.86631 24.5061C7.79631 26.1161 8.77506 27.2961 9.94756 28.2211C10.1557 28.3853 10.29 28.6254 10.3212 28.8886C10.3524 29.1518 10.2778 29.4166 10.1138 29.6249Z" fill="#4A4A4F"/>
</svg>
