<svg width="32" height="32" viewBox="0 0 32 32" fill="none" xmlns="http://www.w3.org/2000/svg">
<path d="M27 7.99988V19.3661C27 25.1411 22.3938 29.9349 16.625 29.9986C15.2249 30.0175 13.8353 29.7552 12.5384 29.2272C11.2415 28.6992 10.0638 27.9163 9.07502 26.9249C6.34877 24.0411 3.26877 16.9999 3.26877 16.9999C3.13329 16.7654 3.04684 16.5058 3.01466 16.237C2.98248 15.9681 3.00524 15.6955 3.08157 15.4356C3.15789 15.1758 3.28618 14.9342 3.45867 14.7254C3.63116 14.5166 3.84425 14.3451 4.08502 14.2211C5.04252 13.7211 6.22252 14.1161 6.76002 15.0486L9.38502 19.6036C9.45803 19.7348 9.56818 19.8414 9.70162 19.9101C9.83507 19.9789 9.98585 20.0066 10.135 19.9899H10.15C10.3902 19.9485 10.6078 19.8228 10.7636 19.6354C10.9194 19.448 11.0033 19.2111 11 18.9674V5.99988C10.9997 5.72893 11.0544 5.46075 11.1609 5.21161C11.2674 4.96246 11.4234 4.73755 11.6194 4.55051C11.8154 4.36348 12.0474 4.21823 12.3013 4.12358C12.5552 4.02892 12.8256 3.98684 13.0963 3.99988C14.1725 4.04988 15 4.97738 15 6.05363V13.9999C14.9997 14.137 15.0276 14.2726 15.082 14.3985C15.1363 14.5244 15.2159 14.6377 15.3159 14.7315C15.4159 14.8253 15.5341 14.8975 15.6632 14.9436C15.7923 14.9898 15.9295 15.009 16.0663 14.9999C16.3234 14.9778 16.5627 14.8592 16.7359 14.6678C16.9091 14.4765 17.0035 14.2267 17 13.9686V3.99988C16.9997 3.72893 17.0544 3.46075 17.1609 3.21161C17.2674 2.96246 17.4234 2.73755 17.6194 2.55051C17.8154 2.36348 18.0474 2.21823 18.3013 2.12358C18.5552 2.02892 18.8256 1.98684 19.0963 1.99988C20.1725 2.04988 21 2.97738 21 4.05363V14.9999C20.9997 15.137 21.0276 15.2726 21.082 15.3985C21.1363 15.5244 21.2159 15.6377 21.3159 15.7315C21.4159 15.8253 21.5341 15.8975 21.6632 15.9436C21.7923 15.9898 21.9295 16.009 22.0663 15.9999C22.3234 15.9778 22.5627 15.8592 22.7359 15.6678C22.9091 15.4765 23.0035 15.2267 23 14.9686V8.05613C23 6.97988 23.8275 6.05613 24.9038 6.00238C25.1742 5.98935 25.4444 6.03136 25.6981 6.12586C25.9518 6.22036 26.1837 6.36539 26.3797 6.55215C26.5757 6.73892 26.7318 6.96353 26.8384 7.21238C26.945 7.46123 27 7.72914 27 7.99988Z" fill="#4A4A4F"/>
</svg>
