<svg width="32" height="32" viewBox="0 0 32 32" fill="none" xmlns="http://www.w3.org/2000/svg">
<path d="M26.0001 17.5001V22.0001C26.0001 25.1989 24.9389 27.3564 24.8939 27.4476C24.8108 27.6136 24.6832 27.7531 24.5254 27.8507C24.3675 27.9483 24.1857 28 24.0001 28.0001C23.8451 28.0002 23.6922 27.9638 23.5539 27.8939C23.3167 27.7753 23.1363 27.5674 23.0524 27.3159C22.9685 27.0644 22.9879 26.7898 23.1064 26.5526C23.1139 26.5376 24.0014 24.7014 24.0014 22.0001V17.5001C24.0014 17.1023 23.8433 16.7208 23.562 16.4395C23.2807 16.1582 22.8992 16.0001 22.5014 16.0001C22.1035 16.0001 21.722 16.1582 21.4407 16.4395C21.1594 16.7208 21.0014 17.1023 21.0014 17.5001V18.0001C21.0014 18.2653 20.896 18.5197 20.7085 18.7072C20.5209 18.8948 20.2666 19.0001 20.0014 19.0001C19.7361 19.0001 19.4818 18.8948 19.2942 18.7072C19.1067 18.5197 19.0014 18.2653 19.0014 18.0001V15.5001C19.0014 15.1023 18.8433 14.7208 18.562 14.4395C18.2807 14.1581 17.8992 14.0001 17.5014 14.0001C17.1035 14.0001 16.722 14.1581 16.4407 14.4395C16.1594 14.7208 16.0014 15.1023 16.0014 15.5001V17.0001C16.0014 17.2653 15.896 17.5197 15.7085 17.7072C15.5209 17.8948 15.2666 18.0001 15.0014 18.0001C14.7361 18.0001 14.4818 17.8948 14.2942 17.7072C14.1067 17.5197 14.0014 17.2653 14.0014 17.0001V8.50011C14.0014 8.10229 13.8433 7.72076 13.562 7.43945C13.2807 7.15815 12.8992 7.00011 12.5014 7.00011C12.1035 7.00011 11.722 7.15815 11.4407 7.43945C11.1594 7.72076 11.0014 8.10229 11.0014 8.50011V22.0001C11.0013 22.2174 10.9306 22.4287 10.7998 22.6022C10.669 22.7756 10.4852 22.9018 10.2763 22.9615C10.0674 23.0213 9.84479 23.0114 9.64205 22.9333C9.4393 22.8552 9.26749 22.7133 9.1526 22.5289L6.8176 18.7789L6.8001 18.7501C6.70161 18.5794 6.57046 18.4297 6.41413 18.3097C6.25781 18.1897 6.07937 18.1016 5.88901 18.0505C5.69865 17.9995 5.5001 17.9864 5.30468 18.0121C5.10927 18.0377 4.92082 18.1016 4.7501 18.2001C4.57938 18.2986 4.42974 18.4298 4.3097 18.5861C4.18967 18.7424 4.10161 18.9208 4.05053 19.1112C3.99946 19.3016 3.98638 19.5001 4.01205 19.6955C4.03771 19.8909 4.10161 20.0794 4.2001 20.2501L7.86135 26.5001C7.93841 26.6137 7.99124 26.742 8.01657 26.8769C8.04189 27.0119 8.03916 27.1506 8.00854 27.2844C7.97792 27.4182 7.92008 27.5443 7.8386 27.6548C7.75713 27.7653 7.65378 27.8579 7.53498 27.9267C7.41619 27.9955 7.2845 28.0391 7.14811 28.0548C7.01172 28.0705 6.87356 28.058 6.74224 28.018C6.61091 27.9779 6.48923 27.9113 6.38478 27.8222C6.28032 27.7331 6.19533 27.6235 6.1351 27.5001L2.4701 21.2501C2.00316 20.4477 1.8741 19.4926 2.11134 18.595C2.34857 17.6974 2.93266 16.9308 3.7351 16.4639C4.53755 15.9969 5.49262 15.8679 6.39022 16.1051C7.28781 16.3423 8.05441 16.9264 8.52135 17.7289L9.0001 18.5001V8.50011C9.0001 7.57186 9.36885 6.68162 10.0252 6.02524C10.6816 5.36886 11.5718 5.00011 12.5001 5.00011C13.4284 5.00011 14.3186 5.36886 14.975 6.02524C15.6314 6.68162 16.0001 7.57186 16.0001 8.50011V12.3376C16.4501 12.124 16.9406 12.009 17.4387 12.0001C17.9367 11.9913 18.431 12.0889 18.8883 12.2864C19.3456 12.4839 19.7555 12.7767 20.0906 13.1453C20.4257 13.5139 20.6782 13.9498 20.8314 14.4239C21.3644 14.1347 21.9635 13.989 22.5699 14.0011C23.1762 14.0132 23.769 14.1826 24.2901 14.4928C24.8113 14.803 25.2429 15.2432 25.5426 15.7704C25.8424 16.2976 26 16.8937 26.0001 17.5001ZM30.7076 6.29261L26.7076 2.29261C26.52 2.10514 26.2655 1.99988 26.0003 2C25.735 2.00012 25.4807 2.1056 25.2932 2.29324C25.1058 2.48088 25.0005 2.73531 25.0006 3.00056C25.0007 3.2658 25.1062 3.52014 25.2939 3.70761L27.5851 6.00011H21.0001C20.7349 6.00011 20.4805 6.10547 20.293 6.29301C20.1055 6.48054 20.0001 6.7349 20.0001 7.00011C20.0001 7.26533 20.1055 7.51968 20.293 7.70722C20.4805 7.89476 20.7349 8.00011 21.0001 8.00011H27.5864L25.2926 10.2926C25.105 10.4801 24.9995 10.7344 24.9994 10.9997C24.9992 11.2649 25.1045 11.5193 25.292 11.707C25.4795 11.8946 25.7338 12.0001 25.999 12.0002C26.2643 12.0003 26.5187 11.8951 26.7064 11.7076L30.7064 7.70761C30.7994 7.61482 30.8733 7.5046 30.9237 7.38325C30.9741 7.26189 31.0001 7.13179 31.0003 7.00037C31.0004 6.86896 30.9746 6.73881 30.9244 6.61737C30.8742 6.49592 30.8005 6.38557 30.7076 6.29261Z" fill="#4A4A4F"/>
</svg>
