<svg width="32" height="32" viewBox="0 0 32 32" fill="none" xmlns="http://www.w3.org/2000/svg">
<path d="M25 9.9999H23V7.9999C22.9991 7.1878 22.751 6.39521 22.2887 5.72751C21.8265 5.05981 21.1719 4.54864 20.4121 4.26194C19.6523 3.97525 18.8232 3.92662 18.0351 4.12252C17.247 4.31842 16.5372 4.74957 16 5.35865C15.4881 4.77842 14.8188 4.35913 14.0734 4.15159C13.328 3.94406 12.5384 3.95718 11.8003 4.18937C11.0621 4.42156 10.4072 4.86285 9.91484 5.45977C9.42248 6.05668 9.11381 6.78359 9.02625 7.5524C8.41873 7.19547 7.72771 7.00535 7.02311 7.00128C6.31851 6.99721 5.62534 7.17933 5.01374 7.52921C4.40214 7.8791 3.89381 8.38433 3.5402 8.99378C3.18658 9.60324 3.00023 10.2953 3 10.9999V15.9999C3 19.4477 4.36964 22.7543 6.80761 25.1923C9.24558 27.6303 12.5522 28.9999 16 28.9999C19.4478 28.9999 22.7544 27.6303 25.1924 25.1923C27.6304 22.7543 29 19.4477 29 15.9999V13.9999C29 12.939 28.5786 11.9216 27.8284 11.1715C27.0783 10.4213 26.0609 9.9999 25 9.9999ZM19 5.9999C19.5304 5.9999 20.0391 6.21061 20.4142 6.58568C20.7893 6.96076 21 7.46946 21 7.9999V9.9999H17V7.9999C17 7.46946 17.2107 6.96076 17.5858 6.58568C17.9609 6.21061 18.4696 5.9999 19 5.9999ZM11 7.9999C11 7.46946 11.2107 6.96076 11.5858 6.58568C11.9609 6.21061 12.4696 5.9999 13 5.9999C13.5304 5.9999 14.0391 6.21061 14.4142 6.58568C14.7893 6.96076 15 7.46946 15 7.9999V12.9999C15 13.5303 14.7893 14.039 14.4142 14.4141C14.0391 14.7892 13.5304 14.9999 13 14.9999C12.4696 14.9999 11.9609 14.7892 11.5858 14.4141C11.2107 14.039 11 13.5303 11 12.9999V7.9999ZM5 10.9999C5 10.4695 5.21071 9.96076 5.58579 9.58568C5.96086 9.21061 6.46957 8.9999 7 8.9999C7.53043 8.9999 8.03914 9.21061 8.41421 9.58568C8.78929 9.96076 9 10.4695 9 10.9999V12.9999C9 13.5303 8.78929 14.039 8.41421 14.4141C8.03914 14.7892 7.53043 14.9999 7 14.9999C6.46957 14.9999 5.96086 14.7892 5.58579 14.4141C5.21071 14.039 5 13.5303 5 12.9999V10.9999ZM27 15.9999C27 18.8766 25.8729 21.6389 23.8606 23.6946C21.8482 25.7503 19.1105 26.9359 16.2344 26.9972C13.3583 27.0585 10.5727 25.9907 8.47449 24.0226C6.37633 22.0545 5.13264 19.3428 5.01 16.4686C5.80932 16.9284 6.74315 17.0971 7.65282 16.9463C8.56248 16.7954 9.39186 16.3343 10 15.6411C10.6892 16.4264 11.6588 16.9102 12.7007 16.9885C13.7426 17.0668 14.7737 16.7334 15.5725 16.0599C15.9322 16.6561 16.4405 17.1488 17.0475 17.4899C16.4041 18.052 15.8885 18.7452 15.5353 19.5232C15.1822 20.3011 14.9996 21.1456 15 21.9999C15 22.2651 15.1054 22.5195 15.2929 22.707C15.4804 22.8945 15.7348 22.9999 16 22.9999C16.2652 22.9999 16.5196 22.8945 16.7071 22.707C16.8946 22.5195 17 22.2651 17 21.9999C17 20.939 17.4214 19.9216 18.1716 19.1715C18.9217 18.4213 19.9391 17.9999 21 17.9999C21.2652 17.9999 21.5196 17.8945 21.7071 17.707C21.8946 17.5195 22 17.2651 22 16.9999C22 16.7347 21.8946 16.4803 21.7071 16.2928C21.5196 16.1053 21.2652 15.9999 21 15.9999H19C18.4696 15.9999 17.9609 15.7892 17.5858 15.4141C17.2107 15.039 17 14.5303 17 13.9999V11.9999H25C25.5304 11.9999 26.0391 12.2106 26.4142 12.5857C26.7893 12.9608 27 13.4695 27 13.9999V15.9999Z" fill="#4A4A4F"/>
</svg>
