<svg width="32" height="32" viewBox="0 0 32 32" fill="none" xmlns="http://www.w3.org/2000/svg">
<path d="M21.0001 3V1C21.0001 0.734784 21.1055 0.48043 21.293 0.292893C21.4805 0.105357 21.7349 0 22.0001 0C22.2653 0 22.5197 0.105357 22.7072 0.292893C22.8948 0.48043 23.0001 0.734784 23.0001 1V3C23.0001 3.26522 22.8948 3.51957 22.7072 3.70711C22.5197 3.89464 22.2653 4 22.0001 4C21.7349 4 21.4805 3.89464 21.293 3.70711C21.1055 3.51957 21.0001 3.26522 21.0001 3ZM25.4789 5.125C25.6361 5.2196 25.8166 5.26852 26.0001 5.26625C26.1717 5.26652 26.3405 5.22263 26.4903 5.13878C26.64 5.05493 26.7657 4.93396 26.8551 4.7875L27.8551 3.14875C27.9247 3.03661 27.9714 2.9118 27.9925 2.78153C28.0136 2.65125 28.0088 2.51809 27.9782 2.3897C27.9476 2.26132 27.8919 2.14026 27.8143 2.03351C27.7367 1.92676 27.6387 1.83642 27.5261 1.76771C27.4134 1.69899 27.2882 1.65326 27.1578 1.63316C27.0273 1.61305 26.8942 1.61896 26.7661 1.65055C26.6379 1.68213 26.5173 1.73877 26.4112 1.8172C26.305 1.89563 26.2154 1.99429 26.1476 2.1075L25.1476 3.745C25.0783 3.85723 25.0319 3.98207 25.011 4.11232C24.9901 4.24258 24.9952 4.37567 25.026 4.50395C25.0568 4.63222 25.1127 4.75313 25.1904 4.85972C25.2681 4.96631 25.3661 5.05647 25.4789 5.125ZM31.4089 6.69875C31.3686 6.57374 31.3041 6.45789 31.219 6.35782C31.1339 6.25774 31.03 6.17541 30.9131 6.11551C30.7962 6.05561 30.6687 6.01933 30.5377 6.00874C30.4068 5.99814 30.2751 6.01343 30.1501 6.05375L28.2751 6.66C28.0478 6.73268 27.854 6.88426 27.7286 7.08736C27.6033 7.29046 27.5547 7.53168 27.5917 7.76746C27.6287 8.00323 27.7488 8.218 27.9303 8.37298C28.1118 8.52795 28.3427 8.61291 28.5814 8.6125C28.6858 8.6121 28.7895 8.59566 28.8889 8.56375L30.7639 7.9575C30.8894 7.91725 31.0058 7.85255 31.1063 7.76714C31.2068 7.68173 31.2894 7.57729 31.3493 7.45983C31.4093 7.34237 31.4454 7.21421 31.4556 7.08274C31.4658 6.95126 31.4499 6.81906 31.4089 6.69375V6.69875ZM27.6589 11.6912C28.7645 13.593 29.2097 15.8072 28.9251 17.9886C28.6404 20.1699 27.6418 22.1957 26.0851 23.75C25.545 25.6376 24.4612 27.3244 22.9688 28.6001C21.4765 29.8758 19.6416 30.684 17.693 30.924C15.7444 31.1639 13.7683 30.8249 12.0111 29.9493C10.2538 29.0737 8.79323 27.7002 7.81136 26L3.43636 18.4212C3.16924 17.9579 3.02059 17.4358 3.00359 16.9013C2.9866 16.3667 3.10178 15.8363 3.33893 15.3569C3.57608 14.8775 3.92786 14.4641 4.36308 14.1533C4.79829 13.8424 5.30349 13.6438 5.83386 13.575L5.33386 12.7075C5.07089 12.252 4.9224 11.7394 4.90115 11.2139C4.8799 10.6883 4.98652 10.1655 5.21186 9.69022C5.43719 9.21496 5.77452 8.80149 6.19486 8.48531C6.6152 8.16914 7.106 7.9597 7.62511 7.875C7.36474 7.15807 7.36482 6.37241 7.62533 5.65553C7.88585 4.93865 8.39021 4.33624 9.05011 3.95375C9.65522 3.60567 10.3562 3.46126 11.0496 3.54184C11.743 3.62241 12.3922 3.92369 12.9014 4.40125C13.2132 3.95107 13.6338 3.58699 14.124 3.34284C14.6142 3.09868 15.1582 2.98237 15.7054 3.00469C16.2526 3.02701 16.7853 3.18725 17.254 3.47052C17.7227 3.75379 18.1122 4.15091 18.3864 4.625L19.8864 7.22375C20.2111 6.79848 20.6359 6.45998 21.1229 6.23831C21.6099 6.01663 22.1441 5.91863 22.6781 5.95301C23.2121 5.98738 23.7293 6.15308 24.1839 6.43538C24.6385 6.71768 25.0163 7.10785 25.2839 7.57125L27.6589 11.6912ZM14.4901 6.875L15.2314 8.15875C15.4789 8.38479 15.6897 8.64793 15.8564 8.93875L17.3564 11.5325C17.8494 10.8922 18.5617 10.4568 19.3564 10.31L16.6551 5.625C16.4893 5.33791 16.2163 5.12842 15.8961 5.04263C15.5759 4.95683 15.2347 5.00175 14.9476 5.1675C14.6605 5.33327 14.451 5.60629 14.3652 5.9265C14.2794 6.24672 14.3244 6.5879 14.4901 6.875ZM9.59261 7.39375L10.3339 8.67875L10.3739 8.715C10.6164 8.36387 10.9258 8.06408 11.2845 7.83284C11.6432 7.6016 12.0439 7.44346 12.4639 7.3675L11.7576 6.14375C11.634 5.92962 11.4497 5.75695 11.228 5.64758C11.0063 5.53821 10.7571 5.49704 10.512 5.52928C10.2668 5.56153 10.0368 5.66574 9.8509 5.82874C9.665 5.99173 9.53162 6.2062 9.46761 6.445C9.42456 6.60354 9.41345 6.76905 9.4349 6.93192C9.45636 7.09479 9.50997 7.25177 9.59261 7.39375ZM24.1989 23.0713C24.4734 22.0566 24.5441 20.9976 24.4068 19.9555C24.2695 18.9134 23.9269 17.9089 23.3989 17L21.0239 12.8862C20.8623 12.6093 20.6006 12.405 20.2927 12.3156C19.9848 12.2262 19.6544 12.2586 19.3696 12.4059C19.0849 12.5532 18.8677 12.8043 18.7628 13.1073C18.658 13.4103 18.6736 13.7419 18.8064 14.0337L20.2339 16.5C20.3665 16.7299 20.4023 17.0031 20.3335 17.2594C20.2647 17.5158 20.0969 17.7343 19.867 17.8669C19.6371 17.9995 19.3639 18.0353 19.1076 17.9665C18.8512 17.8977 18.6327 17.7299 18.5001 17.5L14.1251 9.94125C13.9535 9.66946 13.6837 9.47424 13.3719 9.39615C13.0601 9.31806 12.7302 9.36309 12.4507 9.5219C12.1712 9.68071 11.9636 9.94108 11.8711 10.2489C11.7786 10.5568 11.8082 10.8884 11.9539 11.175L15.0326 16.5C15.1024 16.6138 15.1487 16.7405 15.1688 16.8725C15.1889 17.0045 15.1823 17.1392 15.1495 17.2687C15.1166 17.3981 15.0582 17.5197 14.9776 17.6262C14.8971 17.7327 14.796 17.8219 14.6803 17.8887C14.5647 17.9555 14.4369 17.9985 14.3044 18.0151C14.1718 18.0316 14.0374 18.0215 13.9088 17.9853C13.7803 17.9491 13.6603 17.8875 13.556 17.8041C13.4517 17.7208 13.3651 17.6174 13.3014 17.5L9.23011 10.4575C9.14863 10.3142 9.03962 10.1884 8.90933 10.0874C8.77905 9.98641 8.63007 9.91218 8.47098 9.86899C8.31189 9.8258 8.14582 9.8145 7.98235 9.83575C7.81887 9.85699 7.66122 9.91037 7.51845 9.9928C7.37569 10.0752 7.25064 10.1851 7.15051 10.316C7.05037 10.447 6.97713 10.5964 6.93499 10.7558C6.89285 10.9152 6.88266 11.0813 6.90499 11.2447C6.92732 11.408 6.98174 11.5653 7.06511 11.7075L11.5651 19.5025C11.6308 19.6163 11.6734 19.7418 11.6905 19.8721C11.7076 20.0023 11.699 20.1346 11.6649 20.2615C11.6309 20.3883 11.5723 20.5073 11.4923 20.6115C11.4123 20.7157 11.3126 20.8031 11.1989 20.8687C11.0851 20.9344 10.9595 20.977 10.8293 20.9942C10.6991 21.0113 10.5668 21.0026 10.4399 20.9686C10.313 20.9346 10.1941 20.8759 10.0899 20.7959C9.9857 20.716 9.89827 20.6163 9.83261 20.5025L7.33261 16.1725C7.16568 15.8877 6.89288 15.6806 6.57376 15.5962C6.25464 15.5118 5.9151 15.5571 5.62925 15.7222C5.34339 15.8872 5.13441 16.1586 5.04793 16.4772C4.96144 16.7957 5.00447 17.1356 5.16761 17.4225L9.54261 25.0012C10.3337 26.3717 11.5135 27.4768 12.9327 28.1767C14.3519 28.8766 15.9467 29.14 17.5156 28.9334C19.0845 28.7268 20.5568 28.0595 21.7465 27.0161C22.9361 25.9726 23.7895 24.5998 24.1989 23.0713ZM25.9264 12.6862L23.5514 8.5725C23.3844 8.28774 23.1116 8.08057 22.7925 7.9962C22.4734 7.91183 22.1339 7.95711 21.848 8.12216C21.5621 8.2872 21.3532 8.55862 21.2667 8.87717C21.1802 9.19572 21.2232 9.53555 21.3864 9.8225L22.1251 11.1038C22.3725 11.3308 22.5834 11.5948 22.7501 11.8862L25.1251 16C25.7924 17.1533 26.2229 18.4282 26.3914 19.75C26.8627 18.6162 27.0659 17.3889 26.9853 16.1637C26.9046 14.9385 26.5423 13.7485 25.9264 12.6862Z" fill="#4A4A4F"/>
</svg>
