<svg width="32" height="32" viewBox="0 0 32 32" fill="none" xmlns="http://www.w3.org/2000/svg">
<path d="M29.4148 22.4999L24.8848 17.9687L20.3273 2.93241C20.1978 2.50426 19.9647 2.11466 19.6486 1.79812C19.3326 1.48158 18.9433 1.24788 18.5154 1.11771C18.0874 0.987544 17.634 0.964931 17.1952 1.05187C16.7564 1.13882 16.3458 1.33264 15.9998 1.61616C15.6538 1.33264 15.2433 1.13882 14.8045 1.05187C14.3657 0.964931 13.9123 0.987544 13.4843 1.11771C13.0563 1.24788 12.6671 1.48158 12.351 1.79812C12.035 2.11466 11.8019 2.50426 11.6723 2.93241L7.11483 17.9699L2.58483 22.4999C2.21005 22.8749 1.99951 23.3835 1.99951 23.9137C1.99951 24.4439 2.21005 24.9524 2.58483 25.3274L6.67108 29.4137C6.85681 29.5994 7.07731 29.7468 7.31999 29.8473C7.56267 29.9479 7.82278 29.9996 8.08546 29.9996C8.34814 29.9996 8.60825 29.9479 8.85093 29.8473C9.09361 29.7468 9.31411 29.5994 9.49984 29.4137L15.5348 23.3749C15.7021 23.2072 15.8575 23.028 15.9998 22.8387C16.1422 23.028 16.2975 23.2072 16.4648 23.3749L22.4998 29.4149C22.6856 29.6007 22.9061 29.748 23.1487 29.8486C23.3914 29.9491 23.6515 30.0009 23.9142 30.0009C24.1769 30.0009 24.437 29.9491 24.6797 29.8486C24.9224 29.748 25.1429 29.6007 25.3286 29.4149L29.4148 25.3287C29.6006 25.1429 29.748 24.9224 29.8485 24.6798C29.949 24.4371 30.0008 24.177 30.0008 23.9143C30.0008 23.6516 29.949 23.3915 29.8485 23.1488C29.748 22.9061 29.6006 22.6856 29.4148 22.4999ZM14.9998 19.8437C15.0018 20.2381 14.9255 20.6291 14.7753 20.9939C14.6251 21.3586 14.404 21.69 14.1248 21.9687L11.0848 24.9999L6.99984 20.9149L8.70609 19.2074C8.82253 19.091 8.9084 18.9475 8.95609 18.7899L13.5811 3.51241C13.628 3.34241 13.7355 3.19543 13.8832 3.09919C14.031 3.00294 14.2089 2.96406 14.3833 2.98988C14.5578 3.01571 14.7168 3.10444 14.8303 3.23937C14.9439 3.3743 15.0042 3.54611 14.9998 3.72241V19.8437ZM20.9298 25.0162L17.8748 21.9649C17.5956 21.6862 17.3745 21.3549 17.2244 20.9901C17.0742 20.6253 16.9978 20.2344 16.9998 19.8399V3.71491C16.9999 3.54172 17.0621 3.3743 17.1753 3.24316C17.2884 3.11203 17.4449 3.02589 17.6162 3.00044C17.7875 2.97499 17.9622 3.01193 18.1086 3.10452C18.255 3.19712 18.3632 3.33921 18.4136 3.50491L23.0386 18.7824C23.0863 18.94 23.1721 19.0835 23.2886 19.1999L25.0998 21.0112L20.9298 25.0162Z" fill="#4A4A4F"/>
</svg>
