<svg width="32" height="32" viewBox="0 0 32 32" fill="none" xmlns="http://www.w3.org/2000/svg">
<path d="M23.5 5.99987C22.9809 5.99914 22.4683 6.1149 22 6.33862V5.49987C22.0003 4.66568 21.7026 3.85881 21.1607 3.22466C20.6187 2.5905 19.8681 2.17077 19.044 2.04109C18.22 1.91141 17.3767 2.08032 16.6662 2.51738C15.9557 2.95444 15.4246 3.6309 15.1687 4.42487C14.6357 4.13577 14.0368 3.9901 13.4305 4.00213C12.8243 4.01416 12.2316 4.18348 11.7105 4.4935C11.1894 4.80351 10.7577 5.24359 10.4579 5.77062C10.158 6.29764 10.0002 6.89352 9.99996 7.49987V15.4999L9.52246 14.7336C9.05866 13.9332 8.29687 13.349 7.40359 13.1086C6.51031 12.8683 5.5582 12.9913 4.75537 13.4509C3.95255 13.9104 3.3643 14.6691 3.11922 15.5611C2.87414 16.4531 2.99215 17.4059 3.44746 18.2111C5.44746 22.4324 7.06371 25.4261 8.91246 27.2974C10.78 29.1924 12.9 29.9999 16 29.9999C18.9163 29.9966 21.7123 28.8366 23.7745 26.7744C25.8367 24.7122 26.9966 21.9162 27 18.9999V9.49987C27 8.57161 26.6312 7.68138 25.9748 7.025C25.3185 6.36862 24.4282 5.99987 23.5 5.99987ZM25 18.9999C24.9973 21.386 24.0483 23.6737 22.361 25.3609C20.6737 27.0482 18.3861 27.9972 16 27.9999C13.4525 27.9999 11.8112 27.3899 10.3337 25.8936C8.67996 24.2174 7.15746 21.3749 5.23746 17.3224C5.22621 17.2976 5.21369 17.2734 5.19996 17.2499C5.00105 16.9053 4.94718 16.4957 5.05021 16.1114C5.15323 15.7271 5.40472 15.3994 5.74933 15.2005C6.09395 15.0016 6.50347 14.9477 6.8878 15.0507C7.27213 15.1538 7.5998 15.4053 7.79871 15.7499C7.8038 15.7599 7.80965 15.7695 7.81621 15.7786L10.15 19.5286C10.2646 19.7136 10.4365 19.8561 10.6395 19.9346C10.8425 20.0131 11.0655 20.0231 11.2748 19.9633C11.484 19.9035 11.6681 19.7771 11.7989 19.6032C11.9298 19.4293 12.0004 19.2175 12 18.9999V7.49987C12 7.10205 12.158 6.72052 12.4393 6.43921C12.7206 6.15791 13.1021 5.99987 13.5 5.99987C13.8978 5.99987 14.2793 6.15791 14.5606 6.43921C14.8419 6.72052 15 7.10205 15 7.49987V14.9999C15 15.2651 15.1053 15.5194 15.2929 15.707C15.4804 15.8945 15.7347 15.9999 16 15.9999C16.2652 15.9999 16.5195 15.8945 16.7071 15.707C16.8946 15.5194 17 15.2651 17 14.9999V5.49987C17 5.10205 17.158 4.72052 17.4393 4.43921C17.7206 4.15791 18.1021 3.99987 18.5 3.99987C18.8978 3.99987 19.2793 4.15791 19.5606 4.43921C19.8419 4.72052 20 5.10205 20 5.49987V14.9999C20 15.2651 20.1053 15.5194 20.2929 15.707C20.4804 15.8945 20.7347 15.9999 21 15.9999C21.2652 15.9999 21.5195 15.8945 21.7071 15.707C21.8946 15.5194 22 15.2651 22 14.9999V9.49987C22 9.10205 22.158 8.72052 22.4393 8.43921C22.7206 8.15791 23.1021 7.99987 23.5 7.99987C23.8978 7.99987 24.2793 8.15791 24.5606 8.43921C24.8419 8.72052 25 9.10205 25 9.49987V18.9999Z" fill="#4A4A4F"/>
</svg>
