<svg width="32" height="32" viewBox="0 0 32 32" fill="none" xmlns="http://www.w3.org/2000/svg">
<path d="M7.00007 8C7.00007 6.4087 7.63221 4.88258 8.75743 3.75736C9.88265 2.63214 11.4088 2 13.0001 2C14.5914 2 16.1175 2.63214 17.2427 3.75736C18.3679 4.88258 19.0001 6.4087 19.0001 8C19.0001 8.26522 18.8947 8.51957 18.7072 8.70711C18.5196 8.89464 18.2653 9 18.0001 9C17.7349 9 17.4805 8.89464 17.293 8.70711C17.1054 8.51957 17.0001 8.26522 17.0001 8C17.0001 6.93913 16.5786 5.92172 15.8285 5.17157C15.0784 4.42143 14.0609 4 13.0001 4C11.9392 4 10.9218 4.42143 10.1716 5.17157C9.4215 5.92172 9.00007 6.93913 9.00007 8C9.00007 8.26522 8.89472 8.51957 8.70718 8.70711C8.51964 8.89464 8.26529 9 8.00007 9C7.73486 9 7.4805 8.89464 7.29297 8.70711C7.10543 8.51957 7.00007 8.26522 7.00007 8ZM24.9038 15C23.8276 15.05 23.0001 15.9775 23.0001 17.0537V17.9638C23.0035 18.2218 22.9092 18.4716 22.7359 18.663C22.5627 18.8543 22.3235 18.9729 22.0663 18.995C21.9295 19.0041 21.7923 18.9849 21.6633 18.9388C21.5342 18.8926 21.416 18.8204 21.316 18.7266C21.216 18.6328 21.1364 18.5195 21.082 18.3936C21.0277 18.2678 20.9998 18.1321 21.0001 17.995V15.0562C21.0001 13.98 20.1726 13.0562 19.0963 13.0025C18.8259 12.9895 18.5557 13.0315 18.302 13.126C18.0482 13.2205 17.8164 13.3655 17.6204 13.5523C17.4244 13.739 17.2683 13.9637 17.1617 14.2125C17.0551 14.4614 17.0001 14.7293 17.0001 15V16.9662C17.0035 17.2243 16.9092 17.4741 16.7359 17.6655C16.5627 17.8568 16.3235 17.9754 16.0663 17.9975C15.9295 18.0066 15.7923 17.9874 15.6633 17.9413C15.5342 17.8951 15.416 17.8229 15.316 17.7291C15.216 17.6353 15.1364 17.522 15.082 17.3961C15.0277 17.2703 14.9998 17.1346 15.0001 16.9975V8.05625C15.0001 6.98 14.1726 6.05625 13.0963 6.0025C12.8259 5.98947 12.5557 6.03148 12.302 6.12598C12.0482 6.22048 11.8164 6.36551 11.6204 6.55228C11.4244 6.73904 11.2683 6.96365 11.1617 7.21251C11.0551 7.46136 11.0001 7.72927 11.0001 8V22.9675C11.0031 23.2093 10.9204 23.4445 10.7667 23.6312C10.6129 23.8179 10.398 23.9441 10.1601 23.9875H10.1451C9.99591 24.0042 9.84512 23.9765 9.71168 23.9078C9.57823 23.839 9.46808 23.7324 9.39507 23.6012L6.77007 19.0462C6.23257 18.1137 5.05257 17.725 4.09507 18.2188C3.85312 18.3418 3.63875 18.5128 3.46502 18.7214C3.29128 18.9299 3.16182 19.1717 3.08452 19.4319C3.00722 19.6921 2.9837 19.9653 3.01538 20.2349C3.04707 20.5045 3.1333 20.7648 3.26882 21L7.14382 28.5063C7.23154 28.6557 7.35658 28.7798 7.50668 28.8663C7.65679 28.9529 7.8268 28.9989 8.00007 29H25.0001C25.1859 29.0001 25.368 28.9485 25.5261 28.8509C25.6842 28.7533 25.8119 28.6136 25.8951 28.4475C25.9401 28.3575 27.0001 26.565 27.0001 23.3662V17C27.0004 16.7291 26.9456 16.4609 26.8392 16.2117C26.7327 15.9626 26.5767 15.7377 26.3807 15.5506C26.1846 15.3636 25.9527 15.2184 25.6988 15.1237C25.4449 15.029 25.1745 14.987 24.9038 15Z" fill="#4A4A4F"/>
</svg>
