<svg width="32" height="32" viewBox="0 0 32 32" fill="none" xmlns="http://www.w3.org/2000/svg">
<path d="M20.9999 3V1C20.9999 0.734784 21.1053 0.48043 21.2928 0.292893C21.4803 0.105357 21.7347 0 21.9999 0C22.2651 0 22.5195 0.105357 22.707 0.292893C22.8945 0.48043 22.9999 0.734784 22.9999 1V3C22.9999 3.26522 22.8945 3.51957 22.707 3.70711C22.5195 3.89464 22.2651 4 21.9999 4C21.7347 4 21.4803 3.89464 21.2928 3.70711C21.1053 3.51957 20.9999 3.26522 20.9999 3ZM25.4786 5.125C25.5908 5.19349 25.7153 5.23922 25.845 5.25958C25.9748 5.27993 26.1073 5.27452 26.235 5.24364C26.3627 5.21276 26.4831 5.15703 26.5892 5.07962C26.6954 5.00221 26.7852 4.90465 26.8536 4.7925L27.8536 3.15375C27.9232 3.04161 27.9699 2.9168 27.9911 2.78653C28.0122 2.65625 28.0073 2.52309 27.9767 2.3947C27.9461 2.26632 27.8904 2.14526 27.8128 2.03851C27.7352 1.93176 27.6373 1.84142 27.5246 1.77271C27.4119 1.70399 27.2867 1.65826 27.1563 1.63816C27.0259 1.61805 26.8927 1.62396 26.7646 1.65555C26.6365 1.68713 26.5158 1.74377 26.4097 1.8222C26.3036 1.90063 26.214 1.99929 26.1461 2.1125L25.1461 3.75C25.0776 3.86203 25.0318 3.98647 25.0113 4.1162C24.9909 4.24594 24.9962 4.37843 25.027 4.50611C25.0577 4.6338 25.1133 4.75417 25.1906 4.86036C25.2679 4.96655 25.3654 5.05647 25.4774 5.125H25.4786ZM31.4086 6.69875C31.3273 6.44657 31.1491 6.237 30.9134 6.11606C30.6776 5.99512 30.4034 5.97271 30.1511 6.05375L28.2761 6.66C28.0488 6.73268 27.855 6.88426 27.7297 7.08736C27.6043 7.29046 27.5558 7.53168 27.5928 7.76746C27.6297 8.00323 27.7498 8.218 27.9313 8.37298C28.1128 8.52795 28.3437 8.61291 28.5824 8.6125C28.6868 8.6122 28.7905 8.59576 28.8899 8.56375L30.7649 7.9575C30.8903 7.91699 31.0064 7.85211 31.1066 7.76659C31.2068 7.68107 31.2891 7.57659 31.3488 7.45916C31.4085 7.34172 31.4444 7.21365 31.4545 7.0823C31.4645 6.95095 31.4485 6.8189 31.4074 6.69375L31.4086 6.69875ZM27.6586 11.6912C28.7642 13.5932 29.2092 15.8074 28.9242 17.9888C28.6393 20.1701 27.6406 22.1958 26.0836 23.75C25.5435 25.6376 24.4597 27.3244 22.9674 28.6001C21.475 29.8758 19.6402 30.684 17.6916 30.924C15.743 31.1639 13.7669 30.8249 12.0096 29.9493C10.2524 29.0737 8.79177 27.7002 7.8099 26L3.4349 18.4212C3.16778 17.9579 3.01913 17.4358 3.00213 16.9013C2.98513 16.3667 3.10032 15.8363 3.33747 15.3569C3.57461 14.8775 3.92639 14.4641 4.36161 14.1533C4.79683 13.8424 5.30203 13.6438 5.8324 13.575L5.3324 12.7075C5.06941 12.2519 4.92095 11.7393 4.89977 11.2136C4.87859 10.688 4.98532 10.1651 5.21079 9.68979C5.43627 9.2145 5.77374 8.80105 6.19424 8.48494C6.61473 8.16884 7.10568 7.95953 7.6249 7.875C7.36442 7.15821 7.36431 6.37265 7.62459 5.65579C7.88487 4.93893 8.38896 4.33644 9.04865 3.95375C9.65347 3.60468 10.3547 3.45971 11.0483 3.54031C11.742 3.62091 12.3912 3.9228 12.8999 4.40125C13.2118 3.95107 13.6323 3.58699 14.1226 3.34284C14.6128 3.09868 15.1567 2.98237 15.7039 3.00469C16.2511 3.02701 16.7838 3.18725 17.2525 3.47052C17.7212 3.75379 18.1107 4.15091 18.3849 4.625L19.8849 7.22375C20.2097 6.79875 20.6344 6.46049 21.1213 6.23898C21.6082 6.01748 22.1422 5.91957 22.676 5.95394C23.2098 5.98832 23.7268 6.15391 24.1813 6.43604C24.6357 6.71817 25.0135 7.1081 25.2811 7.57125L27.6586 11.6912ZM24.1986 23.0763C24.4736 22.0608 24.5445 21.001 24.4072 19.958C24.2699 18.915 23.9271 17.9096 23.3986 17L21.0236 12.8862C20.8638 12.6059 20.6018 12.3982 20.2924 12.3067C19.9829 12.2151 19.6501 12.2467 19.3635 12.395C19.0768 12.5432 18.8586 12.7966 18.7545 13.102C18.6504 13.4074 18.6685 13.7413 18.8049 14.0337L20.2324 16.5C20.2981 16.6138 20.3407 16.7393 20.3578 16.8696C20.3749 16.9998 20.3662 17.1321 20.3322 17.259C20.2982 17.3858 20.2396 17.5048 20.1596 17.609C20.0796 17.7132 19.9799 17.8006 19.8661 17.8662C19.7524 17.9319 19.6268 17.9745 19.4966 17.9917C19.3664 18.0088 19.234 18.0001 19.1072 17.9661C18.9803 17.9321 18.8614 17.8734 18.7572 17.7934C18.653 17.7135 18.5656 17.6138 18.4999 17.5L14.1249 9.94125C13.9533 9.66946 13.6835 9.47424 13.3717 9.39615C13.0599 9.31806 12.7299 9.36309 12.4505 9.5219C12.171 9.68071 11.9634 9.94108 11.8709 10.2489C11.7784 10.5568 11.808 10.8884 11.9536 11.175L15.0311 16.5C15.101 16.6138 15.1473 16.7405 15.1673 16.8725C15.1874 17.0045 15.1808 17.1392 15.148 17.2687C15.1152 17.3981 15.0567 17.5197 14.9762 17.6262C14.8956 17.7327 14.7945 17.8219 14.6789 17.8887C14.5632 17.9555 14.4354 17.9985 14.3029 18.0151C14.1704 18.0316 14.0359 18.0215 13.9074 17.9853C13.7788 17.9491 13.6589 17.8875 13.5545 17.8041C13.4502 17.7208 13.3636 17.6174 13.2999 17.5L9.22865 10.4575C9.14717 10.3142 9.03815 10.1884 8.90787 10.0874C8.77758 9.98641 8.6286 9.91218 8.46951 9.86899C8.31042 9.8258 8.14436 9.8145 7.98089 9.83575C7.81741 9.85699 7.65975 9.91037 7.51699 9.9928C7.37423 10.0752 7.24918 10.1851 7.14904 10.316C7.04891 10.447 6.97566 10.5964 6.93353 10.7558C6.89139 10.9152 6.88119 11.0813 6.90353 11.2447C6.92586 11.408 6.98028 11.5653 7.06365 11.7075L9.06365 15.1725L11.5636 19.5025C11.6293 19.6163 11.6719 19.7418 11.6891 19.8721C11.7062 20.0023 11.6975 20.1346 11.6635 20.2615C11.6295 20.3883 11.5708 20.5073 11.4908 20.6115C11.4109 20.7157 11.3112 20.8031 11.1974 20.8687C11.0836 20.9344 10.9581 20.977 10.8278 20.9942C10.6976 21.0113 10.5653 21.0026 10.4384 20.9686C10.3116 20.9346 10.1926 20.8759 10.0884 20.7959C9.98423 20.716 9.89681 20.6163 9.83115 20.5025L7.33115 16.1725C7.16421 15.8877 6.89142 15.6806 6.5723 15.5962C6.25318 15.5118 5.91364 15.5571 5.62778 15.7222C5.34192 15.8872 5.13295 16.1586 5.04646 16.4772C4.95998 16.7957 5.003 17.1356 5.16615 17.4225L9.54115 25.0012C10.3322 26.3717 11.512 27.4768 12.9312 28.1767C14.3504 28.8766 15.9453 29.14 17.5141 28.9334C19.083 28.7268 20.5554 28.0595 21.745 27.0161C22.9346 25.9726 23.7881 24.5998 24.1974 23.0713L24.1986 23.0763Z" fill="#4A4A4F"/>
</svg>
