<svg width="32" height="32" viewBox="0 0 32 32" fill="none" xmlns="http://www.w3.org/2000/svg">
<path d="M23.5001 11C22.9171 10.9994 22.3433 11.1451 21.8313 11.4237C21.6782 10.9497 21.4257 10.5138 21.0906 10.1452C20.7555 9.77658 20.3456 9.48374 19.8883 9.28625C19.4309 9.08877 18.9367 8.99118 18.4386 9.00002C17.9406 9.00885 17.4501 9.12391 17.0001 9.3375V5.5C17.0001 4.57174 16.6313 3.6815 15.9749 3.02513C15.3186 2.36875 14.4283 2 13.5001 2C12.5718 2 11.6816 2.36875 11.0252 3.02513C10.3688 3.6815 10.0001 4.57174 10.0001 5.5V15.5L9.52256 14.7338C9.29168 14.3361 8.98474 13.9878 8.61925 13.7088C8.25377 13.4297 7.83691 13.2254 7.39246 13.1075C6.49486 12.8693 5.53942 12.9975 4.73631 13.4637C3.9332 13.93 3.34822 14.6963 3.11005 15.5938C2.87187 16.4914 3.00003 17.4469 3.46631 18.25L4.05006 19.2787C8.35131 26.8612 10.1313 30 16.0001 30C18.9164 29.9967 21.7124 28.8367 23.7746 26.7745C25.8368 24.7123 26.9968 21.9164 27.0001 19V14.5C27.0001 13.5717 26.6313 12.6815 25.9749 12.0251C25.3186 11.3687 24.4283 11 23.5001 11ZM25.0001 19C24.9974 21.3861 24.0484 23.6738 22.3611 25.361C20.6738 27.0483 18.3862 27.9974 16.0001 28C11.2963 28 10.0201 25.75 5.79006 18.29L5.20381 17.2563V17.25C5.00476 16.9058 4.95048 16.4967 5.05291 16.1126C5.15533 15.7284 5.40609 15.4006 5.75006 15.2013C5.97791 15.0693 6.23675 15.0002 6.50006 15.0013C6.76374 15.0009 7.02286 15.07 7.25131 15.2017C7.47976 15.3333 7.66947 15.5229 7.80131 15.7513C7.8064 15.7613 7.81225 15.7709 7.81881 15.78L10.1526 19.53C10.2677 19.7139 10.4396 19.8553 10.6422 19.933C10.8449 20.0106 11.0672 20.0203 11.2758 19.9604C11.4844 19.9006 11.6678 19.7745 11.7985 19.6013C11.9291 19.428 11.9999 19.217 12.0001 19V5.5C12.0001 5.10218 12.1581 4.72064 12.4394 4.43934C12.7207 4.15804 13.1022 4 13.5001 4C13.8979 4 14.2794 4.15804 14.5607 4.43934C14.842 4.72064 15.0001 5.10218 15.0001 5.5V14C15.0001 14.2652 15.1054 14.5196 15.293 14.7071C15.4805 14.8946 15.7348 15 16.0001 15C16.2653 15 16.5196 14.8946 16.7072 14.7071C16.8947 14.5196 17.0001 14.2652 17.0001 14V12.5C17.0001 12.1022 17.1581 11.7206 17.4394 11.4393C17.7207 11.158 18.1022 11 18.5001 11C18.8979 11 19.2794 11.158 19.5607 11.4393C19.842 11.7206 20.0001 12.1022 20.0001 12.5V15C20.0001 15.2652 20.1054 15.5196 20.293 15.7071C20.4805 15.8946 20.7348 16 21.0001 16C21.2653 16 21.5196 15.8946 21.7072 15.7071C21.8947 15.5196 22.0001 15.2652 22.0001 15V14.5C22.0001 14.1022 22.1581 13.7206 22.4394 13.4393C22.7207 13.158 23.1022 13 23.5001 13C23.8979 13 24.2794 13.158 24.5607 13.4393C24.842 13.7206 25.0001 14.1022 25.0001 14.5V19Z" fill="#4A4A4F"/>
</svg>
