<svg width="32" height="32" viewBox="0 0 32 32" fill="none" xmlns="http://www.w3.org/2000/svg">
<path d="M26 16.0001V22.3663C26 25.5651 24.94 27.3576 24.895 27.4476C24.8119 27.6137 24.6841 27.7534 24.526 27.851C24.3679 27.9486 24.1858 28.0002 24 28.0001H7.00002C6.82569 28.0001 6.65438 27.9545 6.50309 27.8679C6.3518 27.7813 6.22577 27.6567 6.13752 27.5063L2.26877 20.0001C2.13329 19.7656 2.04684 19.506 2.01466 19.2372C1.98248 18.9683 2.00524 18.6956 2.08157 18.4358C2.15789 18.176 2.28618 17.9344 2.45867 17.7256C2.63116 17.5168 2.84425 17.3453 3.08502 17.2213C4.04252 16.7213 5.22252 17.1163 5.76002 18.0488L8.38502 22.6038C8.45803 22.735 8.56818 22.8416 8.70162 22.9103C8.83507 22.9791 8.98585 23.0068 9.13502 22.9901H9.15002C9.39023 22.9487 9.6078 22.823 9.76361 22.6356C9.91943 22.4482 10.0033 22.2113 10 21.9676V7.00007C9.9997 6.72912 10.0544 6.46094 10.1609 6.2118C10.2674 5.96265 10.4234 5.73774 10.6194 5.55071C10.8154 5.36367 11.0474 5.21842 11.3013 5.12377C11.5552 5.02911 11.8256 4.98703 12.0963 5.00007C13.1725 5.05007 14 5.97757 14 7.05382V16.0001C13.9997 16.1372 14.0276 16.2728 14.082 16.3987C14.1363 16.5246 14.2159 16.6379 14.3159 16.7317C14.4159 16.8254 14.5341 16.8977 14.6632 16.9438C14.7923 16.99 14.9295 17.0092 15.0663 17.0001C15.3234 16.978 15.5627 16.8593 15.7359 16.668C15.9091 16.4767 16.0035 16.2269 16 15.9688V14.0001C15.9997 13.7291 16.0544 13.4609 16.1609 13.2118C16.2674 12.9627 16.4234 12.7377 16.6194 12.5507C16.8154 12.3637 17.0474 12.2184 17.3013 12.1238C17.5552 12.0291 17.8256 11.987 18.0963 12.0001C19.1725 12.0501 20 12.9776 20 14.0538V17.0001C19.9997 17.1372 20.0276 17.2728 20.082 17.3987C20.1363 17.5246 20.2159 17.6379 20.3159 17.7317C20.4159 17.8254 20.5341 17.8977 20.6632 17.9438C20.7923 17.99 20.9295 18.0092 21.0663 18.0001C21.3233 17.9777 21.5624 17.859 21.7356 17.6677C21.9087 17.4765 22.0032 17.2268 22 16.9688V16.0588C22 14.9826 22.8275 14.0588 23.9038 14.0051C24.174 13.992 24.444 14.034 24.6976 14.1283C24.9511 14.2227 25.1828 14.3675 25.3788 14.554C25.5748 14.7405 25.7309 14.9648 25.8376 15.2134C25.9444 15.4619 25.9997 15.7295 26 16.0001ZM30.7075 6.29257L26.7075 2.29257C26.5199 2.10493 26.2654 1.99951 26 1.99951C25.7347 1.99951 25.4802 2.10493 25.2925 2.29257C25.1049 2.48021 24.9995 2.7347 24.9995 3.00007C24.9995 3.26543 25.1049 3.51993 25.2925 3.70757L27.5863 6.00007H21C20.7348 6.00007 20.4804 6.10542 20.2929 6.29296C20.1054 6.4805 20 6.73485 20 7.00007C20 7.26528 20.1054 7.51964 20.2929 7.70717C20.4804 7.89471 20.7348 8.00007 21 8.00007H27.5863L25.2925 10.2926C25.1049 10.4802 24.9995 10.7347 24.9995 11.0001C24.9995 11.2654 25.1049 11.5199 25.2925 11.7076C25.4802 11.8952 25.7347 12.0006 26 12.0006C26.2654 12.0006 26.5199 11.8952 26.7075 11.7076L30.7075 7.70757C30.8005 7.61469 30.8743 7.50441 30.9246 7.38301C30.9749 7.26161 31.0008 7.13148 31.0008 7.00007C31.0008 6.86865 30.9749 6.73853 30.9246 6.61713C30.8743 6.49573 30.8005 6.38544 30.7075 6.29257Z" fill="#4A4A4F"/>
</svg>
