<svg width="32" height="32" viewBox="0 0 32 32" fill="none" xmlns="http://www.w3.org/2000/svg">
<path d="M29.9861 24.765L28.2036 9.765C28.1458 9.27627 27.9098 8.82602 27.5408 8.50039C27.1718 8.17475 26.6957 7.99659 26.2036 8H21.9998C21.9998 6.4087 21.3677 4.88258 20.2425 3.75736C19.1173 2.63214 17.5911 2 15.9998 2C14.4085 2 12.8824 2.63214 11.7572 3.75736C10.632 4.88258 9.99984 6.4087 9.99984 8H5.79109C5.29897 7.99659 4.82287 8.17475 4.45388 8.50039C4.08488 8.82602 3.84891 9.27627 3.79109 9.765L2.00859 24.765C1.97593 25.045 2.00281 25.3287 2.08747 25.5975C2.17213 25.8664 2.31266 26.1143 2.49984 26.325C2.68838 26.5366 2.91942 26.7061 3.17788 26.8224C3.43634 26.9387 3.71642 26.9992 3.99984 27H27.9898C28.275 27.0006 28.557 26.9408 28.8172 26.8245C29.0775 26.7081 29.3102 26.5379 29.4998 26.325C29.6861 26.1139 29.8258 25.8658 29.9096 25.5969C29.9933 25.3281 30.0194 25.0446 29.9861 24.765ZM11.9998 13C11.9998 13.2652 11.8945 13.5196 11.707 13.7071C11.5194 13.8946 11.2651 14 10.9998 14C10.7346 14 10.4803 13.8946 10.2927 13.7071C10.1052 13.5196 9.99984 13.2652 9.99984 13V11C9.99984 10.7348 10.1052 10.4804 10.2927 10.2929C10.4803 10.1054 10.7346 10 10.9998 10C11.2651 10 11.5194 10.1054 11.707 10.2929C11.8945 10.4804 11.9998 10.7348 11.9998 11V13ZM15.9998 4C17.0607 4 18.0781 4.42143 18.8283 5.17157C19.5784 5.92172 19.9998 6.93913 19.9998 8H11.9998C11.9998 6.93913 12.4213 5.92172 13.1714 5.17157C13.9216 4.42143 14.939 4 15.9998 4ZM21.9998 13C21.9998 13.2652 21.8945 13.5196 21.707 13.7071C21.5194 13.8946 21.2651 14 20.9998 14C20.7346 14 20.4803 13.8946 20.2927 13.7071C20.1052 13.5196 19.9998 13.2652 19.9998 13V11C19.9998 10.7348 20.1052 10.4804 20.2927 10.2929C20.4803 10.1054 20.7346 10 20.9998 10C21.2651 10 21.5194 10.1054 21.707 10.2929C21.8945 10.4804 21.9998 10.7348 21.9998 11V13Z" fill="#4A4A4F"/>
</svg>
