<svg width="32" height="32" viewBox="0 0 32 32" fill="none" xmlns="http://www.w3.org/2000/svg">
<path d="M23.5 10.9999C22.981 10.9992 22.4684 11.1149 22 11.3387V7.49991C21.9998 6.89338 21.8421 6.2973 21.5422 5.77011C21.2422 5.24292 20.8105 4.80272 20.2892 4.49267C19.7679 4.18261 19.175 4.01335 18.5685 4.00147C17.9621 3.98959 17.363 4.13551 16.83 4.42491C16.5734 3.63189 16.0422 2.95648 15.332 2.5202C14.6218 2.08392 13.7792 1.91542 12.9558 2.04501C12.1325 2.17461 11.3824 2.59379 10.8405 3.22713C10.2986 3.86047 10.0006 4.6664 10 5.49991V6.33866C9.53164 6.11494 9.01905 5.99918 8.5 5.99991C7.57174 5.99991 6.6815 6.36866 6.02513 7.02504C5.36875 7.68141 5 8.57165 5 9.49991V18.9999C5 21.9173 6.15893 24.7152 8.22183 26.7781C10.2847 28.841 13.0826 29.9999 16 29.9999C18.9174 29.9999 21.7153 28.841 23.7782 26.7781C25.8411 24.7152 27 21.9173 27 18.9999V14.4999C27 13.5717 26.6313 12.6814 25.9749 12.025C25.3185 11.3687 24.4283 10.9999 23.5 10.9999ZM25 18.9999C25 21.3869 24.0518 23.676 22.364 25.3639C20.6761 27.0517 18.3869 27.9999 16 27.9999C13.6131 27.9999 11.3239 27.0517 9.63604 25.3639C7.94821 23.676 7 21.3869 7 18.9999V9.49991C7 9.10208 7.15804 8.72055 7.43934 8.43925C7.72064 8.15794 8.10218 7.99991 8.5 7.99991C8.89782 7.99991 9.27936 8.15794 9.56066 8.43925C9.84196 8.72055 10 9.10208 10 9.49991V14.9999C10 15.2651 10.1054 15.5195 10.2929 15.707C10.4804 15.8946 10.7348 15.9999 11 15.9999C11.2652 15.9999 11.5196 15.8946 11.7071 15.707C11.8946 15.5195 12 15.2651 12 14.9999V5.49991C12 5.10208 12.158 4.72055 12.4393 4.43925C12.7206 4.15794 13.1022 3.99991 13.5 3.99991C13.8978 3.99991 14.2794 4.15794 14.5607 4.43925C14.842 4.72055 15 5.10208 15 5.49991V13.9999C15 14.2651 15.1054 14.5195 15.2929 14.707C15.4804 14.8946 15.7348 14.9999 16 14.9999C16.2652 14.9999 16.5196 14.8946 16.7071 14.707C16.8946 14.5195 17 14.2651 17 13.9999V7.49991C17 7.10208 17.158 6.72055 17.4393 6.43925C17.7206 6.15794 18.1022 5.99991 18.5 5.99991C18.8978 5.99991 19.2794 6.15794 19.5607 6.43925C19.842 6.72055 20 7.10208 20 7.49991V16.0837C18.6027 16.3219 17.3346 17.0462 16.4197 18.1288C15.5048 19.2114 15.002 20.5825 15 21.9999C15 22.2651 15.1054 22.5195 15.2929 22.707C15.4804 22.8946 15.7348 22.9999 16 22.9999C16.2652 22.9999 16.5196 22.8946 16.7071 22.707C16.8946 22.5195 17 22.2651 17 21.9999C17 20.939 17.4214 19.9216 18.1716 19.1715C18.9217 18.4213 19.9391 17.9999 21 17.9999C21.2652 17.9999 21.5196 17.8946 21.7071 17.707C21.8946 17.5195 22 17.2651 22 16.9999V14.4999C22 14.1021 22.158 13.7206 22.4393 13.4392C22.7206 13.1579 23.1022 12.9999 23.5 12.9999C23.8978 12.9999 24.2794 13.1579 24.5607 13.4392C24.842 13.7206 25 14.1021 25 14.4999V18.9999Z" fill="#4A4A4F"/>
</svg>
