<svg width="32" height="32" viewBox="0 0 32 32" fill="none" xmlns="http://www.w3.org/2000/svg">
<path d="M16.0112 7.17252C16.0673 6.39647 16.3236 5.64821 16.7551 5.00077C17.1866 4.35334 17.7787 3.82886 18.4734 3.47853C19.1682 3.1282 19.9419 2.96399 20.719 3.00194C21.4962 3.03988 22.2502 3.27868 22.9075 3.69502C22.9827 3.74419 23.0432 3.8127 23.0827 3.89334C23.1222 3.97398 23.1393 4.06377 23.1322 4.1533C23.125 4.24282 23.0938 4.32876 23.042 4.40209C22.9902 4.47541 22.9195 4.53343 22.8375 4.57002C21.6949 5.08411 20.7249 5.91714 20.0442 6.96906C19.3634 8.02098 19.0009 9.24706 19 10.5C19 10.6463 19 10.7925 19.015 10.9363C19.0219 11.0271 19.0038 11.1181 18.9627 11.1995C18.9217 11.2808 18.8591 11.3494 18.7819 11.3978C18.7047 11.4462 18.6158 11.4725 18.5247 11.474C18.4335 11.4755 18.3438 11.4521 18.265 11.4063C17.5283 10.9849 16.9258 10.3638 16.5271 9.61468C16.1283 8.86556 15.9495 8.01893 16.0112 7.17252ZM30 20.0763C30.0018 20.6477 29.8435 21.2082 29.543 21.6942C29.2426 22.1803 28.8119 22.5724 28.3 22.8263L28.245 22.8513L23.3913 24.9188C23.3433 24.9399 23.2935 24.9566 23.2425 24.9688L15.2425 26.9688C15.1633 26.9892 15.0818 26.9997 15 27H2C1.46957 27 0.960859 26.7893 0.585786 26.4142C0.210714 26.0392 0 25.5305 0 25V20C0 19.4696 0.210714 18.9609 0.585786 18.5858C0.960859 18.2107 1.46957 18 2 18H5.58625L8.41375 15.1713C8.78451 14.7989 9.22539 14.5036 9.71092 14.3026C10.1964 14.1015 10.717 13.9987 11.2425 14H17.5C18.0282 14 18.5496 14.1195 19.0251 14.3496C19.5005 14.5797 19.9177 14.9144 20.2454 15.3287C20.5731 15.743 20.8028 16.226 20.9172 16.7417C21.0317 17.2574 21.0279 17.7923 20.9062 18.3063L26.1362 17.1038C26.5915 16.9832 27.0685 16.9688 27.5302 17.0616C27.992 17.1545 28.4262 17.3521 28.7995 17.6393C29.1728 17.9265 29.4752 18.2956 29.6833 18.7181C29.8915 19.1406 29.9998 19.6053 30 20.0763ZM28 20.0763C27.9998 19.9109 27.9616 19.7478 27.8882 19.5997C27.8148 19.4515 27.7083 19.3222 27.5769 19.2219C27.4455 19.1215 27.2927 19.0528 27.1305 19.0211C26.9682 18.9893 26.8008 18.9954 26.6413 19.0388L26.6025 19.0488L18.2275 20.975C18.154 20.9914 18.079 20.9998 18.0037 21H14C13.7348 21 13.4804 20.8947 13.2929 20.7071C13.1054 20.5196 13 20.2652 13 20C13 19.7348 13.1054 19.4805 13.2929 19.2929C13.4804 19.1054 13.7348 19 14 19H17.5C17.8978 19 18.2794 18.842 18.5607 18.5607C18.842 18.2794 19 17.8978 19 17.5C19 17.1022 18.842 16.7207 18.5607 16.4394C18.2794 16.1581 17.8978 16 17.5 16H11.2425C10.9798 15.9992 10.7195 16.0506 10.4768 16.1512C10.2341 16.2519 10.0138 16.3997 9.82875 16.5863L7 19.4138V25H14.875L22.6787 23.0488L27.4287 21.0263C27.6016 20.9352 27.7463 20.7985 27.847 20.631C27.9477 20.4635 28.0006 20.2717 28 20.0763ZM21 10.5C21 11.39 21.2639 12.2601 21.7584 13.0001C22.2529 13.7401 22.9557 14.3169 23.7779 14.6575C24.6002 14.9981 25.505 15.0872 26.3779 14.9136C27.2508 14.7399 28.0526 14.3113 28.682 13.682C29.3113 13.0527 29.7399 12.2508 29.9135 11.3779C30.0872 10.505 29.9981 9.60022 29.6575 8.77795C29.3169 7.95568 28.7401 7.25288 28.0001 6.75841C27.26 6.26394 26.39 6.00002 25.5 6.00002C24.3065 6.00002 23.1619 6.47413 22.318 7.31804C21.4741 8.16196 21 9.30655 21 10.5Z" fill="#4A4A4F"/>
</svg>
