<svg width="32" height="32" viewBox="0 0 32 32" fill="none" xmlns="http://www.w3.org/2000/svg">
<path d="M14.97 27.2426C14.9159 27.459 14.7911 27.651 14.6154 27.7883C14.4396 27.9255 14.223 28.0001 14 28.0001C13.9158 28.0005 13.8318 27.9905 13.75 27.9701L9.75002 26.9701C9.63866 26.9422 9.53295 26.8952 9.43752 26.8314L6.43752 24.8314C6.21689 24.6842 6.06377 24.4554 6.01185 24.1953C5.95992 23.9352 6.01345 23.6651 6.16064 23.4445C6.30784 23.2239 6.53665 23.0708 6.79674 23.0188C7.05683 22.9669 7.32689 23.0204 7.54752 23.1676L10.4025 25.0714L14.235 26.0301C14.3631 26.0612 14.4837 26.1172 14.59 26.195C14.6964 26.2729 14.7863 26.3709 14.8546 26.4836C14.9229 26.5963 14.9682 26.7213 14.988 26.8516C15.0078 26.9819 15.0017 27.1148 14.97 27.2426ZM31.5563 15.1851C31.4742 15.4344 31.3436 15.6649 31.172 15.8633C31.0003 16.0618 30.7911 16.2243 30.5563 16.3414L27.5963 17.8214L20.7113 24.7076C20.5891 24.8297 20.4373 24.9181 20.2709 24.9641C20.1044 25.0101 19.9288 25.0122 19.7613 24.9701L11.7613 22.9701C11.6396 22.9396 11.5247 22.8866 11.4225 22.8139L4.48252 17.8589L1.44752 16.3414C0.973187 16.1043 0.612444 15.6885 0.444609 15.1854C0.276774 14.6824 0.315588 14.1333 0.552517 13.6589L3.65877 7.44764C3.89588 6.97331 4.31167 6.61256 4.81471 6.44473C5.31774 6.27689 5.86684 6.31571 6.34127 6.55264L9.09877 7.92764L15.7238 6.03514C15.9035 5.98373 16.094 5.98373 16.2738 6.03514L22.8988 7.92764L25.6563 6.55264C26.1307 6.31571 26.6798 6.27689 27.1828 6.44473C27.6859 6.61256 28.1017 6.97331 28.3388 7.44764L31.445 13.6589C31.5635 13.8933 31.6343 14.1489 31.6534 14.4109C31.6725 14.6728 31.6395 14.936 31.5563 15.1851ZM25.7838 16.8026L22.3825 10.0001H18.405L13 15.2501C14.5825 16.2614 17.0638 16.5401 19.29 14.2964C19.4639 14.1211 19.6964 14.0164 19.9429 14.0023C20.1894 13.9882 20.4323 14.0658 20.625 14.2201L24.9263 17.6664L25.7838 16.8026ZM2.34127 14.5526L4.55252 15.6589L7.65877 9.44764L5.44752 8.34139L2.34127 14.5526ZM23.5 19.0826L20.0363 16.3089C17.5938 18.3089 14.4925 18.5726 11.9225 16.9339C11.6697 16.7731 11.4563 16.5575 11.298 16.3031C11.1396 16.0488 11.0405 15.7621 11.0079 15.4642C10.9752 15.1664 11.0099 14.8651 11.1094 14.5824C11.2088 14.2998 11.3705 14.0431 11.5825 13.8314C11.5855 13.8277 11.5889 13.8244 11.5925 13.8214L17.2 8.38264L16 8.04014L9.69752 9.84139L6.27627 16.6826L12.4263 21.0764L19.6938 22.8926L23.5 19.0826ZM29.655 14.5526L26.5525 8.34139L24.3413 9.44764L27.4475 15.6589L29.655 14.5526Z" fill="#4A4A4F"/>
</svg>
