<svg width="32" height="32" viewBox="0 0 32 32" fill="none" xmlns="http://www.w3.org/2000/svg">
<path d="M28 8H4C3.46957 8 2.96086 8.21071 2.58579 8.58579C2.21071 8.96086 2 9.46957 2 10V22C2 22.5304 2.21071 23.0391 2.58579 23.4142C2.96086 23.7893 3.46957 24 4 24H28C28.5304 24 29.0391 23.7893 29.4142 23.4142C29.7893 23.0391 30 22.5304 30 22V10C30 9.46957 29.7893 8.96086 29.4142 8.58579C29.0391 8.21071 28.5304 8 28 8ZM23.5 17.5C23.2033 17.5 22.9133 17.412 22.6666 17.2472C22.42 17.0824 22.2277 16.8481 22.1142 16.574C22.0007 16.2999 21.9709 15.9983 22.0288 15.7074C22.0867 15.4164 22.2296 15.1491 22.4393 14.9393C22.6491 14.7296 22.9164 14.5867 23.2074 14.5288C23.4983 14.4709 23.7999 14.5006 24.074 14.6142C24.3481 14.7277 24.5824 14.92 24.7472 15.1666C24.912 15.4133 25 15.7033 25 16C25 16.3978 24.842 16.7794 24.5607 17.0607C24.2794 17.342 23.8978 17.5 23.5 17.5Z" fill="#4A4A4F"/>
</svg>
