<svg width="32" height="32" viewBox="0 0 32 32" fill="none" xmlns="http://www.w3.org/2000/svg">
<path d="M26 17H6C5.46957 17 4.96086 17.2107 4.58579 17.5858C4.21071 17.9609 4 18.4696 4 19V25C4 25.5304 4.21071 26.0391 4.58579 26.4142C4.96086 26.7893 5.46957 27 6 27H26C26.5304 27 27.0391 26.7893 27.4142 26.4142C27.7893 26.0391 28 25.5304 28 25V19C28 18.4696 27.7893 17.9609 27.4142 17.5858C27.0391 17.2107 26.5304 17 26 17ZM26 25H6V19H26V25ZM26 5H6C5.46957 5 4.96086 5.21071 4.58579 5.58579C4.21071 5.96086 4 6.46957 4 7V13C4 13.5304 4.21071 14.0391 4.58579 14.4142C4.96086 14.7893 5.46957 15 6 15H26C26.5304 15 27.0391 14.7893 27.4142 14.4142C27.7893 14.0391 28 13.5304 28 13V7C28 6.46957 27.7893 5.96086 27.4142 5.58579C27.0391 5.21071 26.5304 5 26 5ZM26 13H6V7H26V13ZM24 10C24 10.2967 23.912 10.5867 23.7472 10.8334C23.5824 11.08 23.3481 11.2723 23.074 11.3858C22.7999 11.4994 22.4983 11.5291 22.2074 11.4712C21.9164 11.4133 21.6491 11.2704 21.4393 11.0607C21.2296 10.8509 21.0867 10.5836 21.0288 10.2926C20.9709 10.0017 21.0007 9.70006 21.1142 9.42597C21.2277 9.15189 21.42 8.91762 21.6666 8.7528C21.9133 8.58797 22.2033 8.5 22.5 8.5C22.8978 8.5 23.2794 8.65804 23.5607 8.93934C23.842 9.22064 24 9.60218 24 10ZM24 22C24 22.2967 23.912 22.5867 23.7472 22.8334C23.5824 23.08 23.3481 23.2723 23.074 23.3858C22.7999 23.4993 22.4983 23.5291 22.2074 23.4712C21.9164 23.4133 21.6491 23.2704 21.4393 23.0607C21.2296 22.8509 21.0867 22.5836 21.0288 22.2926C20.9709 22.0017 21.0007 21.7001 21.1142 21.426C21.2277 21.1519 21.42 20.9176 21.6666 20.7528C21.9133 20.588 22.2033 20.5 22.5 20.5C22.8978 20.5 23.2794 20.658 23.5607 20.9393C23.842 21.2206 24 21.6022 24 22Z" fill="#4A4A4F"/>
</svg>
