<svg width="32" height="32" viewBox="0 0 32 32" fill="none" xmlns="http://www.w3.org/2000/svg">
<path d="M14 14H18V18H14V14ZM28 6V26C28 26.5304 27.7893 27.0391 27.4142 27.4142C27.0391 27.7893 26.5304 28 26 28H6C5.46957 28 4.96086 27.7893 4.58579 27.4142C4.21071 27.0391 4 26.5304 4 26V6C4 5.46957 4.21071 4.96086 4.58579 4.58579C4.96086 4.21071 5.46957 4 6 4H26C26.5304 4 27.0391 4.21071 27.4142 4.58579C27.7893 4.96086 28 5.46957 28 6ZM20 18V14H24C24.2652 14 24.5196 13.8946 24.7071 13.7071C24.8946 13.5196 25 13.2652 25 13C25 12.7348 24.8946 12.4804 24.7071 12.2929C24.5196 12.1054 24.2652 12 24 12H20V8C20 7.73478 19.8946 7.48043 19.7071 7.29289C19.5196 7.10536 19.2652 7 19 7C18.7348 7 18.4804 7.10536 18.2929 7.29289C18.1054 7.48043 18 7.73478 18 8V12H14V8C14 7.73478 13.8946 7.48043 13.7071 7.29289C13.5196 7.10536 13.2652 7 13 7C12.7348 7 12.4804 7.10536 12.2929 7.29289C12.1054 7.48043 12 7.73478 12 8V12H8C7.73478 12 7.48043 12.1054 7.29289 12.2929C7.10536 12.4804 7 12.7348 7 13C7 13.2652 7.10536 13.5196 7.29289 13.7071C7.48043 13.8946 7.73478 14 8 14H12V18H8C7.73478 18 7.48043 18.1054 7.29289 18.2929C7.10536 18.4804 7 18.7348 7 19C7 19.2652 7.10536 19.5196 7.29289 19.7071C7.48043 19.8946 7.73478 20 8 20H12V24C12 24.2652 12.1054 24.5196 12.2929 24.7071C12.4804 24.8946 12.7348 25 13 25C13.2652 25 13.5196 24.8946 13.7071 24.7071C13.8946 24.5196 14 24.2652 14 24V20H18V24C18 24.2652 18.1054 24.5196 18.2929 24.7071C18.4804 24.8946 18.7348 25 19 25C19.2652 25 19.5196 24.8946 19.7071 24.7071C19.8946 24.5196 20 24.2652 20 24V20H24C24.2652 20 24.5196 19.8946 24.7071 19.7071C24.8946 19.5196 25 19.2652 25 19C25 18.7348 24.8946 18.4804 24.7071 18.2929C24.5196 18.1054 24.2652 18 24 18H20Z" fill="#4A4A4F"/>
</svg>
