<svg width="32" height="32" viewBox="0 0 32 32" fill="none" xmlns="http://www.w3.org/2000/svg">
<path d="M14.5312 14H18.4688L17.4688 18H13.5312L14.5312 14ZM28 6V26C28 26.5304 27.7893 27.0391 27.4142 27.4142C27.0391 27.7893 26.5304 28 26 28H6C5.46957 28 4.96086 27.7893 4.58579 27.4142C4.21071 27.0391 4 26.5304 4 26V6C4 5.46957 4.21071 4.96086 4.58579 4.58579C4.96086 4.21071 5.46957 4 6 4H26C26.5304 4 27.0391 4.21071 27.4142 4.58579C27.7893 4.96086 28 5.46957 28 6ZM26 13C26 12.7348 25.8946 12.4804 25.7071 12.2929C25.5196 12.1054 25.2652 12 25 12H21.0312L21.97 8.2425C22.0292 7.98703 21.9857 7.71851 21.8489 7.4948C21.712 7.27109 21.4928 7.11009 21.2384 7.04648C20.984 6.98288 20.7147 7.02176 20.4887 7.15476C20.2627 7.28775 20.098 7.50421 20.03 7.7575L18.9688 12H15.0312L15.97 8.2425C16.0292 7.98703 15.9857 7.71851 15.8489 7.4948C15.712 7.27109 15.4928 7.11009 15.2384 7.04648C14.984 6.98288 14.7147 7.02176 14.4887 7.15476C14.2627 7.28775 14.098 7.50421 14.03 7.7575L12.9688 12H8C7.73478 12 7.48043 12.1054 7.29289 12.2929C7.10536 12.4804 7 12.7348 7 13C7 13.2652 7.10536 13.5196 7.29289 13.7071C7.48043 13.8946 7.73478 14 8 14H12.4688L11.4688 18H7C6.73478 18 6.48043 18.1054 6.29289 18.2929C6.10536 18.4804 6 18.7348 6 19C6 19.2652 6.10536 19.5196 6.29289 19.7071C6.48043 19.8946 6.73478 20 7 20H10.9688L10.03 23.7575C9.96573 24.0148 10.0063 24.287 10.1427 24.5144C10.2791 24.7418 10.5003 24.9056 10.7575 24.97C10.8393 24.9903 10.9232 25.0004 11.0075 25C11.2303 24.9997 11.4466 24.925 11.6221 24.7878C11.7976 24.6505 11.9222 24.4586 11.9762 24.2425L13.0312 20H16.9688L16.03 23.7575C15.9657 24.0148 16.0063 24.287 16.1427 24.5144C16.2791 24.7418 16.5003 24.9056 16.7575 24.97C16.8368 24.9897 16.9183 24.9998 17 25C17.2228 24.9997 17.4391 24.925 17.6146 24.7878C17.7901 24.6505 17.9147 24.4586 17.9688 24.2425L19.0312 20H24C24.2652 20 24.5196 19.8946 24.7071 19.7071C24.8946 19.5196 25 19.2652 25 19C25 18.7348 24.8946 18.4804 24.7071 18.2929C24.5196 18.1054 24.2652 18 24 18H19.5312L20.5312 14H25C25.2652 14 25.5196 13.8946 25.7071 13.7071C25.8946 13.5196 26 13.2652 26 13Z" fill="#4A4A4F"/>
</svg>
