<svg width="32" height="32" viewBox="0 0 32 32" fill="none" xmlns="http://www.w3.org/2000/svg">
<path d="M28 11H21.925L22.9837 5.17876C23.0263 4.91994 22.9654 4.65477 22.8143 4.44039C22.6631 4.22602 22.4338 4.07961 22.1758 4.03272C21.9177 3.98582 21.6515 4.0422 21.4346 4.18971C21.2177 4.33721 21.0675 4.56402 21.0163 4.82126L19.8913 11H13.925L14.9838 5.17876C15.0263 4.91994 14.9654 4.65477 14.8143 4.44039C14.6631 4.22602 14.4338 4.07961 14.1758 4.03272C13.9177 3.98582 13.6515 4.0422 13.4346 4.18971C13.2177 4.33721 13.0675 4.56402 13.0162 4.82126L11.8925 11H6C5.73478 11 5.48043 11.1054 5.29289 11.2929C5.10536 11.4804 5 11.7348 5 12C5 12.2652 5.10536 12.5196 5.29289 12.7071C5.48043 12.8947 5.73478 13 6 13H11.5288L10.4375 19H4C3.73478 19 3.48043 19.1054 3.29289 19.2929C3.10536 19.4804 3 19.7348 3 20C3 20.2652 3.10536 20.5196 3.29289 20.7071C3.48043 20.8947 3.73478 21 4 21H10.075L9.01625 26.8213C8.96888 27.0822 9.02708 27.3512 9.17804 27.5692C9.329 27.7872 9.56036 27.9363 9.82125 27.9838C9.88021 27.9947 9.94004 28.0001 10 28C10.234 27.9997 10.4604 27.9173 10.6399 27.7673C10.8195 27.6172 10.9407 27.409 10.9825 27.1788L12.1075 21H18.075L17.0163 26.8213C16.9689 27.0822 17.0271 27.3512 17.178 27.5692C17.329 27.7872 17.5604 27.9363 17.8213 27.9838C17.8802 27.9947 17.94 28.0001 18 28C18.234 27.9997 18.4604 27.9173 18.6399 27.7673C18.8195 27.6172 18.9407 27.409 18.9825 27.1788L20.1075 21H26C26.2652 21 26.5196 20.8947 26.7071 20.7071C26.8946 20.5196 27 20.2652 27 20C27 19.7348 26.8946 19.4804 26.7071 19.2929C26.5196 19.1054 26.2652 19 26 19H20.4713L21.5625 13H28C28.2652 13 28.5196 12.8947 28.7071 12.7071C28.8946 12.5196 29 12.2652 29 12C29 11.7348 28.8946 11.4804 28.7071 11.2929C28.5196 11.1054 28.2652 11 28 11ZM18.4375 19H12.4712L13.5625 13H19.5287L18.4375 19Z" fill="#4A4A4F"/>
</svg>
