<svg width="32" height="32" viewBox="0 0 32 32" fill="none" xmlns="http://www.w3.org/2000/svg">
<path d="M19.9998 10C19.9998 9.73478 20.1052 9.48043 20.2927 9.29289C20.4802 9.10536 20.7346 9 20.9998 9H29.9998C30.265 9 30.5194 9.10536 30.7069 9.29289C30.8944 9.48043 30.9998 9.73478 30.9998 10C30.9998 10.2652 30.8944 10.5196 30.7069 10.7071C30.5194 10.8946 30.265 11 29.9998 11H20.9998C20.7346 11 20.4802 10.8946 20.2927 10.7071C20.1052 10.5196 19.9998 10.2652 19.9998 10ZM29.9998 21H20.9998C20.7346 21 20.4802 21.1054 20.2927 21.2929C20.1052 21.4804 19.9998 21.7348 19.9998 22C19.9998 22.2652 20.1052 22.5196 20.2927 22.7071C20.4802 22.8946 20.7346 23 20.9998 23H29.9998C30.265 23 30.5194 22.8946 30.7069 22.7071C30.8944 22.5196 30.9998 22.2652 30.9998 22C30.9998 21.7348 30.8944 21.4804 30.7069 21.2929C30.5194 21.1054 30.265 21 29.9998 21ZM29.9998 13H20.9998C20.7346 13 20.4802 13.1054 20.2927 13.2929C20.1052 13.4804 19.9998 13.7348 19.9998 14C19.9998 14.2652 20.1052 14.5196 20.2927 14.7071C20.4802 14.8946 20.7346 15 20.9998 15H29.9998C30.265 15 30.5194 14.8946 30.7069 14.7071C30.8944 14.5196 30.9998 14.2652 30.9998 14C30.9998 13.7348 30.8944 13.4804 30.7069 13.2929C30.5194 13.1054 30.265 13 29.9998 13ZM29.9998 17H20.9998C20.7346 17 20.4802 17.1054 20.2927 17.2929C20.1052 17.4804 19.9998 17.7348 19.9998 18C19.9998 18.2652 20.1052 18.5196 20.2927 18.7071C20.4802 18.8946 20.7346 19 20.9998 19H29.9998C30.265 19 30.5194 18.8946 30.7069 18.7071C30.8944 18.5196 30.9998 18.2652 30.9998 18C30.9998 17.7348 30.8944 17.4804 30.7069 17.2929C30.5194 17.1054 30.265 17 29.9998 17ZM15.9998 6H11.1123C5.5773 6 1.04105 10.4525 0.999802 15.9237C0.98974 17.2434 1.24097 18.5519 1.73901 19.774C2.23705 20.9961 2.97205 22.1075 3.90164 23.0442C4.83123 23.9808 5.93702 24.7243 7.15527 25.2316C8.37353 25.7389 9.68014 26 10.9998 26H15.9998C16.5302 26 17.0389 25.7893 17.414 25.4142C17.7891 25.0391 17.9998 24.5304 17.9998 24V8C17.9998 7.46957 17.7891 6.96086 17.414 6.58579C17.0389 6.21071 16.5302 6 15.9998 6Z" fill="#4A4A4F"/>
</svg>
