<svg width="32" height="32" viewBox="0 0 32 32" fill="none" xmlns="http://www.w3.org/2000/svg">
<path d="M19.9998 10C19.9998 9.73478 20.1052 9.48043 20.2927 9.29289C20.4802 9.10536 20.7346 9 20.9998 9H29.9998C30.265 9 30.5194 9.10536 30.7069 9.29289C30.8944 9.48043 30.9998 9.73478 30.9998 10C30.9998 10.2652 30.8944 10.5196 30.7069 10.7071C30.5194 10.8946 30.265 11 29.9998 11H20.9998C20.7346 11 20.4802 10.8946 20.2927 10.7071C20.1052 10.5196 19.9998 10.2652 19.9998 10ZM29.9998 21H20.9998C20.7346 21 20.4802 21.1054 20.2927 21.2929C20.1052 21.4804 19.9998 21.7348 19.9998 22C19.9998 22.2652 20.1052 22.5196 20.2927 22.7071C20.4802 22.8946 20.7346 23 20.9998 23H29.9998C30.265 23 30.5194 22.8946 30.7069 22.7071C30.8944 22.5196 30.9998 22.2652 30.9998 22C30.9998 21.7348 30.8944 21.4804 30.7069 21.2929C30.5194 21.1054 30.265 21 29.9998 21ZM29.9998 13H20.9998C20.7346 13 20.4802 13.1054 20.2927 13.2929C20.1052 13.4804 19.9998 13.7348 19.9998 14C19.9998 14.2652 20.1052 14.5196 20.2927 14.7071C20.4802 14.8946 20.7346 15 20.9998 15H29.9998C30.265 15 30.5194 14.8946 30.7069 14.7071C30.8944 14.5196 30.9998 14.2652 30.9998 14C30.9998 13.7348 30.8944 13.4804 30.7069 13.2929C30.5194 13.1054 30.265 13 29.9998 13ZM29.9998 17H20.9998C20.7346 17 20.4802 17.1054 20.2927 17.2929C20.1052 17.4804 19.9998 17.7348 19.9998 18C19.9998 18.2652 20.1052 18.5196 20.2927 18.7071C20.4802 18.8946 20.7346 19 20.9998 19H29.9998C30.265 19 30.5194 18.8946 30.7069 18.7071C30.8944 18.5196 30.9998 18.2652 30.9998 18C30.9998 17.7348 30.8944 17.4804 30.7069 17.2929C30.5194 17.1054 30.265 17 29.9998 17ZM17.9998 8V24C17.9998 24.5304 17.7891 25.0391 17.414 25.4142C17.0389 25.7893 16.5302 26 15.9998 26H10.9998C9.68014 26 8.37353 25.7389 7.15527 25.2316C5.93702 24.7243 4.83123 23.9808 3.90164 23.0442C2.97205 22.1075 2.23705 20.9961 1.73901 19.774C1.24097 18.5519 0.98974 17.2434 0.999802 15.9237C1.04105 10.4525 5.5773 6 11.1123 6H15.9998C16.5302 6 17.0389 6.21071 17.414 6.58579C17.7891 6.96086 17.9998 7.46957 17.9998 8ZM15.9998 8H11.1123C6.6723 8 3.0323 11.5613 2.9998 15.9388C2.99172 16.9945 3.19268 18.0413 3.5911 19.019C3.98951 19.9967 4.57751 20.8859 5.32118 21.6352C6.06486 22.3846 6.9495 22.9794 7.92412 23.3852C8.89874 23.7911 9.94405 24 10.9998 24H15.9998V8Z" fill="#4A4A4F"/>
</svg>
