<svg width="32" height="32" viewBox="0 0 32 32" fill="none" xmlns="http://www.w3.org/2000/svg">
<path d="M25.2362 7.8325C24.04 6.62422 22.6172 5.66377 21.0492 5.00613C19.4813 4.3485 17.799 4.00659 16.0987 4H16C12.5522 4 9.24558 5.36964 6.80761 7.80761C4.36964 10.2456 3 13.5522 3 17V24C3 24.7956 3.31607 25.5587 3.87868 26.1213C4.44129 26.6839 5.20435 27 6 27H8C8.79565 27 9.55871 26.6839 10.1213 26.1213C10.6839 25.5587 11 24.7956 11 24V19C11 18.2044 10.6839 17.4413 10.1213 16.8787C9.55871 16.3161 8.79565 16 8 16H5.045C5.29449 13.267 6.55656 10.726 8.58346 8.87578C10.6103 7.02558 13.2556 5.99986 16 6H16.0837C18.8167 6.01155 21.4468 7.04338 23.4585 8.89324C25.4702 10.7431 26.7185 13.2776 26.9587 16H24C23.2044 16 22.4413 16.3161 21.8787 16.8787C21.3161 17.4413 21 18.2044 21 19V24C21 24.7956 21.3161 25.5587 21.8787 26.1213C22.4413 26.6839 23.2044 27 24 27H26C26.7956 27 27.5587 26.6839 28.1213 26.1213C28.6839 25.5587 29 24.7956 29 24V17C29.0065 15.2995 28.6774 13.6144 28.0316 12.0412C27.3857 10.4681 26.4358 9.03788 25.2362 7.8325ZM8 18C8.26522 18 8.51957 18.1054 8.70711 18.2929C8.89464 18.4804 9 18.7348 9 19V24C9 24.2652 8.89464 24.5196 8.70711 24.7071C8.51957 24.8946 8.26522 25 8 25H6C5.73478 25 5.48043 24.8946 5.29289 24.7071C5.10536 24.5196 5 24.2652 5 24V18H8ZM27 24C27 24.2652 26.8946 24.5196 26.7071 24.7071C26.5196 24.8946 26.2652 25 26 25H24C23.7348 25 23.4804 24.8946 23.2929 24.7071C23.1054 24.5196 23 24.2652 23 24V19C23 18.7348 23.1054 18.4804 23.2929 18.2929C23.4804 18.1054 23.7348 18 24 18H27V24Z" fill="#4A4A4F"/>
</svg>
