<svg width="32" height="32" viewBox="0 0 32 32" fill="none" xmlns="http://www.w3.org/2000/svg">
<path d="M29 16.0001V26.0001C29 27.3262 28.4732 28.5979 27.5355 29.5356C26.5979 30.4733 25.3261 31.0001 24 31.0001H17C16.7348 31.0001 16.4804 30.8947 16.2929 30.7072C16.1054 30.5196 16 30.2653 16 30.0001C16 29.7349 16.1054 29.4805 16.2929 29.293C16.4804 29.1054 16.7348 29.0001 17 29.0001H24C24.7956 29.0001 25.5587 28.684 26.1213 28.1214C26.6839 27.5588 27 26.7957 27 26.0001H24C23.2044 26.0001 22.4413 25.684 21.8787 25.1214C21.3161 24.5588 21 23.7957 21 23.0001V18.0001C21 17.2044 21.3161 16.4414 21.8787 15.8788C22.4413 15.3161 23.2044 15.0001 24 15.0001H26.9562C26.767 12.9212 25.9902 10.9392 24.7165 9.28538C23.4428 7.63158 21.7248 6.37434 19.7633 5.66049C17.8017 4.94664 15.6775 4.80567 13.6388 5.25404C11.6001 5.7024 9.73107 6.7216 8.25 8.19258C6.40832 10.01 5.2724 12.4227 5.045 15.0001H8C8.79565 15.0001 9.55871 15.3161 10.1213 15.8788C10.6839 16.4414 11 17.2044 11 18.0001V23.0001C11 23.7957 10.6839 24.5588 10.1213 25.1214C9.55871 25.684 8.79565 26.0001 8 26.0001H6C5.20435 26.0001 4.44129 25.684 3.87868 25.1214C3.31607 24.5588 3 23.7957 3 23.0001V16.0001C3.0028 13.4249 3.76953 10.9085 5.20313 8.76936C6.63673 6.63018 8.67275 4.96441 11.0535 3.98289C13.4342 3.00136 16.0526 2.74822 18.5773 3.25549C21.102 3.76276 23.4194 5.00765 25.2362 6.83258C26.4358 8.03796 27.3857 9.46819 28.0316 11.0413C28.6774 12.6144 29.0065 14.2995 29 16.0001Z" fill="#4A4A4F"/>
</svg>
