<svg width="32" height="32" viewBox="0 0 32 32" fill="none" xmlns="http://www.w3.org/2000/svg">
<path d="M22.25 4.00003C21.2319 3.99731 20.2233 4.19653 19.2826 4.58618C18.342 4.97582 17.488 5.54814 16.77 6.27003L16 7.04003L15.23 6.27003C14.1461 5.1862 12.7652 4.44811 11.2619 4.14909C9.75858 3.85007 8.20033 4.00354 6.78422 4.59011C5.36812 5.17667 4.15774 6.16999 3.30616 7.44444C2.45458 8.71889 2.00003 10.2172 2 11.75C2 20.5 14.9738 27.5838 15.5262 27.875C15.6719 27.9534 15.8346 27.9944 16 27.9944C16.1654 27.9944 16.3281 27.9534 16.4737 27.875C17.0262 27.5838 30 20.5 30 11.75C29.9977 9.69531 29.1804 7.72541 27.7275 6.27251C26.2746 4.8196 24.3047 4.00234 22.25 4.00003ZM16 25.85C13.7175 24.52 4 18.4613 4 11.75C3.99985 10.6127 4.337 9.50082 4.9688 8.55509C5.60061 7.60937 6.4987 6.87226 7.54947 6.43699C8.60024 6.00172 9.75649 5.88785 10.872 6.10978C11.9875 6.33171 13.0121 6.87947 13.8162 7.68378L14.5863 8.45378L13.2925 9.75003C13.1051 9.93755 12.9998 10.1918 12.9998 10.4569C12.9998 10.722 13.1051 10.9763 13.2925 11.1638L16.3587 14.23L14.2925 16.295C14.1049 16.4827 13.9994 16.7372 13.9994 17.0025C13.9994 17.2679 14.1049 17.5224 14.2925 17.71C14.4801 17.8977 14.7346 18.0031 15 18.0031C15.2654 18.0031 15.5199 17.8977 15.7075 17.71L18.48 14.9363C18.6674 14.7488 18.7727 14.4945 18.7727 14.2294C18.7727 13.9643 18.6674 13.71 18.48 13.5225L15.4137 10.4538L18.1838 7.68378C18.9879 6.87947 20.0125 6.33171 21.128 6.10978C22.2435 5.88785 23.3998 6.00172 24.4505 6.43699C25.5013 6.87226 26.3994 7.60937 27.0312 8.55509C27.663 9.50082 28.0002 10.6127 28 11.75C28 18.4513 18.28 24.5188 16 25.85Z" fill="#4A4A4F"/>
</svg>
