<svg width="32" height="32" viewBox="0 0 32 32" fill="none" xmlns="http://www.w3.org/2000/svg">
<path d="M27.8751 7.12488C26.5149 5.76823 24.6727 5.00574 22.7516 5.00433C20.8305 5.00293 18.9872 5.76272 17.6251 7.11738L16.0001 8.68363L14.3751 7.11363C13.015 5.75439 11.1707 4.99111 9.24784 4.9917C7.32501 4.99229 5.48116 5.75669 4.12193 7.11675C2.7627 8.47682 1.99941 10.3211 2 12.244C2.00059 14.1668 2.76499 16.0106 4.12505 17.3699L15.2963 28.7024C15.3894 28.7969 15.5003 28.8719 15.6226 28.9231C15.7449 28.9743 15.8762 29.0007 16.0088 29.0007C16.1414 29.0007 16.2727 28.9743 16.395 28.9231C16.5173 28.8719 16.6283 28.7969 16.7213 28.7024L27.8751 17.3749C29.231 16.0139 29.9924 14.171 29.9924 12.2499C29.9924 10.3287 29.231 8.48585 27.8751 7.12488ZM26.4551 15.9699L16.0001 26.5749L5.5363 15.9599C4.55169 14.9751 3.9986 13.6395 3.99872 12.2469C3.99884 10.8544 4.55215 9.51887 5.53693 8.53425C6.52171 7.54964 7.8573 6.99655 9.24987 6.99667C10.6424 6.99679 11.9779 7.5501 12.9626 8.53488L12.9751 8.54738L14.5588 10.0711L13.3088 11.2774C13.213 11.3696 13.1366 11.4799 13.084 11.6019C13.0314 11.724 13.0036 11.8553 13.0023 11.9882C13.001 12.1212 13.0263 12.253 13.0765 12.376C13.1268 12.4991 13.2011 12.6109 13.2951 12.7049L16.5863 15.9999L15.2926 17.2936C15.1049 17.4813 14.9995 17.7358 14.9995 18.0011C14.9995 18.2665 15.1049 18.521 15.2926 18.7086C15.4802 18.8963 15.7347 19.0017 16.0001 19.0017C16.2654 19.0017 16.5199 18.8963 16.7076 18.7086L18.7076 16.7086C18.895 16.5211 19.0002 16.2669 19.0002 16.0018C19.0002 15.7367 18.895 15.4824 18.7076 15.2949L15.4276 12.0111L19.0251 8.54738L19.0388 8.53488C19.5267 8.04759 20.1057 7.66117 20.7429 7.39767C21.3801 7.13417 22.063 6.99876 22.7525 6.99917C23.4421 6.99957 24.1248 7.13579 24.7616 7.40004C25.3985 7.66429 25.9771 8.05139 26.4644 8.53925C26.9517 9.02711 27.3381 9.60618 27.6016 10.2434C27.8651 10.8806 28.0005 11.5634 28.0001 12.253C27.9997 12.9425 27.8635 13.6252 27.5993 14.2621C27.335 14.899 26.9479 15.4776 26.4601 15.9649L26.4551 15.9699Z" fill="#4A4A4F"/>
</svg>
