<svg width="32" height="32" viewBox="0 0 32 32" fill="none" xmlns="http://www.w3.org/2000/svg">
<path d="M27.8748 7.12502C26.5162 5.76984 24.6763 5.00775 22.7574 5.00541C20.8385 5.00307 18.9967 5.76066 17.6348 7.11252L15.9998 8.63127L14.3636 7.10752C13.002 5.74978 11.1569 4.98852 9.23404 4.99122C7.3112 4.99391 5.46819 5.76034 4.11045 7.1219C2.75271 8.48345 1.99145 10.3286 1.99415 12.2514C1.99684 14.1743 2.76327 16.0173 4.12483 17.375L15.2936 28.7075C15.3866 28.802 15.4975 28.877 15.6199 28.9283C15.7422 28.9795 15.8735 29.0058 16.0061 29.0058C16.1387 29.0058 16.27 28.9795 16.3923 28.9283C16.5146 28.877 16.6255 28.802 16.7186 28.7075L27.8748 17.375C29.2335 16.0155 29.9968 14.1721 29.9968 12.25C29.9968 10.3279 29.2335 8.48454 27.8748 7.12502ZM26.4561 15.97L15.9998 26.575L5.53733 15.96C4.55271 14.9754 3.99956 13.64 3.99956 12.2475C3.99956 10.8551 4.55271 9.51964 5.53733 8.53502C6.52194 7.55041 7.85737 6.99725 9.24983 6.99725C10.6423 6.99725 11.9777 7.55041 12.9623 8.53502L12.9873 8.56002L15.3186 10.7288C15.5036 10.901 15.747 10.9967 15.9998 10.9967C16.2526 10.9967 16.496 10.901 16.6811 10.7288L19.0123 8.56002L19.0373 8.53502C20.0226 7.55107 21.3584 6.99882 22.7509 6.99975C24.1433 7.00069 25.4784 7.55474 26.4623 8.54002C27.4463 9.5253 27.9985 10.8611 27.9976 12.2536C27.9967 13.646 27.4426 14.9811 26.4573 15.965L26.4561 15.97Z" fill="#4A4A4F"/>
</svg>
