<svg width="32" height="32" viewBox="0 0 32 32" fill="none" xmlns="http://www.w3.org/2000/svg">
<path d="M9 17H4C3.73478 17 3.48043 16.8946 3.29289 16.7071C3.10536 16.5196 3 16.2652 3 16C3 15.7348 3.10536 15.4804 3.29289 15.2929C3.48043 15.1054 3.73478 15 4 15H8.465L10.1675 12.445C10.2588 12.3078 10.3825 12.1953 10.5278 12.1175C10.673 12.0397 10.8352 11.999 11 11.999C11.1648 11.999 11.327 12.0397 11.4722 12.1175C11.6175 12.1953 11.7412 12.3078 11.8325 12.445L15 17.195L16.1675 15.445C16.2589 15.308 16.3827 15.1957 16.5279 15.1181C16.6732 15.0405 16.8353 14.9999 17 15H20C20.2652 15 20.5196 15.1054 20.7071 15.2929C20.8946 15.4804 21 15.7348 21 16C21 16.2652 20.8946 16.5196 20.7071 16.7071C20.5196 16.8946 20.2652 17 20 17H17.535L15.8325 19.555C15.7412 19.6922 15.6175 19.8047 15.4722 19.8825C15.327 19.9603 15.1648 20.001 15 20.001C14.8352 20.001 14.673 19.9603 14.5278 19.8825C14.3825 19.8047 14.2588 19.6922 14.1675 19.555L11 14.8025L9.8325 16.5525C9.74139 16.6899 9.6177 16.8027 9.47246 16.8808C9.32721 16.9589 9.1649 16.9998 9 17ZM22.25 4C19.6688 4 17.4088 5.11 16 6.98625C14.5912 5.11 12.3313 4 9.75 4C7.69528 4.00232 5.72539 4.81958 4.27248 6.27248C2.81958 7.72539 2.00232 9.69528 2 11.75C2 11.8438 2 11.9375 2 12.0312C2.00829 12.2965 2.12159 12.5475 2.31499 12.7292C2.50839 12.9109 2.76603 13.0083 3.03125 13C3.29647 12.9917 3.54753 12.8784 3.7292 12.685C3.91088 12.4916 4.00829 12.234 4 11.9688C4 11.8962 4 11.8225 4 11.75C4.00198 10.2256 4.60842 8.76423 5.68633 7.68633C6.76423 6.60842 8.22561 6.00198 9.75 6C12.1812 6 14.2225 7.295 15.075 9.375C15.1503 9.55841 15.2785 9.71528 15.4432 9.82569C15.6079 9.93609 15.8017 9.99503 16 9.99503C16.1983 9.99503 16.3921 9.93609 16.5568 9.82569C16.7215 9.71528 16.8497 9.55841 16.925 9.375C17.7775 7.29125 19.8188 6 22.25 6C23.7744 6.00198 25.2358 6.60842 26.3137 7.68633C27.3916 8.76423 27.998 10.2256 28 11.75C28 18.4513 18.28 24.5188 16 25.85C14.6462 25.0613 10.6712 22.6 7.665 19.3237C7.48565 19.1282 7.23594 19.0118 6.97081 19.0003C6.70568 18.9888 6.44685 19.0831 6.25125 19.2625C6.05565 19.4419 5.93931 19.6916 5.92783 19.9567C5.91634 20.2218 6.01065 20.4807 6.19 20.6763C10.0863 24.9263 15.3062 27.7612 15.5262 27.88C15.6719 27.9583 15.8346 27.9993 16 27.9993C16.1654 27.9993 16.3281 27.9583 16.4737 27.88C17.0262 27.5825 30 20.5 30 11.75C29.9977 9.69528 29.1804 7.72539 27.7275 6.27248C26.2746 4.81958 24.3047 4.00232 22.25 4Z" fill="#4A4A4F"/>
</svg>
