<svg width="32" height="32" viewBox="0 0 32 32" fill="none" xmlns="http://www.w3.org/2000/svg">
<path d="M29.9762 12.4375C29.3275 20.865 17.0138 27.5912 16.4762 27.88C16.3306 27.9583 16.1679 27.9993 16.0025 27.9993C15.8371 27.9993 15.6744 27.9583 15.5288 27.88C14.975 27.5837 2 20.5 2 11.75C1.99965 10.3461 2.38066 8.96842 3.10234 7.76419C3.82401 6.55997 4.85925 5.57439 6.09746 4.91274C7.33568 4.25108 8.73037 3.93819 10.1326 4.0075C11.5348 4.0768 12.8918 4.52569 14.0588 5.30622C14.1206 5.34722 14.1725 5.40148 14.2108 5.46504C14.2491 5.52861 14.2727 5.5999 14.28 5.67374C14.2873 5.74758 14.2781 5.82211 14.253 5.89195C14.2279 5.96178 14.1876 6.02515 14.135 6.07747L12.465 7.74997C12.2776 7.93749 12.1723 8.19174 12.1723 8.45684C12.1723 8.72195 12.2776 8.9762 12.465 9.16372L16.5312 13.23L13.875 15.875C13.7782 15.9669 13.7008 16.0773 13.6474 16.1996C13.594 16.3219 13.5656 16.4537 13.5639 16.5871C13.5621 16.7206 13.5872 16.8531 13.6375 16.9767C13.6878 17.1003 13.7623 17.2127 13.8567 17.3071C13.951 17.4014 14.0634 17.476 14.187 17.5263C14.3107 17.5765 14.4431 17.6016 14.5766 17.5999C14.71 17.5982 14.8418 17.5697 14.9641 17.5163C15.0864 17.4629 15.1968 17.3855 15.2887 17.2887L18.6488 13.93C18.8361 13.7425 18.9414 13.4882 18.9414 13.2231C18.9414 12.958 18.8361 12.7037 18.6488 12.5162L14.5875 8.45372L16.7712 6.26997C17.4953 5.54224 18.3574 4.96655 19.3071 4.57672C20.2568 4.1869 21.2747 3.99081 22.3013 3.99997C26.8413 4.02872 30.3237 7.91122 29.9762 12.4375Z" fill="#4A4A4F"/>
</svg>
