<svg width="32" height="32" viewBox="0 0 32 32" fill="none" xmlns="http://www.w3.org/2000/svg">
<path d="M30 11.75C30 20.5 17.0262 27.5825 16.4737 27.875C16.3281 27.9533 16.1654 27.9943 16 27.9943C15.8346 27.9943 15.6719 27.9533 15.5262 27.875C15.1075 27.65 7.5825 23.5387 3.94125 17.7638C3.89428 17.6881 3.86836 17.6013 3.86618 17.5123C3.86399 17.4233 3.88561 17.3353 3.92881 17.2574C3.97201 17.1796 4.03522 17.1146 4.1119 17.0694C4.18858 17.0241 4.27596 17.0002 4.365 17H9C9.16468 17.0001 9.32683 16.9595 9.47206 16.8819C9.61729 16.8043 9.7411 16.692 9.8325 16.555L11 14.805L14.1675 19.555C14.2889 19.737 14.4666 19.8742 14.6734 19.9456C14.8802 20.0169 15.1047 20.0185 15.3125 19.95C15.5329 19.8754 15.7215 19.7282 15.8475 19.5325L17.535 17H20C20.1371 17.0003 20.2728 16.9724 20.3986 16.9181C20.5245 16.8637 20.6378 16.7841 20.7316 16.6841C20.8254 16.5841 20.8976 16.4659 20.9438 16.3368C20.9899 16.2077 21.0091 16.0705 21 15.9338C20.9776 15.6767 20.8589 15.4376 20.6677 15.2645C20.4764 15.0913 20.2267 14.9968 19.9688 15H17C16.8353 14.9999 16.6732 15.0405 16.5279 15.1181C16.3827 15.1957 16.2589 15.308 16.1675 15.445L15 17.195L11.8325 12.445C11.7111 12.2627 11.5331 12.1253 11.3261 12.054C11.119 11.9826 10.8942 11.9812 10.6862 12.05C10.4664 12.1251 10.2783 12.2722 10.1525 12.4675L8.465 15H2.94125C2.83439 15.0003 2.73025 14.9663 2.64409 14.9031C2.55793 14.8399 2.49429 14.7508 2.4625 14.6488C2.1609 13.7119 2.00491 12.7342 2 11.75C2.00232 9.69528 2.81958 7.72539 4.27248 6.27248C5.72539 4.81958 7.69528 4.00232 9.75 4C12.3313 4 14.5912 5.11 16 6.98625C17.4088 5.11 19.6688 4 22.25 4C24.3047 4.00232 26.2746 4.81958 27.7275 6.27248C29.1804 7.72539 29.9977 9.69528 30 11.75Z" fill="#4A4A4F"/>
</svg>
