<svg width="32" height="32" viewBox="0 0 32 32" fill="none" xmlns="http://www.w3.org/2000/svg">
<path d="M21.1838 6.09875C21.3129 6.07462 21.4359 6.0253 21.546 5.9536C21.656 5.8819 21.7509 5.78922 21.8251 5.68087C21.8993 5.57251 21.9515 5.4506 21.9786 5.32209C22.0057 5.19358 22.0073 5.06098 21.9831 4.93188C21.959 4.80277 21.9097 4.67968 21.838 4.56964C21.7663 4.45959 21.6736 4.36475 21.5652 4.29052C21.4569 4.21629 21.335 4.16413 21.2065 4.13702C21.0779 4.1099 20.9454 4.10837 20.8162 4.1325C18.8025 4.51 17.125 5.5225 16 7C14.5925 5.125 12.33 4 9.75 4C7.69528 4.00232 5.72539 4.81958 4.27248 6.27248C2.81958 7.72539 2.00232 9.69528 2 11.75C2 20.5 14.9738 27.5837 15.5262 27.875C15.6716 27.9541 15.8345 27.9955 16 27.9955C16.1655 27.9955 16.3284 27.9541 16.4737 27.875C18.2676 26.8694 19.9844 25.7321 21.61 24.4725C21.7183 24.394 21.8097 24.2945 21.8788 24.18C21.948 24.0655 21.9935 23.9383 22.0126 23.806C22.0317 23.6736 22.0241 23.5387 21.9902 23.4093C21.9562 23.28 21.8967 23.1587 21.8151 23.0527C21.7335 22.9468 21.6314 22.8583 21.515 22.7925C21.3985 22.7266 21.2701 22.6848 21.1372 22.6696C21.0043 22.6543 20.8697 22.6658 20.7414 22.7034C20.613 22.7411 20.4936 22.8041 20.39 22.8888C19.1012 23.8813 17.89 24.685 17 25.2412V9.2125C17.73 7.59375 19.2425 6.4625 21.1838 6.09875ZM15 25.25C11.6975 23.1763 4 17.7137 4 11.75C4.00198 10.2256 4.60842 8.76423 5.68633 7.68633C6.76423 6.60842 8.22561 6.00198 9.75 6C12.1138 6 14.1075 7.2225 15 9.205V25.25ZM29.0688 12C29.0317 12.0019 28.9946 12.0019 28.9575 12C28.7116 11.9996 28.4744 11.9087 28.2913 11.7445C28.1082 11.5803 27.9921 11.3544 27.965 11.11C27.8728 10.2773 27.5994 9.47483 27.1638 8.75915C26.7282 8.04346 26.1411 7.43191 25.4438 6.9675C25.331 6.89608 25.2337 6.80282 25.1575 6.69321C25.0814 6.58359 25.028 6.45984 25.0004 6.32926C24.9728 6.19867 24.9717 6.06389 24.997 5.93285C25.0224 5.80181 25.0737 5.67717 25.148 5.56628C25.2222 5.45539 25.3179 5.36048 25.4294 5.28715C25.541 5.21383 25.666 5.16357 25.7973 5.13933C25.9285 5.1151 26.0633 5.11738 26.1936 5.14605C26.324 5.17472 26.4473 5.22919 26.5562 5.30625C27.4959 5.93238 28.2869 6.75679 28.8736 7.72148C29.4604 8.68616 29.8286 9.7677 29.9525 10.89C29.9678 11.021 29.957 11.1537 29.9208 11.2805C29.8846 11.4073 29.8237 11.5257 29.7416 11.6289C29.6594 11.732 29.5577 11.818 29.4422 11.8816C29.3268 11.9453 29.1998 11.9856 29.0688 12ZM28.8075 16.4525C28.0988 17.8737 27.065 19.3275 25.7337 20.7638C25.6459 20.8647 25.5386 20.947 25.4183 21.0057C25.298 21.0645 25.1672 21.0985 25.0335 21.1057C24.8998 21.1129 24.7661 21.0932 24.6402 21.0478C24.5142 21.0024 24.3987 20.9321 24.3005 20.8412C24.2022 20.7503 24.1232 20.6406 24.0681 20.5186C24.013 20.3966 23.983 20.2648 23.9798 20.131C23.9766 19.9971 24.0003 19.864 24.0495 19.7396C24.0987 19.6151 24.1724 19.5017 24.2663 19.4062C25.4675 18.1062 26.3913 16.8125 27.0163 15.56C27.0723 15.4384 27.1522 15.3293 27.2513 15.2391C27.3503 15.149 27.4664 15.0796 27.5928 15.0352C27.7191 14.9908 27.8531 14.9722 27.9868 14.9806C28.1204 14.9889 28.251 15.024 28.3709 15.0838C28.4907 15.1436 28.5973 15.2268 28.6844 15.3286C28.7714 15.4304 28.8371 15.5486 28.8776 15.6763C28.9181 15.8039 28.9325 15.9384 28.9201 16.0718C28.9076 16.2051 28.8685 16.3346 28.805 16.4525H28.8075Z" fill="#4A4A4F"/>
</svg>
