<svg width="32" height="32" viewBox="0 0 32 32" fill="none" xmlns="http://www.w3.org/2000/svg">
<path d="M29.9998 12.2502C30.002 13.2025 29.8153 14.1458 29.4505 15.0255C29.0858 15.9052 28.5502 16.7038 27.8748 17.3752L16.7123 28.7027C16.6193 28.7972 16.5084 28.8722 16.386 28.9234C16.2637 28.9747 16.1324 29.001 15.9998 29.001C15.8672 29.001 15.7359 28.9747 15.6136 28.9234C15.4913 28.8722 15.3804 28.7972 15.2873 28.7027L4.12482 17.3752C2.76393 16.016 1.99873 14.1718 1.99756 12.2484C1.99639 10.325 2.75934 8.47986 4.11857 7.11896C5.47781 5.75807 7.32198 4.99287 9.2454 4.9917C11.1688 4.99053 13.0139 5.75348 14.3748 7.11271L15.9998 8.63146L17.6361 7.10771C18.6516 6.0972 19.9438 5.41022 21.3495 5.1335C22.7552 4.85679 24.2113 5.00274 25.5341 5.55293C26.8569 6.10313 27.987 7.0329 28.7818 8.22486C29.5766 9.41683 30.0005 10.8176 29.9998 12.2502Z" fill="#4A4A4F"/>
</svg>
