<svg width="32" height="32" viewBox="0 0 32 32" fill="none" xmlns="http://www.w3.org/2000/svg">
<path d="M29 10.0227V21.9777C28.9992 22.3358 28.9023 22.6871 28.7193 22.995C28.5364 23.3028 28.2741 23.5559 27.96 23.7277L16.96 29.749C16.6661 29.9114 16.3358 29.9966 16 29.9966C15.6642 29.9966 15.3339 29.9114 15.04 29.749L4.04 23.7277C3.72586 23.5559 3.46363 23.3028 3.28069 22.995C3.09775 22.6871 3.00081 22.3358 3 21.9777V10.0227C3.00081 9.66465 3.09775 9.31335 3.28069 9.00552C3.46363 8.69769 3.72586 8.44462 4.04 8.27274L15.04 2.25149C15.3339 2.08909 15.6642 2.00391 16 2.00391C16.3358 2.00391 16.6661 2.08909 16.96 2.25149L27.96 8.27274C28.2741 8.44462 28.5364 8.69769 28.7193 9.00552C28.9023 9.31335 28.9992 9.66465 29 10.0227Z" fill="#4A4A4F"/>
</svg>
