<svg width="32" height="32" viewBox="0 0 32 32" fill="none" xmlns="http://www.w3.org/2000/svg">
<path d="M11 21.5224V24.9999C11 25.5303 10.7893 26.039 10.4142 26.4141C10.0391 26.7892 9.53043 26.9999 9 26.9999H5C4.46957 26.9999 3.96086 26.7892 3.58579 26.4141C3.21071 26.039 3 25.5303 3 24.9999V19.4999C3 19.3673 3.05268 19.2401 3.14645 19.1463C3.24021 19.0525 3.36739 18.9999 3.5 18.9999H4C6.42283 18.9969 8.78895 19.733 10.7825 21.1099C10.8501 21.1552 10.9054 21.2167 10.9433 21.2887C10.9813 21.3607 11.0008 21.441 11 21.5224ZM28.875 20.5224L22.5 19.0874L8.7075 5.29237C8.57213 5.15663 8.40059 5.06267 8.21333 5.02167C8.02606 4.98067 7.83095 4.99437 7.65125 5.06112C7.49725 5.12142 7.35974 5.21738 7.25 5.34112C4.5075 8.34362 3 12.1249 3 15.9999V16.4999C3 16.6325 3.05268 16.7597 3.14645 16.8534C3.24021 16.9472 3.36739 16.9999 3.5 16.9999H4C6.45887 16.9964 8.87456 17.646 11 18.8824C11.31 19.0636 11.6138 19.2574 11.9125 19.4599C14.1825 21.0177 15.945 23.2079 16.9813 25.7586C17.1309 26.128 17.3881 26.4439 17.7196 26.6653C18.0511 26.8866 18.4414 27.0032 18.84 26.9999H30C30.5304 26.9999 31.0391 26.7892 31.4142 26.4141C31.7893 26.039 32 25.5303 32 24.9999V24.4086C32.0023 23.5012 31.6933 22.6205 31.1246 21.9135C30.5558 21.2064 29.7618 20.7158 28.875 20.5236V20.5224Z" fill="#4A4A4F"/>
</svg>
