<svg width="32" height="32" viewBox="0 0 32 32" fill="none" xmlns="http://www.w3.org/2000/svg">
<path d="M25.1927 6.80766C22.7547 4.36966 19.448 3 16.0002 3C12.5523 3 9.24566 4.36966 6.80766 6.80766C4.36966 9.24566 3 12.5523 3 16.0002C3 19.448 4.36966 22.7547 6.80766 25.1927C9.24566 27.6307 12.5523 29.0003 16.0002 29.0003C19.448 29.0003 22.7547 27.6307 25.1927 25.1927C27.6307 22.7547 29.0003 19.448 29.0003 16.0002C29.0003 12.5523 27.6307 9.24566 25.1927 6.80766ZM12.0002 26.2502V19.0002H20.0002V26.2502C17.4272 27.2502 14.5731 27.2502 12.0002 26.2502ZM23.7777 23.7777C23.2369 24.3194 22.6412 24.8032 22.0002 25.2214V19.0002C22.0002 18.4697 21.7894 17.961 21.4144 17.5859C21.0393 17.2109 20.5306 17.0002 20.0002 17.0002V9.00016C20.0003 8.82961 19.9568 8.66187 19.8738 8.51288C19.7908 8.36388 19.6711 8.23858 19.5261 8.1489C19.381 8.05921 19.2154 8.00811 19.045 8.00045C18.8747 7.99279 18.7052 8.02884 18.5527 8.10516L12.5527 11.1052C12.3865 11.1883 12.2468 11.3161 12.1492 11.4742C12.0516 11.6322 12 11.8144 12.0002 12.0002V17.0002C11.4697 17.0002 10.961 17.2109 10.5859 17.5859C10.2109 17.961 10.0002 18.4697 10.0002 19.0002V25.2214C8.09451 23.9818 6.61975 22.1822 5.77873 20.0701C4.9377 17.958 4.77173 15.6372 5.30363 13.427C5.83553 11.2167 7.03918 9.22554 8.74903 7.72733C10.4589 6.22913 12.5909 5.29749 14.8519 5.06056C17.1129 4.82363 19.3917 5.29305 21.375 6.40425C23.3583 7.51545 24.9486 9.21385 25.9271 11.2658C26.9057 13.3178 27.2244 15.6226 26.8395 17.8631C26.4546 20.1037 25.3849 22.1699 23.7777 23.7777Z" fill="#4A4A4F"/>
</svg>
