<svg width="32" height="32" viewBox="0 0 32 32" fill="none" xmlns="http://www.w3.org/2000/svg">
<path d="M29.8323 15.445L22.7948 4.89C22.6122 4.6162 22.3647 4.39172 22.0745 4.23647C21.7843 4.08122 21.4602 3.99999 21.1311 4H10.8748C10.5457 3.99999 10.2216 4.08122 9.93142 4.23647C9.64119 4.39172 9.39377 4.6162 9.2111 4.89L2.1736 15.445C2.0944 15.5639 2.0416 15.6984 2.01874 15.8394C1.99589 15.9804 2.00351 16.1247 2.0411 16.2625L4.83985 26.5263C4.95503 26.9486 5.20559 27.3215 5.55309 27.5877C5.9006 27.8539 6.32584 27.9987 6.7636 28H9.99985C10.5303 28 11.039 27.7893 11.4141 27.4142C11.7891 27.0391 11.9998 26.5304 11.9998 26V24H19.9998V26C19.9998 26.5304 20.2106 27.0391 20.5856 27.4142C20.9607 27.7893 21.4694 28 21.9998 28H25.2361C25.6749 28.0001 26.1016 27.8559 26.4504 27.5896C26.7991 27.3232 27.0506 26.9496 27.1661 26.5263L29.9648 16.2625C30.0024 16.1247 30.0101 15.9804 29.9872 15.8394C29.9643 15.6984 29.9115 15.5639 29.8323 15.445ZM9.99985 26H6.7636L4.08485 16.1763L7.99985 10.3025V22C7.99985 22.5304 8.21056 23.0391 8.58563 23.4142C8.96071 23.7893 9.46941 24 9.99985 24V26ZM14.9998 17C14.9998 17.2652 14.8945 17.5196 14.707 17.7071C14.5194 17.8946 14.2651 18 13.9998 18C13.7346 18 13.4803 17.8946 13.2927 17.7071C13.1052 17.5196 12.9998 17.2652 12.9998 17V11.8575C12.9998 11.5923 13.1052 11.3379 13.2927 11.1504C13.4803 10.9629 13.7346 10.8575 13.9998 10.8575C14.2651 10.8575 14.5194 10.9629 14.707 11.1504C14.8945 11.3379 14.9998 11.5923 14.9998 11.8575V17ZM18.9998 16C18.9998 16.2652 18.8945 16.5196 18.707 16.7071C18.5194 16.8946 18.2651 17 17.9998 17C17.7346 17 17.4803 16.8946 17.2927 16.7071C17.1052 16.5196 16.9998 16.2652 16.9998 16V11.8575C16.9998 11.5923 17.1052 11.3379 17.2927 11.1504C17.4803 10.9629 17.7346 10.8575 17.9998 10.8575C18.2651 10.8575 18.5194 10.9629 18.707 11.1504C18.8945 11.3379 18.9998 11.5923 18.9998 11.8575V16ZM15.9998 9.84875L10.4261 6.66375L10.8748 6H21.1373L21.5798 6.66375L15.9998 9.84875ZM25.2361 26H21.9998V24C22.5303 24 23.039 23.7893 23.4141 23.4142C23.7891 23.0391 23.9998 22.5304 23.9998 22V10.3025L27.9148 16.1775L25.2361 26Z" fill="#4A4A4F"/>
</svg>
