<svg width="32" height="32" viewBox="0 0 32 32" fill="none" xmlns="http://www.w3.org/2000/svg">
<path d="M25.2561 6.87505C24.0502 5.6438 22.6098 4.66657 21.02 4.00103C19.4303 3.3355 17.7233 2.99514 15.9998 3.00005H14.9998C14.7346 3.00005 14.4803 3.10541 14.2927 3.29295C14.1052 3.48048 13.9998 3.73484 13.9998 4.00005V7.4413L1.4761 15.1488C1.36383 15.2179 1.26634 15.3086 1.18924 15.4156C1.11215 15.5225 1.05696 15.6437 1.02688 15.7721C0.996785 15.9005 0.99238 16.0335 1.01391 16.1636C1.03545 16.2937 1.0825 16.4182 1.15235 16.5301L2.87485 19.2801L2.91235 19.3338C3.34835 19.9426 3.94723 20.416 4.64021 20.6997C5.33318 20.9834 6.09212 21.0658 6.82985 20.9376C8.5711 20.6426 11.6573 20.1201 14.5048 21.3488L11.1798 25.9201C10.2669 25.4862 9.42085 24.9238 8.66735 24.2501C8.46844 24.0732 8.20741 23.9826 7.9417 23.9982C7.67598 24.0138 7.42734 24.1343 7.25047 24.3332C7.07361 24.5321 6.983 24.7931 6.99859 25.0588C7.01418 25.3245 7.13469 25.5732 7.3336 25.7501C9.71937 27.8648 12.803 29.0224 15.9911 29.0001H16.2623C18.8034 28.9499 21.2739 28.1559 23.3685 26.7165C25.4631 25.277 27.0898 23.2552 28.0474 20.901C29.005 18.5468 29.2516 15.9635 28.7566 13.4707C28.2616 10.9778 27.0468 8.68476 25.2623 6.87505H25.2561ZM15.4998 14.0001C15.2032 14.0001 14.9132 13.9121 14.6665 13.7473C14.4198 13.5824 14.2276 13.3482 14.114 13.0741C14.0005 12.8 13.9708 12.4984 14.0287 12.2074C14.0865 11.9164 14.2294 11.6492 14.4392 11.4394C14.649 11.2296 14.9162 11.0868 15.2072 11.0289C15.4982 10.971 15.7998 11.0007 16.0739 11.1142C16.348 11.2278 16.5822 11.42 16.7471 11.6667C16.9119 11.9134 16.9998 12.2034 16.9998 12.5001C16.9998 12.8979 16.8418 13.2794 16.5605 13.5607C16.2792 13.842 15.8977 14.0001 15.4998 14.0001Z" fill="#4A4A4F"/>
</svg>
