<svg width="32" height="32" viewBox="0 0 32 32" fill="none" xmlns="http://www.w3.org/2000/svg">
<path d="M16.9998 12.5C16.9998 12.7967 16.9119 13.0867 16.7471 13.3334C16.5822 13.58 16.348 13.7723 16.0739 13.8858C15.7998 13.9994 15.4982 14.0291 15.2072 13.9712C14.9162 13.9133 14.649 13.7704 14.4392 13.5607C14.2294 13.3509 14.0865 13.0836 14.0287 12.7926C13.9708 12.5017 14.0005 12.2001 14.114 11.926C14.2276 11.6519 14.4198 11.4176 14.6665 11.2528C14.9132 11.088 15.2032 11 15.4998 11C15.8977 11 16.2792 11.158 16.5605 11.4393C16.8418 11.7206 16.9998 12.1022 16.9998 12.5ZM28.9998 16.185C28.9436 19.5528 27.5859 22.7682 25.2114 25.1572C22.8368 27.5461 19.6298 28.9233 16.2623 29H15.9911C12.803 29.0224 9.71937 27.8648 7.3336 25.75C7.13469 25.5731 7.01418 25.3245 6.99859 25.0588C6.99087 24.9272 7.00914 24.7954 7.05236 24.6709C7.09558 24.5464 7.1629 24.4316 7.25047 24.3331C7.33805 24.2346 7.44417 24.1544 7.56277 24.0969C7.68137 24.0394 7.81013 24.0058 7.9417 23.9981C8.20741 23.9825 8.46844 24.0731 8.66735 24.25C9.42077 24.9242 10.2669 25.487 11.1798 25.9212L14.4998 21.355C11.6523 20.1262 8.5661 20.6488 6.82485 20.9438C6.08789 21.071 5.32999 20.9881 4.638 20.7044C3.94602 20.4208 3.34795 19.9479 2.91235 19.34L2.87485 19.2862L1.15235 16.5362C1.0825 16.4244 1.03545 16.2999 1.01391 16.1698C0.99238 16.0397 0.996785 15.9066 1.02688 15.7783C1.05696 15.6499 1.11215 15.5287 1.18924 15.4218C1.26634 15.3148 1.36383 15.2241 1.4761 15.155L13.9998 7.44125V4C13.9998 3.73478 14.1052 3.48043 14.2927 3.29289C14.4803 3.10536 14.7346 3 14.9998 3H15.9998C17.7227 2.99983 19.4284 3.34211 21.0178 4.00696C22.6073 4.67181 24.0487 5.64596 25.2583 6.87278C26.4679 8.09961 27.4216 9.55464 28.0639 11.1533C28.7062 12.7519 29.0244 14.4623 28.9998 16.185ZM26.9998 16.1575C27.0207 14.6998 26.7516 13.2524 26.2082 11.8996C25.6647 10.5468 24.8578 9.31549 23.8342 8.27731C22.8107 7.23912 21.591 6.41476 20.2461 5.85213C18.9011 5.28951 17.4577 4.99985 15.9998 5V8C15.9997 8.17075 15.9559 8.33862 15.8726 8.48763C15.7892 8.63664 15.6691 8.76182 15.5236 8.85125L3.38235 16.3237L4.55235 18.1987C4.77302 18.4959 5.07218 18.7256 5.41621 18.862C5.76024 18.9985 6.13551 19.0363 6.49985 18.9713C8.49985 18.6338 12.5961 17.9412 16.2586 19.9937C17.5376 19.9256 18.7419 19.37 19.6238 18.4412C20.5057 17.5123 20.9981 16.2808 20.9998 15C20.9998 14.7348 21.1052 14.4804 21.2927 14.2929C21.4803 14.1054 21.7346 14 21.9998 14C22.2651 14 22.5194 14.1054 22.707 14.2929C22.8945 14.4804 22.9998 14.7348 22.9998 15C22.9974 16.7648 22.3293 18.4637 21.129 19.7574C19.9287 21.0511 18.2845 21.8444 16.5248 21.9788L13.1361 26.6388C14.1434 26.8999 15.1819 27.0215 16.2223 27C19.071 26.9336 21.7837 25.768 23.7925 23.7471C25.8013 21.7261 26.9506 19.0065 26.9998 16.1575Z" fill="#4A4A4F"/>
</svg>
