<svg width="32" height="32" viewBox="0 0 32 32" fill="none" xmlns="http://www.w3.org/2000/svg">
<path d="M26.3975 24.57L17.4463 16L26.3975 7.43C26.4026 7.42427 26.408 7.41885 26.4138 7.41375C26.6933 7.13405 26.8836 6.77777 26.9607 6.38993C27.0378 6.00209 26.9982 5.6001 26.8469 5.23476C26.6956 4.86942 26.4394 4.55713 26.1107 4.33736C25.7819 4.11758 25.3955 4.00018 25 4H7.00002C6.6047 4.00043 6.21837 4.11801 5.88984 4.33788C5.5613 4.55775 5.30529 4.87005 5.15415 5.23533C5.003 5.60062 4.9635 6.00251 5.04064 6.39023C5.11777 6.77796 5.30808 7.13412 5.58752 7.41375L5.60252 7.43L14.5538 16L5.60252 24.57L5.58752 24.5863C5.30808 24.8659 5.11777 25.222 5.04064 25.6098C4.9635 25.9975 5.003 26.3994 5.15415 26.7647C5.30529 27.13 5.5613 27.4423 5.88984 27.6621C6.21837 27.882 6.6047 27.9996 7.00002 28H25C25.3956 28.0001 25.7822 27.8828 26.1111 27.6632C26.4401 27.4435 26.6965 27.1312 26.8479 26.7658C26.9994 26.4004 27.0391 25.9983 26.962 25.6104C26.885 25.2224 26.6946 24.866 26.415 24.5863C26.4089 24.5812 26.403 24.5758 26.3975 24.57ZM25 6L16 14.615L7.00002 6H25ZM7.00002 26L16 17.385L25 26H7.00002Z" fill="#4A4A4F"/>
</svg>
