<svg width="32" height="32" viewBox="0 0 32 32" fill="none" xmlns="http://www.w3.org/2000/svg">
<path d="M26.4138 24.5863C26.6933 24.866 26.8837 25.2222 26.9608 25.6101C27.0379 25.9979 26.9983 26.3999 26.847 26.7652C26.6957 27.1306 26.4395 27.4429 26.1107 27.6626C25.782 27.8824 25.3955 27.9998 25.0001 28H7.00008C6.60455 28.0001 6.21787 27.8828 5.88895 27.6632C5.56003 27.4435 5.30364 27.1312 5.15219 26.7658C5.00073 26.4004 4.96102 25.9983 5.03807 25.6104C5.11513 25.2224 5.30549 24.866 5.58508 24.5863C5.59081 24.5812 5.59623 24.5757 5.60133 24.57L14.5538 16L5.60258 7.43C5.59748 7.42427 5.59206 7.41885 5.58633 7.41375C5.30681 7.13405 5.11648 6.77777 5.03939 6.38993C4.96229 6.00209 5.0019 5.6001 5.1532 5.23476C5.30449 4.86942 5.5607 4.55713 5.88942 4.33736C6.21815 4.11758 6.60465 4.00018 7.00008 4H25.0001C25.3956 3.99994 25.7823 4.11715 26.1112 4.33683C26.4401 4.55652 26.6965 4.86879 26.848 5.23418C26.9994 5.59957 27.0391 6.00166 26.9621 6.38962C26.885 6.77758 26.6947 7.13397 26.4151 7.41375C26.4094 7.41885 26.4039 7.42427 26.3988 7.43L17.4463 16L26.3976 24.57C26.4027 24.5757 26.4081 24.5812 26.4138 24.5863Z" fill="#4A4A4F"/>
</svg>
