<svg width="32" height="32" viewBox="0 0 32 32" fill="none" xmlns="http://www.w3.org/2000/svg">
<path d="M25 9.455V5C25 4.46957 24.7893 3.96086 24.4142 3.58579C24.0391 3.21071 23.5304 3 23 3H9C8.46957 3 7.96086 3.21071 7.58579 3.58579C7.21071 3.96086 7 4.46957 7 5V9.5C7.00092 9.81046 7.07374 10.1165 7.21275 10.3941C7.35177 10.6717 7.5532 10.9133 7.80125 11.1L14.3337 16L7.8 20.9C7.55211 21.0868 7.35087 21.3284 7.21206 21.606C7.07326 21.8836 7.00068 22.1896 7 22.5V27C7 27.5304 7.21071 28.0391 7.58579 28.4142C7.96086 28.7893 8.46957 29 9 29H23C23.5304 29 24.0391 28.7893 24.4142 28.4142C24.7893 28.0391 25 27.5304 25 27V22.545C25 22.2356 24.9282 21.9303 24.7903 21.6534C24.6523 21.3764 24.452 21.1352 24.205 20.9487L17.6575 16L24.205 11.0513C24.4516 10.8645 24.6517 10.6232 24.7896 10.3463C24.9275 10.0694 24.9995 9.76435 25 9.455Z" fill="#4A4A4F"/>
</svg>
