<svg width="32" height="32" viewBox="0 0 32 32" fill="none" xmlns="http://www.w3.org/2000/svg">
<path d="M27.3538 12.9711L17.3538 3.53608C17.3489 3.53181 17.3443 3.52722 17.34 3.52233C16.9718 3.18749 16.492 3.00195 15.9944 3.00195C15.4967 3.00195 15.0169 3.18749 14.6488 3.52233L14.635 3.53608L4.64625 12.9711C4.4425 13.1584 4.27985 13.3861 4.16861 13.6395C4.05737 13.893 3.99996 14.1668 4 14.4436V25.9998C4 26.5303 4.21071 27.039 4.58579 27.414C4.96086 27.7891 5.46957 27.9998 6 27.9998H26C26.5304 27.9998 27.0391 27.7891 27.4142 27.414C27.7893 27.039 28 26.5303 28 25.9998V14.4436C28 14.1668 27.9426 13.893 27.8314 13.6395C27.7201 13.3861 27.5575 13.1584 27.3538 12.9711ZM26 25.9998H6V14.4436L6.01375 14.4311L16 4.99983L25.9875 14.4286L26.0012 14.4411L26 25.9998Z" fill="#4A4A4F"/>
</svg>
