<svg width="32" height="32" viewBox="0 0 32 32" fill="none" xmlns="http://www.w3.org/2000/svg">
<path d="M25.9999 11.1713V11C25.9999 8.34784 24.9464 5.8043 23.071 3.92893C21.1956 2.05357 18.6521 1 15.9999 1C13.3478 1 10.8042 2.05357 8.92888 3.92893C7.05351 5.8043 5.99994 8.34784 5.99994 11V11.1713C5.3325 11.407 4.76991 11.8711 4.41165 12.4816C4.05339 13.0921 3.92254 13.8096 4.04223 14.5073C4.16192 15.2049 4.52445 15.8378 5.06571 16.294C5.60697 16.7501 6.29209 17.0002 6.99994 17H7.41994L15.1312 30.5C15.2186 30.6533 15.345 30.7808 15.4976 30.8694C15.6502 30.9581 15.8235 31.0047 15.9999 31.0047C16.1764 31.0047 16.3497 30.9581 16.5023 30.8694C16.6549 30.7808 16.7813 30.6533 16.8687 30.5L24.5799 17H24.9999C25.7078 17.0002 26.3929 16.7501 26.9342 16.294C27.4754 15.8378 27.838 15.2049 27.9577 14.5073C28.0774 13.8096 27.9465 13.0921 27.5882 12.4816C27.23 11.8711 26.6674 11.407 25.9999 11.1713ZM15.9999 27.985L9.72369 17H12.1337L17.2049 25.875L15.9999 27.985ZM18.3574 23.86L14.4374 17H16.8487L19.5624 21.75L18.3574 23.86ZM20.7137 19.735L19.1512 17H22.2762L20.7137 19.735Z" fill="#4A4A4F"/>
</svg>
