<svg width="32" height="32" viewBox="0 0 32 32" fill="none" xmlns="http://www.w3.org/2000/svg">
<path d="M14 15C14 15.3956 13.8827 15.7822 13.6629 16.1111C13.4432 16.44 13.1308 16.6964 12.7654 16.8478C12.3999 16.9991 11.9978 17.0387 11.6098 16.9616C11.2219 16.8844 10.8655 16.6939 10.5858 16.4142C10.3061 16.1345 10.1156 15.7781 10.0384 15.3902C9.96126 15.0022 10.0009 14.6001 10.1522 14.2346C10.3036 13.8692 10.56 13.5568 10.8889 13.3371C11.2178 13.1173 11.6044 13 12 13C12.5304 13 13.0391 13.2107 13.4142 13.5858C13.7893 13.9609 14 14.4696 14 15ZM29 7V25C29 25.5304 28.7893 26.0391 28.4142 26.4142C28.0391 26.7893 27.5304 27 27 27H5C4.46957 27 3.96086 26.7893 3.58579 26.4142C3.21071 26.0391 3 25.5304 3 25V7C3 6.46957 3.21071 5.96086 3.58579 5.58579C3.96086 5.21071 4.46957 5 5 5H27C27.5304 5 28.0391 5.21071 28.4142 5.58579C28.7893 5.96086 29 6.46957 29 7ZM16.9688 20.75C16.6452 19.5418 15.8779 18.5 14.82 17.8325C15.3818 17.274 15.7651 16.5614 15.9214 15.7848C16.0777 15.0082 15.9998 14.2027 15.6978 13.4704C15.3957 12.7381 14.8831 12.112 14.2248 11.6714C13.5664 11.2309 12.7921 10.9957 12 10.9957C11.2079 10.9957 10.4336 11.2309 9.77525 11.6714C9.11693 12.112 8.60426 12.7381 8.30221 13.4704C8.00016 14.2027 7.92234 15.0082 8.07861 15.7848C8.23488 16.5614 8.61821 17.274 9.18 17.8325C8.12282 18.5007 7.35575 19.5422 7.03125 20.75C6.96495 21.0069 7.00342 21.2797 7.13821 21.5082C7.27301 21.7368 7.49307 21.9024 7.75 21.9688C8.00693 22.0351 8.27967 21.9966 8.50823 21.8618C8.73679 21.727 8.90245 21.5069 8.96875 21.25C9.29875 19.9688 10.6013 19 12 19C13.3988 19 14.7025 19.9662 15.0312 21.25C15.0976 21.5069 15.2632 21.727 15.4918 21.8618C15.7203 21.9966 15.9931 22.0351 16.25 21.9688C16.5069 21.9024 16.727 21.7368 16.8618 21.5082C16.9966 21.2797 17.0351 21.0069 16.9688 20.75ZM25 18C25 17.7348 24.8946 17.4804 24.7071 17.2929C24.5196 17.1054 24.2652 17 24 17H19C18.7348 17 18.4804 17.1054 18.2929 17.2929C18.1054 17.4804 18 17.7348 18 18C18 18.2652 18.1054 18.5196 18.2929 18.7071C18.4804 18.8946 18.7348 19 19 19H24C24.2652 19 24.5196 18.8946 24.7071 18.7071C24.8946 18.5196 25 18.2652 25 18ZM25 14C25 13.7348 24.8946 13.4804 24.7071 13.2929C24.5196 13.1054 24.2652 13 24 13H19C18.7348 13 18.4804 13.1054 18.2929 13.2929C18.1054 13.4804 18 13.7348 18 14C18 14.2652 18.1054 14.5196 18.2929 14.7071C18.4804 14.8946 18.7348 15 19 15H24C24.2652 15 24.5196 14.8946 24.7071 14.7071C24.8946 14.5196 25 14.2652 25 14Z" fill="#4A4A4F"/>
</svg>
