<svg width="32" height="32" viewBox="0 0 32 32" fill="none" xmlns="http://www.w3.org/2000/svg">
<path d="M26 4H10C9.46957 4 8.96086 4.21071 8.58579 4.58579C8.21071 4.96086 8 5.46957 8 6V8H6C5.46957 8 4.96086 8.21071 4.58579 8.58579C4.21071 8.96086 4 9.46957 4 10V26C4 26.5304 4.21071 27.0391 4.58579 27.4142C4.96086 27.7893 5.46957 28 6 28H22C22.5304 28 23.0391 27.7893 23.4142 27.4142C23.7893 27.0391 24 26.5304 24 26V24H26C26.5304 24 27.0391 23.7893 27.4142 23.4142C27.7893 23.0391 28 22.5304 28 22V6C28 5.46957 27.7893 4.96086 27.4142 4.58579C27.0391 4.21071 26.5304 4 26 4ZM10 6H26V14.6725L23.9125 12.585C23.5375 12.2102 23.029 11.9997 22.4988 11.9997C21.9685 11.9997 21.46 12.2102 21.085 12.585L11.6713 22H10V6ZM22 26H6V10H8V22C8 22.5304 8.21071 23.0391 8.58579 23.4142C8.96086 23.7893 9.46957 24 10 24H22V26ZM13 11C13 10.6044 13.1173 10.2178 13.3371 9.88886C13.5568 9.55996 13.8692 9.30362 14.2346 9.15224C14.6001 9.00087 15.0022 8.96126 15.3902 9.03843C15.7781 9.1156 16.1345 9.30608 16.4142 9.58579C16.6939 9.86549 16.8844 10.2219 16.9616 10.6098C17.0387 10.9978 16.9991 11.3999 16.8478 11.7654C16.6964 12.1308 16.44 12.4432 16.1111 12.6629C15.7822 12.8827 15.3956 13 15 13C14.4696 13 13.9609 12.7893 13.5858 12.4142C13.2107 12.0391 13 11.5304 13 11Z" fill="#4A4A4F"/>
</svg>
