<svg width="32" height="32" viewBox="0 0 32 32" fill="none" xmlns="http://www.w3.org/2000/svg">
<path d="M26 4H6C5.46957 4 4.96086 4.21071 4.58579 4.58579C4.21071 4.96086 4 5.46957 4 6V26C4 26.5304 4.21071 27.0391 4.58579 27.4142C4.96086 27.7893 5.46957 28 6 28H26C26.5304 28 27.0391 27.7893 27.4142 27.4142C27.7893 27.0391 28 26.5304 28 26V6C28 5.46957 27.7893 4.96086 27.4142 4.58579C27.0391 4.21071 26.5304 4 26 4ZM6 6H26V15.6725L22.9137 12.585C22.5387 12.2102 22.0302 11.9997 21.5 11.9997C20.9698 11.9997 20.4613 12.2102 20.0863 12.585L6.67125 26H6V6ZM10 12C10 11.6044 10.1173 11.2178 10.3371 10.8889C10.5568 10.56 10.8692 10.3036 11.2346 10.1522C11.6001 10.0009 12.0022 9.96126 12.3902 10.0384C12.7781 10.1156 13.1345 10.3061 13.4142 10.5858C13.6939 10.8655 13.8844 11.2219 13.9616 11.6098C14.0387 11.9978 13.9991 12.3999 13.8478 12.7654C13.6964 13.1308 13.44 13.4432 13.1111 13.6629C12.7822 13.8827 12.3956 14 12 14C11.4696 14 10.9609 13.7893 10.5858 13.4142C10.2107 13.0391 10 12.5304 10 12Z" fill="#4A4A4F"/>
</svg>
