<svg width="32" height="32" viewBox="0 0 32 32" fill="none" xmlns="http://www.w3.org/2000/svg">
<path d="M27 5H5C4.46957 5 3.96086 5.21071 3.58579 5.58579C3.21071 5.96086 3 6.46957 3 7V25C3 25.5304 3.21071 26.0391 3.58579 26.4142C3.96086 26.7893 4.46957 27 5 27H27C27.5304 27 28.0391 26.7893 28.4142 26.4142C28.7893 26.0391 29 25.5304 29 25V7C29 6.46957 28.7893 5.96086 28.4142 5.58579C28.0391 5.21071 27.5304 5 27 5ZM25.535 19.535C24.601 20.4691 23.3353 20.9956 22.0144 20.9996C20.6935 21.0036 19.4246 20.4847 18.485 19.5562L12.1613 13.9175L12.125 13.875C11.705 13.4565 11.1705 13.1718 10.5888 13.0569C10.0071 12.942 9.40448 13.002 8.85691 13.2294C8.30934 13.4567 7.84142 13.8413 7.51223 14.3344C7.18305 14.8275 7.00737 15.4071 7.00737 16C7.00737 16.5929 7.18305 17.1725 7.51223 17.6656C7.84142 18.1587 8.30934 18.5433 8.85691 18.7706C9.40448 18.998 10.0071 19.058 10.5888 18.9431C11.1705 18.8282 11.705 18.5435 12.125 18.125C12.17 18.08 12.2137 18.0337 12.25 17.9875C12.337 17.889 12.4425 17.8086 12.5606 17.7509C12.6787 17.6932 12.807 17.6593 12.9381 17.6512C13.0693 17.6431 13.2008 17.6609 13.3251 17.7036C13.4493 17.7462 13.564 17.813 13.6625 17.9C13.761 17.987 13.8414 18.0925 13.8991 18.2106C13.9568 18.3287 13.9907 18.457 13.9988 18.5881C14.0069 18.7193 13.9891 18.8508 13.9464 18.9751C13.9038 19.0993 13.837 19.214 13.75 19.3125C13.6812 19.39 13.6088 19.4662 13.5363 19.5387C12.8379 20.2372 11.9484 20.7133 10.9799 20.9068C10.0113 21.1003 9.00715 21.0026 8.09406 20.6261C7.18096 20.2495 6.39984 19.611 5.84924 18.791C5.29864 17.971 5.00323 17.0064 5.00027 16.0187C4.99731 15.031 5.28693 14.0646 5.83261 13.2413C6.37829 12.418 7.15557 11.7748 8.06639 11.3928C8.97721 11.0108 9.98077 10.9071 10.9505 11.0948C11.9201 11.2825 12.8125 11.7532 13.515 12.4475L19.8375 18.0863L19.8787 18.125C20.2991 18.5431 20.8339 18.8274 21.4157 18.9418C21.9974 19.0562 22.6 18.9956 23.1474 18.7678C23.6948 18.5399 24.1624 18.155 24.4911 17.6616C24.8199 17.1681 24.995 16.5884 24.9945 15.9955C24.994 15.4026 24.8178 14.8231 24.4882 14.3303C24.1586 13.8375 23.6903 13.4534 23.1425 13.2265C22.5947 12.9996 21.992 12.9401 21.4105 13.0555C20.8289 13.171 20.2946 13.4561 19.875 13.875C19.83 13.92 19.7875 13.965 19.75 14.0125C19.5745 14.2114 19.3271 14.3324 19.0623 14.349C18.7975 14.3655 18.537 14.2762 18.3381 14.1006C18.1392 13.9251 18.0182 13.6777 18.0017 13.4129C17.9851 13.1482 18.0745 12.8877 18.25 12.6888C18.3175 12.6113 18.39 12.5338 18.4638 12.4613C19.4049 11.5408 20.671 11.0286 21.9873 11.0359C23.3037 11.0431 24.5641 11.5692 25.495 12.5C26.4259 13.4307 26.9522 14.691 26.9597 16.0074C26.9672 17.3238 26.4553 18.59 25.535 19.5312V19.535Z" fill="#4A4A4F"/>
</svg>
