<svg width="32" height="32" viewBox="0 0 32 32" fill="none" xmlns="http://www.w3.org/2000/svg">
<path d="M21.8285 10.171C21.496 8.37993 20.6805 6.7137 19.4701 5.35224C18.2596 3.99079 16.7003 2.98584 14.9605 2.4459C13.2206 1.90597 11.3663 1.85156 9.59775 2.28856C7.82922 2.72556 6.21367 3.63736 4.92551 4.92551C3.63736 6.21367 2.72556 7.82922 2.28856 9.59775C1.85156 11.3663 1.90597 13.2206 2.4459 14.9605C2.98584 16.7003 3.99079 18.2596 5.35224 19.4701C6.7137 20.6805 8.37993 21.496 10.171 21.8285C10.5036 23.6196 11.3191 25.2859 12.5295 26.6473C13.7399 28.0088 15.2993 29.0137 17.0391 29.5537C18.779 30.0936 20.6333 30.148 22.4018 29.711C24.1704 29.274 25.7859 28.3622 27.0741 27.0741C28.3622 25.7859 29.274 24.1704 29.711 22.4018C30.148 20.6333 30.0936 18.779 29.5537 17.0391C29.0137 15.2993 28.0088 13.7399 26.6473 12.5295C25.2859 11.3191 23.6196 10.5036 21.8285 10.171ZM3.99979 11.9998C3.99595 10.0499 4.7044 8.16572 5.99198 6.70139C7.27956 5.23706 9.05762 4.29341 10.992 4.04777C12.9264 3.80214 14.8838 4.27144 16.4966 5.36748C18.1093 6.46351 19.2662 8.11082 19.7498 9.99979C17.1858 10.0672 14.7454 11.1162 12.9323 12.9305C11.1193 14.7447 10.0718 17.1857 10.006 19.7498C8.28813 19.3053 6.76635 18.3031 5.67935 16.9006C4.59235 15.498 4.00161 13.7743 3.99979 11.9998ZM19.9998 27.9998C18.2261 27.9983 16.5031 27.4085 15.1006 26.3227C13.6981 25.2369 12.6955 23.7165 12.2498 21.9998C14.8149 21.934 17.2568 20.8856 19.0712 19.0712C20.8856 17.2568 21.934 14.8149 21.9998 12.2498C23.8888 12.7334 25.5361 13.8903 26.6321 15.503C27.7281 17.1157 28.1974 19.0732 27.9518 21.0076C27.7062 22.942 26.7625 24.72 25.2982 26.0076C23.8339 27.2952 21.9497 28.0036 19.9998 27.9998Z" fill="#4A4A4F"/>
</svg>
