<svg width="32" height="32" viewBox="0 0 32 32" fill="none" xmlns="http://www.w3.org/2000/svg">
<path d="M24.485 12C24.4937 11.8363 24.5 11.6713 24.5 11.5C24.5 9.24566 23.6045 7.08365 22.0104 5.48959C20.4163 3.89553 18.2543 3 16 3C13.7456 3 11.5836 3.89553 9.98958 5.48959C8.39552 7.08365 7.49999 9.24566 7.49999 11.5C7.49999 11.6663 7.49999 11.8313 7.51499 12C6.48926 12.5249 5.58096 13.2529 4.84529 14.1397C4.10961 15.0265 3.56191 16.0536 3.23547 17.1586C2.90903 18.2636 2.81066 19.4235 2.94635 20.5677C3.08203 21.7119 3.44894 22.8166 4.02477 23.8146C4.60059 24.8127 5.37332 25.6832 6.296 26.3733C7.21868 27.0635 8.27204 27.5588 9.39208 27.8293C10.5121 28.0998 11.6755 28.1397 12.8114 27.9466C13.9473 27.7535 15.0322 27.3315 16 26.7062C16.9678 27.3315 18.0526 27.7535 19.1886 27.9466C20.3245 28.1397 21.4878 28.0998 22.6079 27.8293C23.7279 27.5588 24.7813 27.0635 25.704 26.3733C26.6266 25.6832 27.3994 24.8127 27.9752 23.8146C28.551 22.8166 28.9179 21.7119 29.0536 20.5677C29.1893 19.4235 29.0909 18.2636 28.7645 17.1586C28.4381 16.0536 27.8904 15.0265 27.1547 14.1397C26.419 13.2529 25.5107 12.5249 24.485 12ZM16 24.1838C14.7861 23.024 14.0692 21.4387 14 19.7612C15.3101 20.0796 16.6774 20.0796 17.9875 19.7612C17.9216 21.4369 17.2093 23.0219 16 24.1838ZM12.4037 16.9112C11.1072 16.048 10.1623 14.7493 9.73998 13.25C11.2713 12.8179 12.908 12.9638 14.3387 13.66C13.4582 14.5851 12.7969 15.6962 12.4037 16.9112ZM17.6612 13.6538C19.0927 12.9596 20.7294 12.8159 22.26 13.25C21.839 14.7516 20.894 16.0527 19.5962 16.9175C19.2047 15.698 18.5433 14.5824 17.6612 13.6538ZM16 5C17.679 5.0005 19.2929 5.64996 20.5042 6.81262C21.7156 7.97528 22.4306 9.56115 22.5 11.2388C21.401 10.9714 20.2596 10.9271 19.1432 11.1083C18.0268 11.2895 16.958 11.6926 16 12.2937C15.0428 11.6934 13.9751 11.2908 12.8598 11.1096C11.7445 10.9284 10.6043 10.9723 9.50624 11.2388C9.57553 9.56223 10.2897 7.97728 11.4997 6.81478C12.7098 5.65229 14.322 5.00211 16 5ZM4.99999 19.5C5.00052 18.4286 5.2659 17.3739 5.77251 16.4298C6.27912 15.4857 7.01124 14.6815 7.90374 14.0887C8.58558 16.1969 10.0597 17.9579 12.015 19C12.0062 19.1637 12 19.3288 12 19.5C11.9991 21.6769 12.8366 23.7706 14.3387 25.3463C13.3479 25.8273 12.251 26.0486 11.1512 25.9895C10.0513 25.9304 8.98454 25.5928 8.05095 25.0084C7.11736 24.4239 6.34759 23.6118 5.81392 22.6483C5.28025 21.6848 5.00017 20.6014 4.99999 19.5ZM20.5 26C19.5163 26.0012 18.5453 25.7776 17.6612 25.3463C19.1633 23.7706 20.0009 21.6769 20 19.5C20 19.3337 19.9937 19.1688 19.985 19C21.9413 17.9567 23.4155 16.1938 24.0962 14.0837C25.2599 14.8558 26.144 15.9822 26.6175 17.2959C27.091 18.6097 27.1289 20.0411 26.7254 21.378C26.3219 22.7149 25.4986 23.8864 24.3773 24.7189C23.256 25.5513 21.8965 26.0006 20.5 26Z" fill="#4A4A4F"/>
</svg>
