<svg width="32" height="32" viewBox="0 0 32 32" fill="none" xmlns="http://www.w3.org/2000/svg">
<path d="M31.0002 12.9338C30.9781 12.6762 30.8591 12.4366 30.6673 12.2633C30.4754 12.09 30.225 11.9959 29.9665 12H28.809L27.6477 6.58125C27.5502 6.13445 27.3032 5.73428 26.9475 5.44679C26.5919 5.15931 26.1488 5.0017 25.6915 5H6.30899C5.85168 5.0017 5.40861 5.15931 5.05295 5.44679C4.69729 5.73428 4.45029 6.13445 4.35274 6.58125L3.19149 12H2.03399C1.7755 11.9959 1.52506 12.09 1.3332 12.2633C1.14135 12.4366 1.02236 12.6762 1.00024 12.9338C0.991162 13.0705 1.0103 13.2077 1.05647 13.3368C1.10264 13.4659 1.17486 13.5841 1.26864 13.6841C1.36242 13.7841 1.47576 13.8637 1.60162 13.9181C1.72747 13.9724 1.86316 14.0003 2.00024 14H3.00024V26C3.00024 26.5304 3.21096 27.0391 3.58603 27.4142C3.9611 27.7893 4.46981 28 5.00024 28H8.00024C8.53068 28 9.03938 27.7893 9.41446 27.4142C9.78953 27.0391 10.0002 26.5304 10.0002 26V23H12.5002C12.6329 23 12.76 22.9473 12.8538 22.8536C12.9476 22.7598 13.0002 22.6326 13.0002 22.5V17.0338C12.9968 16.7757 13.0911 16.5259 13.2644 16.3345C13.4376 16.1432 13.6768 16.0246 13.934 16.0025C14.0708 15.9934 14.208 16.0126 14.3371 16.0587C14.4661 16.1049 14.5843 16.1771 14.6843 16.2709C14.7843 16.3647 14.864 16.478 14.9183 16.6039C14.9727 16.7297 15.0005 16.8654 15.0002 17.0025V22.5025C15.0002 22.6351 15.0529 22.7623 15.1467 22.8561C15.2405 22.9498 15.3676 23.0025 15.5002 23.0025H16.5002C16.6329 23.0025 16.76 22.9498 16.8538 22.8561C16.9476 22.7623 17.0002 22.6351 17.0002 22.5025V17.0338C16.9968 16.7757 17.0911 16.5259 17.2644 16.3345C17.4376 16.1432 17.6768 16.0246 17.934 16.0025C18.0708 15.9934 18.208 16.0126 18.3371 16.0587C18.4661 16.1049 18.5843 16.1771 18.6843 16.2709C18.7843 16.3647 18.864 16.478 18.9183 16.6039C18.9727 16.7297 19.0005 16.8654 19.0002 17.0025V22.5025C19.0002 22.6351 19.0529 22.7623 19.1467 22.8561C19.2405 22.9498 19.3676 23.0025 19.5002 23.0025H22.0002V26.0025C22.0002 26.5329 22.211 27.0416 22.586 27.4167C22.9611 27.7918 23.4698 28.0025 24.0002 28.0025H27.0002C27.5307 28.0025 28.0394 27.7918 28.4145 27.4167C28.7895 27.0416 29.0002 26.5329 29.0002 26.0025V14H30.0002C30.1373 14.0003 30.273 13.9724 30.3989 13.9181C30.5247 13.8637 30.6381 13.7841 30.7318 13.6841C30.8256 13.5841 30.8978 13.4659 30.944 13.3368C30.9902 13.2077 31.0093 13.0705 31.0002 12.9338ZM8.50024 19C8.20357 19 7.91356 18.912 7.66689 18.7472C7.42022 18.5824 7.22796 18.3481 7.11442 18.074C7.00089 17.7999 6.97119 17.4983 7.02907 17.2074C7.08694 16.9164 7.2298 16.6491 7.43958 16.4393C7.64936 16.2296 7.91664 16.0867 8.20761 16.0288C8.49858 15.9709 8.80018 16.0007 9.07427 16.1142C9.34836 16.2277 9.58263 16.42 9.74745 16.6666C9.91227 16.9133 10.0002 17.2033 10.0002 17.5C10.0002 17.8978 9.84221 18.2794 9.5609 18.5607C9.2796 18.842 8.89807 19 8.50024 19ZM23.5002 19C23.2036 19 22.9136 18.912 22.6669 18.7472C22.4202 18.5824 22.228 18.3481 22.1144 18.074C22.0009 17.7999 21.9712 17.4983 22.0291 17.2074C22.0869 16.9164 22.2298 16.6491 22.4396 16.4393C22.6494 16.2296 22.9166 16.0867 23.2076 16.0288C23.4986 15.9709 23.8002 16.0007 24.0743 16.1142C24.3484 16.2277 24.5826 16.42 24.7474 16.6666C24.9123 16.9133 25.0002 17.2033 25.0002 17.5C25.0002 17.8978 24.8422 18.2794 24.5609 18.5607C24.2796 18.842 23.8981 19 23.5002 19Z" fill="#4A4A4F"/>
</svg>
