<svg width="32" height="32" viewBox="0 0 32 32" fill="none" xmlns="http://www.w3.org/2000/svg">
<path d="M30 12H28.8088L27.6475 6.58125C27.55 6.13445 27.303 5.73428 26.9473 5.44679C26.5916 5.15931 26.1486 5.0017 25.6912 5H6.30875C5.85143 5.0017 5.40837 5.15931 5.0527 5.44679C4.69704 5.73428 4.45005 6.13445 4.3525 6.58125L3.19125 12H2C1.73478 12 1.48043 12.1054 1.29289 12.2929C1.10536 12.4804 1 12.7348 1 13C1 13.2652 1.10536 13.5196 1.29289 13.7071C1.48043 13.8946 1.73478 14 2 14H3V26C3 26.5304 3.21071 27.0391 3.58579 27.4142C3.96086 27.7893 4.46957 28 5 28H8C8.53043 28 9.03914 27.7893 9.41421 27.4142C9.78929 27.0391 10 26.5304 10 26V23H22V26C22 26.5304 22.2107 27.0391 22.5858 27.4142C22.9609 27.7893 23.4696 28 24 28H27C27.5304 28 28.0391 27.7893 28.4142 27.4142C28.7893 27.0391 29 26.5304 29 26V14H30C30.2652 14 30.5196 13.8946 30.7071 13.7071C30.8946 13.5196 31 13.2652 31 13C31 12.7348 30.8946 12.4804 30.7071 12.2929C30.5196 12.1054 30.2652 12 30 12ZM6.30875 7H25.6912L26.7625 12H5.2375L6.30875 7ZM8 26H5V23H8V26ZM24 26V23H27V26H24ZM27 21H19V17C19 16.7348 18.8946 16.4804 18.7071 16.2929C18.5196 16.1054 18.2652 16 18 16C17.7348 16 17.4804 16.1054 17.2929 16.2929C17.1054 16.4804 17 16.7348 17 17V21H15V17C15 16.7348 14.8946 16.4804 14.7071 16.2929C14.5196 16.1054 14.2652 16 14 16C13.7348 16 13.4804 16.1054 13.2929 16.2929C13.1054 16.4804 13 16.7348 13 17V21H5V14H27V21ZM7 17.5C7 17.2033 7.08797 16.9133 7.2528 16.6666C7.41762 16.42 7.65189 16.2277 7.92597 16.1142C8.20006 16.0007 8.50166 15.9709 8.79264 16.0288C9.08361 16.0867 9.35088 16.2296 9.56066 16.4393C9.77044 16.6491 9.9133 16.9164 9.97118 17.2074C10.0291 17.4983 9.99935 17.7999 9.88582 18.074C9.77229 18.3481 9.58003 18.5824 9.33335 18.7472C9.08668 18.912 8.79667 19 8.5 19C8.10218 19 7.72064 18.842 7.43934 18.5607C7.15804 18.2794 7 17.8978 7 17.5ZM22 17.5C22 17.2033 22.088 16.9133 22.2528 16.6666C22.4176 16.42 22.6519 16.2277 22.926 16.1142C23.2001 16.0007 23.5017 15.9709 23.7926 16.0288C24.0836 16.0867 24.3509 16.2296 24.5607 16.4393C24.7704 16.6491 24.9133 16.9164 24.9712 17.2074C25.0291 17.4983 24.9993 17.7999 24.8858 18.074C24.7723 18.3481 24.58 18.5824 24.3334 18.7472C24.0867 18.912 23.7967 19 23.5 19C23.1022 19 22.7206 18.842 22.4393 18.5607C22.158 18.2794 22 17.8978 22 17.5Z" fill="#4A4A4F"/>
</svg>
