<svg width="32" height="32" viewBox="0 0 32 32" fill="none" xmlns="http://www.w3.org/2000/svg">
<path d="M20 2C18.4216 2.00142 16.866 2.3761 15.4601 3.09345C14.0541 3.8108 12.8378 4.85049 11.9104 6.12763C10.9829 7.40476 10.3707 8.88314 10.1236 10.442C9.87654 12.0009 10.0017 13.5962 10.4888 15.0975L3.2925 22.2925C3.19967 22.3854 3.12605 22.4958 3.07586 22.6171C3.02568 22.7385 2.9999 22.8686 3 23V28C3 28.2652 3.10536 28.5196 3.29289 28.7071C3.48043 28.8946 3.73478 29 4 29H9C9.26522 29 9.51957 28.8946 9.70711 28.7071C9.89464 28.5196 10 28.2652 10 28V26H12C12.2652 26 12.5196 25.8946 12.7071 25.7071C12.8946 25.5196 13 25.2652 13 25V23H15C15.1314 23.0001 15.2615 22.9743 15.3828 22.9241C15.5042 22.8739 15.6146 22.8003 15.7075 22.7075L16.9025 21.5112C18.2769 21.9575 19.7317 22.1005 21.1667 21.9306C22.6017 21.7606 23.9828 21.2817 25.2149 20.5268C26.4471 19.7718 27.501 18.7588 28.304 17.5575C29.1071 16.3562 29.6403 14.9951 29.8669 13.5679C30.0934 12.1408 30.008 10.6814 29.6165 9.29047C29.2249 7.8995 28.5366 6.6099 27.5988 5.51048C26.6611 4.41106 25.4962 3.52794 24.1844 2.92191C22.8726 2.31589 21.445 2.00137 20 2ZM20 20C18.9877 20.0017 17.9844 19.8104 17.0438 19.4363C16.8597 19.3564 16.656 19.3337 16.4589 19.3712C16.2619 19.4086 16.0806 19.5045 15.9388 19.6462L14.5863 21H12C11.7348 21 11.4804 21.1054 11.2929 21.2929C11.1054 21.4804 11 21.7348 11 22V24H9C8.73478 24 8.48043 24.1054 8.29289 24.2929C8.10536 24.4804 8 24.7348 8 25V27H5V23.4137L12.3538 16.0613C12.4955 15.9194 12.5914 15.7381 12.6288 15.5411C12.6663 15.344 12.6436 15.1403 12.5638 14.9563C11.9314 13.3661 11.8256 11.615 12.2619 9.96023C12.6982 8.30547 13.6537 6.83424 14.988 5.76263C16.3223 4.69102 17.965 4.07551 19.6749 4.00651C21.3848 3.9375 23.0718 4.41864 24.4881 5.37925C25.9044 6.33986 26.9753 7.72932 27.5436 9.34354C28.1118 10.9578 28.1475 12.7117 27.6453 14.3476C27.1431 15.9836 26.1295 17.4154 24.7534 18.4328C23.3774 19.4502 21.7113 19.9995 20 20ZM24 9.5C24 9.79667 23.912 10.0867 23.7472 10.3334C23.5824 10.58 23.3481 10.7723 23.074 10.8858C22.7999 10.9994 22.4983 11.0291 22.2074 10.9712C21.9164 10.9133 21.6491 10.7704 21.4393 10.5607C21.2296 10.3509 21.0867 10.0836 21.0288 9.79264C20.9709 9.50166 21.0007 9.20006 21.1142 8.92597C21.2277 8.65189 21.42 8.41762 21.6666 8.2528C21.9133 8.08797 22.2033 8 22.5 8C22.8978 8 23.2794 8.15804 23.5607 8.43934C23.842 8.72064 24 9.10218 24 9.5Z" fill="#4A4A4F"/>
</svg>
