<svg width="32" height="32" viewBox="0 0 32 32" fill="none" xmlns="http://www.w3.org/2000/svg">
<path d="M27.9387 6H4.06375C3.51684 6 2.9923 6.21709 2.60534 6.60357C2.21839 6.99006 2.00066 7.51434 2 8.06125V23.9363C2 24.4832 2.21709 25.0077 2.60357 25.3947C2.99006 25.7816 3.51434 25.9993 4.06125 26H27.9363C28.4832 26 29.0077 25.7829 29.3947 25.3964C29.7816 25.0099 29.9993 24.4857 30 23.9387V8.06375C30 7.51684 29.7829 6.9923 29.3964 6.60534C29.0099 6.21839 28.4857 6.00066 27.9387 6ZM28 23.9387C28 23.9468 27.9984 23.9548 27.9953 23.9622C27.9923 23.9696 27.9877 23.9764 27.9821 23.9821C27.9764 23.9877 27.9696 23.9923 27.9622 23.9953C27.9548 23.9984 27.9468 24 27.9387 24H4.06375C4.05571 24 4.04774 23.9984 4.04031 23.9953C4.03288 23.9923 4.02613 23.9877 4.02044 23.9821C4.01475 23.9764 4.01024 23.9696 4.00716 23.9622C4.00408 23.9548 4.0025 23.9468 4.0025 23.9387V8.06375C4.0025 8.04751 4.00895 8.03193 4.02044 8.02044C4.03193 8.00895 4.04751 8.0025 4.06375 8.0025H27.9387C27.955 8.0025 27.9706 8.00895 27.9821 8.02044C27.9935 8.03193 28 8.04751 28 8.06375V23.9387ZM26 16C26 16.2652 25.8946 16.5196 25.7071 16.7071C25.5196 16.8946 25.2652 17 25 17H7C6.73478 17 6.48043 16.8946 6.29289 16.7071C6.10536 16.5196 6 16.2652 6 16C6 15.7348 6.10536 15.4804 6.29289 15.2929C6.48043 15.1054 6.73478 15 7 15H25C25.2652 15 25.5196 15.1054 25.7071 15.2929C25.8946 15.4804 26 15.7348 26 16ZM26 12C26 12.2652 25.8946 12.5196 25.7071 12.7071C25.5196 12.8946 25.2652 13 25 13H7C6.73478 13 6.48043 12.8946 6.29289 12.7071C6.10536 12.5196 6 12.2652 6 12C6 11.7348 6.10536 11.4804 6.29289 11.2929C6.48043 11.1054 6.73478 11 7 11H25C25.2652 11 25.5196 11.1054 25.7071 11.2929C25.8946 11.4804 26 11.7348 26 12ZM9 20C9 20.2652 8.89464 20.5196 8.70711 20.7071C8.51957 20.8946 8.26522 21 8 21H7C6.73478 21 6.48043 20.8946 6.29289 20.7071C6.10536 20.5196 6 20.2652 6 20C6 19.7348 6.10536 19.4804 6.29289 19.2929C6.48043 19.1054 6.73478 19 7 19H8C8.26522 19 8.51957 19.1054 8.70711 19.2929C8.89464 19.4804 9 19.7348 9 20ZM21 20C21 20.2652 20.8946 20.5196 20.7071 20.7071C20.5196 20.8946 20.2652 21 20 21H12C11.7348 21 11.4804 20.8946 11.2929 20.7071C11.1054 20.5196 11 20.2652 11 20C11 19.7348 11.1054 19.4804 11.2929 19.2929C11.4804 19.1054 11.7348 19 12 19H20C20.2652 19 20.5196 19.1054 20.7071 19.2929C20.8946 19.4804 21 19.7348 21 20ZM26 20C26 20.2652 25.8946 20.5196 25.7071 20.7071C25.5196 20.8946 25.2652 21 25 21H24C23.7348 21 23.4804 20.8946 23.2929 20.7071C23.1054 20.5196 23 20.2652 23 20C23 19.7348 23.1054 19.4804 23.2929 19.2929C23.4804 19.1054 23.7348 19 24 19H25C25.2652 19 25.5196 19.1054 25.7071 19.2929C25.8946 19.4804 26 19.7348 26 20Z" fill="#4A4A4F"/>
</svg>
