<svg width="32" height="32" viewBox="0 0 32 32" fill="none" xmlns="http://www.w3.org/2000/svg">
<path d="M16 3C13.4288 3 10.9154 3.76244 8.77759 5.1909C6.63975 6.61935 4.97351 8.64968 3.98957 11.0251C3.00563 13.4006 2.74819 16.0144 3.2498 18.5362C3.75141 21.0579 4.98953 23.3743 6.80762 25.1924C8.6257 27.0105 10.9421 28.2486 13.4638 28.7502C15.9856 29.2518 18.5995 28.9944 20.9749 28.0104C23.3503 27.0265 25.3807 25.3603 26.8091 23.2224C28.2376 21.0846 29 18.5712 29 16C28.9964 12.5533 27.6256 9.24882 25.1884 6.81163C22.7512 4.37445 19.4467 3.00364 16 3ZM16 27C13.8244 27 11.6977 26.3549 9.88873 25.1462C8.07979 23.9375 6.66989 22.2195 5.83733 20.2095C5.00477 18.1995 4.78693 15.9878 5.21137 13.854C5.63581 11.7202 6.68345 9.7602 8.22183 8.22183C9.76021 6.68345 11.7202 5.6358 13.854 5.21136C15.9878 4.78692 18.1995 5.00476 20.2095 5.83733C22.2195 6.66989 23.9375 8.07979 25.1462 9.88873C26.3549 11.6977 27 13.8244 27 16C26.9967 18.9164 25.8367 21.7123 23.7745 23.7745C21.7123 25.8367 18.9164 26.9967 16 27ZM18.8225 17L20.3925 20.9438C20.4834 21.1713 20.5171 21.4176 20.4908 21.6612C20.4644 21.9048 20.3788 22.1382 20.2415 22.3411C20.1041 22.544 19.9191 22.7101 19.7027 22.8249C19.4863 22.9398 19.245 22.9999 19 23H13C12.7552 22.9998 12.5141 22.9397 12.2978 22.8249C12.0815 22.7101 11.8966 22.5441 11.7593 22.3414C11.6219 22.1387 11.5363 21.9055 11.5098 21.6621C11.4834 21.4187 11.5169 21.1725 11.6075 20.945L13.1775 17C12.4522 16.4159 11.926 15.6212 11.6714 14.7255C11.4169 13.8297 11.4464 12.877 11.7561 11.9988C12.0658 11.1206 12.6403 10.36 13.4004 9.82208C14.1605 9.28412 15.0688 8.99522 16 8.99522C16.9312 8.99522 17.8395 9.28412 18.5996 9.82208C19.3598 10.36 19.9342 11.1206 20.2439 11.9988C20.5536 12.877 20.5832 13.8297 20.3286 14.7255C20.074 15.6212 19.5478 16.4159 18.8225 17Z" fill="#4A4A4F"/>
</svg>
