<svg width="32" height="32" viewBox="0 0 32 32" fill="none" xmlns="http://www.w3.org/2000/svg">
<path d="M16 3C13.4288 3 10.9154 3.76244 8.77759 5.1909C6.63975 6.61935 4.97351 8.64968 3.98957 11.0251C3.00563 13.4006 2.74819 16.0144 3.2498 18.5362C3.75141 21.0579 4.98953 23.3743 6.80762 25.1924C8.6257 27.0105 10.9421 28.2486 13.4638 28.7502C15.9856 29.2518 18.5995 28.9944 20.9749 28.0104C23.3503 27.0265 25.3807 25.3603 26.8091 23.2224C28.2376 21.0846 29 18.5712 29 16C28.9964 12.5533 27.6256 9.24882 25.1884 6.81163C22.7512 4.37445 19.4467 3.00364 16 3ZM16 27C13.8244 27 11.6977 26.3549 9.88873 25.1462C8.07979 23.9375 6.66989 22.2195 5.83733 20.2095C5.00477 18.1995 4.78693 15.9878 5.21137 13.854C5.63581 11.7202 6.68345 9.7602 8.22183 8.22183C9.76021 6.68345 11.7202 5.6358 13.854 5.21136C15.9878 4.78692 18.1995 5.00476 20.2095 5.83733C22.2195 6.66989 23.9375 8.07979 25.1462 9.88873C26.3549 11.6977 27 13.8244 27 16C26.9967 18.9164 25.8367 21.7123 23.7745 23.7745C21.7123 25.8367 18.9164 26.9967 16 27ZM16 9C15.0113 9.00021 14.0448 9.29357 13.2227 9.84299C12.4007 10.3924 11.76 11.1732 11.3816 12.0867C11.0033 13.0002 10.9043 14.0054 11.0971 14.9752C11.2899 15.9449 11.766 16.8357 12.465 17.535L11.1075 20.945C11.0169 21.1725 10.9834 21.4187 11.0098 21.6621C11.0363 21.9055 11.1219 22.1387 11.2593 22.3414C11.3966 22.5441 11.5815 22.7101 11.7978 22.8249C12.0141 22.9397 12.2552 22.9998 12.5 23H19.5C19.7449 22.9998 19.9859 22.9397 20.2022 22.8249C20.4185 22.7101 20.6034 22.5441 20.7407 22.3414C20.8781 22.1387 20.9637 21.9055 20.9902 21.6621C21.0166 21.4187 20.9831 21.1725 20.8925 20.945L19.535 17.535C20.2341 16.8357 20.7101 15.9449 20.9029 14.9752C21.0958 14.0054 20.9967 13.0002 20.6184 12.0867C20.24 11.1732 19.5993 10.3924 18.7773 9.84299C17.9552 9.29357 16.9888 9.00021 16 9ZM17.4138 17.6125L18.7625 21H13.2375L14.5863 17.6125C14.6686 17.4057 14.6796 17.1774 14.6176 16.9637C14.5556 16.75 14.424 16.563 14.2438 16.4325C13.7295 16.0612 13.3462 15.5364 13.1489 14.9336C12.9515 14.3308 12.9504 13.681 13.1455 13.0774C13.3406 12.4739 13.722 11.9477 14.2349 11.5745C14.7478 11.2013 15.3657 11.0003 16 11.0003C16.6343 11.0003 17.2523 11.2013 17.7651 11.5745C18.278 11.9477 18.6594 12.4739 18.8545 13.0774C19.0497 13.681 19.0485 14.3308 18.8511 14.9336C18.6538 15.5364 18.2705 16.0612 17.7563 16.4325C17.576 16.563 17.4444 16.75 17.3824 16.9637C17.3204 17.1774 17.3314 17.4057 17.4138 17.6125Z" fill="#4A4A4F"/>
</svg>
