<svg width="32" height="32" viewBox="0 0 32 32" fill="none" xmlns="http://www.w3.org/2000/svg">
<path d="M27 5H5C4.46957 5 3.96086 5.21071 3.58579 5.58579C3.21071 5.96086 3 6.46957 3 7V25C3 25.5304 3.21071 26.0391 3.58579 26.4142C3.96086 26.7893 4.46957 27 5 27H27C27.5304 27 28.0391 26.7893 28.4142 26.4142C28.7893 26.0391 29 25.5304 29 25V7C29 6.46957 28.7893 5.96086 28.4142 5.58579C28.0391 5.21071 27.5304 5 27 5ZM23 17C23 17.2652 22.8946 17.5196 22.7071 17.7071C22.5196 17.8946 22.2652 18 22 18H12.4137L13.7075 19.2925C13.8004 19.3854 13.8741 19.4957 13.9244 19.6171C13.9747 19.7385 14.0006 19.8686 14.0006 20C14.0006 20.1314 13.9747 20.2615 13.9244 20.3829C13.8741 20.5043 13.8004 20.6146 13.7075 20.7075C13.6146 20.8004 13.5043 20.8741 13.3829 20.9244C13.2615 20.9747 13.1314 21.0006 13 21.0006C12.8686 21.0006 12.7385 20.9747 12.6171 20.9244C12.4957 20.8741 12.3854 20.8004 12.2925 20.7075L9.2925 17.7075C9.19952 17.6146 9.12576 17.5043 9.07544 17.3829C9.02512 17.2615 8.99921 17.1314 8.99921 17C8.99921 16.8686 9.02512 16.7385 9.07544 16.6171C9.12576 16.4957 9.19952 16.3854 9.2925 16.2925L12.2925 13.2925C12.4801 13.1049 12.7346 12.9994 13 12.9994C13.2654 12.9994 13.5199 13.1049 13.7075 13.2925C13.8951 13.4801 14.0006 13.7346 14.0006 14C14.0006 14.2654 13.8951 14.5199 13.7075 14.7075L12.4137 16H21V13C21 12.7348 21.1054 12.4804 21.2929 12.2929C21.4804 12.1054 21.7348 12 22 12C22.2652 12 22.5196 12.1054 22.7071 12.2929C22.8946 12.4804 23 12.7348 23 13V17Z" fill="#4A4A4F"/>
</svg>
