<svg width="32" height="32" viewBox="0 0 32 32" fill="none" xmlns="http://www.w3.org/2000/svg">
<path d="M26.9399 26.6575L20.5637 9.125L21.6999 6H22.9999C23.2652 6 23.5195 5.89464 23.7071 5.70711C23.8946 5.51957 23.9999 5.26522 23.9999 5C23.9999 4.73478 23.8946 4.48043 23.7071 4.29289C23.5195 4.10536 23.2652 4 22.9999 4H10.9999C10.7347 4 10.4804 4.10536 10.2928 4.29289C10.1053 4.48043 9.99995 4.73478 9.99995 5C9.99995 5.26522 10.1053 5.51957 10.2928 5.70711C10.4804 5.89464 10.7347 6 10.9999 6H11.5724L4.05995 26.6575C4.01494 26.781 3.99473 26.9122 4.00047 27.0435C4.00621 27.1749 4.03778 27.3038 4.0934 27.4229C4.14901 27.542 4.22756 27.649 4.32456 27.7377C4.42156 27.8265 4.53511 27.8952 4.6587 27.94C4.76818 27.9794 4.8836 27.9997 4.99995 28C5.20531 28 5.4057 27.9368 5.57387 27.8189C5.74205 27.7011 5.86987 27.5343 5.93995 27.3412L7.15495 24H13.0299L12.0624 26.6575C12.0174 26.781 11.9972 26.9122 12.003 27.0435C12.0087 27.1749 12.0403 27.3038 12.0959 27.4229C12.1515 27.542 12.2301 27.649 12.3271 27.7377C12.4241 27.8265 12.5376 27.8952 12.6612 27.94C12.7699 27.9791 12.8844 27.9994 12.9999 28C13.2053 28 13.4057 27.9368 13.5739 27.8189C13.7421 27.7011 13.8699 27.5343 13.9399 27.3412L16.2499 21H22.7499L25.0562 27.3412C25.1265 27.5349 25.2549 27.7021 25.4238 27.82C25.5927 27.9379 25.7939 28.0008 25.9999 28C26.1163 27.9997 26.2317 27.9794 26.3412 27.94C26.4648 27.8952 26.5783 27.8265 26.6753 27.7377C26.7723 27.649 26.8509 27.542 26.9065 27.4229C26.9621 27.3038 26.9937 27.1749 26.9994 27.0435C27.0052 26.9122 26.985 26.781 26.9399 26.6575ZM13.5449 8H17.5449C17.8102 8 18.0645 8.10536 18.2521 8.29289C18.4396 8.48043 18.5449 8.73478 18.5449 9C18.5449 9.26522 18.4396 9.51957 18.2521 9.70711C18.0645 9.89464 17.8102 10 17.5449 10H13.5449C13.2797 10 13.0254 9.89464 12.8378 9.70711C12.6503 9.51957 12.5449 9.26522 12.5449 9C12.5449 8.73478 12.6503 8.48043 12.8378 8.29289C13.0254 8.10536 13.2797 8 13.5449 8ZM13.9087 20H9.9087C9.64348 20 9.38913 19.8946 9.20159 19.7071C9.01405 19.5196 8.9087 19.2652 8.9087 19C8.9087 18.7348 9.01405 18.4804 9.20159 18.2929C9.38913 18.1054 9.64348 18 9.9087 18H13.9087C14.1739 18 14.4283 18.1054 14.6158 18.2929C14.8033 18.4804 14.9087 18.7348 14.9087 19C14.9087 19.2652 14.8033 19.5196 14.6158 19.7071C14.4283 19.8946 14.1739 20 13.9087 20ZM15.7274 15H11.7274C11.4622 15 11.2079 14.8946 11.0203 14.7071C10.8328 14.5196 10.7274 14.2652 10.7274 14C10.7274 13.7348 10.8328 13.4804 11.0203 13.2929C11.2079 13.1054 11.4622 13 11.7274 13H15.7274C15.9927 13 16.247 13.1054 16.4346 13.2929C16.6221 13.4804 16.7274 13.7348 16.7274 14C16.7274 14.2652 16.6221 14.5196 16.4346 14.7071C16.247 14.8946 15.9927 15 15.7274 15ZM16.9774 19L19.4999 12.0513L22.0262 19H16.9774Z" fill="#4A4A4F"/>
</svg>
