<svg width="32" height="32" viewBox="0 0 32 32" fill="none" xmlns="http://www.w3.org/2000/svg">
<path d="M24 3C23.7348 3 23.4804 3.10536 23.2929 3.29289C23.1054 3.48043 23 3.73478 23 4V5H9V4C9 3.73478 8.89464 3.48043 8.70711 3.29289C8.51957 3.10536 8.26522 3 8 3C7.73478 3 7.48043 3.10536 7.29289 3.29289C7.10536 3.48043 7 3.73478 7 4V28C7 28.2652 7.10536 28.5196 7.29289 28.7071C7.48043 28.8946 7.73478 29 8 29C8.26522 29 8.51957 28.8946 8.70711 28.7071C8.89464 28.5196 9 28.2652 9 28V27H23V28C23 28.2652 23.1054 28.5196 23.2929 28.7071C23.4804 28.8946 23.7348 29 24 29C24.2652 29 24.5196 28.8946 24.7071 28.7071C24.8946 28.5196 25 28.2652 25 28V4C25 3.73478 24.8946 3.48043 24.7071 3.29289C24.5196 3.10536 24.2652 3 24 3ZM22 23H10C9.73478 23 9.48043 22.8946 9.29289 22.7071C9.10536 22.5196 9 22.2652 9 22C9 21.7348 9.10536 21.4804 9.29289 21.2929C9.48043 21.1054 9.73478 21 10 21H22C22.2652 21 22.5196 21.1054 22.7071 21.2929C22.8946 21.4804 23 21.7348 23 22C23 22.2652 22.8946 22.5196 22.7071 22.7071C22.5196 22.8946 22.2652 23 22 23ZM22 17H10C9.73478 17 9.48043 16.8946 9.29289 16.7071C9.10536 16.5196 9 16.2652 9 16C9 15.7348 9.10536 15.4804 9.29289 15.2929C9.48043 15.1054 9.73478 15 10 15H22C22.2652 15 22.5196 15.1054 22.7071 15.2929C22.8946 15.4804 23 15.7348 23 16C23 16.2652 22.8946 16.5196 22.7071 16.7071C22.5196 16.8946 22.2652 17 22 17ZM22 11H10C9.73478 11 9.48043 10.8946 9.29289 10.7071C9.10536 10.5196 9 10.2652 9 10C9 9.73478 9.10536 9.48043 9.29289 9.29289C9.48043 9.10536 9.73478 9 10 9H22C22.2652 9 22.5196 9.10536 22.7071 9.29289C22.8946 9.48043 23 9.73478 23 10C23 10.2652 22.8946 10.5196 22.7071 10.7071C22.5196 10.8946 22.2652 11 22 11Z" fill="#4A4A4F"/>
</svg>
