<svg width="32" height="32" viewBox="0 0 32 32" fill="none" xmlns="http://www.w3.org/2000/svg">
<path d="M30.835 19.55C30.744 19.6883 30.62 19.8018 30.4743 19.8803C30.3285 19.9588 30.1656 20 30 20H26V24C26 24.2652 25.8947 24.5196 25.7071 24.7071C25.5196 24.8946 25.2652 25 25 25C24.7348 25 24.4804 24.8946 24.2929 24.7071C24.1054 24.5196 24 24.2652 24 24V20H17V26H20C20.2652 26 20.5196 26.1054 20.7071 26.2929C20.8947 26.4804 21 26.7348 21 27C21 27.2652 20.8947 27.5196 20.7071 27.7071C20.5196 27.8946 20.2652 28 20 28H12C11.7348 28 11.4805 27.8946 11.2929 27.7071C11.1054 27.5196 11 27.2652 11 27C11 26.7348 11.1054 26.4804 11.2929 26.2929C11.4805 26.1054 11.7348 26 12 26H15V20H2.00002C1.83459 19.9999 1.67177 19.9588 1.52614 19.8803C1.38051 19.8019 1.25662 19.6885 1.16557 19.5504C1.07452 19.4123 1.01916 19.2537 1.00445 19.0889C0.989739 18.9242 1.01613 18.7583 1.08127 18.6063L7.08127 4.60625C7.15831 4.4264 7.28642 4.2731 7.44973 4.16534C7.61303 4.05758 7.80436 4.00009 8.00002 4H24C24.1957 4.00009 24.387 4.05758 24.5503 4.16534C24.7136 4.2731 24.8417 4.4264 24.9188 4.60625L30.9188 18.6063C30.9839 18.7582 31.0104 18.924 30.9958 19.0887C30.9811 19.2534 30.9259 19.4119 30.835 19.55Z" fill="#4A4A4F"/>
</svg>
