<svg width="32" height="32" viewBox="0 0 32 32" fill="none" xmlns="http://www.w3.org/2000/svg">
<path d="M29 21H28V9C28 8.20435 27.6839 7.44129 27.1213 6.87868C26.5587 6.31607 25.7956 6 25 6H7C6.20435 6 5.44129 6.31607 4.87868 6.87868C4.31607 7.44129 4 8.20435 4 9V21H3C2.73478 21 2.48043 21.1054 2.29289 21.2929C2.10536 21.4804 2 21.7348 2 22V24C2 24.7956 2.31607 25.5587 2.87868 26.1213C3.44129 26.6839 4.20435 27 5 27H27C27.7956 27 28.5587 26.6839 29.1213 26.1213C29.6839 25.5587 30 24.7956 30 24V22C30 21.7348 29.8946 21.4804 29.7071 21.2929C29.5196 21.1054 29.2652 21 29 21ZM14 9H18C18.2652 9 18.5196 9.10536 18.7071 9.29289C18.8946 9.48043 19 9.73478 19 10C19 10.2652 18.8946 10.5196 18.7071 10.7071C18.5196 10.8946 18.2652 11 18 11H14C13.7348 11 13.4804 10.8946 13.2929 10.7071C13.1054 10.5196 13 10.2652 13 10C13 9.73478 13.1054 9.48043 13.2929 9.29289C13.4804 9.10536 13.7348 9 14 9ZM28 24C28 24.2652 27.8946 24.5196 27.7071 24.7071C27.5196 24.8946 27.2652 25 27 25H5C4.73478 25 4.48043 24.8946 4.29289 24.7071C4.10536 24.5196 4 24.2652 4 24V23H28V24Z" fill="#4A4A4F"/>
</svg>
