<svg width="32" height="32" viewBox="0 0 32 32" fill="none" xmlns="http://www.w3.org/2000/svg">
<path d="M27.9313 5.0089C27.917 4.76425 27.8134 4.53337 27.6401 4.36009C27.4668 4.1868 27.236 4.08318 26.9913 4.0689C17.4751 3.51015 9.85257 6.37514 6.60257 11.7501C5.47602 13.5888 4.92089 15.7206 5.00757 17.8751C5.07882 19.8651 5.65882 21.8751 6.73132 23.8564L4.29257 26.2939C4.10493 26.4815 3.99951 26.736 3.99951 27.0014C3.99951 27.2668 4.10493 27.5213 4.29257 27.7089C4.48021 27.8965 4.7347 28.002 5.00007 28.002C5.26543 28.002 5.51993 27.8965 5.70757 27.7089L8.14507 25.2701C10.1251 26.3414 12.1363 26.9214 14.1251 26.9926C14.2642 26.9976 14.403 27.0001 14.5413 27.0001C16.556 27.0055 18.5325 26.4507 20.2501 25.3976C25.6251 22.1476 28.4913 14.5264 27.9313 5.0089ZM19.2188 23.6876C16.3751 25.4101 13.0088 25.4376 9.63007 23.7839L20.7088 12.7064C20.8017 12.6135 20.8754 12.5032 20.9257 12.3818C20.976 12.2604 21.0019 12.1303 21.0019 11.9989C21.0019 11.8675 20.976 11.7374 20.9257 11.616C20.8754 11.4946 20.8017 11.3843 20.7088 11.2914C20.6159 11.1985 20.5056 11.1248 20.3842 11.0745C20.2628 11.0242 20.1327 10.9983 20.0013 10.9983C19.8699 10.9983 19.7398 11.0242 19.6184 11.0745C19.497 11.1248 19.3867 11.1985 19.2938 11.2914L8.21632 22.3751C6.56757 19.0001 6.59132 15.6251 8.31257 12.7864C11.0738 8.22764 17.6376 5.7314 25.9763 6.0289C26.2751 14.3614 23.7776 20.9264 19.2188 23.6876Z" fill="#4A4A4F"/>
</svg>
