<svg width="32" height="32" viewBox="0 0 32 32" fill="none" xmlns="http://www.w3.org/2000/svg">
<path d="M27.9313 5.0089C27.917 4.76425 27.8134 4.53337 27.6401 4.36009C27.4669 4.1868 27.236 4.08318 26.9913 4.0689C17.4751 3.51015 9.85258 6.37514 6.60258 11.7501C5.47604 13.5888 4.9209 15.7206 5.00758 17.8751C5.06416 19.2529 5.34449 20.6124 5.83758 21.9001C5.86655 21.9794 5.91512 22.05 5.97874 22.1055C6.04236 22.1609 6.11898 22.1993 6.20146 22.2172C6.28393 22.235 6.36958 22.2317 6.45043 22.2075C6.53128 22.1833 6.60469 22.1391 6.66383 22.0789L17.2888 11.2914C17.3817 11.1985 17.492 11.1248 17.6134 11.0745C17.7348 11.0242 17.8649 10.9983 17.9963 10.9983C18.1277 10.9983 18.2578 11.0242 18.3792 11.0745C18.5006 11.1248 18.6109 11.1985 18.7038 11.2914C18.7967 11.3843 18.8704 11.4946 18.9207 11.616C18.971 11.7374 18.9969 11.8675 18.9969 11.9989C18.9969 12.1303 18.971 12.2604 18.9207 12.3818C18.8704 12.5032 18.7967 12.6135 18.7038 12.7064L7.09258 24.4926L5.31883 26.2664C5.13436 26.446 5.02423 26.6884 5.01034 26.9455C4.99644 27.2026 5.0798 27.4555 5.24383 27.6539C5.33366 27.7579 5.44398 27.8423 5.56789 27.9018C5.6918 27.9613 5.82664 27.9946 5.964 27.9996C6.10135 28.0047 6.23827 27.9814 6.36621 27.9311C6.49415 27.8809 6.61036 27.8048 6.70758 27.7076L8.80633 25.6089C10.5738 26.4639 12.3576 26.9301 14.1263 26.9926C14.2655 26.9976 14.4042 27.0001 14.5426 27.0001C16.5568 27.0053 18.5329 26.4505 20.2501 25.3976C25.6251 22.1476 28.4913 14.5264 27.9313 5.0089Z" fill="#4A4A4F"/>
</svg>
