<svg width="32" height="32" viewBox="0 0 32 32" fill="none" xmlns="http://www.w3.org/2000/svg">
<path d="M21.9999 28.9998C21.9999 29.265 21.8946 29.5193 21.707 29.7069C21.5195 29.8944 21.2651 29.9998 20.9999 29.9998H10.9999C10.7347 29.9998 10.4803 29.8944 10.2928 29.7069C10.1053 29.5193 9.99992 29.265 9.99992 28.9998C9.99992 28.7346 10.1053 28.4802 10.2928 28.2927C10.4803 28.1051 10.7347 27.9998 10.9999 27.9998H20.9999C21.2651 27.9998 21.5195 28.1051 21.707 28.2927C21.8946 28.4802 21.9999 28.7346 21.9999 28.9998ZM26.9999 12.9998C27.0042 14.6668 26.6276 16.3128 25.8989 17.8122C25.1701 19.3115 24.1085 20.6245 22.7949 21.651C22.5493 21.8393 22.35 22.0812 22.2122 22.3583C22.0744 22.6354 22.0018 22.9403 21.9999 23.2498V23.9998C21.9999 24.5302 21.7892 25.0389 21.4141 25.414C21.0391 25.7891 20.5304 25.9998 19.9999 25.9998H11.9999C11.4695 25.9998 10.9608 25.7891 10.5857 25.414C10.2106 25.0389 9.99992 24.5302 9.99992 23.9998V23.2498C9.99971 22.944 9.92941 22.6424 9.79441 22.368C9.65941 22.0937 9.4633 21.854 9.22117 21.6673C7.91092 20.6468 6.84998 19.3417 6.11864 17.8507C5.38731 16.3596 5.00475 14.7218 4.99992 13.061C4.96742 7.10352 9.78242 2.14227 15.7349 1.99977C17.2016 1.96443 18.6605 2.22284 20.0259 2.7598C21.3912 3.29675 22.6353 4.1014 23.685 5.12639C24.7347 6.15137 25.5687 7.37598 26.138 8.72814C26.7073 10.0803 27.0003 11.5327 26.9999 12.9998ZM24.9999 12.9998C25.0003 11.7994 24.7605 10.611 24.2946 9.50463C23.8288 8.39828 23.1464 7.3963 22.2875 6.55766C21.4286 5.71903 20.4106 5.06069 19.2934 4.62141C18.1762 4.18212 16.9825 3.97076 15.7824 3.99977C10.9074 4.11477 6.97367 8.17352 6.99992 13.0485C7.00449 14.4068 7.31791 15.7462 7.91649 16.9654C8.51506 18.1846 9.38309 19.2518 10.4549 20.086C10.9367 20.4606 11.3264 20.9404 11.5942 21.4888C11.862 22.0371 12.0008 22.6395 11.9999 23.2498V23.9998H19.9999V23.2498C20.0013 22.6378 20.1425 22.0342 20.4126 21.485C20.6827 20.9359 21.0747 20.4556 21.5587 20.081C22.6338 19.2408 23.5027 18.1661 24.0991 16.9388C24.6955 15.7116 25.0036 14.3643 24.9999 12.9998ZM22.9862 11.8323C22.7269 10.3839 22.03 9.04973 20.9895 8.0094C19.9489 6.96907 18.6146 6.27252 17.1662 6.01353C17.0367 5.99169 16.9041 5.99558 16.7761 6.02498C16.6481 6.05437 16.5271 6.10869 16.4201 6.18483C16.3131 6.26098 16.2221 6.35746 16.1524 6.46876C16.0826 6.58006 16.0355 6.70401 16.0137 6.83352C15.9918 6.96304 15.9957 7.09559 16.0251 7.2236C16.0545 7.35161 16.1088 7.47258 16.185 7.5796C16.2611 7.68662 16.3576 7.7776 16.4689 7.84733C16.5802 7.91706 16.7042 7.96419 16.8337 7.98602C18.9049 8.33477 20.6624 10.0923 21.0137 12.1673C21.0532 12.4002 21.174 12.6116 21.3545 12.7639C21.535 12.9163 21.7637 12.9999 21.9999 12.9998C22.0564 12.9994 22.1128 12.9948 22.1687 12.986C22.4301 12.9414 22.663 12.7948 22.8163 12.5784C22.9696 12.3621 23.0307 12.0937 22.9862 11.8323Z" fill="#4A4A4F"/>
</svg>
