<svg width="32" height="32" viewBox="0 0 32 32" fill="none" xmlns="http://www.w3.org/2000/svg">
<path d="M21.7337 14.8224L9.83373 27.6787C9.68386 27.8418 9.48407 27.9505 9.26572 27.9878C9.04737 28.0251 8.82282 27.9888 8.6273 27.8847C8.43179 27.7806 8.27638 27.6145 8.18546 27.4125C8.09455 27.2105 8.07327 26.984 8.12498 26.7687L9.83373 19.5737L3.58373 16.7687C3.43904 16.7036 3.31191 16.605 3.21284 16.4811C3.11377 16.3572 3.0456 16.2115 3.01397 16.056C2.98234 15.9005 2.98816 15.7398 3.03093 15.587C3.07371 15.4342 3.15222 15.2938 3.25998 15.1774L15.16 2.32115C15.309 2.1547 15.5096 2.04297 15.7295 2.00378C15.9495 1.96459 16.1763 2.00021 16.3736 2.10493C16.571 2.20966 16.7276 2.37748 16.8185 2.5816C16.9094 2.78573 16.9292 3.01441 16.875 3.23115L15.1637 10.4262L21.4137 13.2299C21.5586 13.2949 21.686 13.3935 21.7852 13.5175C21.8844 13.6415 21.9527 13.7874 21.9843 13.9431C22.016 14.0987 22.0101 14.2596 21.9672 14.4126C21.9242 14.5655 21.8455 14.706 21.7375 14.8224H21.7337ZM29.4475 27.8937C29.3087 27.9638 29.1554 28.0002 29 27.9999C28.8142 28 28.6321 27.9484 28.474 27.8508C28.3159 27.7532 28.1881 27.6135 28.105 27.4474L26.8812 24.9999H22.1175L20.8937 27.4474C20.775 27.6846 20.567 27.8649 20.3153 27.9488C20.0637 28.0326 19.7891 28.013 19.5519 27.8943C19.3146 27.7756 19.1343 27.5675 19.0505 27.3159C18.9667 27.0642 18.9863 26.7896 19.105 26.5524L23.605 17.5524C23.688 17.3863 23.8157 17.2467 23.9737 17.149C24.1316 17.0514 24.3137 16.9997 24.4994 16.9997C24.685 16.9997 24.8671 17.0514 25.025 17.149C25.183 17.2467 25.3107 17.3863 25.3937 17.5524L29.8937 26.5524C30.0123 26.7895 30.0319 27.0639 29.9482 27.3154C29.8645 27.5669 29.6844 27.7749 29.4475 27.8937ZM25.8812 22.9999L24.5 20.2362L23.1175 22.9999H25.8812Z" fill="#4A4A4F"/>
</svg>
