<svg width="32" height="32" viewBox="0 0 32 32" fill="none" xmlns="http://www.w3.org/2000/svg">
<path d="M26 9.99999C25.7348 9.99999 25.4804 10.1053 25.2929 10.2929C25.1054 10.4804 25 10.7348 25 11V13H23.6063L23 6.89999C22.9741 6.64862 22.8539 6.41639 22.6637 6.24999L17.305 1.48499L17.28 1.46374C16.9206 1.16441 16.4677 1.00049 16 1.00049C15.5323 1.00049 15.0794 1.16441 14.72 1.46374L14.695 1.48499L9.335 6.24999C9.14458 6.41604 9.02475 6.64855 9 6.89999L8.39375 13H7V11C7 10.7348 6.89464 10.4804 6.70711 10.2929C6.51957 10.1053 6.26522 9.99999 6 9.99999C5.73478 9.99999 5.48043 10.1053 5.29289 10.2929C5.10536 10.4804 5 10.7348 5 11V14C5 14.2652 5.10536 14.5196 5.29289 14.7071C5.48043 14.8946 5.73478 15 6 15H8.1925L7.00875 26.81C6.98227 27.0874 7.01407 27.3673 7.1021 27.6317C7.19013 27.8962 7.33245 28.1393 7.51994 28.3455C7.70742 28.5517 7.93593 28.7164 8.19081 28.8291C8.44569 28.9418 8.72131 29 9 29H23C23.279 28.9999 23.555 28.9415 23.8101 28.8284C24.0652 28.7153 24.2938 28.5501 24.4812 28.3433C24.6687 28.1366 24.8108 27.8929 24.8984 27.628C24.986 27.363 25.0172 27.0827 24.99 26.805L23.8075 15H26C26.2652 15 26.5196 14.8946 26.7071 14.7071C26.8946 14.5196 27 14.2652 27 14V11C27 10.7348 26.8946 10.4804 26.7071 10.2929C26.5196 10.1053 26.2652 9.99999 26 9.99999ZM10.905 7.99999H21.095L21.595 13H17V11C17 10.7348 16.8946 10.4804 16.7071 10.2929C16.5196 10.1053 16.2652 9.99999 16 9.99999C15.7348 9.99999 15.4804 10.1053 15.2929 10.2929C15.1054 10.4804 15 10.7348 15 11V13H10.4038L10.905 7.99999ZM9 27L9.60125 21H22.3988L23 27H9Z" fill="#4A4A4F"/>
</svg>
