<svg width="32" height="32" viewBox="0 0 32 32" fill="none" xmlns="http://www.w3.org/2000/svg">
<path d="M21.9801 13.9425C21.9484 13.787 21.8802 13.6413 21.7811 13.5174C21.682 13.3936 21.5548 13.295 21.4101 13.23L15.1601 10.4262L16.8751 3.23125C16.9258 3.01639 16.904 2.79078 16.8131 2.58961C16.7222 2.38843 16.5672 2.223 16.3724 2.11911C16.1776 2.01522 15.9539 1.97871 15.7362 2.01528C15.5185 2.05184 15.319 2.15942 15.1688 2.32125L3.26633 15.1775C3.15857 15.2939 3.08006 15.4343 3.03728 15.5871C2.9945 15.7399 2.98869 15.9006 3.02032 16.0561C3.05195 16.2116 3.12012 16.3573 3.21919 16.4812C3.31826 16.6051 3.44539 16.7037 3.59008 16.7687L9.84008 19.5737L8.12508 26.7687C8.07435 26.9836 8.09615 27.2092 8.18707 27.4104C8.278 27.6116 8.43294 27.777 8.62773 27.8809C8.82253 27.9848 9.04622 28.0213 9.26394 27.9847C9.48166 27.9482 9.68116 27.8406 9.83133 27.6787L21.7313 14.8225C21.8398 14.7062 21.9189 14.5656 21.9622 14.4126C22.0055 14.2595 22.0116 14.0984 21.9801 13.9425ZM10.9526 23.5262L11.9726 19.2312C12.0265 19.0049 11.9998 18.7669 11.8972 18.5581C11.7945 18.3494 11.6222 18.1829 11.4101 18.0875L5.67883 15.515L14.0476 6.47375L13.0276 10.7687C12.9737 10.9951 13.0003 11.2331 13.103 11.4418C13.2057 11.6506 13.3779 11.817 13.5901 11.9125L19.3201 14.485L10.9526 23.5262ZM29.8938 26.5525L25.3938 17.5525C25.3108 17.3864 25.1831 17.2467 25.0251 17.1491C24.8672 17.0515 24.6851 16.9998 24.4995 16.9998C24.3138 16.9998 24.1317 17.0515 23.9738 17.1491C23.8158 17.2467 23.6881 17.3864 23.6051 17.5525L19.1051 26.5525C18.9864 26.7897 18.9668 27.0643 19.0506 27.316C19.1344 27.5676 19.3147 27.7757 19.552 27.8944C19.7892 28.0131 20.0638 28.0326 20.3154 27.9488C20.5671 27.865 20.7751 27.6847 20.8938 27.4475L22.1176 25H26.8813L28.1051 27.4475C28.1882 27.6136 28.316 27.7533 28.4741 27.8509C28.6322 27.9485 28.8143 28.0001 29.0001 28C29.1705 27.9999 29.3381 27.9563 29.4869 27.8732C29.6358 27.7901 29.7609 27.6704 29.8504 27.5254C29.94 27.3803 29.991 27.2148 29.9986 27.0446C30.0061 26.8743 29.9701 26.7049 29.8938 26.5525ZM23.1176 23L24.5001 20.2362L25.8813 23H23.1176Z" fill="#4A4A4F"/>
</svg>
