<svg width="32" height="32" viewBox="0 0 32 32" fill="none" xmlns="http://www.w3.org/2000/svg">
<path d="M21.9999 28.9998C21.9999 29.265 21.8946 29.5193 21.707 29.7069C21.5195 29.8944 21.2651 29.9998 20.9999 29.9998H10.9999C10.7347 29.9998 10.4803 29.8944 10.2928 29.7069C10.1053 29.5193 9.99992 29.265 9.99992 28.9998C9.99992 28.7346 10.1053 28.4802 10.2928 28.2927C10.4803 28.1051 10.7347 27.9998 10.9999 27.9998H20.9999C21.2651 27.9998 21.5195 28.1051 21.707 28.2927C21.8946 28.4802 21.9999 28.7346 21.9999 28.9998ZM26.9999 12.9998C27.0042 14.6668 26.6276 16.3128 25.8989 17.8122C25.1701 19.3115 24.1085 20.6245 22.7949 21.651C22.5493 21.8393 22.35 22.0812 22.2122 22.3583C22.0744 22.6354 22.0018 22.9403 21.9999 23.2498V23.9998C21.9999 24.5302 21.7892 25.0389 21.4141 25.414C21.0391 25.7891 20.5304 25.9998 19.9999 25.9998H11.9999C11.4695 25.9998 10.9608 25.7891 10.5857 25.414C10.2106 25.0389 9.99992 24.5302 9.99992 23.9998V23.2498C9.99971 22.944 9.92941 22.6424 9.79441 22.368C9.65941 22.0937 9.4633 21.854 9.22117 21.6673C7.91092 20.6468 6.84998 19.3417 6.11864 17.8507C5.38731 16.3596 5.00475 14.7218 4.99992 13.061C4.96742 7.10352 9.78242 2.14227 15.7349 1.99977C17.2016 1.96443 18.6605 2.22284 20.0259 2.7598C21.3912 3.29675 22.6353 4.1014 23.685 5.12639C24.7347 6.15137 25.5687 7.37598 26.138 8.72814C26.7073 10.0803 27.0003 11.5327 26.9999 12.9998ZM20.7074 13.2923C20.6145 13.1993 20.5043 13.1255 20.3829 13.0752C20.2615 13.0249 20.1313 12.999 19.9999 12.999C19.8685 12.999 19.7384 13.0249 19.617 13.0752C19.4956 13.1255 19.3853 13.1993 19.2924 13.2923L15.9999 16.586L12.7074 13.2923C12.5198 13.1046 12.2653 12.9992 11.9999 12.9992C11.7346 12.9992 11.4801 13.1046 11.2924 13.2923C11.1048 13.4799 10.9994 13.7344 10.9994 13.9998C10.9994 14.2651 11.1048 14.5196 11.2924 14.7073L14.9999 18.4135V22.9998C14.9999 23.265 15.1053 23.5193 15.2928 23.7069C15.4803 23.8944 15.7347 23.9998 15.9999 23.9998C16.2651 23.9998 16.5195 23.8944 16.707 23.7069C16.8946 23.5193 16.9999 23.265 16.9999 22.9998V18.4135L20.7074 14.7073C20.8004 14.6144 20.8742 14.5041 20.9245 14.3827C20.9748 14.2613 21.0007 14.1312 21.0007 13.9998C21.0007 13.8684 20.9748 13.7382 20.9245 13.6168C20.8742 13.4954 20.8004 13.3851 20.7074 13.2923Z" fill="#4A4A4F"/>
</svg>
