<svg width="32" height="32" viewBox="0 0 32 32" fill="none" xmlns="http://www.w3.org/2000/svg">
<path d="M26.9738 14.7711C26.9359 14.6108 26.8591 14.4624 26.75 14.339C26.641 14.2156 26.5032 14.121 26.3488 14.0636L19.1475 11.3624L20.98 2.19612C21.0215 1.98315 20.9926 1.76246 20.8977 1.56735C20.8028 1.37224 20.6469 1.21331 20.4538 1.11453C20.2606 1.01574 20.0405 0.982477 19.8267 1.01974C19.613 1.05701 19.4172 1.16279 19.2688 1.32112L5.26879 16.3211C5.15508 16.4409 5.07283 16.5871 5.02937 16.7464C4.98591 16.9058 4.98261 17.0734 5.01975 17.2344C5.05689 17.3953 5.13332 17.5446 5.24222 17.6688C5.35111 17.793 5.48908 17.8883 5.64379 17.9461L12.8475 20.6474L11.02 29.8036C10.9785 30.0166 11.0074 30.2373 11.1024 30.4324C11.1973 30.6275 11.3531 30.7864 11.5463 30.8852C11.7395 30.984 11.9596 31.0173 12.1733 30.98C12.3871 30.9427 12.5829 30.837 12.7313 30.6786L26.7313 15.6786C26.8429 15.5588 26.9234 15.4134 26.9657 15.2551C27.008 15.0969 27.0108 14.9307 26.9738 14.7711ZM13.6713 26.7499L14.98 20.2024C15.0269 19.9702 14.9898 19.7289 14.8753 19.5215C14.7608 19.3141 14.5765 19.154 14.355 19.0699L7.75004 16.5886L18.3275 5.25612L17.02 11.8036C16.9732 12.0358 17.0103 12.2771 17.1248 12.4845C17.2392 12.6919 17.4236 12.852 17.645 12.9361L24.245 15.4111L13.6713 26.7499Z" fill="#4A4A4F"/>
</svg>
