<svg width="32" height="32" viewBox="0 0 32 32" fill="none" xmlns="http://www.w3.org/2000/svg">
<path d="M17.1925 23.2952C17.3799 23.4827 17.4851 23.7369 17.4851 24.0021C17.4851 24.2672 17.3799 24.5214 17.1925 24.7089L15.95 25.9589C14.636 27.2721 12.8542 28.0095 10.9965 28.0089C9.13884 28.0083 7.3575 27.2698 6.04434 25.9558C4.73119 24.6418 3.9938 22.86 3.99439 21.0023C3.99497 19.1447 4.73349 17.3633 6.04747 16.0502L9.06247 13.0352C10.3246 11.7721 12.0217 11.039 13.8065 10.986C15.5913 10.9331 17.3289 11.5641 18.6637 12.7502C18.7622 12.8375 18.8425 12.9434 18.9001 13.0618C18.9577 13.1801 18.9914 13.3087 18.9993 13.4401C19.0072 13.5715 18.9891 13.7031 18.9461 13.8275C18.9031 13.952 18.836 14.0667 18.7487 14.1652C18.6614 14.2637 18.5555 14.344 18.4371 14.4016C18.3188 14.4591 18.1902 14.4928 18.0588 14.5007C17.9274 14.5086 17.7958 14.4906 17.6714 14.4476C17.5469 14.4046 17.4322 14.3375 17.3337 14.2502C16.3804 13.4036 15.1396 12.9531 13.8651 12.991C12.5907 13.0289 11.3789 13.5522 10.4775 14.4539L7.46247 17.4652C6.5246 18.403 5.99771 19.6751 5.99771 21.0014C5.99771 22.3278 6.5246 23.5998 7.46247 24.5377C8.40034 25.4755 9.67237 26.0024 10.9987 26.0024C12.3251 26.0024 13.5971 25.4755 14.535 24.5377L15.7775 23.2952C15.8703 23.2022 15.9806 23.1284 16.102 23.0781C16.2234 23.0278 16.3536 23.0019 16.485 23.0019C16.6164 23.0019 16.7465 23.0278 16.8679 23.0781C16.9893 23.1284 17.0996 23.2022 17.1925 23.2952ZM25.9525 6.04518C24.6383 4.73395 22.8577 3.99756 21.0012 3.99756C19.1448 3.99756 17.3641 4.73395 16.05 6.04518L14.8075 7.28893C14.62 7.47657 14.5147 7.731 14.5149 7.99624C14.515 8.26149 14.6205 8.51583 14.8081 8.7033C14.9957 8.89078 15.2502 8.99603 15.5154 8.99592C15.7807 8.9958 16.035 8.89032 16.2225 8.70268L17.465 7.46018C18.4028 6.52231 19.6749 5.99542 21.0012 5.99542C22.3276 5.99542 23.5996 6.52231 24.5375 7.46018C25.4753 8.39805 26.0022 9.67008 26.0022 10.9964C26.0022 12.3228 25.4753 13.5948 24.5375 14.5327L21.5225 17.5502C20.6206 18.4514 19.4085 18.974 18.134 19.0112C16.8596 19.0484 15.6191 18.5973 14.6662 17.7502C14.5677 17.6628 14.453 17.5958 14.3286 17.5528C14.2042 17.5098 14.0725 17.4917 13.9411 17.4996C13.6758 17.5156 13.4276 17.6363 13.2512 17.8352C13.1639 17.9337 13.0968 18.0484 13.0538 18.1728C13.0108 18.2972 12.9928 18.4289 13.0007 18.5603C13.0166 18.8256 13.1373 19.0738 13.3362 19.2502C14.6707 20.4365 16.4081 21.0681 18.1929 21.0156C19.9778 20.963 21.675 20.2304 22.9375 18.9677L25.9525 15.9527C27.2645 14.6384 28.0013 12.8572 28.0013 11.0002C28.0013 9.14313 27.2645 7.36196 25.9525 6.04768V6.04518Z" fill="#4A4A4F"/>
</svg>
