<svg width="32" height="32" viewBox="0 0 32 32" fill="none" xmlns="http://www.w3.org/2000/svg">
<path d="M3 16C3 17.3261 3.52678 18.5979 4.46447 19.5355C5.40215 20.4732 6.67392 21 8 21H13C13.2652 21 13.5196 21.1054 13.7071 21.2929C13.8946 21.4804 14 21.7348 14 22C14 22.2652 13.8946 22.5196 13.7071 22.7071C13.5196 22.8946 13.2652 23 13 23H8C6.14348 23 4.36301 22.2625 3.05025 20.9497C1.7375 19.637 1 17.8565 1 16C1 14.1435 1.7375 12.363 3.05025 11.0503C4.36301 9.7375 6.14348 9 8 9H13C13.2652 9 13.5196 9.10536 13.7071 9.29289C13.8946 9.48043 14 9.73478 14 10C14 10.2652 13.8946 10.5196 13.7071 10.7071C13.5196 10.8946 13.2652 11 13 11H8C6.67392 11 5.40215 11.5268 4.46447 12.4645C3.52678 13.4021 3 14.6739 3 16ZM24 9H19C18.7348 9 18.4804 9.10536 18.2929 9.29289C18.1054 9.48043 18 9.73478 18 10C18 10.2652 18.1054 10.5196 18.2929 10.7071C18.4804 10.8946 18.7348 11 19 11H24C25.3261 11 26.5979 11.5268 27.5355 12.4645C28.4732 13.4021 29 14.6739 29 16C29 17.3261 28.4732 18.5979 27.5355 19.5355C26.5979 20.4732 25.3261 21 24 21H19C18.7348 21 18.4804 21.1054 18.2929 21.2929C18.1054 21.4804 18 21.7348 18 22C18 22.2652 18.1054 22.5196 18.2929 22.7071C18.4804 22.8946 18.7348 23 19 23H24C25.8565 23 27.637 22.2625 28.9497 20.9497C30.2625 19.637 31 17.8565 31 16C31 14.1435 30.2625 12.363 28.9497 11.0503C27.637 9.7375 25.8565 9 24 9Z" fill="#4A4A4F"/>
</svg>
