<svg width="32" height="32" viewBox="0 0 32 32" fill="none" xmlns="http://www.w3.org/2000/svg">
<path d="M26 4H6C5.46957 4 4.96086 4.21071 4.58579 4.58579C4.21071 4.96086 4 5.46957 4 6V26C4 26.5304 4.21071 27.0391 4.58579 27.4142C4.96086 27.7893 5.46957 28 6 28H26C26.5304 28 27.0391 27.7893 27.4142 27.4142C27.7893 27.0391 28 26.5304 28 26V6C28 5.46957 27.7893 4.96086 27.4142 4.58579C27.0391 4.21071 26.5304 4 26 4ZM16.0713 23.7075L15.3888 24.3888C14.3528 25.3978 12.9611 25.9582 11.515 25.9487C10.0689 25.9391 8.68471 25.3604 7.66213 24.3379C6.63955 23.3153 6.06086 21.9311 6.05134 20.485C6.04182 19.0389 6.60223 17.6472 7.61125 16.6112L10.6112 13.6112C11.5119 12.713 12.6956 12.154 13.9615 12.0291C15.2274 11.9042 16.4975 12.2212 17.5562 12.9263C17.7767 13.0738 17.9295 13.3028 17.9811 13.563C18.0327 13.8233 17.9788 14.0933 17.8312 14.3138C17.6837 14.5342 17.4547 14.687 17.1945 14.7386C16.9342 14.7902 16.6642 14.7363 16.4438 14.5887C15.7704 14.1392 14.9621 13.9369 14.1563 14.0165C13.3506 14.096 12.5974 14.4524 12.025 15.025L9.025 18.025C8.36859 18.6814 7.99982 19.5717 7.99982 20.5C7.99982 21.4283 8.36859 22.3186 9.025 22.975C9.68141 23.6314 10.5717 24.0002 11.5 24.0002C12.4283 24.0002 13.3186 23.6314 13.975 22.975L14.6562 22.2925C14.8439 22.1049 15.0984 21.9994 15.3638 21.9994C15.6291 21.9994 15.8836 22.1049 16.0713 22.2925C16.2589 22.4801 16.3643 22.7346 16.3643 23C16.3643 23.2654 16.2589 23.5199 16.0713 23.7075ZM24.3888 15.3888L21.3888 18.3888C20.4881 19.287 19.3044 19.846 18.0385 19.9709C16.7726 20.0958 15.5025 19.7788 14.4438 19.0737C14.2233 18.9262 14.0705 18.6972 14.0189 18.437C13.9673 18.1767 14.0212 17.9067 14.1687 17.6863C14.3163 17.4658 14.5453 17.313 14.8055 17.2614C15.0658 17.2098 15.3358 17.2637 15.5562 17.4112C16.2301 17.8594 17.0381 18.0609 17.8434 17.9813C18.6488 17.9018 19.4018 17.5463 19.975 16.975L22.975 13.975C23.6314 13.3186 24.0002 12.4283 24.0002 11.5C24.0002 10.5717 23.6314 9.68141 22.975 9.025C22.3186 8.36859 21.4283 7.99982 20.5 7.99982C19.5717 7.99982 18.6814 8.36859 18.025 9.025L17.3438 9.7075C17.1561 9.89514 16.9016 10.0006 16.6362 10.0006C16.3709 10.0006 16.1164 9.89514 15.9288 9.7075C15.7411 9.51986 15.6357 9.26536 15.6357 9C15.6357 8.73464 15.7411 8.48014 15.9288 8.2925L16.6112 7.61125C17.6472 6.60223 19.0389 6.04182 20.485 6.05134C21.9311 6.06086 23.3153 6.63955 24.3379 7.66213C25.3604 8.68471 25.9391 10.0689 25.9487 11.515C25.9582 12.9611 25.3978 14.3528 24.3888 15.3888Z" fill="#4A4A4F"/>
</svg>
