<svg width="32" height="32" viewBox="0 0 32 32" fill="none" xmlns="http://www.w3.org/2000/svg">
<path d="M26 4H6C5.46957 4 4.96086 4.21071 4.58579 4.58579C4.21071 4.96086 4 5.46957 4 6V26C4 26.5304 4.21071 27.0391 4.58579 27.4142C4.96086 27.7893 5.46957 28 6 28H26C26.5304 28 27.0391 27.7893 27.4142 27.4142C27.7893 27.0391 28 26.5304 28 26V6C28 5.46957 27.7893 4.96086 27.4142 4.58579C27.0391 4.21071 26.5304 4 26 4ZM18.07 21.7075L15.3888 24.3888C14.3528 25.3978 12.9611 25.9582 11.515 25.9487C10.0689 25.9391 8.68471 25.3604 7.66213 24.3379C6.63955 23.3153 6.06086 21.9311 6.05134 20.485C6.04182 19.0389 6.60223 17.6472 7.61125 16.6112L10.2925 13.9288C10.3853 13.8358 10.4955 13.7621 10.6169 13.7118C10.7382 13.6615 10.8682 13.6356 10.9996 13.6355C11.1309 13.6355 11.261 13.6613 11.3823 13.7115C11.5037 13.7617 11.614 13.8353 11.7069 13.9281C11.7998 14.021 11.8735 14.1312 11.9238 14.2525C11.9741 14.3738 12.0001 14.5038 12.0001 14.6352C12.0002 14.7665 11.9744 14.8966 11.9242 15.0179C11.8739 15.1393 11.8003 15.2496 11.7075 15.3425L9.025 18.025C8.36859 18.6814 7.99982 19.5717 7.99982 20.5C7.99982 21.4283 8.36859 22.3186 9.025 22.975C9.68141 23.6314 10.5717 24.0002 11.5 24.0002C12.4283 24.0002 13.3186 23.6314 13.975 22.975L16.6562 20.2925C16.8439 20.105 17.0983 19.9998 17.3636 19.9999C17.6288 20 17.8832 20.1055 18.0706 20.2931C18.2581 20.4808 18.3634 20.7352 18.3632 21.0004C18.3631 21.2657 18.2576 21.52 18.07 21.7075ZM13.7075 19.7075C13.6146 19.8004 13.5043 19.8741 13.3829 19.9244C13.2615 19.9747 13.1314 20.0006 13 20.0006C12.8686 20.0006 12.7385 19.9747 12.6171 19.9244C12.4957 19.8741 12.3854 19.8004 12.2925 19.7075C12.1996 19.6146 12.1259 19.5043 12.0756 19.3829C12.0253 19.2615 11.9994 19.1314 11.9994 19C11.9994 18.8686 12.0253 18.7385 12.0756 18.6171C12.1259 18.4957 12.1996 18.3854 12.2925 18.2925L18.2925 12.2925C18.3854 12.1996 18.4957 12.1259 18.6171 12.0756C18.7385 12.0253 18.8686 11.9994 19 11.9994C19.1314 11.9994 19.2615 12.0253 19.3829 12.0756C19.5043 12.1259 19.6146 12.1996 19.7075 12.2925C19.8004 12.3854 19.8741 12.4957 19.9244 12.6171C19.9747 12.7385 20.0006 12.8686 20.0006 13C20.0006 13.1314 19.9747 13.2615 19.9244 13.3829C19.8741 13.5043 19.8004 13.6146 19.7075 13.7075L13.7075 19.7075ZM24.3888 15.3888L21.7075 18.07C21.52 18.2576 21.2657 18.3631 21.0004 18.3632C20.7352 18.3634 20.4808 18.2581 20.2931 18.0706C20.1055 17.8832 20 17.6288 19.9999 17.3636C19.9998 17.0983 20.105 16.8439 20.2925 16.6562L22.975 13.975C23.6314 13.3186 24.0002 12.4283 24.0002 11.5C24.0002 10.5717 23.6314 9.68141 22.975 9.025C22.3186 8.36859 21.4283 7.99982 20.5 7.99982C19.5717 7.99982 18.6814 8.36859 18.025 9.025L15.3425 11.7075C15.1549 11.895 14.9004 12.0002 14.6352 12.0001C14.3699 12 14.1156 11.8945 13.9281 11.7069C13.7407 11.5192 13.6354 11.2648 13.6355 10.9996C13.6356 10.7343 13.7411 10.48 13.9288 10.2925L16.6112 7.61125C17.6472 6.60223 19.0389 6.04182 20.485 6.05134C21.9311 6.06086 23.3153 6.63955 24.3379 7.66213C25.3604 8.68471 25.9391 10.0689 25.9487 11.515C25.9582 12.9611 25.3978 14.3528 24.3888 15.3888Z" fill="#4A4A4F"/>
</svg>
