<svg width="32" height="32" viewBox="0 0 32 32" fill="none" xmlns="http://www.w3.org/2000/svg">
<path d="M20.1524 27.2175C20.2039 27.2927 20.2339 27.3805 20.2391 27.4715C20.2443 27.5625 20.2245 27.6532 20.1819 27.7337C20.1393 27.8143 20.0755 27.8817 19.9974 27.9286C19.9193 27.9755 19.8298 28.0002 19.7387 28H12.2624C12.1713 28.0002 12.0818 27.9755 12.0037 27.9286C11.9256 27.8817 11.8618 27.8143 11.8192 27.7337C11.7766 27.6532 11.7568 27.5625 11.762 27.4715C11.7672 27.3805 11.7972 27.2927 11.8487 27.2175C12.3059 26.5361 12.9238 25.9777 13.6479 25.5916C14.372 25.2055 15.18 25.0035 16.0006 25.0035C16.8211 25.0035 17.6291 25.2055 18.3532 25.5916C19.0773 25.9777 19.6952 26.5361 20.1524 27.2175ZM28.7687 27.6388C28.6695 27.7543 28.546 27.8466 28.4071 27.9091C28.2682 27.9715 28.1172 28.0026 27.9649 28H23.0699C22.967 27.9999 22.8667 27.968 22.7826 27.9087C22.6984 27.8494 22.6347 27.7656 22.5999 27.6688C22.1173 26.3042 21.2235 25.1228 20.0417 24.2872C18.8598 23.4516 17.448 23.0029 16.0006 23.0029C14.5531 23.0029 13.1413 23.4516 11.9595 24.2872C10.7776 25.1228 9.88382 26.3042 9.40118 27.6688C9.36645 27.7656 9.30268 27.8494 9.21856 27.9087C9.13445 27.968 9.03409 27.9999 8.93118 28H4.02868C3.87609 28.0025 3.72486 27.971 3.58602 27.9076C3.44718 27.8443 3.32424 27.7507 3.22618 27.6338C3.08091 27.4566 3.00089 27.2348 2.99953 27.0057C2.99816 26.7766 3.07553 26.5539 3.21868 26.375C3.22618 26.3662 4.17368 25.1525 5.10868 22.785C5.97118 20.6 6.99993 16.955 6.99993 12C6.99993 9.61305 7.94814 7.32387 9.63597 5.63604C11.3238 3.94821 13.613 3 15.9999 3C18.3869 3 20.6761 3.94821 22.3639 5.63604C24.0517 7.32387 24.9999 9.61305 24.9999 12C24.9999 16.955 26.0287 20.6 26.8912 22.785C27.8262 25.1525 28.7737 26.3663 28.7824 26.3775C28.9253 26.5573 29.002 26.7809 28.9995 27.0106C28.997 27.2403 28.9155 27.4621 28.7687 27.6388ZM10.9999 13.5C10.9999 13.7967 11.0879 14.0867 11.2527 14.3334C11.4176 14.58 11.6518 14.7723 11.9259 14.8858C12.2 14.9994 12.5016 15.0291 12.7926 14.9712C13.0835 14.9133 13.3508 14.7704 13.5606 14.5607C13.7704 14.3509 13.9132 14.0836 13.9711 13.7926C14.029 13.5017 13.9993 13.2001 13.8858 12.926C13.7722 12.6519 13.58 12.4176 13.3333 12.2528C13.0866 12.088 12.7966 12 12.4999 12C12.1021 12 11.7206 12.158 11.4393 12.4393C11.158 12.7206 10.9999 13.1022 10.9999 13.5ZM20.8949 17.5525C20.7764 17.3153 20.5685 17.135 20.317 17.051C20.0654 16.9671 19.7909 16.9865 19.5537 17.105L15.9999 18.8825L12.4474 17.105C12.2101 16.9865 11.9353 16.9671 11.6837 17.0512C11.432 17.1352 11.2241 17.3158 11.1056 17.5531C10.987 17.7905 10.9677 18.0652 11.0517 18.3169C11.1357 18.5685 11.3163 18.7765 11.5537 18.895L15.5537 20.895C15.6925 20.9643 15.8454 21.0004 16.0006 21.0004C16.1557 21.0004 16.3087 20.9643 16.4474 20.895L20.4474 18.895C20.565 18.8363 20.6699 18.755 20.756 18.6557C20.8422 18.5565 20.9079 18.4412 20.9495 18.3165C20.991 18.1918 21.0076 18.0602 20.9983 17.9291C20.9889 17.798 20.9538 17.67 20.8949 17.5525ZM20.9999 13.5C20.9999 13.2033 20.912 12.9133 20.7471 12.6666C20.5823 12.42 20.348 12.2277 20.074 12.1142C19.7999 12.0006 19.4983 11.9709 19.2073 12.0288C18.9163 12.0867 18.6491 12.2296 18.4393 12.4393C18.2295 12.6491 18.0866 12.9164 18.0288 13.2074C17.9709 13.4983 18.0006 13.7999 18.1141 14.074C18.2276 14.3481 18.4199 14.5824 18.6666 14.7472C18.9133 14.912 19.2033 15 19.4999 15C19.8978 15 20.2793 14.842 20.5606 14.5607C20.8419 14.2794 20.9999 13.8978 20.9999 13.5Z" fill="#4A4A4F"/>
</svg>
