<svg width="32" height="32" viewBox="0 0 32 32" fill="none" xmlns="http://www.w3.org/2000/svg">
<path d="M28.6251 27.7812C28.4181 27.9467 28.1538 28.0232 27.8903 27.9939C27.6268 27.9647 27.3858 27.8319 27.2201 27.625C27.0489 27.4088 23.0001 22.2325 23.0001 12C23.0001 10.1435 22.2626 8.36301 20.9499 7.05025C19.6371 5.7375 17.8567 5 16.0001 5C14.1436 5 12.3631 5.7375 11.0504 7.05025C9.73763 8.36301 9.00014 10.1435 9.00014 12C9.00014 22.2325 4.95389 27.4088 4.78139 27.625C4.69931 27.7277 4.59781 27.8132 4.48269 27.8766C4.36757 27.9401 4.24108 27.9802 4.11044 27.9948C3.9798 28.0094 3.84757 27.9981 3.7213 27.9615C3.59503 27.925 3.47719 27.864 3.37451 27.7819C3.27183 27.6998 3.18633 27.5983 3.12288 27.4832C3.05942 27.3681 3.01927 27.2416 3.0047 27.1109C2.99013 26.9803 3.00144 26.8481 3.03798 26.7218C3.07451 26.5955 3.13556 26.4777 3.21764 26.375C3.23639 26.35 4.17889 25.1375 5.10889 22.7825C5.97139 20.6 7.00014 16.955 7.00014 12C7.00014 9.61305 7.94835 7.32387 9.63618 5.63604C11.324 3.94821 13.6132 3 16.0001 3C18.3871 3 20.6763 3.94821 22.3641 5.63604C24.0519 7.32387 25.0001 9.61305 25.0001 12C25.0001 16.955 26.0289 20.6 26.8914 22.785C27.8264 25.1525 28.7739 26.365 28.7839 26.3775C28.9487 26.5848 29.0246 26.849 28.9948 27.1122C28.965 27.3754 28.8321 27.616 28.6251 27.7812ZM12.5001 12C12.2035 12 11.9135 12.088 11.6668 12.2528C11.4201 12.4176 11.2278 12.6519 11.1143 12.926C11.0008 13.2001 10.9711 13.5017 11.029 13.7926C11.0868 14.0836 11.2297 14.3509 11.4395 14.5607C11.6493 14.7704 11.9165 14.9133 12.2075 14.9712C12.4985 15.0291 12.8001 14.9994 13.0742 14.8858C13.3483 14.7723 13.5825 14.58 13.7473 14.3334C13.9122 14.0867 14.0001 13.7967 14.0001 13.5C14.0001 13.1022 13.8421 12.7206 13.5608 12.4393C13.2795 12.158 12.898 12 12.5001 12ZM21.0001 13.5C21.0001 13.2033 20.9122 12.9133 20.7473 12.6666C20.5825 12.42 20.3483 12.2277 20.0742 12.1142C19.8001 12.0006 19.4985 11.9709 19.2075 12.0288C18.9165 12.0867 18.6493 12.2296 18.4395 12.4393C18.2297 12.6491 18.0868 12.9164 18.029 13.2074C17.9711 13.4983 18.0008 13.7999 18.1143 14.074C18.2278 14.3481 18.4201 14.5824 18.6668 14.7472C18.9135 14.912 19.2035 15 19.5001 15C19.898 15 20.2795 14.842 20.5608 14.5607C20.8421 14.2794 21.0001 13.8978 21.0001 13.5ZM12.4476 17.105C12.2112 16.9927 11.9401 16.9776 11.6926 17.0629C11.4452 17.1482 11.241 17.3271 11.124 17.5613C11.007 17.7955 10.9865 18.0662 11.0669 18.3153C11.1472 18.5644 11.3221 18.7721 11.5539 18.8937L15.5539 20.8937C15.6925 20.9636 15.8455 21 16.0008 21C16.156 21 16.309 20.9636 16.4476 20.8937L20.4476 18.8937C20.6848 18.7751 20.8652 18.567 20.949 18.3154C21.0328 18.0637 21.0132 17.7891 20.8945 17.5519C20.7758 17.3147 20.5678 17.1343 20.3161 17.0505C20.0645 16.9667 19.7898 16.9863 19.5526 17.105L16.0001 18.8813L12.4476 17.105ZM16.0001 23C14.7967 23.0096 13.6177 23.3403 12.5849 23.9581C11.5521 24.5758 10.7029 25.4581 10.1251 26.5138C10.0613 26.6287 10.0207 26.755 10.0057 26.8856C9.99064 27.0162 10.0015 27.1485 10.0376 27.2749C10.0737 27.4013 10.1343 27.5193 10.2161 27.6223C10.2978 27.7253 10.399 27.8111 10.5139 27.875C10.6288 27.9389 10.7552 27.9795 10.8857 27.9945C11.0163 28.0095 11.1486 27.9986 11.275 27.9625C11.4014 27.9265 11.5195 27.8658 11.6225 27.7841C11.7254 27.7024 11.8113 27.6012 11.8751 27.4862C12.2724 26.7369 12.8663 26.1098 13.5931 25.6725C14.3198 25.2352 15.152 25.0042 16.0001 25.0042C16.8483 25.0042 17.6805 25.2352 18.4072 25.6725C19.134 26.1098 19.7279 26.7369 20.1251 27.4862C20.189 27.6012 20.2749 27.7024 20.3778 27.7841C20.4808 27.8658 20.5988 27.9265 20.7253 27.9625C20.8517 27.9986 20.9839 28.0095 21.1145 27.9945C21.2451 27.9795 21.3715 27.9389 21.4864 27.875C21.6013 27.8111 21.7025 27.7253 21.7842 27.6223C21.8659 27.5193 21.9266 27.4013 21.9627 27.2749C21.9988 27.1485 22.0096 27.0162 21.9946 26.8856C21.9796 26.755 21.939 26.6287 21.8751 26.5138C21.2974 25.4581 20.4482 24.5758 19.4154 23.9581C18.3826 23.3403 17.2035 23.0096 16.0001 23Z" fill="#4A4A4F"/>
</svg>
