<svg width="32" height="32" viewBox="0 0 32 32" fill="none" xmlns="http://www.w3.org/2000/svg">
<path d="M4 8C4 7.73478 4.10536 7.48043 4.29289 7.29289C4.48043 7.10536 4.73478 7 5 7H27C27.2652 7 27.5196 7.10536 27.7071 7.29289C27.8946 7.48043 28 7.73478 28 8C28 8.26522 27.8946 8.51957 27.7071 8.70711C27.5196 8.89464 27.2652 9 27 9H5C4.73478 9 4.48043 8.89464 4.29289 8.70711C4.10536 8.51957 4 8.26522 4 8ZM5 17H14C14.2652 17 14.5196 16.8946 14.7071 16.7071C14.8946 16.5196 15 16.2652 15 16C15 15.7348 14.8946 15.4804 14.7071 15.2929C14.5196 15.1054 14.2652 15 14 15H5C4.73478 15 4.48043 15.1054 4.29289 15.2929C4.10536 15.4804 4 15.7348 4 16C4 16.2652 4.10536 16.5196 4.29289 16.7071C4.48043 16.8946 4.73478 17 5 17ZM16 23H5C4.73478 23 4.48043 23.1054 4.29289 23.2929C4.10536 23.4804 4 23.7348 4 24C4 24.2652 4.10536 24.5196 4.29289 24.7071C4.48043 24.8946 4.73478 25 5 25H16C16.2652 25 16.5196 24.8946 16.7071 24.7071C16.8946 24.5196 17 24.2652 17 24C17 23.7348 16.8946 23.4804 16.7071 23.2929C16.5196 23.1054 16.2652 23 16 23ZM29.7075 23.2925L27.17 20.75C27.8522 19.716 28.1262 18.4657 27.9391 17.2412C27.752 16.0167 27.117 14.9052 26.1572 14.1222C25.1973 13.3392 23.981 12.9403 22.7439 13.0029C21.5067 13.0655 20.3369 13.5851 19.461 14.461C18.5851 15.3369 18.0655 16.5067 18.0029 17.7439C17.9403 18.981 18.3392 20.1973 19.1222 21.1572C19.9052 22.117 21.0167 22.752 22.2412 22.9391C23.4657 23.1262 24.716 22.8522 25.75 22.17L28.2875 24.7075C28.4751 24.8951 28.7296 25.0006 28.995 25.0006C29.2604 25.0006 29.5149 24.8951 29.7025 24.7075C29.8901 24.5199 29.9956 24.2654 29.9956 24C29.9956 23.7346 29.8901 23.4801 29.7025 23.2925H29.7075Z" fill="#4A4A4F"/>
</svg>
