<svg width="32" height="32" viewBox="0 0 32 32" fill="none" xmlns="http://www.w3.org/2000/svg">
<path d="M28.0001 16.0001C28.0001 16.2653 27.8947 16.5196 27.7072 16.7072C27.5196 16.8947 27.2653 17.0001 27.0001 17.0001H16.0001C15.7349 17.0001 15.4805 16.8947 15.293 16.7072C15.1054 16.5196 15.0001 16.2653 15.0001 16.0001C15.0001 15.7349 15.1054 15.4805 15.293 15.293C15.4805 15.1054 15.7349 15.0001 16.0001 15.0001H27.0001C27.2653 15.0001 27.5196 15.1054 27.7072 15.293C27.8947 15.4805 28.0001 15.7349 28.0001 16.0001ZM16.0001 9.00007H27.0001C27.2653 9.00007 27.5196 8.89471 27.7072 8.70717C27.8947 8.51964 28.0001 8.26528 28.0001 8.00007C28.0001 7.73485 27.8947 7.4805 27.7072 7.29296C27.5196 7.10542 27.2653 7.00007 27.0001 7.00007H16.0001C15.7349 7.00007 15.4805 7.10542 15.293 7.29296C15.1054 7.4805 15.0001 7.73485 15.0001 8.00007C15.0001 8.26528 15.1054 8.51964 15.293 8.70717C15.4805 8.89471 15.7349 9.00007 16.0001 9.00007ZM27.0001 23.0001H16.0001C15.7349 23.0001 15.4805 23.1054 15.293 23.293C15.1054 23.4805 15.0001 23.7349 15.0001 24.0001C15.0001 24.2653 15.1054 24.5196 15.293 24.7072C15.4805 24.8947 15.7349 25.0001 16.0001 25.0001H27.0001C27.2653 25.0001 27.5196 24.8947 27.7072 24.7072C27.8947 24.5196 28.0001 24.2653 28.0001 24.0001C28.0001 23.7349 27.8947 23.4805 27.7072 23.293C27.5196 23.1054 27.2653 23.0001 27.0001 23.0001ZM10.2926 5.29257L7.00007 8.58632L5.70757 7.29257C5.51993 7.10493 5.26543 6.99951 5.00007 6.99951C4.7347 6.99951 4.48021 7.10493 4.29257 7.29257C4.10493 7.48021 3.99951 7.7347 3.99951 8.00007C3.99951 8.26543 4.10493 8.51993 4.29257 8.70757L6.29257 10.7076C6.38544 10.8005 6.49573 10.8743 6.61713 10.9246C6.73853 10.975 6.86865 11.0009 7.00007 11.0009C7.13148 11.0009 7.26161 10.975 7.38301 10.9246C7.50441 10.8743 7.61469 10.8005 7.70757 10.7076L11.7076 6.70757C11.8952 6.51993 12.0006 6.26543 12.0006 6.00007C12.0006 5.7347 11.8952 5.48021 11.7076 5.29257C11.5199 5.10493 11.2654 4.99951 11.0001 4.99951C10.7347 4.99951 10.4802 5.10493 10.2926 5.29257ZM10.2926 13.2926L7.00007 16.5863L5.70757 15.2926C5.51993 15.1049 5.26543 14.9995 5.00007 14.9995C4.7347 14.9995 4.48021 15.1049 4.29257 15.2926C4.10493 15.4802 3.99951 15.7347 3.99951 16.0001C3.99951 16.1315 4.02539 16.2616 4.07567 16.383C4.12596 16.5044 4.19966 16.6147 4.29257 16.7076L6.29257 18.7076C6.38544 18.8005 6.49573 18.8743 6.61713 18.9246C6.73853 18.975 6.86865 19.0009 7.00007 19.0009C7.13148 19.0009 7.26161 18.975 7.38301 18.9246C7.50441 18.8743 7.61469 18.8005 7.70757 18.7076L11.7076 14.7076C11.8952 14.5199 12.0006 14.2654 12.0006 14.0001C12.0006 13.7347 11.8952 13.4802 11.7076 13.2926C11.5199 13.1049 11.2654 12.9995 11.0001 12.9995C10.7347 12.9995 10.4802 13.1049 10.2926 13.2926ZM10.2926 21.2926L7.00007 24.5863L5.70757 23.2926C5.61466 23.1997 5.50436 23.126 5.38296 23.0757C5.26157 23.0254 5.13146 22.9995 5.00007 22.9995C4.86867 22.9995 4.73856 23.0254 4.61717 23.0757C4.49578 23.126 4.38548 23.1997 4.29257 23.2926C4.19966 23.3855 4.12596 23.4958 4.07567 23.6172C4.02539 23.7386 3.99951 23.8687 3.99951 24.0001C3.99951 24.1315 4.02539 24.2616 4.07567 24.383C4.12596 24.5044 4.19966 24.6147 4.29257 24.7076L6.29257 26.7076C6.38544 26.8005 6.49573 26.8743 6.61713 26.9246C6.73853 26.975 6.86865 27.0009 7.00007 27.0009C7.13148 27.0009 7.26161 26.975 7.38301 26.9246C7.50441 26.8743 7.61469 26.8005 7.70757 26.7076L11.7076 22.7076C11.8952 22.5199 12.0006 22.2654 12.0006 22.0001C12.0006 21.7347 11.8952 21.4802 11.7076 21.2926C11.5199 21.1049 11.2654 20.9995 11.0001 20.9995C10.7347 20.9995 10.4802 21.1049 10.2926 21.2926Z" fill="#4A4A4F"/>
</svg>
