<svg width="32" height="32" viewBox="0 0 32 32" fill="none" xmlns="http://www.w3.org/2000/svg">
<path d="M7 16C7 16.3956 6.8827 16.7822 6.66294 17.1111C6.44318 17.44 6.13082 17.6964 5.76537 17.8478C5.39992 17.9991 4.99778 18.0387 4.60982 17.9616C4.22186 17.8844 3.86549 17.6939 3.58579 17.4142C3.30608 17.1345 3.1156 16.7781 3.03843 16.3902C2.96126 16.0022 3.00087 15.6001 3.15224 15.2346C3.30362 14.8692 3.55996 14.5568 3.88886 14.3371C4.21776 14.1173 4.60444 14 5 14C5.53043 14 6.03914 14.2107 6.41421 14.5858C6.78929 14.9609 7 15.4696 7 16ZM5 6C4.60444 6 4.21776 6.1173 3.88886 6.33706C3.55996 6.55682 3.30362 6.86918 3.15224 7.23463C3.00087 7.60009 2.96126 8.00222 3.03843 8.39018C3.1156 8.77814 3.30608 9.13451 3.58579 9.41421C3.86549 9.69392 4.22186 9.8844 4.60982 9.96157C4.99778 10.0387 5.39992 9.99913 5.76537 9.84776C6.13082 9.69638 6.44318 9.44004 6.66294 9.11114C6.8827 8.78224 7 8.39556 7 8C7 7.46957 6.78929 6.96086 6.41421 6.58579C6.03914 6.21071 5.53043 6 5 6ZM5 22C4.60444 22 4.21776 22.1173 3.88886 22.3371C3.55996 22.5568 3.30362 22.8692 3.15224 23.2346C3.00087 23.6001 2.96126 24.0022 3.03843 24.3902C3.1156 24.7781 3.30608 25.1345 3.58579 25.4142C3.86549 25.6939 4.22186 25.8844 4.60982 25.9616C4.99778 26.0387 5.39992 25.9991 5.76537 25.8478C6.13082 25.6964 6.44318 25.44 6.66294 25.1111C6.8827 24.7822 7 24.3956 7 24C7 23.4696 6.78929 22.9609 6.41421 22.5858C6.03914 22.2107 5.53043 22 5 22ZM27 14H11C10.7348 14 10.4804 14.1054 10.2929 14.2929C10.1054 14.4804 10 14.7348 10 15V17C10 17.2652 10.1054 17.5196 10.2929 17.7071C10.4804 17.8946 10.7348 18 11 18H27C27.2652 18 27.5196 17.8946 27.7071 17.7071C27.8946 17.5196 28 17.2652 28 17V15C28 14.7348 27.8946 14.4804 27.7071 14.2929C27.5196 14.1054 27.2652 14 27 14ZM27 6H11C10.7348 6 10.4804 6.10536 10.2929 6.29289C10.1054 6.48043 10 6.73478 10 7V9C10 9.26522 10.1054 9.51957 10.2929 9.70711C10.4804 9.89464 10.7348 10 11 10H27C27.2652 10 27.5196 9.89464 27.7071 9.70711C27.8946 9.51957 28 9.26522 28 9V7C28 6.73478 27.8946 6.48043 27.7071 6.29289C27.5196 6.10536 27.2652 6 27 6ZM27 22H11C10.7348 22 10.4804 22.1054 10.2929 22.2929C10.1054 22.4804 10 22.7348 10 23V25C10 25.2652 10.1054 25.5196 10.2929 25.7071C10.4804 25.8946 10.7348 26 11 26H27C27.2652 26 27.5196 25.8946 27.7071 25.7071C27.8946 25.5196 28 25.2652 28 25V23C28 22.7348 27.8946 22.4804 27.7071 22.2929C27.5196 22.1054 27.2652 22 27 22Z" fill="#4A4A4F"/>
</svg>
