<svg width="32" height="32" viewBox="0 0 32 32" fill="none" xmlns="http://www.w3.org/2000/svg">
<path d="M11.7076 13.2926C11.8005 13.3854 11.8743 13.4957 11.9246 13.6171C11.975 13.7385 12.0009 13.8687 12.0009 14.0001C12.0009 14.1315 11.975 14.2616 11.9246 14.383C11.8743 14.5044 11.8005 14.6147 11.7076 14.7076L7.70757 18.7076C7.61469 18.8005 7.50441 18.8743 7.38301 18.9246C7.26161 18.975 7.13148 19.0009 7.00007 19.0009C6.86865 19.0009 6.73853 18.975 6.61713 18.9246C6.49573 18.8743 6.38544 18.8005 6.29257 18.7076L4.29257 16.7076C4.19966 16.6147 4.12596 16.5044 4.07567 16.383C4.02539 16.2616 3.99951 16.1315 3.99951 16.0001C3.99951 15.7347 4.10493 15.4802 4.29257 15.2926C4.48021 15.1049 4.7347 14.9995 5.00007 14.9995C5.26543 14.9995 5.51993 15.1049 5.70757 15.2926L7.00007 16.5863L10.2926 13.2926C10.3854 13.1996 10.4957 13.1258 10.6171 13.0755C10.7385 13.0252 10.8687 12.9993 11.0001 12.9993C11.1315 12.9993 11.2616 13.0252 11.383 13.0755C11.5044 13.1258 11.6147 13.1996 11.7076 13.2926ZM10.2926 5.29257L7.00007 8.58632L5.70757 7.29257C5.51993 7.10493 5.26543 6.99951 5.00007 6.99951C4.7347 6.99951 4.48021 7.10493 4.29257 7.29257C4.10493 7.48021 3.99951 7.7347 3.99951 8.00007C3.99951 8.26543 4.10493 8.51993 4.29257 8.70757L6.29257 10.7076C6.38544 10.8005 6.49573 10.8743 6.61713 10.9246C6.73853 10.975 6.86865 11.0009 7.00007 11.0009C7.13148 11.0009 7.26161 10.975 7.38301 10.9246C7.50441 10.8743 7.61469 10.8005 7.70757 10.7076L11.7076 6.70757C11.8952 6.51993 12.0006 6.26543 12.0006 6.00007C12.0006 5.7347 11.8952 5.48021 11.7076 5.29257C11.5199 5.10493 11.2654 4.99951 11.0001 4.99951C10.7347 4.99951 10.4802 5.10493 10.2926 5.29257ZM10.2926 21.2926L7.00007 24.5863L5.70757 23.2926C5.61466 23.1997 5.50436 23.126 5.38296 23.0757C5.26157 23.0254 5.13146 22.9995 5.00007 22.9995C4.86867 22.9995 4.73856 23.0254 4.61717 23.0757C4.49578 23.126 4.38548 23.1997 4.29257 23.2926C4.19966 23.3855 4.12596 23.4958 4.07567 23.6172C4.02539 23.7386 3.99951 23.8687 3.99951 24.0001C3.99951 24.1315 4.02539 24.2616 4.07567 24.383C4.12596 24.5044 4.19966 24.6147 4.29257 24.7076L6.29257 26.7076C6.38544 26.8005 6.49573 26.8743 6.61713 26.9246C6.73853 26.975 6.86865 27.0009 7.00007 27.0009C7.13148 27.0009 7.26161 26.975 7.38301 26.9246C7.50441 26.8743 7.61469 26.8005 7.70757 26.7076L11.7076 22.7076C11.8952 22.5199 12.0006 22.2654 12.0006 22.0001C12.0006 21.7347 11.8952 21.4802 11.7076 21.2926C11.5199 21.1049 11.2654 20.9995 11.0001 20.9995C10.7347 20.9995 10.4802 21.1049 10.2926 21.2926ZM27.0001 6.00007H16.0001C15.7349 6.00007 15.4805 6.10542 15.293 6.29296C15.1054 6.4805 15.0001 6.73485 15.0001 7.00007V9.00007C15.0001 9.26528 15.1054 9.51964 15.293 9.70717C15.4805 9.89471 15.7349 10.0001 16.0001 10.0001H27.0001C27.2653 10.0001 27.5196 9.89471 27.7072 9.70717C27.8947 9.51964 28.0001 9.26528 28.0001 9.00007V7.00007C28.0001 6.73485 27.8947 6.4805 27.7072 6.29296C27.5196 6.10542 27.2653 6.00007 27.0001 6.00007ZM27.0001 22.0001H16.0001C15.7349 22.0001 15.4805 22.1054 15.293 22.293C15.1054 22.4805 15.0001 22.7349 15.0001 23.0001V25.0001C15.0001 25.2653 15.1054 25.5196 15.293 25.7072C15.4805 25.8947 15.7349 26.0001 16.0001 26.0001H27.0001C27.2653 26.0001 27.5196 25.8947 27.7072 25.7072C27.8947 25.5196 28.0001 25.2653 28.0001 25.0001V23.0001C28.0001 22.7349 27.8947 22.4805 27.7072 22.293C27.5196 22.1054 27.2653 22.0001 27.0001 22.0001ZM27.0001 14.0001H16.0001C15.7349 14.0001 15.4805 14.1054 15.293 14.293C15.1054 14.4805 15.0001 14.7349 15.0001 15.0001V17.0001C15.0001 17.2653 15.1054 17.5196 15.293 17.7072C15.4805 17.8947 15.7349 18.0001 16.0001 18.0001H27.0001C27.2653 18.0001 27.5196 17.8947 27.7072 17.7072C27.8947 17.5196 28.0001 17.2653 28.0001 17.0001V15.0001C28.0001 14.7349 27.8947 14.4805 27.7072 14.293C27.5196 14.1054 27.2653 14.0001 27.0001 14.0001Z" fill="#4A4A4F"/>
</svg>
