<svg width="32" height="32" viewBox="0 0 32 32" fill="none" xmlns="http://www.w3.org/2000/svg">
<path d="M19 13.9998C19 14.265 18.8947 14.5194 18.7071 14.7069C18.5196 14.8944 18.2653 14.9998 18 14.9998H15V17.9998C15 18.265 14.8947 18.5194 14.7071 18.7069C14.5196 18.8944 14.2653 18.9998 14 18.9998C13.7348 18.9998 13.4805 18.8944 13.2929 18.7069C13.1054 18.5194 13 18.265 13 17.9998V14.9998H10C9.73482 14.9998 9.48047 14.8944 9.29293 14.7069C9.1054 14.5194 9.00004 14.265 9.00004 13.9998C9.00004 13.7346 9.1054 13.4802 9.29293 13.2927C9.48047 13.1052 9.73482 12.9998 10 12.9998H13V9.9998C13 9.73458 13.1054 9.48023 13.2929 9.29269C13.4805 9.10515 13.7348 8.9998 14 8.9998C14.2653 8.9998 14.5196 9.10515 14.7071 9.29269C14.8947 9.48023 15 9.73458 15 9.9998V12.9998H18C18.2653 12.9998 18.5196 13.1052 18.7071 13.2927C18.8947 13.4802 19 13.7346 19 13.9998ZM28.7075 28.7073C28.6147 28.8003 28.5044 28.874 28.383 28.9244C28.2616 28.9747 28.1315 29.0006 28 29.0006C27.8686 29.0006 27.7385 28.9747 27.6171 28.9244C27.4957 28.874 27.3854 28.8003 27.2925 28.7073L21.035 22.4485C18.8572 24.2626 16.0638 25.1672 13.236 24.9741C10.4081 24.781 7.76361 23.5052 5.85251 21.412C3.9414 19.3188 2.91086 16.5694 2.97526 13.7357C3.03966 10.902 4.19404 8.20225 6.19827 6.19802C8.20249 4.1938 10.9023 3.03941 13.7359 2.97501C16.5696 2.91061 19.319 3.94116 21.4122 5.85226C23.5054 7.76337 24.7813 10.4079 24.9743 13.2357C25.1674 16.0635 24.2628 18.8569 22.4488 21.0348L28.7075 27.2923C28.8005 27.3852 28.8743 27.4955 28.9246 27.6169C28.9749 27.7383 29.0008 27.8684 29.0008 27.9998C29.0008 28.1312 28.9749 28.2613 28.9246 28.3827C28.8743 28.5041 28.8005 28.6144 28.7075 28.7073ZM14 22.9998C15.7801 22.9998 17.5201 22.472 19.0002 21.483C20.4802 20.4941 21.6338 19.0885 22.315 17.4439C22.9961 15.7994 23.1744 13.9898 22.8271 12.244C22.4798 10.4982 21.6227 8.89451 20.364 7.63584C19.1053 6.37716 17.5017 5.52 15.7559 5.17273C14.01 4.82546 12.2004 5.00369 10.5559 5.68488C8.91136 6.36607 7.50575 7.51962 6.51681 8.99966C5.52788 10.4797 5.00004 12.2198 5.00004 13.9998C5.00269 16.3859 5.95175 18.6736 7.639 20.3608C9.32626 22.0481 11.6139 22.9972 14 22.9998Z" fill="#4A4A4F"/>
</svg>
