<svg width="32" height="32" viewBox="0 0 32 32" fill="none" xmlns="http://www.w3.org/2000/svg">
<path d="M28.7075 27.2923L22.4488 21.0348C24.2628 18.8569 25.1674 16.0635 24.9743 13.2357C24.7813 10.4079 23.5054 7.76337 21.4122 5.85226C19.319 3.94116 16.5696 2.91061 13.7359 2.97501C10.9023 3.03941 8.20249 4.1938 6.19827 6.19802C4.19404 8.20225 3.03966 10.902 2.97526 13.7357C2.91086 16.5694 3.9414 19.3188 5.85251 21.412C7.76361 23.5052 10.4081 24.781 13.236 24.9741C16.0638 25.1672 18.8572 24.2626 21.035 22.4485L27.2925 28.7073C27.3855 28.8002 27.4958 28.8739 27.6171 28.9242C27.7385 28.9745 27.8686 29.0004 28 29.0004C28.1314 29.0004 28.2615 28.9745 28.3829 28.9242C28.5043 28.8739 28.6146 28.8002 28.7075 28.7073C28.8005 28.6144 28.8742 28.5041 28.9244 28.3827C28.9747 28.2613 29.0006 28.1312 29.0006 27.9998C29.0006 27.8684 28.9747 27.7383 28.9244 27.6169C28.8742 27.4955 28.8005 27.3852 28.7075 27.2923ZM5.00004 13.9998C5.00004 12.2198 5.52788 10.4797 6.51681 8.99966C7.50575 7.51962 8.91136 6.36607 10.5559 5.68488C12.2004 5.00369 14.01 4.82546 15.7559 5.17273C17.5017 5.52 19.1053 6.37716 20.364 7.63584C21.6227 8.89451 22.4798 10.4982 22.8271 12.244C23.1744 13.9898 22.9961 15.7994 22.315 17.4439C21.6338 19.0885 20.4802 20.4941 19.0002 21.483C17.5201 22.472 15.7801 22.9998 14 22.9998C11.6139 22.9972 9.32626 22.0481 7.639 20.3608C5.95175 18.6736 5.00269 16.3859 5.00004 13.9998Z" fill="#4A4A4F"/>
</svg>
