<svg width="32" height="32" viewBox="0 0 32 32" fill="none" xmlns="http://www.w3.org/2000/svg">
<path d="M25 5H20C19.4696 5 18.9609 5.21071 18.5858 5.58579C18.2107 5.96086 18 6.46957 18 7V18C18 18.5304 17.7893 19.0391 17.4142 19.4142C17.0391 19.7893 16.5304 20 16 20C15.4696 20 14.9609 19.7893 14.5858 19.4142C14.2107 19.0391 14 18.5304 14 18V7C14 6.46957 13.7893 5.96086 13.4142 5.58579C13.0391 5.21071 12.5304 5 12 5H7C6.46957 5 5.96086 5.21071 5.58579 5.58579C5.21071 5.96086 5 6.46957 5 7V18C5 20.9174 6.15893 23.7153 8.22183 25.7782C10.2847 27.8411 13.0826 29 16 29H16.0837C22.1025 28.955 27 23.9637 27 17.875V7C27 6.46957 26.7893 5.96086 26.4142 5.58579C26.0391 5.21071 25.5304 5 25 5ZM25 7V11H20V7H25ZM12 7V11H7V7H12ZM16.0688 27C14.8811 27.0091 13.7034 26.783 12.6035 26.3347C11.5036 25.8865 10.5033 25.225 9.6603 24.3884C8.81728 23.5518 8.14819 22.5565 7.6916 21.4601C7.23502 20.3637 6.99997 19.1877 7 18V13H12V18C12 19.0609 12.4214 20.0783 13.1716 20.8284C13.9217 21.5786 14.9391 22 16 22C17.0609 22 18.0783 21.5786 18.8284 20.8284C19.5786 20.0783 20 19.0609 20 18V13H25V17.875C25 22.875 21 26.9638 16.0688 27Z" fill="#4A4A4F"/>
</svg>
