<svg width="32" height="32" viewBox="0 0 32 32" fill="none" xmlns="http://www.w3.org/2000/svg">
<path d="M28.7075 27.2927L22.45 21.0352C24.2672 18.8557 25.1742 16.0595 24.9823 13.2283C24.7904 10.3971 23.5144 7.74894 21.4197 5.83464C19.3249 3.92033 16.5728 2.88731 13.7359 2.95049C10.8989 3.01367 8.19547 4.16817 6.18804 6.17383C4.18061 8.17948 3.02372 10.8819 2.95804 13.7188C2.89235 16.5557 3.92294 19.3087 5.83539 21.4051C7.74785 23.5016 10.3949 24.7799 13.2259 24.9743C16.0569 25.1688 18.8539 24.2642 21.035 22.4489L27.2925 28.7077C27.3854 28.8006 27.4957 28.8743 27.6171 28.9246C27.7385 28.9748 27.8686 29.0007 28 29.0007C28.1314 29.0007 28.2615 28.9748 28.3829 28.9246C28.5043 28.8743 28.6146 28.8006 28.7075 28.7077C28.8004 28.6147 28.8741 28.5044 28.9244 28.3831C28.9747 28.2617 29.0006 28.1316 29.0006 28.0002C29.0006 27.8688 28.9747 27.7387 28.9244 27.6173C28.8741 27.4959 28.8004 27.3856 28.7075 27.2927ZM18 15.0002H10C9.73478 15.0002 9.48043 14.8948 9.29289 14.7073C9.10535 14.5197 9 14.2654 9 14.0002C9 13.7349 9.10535 13.4806 9.29289 13.2931C9.48043 13.1055 9.73478 13.0002 10 13.0002H18C18.2652 13.0002 18.5196 13.1055 18.7071 13.2931C18.8946 13.4806 19 13.7349 19 14.0002C19 14.2654 18.8946 14.5197 18.7071 14.7073C18.5196 14.8948 18.2652 15.0002 18 15.0002Z" fill="#4A4A4F"/>
</svg>
