<svg width="32" height="32" viewBox="0 0 32 32" fill="none" xmlns="http://www.w3.org/2000/svg">
<path d="M25.1927 6.80766C22.7547 4.36966 19.448 3 16.0002 3C12.5523 3 9.24566 4.36966 6.80766 6.80766C4.36966 9.24566 3 12.5523 3 16.0002C3 19.448 4.36966 22.7547 6.80766 25.1927C9.24566 27.6307 12.5523 29.0003 16.0002 29.0003C19.448 29.0003 22.7547 27.6307 25.1927 25.1927C27.6307 22.7547 29.0003 19.448 29.0003 16.0002C29.0003 12.5523 27.6307 9.24566 25.1927 6.80766ZM11.0002 25.7964V22.0002H21.0002V25.7964C19.4508 26.5828 17.7377 26.9927 16.0002 26.9927C14.2626 26.9927 12.5496 26.5828 11.0002 25.7964ZM13.0002 17.0002H19.0002V20.0002H13.0002V17.0002ZM23.7777 23.7789C23.5277 24.0289 23.2677 24.2627 23.0002 24.4839V22.0002C23.0002 21.4697 22.7894 20.961 22.4144 20.5859C22.0393 20.2109 21.5306 20.0002 21.0002 20.0002V17.0002C20.9996 16.5191 20.8256 16.0544 20.5102 15.6911C20.1947 15.3279 19.7589 15.0906 19.2827 15.0227L17.9502 9.16266C17.8495 8.72079 17.6017 8.32623 17.2474 8.04361C16.8931 7.76099 16.4534 7.60707 16.0002 7.60707C15.547 7.60707 15.1072 7.76099 14.7529 8.04361C14.3986 8.32623 14.1509 8.72079 14.0502 9.16266L12.7177 15.0227C12.2414 15.0906 11.8056 15.3279 11.4902 15.6911C11.1747 16.0544 11.0007 16.5191 11.0002 17.0002V20.0002C10.4697 20.0002 9.96102 20.2109 9.58595 20.5859C9.21087 20.961 9.00016 21.4697 9.00016 22.0002V24.4839C8.73266 24.2627 8.47266 24.0289 8.22266 23.7789C6.68409 22.2406 5.63625 20.2806 5.21166 18.1468C4.78707 16.0129 5.00479 13.8011 5.8373 11.791C6.66981 9.78088 8.07971 8.06281 9.88869 6.85403C11.6977 5.64525 13.8245 5.00006 16.0002 5.00006C18.1758 5.00006 20.3026 5.64525 22.1116 6.85403C23.9206 8.06281 25.3305 9.78088 26.163 11.791C26.9955 13.8011 27.2132 16.0129 26.7887 18.1468C26.3641 20.2806 25.3162 22.2406 23.7777 23.7789Z" fill="#4A4A4F"/>
</svg>
