<svg width="32" height="32" viewBox="0 0 32 32" fill="none" xmlns="http://www.w3.org/2000/svg">
<path d="M19.8325 23.5535C19.6856 23.7743 19.4571 23.9277 19.1971 23.98C18.9371 24.0322 18.6671 23.9791 18.4463 23.8323C17.6338 23.2923 17 22.9998 16 22.9998C15 22.9998 14.3663 23.2923 13.5538 23.8323C13.3329 23.9737 13.0654 24.0227 12.8088 23.9687C12.5523 23.9148 12.3271 23.7623 12.1819 23.544C12.0367 23.3256 11.983 23.059 12.0325 22.8015C12.0819 22.5441 12.2305 22.3163 12.4462 22.1673C13.5 21.466 14.5075 20.9998 16 20.9998C17.4925 20.9998 18.5 21.466 19.5537 22.1673C19.7745 22.3142 19.9279 22.5427 19.9802 22.8027C20.0324 23.0627 19.9793 23.3327 19.8325 23.5535ZM28 5.99979V12.971C28 17.451 26.7938 21.6773 24.6025 24.8685C22.3325 28.176 19.2775 29.9935 16 29.9935C12.7225 29.9935 9.6675 28.1723 7.3975 24.8685C5.20625 21.6798 4 17.4535 4 12.9735V5.99979C4.00011 5.67474 4.07945 5.35461 4.23115 5.06713C4.38284 4.77965 4.60232 4.53347 4.87058 4.34991C5.13884 4.16635 5.44779 4.05094 5.7707 4.01368C6.09361 3.97641 6.42073 4.01841 6.72375 4.13604C8.48 4.81854 12.0225 5.96354 16 5.96354C19.9775 5.96354 23.5188 4.81854 25.2763 4.13604C25.5793 4.01841 25.9064 3.97641 26.2293 4.01368C26.5522 4.05094 26.8612 4.16635 27.1294 4.34991C27.3977 4.53347 27.6172 4.77965 27.7689 5.06713C27.9205 5.35461 27.9999 5.67474 28 5.99979ZM26 5.99979C24.1125 6.73604 20.3037 7.96604 16 7.96604C11.6962 7.96604 7.8875 6.73354 6 5.99979V12.9735C6 17.0535 7.0825 20.8773 9.04625 23.7398C10.9325 26.4873 13.4012 27.9998 16 27.9998C18.5988 27.9998 21.0675 26.4873 22.9538 23.7398C24.9175 20.8748 26 17.0535 26 12.9735V5.99979ZM23.6675 14.2498C23.5697 14.1621 23.4555 14.0945 23.3316 14.051C23.2077 14.0074 23.0764 13.9887 22.9452 13.9959C22.814 14.0031 22.6855 14.036 22.5671 14.0929C22.4487 14.1498 22.3426 14.2294 22.255 14.3273C21.92 14.7023 21.1487 14.9948 20.505 14.9948C19.8612 14.9948 19.085 14.701 18.755 14.3273C18.6671 14.2285 18.5606 14.1479 18.4416 14.0903C18.3225 14.0326 18.1933 13.999 18.0613 13.9912C17.9292 13.9835 17.797 14.0019 17.672 14.0453C17.5471 14.0887 17.4319 14.1563 17.3331 14.2442C17.2343 14.3321 17.1538 14.4386 17.0961 14.5576C17.0385 14.6766 17.0048 14.8058 16.9971 14.9379C16.9894 15.0699 17.0077 15.2022 17.0511 15.3271C17.0945 15.4521 17.1621 15.5672 17.25 15.666C17.9637 16.4635 19.2675 16.9998 20.5 16.9998C21.7325 16.9998 23.0312 16.4635 23.75 15.666C23.838 15.5678 23.9056 15.4532 23.9491 15.3287C23.9926 15.2042 24.011 15.0724 24.0034 14.9407C23.9957 14.8091 23.9621 14.6803 23.9044 14.5617C23.8468 14.4431 23.7663 14.3371 23.6675 14.2498ZM14.75 15.666C14.8376 15.5675 14.9049 15.4528 14.9481 15.3283C14.9913 15.2038 15.0096 15.072 15.0019 14.9404C14.9942 14.8088 14.9606 14.6801 14.9031 14.5615C14.8456 14.4429 14.7654 14.3367 14.6669 14.2492C14.5684 14.1616 14.4536 14.0943 14.3291 14.051C14.2046 14.0078 14.0728 13.9896 13.9412 13.9973C13.8097 14.005 13.6809 14.0386 13.5623 14.096C13.4437 14.1535 13.3376 14.2338 13.25 14.3323C12.915 14.7073 12.1438 14.9998 11.5 14.9998C10.8562 14.9998 10.08 14.706 9.75 14.3323C9.66242 14.2338 9.55631 14.1535 9.43771 14.096C9.31911 14.0386 9.19035 14.005 9.05878 13.9973C8.92721 13.9896 8.79541 14.0078 8.6709 14.051C8.54639 14.0943 8.43162 14.1616 8.33313 14.2492C8.23463 14.3367 8.15436 14.4429 8.09688 14.5615C8.03939 14.6801 8.00584 14.8088 7.99812 14.9404C7.9904 15.072 8.00867 15.2038 8.05189 15.3283C8.09511 15.4528 8.16242 15.5675 8.25 15.666C8.96875 16.4635 10.2725 16.9998 11.5 16.9998C12.7275 16.9998 14.0312 16.4635 14.75 15.666Z" fill="#4A4A4F"/>
</svg>
