<svg width="32" height="32" viewBox="0 0 32 32" fill="none" xmlns="http://www.w3.org/2000/svg">
<path d="M27.125 4.3501C26.8571 4.16608 26.5482 4.05039 26.2253 4.01313C25.9024 3.97588 25.5753 4.01818 25.2725 4.13635C23.5187 4.81885 19.9775 5.96385 16 5.96385C12.0225 5.96385 8.48 4.81885 6.72375 4.13635C6.42073 4.01873 6.09361 3.97673 5.7707 4.01399C5.44779 4.05126 5.13884 4.16667 4.87058 4.35023C4.60232 4.53379 4.38284 4.77996 4.23115 5.06745C4.07945 5.35493 4.00011 5.67505 4 6.0001V12.9714C4 17.4514 5.20625 21.6776 7.3975 24.8689C9.6675 28.1764 12.7225 29.9939 16 29.9939C19.2775 29.9939 22.3325 28.1726 24.6025 24.8689C26.7938 21.6801 28 17.4539 28 12.9739V6.0001C27.9994 5.67464 27.9194 5.35423 27.7669 5.06669C27.6144 4.77916 27.3941 4.53318 27.125 4.3501ZM9.75 16.6664C9.57313 16.8653 9.32449 16.9858 9.05878 17.0014C8.79306 17.0169 8.53204 16.9263 8.33313 16.7495C8.13421 16.5726 8.01371 16.324 7.99812 16.0583C7.98253 15.7925 8.07313 15.5315 8.25 15.3326C8.96875 14.5351 10.2725 14.0001 11.5 14.0001C12.7275 14.0001 14.0312 14.5351 14.75 15.3326C14.9269 15.5315 15.0175 15.7925 15.0019 16.0583C14.9863 16.324 14.8658 16.5726 14.6669 16.7495C14.5684 16.8371 14.4536 16.9044 14.3291 16.9476C14.2046 16.9908 14.0728 17.0091 13.9412 17.0014C13.6755 16.9858 13.4269 16.8653 13.25 16.6664C12.915 16.2914 12.1438 16.0001 11.5 16.0001C10.8562 16.0001 10.08 16.2926 9.75 16.6664ZM21.0613 22.6489C20.4405 23.3853 19.6664 23.9773 18.7931 24.3834C17.9197 24.7895 16.9682 25 16.005 25C15.0418 25 14.0903 24.7895 13.2169 24.3834C12.3436 23.9773 11.5695 23.3853 10.9487 22.6489C10.854 22.5508 10.7804 22.4344 10.7323 22.3068C10.6842 22.1792 10.6627 22.0431 10.6692 21.9069C10.6756 21.7707 10.7099 21.6373 10.7698 21.5148C10.8297 21.3923 10.914 21.2834 11.0175 21.1947C11.1211 21.106 11.2417 21.0394 11.3719 20.999C11.5021 20.9587 11.6393 20.9453 11.7748 20.9599C11.9104 20.9744 12.0415 21.0166 12.1602 21.0837C12.2789 21.1508 12.3826 21.2414 12.465 21.3501C12.8978 21.8668 13.4386 22.2824 14.0494 22.5675C14.6601 22.8526 15.326 23.0004 16 23.0004C16.674 23.0004 17.3399 22.8526 17.9506 22.5675C18.5614 22.2824 19.1022 21.8668 19.535 21.3501C19.7072 21.1484 19.9525 21.0233 20.217 21.0025C20.4814 20.9816 20.7433 21.0666 20.945 21.2389C21.1467 21.4111 21.2718 21.6564 21.2926 21.9208C21.3135 22.1852 21.2285 22.4471 21.0562 22.6489H21.0613ZM23.6675 16.7501C23.5696 16.8377 23.4554 16.9052 23.3314 16.9487C23.2074 16.9921 23.0761 17.0107 22.9449 17.0034C22.8138 16.9961 22.6853 16.963 22.5669 16.906C22.4485 16.8491 22.3426 16.7693 22.255 16.6714C21.92 16.2964 21.1487 16.0051 20.505 16.0051C19.8612 16.0051 19.085 16.2976 18.755 16.6714C18.6671 16.7702 18.5606 16.8507 18.4416 16.9084C18.3225 16.966 18.1933 16.9997 18.0613 17.0074C17.9292 17.0151 17.797 16.9968 17.672 16.9534C17.5471 16.91 17.4319 16.8424 17.3331 16.7545C17.2343 16.6666 17.1538 16.5601 17.0961 16.441C17.0385 16.322 17.0048 16.1928 16.9971 16.0608C16.9894 15.9287 17.0077 15.7965 17.0511 15.6715C17.0945 15.5466 17.1621 15.4314 17.25 15.3326C17.9637 14.5351 19.2675 14.0001 20.5 14.0001C21.7325 14.0001 23.0312 14.5351 23.75 15.3326C23.8382 15.4309 23.906 15.5456 23.9496 15.6702C23.9932 15.7948 24.0117 15.9268 24.004 16.0585C23.9963 16.1903 23.9626 16.3193 23.9049 16.438C23.8471 16.5567 23.7665 16.6627 23.6675 16.7501Z" fill="#4A4A4F"/>
</svg>
