<svg width="32" height="32" viewBox="0 0 32 32" fill="none" xmlns="http://www.w3.org/2000/svg">
<path d="M27.125 4.3501C26.8571 4.16608 26.5482 4.05039 26.2253 4.01313C25.9024 3.97588 25.5753 4.01818 25.2725 4.13635C23.5187 4.81885 19.9775 5.96385 16 5.96385C12.0225 5.96385 8.48 4.81885 6.72375 4.13635C6.42073 4.01873 6.09361 3.97673 5.7707 4.01399C5.44779 4.05126 5.13884 4.16667 4.87058 4.35023C4.60232 4.53379 4.38284 4.77996 4.23115 5.06745C4.07945 5.35493 4.00011 5.67505 4 6.0001V12.9714C4 17.4514 5.20625 21.6776 7.3975 24.8689C9.6675 28.1764 12.7225 29.9939 16 29.9939C19.2775 29.9939 22.3325 28.1726 24.6025 24.8689C26.7938 21.6801 28 17.4539 28 12.9739V6.0001C27.9994 5.67464 27.9194 5.35423 27.7669 5.06669C27.6144 4.77916 27.3941 4.53318 27.125 4.3501ZM26 12.9751C26 17.0551 24.9175 20.8789 22.9538 23.7414C21.0675 26.4876 18.5988 28.0001 16 28.0001C13.4012 28.0001 10.9325 26.4876 9.04625 23.7401C7.0825 20.8751 6 17.0539 6 12.9739V6.0001C7.88875 6.73385 11.6975 7.96385 16 7.96385C20.3025 7.96385 24.1125 6.73385 26 6.0001V12.9764V12.9751ZM23.75 15.3339C23.9267 15.5328 24.0171 15.7937 24.0014 16.0593C23.9857 16.3249 23.8652 16.5734 23.6663 16.7501C23.4673 16.9268 23.2064 17.0172 22.9408 17.0015C22.6752 16.9858 22.4267 16.8653 22.25 16.6664C21.915 16.2914 21.1437 16.0001 20.5 16.0001C19.8562 16.0001 19.08 16.2926 18.75 16.6664C18.5731 16.8653 18.3245 16.9858 18.0588 17.0014C17.7931 17.0169 17.532 16.9263 17.3331 16.7495C17.1342 16.5726 17.0137 16.324 16.9981 16.0583C16.9825 15.7925 17.0731 15.5315 17.25 15.3326C17.9637 14.5351 19.2675 14.0001 20.5 14.0001C21.7325 14.0001 23.0312 14.5351 23.75 15.3326V15.3339ZM11.5 16.0001C10.8513 16.0001 10.08 16.2926 9.75 16.6664C9.57313 16.8653 9.32449 16.9858 9.05878 17.0014C8.79306 17.0169 8.53204 16.9263 8.33313 16.7495C8.13421 16.5726 8.01371 16.324 7.99812 16.0583C7.98253 15.7925 8.07313 15.5315 8.25 15.3326C8.96875 14.5351 10.2725 14.0001 11.5 14.0001C12.7275 14.0001 14.0312 14.5351 14.75 15.3326C14.9269 15.5315 15.0175 15.7925 15.0019 16.0583C14.9863 16.324 14.8658 16.5726 14.6669 16.7495C14.5684 16.8371 14.4536 16.9044 14.3291 16.9476C14.2046 16.9908 14.0728 17.0091 13.9412 17.0014C13.6755 16.9858 13.4269 16.8653 13.25 16.6664C12.92 16.2926 12.1488 16.0001 11.5 16.0001ZM21.0562 21.6489C20.4355 22.3853 19.6614 22.9773 18.7881 23.3834C17.9147 23.7895 16.9632 24 16 24C15.0368 24 14.0853 23.7895 13.2119 23.3834C12.3386 22.9773 11.5645 22.3853 10.9438 21.6489C10.8585 21.549 10.7937 21.4333 10.7531 21.3083C10.7126 21.1834 10.697 21.0517 10.7074 20.9208C10.7177 20.7899 10.7537 20.6623 10.8134 20.5453C10.873 20.4282 10.9551 20.3241 11.055 20.2389C11.1549 20.1536 11.2706 20.0888 11.3955 20.0482C11.5204 20.0077 11.6521 19.9921 11.783 20.0025C11.914 20.0128 12.0416 20.0488 12.1586 20.1085C12.2756 20.1681 12.3797 20.2502 12.465 20.3501C12.8978 20.8668 13.4386 21.2824 14.0494 21.5675C14.6601 21.8526 15.326 22.0004 16 22.0004C16.674 22.0004 17.3399 21.8526 17.9506 21.5675C18.5614 21.2824 19.1022 20.8668 19.535 20.3501C19.6203 20.2502 19.7244 20.1681 19.8414 20.1085C19.9584 20.0488 20.086 20.0128 20.217 20.0025C20.3479 19.9921 20.4796 20.0077 20.6045 20.0482C20.7294 20.0888 20.8451 20.1536 20.945 20.2389C21.0449 20.3241 21.127 20.4282 21.1866 20.5453C21.2463 20.6623 21.2823 20.7899 21.2926 20.9208C21.303 21.0517 21.2874 21.1834 21.2469 21.3083C21.2063 21.4333 21.1415 21.549 21.0562 21.6489Z" fill="#4A4A4F"/>
</svg>
