<svg width="32" height="32" viewBox="0 0 32 32" fill="none" xmlns="http://www.w3.org/2000/svg">
<path d="M14 9.00007C14 9.26528 13.8946 9.51964 13.7071 9.70717C13.5196 9.89471 13.2652 10.0001 13 10.0001H5C4.73478 10.0001 4.48043 9.89471 4.29289 9.70717C4.10536 9.51964 4 9.26528 4 9.00007C4 8.73485 4.10536 8.4805 4.29289 8.29296C4.48043 8.10542 4.73478 8.00007 5 8.00007H13C13.2652 8.00007 13.5196 8.10542 13.7071 8.29296C13.8946 8.4805 14 8.73485 14 9.00007ZM13 22.0001H10V19.0001C10 18.7349 9.89464 18.4805 9.70711 18.293C9.51957 18.1054 9.26522 18.0001 9 18.0001C8.73478 18.0001 8.48043 18.1054 8.29289 18.293C8.10536 18.4805 8 18.7349 8 19.0001V22.0001H5C4.73478 22.0001 4.48043 22.1054 4.29289 22.293C4.10536 22.4805 4 22.7349 4 23.0001C4 23.2653 4.10536 23.5196 4.29289 23.7072C4.48043 23.8947 4.73478 24.0001 5 24.0001H8V27.0001C8 27.2653 8.10536 27.5196 8.29289 27.7072C8.48043 27.8947 8.73478 28.0001 9 28.0001C9.26522 28.0001 9.51957 27.8947 9.70711 27.7072C9.89464 27.5196 10 27.2653 10 27.0001V24.0001H13C13.2652 24.0001 13.5196 23.8947 13.7071 23.7072C13.8946 23.5196 14 23.2653 14 23.0001C14 22.7349 13.8946 22.4805 13.7071 22.293C13.5196 22.1054 13.2652 22.0001 13 22.0001ZM19 22.0001H27C27.2652 22.0001 27.5196 21.8947 27.7071 21.7072C27.8946 21.5196 28 21.2653 28 21.0001C28 20.7349 27.8946 20.4805 27.7071 20.293C27.5196 20.1054 27.2652 20.0001 27 20.0001H19C18.7348 20.0001 18.4804 20.1054 18.2929 20.293C18.1054 20.4805 18 20.7349 18 21.0001C18 21.2653 18.1054 21.5196 18.2929 21.7072C18.4804 21.8947 18.7348 22.0001 19 22.0001ZM27 24.0001H19C18.7348 24.0001 18.4804 24.1054 18.2929 24.293C18.1054 24.4805 18 24.7349 18 25.0001C18 25.2653 18.1054 25.5196 18.2929 25.7072C18.4804 25.8947 18.7348 26.0001 19 26.0001H27C27.2652 26.0001 27.5196 25.8947 27.7071 25.7072C27.8946 25.5196 28 25.2653 28 25.0001C28 24.7349 27.8946 24.4805 27.7071 24.293C27.5196 24.1054 27.2652 24.0001 27 24.0001ZM19.2925 12.7076C19.3854 12.8005 19.4957 12.8743 19.6171 12.9246C19.7385 12.975 19.8686 13.0009 20 13.0009C20.1314 13.0009 20.2615 12.975 20.3829 12.9246C20.5043 12.8743 20.6146 12.8005 20.7075 12.7076L23 10.4138L25.2925 12.7076C25.3854 12.8005 25.4957 12.8742 25.6171 12.9245C25.7385 12.9747 25.8686 13.0006 26 13.0006C26.1314 13.0006 26.2615 12.9747 26.3829 12.9245C26.5043 12.8742 26.6146 12.8005 26.7075 12.7076C26.8004 12.6147 26.8741 12.5044 26.9244 12.383C26.9747 12.2616 27.0006 12.1315 27.0006 12.0001C27.0006 11.8687 26.9747 11.7386 26.9244 11.6172C26.8741 11.4958 26.8004 11.3855 26.7075 11.2926L24.4137 9.00007L26.7075 6.70757C26.8951 6.51993 27.0006 6.26543 27.0006 6.00007C27.0006 5.7347 26.8951 5.48021 26.7075 5.29257C26.5199 5.10493 26.2654 4.99951 26 4.99951C25.7346 4.99951 25.4801 5.10493 25.2925 5.29257L23 7.58632L20.7075 5.29257C20.5199 5.10493 20.2654 4.99951 20 4.99951C19.7346 4.99951 19.4801 5.10493 19.2925 5.29257C19.1049 5.48021 18.9994 5.7347 18.9994 6.00007C18.9994 6.26543 19.1049 6.51993 19.2925 6.70757L21.5863 9.00007L19.2925 11.2926C19.1995 11.3854 19.1258 11.4957 19.0754 11.6171C19.0251 11.7385 18.9992 11.8687 18.9992 12.0001C18.9992 12.1315 19.0251 12.2616 19.0754 12.383C19.1258 12.5044 19.1995 12.6147 19.2925 12.7076Z" fill="#4A4A4F"/>
</svg>
