<svg width="32" height="32" viewBox="0 0 32 32" fill="none" xmlns="http://www.w3.org/2000/svg">
<path d="M26 4H6C5.46957 4 4.96086 4.21071 4.58579 4.58579C4.21071 4.96086 4 5.46957 4 6V26C4 26.5304 4.21071 27.0391 4.58579 27.4142C4.96086 27.7893 5.46957 28 6 28H26C26.5304 28 27.0391 27.7893 27.4142 27.4142C27.7893 27.0391 28 26.5304 28 26V6C28 5.46957 27.7893 4.96086 27.4142 4.58579C27.0391 4.21071 26.5304 4 26 4ZM18.2925 9.7075C18.1049 9.51986 17.9994 9.26536 17.9994 9C17.9994 8.73464 18.1049 8.48014 18.2925 8.2925C18.4801 8.10486 18.7346 7.99944 19 7.99944C19.2654 7.99944 19.5199 8.10486 19.7075 8.2925L21 9.58625L22.2925 8.2925C22.4801 8.10486 22.7346 7.99944 23 7.99944C23.2654 7.99944 23.5199 8.10486 23.7075 8.2925C23.8951 8.48014 24.0006 8.73464 24.0006 9C24.0006 9.26536 23.8951 9.51986 23.7075 9.7075L22.4137 11L23.7075 12.2925C23.8004 12.3854 23.8741 12.4957 23.9244 12.6171C23.9747 12.7385 24.0006 12.8686 24.0006 13C24.0006 13.1314 23.9747 13.2615 23.9244 13.3829C23.8741 13.5043 23.8004 13.6146 23.7075 13.7075C23.6146 13.8004 23.5043 13.8741 23.3829 13.9244C23.2615 13.9747 23.1314 14.0006 23 14.0006C22.8686 14.0006 22.7385 13.9747 22.6171 13.9244C22.4957 13.8741 22.3854 13.8004 22.2925 13.7075L21 12.4137L19.7075 13.7075C19.5199 13.8951 19.2654 14.0006 19 14.0006C18.7346 14.0006 18.4801 13.8951 18.2925 13.7075C18.1049 13.5199 17.9994 13.2654 17.9994 13C17.9994 12.7346 18.1049 12.4801 18.2925 12.2925L19.5863 11L18.2925 9.7075ZM14 22H12V24C12 24.2652 11.8946 24.5196 11.7071 24.7071C11.5196 24.8946 11.2652 25 11 25C10.7348 25 10.4804 24.8946 10.2929 24.7071C10.1054 24.5196 10 24.2652 10 24V22H8C7.73478 22 7.48043 21.8946 7.29289 21.7071C7.10536 21.5196 7 21.2652 7 21C7 20.7348 7.10536 20.4804 7.29289 20.2929C7.48043 20.1054 7.73478 20 8 20H10V18C10 17.7348 10.1054 17.4804 10.2929 17.2929C10.4804 17.1054 10.7348 17 11 17C11.2652 17 11.5196 17.1054 11.7071 17.2929C11.8946 17.4804 12 17.7348 12 18V20H14C14.2652 20 14.5196 20.1054 14.7071 20.2929C14.8946 20.4804 15 20.7348 15 21C15 21.2652 14.8946 21.5196 14.7071 21.7071C14.5196 21.8946 14.2652 22 14 22ZM14 12H8C7.73478 12 7.48043 11.8946 7.29289 11.7071C7.10536 11.5196 7 11.2652 7 11C7 10.7348 7.10536 10.4804 7.29289 10.2929C7.48043 10.1054 7.73478 10 8 10H14C14.2652 10 14.5196 10.1054 14.7071 10.2929C14.8946 10.4804 15 10.7348 15 11C15 11.2652 14.8946 11.5196 14.7071 11.7071C14.5196 11.8946 14.2652 12 14 12ZM24 24H18C17.7348 24 17.4804 23.8946 17.2929 23.7071C17.1054 23.5196 17 23.2652 17 23C17 22.7348 17.1054 22.4804 17.2929 22.2929C17.4804 22.1054 17.7348 22 18 22H24C24.2652 22 24.5196 22.1054 24.7071 22.2929C24.8946 22.4804 25 22.7348 25 23C25 23.2652 24.8946 23.5196 24.7071 23.7071C24.5196 23.8946 24.2652 24 24 24ZM24 20H18C17.7348 20 17.4804 19.8946 17.2929 19.7071C17.1054 19.5196 17 19.2652 17 19C17 18.7348 17.1054 18.4804 17.2929 18.2929C17.4804 18.1054 17.7348 18 18 18H24C24.2652 18 24.5196 18.1054 24.7071 18.2929C24.8946 18.4804 25 18.7348 25 19C25 19.2652 24.8946 19.5196 24.7071 19.7071C24.5196 19.8946 24.2652 20 24 20Z" fill="#4A4A4F"/>
</svg>
