<svg width="32" height="32" viewBox="0 0 32 32" fill="none" xmlns="http://www.w3.org/2000/svg">
<path d="M25.875 4H6.125C5.56141 4 5.02091 4.22388 4.6224 4.6224C4.22388 5.02091 4 5.56141 4 6.125V12.2762C4.00053 12.6846 4.1187 13.0842 4.34039 13.4271C4.56207 13.77 4.87787 14.0419 5.25 14.21L13.075 17.7663C11.9164 18.4146 11.0055 19.429 10.4851 20.6504C9.9647 21.8719 9.86413 23.2314 10.1992 24.5162C10.5342 25.8009 11.2859 26.9383 12.3365 27.75C13.3871 28.5618 14.6773 29.0022 16.005 29.0022C17.3327 29.0022 18.6229 28.5618 19.6735 27.75C20.7241 26.9383 21.4758 25.8009 21.8108 24.5162C22.1459 23.2314 22.0453 21.8719 21.5249 20.6504C21.0045 19.429 20.0936 18.4146 18.935 17.7663L26.75 14.21C27.1221 14.0419 27.4379 13.77 27.6596 13.4271C27.8813 13.0842 27.9995 12.6846 28 12.2762V6.125C28 5.56141 27.7761 5.02091 27.3776 4.6224C26.9791 4.22388 26.4386 4 25.875 4ZM20 6V15.0837L16 16.9013L12 15.0837V6H20ZM6 12.2762V6.125C6 6.09185 6.01317 6.06005 6.03661 6.03661C6.06005 6.01317 6.09185 6 6.125 6H10V14.1737L6.07375 12.39C6.05182 12.3801 6.0332 12.3642 6.02012 12.344C6.00703 12.3238 6.00005 12.3003 6 12.2762ZM16 27C15.2089 27 14.4355 26.7654 13.7777 26.3259C13.1199 25.8864 12.6072 25.2616 12.3045 24.5307C12.0017 23.7998 11.9225 22.9956 12.0769 22.2196C12.2312 21.4437 12.6122 20.731 13.1716 20.1716C13.731 19.6122 14.4437 19.2312 15.2196 19.0769C15.9956 18.9225 16.7998 19.0017 17.5307 19.3045C18.2616 19.6072 18.8864 20.1199 19.3259 20.7777C19.7654 21.4355 20 22.2089 20 23C20 24.0609 19.5786 25.0783 18.8284 25.8284C18.0783 26.5786 17.0609 27 16 27ZM26 12.2762C26 12.3003 25.993 12.3238 25.9799 12.344C25.9668 12.3642 25.9482 12.3801 25.9263 12.39L22 14.1737V6H25.875C25.9082 6 25.9399 6.01317 25.9634 6.03661C25.9868 6.06005 26 6.09185 26 6.125V12.2762Z" fill="#4A4A4F"/>
</svg>
