<svg width="32" height="32" viewBox="0 0 32 32" fill="none" xmlns="http://www.w3.org/2000/svg">
<path d="M27 12.0002C27.0011 10.1464 26.5337 8.32248 25.6412 6.69771C24.7487 5.07295 23.4601 3.70009 21.895 2.70665C20.33 1.7132 18.5392 1.13139 16.6891 1.01526C14.839 0.899131 12.9896 1.25245 11.3125 2.04239C9.63553 2.83233 8.18535 4.03328 7.0967 5.53369C6.00805 7.03409 5.31624 8.78529 5.08553 10.6246C4.85482 12.464 5.09268 14.3318 5.77704 16.0546C6.4614 17.7774 7.57004 19.2993 9 20.4789V30.0002C8.99988 30.1707 9.04338 30.3385 9.12636 30.4875C9.20934 30.6365 9.32905 30.7618 9.4741 30.8514C9.61916 30.9411 9.78474 30.9922 9.95511 30.9999C10.1255 31.0075 10.295 30.9715 10.4475 30.8952L16 28.1252L21.5538 30.9014C21.693 30.9681 21.8457 31.0018 22 31.0002C22.2652 31.0002 22.5196 30.8948 22.7071 30.7073C22.8946 30.5198 23 30.2654 23 30.0002V20.4789C24.2512 19.4485 25.2587 18.1538 25.9503 16.6879C26.6419 15.2219 27.0003 13.6211 27 12.0002ZM7 12.0002C7 10.2202 7.52784 8.48009 8.51677 7.00005C9.50571 5.52001 10.9113 4.36646 12.5559 3.68527C14.2004 3.00408 16.01 2.82585 17.7558 3.17312C19.5016 3.52038 21.1053 4.37755 22.364 5.63622C23.6226 6.8949 24.4798 8.49854 24.8271 10.2444C25.1743 11.9902 24.9961 13.7998 24.3149 15.4443C23.6337 17.0889 22.4802 18.4945 21.0001 19.4834C19.5201 20.4723 17.78 21.0002 16 21.0002C13.6139 20.9975 11.3262 20.0485 9.63896 18.3612C7.95171 16.674 7.00265 14.3863 7 12.0002ZM21 28.3827L16.4463 26.1064C16.3073 26.0369 16.1541 26.0007 15.9988 26.0007C15.8434 26.0007 15.6902 26.0369 15.5513 26.1064L11 28.3827V21.7964C12.548 22.5876 14.2616 23.0002 16 23.0002C17.7384 23.0002 19.452 22.5876 21 21.7964V28.3827ZM16 19.0002C17.3845 19.0002 18.7378 18.5896 19.889 17.8205C21.0401 17.0513 21.9373 15.9581 22.4672 14.679C22.997 13.3999 23.1356 11.9924 22.8655 10.6346C22.5954 9.27668 21.9287 8.0294 20.9497 7.05044C19.9708 6.07147 18.7235 5.40478 17.3656 5.13469C16.0078 4.86459 14.6003 5.00321 13.3212 5.53303C12.0421 6.06284 10.9489 6.96005 10.1797 8.11119C9.41054 9.26234 9 10.6157 9 12.0002C9.00199 13.8561 9.74012 15.6354 11.0524 16.9477C12.3648 18.2601 14.1441 18.9982 16 19.0002ZM16 7.00018C16.9889 7.00018 17.9556 7.29343 18.7779 7.84284C19.6001 8.39224 20.241 9.17314 20.6194 10.0868C20.9978 11.0004 21.0969 12.0057 20.9039 12.9756C20.711 13.9455 20.2348 14.8365 19.5355 15.5357C18.8363 16.235 17.9454 16.7112 16.9755 16.9041C16.0055 17.097 15.0002 16.998 14.0866 16.6196C13.173 16.2411 12.3921 15.6003 11.8427 14.778C11.2932 13.9558 11 12.9891 11 12.0002C11 10.6741 11.5268 9.40233 12.4645 8.46465C13.4021 7.52697 14.6739 7.00018 16 7.00018Z" fill="#4A4A4F"/>
</svg>
