<svg width="32" height="32" viewBox="0 0 32 32" fill="none" xmlns="http://www.w3.org/2000/svg">
<path d="M9 8C7.41775 8 5.87103 8.46919 4.55544 9.34824C3.23985 10.2273 2.21447 11.4767 1.60897 12.9385C1.00347 14.4003 0.84504 16.0089 1.15372 17.5607C1.4624 19.1126 2.22433 20.538 3.34315 21.6569C4.46197 22.7757 5.88743 23.5376 7.43928 23.8463C8.99113 24.155 10.5997 23.9965 12.0615 23.391C13.5233 22.7855 14.7727 21.7602 15.6518 20.4446C16.5308 19.129 17 17.5823 17 16C16.9977 13.879 16.1541 11.8455 14.6543 10.3457C13.1545 8.84591 11.121 8.00232 9 8ZM9 22C7.81332 22 6.65328 21.6481 5.66658 20.9888C4.67989 20.3295 3.91085 19.3925 3.45673 18.2961C3.0026 17.1997 2.88378 15.9933 3.11529 14.8295C3.3468 13.6656 3.91825 12.5965 4.75736 11.7574C5.59648 10.9182 6.66558 10.3468 7.82946 10.1153C8.99335 9.88378 10.1997 10.0026 11.2961 10.4567C12.3925 10.9108 13.3295 11.6799 13.9888 12.6666C14.6481 13.6533 15 14.8133 15 16C14.9983 17.5908 14.3657 19.116 13.2408 20.2408C12.116 21.3657 10.5908 21.9983 9 22ZM23 8C22.29 8 20.95 8.345 19.96 10.6562C19.3413 12.1 19 14 19 16C19 18 19.3413 19.9 19.96 21.3438C20.95 23.655 22.29 24 23 24C23.71 24 25.05 23.655 26.04 21.3438C26.6588 19.9 27 18 27 16C27 14 26.6588 12.1 26.04 10.6562C25.05 8.345 23.71 8 23 8ZM23 22C22.295 22 21 19.7225 21 16C21 12.2775 22.295 10 23 10C23.705 10 25 12.2775 25 16C25 19.7225 23.705 22 23 22ZM31 9V23C31 23.2652 30.8946 23.5196 30.7071 23.7071C30.5196 23.8946 30.2652 24 30 24C29.7348 24 29.4804 23.8946 29.2929 23.7071C29.1054 23.5196 29 23.2652 29 23V9C29 8.73478 29.1054 8.48043 29.2929 8.29289C29.4804 8.10536 29.7348 8 30 8C30.2652 8 30.5196 8.10536 30.7071 8.29289C30.8946 8.48043 31 8.73478 31 9Z" fill="#4A4A4F"/>
</svg>
