<svg width="32" height="32" viewBox="0 0 32 32" fill="none" xmlns="http://www.w3.org/2000/svg">
<path d="M27.5675 10.8324L5.56 4.08244C5.26213 3.99556 4.94814 3.97918 4.64284 4.03459C4.33755 4.09 4.04934 4.21568 3.801 4.40169C3.55266 4.5877 3.351 4.82895 3.21198 5.10634C3.07296 5.38373 3.00039 5.68966 3 5.99994V23.9999C3 24.5304 3.21071 25.0391 3.58579 25.4142C3.96086 25.7892 4.46957 25.9999 5 25.9999C5.19125 26 5.38152 25.9727 5.565 25.9187L16 22.7162V23.9999C16 24.5304 16.2107 25.0391 16.5858 25.4142C16.9609 25.7892 17.4696 25.9999 18 25.9999H22C22.5304 25.9999 23.0391 25.7892 23.4142 25.4142C23.7893 25.0391 24 24.5304 24 23.9999V20.2624L27.5675 19.1687C27.9804 19.0446 28.3425 18.7912 28.6004 18.4457C28.8583 18.1003 28.9984 17.6811 29 17.2499V12.7499C28.9981 12.319 28.8579 11.9001 28.6 11.5549C28.3421 11.2097 27.9802 10.9564 27.5675 10.8324ZM22 23.9999H18V22.1024L22 20.8749V23.9999ZM27 17.2499H26.9862L18 20.0099V9.98869L26.9862 12.7499H27V17.2499Z" fill="#4A4A4F"/>
</svg>
