<svg width="32" height="32" viewBox="0 0 32 32" fill="none" xmlns="http://www.w3.org/2000/svg">
<path d="M22.7075 13.2925C22.8005 13.3854 22.8742 13.4957 22.9246 13.6171C22.9749 13.7385 23.0008 13.8686 23.0008 14C23.0008 14.1315 22.9749 14.2616 22.9246 14.383C22.8742 14.5044 22.8005 14.6147 22.7075 14.7075L18.7075 18.7075C18.6146 18.8005 18.5043 18.8743 18.3829 18.9246C18.2615 18.9749 18.1314 19.0008 18 19.0008C17.8686 19.0008 17.7385 18.9749 17.6171 18.9246C17.4957 18.8743 17.3854 18.8005 17.2925 18.7075L14 15.4138L10.7075 18.7075C10.5199 18.8952 10.2654 19.0006 10 19.0006C9.73464 19.0006 9.48014 18.8952 9.2925 18.7075C9.10486 18.5199 8.99944 18.2654 8.99944 18C8.99944 17.7347 9.10486 17.4802 9.2925 17.2925L13.2925 13.2925C13.3854 13.1996 13.4957 13.1258 13.6171 13.0755C13.7385 13.0252 13.8686 12.9993 14 12.9993C14.1314 12.9993 14.2615 13.0252 14.3829 13.0755C14.5043 13.1258 14.6146 13.1996 14.7075 13.2925L18 16.5863L21.2925 13.2925C21.3854 13.1996 21.4957 13.1258 21.6171 13.0755C21.7385 13.0252 21.8686 12.9993 22 12.9993C22.1314 12.9993 22.2615 13.0252 22.3829 13.0755C22.5043 13.1258 22.6146 13.1996 22.7075 13.2925ZM29 16C29.0005 18.2445 28.4199 20.4508 27.3147 22.4042C26.2095 24.3577 24.6174 25.9917 22.6934 27.1473C20.7693 28.3029 18.5788 28.9407 16.3352 28.9986C14.0915 29.0564 11.8711 28.5324 9.89 27.4775L5.63375 28.8963C5.28136 29.0138 4.9032 29.0309 4.54166 28.9455C4.18012 28.8602 3.84948 28.6759 3.58681 28.4132C3.32414 28.1506 3.13982 27.8199 3.0545 27.4584C2.96918 27.0968 2.98623 26.7187 3.10375 26.3663L4.5225 22.11C3.59519 20.3666 3.07725 18.4348 3.008 16.4613C2.93875 14.4877 3.32001 12.5244 4.12284 10.7202C4.92567 8.91604 6.12897 7.31847 7.6414 6.04878C9.15383 4.77909 10.9356 3.87063 12.8516 3.39238C14.7675 2.91413 16.7672 2.87865 18.699 3.28862C20.6307 3.6986 22.4436 4.54327 24.0001 5.7585C25.5566 6.97374 26.8158 8.52761 27.6822 10.3022C28.5485 12.0767 28.9992 14.0253 29 16ZM27 16C26.9995 14.3127 26.6109 12.6481 25.8641 11.135C25.1174 9.62186 24.0325 8.30083 22.6935 7.27408C21.3545 6.24733 19.7973 5.54238 18.1422 5.21377C16.4872 4.88517 14.7787 4.94171 13.149 5.37904C11.5194 5.81636 10.0121 6.62274 8.74394 7.73578C7.47577 8.84882 6.48065 10.2387 5.83558 11.7979C5.1905 13.357 4.91277 15.0437 5.02387 16.7274C5.13496 18.4111 5.63191 20.0466 6.47625 21.5075C6.54712 21.6302 6.59112 21.7665 6.60534 21.9074C6.61956 22.0484 6.60368 22.1907 6.55875 22.325L5 27L9.675 25.44C9.80942 25.3953 9.95182 25.3796 10.0928 25.3941C10.2337 25.4085 10.3699 25.4527 10.4925 25.5238C12.1647 26.491 14.0622 27.0008 15.994 27.0018C17.9257 27.0029 19.8237 26.4952 21.497 25.5298C23.1703 24.5645 24.5599 23.1755 25.5259 21.5025C26.4919 19.8296 27.0003 17.9318 27 16Z" fill="#4A4A4F"/>
</svg>
