<svg width="32" height="32" viewBox="0 0 32 32" fill="none" xmlns="http://www.w3.org/2000/svg">
<path d="M15.9999 3C13.7555 2.99951 11.5492 3.58011 9.59572 4.68529C7.64227 5.79046 6.00822 7.38256 4.85262 9.30662C3.69703 11.2307 3.05926 13.4212 3.00139 15.6648C2.94353 17.9085 3.46753 20.1289 4.52241 22.11L3.10366 26.3662C2.98614 26.7186 2.96908 27.0968 3.05441 27.4583C3.13973 27.8199 3.32405 28.1505 3.58672 28.4132C3.84939 28.6759 4.18003 28.8602 4.54157 28.9455C4.90311 29.0308 5.28127 29.0138 5.63366 28.8962L9.88991 27.4775C11.6334 28.4048 13.5652 28.9228 15.5387 28.992C17.5122 29.0613 19.4756 28.68 21.2797 27.8772C23.0839 27.0743 24.6815 25.871 25.9512 24.3586C27.2209 22.8462 28.1293 21.0644 28.6076 19.1484C29.0858 17.2325 29.1213 15.2328 28.7113 13.301C28.3013 11.3693 27.4567 9.55642 26.2414 7.9999C25.0262 6.44337 23.4723 5.18415 21.6978 4.31782C19.9232 3.45149 17.9746 3.00081 15.9999 3ZM22.7074 14.7075L18.7074 18.7075C18.6145 18.8005 18.5042 18.8742 18.3828 18.9246C18.2614 18.9749 18.1313 19.0008 17.9999 19.0008C17.8685 19.0008 17.7384 18.9749 17.617 18.9246C17.4956 18.8742 17.3853 18.8005 17.2924 18.7075L13.9999 15.4137L10.7074 18.7075C10.5198 18.8951 10.2653 19.0006 9.99991 19.0006C9.73454 19.0006 9.48005 18.8951 9.29241 18.7075C9.10477 18.5199 8.99935 18.2654 8.99935 18C8.99935 17.7346 9.10477 17.4801 9.29241 17.2925L13.2924 13.2925C13.3853 13.1995 13.4956 13.1258 13.617 13.0754C13.7384 13.0251 13.8685 12.9992 13.9999 12.9992C14.1313 12.9992 14.2614 13.0251 14.3828 13.0754C14.5042 13.1258 14.6145 13.1995 14.7074 13.2925L17.9999 16.5863L21.2924 13.2925C21.3853 13.1996 21.4956 13.1259 21.617 13.0756C21.7384 13.0253 21.8685 12.9994 21.9999 12.9994C22.1313 12.9994 22.2614 13.0253 22.3828 13.0756C22.5042 13.1259 22.6145 13.1996 22.7074 13.2925C22.8003 13.3854 22.874 13.4957 22.9243 13.6171C22.9746 13.7385 23.0005 13.8686 23.0005 14C23.0005 14.1314 22.9746 14.2615 22.9243 14.3829C22.874 14.5043 22.8003 14.6146 22.7074 14.7075Z" fill="#4A4A4F"/>
</svg>
