<svg width="32" height="32" viewBox="0 0 32 32" fill="none" xmlns="http://www.w3.org/2000/svg">
<path d="M30 18.6637C30 20.6775 29.6038 22.4 28.8538 23.6437C27.925 25.185 26.4788 26 24.68 26C21.1875 26 18.7075 21.375 16.0825 16.4725C13.955 12.5 11.5437 8 9.25 8C8.0775 8 6.7575 9.25 5.71875 11.3337C4.61382 13.621 4.02696 16.1238 4 18.6637C4 20.3137 4.2975 21.6788 4.86 22.6112C5.4225 23.5438 6.2275 24 7.32 24C9.21 24 11.1763 20.9325 12.8488 17.9312C12.978 17.6992 13.1942 17.528 13.4497 17.4553C13.7053 17.3826 13.9792 17.4145 14.2113 17.5438C14.4433 17.673 14.6145 17.8892 14.6872 18.1447C14.7599 18.4003 14.728 18.6742 14.5988 18.9062C12.6825 22.3387 10.3837 26 7.32 26C5.51875 26 4.07 25.185 3.14625 23.6437C2.39625 22.3937 2 20.6775 2 18.6637C2.02947 15.8149 2.68763 13.0076 3.9275 10.4425C5.3525 7.5775 7.2425 6 9.25 6C12.7425 6 15.2212 10.625 17.8475 15.5275C19.9737 19.5 22.385 24 24.68 24C25.7725 24 26.5775 23.5462 27.14 22.6112C27.7025 21.6762 28 20.3137 28 18.6637C27.9734 16.1239 27.387 13.6211 26.2825 11.3337C25.25 9.25 23.9237 8 22.75 8C21.705 8 20.54 8.935 19.1863 10.86C19.1118 10.9701 19.0161 11.0642 18.9049 11.1369C18.7936 11.2096 18.669 11.2593 18.5382 11.2833C18.4075 11.3072 18.2733 11.3049 18.1435 11.2764C18.0137 11.2479 17.8909 11.1938 17.7823 11.1173C17.6736 11.0408 17.5813 10.9434 17.5107 10.8308C17.4401 10.7182 17.3927 10.5926 17.3712 10.4615C17.3497 10.3304 17.3545 10.1962 17.3854 10.067C17.4163 9.93775 17.4727 9.81596 17.5513 9.70875C18.6763 8.11625 20.4263 6 22.75 6C24.7563 6 26.6463 7.5775 28.0713 10.4425C29.3115 13.0075 29.9701 15.8148 30 18.6637Z" fill="#4A4A4F"/>
</svg>
