<svg width="32" height="32" viewBox="0 0 32 32" fill="none" xmlns="http://www.w3.org/2000/svg">
<path d="M23.3926 14.355L26.7401 10.6725C26.9147 10.4757 27.0047 10.2179 26.9906 9.95516C26.9765 9.6924 26.8593 9.4458 26.6646 9.26883C26.4699 9.09185 26.2132 8.99877 25.9503 9.00975C25.6874 9.02074 25.4394 9.13491 25.2601 9.32751L22.6914 12.1525L20.5414 5.39376C20.4137 4.98857 20.1599 4.6348 19.8169 4.38406C19.474 4.13333 19.0599 3.99876 18.6351 4.00001H13.3639C12.939 3.99876 12.5249 4.13333 12.182 4.38406C11.8391 4.6348 11.5853 4.98857 11.4576 5.39376L5.09385 25.3938C4.99849 25.6936 4.9752 26.0116 5.02587 26.3221C5.07654 26.6326 5.19974 26.9268 5.38547 27.1807C5.5712 27.4347 5.81421 27.6412 6.09477 27.7835C6.37532 27.9259 6.6855 28.0001 7.0001 28H25.0001C25.3147 28.0001 25.6249 27.9259 25.9054 27.7835C26.186 27.6412 26.429 27.4347 26.6147 27.1807C26.8005 26.9268 26.9237 26.6326 26.9743 26.3221C27.025 26.0116 27.0017 25.6936 26.9064 25.3938L23.3926 14.355ZM23.0901 20H18.2601L21.8376 16.065L23.0901 20ZM13.3639 6.00001H18.6351L21.1351 13.8625L15.5576 20H8.90885L13.3639 6.00001ZM7.0001 26L8.2726 22H23.7264L25.0001 26H7.0001Z" fill="#4A4A4F"/>
</svg>
