<svg width="32" height="32" viewBox="0 0 32 32" fill="none" xmlns="http://www.w3.org/2000/svg">
<path d="M23.3924 14.355L26.7399 10.6725C26.9145 10.4757 27.0045 10.2179 26.9904 9.95516C26.9762 9.6924 26.8591 9.4458 26.6643 9.26883C26.4696 9.09185 26.213 8.99877 25.9501 9.00975C25.6871 9.02074 25.4392 9.13491 25.2599 9.32751L22.6911 12.1525L20.5411 5.39376C20.4135 4.98857 20.1596 4.6348 19.8167 4.38406C19.4738 4.13333 19.0597 3.99876 18.6349 4.00001H13.3636C12.9388 3.99876 12.5247 4.13333 12.1818 4.38406C11.8388 4.6348 11.585 4.98857 11.4574 5.39376L5.09361 25.3938C4.99825 25.6936 4.97495 26.0116 5.02562 26.3221C5.07629 26.6326 5.1995 26.9268 5.38523 27.1807C5.57095 27.4347 5.81397 27.6412 6.09452 27.7835C6.37508 27.9259 6.68526 28.0001 6.99986 28H24.9999C25.3145 28.0001 25.6246 27.9259 25.9052 27.7835C26.1858 27.6412 26.4288 27.4347 26.6145 27.1807C26.8002 26.9268 26.9234 26.6326 26.9741 26.3221C27.0248 26.0116 27.0015 25.6936 26.9061 25.3938L23.3924 14.355ZM8.90861 20L13.3636 6.00001H18.6349L21.1349 13.8625L15.5574 20H8.90861ZM18.2599 20L21.8374 16.065L23.0874 20H18.2599Z" fill="#4A4A4F"/>
</svg>
