<svg width="32" height="32" viewBox="0 0 32 32" fill="none" xmlns="http://www.w3.org/2000/svg">
<path d="M26.7398 26.3274L6.73976 4.32739C6.65194 4.22839 6.54535 4.14782 6.42616 4.09032C6.30697 4.03283 6.17756 3.99957 6.04542 3.99246C5.91328 3.98535 5.78104 4.00454 5.65637 4.04891C5.53171 4.09329 5.41708 4.16196 5.31915 4.25096C5.22122 4.33996 5.14193 4.44751 5.08587 4.56738C5.02981 4.68725 4.99809 4.81705 4.99257 4.94927C4.98705 5.08149 5.00782 5.21348 5.05369 5.33761C5.09955 5.46174 5.1696 5.57553 5.25976 5.67239L9.99976 10.8861V15.9999C9.99991 17.0767 10.2899 18.1337 10.8392 19.0599C11.3886 19.9861 12.177 20.7474 13.122 21.2639C14.0669 21.7804 15.1334 22.0331 16.2096 21.9954C17.2858 21.9578 18.332 21.6312 19.2385 21.0499L20.5985 22.5499C19.3998 23.392 17.993 23.8888 16.5313 23.9861C15.0696 24.0834 13.6093 23.7776 12.3095 23.1018C11.0098 22.4261 9.92054 21.4065 9.16056 20.1541C8.40058 18.9018 7.99905 17.4648 7.99976 15.9999C7.99976 15.7347 7.89441 15.4803 7.70687 15.2928C7.51933 15.1052 7.26498 14.9999 6.99976 14.9999C6.73455 14.9999 6.48019 15.1052 6.29266 15.2928C6.10512 15.4803 5.99976 15.7347 5.99976 15.9999C6.00281 18.4781 6.92467 20.8671 8.58707 22.705C10.2495 24.5428 12.5343 25.699 14.9998 25.9499V28.9999C14.9998 29.2651 15.1051 29.5195 15.2927 29.707C15.4802 29.8945 15.7345 29.9999 15.9998 29.9999C16.265 29.9999 16.5193 29.8945 16.7069 29.707C16.8944 29.5195 16.9998 29.2651 16.9998 28.9999V25.9486C18.7933 25.7702 20.5048 25.1088 21.9523 24.0349L25.2598 27.6724C25.3476 27.7714 25.4542 27.852 25.5734 27.9095C25.6926 27.9669 25.822 28.0002 25.9541 28.0073C26.0862 28.0144 26.2185 27.9952 26.3432 27.9509C26.4678 27.9065 26.5824 27.8378 26.6804 27.7488C26.7783 27.6598 26.8576 27.5523 26.9137 27.4324C26.9697 27.3125 27.0014 27.1827 27.007 27.0505C27.0125 26.9183 26.9917 26.7863 26.9458 26.6622C26.9 26.538 26.8299 26.4242 26.7398 26.3274ZM15.9998 19.9999C14.9389 19.9999 13.9215 19.5785 13.1713 18.8283C12.4212 18.0782 11.9998 17.0608 11.9998 15.9999V13.0861L17.8648 19.5386C17.2898 19.8416 16.6497 19.9999 15.9998 19.9999ZM10.8948 4.84739C11.5808 3.73655 12.6104 2.87979 13.8274 2.40708C15.0444 1.93438 16.3824 1.87153 17.6383 2.22807C18.8943 2.58461 19.9996 3.34109 20.7868 4.38272C21.5739 5.42436 21.9997 6.6943 21.9998 7.99989V15.5536C21.9998 15.8189 21.8944 16.0732 21.7069 16.2607C21.5193 16.4483 21.265 16.5536 20.9998 16.5536C20.7345 16.5536 20.4802 16.4483 20.2927 16.2607C20.1051 16.0732 19.9998 15.8189 19.9998 15.5536V7.99989C20.0002 7.12903 19.7165 6.28181 19.1916 5.58689C18.6668 4.89198 17.9295 4.38733 17.0917 4.1496C16.2539 3.91187 15.3614 3.95405 14.5498 4.26972C13.7382 4.5854 13.0518 5.15732 12.5948 5.89864C12.5282 6.01522 12.4388 6.11721 12.332 6.19851C12.2251 6.27981 12.103 6.33876 11.9729 6.37185C11.8427 6.40494 11.7073 6.41149 11.5746 6.39111C11.4419 6.37073 11.3146 6.32383 11.2005 6.25322C11.0863 6.1826 10.9875 6.08972 10.9099 5.9801C10.8324 5.87048 10.7778 5.74638 10.7492 5.61518C10.7207 5.48399 10.7189 5.34839 10.7439 5.21648C10.7689 5.08457 10.8202 4.95904 10.8948 4.84739ZM23.4548 18.9086C23.8166 17.9816 24.0014 16.995 23.9998 15.9999C23.9998 15.7347 24.1051 15.4803 24.2927 15.2928C24.4802 15.1052 24.7345 14.9999 24.9998 14.9999C25.265 14.9999 25.5193 15.1052 25.7069 15.2928C25.8944 15.4803 25.9998 15.7347 25.9998 15.9999C26.0015 17.244 25.77 18.4774 25.3173 19.6361C25.2715 19.7611 25.2012 19.8758 25.1106 19.9733C25.0199 20.0708 24.9107 20.1492 24.7894 20.2039C24.668 20.2586 24.537 20.2886 24.4039 20.292C24.2708 20.2954 24.1384 20.2723 24.0144 20.2238C23.8904 20.1754 23.7773 20.1027 23.6818 20.01C23.5862 19.9172 23.5102 19.8064 23.4581 19.6839C23.4059 19.5614 23.3788 19.4297 23.3782 19.2966C23.3777 19.1635 23.4037 19.0316 23.4548 18.9086Z" fill="#4A4A4F"/>
</svg>
