<svg width="32" height="32" viewBox="0 0 32 32" fill="none" xmlns="http://www.w3.org/2000/svg">
<path d="M11 12C10.2089 12 9.43552 12.2346 8.77772 12.6741C8.11992 13.1136 7.60723 13.7384 7.30448 14.4693C7.00173 15.2002 6.92252 16.0044 7.07686 16.7804C7.2312 17.5563 7.61216 18.269 8.17157 18.8284C8.73098 19.3878 9.44371 19.7688 10.2196 19.9231C10.9956 20.0775 11.7998 19.9983 12.5307 19.6955C13.2616 19.3928 13.8864 18.8801 14.3259 18.2223C14.7654 17.5645 15 16.7911 15 16C15 14.9391 14.5786 13.9217 13.8284 13.1716C13.0783 12.4214 12.0609 12 11 12ZM11 18C10.6044 18 10.2178 17.8827 9.88886 17.6629C9.55996 17.4432 9.30362 17.1308 9.15224 16.7654C9.00087 16.3999 8.96126 15.9978 9.03843 15.6098C9.1156 15.2219 9.30608 14.8655 9.58579 14.5858C9.86549 14.3061 10.2219 14.1156 10.6098 14.0384C10.9978 13.9613 11.3999 14.0009 11.7654 14.1522C12.1308 14.3036 12.4432 14.56 12.6629 14.8889C12.8827 15.2178 13 15.6044 13 16C13 16.5304 12.7893 17.0391 12.4142 17.4142C12.0391 17.7893 11.5304 18 11 18ZM27 13H26V6C26 5.46957 25.7893 4.96086 25.4142 4.58579C25.0391 4.21071 24.5304 4 24 4H14C13.4696 4 12.9609 4.21071 12.5858 4.58579C12.2107 4.96086 12 5.46957 12 6V8H5C4.46957 8 3.96086 8.21071 3.58579 8.58579C3.21071 8.96086 3 9.46957 3 10V22C3 22.5304 3.21071 23.0391 3.58579 23.4142C3.96086 23.7893 4.46957 24 5 24H9V26C9 26.5304 9.21071 27.0391 9.58579 27.4142C9.96086 27.7893 10.4696 28 11 28H27C27.5304 28 28.0391 27.7893 28.4142 27.4142C28.7893 27.0391 29 26.5304 29 26V15C29 14.4696 28.7893 13.9609 28.4142 13.5858C28.0391 13.2107 27.5304 13 27 13ZM14 6H24V15.655L19 19.2663V10C19 9.46957 18.7893 8.96086 18.4142 8.58579C18.0391 8.21071 17.5304 8 17 8H14V6ZM5 22V10H17V22H5ZM11 26V24H17C17.5304 24 18.0391 23.7893 18.4142 23.4142C18.7893 23.0391 19 22.5304 19 22V21.7337L24.9075 26H11ZM27 25.0438L20.7075 20.5L27 15.9563V25.0438Z" fill="#4A4A4F"/>
</svg>
