<svg width="32" height="32" viewBox="0 0 32 32" fill="none" xmlns="http://www.w3.org/2000/svg">
<path d="M14.3826 5.79494C14.3309 5.74324 14.2686 5.7035 14.1999 5.67853C14.1312 5.65355 14.0578 5.64394 13.985 5.65037C13.9122 5.65681 13.8417 5.67913 13.7784 5.71577C13.7151 5.75241 13.6607 5.80248 13.6189 5.86244C12.5641 7.36787 11.9989 9.16177 12.0001 10.9999C12.001 11.3937 12.0274 11.787 12.0789 12.1774L3.39013 24.0274C3.10574 24.4121 2.96931 24.8862 3.00581 25.3632C3.0423 25.8402 3.24928 26.2881 3.58888 26.6249L5.37513 28.4112C5.71202 28.7508 6.15991 28.9578 6.63687 28.9943C7.11383 29.0308 7.58799 28.8943 7.97263 28.6099L19.8239 19.9187C20.2138 19.971 20.6067 19.9981 21.0001 19.9999C22.8376 20.0017 24.631 19.4373 26.1364 18.3837C26.1963 18.3419 26.2464 18.2874 26.283 18.2242C26.3197 18.1609 26.342 18.0904 26.3484 18.0176C26.3549 17.9448 26.3453 17.8714 26.3203 17.8027C26.2953 17.734 26.2556 17.6716 26.2039 17.6199L14.3826 5.79494ZM14.7089 18.7049L12.7089 20.7049C12.6169 20.8017 12.5066 20.8791 12.3843 20.9325C12.2619 20.986 12.1302 21.0144 11.9967 21.0161C11.8632 21.0178 11.7308 20.9928 11.6071 20.9425C11.4835 20.8922 11.3712 20.8177 11.2768 20.7233C11.1824 20.6289 11.1079 20.5166 11.0576 20.3929C11.0073 20.2693 10.9823 20.1368 10.984 20.0034C10.9857 19.8699 11.0141 19.7381 11.0675 19.6158C11.121 19.4935 11.1984 19.3831 11.2951 19.2912L13.2951 17.2912C13.4842 17.1116 13.7359 17.0129 13.9967 17.0163C14.2575 17.0196 14.5066 17.1247 14.691 17.3091C14.8754 17.4935 14.9805 17.7426 14.9838 18.0034C14.9872 18.2641 14.8885 18.5159 14.7089 18.7049ZM28.3839 16.1349C28.3421 16.1951 28.2876 16.2454 28.2242 16.2821C28.1608 16.3189 28.0902 16.3413 28.0172 16.3478C27.9442 16.3542 27.8707 16.3445 27.8019 16.3194C27.733 16.2943 27.6706 16.2544 27.6189 16.2024L15.7976 4.38119C15.7457 4.3295 15.7058 4.26703 15.6807 4.19821C15.6556 4.12938 15.6459 4.05587 15.6523 3.98289C15.6588 3.90991 15.6812 3.83924 15.7179 3.77587C15.7547 3.7125 15.805 3.65799 15.8651 3.61619C17.5966 2.408 19.6981 1.84767 21.8012 2.03341C23.9044 2.21914 25.8751 3.13908 27.368 4.63202C28.861 6.12497 29.7809 8.09569 29.9667 10.1989C30.1524 12.302 29.5921 14.4035 28.3839 16.1349Z" fill="#4A4A4F"/>
</svg>
