<svg width="32" height="32" viewBox="0 0 32 32" fill="none" xmlns="http://www.w3.org/2000/svg">
<path d="M11 18C10.6044 18 10.2178 17.8827 9.88886 17.6629C9.55996 17.4432 9.30362 17.1308 9.15224 16.7654C9.00087 16.3999 8.96126 15.9978 9.03843 15.6098C9.1156 15.2219 9.30608 14.8655 9.58579 14.5858C9.86549 14.3061 10.2219 14.1156 10.6098 14.0384C10.9978 13.9613 11.3999 14.0009 11.7654 14.1522C12.1308 14.3036 12.4432 14.56 12.6629 14.8889C12.8827 15.2178 13 15.6044 13 16C13 16.5304 12.7893 17.0391 12.4142 17.4142C12.0391 17.7893 11.5304 18 11 18ZM29 15V26C28.9998 26.2717 28.9444 26.5405 28.8369 26.79C28.7294 27.0395 28.5723 27.2645 28.375 27.4513C28.3465 27.48 28.3165 27.5071 28.285 27.5325C27.9253 27.8351 27.4701 28.0007 27 28H11C10.4696 28 9.96086 27.7893 9.58579 27.4142C9.21071 27.0391 9 26.5304 9 26V24H5C4.46957 24 3.96086 23.7893 3.58579 23.4142C3.21071 23.0391 3 22.5304 3 22V10C3 9.46957 3.21071 8.96086 3.58579 8.58579C3.96086 8.21071 4.46957 8 5 8H12V6C12 5.46957 12.2107 4.96086 12.5858 4.58579C12.9609 4.21071 13.4696 4 14 4H24C24.5304 4 25.0391 4.21071 25.4142 4.58579C25.7893 4.96086 26 5.46957 26 6V13H27C27.455 13.0005 27.8961 13.1566 28.25 13.4425L28.26 13.4513L28.2775 13.465C28.3104 13.491 28.3413 13.5194 28.37 13.55C28.5684 13.7359 28.7267 13.9604 28.8351 14.2098C28.9434 14.4592 28.9995 14.7281 29 15ZM14 8H17C17.5304 8 18.0391 8.21071 18.4142 8.58579C18.7893 8.96086 19 9.46957 19 10V19.2663L24 15.655V6H14V8ZM11 20C11.7911 20 12.5645 19.7654 13.2223 19.3259C13.8801 18.8864 14.3928 18.2616 14.6955 17.5307C14.9983 16.7998 15.0775 15.9956 14.9231 15.2196C14.7688 14.4437 14.3878 13.731 13.8284 13.1716C13.269 12.6122 12.5563 12.2312 11.7804 12.0769C11.0044 11.9225 10.2002 12.0017 9.46927 12.3045C8.73836 12.6072 8.11365 13.1199 7.67412 13.7777C7.2346 14.4355 7 15.2089 7 16C7 17.0609 7.42143 18.0783 8.17157 18.8284C8.92172 19.5786 9.93913 20 11 20ZM24.9075 26L19 21.7337V22C19 22.5304 18.7893 23.0391 18.4142 23.4142C18.0391 23.7893 17.5304 24 17 24H11V26H24.9075ZM27 15.9563L20.7075 20.5L27 25.0438V15.9563Z" fill="#4A4A4F"/>
</svg>
