<svg width="32" height="32" viewBox="0 0 32 32" fill="none" xmlns="http://www.w3.org/2000/svg">
<path d="M27.4075 9.99986H26.4613C26.8149 9.39273 27.0009 8.70249 27 7.99986C27.0004 7.32293 26.8289 6.65699 26.5017 6.06439C26.1745 5.47178 25.7023 4.97191 25.1293 4.61157C24.5562 4.25123 23.9011 4.04221 23.2253 4.00409C22.5494 3.96597 21.8749 4.09999 21.265 4.39361C20.651 3.39133 19.7036 2.63738 18.5891 2.26415C17.4745 1.89092 16.2641 1.92226 15.1704 2.35269C14.0766 2.78311 13.1695 3.58509 12.6082 4.61781C12.047 5.65053 11.8675 6.84796 12.1012 7.99986H5C4.46957 7.99986 3.96086 8.21057 3.58579 8.58565C3.21071 8.96072 3 9.46943 3 9.99986V21.9999C3 22.5303 3.21071 23.039 3.58579 23.4141C3.96086 23.7891 4.46957 23.9999 5 23.9999H9.58375C10.1824 25.478 11.2091 26.7434 12.5321 27.6338C13.8552 28.5242 15.4141 28.9988 17.0088 28.9968C18.6036 28.9948 20.1613 28.5162 21.4821 27.6225C22.8028 26.7288 23.8264 25.4607 24.4212 23.9811C25.6698 23.8755 26.8332 23.3051 27.6811 22.3826C28.5291 21.4601 28.9998 20.2529 29 18.9999V11.5924C28.9993 11.1702 28.8313 10.7655 28.5328 10.467C28.2343 10.1685 27.8297 10.0005 27.4075 9.99986ZM17 3.99986C17.6206 3.99982 18.226 4.19226 18.7327 4.55067C19.2393 4.90907 19.6224 5.4158 19.829 6.00102C20.0357 6.58624 20.0557 7.22113 19.8864 7.81822C19.7171 8.41531 19.3668 8.9452 18.8838 9.33486C18.7463 8.94491 18.4913 8.60716 18.154 8.36809C17.8166 8.12901 17.4135 8.00037 17 7.99986H14.1725C14.0125 7.54744 13.9635 7.06325 14.0293 6.58793C14.0952 6.11261 14.2742 5.66004 14.5512 5.26819C14.8282 4.87634 15.1951 4.55665 15.6212 4.33596C16.0473 4.11527 16.5201 4.00001 17 3.99986ZM11 19.9999C10.7348 19.9999 10.4804 19.8945 10.2929 19.707C10.1054 19.5194 10 19.2651 10 18.9999V13.9999H9C8.73478 13.9999 8.48043 13.8945 8.29289 13.707C8.10536 13.5194 8 13.2651 8 12.9999C8 12.7346 8.10536 12.4803 8.29289 12.2928C8.48043 12.1052 8.73478 11.9999 9 11.9999H13C13.2652 11.9999 13.5196 12.1052 13.7071 12.2928C13.8946 12.4803 14 12.7346 14 12.9999C14 13.2651 13.8946 13.5194 13.7071 13.707C13.5196 13.8945 13.2652 13.9999 13 13.9999H12V18.9999C12 19.2651 11.8946 19.5194 11.7071 19.707C11.5196 19.8945 11.2652 19.9999 11 19.9999ZM23 20.9999C22.9996 22.3203 22.5636 23.6037 21.7596 24.6512C20.9556 25.6986 19.8285 26.4516 18.5531 26.7934C17.2776 27.1352 15.9251 27.0467 14.705 26.5416C13.485 26.0366 12.4657 25.1431 11.805 23.9999H17C17.5304 23.9999 18.0391 23.7891 18.4142 23.4141C18.7893 23.039 19 22.5303 19 21.9999V11.9999H23V20.9999ZM23 9.99986H21C21.3938 9.47584 21.6804 8.87933 21.8434 8.24444C22.0064 7.60956 22.0426 6.94876 21.95 6.29986C22.2131 6.13679 22.5105 6.03702 22.8188 6.00842C23.127 5.97981 23.4377 6.02315 23.7263 6.13502C24.0149 6.24688 24.2737 6.42423 24.4821 6.65308C24.6906 6.88193 24.8431 7.15605 24.9276 7.45386C25.0121 7.75166 25.0263 8.06501 24.9692 8.36925C24.912 8.67348 24.785 8.96029 24.5981 9.2071C24.4113 9.4539 24.1697 9.65396 23.8923 9.79153C23.615 9.9291 23.3096 10.0004 23 9.99986ZM27 18.9999C27 19.6283 26.8025 20.2409 26.4356 20.7512C26.0687 21.2614 25.5508 21.6435 24.955 21.8436C24.9851 21.5634 25.0002 21.2817 25 20.9999V11.9999H27V18.9999Z" fill="#4A4A4F"/>
</svg>
