<svg width="32" height="32" viewBox="0 0 32 32" fill="none" xmlns="http://www.w3.org/2000/svg">
<path d="M14 12.9999C14 13.2651 13.8946 13.5194 13.7071 13.707C13.5196 13.8945 13.2652 13.9999 13 13.9999H12V18.9999C12 19.2651 11.8946 19.5194 11.7071 19.707C11.5196 19.8945 11.2652 19.9999 11 19.9999C10.7348 19.9999 10.4804 19.8945 10.2929 19.707C10.1054 19.5194 10 19.2651 10 18.9999V13.9999H9C8.73478 13.9999 8.48043 13.8945 8.29289 13.707C8.10536 13.5194 8 13.2651 8 12.9999C8 12.7346 8.10536 12.4803 8.29289 12.2928C8.48043 12.1052 8.73478 11.9999 9 11.9999H13C13.2652 11.9999 13.5196 12.1052 13.7071 12.2928C13.8946 12.4803 14 12.7346 14 12.9999ZM29 11.5924V18.9999C28.9998 20.2529 28.5291 21.4601 27.6811 22.3826C26.8332 23.3051 25.6698 23.8755 24.4212 23.9811C23.8264 25.4607 22.8028 26.7288 21.4821 27.6225C20.1613 28.5162 18.6036 28.9948 17.0088 28.9968C15.4141 28.9988 13.8552 28.5242 12.5321 27.6338C11.2091 26.7434 10.1824 25.478 9.58375 23.9999H5C4.46957 23.9999 3.96086 23.7891 3.58579 23.4141C3.21071 23.039 3 22.5303 3 21.9999V9.99986C3 9.46943 3.21071 8.96072 3.58579 8.58565C3.96086 8.21057 4.46957 7.99986 5 7.99986H12.1012C11.8675 6.84796 12.047 5.65053 12.6082 4.61781C13.1695 3.58509 14.0766 2.78311 15.1704 2.35269C16.2641 1.92226 17.4745 1.89092 18.5891 2.26415C19.7036 2.63738 20.651 3.39133 21.265 4.39361C22.0354 4.02333 22.9042 3.90959 23.744 4.06905C24.5837 4.22851 25.3503 4.6528 25.9314 5.27971C26.5125 5.90662 26.8774 6.70318 26.9728 7.55263C27.0681 8.40207 26.8889 9.25972 26.4613 9.99986H27.4075C27.8297 10.0005 28.2343 10.1685 28.5328 10.467C28.8313 10.7655 28.9993 11.1702 29 11.5924ZM14 6.99986C13.9999 7.34061 14.0582 7.67885 14.1725 7.99986H17C17.4135 8.00037 17.8166 8.12901 18.154 8.36809C18.4913 8.60716 18.7463 8.94491 18.8838 9.33486C19.2782 9.01659 19.5857 8.60355 19.7773 8.13431C19.9689 7.66507 20.0386 7.15492 19.9797 6.65148C19.9208 6.14804 19.7353 5.66773 19.4405 5.25539C19.1458 4.84304 18.7513 4.5121 18.294 4.29346C17.8368 4.07483 17.3315 3.97562 16.8255 4.0051C16.3195 4.03458 15.8292 4.19179 15.4004 4.46205C14.9716 4.73231 14.6183 5.10682 14.3734 5.5506C14.1285 5.99439 14 6.49299 14 6.99986ZM17 21.9999V9.99986H5V21.9999H17ZM23 11.9999H19V21.9999C19 22.5303 18.7893 23.039 18.4142 23.4141C18.0391 23.7891 17.5304 23.9999 17 23.9999H11.805C12.4657 25.1431 13.485 26.0366 14.705 26.5416C15.9251 27.0467 17.2776 27.1352 18.5531 26.7934C19.8285 26.4516 20.9556 25.6986 21.7596 24.6512C22.5636 23.6037 22.9996 22.3203 23 20.9999V11.9999ZM25 7.99986C24.9996 7.64403 24.9043 7.29476 24.7239 6.98806C24.5435 6.68136 24.2845 6.42834 23.9737 6.2551C23.6629 6.08187 23.3115 5.99468 22.9558 6.00255C22.6 6.01042 22.2528 6.11305 21.95 6.29986C22.0426 6.94876 22.0064 7.60956 21.8434 8.24444C21.6804 8.87933 21.3938 9.47584 21 9.99986H23C23.5304 9.99986 24.0391 9.78915 24.4142 9.41407C24.7893 9.039 25 8.53029 25 7.99986ZM27 11.9999H25V20.9999C25.0002 21.2817 24.9851 21.5634 24.955 21.8436C25.5508 21.6435 26.0687 21.2614 26.4356 20.7512C26.8025 20.2409 27 19.6283 27 18.9999V11.9999Z" fill="#4A4A4F"/>
</svg>
