<svg width="32" height="32" viewBox="0 0 32 32" fill="none" xmlns="http://www.w3.org/2000/svg">
<path d="M20.9999 2C18.6136 2.00232 16.3258 2.95127 14.6385 4.6386C12.9512 6.32592 12.0022 8.61376 11.9999 11C12.0008 11.3938 12.0271 11.7871 12.0786 12.1775L3.38989 24.0275C3.10549 24.4121 2.96907 24.8863 3.00556 25.3633C3.04206 25.8402 3.24903 26.2881 3.58864 26.625L5.37489 28.4112C5.71178 28.7509 6.15966 28.9578 6.63663 28.9943C7.11359 29.0308 7.58775 28.8944 7.97239 28.61L19.8236 19.9188C20.2136 19.9711 20.6065 19.9982 20.9999 20C23.3868 20 25.676 19.0518 27.3638 17.364C29.0517 15.6761 29.9999 13.3869 29.9999 11C29.9999 8.61305 29.0517 6.32387 27.3638 4.63604C25.676 2.94821 23.3868 2 20.9999 2ZM27.9999 11C28.0017 12.511 27.5121 13.9816 26.6049 15.19L16.8111 5.395C17.8515 4.61799 19.0875 4.14566 20.3809 4.03084C21.6743 3.91602 22.9742 4.16322 24.1351 4.74481C25.2961 5.3264 26.2724 6.21945 26.9549 7.32411C27.6375 8.42877 27.9993 9.7015 27.9999 11ZM6.78989 27L4.99989 25.21L12.7674 14.625C13.6776 16.6798 15.32 18.3223 17.3749 19.2325L6.78989 27ZM13.9999 11C13.9979 9.48934 14.4876 8.01907 15.3949 6.81125L25.1874 16.6038C24.1471 17.3803 22.9114 17.8524 21.6183 17.967C20.3252 18.0817 19.0256 17.8345 17.8649 17.2531C16.7042 16.6718 15.728 15.779 15.0455 14.6748C14.3629 13.5705 14.0009 12.2982 13.9999 11ZM13.7061 18.2925C13.8935 18.48 13.9988 18.7343 13.9988 18.9994C13.9988 19.2645 13.8935 19.5187 13.7061 19.7062L12.7061 20.7062C12.6142 20.803 12.5038 20.8804 12.3815 20.9338C12.2592 20.9873 12.1274 21.0157 11.994 21.0174C11.8605 21.0191 11.728 20.9941 11.6044 20.9438C11.4808 20.8935 11.3684 20.819 11.2741 20.7246C11.1797 20.6302 11.1051 20.5179 11.0548 20.3942C11.0046 20.2706 10.9795 20.1381 10.9812 20.0047C10.9829 19.8712 11.0114 19.7394 11.0648 19.6171C11.1182 19.4948 11.1956 19.3844 11.2924 19.2925L12.2924 18.2925C12.3852 18.1993 12.4955 18.1252 12.617 18.0747C12.7384 18.0242 12.8687 17.9981 13.0003 17.998C13.1318 17.9978 13.2621 18.0237 13.3837 18.074C13.5052 18.1243 13.6157 18.1982 13.7086 18.2913L13.7061 18.2925Z" fill="#4A4A4F"/>
</svg>
