<svg width="32" height="32" viewBox="0 0 32 32" fill="none" xmlns="http://www.w3.org/2000/svg">
<path d="M25 3H9C8.46957 3 7.96086 3.21071 7.58579 3.58579C7.21071 3.96086 7 4.46957 7 5V8H5C4.46957 8 3.96086 8.21071 3.58579 8.58579C3.21071 8.96086 3 9.46957 3 10V22C3 22.5304 3.21071 23.0391 3.58579 23.4142C3.96086 23.7893 4.46957 24 5 24H7V27C7 27.5304 7.21071 28.0391 7.58579 28.4142C7.96086 28.7893 8.46957 29 9 29H25C25.5304 29 26.0391 28.7893 26.4142 28.4142C26.7893 28.0391 27 27.5304 27 27V5C27 4.46957 26.7893 3.96086 26.4142 3.58579C26.0391 3.21071 25.5304 3 25 3ZM20 13H25V19H20V13ZM25 11H20V10C20 9.46957 19.7893 8.96086 19.4142 8.58579C19.0391 8.21071 18.5304 8 18 8V5H25V11ZM9 5H16V8H9V5ZM5 10H18V19.9788C18 19.9862 18 19.9925 18 20C18 20.0075 18 20.0138 18 20.0212V22H5V10ZM9 24H16V27H9V24ZM18 27V24C18.5304 24 19.0391 23.7893 19.4142 23.4142C19.7893 23.0391 20 22.5304 20 22V21H25V27H18ZM8.23125 18.36L10.1987 16L8.23125 13.64C8.06151 13.4361 7.97972 13.1732 8.00386 12.909C8.02801 12.6448 8.15611 12.401 8.36 12.2312C8.56388 12.0615 8.82685 11.9797 9.09104 12.0039C9.35523 12.028 9.59901 12.1561 9.76875 12.36L11.5 14.4375L13.2312 12.36C13.3153 12.259 13.4184 12.1756 13.5347 12.1145C13.651 12.0534 13.7781 12.0158 13.909 12.0039C14.0398 11.9919 14.1717 12.0058 14.2971 12.0449C14.4225 12.0839 14.539 12.1472 14.64 12.2312C14.741 12.3153 14.8244 12.4184 14.8855 12.5347C14.9466 12.651 14.9842 12.7781 14.9961 12.909C15.0081 13.0398 14.9942 13.1717 14.9551 13.2971C14.9161 13.4225 14.8528 13.539 14.7688 13.64L12.8013 16L14.7688 18.36C14.9385 18.5639 15.0203 18.8268 14.9961 19.091C14.972 19.3552 14.8439 19.599 14.64 19.7687C14.4361 19.9385 14.1732 20.0203 13.909 19.9961C13.6448 19.972 13.401 19.8439 13.2312 19.64L11.5 17.5625L9.76875 19.64C9.59901 19.8439 9.35523 19.972 9.09104 19.9961C8.82685 20.0203 8.56388 19.9385 8.36 19.7687C8.15611 19.599 8.02801 19.3552 8.00386 19.091C7.97972 18.8268 8.06151 18.5639 8.23125 18.36Z" fill="#4A4A4F"/>
</svg>
