<svg width="32" height="32" viewBox="0 0 32 32" fill="none" xmlns="http://www.w3.org/2000/svg">
<path d="M21 28C21 28.2652 20.8946 28.5196 20.7071 28.7071C20.5196 28.8946 20.2652 29 20 29H12C11.7348 29 11.4804 28.8946 11.2929 28.7071C11.1054 28.5196 11 28.2652 11 28C11 27.7348 11.1054 27.4804 11.2929 27.2929C11.4804 27.1054 11.7348 27 12 27H20C20.2652 27 20.5196 27.1054 20.7071 27.2929C20.8946 27.4804 21 27.7348 21 28ZM29 8V22C29 22.7956 28.6839 23.5587 28.1213 24.1213C27.5587 24.6839 26.7956 25 26 25H6C5.20435 25 4.44129 24.6839 3.87868 24.1213C3.31607 23.5587 3 22.7956 3 22V8C3 7.20435 3.31607 6.44129 3.87868 5.87868C4.44129 5.31607 5.20435 5 6 5H26C26.7956 5 27.5587 5.31607 28.1213 5.87868C28.6839 6.44129 29 7.20435 29 8ZM20.5 15C20.4999 14.8317 20.4574 14.6661 20.3764 14.5186C20.2953 14.3711 20.1783 14.2465 20.0362 14.1562L14.5363 10.6562C14.3851 10.5602 14.2109 10.5065 14.0319 10.5008C13.8528 10.4951 13.6756 10.5376 13.5186 10.6238C13.3616 10.71 13.2307 10.8368 13.1394 10.991C13.0482 11.1451 13.0001 11.3209 13 11.5V18.5C13.0001 18.6791 13.0482 18.8549 13.1394 19.009C13.2307 19.1632 13.3616 19.29 13.5186 19.3762C13.6756 19.4624 13.8528 19.5049 14.0319 19.4992C14.2109 19.4935 14.3851 19.4398 14.5363 19.3438L20.0362 15.8438C20.1783 15.7535 20.2953 15.6289 20.3764 15.4814C20.4574 15.3339 20.4999 15.1683 20.5 15Z" fill="#4A4A4F"/>
</svg>
