<svg width="32" height="32" viewBox="0 0 32 32" fill="none" xmlns="http://www.w3.org/2000/svg">
<path d="M30.0001 12C30.0001 12.2652 29.8947 12.5196 29.7072 12.7071C29.5196 12.8946 29.2653 13 29.0001 13H27.0001V15C27.0001 15.2652 26.8947 15.5196 26.7072 15.7071C26.5196 15.8946 26.2653 16 26.0001 16C25.7348 16 25.4805 15.8946 25.2929 15.7071C25.1054 15.5196 25.0001 15.2652 25.0001 15V13H23.0001C22.7348 13 22.4805 12.8946 22.2929 12.7071C22.1054 12.5196 22.0001 12.2652 22.0001 12C22.0001 11.7348 22.1054 11.4804 22.2929 11.2929C22.4805 11.1054 22.7348 11 23.0001 11H25.0001V9C25.0001 8.73478 25.1054 8.48043 25.2929 8.29289C25.4805 8.10536 25.7348 8 26.0001 8C26.2653 8 26.5196 8.10536 26.7072 8.29289C26.8947 8.48043 27.0001 8.73478 27.0001 9V11H29.0001C29.2653 11 29.5196 11.1054 29.7072 11.2929C29.8947 11.4804 30.0001 11.7348 30.0001 12ZM18.0001 7H19.0001V8C19.0001 8.26522 19.1054 8.51957 19.2929 8.70711C19.4805 8.89464 19.7348 9 20.0001 9C20.2653 9 20.5196 8.89464 20.7072 8.70711C20.8947 8.51957 21.0001 8.26522 21.0001 8V7H22.0001C22.2653 7 22.5196 6.89464 22.7072 6.70711C22.8947 6.51957 23.0001 6.26522 23.0001 6C23.0001 5.73478 22.8947 5.48043 22.7072 5.29289C22.5196 5.10536 22.2653 5 22.0001 5H21.0001V4C21.0001 3.73478 20.8947 3.48043 20.7072 3.29289C20.5196 3.10536 20.2653 3 20.0001 3C19.7348 3 19.4805 3.10536 19.2929 3.29289C19.1054 3.48043 19.0001 3.73478 19.0001 4V5H18.0001C17.7348 5 17.4805 5.10536 17.2929 5.29289C17.1054 5.48043 17.0001 5.73478 17.0001 6C17.0001 6.26522 17.1054 6.51957 17.2929 6.70711C17.4805 6.89464 17.7348 7 18.0001 7ZM26.1426 18.7913C24.3688 19.1417 22.5361 19.0499 20.8063 18.5239C19.0765 17.998 17.5029 17.0541 16.2244 15.7756C14.946 14.4972 14.0021 12.9235 13.4761 11.1937C12.9502 9.46393 12.8584 7.63121 13.2088 5.8575C13.2431 5.68343 13.2305 5.50337 13.1723 5.33578C13.1141 5.16819 13.0123 5.01911 12.8774 4.90384C12.7426 4.78857 12.5795 4.71125 12.4048 4.67982C12.2302 4.64839 12.0504 4.66399 11.8838 4.725C9.99022 5.41741 8.30162 6.57578 6.97395 8.09313C5.64627 9.61048 4.72231 11.4379 4.28739 13.4066C3.85248 15.3754 3.92062 17.422 4.48554 19.3574C5.05046 21.2929 6.09393 23.0548 7.5196 24.4804C8.94527 25.9061 10.7072 26.9496 12.6426 27.5145C14.5781 28.0794 16.6247 28.1476 18.5934 27.7127C20.5621 27.2777 22.3896 26.3538 23.9069 25.0261C25.4243 23.6984 26.5826 22.0098 27.2751 20.1162C27.3361 19.9497 27.3517 19.7698 27.3202 19.5952C27.2888 19.4206 27.2115 19.2575 27.0962 19.1226C26.9809 18.9878 26.8319 18.886 26.6643 18.8278C26.4967 18.7695 26.3166 18.7569 26.1426 18.7913Z" fill="#4A4A4F"/>
</svg>
