<svg width="32" height="32" viewBox="0 0 32 32" fill="none" xmlns="http://www.w3.org/2000/svg">
<path d="M30 12C30 12.2652 29.8947 12.5196 29.7071 12.7071C29.5196 12.8946 29.2652 13 29 13H27V15C27 15.2652 26.8947 15.5196 26.7071 15.7071C26.5196 15.8946 26.2652 16 26 16C25.7348 16 25.4804 15.8946 25.2929 15.7071C25.1054 15.5196 25 15.2652 25 15V13H23C22.7348 13 22.4804 12.8946 22.2929 12.7071C22.1054 12.5196 22 12.2652 22 12C22 11.7348 22.1054 11.4804 22.2929 11.2929C22.4804 11.1054 22.7348 11 23 11H25V9C25 8.73478 25.1054 8.48043 25.2929 8.29289C25.4804 8.10536 25.7348 8 26 8C26.2652 8 26.5196 8.10536 26.7071 8.29289C26.8947 8.48043 27 8.73478 27 9V11H29C29.2652 11 29.5196 11.1054 29.7071 11.2929C29.8947 11.4804 30 11.7348 30 12ZM18 7H19V8C19 8.26522 19.1054 8.51957 19.2929 8.70711C19.4804 8.89464 19.7348 9 20 9C20.2652 9 20.5196 8.89464 20.7071 8.70711C20.8947 8.51957 21 8.26522 21 8V7H22C22.2652 7 22.5196 6.89464 22.7071 6.70711C22.8947 6.51957 23 6.26522 23 6C23 5.73478 22.8947 5.48043 22.7071 5.29289C22.5196 5.10536 22.2652 5 22 5H21V4C21 3.73478 20.8947 3.48043 20.7071 3.29289C20.5196 3.10536 20.2652 3 20 3C19.7348 3 19.4804 3.10536 19.2929 3.29289C19.1054 3.48043 19 3.73478 19 4V5H18C17.7348 5 17.4804 5.10536 17.2929 5.29289C17.1054 5.48043 17 5.73478 17 6C17 6.26522 17.1054 6.51957 17.2929 6.70711C17.4804 6.89464 17.7348 7 18 7ZM27.0963 19.125C27.2127 19.2605 27.2906 19.4248 27.3221 19.6006C27.3535 19.7765 27.3373 19.9575 27.275 20.125C26.5811 22.0174 25.4217 23.7045 23.9039 25.0306C22.386 26.3568 20.5585 27.2792 18.5902 27.7128C16.6218 28.1465 14.5759 28.0773 12.6413 27.5117C10.7067 26.9461 8.94568 25.9023 7.52085 24.4767C6.09602 23.051 5.05325 21.2895 4.48876 19.3546C3.92427 17.4196 3.85626 15.3737 4.291 13.4055C4.72574 11.4374 5.64922 9.61048 6.97622 8.09336C8.30323 6.57624 9.99099 5.41782 11.8838 4.725C12.0504 4.66399 12.2302 4.64839 12.4048 4.67982C12.5794 4.71125 12.7425 4.78857 12.8774 4.90384C13.0123 5.01911 13.114 5.16819 13.1723 5.33578C13.2305 5.50337 13.2431 5.68343 13.2088 5.8575C12.8583 7.63121 12.9501 9.46393 13.4761 11.1937C14.002 12.9235 14.9459 14.4972 16.2244 15.7756C17.5028 17.0541 19.0765 17.998 20.8063 18.5239C22.5361 19.0499 24.3688 19.1417 26.1425 18.7913C26.3168 18.7572 26.497 18.7701 26.6646 18.8288C26.8323 18.8875 26.9812 18.9897 27.0963 19.125ZM24.6725 20.985C24.4488 20.9963 24.2238 21.0025 24 21.0025C20.5529 20.9989 17.248 19.6277 14.8108 17.19C12.3735 14.7523 11.003 11.4471 11 8C11 7.77625 11 7.55125 11.0175 7.3275C9.68699 8.09314 8.5506 9.15482 7.69638 10.4303C6.84217 11.7057 6.29306 13.1607 6.0916 14.6825C5.89014 16.2044 6.04174 17.7521 6.53466 19.2059C7.02758 20.6597 7.84857 21.9805 8.93404 23.066C10.0195 24.1514 11.3403 24.9724 12.7941 25.4654C14.2479 25.9583 15.7957 26.1099 17.3175 25.9084C18.8393 25.707 20.2943 25.1578 21.5697 24.3036C22.8452 23.4494 23.9069 22.313 24.6725 20.9825V20.985Z" fill="#4A4A4F"/>
</svg>
