<svg width="32" height="32" viewBox="0 0 32 32" fill="none" xmlns="http://www.w3.org/2000/svg">
<path d="M26 5.00013H20.9C20.6705 3.86984 20.0573 2.85365 19.1643 2.12375C18.2712 1.39385 17.1534 0.995117 16 0.995117C14.8466 0.995117 13.7288 1.39385 12.8357 2.12375C11.9427 2.85365 11.3295 3.86984 11.1 5.00013H6C5.73478 5.00013 5.48043 5.10549 5.29289 5.29302C5.10536 5.48056 5 5.73491 5 6.00013C5 6.26535 5.10536 6.5197 5.29289 6.70724C5.48043 6.89477 5.73478 7.00013 6 7.00013H11.1C11.3168 8.05491 11.8683 9.01151 12.6725 9.72763C11.2797 10.366 10.0992 11.3905 9.27103 12.6795C8.44285 13.9685 8.00173 15.468 8 17.0001V25.0001C8 25.5306 8.21071 26.0393 8.58579 26.4143C8.96086 26.7894 9.46957 27.0001 10 27.0001H12C12 28.061 12.4214 29.0784 13.1716 29.8286C13.9217 30.5787 14.9391 31.0001 16 31.0001C17.0609 31.0001 18.0783 30.5787 18.8284 29.8286C19.5786 29.0784 20 28.061 20 27.0001H22C22.5304 27.0001 23.0391 26.7894 23.4142 26.4143C23.7893 26.0393 24 25.5306 24 25.0001V17.0001C23.9983 15.468 23.5572 13.9685 22.729 12.6795C21.9008 11.3905 20.7203 10.366 19.3275 9.72763C20.1317 9.01151 20.6832 8.05491 20.9 7.00013H26C26.2652 7.00013 26.5196 6.89477 26.7071 6.70724C26.8946 6.5197 27 6.26535 27 6.00013C27 5.73491 26.8946 5.48056 26.7071 5.29302C26.5196 5.10549 26.2652 5.00013 26 5.00013ZM18 27.0001C18 27.5306 17.7893 28.0393 17.4142 28.4143C17.0391 28.7894 16.5304 29.0001 16 29.0001C15.4696 29.0001 14.9609 28.7894 14.5858 28.4143C14.2107 28.0393 14 27.5306 14 27.0001V21.0001C14 20.4697 14.2107 19.961 14.5858 19.5859C14.9609 19.2108 15.4696 19.0001 16 19.0001C16.5304 19.0001 17.0391 19.2108 17.4142 19.5859C17.7893 19.961 18 20.4697 18 21.0001V27.0001ZM16 9.00013C15.4067 9.00013 14.8266 8.82418 14.3333 8.49454C13.8399 8.16489 13.4554 7.69636 13.2284 7.14818C13.0013 6.6 12.9419 5.9968 13.0576 5.41486C13.1734 4.83292 13.4591 4.29837 13.8787 3.87881C14.2982 3.45925 14.8328 3.17353 15.4147 3.05777C15.9967 2.94202 16.5999 3.00143 17.1481 3.22849C17.6962 3.45555 18.1648 3.84007 18.4944 4.33342C18.8241 4.82677 19 5.40679 19 6.00013C19 6.79578 18.6839 7.55884 18.1213 8.12145C17.5587 8.68406 16.7956 9.00013 16 9.00013Z" fill="#4A4A4F"/>
</svg>
