<svg width="32" height="32" viewBox="0 0 32 32" fill="none" xmlns="http://www.w3.org/2000/svg">
<path d="M28 16C27.6593 15.9999 27.321 16.0583 27 16.1725V16C27 10.7775 23.1163 8.1925 20.28 6.305C18.52 5.1325 17 4.125 17 3C17 2.73478 16.8946 2.48043 16.7071 2.29289C16.5196 2.10536 16.2652 2 16 2C15.7348 2 15.4804 2.10536 15.2929 2.29289C15.1054 2.48043 15 2.73478 15 3C15 4.125 13.48 5.1325 11.72 6.305C8.88375 8.1925 5 10.7775 5 16V16.1725C4.54758 16.0125 4.06339 15.9635 3.58807 16.0293C3.11275 16.0952 2.66018 16.2742 2.26833 16.5512C1.87648 16.8282 1.55679 17.1951 1.3361 17.6212C1.11541 18.0473 1.00015 18.5201 1 19V26C1 26.2652 1.10536 26.5196 1.29289 26.7071C1.48043 26.8946 1.73478 27 2 27H10C10.2652 27 10.5196 26.8946 10.7071 26.7071C10.8946 26.5196 11 26.2652 11 26V22C11 21.7348 11.1054 21.4804 11.2929 21.2929C11.4804 21.1054 11.7348 21 12 21C12.2652 21 12.5196 21.1054 12.7071 21.2929C12.8946 21.4804 13 21.7348 13 22V26C13 26.2652 13.1054 26.5196 13.2929 26.7071C13.4804 26.8946 13.7348 27 14 27H18C18.2652 27 18.5196 26.8946 18.7071 26.7071C18.8946 26.5196 19 26.2652 19 26V22C19 21.7348 19.1054 21.4804 19.2929 21.2929C19.4804 21.1054 19.7348 21 20 21C20.2652 21 20.5196 21.1054 20.7071 21.2929C20.8946 21.4804 21 21.7348 21 22V26C21 26.2652 21.1054 26.5196 21.2929 26.7071C21.4804 26.8946 21.7348 27 22 27H30C30.2652 27 30.5196 26.8946 30.7071 26.7071C30.8946 26.5196 31 26.2652 31 26V19C31 18.2044 30.6839 17.4413 30.1213 16.8787C29.5587 16.3161 28.7956 16 28 16ZM12.8287 7.97C14.0375 7.165 15.2037 6.385 16 5.47C16.7925 6.38875 17.9625 7.16875 19.1712 7.97C21.6712 9.635 24.4812 11.5063 24.935 15H7.06C7.51875 11.5063 10.325 9.635 12.8287 7.97ZM3 19C3 18.7348 3.10536 18.4804 3.29289 18.2929C3.48043 18.1054 3.73478 18 4 18C4.26522 18 4.51957 18.1054 4.70711 18.2929C4.89464 18.4804 5 18.7348 5 19V25H3V19ZM20 19C19.2044 19 18.4413 19.3161 17.8787 19.8787C17.3161 20.4413 17 21.2044 17 22V25H15V22C15 21.2044 14.6839 20.4413 14.1213 19.8787C13.5587 19.3161 12.7956 19 12 19C11.2044 19 10.4413 19.3161 9.87868 19.8787C9.31607 20.4413 9 21.2044 9 22V25H7V17H25V25H23V22C23 21.2044 22.6839 20.4413 22.1213 19.8787C21.5587 19.3161 20.7956 19 20 19ZM29 25H27V19C27 18.7348 27.1054 18.4804 27.2929 18.2929C27.4804 18.1054 27.7348 18 28 18C28.2652 18 28.5196 18.1054 28.7071 18.2929C28.8946 18.4804 29 18.7348 29 19V25Z" fill="#4A4A4F"/>
</svg>
