<svg width="32" height="32" viewBox="0 0 32 32" fill="none" xmlns="http://www.w3.org/2000/svg">
<path d="M27 15C26.7236 15.0006 26.4477 15.0236 26.175 15.0688L25.4475 13.1763C25.9567 13.0594 26.4775 13.0002 27 13C27.2652 13 27.5195 12.8946 27.7071 12.7071C27.8946 12.5196 28 12.2652 28 12C28 11.7348 27.8946 11.4804 27.7071 11.2929C27.5195 11.1054 27.2652 11 27 11H24.61L22.9337 6.64125C22.8612 6.45248 22.7331 6.29015 22.5664 6.17567C22.3997 6.06119 22.2022 5.99994 22 6H18C17.7347 6 17.4804 6.10536 17.2928 6.29289C17.1053 6.48043 17 6.73478 17 7C17 7.26522 17.1053 7.51957 17.2928 7.70711C17.4804 7.89464 17.7347 8 18 8H21.3137L22.4675 11H19C16.6875 11 14.8125 11.5387 13.5787 12.5575C13.2884 12.7917 12.9383 12.9401 12.5681 12.9858C12.1979 13.0315 11.8223 12.9728 11.4837 12.8162C10.1612 12.215 2.32246 9.05125 2.25871 9.03375C2.00959 8.96053 1.74176 8.98707 1.51186 9.10777C1.28196 9.22847 1.10802 9.43386 1.02684 9.6805C0.945654 9.92714 0.963587 10.1957 1.07684 10.4293C1.1901 10.663 1.3898 10.8434 1.63371 10.9325C1.63371 10.9325 8.57121 13.675 9.94996 15.05C11.0211 16.1168 11.7157 17.5034 11.9287 19H9.89996C9.65214 17.786 8.96237 16.7072 7.96437 15.9728C6.96637 15.2384 5.73123 14.9008 4.49843 15.0253C3.26563 15.1499 2.12298 15.7277 1.29202 16.6468C0.461056 17.566 0.000976562 18.7609 0.000976562 20C0.000976562 21.2391 0.461056 22.434 1.29202 23.3532C2.12298 24.2723 3.26563 24.8501 4.49843 24.9747C5.73123 25.0992 6.96637 24.7616 7.96437 24.0272C8.96237 23.2928 9.65214 22.214 9.89996 21H16.415C17.2823 21.0019 18.1266 20.7211 18.82 20.2C19.5134 19.679 20.018 18.9461 20.2575 18.1125C20.5069 17.2258 20.9289 16.397 21.4993 15.6737C22.0696 14.9505 22.7771 14.3468 23.5812 13.8975L24.3087 15.7887C23.2952 16.4375 22.5496 17.43 22.2088 18.5841C21.868 19.7382 21.9549 20.9765 22.4535 22.0717C22.9522 23.1669 23.829 24.0456 24.9233 24.5464C26.0175 25.0472 27.2556 25.1366 28.4104 24.7982C29.5652 24.4597 30.5592 23.7161 31.21 22.7039C31.8607 21.6917 32.1246 20.4787 31.9531 19.2876C31.7817 18.0965 31.1864 17.0072 30.2766 16.2196C29.3667 15.432 28.2033 14.999 27 15ZM4.99996 21H7.82746C7.59156 21.6672 7.12739 22.2296 6.51698 22.5876C5.90656 22.9457 5.18922 23.0765 4.49172 22.9568C3.79423 22.8371 3.16149 22.4747 2.70535 21.9337C2.24921 21.3926 1.99903 20.7077 1.99903 20C1.99903 19.2923 2.24921 18.6074 2.70535 18.0663C3.16149 17.5253 3.79423 17.1629 4.49172 17.0432C5.18922 16.9235 5.90656 17.0543 6.51698 17.4124C7.12739 17.7704 7.59156 18.3328 7.82746 19H4.99996C4.73474 19 4.48039 19.1054 4.29285 19.2929C4.10531 19.4804 3.99996 19.7348 3.99996 20C3.99996 20.2652 4.10531 20.5196 4.29285 20.7071C4.48039 20.8946 4.73474 21 4.99996 21ZM27 23C26.3872 22.9992 25.7893 22.8108 25.2868 22.4601C24.7843 22.1095 24.4012 21.6133 24.1891 21.0384C23.977 20.4635 23.9461 19.8374 24.1004 19.2444C24.2547 18.6514 24.587 18.1198 25.0525 17.7213L26.0662 20.3587C26.1614 20.6064 26.351 20.8061 26.5934 20.9139C26.8358 21.0218 27.1111 21.0289 27.3587 20.9338C27.6064 20.8386 27.8061 20.649 27.9139 20.4066C28.0217 20.1642 28.0289 19.8889 27.9337 19.6413L26.9187 17H27C27.7956 17 28.5587 17.3161 29.1213 17.8787C29.6839 18.4413 30 19.2044 30 20C30 20.7956 29.6839 21.5587 29.1213 22.1213C28.5587 22.6839 27.7956 23 27 23Z" fill="#4A4A4F"/>
</svg>
