<svg width="32" height="32" viewBox="0 0 32 32" fill="none" xmlns="http://www.w3.org/2000/svg">
<path d="M20.5001 10C21.1923 10 21.869 9.79473 22.4446 9.41015C23.0202 9.02556 23.4688 8.47894 23.7337 7.83939C23.9986 7.19985 24.0679 6.49612 23.9328 5.81719C23.7978 5.13825 23.4644 4.51461 22.975 4.02513C22.4855 3.53564 21.8618 3.2023 21.1829 3.06725C20.504 2.9322 19.8002 3.00152 19.1607 3.26642C18.5212 3.53133 17.9745 3.97993 17.5899 4.55551C17.2054 5.13108 17.0001 5.80777 17.0001 6.5C17.0001 7.42826 17.3688 8.3185 18.0252 8.97487C18.6816 9.63125 19.5718 10 20.5001 10ZM20.5001 5C20.7968 5 21.0868 5.08798 21.3334 5.2528C21.5801 5.41762 21.7724 5.65189 21.8859 5.92598C21.9994 6.20007 22.0291 6.50167 21.9713 6.79264C21.9134 7.08361 21.7705 7.35088 21.5607 7.56066C21.351 7.77044 21.0837 7.9133 20.7927 7.97118C20.5017 8.02906 20.2002 7.99935 19.9261 7.88582C19.652 7.77229 19.4177 7.58003 19.2529 7.33336C19.0881 7.08668 19.0001 6.79667 19.0001 6.5C19.0001 6.10218 19.1581 5.72065 19.4394 5.43934C19.7207 5.15804 20.1023 5 20.5001 5ZM31.8601 24.49L25.0401 12.98C24.8642 12.6802 24.6126 12.4318 24.3105 12.2598C24.0084 12.0878 23.6665 11.9982 23.3188 12C22.9714 11.9982 22.6296 12.0878 22.3277 12.2598C22.0258 12.4318 21.7744 12.6802 21.5988 12.98L18.3288 18.5L12.7238 8.9875C12.5472 8.68733 12.2953 8.43848 11.9929 8.26559C11.6906 8.09269 11.3484 8.00174 11.0001 8.00174C10.6518 8.00174 10.3096 8.09269 10.0072 8.26559C9.7049 8.43848 9.45296 8.68733 9.27634 8.9875L0.138837 24.4925C0.0493954 24.6444 0.00167544 24.8172 0.000510147 24.9934C-0.000655151 25.1696 0.0447756 25.343 0.132201 25.4961C0.219626 25.6491 0.34594 25.7763 0.498349 25.8648C0.650758 25.9533 0.823848 25.9999 1.00009 26H31.0001C31.1766 26 31.3499 25.9532 31.5025 25.8645C31.6551 25.7758 31.7815 25.6483 31.8689 25.4949C31.9562 25.3415 32.0014 25.1678 31.9999 24.9913C31.9983 24.8148 31.9501 24.6418 31.8601 24.49ZM11.0001 10L13.9463 15H8.05384L11.0001 10ZM2.75009 24L6.87509 17H15.1251L17.4676 20.975L19.2501 24H2.75009ZM21.5713 24L19.4888 20.465L23.3188 14L29.2501 24H21.5713Z" fill="#4A4A4F"/>
</svg>
