<svg width="32" height="32" viewBox="0 0 32 32" fill="none" xmlns="http://www.w3.org/2000/svg">
<path d="M17.0001 6.5C17.0001 5.80777 17.2054 5.13108 17.5899 4.55551C17.9745 3.97993 18.5212 3.53133 19.1607 3.26642C19.8002 3.00152 20.504 2.9322 21.1829 3.06725C21.8618 3.2023 22.4855 3.53564 22.975 4.02513C23.4644 4.51461 23.7978 5.13825 23.9328 5.81719C24.0679 6.49612 23.9986 7.19985 23.7337 7.83939C23.4688 8.47894 23.0202 9.02556 22.4446 9.41015C21.869 9.79473 21.1923 10 20.5001 10C19.5718 10 18.6816 9.63125 18.0252 8.97487C17.3688 8.3185 17.0001 7.42826 17.0001 6.5ZM31.8751 25.5C31.7871 25.6524 31.6604 25.7789 31.5079 25.8667C31.3553 25.9545 31.1823 26.0005 31.0063 26H1.00009C0.823848 25.9999 0.650758 25.9533 0.498349 25.8648C0.34594 25.7763 0.219626 25.6491 0.132201 25.4961C0.0447756 25.343 -0.000655151 25.1696 0.000510147 24.9934C0.00167544 24.8172 0.0493954 24.6444 0.138837 24.4925L9.27634 8.985C9.45296 8.68483 9.7049 8.43598 10.0072 8.26309C10.3096 8.09019 10.6518 7.99924 11.0001 7.99924C11.3484 7.99924 11.6906 8.09019 11.9929 8.26309C12.2953 8.43598 12.5472 8.68483 12.7238 8.985L18.3288 18.5L21.5988 12.9825C21.7741 12.6822 22.0253 12.4333 22.3272 12.2609C22.6292 12.0884 22.9711 11.9984 23.3188 12C23.6665 11.9982 24.0084 12.0878 24.3105 12.2598C24.6126 12.4318 24.8642 12.6802 25.0401 12.98L31.8601 24.49C31.952 24.6419 32.0019 24.8155 32.0045 24.993C32.0071 25.1705 31.9625 25.3455 31.8751 25.5ZM8.05384 15H13.9463L11.0001 10L8.05384 15Z" fill="#4A4A4F"/>
</svg>
