<svg width="32" height="32" viewBox="0 0 32 32" fill="none" xmlns="http://www.w3.org/2000/svg">
<path d="M26.615 3.21119C26.4952 3.11785 26.3557 3.05302 26.2072 3.02162C26.0586 2.99021 25.9048 2.99306 25.7575 3.02994L9.75751 7.02994C9.54117 7.08402 9.34911 7.20885 9.21186 7.3846C9.07461 7.56036 9.00004 7.77694 9.00001 7.99994V21.7599C8.1658 21.2026 7.16925 20.9399 6.16869 21.0138C5.16813 21.0877 4.22095 21.4938 3.47764 22.1676C2.73433 22.8415 2.23752 23.7444 2.06614 24.7329C1.89477 25.7215 2.05866 26.7389 2.53177 27.6236C3.00489 28.5084 3.76009 29.2096 4.6774 29.616C5.5947 30.0223 6.6215 30.1105 7.59464 29.8664C8.56779 29.6224 9.43147 29.0601 10.0485 28.269C10.6655 27.4779 11.0004 26.5032 11 25.4999V8.78119L25 5.28119V17.7599C24.1658 17.2026 23.1692 16.9399 22.1687 17.0138C21.1681 17.0877 20.221 17.4938 19.4776 18.1676C18.7343 18.8415 18.2375 19.7444 18.0661 20.7329C17.8948 21.7215 18.0587 22.7389 18.5318 23.6236C19.0049 24.5084 19.7601 25.2096 20.6774 25.616C21.5947 26.0223 22.6215 26.1105 23.5946 25.8664C24.5678 25.6224 25.4315 25.0601 26.0485 24.269C26.6655 23.4779 27.0004 22.5032 27 21.4999V3.99994C27 3.84785 26.9654 3.69775 26.8987 3.56107C26.8319 3.42439 26.7349 3.30473 26.615 3.21119ZM6.50001 27.9999C6.00555 27.9999 5.5222 27.8533 5.11108 27.5786C4.69996 27.3039 4.37953 26.9135 4.19031 26.4566C4.00109 25.9998 3.95158 25.4972 4.04804 25.0122C4.14451 24.5273 4.38261 24.0818 4.73224 23.7322C5.08187 23.3825 5.52733 23.1444 6.01228 23.048C6.49723 22.9515 6.9999 23.001 7.45671 23.1902C7.91353 23.3795 8.30398 23.6999 8.57868 24.111C8.85338 24.5221 9.00001 25.0055 9.00001 25.4999C9.00001 26.163 8.73661 26.7989 8.26777 27.2677C7.79893 27.7365 7.16305 27.9999 6.50001 27.9999ZM22.5 23.9999C22.0056 23.9999 21.5222 23.8533 21.1111 23.5786C20.7 23.3039 20.3795 22.9135 20.1903 22.4566C20.0011 21.9998 19.9516 21.4972 20.048 21.0122C20.1445 20.5273 20.3826 20.0818 20.7322 19.7322C21.0819 19.3825 21.5273 19.1444 22.0123 19.048C22.4972 18.9515 22.9999 19.001 23.4567 19.1902C23.9135 19.3795 24.304 19.6999 24.5787 20.111C24.8534 20.5221 25 21.0055 25 21.4999C25 21.8282 24.9353 22.1533 24.8097 22.4566C24.6841 22.76 24.4999 23.0356 24.2678 23.2677C24.0356 23.4999 23.76 23.684 23.4567 23.8096C23.1534 23.9353 22.8283 23.9999 22.5 23.9999Z" fill="#4A4A4F"/>
</svg>
