<svg width="32" height="32" viewBox="0 0 32 32" fill="none" xmlns="http://www.w3.org/2000/svg">
<path d="M29 7C29 7.26522 28.8946 7.51957 28.7071 7.70711C28.5196 7.89464 28.2652 8 28 8H26V10C26 10.2652 25.8946 10.5196 25.7071 10.7071C25.5196 10.8946 25.2652 11 25 11C24.7348 11 24.4804 10.8946 24.2929 10.7071C24.1054 10.5196 24 10.2652 24 10V8H22C21.7348 8 21.4804 7.89464 21.2929 7.70711C21.1054 7.51957 21 7.26522 21 7C21 6.73478 21.1054 6.48043 21.2929 6.29289C21.4804 6.10536 21.7348 6 22 6H24V4C24 3.73478 24.1054 3.48043 24.2929 3.29289C24.4804 3.10536 24.7348 3 25 3C25.2652 3 25.5196 3.10536 25.7071 3.29289C25.8946 3.48043 26 3.73478 26 4V6H28C28.2652 6 28.5196 6.10536 28.7071 6.29289C28.8946 6.48043 29 6.73478 29 7ZM26 14C25.7348 14 25.4804 14.1054 25.2929 14.2929C25.1054 14.4804 25 14.7348 25 15V17.76C24.1658 17.2026 23.1692 16.94 22.1687 17.0139C21.1681 17.0877 20.221 17.4939 19.4776 18.1677C18.7343 18.8415 18.2375 19.7445 18.0661 20.733C17.8948 21.7215 18.0587 22.739 18.5318 23.6237C19.0049 24.5084 19.7601 25.2097 20.6774 25.616C21.5947 26.0224 22.6215 26.1105 23.5946 25.8665C24.5678 25.6224 25.4315 25.0602 26.0485 24.269C26.6655 23.4779 27.0004 22.5033 27 21.5V15C27 14.7348 26.8946 14.4804 26.7071 14.2929C26.5196 14.1054 26.2652 14 26 14ZM19.1975 12.6663C19.3906 12.5335 19.531 12.337 19.594 12.1113C19.6571 11.8856 19.6388 11.6449 19.5425 11.4312C19.5066 11.351 19.4603 11.2758 19.405 11.2075C18.3518 9.81232 17.861 8.07241 18.03 6.3325C18.0529 6.06907 17.9706 5.80729 17.801 5.60443C17.6314 5.40156 17.3883 5.27413 17.125 5.25C17.0156 5.24054 16.9053 5.24941 16.7988 5.27625L9.75751 7.03C9.54117 7.08408 9.34911 7.20891 9.21186 7.38467C9.07461 7.56042 9.00004 7.777 9.00001 8V21.76C8.1658 21.2026 7.16925 20.94 6.16869 21.0139C5.16813 21.0877 4.22095 21.4939 3.47764 22.1677C2.73433 22.8415 2.23752 23.7445 2.06614 24.733C1.89477 25.7215 2.05866 26.739 2.53177 27.6237C3.00489 28.5084 3.76009 29.2097 4.6774 29.616C5.5947 30.0224 6.6215 30.1105 7.59464 29.8665C8.56779 29.6224 9.43147 29.0602 10.0485 28.269C10.6655 27.4779 11.0004 26.5033 11 25.5V14.7812L18.8525 12.8175C18.976 12.7892 19.093 12.7379 19.1975 12.6663Z" fill="#4A4A4F"/>
</svg>
