<svg width="32" height="32" viewBox="0 0 32 32" fill="none" xmlns="http://www.w3.org/2000/svg">
<path d="M26.615 3.21119C26.4952 3.11785 26.3557 3.05302 26.2072 3.02162C26.0586 2.99021 25.9048 2.99306 25.7575 3.02994L9.75751 7.02994C9.54117 7.08402 9.34911 7.20885 9.21186 7.3846C9.07461 7.56036 9.00004 7.77694 9.00001 7.99994V21.7599C8.1658 21.2026 7.16925 20.9399 6.16869 21.0138C5.16813 21.0877 4.22095 21.4938 3.47764 22.1676C2.73433 22.8415 2.23752 23.7444 2.06614 24.7329C1.89477 25.7215 2.05866 26.7389 2.53177 27.6236C3.00489 28.5084 3.76009 29.2096 4.6774 29.616C5.5947 30.0223 6.6215 30.1105 7.59464 29.8664C8.56779 29.6224 9.43147 29.0601 10.0485 28.269C10.6655 27.4779 11.0004 26.5032 11 25.4999V8.78119L25 5.28119V17.7599C24.1658 17.2026 23.1692 16.9399 22.1687 17.0138C21.1681 17.0877 20.221 17.4938 19.4776 18.1676C18.7343 18.8415 18.2375 19.7444 18.0661 20.7329C17.8948 21.7215 18.0587 22.7389 18.5318 23.6236C19.0049 24.5084 19.7601 25.2096 20.6774 25.616C21.5947 26.0223 22.6215 26.1105 23.5946 25.8664C24.5678 25.6224 25.4315 25.0601 26.0485 24.269C26.6655 23.4779 27.0004 22.5032 27 21.4999V3.99994C27 3.84785 26.9654 3.69775 26.8987 3.56107C26.8319 3.42439 26.7349 3.30473 26.615 3.21119Z" fill="#4A4A4F"/>
</svg>
