<svg width="32" height="32" viewBox="0 0 32 32" fill="none" xmlns="http://www.w3.org/2000/svg">
<path d="M28.6665 12.2762L6.67648 4.12497L6.65648 4.11872C6.30252 3.99685 5.92146 3.97676 5.55665 4.06075C5.19184 4.14474 4.85793 4.32943 4.5929 4.59381C4.32787 4.8582 4.14235 5.19165 4.05747 5.55625C3.97258 5.92085 3.99173 6.30196 4.11273 6.65622C4.11425 6.66305 4.11634 6.66974 4.11898 6.67622L12.2765 28.6662C12.4105 29.0583 12.6646 29.3982 13.0027 29.6376C13.3409 29.8771 13.7459 30.0038 14.1602 30H14.1977C14.6202 29.9967 15.0305 29.8578 15.3681 29.6038C15.7057 29.3497 15.9527 28.9938 16.0727 28.5887L19.0177 19.0187L28.5877 16.0737C28.9899 15.95 29.3427 15.7026 29.5961 15.3667C29.8495 15.0308 29.9905 14.6236 29.9991 14.203C30.0077 13.7823 29.8834 13.3697 29.6439 13.0238C29.4044 12.6779 29.062 12.4163 28.6652 12.2762H28.6665ZM28.0002 14.1625L18.4302 17.1075C18.1187 17.2034 17.8354 17.3741 17.6049 17.6046C17.3744 17.8351 17.2037 18.1184 17.1077 18.43L14.1627 28L14.1552 27.9787L6.00023 5.99997L27.9777 14.1525L27.9977 14.16L28.0002 14.1625Z" fill="#4A4A4F"/>
</svg>
