<svg width="32" height="32" viewBox="0 0 32 32" fill="none" xmlns="http://www.w3.org/2000/svg">
<path d="M26.5352 5.46491C25.5976 4.52755 24.326 4.00098 23.0002 4.00098C21.6744 4.00098 20.4028 4.52755 19.4652 5.46491L16.4652 8.46491C16.319 8.61097 16.2216 8.79874 16.1864 9.00241C15.0864 15.4099 4.50019 26.0912 4.29519 26.2912C4.10755 26.4786 4.00207 26.733 4.00195 26.9982C4.00184 27.2635 4.10709 27.5179 4.29457 27.7055C4.48204 27.8932 4.73638 27.9987 5.00163 27.9988C5.26687 27.9989 5.5213 27.8936 5.70894 27.7062C5.81644 27.5974 16.5627 16.9174 22.9989 15.8124C23.2026 15.7773 23.3904 15.6799 23.5364 15.5337L26.5364 12.5337C27.4738 11.596 28.0004 10.3245 28.0004 8.99866C28.0004 7.67284 27.4738 6.4013 26.5364 5.46366L26.5352 5.46491ZM23.7077 9.70741L21.7077 11.7074C21.5201 11.8951 21.2656 12.0005 21.0002 12.0005C20.7348 12.0005 20.4803 11.8951 20.2927 11.7074C20.1051 11.5198 19.9996 11.2653 19.9996 10.9999C19.9996 10.7345 20.1051 10.48 20.2927 10.2924L22.2927 8.29241C22.4803 8.10477 22.7348 7.99935 23.0002 7.99935C23.2656 7.99935 23.5201 8.10477 23.7077 8.29241C23.8953 8.48005 24.0007 8.73454 24.0007 8.99991C24.0007 9.26527 23.8953 9.51977 23.7077 9.70741Z" fill="#4A4A4F"/>
</svg>
