<svg width="32" height="32" viewBox="0 0 32 32" fill="none" xmlns="http://www.w3.org/2000/svg">
<path d="M27 5H5C4.46957 5 3.96086 5.21071 3.58579 5.58579C3.21071 5.96086 3 6.46957 3 7V27C3.00009 27.1704 3.04374 27.338 3.12681 27.4869C3.20988 27.6357 3.32961 27.7608 3.47463 27.8503C3.61965 27.9399 3.78516 27.9909 3.95543 27.9985C4.12569 28.0061 4.29508 27.97 4.4475 27.8937L8 26.1175L11.5525 27.8937C11.6914 27.9633 11.8446 27.9995 12 27.9995C12.1554 27.9995 12.3086 27.9633 12.4475 27.8937L16 26.1175L19.5525 27.8937C19.6914 27.9633 19.8446 27.9995 20 27.9995C20.1554 27.9995 20.3086 27.9633 20.4475 27.8937L24 26.1175L27.5525 27.8937C27.7049 27.97 27.8743 28.0061 28.0446 27.9985C28.2148 27.9909 28.3803 27.9399 28.5254 27.8503C28.6704 27.7608 28.7901 27.6357 28.8732 27.4869C28.9563 27.338 28.9999 27.1704 29 27V7C29 6.46957 28.7893 5.96086 28.4142 5.58579C28.0391 5.21071 27.5304 5 27 5ZM27 25.3825L24.4475 24.105C24.3086 24.0355 24.1554 23.9993 24 23.9993C23.8446 23.9993 23.6914 24.0355 23.5525 24.105L20 25.8825L16.4475 24.105C16.3086 24.0355 16.1554 23.9993 16 23.9993C15.8446 23.9993 15.6914 24.0355 15.5525 24.105L12 25.8825L8.4475 24.105C8.30857 24.0355 8.15535 23.9993 8 23.9993C7.84465 23.9993 7.69143 24.0355 7.5525 24.105L5 25.3825V7H27V25.3825ZM17 14C17 13.7348 17.1054 13.4804 17.2929 13.2929C17.4804 13.1054 17.7348 13 18 13H24C24.2652 13 24.5196 13.1054 24.7071 13.2929C24.8946 13.4804 25 13.7348 25 14C25 14.2652 24.8946 14.5196 24.7071 14.7071C24.5196 14.8946 24.2652 15 24 15H18C17.7348 15 17.4804 14.8946 17.2929 14.7071C17.1054 14.5196 17 14.2652 17 14ZM17 18C17 17.7348 17.1054 17.4804 17.2929 17.2929C17.4804 17.1054 17.7348 17 18 17H24C24.2652 17 24.5196 17.1054 24.7071 17.2929C24.8946 17.4804 25 17.7348 25 18C25 18.2652 24.8946 18.5196 24.7071 18.7071C24.5196 18.8946 24.2652 19 24 19H18C17.7348 19 17.4804 18.8946 17.2929 18.7071C17.1054 18.5196 17 18.2652 17 18ZM8 21H14C14.2652 21 14.5196 20.8946 14.7071 20.7071C14.8946 20.5196 15 20.2652 15 20V12C15 11.7348 14.8946 11.4804 14.7071 11.2929C14.5196 11.1054 14.2652 11 14 11H8C7.73478 11 7.48043 11.1054 7.29289 11.2929C7.10536 11.4804 7 11.7348 7 12V20C7 20.2652 7.10536 20.5196 7.29289 20.7071C7.48043 20.8946 7.73478 21 8 21ZM9 13H13V19H9V13Z" fill="#4A4A4F"/>
</svg>
