<svg width="32" height="32" viewBox="0 0 32 32" fill="none" xmlns="http://www.w3.org/2000/svg">
<path d="M9 13H13V19H9V13ZM29 7V27C28.9999 27.1704 28.9563 27.338 28.8732 27.4869C28.7901 27.6357 28.6704 27.7608 28.5254 27.8503C28.3803 27.9399 28.2148 27.9909 28.0446 27.9985C27.8743 28.0061 27.7049 27.97 27.5525 27.8937L24 26.1175L20.4475 27.8937C20.3086 27.9633 20.1554 27.9995 20 27.9995C19.8446 27.9995 19.6914 27.9633 19.5525 27.8937L16 26.1175L12.4475 27.8937C12.3086 27.9633 12.1554 27.9995 12 27.9995C11.8446 27.9995 11.6914 27.9633 11.5525 27.8937L8 26.1175L4.4475 27.8937C4.29508 27.97 4.12569 28.0061 3.95543 27.9985C3.78516 27.9909 3.61965 27.9399 3.47463 27.8503C3.32961 27.7608 3.20988 27.6357 3.12681 27.4869C3.04374 27.338 3.00009 27.1704 3 27V7C3 6.46957 3.21071 5.96086 3.58579 5.58579C3.96086 5.21071 4.46957 5 5 5H27C27.5304 5 28.0391 5.21071 28.4142 5.58579C28.7893 5.96086 29 6.46957 29 7ZM15 12C15 11.7348 14.8946 11.4804 14.7071 11.2929C14.5196 11.1054 14.2652 11 14 11H8C7.73478 11 7.48043 11.1054 7.29289 11.2929C7.10536 11.4804 7 11.7348 7 12V20C7 20.2652 7.10536 20.5196 7.29289 20.7071C7.48043 20.8946 7.73478 21 8 21H14C14.2652 21 14.5196 20.8946 14.7071 20.7071C14.8946 20.5196 15 20.2652 15 20V12ZM25 18C25 17.7348 24.8946 17.4804 24.7071 17.2929C24.5196 17.1054 24.2652 17 24 17H18C17.7348 17 17.4804 17.1054 17.2929 17.2929C17.1054 17.4804 17 17.7348 17 18C17 18.2652 17.1054 18.5196 17.2929 18.7071C17.4804 18.8946 17.7348 19 18 19H24C24.2652 19 24.5196 18.8946 24.7071 18.7071C24.8946 18.5196 25 18.2652 25 18ZM25 14C25 13.7348 24.8946 13.4804 24.7071 13.2929C24.5196 13.1054 24.2652 13 24 13H18C17.7348 13 17.4804 13.1054 17.2929 13.2929C17.1054 13.4804 17 13.7348 17 14C17 14.2652 17.1054 14.5196 17.2929 14.7071C17.4804 14.8946 17.7348 15 18 15H24C24.2652 15 24.5196 14.8946 24.7071 14.7071C24.8946 14.5196 25 14.2652 25 14Z" fill="#4A4A4F"/>
</svg>
