<svg width="32" height="32" viewBox="0 0 32 32" fill="none" xmlns="http://www.w3.org/2000/svg">
<path d="M27 6H7C6.46957 6 5.96086 6.21071 5.58579 6.58579C5.21071 6.96086 5 7.46957 5 8V23C5 23.2652 4.89464 23.5196 4.70711 23.7071C4.51957 23.8946 4.26522 24 4 24C3.73478 24 3.48043 23.8946 3.29289 23.7071C3.10536 23.5196 3 23.2652 3 23V11C3 10.7348 2.89464 10.4804 2.70711 10.2929C2.51957 10.1054 2.26522 10 2 10C1.73478 10 1.48043 10.1054 1.29289 10.2929C1.10536 10.4804 1 10.7348 1 11V23.0138C1.00364 23.807 1.32131 24.5665 1.88353 25.1262C2.44574 25.6858 3.20673 26 4 26H26C26.7956 26 27.5587 25.6839 28.1213 25.1213C28.6839 24.5587 29 23.7956 29 23V8C29 7.46957 28.7893 6.96086 28.4142 6.58579C28.0391 6.21071 27.5304 6 27 6ZM22 19H12C11.7348 19 11.4804 18.8946 11.2929 18.7071C11.1054 18.5196 11 18.2652 11 18C11 17.7348 11.1054 17.4804 11.2929 17.2929C11.4804 17.1054 11.7348 17 12 17H22C22.2652 17 22.5196 17.1054 22.7071 17.2929C22.8946 17.4804 23 17.7348 23 18C23 18.2652 22.8946 18.5196 22.7071 18.7071C22.5196 18.8946 22.2652 19 22 19ZM22 15H12C11.7348 15 11.4804 14.8946 11.2929 14.7071C11.1054 14.5196 11 14.2652 11 14C11 13.7348 11.1054 13.4804 11.2929 13.2929C11.4804 13.1054 11.7348 13 12 13H22C22.2652 13 22.5196 13.1054 22.7071 13.2929C22.8946 13.4804 23 13.7348 23 14C23 14.2652 22.8946 14.5196 22.7071 14.7071C22.5196 14.8946 22.2652 15 22 15Z" fill="#4A4A4F"/>
</svg>
