<svg width="32" height="32" viewBox="0 0 32 32" fill="none" xmlns="http://www.w3.org/2000/svg">
<path d="M24.9998 4.99981V23.9998C24.9998 24.265 24.8945 24.5194 24.7069 24.7069C24.5194 24.8945 24.265 24.9998 23.9998 24.9998H4.99981C4.80192 25 4.60842 24.9414 4.44383 24.8315C4.27923 24.7217 4.15094 24.5654 4.07519 24.3826C3.99944 24.1998 3.97963 23.9986 4.01828 23.8045C4.05693 23.6104 4.1523 23.4322 4.29231 23.2923L23.2923 4.29231C23.4322 4.1523 23.6104 4.05693 23.8045 4.01828C23.9986 3.97963 24.1998 3.99944 24.3826 4.07519C24.5654 4.15094 24.7217 4.27923 24.8315 4.44383C24.9414 4.60842 25 4.80192 24.9998 4.99981Z" fill="#4A4A4F"/>
</svg>
