<svg width="32" height="32" viewBox="0 0 32 32" fill="none" xmlns="http://www.w3.org/2000/svg">
<path d="M28 14.9998V25.9998C28 26.5302 27.7893 27.0389 27.4142 27.414C27.0391 27.7891 26.5304 27.9998 26 27.9998H6C5.46957 27.9998 4.96086 27.7891 4.58579 27.414C4.21071 27.0389 4 26.5302 4 25.9998V5.99981C4 5.46938 4.21071 4.96067 4.58579 4.5856C4.96086 4.21052 5.46957 3.99981 6 3.99981H17C17.2652 3.99981 17.5196 4.10517 17.7071 4.2927C17.8946 4.48024 18 4.73459 18 4.99981C18 5.26503 17.8946 5.51938 17.7071 5.70692C17.5196 5.89445 17.2652 5.99981 17 5.99981H6V25.9998H26V14.9998C26 14.7346 26.1054 14.4802 26.2929 14.2927C26.4804 14.1052 26.7348 13.9998 27 13.9998C27.2652 13.9998 27.5196 14.1052 27.7071 14.2927C27.8946 14.4802 28 14.7346 28 14.9998ZM28.7075 8.70731L16.7075 20.7073C16.6146 20.8001 16.5042 20.8738 16.3829 20.9239C16.2615 20.9741 16.1314 20.9999 16 20.9998H12C11.7348 20.9998 11.4804 20.8945 11.2929 20.7069C11.1054 20.5194 11 20.265 11 19.9998V15.9998C10.9999 15.8684 11.0257 15.7384 11.0759 15.617C11.1261 15.4956 11.1997 15.3852 11.2925 15.2923L23.2925 3.29231C23.3854 3.19933 23.4957 3.12557 23.6171 3.07525C23.7385 3.02493 23.8686 2.99902 24 2.99902C24.1314 2.99902 24.2615 3.02493 24.3829 3.07525C24.5043 3.12557 24.6146 3.19933 24.7075 3.29231L28.7075 7.29231C28.8005 7.38518 28.8742 7.49547 28.9246 7.61687C28.9749 7.73827 29.0008 7.86839 29.0008 7.99981C29.0008 8.13123 28.9749 8.26135 28.9246 8.38275C28.8742 8.50415 28.8005 8.61444 28.7075 8.70731ZM26.5825 7.99981L24 5.41356L22.4137 6.99981L25 9.58606L26.5825 7.99981Z" fill="#4A4A4F"/>
</svg>
