<svg width="32" height="32" viewBox="0 0 32 32" fill="none" xmlns="http://www.w3.org/2000/svg">
<path d="M28 6C28 6.26522 27.8946 6.51957 27.7071 6.70711C27.5196 6.89464 27.2652 7 27 7H25V26C25 26.2652 24.8946 26.5196 24.7071 26.7071C24.5196 26.8946 24.2652 27 24 27H19C18.8212 26.9998 18.6457 26.9517 18.4918 26.8607C18.3379 26.7697 18.2113 26.6391 18.125 26.4825L9 9.89375V25H11C11.2652 25 11.5196 25.1054 11.7071 25.2929C11.8946 25.4804 12 25.7348 12 26C12 26.2652 11.8946 26.5196 11.7071 26.7071C11.5196 26.8946 11.2652 27 11 27H5C4.73478 27 4.48043 26.8946 4.29289 26.7071C4.10536 26.5196 4 26.2652 4 26C4 25.7348 4.10536 25.4804 4.29289 25.2929C4.48043 25.1054 4.73478 25 5 25H7V7H5C4.73478 7 4.48043 6.89464 4.29289 6.70711C4.10536 6.51957 4 6.26522 4 6C4 5.73478 4.10536 5.48043 4.29289 5.29289C4.48043 5.10536 4.73478 5 5 5H13C13.1788 5.00016 13.3543 5.04825 13.5082 5.13927C13.6621 5.23029 13.7887 5.3609 13.875 5.5175L23 22.1063V7H21C20.7348 7 20.4804 6.89464 20.2929 6.70711C20.1054 6.51957 20 6.26522 20 6C20 5.73478 20.1054 5.48043 20.2929 5.29289C20.4804 5.10536 20.7348 5 21 5H27C27.2652 5 27.5196 5.10536 27.7071 5.29289C27.8946 5.48043 28 5.73478 28 6Z" fill="#4A4A4F"/>
</svg>
