<svg width="32" height="32" viewBox="0 0 32 32" fill="none" xmlns="http://www.w3.org/2000/svg">
<path d="M27 5H21C20.7348 5 20.4804 5.10536 20.2929 5.29289C20.1054 5.48043 20 5.73478 20 6C20 6.26522 20.1054 6.51957 20.2929 6.70711C20.4804 6.89464 20.7348 7 21 7H23V22.1063L13.875 5.5175C13.7887 5.3609 13.6621 5.23029 13.5082 5.13927C13.3543 5.04825 13.1788 5.00016 13 5H5C4.73478 5 4.48043 5.10536 4.29289 5.29289C4.10536 5.48043 4 5.73478 4 6C4 6.26522 4.10536 6.51957 4.29289 6.70711C4.48043 6.89464 4.73478 7 5 7H7V25H5C4.73478 25 4.48043 25.1054 4.29289 25.2929C4.10536 25.4804 4 25.7348 4 26C4 26.2652 4.10536 26.5196 4.29289 26.7071C4.48043 26.8946 4.73478 27 5 27H11C11.2652 27 11.5196 26.8946 11.7071 26.7071C11.8946 26.5196 12 26.2652 12 26C12 25.7348 11.8946 25.4804 11.7071 25.2929C11.5196 25.1054 11.2652 25 11 25H9V9.89375L18.125 26.4825C18.2113 26.6391 18.3379 26.7697 18.4918 26.8607C18.6457 26.9517 18.8212 26.9998 19 27H24C24.2652 27 24.5196 26.8946 24.7071 26.7071C24.8946 26.5196 25 26.2652 25 26V7H27C27.2652 7 27.5196 6.89464 27.7071 6.70711C27.8946 6.51957 28 6.26522 28 6C28 5.73478 27.8946 5.48043 27.7071 5.29289C27.5196 5.10536 27.2652 5 27 5ZM9.69125 7H12.4087L22.3088 25H19.5912L9.69125 7Z" fill="#4A4A4F"/>
</svg>
