<svg width="32" height="32" viewBox="0 0 32 32" fill="none" xmlns="http://www.w3.org/2000/svg">
<path d="M27 16V26C27 26.5304 26.7893 27.0391 26.4142 27.4142C26.0391 27.7893 25.5304 28 25 28H6C5.46957 28 4.96086 27.7893 4.58579 27.4142C4.21071 27.0391 4 26.5304 4 26V7C4 6.46957 4.21071 5.96086 4.58579 5.58579C4.96086 5.21071 5.46957 5 6 5H16C16.2652 5 16.5196 5.10536 16.7071 5.29289C16.8946 5.48043 17 5.73478 17 6C17 6.26522 16.8946 6.51957 16.7071 6.70711C16.5196 6.89464 16.2652 7 16 7H6V26H25V16C25 15.7348 25.1054 15.4804 25.2929 15.2929C25.4804 15.1054 25.7348 15 26 15C26.2652 15 26.5196 15.1054 26.7071 15.2929C26.8946 15.4804 27 15.7348 27 16ZM29 7.5C29 8.39002 28.7361 9.26004 28.2416 10.0001C27.7471 10.7401 27.0443 11.3169 26.2221 11.6575C25.3998 11.9981 24.495 12.0872 23.6221 11.9135C22.7492 11.7399 21.9474 11.3113 21.318 10.682C20.6887 10.0526 20.2601 9.25082 20.0865 8.37791C19.9128 7.50499 20.0019 6.60019 20.3425 5.77792C20.6831 4.95566 21.2599 4.25285 21.9999 3.75839C22.74 3.26392 23.61 3 24.5 3C25.6935 3 26.8381 3.47411 27.682 4.31802C28.5259 5.16193 29 6.30653 29 7.5ZM27 7.5C27 7.00555 26.8534 6.5222 26.5787 6.11107C26.304 5.69995 25.9135 5.37952 25.4567 5.1903C24.9999 5.00108 24.4972 4.95157 24.0123 5.04804C23.5273 5.1445 23.0819 5.3826 22.7322 5.73223C22.3826 6.08186 22.1445 6.52732 22.048 7.01227C21.9516 7.49723 22.0011 7.99989 22.1903 8.45671C22.3795 8.91352 22.7 9.30397 23.1111 9.57867C23.5222 9.85338 24.0055 10 24.5 10C25.163 10 25.7989 9.73661 26.2678 9.26777C26.7366 8.79893 27 8.16304 27 7.5Z" fill="#4A4A4F"/>
</svg>
