<svg width="32" height="32" viewBox="0 0 32 32" fill="none" xmlns="http://www.w3.org/2000/svg">
<path d="M16 3C13.4288 3 10.9154 3.76244 8.77759 5.1909C6.63975 6.61935 4.97351 8.64968 3.98957 11.0251C3.00563 13.4006 2.74819 16.0144 3.2498 18.5362C3.75141 21.0579 4.98953 23.3743 6.80762 25.1924C8.6257 27.0105 10.9421 28.2486 13.4638 28.7502C15.9856 29.2518 18.5995 28.9944 20.9749 28.0104C23.3503 27.0265 25.3807 25.3603 26.8091 23.2224C28.2376 21.0846 29 18.5712 29 16C28.9964 12.5533 27.6256 9.24882 25.1884 6.81163C22.7512 4.37445 19.4467 3.00364 16 3ZM16 27C13.8244 27 11.6977 26.3549 9.88873 25.1462C8.07979 23.9375 6.66989 22.2195 5.83733 20.2095C5.00477 18.1995 4.78693 15.9878 5.21137 13.854C5.63581 11.7202 6.68345 9.7602 8.22183 8.22183C9.76021 6.68345 11.7202 5.6358 13.854 5.21136C15.9878 4.78692 18.1995 5.00476 20.2095 5.83733C22.2195 6.66989 23.9375 8.07979 25.1462 9.88873C26.3549 11.6977 27 13.8244 27 16C26.9967 18.9164 25.8367 21.7123 23.7745 23.7745C21.7123 25.8367 18.9164 26.9967 16 27ZM16 14C15.9238 14 15.8475 14 15.7725 14L17.8588 10.5125C17.9261 10.3997 17.9705 10.2748 17.9895 10.1449C18.0085 10.0149 18.0018 9.8825 17.9696 9.75516C17.9375 9.62783 17.8806 9.50808 17.8021 9.40274C17.7237 9.29741 17.6253 9.20855 17.5125 9.14125C17.3997 9.07395 17.2748 9.02952 17.1449 9.01049C17.0149 8.99147 16.8825 8.99823 16.7552 9.03038C16.6278 9.06253 16.5081 9.11945 16.4028 9.19788C16.2974 9.27632 16.2086 9.37473 16.1413 9.4875L12.1125 16.2375C11.6141 17.0944 11.4126 18.0919 11.5393 19.0751C11.666 20.0583 12.1138 20.9722 12.8132 21.6747C13.5125 22.3773 14.4243 22.8293 15.4069 22.9604C16.3895 23.0916 17.388 22.8946 18.2471 22.4001C19.1063 21.9056 19.7782 21.1412 20.1583 20.2257C20.5385 19.3102 20.6057 18.2947 20.3495 17.3371C20.0933 16.3794 19.5281 15.5332 18.7416 14.9297C17.9551 14.3263 16.9913 13.9995 16 14ZM16 21C15.5056 21 15.0222 20.8534 14.6111 20.5787C14.2 20.304 13.8795 19.9135 13.6903 19.4567C13.5011 18.9999 13.4516 18.4972 13.548 18.0123C13.6445 17.5273 13.8826 17.0819 14.2322 16.7322C14.5819 16.3826 15.0273 16.1445 15.5123 16.048C15.9972 15.9516 16.4999 16.0011 16.9567 16.1903C17.4135 16.3795 17.804 16.7 18.0787 17.1111C18.3534 17.5222 18.5 18.0055 18.5 18.5C18.5 19.163 18.2366 19.7989 17.7678 20.2678C17.2989 20.7366 16.663 21 16 21Z" fill="#4A4A4F"/>
</svg>
