<svg width="32" height="32" viewBox="0 0 32 32" fill="none" xmlns="http://www.w3.org/2000/svg">
<path d="M17.9998 5.99982V25.9998C17.9998 26.265 17.8944 26.5194 17.7069 26.7069C17.5194 26.8945 17.265 26.9998 16.9998 26.9998C16.7346 26.9998 16.4802 26.8945 16.2927 26.7069C16.1051 26.5194 15.9998 26.265 15.9998 25.9998V7.76607L12.5148 9.85732C12.2874 9.99391 12.015 10.0346 11.7576 9.97033C11.5002 9.90609 11.2789 9.74225 11.1423 9.51482C11.0057 9.2874 10.965 9.01503 11.0293 8.75764C11.0935 8.50024 11.2574 8.27891 11.4848 8.14232L16.4848 5.14232C16.6365 5.05115 16.8098 5.00189 16.9868 4.9996C17.1638 4.9973 17.3383 5.04204 17.4924 5.12924C17.6464 5.21645 17.7746 5.34299 17.8637 5.49595C17.9529 5.6489 17.9998 5.82278 17.9998 5.99982Z" fill="#4A4A4F"/>
</svg>
