<svg width="32" height="32" viewBox="0 0 32 32" fill="none" xmlns="http://www.w3.org/2000/svg">
<path d="M26 4H6C5.46957 4 4.96086 4.21071 4.58579 4.58579C4.21071 4.96086 4 5.46957 4 6V26C4 26.5304 4.21071 27.0391 4.58579 27.4142C4.96086 27.7893 5.46957 28 6 28H26C26.5304 28 27.0391 27.7893 27.4142 27.4142C27.7893 27.0391 28 26.5304 28 26V6C28 5.46957 27.7893 4.96086 27.4142 4.58579C27.0391 4.21071 26.5304 4 26 4ZM26 26H6V6H26V26ZM17.5 10V22C17.5 22.2652 17.3946 22.5196 17.2071 22.7071C17.0196 22.8946 16.7652 23 16.5 23C16.2348 23 15.9804 22.8946 15.7929 22.7071C15.6054 22.5196 15.5 22.2652 15.5 22V11.875L14.055 12.8387C13.9457 12.9116 13.8231 12.9623 13.6942 12.9878C13.5653 13.0133 13.4326 13.0131 13.3038 12.9874C13.1749 12.9616 13.0524 12.9107 12.9433 12.8376C12.8341 12.7645 12.7404 12.6706 12.6675 12.5612C12.5946 12.4519 12.544 12.3293 12.5185 12.2004C12.493 12.0715 12.4931 11.9389 12.5189 11.81C12.5447 11.6812 12.5956 11.5587 12.6687 11.4495C12.7418 11.3403 12.8357 11.2466 12.945 11.1737L15.945 9.17375C16.0952 9.07354 16.2697 9.01586 16.4501 9.00684C16.6304 8.99782 16.8098 9.03779 16.9692 9.12251C17.1287 9.20723 17.2622 9.33354 17.3557 9.48804C17.4491 9.64253 17.499 9.81945 17.5 10Z" fill="#4A4A4F"/>
</svg>
