<svg width="32" height="32" viewBox="0 0 32 32" fill="none" xmlns="http://www.w3.org/2000/svg">
<path d="M18.5 19C18.5 19.4945 18.3534 19.9778 18.0787 20.3889C17.804 20.8 17.4135 21.1205 16.9567 21.3097C16.4999 21.4989 15.9972 21.5484 15.5123 21.452C15.0273 21.3555 14.5819 21.1174 14.2322 20.7678C13.8826 20.4181 13.6445 19.9727 13.548 19.4877C13.4516 19.0028 13.5011 18.5001 13.6903 18.0433C13.8795 17.5865 14.2 17.196 14.6111 16.9213C15.0222 16.6466 15.5056 16.5 16 16.5C16.663 16.5 17.2989 16.7634 17.7678 17.2322C18.2366 17.7011 18.5 18.337 18.5 19ZM16 14.5C16.3956 14.5 16.7822 14.3827 17.1111 14.1629C17.44 13.9432 17.6964 13.6308 17.8478 13.2654C17.9991 12.8999 18.0387 12.4978 17.9616 12.1098C17.8844 11.7219 17.6939 11.3655 17.4142 11.0858C17.1345 10.8061 16.7781 10.6156 16.3902 10.5384C16.0022 10.4613 15.6001 10.5009 15.2346 10.6522C14.8692 10.8036 14.5568 11.06 14.3371 11.3889C14.1173 11.7178 14 12.1044 14 12.5C14 13.0304 14.2107 13.5391 14.5858 13.9142C14.9609 14.2893 15.4696 14.5 16 14.5ZM29 16C29 18.5712 28.2376 21.0846 26.8091 23.2224C25.3807 25.3603 23.3503 27.0265 20.9749 28.0104C18.5995 28.9944 15.9856 29.2518 13.4638 28.7502C10.9421 28.2486 8.6257 27.0105 6.80762 25.1924C4.98953 23.3743 3.75141 21.0579 3.2498 18.5362C2.74819 16.0144 3.00563 13.4006 3.98957 11.0251C4.97351 8.64968 6.63975 6.61935 8.77759 5.1909C10.9154 3.76244 13.4288 3 16 3C19.4467 3.00364 22.7512 4.37445 25.1884 6.81163C27.6256 9.24882 28.9964 12.5533 29 16ZM20.5 19C20.5001 18.3075 20.34 17.6244 20.0323 17.004C19.7246 16.3836 19.2776 15.8428 18.7263 15.4237C19.314 14.8763 19.7234 14.1646 19.901 13.3812C20.0786 12.5979 20.0163 11.7792 19.7221 11.0318C19.428 10.2844 18.9156 9.64284 18.2517 9.19069C17.5878 8.73853 16.8032 8.49671 16 8.49671C15.1968 8.49671 14.4122 8.73853 13.7483 9.19069C13.0844 9.64284 12.5721 10.2844 12.2779 11.0318C11.9837 11.7792 11.9214 12.5979 12.099 13.3812C12.2767 14.1646 12.686 14.8763 13.2738 15.4237C12.6645 15.8877 12.1837 16.4995 11.8769 17.2012C11.5701 17.9029 11.4474 18.6713 11.5206 19.4336C11.5937 20.1959 11.8602 20.927 12.2947 21.5575C12.7293 22.1881 13.3177 22.6973 14.004 23.037C14.6904 23.3767 15.4521 23.5356 16.217 23.4987C16.982 23.4617 17.7248 23.2302 18.3753 22.826C19.0257 22.4217 19.5623 21.8582 19.9341 21.1887C20.3059 20.5192 20.5007 19.7658 20.5 19Z" fill="#4A4A4F"/>
</svg>
