<svg width="32" height="32" viewBox="0 0 32 32" fill="none" xmlns="http://www.w3.org/2000/svg">
<path d="M16 3C13.4288 3 10.9154 3.76244 8.77759 5.1909C6.63975 6.61935 4.97351 8.64968 3.98957 11.0251C3.00563 13.4006 2.74819 16.0144 3.2498 18.5362C3.75141 21.0579 4.98953 23.3743 6.80762 25.1924C8.6257 27.0105 10.9421 28.2486 13.4638 28.7502C15.9856 29.2518 18.5995 28.9944 20.9749 28.0104C23.3503 27.0265 25.3807 25.3603 26.8091 23.2224C28.2376 21.0846 29 18.5712 29 16C28.9964 12.5533 27.6256 9.24882 25.1884 6.81163C22.7512 4.37445 19.4467 3.00364 16 3ZM15.5 23.5C14.9011 23.5019 14.3079 23.3832 13.7558 23.1511C13.2036 22.919 12.7039 22.5781 12.2863 22.1488C12.1885 22.0563 12.1105 21.9451 12.0567 21.8218C12.003 21.6985 11.9747 21.5656 11.9735 21.4311C11.9723 21.2966 11.9983 21.1632 12.0499 21.039C12.1014 20.9147 12.1775 20.8022 12.2736 20.708C12.3697 20.6139 12.4838 20.5401 12.609 20.4911C12.7343 20.4421 12.8682 20.4188 13.0026 20.4227C13.1371 20.4267 13.2693 20.4577 13.3915 20.5139C13.5137 20.5701 13.6233 20.6504 13.7138 20.75C14.0023 21.0443 14.3591 21.2628 14.7524 21.3859C15.1457 21.509 15.5634 21.5329 15.9682 21.4556C16.373 21.3783 16.7525 21.202 17.0727 20.9426C17.393 20.6832 17.6441 20.3486 17.8038 19.9687C17.9635 19.5887 18.0268 19.1752 17.988 18.7648C17.9493 18.3545 17.8097 17.9602 17.5816 17.6168C17.3536 17.2735 17.0442 16.9919 16.681 16.797C16.3179 16.6022 15.9122 16.5001 15.5 16.5C15.3171 16.4999 15.1377 16.4497 14.9813 16.3548C14.8249 16.2598 14.6976 16.1238 14.6132 15.9615C14.5287 15.7992 14.4904 15.6169 14.5024 15.4344C14.5144 15.2518 14.5763 15.0761 14.6813 14.9263L17.0788 11.5H13C12.7348 11.5 12.4804 11.3946 12.2929 11.2071C12.1054 11.0196 12 10.7652 12 10.5C12 10.2348 12.1054 9.98043 12.2929 9.79289C12.4804 9.60536 12.7348 9.5 13 9.5H19C19.1829 9.50005 19.3624 9.55028 19.5187 9.64522C19.6751 9.74017 19.8024 9.87618 19.8869 10.0385C19.9713 10.2008 20.0096 10.3831 19.9976 10.5656C19.9856 10.7482 19.9237 10.9239 19.8188 11.0737L17.1938 14.8237C18.1654 15.2136 18.9706 15.9301 19.4709 16.8498C19.9711 17.7694 20.1351 18.8347 19.9345 19.8622C19.7339 20.8898 19.1813 21.8152 18.3719 22.4792C17.5625 23.1432 16.5469 23.5042 15.5 23.5Z" fill="#4A4A4F"/>
</svg>
