<svg width="32" height="32" viewBox="0 0 32 32" fill="none" xmlns="http://www.w3.org/2000/svg">
<path d="M26 4H6C5.46957 4 4.96086 4.21071 4.58579 4.58579C4.21071 4.96086 4 5.46957 4 6V26C4 26.5304 4.21071 27.0391 4.58579 27.4142C4.96086 27.7893 5.46957 28 6 28H26C26.5304 28 27.0391 27.7893 27.4142 27.4142C27.7893 27.0391 28 26.5304 28 26V6C28 5.46957 27.7893 4.96086 27.4142 4.58579C27.0391 4.21071 26.5304 4 26 4ZM26 26H6V6H26V26ZM20 18.5C19.9998 19.3938 19.7334 20.2672 19.2349 21.009C18.7363 21.7508 18.0281 22.3273 17.2007 22.6651C16.3732 23.0029 15.4639 23.0866 14.5886 22.9056C13.7134 22.7246 12.9119 22.287 12.2863 21.6488C12.1885 21.5563 12.1105 21.4451 12.0567 21.3218C12.003 21.1985 11.9747 21.0656 11.9735 20.9311C11.9723 20.7966 11.9983 20.6632 12.0499 20.539C12.1014 20.4147 12.1775 20.3022 12.2736 20.208C12.3697 20.1139 12.4838 20.0401 12.609 19.9911C12.7343 19.9421 12.8681 19.9188 13.0026 19.9227C13.1371 19.9267 13.2693 19.9577 13.3915 20.0139C13.5137 20.0701 13.6233 20.1504 13.7137 20.25C14.0023 20.5443 14.359 20.7628 14.7524 20.8859C15.1457 21.009 15.5634 21.0329 15.9682 20.9556C16.373 20.8783 16.7525 20.702 17.0727 20.4426C17.393 20.1832 17.6441 19.8486 17.8038 19.4687C17.9635 19.0887 18.0268 18.6752 17.988 18.2648C17.9493 17.8545 17.8096 17.4602 17.5816 17.1168C17.3536 16.7735 17.0442 16.4919 16.681 16.297C16.3179 16.1022 15.9121 16.0001 15.5 16C15.3171 15.9999 15.1377 15.9497 14.9813 15.8548C14.8249 15.7598 14.6976 15.6238 14.6132 15.4615C14.5287 15.2992 14.4904 15.1169 14.5024 14.9344C14.5144 14.7518 14.5763 14.5761 14.6812 14.4263L17.0788 11H13C12.7348 11 12.4804 10.8946 12.2929 10.7071C12.1054 10.5196 12 10.2652 12 10C12 9.73478 12.1054 9.48043 12.2929 9.29289C12.4804 9.10536 12.7348 9 13 9H19C19.1829 9.00005 19.3624 9.05028 19.5187 9.14522C19.6751 9.24017 19.8024 9.37618 19.8868 9.53847C19.9713 9.70076 20.0096 9.88309 19.9976 10.0656C19.9856 10.2482 19.9237 10.4239 19.8188 10.5737L17.1938 14.3237C18.0236 14.6621 18.7338 15.2402 19.2336 15.984C19.7334 16.7279 20.0003 17.6038 20 18.5Z" fill="#4A4A4F"/>
</svg>
