<svg width="32" height="32" viewBox="0 0 32 32" fill="none" xmlns="http://www.w3.org/2000/svg">
<path d="M16 3C13.4288 3 10.9154 3.76244 8.77759 5.1909C6.63975 6.61935 4.97351 8.64968 3.98957 11.0251C3.00563 13.4006 2.74819 16.0144 3.2498 18.5362C3.75141 21.0579 4.98953 23.3743 6.80762 25.1924C8.6257 27.0105 10.9421 28.2486 13.4638 28.7502C15.9856 29.2518 18.5995 28.9944 20.9749 28.0104C23.3503 27.0265 25.3807 25.3603 26.8091 23.2224C28.2376 21.0846 29 18.5712 29 16C28.9964 12.5533 27.6256 9.24882 25.1884 6.81163C22.7512 4.37445 19.4467 3.00364 16 3ZM16 27C13.8244 27 11.6977 26.3549 9.88873 25.1462C8.07979 23.9375 6.66989 22.2195 5.83733 20.2095C5.00477 18.1995 4.78693 15.9878 5.21137 13.854C5.63581 11.7202 6.68345 9.7602 8.22183 8.22183C9.76021 6.68345 11.7202 5.6358 13.854 5.21136C15.9878 4.78692 18.1995 5.00476 20.2095 5.83733C22.2195 6.66989 23.9375 8.07979 25.1462 9.88873C26.3549 11.6977 27 13.8244 27 16C26.9967 18.9164 25.8367 21.7123 23.7745 23.7745C21.7123 25.8367 18.9164 26.9967 16 27ZM16 9C14.2213 9 12.75 9.805 11.75 11.3263C10.9413 12.5588 10.5 14.2188 10.5 16C10.5 17.7812 10.945 19.4412 11.75 20.6737C12.75 22.1963 14.2175 23 16 23C17.7825 23 19.25 22.1963 20.25 20.6737C21.0588 19.4412 21.5 17.7812 21.5 16C21.5 14.2188 21.055 12.5588 20.25 11.3263C19.25 9.805 17.7788 9 16 9ZM16 21C13.2375 21 12.5 17.8575 12.5 16C12.5 14.1425 13.2375 11 16 11C18.7625 11 19.5 14.1425 19.5 16C19.5 17.8575 18.7625 21 16 21Z" fill="#4A4A4F"/>
</svg>
