<svg width="32" height="32" viewBox="0 0 32 32" fill="none" xmlns="http://www.w3.org/2000/svg">
<path d="M15.9998 5C14.9969 4.99954 14.0057 5.21457 13.0932 5.63052C12.1807 6.04648 11.3682 6.65365 10.7107 7.41093C10.0533 8.1682 9.5662 9.05791 9.28251 10.0198C8.99882 10.9817 8.92511 11.9933 9.06639 12.9861C9.20767 13.979 9.56064 14.9299 10.1014 15.7745C10.6421 16.619 11.358 17.3376 12.2006 17.8814C13.0432 18.4252 13.9928 18.7816 14.9852 18.9265C15.9775 19.0714 16.9894 19.0014 17.9523 18.7213L14.1248 25.5088C13.9947 25.7408 13.9621 26.0151 14.0341 26.2712C14.1062 26.5273 14.2771 26.7443 14.5092 26.8744C14.7412 27.0045 15.0155 27.0371 15.2716 26.965C15.5277 26.8929 15.7447 26.7221 15.8748 26.49L22.0685 15.49C22.6807 14.4256 23.0021 13.219 23.0006 11.9911C22.999 10.7633 22.6745 9.55746 22.0597 8.49465C21.4448 7.43185 20.5612 6.54947 19.4976 5.93608C18.4339 5.32268 17.2276 4.99986 15.9998 5ZM15.9998 17C15.0109 17 14.0442 16.7068 13.2219 16.1573C12.3997 15.6079 11.7588 14.827 11.3804 13.9134C11.002 12.9998 10.9029 11.9945 11.0959 11.0245C11.2888 10.0546 11.765 9.16373 12.4643 8.46447C13.1635 7.7652 14.0544 7.289 15.0243 7.09607C15.9942 6.90315 16.9996 7.00216 17.9132 7.3806C18.8268 7.75904 19.6077 8.3999 20.1571 9.22215C20.7065 10.0444 20.9998 11.0111 20.9998 12C20.9998 13.3261 20.473 14.5979 19.5353 15.5355C18.5976 16.4732 17.3259 17 15.9998 17Z" fill="#4A4A4F"/>
</svg>
