<svg width="32" height="32" viewBox="0 0 32 32" fill="none" xmlns="http://www.w3.org/2000/svg">
<path d="M16 3C13.4288 3 10.9154 3.76244 8.77759 5.1909C6.63975 6.61935 4.97351 8.64968 3.98957 11.0251C3.00563 13.4006 2.74819 16.0144 3.2498 18.5362C3.75141 21.0579 4.98953 23.3743 6.80762 25.1924C8.6257 27.0105 10.9421 28.2486 13.4638 28.7502C15.9856 29.2518 18.5995 28.9944 20.9749 28.0104C23.3503 27.0265 25.3807 25.3603 26.8091 23.2224C28.2376 21.0846 29 18.5712 29 16C28.9964 12.5533 27.6256 9.24882 25.1884 6.81163C22.7512 4.37445 19.4467 3.00364 16 3ZM16 27C13.8244 27 11.6977 26.3549 9.88873 25.1462C8.07979 23.9375 6.66989 22.2195 5.83733 20.2095C5.00477 18.1995 4.78693 15.9878 5.21137 13.854C5.63581 11.7202 6.68345 9.7602 8.22183 8.22183C9.76021 6.68345 11.7202 5.6358 13.854 5.21136C15.9878 4.78692 18.1995 5.00476 20.2095 5.83733C22.2195 6.66989 23.9375 8.07979 25.1462 9.88873C26.3549 11.6977 27 13.8244 27 16C26.9967 18.9164 25.8367 21.7123 23.7745 23.7745C21.7123 25.8367 18.9164 26.9967 16 27ZM18.7263 15.4237C19.314 14.8763 19.7234 14.1646 19.901 13.3812C20.0786 12.5979 20.0163 11.7792 19.7221 11.0318C19.428 10.2844 18.9156 9.64284 18.2517 9.19069C17.5878 8.73853 16.8032 8.49671 16 8.49671C15.1968 8.49671 14.4122 8.73853 13.7483 9.19069C13.0844 9.64284 12.5721 10.2844 12.2779 11.0318C11.9837 11.7792 11.9214 12.5979 12.099 13.3812C12.2767 14.1646 12.686 14.8763 13.2738 15.4237C12.5246 15.9942 11.9732 16.7854 11.6974 17.6857C11.4216 18.5861 11.4351 19.5503 11.7362 20.4425C12.0372 21.3348 12.6106 22.1101 13.3755 22.6593C14.1404 23.2085 15.0583 23.5039 16 23.5039C16.9417 23.5039 17.8596 23.2085 18.6245 22.6593C19.3894 22.1101 19.9628 21.3348 20.2638 20.4425C20.5649 19.5503 20.5784 18.5861 20.3026 17.6857C20.0268 16.7854 19.4754 15.9942 18.7263 15.4237ZM14 12.5C14 12.1044 14.1173 11.7178 14.3371 11.3889C14.5568 11.06 14.8692 10.8036 15.2346 10.6522C15.6001 10.5009 16.0022 10.4613 16.3902 10.5384C16.7781 10.6156 17.1345 10.8061 17.4142 11.0858C17.6939 11.3655 17.8844 11.7219 17.9616 12.1098C18.0387 12.4978 17.9991 12.8999 17.8478 13.2654C17.6964 13.6308 17.44 13.9432 17.1111 14.1629C16.7822 14.3827 16.3956 14.5 16 14.5C15.4696 14.5 14.9609 14.2893 14.5858 13.9142C14.2107 13.5391 14 13.0304 14 12.5ZM16 21.5C15.5056 21.5 15.0222 21.3534 14.6111 21.0787C14.2 20.804 13.8795 20.4135 13.6903 19.9567C13.5011 19.4999 13.4516 18.9972 13.548 18.5123C13.6445 18.0273 13.8826 17.5819 14.2322 17.2322C14.5819 16.8826 15.0273 16.6445 15.5123 16.548C15.9972 16.4516 16.4999 16.5011 16.9567 16.6903C17.4135 16.8795 17.804 17.2 18.0787 17.6111C18.3534 18.0222 18.5 18.5055 18.5 19C18.5 19.663 18.2366 20.2989 17.7678 20.7678C17.2989 21.2366 16.663 21.5 16 21.5Z" fill="#4A4A4F"/>
</svg>
