<svg width="32" height="32" viewBox="0 0 32 32" fill="none" xmlns="http://www.w3.org/2000/svg">
<path d="M13.5 11.5C13.5 11.0055 13.6466 10.5222 13.9213 10.1111C14.196 9.69995 14.5865 9.37952 15.0433 9.1903C15.5001 9.00108 16.0028 8.95157 16.4877 9.04804C16.9727 9.1445 17.4181 9.3826 17.7678 9.73223C18.1174 10.0819 18.3555 10.5273 18.452 11.0123C18.5484 11.4972 18.4989 11.9999 18.3097 12.4567C18.1205 12.9135 17.8 13.304 17.3889 13.5787C16.9778 13.8534 16.4945 14 16 14C15.337 14 14.7011 13.7366 14.2322 13.2678C13.7634 12.7989 13.5 12.163 13.5 11.5ZM16 16C15.3078 16 14.6311 16.2053 14.0555 16.5899C13.4799 16.9744 13.0313 17.5211 12.7664 18.1606C12.5015 18.8001 12.4322 19.5039 12.5673 20.1828C12.7023 20.8617 13.0356 21.4854 13.5251 21.9749C14.0146 22.4644 14.6383 22.7977 15.3172 22.9327C15.9961 23.0678 16.6999 22.9985 17.3394 22.7336C17.9789 22.4687 18.5256 22.0201 18.9101 21.4445C19.2947 20.8689 19.5 20.1922 19.5 19.5C19.5 18.5717 19.1313 17.6815 18.4749 17.0251C17.8185 16.3687 16.9283 16 16 16ZM27 5V27C27 27.5304 26.7893 28.0391 26.4142 28.4142C26.0391 28.7893 25.5304 29 25 29H7C6.46957 29 5.96086 28.7893 5.58579 28.4142C5.21071 28.0391 5 27.5304 5 27V5C5 4.46957 5.21071 3.96086 5.58579 3.58579C5.96086 3.21071 6.46957 3 7 3H25C25.5304 3 26.0391 3.21071 26.4142 3.58579C26.7893 3.96086 27 4.46957 27 5ZM21.5 19.5C21.4994 18.579 21.2676 17.6729 20.8258 16.8648C20.384 16.0567 19.7463 15.3725 18.9713 14.875C19.6582 14.2711 20.1447 13.4722 20.3662 12.5848C20.5876 11.6973 20.5333 10.7635 20.2106 9.90767C19.8879 9.05185 19.312 8.31469 18.5598 7.7944C17.8076 7.27411 16.9146 6.9954 16 6.9954C15.0854 6.9954 14.1924 7.27411 13.4402 7.7944C12.688 8.31469 12.1121 9.05185 11.7894 9.90767C11.4667 10.7635 11.4124 11.6973 11.6338 12.5848C11.8553 13.4722 12.3418 14.2711 13.0288 14.875C12.2254 15.3907 11.5702 16.1066 11.1274 16.9523C10.6846 17.7981 10.4696 18.7445 10.5035 19.6985C10.5373 20.6525 10.8189 21.5813 11.3205 22.3935C11.8222 23.2056 12.5265 23.8733 13.3644 24.3307C14.2023 24.7882 15.1448 25.0197 16.0993 25.0025C17.0537 24.9852 17.9873 24.7199 18.8081 24.2325C19.6289 23.7451 20.3087 23.0525 20.7807 22.2227C21.2527 21.3929 21.5006 20.4546 21.5 19.5Z" fill="#4A4A4F"/>
</svg>
