<svg width="32" height="32" viewBox="0 0 32 32" fill="none" xmlns="http://www.w3.org/2000/svg">
<path d="M18.1663 14.75C17.9191 15.1783 17.5506 15.5236 17.1072 15.7424C16.6638 15.9612 16.1655 16.0437 15.6753 15.9793C15.185 15.9149 14.7249 15.7066 14.3531 15.3807C13.9812 15.0548 13.7144 14.626 13.5863 14.1484C13.4581 13.6709 13.4745 13.166 13.6333 12.6978C13.792 12.2295 14.0861 11.8189 14.4782 11.5177C14.8704 11.2166 15.343 11.0385 15.8364 11.006C16.3298 10.9735 16.8217 11.088 17.25 11.335C17.824 11.6667 18.2427 12.2129 18.414 12.8533C18.5854 13.4937 18.4954 14.176 18.1637 14.75H18.1663ZM28 6V26C28 26.5304 27.7893 27.0391 27.4142 27.4142C27.0391 27.7893 26.5304 28 26 28H6C5.46957 28 4.96086 27.7893 4.58579 27.4142C4.21071 27.0391 4 26.5304 4 26V6C4 5.46957 4.21071 4.96086 4.58579 4.58579C4.96086 4.21071 5.46957 4 6 4H26C26.5304 4 27.0391 4.21071 27.4142 4.58579C27.7893 4.96086 28 5.46957 28 6ZM18.25 9.6025C17.6525 9.25767 16.9837 9.05484 16.2953 9.00966C15.6069 8.96449 14.9174 9.0782 14.28 9.34199C13.6425 9.60579 13.0743 10.0126 12.6191 10.531C12.1639 11.0494 11.8341 11.6655 11.655 12.3318C11.4759 12.998 11.4523 13.6964 11.5862 14.3732C11.7201 15.0499 12.0077 15.6869 12.427 16.2347C12.8462 16.7826 13.3858 17.2267 14.0041 17.5328C14.6223 17.8389 15.3026 17.9987 15.9925 18C16.0708 18 16.1496 17.9975 16.2288 17.9925L14.1412 21.4925C14.0734 21.6054 14.0284 21.7307 14.0091 21.861C13.9898 21.9913 13.9964 22.1242 14.0285 22.252C14.0607 22.3798 14.1178 22.4999 14.1966 22.6055C14.2754 22.7112 14.3742 22.8002 14.4875 22.8675C14.6004 22.9354 14.7257 22.9803 14.856 22.9996C14.9863 23.019 15.1192 23.0124 15.247 22.9802C15.3748 22.948 15.4949 22.8909 15.6005 22.8122C15.7062 22.7334 15.7952 22.6345 15.8625 22.5212L19.8975 15.75C20.4926 14.716 20.6534 13.4881 20.3446 12.3357C20.0357 11.1833 19.2825 10.2004 18.25 9.6025Z" fill="#4A4A4F"/>
</svg>
