<svg width="32" height="32" viewBox="0 0 32 32" fill="none" xmlns="http://www.w3.org/2000/svg">
<path d="M26 4H6C5.46957 4 4.96086 4.21071 4.58579 4.58579C4.21071 4.96086 4 5.46957 4 6V26C4 26.5304 4.21071 27.0391 4.58579 27.4142C4.96086 27.7893 5.46957 28 6 28H26C26.5304 28 27.0391 27.7893 27.4142 27.4142C27.7893 27.0391 28 26.5304 28 26V6C28 5.46957 27.7893 4.96086 27.4142 4.58579C27.0391 4.21071 26.5304 4 26 4ZM26 26H6V6H26V26ZM16 14C15.9237 14 15.8475 14 15.7725 14L17.8587 10.5125C17.9261 10.3997 17.9705 10.2748 17.9895 10.1449C18.0085 10.0149 18.0018 9.8825 17.9696 9.75516C17.9375 9.62783 17.8806 9.50808 17.8021 9.40274C17.7237 9.29741 17.6253 9.20855 17.5125 9.14125C17.3997 9.07395 17.2748 9.02952 17.1449 9.01049C17.0149 8.99147 16.8825 8.99823 16.7552 9.03038C16.6278 9.06253 16.5081 9.11945 16.4027 9.19788C16.2974 9.27632 16.2086 9.37473 16.1413 9.4875L12.1125 16.2375C11.6141 17.0944 11.4126 18.0919 11.5393 19.0751C11.666 20.0583 12.1138 20.9722 12.8132 21.6747C13.5125 22.3773 14.4243 22.8293 15.4069 22.9604C16.3895 23.0916 17.388 22.8946 18.2471 22.4001C19.1063 21.9056 19.7782 21.1412 20.1583 20.2257C20.5385 19.3102 20.6057 18.2947 20.3495 17.3371C20.0933 16.3794 19.5281 15.5332 18.7416 14.9297C17.9551 14.3263 16.9913 13.9995 16 14ZM16 21C15.5055 21 15.0222 20.8534 14.6111 20.5787C14.2 20.304 13.8795 19.9135 13.6903 19.4567C13.5011 18.9999 13.4516 18.4972 13.548 18.0123C13.6445 17.5273 13.8826 17.0819 14.2322 16.7322C14.5819 16.3826 15.0273 16.1445 15.5123 16.048C15.9972 15.9516 16.4999 16.0011 16.9567 16.1903C17.4135 16.3795 17.804 16.7 18.0787 17.1111C18.3534 17.5222 18.5 18.0055 18.5 18.5C18.5 19.163 18.2366 19.7989 17.7678 20.2678C17.2989 20.7366 16.663 21 16 21Z" fill="#4A4A4F"/>
</svg>
