<svg width="32" height="32" viewBox="0 0 32 32" fill="none" xmlns="http://www.w3.org/2000/svg">
<path d="M25 3H7C6.46957 3 5.96086 3.21071 5.58579 3.58579C5.21071 3.96086 5 4.46957 5 5V27C5 27.5304 5.21071 28.0391 5.58579 28.4142C5.96086 28.7893 6.46957 29 7 29H25C25.5304 29 26.0391 28.7893 26.4142 28.4142C26.7893 28.0391 27 27.5304 27 27V5C27 4.46957 26.7893 3.96086 26.4142 3.58579C26.0391 3.21071 25.5304 3 25 3ZM20.7875 16.2025L16.5775 23.5C16.4449 23.7297 16.2264 23.8974 15.9702 23.9661C15.714 24.0348 15.441 23.9989 15.2113 23.8662C14.9815 23.7336 14.8139 23.5152 14.7452 23.259C14.6765 23.0028 14.7124 22.7297 14.845 22.5L16.91 18.9237C16.6092 18.9739 16.3049 18.9994 16 19C14.7898 19.0014 13.6128 18.6041 12.6511 17.8694C11.6894 17.1348 10.9965 16.1038 10.6795 14.9358C10.3626 13.7679 10.4393 12.528 10.8977 11.408C11.3561 10.288 12.1707 9.35021 13.2156 8.73964C14.2605 8.12908 15.4774 7.87976 16.6782 8.03023C17.8791 8.18071 18.9968 8.7226 19.8588 9.57211C20.7207 10.4216 21.2787 11.5314 21.4466 12.7299C21.6145 13.9284 21.3828 15.1489 20.7875 16.2025ZM19.5 13.5C19.5 14.1922 19.2947 14.8689 18.9101 15.4445C18.5256 16.0201 17.9789 16.4687 17.3394 16.7336C16.6999 16.9985 15.9961 17.0678 15.3172 16.9327C14.6383 16.7977 14.0146 16.4644 13.5251 15.9749C13.0356 15.4854 12.7023 14.8617 12.5673 14.1828C12.4322 13.5039 12.5015 12.8001 12.7664 12.1606C13.0313 11.5211 13.4799 10.9744 14.0555 10.5899C14.6311 10.2053 15.3078 10 16 10C16.9283 10 17.8185 10.3687 18.4749 11.0251C19.1313 11.6815 19.5 12.5717 19.5 13.5Z" fill="#4A4A4F"/>
</svg>
