<svg width="32" height="32" viewBox="0 0 32 32" fill="none" xmlns="http://www.w3.org/2000/svg">
<path d="M25 3H7C6.46957 3 5.96086 3.21071 5.58579 3.58579C5.21071 3.96086 5 4.46957 5 5V27C5 27.5304 5.21071 28.0391 5.58579 28.4142C5.96086 28.7893 6.46957 29 7 29H25C25.5304 29 26.0391 28.7893 26.4142 28.4142C26.7893 28.0391 27 27.5304 27 27V5C27 4.46957 26.7893 3.96086 26.4142 3.58579C26.0391 3.21071 25.5304 3 25 3ZM18 23C18 23.2652 17.8946 23.5196 17.7071 23.7071C17.5196 23.8946 17.2652 24 17 24C16.7348 24 16.4804 23.8946 16.2929 23.7071C16.1054 23.5196 16 23.2652 16 23V10.6175L13.4475 11.895C13.33 11.9538 13.202 11.9888 13.0709 11.9981C12.9399 12.0074 12.8082 11.9908 12.6836 11.9493C12.5589 11.9077 12.4436 11.842 12.3444 11.7559C12.2451 11.6698 12.1638 11.565 12.105 11.4475C12.0462 11.33 12.0112 11.202 12.0019 11.0709C11.9926 10.9399 12.0092 10.8082 12.0507 10.6836C12.0923 10.5589 12.158 10.4436 12.2441 10.3444C12.3302 10.2451 12.435 10.1638 12.5525 10.105L16.5525 8.105C16.705 8.02868 16.8745 7.99264 17.0449 8.00029C17.2153 8.00795 17.3808 8.05905 17.5259 8.14874C17.671 8.23843 17.7907 8.36372 17.8736 8.51272C17.9566 8.66171 18.0001 8.82946 18 9V23Z" fill="#4A4A4F"/>
</svg>
