<svg width="32" height="32" viewBox="0 0 32 32" fill="none" xmlns="http://www.w3.org/2000/svg">
<path d="M16 3C13.4288 3 10.9154 3.76244 8.77759 5.1909C6.63975 6.61935 4.97351 8.64968 3.98957 11.0251C3.00563 13.4006 2.74819 16.0144 3.2498 18.5362C3.75141 21.0579 4.98953 23.3743 6.80762 25.1924C8.6257 27.0105 10.9421 28.2486 13.4638 28.7502C15.9856 29.2518 18.5995 28.9944 20.9749 28.0104C23.3503 27.0265 25.3807 25.3603 26.8091 23.2224C28.2376 21.0846 29 18.5712 29 16C28.9964 12.5533 27.6256 9.24882 25.1884 6.81163C22.7512 4.37445 19.4467 3.00364 16 3ZM16 27C13.8244 27 11.6977 26.3549 9.88873 25.1462C8.07979 23.9375 6.66989 22.2195 5.83733 20.2095C5.00477 18.1995 4.78693 15.9878 5.21137 13.854C5.63581 11.7202 6.68345 9.7602 8.22183 8.22183C9.76021 6.68345 11.7202 5.6358 13.854 5.21136C15.9878 4.78692 18.1995 5.00476 20.2095 5.83733C22.2195 6.66989 23.9375 8.07979 25.1462 9.88873C26.3549 11.6977 27 13.8244 27 16C26.9967 18.9164 25.8367 21.7123 23.7745 23.7745C21.7123 25.8367 18.9164 26.9967 16 27ZM19.195 15.4075L15 21H19C19.2652 21 19.5196 21.1054 19.7071 21.2929C19.8946 21.4804 20 21.7348 20 22C20 22.2652 19.8946 22.5196 19.7071 22.7071C19.5196 22.8946 19.2652 23 19 23H13C12.8143 23 12.6323 22.9483 12.4743 22.8507C12.3163 22.753 12.1886 22.6133 12.1056 22.4472C12.0225 22.2811 11.9874 22.0952 12.004 21.9102C12.0207 21.7252 12.0886 21.5486 12.2 21.4L17.5963 14.205C17.769 13.9747 17.8901 13.7099 17.9511 13.4285C18.0121 13.1472 18.0117 12.856 17.9498 12.5748C17.888 12.2937 17.7661 12.0292 17.5927 11.7994C17.4192 11.5697 17.1981 11.3801 16.9447 11.2436C16.6912 11.1072 16.4112 11.027 16.1239 11.0087C15.8366 10.9903 15.5488 11.0342 15.28 11.1374C15.0112 11.2405 14.7679 11.4005 14.5666 11.6063C14.3653 11.8121 14.2109 12.059 14.1138 12.33C14.0252 12.5801 13.841 12.7849 13.6015 12.8991C13.3621 13.0134 13.087 13.0279 12.8369 12.9394C12.5867 12.8509 12.382 12.6666 12.2677 12.4271C12.1535 12.1877 12.139 11.9126 12.2275 11.6625C12.4204 11.1194 12.7284 10.6245 13.1304 10.2115C13.5323 9.79849 14.0188 9.47724 14.5564 9.26972C15.0941 9.0622 15.6703 8.97331 16.2454 9.00914C16.8206 9.04497 17.3813 9.20467 17.8891 9.47731C18.3968 9.74994 18.8396 10.1291 19.1872 10.5888C19.5349 11.0484 19.779 11.5778 19.9031 12.1406C20.0271 12.7034 20.028 13.2864 19.9058 13.8496C19.7836 14.4128 19.5411 14.943 19.195 15.4038V15.4075Z" fill="#4A4A4F"/>
</svg>
