<svg width="32" height="32" viewBox="0 0 32 32" fill="none" xmlns="http://www.w3.org/2000/svg">
<path d="M25 3H7C6.46957 3 5.96086 3.21071 5.58579 3.58579C5.21071 3.96086 5 4.46957 5 5V27C5 27.5304 5.21071 28.0391 5.58579 28.4142C5.96086 28.7893 6.46957 29 7 29H25C25.5304 29 26.0391 28.7893 26.4142 28.4142C26.7893 28.0391 27 27.5304 27 27V5C27 4.46957 26.7893 3.96086 26.4142 3.58579C26.0391 3.21071 25.5304 3 25 3ZM16 24C15.0394 23.9995 14.0957 23.7475 13.2628 23.2689C12.4299 22.7904 11.7369 22.1021 11.2526 21.2725C10.7684 20.4429 10.5099 19.5009 10.5029 18.5403C10.4959 17.5798 10.7405 16.6341 11.2125 15.7975L15.4225 8.5C15.5551 8.27026 15.7736 8.1026 16.0298 8.03392C16.286 7.96523 16.559 8.00114 16.7887 8.13375C17.0185 8.26636 17.1861 8.4848 17.2548 8.74102C17.3235 8.99724 17.2876 9.27026 17.155 9.5L15.09 13.0763C15.3908 13.0261 15.6951 13.0006 16 13C17.4587 13 18.8576 13.5795 19.8891 14.6109C20.9205 15.6424 21.5 17.0413 21.5 18.5C21.5 19.9587 20.9205 21.3576 19.8891 22.3891C18.8576 23.4205 17.4587 24 16 24ZM19.5 18.5C19.5 19.1922 19.2947 19.8689 18.9101 20.4445C18.5256 21.0201 17.9789 21.4687 17.3394 21.7336C16.6999 21.9985 15.9961 22.0678 15.3172 21.9327C14.6383 21.7977 14.0146 21.4644 13.5251 20.9749C13.0356 20.4854 12.7023 19.8617 12.5673 19.1828C12.4322 18.5039 12.5015 17.8001 12.7664 17.1606C13.0313 16.5211 13.4799 15.9744 14.0555 15.5899C14.6311 15.2053 15.3078 15 16 15C16.9283 15 17.8185 15.3687 18.4749 16.0251C19.1313 16.6815 19.5 17.5717 19.5 18.5Z" fill="#4A4A4F"/>
</svg>
