<svg width="32" height="32" viewBox="0 0 32 32" fill="none" xmlns="http://www.w3.org/2000/svg">
<path d="M19.71 11.0487C20.5425 12.315 21 14.0737 21 16C21 17.9263 20.5425 19.6838 19.71 20.9513C18.8187 22.3113 17.57 23 16 23C14.43 23 13.1812 22.3113 12.29 20.9513C11.4575 19.6838 11 17.9263 11 16C11 14.0737 11.4575 12.315 12.29 11.0487C13.1812 9.68875 14.43 9 16 9C17.57 9 18.8187 9.68875 19.71 11.0487ZM27 5V27C27 27.5304 26.7893 28.0391 26.4142 28.4142C26.0391 28.7893 25.5304 29 25 29H7C6.46957 29 5.96086 28.7893 5.58579 28.4142C5.21071 28.0391 5 27.5304 5 27V5C5 4.46957 5.21071 3.96086 5.58579 3.58579C5.96086 3.21071 6.46957 3 7 3H25C25.5304 3 26.0391 3.21071 26.4142 3.58579C26.7893 3.96086 27 4.46957 27 5ZM23 16C23 13.6888 22.425 11.54 21.3825 9.95125C20.115 8.02 18.25 7 16 7C13.75 7 11.885 8.02 10.6175 9.95125C9.575 11.54 9 13.6888 9 16C9 18.3112 9.575 20.46 10.6175 22.0487C11.885 23.98 13.75 25 16 25C18.25 25 20.115 23.98 21.3825 22.0487C22.425 20.46 23 18.3112 23 16Z" fill="#4A4A4F"/>
</svg>
