<svg width="32" height="32" viewBox="0 0 32 32" fill="none" xmlns="http://www.w3.org/2000/svg">
<path d="M26 4H6C5.46957 4 4.96086 4.21071 4.58579 4.58579C4.21071 4.96086 4 5.46957 4 6V26C4 26.5304 4.21071 27.0391 4.58579 27.4142C4.96086 27.7893 5.46957 28 6 28H26C26.5304 28 27.0391 27.7893 27.4142 27.4142C27.7893 27.0391 28 26.5304 28 26V6C28 5.46957 27.7893 4.96086 27.4142 4.58579C27.0391 4.21071 26.5304 4 26 4ZM26 26H6V6H26V26ZM18.7262 15.4237C19.314 14.8763 19.7234 14.1646 19.901 13.3812C20.0786 12.5979 20.0163 11.7792 19.7221 11.0318C19.4279 10.2844 18.9156 9.64284 18.2517 9.19069C17.5878 8.73853 16.8032 8.49671 16 8.49671C15.1968 8.49671 14.4122 8.73853 13.7483 9.19069C13.0844 9.64284 12.5721 10.2844 12.2779 11.0318C11.9837 11.7792 11.9214 12.5979 12.099 13.3812C12.2766 14.1646 12.686 14.8763 13.2738 15.4237C12.5246 15.9942 11.9732 16.7854 11.6974 17.6857C11.4216 18.5861 11.4351 19.5503 11.7362 20.4425C12.0372 21.3348 12.6106 22.1101 13.3755 22.6593C14.1404 23.2085 15.0583 23.5039 16 23.5039C16.9417 23.5039 17.8596 23.2085 18.6245 22.6593C19.3894 22.1101 19.9628 21.3348 20.2638 20.4425C20.5649 19.5503 20.5784 18.5861 20.3026 17.6857C20.0268 16.7854 19.4754 15.9942 18.7262 15.4237ZM14 12.5C14 12.1044 14.1173 11.7178 14.3371 11.3889C14.5568 11.06 14.8692 10.8036 15.2346 10.6522C15.6001 10.5009 16.0022 10.4613 16.3902 10.5384C16.7781 10.6156 17.1345 10.8061 17.4142 11.0858C17.6939 11.3655 17.8844 11.7219 17.9616 12.1098C18.0387 12.4978 17.9991 12.8999 17.8478 13.2654C17.6964 13.6308 17.44 13.9432 17.1111 14.1629C16.7822 14.3827 16.3956 14.5 16 14.5C15.4696 14.5 14.9609 14.2893 14.5858 13.9142C14.2107 13.5391 14 13.0304 14 12.5ZM16 21.5C15.5055 21.5 15.0222 21.3534 14.6111 21.0787C14.2 20.804 13.8795 20.4135 13.6903 19.9567C13.5011 19.4999 13.4516 18.9972 13.548 18.5123C13.6445 18.0273 13.8826 17.5819 14.2322 17.2322C14.5819 16.8826 15.0273 16.6445 15.5123 16.548C15.9972 16.4516 16.4999 16.5011 16.9567 16.6903C17.4135 16.8795 17.804 17.2 18.0787 17.6111C18.3534 18.0222 18.5 18.5055 18.5 19C18.5 19.663 18.2366 20.2989 17.7678 20.7678C17.2989 21.2366 16.663 21.5 16 21.5Z" fill="#4A4A4F"/>
</svg>
