<svg width="32" height="32" viewBox="0 0 32 32" fill="none" xmlns="http://www.w3.org/2000/svg">
<path d="M22.0001 20C22.0001 21.3512 21.6089 22.6735 20.8739 23.8074C20.1389 24.9412 19.0915 25.838 17.858 26.3897C16.6245 26.9413 15.2577 27.1242 13.9226 26.9162C12.5875 26.7082 11.3411 26.1182 10.3339 25.2175C10.2311 25.1315 10.1466 25.0256 10.0855 24.9062C10.0243 24.7869 9.98787 24.6564 9.97819 24.5227C9.96852 24.3889 9.98584 24.2546 10.0291 24.1277C10.0724 24.0008 10.1408 23.8839 10.2302 23.7839C10.3196 23.684 10.4282 23.603 10.5495 23.5459C10.6708 23.4887 10.8023 23.4566 10.9363 23.4513C11.0703 23.446 11.204 23.4678 11.3294 23.5152C11.4548 23.5627 11.5694 23.6349 11.6664 23.7275C12.2705 24.2676 12.9969 24.6528 13.783 24.8499C14.569 25.047 15.3912 25.05 16.1787 24.8588C16.9662 24.6676 17.6954 24.2878 18.3036 23.7522C18.9117 23.2166 19.3806 22.5412 19.6698 21.7842C19.9589 21.0271 20.0598 20.2112 19.9636 19.4065C19.8674 18.6018 19.5771 17.8326 19.1176 17.1651C18.6581 16.4976 18.0433 15.9517 17.326 15.5745C16.6087 15.1974 15.8105 15.0002 15.0001 15C14.8144 15 14.6324 14.9483 14.4744 14.8507C14.3164 14.753 14.1888 14.6133 14.1057 14.4472C14.0227 14.2811 13.9875 14.0952 14.0042 13.9102C14.0209 13.7252 14.0887 13.5486 14.2001 13.4L19.0001 7H11.0001C10.7349 7 10.4806 6.89464 10.293 6.70711C10.1055 6.51957 10.0001 6.26522 10.0001 6C10.0001 5.73478 10.1055 5.48043 10.293 5.29289C10.4806 5.10536 10.7349 5 11.0001 5H21.0001C21.1859 5 21.3679 5.05171 21.5259 5.14935C21.6839 5.24698 21.8115 5.38668 21.8946 5.55279C21.9776 5.71889 22.0128 5.90484 21.9961 6.08981C21.9794 6.27477 21.9116 6.45143 21.8001 6.6L16.8201 13.24C18.3057 13.6422 19.6178 14.5219 20.5539 15.7436C21.49 16.9652 21.9982 18.4609 22.0001 20Z" fill="#4A4A4F"/>
</svg>
