<svg width="32" height="32" viewBox="0 0 32 32" fill="none" xmlns="http://www.w3.org/2000/svg">
<path d="M23 19.0002C23 19.2655 22.8946 19.5198 22.7071 19.7073C22.5195 19.8949 22.2652 20.0002 22 20.0002H20V26.0002C20 26.2655 19.8946 26.5198 19.7071 26.7073C19.5195 26.8949 19.2652 27.0002 19 27.0002C18.7347 27.0002 18.4804 26.8949 18.2929 26.7073C18.1053 26.5198 18 26.2655 18 26.0002V20.0002H8.99997C8.83977 20.0002 8.68193 19.9616 8.53975 19.8878C8.39757 19.814 8.2752 19.7071 8.18295 19.5761C8.0907 19.4451 8.03126 19.2939 8.00964 19.1352C7.98802 18.9765 8.00485 18.8149 8.05872 18.664L13.0587 4.66399C13.1537 4.42221 13.3391 4.2269 13.5756 4.11941C13.8121 4.01191 14.0812 4.00068 14.3258 4.08807C14.5705 4.17547 14.7715 4.35464 14.8864 4.58765C15.0012 4.82066 15.0209 5.08923 14.9412 5.33649L10.4187 18.0002H18V12.0002C18 11.735 18.1053 11.4807 18.2929 11.2931C18.4804 11.1056 18.7347 11.0002 19 11.0002C19.2652 11.0002 19.5195 11.1056 19.7071 11.2931C19.8946 11.4807 20 11.735 20 12.0002V18.0002H22C22.2652 18.0002 22.5195 18.1056 22.7071 18.2931C22.8946 18.4807 23 18.735 23 19.0002Z" fill="#4A4A4F"/>
</svg>
