<svg width="32" height="32" viewBox="0 0 32 32" fill="none" xmlns="http://www.w3.org/2000/svg">
<path d="M22 26C22 26.2652 21.8946 26.5196 21.7071 26.7071C21.5196 26.8946 21.2652 27 21 27H11C10.8143 27 10.6322 26.9483 10.4743 26.8507C10.3163 26.753 10.1886 26.6133 10.1056 26.4472C10.0225 26.2811 9.98736 26.0952 10.004 25.9102C10.0207 25.7252 10.0886 25.5486 10.2 25.4L19.1925 13.41C19.5134 12.991 19.7482 12.5126 19.8834 12.0023C20.0185 11.4921 20.0514 10.9602 19.98 10.4373C19.9087 9.91431 19.7346 9.41064 19.4677 8.95529C19.2008 8.49994 18.8464 8.10192 18.425 7.78415C18.0035 7.46639 17.5234 7.23517 17.0122 7.10383C16.501 6.97248 15.9688 6.94361 15.4464 7.01886C14.924 7.09412 14.4217 7.27203 13.9683 7.54232C13.515 7.81262 13.1196 8.16996 12.805 8.59375C12.6169 8.84383 12.4584 9.11479 12.3325 9.40125C12.2262 9.64426 12.0278 9.8351 11.7809 9.9318C11.5339 10.0285 11.2586 10.0231 11.0156 9.91688C10.7726 9.81063 10.5818 9.61219 10.4851 9.36523C10.3884 9.11827 10.3937 8.84301 10.5 8.60001C10.839 7.8239 11.3386 7.12836 11.9657 6.55915C12.5928 5.98993 13.3333 5.55993 14.1386 5.29743C14.9438 5.03492 15.7955 4.94587 16.6376 5.03611C17.4797 5.12636 18.2932 5.39387 19.0245 5.82104C19.7558 6.24821 20.3884 6.82536 20.8807 7.51454C21.3729 8.20372 21.7137 8.98931 21.8806 9.81964C22.0475 10.65 22.0367 11.5062 21.8489 12.3321C21.6612 13.1579 21.3007 13.9347 20.7913 14.6113L13 25H21C21.2652 25 21.5196 25.1054 21.7071 25.2929C21.8946 25.4804 22 25.7348 22 26Z" fill="#4A4A4F"/>
</svg>
