<svg width="32" height="32" viewBox="0 0 32 32" fill="none" xmlns="http://www.w3.org/2000/svg">
<path d="M26 4H6C5.46957 4 4.96086 4.21071 4.58579 4.58579C4.21071 4.96086 4 5.46957 4 6V26C4 26.5304 4.21071 27.0391 4.58579 27.4142C4.96086 27.7893 5.46957 28 6 28H26C26.5304 28 27.0391 27.7893 27.4142 27.4142C27.7893 27.0391 28 26.5304 28 26V6C28 5.46957 27.7893 4.96086 27.4142 4.58579C27.0391 4.21071 26.5304 4 26 4ZM26 26H6V6H26V26ZM14.8475 11L14.3237 14.1425C14.7085 14.0471 15.1036 13.9992 15.5 14C16.6935 14 17.8381 14.4741 18.682 15.318C19.5259 16.1619 20 17.3065 20 18.5C20 19.6935 19.5259 20.8381 18.682 21.682C17.8381 22.5259 16.6935 23 15.5 23C14.9045 23.0098 14.3132 22.8997 13.7611 22.6764C13.209 22.4531 12.7074 22.121 12.2863 21.7C12.1907 21.6071 12.1146 21.4959 12.0626 21.3732C12.0106 21.2504 11.9837 21.1185 11.9834 20.9852C11.9831 20.8519 12.0095 20.7199 12.061 20.5969C12.1125 20.4739 12.188 20.3625 12.2832 20.2691C12.3784 20.1758 12.4913 20.1024 12.6152 20.0533C12.7392 20.0043 12.8717 19.9804 13.005 19.9833C13.1383 19.9862 13.2696 20.0157 13.3913 20.0701C13.5131 20.1245 13.6227 20.2026 13.7137 20.3C13.9496 20.5301 14.2292 20.7106 14.536 20.8308C14.8428 20.951 15.1706 21.0086 15.5 21C16.163 21 16.7989 20.7366 17.2678 20.2678C17.7366 19.7989 18 19.163 18 18.5C18 17.837 17.7366 17.2011 17.2678 16.7322C16.7989 16.2634 16.163 16 15.5 16C15.1706 15.9914 14.8428 16.049 14.536 16.1692C14.2292 16.2894 13.9496 16.4699 13.7137 16.7C13.5648 16.8518 13.3713 16.9521 13.1614 16.9864C12.9515 17.0207 12.7362 16.9872 12.5466 16.8907C12.3571 16.7943 12.2032 16.6399 12.1074 16.4501C12.0116 16.2602 11.9788 16.0448 12.0138 15.835L13.0138 9.835C13.0528 9.60164 13.1733 9.38968 13.3539 9.2368C13.5345 9.08391 13.7634 9.00001 14 9H19C19.2652 9 19.5196 9.10536 19.7071 9.29289C19.8946 9.48043 20 9.73478 20 10C20 10.2652 19.8946 10.5196 19.7071 10.7071C19.5196 10.8946 19.2652 11 19 11H14.8475Z" fill="#4A4A4F"/>
</svg>
