<svg width="32" height="32" viewBox="0 0 32 32" fill="none" xmlns="http://www.w3.org/2000/svg">
<path d="M16 3C13.4288 3 10.9154 3.76244 8.77759 5.1909C6.63975 6.61935 4.97351 8.64968 3.98957 11.0251C3.00563 13.4006 2.74819 16.0144 3.2498 18.5362C3.75141 21.0579 4.98953 23.3743 6.80762 25.1924C8.6257 27.0105 10.9421 28.2486 13.4638 28.7502C15.9856 29.2518 18.5995 28.9944 20.9749 28.0104C23.3503 27.0265 25.3807 25.3603 26.8091 23.2224C28.2376 21.0846 29 18.5712 29 16C28.9964 12.5533 27.6256 9.24882 25.1884 6.81163C22.7512 4.37445 19.4467 3.00364 16 3ZM16 27C13.8244 27 11.6977 26.3549 9.88873 25.1462C8.07979 23.9375 6.66989 22.2195 5.83733 20.2095C5.00477 18.1995 4.78693 15.9878 5.21137 13.854C5.63581 11.7202 6.68345 9.7602 8.22183 8.22183C9.76021 6.68345 11.7202 5.6358 13.854 5.21136C15.9878 4.78692 18.1995 5.00476 20.2095 5.83733C22.2195 6.66989 23.9375 8.07979 25.1462 9.88873C26.3549 11.6977 27 13.8244 27 16C26.9967 18.9164 25.8367 21.7123 23.7745 23.7745C21.7123 25.8367 18.9164 26.9967 16 27ZM19.8188 10.4263C19.9116 10.5575 19.9714 10.7092 19.9932 10.8685C20.015 11.0277 19.998 11.1899 19.9438 11.3413L15.9438 22.3412C15.8735 22.5349 15.7451 22.7021 15.5761 22.82C15.4072 22.9379 15.206 23.0008 15 23C14.8836 23.0003 14.7681 22.98 14.6588 22.94C14.5353 22.8952 14.4219 22.8265 14.325 22.7379C14.2281 22.6492 14.1496 22.5424 14.094 22.4234C14.0384 22.3044 14.0068 22.1756 14.001 22.0445C13.9951 21.9133 14.0152 21.7822 14.06 21.6588L17.5725 12H13C12.7348 12 12.4804 11.8946 12.2929 11.7071C12.1054 11.5196 12 11.2652 12 11C12 10.7348 12.1054 10.4804 12.2929 10.2929C12.4804 10.1054 12.7348 10 13 10H19C19.1607 10 19.319 10.0388 19.4615 10.113C19.604 10.1872 19.7266 10.2947 19.8188 10.4263Z" fill="#4A4A4F"/>
</svg>
