<svg width="32" height="32" viewBox="0 0 32 32" fill="none" xmlns="http://www.w3.org/2000/svg">
<path d="M25 3H7C6.46957 3 5.96086 3.21071 5.58579 3.58579C5.21071 3.96086 5 4.46957 5 5V27C5 27.5304 5.21071 28.0391 5.58579 28.4142C5.96086 28.7893 6.46957 29 7 29H25C25.5304 29 26.0391 28.7893 26.4142 28.4142C26.7893 28.0391 27 27.5304 27 27V5C27 4.46957 26.7893 3.96086 26.4142 3.58579C26.0391 3.21071 25.5304 3 25 3ZM15.5 24C14.6796 24.0014 13.8694 23.8186 13.129 23.465C12.3887 23.1115 11.7372 22.5964 11.2225 21.9575C11.0598 21.7509 10.985 21.4885 11.0144 21.2272C11.0437 20.9659 11.1748 20.7266 11.3793 20.5612C11.5838 20.3959 11.8452 20.3177 12.1069 20.3437C12.3686 20.3697 12.6095 20.4977 12.7775 20.7C13.1425 21.1515 13.6141 21.5052 14.1498 21.7291C14.6855 21.953 15.2685 22.0401 15.8462 21.9825C16.424 21.925 16.9783 21.7247 17.4594 21.3996C17.9404 21.0744 18.333 20.6347 18.6018 20.1201C18.8706 19.6055 19.0071 19.032 18.9991 18.4515C18.9911 17.8709 18.8388 17.3015 18.5559 16.7945C18.273 16.2874 17.8684 15.8588 17.3786 15.547C16.8888 15.2353 16.3291 15.0503 15.75 15.0087C15.5664 14.9957 15.39 14.9323 15.2402 14.8254C15.0904 14.7186 14.973 14.5724 14.9008 14.4031C14.8287 14.2338 14.8047 14.0479 14.8315 13.8659C14.8582 13.6838 14.9347 13.5126 15.0525 13.3713L17.8625 9.99625H12C11.7348 9.99625 11.4804 9.89089 11.2929 9.70336C11.1054 9.51582 11 9.26147 11 8.99625C11 8.73103 11.1054 8.47668 11.2929 8.28914C11.4804 8.10161 11.7348 7.99625 12 7.99625H20C20.1901 7.99618 20.3762 8.05028 20.5367 8.15222C20.6971 8.25416 20.8252 8.39971 20.9058 8.57182C20.9865 8.74392 21.0165 8.93546 20.9922 9.12398C20.9679 9.3125 20.8904 9.4902 20.7687 9.63625L17.615 13.42C18.7906 13.9078 19.7606 14.7882 20.3596 15.9112C20.9587 17.0341 21.1498 18.3301 20.9003 19.5782C20.6508 20.8262 19.9762 21.9491 18.9914 22.7555C18.0067 23.5618 16.7728 24.0016 15.5 24Z" fill="#4A4A4F"/>
</svg>
