<svg width="32" height="32" viewBox="0 0 32 32" fill="none" xmlns="http://www.w3.org/2000/svg">
<path d="M19.5 16C19.5 17.8575 18.7625 21 16 21C13.2375 21 12.5 17.8575 12.5 16C12.5 14.1425 13.2375 11 16 11C18.7625 11 19.5 14.1425 19.5 16ZM28 6V26C28 26.5304 27.7893 27.0391 27.4142 27.4142C27.0391 27.7893 26.5304 28 26 28H6C5.46957 28 4.96086 27.7893 4.58579 27.4142C4.21071 27.0391 4 26.5304 4 26V6C4 5.46957 4.21071 4.96086 4.58579 4.58579C4.96086 4.21071 5.46957 4 6 4H26C26.5304 4 27.0391 4.21071 27.4142 4.58579C27.7893 4.96086 28 5.46957 28 6ZM21.5 16C21.5 14.2188 21.055 12.5588 20.25 11.3263C19.25 9.805 17.7787 9 16 9C14.2213 9 12.75 9.805 11.75 11.3263C10.9412 12.5588 10.5 14.2188 10.5 16C10.5 17.7812 10.945 19.4412 11.75 20.6737C12.75 22.195 14.2175 23 16 23C17.7825 23 19.25 22.195 20.25 20.6737C21.055 19.4412 21.5 17.7812 21.5 16Z" fill="#4A4A4F"/>
</svg>
