<svg width="32" height="32" viewBox="0 0 32 32" fill="none" xmlns="http://www.w3.org/2000/svg">
<path d="M26 4H6C5.46957 4 4.96086 4.21071 4.58579 4.58579C4.21071 4.96086 4 5.46957 4 6V26C4 26.5304 4.21071 27.0391 4.58579 27.4142C4.96086 27.7893 5.46957 28 6 28H26C26.5304 28 27.0391 27.7893 27.4142 27.4142C27.7893 27.0391 28 26.5304 28 26V6C28 5.46957 27.7893 4.96086 27.4142 4.58579C27.0391 4.21071 26.5304 4 26 4ZM19.94 11.3413L15.94 22.3412C15.8699 22.5343 15.7421 22.7011 15.5739 22.8189C15.4058 22.9368 15.2054 23 15 23C14.8836 23.0003 14.7681 22.98 14.6587 22.94C14.5353 22.8952 14.4219 22.8265 14.325 22.7379C14.2281 22.6492 14.1496 22.5424 14.094 22.4234C14.0384 22.3044 14.0068 22.1756 14.001 22.0445C13.9951 21.9133 14.0152 21.7822 14.06 21.6588L17.5725 12H13C12.7348 12 12.4804 11.8946 12.2929 11.7071C12.1054 11.5196 12 11.2652 12 11C12 10.7348 12.1054 10.4804 12.2929 10.2929C12.4804 10.1054 12.7348 10 13 10H19C19.1607 10 19.319 10.0387 19.4616 10.1129C19.6041 10.1871 19.7267 10.2945 19.8189 10.4261C19.9112 10.5577 19.9703 10.7096 19.9914 10.8689C20.0125 11.0282 19.9948 11.1902 19.94 11.3413Z" fill="#4A4A4F"/>
</svg>
