<svg width="32" height="32" viewBox="0 0 32 32" fill="none" xmlns="http://www.w3.org/2000/svg">
<path d="M16 3C13.4288 3 10.9154 3.76244 8.77759 5.1909C6.63975 6.61935 4.97351 8.64968 3.98957 11.0251C3.00563 13.4006 2.74819 16.0144 3.2498 18.5362C3.75141 21.0579 4.98953 23.3743 6.80762 25.1924C8.6257 27.0105 10.9421 28.2486 13.4638 28.7502C15.9856 29.2518 18.5995 28.9944 20.9749 28.0104C23.3503 27.0265 25.3807 25.3603 26.8091 23.2224C28.2376 21.0846 29 18.5712 29 16C28.9964 12.5533 27.6256 9.24882 25.1884 6.81163C22.7512 4.37445 19.4467 3.00364 16 3ZM17.5 22C17.5 22.2652 17.3946 22.5196 17.2071 22.7071C17.0196 22.8946 16.7652 23 16.5 23C16.2348 23 15.9804 22.8946 15.7929 22.7071C15.6054 22.5196 15.5 22.2652 15.5 22V11.875L14.055 12.8387C13.9457 12.9116 13.8231 12.9623 13.6942 12.9878C13.5653 13.0133 13.4326 13.0131 13.3038 12.9874C13.1749 12.9616 13.0524 12.9107 12.9433 12.8376C12.8341 12.7645 12.7404 12.6706 12.6675 12.5612C12.5946 12.4519 12.544 12.3293 12.5185 12.2004C12.493 12.0715 12.4931 11.9389 12.5189 11.81C12.5447 11.6812 12.5956 11.5587 12.6687 11.4495C12.7418 11.3403 12.8357 11.2466 12.945 11.1737L15.945 9.17375C16.0952 9.07354 16.2697 9.01586 16.4501 9.00684C16.6304 8.99782 16.8098 9.03779 16.9692 9.12251C17.1287 9.20723 17.2622 9.33354 17.3557 9.48804C17.4491 9.64253 17.499 9.81945 17.5 10V22Z" fill="#4A4A4F"/>
</svg>
