<svg width="32" height="32" viewBox="0 0 32 32" fill="none" xmlns="http://www.w3.org/2000/svg">
<path d="M25 3H7C6.46957 3 5.96086 3.21071 5.58579 3.58579C5.21071 3.96086 5 4.46957 5 5V27C5 27.5304 5.21071 28.0391 5.58579 28.4142C5.96086 28.7893 6.46957 29 7 29H25C25.5304 29 26.0391 28.7893 26.4142 28.4142C26.7893 28.0391 27 27.5304 27 27V5C27 4.46957 26.7893 3.96086 26.4142 3.58579C26.0391 3.21071 25.5304 3 25 3ZM21 19H20V23C20 23.2652 19.8946 23.5196 19.7071 23.7071C19.5196 23.8946 19.2652 24 19 24C18.7348 24 18.4804 23.8946 18.2929 23.7071C18.1054 23.5196 18 23.2652 18 23V19H11C10.8361 19.0003 10.6747 18.9603 10.5299 18.8835C10.3851 18.8067 10.2613 18.6955 10.1696 18.5597C10.0779 18.4239 10.0209 18.2676 10.0038 18.1046C9.98661 17.9416 10.0098 17.7769 10.0712 17.625L14.0712 7.625C14.1707 7.37868 14.3639 7.18196 14.6084 7.07811C14.8529 6.97426 15.1287 6.97179 15.375 7.07125C15.6213 7.17071 15.818 7.36394 15.9219 7.60844C16.0257 7.85294 16.0282 8.12868 15.9288 8.375L12.4775 17H18V13C18 12.7348 18.1054 12.4804 18.2929 12.2929C18.4804 12.1054 18.7348 12 19 12C19.2652 12 19.5196 12.1054 19.7071 12.2929C19.8946 12.4804 20 12.7348 20 13V17H21C21.2652 17 21.5196 17.1054 21.7071 17.2929C21.8946 17.4804 22 17.7348 22 18C22 18.2652 21.8946 18.5196 21.7071 18.7071C21.5196 18.8946 21.2652 19 21 19Z" fill="#4A4A4F"/>
</svg>
