<svg width="32" height="32" viewBox="0 0 32 32" fill="none" xmlns="http://www.w3.org/2000/svg">
<path d="M25 3H7C6.46957 3 5.96086 3.21071 5.58579 3.58579C5.21071 3.96086 5 4.46957 5 5V27C5 27.5304 5.21071 28.0391 5.58579 28.4142C5.96086 28.7893 6.46957 29 7 29H25C25.5304 29 26.0391 28.7893 26.4142 28.4142C26.7893 28.0391 27 27.5304 27 27V5C27 4.46957 26.7893 3.96086 26.4142 3.58579C26.0391 3.21071 25.5304 3 25 3ZM20 22C20.2652 22 20.5196 22.1054 20.7071 22.2929C20.8946 22.4804 21 22.7348 21 23C21 23.2652 20.8946 23.5196 20.7071 23.7071C20.5196 23.8946 20.2652 24 20 24H12C11.8043 24 11.6128 23.9425 11.4494 23.8348C11.286 23.727 11.1579 23.5736 11.0808 23.3937C11.0038 23.2137 10.9812 23.0151 11.0159 22.8225C11.0507 22.6299 11.1412 22.4517 11.2762 22.31L18.2375 15C18.7326 14.4027 18.9771 13.6369 18.9196 12.8632C18.8622 12.0896 18.5072 11.3682 17.9293 10.8507C17.3514 10.3331 16.5955 10.0595 15.8202 10.0874C15.0449 10.1152 14.3105 10.4423 13.7712 11C13.6184 11.1665 13.4854 11.3503 13.375 11.5475C13.2462 11.7796 13.0305 11.951 12.7753 12.024C12.5202 12.097 12.2464 12.0657 12.0144 11.9369C11.7823 11.8081 11.6109 11.5924 11.5379 11.3372C11.4649 11.082 11.4962 10.8083 11.625 10.5763C11.8095 10.2448 12.0309 9.93537 12.285 9.65375C13.1725 8.66831 14.4151 8.07577 15.7394 8.0065C17.0638 7.93723 18.3614 8.39689 19.3469 9.28438C20.3323 10.1719 20.9249 11.4145 20.9941 12.7388C21.0634 14.0632 20.6037 15.3608 19.7162 16.3463L19.6963 16.3662L14.3325 22H20Z" fill="#4A4A4F"/>
</svg>
