<svg width="32" height="32" viewBox="0 0 32 32" fill="none" xmlns="http://www.w3.org/2000/svg">
<path d="M25 3H7C6.46957 3 5.96086 3.21071 5.58579 3.58579C5.21071 3.96086 5 4.46957 5 5V27C5 27.5304 5.21071 28.0391 5.58579 28.4142C5.96086 28.7893 6.46957 29 7 29H25C25.5304 29 26.0391 28.7893 26.4142 28.4142C26.7893 28.0391 27 27.5304 27 27V5C27 4.46957 26.7893 3.96086 26.4142 3.58579C26.0391 3.21071 25.5304 3 25 3ZM15.5 13C16.4291 13 17.343 13.2354 18.1564 13.6841C18.9699 14.1329 19.6565 14.7804 20.1521 15.5662C20.6476 16.3521 20.936 17.2507 20.9904 18.1781C21.0448 19.1056 20.8633 20.0317 20.463 20.8701C20.0626 21.7084 19.4564 22.4317 18.701 22.9725C17.9455 23.5132 17.0653 23.8537 16.1427 23.9623C15.22 24.0709 14.2848 23.944 13.4244 23.5934C12.5641 23.2428 11.8065 22.68 11.2225 21.9575C11.0598 21.7509 10.985 21.4885 11.0144 21.2272C11.0437 20.9659 11.1748 20.7266 11.3793 20.5612C11.5838 20.3959 11.8452 20.3177 12.1069 20.3437C12.3686 20.3697 12.6095 20.4977 12.7775 20.7C13.2306 21.2607 13.8457 21.6678 14.5389 21.8658C15.232 22.0637 15.9694 22.0428 16.6502 21.8058C17.331 21.5689 17.9221 21.1276 18.3426 20.5421C18.7631 19.9566 18.9926 19.2555 18.9997 18.5347C19.0068 17.8138 18.7911 17.1084 18.3822 16.5148C17.9732 15.9211 17.391 15.4682 16.7149 15.218C16.0389 14.9677 15.3021 14.9323 14.6052 15.1166C13.9083 15.3008 13.2852 15.6958 12.8212 16.2475C12.6807 16.4114 12.4909 16.5255 12.2802 16.5726C12.0695 16.6197 11.8492 16.5973 11.6522 16.5088C11.4553 16.4203 11.2922 16.2705 11.1875 16.0816C11.0828 15.8928 11.042 15.6752 11.0712 15.4613L12.015 8.85875C12.0489 8.62126 12.167 8.40387 12.3478 8.24623C12.5286 8.08858 12.7601 8.00119 13 8H20C20.2652 8 20.5196 8.10536 20.7071 8.29289C20.8946 8.48043 21 8.73478 21 9C21 9.26522 20.8946 9.51957 20.7071 9.70711C20.5196 9.89464 20.2652 10 20 10H13.8675L13.375 13.425C14.0481 13.1438 14.7705 12.9993 15.5 13Z" fill="#4A4A4F"/>
</svg>
