<svg width="32" height="32" viewBox="0 0 32 32" fill="none" xmlns="http://www.w3.org/2000/svg">
<path d="M18.5 18.5C18.5 18.9945 18.3534 19.4778 18.0787 19.8889C17.804 20.3 17.4135 20.6205 16.9567 20.8097C16.4999 20.9989 15.9972 21.0484 15.5123 20.952C15.0273 20.8555 14.5819 20.6174 14.2322 20.2678C13.8826 19.9181 13.6445 19.4727 13.548 18.9877C13.4516 18.5028 13.5011 18.0001 13.6903 17.5433C13.8795 17.0865 14.2 16.696 14.6111 16.4213C15.0222 16.1466 15.5055 16 16 16C16.663 16 17.2989 16.2634 17.7678 16.7322C18.2366 17.2011 18.5 17.837 18.5 18.5ZM28 6V26C28 26.5304 27.7893 27.0391 27.4142 27.4142C27.0391 27.7893 26.5304 28 26 28H6C5.46957 28 4.96086 27.7893 4.58579 27.4142C4.21071 27.0391 4 26.5304 4 26V6C4 5.46957 4.21071 4.96086 4.58579 4.58579C4.96086 4.21071 5.46957 4 6 4H26C26.5304 4 27.0391 4.21071 27.4142 4.58579C27.7893 4.96086 28 5.46957 28 6ZM20.5 18.5C20.5 17.3065 20.0259 16.1619 19.182 15.318C18.3381 14.4741 17.1935 14 16 14C15.9237 14 15.8475 14 15.7725 14L17.8587 10.5125C17.9261 10.3997 17.9705 10.2748 17.9895 10.1449C18.0085 10.0149 18.0018 9.8825 17.9696 9.75516C17.9375 9.62783 17.8806 9.50808 17.8021 9.40274C17.7237 9.29741 17.6253 9.20855 17.5125 9.14125C17.3997 9.07395 17.2748 9.02952 17.1449 9.01049C17.0149 8.99147 16.8825 8.99823 16.7552 9.03038C16.6278 9.06253 16.5081 9.11945 16.4027 9.19788C16.2974 9.27632 16.2086 9.37473 16.1413 9.4875C16.1413 9.4875 12.0913 16.2725 12.0825 16.29C11.7436 16.8895 11.5469 17.5589 11.5074 18.2464C11.4679 18.934 11.5868 19.6214 11.8549 20.2558C12.1229 20.8902 12.533 21.4546 13.0535 21.9055C13.5741 22.3565 14.1911 22.6819 14.8573 22.8568C15.5234 23.0317 16.2207 23.0514 16.8957 22.9143C17.5706 22.7772 18.205 22.487 18.7501 22.0662C19.2952 21.6453 19.7365 21.1049 20.0399 20.4866C20.3432 19.8683 20.5007 19.1887 20.5 18.5Z" fill="#4A4A4F"/>
</svg>
