<svg width="32" height="32" viewBox="0 0 32 32" fill="none" xmlns="http://www.w3.org/2000/svg">
<path d="M18.1663 14.75C17.9191 15.1783 17.5506 15.5236 17.1072 15.7424C16.6638 15.9612 16.1655 16.0437 15.6753 15.9793C15.1851 15.9149 14.7249 15.7066 14.3531 15.3807C13.9812 15.0548 13.7144 14.626 13.5863 14.1484C13.4581 13.6709 13.4745 13.166 13.6333 12.6978C13.792 12.2295 14.0861 11.8189 14.4782 11.5177C14.8704 11.2166 15.343 11.0385 15.8364 11.006C16.3298 10.9735 16.8217 11.088 17.25 11.335C17.824 11.6667 18.2427 12.2129 18.414 12.8533C18.5854 13.4937 18.4954 14.176 18.1638 14.75H18.1663ZM29 16C29 18.5712 28.2376 21.0846 26.8091 23.2224C25.3807 25.3603 23.3503 27.0265 20.9749 28.0104C18.5995 28.9944 15.9856 29.2518 13.4638 28.7502C10.9421 28.2486 8.6257 27.0105 6.80762 25.1924C4.98953 23.3743 3.75141 21.0579 3.2498 18.5362C2.74819 16.0144 3.00563 13.4006 3.98957 11.0251C4.97351 8.64968 6.63975 6.61935 8.77759 5.1909C10.9154 3.76244 13.4288 3 16 3C19.4467 3.00364 22.7512 4.37445 25.1884 6.81163C27.6256 9.24882 28.9964 12.5533 29 16ZM18.25 9.6025C17.6525 9.25767 16.9837 9.05484 16.2953 9.00966C15.6069 8.96449 14.9174 9.0782 14.28 9.34199C13.6425 9.60579 13.0743 10.0126 12.6191 10.531C12.1639 11.0494 11.8341 11.6655 11.655 12.3318C11.4759 12.998 11.4524 13.6964 11.5862 14.3732C11.7201 15.0499 12.0077 15.6869 12.427 16.2347C12.8462 16.7826 13.3858 17.2267 14.0041 17.5328C14.6223 17.8389 15.3026 17.9987 15.9925 18C16.0708 18 16.1496 17.9975 16.2288 17.9925L14.1413 21.4925C14.0734 21.6054 14.0285 21.7307 14.0091 21.861C13.9898 21.9913 13.9964 22.1242 14.0286 22.252C14.0607 22.3798 14.1178 22.4999 14.1966 22.6055C14.2754 22.7112 14.3742 22.8002 14.4875 22.8675C14.6004 22.9354 14.7257 22.9803 14.856 22.9996C14.9863 23.019 15.1192 23.0124 15.247 22.9802C15.3748 22.948 15.4949 22.8909 15.6005 22.8122C15.7062 22.7334 15.7952 22.6345 15.8625 22.5212L19.8975 15.75C20.4926 14.716 20.6534 13.4881 20.3446 12.3357C20.0357 11.1833 19.2825 10.2004 18.25 9.6025Z" fill="#4A4A4F"/>
</svg>
