<svg width="32" height="32" viewBox="0 0 32 32" fill="none" xmlns="http://www.w3.org/2000/svg">
<path d="M15.9998 13.0001C15.3391 13.0004 14.6818 13.0943 14.0473 13.2789L17.8748 6.49135C18.005 6.25929 18.0376 5.98503 17.9655 5.72893C17.8934 5.47283 17.7225 5.25585 17.4905 5.12572C17.2584 4.9956 16.9842 4.963 16.728 5.03508C16.4719 5.10717 16.255 5.27804 16.1248 5.5101L9.93109 16.5101C9.16309 17.8454 8.85699 19.3968 9.06023 20.9237C9.26348 22.4506 9.96472 23.8679 11.0553 24.9558C12.1458 26.0437 13.5648 26.7416 15.0922 26.9411C16.6196 27.1407 18.1702 26.8308 19.5037 26.0596C20.8371 25.2884 21.8789 24.0988 22.4677 22.6754C23.0564 21.2519 23.1591 19.674 22.7599 18.1862C22.3608 16.6984 21.482 15.3838 20.2598 14.4462C19.0376 13.5086 17.5403 13.0003 15.9998 13.0001ZM15.9998 25.0001C15.0109 25.0001 14.0442 24.7069 13.222 24.1574C12.3997 23.608 11.7589 22.8271 11.3804 21.9135C11.002 20.9999 10.903 19.9946 11.0959 19.0246C11.2888 18.0547 11.765 17.1638 12.4643 16.4646C13.1636 15.7653 14.0545 15.2891 15.0244 15.0962C15.9943 14.9032 16.9996 15.0023 17.9133 15.3807C18.8269 15.7591 19.6078 16.4 20.1572 17.2222C20.7066 18.0445 20.9998 19.0112 20.9998 20.0001C20.9998 21.3262 20.4731 22.598 19.5354 23.5356C18.5977 24.4733 17.3259 25.0001 15.9998 25.0001Z" fill="#4A4A4F"/>
</svg>
