<svg width="32" height="32" viewBox="0 0 32 32" fill="none" xmlns="http://www.w3.org/2000/svg">
<path d="M21.4998 17C21.7965 17 22.0865 17.088 22.3331 17.2528C22.5798 17.4176 22.7721 17.6519 22.8856 17.926C22.9991 18.2001 23.0288 18.5017 22.971 18.7926C22.9131 19.0836 22.7702 19.3509 22.5604 19.5607C22.3507 19.7704 22.0834 19.9133 21.7924 19.9712C21.5014 20.0291 21.1999 19.9993 20.9258 19.8858C20.6517 19.7723 20.4174 19.58 20.2526 19.3334C20.0878 19.0867 19.9998 18.7967 19.9998 18.5C19.9998 18.1022 20.1578 17.7206 20.4391 17.4393C20.7204 17.158 21.102 17 21.4998 17ZM23.0773 12.9062L14.8635 9.07375C12.7485 9.34192 10.7976 10.3527 9.35862 11.9258C7.91968 13.4989 7.08636 15.532 7.00729 17.6625L15.5298 13.1175C15.6821 13.0364 15.8529 12.9961 16.0255 13.0005C16.198 13.0049 16.3665 13.054 16.5145 13.1428C16.6625 13.2316 16.785 13.3573 16.87 13.5075C16.955 13.6577 16.9998 13.8274 16.9998 14V26.9438C18.7364 26.7557 20.3802 26.0638 21.7285 24.9533C23.0769 23.8428 24.071 22.3621 24.5885 20.6938C24.6689 20.4403 24.8467 20.2292 25.0828 20.1068C25.3188 19.9844 25.5938 19.9609 25.8473 20.0413C26.1007 20.1216 26.3119 20.2994 26.4342 20.5355C26.5566 20.7715 26.5802 21.0466 26.4998 21.3C26.0337 22.7712 25.2633 24.1279 24.2386 25.2819C23.2139 26.4358 21.9578 27.3613 20.552 27.998C19.1463 28.6348 17.6222 28.9686 16.079 28.9778C14.5357 28.987 13.0078 28.6714 11.5946 28.0514C10.1813 27.4315 8.91429 26.5211 7.87589 25.3794C6.83749 24.2378 6.05094 22.8904 5.56737 21.4248C5.08379 19.9593 4.91401 18.4084 5.06905 16.8729C5.22409 15.3374 5.70049 13.8518 6.46729 12.5125C5.56585 12.0549 4.84478 11.307 4.4203 10.3895C3.99582 9.47196 3.89265 8.43824 4.12743 7.45493C4.36221 6.47161 4.92127 5.596 5.71447 4.96923C6.50768 4.34246 7.48883 4.00104 8.49979 4C8.64575 4.00024 8.78992 4.03223 8.92229 4.09375L23.7035 10.9913C24.3458 10.9374 24.9424 10.6376 25.3689 10.1544C25.7954 9.67121 26.0188 9.04198 25.9925 8.39803C25.9663 7.75407 25.6923 7.14514 25.2278 6.69833C24.7634 6.25151 24.1443 6.00133 23.4998 6C23.2346 6 22.9802 5.89464 22.7927 5.70711C22.6051 5.51957 22.4998 5.26522 22.4998 5C22.4998 4.73478 22.6051 4.48043 22.7927 4.29289C22.9802 4.10536 23.2346 4 23.4998 4C24.6933 4 25.8379 4.47411 26.6818 5.31802C27.5257 6.16193 27.9998 7.30653 27.9998 8.5C27.9998 9.69347 27.5257 10.8381 26.6818 11.682C25.8379 12.5259 24.6933 13 23.4998 13C23.3538 12.9998 23.2097 12.9678 23.0773 12.9062ZM10.9998 25.4788V17.8L7.18854 19.8325C7.67197 22.1405 9.04009 24.1673 10.9998 25.4788ZM14.9998 15.6663L12.9998 16.7337V26.4837C13.6465 26.7135 14.3176 26.8674 14.9998 26.9425V15.6663ZM12.016 7.75L8.29604 6.00875C7.72872 6.05649 7.19469 6.29644 6.78227 6.6889C6.36985 7.08137 6.10373 7.60285 6.02793 8.1671C5.95214 8.73135 6.0712 9.30458 6.36543 9.79197C6.65966 10.2794 7.11143 10.6517 7.64604 10.8475C7.72104 10.7587 7.79604 10.67 7.87604 10.5837C9.01933 9.33288 10.4362 8.36307 12.016 7.75Z" fill="#4A4A4F"/>
</svg>
