<svg width="32" height="32" viewBox="0 0 32 32" fill="none" xmlns="http://www.w3.org/2000/svg">
<path d="M31 16C31 16.2652 30.8946 16.5196 30.7071 16.7071C30.5196 16.8946 30.2652 17 30 17H27.9163C27.6781 18.3973 26.9537 19.6654 25.8711 20.5803C24.7885 21.4952 23.4174 21.998 22 22H17V25H20C21.0609 25 22.0783 25.4214 22.8284 26.1716C23.5786 26.9217 24 27.9391 24 29C24 29.2652 23.8946 29.5196 23.7071 29.7071C23.5196 29.8946 23.2652 30 23 30C22.7348 30 22.4804 29.8946 22.2929 29.7071C22.1054 29.5196 22 29.2652 22 29C22 28.4696 21.7893 27.9609 21.4142 27.5858C21.0391 27.2107 20.5304 27 20 27H17V29C17 29.2652 16.8946 29.5196 16.7071 29.7071C16.5196 29.8946 16.2652 30 16 30C15.7348 30 15.4804 29.8946 15.2929 29.7071C15.1054 29.5196 15 29.2652 15 29V27H12C11.4696 27 10.9609 27.2107 10.5858 27.5858C10.2107 27.9609 10 28.4696 10 29C10 29.2652 9.89464 29.5196 9.70711 29.7071C9.51957 29.8946 9.26522 30 9 30C8.73478 30 8.48043 29.8946 8.29289 29.7071C8.10536 29.5196 8 29.2652 8 29C8 27.9391 8.42143 26.9217 9.17157 26.1716C9.92172 25.4214 10.9391 25 12 25H15V22H10C8.58259 21.998 7.21148 21.4952 6.1289 20.5803C5.04632 19.6654 4.32195 18.3973 4.08375 17H2C1.73478 17 1.48043 16.8946 1.29289 16.7071C1.10536 16.5196 1 16.2652 1 16C1 15.7348 1.10536 15.4804 1.29289 15.2929C1.48043 15.1054 1.73478 15 2 15H5C5.26522 15 5.51957 15.1054 5.70711 15.2929C5.89464 15.4804 6 15.7348 6 16C6 17.0609 6.42143 18.0783 7.17157 18.8284C7.92172 19.5786 8.93913 20 10 20H22C23.0609 20 24.0783 19.5786 24.8284 18.8284C25.5786 18.0783 26 17.0609 26 16C26 15.7348 26.1054 15.4804 26.2929 15.2929C26.4804 15.1054 26.7348 15 27 15H30C30.2652 15 30.5196 15.1054 30.7071 15.2929C30.8946 15.4804 31 15.7348 31 16ZM10 18H22C22.2865 18 22.5697 17.9385 22.8304 17.8195C23.091 17.7006 23.3231 17.527 23.5108 17.3106C23.6986 17.0941 23.8376 16.8399 23.9186 16.565C23.9995 16.2902 24.0205 16.0011 23.98 15.7175L22.265 3.7175C22.195 3.24169 21.9568 2.80675 21.5935 2.49162C21.2302 2.17649 20.7659 2.00206 20.285 2H11.715C11.2341 2.00206 10.7698 2.17649 10.4065 2.49162C10.0432 2.80675 9.80498 3.24169 9.735 3.7175L8.02 15.7175C7.97953 16.0011 8.00048 16.2902 8.08142 16.565C8.16237 16.8399 8.30142 17.0941 8.48917 17.3106C8.67692 17.527 8.90898 17.7006 9.16964 17.8195C9.4303 17.9385 9.71348 18 10 18Z" fill="#4A4A4F"/>
</svg>
