<svg width="32" height="32" viewBox="0 0 32 32" fill="none" xmlns="http://www.w3.org/2000/svg">
<path d="M27 5H5C4.46957 5 3.96086 5.21071 3.58579 5.58579C3.21071 5.96086 3 6.46957 3 7V25C3 25.5304 3.21071 26.0391 3.58579 26.4142C3.96086 26.7893 4.46957 27 5 27H27C27.5304 27 28.0391 26.7893 28.4142 26.4142C28.7893 26.0391 29 25.5304 29 25V7C29 6.46957 28.7893 5.96086 28.4142 5.58579C28.0391 5.21071 27.5304 5 27 5ZM25 22H19.1175C18.7459 22.0012 18.3814 21.8983 18.0653 21.703C17.7491 21.5077 17.494 21.2278 17.3288 20.895L12.8825 12H7C6.73478 12 6.48043 11.8946 6.29289 11.7071C6.10536 11.5196 6 11.2652 6 11C6 10.7348 6.10536 10.4804 6.29289 10.2929C6.48043 10.1054 6.73478 10 7 10H12.8825C13.2541 9.99881 13.6186 10.1017 13.9347 10.297C14.2509 10.4923 14.506 10.7722 14.6713 11.105L19.1175 20H25C25.2652 20 25.5196 20.1054 25.7071 20.2929C25.8946 20.4804 26 20.7348 26 21C26 21.2652 25.8946 21.5196 25.7071 21.7071C25.5196 21.8946 25.2652 22 25 22ZM25 12H19C18.7348 12 18.4804 11.8946 18.2929 11.7071C18.1054 11.5196 18 11.2652 18 11C18 10.7348 18.1054 10.4804 18.2929 10.2929C18.4804 10.1054 18.7348 10 19 10H25C25.2652 10 25.5196 10.1054 25.7071 10.2929C25.8946 10.4804 26 10.7348 26 11C26 11.2652 25.8946 11.5196 25.7071 11.7071C25.5196 11.8946 25.2652 12 25 12Z" fill="#4A4A4F"/>
</svg>
