<svg width="32" height="32" viewBox="0 0 32 32" fill="none" xmlns="http://www.w3.org/2000/svg">
<path d="M29 23C29 23.2652 28.8946 23.5196 28.7071 23.7071C28.5196 23.8947 28.2652 24 28 24H20.1175C19.7459 24.0012 19.3814 23.8983 19.0653 23.703C18.7491 23.5077 18.494 23.2278 18.3288 22.895L11.8825 10H4C3.73478 10 3.48043 9.89465 3.29289 9.70712C3.10536 9.51958 3 9.26523 3 9.00001C3 8.73479 3.10536 8.48044 3.29289 8.2929C3.48043 8.10537 3.73478 8.00001 4 8.00001H11.8825C12.2541 7.99882 12.6186 8.1017 12.9347 8.29699C13.2509 8.49228 13.506 8.77219 13.6713 9.10501L20.1175 22H28C28.2652 22 28.5196 22.1054 28.7071 22.2929C28.8946 22.4804 29 22.7348 29 23ZM19 10H28C28.2652 10 28.5196 9.89465 28.7071 9.70712C28.8946 9.51958 29 9.26523 29 9.00001C29 8.73479 28.8946 8.48044 28.7071 8.2929C28.5196 8.10537 28.2652 8.00001 28 8.00001H19C18.7348 8.00001 18.4804 8.10537 18.2929 8.2929C18.1054 8.48044 18 8.73479 18 9.00001C18 9.26523 18.1054 9.51958 18.2929 9.70712C18.4804 9.89465 18.7348 10 19 10Z" fill="#4A4A4F"/>
</svg>
