<svg width="32" height="32" viewBox="0 0 32 32" fill="none" xmlns="http://www.w3.org/2000/svg">
<path d="M6.3975 18.1887C4.83878 16.1165 3.99719 13.593 4 11C4 10.8238 4 10.6488 4.01125 10.4738C4.01798 10.3457 4.07361 10.2252 4.16666 10.137C4.25971 10.0489 4.38307 9.99982 4.51125 10H13.375C13.4739 9.99992 13.5707 10.0292 13.653 10.0841C13.7353 10.1391 13.7994 10.2172 13.8373 10.3086C13.8752 10.4 13.8851 10.5006 13.8658 10.5977C13.8464 10.6947 13.7988 10.7838 13.7288 10.8538L6.3975 18.1887ZM15 22.9575V12.4138L7.72875 19.6863C9.70699 21.5763 12.2734 22.7309 15 22.9575ZM25.6025 18.1887C27.1612 16.1165 28.0028 13.593 28 11C28 10.8238 28 10.6488 27.9888 10.4738C27.982 10.3457 27.9264 10.2252 27.8333 10.137C27.7403 10.0489 27.6169 9.99982 27.4888 10H18.625C18.5261 9.99992 18.4293 10.0292 18.347 10.0841C18.2647 10.1391 18.2006 10.2172 18.1627 10.3086C18.1248 10.4 18.1149 10.5006 18.1342 10.5977C18.1536 10.6947 18.2012 10.7838 18.2712 10.8538L25.6025 18.1887ZM31 10H30.49C30.4228 9.99996 30.3564 10.0134 30.2945 10.0397C30.2327 10.0659 30.1768 10.1043 30.1301 10.1526C30.0834 10.2009 30.047 10.2581 30.0229 10.3208C29.9988 10.3835 29.9876 10.4504 29.99 10.5175C29.99 10.6775 29.9988 10.8388 29.9988 11C29.9639 14.69 28.4736 18.2169 25.852 20.8139C23.2304 23.4108 19.6895 24.8677 15.9994 24.8677C12.3093 24.8677 8.76837 23.4108 6.14676 20.8139C3.52516 18.2169 2.03487 14.69 2 11C2 10.8388 2 10.6775 2.00875 10.5175C2.0111 10.4504 1.99991 10.3835 1.97583 10.3208C1.95176 10.2581 1.9153 10.2009 1.86864 10.1526C1.82197 10.1043 1.76605 10.0659 1.70422 10.0397C1.64239 10.0134 1.57591 9.99996 1.50875 10H1C0.734784 10 0.48043 10.1054 0.292893 10.2929C0.105357 10.4804 0 10.7348 0 11C0 15.2435 1.68571 19.3131 4.68629 22.3137C7.68687 25.3143 11.7565 27 16 27C20.2435 27 24.3131 25.3143 27.3137 22.3137C30.3143 19.3131 32 15.2435 32 11C32 10.7348 31.8946 10.4804 31.7071 10.2929C31.5196 10.1054 31.2652 10 31 10ZM17 12.4138V22.9575C19.7266 22.7309 22.293 21.5763 24.2712 19.6863L17 12.4138Z" fill="#4A4A4F"/>
</svg>
