<svg width="32" height="32" viewBox="0 0 32 32" fill="none" xmlns="http://www.w3.org/2000/svg">
<path d="M27 3H9C7.67392 3 6.40215 3.52678 5.46447 4.46447C4.52678 5.40215 4 6.67392 4 8V17C4 17.7956 4.31607 18.5587 4.87868 19.1213C5.44129 19.6839 6.20435 20 7 20H13L12.0138 25.8337C12.0048 25.8887 12.0002 25.9443 12 26C12 27.0609 12.4214 28.0783 13.1716 28.8284C13.9217 29.5786 14.9391 30 16 30C17.0609 30 18.0783 29.5786 18.8284 28.8284C19.5786 28.0783 20 27.0609 20 26C19.9998 25.9443 19.9952 25.8887 19.9862 25.8337L19 20H25C25.7956 20 26.5587 19.6839 27.1213 19.1213C27.6839 18.5587 28 17.7956 28 17V4C28 3.73478 27.8946 3.48043 27.7071 3.29289C27.5196 3.10536 27.2652 3 27 3ZM9 5H22V10C22 10.2652 22.1054 10.5196 22.2929 10.7071C22.4804 10.8946 22.7348 11 23 11C23.2652 11 23.5196 10.8946 23.7071 10.7071C23.8946 10.5196 24 10.2652 24 10V5H26V14H6V8C6 7.20435 6.31607 6.44129 6.87868 5.87868C7.44129 5.31607 8.20435 5 9 5Z" fill="#4A4A4F"/>
</svg>
