<svg width="32" height="32" viewBox="0 0 32 32" fill="none" xmlns="http://www.w3.org/2000/svg">
<path d="M32.0002 25.5002C32.0002 26.4284 31.6314 27.3187 30.9751 27.975C30.3187 28.6314 29.4284 29.0002 28.5002 29.0002C27.5719 29.0002 26.6817 28.6314 26.0253 27.975C25.3689 27.3187 25.0002 26.4284 25.0002 25.5002C25.0002 22.5539 27.7577 20.3139 27.8752 20.2189C28.0526 20.0769 28.273 19.9995 28.5002 19.9995C28.7274 19.9995 28.9478 20.0769 29.1252 20.2189C29.2427 20.3139 32.0002 22.5539 32.0002 25.5002ZM16.5614 15.5614C16.7707 15.3514 16.913 15.0841 16.9705 14.7933C17.028 14.5025 16.9979 14.2012 16.8843 13.9274C16.7706 13.6536 16.5783 13.4196 16.3318 13.255C16.0852 13.0904 15.7954 13.0026 15.4989 13.0026C15.2025 13.0026 14.9127 13.0904 14.6661 13.255C14.4196 13.4196 14.2273 13.6536 14.1136 13.9274C13.9999 14.2012 13.9699 14.5025 14.0274 14.7933C14.0848 15.0841 14.2272 15.3514 14.4364 15.5614C14.5758 15.7013 14.7414 15.8122 14.9237 15.8879C15.106 15.9636 15.3015 16.0026 15.4989 16.0026C15.6964 16.0026 15.8918 15.9636 16.0742 15.8879C16.2565 15.8122 16.4221 15.7013 16.5614 15.5614ZM28.7077 14.7289L15.2714 1.29266C15.0839 1.10527 14.8297 1 14.5646 1C14.2995 1 14.0452 1.10527 13.8577 1.29266L8.78144 6.37516L13.8352 11.4277C14.5746 11.0275 15.4332 10.9069 16.2543 11.0878C17.0753 11.2687 17.8037 11.7391 18.3064 12.413C18.8091 13.0868 19.0525 13.9191 18.992 14.7576C18.9315 15.5961 18.5712 16.3849 17.977 16.9796C17.3828 17.5743 16.5944 17.9353 15.7559 17.9965C14.9175 18.0577 14.085 17.8151 13.4107 17.313C12.7364 16.8109 12.2654 16.0829 12.0837 15.262C11.9021 14.4412 12.022 13.5824 12.4214 12.8427L7.36769 7.78266L1.87519 13.2714C1.31263 13.834 0.996582 14.597 0.996582 15.3927C0.996582 16.1883 1.31263 16.9513 1.87519 17.5139L12.4864 28.1252C13.049 28.6877 13.8121 29.0038 14.6077 29.0038C15.4033 29.0038 16.1663 28.6877 16.7289 28.1252L28.7077 16.1464C28.801 16.0535 28.8751 15.943 28.9257 15.8214C28.9762 15.6998 29.0022 15.5694 29.0022 15.4377C29.0022 15.3059 28.9762 15.1755 28.9257 15.0539C28.8751 14.9323 28.801 14.8218 28.7077 14.7289ZM5.70769 3.29266C5.52005 3.10502 5.26556 2.99961 5.00019 2.99961C4.73483 2.99961 4.48033 3.10502 4.29269 3.29266C4.10505 3.4803 3.99964 3.7348 3.99964 4.00016C3.99964 4.26553 4.10505 4.52002 4.29269 4.70766L7.36769 7.78266L8.78144 6.37516L5.70769 3.29266Z" fill="#4A4A4F"/>
</svg>
