<svg width="32" height="32" viewBox="0 0 32 32" fill="none" xmlns="http://www.w3.org/2000/svg">
<path d="M28.8301 3.16994C28.4587 2.79841 28.0177 2.50369 27.5323 2.30262C27.0469 2.10154 26.5267 1.99805 26.0014 1.99805C25.476 1.99805 24.9558 2.10154 24.4704 2.30262C23.985 2.50369 23.5441 2.79841 23.1726 3.16994C23.1601 3.18244 23.1476 3.19494 23.1364 3.20869L16.2726 10.8562L15.1251 9.70494C14.8465 9.4262 14.5157 9.20508 14.1516 9.05422C13.7876 8.90336 13.3973 8.82571 13.0032 8.82571C12.6091 8.82571 12.2189 8.90336 11.8548 9.05422C11.4907 9.20508 11.1599 9.4262 10.8814 9.70494L1.2951 19.2924C1.10771 19.48 1.00244 19.7342 1.00244 19.9993C1.00244 20.2644 1.10771 20.5187 1.2951 20.7062L11.2951 30.7062C11.4826 30.8936 11.7369 30.9989 12.002 30.9989C12.2671 30.9989 12.5213 30.8936 12.7089 30.7062L22.2951 21.1249C22.5738 20.8463 22.795 20.5156 22.9458 20.1515C23.0967 19.7874 23.1743 19.3972 23.1743 19.0031C23.1743 18.609 23.0967 18.2187 22.9458 17.8547C22.795 17.4906 22.5738 17.1598 22.2951 16.8812L21.1439 15.7312L28.7914 8.86744C28.8052 8.85592 28.8181 8.84338 28.8301 8.82994C29.202 8.45845 29.497 8.0173 29.6983 7.5317C29.8996 7.04611 30.0033 6.5256 30.0033 5.99994C30.0033 5.47428 29.8996 4.95377 29.6983 4.46818C29.497 3.98259 29.202 3.54144 28.8301 3.16994ZM12.0001 28.5862L9.9151 26.4999L12.7076 23.7062C12.8872 23.5171 12.9859 23.2654 12.9825 23.0046C12.9792 22.7439 12.8741 22.4947 12.6897 22.3103C12.5053 22.1259 12.2562 22.0208 11.9954 22.0175C11.7347 22.0142 11.4829 22.1128 11.2939 22.2924L8.5001 25.0849L6.9151 23.4999L9.7076 20.7062C9.88722 20.5171 9.98588 20.2654 9.98254 20.0046C9.9792 19.7439 9.87413 19.4947 9.68973 19.3103C9.50533 19.1259 9.25619 19.0208 8.99543 19.0175C8.73467 19.0142 8.48291 19.1128 8.29385 19.2924L5.5001 22.0849L3.41385 19.9999L9.0001 14.4137L17.5864 22.9999L12.0001 28.5862Z" fill="#4A4A4F"/>
</svg>
