<svg width="32" height="32" viewBox="0 0 32 32" fill="none" xmlns="http://www.w3.org/2000/svg">
<path d="M6.67983 5.4375L6.76483 4.75C6.82574 4.26657 7.06103 3.822 7.42653 3.49977C7.79203 3.17755 8.26258 2.99983 8.74983 3H23.2498C23.7371 2.99983 24.2076 3.17755 24.5731 3.49977C24.9386 3.822 25.1739 4.26657 25.2348 4.75L25.3198 5.43625C25.3287 5.50696 25.3224 5.57876 25.3013 5.64683C25.2802 5.71491 25.2448 5.77768 25.1975 5.83095C25.1501 5.88422 25.0919 5.92674 25.0268 5.95569C24.9617 5.98463 24.8911 5.99931 24.8198 5.99875H7.17608C7.10525 5.99875 7.03523 5.9837 6.97065 5.9546C6.90607 5.9255 6.84841 5.88301 6.80149 5.82995C6.75457 5.77688 6.71946 5.71445 6.69849 5.6468C6.67752 5.57914 6.67116 5.5078 6.67983 5.4375ZM21.1248 8C21.3478 8.85832 21.8491 9.61845 22.5503 10.1613C23.2516 10.7042 24.113 10.9992 24.9998 11H25.4486C25.5199 11.0006 25.5904 10.9859 25.6555 10.9569C25.7207 10.928 25.7789 10.8855 25.8262 10.8322C25.8736 10.7789 25.909 10.7162 25.9301 10.6481C25.9512 10.58 25.9575 10.5082 25.9486 10.4375L25.6986 8.4375C25.6833 8.316 25.6239 8.20434 25.5318 8.1237C25.4396 8.04305 25.321 7.99904 25.1986 8H21.1248ZM6.55108 11H6.99983C7.88664 10.9992 8.74811 10.7042 9.44933 10.1613C10.1505 9.61845 10.6519 8.85832 10.8748 8H6.80108C6.67863 7.99904 6.56007 8.04305 6.46791 8.1237C6.37575 8.20434 6.31639 8.316 6.30108 8.4375L6.05108 10.4375C6.04217 10.5082 6.04848 10.58 6.06959 10.6481C6.09069 10.7162 6.12611 10.7789 6.17346 10.8322C6.22081 10.8855 6.279 10.928 6.34412 10.9569C6.40925 10.9859 6.47982 11.0006 6.55108 11ZM27.9848 26.75L26.3198 13.4375C26.3045 13.316 26.2452 13.2043 26.153 13.1237C26.0608 13.0431 25.9423 12.999 25.8198 13H24.9998C23.5826 12.998 22.2116 12.4951 21.1293 11.5802C20.0469 10.6652 19.3228 9.39715 19.0848 8H16.9998V12.9663C17.003 13.2242 16.9085 13.4739 16.7354 13.6651C16.5622 13.8564 16.3231 13.9751 16.0661 13.9975C15.9293 14.0066 15.7921 13.9874 15.663 13.9413C15.5339 13.8951 15.4157 13.8229 15.3157 13.7291C15.2158 13.6353 15.1361 13.522 15.0818 13.3961C15.0274 13.2703 14.9995 13.1346 14.9998 12.9975V8H12.9148C12.6769 9.39715 11.9528 10.6652 10.8704 11.5802C9.78804 12.4951 8.4171 12.998 6.99983 13H6.17608C6.05363 12.999 5.93507 13.0431 5.84291 13.1237C5.75075 13.2043 5.69139 13.316 5.67608 13.4375L4.01483 26.75C3.9699 27.111 4.02425 27.4773 4.17204 27.8097C4.31983 28.1421 4.55547 28.4278 4.85358 28.6362C5.20496 28.8777 5.6223 29.0047 6.04858 29H11.0861C11.5309 29.0001 11.963 28.8519 12.3141 28.5789C12.6652 28.3059 12.9153 27.9236 13.0248 27.4925L15.9998 15.9925L18.9736 27.485C19.0817 27.9177 19.3314 28.3018 19.6829 28.5763C20.0344 28.8508 20.4676 28.9999 20.9136 29H25.9511C26.3771 29.0056 26.7945 28.8794 27.1461 28.6388C27.4446 28.4301 27.6805 28.144 27.8283 27.8111C27.9761 27.4783 28.0302 27.1114 27.9848 26.75Z" fill="#4A4A4F"/>
</svg>
