<svg width="32" height="32" viewBox="0 0 32 32" fill="none" xmlns="http://www.w3.org/2000/svg">
<path d="M16 3C13.4288 3 10.9154 3.76244 8.77759 5.1909C6.63975 6.61935 4.97351 8.64968 3.98957 11.0251C3.00563 13.4006 2.74819 16.0144 3.2498 18.5362C3.75141 21.0579 4.98953 23.3743 6.80762 25.1924C8.6257 27.0105 10.9421 28.2486 13.4638 28.7502C15.9856 29.2518 18.5995 28.9944 20.9749 28.0104C23.3503 27.0265 25.3807 25.3603 26.8091 23.2224C28.2376 21.0846 29 18.5712 29 16C28.9964 12.5533 27.6256 9.24882 25.1884 6.81163C22.7512 4.37445 19.4467 3.00364 16 3ZM20.7075 9.2925C20.6146 9.19952 20.5043 9.12576 20.3829 9.07544C20.2615 9.02512 20.1314 8.99921 20 8.99921C19.8686 8.99921 19.7385 9.02512 19.6171 9.07544C19.4957 9.12576 19.3854 9.19952 19.2925 9.2925L10.8863 17.875C10.6072 18.1533 10.3857 18.4839 10.2344 18.8478C10.0831 19.2117 10.0049 19.6019 10.0044 19.996C10.0039 20.3902 10.081 20.7805 10.2313 21.1448C10.3817 21.5092 10.6023 21.8403 10.8806 22.1194C11.159 22.3984 11.4895 22.6199 11.8534 22.7712C12.2174 22.9226 12.6075 23.0007 13.0017 23.0012C13.3958 23.0017 13.7861 22.9246 14.1505 22.7743C14.5148 22.624 14.8459 22.4033 15.125 22.125L21.29 15.835C21.3811 15.7376 21.4907 15.6595 21.6124 15.6051C21.7341 15.5507 21.8655 15.5212 21.9988 15.5183C22.1321 15.5154 22.2646 15.5393 22.3885 15.5883C22.5125 15.6374 22.6254 15.7108 22.7205 15.8041C22.8157 15.8975 22.8913 16.0089 22.9428 16.1319C22.9942 16.2549 23.0206 16.3869 23.0203 16.5202C23.0201 16.6535 22.9931 16.7854 22.9411 16.9082C22.8891 17.0309 22.8131 17.1421 22.7175 17.235L16.5463 23.5325C16.0843 24.0057 15.5332 24.3827 14.9246 24.6414C14.316 24.9002 13.6621 25.0356 13.0009 25.04C12.3396 25.0443 11.684 24.9174 11.0721 24.6666C10.4602 24.4159 9.9041 24.0462 9.43603 23.5791C8.96797 23.1119 8.59722 22.5565 8.34526 21.9451C8.09331 21.3337 7.96514 20.6784 7.96818 20.0171C7.97122 19.3558 8.10542 18.7017 8.36299 18.0926C8.62057 17.4835 8.99641 16.9316 9.46876 16.4688L17.875 7.88625C18.1533 7.60719 18.4839 7.38568 18.8478 7.23438C19.2117 7.08307 19.6019 7.00492 19.996 7.0044C20.3902 7.00388 20.7805 7.08099 21.1448 7.23133C21.5092 7.38167 21.8403 7.6023 22.1194 7.88062C22.3984 8.15895 22.6199 8.48951 22.7713 8.85343C22.9226 9.21736 23.0007 9.60752 23.0012 10.0016C23.0018 10.3958 22.9246 10.7861 22.7743 11.1505C22.624 11.5148 22.4033 11.8459 22.125 12.125L13.7138 20.7C13.6227 20.7974 13.5131 20.8755 13.3914 20.9299C13.2696 20.9843 13.1383 21.0138 13.005 21.0167C12.8717 21.0196 12.7392 20.9957 12.6152 20.9467C12.4913 20.8976 12.3784 20.8242 12.2832 20.7309C12.188 20.6375 12.1125 20.5261 12.061 20.4031C12.0095 20.2801 11.9831 20.1481 11.9834 20.0148C11.9837 19.8815 12.0106 19.7496 12.0626 19.6268C12.1147 19.5041 12.1907 19.3929 12.2863 19.3L20.7 10.7137C20.7944 10.6213 20.8696 10.511 20.9211 10.3893C20.9726 10.2676 20.9995 10.1369 21.0002 10.0047C21.0009 9.87253 20.9754 9.74154 20.9251 9.6193C20.8749 9.49705 20.8009 9.38598 20.7075 9.2925Z" fill="#4A4A4F"/>
</svg>
