<svg width="32" height="32" viewBox="0 0 32 32" fill="none" xmlns="http://www.w3.org/2000/svg">
<path d="M31 16C30.998 17.8559 30.2599 19.6352 28.9476 20.9476C27.6352 22.2599 25.8559 22.998 24 23H6C4.67392 23 3.40215 22.4732 2.46447 21.5355C1.52678 20.5979 1 19.3261 1 18C1 16.6739 1.52678 15.4021 2.46447 14.4645C3.40215 13.5268 4.67392 13 6 13H24C24.7956 13 25.5587 13.3161 26.1213 13.8787C26.6839 14.4413 27 15.2044 27 16C27 16.7956 26.6839 17.5587 26.1213 18.1213C25.5587 18.6839 24.7956 19 24 19H10C9.73478 19 9.48043 18.8946 9.29289 18.7071C9.10536 18.5196 9 18.2652 9 18C9 17.7348 9.10536 17.4804 9.29289 17.2929C9.48043 17.1054 9.73478 17 10 17H24C24.2652 17 24.5196 16.8946 24.7071 16.7071C24.8946 16.5196 25 16.2652 25 16C25 15.7348 24.8946 15.4804 24.7071 15.2929C24.5196 15.1054 24.2652 15 24 15H6C5.20435 15 4.44129 15.3161 3.87868 15.8787C3.31607 16.4413 3 17.2044 3 18C3 18.7956 3.31607 19.5587 3.87868 20.1213C4.44129 20.6839 5.20435 21 6 21H24C25.3261 21 26.5979 20.4732 27.5355 19.5355C28.4732 18.5979 29 17.3261 29 16C29 14.6739 28.4732 13.4021 27.5355 12.4645C26.5979 11.5268 25.3261 11 24 11H10C9.73478 11 9.48043 10.8946 9.29289 10.7071C9.10536 10.5196 9 10.2652 9 10C9 9.73478 9.10536 9.48043 9.29289 9.29289C9.48043 9.10536 9.73478 9 10 9H24C25.8559 9.00199 27.6352 9.74012 28.9476 11.0524C30.2599 12.3648 30.998 14.1441 31 16Z" fill="#4A4A4F"/>
</svg>
