<svg width="32" height="32" viewBox="0 0 32 32" fill="none" xmlns="http://www.w3.org/2000/svg">
<path d="M28.415 3.58484C28.1635 3.33351 27.8496 3.15376 27.5055 3.06412C27.1614 2.97448 26.7997 2.97818 26.4575 3.07484H26.4388L2.44626 10.3548C2.0557 10.4672 1.70863 10.6958 1.45126 11.0103C1.19388 11.3248 1.03842 11.7102 1.00557 12.1153C0.97272 12.5203 1.06404 12.9258 1.26738 13.2776C1.47071 13.6295 1.77641 13.9111 2.14376 14.0848L12.8463 19.1536L17.915 29.8561C18.075 30.1988 18.3298 30.4886 18.6492 30.6913C18.9686 30.894 19.3393 31.001 19.7175 30.9998C19.775 30.9998 19.8325 30.9973 19.89 30.9923C20.2936 30.9597 20.6776 30.8043 20.9904 30.5471C21.3032 30.29 21.5299 29.9433 21.64 29.5536L28.915 5.56109C28.915 5.55484 28.915 5.54859 28.915 5.54234C29.0129 5.20105 29.0182 4.83984 28.9304 4.49582C28.8425 4.1518 28.6646 3.83737 28.415 3.58484ZM19.7288 28.9811L19.7225 28.9986L14.8025 18.6123L20.7075 12.7061C20.8871 12.517 20.9858 12.2653 20.9824 12.0045C20.9791 11.7438 20.874 11.4946 20.6896 11.3102C20.5052 11.1258 20.2561 11.0207 19.9953 11.0174C19.7346 11.0141 19.4828 11.1127 19.2938 11.2923L13.3875 17.1973L3.00001 12.2773H3.01751L27 4.99984L19.7288 28.9811Z" fill="#4A4A4F"/>
</svg>
