<svg width="32" height="32" viewBox="0 0 32 32" fill="none" xmlns="http://www.w3.org/2000/svg">
<path d="M28.9998 15.9865C29.0008 16.3428 28.9065 16.6929 28.7267 17.0006C28.5469 17.3082 28.2882 17.5623 27.9773 17.7365L6.98858 29.7377C6.68703 29.9087 6.3465 29.9991 5.99983 30.0002C5.68014 29.9996 5.36527 29.9223 5.0816 29.7749C4.79793 29.6274 4.55373 29.4141 4.36948 29.1529C4.18523 28.8916 4.06629 28.59 4.02264 28.2733C3.97899 27.9566 4.01189 27.6341 4.11858 27.3327L7.53733 17.339C7.57102 17.2401 7.63483 17.1542 7.7198 17.0935C7.80477 17.0327 7.90663 17.0001 8.01108 17.0002H16.9998C17.1369 17.0005 17.2726 16.9726 17.3985 16.9183C17.5243 16.8639 17.6377 16.7843 17.7314 16.6843C17.8252 16.5843 17.8974 16.4661 17.9436 16.337C17.9898 16.2079 18.0089 16.0707 17.9998 15.934C17.9772 15.6768 17.8582 15.4377 17.6667 15.2646C17.4753 15.0914 17.2255 14.997 16.9673 15.0002H8.01984C7.91553 15.0004 7.81378 14.968 7.72883 14.9074C7.64388 14.8469 7.57998 14.7614 7.54608 14.6627L4.11608 4.66271C3.98251 4.27952 3.96866 3.86477 4.07638 3.47353C4.18409 3.08228 4.40827 2.73306 4.71914 2.47224C5.03002 2.21141 5.41288 2.05132 5.81689 2.01323C6.2209 1.97513 6.62694 2.06084 6.98108 2.25896L27.9811 14.2452C28.29 14.4191 28.5471 14.672 28.7261 14.978C28.9051 15.2839 28.9996 15.632 28.9998 15.9865Z" fill="#4A4A4F"/>
</svg>
