<svg width="32" height="32" viewBox="0 0 32 32" fill="none" xmlns="http://www.w3.org/2000/svg">
<path d="M26.2075 15.2924C26.3005 15.3853 26.3743 15.4956 26.4246 15.617C26.4749 15.7384 26.5008 15.8685 26.5008 15.9999C26.5008 16.1313 26.4749 16.2614 26.4246 16.3828C26.3743 16.5042 26.3005 16.6145 26.2075 16.7074L15.9513 26.9574C14.6383 28.2702 12.8576 29.0077 11.0008 29.0076C9.14412 29.0075 7.36348 28.2698 6.05066 26.9568C4.73784 25.6438 4.00037 23.8631 4.00049 22.0063C4.00061 20.1496 4.7383 18.369 6.05129 17.0561L18.4588 4.46615C19.3962 3.52778 20.6679 3.00022 21.9943 2.99951C23.3206 2.99881 24.5929 3.52503 25.5313 4.4624C26.4697 5.39977 26.9972 6.67152 26.9979 7.99787C26.9986 9.32422 26.4724 10.5965 25.535 11.5349L13.125 24.1249C12.5615 24.6885 11.7971 25.0051 11 25.0051C10.203 25.0051 9.43862 24.6885 8.87504 24.1249C8.31145 23.5613 7.99483 22.7969 7.99483 21.9999C7.99483 21.2029 8.31145 20.4385 8.87504 19.8749L19.2875 9.2974C19.3787 9.2001 19.4885 9.12202 19.6103 9.06777C19.7322 9.01352 19.8636 8.98419 19.997 8.98151C20.1303 8.97882 20.2629 9.00284 20.3868 9.05214C20.5107 9.10145 20.6235 9.17504 20.7186 9.26859C20.8136 9.36215 20.889 9.47377 20.9403 9.59689C20.9915 9.72002 21.0177 9.85215 21.0171 9.98552C21.0165 10.1189 20.9893 10.2508 20.937 10.3735C20.8847 10.4962 20.8084 10.6072 20.7125 10.6999L10.2988 21.2887C10.2055 21.3812 10.1314 21.4911 10.0807 21.6122C10.03 21.7334 10.0036 21.8633 10.003 21.9947C10.0025 22.126 10.0279 22.2562 10.0777 22.3777C10.1274 22.4992 10.2007 22.6098 10.2932 22.703C10.3857 22.7963 10.4956 22.8704 10.6168 22.9211C10.7379 22.9719 10.8678 22.9982 10.9992 22.9988C11.1305 22.9993 11.2607 22.9739 11.3822 22.9242C11.5038 22.8744 11.6143 22.8012 11.7075 22.7087L24.1163 10.1249C24.6799 9.56248 24.997 8.7992 24.9978 8.00299C24.9986 7.20678 24.6831 6.44286 24.1207 5.87928C23.5582 5.31569 22.795 4.99861 21.9988 4.99779C21.2025 4.99697 20.4386 5.31248 19.875 5.8749L7.47004 18.4599C7.00532 18.9239 6.63654 19.4748 6.38476 20.0813C6.13297 20.6878 6.00311 21.338 6.00259 21.9947C6.00207 22.6514 6.1309 23.3017 6.38171 23.9086C6.63253 24.5155 7.00044 25.0671 7.46441 25.5318C7.92839 25.9965 8.47935 26.3653 9.08585 26.6171C9.69235 26.8688 10.3425 26.9987 10.9992 26.9992C11.6559 26.9997 12.3062 26.8709 12.9131 26.6201C13.52 26.3693 14.0716 26.0014 14.5363 25.5374L24.7938 15.2874C24.982 15.1007 25.2366 14.9963 25.5017 14.9972C25.7668 14.9982 26.0207 15.1043 26.2075 15.2924Z" fill="#4A4A4F"/>
</svg>
