<svg width="32" height="32" viewBox="0 0 32 32" fill="none" xmlns="http://www.w3.org/2000/svg">
<path d="M29.7373 25.0111L17.7311 4.02236C17.5571 3.71307 17.304 3.45565 16.9976 3.2765C16.6913 3.09735 16.3428 3.00293 15.988 3.00293C15.6331 3.00293 15.2846 3.09735 14.9783 3.2765C14.672 3.45565 14.4188 3.71307 14.2448 4.02236L2.25859 25.0224C2.06006 25.3767 1.97413 25.7831 2.01224 26.1875C2.05035 26.5919 2.21068 26.9751 2.47192 27.2862C2.73315 27.5972 3.0829 27.8213 3.47463 27.9287C3.86636 28.0361 4.28151 28.0217 4.66484 27.8874L15.9736 24.0124H15.9861H15.9973L27.3323 27.8874C27.7169 28.0234 28.1337 28.0386 28.5271 27.9309C28.9205 27.8233 29.2716 27.5979 29.5333 27.2851C29.795 26.9723 29.9548 26.5869 29.9912 26.1807C30.0277 25.7745 29.9391 25.3668 29.7373 25.0124V25.0111ZM27.9873 25.9911L16.9998 22.2324V14.9999C16.9998 14.7346 16.8945 14.4803 16.7069 14.2928C16.5194 14.1052 16.2651 13.9999 15.9998 13.9999C15.7346 13.9999 15.4803 14.1052 15.2927 14.2928C15.1052 14.4803 14.9998 14.7346 14.9998 14.9999V22.2224L4.01484 25.9924L3.99984 25.9999L15.9823 4.99986L27.9998 25.9999L27.9873 25.9911Z" fill="#4A4A4F"/>
</svg>
