<svg width="32" height="32" viewBox="0 0 32 32" fill="none" xmlns="http://www.w3.org/2000/svg">
<path d="M30.8224 7.82125L22.7224 25.8213C22.5642 26.1725 22.3079 26.4706 21.9844 26.6797C21.6609 26.8888 21.2838 27 20.8986 27H2.99987C2.66591 26.9998 2.33731 26.916 2.04406 26.7562C1.7508 26.5964 1.50223 26.3658 1.32102 26.0852C1.13981 25.8047 1.03172 25.4833 1.00663 25.1503C0.981538 24.8173 1.04024 24.4833 1.17737 24.1787L9.27737 6.17875C9.43555 5.8275 9.69181 5.52941 10.0153 5.3203C10.3389 5.1112 10.7159 4.99997 11.1011 5H28.9999C29.3339 4.99998 29.6627 5.08363 29.9561 5.24333C30.2495 5.40303 30.4983 5.63369 30.6796 5.91424C30.861 6.19479 30.9692 6.5163 30.9943 6.84942C31.0195 7.18254 30.9608 7.51665 30.8236 7.82125H30.8224Z" fill="#4A4A4F"/>
</svg>
