<svg width="32" height="32" viewBox="0 0 32 32" fill="none" xmlns="http://www.w3.org/2000/svg">
<path d="M29 23.9999H25V20.9999H28C28.152 20.9999 28.3019 20.9652 28.4385 20.8986C28.575 20.8319 28.6946 20.735 28.7881 20.6153C28.8816 20.4955 28.9466 20.356 28.9781 20.2073C29.0096 20.0587 29.0068 19.9048 28.97 19.7574L24.97 3.75738C24.9158 3.54116 24.7909 3.34924 24.6152 3.2121C24.4394 3.07497 24.2229 3.00049 24 3.00049C23.7771 3.00049 23.5606 3.07497 23.3848 3.2121C23.2091 3.34924 23.0842 3.54116 23.03 3.75738L19.03 19.7574C18.9932 19.9048 18.9904 20.0587 19.0219 20.2073C19.0534 20.356 19.1184 20.4955 19.2119 20.6153C19.3054 20.735 19.425 20.8319 19.5615 20.8986C19.6981 20.9652 19.848 20.9999 20 20.9999H23V23.9999H15V21.9999H16C16.2652 21.9999 16.5196 21.8945 16.7071 21.707C16.8946 21.5195 17 21.2651 17 20.9999C17 20.7347 16.8946 20.4803 16.7071 20.2928C16.5196 20.1052 16.2652 19.9999 16 19.9999H15V17.9999H16C16.2652 17.9999 16.5196 17.8945 16.7071 17.707C16.8946 17.5195 17 17.2651 17 16.9999C17 16.7347 16.8946 16.4803 16.7071 16.2928C16.5196 16.1052 16.2652 15.9999 16 15.9999H5C4.73478 15.9999 4.48043 16.1052 4.29289 16.2928C4.10536 16.4803 4 16.7347 4 16.9999C4 17.2651 4.10536 17.5195 4.29289 17.707C4.48043 17.8945 4.73478 17.9999 5 17.9999H6V19.9999H5C4.73478 19.9999 4.48043 20.1052 4.29289 20.2928C4.10536 20.4803 4 20.7347 4 20.9999C4 21.2651 4.10536 21.5195 4.29289 21.707C4.48043 21.8945 4.73478 21.9999 5 21.9999H6V23.9999H3C2.73478 23.9999 2.48043 24.1052 2.29289 24.2928C2.10536 24.4803 2 24.7347 2 24.9999C2 25.2651 2.10536 25.5195 2.29289 25.707C2.48043 25.8945 2.73478 25.9999 3 25.9999H29C29.2652 25.9999 29.5196 25.8945 29.7071 25.707C29.8946 25.5195 30 25.2651 30 24.9999C30 24.7347 29.8946 24.4803 29.7071 24.2928C29.5196 24.1052 29.2652 23.9999 29 23.9999ZM24 8.12488L26.7188 18.9999H21.2812L24 8.12488ZM8 17.9999H13V19.9999H8V17.9999ZM8 21.9999H13V23.9999H8V21.9999ZM14.5 11.9999C15.1922 11.9999 15.8689 11.7946 16.4445 11.41C17.0201 11.0254 17.4687 10.4788 17.7336 9.83928C17.9985 9.19973 18.0678 8.496 17.9327 7.81707C17.7977 7.13813 17.4644 6.51449 16.9749 6.02501C16.4854 5.53553 15.8617 5.20218 15.1828 5.06714C14.5039 4.93209 13.8001 5.0014 13.1606 5.26631C12.5211 5.53121 11.9744 5.97982 11.5899 6.55539C11.2053 7.13096 11 7.80765 11 8.49988C11 9.42814 11.3687 10.3184 12.0251 10.9748C12.6815 11.6311 13.5717 11.9999 14.5 11.9999ZM14.5 6.99988C14.7967 6.99988 15.0867 7.08786 15.3334 7.25268C15.58 7.4175 15.7723 7.65177 15.8858 7.92586C15.9994 8.19995 16.0291 8.50155 15.9712 8.79252C15.9133 9.08349 15.7704 9.35077 15.5607 9.56054C15.3509 9.77032 15.0836 9.91318 14.7926 9.97106C14.5017 10.0289 14.2001 9.99923 13.926 9.8857C13.6519 9.77217 13.4176 9.57991 13.2528 9.33324C13.088 9.08657 13 8.79656 13 8.49988C13 8.10206 13.158 7.72053 13.4393 7.43922C13.7206 7.15792 14.1022 6.99988 14.5 6.99988Z" fill="#4A4A4F"/>
</svg>
