<svg width="32" height="32" viewBox="0 0 32 32" fill="none" xmlns="http://www.w3.org/2000/svg">
<path d="M6 7V25C6 25.2652 5.89464 25.5196 5.70711 25.7071C5.51957 25.8946 5.26522 26 5 26C4.73478 26 4.48043 25.8946 4.29289 25.7071C4.10536 25.5196 4 25.2652 4 25V7C4 6.73478 4.10536 6.48043 4.29289 6.29289C4.48043 6.10536 4.73478 6 5 6C5.26522 6 5.51957 6.10536 5.70711 6.29289C5.89464 6.48043 6 6.73478 6 7ZM16.5 13.8125L14 14.625V12C14 11.7348 13.8946 11.4804 13.7071 11.2929C13.5196 11.1054 13.2652 11 13 11C12.7348 11 12.4804 11.1054 12.2929 11.2929C12.1054 11.4804 12 11.7348 12 12V14.625L9.5 13.8125C9.24771 13.7296 8.97284 13.7504 8.73584 13.8701C8.49884 13.9899 8.31913 14.199 8.23625 14.4513C8.15337 14.7035 8.17411 14.9784 8.29389 15.2154C8.41368 15.4524 8.62271 15.6321 8.875 15.715L11.375 16.5263L9.8325 18.6513C9.75098 18.7572 9.69153 18.8783 9.65764 19.0076C9.62376 19.1369 9.61613 19.2717 9.63522 19.404C9.65431 19.5363 9.69972 19.6634 9.76877 19.7778C9.83782 19.8922 9.92911 19.9917 10.0372 20.0702C10.1454 20.1488 10.2682 20.2048 10.3983 20.2351C10.5285 20.2654 10.6634 20.2693 10.7951 20.2466C10.9268 20.2238 11.0527 20.1749 11.1651 20.1027C11.2776 20.0305 11.3745 19.9365 11.45 19.8263L12.9925 17.7013L14.535 19.8263C14.6105 19.9365 14.7074 20.0305 14.8199 20.1027C14.9323 20.1749 15.0582 20.2238 15.1899 20.2466C15.3216 20.2693 15.4565 20.2654 15.5867 20.2351C15.7168 20.2048 15.8396 20.1488 15.9478 20.0702C16.0559 19.9917 16.1472 19.8922 16.2162 19.7778C16.2853 19.6634 16.3307 19.5363 16.3498 19.404C16.3689 19.2717 16.3612 19.1369 16.3274 19.0076C16.2935 18.8783 16.234 18.7572 16.1525 18.6513L14.61 16.5263L17.11 15.715C17.3511 15.6253 17.5484 15.4461 17.6609 15.2147C17.7733 14.9833 17.7922 14.7174 17.7136 14.4724C17.6351 14.2274 17.4651 14.0221 17.2391 13.8992C17.013 13.7763 16.7483 13.7453 16.5 13.8125ZM29.75 14.455C29.668 14.205 29.4909 13.9974 29.2569 13.8771C29.0229 13.7569 28.751 13.7336 28.5 13.8125L26 14.625V12C26 11.7348 25.8946 11.4804 25.7071 11.2929C25.5196 11.1054 25.2652 11 25 11C24.7348 11 24.4804 11.1054 24.2929 11.2929C24.1054 11.4804 24 11.7348 24 12V14.625L21.5 13.8138C21.3751 13.7731 21.2434 13.7575 21.1124 13.7678C20.9815 13.778 20.8538 13.814 20.7368 13.8736C20.6197 13.9332 20.5155 14.0153 20.4302 14.1151C20.3448 14.215 20.28 14.3307 20.2394 14.4556C20.1987 14.5805 20.1831 14.7122 20.1934 14.8432C20.2037 14.9742 20.2396 15.1018 20.2992 15.2189C20.3588 15.3359 20.4409 15.4401 20.5408 15.5254C20.6406 15.6108 20.7563 15.6756 20.8813 15.7163L23.3813 16.5275L21.8388 18.6525C21.7572 18.7584 21.6978 18.8796 21.6639 19.0089C21.63 19.1382 21.6224 19.2729 21.6415 19.4052C21.6606 19.5375 21.706 19.6646 21.775 19.7791C21.8441 19.8935 21.9354 19.9929 22.0435 20.0715C22.1516 20.15 22.2744 20.2061 22.4046 20.2364C22.5348 20.2667 22.6697 20.2706 22.8014 20.2478C22.9331 20.2251 23.0589 20.1762 23.1714 20.104C23.2839 20.0318 23.3807 19.9378 23.4562 19.8275L24.9988 17.7025L26.5413 19.8275C26.6168 19.9378 26.7136 20.0318 26.8261 20.104C26.9386 20.1762 27.0644 20.2251 27.1961 20.2478C27.3278 20.2706 27.4627 20.2667 27.5929 20.2364C27.7231 20.2061 27.8459 20.15 27.954 20.0715C28.0621 19.9929 28.1534 19.8935 28.2225 19.7791C28.2915 19.6646 28.3369 19.5375 28.356 19.4052C28.3751 19.2729 28.3675 19.1382 28.3336 19.0089C28.2997 18.8796 28.2403 18.7584 28.1588 18.6525L26.6162 16.5275L29.1162 15.7163C29.3672 15.6326 29.5749 15.4529 29.6936 15.2165C29.8124 14.9801 29.8327 14.7063 29.75 14.455Z" fill="#4A4A4F"/>
</svg>
