<svg width="32" height="32" viewBox="0 0 32 32" fill="none" xmlns="http://www.w3.org/2000/svg">
<path d="M25 21C24.1132 21.0008 23.2517 21.2958 22.5505 21.8387C21.8493 22.3815 21.3479 23.1417 21.125 24H9C7.93913 24 6.92172 23.5786 6.17157 22.8284C5.42143 22.0783 5 21.0609 5 20C5 18.9391 5.42143 17.9217 6.17157 17.1716C6.92172 16.4214 7.93913 16 9 16H21C22.3261 16 23.5979 15.4732 24.5355 14.5355C25.4732 13.5979 26 12.3261 26 11C26 9.67392 25.4732 8.40215 24.5355 7.46447C23.5979 6.52678 22.3261 6 21 6H9C8.73478 6 8.48043 6.10536 8.29289 6.29289C8.10536 6.48043 8 6.73478 8 7C8 7.26522 8.10536 7.51957 8.29289 7.70711C8.48043 7.89464 8.73478 8 9 8H21C21.7956 8 22.5587 8.31607 23.1213 8.87868C23.6839 9.44129 24 10.2044 24 11C24 11.7956 23.6839 12.5587 23.1213 13.1213C22.5587 13.6839 21.7956 14 21 14H9C7.4087 14 5.88258 14.6321 4.75736 15.7574C3.63214 16.8826 3 18.4087 3 20C3 21.5913 3.63214 23.1174 4.75736 24.2426C5.88258 25.3679 7.4087 26 9 26H21.125C21.312 26.7243 21.6984 27.3816 22.2402 27.8974C22.7821 28.4131 23.4577 28.7666 24.1903 28.9176C24.923 29.0687 25.6833 29.0112 26.3849 28.7519C27.0866 28.4925 27.7014 28.0416 28.1596 27.4503C28.6179 26.859 28.9011 26.1511 28.9772 25.4069C29.0533 24.6628 28.9192 23.9122 28.5902 23.2404C28.2611 22.5686 27.7502 22.0026 27.1156 21.6065C26.481 21.2105 25.748 21.0004 25 21Z" fill="#4A4A4F"/>
</svg>
