<svg width="32" height="32" viewBox="0 0 32 32" fill="none" xmlns="http://www.w3.org/2000/svg">
<path d="M30 13C30 14.5823 29.5308 16.129 28.6518 17.4446C27.7727 18.7602 26.5233 19.7855 25.0615 20.391C23.5997 20.9965 21.9911 21.155 20.4393 20.8463C18.8874 20.5376 17.462 19.7757 16.3431 18.6569C15.2243 17.538 14.4624 16.1126 14.1537 14.5607C13.845 13.0089 14.0035 11.4003 14.609 9.93853C15.2145 8.47672 16.2398 7.22729 17.5554 6.34824C18.871 5.46919 20.4177 5 22 5C24.121 5.00232 26.1545 5.84591 27.6543 7.3457C29.1541 8.84549 29.9977 10.879 30 13ZM10 5H8C7.46957 5 6.96086 5.21071 6.58579 5.58579C6.21071 5.96086 6 6.46957 6 7V26C6 26.5304 6.21071 27.0391 6.58579 27.4142C6.96086 27.7893 7.46957 28 8 28H10C10.5304 28 11.0391 27.7893 11.4142 27.4142C11.7893 27.0391 12 26.5304 12 26V7C12 6.46957 11.7893 5.96086 11.4142 5.58579C11.0391 5.21071 10.5304 5 10 5Z" fill="#4A4A4F"/>
</svg>
