<svg width="32" height="32" viewBox="0 0 32 32" fill="none" xmlns="http://www.w3.org/2000/svg">
<path d="M26.5 10C25.8078 10 25.1311 10.2053 24.5555 10.5899C23.9799 10.9744 23.5313 11.5211 23.2664 12.1606C23.0015 12.8002 22.9322 13.5039 23.0673 14.1828C23.2023 14.8618 23.5356 15.4854 24.0251 15.9749C24.5146 16.4644 25.1383 16.7977 25.8172 16.9327C26.4961 17.0678 27.1999 16.9985 27.8394 16.7336C28.4789 16.4687 29.0256 16.0201 29.4101 15.4445C29.7947 14.8689 30 14.1922 30 13.5C30 12.5717 29.6313 11.6815 28.9749 11.0251C28.3185 10.3688 27.4283 10 26.5 10ZM26.5 15C26.2033 15 25.9133 14.912 25.6666 14.7472C25.42 14.5824 25.2277 14.3481 25.1142 14.074C25.0007 13.7999 24.9709 13.4983 25.0288 13.2074C25.0867 12.9164 25.2296 12.6491 25.4393 12.4393C25.6491 12.2296 25.9164 12.0867 26.2074 12.0288C26.4983 11.9709 26.7999 12.0007 27.074 12.1142C27.3481 12.2277 27.5824 12.42 27.7472 12.6666C27.912 12.9133 28 13.2033 28 13.5C28 13.8978 27.842 14.2794 27.5607 14.5607C27.2794 14.842 26.8978 15 26.5 15ZM9 13.5C9 12.8078 8.79473 12.1311 8.41015 11.5555C8.02556 10.9799 7.47894 10.5313 6.83939 10.2664C6.19985 10.0015 5.49612 9.9322 4.81719 10.0673C4.13825 10.2023 3.51461 10.5356 3.02513 11.0251C2.53564 11.5146 2.2023 12.1383 2.06725 12.8172C1.9322 13.4961 2.00152 14.1999 2.26642 14.8394C2.53133 15.4789 2.97993 16.0256 3.55551 16.4101C4.13108 16.7947 4.80777 17 5.5 17C6.42826 17 7.3185 16.6313 7.97487 15.9749C8.63125 15.3185 9 14.4283 9 13.5ZM5.5 15C5.20333 15 4.91332 14.912 4.66665 14.7472C4.41997 14.5824 4.22771 14.3481 4.11418 14.074C4.00065 13.7999 3.97095 13.4983 4.02882 13.2074C4.0867 12.9164 4.22956 12.6491 4.43934 12.4393C4.64912 12.2296 4.91639 12.0867 5.20737 12.0288C5.49834 11.9709 5.79994 12.0007 6.07403 12.1142C6.34812 12.2277 6.58238 12.42 6.74721 12.6666C6.91203 12.9133 7 13.2033 7 13.5C7 13.8978 6.84197 14.2794 6.56066 14.5607C6.27936 14.842 5.89783 15 5.5 15ZM11.5 11C12.1922 11 12.8689 10.7947 13.4445 10.4101C14.0201 10.0256 14.4687 9.47893 14.7336 8.83939C14.9985 8.19985 15.0678 7.49612 14.9328 6.81719C14.7977 6.13825 14.4644 5.51461 13.9749 5.02513C13.4854 4.53564 12.8618 4.2023 12.1828 4.06725C11.5039 3.9322 10.8002 4.00152 10.1606 4.26642C9.52107 4.53133 8.97444 4.97993 8.58986 5.55551C8.20527 6.13108 8 6.80777 8 7.5C8 8.42826 8.36875 9.3185 9.02513 9.97487C9.68151 10.6313 10.5717 11 11.5 11ZM11.5 6C11.7967 6 12.0867 6.08798 12.3334 6.2528C12.58 6.41762 12.7723 6.65189 12.8858 6.92598C12.9994 7.20007 13.0291 7.50167 12.9712 7.79264C12.9133 8.08361 12.7704 8.35088 12.5607 8.56066C12.3509 8.77044 12.0836 8.9133 11.7926 8.97118C11.5017 9.02906 11.2001 8.99935 10.926 8.88582C10.6519 8.77229 10.4176 8.58003 10.2528 8.33336C10.088 8.08668 10 7.79667 10 7.5C10 7.10218 10.158 6.72065 10.4393 6.43934C10.7206 6.15804 11.1022 6 11.5 6ZM20.5 11C21.1922 11 21.8689 10.7947 22.4445 10.4101C23.0201 10.0256 23.4687 9.47893 23.7336 8.83939C23.9985 8.19985 24.0678 7.49612 23.9328 6.81719C23.7977 6.13825 23.4644 5.51461 22.9749 5.02513C22.4854 4.53564 21.8618 4.2023 21.1828 4.06725C20.5039 3.9322 19.8002 4.00152 19.1606 4.26642C18.5211 4.53133 17.9744 4.97993 17.5899 5.55551C17.2053 6.13108 17 6.80777 17 7.5C17 8.42826 17.3687 9.3185 18.0251 9.97487C18.6815 10.6313 19.5717 11 20.5 11ZM20.5 6C20.7967 6 21.0867 6.08798 21.3334 6.2528C21.58 6.41762 21.7723 6.65189 21.8858 6.92598C21.9994 7.20007 22.0291 7.50167 21.9712 7.79264C21.9133 8.08361 21.7704 8.35088 21.5607 8.56066C21.3509 8.77044 21.0836 8.9133 20.7926 8.97118C20.5017 9.02906 20.2001 8.99935 19.926 8.88582C19.6519 8.77229 19.4176 8.58003 19.2528 8.33336C19.088 8.08668 19 7.79667 19 7.5C19 7.10218 19.158 6.72065 19.4393 6.43934C19.7206 6.15804 20.1022 6 20.5 6ZM23.39 18.6075C22.8821 18.3273 22.4344 17.9497 22.0725 17.4962C21.7107 17.0428 21.4418 16.5225 21.2813 15.965C20.9488 14.8216 20.2541 13.8169 19.3018 13.102C18.3494 12.3872 17.1908 12.0007 16 12.0007C14.8092 12.0007 13.6506 12.3872 12.6982 13.102C11.7459 13.8169 11.0512 14.8216 10.7188 15.965C10.3976 17.0867 9.6446 18.0352 8.625 18.6025C7.6469 19.1318 6.87316 19.972 6.42616 20.9903C5.97916 22.0086 5.88441 23.1469 6.15691 24.2251C6.4294 25.3033 7.05358 26.2599 7.93072 26.9436C8.80786 27.6273 9.88789 27.999 11 28C11.6665 28.0019 12.3264 27.8688 12.94 27.6088C14.8963 26.8019 17.0924 26.8019 19.0488 27.6088C20.2337 28.1241 21.5721 28.1607 22.7835 27.7109C23.9948 27.2611 24.985 26.3598 25.5464 25.1959C26.1078 24.0321 26.1968 22.6961 25.7948 21.4681C25.3928 20.24 24.5309 19.2153 23.39 18.6088V18.6075ZM21 26C20.594 26.0003 20.1921 25.9183 19.8188 25.7588C17.3695 24.7471 14.6192 24.7471 12.17 25.7588C11.4583 26.0652 10.6555 26.0844 9.92996 25.8122C9.2044 25.54 8.61231 24.9977 8.27769 24.2987C7.94308 23.5998 7.89191 22.7984 8.1349 22.0626C8.3779 21.3268 8.8962 20.7135 9.58125 20.3513C10.3178 19.9445 10.9669 19.3965 11.4916 18.7387C12.0162 18.0809 12.406 17.3261 12.6388 16.5175C12.8501 15.7895 13.2921 15.1498 13.8982 14.6945C14.5044 14.2393 15.2419 13.9932 16 13.9932C16.7581 13.9932 17.4956 14.2393 18.1018 14.6945C18.7079 15.1498 19.1499 15.7895 19.3613 16.5175C19.5947 17.3276 19.9858 18.0837 20.5119 18.7424C21.0381 19.4011 21.689 19.9495 22.4275 20.3563C23.0173 20.6726 23.4844 21.177 23.7545 21.7894C24.0245 22.4017 24.0821 23.0868 23.918 23.7357C23.7539 24.3845 23.3775 24.9598 22.8488 25.3701C22.32 25.7804 21.6693 26.0021 21 26Z" fill="#4A4A4F"/>
</svg>
