<svg width="32" height="32" viewBox="0 0 32 32" fill="none" xmlns="http://www.w3.org/2000/svg">
<path d="M30 13.5C30 14.1922 29.7947 14.8689 29.4101 15.4445C29.0256 16.0201 28.4789 16.4687 27.8394 16.7336C27.1999 16.9985 26.4961 17.0678 25.8172 16.9327C25.1383 16.7977 24.5146 16.4644 24.0251 15.9749C23.5356 15.4854 23.2023 14.8618 23.0673 14.1828C22.9322 13.5039 23.0015 12.8002 23.2664 12.1606C23.5313 11.5211 23.9799 10.9744 24.5555 10.5899C25.1311 10.2053 25.8078 10 26.5 10C27.4283 10 28.3185 10.3688 28.9749 11.0251C29.6313 11.6815 30 12.5717 30 13.5ZM9 13.5C9 12.8078 8.79473 12.1311 8.41015 11.5555C8.02556 10.9799 7.47894 10.5313 6.83939 10.2664C6.19985 10.0015 5.49612 9.9322 4.81719 10.0673C4.13825 10.2023 3.51461 10.5356 3.02513 11.0251C2.53564 11.5146 2.2023 12.1383 2.06725 12.8172C1.9322 13.4961 2.00152 14.1999 2.26642 14.8394C2.53133 15.4789 2.97993 16.0256 3.55551 16.4101C4.13108 16.7947 4.80777 17 5.5 17C6.42826 17 7.3185 16.6313 7.97487 15.9749C8.63125 15.3185 9 14.4283 9 13.5ZM11.5 11C12.1922 11 12.8689 10.7947 13.4445 10.4101C14.0201 10.0256 14.4687 9.47893 14.7336 8.83939C14.9985 8.19985 15.0678 7.49612 14.9328 6.81719C14.7977 6.13825 14.4644 5.51461 13.9749 5.02513C13.4854 4.53564 12.8618 4.2023 12.1828 4.06725C11.5039 3.9322 10.8002 4.00152 10.1606 4.26642C9.52107 4.53133 8.97444 4.97993 8.58986 5.55551C8.20527 6.13108 8 6.80777 8 7.5C8 8.42826 8.36875 9.3185 9.02513 9.97487C9.68151 10.6313 10.5717 11 11.5 11ZM20.5 11C21.1922 11 21.8689 10.7947 22.4445 10.4101C23.0201 10.0256 23.4687 9.47893 23.7336 8.83939C23.9985 8.19985 24.0678 7.49612 23.9328 6.81719C23.7977 6.13825 23.4644 5.51461 22.9749 5.02513C22.4854 4.53564 21.8618 4.2023 21.1828 4.06725C20.5039 3.9322 19.8002 4.00152 19.1606 4.26642C18.5211 4.53133 17.9744 4.97993 17.5899 5.55551C17.2053 6.13108 17 6.80777 17 7.5C17 8.42826 17.3687 9.3185 18.0251 9.97487C18.6815 10.6313 19.5717 11 20.5 11ZM23.39 18.6075C22.8821 18.3273 22.4344 17.9497 22.0725 17.4962C21.7107 17.0428 21.4418 16.5225 21.2813 15.965C20.9488 14.8216 20.2541 13.8169 19.3018 13.102C18.3494 12.3872 17.1908 12.0007 16 12.0007C14.8092 12.0007 13.6506 12.3872 12.6982 13.102C11.7459 13.8169 11.0512 14.8216 10.7188 15.965C10.3976 17.0867 9.6446 18.0352 8.625 18.6025C7.6469 19.1318 6.87316 19.972 6.42616 20.9903C5.97916 22.0086 5.88441 23.1469 6.15691 24.2251C6.4294 25.3033 7.05358 26.2599 7.93072 26.9436C8.80786 27.6273 9.88789 27.999 11 28C11.6665 28.0019 12.3264 27.8688 12.94 27.6088C14.8963 26.8019 17.0924 26.8019 19.0488 27.6088C20.2337 28.1241 21.5721 28.1607 22.7835 27.7109C23.9948 27.2611 24.985 26.3598 25.5464 25.1959C26.1078 24.0321 26.1968 22.6961 25.7948 21.4681C25.3928 20.24 24.5309 19.2153 23.39 18.6088V18.6075Z" fill="#4A4A4F"/>
</svg>
