<svg width="32" height="32" viewBox="0 0 32 32" fill="none" xmlns="http://www.w3.org/2000/svg">
<path d="M27.5152 11.6925C26.844 10.8299 25.9795 10.1371 24.9914 9.67C24.9066 7.87278 24.133 6.17724 22.8312 4.93526C21.5294 3.69328 19.7994 3.00025 18.0002 3H10.5002C10.0542 3.00007 9.62102 3.1492 9.26952 3.4237C8.91801 3.69821 8.66834 4.08232 8.56019 4.515L4.06019 22.515C3.98649 22.8098 3.98095 23.1176 4.04399 23.4149C4.10703 23.7122 4.23699 23.9912 4.42401 24.2307C4.61102 24.4703 4.85016 24.6641 5.12327 24.7974C5.39639 24.9307 5.69628 25 6.00019 25H9.43769L9.06269 26.515C8.98904 26.8096 8.98346 27.1172 9.04636 27.4143C9.10927 27.7114 9.239 27.9902 9.42574 28.2297C9.61247 28.4692 9.85129 28.6631 10.1241 28.7965C10.3969 28.93 10.6965 28.9996 11.0002 29H14.9377C15.3832 28.9994 15.8158 28.85 16.1668 28.5755C16.5178 28.3011 16.7671 27.9173 16.8752 27.485L18.0002 23H22.0002C23.3116 23 24.5967 22.6315 25.709 21.9366C26.8212 21.2417 27.7158 20.2483 28.291 19.0697C28.8661 17.8911 29.0985 16.5746 28.9618 15.2703C28.8251 13.9659 28.3247 12.7263 27.5177 11.6925H27.5152ZM6.00019 23L10.5002 5H18.0002C19.1636 4.99967 20.2908 5.40508 21.1875 6.14638C22.0841 6.88769 22.6943 7.9185 22.9127 9.06125C22.6101 9.02131 22.3053 9.00085 22.0002 9H15.0002C14.554 8.99979 14.1205 9.1488 13.7688 9.42332C13.417 9.69784 13.1671 10.0821 13.0589 10.515L9.94019 23H6.00019ZM22.8752 11.0775C22.8652 11.1225 22.8564 11.1675 22.8452 11.2125C22.5762 12.294 21.9531 13.2544 21.0751 13.9408C20.1971 14.6272 19.1146 15 18.0002 15H14.0002L15.0002 11H22.0002C22.2936 11.0002 22.5864 11.0261 22.8752 11.0775ZM26.8452 17.2125C26.5762 18.294 25.9531 19.2544 25.0751 19.9408C24.1971 20.6272 23.1146 21 22.0002 21H18.0002C17.5542 21.0001 17.121 21.1492 16.7695 21.4237C16.418 21.6982 16.1683 22.0823 16.0602 22.515L14.9352 27H11.0002L13.5002 17H18.0002C19.5378 17.0004 21.0326 16.4937 22.253 15.5583C23.4733 14.6229 24.3511 13.3111 24.7502 11.8263C25.2017 12.1254 25.6018 12.4956 25.9352 12.9225C26.4056 13.52 26.7325 14.2175 26.8907 14.9613C27.0489 15.7051 27.0342 16.4753 26.8477 17.2125H26.8452Z" fill="#4A4A4F"/>
</svg>
