<svg width="32" height="32" viewBox="0 0 32 32" fill="none" xmlns="http://www.w3.org/2000/svg">
<path d="M16 3C13.4288 3 10.9154 3.76244 8.77759 5.1909C6.63975 6.61935 4.97351 8.64968 3.98957 11.0251C3.00563 13.4006 2.74819 16.0144 3.2498 18.5362C3.75141 21.0579 4.98953 23.3743 6.80762 25.1924C8.6257 27.0105 10.9421 28.2486 13.4638 28.7502C15.9856 29.2518 18.5995 28.9944 20.9749 28.0104C23.3503 27.0265 25.3807 25.3603 26.8091 23.2224C28.2376 21.0846 29 18.5712 29 16C28.9964 12.5533 27.6256 9.24882 25.1884 6.81163C22.7512 4.37445 19.4467 3.00364 16 3ZM27 16C27.0022 17.9169 26.5004 19.8007 25.545 21.4625L17 15.48V5.04625C19.7316 5.29875 22.2707 6.56156 24.1202 8.58752C25.9698 10.6135 26.9967 13.2568 27 16ZM15 5.04625V15.48L6.45501 21.4625C5.5403 19.8635 5.0418 18.0605 5.00524 16.2187C4.96869 14.377 5.39524 12.5555 6.24577 10.9215C7.09631 9.28754 8.34357 7.8933 9.87314 6.86676C11.4027 5.84021 13.1656 5.21423 15 5.04625ZM7.60501 23.0987L15 17.9212V26.9538C12.124 26.6912 9.46719 25.3062 7.60501 23.0987ZM17 26.9538V17.9212L24.395 23.0987C22.5328 25.3062 19.876 26.6912 17 26.9538Z" fill="#4A4A4F"/>
</svg>
