<svg width="32" height="32" viewBox="0 0 32 32" fill="none" xmlns="http://www.w3.org/2000/svg">
<path d="M17 17.9212L22.75 21.9463C21.2738 23.6274 19.2234 24.6972 17 24.9463V17.9212ZM7.00001 16C6.99857 17.5064 7.37735 18.9889 8.10126 20.31L15 15.48V7.0575C12.8011 7.30556 10.7703 8.35415 9.29493 10.0034C7.81952 11.6526 7.00264 13.7871 7.00001 16ZM15 24.9425V17.9212L9.25001 21.9463C10.7268 23.626 12.7771 24.6945 15 24.9425ZM17 7.0575V15.48L23.8988 20.31C24.6054 19.014 24.9825 17.5641 24.9967 16.088C25.0109 14.612 24.6618 13.1551 23.9802 11.8457C23.2986 10.5364 22.3054 9.4148 21.0882 8.57979C19.8709 7.74478 18.4669 7.22199 17 7.0575ZM29 16C29 18.5712 28.2376 21.0846 26.8091 23.2224C25.3807 25.3603 23.3503 27.0265 20.9749 28.0104C18.5995 28.9944 15.9856 29.2518 13.4638 28.7502C10.9421 28.2486 8.6257 27.0105 6.80762 25.1924C4.98953 23.3743 3.75141 21.0579 3.2498 18.5362C2.74819 16.0144 3.00563 13.4006 3.98957 11.0251C4.97351 8.64968 6.63975 6.61935 8.77759 5.1909C10.9154 3.76244 13.4288 3 16 3C19.4467 3.00364 22.7512 4.37445 25.1884 6.81163C27.6256 9.24882 28.9964 12.5533 29 16ZM27 16C27 13.8244 26.3549 11.6977 25.1462 9.88873C23.9375 8.07979 22.2195 6.66989 20.2095 5.83733C18.1995 5.00476 15.9878 4.78692 13.854 5.21136C11.7202 5.6358 9.76021 6.68345 8.22183 8.22183C6.68345 9.7602 5.63581 11.7202 5.21137 13.854C4.78693 15.9878 5.00477 18.1995 5.83733 20.2095C6.66989 22.2195 8.07979 23.9375 9.88873 25.1462C11.6977 26.3549 13.8244 27 16 27C18.9164 26.9967 21.7123 25.8367 23.7745 23.7745C25.8367 21.7123 26.9967 18.9164 27 16Z" fill="#4A4A4F"/>
</svg>
