<svg width="32" height="32" viewBox="0 0 32 32" fill="none" xmlns="http://www.w3.org/2000/svg">
<path d="M28.415 9.17144L22.8288 3.58644C22.643 3.40067 22.4225 3.25331 22.1799 3.15277C21.9372 3.05223 21.6771 3.00049 21.4144 3.00049C21.1517 3.00049 20.8916 3.05223 20.6489 3.15277C20.4062 3.25331 20.1857 3.40067 20 3.58644L4.58626 19.0002C4.39973 19.1852 4.25185 19.4055 4.15121 19.6482C4.05057 19.8909 3.99917 20.1512 4.00001 20.4139V26.0002C4.00001 26.5306 4.21072 27.0393 4.5858 27.4144C4.96087 27.7895 5.46958 28.0002 6.00001 28.0002H11.5863C11.849 28.001 12.1093 27.9496 12.352 27.849C12.5947 27.7483 12.815 27.6005 13 27.4139L23.4588 16.9564L23.8938 18.6939L19.2938 23.2927C19.1061 23.4802 19.0006 23.7345 19.0005 23.9997C19.0004 24.265 19.1057 24.5194 19.2931 24.7071C19.4806 24.8947 19.7349 25.0002 20.0002 25.0003C20.2654 25.0004 20.5199 24.8952 20.7075 24.7077L25.7075 19.7077C25.8298 19.5856 25.9184 19.4339 25.9646 19.2675C26.0108 19.101 26.0131 18.9253 25.9713 18.7577L25.1088 15.3064L28.415 12.0002C28.6008 11.8145 28.7481 11.594 28.8487 11.3513C28.9492 11.1086 29.001 10.8485 29.001 10.5858C29.001 10.3231 28.9492 10.063 28.8487 9.82034C28.7481 9.57766 28.6008 9.35716 28.415 9.17144ZM24 13.5864L18.415 8.00019L21.415 5.00019L27 10.5864L24 13.5864Z" fill="#4A4A4F"/>
</svg>
