<svg width="32" height="32" viewBox="0 0 32 32" fill="none" xmlns="http://www.w3.org/2000/svg">
<path d="M26.7413 26.3277C26.8314 26.4245 26.9015 26.5383 26.9473 26.6625C26.9932 26.7866 27.014 26.9186 27.0085 27.0508C27.0029 27.183 26.9712 27.3128 26.9152 27.4327C26.8591 27.5526 26.7798 27.6601 26.6819 27.7491C26.5839 27.8381 26.4693 27.9068 26.3446 27.9512C26.22 27.9955 26.0877 28.0147 25.9556 28.0076C25.8235 28.0005 25.694 27.9672 25.5749 27.9097C25.4557 27.8523 25.3491 27.7717 25.2613 27.6727L19.3 21.1152L13 27.4139C12.815 27.6005 12.5947 27.7483 12.352 27.849C12.1093 27.9496 11.849 28.001 11.5863 28.0002H6.00001C5.46958 28.0002 4.96087 27.7895 4.5858 27.4144C4.21072 27.0393 4.00001 26.5306 4.00001 26.0002V20.4139C3.99921 20.1513 4.05051 19.8911 4.15092 19.6485C4.25134 19.4058 4.39888 19.1855 4.58501 19.0002L11.285 12.3002L5.26001 5.67519C5.08132 5.47893 4.98791 5.21972 5.00034 4.95459C5.01276 4.68946 5.13 4.44013 5.32626 4.26144C5.52252 4.08275 5.78173 3.98934 6.04685 4.00176C6.31198 4.01419 6.56132 4.13143 6.74001 4.32769L26.7413 26.3277ZM28.415 12.0002L22.875 17.5427C22.7821 17.6355 22.6718 17.7091 22.5504 17.7593C22.429 17.8095 22.2989 17.8353 22.1675 17.8352H22.1438C22.0084 17.8319 21.8752 17.8012 21.752 17.7449C21.6289 17.6886 21.5185 17.6079 21.4275 17.5077L14.7588 10.1752C14.5873 9.98534 14.495 9.73698 14.5011 9.48121C14.5071 9.22544 14.611 8.98172 14.7913 8.80019L20 3.58644C20.1857 3.40067 20.4062 3.25331 20.6489 3.15277C20.8916 3.05223 21.1517 3.00049 21.4144 3.00049C21.6771 3.00049 21.9372 3.05223 22.1799 3.15277C22.4225 3.25331 22.643 3.40067 22.8288 3.58644L28.415 9.17144C28.6008 9.35716 28.7481 9.57766 28.8487 9.82034C28.9492 10.063 29.001 10.3231 29.001 10.5858C29.001 10.8485 28.9492 11.1086 28.8487 11.3513C28.7481 11.594 28.6008 11.8145 28.415 12.0002ZM27 10.5864L21.415 5.00019L18.415 8.00019L24 13.5864L27 10.5864Z" fill="#4A4A4F"/>
</svg>
