<svg width="32" height="32" viewBox="0 0 32 32" fill="none" xmlns="http://www.w3.org/2000/svg">
<path d="M25.1927 6.80766C22.7547 4.36966 19.448 3 16.0002 3C12.5523 3 9.24566 4.36966 6.80766 6.80766C4.36966 9.24566 3 12.5523 3 16.0002C3 19.448 4.36966 22.7547 6.80766 25.1927C9.24566 27.6307 12.5523 29.0003 16.0002 29.0003C19.448 29.0003 22.7547 27.6307 25.1927 25.1927C27.6307 22.7547 29.0003 19.448 29.0003 16.0002C29.0003 12.5523 27.6307 9.24566 25.1927 6.80766ZM16.0002 21.3589C15.5083 20.7984 14.8692 20.3868 14.1554 20.171C13.4415 19.9551 12.6815 19.9436 11.9614 20.1377L13.8752 16.0002H18.1252L20.0339 20.1377C19.3146 19.9446 18.5555 19.9566 17.8427 20.1725C17.1298 20.3883 16.4916 20.7993 16.0002 21.3589ZM21.0002 25.7964C19.7523 26.4317 18.3947 26.8228 17.0002 26.9489V24.0002C17.0002 23.4697 17.2109 22.961 17.5859 22.5859C17.961 22.2109 18.4697 22.0002 19.0002 22.0002C19.5306 22.0002 20.0393 22.2109 20.4144 22.5859C20.7894 22.961 21.0002 23.4697 21.0002 24.0002V25.7964ZM23.7777 23.7789C23.5277 24.0289 23.2677 24.2627 23.0002 24.4839V22.0002C23.0003 21.8555 22.9688 21.7125 22.9077 21.5814L16.9077 8.58141C16.8275 8.40822 16.6995 8.26159 16.5387 8.15883C16.3778 8.05607 16.191 8.00146 16.0002 8.00146C15.8093 8.00146 15.6225 8.05607 15.4617 8.15883C15.3009 8.26159 15.1728 8.40822 15.0927 8.58141L9.09266 21.5814C9.03156 21.7125 8.99999 21.8555 9.00016 22.0002V24.4839C8.73266 24.2627 8.47266 24.0289 8.22266 23.7789C6.68409 22.2406 5.63625 20.2806 5.21166 18.1468C4.78707 16.0129 5.00479 13.8011 5.8373 11.791C6.66981 9.78088 8.07971 8.06281 9.88869 6.85403C11.6977 5.64525 13.8245 5.00006 16.0002 5.00006C18.1758 5.00006 20.3026 5.64525 22.1116 6.85403C23.9206 8.06281 25.3305 9.78088 26.163 11.791C26.9955 13.8011 27.2132 16.0129 26.7887 18.1468C26.3641 20.2806 25.3162 22.2406 23.7777 23.7789Z" fill="#4A4A4F"/>
</svg>
