<svg width="32" height="32" viewBox="0 0 32 32" fill="none" xmlns="http://www.w3.org/2000/svg">
<path d="M27.7913 15.4862C27.7838 15.47 27.7763 15.4538 27.7676 15.4388L24.0001 8.73875V4C24.0001 3.46957 23.7893 2.96086 23.4143 2.58579C23.0392 2.21071 22.5305 2 22.0001 2H10.0001C9.46962 2 8.96091 2.21071 8.58584 2.58579C8.21077 2.96086 8.00005 3.46957 8.00005 4V8.7375L4.23256 15.4388C4.22381 15.4538 4.2163 15.47 4.20755 15.4862C4.04433 15.8148 3.975 16.1821 4.0072 16.5476C4.0394 16.913 4.17189 17.2625 4.39005 17.5575L4.4038 17.575L14.1051 30.1763C14.1687 30.2583 14.2563 30.3184 14.3556 30.3484C14.455 30.3784 14.5612 30.3767 14.6596 30.3436C14.758 30.3105 14.8436 30.2476 14.9046 30.1636C14.9656 30.0797 14.999 29.9788 15.0001 29.875V19.3288C14.3328 19.0929 13.7705 18.6287 13.4124 18.0183C13.0543 17.4079 12.9236 16.6905 13.0433 15.993C13.1629 15.2955 13.5253 14.6628 14.0664 14.2066C14.6075 13.7505 15.2924 13.5003 16.0001 13.5003C16.7077 13.5003 17.3926 13.7505 17.9337 14.2066C18.4748 14.6628 18.8372 15.2955 18.9569 15.993C19.0765 16.6905 18.9458 17.4079 18.5877 18.0183C18.2296 18.6287 17.6673 19.0929 17.0001 19.3288V29.875C17.0004 29.9791 17.0332 30.0805 17.0939 30.1651C17.1546 30.2496 17.2402 30.3131 17.3388 30.3467C17.4373 30.3803 17.5439 30.3823 17.6436 30.3524C17.7433 30.3225 17.8312 30.2622 17.8951 30.18L27.5951 17.5788L27.6088 17.5613C27.828 17.266 27.961 16.9158 27.9932 16.5495C28.0254 16.1833 27.9556 15.8152 27.7913 15.4862ZM22.0001 8H10.0001V4H22.0001V8Z" fill="#4A4A4F"/>
</svg>
