<svg width="32" height="32" viewBox="0 0 32 32" fill="none" xmlns="http://www.w3.org/2000/svg">
<path d="M29.4137 11.17L20.8287 2.58497C20.643 2.39921 20.4225 2.25185 20.1798 2.15131C19.9371 2.05077 19.677 1.99902 19.4143 1.99902C19.1516 1.99902 18.8915 2.05077 18.6489 2.15131C18.4062 2.25185 18.1857 2.39921 17.9999 2.58497L14.4449 6.13997L7.19495 8.85997C6.86551 8.98255 6.5742 9.18979 6.35036 9.46081C6.12652 9.73183 5.97807 10.0571 5.91995 10.4037L3.3237 25.9787C3.30629 26.0832 3.32249 26.1904 3.36995 26.2851C3.41741 26.3797 3.49369 26.4568 3.58779 26.5053C3.6819 26.5539 3.78897 26.5712 3.89359 26.555C3.99821 26.5388 4.09498 26.4897 4.16995 26.415L11.2949 19.29C11.0692 18.8203 10.9705 18.2997 11.0087 17.78C11.0552 17.1406 11.3052 16.533 11.7222 16.0461C12.1392 15.5592 12.7012 15.2187 13.3258 15.0744C13.9504 14.9302 14.6048 14.9898 15.193 15.2446C15.7812 15.4993 16.2724 15.9358 16.5945 16.49C16.9167 17.0442 17.0528 17.6871 16.9829 18.3243C16.9131 18.9615 16.641 19.5596 16.2065 20.0309C15.772 20.5023 15.1979 20.822 14.5685 20.9433C13.939 21.0646 13.2872 20.9811 12.7087 20.705L5.5837 27.83C5.50894 27.9049 5.45991 28.0017 5.44367 28.1063C5.42743 28.2109 5.44482 28.318 5.49333 28.4121C5.54184 28.5062 5.61897 28.5825 5.71361 28.63C5.80825 28.6774 5.91551 28.6936 6.01995 28.6762L21.5962 26.08C21.9423 26.0223 22.2672 25.8746 22.5381 25.6517C22.8091 25.4288 23.0166 25.1385 23.1399 24.81L25.8612 17.5512L29.4137 14C29.5995 13.8142 29.7468 13.5937 29.8474 13.3511C29.9479 13.1084 29.9996 12.8483 29.9996 12.5856C29.9996 12.3229 29.9479 12.0628 29.8474 11.8201C29.7468 11.5774 29.5995 11.3569 29.4137 11.1712V11.17ZM24.9999 15.585L16.4149 6.99997L19.4149 3.99997L27.9999 12.585L24.9999 15.585Z" fill="#4A4A4F"/>
</svg>
