<svg width="32" height="32" viewBox="0 0 32 32" fill="none" xmlns="http://www.w3.org/2000/svg">
<path d="M7.31011 16.8413L2.83261 13.6251C2.48851 13.3782 2.23166 13.0284 2.09908 12.6262C1.96649 12.224 1.965 11.7901 2.09483 11.387C2.22467 10.9838 2.47911 10.6323 2.82152 10.3831C3.16392 10.1339 3.5766 9.99975 4.00011 10.0001H9.53011L7.31011 16.8413ZM6.64386 25.3751C6.50906 25.7767 6.5074 26.2111 6.63914 26.6138C6.77087 27.0164 7.02898 27.3658 7.37511 27.6101C7.71434 27.862 8.12568 27.9981 8.54824 27.9981C8.9708 27.9981 9.38213 27.862 9.72136 27.6101L14.2876 24.3251L8.36761 20.0651L6.64386 25.3751ZM17.9039 2.40758C17.7793 2.00042 17.5274 1.64392 17.1853 1.39041C16.8432 1.1369 16.4288 0.999725 16.003 0.999026C15.5772 0.998327 15.1624 1.13414 14.8195 1.38652C14.4766 1.63891 14.2235 1.99458 14.0976 2.40133L12.2814 8.00008H19.7189L17.9039 2.40758ZM20.3676 10.0001H11.6326L9.01511 18.0676L16.0001 23.0938L22.9851 18.0676L20.3676 10.0001ZM29.8976 11.3826C29.7717 10.9789 29.5192 10.6265 29.1775 10.3775C28.8357 10.1286 28.4229 9.99621 28.0001 10.0001H22.4701L24.6901 16.8426L29.1714 13.6176C29.517 13.3727 29.7744 13.0228 29.9053 12.6199C30.0361 12.217 30.0334 11.7826 29.8976 11.3813V11.3826ZM23.6326 20.0663L17.7126 24.3251L22.2789 27.6101C22.6205 27.8581 23.0318 27.9916 23.454 27.9915C23.8761 27.9915 24.2874 27.8579 24.629 27.6098C24.9706 27.3617 25.2249 27.012 25.3555 26.6106C25.4862 26.2091 25.4865 25.7767 25.3564 25.3751L23.6326 20.0663Z" fill="#4A4A4F"/>
</svg>
