<svg width="32" height="32" viewBox="0 0 32 32" fill="none" xmlns="http://www.w3.org/2000/svg">
<path d="M20.909 5.0525C20.6875 3.91264 20.0768 2.88517 19.1814 2.14592C18.2859 1.40667 17.1614 1.00159 16.0002 1C15.735 1 15.4806 1.10536 15.2931 1.29289C15.1056 1.48043 15.0002 1.73478 15.0002 2C15.0002 2.26522 15.1056 2.51957 15.2931 2.70711C15.4806 2.89464 15.735 3 16.0002 3C16.6355 3 17.2543 3.20165 17.7676 3.5759C18.2809 3.95016 18.6622 4.47769 18.8565 5.0825C16.9536 5.35948 15.2138 6.31177 13.955 7.76542C12.6962 9.21907 12.0024 11.0771 12.0002 13C12.0002 18.8438 8.78147 22.75 2.43397 24.625C1.99979 24.7516 1.62132 25.0215 1.36032 25.3909C1.09932 25.7602 0.971206 26.2071 0.996879 26.6586C1.02255 27.1101 1.2005 27.5396 1.50168 27.877C1.80286 28.2144 2.20949 28.4397 2.65522 28.5163C4.534 28.841 6.43733 29.0029 8.34397 29C13.4415 29 19.114 27.8562 23.0352 24.5675C26.3302 21.805 28.0002 17.9125 28.0002 13C27.9981 11.0363 27.2746 9.14179 25.9673 7.67655C24.6599 6.21131 22.8598 5.27747 20.909 5.0525ZM24.0002 11.875L20.4477 10.1038C20.3088 10.0342 20.1556 9.99803 20.0002 9.99803C19.8449 9.99803 19.6917 10.0342 19.5527 10.1038L16.0002 11.875L14.329 11.04C14.7365 9.86018 15.5018 8.83682 16.5183 8.11246C17.5349 7.3881 18.752 6.99881 20.0002 6.99881C21.2484 6.99881 22.4656 7.3881 23.4821 8.11246C24.4987 8.83682 25.264 9.86018 25.6715 11.04L24.0002 11.875Z" fill="#4A4A4F"/>
</svg>
