<svg width="32" height="32" viewBox="0 0 32 32" fill="none" xmlns="http://www.w3.org/2000/svg">
<path d="M25.7073 7.70521L7.7073 25.7052C7.51966 25.8929 7.26517 25.9983 6.9998 25.9983C6.73444 25.9983 6.47995 25.8929 6.2923 25.7052C6.10466 25.5176 5.99925 25.2631 5.99925 24.9977C5.99925 24.7324 6.10466 24.4779 6.2923 24.2902L24.2923 6.29021C24.4798 6.10257 24.7341 5.99709 24.9994 5.99698C25.2646 5.99686 25.519 6.10211 25.7067 6.28959C25.8943 6.47706 25.9998 6.7314 25.9999 6.99665C26 7.26189 25.8948 7.51632 25.7073 7.70396V7.70521ZM6.3173 12.6802C5.47342 11.8362 4.99939 10.6915 4.99951 9.4979C4.99963 8.30435 5.47388 7.15973 6.31793 6.31584C7.16198 5.47195 8.30669 4.99793 9.50025 4.99805C10.6938 4.99816 11.8384 5.47241 12.6823 6.31646C13.5262 7.16052 14.0002 8.30523 14.0001 9.49878C14 10.6923 13.5257 11.837 12.6817 12.6808C11.8376 13.5247 10.6929 13.9987 9.49936 13.9986C8.30581 13.9985 7.16119 13.5243 6.3173 12.6802ZM6.9998 9.50021C7.00013 9.91127 7.10181 10.3159 7.29583 10.6783C7.48986 11.0407 7.77026 11.3496 8.11218 11.5778C8.45411 11.806 8.84702 11.9463 9.25612 11.9863C9.66523 12.0264 10.0779 11.965 10.4576 11.8075C10.8373 11.65 11.1723 11.4013 11.4329 11.0835C11.6936 10.7656 11.8718 10.3884 11.9519 9.98521C12.032 9.58203 12.0114 9.16532 11.892 8.77199C11.7726 8.37865 11.558 8.02083 11.2673 7.73021C10.9175 7.38054 10.4719 7.14247 9.98677 7.04613C9.50166 6.94979 8.99886 6.99951 8.54201 7.189C8.08516 7.37848 7.69478 7.69922 7.42026 8.11063C7.14574 8.52204 6.99942 9.00563 6.9998 9.50021ZM26.9998 22.5002C26.9996 23.5413 26.6384 24.5501 25.9777 25.3547C25.3171 26.1593 24.3979 26.71 23.3768 26.9129C22.3556 27.1158 21.2958 26.9583 20.3777 26.4674C19.4596 25.9764 18.7402 25.1823 18.342 24.2204C17.9438 23.2585 17.8914 22.1883 18.1938 21.1921C18.4962 20.1959 19.1347 19.3354 20.0004 18.7571C20.8661 18.1789 21.9056 17.9187 22.9417 18.0209C23.9777 18.1231 24.9463 18.5814 25.6823 19.3177C26.1015 19.7347 26.4338 20.2307 26.6599 20.777C26.8861 21.3233 27.0016 21.909 26.9998 22.5002ZM24.9998 22.5002C24.9999 21.9218 24.7995 21.3613 24.4327 20.9141C24.0658 20.4669 23.5553 20.1608 22.988 20.0478C22.4208 19.9349 21.8319 20.0221 21.3217 20.2947C20.8116 20.5672 20.4117 21.0082 20.1903 21.5426C19.9688 22.0769 19.9395 22.6715 20.1073 23.225C20.2751 23.7785 20.6297 24.2567 21.1105 24.5781C21.5914 24.8995 22.1688 25.0443 22.7445 24.9877C23.3201 24.9311 23.8583 24.6766 24.2673 24.2677C24.5002 24.0362 24.6848 23.7607 24.8106 23.4573C24.9363 23.1539 25.0006 22.8286 24.9998 22.5002Z" fill="#4A4A4F"/>
</svg>
