<svg width="32" height="32" viewBox="0 0 32 32" fill="none" xmlns="http://www.w3.org/2000/svg">
<path d="M15.9999 11C16.791 11 17.5644 10.7654 18.2222 10.3259C18.88 9.88635 19.3927 9.26164 19.6954 8.53074C19.9982 7.79983 20.0774 6.99556 19.9231 6.21964C19.7687 5.44372 19.3878 4.73098 18.8283 4.17157C18.2689 3.61216 17.5562 3.2312 16.7803 3.07686C16.0044 2.92252 15.2001 3.00173 14.4692 3.30448C13.7383 3.60723 13.1136 4.11992 12.674 4.77772C12.2345 5.43552 11.9999 6.20888 11.9999 7C11.9999 8.06087 12.4213 9.07828 13.1715 9.82843C13.9216 10.5786 14.9391 11 15.9999 11ZM15.9999 5C16.3955 5 16.7822 5.1173 17.1111 5.33706C17.44 5.55683 17.6963 5.86918 17.8477 6.23463C17.9991 6.60009 18.0387 7.00222 17.9615 7.39018C17.8843 7.77814 17.6938 8.13451 17.4141 8.41422C17.1344 8.69392 16.7781 8.8844 16.3901 8.96157C16.0021 9.03874 15.6 8.99914 15.2346 8.84776C14.8691 8.69639 14.5567 8.44004 14.337 8.11114C14.1172 7.78224 13.9999 7.39556 13.9999 7C13.9999 6.46957 14.2106 5.96086 14.5857 5.58579C14.9608 5.21072 15.4695 5 15.9999 5ZM5.99992 12C5.99992 11.6044 6.11722 11.2178 6.33698 10.8889C6.55674 10.56 6.8691 10.3036 7.23455 10.1522C7.60001 10.0009 8.00214 9.96126 8.3901 10.0384C8.77806 10.1156 9.13443 10.3061 9.41413 10.5858C9.69384 10.8655 9.88432 11.2219 9.96149 11.6098C10.0387 11.9978 9.99905 12.3999 9.84768 12.7654C9.6963 13.1308 9.43996 13.4432 9.11106 13.6629C8.78216 13.8827 8.39548 14 7.99992 14C7.46949 14 6.96078 13.7893 6.58571 13.4142C6.21063 13.0391 5.99992 12.5304 5.99992 12ZM27.7799 13.8263C27.6144 14.0334 27.3735 14.1663 27.11 14.1959C26.8466 14.2254 26.5821 14.1491 26.3749 13.9838C26.2312 13.8725 23.4112 11.7713 18.9599 14.06C18.9249 15.3319 18.7996 16.5996 18.5849 17.8538L22.6387 21.2288C22.7933 21.3575 22.9056 21.53 22.9606 21.7236C23.0157 21.9171 23.0111 22.1228 22.9474 22.3138L20.9474 28.3138C20.8635 28.5654 20.6831 28.7734 20.4459 28.892C20.2087 29.0106 19.934 29.0301 19.6824 28.9463C19.4308 28.8624 19.2228 28.682 19.1042 28.4447C18.9856 28.2075 18.966 27.9329 19.0499 27.6813L20.8337 22.3288L18.0737 20.0288C17.8934 20.6368 17.6806 21.2347 17.4362 21.82C15.7174 25.9125 12.6387 28.6488 8.28617 29.955C8.03433 30.0243 7.76537 29.9923 7.53681 29.8659C7.30825 29.7394 7.13823 29.5286 7.06312 29.2784C6.988 29.0282 7.01375 28.7586 7.13486 28.5272C7.25596 28.2958 7.46281 28.1209 7.71117 28.04C15.2962 25.7638 16.6037 19.0125 16.8887 15.3338C13.4999 17.485 10.8212 18 9.04492 18C8.2082 18.0028 7.37698 17.8646 6.58617 17.5913C6.37464 17.4988 6.20159 17.336 6.09641 17.1306C5.99123 16.9251 5.96038 16.6895 6.0091 16.4639C6.05782 16.2382 6.18311 16.0364 6.36371 15.8926C6.54431 15.7488 6.76909 15.6719 6.99992 15.675C7.14285 15.6748 7.28408 15.706 7.41367 15.7663C7.41367 15.7663 10.7587 17.1013 16.4374 13.2413C22.9737 8.79875 27.4374 12.27 27.6262 12.42C27.7286 12.5022 27.8139 12.6038 27.8771 12.719C27.9403 12.8342 27.9801 12.9607 27.9944 13.0913C28.0087 13.2219 27.9971 13.354 27.9603 13.4801C27.9235 13.6062 27.8622 13.7238 27.7799 13.8263Z" fill="#4A4A4F"/>
</svg>
