<svg width="32" height="32" viewBox="0 0 32 32" fill="none" xmlns="http://www.w3.org/2000/svg">
<path d="M12.5001 4.5C12.5001 3.80777 12.7054 3.13108 13.09 2.55551C13.4745 1.97993 14.0212 1.53133 14.6607 1.26642C15.3003 1.00152 16.004 0.932205 16.6829 1.06725C17.3619 1.2023 17.9855 1.53564 18.475 2.02513C18.9645 2.51461 19.2978 3.13825 19.4329 3.81719C19.5679 4.49612 19.4986 5.19985 19.2337 5.83939C18.9688 6.47894 18.5202 7.02556 17.9446 7.41015C17.369 7.79473 16.6923 8 16.0001 8C15.0718 8 14.1816 7.63125 13.5252 6.97487C12.8689 6.3185 12.5001 5.42826 12.5001 4.5ZM26.9276 17.5975L21.2714 11.185C20.9429 10.8126 20.539 10.5143 20.0864 10.31C19.6338 10.1057 19.1429 10 18.6464 10H13.3539C12.8573 10 12.3664 10.1057 11.9138 10.31C11.4612 10.5143 11.0573 10.8126 10.7289 11.185L5.07261 17.5975C4.70532 17.9733 4.50069 18.4785 4.50295 19.004C4.5052 19.5295 4.71417 20.0329 5.08466 20.4056C5.45515 20.7782 5.95741 20.99 6.48285 20.9953C7.0083 21.0006 7.5147 20.7989 7.8926 20.4338L11.1251 17.8375L8.66261 27.1975C8.44836 27.6785 8.43242 28.2245 8.61823 28.7171C8.80404 29.2098 9.17662 29.6093 9.65512 29.8289C10.1336 30.0486 10.6794 30.0707 11.1741 29.8905C11.6689 29.7103 12.0725 29.3422 12.2976 28.8663L16.0001 22.5L19.6976 28.875C19.9227 29.351 20.3264 29.719 20.8211 29.8992C21.3158 30.0795 21.8616 30.0573 22.3401 29.8377C22.8186 29.618 23.1912 29.2185 23.377 28.7259C23.5628 28.2332 23.5468 27.6872 23.3326 27.2063L20.8751 17.8375L24.1126 20.4338C24.4905 20.7989 24.9969 21.0006 25.5224 20.9953C26.0478 20.99 26.5501 20.7782 26.9206 20.4056C27.291 20.0329 27.5 19.5295 27.5023 19.004C27.5045 18.4785 27.2999 17.9733 26.9326 17.5975H26.9276Z" fill="#4A4A4F"/>
</svg>
