<svg width="32" height="32" viewBox="0 0 32 32" fill="none" xmlns="http://www.w3.org/2000/svg">
<path d="M15.0001 7C15.0001 6.20888 15.2347 5.43552 15.6742 4.77772C16.1137 4.11992 16.7384 3.60723 17.4693 3.30448C18.2002 3.00173 19.0045 2.92252 19.7804 3.07686C20.5564 3.2312 21.2691 3.61216 21.8285 4.17157C22.3879 4.73098 22.7689 5.44372 22.9232 6.21964C23.0776 6.99556 22.9983 7.79983 22.6956 8.53074C22.3928 9.26164 21.8802 9.88635 21.2224 10.3259C20.5646 10.7654 19.7912 11 19.0001 11C17.9392 11 16.9218 10.5786 16.1716 9.82843C15.4215 9.07828 15.0001 8.06087 15.0001 7ZM27.9101 16.26C27.8561 16.14 27.7789 16.0319 27.683 15.9418C27.5871 15.8518 27.4744 15.7815 27.3513 15.735C27.2282 15.6886 27.0972 15.6669 26.9657 15.6712C26.8342 15.6755 26.7049 15.7056 26.5851 15.76C26.5538 15.775 23.2463 17.1 17.5626 13.2363C11.0263 8.79375 6.56258 12.265 6.37383 12.415C6.26673 12.4955 6.17689 12.5966 6.10963 12.7125C6.04238 12.8283 5.99909 12.9565 5.98232 13.0894C5.96556 13.2223 5.97566 13.3572 6.01204 13.4861C6.04841 13.615 6.11032 13.7353 6.19408 13.8398C6.27784 13.9444 6.38174 14.031 6.49963 14.0946C6.61752 14.1582 6.74698 14.1975 6.88034 14.2101C7.01369 14.2227 7.14822 14.2084 7.27594 14.168C7.40366 14.1276 7.52196 14.062 7.62383 13.975C7.65632 13.9488 10.7638 11.5375 15.6326 14.3838C15.1013 16.0525 14.0376 18.3613 12.4763 20.2588C10.1563 23.0688 7.33757 24.3288 4.10133 24.0088C3.83727 23.9821 3.57343 24.0614 3.36784 24.2292C3.16225 24.3971 3.03176 24.6397 3.00508 24.9038C2.97839 25.1678 3.05769 25.4317 3.22553 25.6372C3.39338 25.8428 3.63602 25.9733 3.90008 26C4.288 26.0393 4.67767 26.0589 5.06758 26.0588C8.49008 26.0588 11.5676 24.5113 14.0213 21.5363C14.0926 21.45 14.1638 21.3613 14.2326 21.2738C16.6638 21.9113 21.0001 23.7875 21.0001 29C21.0001 29.2652 21.1054 29.5196 21.293 29.7071C21.4805 29.8946 21.7349 30 22.0001 30C22.2653 30 22.5196 29.8946 22.7072 29.7071C22.8947 29.5196 23.0001 29.2652 23.0001 29C23.0001 25.9188 21.7401 23.3313 19.3563 21.5175C18.1727 20.6425 16.8494 19.9743 15.4426 19.5413C16.2279 18.2663 16.8757 16.9117 17.3751 15.5C20.6426 17.5113 23.2301 18 24.9613 18C26.4838 18 27.3438 17.625 27.4201 17.59C27.5398 17.5351 27.6475 17.4571 27.7369 17.3604C27.8264 17.2638 27.8959 17.1504 27.9414 17.0268C27.9869 16.9032 28.0076 16.7719 28.0022 16.6403C27.9968 16.5087 27.9655 16.3795 27.9101 16.26Z" fill="#4A4A4F"/>
</svg>
