<svg width="32" height="32" viewBox="0 0 32 32" fill="none" xmlns="http://www.w3.org/2000/svg">
<path d="M20.0001 5C20.0001 4.20888 19.7655 3.43552 19.326 2.77772C18.8864 2.11992 18.2617 1.60723 17.5308 1.30448C16.7999 1.00173 15.9956 0.92252 15.2197 1.07686C14.4438 1.2312 13.7311 1.61216 13.1717 2.17157C12.6122 2.73098 12.2313 3.44372 12.0769 4.21964C11.9226 4.99556 12.0018 5.79983 12.3046 6.53074C12.6073 7.26164 13.12 7.88635 13.7778 8.32588C14.4356 8.76541 15.209 9 16.0001 9C17.0609 9 18.0784 8.57857 18.8285 7.82843C19.5787 7.07828 20.0001 6.06087 20.0001 5ZM16.0001 7C15.6045 7 15.2178 6.8827 14.8889 6.66294C14.56 6.44318 14.3037 6.13082 14.1523 5.76537C14.0009 5.39992 13.9613 4.99778 14.0385 4.60982C14.1157 4.22186 14.3062 3.86549 14.5859 3.58579C14.8656 3.30608 15.2219 3.1156 15.6099 3.03843C15.9979 2.96126 16.4 3.00087 16.7654 3.15224C17.1309 3.30362 17.4433 3.55996 17.663 3.88886C17.8828 4.21776 18.0001 4.60444 18.0001 5C18.0001 5.53044 17.7894 6.03914 17.4143 6.41422C17.0392 6.78929 16.5305 7 16.0001 7ZM27.2926 16.7563L21.6463 10.3538C21.2709 9.92822 20.8093 9.58743 20.292 9.35402C19.7748 9.12062 19.2138 8.99994 18.6463 9H13.3538C12.7864 8.99994 12.2254 9.12062 11.7081 9.35402C11.1909 9.58743 10.7292 9.92822 10.3538 10.3538L4.70758 16.7563C4.24905 17.2252 3.99318 17.8556 3.99513 18.5115C3.99708 19.1673 4.25669 19.7962 4.718 20.2624C5.17931 20.7286 5.80536 20.9949 6.46117 21.0038C7.11699 21.0127 7.75003 20.7635 8.22383 20.31L10.2613 18.675L8.19383 26.535C7.92 27.1392 7.89739 27.8274 8.13099 28.4483C8.36459 29.0692 8.83526 29.5718 9.43946 29.8456C10.0437 30.1195 10.7319 30.1421 11.3527 29.9085C11.9736 29.6749 12.4762 29.2042 12.7501 28.6L16.0001 22.9913L19.2501 28.6C19.5362 29.1839 20.0385 29.6334 20.6505 29.8531C21.2624 30.0728 21.936 30.0454 22.5281 29.7767C23.1202 29.5081 23.5844 29.0193 23.8221 28.4141C24.0598 27.8088 24.0524 27.1348 23.8013 26.535L21.7388 18.675L23.7763 20.31C24.2501 20.7635 24.8832 21.0127 25.539 21.0038C26.1948 20.9949 26.8209 20.7286 27.2822 20.2624C27.7435 19.7962 28.0031 19.1673 28.005 18.5115C28.007 17.8556 27.7511 17.2252 27.2926 16.7563ZM25.8538 18.8525C25.8074 18.899 25.7523 18.9359 25.6916 18.961C25.6309 18.9862 25.5658 18.9991 25.5001 18.9991C25.4344 18.9991 25.3693 18.9862 25.3086 18.961C25.2479 18.9359 25.1928 18.899 25.1463 18.8525C25.1201 18.8275 25.0938 18.8025 25.0651 18.78L20.6251 15.22C20.4612 15.0892 20.2604 15.0132 20.051 15.0028C19.8416 14.9923 19.6342 15.048 19.4581 15.1619C19.2821 15.2757 19.1463 15.4421 19.0699 15.6373C18.9935 15.8326 18.9805 16.0469 19.0326 16.25L21.8926 27.125C21.9073 27.183 21.9274 27.2395 21.9526 27.2938C21.9814 27.3534 21.9981 27.4182 22.0017 27.4844C22.0053 27.5505 21.9957 27.6167 21.9735 27.6792C21.9513 27.7416 21.9169 27.799 21.8723 27.848C21.8277 27.897 21.7738 27.9367 21.7138 27.9647C21.6537 27.9927 21.5887 28.0084 21.5225 28.0111C21.4563 28.0137 21.3902 28.0032 21.3281 27.9801C21.266 27.957 21.2091 27.9217 21.1607 27.8764C21.1124 27.8312 21.0735 27.7767 21.0463 27.7163C21.0341 27.6892 21.0203 27.6629 21.0051 27.6375L16.8651 20.5C16.7772 20.3485 16.651 20.2227 16.4992 20.1352C16.3474 20.0478 16.1753 20.0018 16.0001 20.0018C15.8249 20.0018 15.6528 20.0478 15.501 20.1352C15.3492 20.2227 15.223 20.3485 15.1351 20.5L11.0001 27.6313C10.9848 27.6567 10.9711 27.683 10.9588 27.71C10.9311 27.7696 10.8918 27.8231 10.8433 27.8675C10.7949 27.9119 10.7381 27.9463 10.6763 27.9688C10.5833 28.0028 10.4823 28.0085 10.3861 27.9851C10.2899 27.9617 10.2028 27.9103 10.1358 27.8373C10.0689 27.7643 10.0251 27.6731 10.0101 27.5752C9.99502 27.4774 10.0094 27.3772 10.0513 27.2875C10.0765 27.2332 10.0966 27.1767 10.1113 27.1188L12.9676 16.25C13.0197 16.0469 13.0066 15.8326 12.9303 15.6373C12.8539 15.4421 12.7181 15.2757 12.542 15.1619C12.366 15.048 12.1586 14.9923 11.9492 15.0028C11.7398 15.0132 11.5389 15.0892 11.3751 15.22L6.93508 18.78C6.90633 18.8025 6.88008 18.8275 6.85383 18.8525C6.80791 18.9009 6.75275 18.9397 6.69162 18.9664C6.63049 18.9932 6.56461 19.0075 6.49788 19.0084C6.43115 19.0093 6.36491 18.9968 6.30307 18.9718C6.24123 18.9467 6.18504 18.9094 6.1378 18.8623C6.09057 18.8151 6.05326 18.759 6.02806 18.6972C6.00286 18.6354 5.99028 18.5692 5.99108 18.5025C5.99187 18.4357 6.00602 18.3698 6.03268 18.3087C6.05935 18.2475 6.09799 18.1923 6.14633 18.1463C6.16133 18.1313 6.17508 18.1163 6.18883 18.1L11.8538 11.6763C12.0416 11.4636 12.2725 11.2933 12.5311 11.1767C12.7897 11.0601 13.0701 10.9999 13.3538 11H18.6463C18.93 10.9999 19.2105 11.0601 19.4691 11.1767C19.7277 11.2933 19.9586 11.4636 20.1463 11.6763L25.8113 18.1C25.8251 18.1163 25.8388 18.1313 25.8538 18.1463C25.9473 18.24 25.9999 18.367 25.9999 18.4994C25.9999 18.6318 25.9473 18.7588 25.8538 18.8525Z" fill="#4A4A4F"/>
</svg>
