<svg width="32" height="32" viewBox="0 0 32 32" fill="none" xmlns="http://www.w3.org/2000/svg">
<path d="M11.9998 7C11.9998 6.20888 12.2344 5.43552 12.6739 4.77772C13.1135 4.11992 13.7382 3.60723 14.4691 3.30448C15.2 3.00173 16.0043 2.92252 16.7802 3.07686C17.5561 3.2312 18.2688 3.61216 18.8282 4.17157C19.3877 4.73098 19.7686 5.44372 19.923 6.21964C20.0773 6.99556 19.9981 7.79983 19.6953 8.53074C19.3926 9.26164 18.8799 9.88635 18.2221 10.3259C17.5643 10.7654 16.7909 11 15.9998 11C14.939 11 13.9215 10.5786 13.1714 9.82843C12.4213 9.07828 11.9998 8.06087 11.9998 7ZM27.6248 12.42C27.4373 12.27 22.9723 8.795 16.4361 13.2413C10.7498 17.105 7.44607 15.7788 7.41482 15.765C7.29502 15.7084 7.16517 15.6762 7.03281 15.6703C6.90045 15.6643 6.76823 15.6847 6.64382 15.7303C6.51941 15.7758 6.4053 15.8457 6.30812 15.9357C6.21093 16.0258 6.13261 16.1342 6.0777 16.2548C6.0228 16.3754 5.9924 16.5057 5.98828 16.6381C5.98415 16.7705 6.00639 16.9025 6.05369 17.0262C6.10099 17.15 6.17241 17.2631 6.2638 17.359C6.3552 17.455 6.46474 17.5318 6.58607 17.585C6.66232 17.62 7.52232 17.9938 9.04482 17.9938C10.8211 17.9938 13.4998 17.48 16.8911 15.3325C16.6061 19.0088 15.2998 25.7663 7.71232 28.0425C7.58383 28.0779 7.46369 28.1385 7.35898 28.221C7.25427 28.3034 7.1671 28.406 7.10259 28.5226C7.03807 28.6392 6.99752 28.7676 6.98332 28.9001C6.96911 29.0326 6.98153 29.1666 7.01986 29.2942C7.05819 29.4219 7.12164 29.5406 7.20649 29.6434C7.29135 29.7461 7.39589 29.8309 7.51397 29.8927C7.63205 29.9545 7.76129 29.992 7.8941 30.0032C8.02691 30.0143 8.1606 29.9988 8.28732 29.9575C12.6411 28.6513 15.7186 25.915 17.4373 21.8225C17.6817 21.2372 17.8945 20.6393 18.0748 20.0313L20.8348 22.3313L19.0511 27.6838C18.9672 27.9354 18.9867 28.21 19.1053 28.4472C19.224 28.6845 19.4319 28.8649 19.6836 28.9488C19.9352 29.0326 20.2098 29.0131 20.4471 28.8945C20.6843 28.7759 20.8647 28.5679 20.9486 28.3163L22.9486 22.3163C23.0123 22.1253 23.0169 21.9196 22.9618 21.7261C22.9067 21.5325 22.7945 21.36 22.6398 21.2313L18.5873 17.8563C18.8015 16.6025 18.9268 15.3352 18.9623 14.0638C23.4848 11.7425 26.3373 13.9575 26.3723 13.9825C26.4742 14.0695 26.5925 14.1351 26.7202 14.1755C26.8479 14.2159 26.9825 14.2302 27.1158 14.2176C27.2492 14.205 27.3786 14.1657 27.4965 14.1021C27.6144 14.0385 27.7183 13.9519 27.8021 13.8473C27.8858 13.7428 27.9477 13.6225 27.9841 13.4936C28.0205 13.3647 28.0306 13.2298 28.0138 13.0969C27.9971 12.964 27.9538 12.8358 27.8865 12.72C27.8193 12.6041 27.7294 12.503 27.6223 12.4225L27.6248 12.42ZM7.99982 14C8.39539 14 8.78206 13.8827 9.11096 13.6629C9.43986 13.4432 9.69621 13.1308 9.84758 12.7654C9.99896 12.3999 10.0386 11.9978 9.96139 11.6098C9.88422 11.2219 9.69374 10.8655 9.41404 10.5858C9.13433 10.3061 8.77797 10.1156 8.39 10.0384C8.00204 9.96126 7.59991 10.0009 7.23446 10.1522C6.869 10.3036 6.55665 10.56 6.33688 10.8889C6.11712 11.2178 5.99982 11.6044 5.99982 12C5.99982 12.5304 6.21054 13.0391 6.58561 13.4142C6.96068 13.7893 7.46939 14 7.99982 14Z" fill="#4A4A4F"/>
</svg>
