<svg width="32" height="32" viewBox="0 0 32 32" fill="none" xmlns="http://www.w3.org/2000/svg">
<path d="M15.9999 10C16.791 10 17.5644 9.76541 18.2222 9.32588C18.88 8.88635 19.3927 8.26164 19.6954 7.53074C19.9982 6.79983 20.0774 5.99556 19.9231 5.21964C19.7687 4.44372 19.3877 3.73098 18.8283 3.17157C18.2689 2.61216 17.5562 2.2312 16.7803 2.07686C16.0043 1.92252 15.2001 2.00173 14.4692 2.30448C13.7383 2.60723 13.1136 3.11992 12.674 3.77772C12.2345 4.43552 11.9999 5.20888 11.9999 6C11.9999 7.06087 12.4213 8.07828 13.1715 8.82843C13.9216 9.57857 14.939 10 15.9999 10ZM15.9999 4C16.3955 4 16.7822 4.1173 17.1111 4.33706C17.4399 4.55683 17.6963 4.86918 17.8477 5.23463C17.999 5.60009 18.0387 6.00222 17.9615 6.39018C17.8843 6.77814 17.6938 7.13451 17.4141 7.41422C17.1344 7.69392 16.7781 7.8844 16.3901 7.96157C16.0021 8.03874 15.6 7.99914 15.2345 7.84776C14.8691 7.69639 14.5567 7.44004 14.337 7.11114C14.1172 6.78224 13.9999 6.39556 13.9999 6C13.9999 5.46957 14.2106 4.96086 14.5857 4.58579C14.9608 4.21072 15.4695 4 15.9999 4ZM28.8574 16.515C28.7898 16.628 28.7006 16.7265 28.5948 16.8049C28.489 16.8833 28.3688 16.94 28.241 16.9718C28.1133 17.0036 27.9805 17.0099 27.8503 16.9903C27.7201 16.9707 27.5951 16.9256 27.4824 16.8575C27.4387 16.8313 23.0937 14.2838 16.9974 14.0238V18.625L24.7474 27.3413C24.8346 27.4397 24.9015 27.5544 24.9443 27.6788C24.9872 27.8031 25.0051 27.9347 24.9971 28.066C24.9891 28.1973 24.9553 28.3257 24.8976 28.4439C24.84 28.5621 24.7597 28.6678 24.6612 28.755C24.5627 28.8422 24.448 28.9091 24.3236 28.9519C24.1993 28.9948 24.0677 29.0127 23.9364 29.0047C23.8051 28.9967 23.6767 28.9629 23.5585 28.9052C23.4403 28.8476 23.3346 28.7672 23.2474 28.6688L15.9999 20.5L8.74991 28.6638C8.66274 28.7622 8.55703 28.8426 8.43881 28.9002C8.32059 28.9579 8.19218 28.9917 8.0609 28.9997C7.92962 29.0077 7.79805 28.9898 7.6737 28.9469C7.54935 28.9041 7.43465 28.8372 7.33616 28.75C7.23767 28.6628 7.15731 28.5571 7.09967 28.4389C7.04203 28.3207 7.00825 28.1923 7.00024 28.061C6.99223 27.9297 7.01016 27.7981 7.05299 27.6738C7.09583 27.5494 7.16274 27.4347 7.24991 27.3363L14.9999 18.625V14.0225C8.87491 14.2825 4.55991 16.83 4.51491 16.8575C4.40226 16.9267 4.277 16.9729 4.14638 16.9934C4.01577 17.0139 3.88238 17.0082 3.75395 16.9768C3.62552 16.9454 3.5046 16.8889 3.39817 16.8104C3.29174 16.732 3.20192 16.6332 3.13391 16.5199C3.0659 16.4065 3.02104 16.2807 3.00194 16.1499C2.98285 16.0191 2.98988 15.8858 3.02264 15.7577C3.0554 15.6296 3.11323 15.5093 3.19279 15.4037C3.27235 15.2981 3.37207 15.2093 3.48616 15.1425C3.69991 15.0138 8.80616 12 15.9999 12C23.1937 12 28.2999 15.0138 28.5149 15.1425C28.6275 15.2101 28.7258 15.2992 28.8039 15.4048C28.8821 15.5104 28.9387 15.6303 28.9705 15.7578C29.0023 15.8852 29.0087 16.0177 28.9893 16.1476C28.9699 16.2776 28.9251 16.4024 28.8574 16.515Z" fill="#4A4A4F"/>
</svg>
