<svg width="32" height="32" viewBox="0 0 32 32" fill="none" xmlns="http://www.w3.org/2000/svg">
<path d="M19.0001 11C19.7912 11 20.5646 10.7654 21.2224 10.3259C21.8802 9.88635 22.3929 9.26164 22.6956 8.53074C22.9984 7.79983 23.0776 6.99556 22.9233 6.21964C22.7689 5.44372 22.3879 4.73098 21.8285 4.17157C21.2691 3.61216 20.5564 3.2312 19.7805 3.07686C19.0045 2.92252 18.2003 3.00173 17.4694 3.30448C16.7385 3.60723 16.1138 4.11992 15.6742 4.77772C15.2347 5.43552 15.0001 6.20888 15.0001 7C15.0001 8.06087 15.4215 9.07828 16.1717 9.82843C16.9218 10.5786 17.9392 11 19.0001 11ZM19.0001 5C19.3957 5 19.7824 5.1173 20.1112 5.33706C20.4401 5.55683 20.6965 5.86918 20.8479 6.23463C20.9992 6.60009 21.0389 7.00222 20.9617 7.39018C20.8845 7.77814 20.694 8.13451 20.4143 8.41422C20.1346 8.69392 19.7783 8.8844 19.3903 8.96157C19.0023 9.03874 18.6002 8.99914 18.2347 8.84776C17.8693 8.69639 17.5569 8.44004 17.3372 8.11114C17.1174 7.78224 17.0001 7.39556 17.0001 7C17.0001 6.46957 17.2108 5.96086 17.5859 5.58579C17.961 5.21072 18.4697 5 19.0001 5ZM27.4139 17.585C27.3376 17.62 26.4776 17.995 24.9551 17.995C23.2239 17.995 20.6364 17.51 17.3689 15.495C16.8715 16.9068 16.2258 18.2619 15.4426 19.5375C16.8494 19.9706 18.1727 20.6388 19.3564 21.5138C21.7401 23.3313 23.0001 25.9188 23.0001 29C23.0001 29.2652 22.8948 29.5196 22.7072 29.7071C22.5197 29.8946 22.2653 30 22.0001 30C21.7349 30 21.4805 29.8946 21.293 29.7071C21.1055 29.5196 21.0001 29.2652 21.0001 29C21.0001 23.7875 16.6639 21.9113 14.2326 21.2688C14.1639 21.3563 14.0926 21.445 14.0214 21.5313C11.5664 24.5063 8.49011 26.0538 5.06761 26.0538C4.67778 26.0556 4.28812 26.0376 3.90011 26C3.63489 25.9735 3.39107 25.8427 3.22229 25.6364C3.05351 25.4301 2.97359 25.1652 3.00011 24.9C3.02663 24.6348 3.15742 24.391 3.36371 24.2222C3.57 24.0534 3.83489 23.9735 4.10011 24C7.34011 24.3225 10.1589 23.0638 12.4751 20.25C14.0364 18.3575 15.1001 16.0488 15.6314 14.375C10.7664 11.5438 7.65886 13.9538 7.62511 13.98C7.52324 14.067 7.40494 14.1326 7.27722 14.173C7.1495 14.2134 7.01497 14.2277 6.88162 14.2151C6.74826 14.2025 6.6188 14.1632 6.50091 14.0996C6.38303 14.036 6.27912 13.9494 6.19536 13.8448C6.1116 13.7403 6.0497 13.62 6.01332 13.4911C5.97694 13.3622 5.96684 13.2273 5.9836 13.0944C6.00037 12.9615 6.04366 12.8333 6.11092 12.7175C6.17817 12.6016 6.26801 12.5005 6.37511 12.42C6.56261 12.27 11.0276 8.795 17.5639 13.2413C23.2476 17.105 26.5551 15.78 26.5864 15.765C26.7062 15.7084 26.836 15.6762 26.9684 15.6703C27.1007 15.6643 27.233 15.6847 27.3574 15.7303C27.4818 15.7758 27.5959 15.8457 27.6931 15.9357C27.7903 16.0258 27.8686 16.1342 27.9235 16.2548C27.9784 16.3754 28.0088 16.5057 28.0129 16.6381C28.017 16.7705 27.9948 16.9025 27.9475 17.0262C27.9002 17.15 27.8288 17.2631 27.7374 17.359C27.646 17.455 27.5364 17.5318 27.4151 17.585H27.4139Z" fill="#4A4A4F"/>
</svg>
