<svg width="32" height="32" viewBox="0 0 32 32" fill="none" xmlns="http://www.w3.org/2000/svg">
<path d="M17 6.5C17 5.80777 17.2053 5.13108 17.5899 4.55551C17.9744 3.97993 18.5211 3.53133 19.1606 3.26642C19.8002 3.00152 20.5039 2.9322 21.1828 3.06725C21.8618 3.2023 22.4854 3.53564 22.9749 4.02513C23.4644 4.51461 23.7977 5.13825 23.9328 5.81719C24.0678 6.49612 23.9985 7.19985 23.7336 7.83939C23.4687 8.47894 23.0201 9.02556 22.4445 9.41015C21.8689 9.79473 21.1922 10 20.5 10C19.5717 10 18.6815 9.63125 18.0251 8.97487C17.3687 8.3185 17 7.42826 17 6.5ZM30 22C30 22.9889 29.7068 23.9556 29.1574 24.7779C28.6079 25.6001 27.8271 26.241 26.9134 26.6194C25.9998 26.9978 24.9945 27.0969 24.0245 26.9039C23.0546 26.711 22.1637 26.2348 21.4645 25.5355C20.7652 24.8363 20.289 23.9454 20.0961 22.9755C19.9031 22.0055 20.0022 21.0002 20.3806 20.0866C20.759 19.173 21.3999 18.3921 22.2222 17.8427C23.0444 17.2932 24.0111 17 25 17C26.3261 17 27.5979 17.5268 28.5355 18.4645C29.4732 19.4021 30 20.6739 30 22ZM28 22C28 21.4067 27.8241 20.8266 27.4944 20.3333C27.1648 19.8399 26.6962 19.4554 26.1481 19.2284C25.5999 19.0013 24.9967 18.9419 24.4147 19.0576C23.8328 19.1734 23.2982 19.4591 22.8787 19.8787C22.4591 20.2982 22.1734 20.8328 22.0576 21.4147C21.9419 21.9967 22.0013 22.5999 22.2284 23.1481C22.4554 23.6962 22.8399 24.1648 23.3333 24.4944C23.8266 24.8241 24.4067 25 25 25C25.7957 25 26.5587 24.6839 27.1213 24.1213C27.6839 23.5587 28 22.7957 28 22ZM25 14C25 13.7348 24.8946 13.4804 24.7071 13.2929C24.5196 13.1054 24.2652 13 24 13H19.4138L15.7075 9.2925C15.6146 9.19952 15.5043 9.12577 15.3829 9.07544C15.2615 9.02512 15.1314 8.99921 15 8.99921C14.8686 8.99921 14.7385 9.02512 14.6171 9.07544C14.4957 9.12577 14.3854 9.19952 14.2925 9.2925L10.2925 13.2925C10.1995 13.3854 10.1258 13.4957 10.0754 13.6171C10.0251 13.7385 9.99922 13.8686 9.99922 14C9.99922 14.1314 10.0251 14.2615 10.0754 14.3829C10.1258 14.5043 10.1995 14.6146 10.2925 14.7075L15 19.4138V25C15 25.2652 15.1054 25.5196 15.2929 25.7071C15.4804 25.8946 15.7348 26 16 26C16.2652 26 16.5196 25.8946 16.7071 25.7071C16.8946 25.5196 17 25.2652 17 25V19C17.0001 18.8686 16.9743 18.7385 16.9241 18.6172C16.874 18.4958 16.8003 18.3854 16.7075 18.2925L12.4138 14L15 11.4138L18.2925 14.7075C18.3854 14.8003 18.4958 14.874 18.6172 14.9241C18.7385 14.9743 18.8686 15.0001 19 15H24C24.2652 15 24.5196 14.8946 24.7071 14.7071C24.8946 14.5196 25 14.2652 25 14ZM12 22C12 22.9889 11.7068 23.9556 11.1573 24.7779C10.6079 25.6001 9.82705 26.241 8.91342 26.6194C7.99979 26.9978 6.99446 27.0969 6.02455 26.9039C5.05465 26.711 4.16373 26.2348 3.46447 25.5355C2.76521 24.8363 2.289 23.9454 2.09608 22.9755C1.90315 22.0055 2.00217 21.0002 2.3806 20.0866C2.75904 19.173 3.39991 18.3921 4.22215 17.8427C5.0444 17.2932 6.0111 17 7 17C7.65661 17 8.30679 17.1293 8.91342 17.3806C9.52005 17.6319 10.0712 18.0002 10.5355 18.4645C10.9998 18.9288 11.3681 19.48 11.6194 20.0866C11.8707 20.6932 12 21.3434 12 22ZM10 22C10 21.4067 9.82406 20.8266 9.49441 20.3333C9.16477 19.8399 8.69623 19.4554 8.14805 19.2284C7.59987 19.0013 6.99667 18.9419 6.41473 19.0576C5.83279 19.1734 5.29824 19.4591 4.87868 19.8787C4.45912 20.2982 4.1734 20.8328 4.05765 21.4147C3.94189 21.9967 4.0013 22.5999 4.22836 23.1481C4.45543 23.6962 4.83994 24.1648 5.33329 24.4944C5.82664 24.8241 6.40666 25 7 25C7.79565 25 8.55871 24.6839 9.12132 24.1213C9.68393 23.5587 10 22.7957 10 22Z" fill="#4A4A4F"/>
</svg>
