<svg width="32" height="32" viewBox="0 0 32 32" fill="none" xmlns="http://www.w3.org/2000/svg">
<path d="M12.5001 4.5C12.5001 3.80777 12.7054 3.13108 13.09 2.55551C13.4745 1.97993 14.0212 1.53133 14.6607 1.26642C15.3003 1.00152 16.004 0.932205 16.6829 1.06725C17.3619 1.2023 17.9855 1.53564 18.475 2.02513C18.9645 2.51461 19.2978 3.13825 19.4329 3.81719C19.5679 4.49612 19.4986 5.19985 19.2337 5.83939C18.9688 6.47894 18.5202 7.02556 17.9446 7.41015C17.369 7.79473 16.6923 8 16.0001 8C15.0718 8 14.1816 7.63125 13.5252 6.97487C12.8689 6.3185 12.5001 5.42826 12.5001 4.5ZM28.4501 11.5713C28.359 11.1232 28.1143 10.721 27.7583 10.4342C27.4023 10.1473 26.9573 9.99374 26.5001 10H5.5001C5.04413 9.99998 4.60184 10.1558 4.24653 10.4415C3.89122 10.7273 3.64423 11.1259 3.54649 11.5713C3.44875 12.0167 3.50613 12.4821 3.70912 12.8904C3.91211 13.2987 4.24852 13.6253 4.6626 13.8163H4.6701L11.4064 16.7825L8.66635 27.195C8.45725 27.6734 8.44348 28.2145 8.628 28.7029C8.81251 29.1913 9.18068 29.5882 9.65385 29.8088C9.91832 29.9343 10.2073 29.9996 10.5001 30C10.8771 30.0006 11.2466 29.8945 11.566 29.6942C11.8853 29.4938 12.1416 29.2072 12.3051 28.8675L16.0001 22.5L19.6976 28.875C19.9276 29.3428 20.3311 29.7024 20.8223 29.8771C21.3134 30.0517 21.8534 30.0277 22.3271 29.8102C22.8009 29.5926 23.1709 29.1987 23.3585 28.7123C23.5461 28.226 23.5363 27.6856 23.3314 27.2063L20.5914 16.7938L27.3414 13.8238C27.7602 13.637 28.1005 13.3095 28.303 12.898C28.5056 12.4865 28.5576 12.0171 28.4501 11.5713Z" fill="#4A4A4F"/>
</svg>
