<svg width="32" height="32" viewBox="0 0 32 32" fill="none" xmlns="http://www.w3.org/2000/svg">
<path d="M19.2925 12.7077C19.1995 12.6149 19.1258 12.5046 19.0755 12.3832C19.0251 12.2618 18.9992 12.1317 18.9992 12.0002C18.9992 11.8688 19.0251 11.7387 19.0755 11.6173C19.1258 11.4959 19.1995 11.3856 19.2925 11.2927L23.5863 7.00024H21C20.7348 7.00024 20.4804 6.89488 20.2929 6.70734C20.1054 6.51981 20 6.26545 20 6.00024C20 5.73502 20.1054 5.48067 20.2929 5.29313C20.4804 5.10559 20.7348 5.00024 21 5.00024H26C26.2652 5.00024 26.5196 5.10559 26.7071 5.29313C26.8947 5.48067 27 5.73502 27 6.00024V11.0002C27 11.2655 26.8947 11.5198 26.7071 11.7073C26.5196 11.8949 26.2652 12.0002 26 12.0002C25.7348 12.0002 25.4804 11.8949 25.2929 11.7073C25.1054 11.5198 25 11.2655 25 11.0002V8.41398L20.7075 12.7077C20.6146 12.8007 20.5044 12.8745 20.383 12.9248C20.2616 12.9751 20.1314 13.001 20 13.001C19.8686 13.001 19.7385 12.9751 19.6171 12.9248C19.4957 12.8745 19.3854 12.8007 19.2925 12.7077ZM27.7925 19.8077L21.9038 17.169L21.8875 17.1615C21.5818 17.0307 21.2483 16.9783 20.9172 17.0088C20.5861 17.0394 20.2679 17.152 19.9913 17.3365C19.9587 17.358 19.9274 17.3814 19.8975 17.4065L16.8588 20.0002C14.9313 19.064 12.9413 17.089 12.005 15.1865L14.6025 12.0977C14.6275 12.0665 14.6513 12.0352 14.6738 12.0015C14.8543 11.7256 14.9638 11.4094 14.9926 11.081C15.0214 10.7525 14.9686 10.4221 14.8388 10.119V10.104L12.1925 4.20524C12.0209 3.80932 11.7259 3.4795 11.3515 3.26503C10.9771 3.05056 10.5433 2.96294 10.115 3.01524C8.42122 3.23812 6.86649 4.06995 5.74118 5.35535C4.61587 6.64076 3.99695 8.29185 4.00001 10.0002C4.00001 19.9252 12.075 28.0002 22 28.0002C23.7084 28.0033 25.3595 27.3844 26.6449 26.2591C27.9303 25.1338 28.7621 23.579 28.985 21.8852C29.0374 21.4571 28.95 21.0234 28.7357 20.649C28.5215 20.2746 28.1919 19.9795 27.7963 19.8077H27.7925Z" fill="#4A4A4F"/>
</svg>
