<svg width="32" height="32" viewBox="0 0 32 32" fill="none" xmlns="http://www.w3.org/2000/svg">
<path d="M19 12V7.00003C19 6.73481 19.1054 6.48045 19.2929 6.29292C19.4804 6.10538 19.7348 6.00003 20 6.00003C20.2652 6.00003 20.5196 6.10538 20.7071 6.29292C20.8947 6.48045 21 6.73481 21 7.00003V9.58628L25.2925 5.29253C25.4802 5.10488 25.7346 4.99947 26 4.99947C26.2654 4.99947 26.5199 5.10488 26.7075 5.29253C26.8952 5.48017 27.0006 5.73466 27.0006 6.00003C27.0006 6.26539 26.8952 6.51988 26.7075 6.70753L22.415 11H25C25.2652 11 25.5196 11.1054 25.7071 11.2929C25.8947 11.4805 26 11.7348 26 12C26 12.2652 25.8947 12.5196 25.7071 12.7071C25.5196 12.8947 25.2652 13 25 13H20C19.7348 13 19.4804 12.8947 19.2929 12.7071C19.1054 12.5196 19 12.2652 19 12ZM28.985 21.885C28.7621 23.5788 27.9303 25.1336 26.6449 26.2589C25.3595 27.3842 23.7084 28.0031 22 28C12.075 28 4.00001 19.925 4.00001 10C3.99672 8.29171 4.61559 6.64064 5.74097 5.35538C6.86635 4.07012 8.42122 3.23862 10.115 3.01627C10.5432 2.96388 10.9768 3.05132 11.3512 3.26556C11.7256 3.47979 12.0207 3.80934 12.1925 4.20502L14.8325 10.0988V10.1138C14.9639 10.4168 15.0181 10.7477 14.9904 11.0769C14.9627 11.406 14.8539 11.7232 14.6738 12C14.6513 12.0338 14.6275 12.065 14.6025 12.0963L12 15.1813C12.9363 17.0838 14.9263 19.0563 16.8538 19.995L19.8963 17.4063C19.9261 17.3812 19.9574 17.3578 19.99 17.3363C20.2666 17.1518 20.5849 17.0392 20.916 17.0086C21.2471 16.978 21.5806 17.0305 21.8863 17.1613L21.9025 17.1688L27.7913 19.8075C28.1879 19.9785 28.5185 20.2732 28.7337 20.6477C28.9489 21.0222 29.037 21.4563 28.985 21.885ZM27 21.635C27 21.635 26.9913 21.635 26.9863 21.635L21.1113 19.0038L18.0675 21.5925C18.0383 21.6179 18.0074 21.6413 17.975 21.6625C17.6872 21.8545 17.3545 21.9686 17.0094 21.9936C16.6644 22.0186 16.3187 21.9536 16.0063 21.805C13.665 20.6738 11.3313 18.3575 10.1988 16.0413C10.0488 15.7311 9.98151 15.3874 10.0034 15.0436C10.0253 14.6998 10.1357 14.3674 10.3238 14.0788C10.345 14.0449 10.3688 14.0127 10.395 13.9825L13 10.8938L10.375 5.01878C10.3745 5.01379 10.3745 5.00876 10.375 5.00377C9.16283 5.1619 8.04986 5.75648 7.24453 6.67617C6.4392 7.59586 5.99674 8.77758 6.00001 10C6.00465 14.2421 7.69184 18.309 10.6914 21.3086C13.691 24.3082 17.758 25.9954 22 26C23.2217 26.0042 24.4031 25.5633 25.3233 24.7597C26.2436 23.9561 26.8396 22.8449 27 21.6338V21.635Z" fill="#4A4A4F"/>
</svg>
