<svg width="32" height="32" viewBox="0 0 32 32" fill="none" xmlns="http://www.w3.org/2000/svg">
<path d="M28.9485 11.2661C21.9298 4.24984 10.0698 4.24984 3.05105 11.2661C0.551046 13.7661 0.311046 17.4523 2.4648 20.2298C2.652 20.4699 2.89152 20.664 3.16512 20.7974C3.43871 20.9309 3.73915 21.0001 4.04355 20.9998C4.28944 21 4.53321 20.9542 4.7623 20.8648L10.8873 18.6936L10.9235 18.6798C11.2327 18.5562 11.5061 18.3573 11.7189 18.1013C11.9317 17.8453 12.0772 17.5401 12.1423 17.2136L12.8798 13.5236C14.8907 12.8285 17.0759 12.8236 19.0898 13.5098L19.866 17.2286C19.9334 17.5516 20.0795 17.8528 20.2915 18.1056C20.5035 18.3584 20.7747 18.5548 21.081 18.6773L21.1173 18.6911L27.2423 20.8648C27.6424 21.0198 28.0818 21.042 28.4955 20.9281C28.9092 20.8142 29.2754 20.5703 29.5398 20.2323C31.6885 17.4523 31.4473 13.7661 28.9485 11.2661ZM27.9585 18.9998L27.921 18.9848L21.8185 16.8186L21.0423 13.1011C20.9719 12.7647 20.8159 12.4522 20.5895 12.1936C20.3631 11.935 20.0739 11.7391 19.7498 11.6248C17.3044 10.7876 14.6491 10.7933 12.2073 11.6411C11.8807 11.7578 11.59 11.9574 11.3638 12.2204C11.1377 12.4834 10.9838 12.8007 10.9173 13.1411L10.1798 16.8298L4.07855 18.9823C4.06605 18.9823 4.0573 18.9986 4.0448 19.0036C2.50355 17.0148 2.6698 14.4748 4.4648 12.6811C7.5898 9.55609 11.796 7.98984 15.9998 7.98984C20.2035 7.98984 24.4085 9.55359 27.5348 12.6811C29.326 14.4748 29.4998 17.0148 27.9585 18.9998ZM27.9985 24.9998C27.9985 25.2651 27.8932 25.5194 27.7057 25.707C27.5181 25.8945 27.2638 25.9998 26.9985 25.9998H4.9998C4.73458 25.9998 4.48023 25.8945 4.29269 25.707C4.10515 25.5194 3.9998 25.2651 3.9998 24.9998C3.9998 24.7346 4.10515 24.4803 4.29269 24.2927C4.48023 24.1052 4.73458 23.9998 4.9998 23.9998H26.9998C27.265 23.9998 27.5194 24.1052 27.7069 24.2927C27.8944 24.4803 27.9998 24.7346 27.9998 24.9998H27.9985Z" fill="#4A4A4F"/>
</svg>
