<svg width="32" height="32" viewBox="0 0 32 32" fill="none" xmlns="http://www.w3.org/2000/svg">
<path d="M19.2925 11.2927L21.5863 9.00024L19.2925 6.70774C19.1049 6.52009 18.9995 6.2656 18.9995 6.00024C18.9995 5.73487 19.1049 5.48038 19.2925 5.29274C19.4802 5.10509 19.7346 4.99968 20 4.99968C20.2654 4.99968 20.5199 5.10509 20.7075 5.29274L23 7.58648L25.2925 5.29274C25.4802 5.10509 25.7346 4.99968 26 4.99968C26.2654 4.99968 26.5199 5.10509 26.7075 5.29274C26.8952 5.48038 27.0006 5.73487 27.0006 6.00024C27.0006 6.2656 26.8952 6.52009 26.7075 6.70774L24.415 9.00024L26.7075 11.2927C26.8004 11.3856 26.8741 11.4959 26.9244 11.6173C26.9747 11.7387 27.0006 11.8688 27.0006 12.0002C27.0006 12.1316 26.9747 12.2617 26.9244 12.3831C26.8741 12.5045 26.8004 12.6148 26.7075 12.7077C26.6146 12.8006 26.5043 12.8743 26.3829 12.9246C26.2615 12.9749 26.1314 13.0008 26 13.0008C25.8686 13.0008 25.7385 12.9749 25.6171 12.9246C25.4957 12.8743 25.3854 12.8006 25.2925 12.7077L23 10.414L20.7075 12.7077C20.5199 12.8954 20.2654 13.0008 20 13.0008C19.7346 13.0008 19.4802 12.8954 19.2925 12.7077C19.1049 12.5201 18.9995 12.2656 18.9995 12.0002C18.9995 11.7349 19.1049 11.4804 19.2925 11.2927ZM28.985 21.8852C28.7621 23.579 27.9303 25.1338 26.6449 26.2591C25.3595 27.3844 23.7084 28.0033 22 28.0002C12.075 28.0002 4.00001 19.9252 4.00001 10.0002C3.99695 8.29185 4.61587 6.64076 5.74118 5.35535C6.86649 4.06995 8.42122 3.23812 10.115 3.01524C10.5433 2.96294 10.9771 3.05056 11.3515 3.26503C11.7259 3.4795 12.0209 3.80932 12.1925 4.20524L14.8325 10.099V10.114C14.9639 10.4171 15.0181 10.7479 14.9904 11.0771C14.9627 11.4062 14.8539 11.7234 14.6738 12.0002C14.6513 12.034 14.6275 12.0652 14.6025 12.0965L12 15.1815C12.9363 17.084 14.9263 19.0565 16.8538 19.9952L19.8963 17.4065C19.9261 17.3814 19.9574 17.358 19.99 17.3365C20.2666 17.152 20.5849 17.0394 20.916 17.0088C21.2471 16.9783 21.5806 17.0307 21.8863 17.1615L21.9025 17.169L27.7913 19.8077C28.1879 19.9787 28.5185 20.2735 28.7337 20.6479C28.9489 21.0224 29.037 21.4565 28.985 21.8852ZM27 21.6352C27 21.6352 26.9913 21.6352 26.9863 21.6352L21.1113 19.004L18.0675 21.5927C18.038 21.6177 18.0071 21.6411 17.975 21.6627C17.6872 21.8547 17.3545 21.9688 17.0094 21.9938C16.6644 22.0188 16.3187 21.9538 16.0063 21.8052C13.665 20.674 11.3313 18.3577 10.1988 16.0415C10.0488 15.7313 9.9815 15.3876 10.0034 15.0438C10.0253 14.7 10.1357 14.3676 10.3238 14.079C10.345 14.0451 10.3688 14.0129 10.395 13.9827L13 10.894L10.375 5.01899C10.3745 5.014 10.3745 5.00897 10.375 5.00399C9.16283 5.16211 8.04986 5.75669 7.24453 6.67638C6.43919 7.59607 5.99674 8.77779 6.00001 10.0002C6.00464 14.2423 7.69184 18.3092 10.6914 21.3088C13.691 24.3084 17.758 25.9956 22 26.0002C23.2217 26.0044 24.4031 25.5635 25.3233 24.7599C26.2436 23.9563 26.8396 22.8451 27 21.634V21.6352Z" fill="#4A4A4F"/>
</svg>
