<svg width="32" height="32" viewBox="0 0 32 32" fill="none" xmlns="http://www.w3.org/2000/svg">
<path d="M19.0338 4.74149C19.0677 4.61457 19.1263 4.4956 19.2063 4.39135C19.2862 4.2871 19.3859 4.19963 19.4997 4.13392C19.6134 4.06822 19.739 4.02558 19.8693 4.00843C19.9995 3.99128 20.1319 3.99997 20.2588 4.03399C22.1126 4.51767 23.804 5.48679 25.1587 6.84153C26.5135 8.19627 27.4826 9.88766 27.9663 11.7415C28.0003 11.8684 28.009 12.0007 27.9918 12.131C27.9747 12.2612 27.932 12.3868 27.8663 12.5006C27.8006 12.6143 27.7131 12.714 27.6089 12.794C27.5047 12.8739 27.3857 12.9325 27.2588 12.9665C27.1743 12.9887 27.0873 13 27 13.0002C26.7798 13.0003 26.5657 12.9277 26.391 12.7937C26.2163 12.6596 26.0907 12.4717 26.0338 12.259C25.6395 10.7454 24.8486 9.36438 23.7428 8.25829C22.6369 7.1522 21.256 6.36108 19.7425 5.96649C19.6155 5.93267 19.4964 5.87415 19.392 5.79427C19.2876 5.71438 19.2 5.6147 19.1342 5.50093C19.0683 5.38715 19.0256 5.26151 19.0084 5.1312C18.9911 5.00089 18.9998 4.86846 19.0338 4.74149ZM18.7425 9.96649C20.4663 10.4265 21.5738 11.5352 22.0338 13.259C22.0907 13.4717 22.2163 13.6596 22.391 13.7937C22.5657 13.9277 22.7798 14.0003 23 14.0002C23.0873 14 23.1743 13.9887 23.2588 13.9665C23.3857 13.9325 23.5047 13.8739 23.6089 13.794C23.7131 13.714 23.8006 13.6143 23.8663 13.5006C23.932 13.3868 23.9747 13.2612 23.9918 13.131C24.009 13.0007 24.0003 12.8684 23.9663 12.7415C23.3263 10.3465 21.6538 8.67398 19.2588 8.03398C19.1319 8.00009 18.9995 7.99151 18.8693 8.00876C18.7391 8.026 18.6136 8.06872 18.4999 8.13447C18.3862 8.20023 18.2866 8.28773 18.2067 8.39199C18.1268 8.49625 18.0683 8.61522 18.0344 8.74211C18.0005 8.869 17.9919 9.00132 18.0092 9.13153C18.0264 9.26173 18.0691 9.38726 18.1349 9.50096C18.2006 9.61465 18.2881 9.71428 18.3924 9.79415C18.4967 9.87403 18.6156 9.93259 18.7425 9.96649ZM27.7963 19.8077L21.9075 17.169L21.8913 17.1615C21.5856 17.0307 21.2521 16.9783 20.921 17.0088C20.5899 17.0394 20.2716 17.152 19.995 17.3365C19.9624 17.358 19.9311 17.3814 19.9013 17.4065L16.8588 20.0002C14.9313 19.064 12.9413 17.089 12.005 15.1865L14.6025 12.0977C14.6275 12.0665 14.6513 12.0352 14.6738 12.0015C14.8543 11.7256 14.9638 11.4094 14.9926 11.081C15.0214 10.7525 14.9686 10.4221 14.8388 10.119V10.104L12.1925 4.20524C12.0209 3.80932 11.7259 3.4795 11.3515 3.26503C10.9771 3.05056 10.5433 2.96294 10.115 3.01524C8.42122 3.23812 6.86649 4.06995 5.74118 5.35535C4.61587 6.64076 3.99695 8.29185 4.00001 10.0002C4.00001 19.9252 12.075 28.0002 22 28.0002C23.7084 28.0033 25.3595 27.3844 26.6449 26.2591C27.9303 25.1338 28.7621 23.579 28.985 21.8852C29.0374 21.4571 28.95 21.0234 28.7357 20.649C28.5215 20.2746 28.1919 19.9795 27.7963 19.8077Z" fill="#4A4A4F"/>
</svg>
