<svg width="32" height="32" viewBox="0 0 32 32" fill="none" xmlns="http://www.w3.org/2000/svg">
<path d="M6.74105 4.32758C6.65323 4.22859 6.54663 4.14801 6.42745 4.09052C6.30826 4.03303 6.17884 3.99976 6.0467 3.99265C5.91456 3.98555 5.78233 4.00473 5.65766 4.04911C5.53299 4.09348 5.41837 4.16216 5.32043 4.25116C5.2225 4.34016 5.14321 4.44771 5.08715 4.56758C5.03109 4.68745 4.99938 4.81725 4.99385 4.94947C4.98833 5.08168 5.0091 5.21368 5.05497 5.33781C5.10083 5.46194 5.17088 5.57573 5.26105 5.67258L8.7098 9.46758C6.59423 10.3562 4.67215 11.6486 3.05105 13.2726C0.551046 15.7726 0.311046 19.4551 2.4648 22.2313C2.72907 22.5695 3.09511 22.8137 3.50884 22.9278C3.92256 23.0419 4.36203 23.0199 4.7623 22.8651L10.8873 20.6938L10.9235 20.6801C11.2325 20.5566 11.5058 20.3579 11.7186 20.1021C11.9314 19.8463 12.0771 19.5414 12.1423 19.2151L12.8798 15.5263C13.2303 15.4055 13.5876 15.3053 13.9498 15.2263L25.2635 27.6726C25.3514 27.7716 25.458 27.8522 25.5771 27.9096C25.6963 27.9671 25.8258 28.0004 25.9579 28.0075C26.09 28.0146 26.2223 27.9954 26.3469 27.9511C26.4716 27.9067 26.5862 27.838 26.6842 27.749C26.7821 27.66 26.8614 27.5525 26.9174 27.4326C26.9735 27.3127 27.0052 27.1829 27.0107 27.0507C27.0163 26.9185 26.9955 26.7865 26.9496 26.6624C26.9038 26.5382 26.8337 26.4244 26.7435 26.3276L6.74105 4.32758ZM12.2035 13.6426C11.8779 13.7586 11.5878 13.9571 11.3617 14.2187C11.1356 14.4803 10.9812 14.796 10.9135 15.1351L10.176 18.8226L4.07855 20.9851C4.06605 20.9851 4.0573 21.0013 4.0448 21.0063C2.50355 19.0188 2.6698 16.4788 4.4648 14.6863C6.07381 13.0768 8.01304 11.8357 10.1485 11.0488L12.436 13.5663C12.3585 13.5913 12.281 13.6151 12.2035 13.6426ZM29.5348 22.2313C29.2705 22.5695 28.9045 22.8137 28.4908 22.9278C28.077 23.0419 27.6376 23.0199 27.2373 22.8651L26.081 22.4551C25.9573 22.4112 25.8434 22.3433 25.7458 22.2554C25.6483 22.1674 25.569 22.0612 25.5125 21.9426C25.3985 21.7031 25.3842 21.4282 25.4729 21.1782C25.5168 21.0544 25.5847 20.9405 25.6726 20.843C25.7606 20.7454 25.8668 20.6662 25.9854 20.6097C26.2249 20.4957 26.4998 20.4814 26.7498 20.5701L27.921 20.9851L27.9585 21.0001C29.496 19.0188 29.3335 16.4788 27.5348 14.6863C24.3273 11.4788 19.7998 9.77758 15.116 10.0226C14.9847 10.0294 14.8533 10.0103 14.7294 9.96632C14.6055 9.92235 14.4914 9.85441 14.3937 9.76637C14.2961 9.67833 14.2167 9.57191 14.1601 9.45319C14.1036 9.33448 14.071 9.20578 14.0642 9.07446C14.0574 8.94314 14.0765 8.81176 14.1204 8.68783C14.1644 8.56389 14.2323 8.44983 14.3204 8.35216C14.4084 8.25448 14.5148 8.1751 14.6336 8.11856C14.7523 8.06201 14.881 8.0294 15.0123 8.02258C20.2623 7.74883 25.341 9.66008 28.9485 13.2726C31.4473 15.7713 31.6885 19.4551 29.5348 22.2313Z" fill="#4A4A4F"/>
</svg>
