<svg width="32" height="32" viewBox="0 0 32 32" fill="none" xmlns="http://www.w3.org/2000/svg">
<path d="M19.0338 4.74149C19.0677 4.61457 19.1263 4.4956 19.2063 4.39135C19.2862 4.2871 19.3859 4.19963 19.4997 4.13392C19.6134 4.06822 19.739 4.02558 19.8693 4.00843C19.9995 3.99128 20.1319 3.99997 20.2588 4.03399C22.1126 4.51767 23.804 5.48679 25.1587 6.84153C26.5135 8.19627 27.4826 9.88766 27.9663 11.7415C28.0003 11.8684 28.009 12.0007 27.9918 12.131C27.9747 12.2612 27.932 12.3868 27.8663 12.5006C27.8006 12.6143 27.7131 12.714 27.6089 12.794C27.5047 12.8739 27.3857 12.9325 27.2588 12.9665C27.1743 12.9887 27.0873 13 27 13.0002C26.7796 13.0002 26.5655 12.9274 26.3907 12.7932C26.216 12.6589 26.0905 12.4707 26.0338 12.2577C25.6393 10.7444 24.8483 9.36362 23.7425 8.25776C22.6366 7.15191 21.2559 6.36097 19.7425 5.96649C19.6155 5.93267 19.4964 5.87415 19.392 5.79427C19.2876 5.71438 19.2 5.6147 19.1342 5.50093C19.0683 5.38715 19.0256 5.26151 19.0084 5.1312C18.9911 5.00089 18.9998 4.86846 19.0338 4.74149ZM18.7425 9.96649C20.4663 10.4265 21.5738 11.534 22.0338 13.2577C22.0905 13.4707 22.216 13.6589 22.3907 13.7932C22.5655 13.9274 22.7796 14.0002 23 14.0002C23.0873 14 23.1743 13.9887 23.2588 13.9665C23.3857 13.9325 23.5047 13.8739 23.6089 13.794C23.7131 13.714 23.8006 13.6143 23.8663 13.5006C23.932 13.3868 23.9747 13.2612 23.9918 13.131C24.009 13.0007 24.0003 12.8684 23.9663 12.7415C23.3263 10.3465 21.6538 8.67398 19.2588 8.03398C19.1319 8.00009 18.9995 7.99151 18.8693 8.00876C18.7391 8.026 18.6136 8.06872 18.4999 8.13447C18.3862 8.20023 18.2866 8.28773 18.2067 8.39199C18.1268 8.49625 18.0683 8.61522 18.0344 8.74211C18.0005 8.869 17.9919 9.00132 18.0092 9.13153C18.0264 9.26173 18.0691 9.38726 18.1349 9.50096C18.2006 9.61465 18.2881 9.71428 18.3924 9.79415C18.4967 9.87403 18.6156 9.93259 18.7425 9.96649ZM28.985 21.8852C28.7621 23.579 27.9303 25.1338 26.6449 26.2591C25.3595 27.3844 23.7084 28.0033 22 28.0002C12.075 28.0002 4.00001 19.9252 4.00001 10.0002C3.99695 8.29185 4.61587 6.64076 5.74118 5.35535C6.86649 4.06995 8.42122 3.23812 10.115 3.01524C10.5433 2.96294 10.9771 3.05056 11.3515 3.26503C11.7259 3.4795 12.0209 3.80932 12.1925 4.20524L14.8325 10.099V10.114C14.9639 10.4171 15.0181 10.7479 14.9904 11.0771C14.9627 11.4062 14.8539 11.7234 14.6738 12.0002C14.6513 12.034 14.6275 12.0652 14.6025 12.0965L12 15.1815C12.9363 17.084 14.9263 19.0565 16.8538 19.9952L19.8963 17.4065C19.9261 17.3814 19.9574 17.358 19.99 17.3365C20.2666 17.152 20.5849 17.0394 20.916 17.0088C21.2471 16.9783 21.5806 17.0307 21.8863 17.1615L21.9025 17.169L27.7913 19.8077C28.1879 19.9787 28.5185 20.2735 28.7337 20.6479C28.9489 21.0224 29.037 21.4565 28.985 21.8852ZM27 21.6352C27 21.6352 26.9913 21.6352 26.9863 21.6352L21.1113 19.004L18.0675 21.5927C18.038 21.6177 18.0071 21.6411 17.975 21.6627C17.6872 21.8547 17.3545 21.9688 17.0094 21.9938C16.6644 22.0188 16.3187 21.9538 16.0063 21.8052C13.665 20.674 11.3313 18.3577 10.1988 16.0415C10.0488 15.7313 9.9815 15.3876 10.0034 15.0438C10.0253 14.7 10.1357 14.3676 10.3238 14.079C10.345 14.0451 10.3688 14.0129 10.395 13.9827L13 10.894L10.375 5.01899C10.3745 5.014 10.3745 5.00897 10.375 5.00399C9.16283 5.16211 8.04986 5.75669 7.24453 6.67638C6.43919 7.59607 5.99674 8.77779 6.00001 10.0002C6.00464 14.2423 7.69184 18.3092 10.6914 21.3088C13.691 24.3084 17.758 25.9956 22 26.0002C23.2217 26.0044 24.4031 25.5635 25.3233 24.7599C26.2436 23.9563 26.8396 22.8451 27 21.634V21.6352Z" fill="#4A4A4F"/>
</svg>
