<svg width="32" height="32" viewBox="0 0 32 32" fill="none" xmlns="http://www.w3.org/2000/svg">
<path d="M19.2925 11.2927L21.5863 9.00024L19.2925 6.70774C19.1049 6.52009 18.9995 6.2656 18.9995 6.00024C18.9995 5.73487 19.1049 5.48038 19.2925 5.29274C19.4802 5.10509 19.7346 4.99968 20 4.99968C20.2654 4.99968 20.5199 5.10509 20.7075 5.29274L23 7.58648L25.2925 5.29274C25.4802 5.10509 25.7346 4.99968 26 4.99968C26.2654 4.99968 26.5199 5.10509 26.7075 5.29274C26.8952 5.48038 27.0006 5.73487 27.0006 6.00024C27.0006 6.2656 26.8952 6.52009 26.7075 6.70774L24.415 9.00024L26.7075 11.2927C26.8004 11.3856 26.8741 11.4959 26.9244 11.6173C26.9747 11.7387 27.0006 11.8688 27.0006 12.0002C27.0006 12.1316 26.9747 12.2617 26.9244 12.3831C26.8741 12.5045 26.8004 12.6148 26.7075 12.7077C26.6146 12.8006 26.5043 12.8743 26.3829 12.9246C26.2615 12.9749 26.1314 13.0008 26 13.0008C25.8686 13.0008 25.7385 12.9749 25.6171 12.9246C25.4957 12.8743 25.3854 12.8006 25.2925 12.7077L23 10.414L20.7075 12.7077C20.5199 12.8954 20.2654 13.0008 20 13.0008C19.7346 13.0008 19.4802 12.8954 19.2925 12.7077C19.1049 12.5201 18.9995 12.2656 18.9995 12.0002C18.9995 11.7349 19.1049 11.4804 19.2925 11.2927ZM27.7925 19.8077L21.9038 17.169L21.8875 17.1615C21.5818 17.0307 21.2483 16.9783 20.9172 17.0088C20.5861 17.0394 20.2679 17.152 19.9913 17.3365C19.9587 17.358 19.9274 17.3814 19.8975 17.4065L16.8588 20.0002C14.9313 19.064 12.9413 17.089 12.005 15.1865L14.6025 12.0977C14.6275 12.0665 14.6513 12.0352 14.6738 12.0015C14.8543 11.7256 14.9638 11.4094 14.9926 11.081C15.0214 10.7525 14.9686 10.4221 14.8388 10.119V10.104L12.1925 4.20524C12.0209 3.80932 11.7259 3.4795 11.3515 3.26503C10.9771 3.05056 10.5433 2.96294 10.115 3.01524C8.42122 3.23812 6.86649 4.06995 5.74118 5.35535C4.61587 6.64076 3.99695 8.29185 4.00001 10.0002C4.00001 19.9252 12.075 28.0002 22 28.0002C23.7084 28.0033 25.3595 27.3844 26.6449 26.2591C27.9303 25.1338 28.7621 23.579 28.985 21.8852C29.0374 21.4571 28.95 21.0234 28.7357 20.649C28.5215 20.2746 28.1919 19.9795 27.7963 19.8077H27.7925Z" fill="#4A4A4F"/>
</svg>
