<svg width="32" height="32" viewBox="0 0 32 32" fill="none" xmlns="http://www.w3.org/2000/svg">
<path d="M29.5349 20.2301C29.2704 20.5681 28.9043 20.812 28.4906 20.9259C28.0769 21.0398 27.6375 21.0176 27.2374 20.8626L21.1124 18.6889L21.0761 18.6751C20.7698 18.5526 20.4986 18.3562 20.2866 18.1034C20.0746 17.8506 19.9284 17.5493 19.8611 17.2264L19.0849 13.5076C17.0709 12.8214 14.8857 12.8262 12.8749 13.5214L12.1374 17.2114C12.0723 17.5379 11.9268 17.843 11.714 18.0991C11.5011 18.3551 11.2277 18.554 10.9186 18.6776L10.8824 18.6914L4.75736 20.8626C4.53 20.9522 4.28798 20.9988 4.04361 21.0001C3.73942 21.0007 3.43911 20.9318 3.16553 20.7988C2.89195 20.6658 2.65232 20.4722 2.46486 20.2326C0.31111 17.4551 0.55236 13.7689 3.05111 11.2689C10.0699 4.24762 21.9261 4.24762 28.9486 11.2689C31.4474 13.7664 31.6886 17.4526 29.5349 20.2301ZM26.9999 24.0001H4.99986C4.73464 24.0001 4.48029 24.1055 4.29275 24.293C4.10522 24.4805 3.99986 24.7349 3.99986 25.0001C3.99986 25.2653 4.10522 25.5197 4.29275 25.7072C4.48029 25.8948 4.73464 26.0001 4.99986 26.0001H26.9999C27.2651 26.0001 27.5194 25.8948 27.707 25.7072C27.8945 25.5197 27.9999 25.2653 27.9999 25.0001C27.9999 24.7349 27.8945 24.4805 27.707 24.293C27.5194 24.1055 27.2651 24.0001 26.9999 24.0001Z" fill="#4A4A4F"/>
</svg>
