<svg width="32" height="32" viewBox="0 0 32 32" fill="none" xmlns="http://www.w3.org/2000/svg">
<path d="M26 4H6C5.46957 4 4.96086 4.21071 4.58579 4.58579C4.21071 4.96086 4 5.46957 4 6V26C4 26.5304 4.21071 27.0391 4.58579 27.4142C4.96086 27.7893 5.46957 28 6 28H26C26.5304 28 27.0391 27.7893 27.4142 27.4142C27.7893 27.0391 28 26.5304 28 26V6C28 5.46957 27.7893 4.96086 27.4142 4.58579C27.0391 4.21071 26.5304 4 26 4ZM21.5 21C21.8978 21 22.2794 20.842 22.5607 20.5607C22.842 20.2794 23 19.8978 23 19.5C23 19.2348 23.1054 18.9804 23.2929 18.7929C23.4804 18.6054 23.7348 18.5 24 18.5C24.2652 18.5 24.5196 18.6054 24.7071 18.7929C24.8946 18.9804 25 19.2348 25 19.5C25 20.4283 24.6313 21.3185 23.9749 21.9749C23.3185 22.6313 22.4283 23 21.5 23C20.5717 23 19.6815 22.6313 19.0251 21.9749C18.3687 21.3185 18 20.4283 18 19.5V12H14V22C14 22.2652 13.8946 22.5196 13.7071 22.7071C13.5196 22.8946 13.2652 23 13 23C12.7348 23 12.4804 22.8946 12.2929 22.7071C12.1054 22.5196 12 22.2652 12 22V12H11C10.2044 12 9.44129 12.3161 8.87868 12.8787C8.31607 13.4413 8 14.2044 8 15C8 15.2652 7.89464 15.5196 7.70711 15.7071C7.51957 15.8946 7.26522 16 7 16C6.73478 16 6.48043 15.8946 6.29289 15.7071C6.10536 15.5196 6 15.2652 6 15C6 13.6739 6.52678 12.4021 7.46447 11.4645C8.40215 10.5268 9.67392 10 11 10H24C24.2652 10 24.5196 10.1054 24.7071 10.2929C24.8946 10.4804 25 10.7348 25 11C25 11.2652 24.8946 11.5196 24.7071 11.7071C24.5196 11.8946 24.2652 12 24 12H20V19.5C20 19.8978 20.158 20.2794 20.4393 20.5607C20.7206 20.842 21.1022 21 21.5 21Z" fill="#4A4A4F"/>
</svg>
