<svg width="32" height="32" viewBox="0 0 32 32" fill="none" xmlns="http://www.w3.org/2000/svg">
<path d="M29 21.5C29 22.6935 28.5259 23.8381 27.682 24.682C26.8381 25.5259 25.6935 26 24.5 26C23.3065 26 22.1619 25.5259 21.318 24.682C20.4741 23.8381 20 22.6935 20 21.5V9H12V25C12 25.2652 11.8946 25.5196 11.7071 25.7071C11.5196 25.8946 11.2652 26 11 26C10.7348 26 10.4804 25.8946 10.2929 25.7071C10.1054 25.5196 10 25.2652 10 25V9H9C7.67392 9 6.40215 9.52678 5.46447 10.4645C4.52678 11.4021 4 12.6739 4 14C4 14.2652 3.89464 14.5196 3.70711 14.7071C3.51957 14.8946 3.26522 15 3 15C2.73478 15 2.48043 14.8946 2.29289 14.7071C2.10536 14.5196 2 14.2652 2 14C2.00199 12.1441 2.74012 10.3648 4.05245 9.05245C5.36477 7.74012 7.14409 7.00199 9 7H28C28.2652 7 28.5196 7.10536 28.7071 7.29289C28.8946 7.48043 29 7.73478 29 8C29 8.26522 28.8946 8.51957 28.7071 8.70711C28.5196 8.89464 28.2652 9 28 9H22V21.5C22 22.163 22.2634 22.7989 22.7322 23.2678C23.2011 23.7366 23.837 24 24.5 24C25.163 24 25.7989 23.7366 26.2678 23.2678C26.7366 22.7989 27 22.163 27 21.5C27 21.2348 27.1054 20.9804 27.2929 20.7929C27.4804 20.6054 27.7348 20.5 28 20.5C28.2652 20.5 28.5196 20.6054 28.7071 20.7929C28.8946 20.9804 29 21.2348 29 21.5Z" fill="#4A4A4F"/>
</svg>
