<svg width="32" height="32" viewBox="0 0 32 32" fill="none" xmlns="http://www.w3.org/2000/svg">
<path d="M28.25 11.0098C28.2 10.8848 28.1475 10.7598 28.0938 10.6348C27.2873 8.77481 25.9821 7.17414 24.3225 6.00977H27C27.2652 6.00977 27.5196 5.90441 27.7071 5.71687C27.8946 5.52934 28 5.27498 28 5.00977C28 4.74455 27.8946 4.49019 27.7071 4.30266C27.5196 4.11512 27.2652 4.00977 27 4.00977H14C11.2351 4.01328 8.57268 5.05646 6.54135 6.93217C4.51003 8.80788 3.2584 11.3789 3.035 14.1348C2.1712 14.3495 1.4037 14.8462 0.853985 15.5462C0.304271 16.2463 0.0037519 17.1097 0 17.9998C0 18.265 0.105357 18.5193 0.292893 18.7069C0.48043 18.8944 0.734784 18.9998 1 18.9998C1.26522 18.9998 1.51957 18.8944 1.70711 18.7069C1.89464 18.5193 2 18.265 2 17.9998C2.00023 17.6351 2.10016 17.2775 2.28897 16.9655C2.47778 16.6535 2.7483 16.3991 3.07125 16.2298C3.32016 18.4733 4.25568 20.5854 5.75 22.2773L7.32 26.6723C7.4588 27.061 7.71448 27.3973 8.05197 27.635C8.38946 27.8726 8.79222 28.0001 9.205 27.9998H10.795C11.2076 27.9998 11.6101 27.8723 11.9473 27.6346C12.2845 27.3969 12.54 27.0608 12.6788 26.6723L12.9187 25.9998H20.0812L20.3213 26.6723C20.46 27.0608 20.7155 27.3969 21.0527 27.6346C21.3899 27.8723 21.7924 27.9998 22.205 27.9998H23.795C24.2076 27.9998 24.6101 27.8723 24.9473 27.6346C25.2845 27.3969 25.54 27.0608 25.6787 26.6723L27.705 20.9998H28C28.7956 20.9998 29.5587 20.6837 30.1213 20.1211C30.6839 19.5585 31 18.7954 31 17.9998V13.9998C31.0001 13.2473 30.7175 12.5223 30.2081 11.9685C29.6987 11.4147 28.9998 11.0725 28.25 11.0098ZM19 8.99977H14C13.7348 8.99977 13.4804 8.89441 13.2929 8.70687C13.1054 8.51934 13 8.26498 13 7.99977C13 7.73455 13.1054 7.4802 13.2929 7.29266C13.4804 7.10512 13.7348 6.99977 14 6.99977H19C19.2652 6.99977 19.5196 7.10512 19.7071 7.29266C19.8946 7.4802 20 7.73455 20 7.99977C20 8.26498 19.8946 8.51934 19.7071 8.70687C19.5196 8.89441 19.2652 8.99977 19 8.99977ZM22.5 15.9998C22.2033 15.9998 21.9133 15.9118 21.6666 15.747C21.42 15.5821 21.2277 15.3479 21.1142 15.0738C21.0007 14.7997 20.9709 14.4981 21.0288 14.2071C21.0867 13.9162 21.2296 13.6489 21.4393 13.4391C21.6491 13.2293 21.9164 13.0865 22.2074 13.0286C22.4983 12.9707 22.7999 13.0004 23.074 13.1139C23.3481 13.2275 23.5824 13.4197 23.7472 13.6664C23.912 13.9131 24 14.2031 24 14.4998C24 14.8976 23.842 15.2791 23.5607 15.5604C23.2794 15.8417 22.8978 15.9998 22.5 15.9998Z" fill="#4A4A4F"/>
</svg>
