<svg width="32" height="32" viewBox="0 0 32 32" fill="none" xmlns="http://www.w3.org/2000/svg">
<path d="M27.0538 4.94998C25.8051 3.70142 24.1116 3 22.3457 3C20.5799 3 18.8863 3.70142 17.6376 4.94998L4.95009 17.6362C3.7277 18.8901 3.04853 20.5751 3.05971 22.3261C3.07089 24.0772 3.77152 25.7534 5.00982 26.9915C6.24812 28.2296 7.92437 28.93 9.67545 28.941C11.4265 28.9519 13.1114 28.2725 14.3651 27.05L27.0538 14.3637C28.3001 13.1143 29 11.4216 29 9.65686C29 7.89212 28.3001 6.19942 27.0538 4.94998ZM25.6388 12.95L19.2951 19.2925L12.7088 12.7075L19.0526 6.36373C19.9294 5.50713 21.1086 5.03075 22.3344 5.03792C23.5602 5.04508 24.7338 5.5352 25.6006 6.40199C26.4674 7.26877 26.9575 8.44233 26.9646 9.66813C26.9718 10.8939 26.4954 12.0731 25.6388 12.95ZM23.7101 10.2925C23.8031 10.3854 23.8768 10.4956 23.9271 10.617C23.9775 10.7384 24.0034 10.8686 24.0034 11C24.0034 11.1314 23.9775 11.2615 23.9271 11.3829C23.8768 11.5043 23.8031 11.6146 23.7101 11.7075L20.7101 14.7075C20.6172 14.8003 20.5069 14.8739 20.3855 14.9241C20.2642 14.9743 20.1341 15.0002 20.0028 15.0001C19.8714 15 19.7414 14.9741 19.6201 14.9238C19.4988 14.8735 19.3885 14.7998 19.2957 14.7069C19.2029 14.6139 19.1293 14.5037 19.0791 14.3823C19.0288 14.2609 19.003 14.1309 19.0031 13.9995C19.0032 13.8682 19.0291 13.7382 19.0794 13.6168C19.1297 13.4955 19.2034 13.3853 19.2963 13.2925L22.2963 10.2925C22.4839 10.1051 22.7381 9.99982 23.0032 9.99982C23.2683 9.99982 23.5226 10.1051 23.7101 10.2925Z" fill="#4A4A4F"/>
</svg>
