<svg width="32" height="32" viewBox="0 0 32 32" fill="none" xmlns="http://www.w3.org/2000/svg">
<path d="M27.0526 4.94987C25.8041 3.70139 24.1107 3 22.3451 3C20.5794 3 18.8861 3.70139 17.6376 4.94987L4.95009 17.6361C3.7277 18.89 3.04853 20.5749 3.05971 22.326C3.07089 24.0771 3.77152 25.7532 5.00982 26.9914C6.24812 28.2295 7.92437 28.9299 9.67545 28.9409C11.4265 28.9518 13.1114 28.2724 14.3651 27.0499L27.0538 14.3636C28.3002 13.1142 29.0001 11.4213 28.9999 9.65649C28.9996 7.89165 28.2993 6.19899 27.0526 4.94987ZM12.9513 25.6361C12.0779 26.5097 10.8933 27.0005 9.65803 27.0006C8.42275 27.0007 7.23802 26.5101 6.36446 25.6367C5.4909 24.7634 5.00008 23.5787 4.99996 22.3434C4.99984 21.1082 5.49045 19.9234 6.36384 19.0499L12.0001 13.4136L18.5876 19.9999L12.9513 25.6361ZM25.6388 12.9499L20.0001 18.5861L13.4151 11.9999L19.0526 6.36362C19.9294 5.50703 21.1086 5.03065 22.3344 5.03781C23.5602 5.04497 24.7338 5.5351 25.6006 6.40188C26.4674 7.26867 26.9575 8.44222 26.9646 9.66802C26.9718 10.8938 26.4954 12.073 25.6388 12.9499ZM23.7101 10.2924C23.8031 10.3852 23.8768 10.4955 23.9271 10.6169C23.9775 10.7383 24.0034 10.8685 24.0034 10.9999C24.0034 11.1313 23.9775 11.2614 23.9271 11.3828C23.8768 11.5042 23.8031 11.6145 23.7101 11.7074L20.7101 14.7074C20.6172 14.8002 20.5069 14.8738 20.3855 14.924C20.2642 14.9742 20.1341 15 20.0028 15C19.8714 14.9999 19.7414 14.974 19.6201 14.9237C19.4988 14.8734 19.3885 14.7997 19.2957 14.7067C19.2029 14.6138 19.1293 14.5036 19.0791 14.3822C19.0288 14.2608 19.003 14.1308 19.0031 13.9994C19.0032 13.8681 19.0291 13.7381 19.0794 13.6167C19.1297 13.4954 19.2034 13.3852 19.2963 13.2924L22.2963 10.2924C22.4839 10.105 22.7381 9.99971 23.0032 9.99971C23.2683 9.99971 23.5226 10.105 23.7101 10.2924Z" fill="#4A4A4F"/>
</svg>
