<svg width="32" height="32" viewBox="0 0 32 32" fill="none" xmlns="http://www.w3.org/2000/svg">
<path d="M27 13.9998C27 16.8211 26.0125 19.3998 24.2213 21.2636C22.5488 22.9998 20.2813 23.9998 18 23.9998C15.765 23.9998 14.2725 23.2673 13.3213 22.4998L11.9738 28.2286C11.9222 28.4481 11.7979 28.6437 11.6211 28.7837C11.4444 28.9237 11.2255 28.9999 11 28.9998C10.9226 28.9998 10.8454 28.991 10.77 28.9736C10.6417 28.9441 10.5204 28.8896 10.4132 28.8132C10.306 28.7367 10.2149 28.6399 10.1452 28.5281C10.0755 28.4164 10.0286 28.292 10.0071 28.1621C9.98562 28.0322 9.99 27.8993 10.02 27.7711L14.02 10.7711C14.0807 10.5128 14.2414 10.2893 14.467 10.1495C14.6925 10.0098 14.9642 9.96542 15.2225 10.0261C15.4808 10.0868 15.7043 10.2475 15.844 10.473C15.9838 10.6986 16.0282 10.9703 15.9675 11.2286L13.855 20.2036C14.25 20.7498 15.4125 21.9998 18 21.9998C21.4413 21.9998 25 19.0073 25 13.9998C24.9995 12.6197 24.6815 11.2581 24.0707 10.0204C23.4599 8.78278 22.5727 7.70218 21.4776 6.86218C20.3825 6.02218 19.1088 5.4453 17.7552 5.17614C16.4015 4.90699 15.004 4.95277 13.6709 5.30994C12.3377 5.66711 11.1046 6.32611 10.0668 7.23598C9.02901 8.14585 8.21439 9.28221 7.68591 10.5572C7.15744 11.8322 6.92928 13.2116 7.01907 14.5889C7.10886 15.9661 7.5142 17.3043 8.20375 18.4998C8.32814 18.7289 8.35817 18.9975 8.28744 19.2484C8.21672 19.4992 8.05084 19.7126 7.82513 19.843C7.59942 19.9733 7.33173 20.0104 7.07907 19.9463C6.82642 19.8822 6.60877 19.722 6.4725 19.4998C5.62929 18.0386 5.13348 16.403 5.02343 14.7195C4.91338 13.036 5.19203 11.3498 5.83783 9.79123C6.48362 8.23266 7.47927 6.84351 8.74775 5.73123C10.0162 4.61895 11.5236 3.81335 13.1531 3.37673C14.7827 2.9401 16.4909 2.88417 18.1456 3.21324C19.8003 3.54231 21.3571 4.24757 22.6956 5.27447C24.0341 6.30138 25.1185 7.62241 25.8649 9.13539C26.6113 10.6484 26.9997 12.3128 27 13.9998Z" fill="#4A4A4F"/>
</svg>
