<svg width="32" height="32" viewBox="0 0 32 32" fill="none" xmlns="http://www.w3.org/2000/svg">
<path d="M28.9998 16.0876C28.9523 23.1489 23.1923 28.9289 16.1323 28.9989C15.04 29.0104 13.9506 28.8844 12.8898 28.6239C12.826 28.6079 12.7659 28.5796 12.7131 28.5404C12.6602 28.5012 12.6156 28.452 12.5819 28.3956C12.5481 28.3392 12.5257 28.2766 12.5162 28.2115C12.5066 28.1465 12.5099 28.0801 12.526 28.0164L13.606 23.6976C14.6594 24.2255 15.8215 24.5003 16.9998 24.5001C21.6248 24.5001 25.3373 20.3189 24.976 15.3301C24.8781 14.0353 24.501 12.777 23.8709 11.6416C23.2407 10.5062 22.3723 9.52063 21.3252 8.75253C20.2782 7.98444 19.0774 7.45201 17.8052 7.19179C16.533 6.93158 15.2195 6.94975 13.955 7.24505C12.6905 7.54035 11.5048 8.10579 10.4795 8.90255C9.4541 9.69932 8.61328 10.7085 8.01475 11.8609C7.41622 13.0133 7.07414 14.2815 7.01201 15.5786C6.94987 16.8757 7.16915 18.1708 7.65479 19.3751C7.70524 19.5008 7.78068 19.6148 7.87653 19.7105C7.97238 19.8061 8.08665 19.8812 8.21241 19.9314C8.33818 19.9815 8.47281 20.0056 8.60815 20.0021C8.7435 19.9987 8.87674 19.9678 8.99979 19.9114C9.23447 19.7976 9.41689 19.5986 9.50981 19.3549C9.60273 19.1112 9.59915 18.8412 9.49979 18.6001C9.12604 17.6628 8.95933 16.6558 9.01111 15.6481C9.06288 14.6404 9.3319 13.6558 9.79974 12.7618C10.2676 11.8677 10.9232 11.0854 11.7216 10.4684C12.52 9.85142 13.4424 9.41433 14.4255 9.1871C15.4086 8.95987 16.4293 8.94786 17.4175 9.15192C18.4057 9.35597 19.3381 9.77126 20.1508 10.3693C20.9635 10.9674 21.6373 11.7341 22.126 12.6168C22.6147 13.4996 22.9068 14.4776 22.9823 15.4839C23.2498 19.3001 20.466 22.5001 16.9998 22.5001C15.9804 22.4996 14.9804 22.2213 14.1073 21.6951L15.9698 14.2426C16.029 13.9871 15.9855 13.7186 15.8487 13.4949C15.7118 13.2712 15.4926 13.1102 15.2382 13.0466C14.9837 12.983 14.7145 13.0219 14.4885 13.1549C14.2625 13.2879 14.0977 13.5043 14.0298 13.7576L10.6723 27.1889C10.6541 27.262 10.6195 27.3301 10.5713 27.388C10.523 27.4459 10.4623 27.4921 10.3937 27.5233C10.325 27.5544 10.2502 27.5696 10.1749 27.5678C10.0995 27.5659 10.0256 27.5471 9.95854 27.5126C7.83783 26.3998 6.06574 24.7228 4.8378 22.6666C3.60986 20.6104 2.9738 18.2549 2.99979 15.8601C3.07479 8.81511 8.83354 3.06512 15.8748 3.00012C17.5999 2.98349 19.311 3.31038 20.9084 3.96173C22.5059 4.61308 23.9577 5.57587 25.1793 6.79398C26.4009 8.0121 27.3679 9.46117 28.0238 11.0568C28.6797 12.6523 29.0115 14.3625 28.9998 16.0876Z" fill="#4A4A4F"/>
</svg>
