<svg width="32" height="32" viewBox="0 0 32 32" fill="none" xmlns="http://www.w3.org/2000/svg">
<path d="M28.7077 27.2925L22.6552 21.2412C22.7927 21.2 22.9289 21.1562 23.0639 21.1075C24.9318 20.4271 26.4532 19.033 27.2937 17.2315C28.1342 15.43 28.2251 13.3685 27.5464 11.5C27.4557 11.2509 27.2698 11.0481 27.0295 10.936C26.7892 10.824 26.5143 10.8119 26.2652 10.9025L20.7402 12.9125C20.7802 12.835 20.8202 12.7575 20.8564 12.6775C21.4836 11.3336 21.6983 9.83386 21.4732 8.36796C21.2482 6.90206 20.5937 5.53577 19.5923 4.44182C18.5909 3.34786 17.2877 2.57535 15.8473 2.22193C14.407 1.86851 12.8942 1.95005 11.5002 2.45625C11.3764 2.50069 11.2626 2.56911 11.1653 2.65759C11.068 2.74607 10.9891 2.85287 10.9332 2.97189C10.8772 3.0909 10.8452 3.21979 10.8392 3.35116C10.8331 3.48254 10.853 3.61382 10.8977 3.7375L12.9089 9.265C12.8302 9.225 12.7527 9.18375 12.6727 9.14C11.3285 8.51362 9.82871 8.29981 8.363 8.5256C6.89729 8.75138 5.53142 9.40663 4.43802 10.4085C3.34463 11.4104 2.5728 12.714 2.22009 14.1544C1.86738 15.5949 1.94963 17.1075 2.45644 18.5012C2.54719 18.7503 2.73312 18.9532 2.97338 19.0652C3.21363 19.1773 3.48855 19.1893 3.73769 19.0987L9.26269 17.0875C9.22269 17.1662 9.18269 17.2437 9.14644 17.3237C8.52006 18.668 8.30625 20.1677 8.53204 21.6334C8.75782 23.0991 9.41307 24.465 10.415 25.5584C11.4169 26.6518 12.7204 27.4236 14.1608 27.7763C15.6013 28.1291 17.114 28.0468 18.5077 27.54C18.7568 27.4493 18.9596 27.2633 19.0717 27.0231C19.1837 26.7828 19.1958 26.5079 19.1052 26.2587L17.0952 20.7362C17.1727 20.775 17.2502 20.8137 17.3302 20.85C18.2125 21.2632 19.167 21.5001 20.1402 21.5475L27.2927 28.7012C27.4803 28.8889 27.7348 28.9943 28.0002 28.9943C28.2656 28.9943 28.52 28.8889 28.7077 28.7012C28.8953 28.5136 29.0007 28.2591 29.0007 27.9937C29.0007 27.7284 28.8953 27.4739 28.7077 27.2862V27.2925ZM13.6252 25.4837C12.7164 25.0604 11.9406 24.3967 11.3816 23.5644C10.8227 22.7321 10.5019 21.7629 10.4539 20.7615C10.4059 19.7601 10.6325 18.7646 11.1093 17.8826C11.586 17.0007 12.2948 16.2658 13.1589 15.7575L16.8589 25.9237C15.7614 26.1108 14.6329 25.9573 13.6252 25.4837ZM19.0502 11.8275C18.5812 12.8405 17.8135 13.6858 16.8502 14.25L13.1489 4.07875C14.1376 3.91269 15.1529 4.02001 16.085 4.38912C17.0171 4.75824 17.8306 5.37509 18.4375 6.17302C19.0445 6.97095 19.4218 7.91959 19.5286 8.9164C19.6355 9.91322 19.4679 10.9203 19.0439 11.8287L19.0502 11.8275Z" fill="#4A4A4F"/>
</svg>
