<svg width="32" height="32" viewBox="0 0 32 32" fill="none" xmlns="http://www.w3.org/2000/svg">
<path d="M28.7077 27.2925L22.6552 21.2412C22.7927 21.2 22.9289 21.1562 23.0639 21.1075C24.9318 20.4271 26.4532 19.033 27.2937 17.2315C28.1342 15.43 28.2251 13.3685 27.5464 11.5C27.4557 11.2509 27.2698 11.0481 27.0295 10.936C26.7892 10.824 26.5143 10.8119 26.2652 10.9025L20.7402 12.9125C20.7802 12.835 20.8202 12.7575 20.8564 12.6775C21.4836 11.3336 21.6983 9.83386 21.4732 8.36796C21.2482 6.90206 20.5937 5.53577 19.5923 4.44182C18.5909 3.34786 17.2877 2.57535 15.8473 2.22193C14.407 1.86851 12.8942 1.95005 11.5002 2.45625C11.3764 2.50069 11.2626 2.56911 11.1653 2.65759C11.068 2.74607 10.9891 2.85287 10.9332 2.97189C10.8772 3.0909 10.8452 3.21979 10.8392 3.35116C10.8331 3.48254 10.853 3.61382 10.8977 3.7375L12.9077 9.2625C12.8302 9.2225 12.7527 9.1825 12.6727 9.14625C11.3285 8.51987 9.82871 8.30606 8.363 8.53185C6.89729 8.75763 5.53142 9.41288 4.43802 10.4148C3.34463 11.4167 2.5728 12.7202 2.22009 14.1607C1.86738 15.6011 1.94963 17.1138 2.45644 18.5075C2.54719 18.7566 2.73312 18.9594 2.97338 19.0715C3.21363 19.1835 3.48855 19.1956 3.73769 19.105L9.26269 17.0937C9.22269 17.1725 9.18269 17.25 9.14644 17.33C8.52006 18.6742 8.30625 20.174 8.53204 21.6397C8.75782 23.1054 9.41307 24.4713 10.415 25.5647C11.4169 26.6581 12.7204 27.4299 14.1608 27.7826C15.6013 28.1353 17.114 28.0531 18.5077 27.5462C18.7568 27.4555 18.9596 27.2696 19.0717 27.0293C19.1837 26.7891 19.1958 26.5141 19.1052 26.265L17.0939 20.74C17.1727 20.78 17.2502 20.82 17.3302 20.8562C18.2125 21.2694 19.167 21.5064 20.1402 21.5537L27.2927 28.7075C27.4803 28.8951 27.7348 29.0006 28.0002 29.0006C28.2656 29.0006 28.52 28.8951 28.7077 28.7075C28.8953 28.5199 29.0007 28.2654 29.0007 28C29.0007 27.7346 28.8953 27.4801 28.7077 27.2925ZM16.3839 4.51875C17.294 4.9416 18.071 5.60537 18.6308 6.43816C19.1906 7.27096 19.512 8.24104 19.56 9.24337C19.608 10.2457 19.3809 11.2421 18.9033 12.1246C18.4256 13.0071 17.7156 13.7421 16.8502 14.25L13.1489 4.07875C14.2469 3.89164 15.3758 4.04519 16.3839 4.51875ZM4.07894 16.8525C3.8617 15.5825 4.0972 14.2766 4.74434 13.1626C5.39149 12.0485 6.40922 11.1969 7.62 10.7565C8.83077 10.3161 10.1577 10.3147 11.3695 10.7525C12.5812 11.1904 13.6007 12.0398 14.2502 13.1525L4.07894 16.8525ZM13.6252 25.4837C12.7164 25.0604 11.9406 24.3967 11.3816 23.5644C10.8227 22.7321 10.5019 21.7629 10.4539 20.7615C10.4059 19.7601 10.6325 18.7646 11.1093 17.8826C11.586 17.0007 12.2948 16.2658 13.1589 15.7575L16.8589 25.9237C15.7614 26.1108 14.6329 25.9573 13.6252 25.4837ZM20.5702 19.5612H20.5564C19.5901 19.5686 18.6389 19.322 17.7978 18.8462C16.9567 18.3704 16.2554 17.682 15.7639 16.85L25.9302 13.1487C26.0607 13.9317 26.0204 14.7336 25.8121 15.4995C25.6038 16.2655 25.2324 16.9773 24.7233 17.5864C24.2143 18.1954 23.5796 18.6872 22.8628 19.028C22.1459 19.3689 21.3639 19.5508 20.5702 19.5612Z" fill="#4A4A4F"/>
</svg>
