<svg width="32" height="32" viewBox="0 0 32 32" fill="none" xmlns="http://www.w3.org/2000/svg">
<path d="M26 4H6C5.46957 4 4.96086 4.21071 4.58579 4.58579C4.21071 4.96086 4 5.46957 4 6V26C4 26.5304 4.21071 27.0391 4.58579 27.4142C4.96086 27.7893 5.46957 28 6 28H26C26.5304 28 27.0391 27.7893 27.4142 27.4142C27.7893 27.0391 28 26.5304 28 26V6C28 5.46957 27.7893 4.96086 27.4142 4.58579C27.0391 4.21071 26.5304 4 26 4ZM23.4137 23.4137C23.2262 23.6011 22.972 23.7064 22.7069 23.7064C22.4418 23.7064 22.1875 23.6011 22 23.4137L8.58625 10C8.40663 9.81094 8.30797 9.55919 8.31131 9.29843C8.31465 9.03766 8.41972 8.78852 8.60412 8.60412C8.78852 8.41972 9.03766 8.31465 9.29843 8.31131C9.55919 8.30797 9.81094 8.40663 10 8.58625L23.4137 22C23.6011 22.1875 23.7064 22.4418 23.7064 22.7069C23.7064 22.972 23.6011 23.2262 23.4137 23.4137Z" fill="#4A4A4F"/>
</svg>
