<svg width="32" height="32" viewBox="0 0 32 32" fill="none" xmlns="http://www.w3.org/2000/svg">
<path d="M25.6763 18.8837C24.4774 19.6124 23.1005 19.9957 21.6975 19.9912C20.5222 19.9818 19.3601 19.7414 18.2775 19.2837C17.4432 20.4616 16.9966 21.8702 17 23.3137V26.9999C17.0003 27.137 16.9725 27.2727 16.9181 27.3985C16.8638 27.5244 16.7841 27.6377 16.6841 27.7315C16.5841 27.8253 16.4659 27.8975 16.3369 27.9437C16.2078 27.9899 16.0706 28.009 15.9338 27.9999C15.6768 27.9775 15.4377 27.8588 15.2645 27.6676C15.0913 27.4763 14.9969 27.2267 15 26.9687V25.4137L10.1725 20.5862C9.45492 20.8539 8.69596 20.9939 7.93005 20.9999C6.87563 21.0025 5.84097 20.714 4.94005 20.1662C2.2163 18.5112 0.750046 14.7024 1.0338 9.97366C1.04808 9.72902 1.15171 9.49814 1.32499 9.32486C1.49827 9.15157 1.72915 9.04795 1.9738 9.03366C6.70255 8.75491 10.5113 10.2162 12.1613 12.9399C12.8096 14.0075 13.0926 15.2572 12.9675 16.4999C12.9598 16.5962 12.9243 16.6882 12.8653 16.7647C12.8064 16.8413 12.7266 16.8991 12.6355 16.9312C12.5444 16.9633 12.4459 16.9684 12.352 16.9458C12.2581 16.9231 12.1728 16.8738 12.1063 16.8037L9.7063 14.2912C9.51723 14.1115 9.26548 14.0129 9.00472 14.0162C8.74396 14.0196 8.49482 14.1246 8.31042 14.309C8.12602 14.4934 8.02094 14.7426 8.01761 15.0033C8.01427 15.2641 8.11293 15.5159 8.29255 15.7049L15.0275 22.6112C15.035 22.5137 15.0438 22.4162 15.0538 22.3199C15.2725 20.4658 16.0906 18.7339 17.3838 17.3874L23.7075 10.7049C23.8952 10.5174 24.0007 10.2631 24.0008 9.99786C24.0009 9.73261 23.8956 9.47818 23.7082 9.29054C23.5207 9.1029 23.2664 8.99742 23.0011 8.9973C22.7359 8.99718 22.4814 9.10244 22.2938 9.28991L16.1688 15.7674C16.1075 15.8324 16.0299 15.8797 15.9441 15.9045C15.8583 15.9293 15.7674 15.9307 15.6809 15.9085C15.5944 15.8863 15.5155 15.8413 15.4522 15.7783C15.389 15.7152 15.3438 15.6364 15.3213 15.5499C14.7288 13.3649 14.99 11.1899 16.1213 9.32241C18.3538 5.63741 23.5488 3.66491 30.0188 4.04491C30.2634 4.0592 30.4943 4.16282 30.6676 4.33611C30.8409 4.50939 30.9445 4.74027 30.9588 4.98491C31.3338 11.4562 29.3613 16.6512 25.6763 18.8837Z" fill="#4A4A4F"/>
</svg>
