<svg width="32" height="32" viewBox="0 0 32 32" fill="none" xmlns="http://www.w3.org/2000/svg">
<path d="M27.9025 14.4689C27.9672 14.9767 27.9998 15.4882 28 16.0001C28.0018 18.2423 27.375 20.4401 26.1906 22.344C25.0063 24.2479 23.3118 25.7816 21.2997 26.7709C19.2876 27.7603 17.0383 28.1656 14.8074 27.941C12.5765 27.7164 10.4532 26.8707 8.67872 25.5001C11.8275 24.7301 15.5312 23.1339 18.9837 21.1501C22.6637 19.0364 25.77 16.6826 27.9025 14.4689ZM30.6387 7.58513C29.6825 5.93638 27.1587 5.56513 23.3262 6.50263C21.5519 5.13068 19.4284 4.28385 17.1969 4.05833C14.9654 3.83282 12.7154 4.23766 10.7025 5.22688C8.68955 6.21609 6.99441 7.75001 5.80961 9.65439C4.62481 11.5588 3.99786 13.7573 3.99997 16.0001C4.00013 16.5146 4.0327 17.0285 4.09747 17.5389C0.636224 21.1251 0.686224 23.2501 1.36247 24.4151C1.99997 25.5201 3.32997 26.0001 5.07997 26.0001C6.295 25.975 7.50287 25.8072 8.67872 25.5001C8.03397 25.0017 7.44099 24.4397 6.90872 23.8226C4.74747 24.1826 3.40872 23.9476 3.09247 23.4114C2.90997 23.0976 3.01122 22.5064 3.36997 21.7864C3.7247 21.1121 4.15587 20.4808 4.65497 19.9051C4.65556 19.9014 4.65556 19.8976 4.65497 19.8939V19.9039C5.15106 21.3392 5.91451 22.6676 6.90497 23.8189C9.52247 23.3826 13.3412 22.0801 17.9837 19.4126C21.5 17.3989 25.25 14.5839 27.3487 12.1026C26.8545 10.6653 26.0909 9.33531 25.0987 8.18388L25.0825 8.16513C25.0825 8.17138 25.0937 8.17638 25.0987 8.18388C26.875 7.89013 28.52 7.91263 28.9112 8.58888C29.0262 8.78513 29.0362 9.07888 28.93 9.46388C28.7187 10.2526 28.1562 11.1551 27.3512 12.1051C27.6159 12.873 27.8015 13.6658 27.905 14.4714C29.4675 12.8464 30.5075 11.3026 30.8612 9.98138C31.1037 9.06388 31.03 8.25888 30.6387 7.58513Z" fill="#4A4A4F"/>
</svg>
