<svg width="32" height="32" viewBox="0 0 32 32" fill="none" xmlns="http://www.w3.org/2000/svg">
<path d="M30.6387 7.58513C29.6825 5.93638 27.1587 5.56513 23.3262 6.50263C21.5519 5.13068 19.4284 4.28385 17.1969 4.05833C14.9654 3.83282 12.7154 4.23766 10.7025 5.22688C8.68955 6.21609 6.99441 7.75001 5.80961 9.65439C4.62481 11.5588 3.99786 13.7573 3.99997 16.0001C4.00013 16.5146 4.0327 17.0285 4.09747 17.5389C0.636224 21.1251 0.686224 23.2501 1.36247 24.4151C1.99997 25.5201 3.32997 26.0001 5.07997 26.0001C6.295 25.975 7.50287 25.8072 8.67872 25.5001C10.4532 26.8707 12.5765 27.7164 14.8074 27.941C17.0383 28.1656 19.2876 27.7603 21.2997 26.7709C23.3118 25.7816 25.0063 24.2479 26.1906 22.344C27.375 20.4401 28.0018 18.2423 28 16.0001C28.0002 15.4882 27.9681 14.9768 27.9037 14.4689C29.4662 12.8439 30.5062 11.3001 30.86 9.97888C31.1037 9.06388 31.03 8.25888 30.6387 7.58513ZM16 6.00013C18.2649 6.00245 20.4622 6.77254 22.233 8.18466C24.0038 9.59679 25.2436 11.5675 25.75 13.7751C23.6175 15.7826 20.7312 17.8414 17.9912 19.4164C14.5475 21.3926 11.56 22.6251 9.17747 23.3001C7.71007 21.9315 6.68869 20.1528 6.2463 18.1956C5.80392 16.2384 5.96103 14.1934 6.69717 12.3267C7.43332 10.46 8.7144 8.85824 10.3736 7.72984C12.0329 6.60144 13.9934 5.99871 16 6.00013ZM3.09247 23.4114C2.90997 23.0976 3.01122 22.5064 3.36997 21.7864C3.72473 21.1118 4.15635 20.4805 4.65622 19.9051C5.15172 21.3407 5.91524 22.6693 6.90622 23.8201C4.74997 24.1826 3.40497 23.9514 3.09247 23.4114ZM16 26.0001C14.3139 26.0018 12.6551 25.5742 11.18 24.7576C13.8876 23.8 16.5001 22.5923 18.9837 21.1501C21.6812 19.6014 24.0687 17.9226 25.9925 16.2651C25.9212 18.8691 24.8376 21.3426 22.9718 23.1604C21.1059 24.9782 18.6049 25.9969 16 26.0001ZM28.9275 9.46138C28.715 10.2501 28.1537 11.1526 27.3487 12.1026C26.8545 10.6653 26.0909 9.33531 25.0987 8.18388C26.875 7.89013 28.52 7.91263 28.9112 8.58888C29.0237 8.78513 29.03 9.07888 28.9275 9.46138Z" fill="#4A4A4F"/>
</svg>
