<svg width="32" height="32" viewBox="0 0 32 32" fill="none" xmlns="http://www.w3.org/2000/svg">
<path d="M30.9539 4.98633C30.9396 4.74168 30.836 4.5108 30.6627 4.33752C30.4894 4.16424 30.2585 4.06061 30.0139 4.04633C23.5439 3.67133 18.3489 5.63883 16.1164 9.32383C14.6414 11.7601 14.6439 14.7188 16.0964 17.5413C15.2696 18.5255 14.6654 19.6768 14.3251 20.9163L12.2914 18.8751C13.2689 16.8338 13.2314 14.7063 12.1664 12.9388C10.5164 10.2151 6.70762 8.75508 1.97887 9.03258C1.73423 9.04686 1.50334 9.15049 1.33006 9.32377C1.15678 9.49705 1.05316 9.72793 1.03887 9.97258C0.760119 14.7013 2.22137 18.5101 4.94512 20.1601C5.84395 20.7092 6.87681 20.9999 7.93012 21.0001C8.95249 20.9875 9.95896 20.7453 10.8751 20.2913L14.0001 23.4163V27.0001C14.0001 27.2653 14.1055 27.5196 14.293 27.7072C14.4805 27.8947 14.7349 28.0001 15.0001 28.0001C15.2653 28.0001 15.5197 27.8947 15.7072 27.7072C15.8948 27.5196 16.0001 27.2653 16.0001 27.0001V23.3138C15.9957 21.7229 16.537 20.1787 17.5339 18.9388C18.8201 19.611 20.2465 19.9707 21.6976 19.9888C23.1006 19.9934 24.4775 19.6101 25.6764 18.8813C29.3614 16.6513 31.3339 11.4563 30.9539 4.98633ZM5.97637 18.4501C4.05887 17.2888 2.97387 14.5401 3.00012 11.0001C6.54012 10.9701 9.28887 12.0588 10.4501 13.9763C11.0564 14.9763 11.1551 16.1426 10.7576 17.3438L7.70637 14.2926C7.51731 14.113 7.26556 14.0143 7.0048 14.0176C6.74403 14.021 6.49489 14.126 6.31049 14.3104C6.12609 14.4948 6.02102 14.744 6.01768 15.0048C6.01434 15.2655 6.113 15.5173 6.29262 15.7063L9.34387 18.7576C8.14262 19.1551 6.97762 19.0563 5.97637 18.4501ZM24.6401 17.1726C22.9651 18.1863 20.9964 18.2638 18.9964 17.4226L25.7076 10.7101C25.8872 10.521 25.9859 10.2693 25.9826 10.0085C25.9792 9.74774 25.8741 9.4986 25.6897 9.3142C25.5053 9.1298 25.2562 9.02473 24.9954 9.02139C24.7347 9.01805 24.4829 9.11671 24.2939 9.29633L17.5814 16.0001C16.7364 14.0001 16.8126 12.0301 17.8314 10.3563C19.5739 7.48133 23.7064 5.87883 28.9976 6.00258C29.1176 11.2926 27.5176 15.4301 24.6401 17.1726Z" fill="#4A4A4F"/>
</svg>
