<svg width="32" height="32" viewBox="0 0 32 32" fill="none" xmlns="http://www.w3.org/2000/svg">
<path d="M23 8V24C23 24.2652 22.8946 24.5196 22.7071 24.7071C22.5196 24.8946 22.2652 25 22 25C21.7348 25 21.4804 24.8946 21.2929 24.7071C21.1054 24.5196 21 24.2652 21 24V8C21 7.73478 21.1054 7.48043 21.2929 7.29289C21.4804 7.10536 21.7348 7 22 7C22.2652 7 22.5196 7.10536 22.7071 7.29289C22.8946 7.48043 23 7.73478 23 8ZM28 7C27.7348 7 27.4804 7.10536 27.2929 7.29289C27.1054 7.48043 27 7.73478 27 8V24C27 24.2652 27.1054 24.5196 27.2929 24.7071C27.4804 24.8946 27.7348 25 28 25C28.2652 25 28.5196 24.8946 28.7071 24.7071C28.8946 24.5196 29 24.2652 29 24V8C29 7.73478 28.8946 7.48043 28.7071 7.29289C28.5196 7.10536 28.2652 7 28 7ZM18 16C18.0005 16.3327 17.9167 16.6601 17.7565 16.9517C17.5963 17.2433 17.3649 17.4895 17.0837 17.6675L6.06 24.6863C5.76002 24.878 5.41406 24.9858 5.05823 24.9982C4.7024 25.0107 4.34976 24.9274 4.03712 24.757C3.72448 24.5866 3.46331 24.3354 3.28088 24.0297C3.09844 23.7239 3.00144 23.3748 3 23.0187V8.98125C3.00144 8.62521 3.09844 8.27608 3.28088 7.97032C3.46331 7.66456 3.72448 7.41339 4.03712 7.24302C4.34976 7.07265 4.7024 6.98934 5.05823 7.00178C5.41406 7.01422 5.76002 7.12196 6.06 7.31375L17.0837 14.3325C17.3649 14.5105 17.5963 14.7567 17.7565 15.0483C17.9167 15.3399 18.0005 15.6673 18 16ZM15.9775 16L5 9.01V22.9912L15.9775 16Z" fill="#4A4A4F"/>
</svg>
