<svg width="32" height="32" viewBox="0 0 32 32" fill="none" xmlns="http://www.w3.org/2000/svg">
<path d="M4 8C4 7.73478 4.10536 7.48043 4.29289 7.29289C4.48043 7.10536 4.73478 7 5 7H27C27.2652 7 27.5196 7.10536 27.7071 7.29289C27.8946 7.48043 28 7.73478 28 8C28 8.26522 27.8946 8.51957 27.7071 8.70711C27.5196 8.89464 27.2652 9 27 9H5C4.73478 9 4.48043 8.89464 4.29289 8.70711C4.10536 8.51957 4 8.26522 4 8ZM5 17H20C20.2652 17 20.5196 16.8946 20.7071 16.7071C20.8946 16.5196 21 16.2652 21 16C21 15.7348 20.8946 15.4804 20.7071 15.2929C20.5196 15.1054 20.2652 15 20 15H5C4.73478 15 4.48043 15.1054 4.29289 15.2929C4.10536 15.4804 4 15.7348 4 16C4 16.2652 4.10536 16.5196 4.29289 16.7071C4.48043 16.8946 4.73478 17 5 17ZM14 23H5C4.73478 23 4.48043 23.1054 4.29289 23.2929C4.10536 23.4804 4 23.7348 4 24C4 24.2652 4.10536 24.5196 4.29289 24.7071C4.48043 24.8946 4.73478 25 5 25H14C14.2652 25 14.5196 24.8946 14.7071 24.7071C14.8946 24.5196 15 24.2652 15 24C15 23.7348 14.8946 23.4804 14.7071 23.2929C14.5196 23.1054 14.2652 23 14 23ZM30.2875 14.5425L25.2875 13.0425C25.1382 12.9977 24.9805 12.9884 24.827 13.0154C24.6734 13.0423 24.5283 13.1048 24.4032 13.1979C24.2782 13.2909 24.1766 13.4119 24.1065 13.5511C24.0365 13.6904 24 13.8441 24 14V20.5387C23.2373 20.0984 22.3507 19.9221 21.4775 20.0371C20.6044 20.1521 19.7937 20.5521 19.1711 21.1749C18.5485 21.7978 18.1488 22.6087 18.0341 23.4818C17.9194 24.355 18.096 25.2416 18.5366 26.0041C18.9772 26.7666 19.6571 27.3624 20.4709 27.6991C21.2847 28.0357 22.1868 28.0944 23.0373 27.866C23.8879 27.6376 24.6393 27.1349 25.1749 26.4359C25.7106 25.7369 26.0006 24.8807 26 24V15.3438L29.7125 16.4575C29.8392 16.4988 29.9729 16.5143 30.1057 16.5032C30.2385 16.492 30.3678 16.4545 30.4859 16.3927C30.6039 16.3309 30.7085 16.2461 30.7933 16.1434C30.8782 16.0406 30.9416 15.9219 30.98 15.7942C31.0183 15.6666 31.0307 15.5326 31.0165 15.4001C31.0023 15.2676 30.9617 15.1392 30.8972 15.0226C30.8327 14.906 30.7456 14.8034 30.6408 14.721C30.5361 14.6385 30.416 14.5779 30.2875 14.5425Z" fill="#4A4A4F"/>
</svg>
