<svg width="32" height="32" viewBox="0 0 32 32" fill="none" xmlns="http://www.w3.org/2000/svg">
<path d="M16 3C13.4288 3 10.9154 3.76244 8.77759 5.1909C6.63975 6.61935 4.97351 8.64968 3.98957 11.0251C3.00563 13.4006 2.74819 16.0144 3.2498 18.5362C3.75141 21.0579 4.98953 23.3743 6.80762 25.1924C8.6257 27.0105 10.9421 28.2486 13.4638 28.7502C15.9856 29.2518 18.5995 28.9944 20.9749 28.0104C23.3503 27.0265 25.3807 25.3603 26.8091 23.2224C28.2376 21.0846 29 18.5712 29 16C28.9957 12.5535 27.6247 9.2494 25.1876 6.81236C22.7506 4.37532 19.4465 3.0043 16 3ZM20.555 16.8325L14.555 20.8325C14.3904 20.9416 14.1974 20.9998 14 21C13.7348 21 13.4804 20.8946 13.2929 20.7071C13.1054 20.5196 13 20.2652 13 20V12C12.9999 11.8189 13.0489 11.6412 13.1419 11.4858C13.2349 11.3304 13.3684 11.2032 13.528 11.1177C13.6877 11.0323 13.8675 10.9918 14.0484 11.0005C14.2293 11.0093 14.4044 11.067 14.555 11.1675L20.555 15.1675C20.6922 15.2588 20.8047 15.3825 20.8825 15.5278C20.9603 15.673 21.001 15.8352 21.001 16C21.001 16.1648 20.9603 16.327 20.8825 16.4722C20.8047 16.6175 20.6922 16.7412 20.555 16.8325Z" fill="#4A4A4F"/>
</svg>
