<svg width="32" height="32" viewBox="0 0 32 32" fill="none" xmlns="http://www.w3.org/2000/svg">
<path d="M4 8C4 7.73478 4.10536 7.48043 4.29289 7.29289C4.48043 7.10536 4.73478 7 5 7H27C27.2652 7 27.5196 7.10536 27.7071 7.29289C27.8946 7.48043 28 7.73478 28 8C28 8.26522 27.8946 8.51957 27.7071 8.70711C27.5196 8.89464 27.2652 9 27 9H5C4.73478 9 4.48043 8.89464 4.29289 8.70711C4.10536 8.51957 4 8.26522 4 8ZM5 17H20C20.2652 17 20.5196 16.8946 20.7071 16.7071C20.8946 16.5196 21 16.2652 21 16C21 15.7348 20.8946 15.4804 20.7071 15.2929C20.5196 15.1054 20.2652 15 20 15H5C4.73478 15 4.48043 15.1054 4.29289 15.2929C4.10536 15.4804 4 15.7348 4 16C4 16.2652 4.10536 16.5196 4.29289 16.7071C4.48043 16.8946 4.73478 17 5 17ZM14 23H5C4.73478 23 4.48043 23.1054 4.29289 23.2929C4.10536 23.4804 4 23.7348 4 24C4 24.2652 4.10536 24.5196 4.29289 24.7071C4.48043 24.8946 4.73478 25 5 25H14C14.2652 25 14.5196 24.8946 14.7071 24.7071C14.8946 24.5196 15 24.2652 15 24C15 23.7348 14.8946 23.4804 14.7071 23.2929C14.5196 23.1054 14.2652 23 14 23ZM30.9575 15.7875C30.9197 15.9138 30.8574 16.0313 30.774 16.1334C30.6907 16.2355 30.588 16.3202 30.4718 16.3824C30.3557 16.4447 30.2283 16.4834 30.0972 16.4963C29.966 16.5091 29.8336 16.496 29.7075 16.4575L26 15.3438V24C26.0014 24.8823 25.7115 25.7405 25.1753 26.4412C24.6391 27.1419 23.8865 27.646 23.0345 27.8752C22.1824 28.1044 21.2785 28.0459 20.4631 27.7088C19.6477 27.3717 18.9664 26.7748 18.525 26.0108C18.0835 25.2468 17.9066 24.3585 18.0218 23.4837C18.1369 22.6089 18.5376 21.7966 19.1617 21.1728C19.7858 20.5491 20.5983 20.1488 21.4732 20.0342C22.348 19.9195 23.2363 20.0969 24 20.5387V14C24 13.8441 24.0365 13.6904 24.1065 13.5511C24.1766 13.4119 24.2782 13.2909 24.4032 13.1979C24.5283 13.1048 24.6734 13.0423 24.827 13.0154C24.9805 12.9884 25.1382 12.9977 25.2875 13.0425L30.2875 14.5425C30.5414 14.6188 30.7546 14.7928 30.8802 15.0263C31.0059 15.2598 31.0337 15.5336 30.9575 15.7875ZM24 24C24 23.6044 23.8827 23.2178 23.6629 22.8889C23.4432 22.56 23.1308 22.3036 22.7654 22.1522C22.3999 22.0009 21.9978 21.9613 21.6098 22.0384C21.2219 22.1156 20.8655 22.3061 20.5858 22.5858C20.3061 22.8655 20.1156 23.2219 20.0384 23.6098C19.9613 23.9978 20.0009 24.3999 20.1522 24.7654C20.3036 25.1308 20.56 25.4432 20.8889 25.6629C21.2178 25.8827 21.6044 26 22 26C22.5304 26 23.0391 25.7893 23.4142 25.4142C23.7893 25.0391 24 24.5304 24 24Z" fill="#4A4A4F"/>
</svg>
