<svg width="32" height="32" viewBox="0 0 32 32" fill="none" xmlns="http://www.w3.org/2000/svg">
<path d="M23 8V24C23 24.2652 22.8946 24.5196 22.7071 24.7071C22.5196 24.8946 22.2652 25 22 25C21.7348 25 21.4804 24.8946 21.2929 24.7071C21.1054 24.5196 21 24.2652 21 24V8C21 7.73478 21.1054 7.48043 21.2929 7.29289C21.4804 7.10536 21.7348 7 22 7C22.2652 7 22.5196 7.10536 22.7071 7.29289C22.8946 7.48043 23 7.73478 23 8ZM28 7C27.7348 7 27.4804 7.10536 27.2929 7.29289C27.1054 7.48043 27 7.73478 27 8V24C27 24.2652 27.1054 24.5196 27.2929 24.7071C27.4804 24.8946 27.7348 25 28 25C28.2652 25 28.5196 24.8946 28.7071 24.7071C28.8946 24.5196 29 24.2652 29 24V8C29 7.73478 28.8946 7.48043 28.7071 7.29289C28.5196 7.10536 28.2652 7 28 7ZM17.0837 14.3325L6.06 7.31375C5.76002 7.12196 5.41406 7.01422 5.05823 7.00178C4.7024 6.98934 4.34976 7.07265 4.03712 7.24302C3.72448 7.41339 3.46331 7.66456 3.28088 7.97032C3.09844 8.27608 3.00144 8.62521 3 8.98125V23.0187C3.00081 23.373 3.0967 23.7205 3.27766 24.025C3.45862 24.3296 3.71801 24.5799 4.02875 24.75C4.34216 24.9221 4.69608 25.0068 5.05345 24.9951C5.41082 24.9835 5.75847 24.8759 6.06 24.6838L17.0837 17.665C17.3646 17.4867 17.5959 17.2404 17.7561 16.9489C17.9164 16.6574 18.0004 16.3302 18.0004 15.9975C18.0004 15.6648 17.9164 15.3376 17.7561 15.0461C17.5959 14.7546 17.3646 14.5083 17.0837 14.33V14.3325Z" fill="#4A4A4F"/>
</svg>
