<svg width="32" height="32" viewBox="0 0 32 32" fill="none" xmlns="http://www.w3.org/2000/svg">
<path d="M29.7076 8.29257C29.6147 8.19959 29.5044 8.12583 29.383 8.07551C29.2616 8.02518 29.1315 7.99928 29.0001 7.99928C28.8687 7.99928 28.7385 8.02518 28.6171 8.07551C28.4957 8.12583 28.3854 8.19959 28.2926 8.29257L24.0001 12.5863L19.4138 8.00007L23.7076 3.70757C23.8952 3.51993 24.0006 3.26543 24.0006 3.00007C24.0006 2.7347 23.8952 2.48021 23.7076 2.29257C23.5199 2.10493 23.2654 1.99951 23.0001 1.99951C22.7347 1.99951 22.4802 2.10493 22.2926 2.29257L18.0001 6.58632L14.7076 3.29257C14.5199 3.10493 14.2654 2.99951 14.0001 2.99951C13.7347 2.99951 13.4802 3.10493 13.2926 3.29257C13.1049 3.48021 12.9995 3.7347 12.9995 4.00007C12.9995 4.26543 13.1049 4.51993 13.2926 4.70757L14.0863 5.50007L7.46132 12.1251C6.997 12.5894 6.62868 13.1406 6.37739 13.7472C6.1261 14.3539 5.99676 15.0041 5.99676 15.6607C5.99676 16.3173 6.1261 16.9675 6.37739 17.5742C6.62868 18.1808 6.997 18.732 7.46132 19.1963L9.42507 21.1601L3.29257 27.2926C3.19966 27.3855 3.12596 27.4958 3.07567 27.6172C3.02539 27.7386 2.99951 27.8687 2.99951 28.0001C2.99951 28.1315 3.02539 28.2616 3.07567 28.383C3.12596 28.5044 3.19966 28.6147 3.29257 28.7076C3.48021 28.8952 3.7347 29.0006 4.00007 29.0006C4.13146 29.0006 4.26157 28.9747 4.38296 28.9245C4.50436 28.8742 4.61466 28.8005 4.70757 28.7076L10.8438 22.5713L12.8076 24.5351C13.2719 24.9994 13.8231 25.3677 14.4297 25.619C15.0364 25.8703 15.6866 25.9996 16.3432 25.9996C16.9998 25.9996 17.65 25.8703 18.2567 25.619C18.8633 25.3677 19.4145 24.9994 19.8788 24.5351L26.5038 17.9101L27.2963 18.7038C27.3892 18.7967 27.4995 18.8704 27.6209 18.9207C27.7423 18.971 27.8724 18.9969 28.0038 18.9969C28.1352 18.9969 28.2653 18.971 28.3867 18.9207C28.5081 18.8704 28.6184 18.7967 28.7113 18.7038C28.8042 18.6109 28.8779 18.5006 28.9282 18.3792C28.9785 18.2578 29.0044 18.1277 29.0044 17.9963C29.0044 17.8649 28.9785 17.7348 28.9282 17.6134C28.8779 17.492 28.8042 17.3817 28.7113 17.2888L25.4138 14.0001L29.7076 9.70757C29.8005 9.6147 29.8743 9.50441 29.9246 9.38301C29.975 9.26161 30.0009 9.13148 30.0009 9.00007C30.0009 8.86865 29.975 8.73853 29.9246 8.61713C29.8743 8.49573 29.8005 8.38544 29.7076 8.29257ZM18.4651 23.1251C18.1865 23.4038 17.8557 23.6249 17.4916 23.7758C17.1275 23.9267 16.7373 24.0043 16.3432 24.0043C15.9491 24.0043 15.5589 23.9267 15.1948 23.7758C14.8307 23.6249 14.4999 23.4038 14.2213 23.1251L8.87507 17.7788C8.59633 17.5002 8.37521 17.1694 8.22435 16.8054C8.07348 16.4413 7.99583 16.051 7.99583 15.6569C7.99583 15.2628 8.07348 14.8726 8.22435 14.5085C8.37521 14.1445 8.59633 13.8137 8.87507 13.5351L15.5001 6.91007L25.0863 16.5001L18.4651 23.1251Z" fill="#4A4A4F"/>
</svg>
