<svg width="32" height="32" viewBox="0 0 32 32" fill="none" xmlns="http://www.w3.org/2000/svg">
<path d="M29.7076 9.70757L25.4138 14.0001L28.7076 17.2926C28.8005 17.3855 28.8742 17.4958 28.9245 17.6172C28.9747 17.7386 29.0006 17.8687 29.0006 18.0001C29.0006 18.1315 28.9747 18.2616 28.9245 18.383C28.8742 18.5044 28.8005 18.6147 28.7076 18.7076C28.6147 18.8005 28.5044 18.8742 28.383 18.9245C28.2616 18.9747 28.1315 19.0006 28.0001 19.0006C27.8687 19.0006 27.7386 18.9747 27.6172 18.9245C27.4958 18.8742 27.3855 18.8005 27.2926 18.7076L26.5001 17.9138L19.8751 24.5388C19.4108 25.0031 18.8596 25.3715 18.2529 25.6227C17.6463 25.874 16.9961 26.0034 16.3394 26.0034C15.6828 26.0034 15.0326 25.874 14.426 25.6227C13.8193 25.3715 13.2681 25.0031 12.8038 24.5388L10.8438 22.5713L4.70757 28.7076C4.61466 28.8005 4.50436 28.8742 4.38296 28.9245C4.26157 28.9747 4.13146 29.0006 4.00007 29.0006C3.86867 29.0006 3.73856 28.9747 3.61717 28.9245C3.49578 28.8742 3.38548 28.8005 3.29257 28.7076C3.19966 28.6147 3.12596 28.5044 3.07567 28.383C3.02539 28.2616 2.99951 28.1315 2.99951 28.0001C2.99951 27.8687 3.02539 27.7386 3.07567 27.6172C3.12596 27.4958 3.19966 27.3855 3.29257 27.2926L9.42882 21.1563L7.46507 19.1926C7.00075 18.7283 6.63243 18.1771 6.38114 17.5704C6.12985 16.9638 6.00051 16.3136 6.00051 15.6569C6.00051 15.0003 6.12985 14.3501 6.38114 13.7435C6.63243 13.1368 7.00075 12.5856 7.46507 12.1213L14.0901 5.49632L13.2963 4.70382C13.1087 4.51618 13.0033 4.26168 13.0033 3.99632C13.0033 3.73095 13.1087 3.47646 13.2963 3.28882C13.484 3.10118 13.7385 2.99576 14.0038 2.99576C14.2692 2.99576 14.5237 3.10118 14.7113 3.28882L18.0001 6.58632L22.2926 2.29257C22.4802 2.10493 22.7347 1.99951 23.0001 1.99951C23.2654 1.99951 23.5199 2.10493 23.7076 2.29257C23.8952 2.48021 24.0006 2.7347 24.0006 3.00007C24.0006 3.26543 23.8952 3.51993 23.7076 3.70757L19.4138 8.00007L24.0001 12.5863L28.2926 8.29257C28.4802 8.10493 28.7347 7.99951 29.0001 7.99951C29.2654 7.99951 29.5199 8.10493 29.7076 8.29257C29.8952 8.48021 30.0006 8.7347 30.0006 9.00007C30.0006 9.26543 29.8952 9.51993 29.7076 9.70757Z" fill="#4A4A4F"/>
</svg>
