<svg width="32" height="32" viewBox="0 0 32 32" fill="none" xmlns="http://www.w3.org/2000/svg">
<path d="M18.7076 17.2923C18.6147 17.1993 18.5044 17.1256 18.383 17.0752C18.2616 17.0249 18.1315 16.999 18.0001 16.999C17.8687 16.999 17.7385 17.0249 17.6171 17.0752C17.4957 17.1256 17.3854 17.1993 17.2926 17.2923L15.0001 19.5861L12.4138 16.9998L14.7076 14.7073C14.8952 14.5197 15.0006 14.2652 15.0006 13.9998C15.0006 13.7344 14.8952 13.4799 14.7076 13.2923C14.5199 13.1047 14.2654 12.9993 14.0001 12.9993C13.7347 12.9993 13.4802 13.1047 13.2926 13.2923L11.0001 15.5861L8.70757 13.2923C8.51993 13.1047 8.26543 12.9993 8.00007 12.9993C7.7347 12.9993 7.48021 13.1047 7.29257 13.2923C7.10493 13.48 6.99951 13.7344 6.99951 13.9998C6.99951 14.2652 7.10493 14.5197 7.29257 14.7073L8.08632 15.4998L5.17132 18.4136C4.79979 18.785 4.50507 19.226 4.30399 19.7114C4.10292 20.1967 3.99942 20.7169 3.99942 21.2423C3.99942 21.7677 4.10292 22.2879 4.30399 22.7733C4.50507 23.2586 4.79979 23.6996 5.17132 24.0711L5.84382 24.7423L2.29257 28.2923C2.19966 28.3852 2.12596 28.4955 2.07567 28.6169C2.02539 28.7383 1.99951 28.8684 1.99951 28.9998C1.99951 29.1312 2.02539 29.2613 2.07567 29.3827C2.12596 29.5041 2.19966 29.6144 2.29257 29.7073C2.48021 29.895 2.7347 30.0004 3.00007 30.0004C3.13146 30.0004 3.26157 29.9745 3.38296 29.9242C3.50436 29.8739 3.61466 29.8002 3.70757 29.7073L7.25757 26.1561L7.92882 26.8286C8.30026 27.2001 8.74126 27.4948 9.22662 27.6959C9.71198 27.897 10.2322 28.0005 10.7576 28.0005C11.2829 28.0005 11.8032 27.897 12.2885 27.6959C12.7739 27.4948 13.2149 27.2001 13.5863 26.8286L16.5001 23.9136L17.2926 24.7073C17.3855 24.8002 17.4958 24.8739 17.6172 24.9242C17.7386 24.9745 17.8687 25.0004 18.0001 25.0004C18.1315 25.0004 18.2616 24.9745 18.383 24.9242C18.5044 24.8739 18.6147 24.8002 18.7076 24.7073C18.8005 24.6144 18.8742 24.5041 18.9245 24.3827C18.9747 24.2613 19.0006 24.1312 19.0006 23.9998C19.0006 23.8684 18.9747 23.7383 18.9245 23.6169C18.8742 23.4955 18.8005 23.3852 18.7076 23.2923L16.4138 20.9998L18.7076 18.7073C18.8005 18.6144 18.8743 18.5041 18.9246 18.3827C18.975 18.2614 19.0009 18.1312 19.0009 17.9998C19.0009 17.8684 18.975 17.7383 18.9246 17.6169C18.8743 17.4955 18.8005 17.3852 18.7076 17.2923ZM12.1713 25.4173C11.7963 25.7921 11.2878 26.0026 10.7576 26.0026C10.2274 26.0026 9.71885 25.7921 9.34382 25.4173L6.58632 22.6561C6.21153 22.281 6.00099 21.7725 6.00099 21.2423C6.00099 20.7121 6.21153 20.2036 6.58632 19.8286L9.50007 16.9136L15.0863 22.4998L12.1713 25.4173ZM29.7076 2.29231C29.6147 2.19933 29.5044 2.12557 29.383 2.07525C29.2616 2.02493 29.1315 1.99902 29.0001 1.99902C28.8687 1.99902 28.7385 2.02493 28.6171 2.07525C28.4957 2.12557 28.3854 2.19933 28.2926 2.29231L24.7426 5.84356L24.0713 5.17106C23.3203 4.42225 22.3031 4.00175 21.2426 4.00175C20.1821 4.00175 19.1648 4.42225 18.4138 5.17106L15.5001 8.08606L14.7076 7.29231C14.5199 7.10467 14.2654 6.99925 14.0001 6.99925C13.7347 6.99925 13.4802 7.10467 13.2926 7.29231C13.1049 7.47995 12.9995 7.73445 12.9995 7.99981C12.9995 8.26517 13.1049 8.51967 13.2926 8.70731L23.2926 18.7073C23.3855 18.8002 23.4958 18.8739 23.6172 18.9242C23.7386 18.9745 23.8687 19.0004 24.0001 19.0004C24.1315 19.0004 24.2616 18.9745 24.383 18.9242C24.5044 18.8739 24.6147 18.8002 24.7076 18.7073C24.8005 18.6144 24.8742 18.5041 24.9245 18.3827C24.9747 18.2613 25.0006 18.1312 25.0006 17.9998C25.0006 17.8684 24.9747 17.7383 24.9245 17.6169C24.8742 17.4955 24.8005 17.3852 24.7076 17.2923L23.9138 16.4998L26.8288 13.5861C27.2003 13.2146 27.4951 12.7736 27.6961 12.2883C27.8972 11.8029 28.0007 11.2827 28.0007 10.7573C28.0007 10.2319 27.8972 9.71173 27.6961 9.22637C27.4951 8.741 27.2003 8.30001 26.8288 7.92856L26.1563 7.25731L29.7076 3.70731C29.8005 3.61444 29.8743 3.50415 29.9246 3.38275C29.975 3.26135 30.0009 3.13123 30.0009 2.99981C30.0009 2.86839 29.975 2.73827 29.9246 2.61687C29.8743 2.49547 29.8005 2.38518 29.7076 2.29231ZM25.4138 12.1673L22.5001 15.0861L16.9138 9.49981L19.8288 6.58606C20.2039 6.21127 20.7124 6.00074 21.2426 6.00074C21.7728 6.00074 22.2813 6.21127 22.6563 6.58606L25.4138 9.33606C25.6005 9.5219 25.7487 9.74279 25.8498 9.98604C25.9509 10.2293 26.0029 10.4901 26.0029 10.7536C26.0029 11.017 25.9509 11.2778 25.8498 11.5211C25.7487 11.7643 25.6005 11.9852 25.4138 12.1711V12.1673Z" fill="#4A4A4F"/>
</svg>
