<svg width="32" height="32" viewBox="0 0 32 32" fill="none" xmlns="http://www.w3.org/2000/svg">
<path d="M18.7076 18.7073L16.4138 20.9998L18.7076 23.2923C18.8005 23.3852 18.8742 23.4955 18.9245 23.6169C18.9747 23.7383 19.0006 23.8684 19.0006 23.9998C19.0006 24.1312 18.9747 24.2613 18.9245 24.3827C18.8742 24.5041 18.8005 24.6144 18.7076 24.7073C18.6147 24.8002 18.5044 24.8739 18.383 24.9242C18.2616 24.9745 18.1315 25.0004 18.0001 25.0004C17.8687 25.0004 17.7386 24.9745 17.6172 24.9242C17.4958 24.8739 17.3855 24.8002 17.2926 24.7073L16.5001 23.9136L13.5863 26.8286C12.8352 27.5771 11.818 27.9974 10.7576 27.9974C9.69715 27.9974 8.67996 27.5771 7.92882 26.8286L7.25757 26.1561L3.70757 29.7073C3.61466 29.8002 3.50436 29.8739 3.38296 29.9242C3.26157 29.9745 3.13146 30.0004 3.00007 30.0004C2.86867 30.0004 2.73856 29.9745 2.61717 29.9242C2.49578 29.8739 2.38548 29.8002 2.29257 29.7073C2.19966 29.6144 2.12596 29.5041 2.07567 29.3827C2.02539 29.2613 1.99951 29.1312 1.99951 28.9998C1.99951 28.8684 2.02539 28.7383 2.07567 28.6169C2.12596 28.4955 2.19966 28.3852 2.29257 28.2923L5.84382 24.7423L5.17132 24.0711C4.79979 23.6996 4.50507 23.2586 4.30399 22.7733C4.10292 22.2879 3.99942 21.7677 3.99942 21.2423C3.99942 20.7169 4.10292 20.1967 4.30399 19.7114C4.50507 19.226 4.79979 18.785 5.17132 18.4136L8.08632 15.4998L7.29257 14.7073C7.10493 14.5197 6.99951 14.2652 6.99951 13.9998C6.99951 13.7344 7.10493 13.48 7.29257 13.2923C7.48021 13.1047 7.7347 12.9993 8.00007 12.9993C8.26543 12.9993 8.51993 13.1047 8.70757 13.2923L11.0001 15.5861L13.2926 13.2923C13.4802 13.1047 13.7347 12.9993 14.0001 12.9993C14.2654 12.9993 14.5199 13.1047 14.7076 13.2923C14.8952 13.4799 15.0006 13.7344 15.0006 13.9998C15.0006 14.2652 14.8952 14.5197 14.7076 14.7073L12.4138 16.9998L15.0001 19.5861L17.2926 17.2923C17.4802 17.1047 17.7347 16.9993 18.0001 16.9993C18.2654 16.9993 18.5199 17.1047 18.7076 17.2923C18.8952 17.4799 19.0006 17.7344 19.0006 17.9998C19.0006 18.2652 18.8952 18.5197 18.7076 18.7073ZM29.7076 2.29231C29.6147 2.19933 29.5044 2.12557 29.383 2.07525C29.2616 2.02493 29.1315 1.99902 29.0001 1.99902C28.8687 1.99902 28.7385 2.02493 28.6171 2.07525C28.4957 2.12557 28.3854 2.19933 28.2926 2.29231L24.7426 5.84356L24.0713 5.17106C23.3203 4.42225 22.3031 4.00175 21.2426 4.00175C20.1821 4.00175 19.1648 4.42225 18.4138 5.17106L15.5001 8.08606L14.7076 7.29231C14.5199 7.10467 14.2654 6.99925 14.0001 6.99925C13.7347 6.99925 13.4802 7.10467 13.2926 7.29231C13.1049 7.47995 12.9995 7.73445 12.9995 7.99981C12.9995 8.26517 13.1049 8.51967 13.2926 8.70731L23.2926 18.7073C23.3855 18.8002 23.4958 18.8739 23.6172 18.9242C23.7386 18.9745 23.8687 19.0004 24.0001 19.0004C24.1315 19.0004 24.2616 18.9745 24.383 18.9242C24.5044 18.8739 24.6147 18.8002 24.7076 18.7073C24.8005 18.6144 24.8742 18.5041 24.9245 18.3827C24.9747 18.2613 25.0006 18.1312 25.0006 17.9998C25.0006 17.8684 24.9747 17.7383 24.9245 17.6169C24.8742 17.4955 24.8005 17.3852 24.7076 17.2923L23.9138 16.4998L26.8288 13.5861C27.2003 13.2146 27.4951 12.7736 27.6961 12.2883C27.8972 11.8029 28.0007 11.2827 28.0007 10.7573C28.0007 10.2319 27.8972 9.71173 27.6961 9.22637C27.4951 8.741 27.2003 8.30001 26.8288 7.92856L26.1563 7.25731L29.7076 3.70731C29.8005 3.61444 29.8743 3.50415 29.9246 3.38275C29.975 3.26135 30.0009 3.13123 30.0009 2.99981C30.0009 2.86839 29.975 2.73827 29.9246 2.61687C29.8743 2.49547 29.8005 2.38518 29.7076 2.29231Z" fill="#4A4A4F"/>
</svg>
