<svg width="32" height="32" viewBox="0 0 32 32" fill="none" xmlns="http://www.w3.org/2000/svg">
<path d="M29.7076 2.29231C29.6147 2.19933 29.5044 2.12557 29.383 2.07525C29.2616 2.02493 29.1315 1.99902 29.0001 1.99902C28.8687 1.99902 28.7385 2.02493 28.6171 2.07525C28.4957 2.12557 28.3854 2.19933 28.2926 2.29231L21.7426 8.84356L21.0713 8.17106C20.3203 7.42225 19.3031 7.00175 18.2426 7.00175C17.1821 7.00175 16.1648 7.42225 15.4138 8.17106L12.5001 11.0861L11.7076 10.2923C11.5199 10.1047 11.2654 9.99925 11.0001 9.99925C10.7347 9.99925 10.4802 10.1047 10.2926 10.2923C10.1049 10.4799 9.99951 10.7344 9.99951 10.9998C9.99951 11.2652 10.1049 11.5197 10.2926 11.7073L11.0863 12.4998L8.17132 15.4136C7.79979 15.785 7.50507 16.226 7.30399 16.7114C7.10292 17.1967 6.99942 17.7169 6.99942 18.2423C6.99942 18.7677 7.10292 19.2879 7.30399 19.7733C7.50507 20.2586 7.79979 20.6996 8.17132 21.0711L8.84382 21.7423L2.29257 28.2923C2.19966 28.3852 2.12596 28.4955 2.07567 28.6169C2.02539 28.7383 1.99951 28.8684 1.99951 28.9998C1.99951 29.1312 2.02539 29.2613 2.07567 29.3827C2.12596 29.5041 2.19966 29.6144 2.29257 29.7073C2.48021 29.895 2.7347 30.0004 3.00007 30.0004C3.13146 30.0004 3.26157 29.9745 3.38296 29.9242C3.50436 29.8739 3.61466 29.8002 3.70757 29.7073L10.2576 23.1561L10.9288 23.8286C11.3003 24.2001 11.7413 24.4948 12.2266 24.6959C12.712 24.897 13.2322 25.0005 13.7576 25.0005C14.2829 25.0005 14.8032 24.897 15.2885 24.6959C15.7739 24.4948 16.2149 24.2001 16.5863 23.8286L19.5001 20.9136L20.2926 21.7073C20.3855 21.8002 20.4958 21.8739 20.6172 21.9242C20.7386 21.9745 20.8687 22.0004 21.0001 22.0004C21.1315 22.0004 21.2616 21.9745 21.383 21.9242C21.5044 21.8739 21.6147 21.8002 21.7076 21.7073C21.8005 21.6144 21.8742 21.5041 21.9245 21.3827C21.9747 21.2613 22.0006 21.1312 22.0006 20.9998C22.0006 20.8684 21.9747 20.7383 21.9245 20.6169C21.8742 20.4955 21.8005 20.3852 21.7076 20.2923L20.9138 19.4998L23.8288 16.5861C24.2003 16.2146 24.4951 15.7736 24.6961 15.2883C24.8972 14.8029 25.0007 14.2827 25.0007 13.7573C25.0007 13.2319 24.8972 12.7117 24.6961 12.2264C24.4951 11.741 24.2003 11.3 23.8288 10.9286L23.1563 10.2573L29.7076 3.70731C29.8005 3.61444 29.8743 3.50415 29.9246 3.38275C29.975 3.26135 30.0009 3.13123 30.0009 2.99981C30.0009 2.86839 29.975 2.73827 29.9246 2.61687C29.8743 2.49547 29.8005 2.38518 29.7076 2.29231ZM15.1713 22.4173C14.7963 22.7921 14.2878 23.0026 13.7576 23.0026C13.2274 23.0026 12.7189 22.7921 12.3438 22.4173L9.58632 19.6561C9.21153 19.281 9.00099 18.7725 9.00099 18.2423C9.00099 17.7121 9.21153 17.2036 9.58632 16.8286L12.5001 13.9136L18.0863 19.4998L15.1713 22.4173ZM22.4138 15.1748L19.5001 18.0861L13.9138 12.4998L16.8288 9.58606C17.2039 9.21127 17.7124 9.00074 18.2426 9.00074C18.7728 9.00074 19.2813 9.21127 19.6563 9.58606L22.4138 12.3361C22.6005 12.5219 22.7487 12.7428 22.8498 12.986C22.9509 13.2293 23.0029 13.4901 23.0029 13.7536C23.0029 14.017 22.9509 14.2778 22.8498 14.5211C22.7487 14.7643 22.6005 14.9852 22.4138 15.1711V15.1748ZM11.0513 4.31606C10.9674 4.06444 10.987 3.7898 11.1056 3.55256C11.2242 3.31533 11.4322 3.13493 11.6838 3.05106C11.9354 2.96719 12.2101 2.9867 12.4473 3.10532C12.6845 3.22394 12.8649 3.43194 12.9488 3.68356L13.9488 6.68356C13.9903 6.80815 14.0069 6.9397 13.9976 7.0707C13.9883 7.2017 13.9533 7.32959 13.8946 7.44706C13.8358 7.56452 13.7545 7.66927 13.6553 7.75532C13.5561 7.84137 13.4409 7.90703 13.3163 7.94856C13.0647 8.03243 12.7901 8.01292 12.5528 7.8943C12.4354 7.83557 12.3306 7.75427 12.2446 7.65506C12.1585 7.55584 12.0928 7.44065 12.0513 7.31606L11.0513 4.31606ZM3.05132 11.6836C3.09284 11.559 3.1585 11.4438 3.24455 11.3445C3.33059 11.2453 3.43534 11.164 3.55281 11.1053C3.67028 11.0466 3.79817 11.0115 3.92917 11.0022C4.06017 10.9929 4.19173 11.0095 4.31632 11.0511L7.31632 12.0511C7.44091 12.0926 7.5561 12.1583 7.65532 12.2443C7.75453 12.3304 7.83582 12.4351 7.89456 12.5526C7.95329 12.67 7.98831 12.7979 7.99762 12.9289C8.00693 13.0599 7.99035 13.1915 7.94882 13.3161C7.90729 13.4407 7.84162 13.5558 7.75557 13.6551C7.66953 13.7543 7.56478 13.8356 7.44731 13.8943C7.32985 13.953 7.20196 13.9881 7.07096 13.9974C6.93996 14.0067 6.80841 13.9901 6.68382 13.9486L3.68382 12.9486C3.55922 12.907 3.44402 12.8414 3.3448 12.7553C3.24558 12.6693 3.16429 12.5645 3.10555 12.4471C3.04682 12.3296 3.0118 12.2017 3.00249 12.0707C2.99319 11.9397 3.00978 11.8082 3.05132 11.6836ZM28.9488 20.3161C28.9073 20.4407 28.8416 20.5559 28.7556 20.6551C28.6695 20.7543 28.5648 20.8356 28.4473 20.8943C28.3299 20.9531 28.202 20.9881 28.071 20.9974C27.94 21.0067 27.8084 20.9901 27.6838 20.9486L24.6838 19.9486C24.4322 19.8647 24.2242 19.6843 24.1056 19.4471C23.987 19.2098 23.9674 18.9352 24.0513 18.6836C24.1352 18.4319 24.3156 18.2239 24.5528 18.1053C24.7901 17.9867 25.0647 17.9672 25.3163 18.0511L28.3163 19.0511C28.4409 19.0926 28.5561 19.1582 28.6553 19.2443C28.7546 19.3303 28.8358 19.4351 28.8946 19.5526C28.9533 19.67 28.9883 19.7979 28.9976 19.9289C29.007 20.0599 28.9904 20.1915 28.9488 20.3161ZM20.9488 27.6836C21.0327 27.9352 21.0132 28.2098 20.8946 28.4471C20.7759 28.6843 20.5679 28.8647 20.3163 28.9486C20.0647 29.0324 19.7901 29.0129 19.5528 28.8943C19.3156 28.7757 19.1352 28.5677 19.0513 28.3161L18.0513 25.3161C17.9674 25.0644 17.987 24.7898 18.1056 24.5526C18.2242 24.3153 18.4322 24.1349 18.6838 24.0511C18.9354 23.9672 19.2101 23.9867 19.4473 24.1053C19.6845 24.2239 19.8649 24.4319 19.9488 24.6836L20.9488 27.6836Z" fill="#4A4A4F"/>
</svg>
