<svg width="32" height="32" viewBox="0 0 32 32" fill="none" xmlns="http://www.w3.org/2000/svg">
<path d="M28 7H22V2C22 1.73478 21.8946 1.48043 21.7071 1.29289C21.5196 1.10536 21.2652 1 21 1C20.7348 1 20.4804 1.10536 20.2929 1.29289C20.1054 1.48043 20 1.73478 20 2V7H12V2C12 1.73478 11.8946 1.48043 11.7071 1.29289C11.5196 1.10536 11.2652 1 11 1C10.5988 1 10 1.28375 10 2.0675V7H4.06875C3.285 7 3 7.5975 3 8C3 8.26522 3.10536 8.51957 3.29289 8.70711C3.48043 8.89464 3.73478 9 4 9H6V20C6 21.3261 6.52678 22.5979 7.46447 23.5355C8.40215 24.4732 9.67392 25 11 25H15V30C15 30.2652 15.1054 30.5196 15.2929 30.7071C15.4804 30.8946 15.7348 31 16 31C16.2652 31 16.5196 30.8946 16.7071 30.7071C16.8946 30.5196 17 30.2652 17 30V25H21C22.3261 25 23.5979 24.4732 24.5355 23.5355C25.4732 22.5979 26 21.3261 26 20V9H28C28.2652 9 28.5196 8.89464 28.7071 8.70711C28.8946 8.51957 29 8.26522 29 8C29 7.73478 28.8946 7.48043 28.7071 7.29289C28.5196 7.10536 28.2652 7 28 7ZM18.9363 16.3512L17.4363 20.3512C17.3431 20.5999 17.155 20.8013 16.9133 20.9113C16.6716 21.0212 16.3961 21.0307 16.1475 20.9375C15.8989 20.8443 15.6974 20.6562 15.5875 20.4145C15.4775 20.1729 15.4681 19.8974 15.5612 19.6488L16.5613 17H14C13.8384 17 13.6792 16.9608 13.5361 16.8859C13.3929 16.8109 13.2701 16.7023 13.1781 16.5695C13.086 16.4367 13.0276 16.2836 13.0076 16.1232C12.9877 15.9628 13.007 15.8 13.0638 15.6488L14.5638 11.6488C14.6569 11.4001 14.845 11.1987 15.0867 11.0887C15.3284 10.9788 15.6039 10.9693 15.8525 11.0625C16.1011 11.1557 16.3026 11.3438 16.4125 11.5855C16.5225 11.8271 16.5319 12.1026 16.4387 12.3512L15.4388 15H18C18.1616 15 18.3208 15.0392 18.4639 15.1141C18.6071 15.1891 18.7299 15.2977 18.8219 15.4305C18.914 15.5633 18.9724 15.7164 18.9923 15.8768C19.0123 16.0372 18.993 16.2 18.9363 16.3512Z" fill="#4A4A4F"/>
</svg>
