<svg width="32" height="32" viewBox="0 0 32 32" fill="none" xmlns="http://www.w3.org/2000/svg">
<path d="M26 4H6C5.46957 4 4.96086 4.21071 4.58579 4.58579C4.21071 4.96086 4 5.46957 4 6V26C4 26.5304 4.21071 27.0391 4.58579 27.4142C4.96086 27.7893 5.46957 28 6 28H26C26.5304 28 27.0391 27.7893 27.4142 27.4142C27.7893 27.0391 28 26.5304 28 26V6C28 5.46957 27.7893 4.96086 27.4142 4.58579C27.0391 4.21071 26.5304 4 26 4ZM7 12C7 11.7348 7.10536 11.4804 7.29289 11.2929C7.48043 11.1054 7.73478 11 8 11H10V9C10 8.73478 10.1054 8.48043 10.2929 8.29289C10.4804 8.10536 10.7348 8 11 8C11.2652 8 11.5196 8.10536 11.7071 8.29289C11.8946 8.48043 12 8.73478 12 9V11H14C14.2652 11 14.5196 11.1054 14.7071 11.2929C14.8946 11.4804 15 11.7348 15 12C15 12.2652 14.8946 12.5196 14.7071 12.7071C14.5196 12.8946 14.2652 13 14 13H12V15C12 15.2652 11.8946 15.5196 11.7071 15.7071C11.5196 15.8946 11.2652 16 11 16C10.7348 16 10.4804 15.8946 10.2929 15.7071C10.1054 15.5196 10 15.2652 10 15V13H8C7.73478 13 7.48043 12.8946 7.29289 12.7071C7.10536 12.5196 7 12.2652 7 12ZM10 24C9.8021 24.0002 9.60861 23.9416 9.44402 23.8317C9.27942 23.7218 9.15113 23.5656 9.07538 23.3828C8.99963 23.2 8.97982 22.9988 9.01847 22.8047C9.05712 22.6106 9.15249 22.4324 9.2925 22.2925L21.2925 10.2925C21.3854 10.1996 21.4957 10.1259 21.6171 10.0756C21.7385 10.0253 21.8686 9.99944 22 9.99944C22.1314 9.99944 22.2615 10.0253 22.3829 10.0756C22.5043 10.1259 22.6146 10.1996 22.7075 10.2925C22.8004 10.3854 22.8741 10.4957 22.9244 10.6171C22.9747 10.7385 23.0006 10.8686 23.0006 11C23.0006 11.1314 22.9747 11.2615 22.9244 11.3829C22.8741 11.5043 22.8004 11.6146 22.7075 11.7075L10.7075 23.7075C10.6146 23.8003 10.5042 23.8739 10.3828 23.9241C10.2615 23.9743 10.1314 24.0001 10 24ZM24 23H18C17.7348 23 17.4804 22.8946 17.2929 22.7071C17.1054 22.5196 17 22.2652 17 22C17 21.7348 17.1054 21.4804 17.2929 21.2929C17.4804 21.1054 17.7348 21 18 21H24C24.2652 21 24.5196 21.1054 24.7071 21.2929C24.8946 21.4804 25 21.7348 25 22C25 22.2652 24.8946 22.5196 24.7071 22.7071C24.5196 22.8946 24.2652 23 24 23Z" fill="#4A4A4F"/>
</svg>
