<svg width="32" height="32" viewBox="0 0 32 32" fill="none" xmlns="http://www.w3.org/2000/svg">
<path d="M16 3C13.4288 3 10.9154 3.76244 8.77759 5.1909C6.63975 6.61935 4.97351 8.64968 3.98957 11.0251C3.00563 13.4006 2.74819 16.0144 3.2498 18.5362C3.75141 21.0579 4.98953 23.3743 6.80762 25.1924C8.6257 27.0105 10.9421 28.2486 13.4638 28.7502C15.9856 29.2518 18.5995 28.9944 20.9749 28.0104C23.3503 27.0265 25.3807 25.3603 26.8091 23.2224C28.2376 21.0846 29 18.5712 29 16C28.9964 12.5533 27.6256 9.24882 25.1884 6.81163C22.7512 4.37445 19.4467 3.00364 16 3ZM7.55001 8.965L9.68376 11.0988C8.80036 12.2289 8.23889 13.5769 8.05876 15H5.04626C5.24724 12.7804 6.12071 10.675 7.55001 8.965ZM5.04626 17H8.06501C8.24514 18.4231 8.80661 19.7711 9.69001 20.9013L7.55001 23.035C6.12071 21.325 5.24724 19.2196 5.04626 17ZM15 26.9538C12.7808 26.7538 10.6755 25.8817 8.96501 24.4538L11.0988 22.32C12.23 23.1998 13.5779 23.7578 15 23.935V26.9538ZM15 8.065C13.5769 8.24513 12.2289 8.8066 11.0988 9.69L8.96501 7.55C10.6755 6.12206 12.7808 5.24991 15 5.05V8.065ZM26.9538 15H23.935C23.7567 13.5775 23.1974 12.2296 22.3163 11.0988L24.45 8.965C25.8793 10.675 26.7528 12.7804 26.9538 15ZM17 5.04625C19.2192 5.24616 21.3245 6.11831 23.035 7.54625L20.9013 9.68375C19.7711 8.80035 18.4231 8.23888 17 8.05875V5.04625ZM17 26.9538V23.935C18.4225 23.7567 19.7704 23.1974 20.9013 22.3162L23.035 24.45C21.325 25.8793 19.2196 26.7528 17 26.9538ZM24.45 23.035L22.3163 20.9013C23.1974 19.7704 23.7567 18.4225 23.935 17H26.9538C26.7528 19.2196 25.8793 21.325 24.45 23.035Z" fill="#4A4A4F"/>
</svg>
