<svg width="32" height="32" viewBox="0 0 32 32" fill="none" xmlns="http://www.w3.org/2000/svg">
<path d="M16 3C13.4288 3 10.9154 3.76244 8.77759 5.1909C6.63975 6.61935 4.97351 8.64968 3.98957 11.0251C3.00563 13.4006 2.74819 16.0144 3.2498 18.5362C3.75141 21.0579 4.98953 23.3743 6.80762 25.1924C8.6257 27.0105 10.9421 28.2486 13.4638 28.7502C15.9856 29.2518 18.5995 28.9944 20.9749 28.0104C23.3503 27.0265 25.3807 25.3603 26.8091 23.2224C28.2376 21.0846 29 18.5712 29 16C28.9964 12.5533 27.6256 9.24882 25.1884 6.81163C22.7512 4.37445 19.4467 3.00364 16 3ZM16 22C14.8133 22 13.6533 21.6481 12.6666 20.9888C11.6799 20.3295 10.9109 19.3925 10.4567 18.2961C10.0026 17.1997 9.88378 15.9933 10.1153 14.8295C10.3468 13.6656 10.9183 12.5965 11.7574 11.7574C12.5965 10.9182 13.6656 10.3468 14.8295 10.1153C15.9934 9.88378 17.1997 10.0026 18.2961 10.4567C19.3925 10.9108 20.3295 11.6799 20.9888 12.6666C21.6481 13.6533 22 14.8133 22 16C21.9984 17.5908 21.3657 19.116 20.2408 20.2408C19.116 21.3657 17.5908 21.9983 16 22ZM20.9013 9.68375C19.7711 8.80035 18.4231 8.23888 17 8.05875V5.04625C19.2192 5.24616 21.3245 6.11831 23.035 7.54625L20.9013 9.68375ZM15 8.065C13.5769 8.24513 12.2289 8.8066 11.0988 9.69L8.96501 7.55C10.6755 6.12206 12.7808 5.24991 15 5.05V8.065ZM9.68376 11.0988C8.80036 12.2289 8.23889 13.5769 8.05876 15H5.04626C5.24617 12.7808 6.11832 10.6755 7.54626 8.965L9.68376 11.0988ZM8.06501 17C8.24514 18.4231 8.80661 19.7711 9.69001 20.9013L7.55001 23.035C6.12207 21.3245 5.24992 19.2192 5.05001 17H8.06501ZM11.0988 22.3162C12.2296 23.1974 13.5775 23.7567 15 23.935V26.9538C12.7808 26.7538 10.6755 25.8817 8.96501 24.4538L11.0988 22.3162ZM17 23.935C18.4225 23.7567 19.7704 23.1974 20.9013 22.3162L23.035 24.45C21.3245 25.8779 19.2192 26.7501 17 26.95V23.935ZM22.3163 20.9013C23.1974 19.7704 23.7567 18.4225 23.935 17H26.9538C26.7538 19.2192 25.8817 21.3245 24.4538 23.035L22.3163 20.9013ZM23.935 15C23.7567 13.5775 23.1974 12.2296 22.3163 11.0988L24.45 8.965C25.8779 10.6755 26.7501 12.7808 26.95 15H23.935Z" fill="#4A4A4F"/>
</svg>
