<svg width="32" height="32" viewBox="0 0 32 32" fill="none" xmlns="http://www.w3.org/2000/svg">
<path d="M30 14H28.58L25.1562 8.0075C24.9813 7.70145 24.7286 7.44707 24.4237 7.27014C24.1188 7.09321 23.7725 7.00002 23.42 7H8.58C8.22748 7.00002 7.88123 7.09321 7.57632 7.27014C7.27141 7.44707 7.01869 7.70145 6.84375 8.0075L3.42 14H2C1.73478 14 1.48043 14.1054 1.29289 14.2929C1.10536 14.4804 1 14.7348 1 15C1 15.2652 1.10536 15.5196 1.29289 15.7071C1.48043 15.8946 1.73478 16 2 16H3V26C3 26.5304 3.21071 27.0391 3.58579 27.4142C3.96086 27.7893 4.46957 28 5 28H8C8.53043 28 9.03914 27.7893 9.41421 27.4142C9.78929 27.0391 10 26.5304 10 26V24H22V26C22 26.5304 22.2107 27.0391 22.5858 27.4142C22.9609 27.7893 23.4696 28 24 28H27C27.5304 28 28.0391 27.7893 28.4142 27.4142C28.7893 27.0391 29 26.5304 29 26V16H30C30.2652 16 30.5196 15.8946 30.7071 15.7071C30.8946 15.5196 31 15.2652 31 15C31 14.7348 30.8946 14.4804 30.7071 14.2929C30.5196 14.1054 30.2652 14 30 14ZM8.58 9H23.42L26.2763 14H5.72375L8.58 9ZM8 26H5V24H8V26ZM24 26V24H27V26H24ZM27 22H5V16H27V22ZM7 19C7 18.7348 7.10536 18.4804 7.29289 18.2929C7.48043 18.1054 7.73478 18 8 18H10C10.2652 18 10.5196 18.1054 10.7071 18.2929C10.8946 18.4804 11 18.7348 11 19C11 19.2652 10.8946 19.5196 10.7071 19.7071C10.5196 19.8946 10.2652 20 10 20H8C7.73478 20 7.48043 19.8946 7.29289 19.7071C7.10536 19.5196 7 19.2652 7 19ZM21 19C21 18.7348 21.1054 18.4804 21.2929 18.2929C21.4804 18.1054 21.7348 18 22 18H24C24.2652 18 24.5196 18.1054 24.7071 18.2929C24.8946 18.4804 25 18.7348 25 19C25 19.2652 24.8946 19.5196 24.7071 19.7071C24.5196 19.8946 24.2652 20 24 20H22C21.7348 20 21.4804 19.8946 21.2929 19.7071C21.1054 19.5196 21 19.2652 21 19ZM12 4C12 3.73478 12.1054 3.48043 12.2929 3.29289C12.4804 3.10536 12.7348 3 13 3H19C19.2652 3 19.5196 3.10536 19.7071 3.29289C19.8946 3.48043 20 3.73478 20 4C20 4.26522 19.8946 4.51957 19.7071 4.70711C19.5196 4.89464 19.2652 5 19 5H13C12.7348 5 12.4804 4.89464 12.2929 4.70711C12.1054 4.51957 12 4.26522 12 4Z" fill="#4A4A4F"/>
</svg>
