<svg width="32" height="32" viewBox="0 0 32 32" fill="none" xmlns="http://www.w3.org/2000/svg">
<path d="M28.8301 6.16983C28.4587 5.7983 28.0177 5.50358 27.5323 5.3025C27.047 5.10143 26.5268 4.99794 26.0014 4.99794C25.476 4.99794 24.9558 5.10143 24.4705 5.3025C23.9851 5.50358 23.5441 5.7983 23.1726 6.16983C22.9209 6.42145 22.704 6.70564 22.5276 7.01483L19.0001 6.05233C19.011 5.25653 18.7843 4.47557 18.3489 3.80935C17.9135 3.14312 17.2893 2.62192 16.5561 2.31242C15.8228 2.00291 15.014 1.91917 14.2329 2.07191C13.4518 2.22465 12.734 2.60692 12.1714 3.16983C11.5707 3.772 11.1771 4.54969 11.0477 5.39036C10.9182 6.23104 11.0596 7.0911 11.4514 7.84608L7.2089 11.6648C6.43917 11.1561 5.51743 10.9286 4.59939 11.0209C3.68135 11.1131 2.82329 11.5194 2.17015 12.1711C1.43986 12.8958 1.01693 13.8741 0.989243 14.9026C0.96156 15.9311 1.33126 16.9307 2.0215 17.6937C2.71175 18.4567 3.66945 18.9244 4.69558 18.9996C5.72171 19.0747 6.73734 18.7516 7.5314 18.0973L16.2814 24.5173C16.0014 25.2186 15.9255 25.9847 16.0627 26.7272C16.1998 27.4697 16.5443 28.1583 17.0563 28.7132C17.5683 29.2682 18.227 29.6669 18.9561 29.8632C19.6852 30.0595 20.4549 30.0455 21.1764 29.8227C21.8978 29.5999 22.5415 29.1775 23.0329 28.6042C23.5244 28.031 23.8435 27.3303 23.9535 26.5833C24.0635 25.8363 23.9597 25.0734 23.6543 24.3829C23.3489 23.6923 22.8543 23.1023 22.2276 22.6811L25.6514 12.9823C25.7664 12.9923 25.8814 12.9973 25.9964 12.9973C26.7874 12.9972 27.5605 12.7626 28.2182 12.3231C28.8758 11.8837 29.3884 11.2591 29.6912 10.5284C29.9939 9.79766 30.0732 8.99358 29.9191 8.21779C29.7649 7.44199 29.3843 6.72931 28.8251 6.16983H28.8301ZM20.3464 22.0186C19.3094 21.9283 18.2781 22.2457 17.4714 22.9036L8.7214 16.4836C8.93345 15.9487 9.02822 15.3745 8.99933 14.7998C8.97043 14.2251 8.81853 13.6633 8.5539 13.1523L12.7976 9.33358C13.2542 9.63618 13.768 9.84179 14.3073 9.93766C14.8466 10.0335 15.3998 10.0176 15.9327 9.89096C16.4655 9.76427 16.9667 9.5295 17.4051 9.20119C17.8436 8.87287 18.2099 8.45802 18.4814 7.98233L22.0001 8.94483C21.9906 9.60977 22.147 10.2666 22.4552 10.8559C22.7634 11.4452 23.2136 11.9483 23.7651 12.3198L20.3464 22.0186Z" fill="#4A4A4F"/>
</svg>
