<svg width="32" height="32" viewBox="0 0 32 32" fill="none" xmlns="http://www.w3.org/2000/svg">
<path d="M28.6901 9.27621C28.5726 9.1658 28.4303 9.08541 28.2751 9.04188C28.1199 8.99835 27.9565 8.99298 27.7988 9.02621C27.6046 8.32818 27.2744 7.67539 26.8272 7.10535C26.38 6.53531 25.8246 6.05925 25.1928 5.70452C24.561 5.34978 23.8654 5.12337 23.1459 5.03829C22.4264 4.9532 21.6971 5.01112 21 5.20871C20.5613 4.2513 19.8569 3.43998 18.9706 2.87117C18.0842 2.30237 17.0532 2 16.0001 2C14.9469 2 13.9159 2.30237 13.0295 2.87117C12.1432 3.43998 11.4388 4.2513 11.0001 5.20871C10.3031 5.01086 9.57401 4.95264 8.85454 5.03739C8.13507 5.12214 7.43942 5.3482 6.80757 5.70257C6.17571 6.05695 5.62009 6.53266 5.17261 7.10239C4.72513 7.67211 4.39462 8.32463 4.20005 9.02246C4.03578 8.98875 3.86566 8.99689 3.70536 9.04614C3.54506 9.09539 3.39971 9.18415 3.2827 9.30428C3.16569 9.42441 3.08076 9.57203 3.03574 9.73357C2.99071 9.89511 2.98704 10.0654 3.02505 10.2287L6.84505 26.4587C6.94846 26.8975 7.19707 27.2885 7.55058 27.5683C7.90408 27.848 8.34174 28.0001 8.79255 28H23.2076C23.6584 28.0001 24.096 27.848 24.4495 27.5683C24.803 27.2885 25.0516 26.8975 25.1551 26.4587L28.9738 10.2287C29.0136 10.059 29.0084 9.8818 28.9586 9.71472C28.9089 9.54763 28.8163 9.39647 28.6901 9.27621ZM8.79255 26L5.3638 11.43L10.0951 12.7812L11.8576 26H8.79255ZM15.2576 9.21996L10.9463 10.945L6.12505 9.56746C6.26461 9.06258 6.51572 8.59546 6.85986 8.20055C7.20399 7.80564 7.63238 7.49301 8.11344 7.28571C8.59449 7.07841 9.11594 6.98174 9.63933 7.00281C10.1627 7.02388 10.6747 7.16216 11.1376 7.40746C11.2737 7.47966 11.4246 7.51943 11.5787 7.52367C11.7327 7.5279 11.8856 7.49648 12.0255 7.43187C12.1654 7.36725 12.2884 7.27118 12.3851 7.15116C12.4817 7.03114 12.5493 6.89041 12.5826 6.73996C12.7556 5.96299 13.1884 5.26823 13.8095 4.77031C14.4305 4.27238 15.2028 4.00104 15.9988 4.00104C16.7948 4.00104 17.5671 4.27238 18.1881 4.77031C18.8092 5.26823 19.242 5.96299 19.4151 6.73996C19.4483 6.89041 19.5159 7.03114 19.6125 7.15116C19.7092 7.27118 19.8322 7.36725 19.9721 7.43187C20.112 7.49648 20.2649 7.5279 20.4189 7.52367C20.573 7.51943 20.7239 7.47966 20.8601 7.40746C21.323 7.16169 21.8352 7.02303 22.3589 7.00171C22.8826 6.9804 23.4044 7.07697 23.8858 7.2843C24.3671 7.49163 24.7958 7.80443 25.1401 8.1996C25.4844 8.59478 25.7356 9.06223 25.875 9.56746L21.055 10.9425L16.7438 9.21746C16.2665 9.02735 15.7343 9.02825 15.2576 9.21996ZM23.2076 26H20.1425L21.9051 12.7812L26.6363 11.43L23.2076 26Z" fill="#4A4A4F"/>
</svg>
