<svg width="32" height="32" viewBox="0 0 32 32" fill="none" xmlns="http://www.w3.org/2000/svg">
<path d="M24.9999 18.0001H15.4124L18.2136 15.1988C19.2264 15.7089 20.3423 15.9808 21.4761 15.9938C22.6174 15.9969 23.7374 15.6845 24.7124 15.0913C27.6774 13.2963 29.2661 9.14135 28.9624 3.97635C28.9481 3.7317 28.8445 3.50082 28.6712 3.32754C28.4979 3.15426 28.267 3.05063 28.0224 3.03635C22.8574 2.7326 18.7024 4.32135 16.9061 7.28635C15.7374 9.2176 15.7074 11.5501 16.7986 13.7863L14.9999 15.5851L13.4736 14.0588C14.2236 12.4026 14.1699 10.6838 13.2999 9.24885C11.9411 7.0001 8.82614 5.80135 4.96614 6.0276C4.72192 6.04215 4.4915 6.14572 4.31851 6.31872C4.14551 6.49172 4.04194 6.72213 4.02739 6.96635C3.79989 10.8251 4.99989 13.9401 7.24989 15.3001C8.00263 15.7597 8.86792 16.002 9.74989 16.0001C10.55 15.9922 11.3393 15.8136 12.0649 15.4763L13.5861 17.0001L12.5861 18.0001H6.99989C6.73467 18.0001 6.48032 18.1055 6.29278 18.293C6.10524 18.4805 5.99989 18.7349 5.99989 19.0001C5.99989 19.2653 6.10524 19.5197 6.29278 19.7072C6.48032 19.8947 6.73467 20.0001 6.99989 20.0001H8.19864L9.84989 27.4338C9.94625 27.8793 10.1929 28.2781 10.5484 28.5632C10.9039 28.8484 11.3466 29.0027 11.8024 29.0001H20.1986C20.6543 29.0022 21.0968 28.8478 21.4522 28.5627C21.8076 28.2776 22.0543 27.8791 22.1511 27.4338L23.8024 20.0001H24.9999C25.2651 20.0001 25.5195 19.8947 25.707 19.7072C25.8945 19.5197 25.9999 19.2653 25.9999 19.0001C25.9999 18.7349 25.8945 18.4805 25.707 18.293C25.5195 18.1055 25.2651 18.0001 24.9999 18.0001Z" fill="#4A4A4F"/>
</svg>
