<svg width="32" height="32" viewBox="0 0 32 32" fill="none" xmlns="http://www.w3.org/2000/svg">
<path d="M16 15H12V9H16C16.7956 9 17.5587 9.31607 18.1213 9.87868C18.6839 10.4413 19 11.2044 19 12C19 12.7956 18.6839 13.5587 18.1213 14.1213C17.5587 14.6839 16.7956 15 16 15ZM28 6V26C28 26.5304 27.7893 27.0391 27.4142 27.4142C27.0391 27.7893 26.5304 28 26 28H6C5.46957 28 4.96086 27.7893 4.58579 27.4142C4.21071 27.0391 4 26.5304 4 26V6C4 5.46957 4.21071 4.96086 4.58579 4.58579C4.96086 4.21071 5.46957 4 6 4H26C26.5304 4 27.0391 4.21071 27.4142 4.58579C27.7893 4.96086 28 5.46957 28 6ZM23.7075 23.2925L21.9137 21.5L23.7075 19.7075C23.8951 19.5199 24.0006 19.2654 24.0006 19C24.0006 18.7346 23.8951 18.4801 23.7075 18.2925C23.5199 18.1049 23.2654 17.9994 23 17.9994C22.7346 17.9994 22.4801 18.1049 22.2925 18.2925L20.5 20.0863L17.25 16.8363C18.4239 16.5282 19.4457 15.8038 20.1248 14.7979C20.804 13.7921 21.0941 12.5736 20.9411 11.3696C20.7881 10.1657 20.2024 9.05846 19.2933 8.25447C18.3842 7.45048 17.2136 7.00461 16 7H11C10.7348 7 10.4804 7.10536 10.2929 7.29289C10.1054 7.48043 10 7.73478 10 8V22C10 22.2652 10.1054 22.5196 10.2929 22.7071C10.4804 22.8946 10.7348 23 11 23C11.2652 23 11.5196 22.8946 11.7071 22.7071C11.8946 22.5196 12 22.2652 12 22V17H14.5863L19.0863 21.5L17.2925 23.2925C17.1049 23.4801 16.9994 23.7346 16.9994 24C16.9994 24.2654 17.1049 24.5199 17.2925 24.7075C17.4801 24.8951 17.7346 25.0006 18 25.0006C18.2654 25.0006 18.5199 24.8951 18.7075 24.7075L20.5 22.9137L22.2925 24.7075C22.3854 24.8004 22.4957 24.8741 22.6171 24.9244C22.7385 24.9747 22.8686 25.0006 23 25.0006C23.1314 25.0006 23.2615 24.9747 23.3829 24.9244C23.5043 24.8741 23.6146 24.8004 23.7075 24.7075C23.8004 24.6146 23.8741 24.5043 23.9244 24.3829C23.9747 24.2615 24.0006 24.1314 24.0006 24C24.0006 23.8686 23.9747 23.7385 23.9244 23.6171C23.8741 23.4957 23.8004 23.3854 23.7075 23.2925Z" fill="#4A4A4F"/>
</svg>
