<svg width="32" height="32" viewBox="0 0 32 32" fill="none" xmlns="http://www.w3.org/2000/svg">
<path d="M22.9137 23.5L25.7075 20.7075C25.8951 20.5199 26.0006 20.2654 26.0006 20C26.0006 19.7346 25.8951 19.4801 25.7075 19.2925C25.5199 19.1049 25.2654 18.9994 25 18.9994C24.7346 18.9994 24.4801 19.1049 24.2925 19.2925L21.5 22.0863L16.3563 16.9412C17.9883 16.7204 19.4757 15.8882 20.5178 14.6129C21.5599 13.3375 22.079 11.7142 21.9703 10.0709C21.8615 8.42751 21.133 6.88671 19.932 5.75981C18.731 4.63291 17.1469 4.00394 15.5 4H9C8.73478 4 8.48043 4.10536 8.29289 4.29289C8.10536 4.48043 8 4.73478 8 5V24C8 24.2652 8.10536 24.5196 8.29289 24.7071C8.48043 24.8946 8.73478 25 9 25C9.26522 25 9.51957 24.8946 9.70711 24.7071C9.89464 24.5196 10 24.2652 10 24V17H13.5863L20.0863 23.5L17.2925 26.2925C17.1049 26.4801 16.9994 26.7346 16.9994 27C16.9994 27.2654 17.1049 27.5199 17.2925 27.7075C17.4801 27.8951 17.7346 28.0006 18 28.0006C18.2654 28.0006 18.5199 27.8951 18.7075 27.7075L21.5 24.9137L24.2925 27.7075C24.3854 27.8004 24.4957 27.8741 24.6171 27.9244C24.7385 27.9747 24.8686 28.0006 25 28.0006C25.1314 28.0006 25.2615 27.9747 25.3829 27.9244C25.5043 27.8741 25.6146 27.8004 25.7075 27.7075C25.8004 27.6146 25.8741 27.5043 25.9244 27.3829C25.9747 27.2615 26.0006 27.1314 26.0006 27C26.0006 26.8686 25.9747 26.7385 25.9244 26.6171C25.8741 26.4957 25.8004 26.3854 25.7075 26.2925L22.9137 23.5ZM10 6H15.5C16.6935 6 17.8381 6.47411 18.682 7.31802C19.5259 8.16193 20 9.30653 20 10.5C20 11.6935 19.5259 12.8381 18.682 13.682C17.8381 14.5259 16.6935 15 15.5 15H10V6Z" fill="#4A4A4F"/>
</svg>
