<svg width="32" height="32" viewBox="0 0 32 32" fill="none" xmlns="http://www.w3.org/2000/svg">
<path d="M26.8337 9H25V5C25 4.73478 24.8946 4.48043 24.7071 4.29289C24.5196 4.10536 24.2652 4 24 4H8C7.73478 4 7.48043 4.10536 7.29289 4.29289C7.10536 4.48043 7 4.73478 7 5V9H5.16625C3.42 9 2 10.3463 2 12V22C2 22.2652 2.10536 22.5196 2.29289 22.7071C2.48043 22.8946 2.73478 23 3 23H7V27C7 27.2652 7.10536 27.5196 7.29289 27.7071C7.48043 27.8946 7.73478 28 8 28H24C24.2652 28 24.5196 27.8946 24.7071 27.7071C24.8946 27.5196 25 27.2652 25 27V23H29C29.2652 23 29.5196 22.8946 29.7071 22.7071C29.8946 22.5196 30 22.2652 30 22V12C30 10.3463 28.58 9 26.8337 9ZM9 6H23V9H9V6ZM23 26H9V20H23V26ZM28 21H25V19C25 18.7348 24.8946 18.4804 24.7071 18.2929C24.5196 18.1054 24.2652 18 24 18H8C7.73478 18 7.48043 18.1054 7.29289 18.2929C7.10536 18.4804 7 18.7348 7 19V21H4V12C4 11.4488 4.52375 11 5.16625 11H26.8337C27.4762 11 28 11.4488 28 12V21ZM25 14.5C25 14.7967 24.912 15.0867 24.7472 15.3334C24.5824 15.58 24.3481 15.7723 24.074 15.8858C23.7999 15.9994 23.4983 16.0291 23.2074 15.9712C22.9164 15.9133 22.6491 15.7704 22.4393 15.5607C22.2296 15.3509 22.0867 15.0836 22.0288 14.7926C21.9709 14.5017 22.0007 14.2001 22.1142 13.926C22.2277 13.6519 22.42 13.4176 22.6666 13.2528C22.9133 13.088 23.2033 13 23.5 13C23.8978 13 24.2794 13.158 24.5607 13.4393C24.842 13.7206 25 14.1022 25 14.5Z" fill="#4A4A4F"/>
</svg>
