<svg width="32" height="32" viewBox="0 0 32 32" fill="none" xmlns="http://www.w3.org/2000/svg">
<path d="M25 16C25.0011 18.0413 24.3052 20.0218 23.0275 21.6138L10.3863 8.9725C11.7094 7.91346 13.3049 7.24983 14.9888 7.0581C16.6727 6.86638 18.3766 7.15435 19.9039 7.88884C21.4313 8.62333 22.7201 9.77444 23.6217 11.2095C24.5233 12.6446 25.0011 14.3052 25 16ZM7.00001 16C6.9989 17.6948 7.47669 19.3554 8.37831 20.7905C9.27993 22.2256 10.5687 23.3767 12.0961 24.1112C13.6234 24.8457 15.3273 25.1336 17.0112 24.9419C18.6951 24.7502 20.2906 24.0865 21.6138 23.0275L8.97251 10.3862C7.69482 11.9782 6.99893 13.9587 7.00001 16ZM29.5 16C29.5 18.67 28.7082 21.2801 27.2248 23.5002C25.7414 25.7203 23.633 27.4506 21.1662 28.4724C18.6994 29.4942 15.985 29.7615 13.3663 29.2406C10.7475 28.7197 8.34207 27.434 6.45406 25.5459C4.56606 23.6579 3.28031 21.2525 2.7594 18.6337C2.2385 16.015 2.50585 13.3006 3.52763 10.8338C4.54942 8.36697 6.27974 6.25856 8.49981 4.77516C10.7199 3.29176 13.33 2.5 16 2.5C19.5792 2.50397 23.0107 3.92756 25.5416 6.45844C28.0724 8.98932 29.496 12.4208 29.5 16ZM27 16C27 13.8244 26.3549 11.6977 25.1462 9.88873C23.9375 8.07979 22.2195 6.66989 20.2095 5.83733C18.1995 5.00476 15.9878 4.78692 13.854 5.21136C11.7202 5.6358 9.76021 6.68345 8.22183 8.22183C6.68345 9.7602 5.63581 11.7202 5.21137 13.854C4.78693 15.9878 5.00477 18.1995 5.83733 20.2095C6.6699 22.2195 8.07979 23.9375 9.88873 25.1462C11.6977 26.3549 13.8244 27 16 27C18.9164 26.9967 21.7123 25.8367 23.7745 23.7745C25.8367 21.7123 26.9967 18.9164 27 16Z" fill="#4A4A4F"/>
</svg>
