<svg width="32" height="32" viewBox="0 0 32 32" fill="none" xmlns="http://www.w3.org/2000/svg">
<path d="M11 18V16C11 15.7348 11.1054 15.4804 11.2929 15.2929C11.4804 15.1054 11.7348 15 12 15C12.2652 15 12.5196 15.1054 12.7071 15.2929C12.8946 15.4804 13 15.7348 13 16V18C13 18.2652 12.8946 18.5196 12.7071 18.7071C12.5196 18.8946 12.2652 19 12 19C11.7348 19 11.4804 18.8946 11.2929 18.7071C11.1054 18.5196 11 18.2652 11 18ZM16 19C16.2652 19 16.5196 18.8946 16.7071 18.7071C16.8946 18.5196 17 18.2652 17 18V15C17 14.7348 16.8946 14.4804 16.7071 14.2929C16.5196 14.1054 16.2652 14 16 14C15.7348 14 15.4804 14.1054 15.2929 14.2929C15.1054 14.4804 15 14.7348 15 15V18C15 18.2652 15.1054 18.5196 15.2929 18.7071C15.4804 18.8946 15.7348 19 16 19ZM20 19C20.2652 19 20.5196 18.8946 20.7071 18.7071C20.8946 18.5196 21 18.2652 21 18V14C21 13.7348 20.8946 13.4804 20.7071 13.2929C20.5196 13.1054 20.2652 13 20 13C19.7348 13 19.4804 13.1054 19.2929 13.2929C19.1054 13.4804 19 13.7348 19 14V18C19 18.2652 19.1054 18.5196 19.2929 18.7071C19.4804 18.8946 19.7348 19 20 19ZM27 10V22H28C28.2652 22 28.5196 22.1054 28.7071 22.2929C28.8946 22.4804 29 22.7348 29 23C29 23.2652 28.8946 23.5196 28.7071 23.7071C28.5196 23.8946 28.2652 24 28 24H17V26.1725C17.6672 26.4084 18.2296 26.8726 18.5876 27.483C18.9457 28.0934 19.0765 28.8107 18.9568 29.5082C18.8371 30.2057 18.4747 30.8385 17.9337 31.2946C17.3926 31.7507 16.7077 32.0009 16 32.0009C15.2923 32.0009 14.6074 31.7507 14.0663 31.2946C13.5253 30.8385 13.1629 30.2057 13.0432 29.5082C12.9235 28.8107 13.0543 28.0934 13.4124 27.483C13.7704 26.8726 14.3328 26.4084 15 26.1725V24H4C3.73478 24 3.48043 23.8946 3.29289 23.7071C3.10536 23.5196 3 23.2652 3 23C3 22.7348 3.10536 22.4804 3.29289 22.2929C3.48043 22.1054 3.73478 22 4 22H5V10C4.46957 10 3.96086 9.78929 3.58579 9.41421C3.21071 9.03914 3 8.53043 3 8V6C3 5.46957 3.21071 4.96086 3.58579 4.58579C3.96086 4.21071 4.46957 4 5 4H27C27.5304 4 28.0391 4.21071 28.4142 4.58579C28.7893 4.96086 29 5.46957 29 6V8C29 8.53043 28.7893 9.03914 28.4142 9.41421C28.0391 9.78929 27.5304 10 27 10ZM17 29C17 28.8022 16.9414 28.6089 16.8315 28.4444C16.7216 28.28 16.5654 28.1518 16.3827 28.0761C16.2 28.0004 15.9989 27.9806 15.8049 28.0192C15.6109 28.0578 15.4327 28.153 15.2929 28.2929C15.153 28.4327 15.0578 28.6109 15.0192 28.8049C14.9806 28.9989 15.0004 29.2 15.0761 29.3827C15.1518 29.5654 15.28 29.7216 15.4444 29.8315C15.6089 29.9414 15.8022 30 16 30C16.2652 30 16.5196 29.8946 16.7071 29.7071C16.8946 29.5196 17 29.2652 17 29ZM5 8H27V6H5V8ZM25 10H7V22H25V10Z" fill="#4A4A4F"/>
</svg>
