<svg width="32" height="32" viewBox="0 0 32 32" fill="none" xmlns="http://www.w3.org/2000/svg">
<path d="M29 8V6C29 5.46957 28.7893 4.96086 28.4142 4.58579C28.0391 4.21071 27.5304 4 27 4H5C4.46957 4 3.96086 4.21071 3.58579 4.58579C3.21071 4.96086 3 5.46957 3 6V8C3 8.53043 3.21071 9.03914 3.58579 9.41421C3.96086 9.78929 4.46957 10 5 10V22H4C3.73478 22 3.48043 22.1054 3.29289 22.2929C3.10536 22.4804 3 22.7348 3 23C3 23.2652 3.10536 23.5196 3.29289 23.7071C3.48043 23.8946 3.73478 24 4 24H15V26.1725C14.3328 26.4084 13.7704 26.8726 13.4124 27.483C13.0543 28.0934 12.9235 28.8107 13.0432 29.5082C13.1629 30.2057 13.5253 30.8385 14.0663 31.2946C14.6074 31.7507 15.2923 32.0009 16 32.0009C16.7077 32.0009 17.3926 31.7507 17.9337 31.2946C18.4747 30.8385 18.8371 30.2057 18.9568 29.5082C19.0765 28.8107 18.9457 28.0934 18.5876 27.483C18.2296 26.8726 17.6672 26.4084 17 26.1725V24H28C28.2652 24 28.5196 23.8946 28.7071 23.7071C28.8946 23.5196 29 23.2652 29 23C29 22.7348 28.8946 22.4804 28.7071 22.2929C28.5196 22.1054 28.2652 22 28 22H27V10C27.5304 10 28.0391 9.78929 28.4142 9.41421C28.7893 9.03914 29 8.53043 29 8ZM16 30C15.8022 30 15.6089 29.9414 15.4444 29.8315C15.28 29.7216 15.1518 29.5654 15.0761 29.3827C15.0004 29.2 14.9806 28.9989 15.0192 28.8049C15.0578 28.6109 15.153 28.4327 15.2929 28.2929C15.4327 28.153 15.6109 28.0578 15.8049 28.0192C15.9989 27.9806 16.2 28.0004 16.3827 28.0761C16.5654 28.1518 16.7216 28.28 16.8315 28.4444C16.9414 28.6089 17 28.8022 17 29C17 29.2652 16.8946 29.5196 16.7071 29.7071C16.5196 29.8946 16.2652 30 16 30ZM5 6H27V8H5V6ZM25 22H7V10H25V22Z" fill="#4A4A4F"/>
</svg>
