<svg width="32" height="32" viewBox="0 0 32 32" fill="none" xmlns="http://www.w3.org/2000/svg">
<path d="M30 15.9998C30 16.265 29.8946 16.5193 29.7071 16.7069C29.5196 16.8944 29.2652 16.9998 29 16.9998H25.6175L20.895 26.4473C20.8119 26.6134 20.6841 26.7531 20.526 26.8507C20.3679 26.9483 20.1858 26.9999 20 26.9998H19.95C19.756 26.9902 19.569 26.9243 19.4119 26.8102C19.2547 26.6961 19.1342 26.5387 19.065 26.3573L11.9187 7.59477L7.91 16.4135C7.83058 16.5883 7.70255 16.7365 7.54118 16.8404C7.37982 16.9444 7.19195 16.9997 7 16.9998H3C2.73478 16.9998 2.48043 16.8944 2.29289 16.7069C2.10536 16.5193 2 16.265 2 15.9998C2 15.7346 2.10536 15.4802 2.29289 15.2927C2.48043 15.1051 2.73478 14.9998 3 14.9998H6.35625L11.09 4.58602C11.1716 4.40632 11.3046 4.25478 11.4721 4.1505C11.6397 4.04621 11.8344 3.99385 12.0317 4C12.2289 4.00615 12.42 4.07053 12.5807 4.18505C12.7415 4.29956 12.8647 4.45909 12.935 4.64352L20.1238 23.5185L24.105 15.5548C24.1878 15.3882 24.3154 15.248 24.4735 15.1499C24.6316 15.0519 24.814 14.9999 25 14.9998H29C29.2652 14.9998 29.5196 15.1051 29.7071 15.2927C29.8946 15.4802 30 15.7346 30 15.9998Z" fill="#4A4A4F"/>
</svg>
