<svg width="32" height="32" viewBox="0 0 32 32" fill="none" xmlns="http://www.w3.org/2000/svg">
<path d="M29.4161 12.9999L22.7323 19.7062C23.3023 21.2899 23.5386 23.9424 21.0836 27.2062C20.9119 27.4357 20.6927 27.6254 20.4409 27.7624C20.1892 27.8994 19.9108 27.9804 19.6248 27.9999C19.5773 27.9999 19.5311 27.9999 19.4836 27.9999C19.2208 28 18.9605 27.9482 18.7178 27.8476C18.475 27.747 18.2544 27.5996 18.0686 27.4137L12.0361 21.3749L6.70735 26.7074C6.51971 26.8951 6.26521 27.0005 5.99985 27.0005C5.73448 27.0005 5.47999 26.8951 5.29235 26.7074C5.10471 26.5198 4.99929 26.2653 4.99929 25.9999C4.99929 25.7345 5.10471 25.4801 5.29235 25.2924L10.6248 19.9637L4.58735 13.9262C4.3889 13.7275 4.23451 13.4892 4.13425 13.2269C4.03399 12.9646 3.99009 12.6841 4.00542 12.4037C4.02075 12.1232 4.09496 11.8492 4.22322 11.5994C4.35148 11.3496 4.53092 11.1295 4.74985 10.9537C7.92735 8.38991 10.9686 8.89366 12.2998 9.31116L18.9998 2.58741C19.1856 2.40165 19.4061 2.25429 19.6487 2.15375C19.8914 2.05321 20.1515 2.00146 20.4142 2.00146C20.6769 2.00146 20.937 2.05321 21.1797 2.15375C21.4224 2.25429 21.6429 2.40165 21.8286 2.58741L29.4148 10.1724C29.7898 10.5473 30.0006 11.0557 30.0008 11.5859C30.001 12.1161 29.7907 12.6247 29.4161 12.9999Z" fill="#4A4A4F"/>
</svg>
