<svg width="32" height="32" viewBox="0 0 32 32" fill="none" xmlns="http://www.w3.org/2000/svg">
<path d="M29.415 10.1714L21.8287 2.58644C21.643 2.40067 21.4225 2.25331 21.1798 2.15277C20.9371 2.05223 20.677 2.00049 20.4143 2.00049C20.1517 2.00049 19.8916 2.05223 19.6489 2.15277C19.4062 2.25331 19.1857 2.40067 19 2.58644L12.2962 9.31144C10.9637 8.89394 7.92122 8.39019 4.74622 10.9539C4.52738 11.1299 4.34805 11.35 4.2199 11.5999C4.09175 11.8497 4.01766 12.1238 4.00245 12.4042C3.98724 12.6846 4.03125 12.9651 4.13161 13.2274C4.23198 13.4896 4.38645 13.7278 4.58497 13.9264L10.625 19.9639L5.29247 25.2927C5.10483 25.4803 4.99942 25.7348 4.99942 26.0002C4.99942 26.2656 5.10483 26.52 5.29247 26.7077C5.48011 26.8953 5.73461 27.0007 5.99997 27.0007C6.26534 27.0007 6.51983 26.8953 6.70747 26.7077L12.0362 21.3752L18.0725 27.4114C18.258 27.5978 18.4785 27.7457 18.7213 27.8467C18.9641 27.9478 19.2245 27.9999 19.4875 28.0002C19.535 28.0002 19.5812 28.0002 19.6287 28.0002C19.9138 27.9804 20.1913 27.8995 20.4424 27.763C20.6935 27.6265 20.9122 27.4375 21.0837 27.2089C23.5387 23.9464 23.3025 21.2939 22.7325 19.7089L29.4162 13.0002C29.6019 12.8144 29.7492 12.5938 29.8496 12.3511C29.95 12.1084 30.0017 11.8482 30.0015 11.5856C30.0014 11.3229 29.9496 11.0628 29.8489 10.8201C29.7483 10.5775 29.6008 10.3571 29.415 10.1714ZM28 11.5864L20.8412 18.7689C20.6934 18.9173 20.5959 19.1084 20.5625 19.3152C20.529 19.522 20.5614 19.734 20.655 19.9214C21.8375 22.2877 20.43 24.7452 19.4875 25.9989L5.99997 12.5102C7.50997 11.2927 8.95497 10.9714 10.06 10.9714C10.7611 10.9619 11.4565 11.0994 12.1012 11.3752C12.2893 11.4693 12.5023 11.5017 12.7099 11.4679C12.9175 11.434 13.1091 11.3355 13.2575 11.1864L20.415 4.00019L28 11.5852V11.5864Z" fill="#4A4A4F"/>
</svg>
