<svg width="32" height="32" viewBox="0 0 32 32" fill="none" xmlns="http://www.w3.org/2000/svg">
<path d="M10.4062 5.00008C10.4062 4.73487 10.5116 4.48051 10.6991 4.29298C10.8867 4.10544 11.141 4.00008 11.4062 4.00008H24C24.2652 4.00008 24.5196 4.10544 24.7071 4.29298C24.8946 4.48051 25 4.73487 25 5.00008C25 5.2653 24.8946 5.51965 24.7071 5.70719C24.5196 5.89473 24.2652 6.00008 24 6.00008H23.1925L25.5362 19.2876C25.582 19.5485 25.5225 19.8168 25.3706 20.0338C25.2188 20.2509 24.987 20.3988 24.7262 20.4451C24.6686 20.456 24.61 20.4614 24.5513 20.4613C24.3163 20.4611 24.089 20.3782 23.9091 20.2271C23.7293 20.076 23.6083 19.8664 23.5675 19.6351L21.1612 6.00008H11.4113C11.2795 6.00074 11.1489 5.97536 11.027 5.9254C10.9051 5.87544 10.7943 5.80189 10.7009 5.70896C10.6075 5.61604 10.5334 5.50558 10.4828 5.38393C10.4323 5.26227 10.4062 5.13183 10.4062 5.00008ZM26.6725 27.7401C26.4762 27.9184 26.2172 28.0115 25.9523 27.9988C25.6874 27.9862 25.4384 27.8688 25.26 27.6726L21.0125 23.0001H17V30.0001C17 30.2653 16.8946 30.5197 16.7071 30.7072C16.5196 30.8947 16.2652 31.0001 16 31.0001C15.7348 31.0001 15.4804 30.8947 15.2929 30.7072C15.1054 30.5197 15 30.2653 15 30.0001V23.0001H5C4.73478 23.0001 4.48043 22.8947 4.29289 22.7072C4.10536 22.5197 4 22.2653 4 22.0001C4 21.7349 4.10536 21.4805 4.29289 21.293C4.48043 21.1054 4.73478 21.0001 5 21.0001H6.16125L8.28 9.00008L5.26 5.67258C5.16983 5.57573 5.09979 5.46194 5.05392 5.33781C5.00806 5.21368 4.98728 5.08168 4.99281 4.94947C4.99833 4.81725 5.03004 4.68745 5.0861 4.56758C5.14216 4.44771 5.22146 4.34016 5.31939 4.25116C5.41732 4.16216 5.53194 4.09348 5.65661 4.04911C5.78128 4.00473 5.91352 3.98555 6.04566 3.99265C6.1778 3.99976 6.30721 4.03303 6.4264 4.09052C6.54559 4.14801 6.65218 4.22859 6.74 4.32758L26.74 26.3276C26.9183 26.5239 27.0114 26.7829 26.9988 27.0478C26.9861 27.3127 26.8687 27.5617 26.6725 27.7401ZM19.1938 21.0001L9.98 10.8651L8.1925 21.0001H19.1938Z" fill="#4A4A4F"/>
</svg>
