<svg width="32" height="32" viewBox="0 0 32 32" fill="none" xmlns="http://www.w3.org/2000/svg">
<path d="M14.5001 15.9999C14.5001 15.7033 14.588 15.4133 14.7528 15.1666C14.9177 14.9199 15.1519 14.7276 15.426 14.6141C15.7001 14.5006 16.0017 14.4709 16.2927 14.5288C16.5837 14.5866 16.8509 14.7295 17.0607 14.9393C17.2705 15.1491 17.4134 15.4163 17.4712 15.7073C17.5291 15.9983 17.4994 16.2999 17.3859 16.574C17.2723 16.8481 17.0801 17.0823 16.8334 17.2471C16.5867 17.412 16.2967 17.4999 16.0001 17.4999C15.6022 17.4999 15.2207 17.3419 14.9394 17.0606C14.6581 16.7793 14.5001 16.3978 14.5001 15.9999ZM12.2076 16.7062C12.3947 16.5188 12.4999 16.2648 12.5001 15.9999C12.5014 15.39 12.6615 14.7909 12.9646 14.2616C13.2677 13.7323 13.7034 13.291 14.2288 12.9812C14.4546 12.8474 14.6188 12.6303 14.6859 12.3765C14.753 12.1228 14.7177 11.8529 14.5876 11.6249L11.3438 5.99994C11.2048 5.75891 11.0171 5.54954 10.7926 5.3852C10.5681 5.22086 10.3117 5.10517 10.04 5.04552C9.76822 4.98588 9.48701 4.98359 9.21431 5.0388C8.94162 5.09402 8.68345 5.20552 8.4563 5.36619C6.91862 6.45023 5.635 7.85562 4.69438 9.48498C3.75375 11.1143 3.17861 12.9287 3.0088 14.8024C2.98376 15.0822 3.01716 15.3642 3.1069 15.6304C3.19663 15.8965 3.34073 16.1412 3.53005 16.3487C3.71668 16.553 3.9437 16.7164 4.19673 16.8285C4.44976 16.9406 4.7233 16.999 5.00005 16.9999H11.5001C11.6315 16.9999 11.7616 16.9739 11.883 16.9235C12.0044 16.8731 12.1147 16.7992 12.2076 16.7062ZM19.1163 19.3974C18.9835 19.1679 18.765 19.0004 18.5088 18.932C18.2525 18.8635 17.9796 18.8997 17.7501 19.0324C17.2178 19.339 16.6143 19.5004 16.0001 19.5004C15.3858 19.5004 14.7823 19.339 14.2501 19.0324C14.1363 18.9668 14.0107 18.9241 13.8805 18.907C13.7503 18.8898 13.6179 18.8985 13.4911 18.9325C13.3642 18.9665 13.2452 19.0252 13.1411 19.1052C13.0369 19.1852 12.9494 19.2849 12.8838 19.3987L9.6563 24.9887C9.51733 25.2292 9.42997 25.4959 9.39979 25.772C9.3696 26.0481 9.39725 26.3275 9.48098 26.5923C9.56471 26.8571 9.70267 27.1016 9.88609 27.3102C10.0695 27.5187 10.2944 27.6868 10.5463 27.8037C12.2564 28.5918 14.1171 28.9999 16.0001 28.9999C17.883 28.9999 19.7437 28.5918 21.4538 27.8037C21.7058 27.6868 21.9306 27.5187 22.114 27.3102C22.2974 27.1016 22.4354 26.8571 22.5191 26.5923C22.6028 26.3275 22.6305 26.0481 22.6003 25.772C22.5701 25.4959 22.4828 25.2292 22.3438 24.9887L19.1163 19.3974ZM28.9913 14.8024C28.8215 12.9287 28.2463 11.1143 27.3057 9.48498C26.3651 7.85562 25.0815 6.45023 23.5438 5.36619C23.3167 5.20552 23.0585 5.09402 22.7858 5.0388C22.5131 4.98359 22.2319 4.98588 21.9601 5.04552C21.6884 5.10517 21.432 5.22086 21.2075 5.3852C20.983 5.54954 20.7953 5.75891 20.6563 5.99994L17.4126 11.6249C17.2804 11.8534 17.244 12.1249 17.3112 12.3801C17.3784 12.6353 17.5438 12.8536 17.7713 12.9874C18.271 13.2795 18.6904 13.6908 18.9921 14.1847C19.2938 14.6786 19.4683 15.2396 19.5001 15.8174C19.5001 15.8774 19.5001 15.9424 19.5001 15.9974C19.5001 16.1288 19.5259 16.2588 19.5762 16.3801C19.6264 16.5014 19.7001 16.6117 19.7929 16.7045C19.8858 16.7974 19.996 16.8711 20.1174 16.9213C20.2387 16.9716 20.3687 16.9974 20.5001 16.9974H27.0001C27.2768 16.9965 27.5503 16.9381 27.8034 16.826C28.0564 16.7139 28.2834 16.5505 28.4701 16.3462C28.659 16.139 28.803 15.8947 28.8927 15.629C28.9824 15.3633 29.016 15.0818 28.9913 14.8024Z" fill="#4A4A4F"/>
</svg>
