<svg width="32" height="32" viewBox="0 0 32 32" fill="none" xmlns="http://www.w3.org/2000/svg">
<path d="M11.5001 16.9999H5.00005C4.7233 16.999 4.44976 16.9406 4.19673 16.8285C3.9437 16.7164 3.71668 16.553 3.53005 16.3487C3.34073 16.1412 3.19663 15.8965 3.1069 15.6304C3.01716 15.3642 2.98376 15.0822 3.0088 14.8024C3.17861 12.9287 3.75375 11.1143 4.69438 9.48498C5.635 7.85562 6.91862 6.45023 8.4563 5.36619C8.68345 5.20552 8.94162 5.09402 9.21431 5.0388C9.48701 4.98359 9.76822 4.98588 10.04 5.04552C10.3117 5.10517 10.5681 5.22086 10.7926 5.3852C11.0171 5.54954 11.2048 5.75891 11.3438 5.99994L14.5938 11.6249C14.6595 11.7387 14.7021 11.8643 14.7192 11.9945C14.7363 12.1247 14.7276 12.257 14.6936 12.3839C14.6596 12.5108 14.601 12.6297 14.521 12.7339C14.441 12.8381 14.3413 12.9255 14.2276 12.9912C14.1138 13.0568 13.9882 13.0995 13.858 13.1166C13.7278 13.1337 13.5954 13.125 13.4686 13.091C13.3417 13.057 13.2228 12.9983 13.1186 12.9184C13.0144 12.8384 12.927 12.7387 12.8613 12.6249L9.6113 6.99994C8.30994 7.91664 7.22349 9.10538 6.42724 10.4837C5.631 11.8621 5.14402 13.3971 5.00005 14.9824C4.9998 14.9862 5.00047 14.99 5.00199 14.9935C5.00351 14.997 5.00585 15 5.0088 15.0024L11.5001 14.9999C11.7653 14.9999 12.0196 15.1053 12.2072 15.2928C12.3947 15.4804 12.5001 15.7347 12.5001 15.9999C12.5001 16.2652 12.3947 16.5195 12.2072 16.707C12.0196 16.8946 11.7653 16.9999 11.5001 16.9999ZM28.9913 14.8024C28.8215 12.9287 28.2463 11.1143 27.3057 9.48498C26.3651 7.85562 25.0815 6.45023 23.5438 5.36619C23.3167 5.20552 23.0585 5.09402 22.7858 5.0388C22.5131 4.98359 22.2319 4.98588 21.9601 5.04552C21.6884 5.10517 21.432 5.22086 21.2075 5.3852C20.983 5.54954 20.7953 5.75891 20.6563 5.99994L17.4126 11.6249C17.3469 11.7387 17.3043 11.8643 17.2871 11.9945C17.27 12.1247 17.2787 12.257 17.3127 12.3839C17.3814 12.6401 17.5491 12.8586 17.7788 12.9912C18.0085 13.1238 18.2816 13.1597 18.5378 13.091C18.6646 13.057 18.7836 12.9983 18.8878 12.9184C18.992 12.8384 19.0794 12.7387 19.1451 12.6249L22.3951 6.99994C23.695 7.91752 24.7801 9.10659 25.5752 10.4849C26.3703 11.8632 26.8565 13.3977 27.0001 14.9824C27.0001 14.9912 27.0001 14.9974 27.0001 14.9999H20.5001C20.2348 14.9999 19.9805 15.1053 19.7929 15.2928C19.6054 15.4804 19.5001 15.7347 19.5001 15.9999C19.5001 16.2652 19.6054 16.5195 19.7929 16.707C19.9805 16.8946 20.2348 16.9999 20.5001 16.9999H27.0001C27.2768 16.999 27.5503 16.9406 27.8034 16.8285C28.0564 16.7164 28.2834 16.553 28.4701 16.3487C28.6594 16.1412 28.8035 15.8965 28.8932 15.6304C28.9829 15.3642 29.0163 15.0822 28.9913 14.8024ZM19.1163 19.3974C19.0506 19.2837 18.9632 19.184 18.859 19.104C18.7548 19.024 18.6359 18.9654 18.509 18.9314C18.3822 18.8973 18.2498 18.8887 18.1196 18.9058C17.9894 18.9229 17.8638 18.9655 17.7501 19.0312C17.6363 19.0968 17.5366 19.1843 17.4566 19.2885C17.3766 19.3927 17.318 19.5116 17.284 19.6385C17.25 19.7653 17.2413 19.8977 17.2584 20.0279C17.2755 20.1581 17.3181 20.2837 17.3838 20.3974L20.6138 25.9887C19.1672 26.655 17.5934 27 16.0007 27C14.408 27 12.8342 26.655 11.3876 25.9887L14.6163 20.3974C14.682 20.2837 14.7246 20.1581 14.7417 20.0279C14.7588 19.8977 14.7501 19.7653 14.7161 19.6385C14.6821 19.5116 14.6235 19.3927 14.5435 19.2885C14.4635 19.1843 14.3638 19.0968 14.2501 19.0312C14.1363 18.9655 14.0107 18.9229 13.8805 18.9058C13.7503 18.8887 13.6179 18.8973 13.4911 18.9314C13.3642 18.9654 13.2453 19.024 13.1411 19.104C13.0369 19.184 12.9495 19.2837 12.8838 19.3974L9.6563 24.9887C9.51733 25.2292 9.42997 25.4959 9.39979 25.772C9.3696 26.0481 9.39725 26.3275 9.48098 26.5923C9.56471 26.8571 9.70267 27.1016 9.88609 27.3102C10.0695 27.5187 10.2944 27.6868 10.5463 27.8037C12.2564 28.5918 14.1171 28.9999 16.0001 28.9999C17.883 28.9999 19.7437 28.5918 21.4538 27.8037C21.7058 27.6868 21.9306 27.5187 22.114 27.3102C22.2974 27.1016 22.4354 26.8571 22.5191 26.5923C22.6028 26.3275 22.6305 26.0481 22.6003 25.772C22.5701 25.4959 22.4828 25.2292 22.3438 24.9887L19.1163 19.3974ZM16.0001 17.4999C16.2967 17.4999 16.5867 17.412 16.8334 17.2471C17.0801 17.0823 17.2723 16.8481 17.3859 16.574C17.4994 16.2999 17.5291 15.9983 17.4712 15.7073C17.4134 15.4163 17.2705 15.1491 17.0607 14.9393C16.8509 14.7295 16.5837 14.5866 16.2927 14.5288C16.0017 14.4709 15.7001 14.5006 15.426 14.6141C15.1519 14.7276 14.9177 14.9199 14.7528 15.1666C14.588 15.4133 14.5001 15.7033 14.5001 15.9999C14.5001 16.3978 14.6581 16.7793 14.9394 17.0606C15.2207 17.3419 15.6022 17.4999 16.0001 17.4999Z" fill="#4A4A4F"/>
</svg>
