<svg width="32" height="32" viewBox="0 0 32 32" fill="none" xmlns="http://www.w3.org/2000/svg">
<path d="M27 9.00019H10.8138L24.2875 4.95894C24.5416 4.88269 24.755 4.70862 24.8808 4.47502C25.0066 4.24142 25.0344 3.96743 24.9581 3.71332C24.8819 3.45921 24.7078 3.2458 24.4742 3.12003C24.2406 2.99426 23.9666 2.96645 23.7125 3.04269L3.7125 9.04269C3.50659 9.1045 3.32608 9.23102 3.19774 9.4035C3.0694 9.57597 3.00006 9.78521 3 10.0002V25.0002C3 25.5306 3.21071 26.0393 3.58579 26.4144C3.96086 26.7895 4.46957 27.0002 5 27.0002H27C27.5304 27.0002 28.0391 26.7895 28.4142 26.4144C28.7893 26.0393 29 25.5306 29 25.0002V11.0002C29 10.4698 28.7893 9.96105 28.4142 9.58598C28.0391 9.21091 27.5304 9.00019 27 9.00019ZM12 23.0002H7C6.73478 23.0002 6.48043 22.8948 6.29289 22.7073C6.10536 22.5198 6 22.2654 6 22.0002C6 21.735 6.10536 21.4806 6.29289 21.2931C6.48043 21.1056 6.73478 21.0002 7 21.0002H12C12.2652 21.0002 12.5196 21.1056 12.7071 21.2931C12.8946 21.4806 13 21.735 13 22.0002C13 22.2654 12.8946 22.5198 12.7071 22.7073C12.5196 22.8948 12.2652 23.0002 12 23.0002ZM12 19.0002H7C6.73478 19.0002 6.48043 18.8948 6.29289 18.7073C6.10536 18.5198 6 18.2654 6 18.0002C6 17.735 6.10536 17.4806 6.29289 17.2931C6.48043 17.1056 6.73478 17.0002 7 17.0002H12C12.2652 17.0002 12.5196 17.1056 12.7071 17.2931C12.8946 17.4806 13 17.735 13 18.0002C13 18.2654 12.8946 18.5198 12.7071 18.7073C12.5196 18.8948 12.2652 19.0002 12 19.0002ZM12 15.0002H7C6.73478 15.0002 6.48043 14.8948 6.29289 14.7073C6.10536 14.5198 6 14.2654 6 14.0002C6 13.735 6.10536 13.4806 6.29289 13.2931C6.48043 13.1056 6.73478 13.0002 7 13.0002H12C12.2652 13.0002 12.5196 13.1056 12.7071 13.2931C12.8946 13.4806 13 13.735 13 14.0002C13 14.2654 12.8946 14.5198 12.7071 14.7073C12.5196 14.8948 12.2652 15.0002 12 15.0002ZM21 21.5002C20.3078 21.5002 19.6311 21.2949 19.0555 20.9103C18.4799 20.5258 18.0313 19.9791 17.7664 19.3396C17.5015 18.7 17.4322 17.9963 17.5673 17.3174C17.7023 16.6384 18.0356 16.0148 18.5251 15.5253C19.0146 15.0358 19.6383 14.7025 20.3172 14.5674C20.9961 14.4324 21.6999 14.5017 22.3394 14.7666C22.9789 15.0315 23.5256 15.4801 23.9101 16.0557C24.2947 16.6313 24.5 17.308 24.5 18.0002C24.5 18.9285 24.1313 19.8187 23.4749 20.4751C22.8185 21.1314 21.9283 21.5002 21 21.5002Z" fill="#4A4A4F"/>
</svg>
