<svg width="32" height="32" viewBox="0 0 32 32" fill="none" xmlns="http://www.w3.org/2000/svg">
<path d="M13 22.0002C13 22.2654 12.8946 22.5198 12.7071 22.7073C12.5196 22.8948 12.2652 23.0002 12 23.0002H8C7.73478 23.0002 7.48043 22.8948 7.29289 22.7073C7.10536 22.5198 7 22.2654 7 22.0002C7 21.735 7.10536 21.4806 7.29289 21.2931C7.48043 21.1055 7.73478 21.0002 8 21.0002H12C12.2652 21.0002 12.5196 21.1055 12.7071 21.2931C12.8946 21.4806 13 21.735 13 22.0002ZM12 17.0002H8C7.73478 17.0002 7.48043 17.1055 7.29289 17.2931C7.10536 17.4806 7 17.735 7 18.0002C7 18.2654 7.10536 18.5198 7.29289 18.7073C7.48043 18.8948 7.73478 19.0002 8 19.0002H12C12.2652 19.0002 12.5196 18.8948 12.7071 18.7073C12.8946 18.5198 13 18.2654 13 18.0002C13 17.735 12.8946 17.4806 12.7071 17.2931C12.5196 17.1055 12.2652 17.0002 12 17.0002ZM12 13.0002H8C7.73478 13.0002 7.48043 13.1056 7.29289 13.2931C7.10536 13.4806 7 13.735 7 14.0002C7 14.2654 7.10536 14.5198 7.29289 14.7073C7.48043 14.8948 7.73478 15.0002 8 15.0002H12C12.2652 15.0002 12.5196 14.8948 12.7071 14.7073C12.8946 14.5198 13 14.2654 13 14.0002C13 13.735 12.8946 13.4806 12.7071 13.2931C12.5196 13.1056 12.2652 13.0002 12 13.0002ZM29 11.0002V25.0002C29 25.5306 28.7893 26.0393 28.4142 26.4144C28.0391 26.7895 27.5304 27.0002 27 27.0002H5C4.46957 27.0002 3.96086 26.7895 3.58579 26.4144C3.21071 26.0393 3 25.5306 3 25.0002V10.0002C3.00006 9.78521 3.0694 9.57597 3.19774 9.40349C3.32608 9.23102 3.50659 9.1045 3.7125 9.04269L23.7125 3.04269C23.8383 3.00494 23.9704 2.99234 24.101 3.0056C24.2317 3.01887 24.3585 3.05776 24.4742 3.12003C24.5899 3.1823 24.6921 3.26675 24.7752 3.36854C24.8582 3.47034 24.9204 3.5875 24.9581 3.71332C24.9959 3.83914 25.0085 3.97117 24.9952 4.10186C24.9819 4.23255 24.9431 4.35935 24.8808 4.47502C24.8185 4.59069 24.7341 4.69296 24.6323 4.77599C24.5305 4.85902 24.4133 4.92119 24.2875 4.95894L10.8138 9.00019H27C27.5304 9.00019 28.0391 9.21091 28.4142 9.58598C28.7893 9.96105 29 10.4698 29 11.0002ZM27 25.0002V11.0002H5V25.0002H27ZM25 18.0002C25 18.9891 24.7068 19.9558 24.1573 20.778C23.6079 21.6003 22.827 22.2412 21.9134 22.6196C20.9998 22.998 19.9945 23.097 19.0245 22.9041C18.0546 22.7112 17.1637 22.235 16.4645 21.5357C15.7652 20.8365 15.289 19.9456 15.0961 18.9756C14.9031 18.0057 15.0022 17.0004 15.3806 16.0868C15.759 15.1731 16.3999 14.3923 17.2221 13.8428C18.0444 13.2934 19.0111 13.0002 20 13.0002C21.3261 13.0002 22.5979 13.527 23.5355 14.4647C24.4732 15.4023 25 16.6741 25 18.0002ZM23 18.0002C23 17.4068 22.8241 16.8268 22.4944 16.3335C22.1648 15.8401 21.6962 15.4556 21.1481 15.2286C20.5999 15.0015 19.9967 14.9421 19.4147 15.0578C18.8328 15.1736 18.2982 15.4593 17.8787 15.8789C17.4591 16.2984 17.1734 16.833 17.0576 17.4149C16.9419 17.9969 17.0013 18.6001 17.2284 19.1482C17.4554 19.6964 17.8399 20.165 18.3333 20.4946C18.8266 20.8242 19.4067 21.0002 20 21.0002C20.7956 21.0002 21.5587 20.6841 22.1213 20.1215C22.6839 19.5589 23 18.7958 23 18.0002Z" fill="#4A4A4F"/>
</svg>
