<svg width="32" height="32" viewBox="0 0 32 32" fill="none" xmlns="http://www.w3.org/2000/svg">
<path d="M25 14C23.7963 14.003 22.6211 14.3666 21.626 15.044C20.631 15.7213 19.8617 16.6813 19.4175 17.8C19.2788 17.785 19.1395 17.7775 19 17.7775C16.7937 17.7775 15 19.6225 15 21.8888C15 24.155 16.7937 26 19 26H25C26.5913 26 28.1174 25.3679 29.2426 24.2427C30.3679 23.1175 31 21.5913 31 20C31 18.4087 30.3679 16.8826 29.2426 15.7574C28.1174 14.6322 26.5913 14 25 14ZM25 24H19C17.8975 24 17 23.0525 17 21.8888C17 20.725 17.8975 19.7775 19 19.7775C19.2479 19.7768 19.4935 19.8252 19.7225 19.92C19.8587 19.9758 20.0055 20.0008 20.1525 19.9932C20.2994 19.9857 20.4429 19.9458 20.5727 19.8765C20.7025 19.8071 20.8153 19.71 20.9032 19.5919C20.9912 19.4739 21.0519 19.338 21.0812 19.1938C21.2337 18.4528 21.5933 17.7702 22.1181 17.2253C22.6429 16.6803 23.3115 16.2954 24.0463 16.1152C24.781 15.935 25.5518 15.9668 26.2692 16.207C26.9866 16.4472 27.6212 16.886 28.0993 17.4723C28.5774 18.0587 28.8794 18.7686 28.9702 19.5197C29.0611 20.2708 28.937 21.0322 28.6126 21.7156C28.2881 22.3991 27.7764 22.9765 27.137 23.3808C26.4975 23.7852 25.7566 23.9999 25 24ZM3 20V22C3 22.2652 2.89464 22.5196 2.70711 22.7071C2.51957 22.8947 2.26522 23 2 23C1.73478 23 1.48043 22.8947 1.29289 22.7071C1.10536 22.5196 1 22.2652 1 22V20C1.00009 17.4444 1.75342 14.9456 3.16582 12.8158C4.57822 10.6859 6.58704 9.01965 8.94119 8.02517C11.2953 7.03069 13.8904 6.75214 16.402 7.22432C18.9136 7.69651 21.2303 8.89849 23.0625 10.68C23.2461 10.8663 23.3494 11.117 23.3503 11.3786C23.3512 11.6401 23.2496 11.8915 23.0674 12.0791C22.8851 12.2666 22.6366 12.3752 22.3751 12.3817C22.1137 12.3882 21.8601 12.292 21.6688 12.1138C20.1184 10.6062 18.1581 9.58895 16.0328 9.18932C13.9075 8.78969 11.7116 9.02536 9.71952 9.86687C7.72744 10.7084 6.0276 12.1184 4.83247 13.9207C3.63735 15.7229 2.99997 17.8375 3 20ZM7 20V22C7 22.2652 6.89464 22.5196 6.70711 22.7071C6.51957 22.8947 6.26522 23 6 23C5.73478 23 5.48043 22.8947 5.29289 22.7071C5.10536 22.5196 5 22.2652 5 22V20C5.00104 18.337 5.46283 16.7068 6.33411 15.2904C7.20539 13.8739 8.4521 12.7265 9.93588 11.9755C11.4197 11.2246 13.0825 10.8994 14.7399 11.0361C16.3972 11.1728 17.9843 11.7661 19.325 12.75C19.4345 12.8263 19.5277 12.9237 19.599 13.0365C19.6703 13.1493 19.7183 13.2753 19.7402 13.407C19.7621 13.5386 19.7573 13.6734 19.7263 13.8032C19.6953 13.933 19.6386 14.0553 19.5596 14.1628C19.4806 14.2704 19.3808 14.3611 19.2662 14.4295C19.1516 14.4979 19.0245 14.5426 18.8923 14.5611C18.7601 14.5796 18.6255 14.5715 18.4965 14.5371C18.3676 14.5028 18.2468 14.443 18.1413 14.3613C17.0985 13.5961 15.8642 13.1348 14.5752 13.0285C13.2862 12.9223 11.993 13.1752 10.839 13.7592C9.68501 14.3433 8.7154 15.2356 8.03775 16.3372C7.36009 17.4388 7.00089 18.7067 7 20ZM14.6962 17.0813C14.2554 16.9761 13.7964 16.9722 13.3538 17.0698C12.9112 17.1674 12.4965 17.364 12.1408 17.6449C11.7851 17.9258 11.4977 18.2836 11.3001 18.6915C11.1025 19.0994 10.9999 19.5468 11 20V22C11 22.2652 10.8946 22.5196 10.7071 22.7071C10.5196 22.8947 10.2652 23 10 23C9.73478 23 9.48043 22.8947 9.29289 22.7071C9.10536 22.5196 9 22.2652 9 22V20C8.99983 19.2448 9.17075 18.4993 9.49994 17.8196C9.82913 17.1398 10.308 16.5435 10.9007 16.0754C11.4933 15.6072 12.1843 15.2794 12.9218 15.1165C13.6593 14.9537 14.4241 14.96 15.1587 15.135C15.2865 15.1654 15.4071 15.2206 15.5135 15.2976C15.62 15.3746 15.7102 15.4717 15.7791 15.5836C15.848 15.6954 15.8942 15.8197 15.915 15.9494C15.9359 16.0791 15.931 16.2116 15.9006 16.3394C15.8703 16.4672 15.815 16.5878 15.7381 16.6942C15.6611 16.8006 15.5639 16.8909 15.4521 16.9598C15.3402 17.0287 15.2159 17.0749 15.0863 17.0957C14.9566 17.1165 14.824 17.1116 14.6962 17.0813Z" fill="#4A4A4F"/>
</svg>
