<svg width="32" height="32" viewBox="0 0 32 32" fill="none" xmlns="http://www.w3.org/2000/svg">
<path d="M31 20C30.9983 21.5908 30.3657 23.116 29.2408 24.2408C28.116 25.3657 26.5908 25.9984 25 26H19C16.7937 26 15 24.1563 15 21.8888C15 19.6213 16.7937 17.7775 19 17.7775C19.1395 17.7775 19.2788 17.785 19.4175 17.8C19.9296 16.5 20.8793 15.4195 22.1028 14.7449C23.3263 14.0702 24.747 13.8437 26.1196 14.1044C27.4923 14.3652 28.7309 15.0968 29.6219 16.1731C30.5128 17.2493 31.0002 18.6028 31 20ZM14 9.00003C16.8653 8.99427 19.6185 10.1122 21.6688 12.1138C21.8601 12.292 22.1137 12.3882 22.3751 12.3817C22.6366 12.3752 22.8851 12.2666 23.0674 12.0791C23.2496 11.8915 23.3512 11.6401 23.3503 11.3786C23.3494 11.117 23.2461 10.8663 23.0625 10.68C21.2303 8.89849 18.9136 7.69651 16.402 7.22432C13.8904 6.75214 11.2953 7.03069 8.94119 8.02517C6.58704 9.01965 4.57822 10.6859 3.16582 12.8158C1.75342 14.9456 1.00009 17.4444 1 20V22C1 22.2652 1.10536 22.5196 1.29289 22.7071C1.48043 22.8947 1.73478 23 2 23C2.26522 23 2.51957 22.8947 2.70711 22.7071C2.89464 22.5196 3 22.2652 3 22V20C3.00331 17.0837 4.1633 14.2877 6.22548 12.2255C8.28766 10.1633 11.0836 9.00334 14 9.00003ZM14 13C15.49 12.9959 16.9419 13.471 18.1413 14.355C18.2456 14.4449 18.3673 14.5122 18.4989 14.5528C18.6304 14.5934 18.7689 14.6064 18.9057 14.591C19.0425 14.5755 19.1747 14.5321 19.2939 14.4632C19.4131 14.3943 19.5168 14.3016 19.5986 14.1908C19.6803 14.08 19.7382 13.9535 19.7688 13.8193C19.7994 13.6851 19.8019 13.546 19.7762 13.4107C19.7505 13.2755 19.6972 13.147 19.6196 13.0333C19.5419 12.9196 19.4416 12.8232 19.325 12.75C17.9843 11.7661 16.3972 11.1728 14.7399 11.0361C13.0825 10.8994 11.4197 11.2246 9.93588 11.9755C8.4521 12.7265 7.20539 13.8739 6.33411 15.2904C5.46283 16.7068 5.00104 18.337 5 20V22C5 22.2652 5.10536 22.5196 5.29289 22.7071C5.48043 22.8947 5.73478 23 6 23C6.26522 23 6.51957 22.8947 6.70711 22.7071C6.89464 22.5196 7 22.2652 7 22V20C7.00199 18.1441 7.74012 16.3648 9.05245 15.0525C10.3648 13.7401 12.1441 13.002 14 13ZM15.9012 16.3388C15.9315 16.211 15.9364 16.0785 15.9155 15.9488C15.8945 15.8192 15.8483 15.6949 15.7793 15.5831C15.7104 15.4713 15.6201 15.3742 15.5136 15.2973C15.4071 15.2205 15.2865 15.1653 15.1587 15.135C14.4241 14.96 13.6593 14.9537 12.9218 15.1165C12.1843 15.2794 11.4933 15.6072 10.9007 16.0754C10.308 16.5435 9.82913 17.1398 9.49994 17.8196C9.17075 18.4993 8.99983 19.2448 9 20V22C9 22.2652 9.10536 22.5196 9.29289 22.7071C9.48043 22.8947 9.73478 23 10 23C10.2652 23 10.5196 22.8947 10.7071 22.7071C10.8946 22.5196 11 22.2652 11 22V20C10.9999 19.5468 11.1025 19.0994 11.3001 18.6915C11.4977 18.2836 11.7851 17.9258 12.1408 17.6449C12.4965 17.364 12.9112 17.1674 13.3538 17.0698C13.7964 16.9722 14.2554 16.9761 14.6962 17.0813C14.8241 17.1118 14.9568 17.1167 15.0866 17.0959C15.2164 17.0751 15.3408 17.0289 15.4527 16.9599C15.5646 16.8909 15.6619 16.8006 15.7388 16.694C15.8158 16.5874 15.871 16.4667 15.9012 16.3388Z" fill="#4A4A4F"/>
</svg>
