<svg width="32" height="32" viewBox="0 0 32 32" fill="none" xmlns="http://www.w3.org/2000/svg">
<path d="M16 6C12.0231 6.0043 8.21026 7.58604 5.39815 10.3981C2.58604 13.2103 1.0043 17.0231 1 21V23C1 23.2652 1.10536 23.5196 1.29289 23.7071C1.48043 23.8946 1.73478 24 2 24H30C30.2652 24 30.5196 23.8946 30.7071 23.7071C30.8946 23.5196 31 23.2652 31 23V21C30.9957 17.0231 29.414 13.2103 26.6019 10.3981C23.7897 7.58604 19.9769 6.0043 16 6ZM20 22C19.7348 22 19.4804 21.8946 19.2929 21.7071C19.1054 21.5196 19 21.2652 19 21C19 20.2044 18.6839 19.4413 18.1213 18.8787C17.5587 18.3161 16.7956 18 16 18C15.2044 18 14.4413 18.3161 13.8787 18.8787C13.3161 19.4413 13 20.2044 13 21C13 21.2652 12.8946 21.5196 12.7071 21.7071C12.5196 21.8946 12.2652 22 12 22C11.7348 22 11.4804 21.8946 11.2929 21.7071C11.1054 21.5196 11 21.2652 11 21C11 19.6739 11.5268 18.4021 12.4645 17.4645C13.4021 16.5268 14.6739 16 16 16C17.3261 16 18.5979 16.5268 19.5355 17.4645C20.4732 18.4021 21 19.6739 21 21C21 21.2652 20.8946 21.5196 20.7071 21.7071C20.5196 21.8946 20.2652 22 20 22ZM24 22C23.7348 22 23.4804 21.8946 23.2929 21.7071C23.1054 21.5196 23 21.2652 23 21C23 19.1435 22.2625 17.363 20.9497 16.0503C19.637 14.7375 17.8565 14 16 14C14.1435 14 12.363 14.7375 11.0503 16.0503C9.7375 17.363 9 19.1435 9 21C9 21.2652 8.89464 21.5196 8.70711 21.7071C8.51957 21.8946 8.26522 22 8 22C7.73478 22 7.48043 21.8946 7.29289 21.7071C7.10536 21.5196 7 21.2652 7 21C7 18.6131 7.94821 16.3239 9.63604 14.636C11.3239 12.9482 13.6131 12 16 12C18.3869 12 20.6761 12.9482 22.364 14.636C24.0518 16.3239 25 18.6131 25 21C25 21.2652 24.8946 21.5196 24.7071 21.7071C24.5196 21.8946 24.2652 22 24 22ZM28 22C27.7348 22 27.4804 21.8946 27.2929 21.7071C27.1054 21.5196 27 21.2652 27 21C27 18.0826 25.8411 15.2847 23.7782 13.2218C21.7153 11.1589 18.9174 10 16 10C13.0826 10 10.2847 11.1589 8.22183 13.2218C6.15893 15.2847 5 18.0826 5 21C5 21.2652 4.89464 21.5196 4.70711 21.7071C4.51957 21.8946 4.26522 22 4 22C3.73478 22 3.48043 21.8946 3.29289 21.7071C3.10536 21.5196 3 21.2652 3 21C3 17.5522 4.36964 14.2456 6.80761 11.8076C9.24558 9.36964 12.5522 8 16 8C19.4478 8 22.7544 9.36964 25.1924 11.8076C27.6304 14.2456 29 17.5522 29 21C29 21.2652 28.8946 21.5196 28.7071 21.7071C28.5196 21.8946 28.2652 22 28 22Z" fill="#4A4A4F"/>
</svg>
