<svg width="32" height="32" viewBox="0 0 32 32" fill="none" xmlns="http://www.w3.org/2000/svg">
<path d="M26.3474 4.90625L10.0662 2.03125C9.54387 1.93934 9.00645 2.05863 8.57209 2.3629C8.13773 2.66716 7.84199 3.13148 7.74992 3.65375L4.03117 24.7788C3.98568 25.0375 3.99164 25.3028 4.0487 25.5593C4.10576 25.8158 4.21281 26.0585 4.36372 26.2736C4.51463 26.4887 4.70645 26.672 4.92821 26.8129C5.14998 26.9538 5.39734 27.0497 5.65617 27.095L21.9374 29.97C22.1963 30.0157 22.4617 30.0098 22.7183 29.9529C22.9749 29.8959 23.2178 29.7889 23.4331 29.638C23.6483 29.487 23.8317 29.2952 23.9727 29.0733C24.1137 28.8514 24.2096 28.604 24.2549 28.345L27.9737 7.22C28.0648 6.69753 27.9446 6.16027 27.6397 5.72637C27.3347 5.29248 26.8699 4.99748 26.3474 4.90625ZM16.9374 16.445C16.8966 16.6763 16.7757 16.8859 16.5958 17.037C16.4159 17.1881 16.1886 17.271 15.9537 17.2713C15.895 17.2712 15.8365 17.2662 15.7787 17.2563L10.5912 16.34C10.3446 16.2794 10.1304 16.1272 9.9919 15.9144C9.85341 15.7017 9.80103 15.4442 9.8454 15.1942C9.88976 14.9442 10.0275 14.7205 10.2308 14.5683C10.4341 14.4162 10.6876 14.3471 10.9399 14.375L16.1249 15.2863C16.2544 15.3089 16.3781 15.3568 16.4891 15.4274C16.6 15.4979 16.6959 15.5896 16.7714 15.6972C16.8469 15.8048 16.9004 15.9262 16.9289 16.0546C16.9573 16.1829 16.9602 16.3156 16.9374 16.445ZM22.8124 13.4225C22.7716 13.6536 22.6509 13.863 22.4713 14.0141C22.2916 14.1651 22.0646 14.2482 21.8299 14.2488C21.7708 14.2489 21.7118 14.2434 21.6537 14.2325L11.2787 12.4013C11.0174 12.355 10.7853 12.2069 10.6332 11.9894C10.4812 11.772 10.4218 11.5031 10.468 11.2419C10.5143 10.9806 10.6624 10.7485 10.8798 10.5964C11.0973 10.4444 11.3662 10.385 11.6274 10.4313L22.0024 12.2638C22.132 12.2863 22.2559 12.3341 22.367 12.4045C22.478 12.475 22.5741 12.5667 22.6497 12.6743C22.7253 12.7819 22.7789 12.9034 22.8075 13.0318C22.836 13.1602 22.839 13.293 22.8162 13.4225H22.8124ZM23.5062 9.4825C23.4654 9.71383 23.3444 9.92342 23.1645 10.0745C22.9846 10.2256 22.7573 10.3085 22.5224 10.3088C22.4638 10.3087 22.4052 10.3037 22.3474 10.2938L11.9724 8.46125C11.8401 8.44178 11.7131 8.39597 11.5988 8.32653C11.4845 8.25709 11.3853 8.16544 11.307 8.05699C11.2288 7.94854 11.1731 7.8255 11.1433 7.69515C11.1134 7.5648 11.11 7.42978 11.1332 7.29809C11.1565 7.1664 11.2059 7.0407 11.2786 6.92845C11.3513 6.81619 11.4457 6.71965 11.5564 6.64454C11.667 6.56943 11.7916 6.51728 11.9227 6.49116C12.0539 6.46505 12.1889 6.4655 12.3199 6.4925L22.6949 8.32375C22.8246 8.34611 22.9486 8.39385 23.0598 8.46424C23.1711 8.53462 23.2673 8.62627 23.343 8.73392C23.4187 8.84157 23.4724 8.96311 23.5011 9.09157C23.5297 9.22003 23.5327 9.35288 23.5099 9.4825H23.5062Z" fill="#4A4A4F"/>
</svg>
