<svg width="32" height="32" viewBox="0 0 32 32" fill="none" xmlns="http://www.w3.org/2000/svg">
<path d="M26.3474 4.90625L10.0662 2.03125C9.54387 1.93934 9.00645 2.05863 8.57209 2.3629C8.13773 2.66716 7.84199 3.13148 7.74992 3.65375L4.03117 24.7788C3.98568 25.0375 3.99164 25.3028 4.0487 25.5593C4.10576 25.8158 4.21281 26.0585 4.36372 26.2736C4.51463 26.4887 4.70645 26.672 4.92821 26.8129C5.14998 26.9538 5.39734 27.0497 5.65617 27.095L21.9374 29.97C22.1963 30.0157 22.4617 30.0098 22.7183 29.9529C22.9749 29.8959 23.2178 29.7889 23.4331 29.638C23.6483 29.487 23.8317 29.2952 23.9727 29.0733C24.1137 28.8514 24.2096 28.604 24.2549 28.345L27.9737 7.22C28.0648 6.69753 27.9446 6.16027 27.6397 5.72637C27.3347 5.29248 26.8699 4.99748 26.3474 4.90625ZM22.2824 28L5.99992 25.125L9.71867 4L25.9999 6.875L22.2824 28ZM11.1674 7.3025C11.2137 7.04147 11.3618 6.80951 11.5791 6.65762C11.7964 6.50573 12.0651 6.44634 12.3262 6.4925L22.7012 8.32375C22.9477 8.36694 23.1691 8.50105 23.3216 8.69956C23.4741 8.89808 23.5466 9.14657 23.5248 9.39595C23.503 9.64532 23.3884 9.87744 23.2038 10.0464C23.0191 10.2155 22.7777 10.3091 22.5274 10.3088C22.4688 10.3087 22.4102 10.3037 22.3524 10.2938L11.9774 8.46125C11.7164 8.41493 11.4844 8.26685 11.3325 8.04956C11.1806 7.83227 11.1213 7.56356 11.1674 7.3025ZM10.4749 11.2425C10.4977 11.1131 10.5458 10.9895 10.6163 10.8787C10.6869 10.768 10.7786 10.6722 10.8862 10.5968C10.9938 10.5215 11.1152 10.4681 11.2435 10.4397C11.3717 10.4113 11.5043 10.4084 11.6337 10.4313L22.0087 12.2638C22.257 12.3053 22.4805 12.4389 22.6346 12.638C22.7886 12.8371 22.8619 13.087 22.8398 13.3378C22.8178 13.5886 22.7019 13.8218 22.5154 13.9909C22.3288 14.16 22.0854 14.2525 21.8337 14.25C21.7745 14.2501 21.7155 14.2447 21.6574 14.2338L11.2824 12.4025C11.0216 12.3556 10.79 12.2071 10.6386 11.9896C10.4872 11.7721 10.4283 11.5034 10.4749 11.2425ZM9.78117 15.1813C9.82836 14.9209 9.9768 14.6899 10.194 14.5388C10.4112 14.3876 10.6794 14.3288 10.9399 14.375L16.1249 15.2863C16.3714 15.3294 16.5927 15.4634 16.7452 15.6618C16.8977 15.8602 16.9703 16.1085 16.9486 16.3578C16.9269 16.6071 16.8126 16.8392 16.6282 17.0083C16.4438 17.1774 16.2026 17.2712 15.9524 17.2713C15.8938 17.2712 15.8352 17.2662 15.7774 17.2563L10.5899 16.34C10.3291 16.2934 10.0975 16.1452 9.94583 15.9279C9.7942 15.7107 9.73498 15.4421 9.78117 15.1813Z" fill="#4A4A4F"/>
</svg>
