<svg width="32" height="32" viewBox="0 0 32 32" fill="none" xmlns="http://www.w3.org/2000/svg">
<path d="M27 5H5C4.46957 5 3.96086 5.21071 3.58579 5.58579C3.21071 5.96086 3 6.46957 3 7V26C3.00009 26.1704 3.04374 26.338 3.12681 26.4869C3.20988 26.6357 3.32961 26.7608 3.47463 26.8503C3.61965 26.9399 3.78516 26.9909 3.95543 26.9985C4.12569 27.0061 4.29508 26.97 4.4475 26.8937L8 25.1175L11.5525 26.8937C11.6914 26.9633 11.8446 26.9995 12 26.9995C12.1554 26.9995 12.3086 26.9633 12.4475 26.8937L16 25.1175L19.5525 26.8937C19.6914 26.9633 19.8446 26.9995 20 26.9995C20.1554 26.9995 20.3086 26.9633 20.4475 26.8937L24 25.1175L27.5525 26.8937C27.7049 26.97 27.8743 27.0061 28.0446 26.9985C28.2148 26.9909 28.3803 26.9399 28.5254 26.8503C28.6704 26.7608 28.7901 26.6357 28.8732 26.4869C28.9563 26.338 28.9999 26.1704 29 26V7C29 6.46957 28.7893 5.96086 28.4142 5.58579C28.0391 5.21071 27.5304 5 27 5ZM19.7075 17.2925C19.8004 17.3854 19.8741 17.4957 19.9244 17.6171C19.9747 17.7385 20.0006 17.8686 20.0006 18C20.0006 18.1314 19.9747 18.2615 19.9244 18.3829C19.8741 18.5043 19.8004 18.6146 19.7075 18.7075C19.6146 18.8004 19.5043 18.8741 19.3829 18.9244C19.2615 18.9747 19.1314 19.0006 19 19.0006C18.8686 19.0006 18.7385 18.9747 18.6171 18.9244C18.4957 18.8741 18.3854 18.8004 18.2925 18.7075L16 16.4137L13.7075 18.7075C13.6146 18.8004 13.5043 18.8741 13.3829 18.9244C13.2615 18.9747 13.1314 19.0006 13 19.0006C12.8686 19.0006 12.7385 18.9747 12.6171 18.9244C12.4957 18.8741 12.3854 18.8004 12.2925 18.7075C12.1996 18.6146 12.1259 18.5043 12.0756 18.3829C12.0253 18.2615 11.9994 18.1314 11.9994 18C11.9994 17.8686 12.0253 17.7385 12.0756 17.6171C12.1259 17.4957 12.1996 17.3854 12.2925 17.2925L14.5863 15L12.2925 12.7075C12.1049 12.5199 11.9994 12.2654 11.9994 12C11.9994 11.7346 12.1049 11.4801 12.2925 11.2925C12.4801 11.1049 12.7346 10.9994 13 10.9994C13.2654 10.9994 13.5199 11.1049 13.7075 11.2925L16 13.5863L18.2925 11.2925C18.3854 11.1996 18.4957 11.1259 18.6171 11.0756C18.7385 11.0253 18.8686 10.9994 19 10.9994C19.1314 10.9994 19.2615 11.0253 19.3829 11.0756C19.5043 11.1259 19.6146 11.1996 19.7075 11.2925C19.8004 11.3854 19.8741 11.4957 19.9244 11.6171C19.9747 11.7385 20.0006 11.8686 20.0006 12C20.0006 12.1314 19.9747 12.2615 19.9244 12.3829C19.8741 12.5043 19.8004 12.6146 19.7075 12.7075L17.4137 15L19.7075 17.2925Z" fill="#4A4A4F"/>
</svg>
