<svg width="32" height="32" viewBox="0 0 32 32" fill="none" xmlns="http://www.w3.org/2000/svg">
<path d="M12.0001 25.9998C12.0001 26.265 11.8948 26.5193 11.7072 26.7069C11.5197 26.8944 11.2653 26.9998 11.0001 26.9998H5.00013C4.47367 26.9995 3.95657 26.8606 3.50077 26.5972C3.04496 26.3337 2.66651 25.955 2.40342 25.499C2.14033 25.043 2.00187 24.5258 2.00195 23.9993C2.00203 23.4729 2.14065 22.9557 2.40388 22.4998L6.69013 15.0935L4.93388 15.5623C4.80666 15.5963 4.67399 15.6048 4.54346 15.5875C4.41292 15.5703 4.28707 15.5274 4.17308 15.4615C3.94288 15.3283 3.775 15.1092 3.70638 14.8523C3.63775 14.5953 3.674 14.3217 3.80715 14.0915C3.9403 13.8613 4.15945 13.6934 4.41638 13.6248L8.51263 12.5285C8.63952 12.4945 8.77187 12.4858 8.90212 12.503C9.03236 12.5201 9.15796 12.5628 9.27172 12.6285C9.38548 12.6942 9.48518 12.7816 9.56512 12.8859C9.64506 12.9901 9.70368 13.1091 9.73763 13.236L10.8364 17.3323C10.8711 17.4597 10.8802 17.5928 10.8632 17.7238C10.8461 17.8548 10.8033 17.9812 10.7372 18.0956C10.6711 18.2099 10.5829 18.3101 10.4779 18.3902C10.3728 18.4703 10.2529 18.5288 10.1251 18.5623C10.0402 18.5844 9.95287 18.5957 9.86513 18.596C9.64514 18.5958 9.43136 18.5231 9.25691 18.3891C9.08245 18.2551 8.95705 18.0673 8.90013 17.8548L8.42513 16.086L4.13888 23.4998C4.05131 23.6514 4.00511 23.8234 4.0049 23.9986C4.00469 24.1737 4.05047 24.3458 4.13768 24.4977C4.22488 24.6496 4.35044 24.7759 4.5018 24.864C4.65315 24.9521 4.825 24.9989 5.00013 24.9998H11.0001C11.2653 24.9998 11.5197 25.1051 11.7072 25.2927C11.8948 25.4802 12.0001 25.7346 12.0001 25.9998ZM29.5914 22.4998L26.6989 17.4998C26.5605 17.2821 26.3434 17.1263 26.0929 17.065C25.8424 17.0036 25.5778 17.0414 25.3545 17.1705C25.1312 17.2996 24.9664 17.5099 24.8946 17.7576C24.8227 18.0053 24.8493 18.2712 24.9689 18.4998L27.8614 23.4998C27.9489 23.6514 27.9951 23.8234 27.9954 23.9986C27.9956 24.1737 27.9498 24.3458 27.8626 24.4977C27.7754 24.6496 27.6498 24.7759 27.4985 24.864C27.3471 24.9521 27.1753 24.9989 27.0001 24.9998H18.4139L19.7064 23.7073C19.894 23.5198 19.9995 23.2655 19.9996 23.0002C19.9997 22.735 19.8945 22.4805 19.707 22.2929C19.5195 22.1053 19.2652 21.9998 18.9999 21.9997C18.7347 21.9995 18.4803 22.1048 18.2926 22.2923L15.2926 25.2923C15.1997 25.3851 15.1259 25.4954 15.0756 25.6168C15.0252 25.7382 14.9993 25.8684 14.9993 25.9998C14.9993 26.1312 15.0252 26.2613 15.0756 26.3827C15.1259 26.5041 15.1997 26.6144 15.2926 26.7073L18.2926 29.7073C18.3855 29.8001 18.4958 29.8737 18.6172 29.9239C18.7385 29.9741 18.8686 29.9999 18.9999 29.9999C19.1313 29.9998 19.2613 29.9739 19.3826 29.9236C19.504 29.8733 19.6142 29.7996 19.707 29.7066C19.7998 29.6137 19.8734 29.5035 19.9237 29.3821C19.9739 29.2607 19.9997 29.1307 19.9996 28.9993C19.9996 28.868 19.9736 28.738 19.9233 28.6166C19.873 28.4953 19.7993 28.3851 19.7064 28.2923L18.4139 26.9998H27.0001C27.5266 26.9995 28.0437 26.8606 28.4995 26.5972C28.9553 26.3337 29.3337 25.955 29.5968 25.499C29.8599 25.043 29.9984 24.5258 29.9983 23.9993C29.9982 23.4729 29.8596 22.9557 29.5964 22.4998H29.5914ZM16.0001 3.99977C16.1759 3.99801 16.3489 4.04348 16.501 4.13144C16.6532 4.21939 16.7789 4.3466 16.8651 4.49977L21.1514 11.906L19.3914 11.4335C19.1383 11.3741 18.8721 11.4156 18.6491 11.5491C18.4262 11.6826 18.2639 11.8977 18.1968 12.1488C18.1297 12.3999 18.1629 12.6673 18.2896 12.8942C18.4162 13.1212 18.6262 13.29 18.8751 13.3648L22.9726 14.4635C23.0571 14.4857 23.144 14.4971 23.2314 14.4973C23.4514 14.4971 23.6651 14.4243 23.8396 14.2903C24.0141 14.1563 24.1395 13.9685 24.1964 13.756L25.2951 9.65727C25.3328 9.5293 25.3446 9.39508 25.3296 9.26251C25.3147 9.12994 25.2734 9.00169 25.2081 8.88533C25.1428 8.76898 25.055 8.66685 24.9496 8.58498C24.8443 8.50311 24.7236 8.44314 24.5948 8.40861C24.4659 8.37408 24.3314 8.36568 24.1993 8.38391C24.0671 8.40215 23.9399 8.44664 23.8252 8.51478C23.7105 8.58291 23.6106 8.67331 23.5314 8.78065C23.4522 8.88798 23.3952 9.01009 23.3639 9.13977L22.8889 10.911L18.5964 3.49977C18.3328 3.04457 17.9542 2.66666 17.4985 2.40394C17.0429 2.14122 16.5261 2.00293 16.0001 2.00293C15.4741 2.00293 14.9574 2.14122 14.5017 2.40394C14.046 2.66666 13.6674 3.04457 13.4039 3.49977L10.5089 8.49977C10.3845 8.72884 10.3545 8.99741 10.4252 9.24829C10.4959 9.49917 10.6618 9.71252 10.8875 9.8429C11.1132 9.97327 11.3809 10.0104 11.6336 9.94627C11.8862 9.88218 12.1039 9.72197 12.2401 9.49977L15.1351 4.49977C15.2213 4.3466 15.3471 4.21939 15.4992 4.13144C15.6514 4.04348 15.8244 3.99801 16.0001 3.99977Z" fill="#4A4A4F"/>
</svg>
