<svg width="32" height="32" viewBox="0 0 32 32" fill="none" xmlns="http://www.w3.org/2000/svg">
<path d="M12.0001 25.9998C12.0001 26.265 11.8948 26.5193 11.7072 26.7069C11.5197 26.8944 11.2653 26.9998 11.0001 26.9998H5.00013C4.47367 26.9995 3.95657 26.8606 3.50077 26.5972C3.04496 26.3337 2.66651 25.955 2.40342 25.499C2.14033 25.043 2.00187 24.5258 2.00195 23.9993C2.00203 23.4729 2.14065 22.9557 2.40388 22.4998L5.90388 16.4623L4.17638 15.4623C4.00326 15.3642 3.86334 15.2167 3.77452 15.0386C3.6857 14.8605 3.65202 14.66 3.67779 14.4627C3.70356 14.2654 3.78761 14.0803 3.91918 13.931C4.05076 13.7817 4.22387 13.6751 4.41638 13.6248L8.51263 12.5285C8.63952 12.4945 8.77187 12.4858 8.90212 12.503C9.03236 12.5201 9.15796 12.5628 9.27172 12.6285C9.38548 12.6942 9.48518 12.7816 9.56512 12.8859C9.64506 12.9901 9.70368 13.1091 9.73763 13.236L10.8364 17.3323C10.8877 17.5234 10.8811 17.7254 10.8176 17.9128C10.754 18.1001 10.6363 18.2644 10.4793 18.3849C10.3223 18.5053 10.1331 18.5765 9.93569 18.5894C9.73825 18.6023 9.54143 18.5563 9.37013 18.4573L7.63513 17.4573L4.13888 23.4998C4.05131 23.6514 4.00511 23.8234 4.0049 23.9986C4.00469 24.1737 4.05047 24.3458 4.13768 24.4977C4.22488 24.6496 4.35044 24.7759 4.5018 24.864C4.65315 24.9521 4.825 24.9989 5.00013 24.9998H11.0001C11.2653 24.9998 11.5197 25.1051 11.7072 25.2927C11.8948 25.4802 12.0001 25.7346 12.0001 25.9998ZM16.0001 3.99977C16.1759 3.99801 16.3489 4.04348 16.501 4.13144C16.6532 4.21939 16.7789 4.3466 16.8651 4.49977L20.3651 10.5373L18.6376 11.5373C18.4677 11.6364 18.3309 11.7835 18.2441 11.96C18.1574 12.1366 18.1247 12.3348 18.15 12.5298C18.1754 12.7249 18.2577 12.9081 18.3867 13.0567C18.5156 13.2052 18.6855 13.3123 18.8751 13.3648L22.9726 14.4635C23.0571 14.4857 23.144 14.4971 23.2314 14.4973C23.4514 14.4971 23.6651 14.4243 23.8396 14.2903C24.0141 14.1563 24.1395 13.9685 24.1964 13.756L25.2951 9.65727C25.3462 9.46634 25.3395 9.26456 25.276 9.07742C25.2125 8.89027 25.0949 8.72615 24.9381 8.60577C24.7814 8.4854 24.5925 8.41417 24.3953 8.40109C24.1981 8.38801 24.0014 8.43366 23.8301 8.53227L22.0939 9.53227L18.5964 3.49977C18.3328 3.04457 17.9542 2.66666 17.4985 2.40394C17.0429 2.14122 16.5261 2.00293 16.0001 2.00293C15.4741 2.00293 14.9574 2.14122 14.5017 2.40394C14.046 2.66666 13.6674 3.04457 13.4039 3.49977L10.5089 8.49977C10.3845 8.72884 10.3545 8.99741 10.4252 9.24829C10.4959 9.49917 10.6618 9.71252 10.8875 9.8429C11.1132 9.97327 11.3809 10.0104 11.6336 9.94627C11.8862 9.88218 12.1039 9.72197 12.2401 9.49977L15.1351 4.49977C15.2213 4.3466 15.3471 4.21939 15.4992 4.13144C15.6514 4.04348 15.8244 3.99801 16.0001 3.99977ZM29.5914 22.4998L26.6989 17.4998C26.5605 17.2821 26.3434 17.1263 26.0929 17.065C25.8424 17.0036 25.5778 17.0414 25.3545 17.1705C25.1312 17.2996 24.9664 17.5099 24.8946 17.7576C24.8227 18.0053 24.8493 18.2712 24.9689 18.4998L27.8614 23.4998C27.9489 23.6514 27.9951 23.8234 27.9954 23.9986C27.9956 24.1737 27.9498 24.3458 27.8626 24.4977C27.7754 24.6496 27.6498 24.7759 27.4985 24.864C27.3471 24.9521 27.1753 24.9989 27.0001 24.9998H20.0001V22.9998C20.0003 22.8019 19.9417 22.6084 19.8318 22.4438C19.722 22.2792 19.5657 22.1509 19.3829 22.0751C19.2001 21.9994 18.9989 21.9796 18.8048 22.0182C18.6107 22.0569 18.4325 22.1523 18.2926 22.2923L15.2926 25.2923C15.1997 25.3851 15.1259 25.4954 15.0756 25.6168C15.0252 25.7382 14.9993 25.8684 14.9993 25.9998C14.9993 26.1312 15.0252 26.2613 15.0756 26.3827C15.1259 26.5041 15.1997 26.6144 15.2926 26.7073L18.2926 29.7073C18.4325 29.8473 18.6107 29.9426 18.8048 29.9813C18.9989 30.02 19.2001 30.0001 19.3829 29.9244C19.5657 29.8486 19.722 29.7203 19.8318 29.5558C19.9417 29.3912 20.0003 29.1977 20.0001 28.9998V26.9998H27.0001C27.5266 26.9995 28.0437 26.8606 28.4995 26.5972C28.9553 26.3337 29.3337 25.955 29.5968 25.499C29.8599 25.043 29.9984 24.5258 29.9983 23.9993C29.9982 23.4729 29.8596 22.9557 29.5964 22.4998H29.5914Z" fill="#4A4A4F"/>
</svg>
