<svg width="32" height="32" viewBox="0 0 32 32" fill="none" xmlns="http://www.w3.org/2000/svg">
<path d="M30.9999 13.0001C30.9998 12.2336 30.7793 11.4832 30.3649 10.8384C29.9505 10.1936 29.3595 9.68139 28.6623 9.36282C27.9652 9.04425 27.1911 8.93271 26.4324 9.04148C25.6736 9.15024 24.9621 9.47473 24.3824 9.97633C22.2887 8.86382 19.7874 8.19132 17.1749 8.03507L17.8237 4.13883L20.0387 4.47883C20.1511 5.17754 20.5068 5.81402 21.0431 6.27579C21.5794 6.73757 22.2616 6.99489 22.9693 7.00228C23.6769 7.00967 24.3644 6.76665 24.9102 6.31618C25.456 5.86571 25.825 5.23679 25.952 4.54058C26.0789 3.84437 25.9556 3.1257 25.604 2.51158C25.2523 1.89746 24.6948 1.42745 24.0301 1.1846C23.3654 0.941756 22.6362 0.941721 21.9715 1.1845C21.3067 1.42728 20.7492 1.89724 20.3974 2.51133L17.1474 2.01133C16.8874 1.97124 16.6221 2.03522 16.409 2.18941C16.1958 2.34361 16.052 2.57558 16.0087 2.83508L15.1499 8.02008C12.4199 8.13758 9.79744 8.81757 7.61744 9.97633C6.82132 9.30379 5.79416 8.96851 4.75457 9.04187C3.71499 9.11523 2.74508 9.59143 2.0513 10.3691C1.35751 11.1468 0.99464 12.1645 1.03991 13.2057C1.08518 14.2469 1.53503 15.2293 2.29369 15.9438C2.09926 16.612 2.00036 17.3042 1.99994 18.0001C1.99994 20.7413 3.49994 23.2938 6.23869 25.1863C8.85994 27.0001 12.3262 28.0001 15.9999 28.0001C19.6737 28.0001 23.1399 27.0001 25.7612 25.1863C28.4999 23.2938 29.9999 20.7413 29.9999 18.0001C29.9995 17.3042 29.9006 16.612 29.7062 15.9438C30.1128 15.5686 30.4376 15.1135 30.6602 14.6069C30.8828 14.1004 30.9985 13.5534 30.9999 13.0001ZM22.9999 3.00007C23.1977 3.00007 23.3911 3.05872 23.5555 3.16861C23.72 3.27849 23.8481 3.43467 23.9238 3.61739C23.9995 3.80012 24.0193 4.00118 23.9807 4.19517C23.9421 4.38915 23.8469 4.56733 23.7071 4.70718C23.5672 4.84703 23.389 4.94228 23.195 4.98086C23.0011 5.01945 22.8 4.99964 22.6173 4.92395C22.4345 4.84827 22.2784 4.72009 22.1685 4.55565C22.0586 4.3912 21.9999 4.19786 21.9999 4.00008C21.9999 3.73486 22.1053 3.4805 22.2928 3.29297C22.4804 3.10543 22.7347 3.00007 22.9999 3.00007ZM8.99994 16.0001C8.99994 15.6045 9.11724 15.2178 9.337 14.8889C9.55677 14.56 9.86913 14.3037 10.2346 14.1523C10.6 14.0009 11.0022 13.9613 11.3901 14.0385C11.7781 14.1157 12.1345 14.3062 12.4142 14.5859C12.6939 14.8656 12.8843 15.2219 12.9615 15.6099C13.0387 15.9979 12.9991 16.4 12.8477 16.7654C12.6963 17.1309 12.44 17.4433 12.1111 17.663C11.7822 17.8828 11.3955 18.0001 10.9999 18.0001C10.4695 18.0001 9.9608 17.7894 9.58573 17.4143C9.21066 17.0392 8.99994 16.5305 8.99994 16.0001ZM20.4687 22.8838C19.0927 23.6151 17.5582 23.9975 15.9999 23.9975C14.4417 23.9975 12.9072 23.6151 11.5312 22.8838C11.4151 22.8223 11.3123 22.7385 11.2287 22.6372C11.145 22.5359 11.0821 22.4191 11.0436 22.2935C11.005 22.1679 10.9916 22.036 11.0041 21.9052C11.0165 21.7744 11.0546 21.6474 11.1162 21.5313C11.1778 21.4153 11.2616 21.3125 11.3628 21.2288C11.4641 21.1451 11.5809 21.0822 11.7065 21.0437C11.8321 21.0052 11.964 20.9918 12.0948 21.0042C12.2256 21.0167 12.3526 21.0548 12.4687 21.1163C13.556 21.6944 14.7685 21.9967 15.9999 21.9967C17.2313 21.9967 18.4439 21.6944 19.5312 21.1163C19.6472 21.0548 19.7743 21.0167 19.9051 21.0042C20.0359 20.9918 20.1678 21.0052 20.2934 21.0437C20.419 21.0822 20.5358 21.1451 20.637 21.2288C20.7383 21.3125 20.8221 21.4153 20.8837 21.5313C20.9453 21.6474 20.9833 21.7744 20.9958 21.9052C21.0083 22.036 20.9948 22.1679 20.9563 22.2935C20.9178 22.4191 20.8549 22.5359 20.7712 22.6372C20.6875 22.7385 20.5847 22.8223 20.4687 22.8838ZM20.9999 18.0001C20.6044 18.0001 20.2177 17.8828 19.8888 17.663C19.5599 17.4433 19.3036 17.1309 19.1522 16.7654C19.0008 16.4 18.9612 15.9979 19.0384 15.6099C19.1155 15.2219 19.306 14.8656 19.5857 14.5859C19.8654 14.3062 20.2218 14.1157 20.6098 14.0385C20.9977 13.9613 21.3999 14.0009 21.7653 14.1523C22.1308 14.3037 22.4431 14.56 22.6629 14.8889C22.8826 15.2178 22.9999 15.6045 22.9999 16.0001C22.9999 16.5305 22.7892 17.0392 22.4142 17.4143C22.0391 17.7894 21.5304 18.0001 20.9999 18.0001Z" fill="#4A4A4F"/>
</svg>
