<svg width="32" height="32" viewBox="0 0 32 32" fill="none" xmlns="http://www.w3.org/2000/svg">
<path d="M30.9999 13.0001C30.9998 12.2336 30.7793 11.4832 30.3649 10.8384C29.9505 10.1936 29.3595 9.68139 28.6623 9.36282C27.9652 9.04425 27.1911 8.93271 26.4324 9.04148C25.6736 9.15024 24.9621 9.47473 24.3824 9.97633C22.2887 8.86382 19.7874 8.19132 17.1749 8.03507L17.8237 4.13883L20.0387 4.47883C20.1511 5.17754 20.5068 5.81402 21.0431 6.27579C21.5794 6.73757 22.2616 6.99489 22.9693 7.00228C23.6769 7.00967 24.3644 6.76665 24.9102 6.31618C25.456 5.86571 25.825 5.23679 25.952 4.54058C26.0789 3.84437 25.9556 3.1257 25.604 2.51158C25.2523 1.89746 24.6948 1.42745 24.0301 1.1846C23.3654 0.941756 22.6362 0.941721 21.9715 1.1845C21.3067 1.42728 20.7492 1.89724 20.3974 2.51133L17.1474 2.01133C16.8874 1.97124 16.6221 2.03522 16.409 2.18941C16.1958 2.34361 16.052 2.57558 16.0087 2.83508L15.1499 8.02008C12.4199 8.13758 9.79744 8.81757 7.61744 9.97633C6.82132 9.30379 5.79416 8.96851 4.75457 9.04187C3.71499 9.11523 2.74508 9.59143 2.0513 10.3691C1.35751 11.1468 0.99464 12.1645 1.03991 13.2057C1.08518 14.2469 1.53503 15.2293 2.29369 15.9438C2.09926 16.612 2.00036 17.3042 1.99994 18.0001C1.99994 20.7413 3.49994 23.2938 6.23869 25.1863C8.85994 27.0001 12.3262 28.0001 15.9999 28.0001C19.6737 28.0001 23.1399 27.0001 25.7612 25.1863C28.4999 23.2938 29.9999 20.7413 29.9999 18.0001C29.9995 17.3042 29.9006 16.612 29.7062 15.9438C30.1128 15.5686 30.4376 15.1135 30.6602 14.6069C30.8828 14.1004 30.9985 13.5534 30.9999 13.0001ZM22.9999 3.00007C23.1977 3.00007 23.3911 3.05872 23.5555 3.16861C23.72 3.27849 23.8481 3.43467 23.9238 3.61739C23.9995 3.80012 24.0193 4.00118 23.9807 4.19517C23.9421 4.38915 23.8469 4.56733 23.7071 4.70718C23.5672 4.84703 23.389 4.94228 23.195 4.98086C23.0011 5.01945 22.8 4.99964 22.6173 4.92395C22.4345 4.84827 22.2784 4.72009 22.1685 4.55565C22.0586 4.3912 21.9999 4.19786 21.9999 4.00008C21.9999 3.73486 22.1053 3.4805 22.2928 3.29297C22.4804 3.10543 22.7347 3.00007 22.9999 3.00007ZM28.0162 14.7226C27.808 14.8459 27.6516 15.0405 27.576 15.2704C27.5004 15.5003 27.5107 15.7497 27.6049 15.9726C27.8647 16.617 27.9988 17.3052 27.9999 18.0001C27.9999 20.0663 26.8012 22.0338 24.6249 23.5413C22.3337 25.1251 19.2712 26.0001 15.9999 26.0001C12.7287 26.0001 9.66619 25.1251 7.37494 23.5413C5.19869 22.0338 3.99994 20.0663 3.99994 18.0001C4.00162 17.3076 4.13481 16.6216 4.39244 15.9788C4.48695 15.7563 4.49761 15.507 4.42246 15.2772C4.34731 15.0474 4.19143 14.8526 3.98369 14.7288C3.72932 14.5772 3.51181 14.3709 3.34685 14.125C3.1819 13.879 3.07362 13.5995 3.02985 13.3066C2.98607 13.0137 3.00789 12.7147 3.09372 12.4313C3.17956 12.1479 3.32727 11.887 3.52618 11.6676C3.7251 11.4482 3.97025 11.2757 4.24395 11.1626C4.51764 11.0495 4.81304 10.9986 5.10881 11.0135C5.40458 11.0285 5.69335 11.1089 5.95424 11.249C6.21514 11.3892 6.44166 11.5855 6.61744 11.8238C6.76253 12.0231 6.97612 12.1618 7.21721 12.2133C7.4583 12.2647 7.70989 12.2253 7.92369 12.1026L7.96869 12.0751C10.1812 10.7376 13.0312 10.0001 15.9999 10.0001C18.9662 10.0001 21.8162 10.7376 24.0287 12.0751L24.0812 12.1063C24.2947 12.2265 24.5449 12.2641 24.7843 12.2121C25.0237 12.16 25.2357 12.0218 25.3799 11.8238C25.5547 11.5835 25.7807 11.3851 26.0417 11.2431C26.3027 11.1011 26.5921 11.0191 26.8888 11.0029C27.1854 10.9867 27.482 11.0368 27.7569 11.1496C28.0318 11.2624 28.278 11.4351 28.4779 11.655C28.6777 11.8749 28.826 12.1366 28.912 12.421C28.998 12.7054 29.0195 13.0054 28.9751 13.2991C28.9306 13.5929 28.8213 13.8731 28.655 14.1193C28.4887 14.3655 28.2696 14.5716 28.0137 14.7226H28.0162ZM10.9999 18.0001C10.6044 18.0001 10.2177 17.8828 9.8888 17.663C9.55991 17.4433 9.30356 17.1309 9.15218 16.7654C9.00081 16.4 8.9612 15.9979 9.03837 15.6099C9.11554 15.2219 9.30603 14.8656 9.58573 14.5859C9.86544 14.3062 10.2218 14.1157 10.6098 14.0385C10.9977 13.9613 11.3999 14.0009 11.7653 14.1523C12.1308 14.3037 12.4431 14.56 12.6629 14.8889C12.8826 15.2178 12.9999 15.6045 12.9999 16.0001C12.9999 16.5305 12.7892 17.0392 12.4142 17.4143C12.0391 17.7894 11.5304 18.0001 10.9999 18.0001ZM22.9999 16.0001C22.9999 16.3956 22.8826 16.7823 22.6629 17.1112C22.4431 17.4401 22.1308 17.6965 21.7653 17.8478C21.3999 17.9992 20.9977 18.0388 20.6098 17.9616C20.2218 17.8845 19.8654 17.694 19.5857 17.4143C19.306 17.1346 19.1155 16.7782 19.0384 16.3903C18.9612 16.0023 19.0008 15.6002 19.1522 15.2347C19.3036 14.8693 19.5599 14.5569 19.8888 14.3371C20.2177 14.1174 20.6044 14.0001 20.9999 14.0001C21.5304 14.0001 22.0391 14.2108 22.4142 14.5859C22.7892 14.9609 22.9999 15.4696 22.9999 16.0001ZM20.8837 21.5313C20.9453 21.6474 20.9834 21.7744 20.9959 21.9052C21.0084 22.036 20.995 22.168 20.9565 22.2936C20.9179 22.4192 20.855 22.536 20.7713 22.6372C20.6876 22.7385 20.5848 22.8223 20.4687 22.8838C19.0927 23.6151 17.5582 23.9975 15.9999 23.9975C14.4417 23.9975 12.9072 23.6151 11.5312 22.8838C11.4151 22.8223 11.3123 22.7385 11.2287 22.6372C11.145 22.5359 11.0821 22.4191 11.0436 22.2935C11.005 22.1679 10.9916 22.036 11.0041 21.9052C11.0165 21.7744 11.0546 21.6474 11.1162 21.5313C11.1778 21.4153 11.2616 21.3125 11.3628 21.2288C11.4641 21.1451 11.5809 21.0822 11.7065 21.0437C11.8321 21.0052 11.964 20.9918 12.0948 21.0042C12.2256 21.0167 12.3526 21.0548 12.4687 21.1163C13.556 21.6944 14.7685 21.9967 15.9999 21.9967C17.2313 21.9967 18.4439 21.6944 19.5312 21.1163C19.6472 21.0547 19.7743 21.0166 19.9051 21.0041C20.0359 20.9916 20.1678 21.005 20.2934 21.0436C20.419 21.0821 20.5358 21.145 20.6371 21.2287C20.7384 21.3124 20.8222 21.4152 20.8837 21.5313Z" fill="#4A4A4F"/>
</svg>
