<svg width="32" height="32" viewBox="0 0 32 32" fill="none" xmlns="http://www.w3.org/2000/svg">
<path d="M2.99981 15.9998C3.00246 13.6137 3.95152 11.326 5.63877 9.63877C7.32603 7.95152 9.61367 7.00246 11.9998 6.99981H23.9998V4.99981C23.9997 4.80192 24.0582 4.60842 24.1681 4.44383C24.278 4.27923 24.4342 4.15094 24.617 4.07519C24.7998 3.99944 25.001 3.97963 25.1951 4.01828C25.3892 4.05693 25.5675 4.1523 25.7073 4.29231L28.7073 7.29231C28.8003 7.38518 28.874 7.49547 28.9244 7.61687C28.9747 7.73827 29.0006 7.8684 29.0006 7.99981C29.0006 8.13123 28.9747 8.26135 28.9244 8.38275C28.874 8.50415 28.8003 8.61444 28.7073 8.70731L25.7073 11.7073C25.5675 11.8473 25.3892 11.9427 25.1951 11.9813C25.001 12.02 24.7998 12.0002 24.617 11.9244C24.4342 11.8487 24.278 11.7204 24.1681 11.5558C24.0582 11.3912 23.9997 11.1977 23.9998 10.9998V8.99981H11.9998C10.1439 9.0018 8.36458 9.73993 7.05226 11.0523C5.73993 12.3646 5.0018 14.1439 4.99981 15.9998C4.99981 16.265 4.89445 16.5194 4.70692 16.7069C4.51938 16.8945 4.26503 16.9998 3.99981 16.9998C3.73459 16.9998 3.48024 16.8945 3.2927 16.7069C3.10517 16.5194 2.99981 16.265 2.99981 15.9998ZM27.9998 14.9998C27.7346 14.9998 27.4802 15.1052 27.2927 15.2927C27.1052 15.4802 26.9998 15.7346 26.9998 15.9998C26.9978 17.8557 26.2597 19.635 24.9474 20.9474C23.635 22.2597 21.8557 22.9978 19.9998 22.9998H7.99981V20.9998C7.99997 20.8019 7.9414 20.6084 7.83153 20.4438C7.72166 20.2792 7.56542 20.1509 7.3826 20.0752C7.19978 19.9994 6.99859 19.9796 6.8045 20.0183C6.61042 20.0569 6.43217 20.1523 6.29231 20.2923L3.29231 23.2923C3.19933 23.3852 3.12557 23.4955 3.07525 23.6169C3.02493 23.7383 2.99902 23.8684 2.99902 23.9998C2.99902 24.1312 3.02493 24.2614 3.07525 24.3828C3.12557 24.5042 3.19933 24.6144 3.29231 24.7073L6.29231 27.7073C6.43217 27.8473 6.61042 27.9427 6.8045 27.9813C6.99859 28.02 7.19978 28.0002 7.3826 27.9244C7.56542 27.8487 7.72166 27.7204 7.83153 27.5558C7.9414 27.3912 7.99997 27.1977 7.99981 26.9998V24.9998H19.9998C22.3859 24.9972 24.6736 24.0481 26.3608 22.3608C28.0481 20.6736 28.9972 18.3859 28.9998 15.9998C28.9998 15.7346 28.8945 15.4802 28.7069 15.2927C28.5194 15.1052 28.265 14.9998 27.9998 14.9998Z" fill="#4A4A4F"/>
</svg>
