<svg width="32" height="32" viewBox="0 0 32 32" fill="none" xmlns="http://www.w3.org/2000/svg">
<path d="M27.9712 7.2502C27.6576 7.07873 27.3037 6.99444 26.9465 7.00609C26.5893 7.01774 26.2417 7.12491 25.9399 7.31645L15.9999 13.6427V8.9802C15.9985 8.62415 15.9015 8.27503 15.7191 7.96927C15.5366 7.66351 15.2755 7.41233 14.9628 7.24197C14.6502 7.0716 14.2975 6.98828 13.9417 7.00073C13.5859 7.01317 13.2399 7.12091 12.9399 7.3127L1.91618 14.3327C1.63532 14.511 1.40403 14.7573 1.24378 15.0488C1.08353 15.3403 0.999512 15.6675 0.999512 16.0002C0.999512 16.3328 1.08353 16.6601 1.24378 16.9516C1.40403 17.2431 1.63532 17.4894 1.91618 17.6677L12.9399 24.6877C13.2399 24.8795 13.5859 24.9872 13.9417 24.9997C14.2975 25.0121 14.6502 24.9288 14.9628 24.7584C15.2755 24.5881 15.5366 24.3369 15.7191 24.0311C15.9015 23.7254 15.9985 23.3762 15.9999 23.0202V18.3577L25.9399 24.6877C26.2399 24.8795 26.5859 24.9872 26.9417 24.9997C27.2975 25.0121 27.6502 24.9288 27.9628 24.7584C28.2755 24.5881 28.5366 24.3369 28.7191 24.0311C28.9015 23.7254 28.9985 23.3762 28.9999 23.0202V8.9802C28.9989 8.62617 28.9029 8.27891 28.722 7.97462C28.541 7.67034 28.2817 7.42016 27.9712 7.2502ZM13.9999 22.9914L3.02243 16.0002L13.9999 9.0077V22.9914ZM26.9999 22.9914L16.0224 16.0002L26.9999 9.0077V22.9914Z" fill="#4A4A4F"/>
</svg>
