<svg width="32" height="32" viewBox="0 0 32 32" fill="none" xmlns="http://www.w3.org/2000/svg">
<path d="M28.9999 8.9802V23.0202C28.9981 23.3761 28.9008 23.725 28.7183 24.0305C28.5358 24.336 28.2747 24.587 27.9622 24.7573C27.6497 24.9275 27.2972 25.0109 26.9416 24.9987C26.5859 24.9865 26.24 24.8791 25.9399 24.6877L15.9999 18.3577V23.0202C15.9981 23.3761 15.9008 23.725 15.7183 24.0305C15.5358 24.336 15.2747 24.587 14.9622 24.7573C14.6497 24.9275 14.2972 25.0109 13.9415 24.9987C13.5859 24.9865 13.24 24.8791 12.9399 24.6877L1.91618 17.6677C1.63532 17.4894 1.40403 17.2431 1.24378 16.9516C1.08353 16.6601 0.999512 16.3328 0.999512 16.0002C0.999512 15.6675 1.08353 15.3403 1.24378 15.0488C1.40403 14.7573 1.63532 14.511 1.91618 14.3327L12.9399 7.3127C13.2399 7.12091 13.5859 7.01317 13.9417 7.00073C14.2975 6.98828 14.6502 7.0716 14.9628 7.24197C15.2755 7.41233 15.5366 7.66351 15.7191 7.96927C15.9015 8.27503 15.9985 8.62415 15.9999 8.9802V13.6427L25.9399 7.3127C26.2399 7.12091 26.5859 7.01317 26.9417 7.00073C27.2975 6.98828 27.6502 7.0716 27.9628 7.24197C28.2755 7.41233 28.5366 7.66351 28.7191 7.96927C28.9015 8.27503 28.9985 8.62415 28.9999 8.9802Z" fill="#4A4A4F"/>
</svg>
