<svg width="32" height="32" viewBox="0 0 32 32" fill="none" xmlns="http://www.w3.org/2000/svg">
<path d="M16 3C13.4288 3 10.9154 3.76244 8.77759 5.1909C6.63975 6.61935 4.97351 8.64968 3.98957 11.0251C3.00563 13.4006 2.74819 16.0144 3.2498 18.5362C3.75141 21.0579 4.98953 23.3743 6.80762 25.1924C8.6257 27.0105 10.9421 28.2486 13.4638 28.7502C15.9856 29.2518 18.5995 28.9944 20.9749 28.0104C23.3503 27.0265 25.3807 25.3603 26.8091 23.2224C28.2376 21.0846 29 18.5712 29 16C28.9964 12.5533 27.6256 9.24882 25.1884 6.81163C22.7512 4.37445 19.4467 3.00364 16 3ZM16 27C13.8244 27 11.6977 26.3549 9.88873 25.1462C8.07979 23.9375 6.66989 22.2195 5.83733 20.2095C5.00477 18.1995 4.78693 15.9878 5.21137 13.854C5.63581 11.7202 6.68345 9.7602 8.22183 8.22183C9.76021 6.68345 11.7202 5.6358 13.854 5.21136C15.9878 4.78692 18.1995 5.00476 20.2095 5.83733C22.2195 6.66989 23.9375 8.07979 25.1462 9.88873C26.3549 11.6977 27 13.8244 27 16C26.9967 18.9164 25.8367 21.7123 23.7745 23.7745C21.7123 25.8367 18.9164 26.9967 16 27ZM22.4713 11.125C22.3118 11.0395 22.1321 10.9989 21.9514 11.0075C21.7707 11.0161 21.5957 11.0735 21.445 11.1737L15.445 15.1737C15.3078 15.265 15.1954 15.3888 15.1175 15.534C15.0397 15.6793 14.999 15.8415 14.999 16.0063C14.999 16.171 15.0397 16.3332 15.1175 16.4785C15.1954 16.6237 15.3078 16.7475 15.445 16.8388L21.445 20.8388C21.6101 20.946 21.8032 21.002 22 21C22.2652 21 22.5196 20.8946 22.7071 20.7071C22.8946 20.5196 23 20.2652 23 20V12C22.9987 11.8201 22.949 11.6438 22.8559 11.4898C22.7628 11.3358 22.63 11.2098 22.4713 11.125ZM21 18.1313L17.8025 16L21 13.875V18.1313ZM14.4713 11.125C14.3118 11.0395 14.1321 10.9989 13.9514 11.0075C13.7707 11.0161 13.5957 11.0735 13.445 11.1737L7.44501 15.1737C7.30784 15.265 7.19535 15.3888 7.11755 15.534C7.03974 15.6793 6.99903 15.8415 6.99903 16.0063C6.99903 16.171 7.03974 16.3332 7.11755 16.4785C7.19535 16.6237 7.30784 16.7475 7.44501 16.8388L13.445 20.8388C13.6101 20.946 13.8032 21.002 14 21C14.2652 21 14.5196 20.8946 14.7071 20.7071C14.8946 20.5196 15 20.2652 15 20V12C14.9987 11.8201 14.949 11.6438 14.8559 11.4898C14.7628 11.3358 14.63 11.2098 14.4713 11.125ZM13 18.1313L9.80251 16L13 13.875V18.1313Z" fill="#4A4A4F"/>
</svg>
