<svg width="32" height="32" viewBox="0 0 32 32" fill="none" xmlns="http://www.w3.org/2000/svg">
<path d="M29.875 23.5101L21.71 9.00013H28.96C29.2196 9.00585 29.4716 8.91249 29.6648 8.73903C29.858 8.56558 29.9779 8.32506 30 8.06638C30.0091 7.92959 29.99 7.7924 29.9438 7.66332C29.8976 7.53424 29.8254 7.41604 29.7316 7.31604C29.6379 7.21605 29.5245 7.13641 29.3987 7.08206C29.2728 7.02772 29.1371 6.99983 29 7.00013H3.03379C2.77529 6.99602 2.52485 7.0901 2.333 7.26339C2.14114 7.43669 2.02215 7.6763 2.00004 7.93388C1.99095 8.07067 2.01009 8.20786 2.05627 8.33694C2.10244 8.46602 2.17466 8.58422 2.26844 8.68422C2.36222 8.78421 2.47555 8.86385 2.60141 8.9182C2.72726 8.97254 2.86295 9.00043 3.00004 9.00013H10.29L2.12504 23.5101C2.02022 23.6964 1.97787 23.9114 2.00419 24.1236C2.03051 24.3357 2.12412 24.5338 2.27129 24.6889C2.36868 24.7889 2.48539 24.868 2.61432 24.9215C2.74325 24.975 2.88171 25.0018 3.02129 25.0001H14.5C14.6326 25.0001 14.7598 24.9475 14.8536 24.8537C14.9474 24.7599 15 24.6327 15 24.5001V22.0339C14.9966 21.7758 15.0909 21.526 15.2642 21.3347C15.4374 21.1434 15.6766 21.0247 15.9338 21.0026C16.0706 20.9935 16.2078 21.0127 16.3368 21.0589C16.4659 21.105 16.5841 21.1772 16.6841 21.271C16.7841 21.3648 16.8638 21.4781 16.9181 21.604C16.9724 21.7299 17.0003 21.8655 17 22.0026V24.5026C17 24.6352 17.0527 24.7624 17.1465 24.8562C17.2403 24.95 17.3674 25.0026 17.5 25.0026H28.9713C29.1109 25.0043 29.2493 24.9775 29.3783 24.924C29.5072 24.8705 29.6239 24.7914 29.7213 24.6914C29.8702 24.537 29.9656 24.3388 29.9932 24.1261C30.0209 23.9134 29.9795 23.6975 29.875 23.5101ZM17 17.5001C17 17.7653 16.8947 18.0197 16.7071 18.2072C16.5196 18.3948 16.2653 18.5001 16 18.5001C15.7348 18.5001 15.4805 18.3948 15.2929 18.2072C15.1054 18.0197 15 17.7653 15 17.5001V15.5001C15 15.2349 15.1054 14.9806 15.2929 14.793C15.4805 14.6055 15.7348 14.5001 16 14.5001C16.2653 14.5001 16.5196 14.6055 16.7071 14.793C16.8947 14.9806 17 15.2349 17 15.5001V17.5001ZM17 11.0001C17 11.2653 16.8947 11.5197 16.7071 11.7072C16.5196 11.8948 16.2653 12.0001 16 12.0001C15.7348 12.0001 15.4805 11.8948 15.2929 11.7072C15.1054 11.5197 15 11.2653 15 11.0001V10.0001C15 9.73491 15.1054 9.48056 15.2929 9.29302C15.4805 9.10549 15.7348 9.00013 16 9.00013C16.2653 9.00013 16.5196 9.10549 16.7071 9.29302C16.8947 9.48056 17 9.73491 17 10.0001V11.0001Z" fill="#4A4A4F"/>
</svg>
