<svg width="32" height="32" viewBox="0 0 32 32" fill="none" xmlns="http://www.w3.org/2000/svg">
<path d="M18.9998 28.0001C18.9998 28.2653 18.8944 28.5197 18.7069 28.7072C18.5194 28.8947 18.265 29.0001 17.9998 29.0001H13.9998C13.7346 29.0001 13.4802 28.8947 13.2927 28.7072C13.1052 28.5197 12.9998 28.2653 12.9998 28.0001C12.9998 27.7349 13.1052 27.4805 13.2927 27.293C13.4802 27.1054 13.7346 27.0001 13.9998 27.0001H17.9998C18.265 27.0001 18.5194 27.1054 18.7069 27.293C18.8944 27.4805 18.9998 27.7349 18.9998 28.0001ZM15.9998 14.0001C16.2965 14.0001 16.5865 13.9121 16.8332 13.7473C17.0798 13.5825 17.2721 13.3482 17.3856 13.0741C17.4992 12.8 17.5289 12.4984 17.471 12.2075C17.4131 11.9165 17.2702 11.6492 17.0605 11.4394C16.8507 11.2297 16.5834 11.0868 16.2924 11.0289C16.0015 10.971 15.6999 11.0007 15.4258 11.1143C15.1517 11.2278 14.9174 11.4201 14.7526 11.6667C14.5878 11.9134 14.4998 12.2034 14.4998 12.5001C14.4998 12.8979 14.6578 13.2795 14.9391 13.5608C15.2204 13.8421 15.602 14.0001 15.9998 14.0001ZM27.9523 19.4788L26.4073 26.4326C26.334 26.7628 26.1782 27.069 25.9543 27.3226C25.7305 27.5763 25.446 27.7689 25.1275 27.8827C24.8089 27.9965 24.4667 28.0276 24.1329 27.9731C23.799 27.9187 23.4844 27.7804 23.2186 27.5713L19.8136 25.0001H12.1886L8.78105 27.5713C8.51516 27.7804 8.20059 27.9187 7.86674 27.9731C7.5329 28.0276 7.1907 27.9965 6.87216 27.8827C6.55361 27.7689 6.26911 27.5763 6.04528 27.3226C5.82145 27.069 5.6656 26.7628 5.5923 26.4326L4.0473 19.4788C3.98177 19.1804 3.98508 18.871 4.05699 18.5741C4.12889 18.2771 4.26751 18.0005 4.4623 17.7651L8.0323 13.4826C8.15212 11.9088 8.51344 10.3628 9.10355 8.89884C10.7161 4.85634 13.6036 2.32009 14.7748 1.41759C15.1254 1.14595 15.5563 0.998535 15.9998 0.998535C16.4433 0.998535 16.8742 1.14595 17.2248 1.41759C18.3923 2.32009 21.2836 4.85634 22.8961 8.89884C23.4862 10.3628 23.8475 11.9088 23.9673 13.4826L27.5373 17.7651C27.7321 18.0005 27.8707 18.2771 27.9426 18.5741C28.0145 18.871 28.0178 19.1804 27.9523 19.4788ZM12.4286 23.0001H19.5711C22.2111 18.3076 22.7048 13.8151 21.0386 9.64009C19.5686 5.95509 16.8111 3.62509 15.9998 3.00009C15.1861 3.62509 12.4286 5.95509 10.9586 9.64009C9.2948 13.8151 9.78855 18.3076 12.4286 23.0001ZM10.5536 23.7313C9.20772 21.2855 8.39105 18.8818 8.10355 16.5201L5.9998 19.0451L7.5448 26.0001L7.5673 25.9838L10.5536 23.7313ZM25.9998 19.0451L23.8961 16.5201C23.6111 18.8768 22.7961 21.2805 21.4511 23.7313L24.4323 25.9813L24.4548 25.9976L25.9998 19.0451Z" fill="#4A4A4F"/>
</svg>
