<svg width="32" height="32" viewBox="0 0 32 32" fill="none" xmlns="http://www.w3.org/2000/svg">
<path d="M12.9712 23.2424C12.9225 23.4361 11.7037 27.9999 4.99999 27.9999C4.73477 27.9999 4.48042 27.8945 4.29288 27.707C4.10534 27.5195 3.99999 27.2651 3.99999 26.9999C3.99999 20.2961 8.56374 19.0774 8.75749 19.0286C9.01491 18.9643 9.28734 19.0049 9.51485 19.1415C9.74235 19.278 9.9063 19.4993 9.97061 19.7568C10.0349 20.0142 9.99435 20.2866 9.8578 20.5141C9.72125 20.7416 9.49991 20.9056 9.24249 20.9699C9.12999 21.0011 6.43999 21.7874 6.04749 25.9524C10.2125 25.5599 11 22.8749 11.0325 22.7499C11.0988 22.4928 11.2645 22.2726 11.4932 22.1377C11.7219 22.0028 11.9948 21.9642 12.2519 22.0305C12.509 22.0968 12.7292 22.2625 12.8641 22.4912C12.999 22.7199 13.0375 22.9928 12.9712 23.2499V23.2424ZM24.5962 14.8174L24 15.4136V22.7049C24.0015 22.9685 23.9505 23.2299 23.8501 23.4736C23.7497 23.7174 23.6018 23.9388 23.415 24.1249L19.125 28.4124C18.94 28.5987 18.7199 28.7466 18.4775 28.8474C18.2351 28.9482 17.9751 29.0001 17.7125 28.9999C17.4958 28.9998 17.2805 28.9648 17.075 28.8961C16.7221 28.7794 16.4089 28.5663 16.1708 28.2809C15.9327 27.9955 15.7791 27.6492 15.7275 27.2811L15.0562 22.4699L9.52999 16.9436L4.72124 16.2724C4.35267 16.2207 4.00583 16.0672 3.71974 15.8291C3.43366 15.5911 3.21968 15.2779 3.10187 14.9249C2.98406 14.5718 2.96709 14.1929 3.05288 13.8308C3.13868 13.4686 3.32382 13.1376 3.58749 12.8749L7.87499 8.5849C8.06108 8.39813 8.28246 8.25022 8.52624 8.14979C8.77002 8.04936 9.03133 7.99841 9.29499 7.9999H16.5862L17.1825 7.40365C20.5175 4.0699 24.535 3.92615 26.1087 4.0199C26.5963 4.04953 27.0562 4.25658 27.4016 4.602C27.747 4.94741 27.9541 5.4073 27.9837 5.8949C28.075 7.46365 27.9312 11.4824 24.5975 14.8174H24.5962ZM14.5862 9.9999H9.29499L4.99999 14.2924L9.64374 14.9399L14.5862 9.9999ZM22 17.4136L17.0587 22.3549L17.7087 26.9999L22 22.7049V17.4136Z" fill="#4A4A4F"/>
</svg>
