<svg width="32" height="32" viewBox="0 0 32 32" fill="none" xmlns="http://www.w3.org/2000/svg">
<path d="M12.3638 19.6363C13.2021 20.4701 13.8668 21.4618 14.3193 22.5541C14.7718 23.6465 15.0032 24.8177 15 26.0001C15 26.2653 14.8946 26.5196 14.7071 26.7072C14.5196 26.8947 14.2652 27.0001 14 27.0001C13.7348 27.0001 13.4804 26.8947 13.2929 26.7072C13.1054 26.5196 13 26.2653 13 26.0001C13 24.1436 12.2625 22.3631 10.9497 21.0503C9.63699 19.7376 7.85652 19.0001 6 19.0001C5.73478 19.0001 5.48043 18.8947 5.29289 18.7072C5.10536 18.5196 5 18.2653 5 18.0001C5 17.7349 5.10536 17.4805 5.29289 17.293C5.48043 17.1054 5.73478 17.0001 6 17.0001C7.18235 16.9969 8.35359 17.2283 9.44593 17.6808C10.5383 18.1333 11.53 18.798 12.3638 19.6363ZM6 11.0001C5.73478 11.0001 5.48043 11.1054 5.29289 11.293C5.10536 11.4805 5 11.7349 5 12.0001C5 12.2653 5.10536 12.5196 5.29289 12.7072C5.48043 12.8947 5.73478 13.0001 6 13.0001C7.70719 13.0001 9.39765 13.3363 10.9749 13.9896C12.5521 14.643 13.9852 15.6005 15.1924 16.8077C16.3996 18.0148 17.3571 19.448 18.0104 21.0252C18.6637 22.6024 19 24.2929 19 26.0001C19 26.2653 19.1054 26.5196 19.2929 26.7072C19.4804 26.8947 19.7348 27.0001 20 27.0001C20.2652 27.0001 20.5196 26.8947 20.7071 26.7072C20.8946 26.5196 21 26.2653 21 26.0001C21 22.0218 19.4196 18.2065 16.6066 15.3935C13.7936 12.5804 9.97825 11.0001 6 11.0001ZM20.8488 11.1513C18.9034 9.19515 16.5893 7.64425 14.0405 6.58838C11.4917 5.53252 8.75883 4.99267 6 5.00008C5.73478 5.00008 5.48043 5.10543 5.29289 5.29297C5.10536 5.4805 5 5.73486 5 6.00008C5 6.26529 5.10536 6.51965 5.29289 6.70718C5.48043 6.89472 5.73478 7.00008 6 7.00008C8.49613 6.99323 10.9688 7.48156 13.2749 8.4368C15.5811 9.39203 17.6748 10.7952 19.435 12.5651C21.2049 14.3253 22.608 16.419 23.5633 18.7251C24.5185 21.0313 25.0068 23.5039 25 26.0001C25 26.2653 25.1054 26.5196 25.2929 26.7072C25.4804 26.8947 25.7348 27.0001 26 27.0001C26.2652 27.0001 26.5196 26.8947 26.7071 26.7072C26.8946 26.5196 27 26.2653 27 26.0001C27.0074 23.2412 26.4676 20.5084 25.4117 17.9596C24.3558 15.4108 22.8049 13.0967 20.8488 11.1513ZM6.5 24.0001C6.20333 24.0001 5.91332 24.088 5.66665 24.2529C5.41997 24.4177 5.22771 24.652 5.11418 24.9261C5.00065 25.2001 4.97094 25.5017 5.02882 25.7927C5.0867 26.0837 5.22956 26.351 5.43934 26.5607C5.64912 26.7705 5.91639 26.9134 6.20737 26.9713C6.49834 27.0291 6.79994 26.9994 7.07403 26.8859C7.34811 26.7724 7.58238 26.5801 7.74721 26.3334C7.91203 26.0868 8 25.7967 8 25.5001C8 25.1022 7.84197 24.7207 7.56066 24.4394C7.27936 24.1581 6.89783 24.0001 6.5 24.0001Z" fill="#4A4A4F"/>
</svg>
