<svg width="32" height="32" viewBox="0 0 32 32" fill="none" xmlns="http://www.w3.org/2000/svg">
<path d="M26 4H6C5.46957 4 4.96086 4.21071 4.58579 4.58579C4.21071 4.96086 4 5.46957 4 6V26C4 26.5304 4.21071 27.0391 4.58579 27.4142C4.96086 27.7893 5.46957 28 6 28H26C26.5304 28 27.0391 27.7893 27.4142 27.4142C27.7893 27.0391 28 26.5304 28 26V6C28 5.46957 27.7893 4.96086 27.4142 4.58579C27.0391 4.21071 26.5304 4 26 4ZM9.5 24C9.20333 24 8.91332 23.912 8.66665 23.7472C8.41997 23.5824 8.22771 23.3481 8.11418 23.074C8.00065 22.7999 7.97094 22.4983 8.02882 22.2074C8.0867 21.9164 8.22956 21.6491 8.43934 21.4393C8.64912 21.2296 8.91639 21.0867 9.20736 21.0288C9.49834 20.9709 9.79994 21.0007 10.074 21.1142C10.3481 21.2277 10.5824 21.42 10.7472 21.6666C10.912 21.9133 11 22.2033 11 22.5C11 22.8978 10.842 23.2794 10.5607 23.5607C10.2794 23.842 9.89782 24 9.5 24ZM15 24C14.7348 24 14.4804 23.8946 14.2929 23.7071C14.1054 23.5196 14 23.2652 14 23C14 22.3434 13.8707 21.6932 13.6194 21.0866C13.3681 20.48 12.9998 19.9288 12.5355 19.4645C12.0712 19.0002 11.52 18.6319 10.9134 18.3806C10.3068 18.1293 9.65661 18 9 18C8.73478 18 8.48043 17.8946 8.29289 17.7071C8.10536 17.5196 8 17.2652 8 17C8 16.7348 8.10536 16.4804 8.29289 16.2929C8.48043 16.1054 8.73478 16 9 16C10.8559 16.002 12.6352 16.7401 13.9476 18.0524C15.2599 19.3648 15.998 21.1441 16 23C16 23.2652 15.8946 23.5196 15.7071 23.7071C15.5196 23.8946 15.2652 24 15 24ZM19 24C18.7348 24 18.4804 23.8946 18.2929 23.7071C18.1054 23.5196 18 23.2652 18 23C17.9974 20.6139 17.0483 18.3262 15.361 16.639C13.6738 14.9517 11.3861 14.0026 9 14C8.73478 14 8.48043 13.8946 8.29289 13.7071C8.10536 13.5196 8 13.2652 8 13C8 12.7348 8.10536 12.4804 8.29289 12.2929C8.48043 12.1054 8.73478 12 9 12C11.9164 12.0033 14.7123 13.1633 16.7745 15.2255C18.8367 17.2877 19.9967 20.0836 20 23C20 23.2652 19.8946 23.5196 19.7071 23.7071C19.5196 23.8946 19.2652 24 19 24ZM23 24C22.7348 24 22.4804 23.8946 22.2929 23.7071C22.1054 23.5196 22 23.2652 22 23C21.9964 19.5533 20.6256 16.2488 18.1884 13.8116C15.7512 11.3744 12.4467 10.0036 9 10C8.73478 10 8.48043 9.89464 8.29289 9.70711C8.10536 9.51957 8 9.26522 8 9C8 8.73478 8.10536 8.48043 8.29289 8.29289C8.48043 8.10536 8.73478 8 9 8C12.9769 8.0043 16.7897 9.58604 19.6019 12.3981C22.414 15.2103 23.9957 19.0231 24 23C24 23.2652 23.8946 23.5196 23.7071 23.7071C23.5196 23.8946 23.2652 24 23 24Z" fill="#4A4A4F"/>
</svg>
