<svg width="32" height="32" viewBox="0 0 32 32" fill="none" xmlns="http://www.w3.org/2000/svg">
<path d="M27 25C27 25.2652 26.8946 25.5196 26.7071 25.7071C26.5196 25.8946 26.2652 26 26 26C25.7348 26 25.4804 25.8946 25.2929 25.7071C25.1054 25.5196 25 25.2652 25 25C25 15.075 16.925 7 7 7C6.73478 7 6.48043 6.89464 6.29289 6.70711C6.10536 6.51957 6 6.26522 6 6C6 5.73478 6.10536 5.48043 6.29289 5.29289C6.48043 5.10536 6.73478 5 7 5C18.0275 5 27 13.9725 27 25ZM7 14C6.73478 14 6.48043 14.1054 6.29289 14.2929C6.10536 14.4804 6 14.7348 6 15C6 15.2652 6.10536 15.5196 6.29289 15.7071C6.48043 15.8946 6.73478 16 7 16C9.38614 16.0026 11.6738 16.9517 13.361 18.639C15.0483 20.3262 15.9974 22.6139 16 25C16 25.2652 16.1054 25.5196 16.2929 25.7071C16.4804 25.8946 16.7348 26 17 26C17.2652 26 17.5196 25.8946 17.7071 25.7071C17.8946 25.5196 18 25.2652 18 25C17.9967 22.0836 16.8367 19.2877 14.7745 17.2255C12.7123 15.1633 9.91637 14.0033 7 14ZM7.5 23C7.20333 23 6.91332 23.088 6.66665 23.2528C6.41997 23.4176 6.22771 23.6519 6.11418 23.926C6.00065 24.2001 5.97094 24.5017 6.02882 24.7926C6.0867 25.0836 6.22956 25.3509 6.43934 25.5607C6.64912 25.7704 6.91639 25.9133 7.20737 25.9712C7.49834 26.0291 7.79994 25.9993 8.07403 25.8858C8.34811 25.7723 8.58238 25.58 8.74721 25.3334C8.91203 25.0867 9 24.7967 9 24.5C9 24.1022 8.84197 23.7206 8.56066 23.4393C8.27936 23.158 7.89783 23 7.5 23Z" fill="#4A4A4F"/>
</svg>
