<svg width="32" height="32" viewBox="0 0 32 32" fill="none" xmlns="http://www.w3.org/2000/svg">
<path d="M25 2C24.7348 2 24.4804 2.10536 24.2929 2.29289C24.1054 2.48043 24 2.73478 24 3V5H20V3C20 2.73478 19.8946 2.48043 19.7071 2.29289C19.5196 2.10536 19.2652 2 19 2C18.7348 2 18.4804 2.10536 18.2929 2.29289C18.1054 2.48043 18 2.73478 18 3V5H14V3C14 2.73478 13.8946 2.48043 13.7071 2.29289C13.5196 2.10536 13.2652 2 13 2C12.7348 2 12.4804 2.10536 12.2929 2.29289C12.1054 2.48043 12 2.73478 12 3V5H8V3C8 2.73478 7.89464 2.48043 7.70711 2.29289C7.51957 2.10536 7.26522 2 7 2C6.73478 2 6.48043 2.10536 6.29289 2.29289C6.10536 2.48043 6 2.73478 6 3V29C6 29.2652 6.10536 29.5196 6.29289 29.7071C6.48043 29.8946 6.73478 30 7 30C7.26522 30 7.51957 29.8946 7.70711 29.7071C7.89464 29.5196 8 29.2652 8 29V27H12V29C12 29.2652 12.1054 29.5196 12.2929 29.7071C12.4804 29.8946 12.7348 30 13 30C13.2652 30 13.5196 29.8946 13.7071 29.7071C13.8946 29.5196 14 29.2652 14 29V27H18V29C18 29.2652 18.1054 29.5196 18.2929 29.7071C18.4804 29.8946 18.7348 30 19 30C19.2652 30 19.5196 29.8946 19.7071 29.7071C19.8946 29.5196 20 29.2652 20 29V27H24V29C24 29.2652 24.1054 29.5196 24.2929 29.7071C24.4804 29.8946 24.7348 30 25 30C25.2652 30 25.5196 29.8946 25.7071 29.7071C25.8946 29.5196 26 29.2652 26 29V3C26 2.73478 25.8946 2.48043 25.7071 2.29289C25.5196 2.10536 25.2652 2 25 2ZM8 7H24V25H8V7ZM15.1425 21.515L12.1425 16.515C12.0491 16.3595 11.9997 16.1814 11.9997 16C11.9997 15.8186 12.0491 15.6405 12.1425 15.485L15.1425 10.485C15.2313 10.3369 15.357 10.2144 15.5073 10.1293C15.6576 10.0442 15.8273 9.99948 16 9.99948C16.1727 9.99948 16.3424 10.0442 16.4927 10.1293C16.643 10.2144 16.7687 10.3369 16.8575 10.485L19.8575 15.485C19.9509 15.6405 20.0003 15.8186 20.0003 16C20.0003 16.1814 19.9509 16.3595 19.8575 16.515L16.8575 21.515C16.7687 21.6631 16.643 21.7856 16.4927 21.8707C16.3424 21.9558 16.1727 22.0005 16 22.0005C15.8273 22.0005 15.6576 21.9558 15.5073 21.8707C15.357 21.7856 15.2313 21.6631 15.1425 21.515Z" fill="#4A4A4F"/>
</svg>
