<svg width="32" height="32" viewBox="0 0 32 32" fill="none" xmlns="http://www.w3.org/2000/svg">
<path d="M29.415 12.0002L12 29.4139C11.8142 29.5997 11.5937 29.7471 11.3511 29.8476C11.1084 29.9481 10.8483 29.9999 10.5856 29.9999C10.3229 29.9999 10.0628 29.9481 9.82012 29.8476C9.57744 29.7471 9.35695 29.5997 9.17122 29.4139L2.58497 22.8289C2.39921 22.6432 2.25185 22.4227 2.15131 22.18C2.05077 21.9374 1.99902 21.6772 1.99902 21.4146C1.99902 21.1519 2.05077 20.8918 2.15131 20.6491C2.25185 20.4064 2.39921 20.1859 2.58497 20.0002L6.23122 16.3539C6.27766 16.3074 6.3328 16.2706 6.3935 16.2454C6.4542 16.2202 6.51926 16.2073 6.58497 16.2073C6.65068 16.2073 6.71574 16.2202 6.77644 16.2454C6.83714 16.2706 6.89228 16.3074 6.93872 16.3539L11.2925 20.7077C11.3897 20.8048 11.5059 20.8809 11.6338 20.9312C11.7618 20.9814 11.8987 21.0047 12.0361 20.9997C12.1734 20.9946 12.3083 20.9613 12.4322 20.9018C12.5561 20.8424 12.6664 20.758 12.7562 20.6539C12.9204 20.4558 13.0039 20.2031 12.99 19.9461C12.9761 19.6892 12.8659 19.4469 12.6812 19.2677L8.35247 14.9389C8.25897 14.8452 8.20645 14.7182 8.20645 14.5858C8.20645 14.4534 8.25897 14.3264 8.35247 14.2327L10.2275 12.3577C10.2739 12.3112 10.3291 12.2743 10.3898 12.2492C10.4505 12.224 10.5155 12.211 10.5812 12.211C10.6469 12.211 10.712 12.224 10.7727 12.2492C10.8334 12.2743 10.8885 12.3112 10.935 12.3577L15.2887 16.7114C15.3859 16.8086 15.5022 16.8847 15.6301 16.9349C15.758 16.9852 15.8949 17.0085 16.0323 17.0034C16.1697 16.9984 16.3045 16.9651 16.4284 16.9056C16.5523 16.8461 16.6626 16.7617 16.7525 16.6577C16.9167 16.4596 17.0002 16.2068 16.9863 15.9499C16.9724 15.6929 16.8621 15.4507 16.6775 15.2714L12.3537 10.9389C12.2602 10.8452 12.2077 10.7182 12.2077 10.5858C12.2077 10.4534 12.2602 10.3264 12.3537 10.2327L14.2287 8.35769C14.3225 8.26418 14.4494 8.21167 14.5818 8.21167C14.7142 8.21167 14.8412 8.26418 14.935 8.35769L19.2887 12.7114C19.386 12.8088 19.5022 12.885 19.6303 12.9354C19.7584 12.9858 19.8954 13.0092 20.0329 13.0041C20.1705 12.9991 20.3054 12.9657 20.4295 12.9061C20.5535 12.8465 20.6639 12.7619 20.7537 12.6577C20.9178 12.4594 21.0011 12.2066 20.9869 11.9496C20.9728 11.6927 20.8623 11.4505 20.6775 11.2714L16.3537 6.93894C16.2602 6.8452 16.2077 6.71821 16.2077 6.58581C16.2077 6.45341 16.2602 6.32642 16.3537 6.23269L20 2.58644C20.1857 2.40067 20.4062 2.25331 20.6489 2.15277C20.8916 2.05223 21.1517 2.00049 21.4143 2.00049C21.677 2.00049 21.9371 2.05223 22.1798 2.15277C22.4225 2.25331 22.643 2.40067 22.8287 2.58644L29.415 9.17144C29.6007 9.35716 29.7481 9.57766 29.8486 9.82034C29.9492 10.063 30.0009 10.3231 30.0009 10.5858C30.0009 10.8485 29.9492 11.1086 29.8486 11.3513C29.7481 11.594 29.6007 11.8145 29.415 12.0002Z" fill="#4A4A4F"/>
</svg>
