<svg width="32" height="32" viewBox="0 0 32 32" fill="none" xmlns="http://www.w3.org/2000/svg">
<path d="M29.9288 16.625L25.9288 6.625C25.854 6.44007 25.7255 6.28174 25.56 6.17036C25.3945 6.05899 25.1995 5.99966 25 6C24.9272 6.00111 24.8547 6.00991 24.7838 6.02625L17 7.75V5C17 4.73478 16.8947 4.48043 16.7071 4.29289C16.5196 4.10536 16.2652 4 16 4C15.7348 4 15.4804 4.10536 15.2929 4.29289C15.1054 4.48043 15 4.73478 15 5V8.1975L6.78377 10.0262C6.62537 10.0608 6.47774 10.1334 6.35362 10.2377C6.2295 10.342 6.1326 10.4749 6.07127 10.625L2.07127 20.625C2.02342 20.7442 1.99922 20.8716 2.00002 21C2.00002 23.9137 5.06752 25 7.00002 25C8.93252 25 12 23.9137 12 21C12.0008 20.8716 11.9766 20.7442 11.9288 20.625L8.36502 11.7212L15 10.25V26H13C12.7348 26 12.4804 26.1054 12.2929 26.2929C12.1054 26.4804 12 26.7348 12 27C12 27.2652 12.1054 27.5196 12.2929 27.7071C12.4804 27.8946 12.7348 28 13 28H19C19.2652 28 19.5196 27.8946 19.7071 27.7071C19.8947 27.5196 20 27.2652 20 27C20 26.7348 19.8947 26.4804 19.7071 26.2929C19.5196 26.1054 19.2652 26 19 26H17V9.8025L23.375 8.3875L20.0713 16.625C20.0234 16.7442 19.9992 16.8716 20 17C20 19.9137 23.0675 21 25 21C26.9325 21 30 19.9137 30 17C30.0008 16.8716 29.9766 16.7442 29.9288 16.625ZM9.92877 21H4.07752L7.00002 13.6925L9.92877 21ZM22.0838 17L25 9.6925L27.9225 17H22.0838Z" fill="#4A4A4F"/>
</svg>
