<svg width="32" height="32" viewBox="0 0 32 32" fill="none" xmlns="http://www.w3.org/2000/svg">
<path d="M28 5V10C28 10.2652 27.8946 10.5196 27.7071 10.7071C27.5196 10.8946 27.2652 11 27 11C26.7348 11 26.4804 10.8946 26.2929 10.7071C26.1054 10.5196 26 10.2652 26 10V6H22C21.7348 6 21.4804 5.89464 21.2929 5.70711C21.1054 5.51957 21 5.26522 21 5C21 4.73478 21.1054 4.48043 21.2929 4.29289C21.4804 4.10536 21.7348 4 22 4H27C27.2652 4 27.5196 4.10536 27.7071 4.29289C27.8946 4.48043 28 4.73478 28 5ZM10 26H6V22C6 21.7348 5.89464 21.4804 5.70711 21.2929C5.51957 21.1054 5.26522 21 5 21C4.73478 21 4.48043 21.1054 4.29289 21.2929C4.10536 21.4804 4 21.7348 4 22V27C4 27.2652 4.10536 27.5196 4.29289 27.7071C4.48043 27.8946 4.73478 28 5 28H10C10.2652 28 10.5196 27.8946 10.7071 27.7071C10.8946 27.5196 11 27.2652 11 27C11 26.7348 10.8946 26.4804 10.7071 26.2929C10.5196 26.1054 10.2652 26 10 26ZM27 21C26.7348 21 26.4804 21.1054 26.2929 21.2929C26.1054 21.4804 26 21.7348 26 22V26H22C21.7348 26 21.4804 26.1054 21.2929 26.2929C21.1054 26.4804 21 26.7348 21 27C21 27.2652 21.1054 27.5196 21.2929 27.7071C21.4804 27.8946 21.7348 28 22 28H27C27.2652 28 27.5196 27.8946 27.7071 27.7071C27.8946 27.5196 28 27.2652 28 27V22C28 21.7348 27.8946 21.4804 27.7071 21.2929C27.5196 21.1054 27.2652 21 27 21ZM5 11C5.26522 11 5.51957 10.8946 5.70711 10.7071C5.89464 10.5196 6 10.2652 6 10V6H10C10.2652 6 10.5196 5.89464 10.7071 5.70711C10.8946 5.51957 11 5.26522 11 5C11 4.73478 10.8946 4.48043 10.7071 4.29289C10.5196 4.10536 10.2652 4 10 4H5C4.73478 4 4.48043 4.10536 4.29289 4.29289C4.10536 4.48043 4 4.73478 4 5V10C4 10.2652 4.10536 10.5196 4.29289 10.7071C4.48043 10.8946 4.73478 11 5 11ZM23 21V11C23 10.4696 22.7893 9.96086 22.4142 9.58579C22.0391 9.21071 21.5304 9 21 9H11C10.4696 9 9.96086 9.21071 9.58579 9.58579C9.21071 9.96086 9 10.4696 9 11V21C9 21.5304 9.21071 22.0391 9.58579 22.4142C9.96086 22.7893 10.4696 23 11 23H21C21.5304 23 22.0391 22.7893 22.4142 22.4142C22.7893 22.0391 23 21.5304 23 21Z" fill="#4A4A4F"/>
</svg>
