<svg width="32" height="32" viewBox="0 0 32 32" fill="none" xmlns="http://www.w3.org/2000/svg">
<path d="M19.716 14.1414C19.6417 14.033 19.5895 13.9109 19.5624 13.7823C19.5353 13.6536 19.5338 13.5209 19.5581 13.3916C19.5824 13.2624 19.6319 13.1392 19.7038 13.0292C19.7757 12.9191 19.8687 12.8243 19.9773 12.7502L28.4348 6.96269C28.6538 6.82716 28.9167 6.78139 29.1687 6.83493C29.4207 6.88846 29.6423 7.03716 29.7873 7.25005C29.9324 7.46293 29.9896 7.72358 29.9473 7.97766C29.9049 8.23174 29.7661 8.45967 29.5598 8.61394L21.101 14.4014C20.9926 14.4756 20.8706 14.5276 20.7421 14.5546C20.6136 14.5816 20.481 14.583 20.3519 14.5587C20.2228 14.5345 20.0998 14.485 19.9898 14.4132C19.8799 14.3414 19.7851 14.2486 19.711 14.1402L19.716 14.1414ZM29.8248 24.7752C29.7507 24.8836 29.6559 24.9764 29.546 25.0482C29.436 25.12 29.313 25.1695 29.1839 25.1937C29.0548 25.218 28.9222 25.2166 28.7937 25.1896C28.6651 25.1626 28.5432 25.1106 28.4348 25.0364L16.9998 17.2114L11.6848 20.8477C12.0897 21.8774 12.101 23.0202 11.7167 24.0578C11.3323 25.0954 10.5791 25.9549 9.601 26.4723C8.62292 26.9897 7.48851 27.1285 6.41451 26.8624C5.34052 26.5962 4.40223 25.9437 3.7789 25.0295C3.15558 24.1153 2.89093 23.0035 3.03551 21.9065C3.18009 20.8095 3.72376 19.8042 4.56266 19.0827C5.40156 18.3613 6.47688 17.9741 7.58316 17.9953C8.68944 18.0165 9.74912 18.4446 10.5598 19.1977L15.2285 16.0002L10.556 12.8027C9.74537 13.5558 8.68569 13.9838 7.57941 14.005C6.47313 14.0262 5.39781 13.6391 4.55891 12.9176C3.72001 12.1961 3.17634 11.1909 3.03176 10.0939C2.88718 8.99687 3.15183 7.88506 3.77515 6.97085C4.39848 6.05665 5.33677 5.40413 6.41076 5.13799C7.48476 4.87184 8.61917 5.01071 9.59725 5.52807C10.5753 6.04543 11.3285 6.90501 11.7129 7.94257C12.0973 8.98014 12.0859 10.123 11.681 11.1527L29.556 23.3852C29.665 23.4587 29.7585 23.553 29.831 23.6627C29.9036 23.7724 29.9537 23.8953 29.9787 24.0244C30.0037 24.1536 30.0029 24.2863 29.9765 24.4151C29.9501 24.544 29.8985 24.6663 29.8248 24.7752ZM8.99976 22.5002C8.99976 22.2035 8.91179 21.9135 8.74697 21.6668C8.58215 21.4202 8.34788 21.2279 8.07379 21.1144C7.7997 21.0008 7.4981 20.9711 7.20713 21.029C6.91616 21.0869 6.64888 21.2297 6.4391 21.4395C6.22932 21.6493 6.08646 21.9166 6.02859 22.2076C5.97071 22.4985 6.00041 22.8001 6.11394 23.0742C6.22748 23.3483 6.41973 23.5826 6.66641 23.7474C6.91308 23.9122 7.20309 24.0002 7.49976 24.0002C7.89759 24.0002 8.27912 23.8422 8.56042 23.5608C8.84173 23.2795 8.99976 22.898 8.99976 22.5002ZM8.99976 9.50019C8.99976 9.20352 8.91179 8.91351 8.74697 8.66683C8.58215 8.42016 8.34788 8.2279 8.07379 8.11437C7.7997 8.00084 7.4981 7.97113 7.20713 8.02901C6.91616 8.08689 6.64888 8.22975 6.4391 8.43953C6.22932 8.64931 6.08646 8.91658 6.02859 9.20755C5.97071 9.49852 6.00041 9.80012 6.11394 10.0742C6.22748 10.3483 6.41973 10.5826 6.66641 10.7474C6.91308 10.9122 7.20309 11.0002 7.49976 11.0002C7.89759 11.0002 8.27912 10.8422 8.56042 10.5608C8.84173 10.2795 8.99976 9.89801 8.99976 9.50019Z" fill="#4A4A4F"/>
</svg>
