<svg width="32" height="32" viewBox="0 0 32 32" fill="none" xmlns="http://www.w3.org/2000/svg">
<path d="M26.5002 17C26.3527 17 26.2065 17.0075 26.0615 17.0212L24.7177 12.99L21.949 4.68375C21.8826 4.48463 21.7553 4.31145 21.585 4.18873C21.4147 4.06601 21.2101 3.99998 21.0002 4H17.0002C16.735 4 16.4807 4.10536 16.2931 4.29289C16.1056 4.48043 16.0002 4.73478 16.0002 5C16.0002 5.26522 16.1056 5.51957 16.2931 5.70711C16.4807 5.89464 16.735 6 17.0002 6H20.279L22.654 13.1088L16.5115 21H9.97148C9.84822 19.9011 9.32468 18.8861 8.50075 18.1486C7.67682 17.4111 6.6102 17.0028 5.50443 17.0016C4.39865 17.0004 3.33115 17.4064 2.50561 18.1421C1.68008 18.8777 1.15432 19.8916 1.02867 20.9902C0.903017 22.0889 1.18626 23.1953 1.82436 24.0984C2.46246 25.0015 3.41073 25.638 4.48822 25.8865C5.56571 26.135 6.69698 25.9781 7.66615 25.4457C8.63532 24.9133 9.37453 24.0427 9.74273 23H17.0002C17.1524 22.9999 17.3026 22.965 17.4393 22.8981C17.576 22.8312 17.6956 22.7339 17.789 22.6138L23.414 15.3888L24.164 17.655C23.2348 18.22 22.5417 19.1022 22.2128 20.1387C21.8838 21.1752 21.9413 22.2957 22.3746 23.293C22.8079 24.2904 23.5876 25.0971 24.5697 25.5641C25.5518 26.031 26.6697 26.1265 27.7167 25.8329C28.7638 25.5394 29.6691 24.8766 30.2653 23.9672C30.8615 23.0578 31.1082 21.9633 30.9598 20.886C30.8115 19.8088 30.2781 18.8217 29.4582 18.1073C28.6384 17.393 27.5876 16.9996 26.5002 17ZM5.50023 24C5.00578 24 4.52243 23.8534 4.1113 23.5787C3.70018 23.304 3.37975 22.9135 3.19053 22.4567C3.00131 21.9999 2.9518 21.4972 3.04827 21.0123C3.14473 20.5273 3.38283 20.0819 3.73246 19.7322C4.08209 19.3826 4.52755 19.1445 5.0125 19.048C5.49746 18.9516 6.00012 19.0011 6.45694 19.1903C6.91375 19.3795 7.3042 19.7 7.5789 20.1111C7.85361 20.5222 8.00023 21.0055 8.00023 21.5C8.00023 21.8283 7.93556 22.1534 7.80993 22.4567C7.68429 22.76 7.50014 23.0356 7.268 23.2678C7.03585 23.4999 6.76025 23.6841 6.45694 23.8097C6.15362 23.9353 5.82853 24 5.50023 24ZM26.5002 24C26.0058 24 25.5224 23.8534 25.1113 23.5787C24.7002 23.304 24.3797 22.9135 24.1905 22.4567C24.0013 21.9999 23.9518 21.4972 24.0483 21.0123C24.1447 20.5273 24.3828 20.0819 24.7325 19.7322C25.0821 19.3826 25.5275 19.1445 26.0125 19.048C26.4975 18.9516 27.0001 19.0011 27.4569 19.1903C27.9138 19.3795 28.3042 19.7 28.5789 20.1111C28.8536 20.5222 29.0002 21.0055 29.0002 21.5C29.0002 21.8283 28.9356 22.1534 28.8099 22.4567C28.6843 22.76 28.5001 23.0356 28.268 23.2678C28.0358 23.4999 27.7603 23.6841 27.4569 23.8097C27.1536 23.9353 26.8285 24 26.5002 24Z" fill="#4A4A4F"/>
</svg>
