<svg width="32" height="32" viewBox="0 0 32 32" fill="none" xmlns="http://www.w3.org/2000/svg">
<path d="M16 16C17.0922 16.0048 18.1765 16.1855 19.2113 16.535C18.945 19.3587 17.1663 22 14 22C12.025 22 10.9925 20.6437 10.9925 19.3025C10.9925 18.4788 11.3675 17.7088 12.0625 17.1338C12.9525 16.3925 14.315 16 16 16ZM28 6V26C28 26.5304 27.7893 27.0391 27.4142 27.4142C27.0391 27.7893 26.5304 28 26 28H6C5.46957 28 4.96086 27.7893 4.58579 27.4142C4.21071 27.0391 4 26.5304 4 26V6C4 5.46957 4.21071 4.96086 4.58579 4.58579C4.96086 4.21071 5.46957 4 6 4H26C26.5304 4 27.0391 4.21071 27.4142 4.58579C27.7893 4.96086 28 5.46957 28 6ZM25.7362 18.3237C24.4397 17.0047 22.9107 15.9364 21.2262 15.1725C21.1138 13.3787 20.5075 11.73 19.49 10.4788C18.1725 8.8575 16.2738 8 14 8C9.555 8 6.335 12.22 6.2 12.4C6.04054 12.612 5.97183 12.8787 6.00898 13.1413C6.04614 13.404 6.18612 13.6412 6.39813 13.8006C6.61013 13.9601 6.8768 14.0288 7.13947 13.9916C7.40214 13.9545 7.63929 13.8145 7.79875 13.6025C7.82625 13.5662 10.5638 10 14 10C15.675 10 17 10.585 17.9375 11.74C18.5493 12.519 18.9566 13.4385 19.1225 14.415C18.1042 14.1411 17.0545 14.0016 16 14C13.8412 14 12.0363 14.5525 10.7825 15.5975C9.625 16.5588 8.9925 17.875 8.9925 19.3025C8.9925 21.58 10.75 24 14 24C15.051 24.0118 16.0902 23.7781 17.0348 23.3173C17.9795 22.8566 18.8035 22.1817 19.4412 21.3463C20.3272 20.1798 20.9061 18.8096 21.125 17.3612C22.2804 17.974 23.3389 18.7541 24.2663 19.6763C24.354 19.7767 24.461 19.8586 24.5809 19.9171C24.7008 19.9756 24.8313 20.0095 24.9645 20.0169C25.0977 20.0242 25.231 20.0048 25.3566 19.9598C25.4822 19.9148 25.5976 19.8451 25.6958 19.7548C25.7941 19.6646 25.8733 19.5556 25.9288 19.4343C25.9843 19.3129 26.0149 19.1817 26.0189 19.0483C26.0229 18.915 26.0002 18.7822 25.9521 18.6577C25.904 18.5333 25.8314 18.4197 25.7388 18.3237H25.7362Z" fill="#4A4A4F"/>
</svg>
