<svg width="32" height="32" viewBox="0 0 32 32" fill="none" xmlns="http://www.w3.org/2000/svg">
<path d="M12 13C12 12.7348 12.1054 12.4804 12.2929 12.2929C12.4804 12.1054 12.7348 12 13 12H21C21.2652 12 21.5196 12.1054 21.7071 12.2929C21.8946 12.4804 22 12.7348 22 13C22 13.2652 21.8946 13.5196 21.7071 13.7071C21.5196 13.8946 21.2652 14 21 14H13C12.7348 14 12.4804 13.8946 12.2929 13.7071C12.1054 13.5196 12 13.2652 12 13ZM13 18H21C21.2652 18 21.5196 17.8946 21.7071 17.7071C21.8946 17.5196 22 17.2652 22 17C22 16.7348 21.8946 16.4804 21.7071 16.2929C21.5196 16.1054 21.2652 16 21 16H13C12.7348 16 12.4804 16.1054 12.2929 16.2929C12.1054 16.4804 12 16.7348 12 17C12 17.2652 12.1054 17.5196 12.2929 17.7071C12.4804 17.8946 12.7348 18 13 18ZM29 24C29 25.0609 28.5786 26.0783 27.8284 26.8284C27.0783 27.5786 26.0609 28 25 28H11C9.93913 28 8.92172 27.5786 8.17157 26.8284C7.42143 26.0783 7 25.0609 7 24V8C7 7.46957 6.78929 6.96086 6.41421 6.58579C6.03914 6.21071 5.53043 6 5 6C4.46957 6 3.96086 6.21071 3.58579 6.58579C3.21071 6.96086 3 7.46957 3 8C3 8.7175 3.60375 9.2025 3.61 9.2075C3.7755 9.33486 3.89698 9.51084 3.95738 9.71075C4.01779 9.91066 4.01409 10.1245 3.94681 10.3222C3.87953 10.5199 3.75205 10.6915 3.58224 10.8131C3.41244 10.9347 3.20883 11 3 11C2.78375 11.0004 2.57337 10.9297 2.40125 10.7987C2.25625 10.6925 1 9.70125 1 8C1 6.93913 1.42143 5.92172 2.17157 5.17157C2.92172 4.42143 3.93913 4 5 4H22C23.0609 4 24.0783 4.42143 24.8284 5.17157C25.5786 5.92172 26 6.93913 26 8V21H27C27.2164 21 27.4269 21.0702 27.6 21.2C27.75 21.3075 29 22.2987 29 24ZM12.0325 21.685C12.1008 21.4833 12.2312 21.3084 12.405 21.1854C12.5788 21.0623 12.7871 20.9974 13 21H24V8C24 7.46957 23.7893 6.96086 23.4142 6.58579C23.0391 6.21071 22.5304 6 22 6H8.46125C8.81492 6.60713 9.00086 7.29737 9 8V24C9 24.5304 9.21071 25.0391 9.58579 25.4142C9.96086 25.7893 10.4696 26 11 26C11.5304 26 12.0391 25.7893 12.4142 25.4142C12.7893 25.0391 13 24.5304 13 24C13 23.2825 12.3963 22.7975 12.39 22.7925C12.2196 22.6706 12.0928 22.4972 12.0285 22.2977C11.9641 22.0983 11.9655 21.8835 12.0325 21.685ZM27 24C26.9875 23.6295 26.8445 23.2753 26.5963 23H14.8462C14.9468 23.3238 14.9978 23.6609 14.9975 24C14.9985 24.7023 14.8134 25.3924 14.4613 26H25C25.5304 26 26.0391 25.7893 26.4142 25.4142C26.7893 25.0391 27 24.5304 27 24Z" fill="#4A4A4F"/>
</svg>
