<svg width="32" height="32" viewBox="0 0 32 32" fill="none" xmlns="http://www.w3.org/2000/svg">
<path d="M27.6 21.2C27.4269 21.0702 27.2164 21 27 21H26V8C26 6.93913 25.5786 5.92172 24.8284 5.17157C24.0783 4.42143 23.0609 4 22 4H5C3.93913 4 2.92172 4.42143 2.17157 5.17157C1.42143 5.92172 1 6.93913 1 8C1 9.70125 2.25625 10.6925 2.4 10.8C2.57262 10.9307 2.78347 11.001 3 11C3.20842 10.9994 3.41144 10.9338 3.58071 10.8122C3.74997 10.6906 3.87702 10.5191 3.94408 10.3218C4.01114 10.1244 4.01487 9.91109 3.95475 9.71153C3.89463 9.51198 3.77366 9.33619 3.60875 9.20875C3.60375 9.2025 3 8.7175 3 8C3 7.46957 3.21071 6.96086 3.58579 6.58579C3.96086 6.21071 4.46957 6 5 6C5.53043 6 6.03914 6.21071 6.41421 6.58579C6.78929 6.96086 7 7.46957 7 8V24C7 25.0609 7.42143 26.0783 8.17157 26.8284C8.92172 27.5786 9.93913 28 11 28H25C26.0609 28 27.0783 27.5786 27.8284 26.8284C28.5786 26.0783 29 25.0609 29 24C29 22.2987 27.75 21.3075 27.6 21.2ZM13 12H21C21.2652 12 21.5196 12.1054 21.7071 12.2929C21.8946 12.4804 22 12.7348 22 13C22 13.2652 21.8946 13.5196 21.7071 13.7071C21.5196 13.8946 21.2652 14 21 14H13C12.7348 14 12.4804 13.8946 12.2929 13.7071C12.1054 13.5196 12 13.2652 12 13C12 12.7348 12.1054 12.4804 12.2929 12.2929C12.4804 12.1054 12.7348 12 13 12ZM12 17C12 16.7348 12.1054 16.4804 12.2929 16.2929C12.4804 16.1054 12.7348 16 13 16H21C21.2652 16 21.5196 16.1054 21.7071 16.2929C21.8946 16.4804 22 16.7348 22 17C22 17.2652 21.8946 17.5196 21.7071 17.7071C21.5196 17.8946 21.2652 18 21 18H13C12.7348 18 12.4804 17.8946 12.2929 17.7071C12.1054 17.5196 12 17.2652 12 17ZM25 26H13.4637C13.8159 25.3924 14.001 24.7023 14 24C14.0002 23.6609 13.9493 23.3238 13.8488 23H26.5987C26.847 23.2753 26.99 23.6295 27.0025 24C27.0025 24.2629 26.9507 24.5231 26.85 24.7659C26.7494 25.0088 26.6018 25.2293 26.4158 25.4151C26.2298 25.6008 26.0091 25.7481 25.7661 25.8485C25.5232 25.9488 25.2629 26.0003 25 26Z" fill="#4A4A4F"/>
</svg>
