<svg width="32" height="32" viewBox="0 0 32 32" fill="none" xmlns="http://www.w3.org/2000/svg">
<path d="M26 4H6C5.46957 4 4.96086 4.21071 4.58579 4.58579C4.21071 4.96086 4 5.46957 4 6V26C4 26.5304 4.21071 27.0391 4.58579 27.4142C4.96086 27.7893 5.46957 28 6 28H26C26.5304 28 27.0391 27.7893 27.4142 27.4142C27.7893 27.0391 28 26.5304 28 26V6C28 5.46957 27.7893 4.96086 27.4142 4.58579C27.0391 4.21071 26.5304 4 26 4ZM19 7H23C23.5304 7 24.0391 7.21071 24.4142 7.58579C24.7893 7.96086 25 8.46957 25 9V13C25 13.2652 24.8946 13.5196 24.7071 13.7071C24.5196 13.8946 24.2652 14 24 14C23.7348 14 23.4804 13.8946 23.2929 13.7071C23.1054 13.5196 23 13.2652 23 13V9H19C18.7348 9 18.4804 8.89464 18.2929 8.70711C18.1054 8.51957 18 8.26522 18 8C18 7.73478 18.1054 7.48043 18.2929 7.29289C18.4804 7.10536 18.7348 7 19 7ZM13 25H9C8.46957 25 7.96086 24.7893 7.58579 24.4142C7.21071 24.0391 7 23.5304 7 23V19C7 18.7348 7.10536 18.4804 7.29289 18.2929C7.48043 18.1054 7.73478 18 8 18C8.26522 18 8.51957 18.1054 8.70711 18.2929C8.89464 18.4804 9 18.7348 9 19V23H13C13.2652 23 13.5196 23.1054 13.7071 23.2929C13.8946 23.4804 14 23.7348 14 24C14 24.2652 13.8946 24.5196 13.7071 24.7071C13.5196 24.8946 13.2652 25 13 25ZM25.7075 25.7075C25.6146 25.8005 25.5043 25.8742 25.3829 25.9246C25.2615 25.9749 25.1314 26.0008 25 26.0008C24.8686 26.0008 24.7385 25.9749 24.6171 25.9246C24.4957 25.8742 24.3854 25.8005 24.2925 25.7075L23.5863 25H19C18.7348 25 18.4804 24.8946 18.2929 24.7071C18.1054 24.5196 18 24.2652 18 24C18 23.7348 18.1054 23.4804 18.2929 23.2929C18.4804 23.1054 18.7348 23 19 23H21.5863L9 10.4137V13C9 13.2652 8.89464 13.5196 8.70711 13.7071C8.51957 13.8946 8.26522 14 8 14C7.73478 14 7.48043 13.8946 7.29289 13.7071C7.10536 13.5196 7 13.2652 7 13V8.41375L6.2925 7.7075C6.10486 7.51986 5.99944 7.26536 5.99944 7C5.99944 6.73464 6.10486 6.48014 6.2925 6.2925C6.48014 6.10486 6.73464 5.99944 7 5.99944C7.26536 5.99944 7.51986 6.10486 7.7075 6.2925L8.7075 7.2925L25.7075 24.2925C25.8005 24.3854 25.8742 24.4957 25.9246 24.6171C25.9749 24.7385 26.0008 24.8686 26.0008 25C26.0008 25.1314 25.9749 25.2615 25.9246 25.3829C25.8742 25.5043 25.8005 25.6146 25.7075 25.7075Z" fill="#4A4A4F"/>
</svg>
