<svg width="32" height="32" viewBox="0 0 32 32" fill="none" xmlns="http://www.w3.org/2000/svg">
<path d="M9 14H18V23H9V14ZM28 6V26C28 26.5304 27.7893 27.0391 27.4142 27.4142C27.0391 27.7893 26.5304 28 26 28H6C5.46957 28 4.96086 27.7893 4.58579 27.4142C4.21071 27.0391 4 26.5304 4 26V6C4 5.46957 4.21071 4.96086 4.58579 4.58579C4.96086 4.21071 5.46957 4 6 4H26C26.5304 4 27.0391 4.21071 27.4142 4.58579C27.7893 4.96086 28 5.46957 28 6ZM12 9C12 9.26522 12.1054 9.51957 12.2929 9.70711C12.4804 9.89464 12.7348 10 13 10C13.2652 10 13.5196 9.89464 13.7071 9.70711C13.8946 9.51957 14 9.26522 14 9H16C16.2652 9 16.5196 8.89464 16.7071 8.70711C16.8946 8.51957 17 8.26522 17 8C17 7.73478 16.8946 7.48043 16.7071 7.29289C16.5196 7.10536 16.2652 7 16 7H14C13.4696 7 12.9609 7.21071 12.5858 7.58579C12.2107 7.96086 12 8.46957 12 9ZM20 14C20 13.4696 19.7893 12.9609 19.4142 12.5858C19.0391 12.2107 18.5304 12 18 12H9C8.46957 12 7.96086 12.2107 7.58579 12.5858C7.21071 12.9609 7 13.4696 7 14V23C7 23.5304 7.21071 24.0391 7.58579 24.4142C7.96086 24.7893 8.46957 25 9 25H18C18.5304 25 19.0391 24.7893 19.4142 24.4142C19.7893 24.0391 20 23.5304 20 23V14ZM25 16C25 15.7348 24.8946 15.4804 24.7071 15.2929C24.5196 15.1054 24.2652 15 24 15C23.7348 15 23.4804 15.1054 23.2929 15.2929C23.1054 15.4804 23 15.7348 23 16V18C22.7348 18 22.4804 18.1054 22.2929 18.2929C22.1054 18.4804 22 18.7348 22 19C22 19.2652 22.1054 19.5196 22.2929 19.7071C22.4804 19.8946 22.7348 20 23 20C23.5304 20 24.0391 19.7893 24.4142 19.4142C24.7893 19.0391 25 18.5304 25 18V16ZM25 9C25 8.46957 24.7893 7.96086 24.4142 7.58579C24.0391 7.21071 23.5304 7 23 7H21C20.7348 7 20.4804 7.10536 20.2929 7.29289C20.1054 7.48043 20 7.73478 20 8C20 8.26522 20.1054 8.51957 20.2929 8.70711C20.4804 8.89464 20.7348 9 21 9H23V11C23 11.2652 23.1054 11.5196 23.2929 11.7071C23.4804 11.8946 23.7348 12 24 12C24.2652 12 24.5196 11.8946 24.7071 11.7071C24.8946 11.5196 25 11.2652 25 11V9Z" fill="#4A4A4F"/>
</svg>
