<svg width="32" height="32" viewBox="0 0 32 32" fill="none" xmlns="http://www.w3.org/2000/svg">
<path d="M28.7075 13.7073L22.7075 19.7073C22.5676 19.8473 22.3894 19.9427 22.1953 19.9813C22.0012 20.02 21.8 20.0002 21.6172 19.9244C21.4344 19.8487 21.2782 19.7204 21.1683 19.5558C21.0584 19.3912 20.9998 19.1977 21 18.9998V13.9998H20.625C18.1858 13.9991 15.8156 14.8092 13.8871 16.3026C11.9585 17.796 10.581 19.8881 9.97125 22.2498C9.90495 22.5067 9.73929 22.7268 9.51073 22.8616C9.28217 22.9964 9.00943 23.0349 8.7525 22.9686C8.49557 22.9023 8.27551 22.7366 8.14071 22.508C8.00592 22.2795 7.96745 22.0067 8.03375 21.7498C8.75327 18.958 10.3809 16.4847 12.6605 14.7196C14.94 12.9544 17.7419 11.9976 20.625 11.9998H21V6.99981C20.9998 6.80192 21.0584 6.60842 21.1683 6.44383C21.2782 6.27923 21.4344 6.15094 21.6172 6.07519C21.8 5.99944 22.0012 5.97963 22.1953 6.01828C22.3894 6.05693 22.5676 6.1523 22.7075 6.29231L28.7075 12.2923C28.8005 12.3852 28.8742 12.4955 28.9246 12.6169C28.9749 12.7383 29.0008 12.8684 29.0008 12.9998C29.0008 13.1312 28.9749 13.2614 28.9246 13.3828C28.8742 13.5041 28.8005 13.6144 28.7075 13.7073ZM24 25.9998H5V10.9998C5 10.7346 4.89464 10.4802 4.70711 10.2927C4.51957 10.1052 4.26522 9.99981 4 9.99981C3.73478 9.99981 3.48043 10.1052 3.29289 10.2927C3.10536 10.4802 3 10.7346 3 10.9998V25.9998C3 26.5302 3.21071 27.039 3.58579 27.414C3.96086 27.7891 4.46957 27.9998 5 27.9998H24C24.2652 27.9998 24.5196 27.8945 24.7071 27.7069C24.8946 27.5194 25 27.265 25 26.9998C25 26.7346 24.8946 26.4802 24.7071 26.2927C24.5196 26.1052 24.2652 25.9998 24 25.9998Z" fill="#4A4A4F"/>
</svg>
