<svg width="32" height="32" viewBox="0 0 32 32" fill="none" xmlns="http://www.w3.org/2000/svg">
<path d="M26.5001 24.9999C26.5002 25.6567 26.3565 26.3056 26.0791 26.9009C25.8017 27.4963 25.3974 28.0237 24.8945 28.4462C24.3915 28.8686 23.8022 29.1758 23.1679 29.3463C22.5336 29.5168 21.8697 29.5463 21.2228 29.4328C20.5758 29.3194 19.9616 29.0657 19.4231 28.6896C18.8847 28.3134 18.4351 27.824 18.1059 27.2556C17.7768 26.6872 17.5761 26.0537 17.5178 25.3995C17.4596 24.7453 17.5453 24.0862 17.7688 23.4686L11.1438 19.2124C10.5111 19.8331 9.70918 20.253 8.83866 20.4197C7.96814 20.5863 7.0678 20.4921 6.25059 20.149C5.43337 19.8059 4.73569 19.2291 4.24505 18.4909C3.75441 17.7528 3.49268 16.8862 3.49268 15.9999C3.49268 15.1136 3.75441 14.247 4.24505 13.5089C4.73569 12.7707 5.43337 12.1939 6.25059 11.8508C7.0678 11.5077 7.96814 11.4135 8.83866 11.5801C9.70918 11.7468 10.5111 12.1667 11.1438 12.7874L17.7688 8.5374C17.3895 7.49496 17.4075 6.34928 17.8195 5.31929C18.2315 4.2893 19.0085 3.44721 20.0021 2.95394C20.9957 2.46066 22.1363 2.35078 23.2058 2.64529C24.2753 2.93981 25.1988 3.61806 25.7998 4.55046C26.4009 5.48286 26.6373 6.60402 26.4639 7.69971C26.2905 8.79541 25.7195 9.78881 24.86 10.4901C24.0005 11.1914 22.9127 11.5514 21.8045 11.5013C20.6963 11.4512 19.6454 10.9946 18.8526 10.2186L12.2276 14.4749C12.5856 15.4643 12.5856 16.548 12.2276 17.5374L18.8526 21.7936C19.4851 21.1746 20.2862 20.7558 21.1555 20.5897C22.0248 20.4236 22.9238 20.5175 23.74 20.8597C24.5562 21.2019 25.2534 21.7772 25.7444 22.5136C26.2353 23.25 26.4982 24.1148 26.5001 24.9999Z" fill="#4A4A4F"/>
</svg>
