<svg width="32" height="32" viewBox="0 0 32 32" fill="none" xmlns="http://www.w3.org/2000/svg">
<path d="M25.125 6H22.4188L20.7075 4.2925C20.6146 4.19967 20.5042 4.12605 20.3829 4.07586C20.2615 4.02568 20.1314 3.9999 20 4H12C11.8686 3.9999 11.7385 4.02568 11.6172 4.07586C11.4958 4.12605 11.3854 4.19967 11.2925 4.2925L9.58125 6H6.875C6.37772 6 5.90081 6.19754 5.54917 6.54918C5.19754 6.90081 5 7.37772 5 7.875V27.125C5 27.6223 5.19754 28.0992 5.54917 28.4508C5.90081 28.8025 6.37772 29 6.875 29H14.5C14.6326 29 14.7598 28.9473 14.8536 28.8536C14.9473 28.7598 15 28.6326 15 28.5V14.0337C14.9968 13.7758 15.0913 13.5261 15.2645 13.3349C15.4376 13.1436 15.6767 13.0249 15.9338 13.0025C16.0705 12.9934 16.2077 13.0126 16.3368 13.0587C16.4659 13.1049 16.5841 13.1771 16.6841 13.2709C16.7841 13.3647 16.8637 13.478 16.9181 13.6039C16.9724 13.7297 17.0003 13.8654 17 14.0025V28.5C17 28.6326 17.0527 28.7598 17.1464 28.8536C17.2402 28.9473 17.3674 29 17.5 29H25.125C25.6223 29 26.0992 28.8025 26.4508 28.4508C26.8025 28.0992 27 27.6223 27 27.125V7.875C27 7.37772 26.8025 6.90081 26.4508 6.54918C26.0992 6.19754 25.6223 6 25.125 6ZM10.8175 14.385C10.7444 14.4451 10.6557 14.4832 10.5618 14.4949C10.4679 14.5066 10.3726 14.4914 10.287 14.4511C10.2013 14.4108 10.1289 14.347 10.0781 14.2671C10.0273 14.1873 10.0002 14.0946 10 14V8.41375L11.905 6.50875L14.8387 10.91L10.8175 14.385ZM22 14C22.0002 14.0951 21.9733 14.1884 21.9224 14.2688C21.8714 14.3491 21.7986 14.4133 21.7125 14.4537C21.6279 14.4946 21.5333 14.5102 21.44 14.4989C21.3468 14.4876 21.2587 14.4498 21.1863 14.39L17.1612 10.9125L20.095 6.51125L22 8.41375V14Z" fill="#4A4A4F"/>
</svg>
