<svg width="32" height="32" viewBox="0 0 32 32" fill="none" xmlns="http://www.w3.org/2000/svg">
<path d="M29.4238 10.5086L25.9051 13.5086L26.9588 17.9748C27.0331 18.2879 27.0134 18.6159 26.9022 18.9178C26.7911 19.2197 26.5933 19.4822 26.3338 19.6723C26.0714 19.8651 25.7579 19.9762 25.4326 19.9917C25.1074 20.0073 24.7847 19.9266 24.5051 19.7598L20.5051 17.3848L16.5051 19.7598C16.2254 19.9266 15.9028 20.0073 15.5775 19.9917C15.2522 19.9762 14.9388 19.8651 14.6763 19.6723C14.4169 19.4821 14.2193 19.2196 14.1082 18.9177C13.997 18.6158 13.9772 18.2879 14.0513 17.9748L15.1051 13.5086L11.5851 10.5086C11.3387 10.2983 11.1601 10.0199 11.0717 9.70834C10.9833 9.39679 10.989 9.06604 11.0882 8.75774C11.1874 8.44944 11.3755 8.17737 11.629 7.97577C11.8824 7.77418 12.1899 7.65207 12.5126 7.62483L17.1663 7.23108L18.9813 2.99983C19.1094 2.7032 19.3216 2.45055 19.5915 2.27306C19.8615 2.09556 20.1776 2.00098 20.5007 2.00098C20.8238 2.00098 21.1399 2.09556 21.4098 2.27306C21.6798 2.45055 21.892 2.7032 22.0201 2.99983L23.8351 7.23358L28.4876 7.62483C28.811 7.65022 29.1197 7.77097 29.3745 7.97182C29.6293 8.17268 29.8188 8.4446 29.919 8.75318C30.0193 9.06176 30.0257 9.39314 29.9376 9.70539C29.8494 10.0176 29.6706 10.2967 29.4238 10.5073V10.5086ZM10.7076 14.2923C10.6147 14.1994 10.5044 14.1256 10.383 14.0753C10.2616 14.0249 10.1315 13.999 10.0001 13.999C9.86865 13.999 9.73853 14.0249 9.61713 14.0753C9.49573 14.1256 9.38544 14.1994 9.29257 14.2923L2.29257 21.2923C2.10493 21.48 1.99951 21.7345 1.99951 21.9998C1.99951 22.2652 2.10493 22.5197 2.29257 22.7073C2.48021 22.895 2.7347 23.0004 3.00007 23.0004C3.26543 23.0004 3.51993 22.895 3.70757 22.7073L10.7076 15.7073C10.8005 15.6145 10.8743 15.5042 10.9246 15.3828C10.975 15.2614 11.0009 15.1312 11.0009 14.9998C11.0009 14.8684 10.975 14.7383 10.9246 14.6169C10.8743 14.4955 10.8005 14.3852 10.7076 14.2923ZM12.7076 21.2923C12.6147 21.1994 12.5044 21.1256 12.383 21.0753C12.2616 21.0249 12.1315 20.999 12.0001 20.999C11.8687 20.999 11.7385 21.0249 11.6171 21.0753C11.4957 21.1256 11.3854 21.1994 11.2926 21.2923L4.29257 28.2923C4.19966 28.3852 4.12596 28.4955 4.07567 28.6169C4.02539 28.7383 3.99951 28.8684 3.99951 28.9998C3.99951 29.1312 4.02539 29.2613 4.07567 29.3827C4.12596 29.5041 4.19966 29.6144 4.29257 29.7073C4.48021 29.895 4.7347 30.0004 5.00007 30.0004C5.13146 30.0004 5.26157 29.9745 5.38296 29.9242C5.50436 29.8739 5.61466 29.8002 5.70757 29.7073L12.7076 22.7073C12.8005 22.6145 12.8743 22.5042 12.9246 22.3828C12.975 22.2614 13.0009 22.1312 13.0009 21.9998C13.0009 21.8684 12.975 21.7383 12.9246 21.6169C12.8743 21.4955 12.8005 21.3852 12.7076 21.2923ZM20.2938 21.2923L13.2938 28.2923C13.1062 28.48 13.0008 28.7345 13.0008 28.9998C13.0008 29.2652 13.1062 29.5197 13.2938 29.7073C13.4815 29.895 13.736 30.0004 14.0013 30.0004C14.2667 30.0004 14.5212 29.895 14.7088 29.7073L21.7088 22.7073C21.8965 22.5199 22.0019 22.2655 22.0021 22.0003C22.0022 21.735 21.8969 21.4806 21.7094 21.293C21.522 21.1053 21.2676 20.9998 21.0024 20.9997C20.7371 20.9996 20.4827 21.1049 20.2951 21.2923H20.2938Z" fill="#4A4A4F"/>
</svg>
