<svg width="32" height="32" viewBox="0 0 32 32" fill="none" xmlns="http://www.w3.org/2000/svg">
<path d="M27.7675 7.35875C27.6736 7.24642 27.5562 7.15607 27.4236 7.09408C27.291 7.03209 27.1464 6.99998 27 7H6.835L6.22375 3.6425C6.14003 3.18167 5.89723 2.76484 5.53767 2.46468C5.17812 2.16452 4.72462 2.00007 4.25625 2H2C1.73478 2 1.48043 2.10536 1.29289 2.29289C1.10536 2.48043 1 2.73478 1 3C1 3.26522 1.10536 3.51957 1.29289 3.70711C1.48043 3.89464 1.73478 4 2 4H4.25L7.445 21.5362C7.53911 22.0563 7.76895 22.5423 8.11125 22.945C7.63881 23.3863 7.29781 23.9498 7.12607 24.573C6.95433 25.1962 6.95856 25.8549 7.13829 26.4759C7.31801 27.0968 7.66622 27.6559 8.14428 28.0911C8.62235 28.5263 9.2116 28.8205 9.8467 28.9412C10.4818 29.062 11.1379 29.0044 11.7423 28.775C12.3467 28.5456 12.8758 28.1533 13.2708 27.6416C13.6658 27.1299 13.9114 26.5187 13.9804 25.8759C14.0493 25.2332 13.9388 24.5838 13.6613 24H19.3388C19.115 24.4684 18.9993 24.981 19 25.5C19 26.1922 19.2053 26.8689 19.5899 27.4445C19.9744 28.0201 20.5211 28.4687 21.1606 28.7336C21.8001 28.9985 22.5039 29.0678 23.1828 28.9327C23.8617 28.7977 24.4854 28.4644 24.9749 27.9749C25.4644 27.4854 25.7977 26.8617 25.9327 26.1828C26.0678 25.5039 25.9985 24.8001 25.7336 24.1606C25.4687 23.5211 25.0201 22.9744 24.4445 22.5899C23.8689 22.2053 23.1922 22 22.5 22H10.3962C10.1621 22 9.93532 21.9177 9.75554 21.7677C9.57576 21.6176 9.45436 21.4092 9.4125 21.1787L9.01625 19H23.5163C24.2188 18.9999 24.8991 18.7532 25.4384 18.303C25.9777 17.8527 26.3419 17.2275 26.4675 16.5362L27.9875 8.17875C28.0132 8.0343 28.0069 7.88596 27.9688 7.74424C27.9308 7.60253 27.8621 7.47092 27.7675 7.35875ZM22.5 24C22.7967 24 23.0867 24.088 23.3334 24.2528C23.58 24.4176 23.7723 24.6519 23.8858 24.926C23.9993 25.2001 24.0291 25.5017 23.9712 25.7926C23.9133 26.0836 23.7704 26.3509 23.5607 26.5607C23.3509 26.7704 23.0836 26.9133 22.7926 26.9712C22.5017 27.0291 22.2001 26.9993 21.926 26.8858C21.6519 26.7723 21.4176 26.58 21.2528 26.3334C21.088 26.0867 21 25.7967 21 25.5C21 25.1022 21.158 24.7206 21.4393 24.4393C21.7206 24.158 22.1022 24 22.5 24ZM10.5 24C10.7967 24 11.0867 24.088 11.3334 24.2528C11.58 24.4176 11.7723 24.6519 11.8858 24.926C11.9994 25.2001 12.0291 25.5017 11.9712 25.7926C11.9133 26.0836 11.7704 26.3509 11.5607 26.5607C11.3509 26.7704 11.0836 26.9133 10.7926 26.9712C10.5017 27.0291 10.2001 26.9993 9.92597 26.8858C9.65189 26.7723 9.41762 26.58 9.2528 26.3334C9.08797 26.0867 9 25.7967 9 25.5C9 25.1022 9.15804 24.7206 9.43934 24.4393C9.72064 24.158 10.1022 24 10.5 24Z" fill="#4A4A4F"/>
</svg>
