<svg width="32" height="32" viewBox="0 0 32 32" fill="none" xmlns="http://www.w3.org/2000/svg">
<path d="M8 29.5C8 29.7967 7.91203 30.0867 7.7472 30.3334C7.58238 30.58 7.34811 30.7723 7.07403 30.8858C6.79994 30.9994 6.49834 31.0291 6.20737 30.9712C5.91639 30.9133 5.64912 30.7704 5.43934 30.5607C5.22956 30.3509 5.0867 30.0836 5.02882 29.7926C4.97094 29.5017 5.00065 29.2001 5.11418 28.926C5.22771 28.6519 5.41997 28.4176 5.66665 28.2528C5.91332 28.088 6.20333 28 6.5 28C6.89783 28 7.27936 28.158 7.56066 28.4394C7.84197 28.7207 8 29.1022 8 29.5ZM10.5 24C10.2033 24 9.91332 24.088 9.66665 24.2528C9.41997 24.4176 9.22771 24.6519 9.11418 24.926C9.00065 25.2001 8.97094 25.5017 9.02882 25.7926C9.0867 26.0836 9.22956 26.3509 9.43934 26.5607C9.64912 26.7704 9.91639 26.9133 10.2074 26.9712C10.4983 27.0291 10.7999 26.9994 11.074 26.8858C11.3481 26.7723 11.5824 26.58 11.7472 26.3334C11.912 26.0867 12 25.7967 12 25.5C12 25.1022 11.842 24.7207 11.5607 24.4394C11.2794 24.158 10.8978 24 10.5 24ZM2.5 24C2.20333 24 1.91332 24.088 1.66665 24.2528C1.41997 24.4176 1.22771 24.6519 1.11418 24.926C1.00065 25.2001 0.970945 25.5017 1.02882 25.7926C1.0867 26.0836 1.22956 26.3509 1.43934 26.5607C1.64912 26.7704 1.91639 26.9133 2.20737 26.9712C2.49834 27.0291 2.79994 26.9994 3.07403 26.8858C3.34811 26.7723 3.58238 26.58 3.74721 26.3334C3.91203 26.0867 4 25.7967 4 25.5C4 25.1022 3.84197 24.7207 3.56066 24.4394C3.27936 24.158 2.89783 24 2.5 24ZM6.5 20C6.20333 20 5.91332 20.088 5.66665 20.2528C5.41997 20.4176 5.22771 20.6519 5.11418 20.926C5.00065 21.2001 4.97094 21.5017 5.02882 21.7926C5.0867 22.0836 5.22956 22.3509 5.43934 22.5607C5.64912 22.7704 5.91639 22.9133 6.20737 22.9712C6.49834 23.0291 6.79994 22.9994 7.07403 22.8858C7.34811 22.7723 7.58238 22.58 7.7472 22.3334C7.91203 22.0867 8 21.7967 8 21.5C8 21.1022 7.84197 20.7207 7.56066 20.4394C7.27936 20.158 6.89783 20 6.5 20ZM31 4.00001H27.4137C27.151 3.99917 26.8907 4.05057 26.648 4.15121C26.4053 4.25185 26.185 4.39973 26 4.58626L22.5175 8.06751L6.6725 10.7738C6.30986 10.834 5.97083 10.993 5.69265 11.2333C5.41448 11.4736 5.20792 11.786 5.09567 12.136C4.98343 12.4861 4.96983 12.8603 5.05637 13.2176C5.14291 13.5749 5.32625 13.9014 5.58625 14.1613L17.8363 26.4113C18.0959 26.6709 18.422 26.8539 18.7789 26.9405C19.1357 27.027 19.5095 27.0137 19.8592 26.9018C20.209 26.79 20.5212 26.5841 20.7617 26.3066C21.0021 26.0292 21.1616 25.6908 21.2225 25.3288L23.9325 9.48251L27.4137 6.00001H31C31.2652 6.00001 31.5196 5.89465 31.7071 5.70712C31.8946 5.51958 32 5.26523 32 5.00001C32 4.73479 31.8946 4.48044 31.7071 4.2929C31.5196 4.10537 31.2652 4.00001 31 4.00001Z" fill="#4A4A4F"/>
</svg>
