<svg width="32" height="32" viewBox="0 0 32 32" fill="none" xmlns="http://www.w3.org/2000/svg">
<path d="M17 14.5C17 14.2033 17.088 13.9133 17.2528 13.6666C17.4176 13.42 17.6519 13.2277 17.926 13.1142C18.2001 13.0006 18.5017 12.9709 18.7926 13.0288C19.0836 13.0867 19.3509 13.2296 19.5607 13.4393C19.7704 13.6491 19.9133 13.9164 19.9712 14.2074C20.0291 14.4983 19.9993 14.7999 19.8858 15.074C19.7723 15.3481 19.58 15.5824 19.3334 15.7472C19.0867 15.912 18.7967 16 18.5 16C18.1022 16 17.7206 15.842 17.4393 15.5607C17.158 15.2794 17 14.8978 17 14.5ZM27.975 10.6725C27.8019 13.2011 26.6761 15.57 24.8248 17.3011C22.9736 19.0322 20.5346 19.9967 18 20H14C13.6022 20 13.2206 20.158 12.9393 20.4393C12.658 20.7206 12.5 21.1022 12.5 21.5C12.5 21.8978 12.658 22.2794 12.9393 22.5607C13.2206 22.842 13.6022 23 14 23H21C21.2652 23 21.5196 23.1054 21.7071 23.2929C21.8946 23.4804 22 23.7348 22 24C22 24.2652 21.8946 24.5196 21.7071 24.7071C21.5196 24.8946 21.2652 25 21 25H15V27H19C19.2652 27 19.5196 27.1054 19.7071 27.2929C19.8946 27.4804 20 27.7348 20 28C20 28.2652 19.8946 28.5196 19.7071 28.7071C19.5196 28.8946 19.2652 29 19 29H12C9.34784 29 6.8043 27.9464 4.92893 26.0711C3.05357 24.1957 2 21.6522 2 19C2 16.3478 3.05357 13.8043 4.92893 11.9289C6.8043 10.0536 9.34784 9 12 9H26.5C26.8978 9 27.2794 8.84196 27.5607 8.56066C27.842 8.27936 28 7.89782 28 7.5C28 7.10218 27.842 6.72064 27.5607 6.43934C27.2794 6.15804 26.8978 6 26.5 6H16C15.2044 6 14.4413 5.68393 13.8787 5.12132C13.3161 4.55871 13 3.79565 13 3C13 2.73478 13.1054 2.48043 13.2929 2.29289C13.4804 2.10536 13.7348 2 14 2C14.2652 2 14.5196 2.10536 14.7071 2.29289C14.8946 2.48043 15 2.73478 15 3C15 3.26522 15.1054 3.51957 15.2929 3.70711C15.4804 3.89464 15.7348 4 16 4H26.5C27.2964 4.00074 28.0688 4.2731 28.6896 4.77209C29.3103 5.27108 29.7423 5.96687 29.9142 6.74454C30.0862 7.52221 29.9877 8.33526 29.6351 9.04941C29.2825 9.76357 28.6969 10.3361 27.975 10.6725ZM6.35 24.6612L10.5025 21.695C10.5025 21.6313 10.5025 21.57 10.5025 21.5C10.5018 21.1841 10.5438 20.8696 10.6275 20.565L4.125 17.6087C3.89886 18.877 3.98362 20.1812 4.37201 21.4095C4.7604 22.6378 5.44084 23.7536 6.355 24.6612H6.35ZM11.225 23.6362L8.015 25.9325C9.22626 26.6328 10.6009 27.001 12 27H13V24.8538C12.2974 24.6425 11.6785 24.2168 11.23 23.6362H11.225ZM13 18.1462V11H12C10.4656 11.0017 8.96402 11.4442 7.67386 12.2747C6.3837 13.1053 5.35929 14.289 4.7225 15.685L11.7063 18.8587C12.0819 18.5319 12.523 18.289 13 18.1462ZM25.9375 11H15V18H18C19.9479 17.9976 21.8282 17.2857 23.2892 15.9973C24.7501 14.7089 25.6916 12.9323 25.9375 11Z" fill="#4A4A4F"/>
</svg>
