<svg width="32" height="32" viewBox="0 0 32 32" fill="none" xmlns="http://www.w3.org/2000/svg">
<path d="M27.0001 6.00007V11.0001C27.0001 11.2653 26.8947 11.5196 26.7072 11.7072C26.5196 11.8947 26.2653 12.0001 26.0001 12.0001C25.7349 12.0001 25.4805 11.8947 25.293 11.7072C25.1054 11.5196 25.0001 11.2653 25.0001 11.0001V8.41382L19.5351 13.8751C19.3438 14.0389 19.0977 14.1245 18.846 14.1148C18.5943 14.1051 18.3556 14.0007 18.1775 13.8226C17.9994 13.6445 17.8951 13.4058 17.8854 13.1541C17.8756 12.9024 17.9612 12.6564 18.1251 12.4651L23.5863 7.00007H21.0001C20.7349 7.00007 20.4805 6.89471 20.293 6.70717C20.1054 6.51964 20.0001 6.26528 20.0001 6.00007C20.0001 5.73485 20.1054 5.4805 20.293 5.29296C20.4805 5.10542 20.7349 5.00007 21.0001 5.00007H26.0001C26.2653 5.00007 26.5196 5.10542 26.7072 5.29296C26.8947 5.4805 27.0001 5.73485 27.0001 6.00007ZM26.0001 20.0001C25.7349 20.0001 25.4805 20.1054 25.293 20.293C25.1054 20.4805 25.0001 20.7349 25.0001 21.0001V23.5863L6.70757 5.29257C6.51993 5.10493 6.26543 4.99951 6.00007 4.99951C5.7347 4.99951 5.48021 5.10493 5.29257 5.29257C5.10493 5.48021 4.99951 5.7347 4.99951 6.00007C4.99951 6.26543 5.10493 6.51993 5.29257 6.70757L23.5863 25.0001H21.0001C20.7349 25.0001 20.4805 25.1054 20.293 25.293C20.1054 25.4805 20.0001 25.7349 20.0001 26.0001C20.0001 26.2653 20.1054 26.5196 20.293 26.7072C20.4805 26.8947 20.7349 27.0001 21.0001 27.0001H26.0001C26.2653 27.0001 26.5196 26.8947 26.7072 26.7072C26.8947 26.5196 27.0001 26.2653 27.0001 26.0001V21.0001C27.0001 20.7349 26.8947 20.4805 26.7072 20.293C26.5196 20.1054 26.2653 20.0001 26.0001 20.0001ZM12.4651 18.1251L5.29257 25.2926C5.10493 25.4802 4.99951 25.7347 4.99951 26.0001C4.99951 26.2654 5.10493 26.5199 5.29257 26.7076C5.48021 26.8952 5.7347 27.0006 6.00007 27.0006C6.26543 27.0006 6.51993 26.8952 6.70757 26.7076L13.8751 19.5351C14.0389 19.3438 14.1245 19.0977 14.1148 18.846C14.1051 18.5943 14.0007 18.3556 13.8226 18.1775C13.6445 17.9994 13.4058 17.8951 13.1541 17.8854C12.9024 17.8756 12.6564 17.9612 12.4651 18.1251Z" fill="#4A4A4F"/>
</svg>
