<svg width="32" height="32" viewBox="0 0 32 32" fill="none" xmlns="http://www.w3.org/2000/svg">
<path d="M29.7075 22.2923C29.8005 22.3852 29.8742 22.4955 29.9246 22.6169C29.9749 22.7383 30.0008 22.8684 30.0008 22.9998C30.0008 23.1312 29.9749 23.2614 29.9246 23.3828C29.8742 23.5042 29.8005 23.6144 29.7075 23.7073L26.7075 26.7073C26.5676 26.8473 26.3894 26.9427 26.1953 26.9813C26.0012 27.02 25.8 27.0002 25.6172 26.9244C25.4344 26.8487 25.2782 26.7204 25.1683 26.5558C25.0584 26.3912 24.9998 26.1977 25 25.9998V23.9998C23.5877 23.98 22.1998 23.6287 20.9482 22.9743C19.6965 22.3199 18.616 21.3807 17.7938 20.2323L12.5787 12.9323C11.9305 12.0261 11.0757 11.2875 10.0851 10.7775C9.0945 10.2675 7.99666 10.0009 6.8825 9.99981H4C3.73478 9.99981 3.48043 9.89445 3.29289 9.70692C3.10536 9.51938 3 9.26503 3 8.99981C3 8.73459 3.10536 8.48024 3.29289 8.2927C3.48043 8.10517 3.73478 7.99981 4 7.99981H6.8825C8.31486 8.001 9.72632 8.34348 10.9999 8.99888C12.2736 9.65428 13.3727 10.6037 14.2063 11.7686L19.4212 19.0686C20.0578 19.9587 20.8939 20.6874 21.8627 21.1964C22.8314 21.7054 23.9058 21.9806 25 21.9998V19.9998C24.9998 19.8019 25.0584 19.6084 25.1683 19.4438C25.2782 19.2792 25.4344 19.1509 25.6172 19.0752C25.8 18.9994 26.0012 18.9796 26.1953 19.0183C26.3894 19.0569 26.5676 19.1523 26.7075 19.2923L29.7075 22.2923ZM17.875 13.3748C17.9819 13.4511 18.1027 13.5057 18.2307 13.5353C18.3586 13.5649 18.4911 13.5691 18.6207 13.5475C18.7502 13.5259 18.8742 13.479 18.9856 13.4095C19.097 13.34 19.1937 13.2492 19.27 13.1423L19.42 12.9336C20.0564 12.0428 20.8926 11.3135 21.8616 10.804C22.8306 10.2946 23.9054 10.0191 25 9.99981V11.9998C24.9998 12.1977 25.0584 12.3912 25.1683 12.5558C25.2782 12.7204 25.4344 12.8487 25.6172 12.9244C25.8 13.0002 26.0012 13.02 26.1953 12.9813C26.3894 12.9427 26.5676 12.8473 26.7075 12.7073L29.7075 9.70731C29.8005 9.61444 29.8742 9.50415 29.9246 9.38275C29.9749 9.26135 30.0008 9.13123 30.0008 8.99981C30.0008 8.8684 29.9749 8.73827 29.9246 8.61687C29.8742 8.49547 29.8005 8.38518 29.7075 8.29231L26.7075 5.29231C26.5676 5.1523 26.3894 5.05693 26.1953 5.01828C26.0012 4.97963 25.8 4.99944 25.6172 5.07519C25.4344 5.15094 25.2782 5.27923 25.1683 5.44383C25.0584 5.60842 24.9998 5.80192 25 5.99981V7.99981C23.5877 8.01965 22.1998 8.37091 20.9482 9.0253C19.6965 9.67969 18.616 10.6189 17.7938 11.7673L17.6437 11.9761C17.5668 12.083 17.5117 12.204 17.4816 12.3323C17.4516 12.4606 17.4472 12.5935 17.4687 12.7235C17.4902 12.8535 17.5371 12.9779 17.6068 13.0897C17.6766 13.2015 17.7677 13.2984 17.875 13.3748ZM14.125 18.6248C14.0181 18.5485 13.8973 18.4939 13.7693 18.4643C13.6414 18.4347 13.5089 18.4305 13.3793 18.4521C13.2498 18.4737 13.1258 18.5206 13.0144 18.5901C12.903 18.6597 12.8063 18.7504 12.73 18.8573L12.58 19.0661C11.9318 19.9726 11.0768 20.7116 10.086 21.2218C9.09514 21.732 7.99698 21.9987 6.8825 21.9998H4C3.73478 21.9998 3.48043 22.1052 3.29289 22.2927C3.10536 22.4802 3 22.7346 3 22.9998C3 23.265 3.10536 23.5194 3.29289 23.7069C3.48043 23.8945 3.73478 23.9998 4 23.9998H6.8825C8.31486 23.9986 9.72632 23.6561 10.9999 23.0007C12.2736 22.3453 13.3727 21.3959 14.2063 20.2311L14.3562 20.0223C14.433 19.9154 14.488 19.7945 14.5179 19.6663C14.5479 19.5382 14.5522 19.4054 14.5307 19.2756C14.5092 19.1457 14.4623 19.0214 14.3927 18.9097C14.3231 18.7981 14.2321 18.7013 14.125 18.6248Z" fill="#4A4A4F"/>
</svg>
