<svg width="32" height="32" viewBox="0 0 32 32" fill="none" xmlns="http://www.w3.org/2000/svg">
<path d="M27.0001 6.00007V11.0001C27.0002 11.198 26.9417 11.3915 26.8318 11.556C26.7219 11.7206 26.5657 11.8489 26.3829 11.9247C26.2 12.0004 25.9988 12.0202 25.8048 11.9816C25.6107 11.9429 25.4324 11.8476 25.2926 11.7076L23.5001 9.91382L19.5351 13.8751C19.3438 14.0389 19.0977 14.1245 18.846 14.1148C18.5943 14.1051 18.3556 14.0007 18.1775 13.8226C17.9994 13.6445 17.8951 13.4058 17.8854 13.1541C17.8756 12.9024 17.9612 12.6564 18.1251 12.4651L22.0863 8.50007L20.2926 6.70757C20.1526 6.56771 20.0572 6.38946 20.0185 6.19537C19.9799 6.00129 19.9997 5.8001 20.0754 5.61728C20.1512 5.43445 20.2795 5.27822 20.4441 5.16835C20.6087 5.05848 20.8022 4.99991 21.0001 5.00007H26.0001C26.2653 5.00007 26.5196 5.10542 26.7072 5.29296C26.8947 5.4805 27.0001 5.73485 27.0001 6.00007ZM26.3826 20.0763C26.1999 20.0005 25.9988 19.9806 25.8048 20.0191C25.6107 20.0576 25.4325 20.1528 25.2926 20.2926L23.5001 22.0863L6.70757 5.29257C6.51993 5.10493 6.26543 4.99951 6.00007 4.99951C5.7347 4.99951 5.48021 5.10493 5.29257 5.29257C5.10493 5.48021 4.99951 5.7347 4.99951 6.00007C4.99951 6.26543 5.10493 6.51993 5.29257 6.70757L22.0863 23.5001L20.2926 25.2926C20.1526 25.4324 20.0572 25.6107 20.0185 25.8048C19.9799 25.9988 19.9997 26.2 20.0754 26.3829C20.1512 26.5657 20.2795 26.7219 20.4441 26.8318C20.6087 26.9417 20.8022 27.0002 21.0001 27.0001H26.0001C26.2653 27.0001 26.5196 26.8947 26.7072 26.7072C26.8947 26.5196 27.0001 26.2653 27.0001 26.0001V21.0001C27 20.8023 26.9413 20.609 26.8314 20.4445C26.7215 20.2801 26.5653 20.152 26.3826 20.0763ZM12.4651 18.1251L5.29257 25.2926C5.10493 25.4802 4.99951 25.7347 4.99951 26.0001C4.99951 26.2654 5.10493 26.5199 5.29257 26.7076C5.48021 26.8952 5.7347 27.0006 6.00007 27.0006C6.26543 27.0006 6.51993 26.8952 6.70757 26.7076L13.8751 19.5351C14.0389 19.3438 14.1245 19.0977 14.1148 18.846C14.1051 18.5943 14.0007 18.3556 13.8226 18.1775C13.6445 17.9994 13.4058 17.8951 13.1541 17.8854C12.9024 17.8756 12.6564 17.9612 12.4651 18.1251Z" fill="#4A4A4F"/>
</svg>
