<svg width="32" height="32" viewBox="0 0 32 32" fill="none" xmlns="http://www.w3.org/2000/svg">
<path d="M29.7075 22.2923C29.8005 22.3852 29.8742 22.4955 29.9246 22.6169C29.9749 22.7383 30.0008 22.8684 30.0008 22.9998C30.0008 23.1312 29.9749 23.2614 29.9246 23.3828C29.8742 23.5042 29.8005 23.6144 29.7075 23.7073L26.7075 26.7073C26.5676 26.8473 26.3894 26.9427 26.1953 26.9813C26.0012 27.02 25.8 27.0002 25.6172 26.9244C25.4344 26.8487 25.2782 26.7204 25.1683 26.5558C25.0584 26.3912 24.9998 26.1977 25 25.9998V23.9998H21.515C21.1971 23.9994 20.8838 23.9232 20.6012 23.7776C20.3186 23.6319 20.0748 23.421 19.89 23.1623L10.485 9.99981H4C3.73478 9.99981 3.48043 9.89445 3.29289 9.70692C3.10536 9.51938 3 9.26503 3 8.99981C3 8.73459 3.10536 8.48024 3.29289 8.2927C3.48043 8.10517 3.73478 7.99981 4 7.99981H10.485C10.8029 8.0002 11.1162 8.07638 11.3988 8.22203C11.6814 8.36768 11.9252 8.5786 12.11 8.83731L21.515 21.9998H25V19.9998C24.9998 19.8019 25.0584 19.6084 25.1683 19.4438C25.2782 19.2792 25.4344 19.1509 25.6172 19.0752C25.8 18.9994 26.0012 18.9796 26.1953 19.0183C26.3894 19.0569 26.5676 19.1523 26.7075 19.2923L29.7075 22.2923ZM17.875 13.3748C17.9819 13.4511 18.1027 13.5057 18.2307 13.5353C18.3586 13.5649 18.4911 13.5691 18.6207 13.5475C18.7502 13.5259 18.8742 13.479 18.9856 13.4095C19.097 13.34 19.1937 13.2492 19.27 13.1423L21.52 10.0023H25V11.9998C24.9998 12.1977 25.0584 12.3912 25.1683 12.5558C25.2782 12.7204 25.4344 12.8487 25.6172 12.9244C25.8 13.0002 26.0012 13.02 26.1953 12.9813C26.3894 12.9427 26.5676 12.8473 26.7075 12.7073L29.7075 9.70731C29.8005 9.61444 29.8742 9.50415 29.9246 9.38275C29.9749 9.26135 30.0008 9.13123 30.0008 8.99981C30.0008 8.8684 29.9749 8.73827 29.9246 8.61687C29.8742 8.49547 29.8005 8.38518 29.7075 8.29231L26.7075 5.29231C26.5676 5.1523 26.3894 5.05693 26.1953 5.01828C26.0012 4.97963 25.8 4.99944 25.6172 5.07519C25.4344 5.15094 25.2782 5.27923 25.1683 5.44383C25.0584 5.60842 24.9998 5.80192 25 5.99981V7.99981H21.515C21.1971 8.0002 20.8838 8.07638 20.6012 8.22203C20.3186 8.36768 20.0748 8.5786 19.89 8.83731L17.6437 11.9773C17.567 12.0842 17.512 12.2052 17.4821 12.3333C17.4521 12.4614 17.4478 12.5942 17.4693 12.7241C17.4908 12.8539 17.5377 12.9782 17.6073 13.0899C17.6769 13.2015 17.7679 13.2984 17.875 13.3748ZM14.125 18.6248C14.0181 18.5485 13.8973 18.4939 13.7693 18.4643C13.6414 18.4347 13.5089 18.4305 13.3793 18.4521C13.2498 18.4737 13.1258 18.5206 13.0144 18.5901C12.903 18.6597 12.8063 18.7504 12.73 18.8573L10.485 21.9998H4C3.73478 21.9998 3.48043 22.1052 3.29289 22.2927C3.10536 22.4802 3 22.7346 3 22.9998C3 23.265 3.10536 23.5194 3.29289 23.7069C3.48043 23.8945 3.73478 23.9998 4 23.9998H10.485C10.8029 23.9994 11.1162 23.9232 11.3988 23.7776C11.6814 23.6319 11.9252 23.421 12.11 23.1623L14.3538 20.0223C14.4307 19.9156 14.4858 19.7947 14.5159 19.6667C14.546 19.5386 14.5506 19.4059 14.5294 19.2761C14.5081 19.1463 14.4614 19.0219 14.3921 18.9102C14.3227 18.7984 14.2319 18.7014 14.125 18.6248Z" fill="#4A4A4F"/>
</svg>
