<svg width="32" height="32" viewBox="0 0 32 32" fill="none" xmlns="http://www.w3.org/2000/svg">
<path d="M23.0001 9V7H10.0814L16.7814 15.375C16.9234 15.5524 17.0008 15.7728 17.0008 16C17.0008 16.2272 16.9234 16.4476 16.7814 16.625L10.0814 25H23.0001V23C23.0001 22.7348 23.1055 22.4804 23.293 22.2929C23.4806 22.1054 23.7349 22 24.0001 22C24.2654 22 24.5197 22.1054 24.7072 22.2929C24.8948 22.4804 25.0001 22.7348 25.0001 23V26C25.0001 26.2652 24.8948 26.5196 24.7072 26.7071C24.5197 26.8946 24.2654 27 24.0001 27H8.00014C7.81168 27.0001 7.62703 26.947 7.46747 26.8467C7.3079 26.7465 7.17992 26.6031 7.09826 26.4333C7.0166 26.2635 6.9846 26.074 7.00595 25.8868C7.02729 25.6995 7.1011 25.5221 7.21889 25.375L14.7189 16L7.21889 6.625C7.1011 6.47789 7.02729 6.30049 7.00595 6.11325C6.9846 5.92601 7.0166 5.73655 7.09826 5.56671C7.17992 5.39686 7.3079 5.25355 7.46747 5.15328C7.62703 5.05302 7.81168 4.99988 8.00014 5H24.0001C24.2654 5 24.5197 5.10536 24.7072 5.29289C24.8948 5.48043 25.0001 5.73478 25.0001 6V9C25.0001 9.26522 24.8948 9.51957 24.7072 9.70711C24.5197 9.89464 24.2654 10 24.0001 10C23.7349 10 23.4806 9.89464 23.293 9.70711C23.1055 9.51957 23.0001 9.26522 23.0001 9Z" fill="#4A4A4F"/>
</svg>
