<svg width="32" height="32" viewBox="0 0 32 32" fill="none" xmlns="http://www.w3.org/2000/svg">
<path d="M25 3H7C6.46957 3 5.96086 3.21071 5.58579 3.58579C5.21071 3.96086 5 4.46957 5 5V27C5 27.5304 5.21071 28.0391 5.58579 28.4142C5.96086 28.7893 6.46957 29 7 29H25C25.5304 29 26.0391 28.7893 26.4142 28.4142C26.7893 28.0391 27 27.5304 27 27V5C27 4.46957 26.7893 3.96086 26.4142 3.58579C26.0391 3.21071 25.5304 3 25 3ZM23 11C23 11.2652 22.8946 11.5196 22.7071 11.7071C22.5196 11.8946 22.2652 12 22 12C21.7348 12 21.4804 11.8946 21.2929 11.7071C21.1054 11.5196 21 11.2652 21 11V9H12L16.8 15.4C16.9298 15.5731 17 15.7836 17 16C17 16.2164 16.9298 16.4269 16.8 16.6L12 23H21V21C21 20.7348 21.1054 20.4804 21.2929 20.2929C21.4804 20.1054 21.7348 20 22 20C22.2652 20 22.5196 20.1054 22.7071 20.2929C22.8946 20.4804 23 20.7348 23 21V24C23 24.2652 22.8946 24.5196 22.7071 24.7071C22.5196 24.8946 22.2652 25 22 25H10C9.81429 25 9.63225 24.9483 9.47427 24.8507C9.31629 24.753 9.18863 24.6133 9.10557 24.4472C9.02252 24.2811 8.98736 24.0952 9.00404 23.9102C9.02072 23.7252 9.08857 23.5486 9.2 23.4L14.75 16L9.2 8.6C9.08857 8.45143 9.02072 8.27477 9.00404 8.08981C8.98736 7.90484 9.02252 7.71889 9.10557 7.55279C9.18863 7.38668 9.31629 7.24698 9.47427 7.14935C9.63225 7.05171 9.81429 7 10 7H22C22.2652 7 22.5196 7.10536 22.7071 7.29289C22.8946 7.48043 23 7.73478 23 8V11Z" fill="#4A4A4F"/>
</svg>
