<svg width="32" height="32" viewBox="0 0 32 32" fill="none" xmlns="http://www.w3.org/2000/svg">
<path d="M30.75 14.6687L26.25 19.6688C26.1555 19.7738 26.0398 19.8577 25.9105 19.9148C25.7812 19.9719 25.6413 20.0009 25.5 20H17V28C17 28.2652 16.8946 28.5196 16.7071 28.7071C16.5196 28.8946 16.2652 29 16 29C15.7348 29 15.4804 28.8946 15.2929 28.7071C15.1054 28.5196 15 28.2652 15 28V20H5C4.46957 20 3.96086 19.7893 3.58579 19.4142C3.21071 19.0391 3 18.5304 3 18V10C3 9.46957 3.21071 8.96086 3.58579 8.58579C3.96086 8.21071 4.46957 8 5 8H15V4C15 3.73478 15.1054 3.48043 15.2929 3.29289C15.4804 3.10536 15.7348 3 16 3C16.2652 3 16.5196 3.10536 16.7071 3.29289C16.8946 3.48043 17 3.73478 17 4V8H25.5C25.6413 7.99908 25.7812 8.02813 25.9105 8.08523C26.0398 8.14232 26.1555 8.22617 26.25 8.33125L30.75 13.3313C30.9151 13.5148 31.0065 13.7531 31.0065 14C31.0065 14.2469 30.9151 14.4852 30.75 14.6687Z" fill="#4A4A4F"/>
</svg>
