<svg width="32" height="32" viewBox="0 0 32 32" fill="none" xmlns="http://www.w3.org/2000/svg">
<path d="M26.7075 10.2925L19.7075 3.2925C19.6146 3.19967 19.5042 3.12605 19.3829 3.07586C19.2615 3.02568 19.1314 2.9999 19 3H7C6.46957 3 5.96086 3.21071 5.58579 3.58579C5.21071 3.96086 5 4.46957 5 5V27C5 27.5304 5.21071 28.0391 5.58579 28.4142C5.96086 28.7893 6.46957 29 7 29H25C25.5304 29 26.0391 28.7893 26.4142 28.4142C26.7893 28.0391 27 27.5304 27 27V11C27.0001 10.8686 26.9743 10.7385 26.9241 10.6172C26.8739 10.4958 26.8003 10.3854 26.7075 10.2925ZM25 27H7V5H18.5863L25 11.4137V27ZM23 15V24C23 24.2652 22.8946 24.5196 22.7071 24.7071C22.5196 24.8946 22.2652 25 22 25H19.5C19.3674 25 19.2402 24.9473 19.1464 24.8536C19.0527 24.7598 19 24.6326 19 24.5V19C19.0003 18.8629 18.9724 18.7272 18.9181 18.6014C18.8637 18.4755 18.7841 18.3622 18.6841 18.2684C18.5841 18.1746 18.4659 18.1024 18.3368 18.0562C18.2077 18.0101 18.0705 17.9909 17.9338 18C17.6766 18.0221 17.4374 18.1407 17.2641 18.332C17.0909 18.5234 16.9965 18.7732 17 19.0312V24.5C17 24.6326 16.9473 24.7598 16.8536 24.8536C16.7598 24.9473 16.6326 25 16.5 25H15.5C15.3674 25 15.2402 24.9473 15.1464 24.8536C15.0527 24.7598 15 24.6326 15 24.5V19C15.0003 18.8629 14.9724 18.7272 14.9181 18.6014C14.8637 18.4755 14.7841 18.3622 14.6841 18.2684C14.5841 18.1746 14.4659 18.1024 14.3368 18.0562C14.2077 18.0101 14.0705 17.9909 13.9338 18C13.6766 18.0221 13.4374 18.1407 13.2641 18.332C13.0909 18.5234 12.9965 18.7732 13 19.0312V24.5C13 24.6326 12.9473 24.7598 12.8536 24.8536C12.7598 24.9473 12.6326 25 12.5 25H10C9.73478 25 9.48043 24.8946 9.29289 24.7071C9.10536 24.5196 9 24.2652 9 24V15C9 14.7348 9.10536 14.4804 9.29289 14.2929C9.48043 14.1054 9.73478 14 10 14H22C22.2652 14 22.5196 14.1054 22.7071 14.2929C22.8946 14.4804 23 14.7348 23 15Z" fill="#4A4A4F"/>
</svg>
