<svg width="32" height="32" viewBox="0 0 32 32" fill="none" xmlns="http://www.w3.org/2000/svg">
<path d="M30.7502 12.3413L23.7502 4.34125C23.6566 4.23435 23.5413 4.14863 23.412 4.08979C23.2826 4.03094 23.1423 4.00034 23.0002 4H9.00019C8.85811 4.00034 8.71773 4.03094 8.58841 4.08979C8.45908 4.14863 8.34378 4.23435 8.25019 4.34125L1.25019 12.3413C1.08689 12.5277 0.998641 12.7681 1.00257 13.016C1.00649 13.2638 1.10231 13.5013 1.27144 13.6825L15.2714 28.6825C15.365 28.7828 15.4782 28.8628 15.604 28.9175C15.7298 28.9722 15.8655 29.0004 16.0027 29.0004C16.1399 29.0004 16.2756 28.9722 16.4014 28.9175C16.5272 28.8628 16.6404 28.7828 16.7339 28.6825L30.7339 13.6825C30.9024 13.5007 30.9973 13.2628 31.0003 13.015C31.0033 12.7672 30.9142 12.5271 30.7502 12.3413ZM27.7964 12H22.5002L18.0002 6H22.5464L27.7964 12ZM9.32269 14L13.0889 23.4163L4.30144 14H9.32269ZM22.6777 14H27.6989L18.9114 23.4163L22.6777 14ZM9.45394 6H14.0002L9.50019 12H4.20394L9.45394 6Z" fill="#4A4A4F"/>
</svg>
