<svg width="32" height="32" viewBox="0 0 32 32" fill="none" xmlns="http://www.w3.org/2000/svg">
<path d="M26 5.985V26.015C25.9963 26.3696 25.8983 26.7168 25.7162 27.0211C25.5341 27.3254 25.2743 27.5757 24.9636 27.7466C24.6528 27.9174 24.3023 28.0025 23.9478 27.9932C23.5933 27.984 23.2476 27.8806 22.9463 27.6938L8 18.3463V27C8 27.2652 7.89464 27.5196 7.70711 27.7071C7.51957 27.8946 7.26522 28 7 28C6.73478 28 6.48043 27.8946 6.29289 27.7071C6.10536 27.5196 6 27.2652 6 27V5C6 4.73478 6.10536 4.48043 6.29289 4.29289C6.48043 4.10536 6.73478 4 7 4C7.26522 4 7.51957 4.10536 7.70711 4.29289C7.89464 4.48043 8 4.73478 8 5V13.6538L22.9463 4.30625C23.2472 4.1173 23.5933 4.01224 23.9485 4.00194C24.3038 3.99165 24.6553 4.0765 24.9667 4.2477C25.2782 4.41891 25.5382 4.67025 25.7199 4.9757C25.9015 5.28115 25.9982 5.62961 26 5.985Z" fill="#4A4A4F"/>
</svg>
