<svg width="32" height="32" viewBox="0 0 32 32" fill="none" xmlns="http://www.w3.org/2000/svg">
<path d="M16 3C13.4288 3 10.9154 3.76244 8.77759 5.1909C6.63975 6.61935 4.97351 8.64968 3.98957 11.0251C3.00563 13.4006 2.74819 16.0144 3.2498 18.5362C3.75141 21.0579 4.98953 23.3743 6.80762 25.1924C8.6257 27.0105 10.9421 28.2486 13.4638 28.7502C15.9856 29.2518 18.5995 28.9944 20.9749 28.0104C23.3503 27.0265 25.3807 25.3603 26.8091 23.2224C28.2376 21.0846 29 18.5712 29 16C28.9964 12.5533 27.6256 9.24882 25.1884 6.81163C22.7512 4.37445 19.4467 3.00364 16 3ZM21 21C21 21.1837 20.9494 21.3639 20.8537 21.5208C20.758 21.6776 20.621 21.8051 20.4576 21.8892C20.2942 21.9733 20.1108 22.0107 19.9276 21.9974C19.7443 21.9841 19.5683 21.9205 19.4188 21.8137L13 17.2288V21C13 21.2652 12.8946 21.5196 12.7071 21.7071C12.5196 21.8946 12.2652 22 12 22C11.7348 22 11.4804 21.8946 11.2929 21.7071C11.1054 21.5196 11 21.2652 11 21V11C11 10.7348 11.1054 10.4804 11.2929 10.2929C11.4804 10.1054 11.7348 10 12 10C12.2652 10 12.5196 10.1054 12.7071 10.2929C12.8946 10.4804 13 10.7348 13 11V14.7712L19.4188 10.1862C19.5683 10.0795 19.7443 10.0159 19.9276 10.0026C20.1108 9.98929 20.2942 10.0267 20.4576 10.1108C20.621 10.1949 20.758 10.3224 20.8537 10.4792C20.9494 10.6361 21 10.8163 21 11V21Z" fill="#4A4A4F"/>
</svg>
