<svg width="32" height="32" viewBox="0 0 32 32" fill="none" xmlns="http://www.w3.org/2000/svg">
<path d="M16 3C13.4288 3 10.9154 3.76244 8.77759 5.1909C6.63975 6.61935 4.97351 8.64968 3.98957 11.0251C3.00563 13.4006 2.74819 16.0144 3.2498 18.5362C3.75141 21.0579 4.98953 23.3743 6.80762 25.1924C8.6257 27.0105 10.9421 28.2486 13.4638 28.7502C15.9856 29.2518 18.5995 28.9944 20.9749 28.0104C23.3503 27.0265 25.3807 25.3603 26.8091 23.2224C28.2376 21.0846 29 18.5712 29 16C28.9964 12.5533 27.6256 9.24882 25.1884 6.81163C22.7512 4.37445 19.4467 3.00364 16 3ZM21 21C21 21.2652 20.8946 21.5196 20.7071 21.7071C20.5196 21.8946 20.2652 22 20 22C19.7348 22 19.4804 21.8946 19.2929 21.7071C19.1054 21.5196 19 21.2652 19 21V17.2288L12.5813 21.8137C12.4317 21.9205 12.2557 21.9841 12.0724 21.9974C11.8892 22.0107 11.7058 21.9733 11.5424 21.8892C11.379 21.8051 11.242 21.6776 11.1463 21.5208C11.0506 21.3639 11 21.1837 11 21V11C11 10.8163 11.0506 10.6361 11.1463 10.4792C11.242 10.3224 11.379 10.1949 11.5424 10.1108C11.7058 10.0267 11.8892 9.98929 12.0724 10.0026C12.2557 10.0159 12.4317 10.0795 12.5813 10.1862L19 14.7712V11C19 10.7348 19.1054 10.4804 19.2929 10.2929C19.4804 10.1054 19.7348 10 20 10C20.2652 10 20.5196 10.1054 20.7071 10.2929C20.8946 10.4804 21 10.7348 21 11V21Z" fill="#4A4A4F"/>
</svg>
