<svg width="32" height="32" viewBox="0 0 32 32" fill="none" xmlns="http://www.w3.org/2000/svg">
<path d="M24.9762 4.25015C24.6639 4.07706 24.3109 3.99076 23.9539 4.00021C23.5969 4.00966 23.249 4.11452 22.9463 4.3039L8 13.6539V5.00015C8 4.73493 7.89464 4.48058 7.70711 4.29304C7.51957 4.1055 7.26522 4.00015 7 4.00015C6.73478 4.00015 6.48043 4.1055 6.29289 4.29304C6.10536 4.48058 6 4.73493 6 5.00015V27.0001C6 27.2654 6.10536 27.5197 6.29289 27.7073C6.48043 27.8948 6.73478 28.0001 7 28.0001C7.26522 28.0001 7.51957 27.8948 7.70711 27.7073C7.89464 27.5197 8 27.2654 8 27.0001V18.3464L22.9463 27.6939C23.2472 27.8829 23.5933 27.9879 23.9485 27.9982C24.3038 28.0085 24.6553 27.9237 24.9667 27.7524C25.2782 27.5812 25.5382 27.3299 25.7199 27.0244C25.9015 26.719 25.9982 26.3705 26 26.0151V5.98515C26 5.63086 25.905 5.28305 25.7249 4.97792C25.5449 4.67279 25.2864 4.42148 24.9762 4.25015ZM24 26.0001L8.02 16.0001L24 6.0089V26.0001Z" fill="#4A4A4F"/>
</svg>
