<svg width="32" height="32" viewBox="0 0 32 32" fill="none" xmlns="http://www.w3.org/2000/svg">
<path d="M11.5 13C10.8078 13 10.1311 13.2053 9.5555 13.5899C8.97993 13.9744 8.53133 14.5211 8.26642 15.1606C8.00151 15.8001 7.9322 16.5039 8.06725 17.1828C8.2023 17.8617 8.53564 18.4854 9.02513 18.9749C9.51461 19.4644 10.1382 19.7977 10.8172 19.9327C11.4961 20.0678 12.1999 19.9985 12.8394 19.7336C13.4789 19.4687 14.0256 19.0201 14.4101 18.4445C14.7947 17.8689 15 17.1922 15 16.5C15 15.5717 14.6313 14.6815 13.9749 14.0251C13.3185 13.3687 12.4283 13 11.5 13ZM11.5 18C11.2033 18 10.9133 17.912 10.6666 17.7472C10.42 17.5824 10.2277 17.3481 10.1142 17.074C10.0006 16.7999 9.97094 16.4983 10.0288 16.2074C10.0867 15.9164 10.2296 15.6491 10.4393 15.4393C10.6491 15.2296 10.9164 15.0867 11.2074 15.0288C11.4983 14.9709 11.7999 15.0006 12.074 15.1142C12.3481 15.2277 12.5824 15.42 12.7472 15.6666C12.912 15.9133 13 16.2033 13 16.5C13 16.8978 12.842 17.2794 12.5607 17.5607C12.2794 17.842 11.8978 18 11.5 18ZM20.5 13C19.8078 13 19.1311 13.2053 18.5555 13.5899C17.9799 13.9744 17.5313 14.5211 17.2664 15.1606C17.0015 15.8001 16.9322 16.5039 17.0673 17.1828C17.2023 17.8617 17.5356 18.4854 18.0251 18.9749C18.5146 19.4644 19.1383 19.7977 19.8172 19.9327C20.4961 20.0678 21.1999 19.9985 21.8394 19.7336C22.4789 19.4687 23.0256 19.0201 23.4101 18.4445C23.7947 17.8689 24 17.1922 24 16.5C24 15.5717 23.6313 14.6815 22.9749 14.0251C22.3185 13.3687 21.4283 13 20.5 13ZM20.5 18C20.2033 18 19.9133 17.912 19.6666 17.7472C19.42 17.5824 19.2277 17.3481 19.1142 17.074C19.0007 16.7999 18.9709 16.4983 19.0288 16.2074C19.0867 15.9164 19.2296 15.6491 19.4393 15.4393C19.6491 15.2296 19.9164 15.0867 20.2074 15.0288C20.4983 14.9709 20.7999 15.0006 21.074 15.1142C21.3481 15.2277 21.5824 15.42 21.7472 15.6666C21.912 15.9133 22 16.2033 22 16.5C22 16.8978 21.842 17.2794 21.5607 17.5607C21.2794 17.842 20.8978 18 20.5 18ZM16 2C8.83125 2 3 7.6075 3 14.5C3 18.7625 5.28375 22.75 9 25.035V27C9 27.5304 9.21071 28.0391 9.58579 28.4142C9.96086 28.7893 10.4696 29 11 29H21C21.5304 29 22.0391 28.7893 22.4142 28.4142C22.7893 28.0391 23 27.5304 23 27V25.035C26.7162 22.75 29 18.7625 29 14.5C29 7.6075 23.1688 2 16 2ZM21.515 23.5863C21.3589 23.6728 21.2288 23.7997 21.1382 23.9535C21.0476 24.1074 20.9999 24.2827 21 24.4613V27H19V24C19 23.7348 18.8946 23.4804 18.7071 23.2929C18.5196 23.1054 18.2652 23 18 23C17.7348 23 17.4804 23.1054 17.2929 23.2929C17.1054 23.4804 17 23.7348 17 24V27H15V24C15 23.7348 14.8946 23.4804 14.7071 23.2929C14.5196 23.1054 14.2652 23 14 23C13.7348 23 13.4804 23.1054 13.2929 23.2929C13.1054 23.4804 13 23.7348 13 24V27H11V24.4613C11.0001 24.2827 10.9524 24.1074 10.8618 23.9535C10.7712 23.7997 10.6411 23.6728 10.485 23.5863C7.10125 21.7113 5 18.23 5 14.5C5 8.71 9.935 4 16 4C22.065 4 27 8.71 27 14.5C27 18.2288 24.8988 21.7113 21.515 23.5863Z" fill="#4A4A4F"/>
</svg>
