<svg width="32" height="32" viewBox="0 0 32 32" fill="none" xmlns="http://www.w3.org/2000/svg">
<path d="M27.6411 15.9999C28.3783 15.3422 28.8459 14.435 28.9541 13.4531C29.0622 12.4712 28.8031 11.4839 28.2268 10.6816C27.6505 9.87929 26.7976 9.31861 25.8326 9.10758C24.8675 8.89655 23.8585 9.0501 22.9999 9.53865V6.9999C22.999 6.1878 22.7509 5.39521 22.2886 4.72751C21.8264 4.05981 21.1718 3.54864 20.412 3.26194C19.6522 2.97525 18.8231 2.92662 18.035 3.12252C17.2469 3.31842 16.5371 3.74957 15.9999 4.35865C15.3422 3.62154 14.435 3.15387 13.4531 3.04574C12.4712 2.9376 11.4839 3.19665 10.6816 3.77298C9.87929 4.34931 9.31861 5.20215 9.10758 6.16721C8.89655 7.13227 9.0501 8.14129 9.53865 8.9999H6.9999C6.1878 9.00081 5.39521 9.24889 4.72751 9.71116C4.05981 10.1734 3.54864 10.828 3.26194 11.5878C2.97525 12.3476 2.92662 13.1767 3.12252 13.9648C3.31842 14.7529 3.74957 15.4627 4.35865 15.9999C3.62154 16.6576 3.15387 17.5648 3.04574 18.5467C2.9376 19.5286 3.19665 20.5158 3.77298 21.3182C4.34931 22.1205 5.20215 22.6812 6.16721 22.8922C7.13227 23.1032 8.14129 22.9497 8.9999 22.4611V24.9999C9.00081 25.812 9.24889 26.6046 9.71116 27.2723C10.1734 27.94 10.828 28.4512 11.5878 28.7379C12.3476 29.0245 13.1767 29.0732 13.9648 28.8773C14.7529 28.6814 15.4627 28.2502 15.9999 27.6411C16.6576 28.3783 17.5648 28.8459 18.5467 28.9541C19.5286 29.0622 20.5158 28.8031 21.3182 28.2268C22.1205 27.6505 22.6812 26.7976 22.8922 25.8326C23.1032 24.8675 22.9497 23.8585 22.4611 22.9999H24.9999C25.812 22.999 26.6046 22.7509 27.2723 22.2886C27.94 21.8264 28.4512 21.1718 28.7379 20.412C29.0245 19.6522 29.0732 18.8231 28.8773 18.035C28.6814 17.2469 28.2502 16.5371 27.6411 15.9999ZM10.9999 6.9999C10.9999 6.46946 11.2106 5.96076 11.5857 5.58568C11.9608 5.21061 12.4695 4.9999 12.9999 4.9999C13.5303 4.9999 14.039 5.21061 14.4141 5.58568C14.7892 5.96076 14.9999 6.46946 14.9999 6.9999V8.9999H12.9999C12.4695 8.9999 11.9608 8.78918 11.5857 8.41411C11.2106 8.03904 10.9999 7.53033 10.9999 6.9999ZM4.9999 12.9999C4.9999 12.4695 5.21061 11.9608 5.58568 11.5857C5.96076 11.2106 6.46946 10.9999 6.9999 10.9999H12.9999C13.5303 10.9999 14.039 11.2106 14.4141 11.5857C14.7892 11.9608 14.9999 12.4695 14.9999 12.9999V14.9999H6.9999C6.46946 14.9999 5.96076 14.7892 5.58568 14.4141C5.21061 14.039 4.9999 13.5303 4.9999 12.9999ZM20.9999 24.9999C20.9999 25.5303 20.7892 26.039 20.4141 26.4141C20.039 26.7892 19.5303 26.9999 18.9999 26.9999C18.4695 26.9999 17.9608 26.7892 17.5857 26.4141C17.2106 26.039 16.9999 25.5303 16.9999 24.9999V22.9999H18.9999C19.5303 22.9999 20.039 23.2106 20.4141 23.5857C20.7892 23.9608 20.9999 24.4695 20.9999 24.9999ZM24.9999 20.9999H18.9999C18.4695 20.9999 17.9608 20.7892 17.5857 20.4141C17.2106 20.039 16.9999 19.5303 16.9999 18.9999V16.9999H24.9999C25.5303 16.9999 26.039 17.2106 26.4141 17.5857C26.7892 17.9608 26.9999 18.4695 26.9999 18.9999C26.9999 19.5303 26.7892 20.039 26.4141 20.4141C26.039 20.7892 25.5303 20.9999 24.9999 20.9999Z" fill="#4A4A4F"/>
</svg>
