<svg width="32" height="32" viewBox="0 0 32 32" fill="none" xmlns="http://www.w3.org/2000/svg">
<path d="M10.4998 17C10.4997 17.7537 10.2564 18.4872 9.80593 19.0914C9.3555 19.6957 8.72205 20.1384 7.9998 20.3538V27C7.9998 27.2652 7.89444 27.5196 7.7069 27.7071C7.51937 27.8946 7.26501 28 6.9998 28C6.73458 28 6.48023 27.8946 6.29269 27.7071C6.10515 27.5196 5.9998 27.2652 5.9998 27V20.3538C5.27776 20.1382 4.64457 19.6954 4.19437 19.0912C3.74416 18.4869 3.50098 17.7535 3.50098 17C3.50098 16.2465 3.74416 15.5131 4.19437 14.9088C4.64457 14.3046 5.27776 13.8618 5.9998 13.6462V5C5.9998 4.73478 6.10515 4.48043 6.29269 4.29289C6.48023 4.10536 6.73458 4 6.9998 4C7.26501 4 7.51937 4.10536 7.7069 4.29289C7.89444 4.48043 7.9998 4.73478 7.9998 5V13.6462C8.72205 13.8616 9.3555 14.3043 9.80593 14.9086C10.2564 15.5128 10.4997 16.2463 10.4998 17ZM16.9998 7.64625V5C16.9998 4.73478 16.8944 4.48043 16.7069 4.29289C16.5194 4.10536 16.265 4 15.9998 4C15.7346 4 15.4802 4.10536 15.2927 4.29289C15.1052 4.48043 14.9998 4.73478 14.9998 5V7.64625C14.2778 7.86179 13.6446 8.30461 13.1944 8.90884C12.7442 9.51308 12.501 10.2465 12.501 11C12.501 11.7535 12.7442 12.4869 13.1944 13.0912C13.6446 13.6954 14.2778 14.1382 14.9998 14.3538V27C14.9998 27.2652 15.1052 27.5196 15.2927 27.7071C15.4802 27.8946 15.7346 28 15.9998 28C16.265 28 16.5194 27.8946 16.7069 27.7071C16.8944 27.5196 16.9998 27.2652 16.9998 27V14.3538C17.7218 14.1382 18.355 13.6954 18.8052 13.0912C19.2554 12.4869 19.4986 11.7535 19.4986 11C19.4986 10.2465 19.2554 9.51308 18.8052 8.90884C18.355 8.30461 17.7218 7.86179 16.9998 7.64625ZM25.9998 17.6462V5C25.9998 4.73478 25.8944 4.48043 25.7069 4.29289C25.5194 4.10536 25.265 4 24.9998 4C24.7346 4 24.4802 4.10536 24.2927 4.29289C24.1052 4.48043 23.9998 4.73478 23.9998 5V17.6462C23.2778 17.8618 22.6446 18.3046 22.1944 18.9088C21.7442 19.5131 21.501 20.2465 21.501 21C21.501 21.7535 21.7442 22.4869 22.1944 23.0912C22.6446 23.6954 23.2778 24.1382 23.9998 24.3538V27C23.9998 27.2652 24.1052 27.5196 24.2927 27.7071C24.4802 27.8946 24.7346 28 24.9998 28C25.265 28 25.5194 27.8946 25.7069 27.7071C25.8944 27.5196 25.9998 27.2652 25.9998 27V24.3538C26.7218 24.1382 27.355 23.6954 27.8052 23.0912C28.2554 22.4869 28.4986 21.7535 28.4986 21C28.4986 20.2465 28.2554 19.5131 27.8052 18.9088C27.355 18.3046 26.7218 17.8618 25.9998 17.6462Z" fill="#4A4A4F"/>
</svg>
