<svg width="32" height="32" viewBox="0 0 32 32" fill="none" xmlns="http://www.w3.org/2000/svg">
<path d="M24 6H8C7.46957 6 6.96086 6.21071 6.58579 6.58579C6.21071 6.96086 6 7.46957 6 8V24C6 24.5304 6.21071 25.0391 6.58579 25.4142C6.96086 25.7893 7.46957 26 8 26H24C24.5304 26 25.0391 25.7893 25.4142 25.4142C25.7893 25.0391 26 24.5304 26 24V8C26 7.46957 25.7893 6.96086 25.4142 6.58579C25.0391 6.21071 24.5304 6 24 6ZM24 24H8V8H24V24ZM30 7V25C30 25.2652 29.8946 25.5196 29.7071 25.7071C29.5196 25.8946 29.2652 26 29 26C28.7348 26 28.4804 25.8946 28.2929 25.7071C28.1054 25.5196 28 25.2652 28 25V7C28 6.73478 28.1054 6.48043 28.2929 6.29289C28.4804 6.10536 28.7348 6 29 6C29.2652 6 29.5196 6.10536 29.7071 6.29289C29.8946 6.48043 30 6.73478 30 7ZM4 7V25C4 25.2652 3.89464 25.5196 3.70711 25.7071C3.51957 25.8946 3.26522 26 3 26C2.73478 26 2.48043 25.8946 2.29289 25.7071C2.10536 25.5196 2 25.2652 2 25V7C2 6.73478 2.10536 6.48043 2.29289 6.29289C2.48043 6.10536 2.73478 6 3 6C3.26522 6 3.51957 6.10536 3.70711 6.29289C3.89464 6.48043 4 6.73478 4 7Z" fill="#4A4A4F"/>
</svg>
