<svg width="32" height="32" viewBox="0 0 32 32" fill="none" xmlns="http://www.w3.org/2000/svg">
<path d="M4 9.9998C4 9.73458 4.10536 9.48023 4.29289 9.29269C4.48043 9.10515 4.73478 8.9998 5 8.9998H9.64625C9.86179 8.27776 10.3046 7.64457 10.9088 7.19437C11.5131 6.74416 12.2465 6.50098 13 6.50098C13.7535 6.50098 14.4869 6.74416 15.0912 7.19437C15.6954 7.64457 16.1382 8.27776 16.3538 8.9998H27C27.2652 8.9998 27.5196 9.10515 27.7071 9.29269C27.8946 9.48023 28 9.73458 28 9.9998C28 10.265 27.8946 10.5194 27.7071 10.7069C27.5196 10.8944 27.2652 10.9998 27 10.9998H16.3538C16.1382 11.7218 15.6954 12.355 15.0912 12.8052C14.4869 13.2554 13.7535 13.4986 13 13.4986C12.2465 13.4986 11.5131 13.2554 10.9088 12.8052C10.3046 12.355 9.86179 11.7218 9.64625 10.9998H5C4.73478 10.9998 4.48043 10.8944 4.29289 10.7069C4.10536 10.5194 4 10.265 4 9.9998ZM27 20.9998H24.3538C24.1382 20.2778 23.6954 19.6446 23.0912 19.1944C22.4869 18.7442 21.7535 18.501 21 18.501C20.2465 18.501 19.5131 18.7442 18.9088 19.1944C18.3046 19.6446 17.8618 20.2778 17.6462 20.9998H5C4.73478 20.9998 4.48043 21.1052 4.29289 21.2927C4.10536 21.4802 4 21.7346 4 21.9998C4 22.265 4.10536 22.5194 4.29289 22.7069C4.48043 22.8944 4.73478 22.9998 5 22.9998H17.6462C17.8618 23.7218 18.3046 24.355 18.9088 24.8052C19.5131 25.2554 20.2465 25.4986 21 25.4986C21.7535 25.4986 22.4869 25.2554 23.0912 24.8052C23.6954 24.355 24.1382 23.7218 24.3538 22.9998H27C27.2652 22.9998 27.5196 22.8944 27.7071 22.7069C27.8946 22.5194 28 22.265 28 21.9998C28 21.7346 27.8946 21.4802 27.7071 21.2927C27.5196 21.1052 27.2652 20.9998 27 20.9998Z" fill="#4A4A4F"/>
</svg>
