<svg width="32" height="32" viewBox="0 0 32 32" fill="none" xmlns="http://www.w3.org/2000/svg">
<path d="M11.5 19C11.2033 19 10.9133 18.912 10.6667 18.7472C10.42 18.5824 10.2277 18.3481 10.1142 18.074C10.0007 17.7999 9.97095 17.4983 10.0288 17.2074C10.0867 16.9164 10.2296 16.6491 10.4393 16.4393C10.6491 16.2296 10.9164 16.0867 11.2074 16.0288C11.4983 15.9709 11.7999 16.0007 12.074 16.1142C12.3481 16.2277 12.5824 16.42 12.7472 16.6666C12.912 16.9133 13 17.2033 13 17.5C13 17.8978 12.842 18.2794 12.5607 18.5607C12.2794 18.842 11.8978 19 11.5 19ZM20.5 16C20.2033 16 19.9133 16.088 19.6667 16.2528C19.42 16.4176 19.2277 16.6519 19.1142 16.926C19.0007 17.2001 18.971 17.5017 19.0288 17.7926C19.0867 18.0836 19.2296 18.3509 19.4393 18.5607C19.6491 18.7704 19.9164 18.9133 20.2074 18.9712C20.4983 19.0291 20.7999 18.9993 21.074 18.8858C21.3481 18.7723 21.5824 18.58 21.7472 18.3334C21.912 18.0867 22 17.7967 22 17.5C22 17.1022 21.842 16.7206 21.5607 16.4393C21.2794 16.158 20.8978 16 20.5 16ZM29 16C29 18.5712 28.2376 21.0846 26.8091 23.2224C25.3807 25.3603 23.3503 27.0265 20.9749 28.0104C18.5995 28.9944 15.9856 29.2518 13.4638 28.7502C10.9421 28.2486 8.6257 27.0105 6.80762 25.1924C4.98953 23.3743 3.75141 21.0579 3.2498 18.5362C2.74819 16.0144 3.00563 13.4006 3.98957 11.0251C4.97351 8.64968 6.63975 6.61935 8.77759 5.1909C10.9154 3.76244 13.4288 3 16 3C19.4467 3.00364 22.7512 4.37445 25.1884 6.81163C27.6256 9.24882 28.9964 12.5533 29 16ZM27 16C27 13.8244 26.3549 11.6977 25.1462 9.88873C23.9375 8.07979 22.2195 6.66989 20.2095 5.83733C18.1995 5.00476 15.9878 4.78692 13.854 5.21136C11.7202 5.6358 9.76021 6.68345 8.22183 8.22183C6.68345 9.7602 5.63581 11.7202 5.21137 13.854C4.78693 15.9878 5.00477 18.1995 5.83733 20.2095C6.66989 22.2195 8.07979 23.9375 9.88873 25.1462C11.6977 26.3549 13.8244 27 16 27C18.9164 26.9967 21.7123 25.8367 23.7745 23.7745C25.8367 21.7123 26.9967 18.9164 27 16ZM21.445 10.1675L16 13.7987L10.555 10.1737C10.3342 10.0266 10.064 9.9731 9.80378 10.0251C9.54358 10.0772 9.3147 10.2305 9.16751 10.4513C9.02031 10.672 8.96685 10.9423 9.0189 11.2025C9.07094 11.4627 9.22421 11.6916 9.44501 11.8387L15.445 15.8387C15.6093 15.9484 15.8025 16.0069 16 16.0069C16.1976 16.0069 16.3907 15.9484 16.555 15.8387L22.555 11.8387C22.7758 11.6916 22.9291 11.4627 22.9811 11.2025C23.0332 10.9423 22.9797 10.672 22.8325 10.4513C22.6853 10.2305 22.4564 10.0772 22.1962 10.0251C21.936 9.9731 21.6658 10.0266 21.445 10.1737V10.1675ZM19.5538 22.1675C18.5 21.4662 17.4925 21 16 21C14.5075 21 13.5 21.4662 12.4463 22.1675C12.2305 22.3165 12.0819 22.5443 12.0325 22.8018C11.983 23.0593 12.0367 23.3259 12.1819 23.5442C12.3271 23.7625 12.5523 23.915 12.8089 23.969C13.0654 24.0229 13.3329 23.9739 13.5538 23.8325C14.3663 23.2925 15 23 16 23C17 23 17.6338 23.2925 18.4463 23.8325C18.5555 23.908 18.6787 23.9609 18.8087 23.9882C18.9386 24.0156 19.0727 24.0168 19.2031 23.9917C19.3335 23.9667 19.4576 23.9159 19.5682 23.8424C19.6788 23.7689 19.7736 23.6741 19.8472 23.5635C19.9207 23.4529 19.9715 23.3288 19.9966 23.1984C20.0216 23.068 20.0205 22.9339 19.9932 22.804C19.9658 22.674 19.9129 22.5508 19.8375 22.4415C19.762 22.3323 19.6656 22.2391 19.5538 22.1675Z" fill="#4A4A4F"/>
</svg>
