<svg width="32" height="32" viewBox="0 0 32 32" fill="none" xmlns="http://www.w3.org/2000/svg">
<path d="M16 3C13.4288 3 10.9154 3.76244 8.77759 5.1909C6.63975 6.61935 4.97351 8.64968 3.98957 11.0251C3.00563 13.4006 2.74819 16.0144 3.2498 18.5362C3.75141 21.0579 4.98953 23.3743 6.80762 25.1924C8.6257 27.0105 10.9421 28.2486 13.4638 28.7502C15.9856 29.2518 18.5995 28.9944 20.9749 28.0104C23.3503 27.0265 25.3807 25.3603 26.8091 23.2224C28.2376 21.0846 29 18.5712 29 16C28.9964 12.5533 27.6256 9.24882 25.1884 6.81163C22.7512 4.37445 19.4467 3.00364 16 3ZM10 17.5C10 17.2033 10.088 16.9133 10.2528 16.6666C10.4176 16.42 10.6519 16.2277 10.926 16.1142C11.2001 16.0007 11.5017 15.9709 11.7926 16.0288C12.0836 16.0867 12.3509 16.2296 12.5607 16.4393C12.7704 16.6491 12.9133 16.9164 12.9712 17.2074C13.0291 17.4983 12.9994 17.7999 12.8858 18.074C12.7723 18.3481 12.58 18.5824 12.3334 18.7472C12.0867 18.912 11.7967 19 11.5 19C11.1022 19 10.7206 18.842 10.4393 18.5607C10.158 18.2794 10 17.8978 10 17.5ZM19.8325 23.5537C19.6856 23.7745 19.4571 23.9279 19.1971 23.9802C18.9371 24.0324 18.6671 23.9793 18.4463 23.8325C17.6338 23.2925 17 23 16 23C15 23 14.3663 23.2925 13.5538 23.8325C13.3329 23.9739 13.0654 24.0229 12.8089 23.969C12.5523 23.915 12.3271 23.7625 12.1819 23.5442C12.0367 23.3259 11.983 23.0593 12.0325 22.8018C12.0819 22.5443 12.2305 22.3165 12.4463 22.1675C13.5 21.4662 14.5075 21 16 21C17.4925 21 18.5 21.4662 19.5538 22.1675C19.7745 22.3144 19.9279 22.5429 19.9802 22.8029C20.0324 23.0629 19.9793 23.3329 19.8325 23.5537ZM20.5 19C20.2033 19 19.9133 18.912 19.6667 18.7472C19.42 18.5824 19.2277 18.3481 19.1142 18.074C19.0007 17.7999 18.971 17.4983 19.0288 17.2074C19.0867 16.9164 19.2296 16.6491 19.4393 16.4393C19.6491 16.2296 19.9164 16.0867 20.2074 16.0288C20.4983 15.9709 20.7999 16.0007 21.074 16.1142C21.3481 16.2277 21.5824 16.42 21.7472 16.6666C21.912 16.9133 22 17.2033 22 17.5C22 17.8978 21.842 18.2794 21.5607 18.5607C21.2794 18.842 20.8978 19 20.5 19ZM22.555 11.8325L16.555 15.8325C16.3907 15.9421 16.1976 16.0007 16 16.0007C15.8025 16.0007 15.6093 15.9421 15.445 15.8325L9.44501 11.8325C9.33568 11.7596 9.24178 11.6659 9.16867 11.5567C9.09556 11.4476 9.04466 11.3251 9.0189 11.1962C8.99313 11.0674 8.99299 10.9347 9.01849 10.8058C9.04399 10.6769 9.09462 10.5543 9.16751 10.445C9.3147 10.2242 9.54358 10.0709 9.80378 10.0189C9.93262 9.99312 10.0653 9.99298 10.1942 10.0185C10.3231 10.044 10.4457 10.0946 10.555 10.1675L16 13.7987L21.445 10.1737C21.5543 10.1009 21.6769 10.0502 21.8058 10.0247C21.9347 9.99923 22.0674 9.99937 22.1962 10.0251C22.3251 10.0509 22.4476 10.1018 22.5567 10.1749C22.6659 10.248 22.7596 10.3419 22.8325 10.4513C22.9054 10.5606 22.956 10.6832 22.9815 10.8121C23.007 10.941 23.0069 11.0736 22.9811 11.2025C22.9553 11.3313 22.9045 11.4538 22.8313 11.563C22.7582 11.6722 22.6643 11.7659 22.555 11.8387V11.8325Z" fill="#4A4A4F"/>
</svg>
