<svg width="32" height="32" viewBox="0 0 32 32" fill="none" xmlns="http://www.w3.org/2000/svg">
<path d="M16 3C13.4288 3 10.9154 3.76244 8.77759 5.1909C6.63975 6.61935 4.97351 8.64968 3.98957 11.0251C3.00563 13.4006 2.74819 16.0144 3.2498 18.5362C3.75141 21.0579 4.98953 23.3743 6.80762 25.1924C8.6257 27.0105 10.9421 28.2486 13.4638 28.7502C15.9856 29.2518 18.5995 28.9944 20.9749 28.0104C23.3503 27.0265 25.3807 25.3603 26.8091 23.2224C28.2376 21.0846 29 18.5712 29 16C28.9964 12.5533 27.6256 9.24882 25.1884 6.81163C22.7512 4.37445 19.4467 3.00364 16 3ZM16 27C13.8244 27 11.6977 26.3549 9.88873 25.1462C8.07979 23.9375 6.66989 22.2195 5.83733 20.2095C5.00477 18.1995 4.78693 15.9878 5.21137 13.854C5.63581 11.7202 6.68345 9.7602 8.22183 8.22183C9.76021 6.68345 11.7202 5.6358 13.854 5.21136C15.9878 4.78692 18.1995 5.00476 20.2095 5.83733C22.2195 6.66989 23.9375 8.07979 25.1462 9.88873C26.3549 11.6977 27 13.8244 27 16C26.9967 18.9164 25.8367 21.7123 23.7745 23.7745C21.7123 25.8367 18.9164 26.9967 16 27ZM22.7075 20.2925C22.8004 20.3854 22.8741 20.4957 22.9244 20.6171C22.9747 20.7385 23.0006 20.8686 23.0006 21C23.0006 21.1314 22.9747 21.2615 22.9244 21.3829C22.8741 21.5043 22.8004 21.6146 22.7075 21.7075C22.6146 21.8004 22.5043 21.8741 22.3829 21.9244C22.2615 21.9747 22.1314 22.0006 22 22.0006C21.8686 22.0006 21.7385 21.9747 21.6171 21.9244C21.4957 21.8741 21.3854 21.8004 21.2925 21.7075L20 20.4137L18.7075 21.7075C18.6146 21.8005 18.5043 21.8742 18.3829 21.9246C18.2615 21.9749 18.1314 22.0008 18 22.0008C17.8686 22.0008 17.7385 21.9749 17.6171 21.9246C17.4957 21.8742 17.3854 21.8005 17.2925 21.7075L16 20.4137L14.7075 21.7075C14.6146 21.8005 14.5043 21.8742 14.3829 21.9246C14.2615 21.9749 14.1314 22.0008 14 22.0008C13.8686 22.0008 13.7385 21.9749 13.6171 21.9246C13.4957 21.8742 13.3854 21.8005 13.2925 21.7075L12 20.4137L10.7075 21.7075C10.5199 21.8951 10.2654 22.0006 10 22.0006C9.73464 22.0006 9.48015 21.8951 9.29251 21.7075C9.10486 21.5199 8.99945 21.2654 8.99945 21C8.99945 20.7346 9.10486 20.4801 9.29251 20.2925L11.2925 18.2925C11.3854 18.1995 11.4957 18.1258 11.6171 18.0754C11.7385 18.0251 11.8686 17.9992 12 17.9992C12.1314 17.9992 12.2615 18.0251 12.3829 18.0754C12.5043 18.1258 12.6146 18.1995 12.7075 18.2925L14 19.5863L15.2925 18.2925C15.3854 18.1995 15.4957 18.1258 15.6171 18.0754C15.7385 18.0251 15.8686 17.9992 16 17.9992C16.1314 17.9992 16.2615 18.0251 16.3829 18.0754C16.5043 18.1258 16.6146 18.1995 16.7075 18.2925L18 19.5863L19.2925 18.2925C19.3854 18.1995 19.4957 18.1258 19.6171 18.0754C19.7385 18.0251 19.8686 17.9992 20 17.9992C20.1314 17.9992 20.2615 18.0251 20.3829 18.0754C20.5043 18.1258 20.6146 18.1995 20.7075 18.2925L22.7075 20.2925ZM10 13.5C10 13.2033 10.088 12.9133 10.2528 12.6666C10.4176 12.42 10.6519 12.2277 10.926 12.1142C11.2001 12.0006 11.5017 11.9709 11.7926 12.0288C12.0836 12.0867 12.3509 12.2296 12.5607 12.4393C12.7704 12.6491 12.9133 12.9164 12.9712 13.2074C13.0291 13.4983 12.9994 13.7999 12.8858 14.074C12.7723 14.3481 12.58 14.5824 12.3334 14.7472C12.0867 14.912 11.7967 15 11.5 15C11.1022 15 10.7206 14.842 10.4393 14.5607C10.158 14.2794 10 13.8978 10 13.5ZM19 13.5C19 13.2033 19.088 12.9133 19.2528 12.6666C19.4176 12.42 19.6519 12.2277 19.926 12.1142C20.2001 12.0006 20.5017 11.9709 20.7926 12.0288C21.0836 12.0867 21.3509 12.2296 21.5607 12.4393C21.7704 12.6491 21.9133 12.9164 21.9712 13.2074C22.0291 13.4983 21.9994 13.7999 21.8858 14.074C21.7723 14.3481 21.58 14.5824 21.3334 14.7472C21.0867 14.912 20.7967 15 20.5 15C20.1022 15 19.7207 14.842 19.4393 14.5607C19.158 14.2794 19 13.8978 19 13.5Z" fill="#4A4A4F"/>
</svg>
