<svg width="32" height="32" viewBox="0 0 32 32" fill="none" xmlns="http://www.w3.org/2000/svg">
<path d="M16 3C13.4288 3 10.9154 3.76244 8.77759 5.1909C6.63975 6.61935 4.97351 8.64968 3.98957 11.0251C3.00563 13.4006 2.74819 16.0144 3.2498 18.5362C3.75141 21.0579 4.98953 23.3743 6.80762 25.1924C8.6257 27.0105 10.9421 28.2486 13.4638 28.7502C15.9856 29.2518 18.5995 28.9944 20.9749 28.0104C23.3503 27.0265 25.3807 25.3603 26.8091 23.2224C28.2376 21.0846 29 18.5712 29 16C28.9964 12.5533 27.6256 9.24882 25.1884 6.81163C22.7512 4.37445 19.4467 3.00364 16 3ZM16 27C13.8244 27 11.6977 26.3549 9.88873 25.1462C8.07979 23.9375 6.66989 22.2195 5.83733 20.2095C5.00477 18.1995 4.78693 15.9878 5.21137 13.854C5.63581 11.7202 6.68345 9.7602 8.22183 8.22183C9.76021 6.68345 11.7202 5.6358 13.854 5.21136C15.9878 4.78692 18.1995 5.00476 20.2095 5.83733C22.2195 6.66989 23.9375 8.07979 25.1462 9.88873C26.3549 11.6977 27 13.8244 27 16C26.9967 18.9164 25.8367 21.7123 23.7745 23.7745C21.7123 25.8367 18.9164 26.9967 16 27ZM23.7075 15.2925C23.8004 15.3854 23.8741 15.4957 23.9244 15.6171C23.9747 15.7385 24.0006 15.8686 24.0006 16C24.0006 16.1314 23.9747 16.2615 23.9244 16.3829C23.8741 16.5043 23.8004 16.6146 23.7075 16.7075C23.6146 16.8004 23.5043 16.8741 23.3829 16.9244C23.2615 16.9747 23.1314 17.0006 23 17.0006C22.8686 17.0006 22.7385 16.9747 22.6171 16.9244C22.4957 16.8741 22.3854 16.8004 22.2925 16.7075L21 15.4137L19.7075 16.7075C19.5199 16.8951 19.2654 17.0006 19 17.0006C18.7346 17.0006 18.4801 16.8951 18.2925 16.7075C18.1049 16.5199 17.9994 16.2654 17.9994 16C17.9994 15.7346 18.1049 15.4801 18.2925 15.2925L19.5863 14L18.2925 12.7075C18.1049 12.5199 17.9994 12.2654 17.9994 12C17.9994 11.7346 18.1049 11.4801 18.2925 11.2925C18.4801 11.1049 18.7346 10.9994 19 10.9994C19.2654 10.9994 19.5199 11.1049 19.7075 11.2925L21 12.5863L22.2925 11.2925C22.3854 11.1996 22.4957 11.1259 22.6171 11.0756C22.7385 11.0253 22.8686 10.9994 23 10.9994C23.1314 10.9994 23.2615 11.0253 23.3829 11.0756C23.5043 11.1259 23.6146 11.1996 23.7075 11.2925C23.8004 11.3854 23.8741 11.4957 23.9244 11.6171C23.9747 11.7385 24.0006 11.8686 24.0006 12C24.0006 12.1314 23.9747 12.2615 23.9244 12.3829C23.8741 12.5043 23.8004 12.6146 23.7075 12.7075L22.4138 14L23.7075 15.2925ZM13.7075 12.7075L12.4138 14L13.7075 15.2925C13.8951 15.4801 14.0006 15.7346 14.0006 16C14.0006 16.2654 13.8951 16.5199 13.7075 16.7075C13.5199 16.8951 13.2654 17.0006 13 17.0006C12.7346 17.0006 12.4801 16.8951 12.2925 16.7075L11 15.4137L9.70751 16.7075C9.51987 16.8951 9.26537 17.0006 9.00001 17.0006C8.73464 17.0006 8.48015 16.8951 8.29251 16.7075C8.10486 16.5199 7.99945 16.2654 7.99945 16C7.99945 15.7346 8.10486 15.4801 8.29251 15.2925L9.58626 14L8.29251 12.7075C8.10486 12.5199 7.99945 12.2654 7.99945 12C7.99945 11.7346 8.10486 11.4801 8.29251 11.2925C8.48015 11.1049 8.73464 10.9994 9.00001 10.9994C9.26537 10.9994 9.51987 11.1049 9.70751 11.2925L11 12.5863L12.2925 11.2925C12.4801 11.1049 12.7346 10.9994 13 10.9994C13.2654 10.9994 13.5199 11.1049 13.7075 11.2925C13.8951 11.4801 14.0006 11.7346 14.0006 12C14.0006 12.2654 13.8951 12.5199 13.7075 12.7075ZM17.5 22.5C17.5 22.7967 17.412 23.0867 17.2472 23.3334C17.0824 23.58 16.8481 23.7723 16.574 23.8858C16.2999 23.9993 15.9983 24.0291 15.7074 23.9712C15.4164 23.9133 15.1491 23.7704 14.9393 23.5607C14.7296 23.3509 14.5867 23.0836 14.5288 22.7926C14.471 22.5017 14.5007 22.2001 14.6142 21.926C14.7277 21.6519 14.92 21.4176 15.1667 21.2528C15.4133 21.088 15.7033 21 16 21C16.3978 21 16.7794 21.158 17.0607 21.4393C17.342 21.7206 17.5 22.1022 17.5 22.5Z" fill="#4A4A4F"/>
</svg>
