<svg width="32" height="32" viewBox="0 0 32 32" fill="none" xmlns="http://www.w3.org/2000/svg">
<path d="M15.9998 3C14.1302 3.00143 12.2828 3.40613 10.5838 4.18649C8.88479 4.96685 7.37409 6.1045 6.15477 7.52185C4.93545 8.93919 4.03619 10.6029 3.51835 12.3994C3.00051 14.1959 2.87627 16.083 3.15411 17.9319C3.43195 19.7807 4.10533 21.548 5.1283 23.1129C6.15128 24.6779 7.49979 26.0038 9.08183 27.0002C10.6639 27.9965 12.4422 28.6399 14.2955 28.8865C16.1489 29.133 18.0336 28.9769 19.8211 28.4287C19.9771 28.3808 20.1189 28.2949 20.2336 28.1787L28.1798 20.2325C28.2957 20.1171 28.3816 19.975 28.4298 19.8188C29.0249 17.8743 29.1559 15.8175 28.8124 13.8133C28.4689 11.8091 27.6604 9.91328 26.4518 8.27798C25.2433 6.64268 23.6682 5.31341 21.8531 4.39682C20.038 3.48023 18.0333 3.00183 15.9998 3ZM11.4998 12C11.7965 12 12.0865 12.088 12.3332 12.2528C12.5799 12.4176 12.7721 12.6519 12.8856 12.926C12.9992 13.2001 13.0289 13.5017 12.971 13.7926C12.9131 14.0836 12.7703 14.3509 12.5605 14.5607C12.3507 14.7704 12.0834 14.9133 11.7925 14.9712C11.5015 15.0291 11.1999 14.9994 10.9258 14.8858C10.6517 14.7723 10.4174 14.58 10.2526 14.3334C10.0878 14.0867 9.99983 13.7967 9.99983 13.5C9.99983 13.1022 10.1579 12.7206 10.4392 12.4393C10.7205 12.158 11.102 12 11.4998 12ZM21.8648 19.5C20.5786 21.7238 18.4411 23 15.9998 23C13.5586 23 11.4211 21.725 10.1348 19.5C10.0625 19.3862 10.0139 19.2589 9.992 19.1258C9.97011 18.9927 9.97537 18.8566 10.0075 18.7256C10.0395 18.5946 10.0978 18.4715 10.1787 18.3636C10.2596 18.2557 10.3615 18.1652 10.4783 18.0978C10.5951 18.0303 10.7243 17.9871 10.8582 17.9708C10.992 17.9546 11.1278 17.9655 11.2574 18.0031C11.3869 18.0407 11.5075 18.1041 11.6119 18.1895C11.7163 18.2749 11.8023 18.3805 11.8648 18.5C12.7986 20.1138 14.2661 21 15.9998 21C17.7336 21 19.2011 20.1125 20.1348 18.5C20.1973 18.3805 20.2834 18.2749 20.3878 18.1895C20.4922 18.1041 20.6128 18.0407 20.7423 18.0031C20.8718 17.9655 21.0076 17.9546 21.1415 17.9708C21.2754 17.9871 21.4046 18.0303 21.5214 18.0978C21.6381 18.1652 21.74 18.2557 21.8209 18.3636C21.9019 18.4715 21.9601 18.5946 21.9922 18.7256C22.0243 18.8566 22.0295 18.9927 22.0077 19.1258C21.9858 19.2589 21.9372 19.3862 21.8648 19.5ZM20.4998 15C20.2032 15 19.9131 14.912 19.6665 14.7472C19.4198 14.5824 19.2275 14.3481 19.114 14.074C19.0005 13.7999 18.9708 13.4983 19.0286 13.2074C19.0865 12.9164 19.2294 12.6491 19.4392 12.4393C19.6489 12.2296 19.9162 12.0867 20.2072 12.0288C20.4982 11.9709 20.7998 12.0006 21.0739 12.1142C21.3479 12.2277 21.5822 12.42 21.747 12.6666C21.9119 12.9133 21.9998 13.2033 21.9998 13.5C21.9998 13.8978 21.8418 14.2794 21.5605 14.5607C21.2792 14.842 20.8977 15 20.4998 15Z" fill="#4A4A4F"/>
</svg>
