<svg width="32" height="32" viewBox="0 0 32 32" fill="none" xmlns="http://www.w3.org/2000/svg">
<path d="M16 3C13.4288 3 10.9154 3.76244 8.77759 5.1909C6.63975 6.61935 4.97351 8.64968 3.98957 11.0251C3.00563 13.4006 2.74819 16.0144 3.2498 18.5362C3.75141 21.0579 4.98953 23.3743 6.80762 25.1924C8.6257 27.0105 10.9421 28.2486 13.4638 28.7502C15.9856 29.2518 18.5995 28.9944 20.9749 28.0104C23.3503 27.0265 25.3807 25.3603 26.8091 23.2224C28.2376 21.0846 29 18.5712 29 16C28.9964 12.5533 27.6256 9.24882 25.1884 6.81163C22.7512 4.37445 19.4467 3.00364 16 3ZM20.5 12C20.7967 12 21.0867 12.088 21.3334 12.2528C21.58 12.4176 21.7723 12.6519 21.8858 12.926C21.9994 13.2001 22.0291 13.5017 21.9712 13.7926C21.9133 14.0836 21.7704 14.3509 21.5607 14.5607C21.3509 14.7704 21.0836 14.9133 20.7926 14.9712C20.5017 15.0291 20.2001 14.9994 19.926 14.8858C19.6519 14.7723 19.4176 14.58 19.2528 14.3334C19.088 14.0867 19 13.7967 19 13.5C19 13.1022 19.158 12.7206 19.4393 12.4393C19.7207 12.158 20.1022 12 20.5 12ZM11.5 12C11.7967 12 12.0867 12.088 12.3334 12.2528C12.58 12.4176 12.7723 12.6519 12.8858 12.926C12.9994 13.2001 13.0291 13.5017 12.9712 13.7926C12.9133 14.0836 12.7704 14.3509 12.5607 14.5607C12.3509 14.7704 12.0836 14.9133 11.7926 14.9712C11.5017 15.0291 11.2001 14.9994 10.926 14.8858C10.6519 14.7723 10.4176 14.58 10.2528 14.3334C10.088 14.0867 10 13.7967 10 13.5C10 13.1022 10.158 12.7206 10.4393 12.4393C10.7206 12.158 11.1022 12 11.5 12ZM22.7075 21.7075C22.6146 21.8005 22.5043 21.8742 22.3829 21.9246C22.2615 21.9749 22.1314 22.0008 22 22.0008C21.8686 22.0008 21.7385 21.9749 21.6171 21.9246C21.4957 21.8742 21.3854 21.8005 21.2925 21.7075L20 20.4137L18.7075 21.7075C18.6146 21.8005 18.5043 21.8742 18.3829 21.9246C18.2615 21.9749 18.1314 22.0008 18 22.0008C17.8686 22.0008 17.7385 21.9749 17.6171 21.9246C17.4957 21.8742 17.3854 21.8005 17.2925 21.7075L16 20.4137L14.7075 21.7075C14.6146 21.8005 14.5043 21.8742 14.3829 21.9246C14.2615 21.9749 14.1314 22.0008 14 22.0008C13.8686 22.0008 13.7385 21.9749 13.6171 21.9246C13.4957 21.8742 13.3854 21.8005 13.2925 21.7075L12 20.4137L10.7075 21.7075C10.5199 21.8951 10.2654 22.0006 10 22.0006C9.73464 22.0006 9.48015 21.8951 9.29251 21.7075C9.10486 21.5199 8.99945 21.2654 8.99945 21C8.99945 20.7346 9.10486 20.4801 9.29251 20.2925L11.2925 18.2925C11.3854 18.1995 11.4957 18.1258 11.6171 18.0754C11.7385 18.0251 11.8686 17.9992 12 17.9992C12.1314 17.9992 12.2615 18.0251 12.3829 18.0754C12.5043 18.1258 12.6146 18.1995 12.7075 18.2925L14 19.5863L15.2925 18.2925C15.3854 18.1995 15.4957 18.1258 15.6171 18.0754C15.7385 18.0251 15.8686 17.9992 16 17.9992C16.1314 17.9992 16.2615 18.0251 16.3829 18.0754C16.5043 18.1258 16.6146 18.1995 16.7075 18.2925L18 19.5863L19.2925 18.2925C19.3854 18.1995 19.4957 18.1258 19.6171 18.0754C19.7385 18.0251 19.8686 17.9992 20 17.9992C20.1314 17.9992 20.2615 18.0251 20.3829 18.0754C20.5043 18.1258 20.6146 18.1995 20.7075 18.2925L22.7075 20.2925C22.8005 20.3854 22.8742 20.4957 22.9246 20.6171C22.9749 20.7385 23.0008 20.8686 23.0008 21C23.0008 21.1314 22.9749 21.2615 22.9246 21.3829C22.8742 21.5043 22.8005 21.6146 22.7075 21.7075Z" fill="#4A4A4F"/>
</svg>
