<svg width="32" height="32" viewBox="0 0 32 32" fill="none" xmlns="http://www.w3.org/2000/svg">
<path d="M32 25.051C31.9895 25.5735 31.7738 26.0708 31.3995 26.4354C31.0253 26.8001 30.5225 27.0028 30 26.9998H18.4137C17.8865 27.0008 17.3803 26.7927 17.0063 26.421L3.5975 13.4273L3.58625 13.416C3.21146 13.041 3.00093 12.5325 3.00093 12.0023C3.00093 11.4721 3.21146 10.9635 3.58625 10.5885L11.5863 2.57351L11.605 2.55601C11.9816 2.19322 12.4859 1.99334 13.0088 1.99966C13.5317 2.00597 14.031 2.21797 14.3988 2.58976L15.425 3.62476C15.7761 3.97633 15.9837 4.44599 16.0075 4.94226C16.1487 7.79601 18.1213 9.72476 21.1562 9.97476C21.6556 10.0176 22.1211 10.2449 22.462 10.6124C22.8029 10.9798 22.9947 11.4611 23 11.9623V13.4998C23 13.6324 22.9473 13.7595 22.8536 13.8533C22.7598 13.9471 22.6326 13.9998 22.5 13.9998H19C18.8629 13.9995 18.7272 14.0273 18.6014 14.0817C18.4755 14.136 18.3622 14.2157 18.2684 14.3157C18.1746 14.4157 18.1024 14.5339 18.0562 14.663C18.0101 14.792 17.9909 14.9292 18 15.066C18.0224 15.323 18.1411 15.5621 18.3323 15.7353C18.5236 15.9085 18.7733 16.0029 19.0312 15.9998H22.5312C22.6547 15.999 22.774 16.0439 22.8663 16.1258C22.9586 16.2077 23.0174 16.3209 23.0312 16.4435C23.0644 16.748 23.1332 17.0476 23.2362 17.336C23.2621 17.4112 23.2696 17.4914 23.2582 17.5701C23.2469 17.6487 23.2169 17.7236 23.1708 17.7883C23.1248 17.8531 23.0639 17.906 22.9933 17.9425C22.9228 17.9791 22.8445 17.9983 22.765 17.9985H20C19.8629 17.9982 19.7272 18.0261 19.6014 18.0804C19.4755 18.1348 19.3622 18.2144 19.2684 18.3144C19.1746 18.4144 19.1024 18.5326 19.0562 18.6617C19.0101 18.7908 18.9909 18.928 19 19.0648C19.0221 19.3219 19.1407 19.5612 19.332 19.7344C19.5234 19.9076 19.7732 20.002 20.0312 19.9985H27C27.6611 19.9985 28.3155 20.1295 28.9256 20.3841C29.5357 20.6386 30.0892 21.0116 30.5542 21.4815C31.0192 21.9514 31.3864 22.5088 31.6346 23.1215C31.8827 23.7342 32.0069 24.39 32 25.051ZM9 21.9998C9 21.7345 8.89464 21.4802 8.70711 21.2927C8.51957 21.1051 8.26522 20.9998 8 20.9998H4C3.73478 20.9998 3.48043 21.1051 3.29289 21.2927C3.10536 21.4802 3 21.7345 3 21.9998C3 22.265 3.10536 22.5193 3.29289 22.7069C3.48043 22.8944 3.73478 22.9998 4 22.9998H8C8.26522 22.9998 8.51957 22.8944 8.70711 22.7069C8.89464 22.5193 9 22.265 9 21.9998ZM12 24.9998H6C5.73478 24.9998 5.48043 25.1051 5.29289 25.2927C5.10536 25.4802 5 25.7345 5 25.9998C5 26.265 5.10536 26.5193 5.29289 26.7069C5.48043 26.8944 5.73478 26.9998 6 26.9998H12C12.2652 26.9998 12.5196 26.8944 12.7071 26.7069C12.8946 26.5193 13 26.265 13 25.9998C13 25.7345 12.8946 25.4802 12.7071 25.2927C12.5196 25.1051 12.2652 24.9998 12 24.9998Z" fill="#4A4A4F"/>
</svg>
