<svg width="32" height="32" viewBox="0 0 32 32" fill="none" xmlns="http://www.w3.org/2000/svg">
<path d="M28.5812 16.1388L25.0737 14.9701C24.9673 14.933 24.8515 14.933 24.745 14.9701L19.3412 16.9351C19.2321 16.9761 19.1166 16.9981 19 17.0001C18.781 16.9999 18.5682 16.928 18.3941 16.7952C18.22 16.6624 18.0943 16.4762 18.0362 16.265C17.9731 16.0174 18.0051 15.7552 18.1259 15.53C18.2467 15.3048 18.4475 15.1331 18.6887 15.0488L21 14.2088C21.0621 14.1864 21.1157 14.1452 21.1533 14.091C21.1909 14.0368 21.2107 13.9721 21.2098 13.9061C21.209 13.8401 21.1876 13.776 21.1487 13.7227C21.1097 13.6694 21.0551 13.6296 20.9925 13.6088C20.5828 13.472 20.2075 13.2482 19.8925 12.9526C19.8252 12.8863 19.7406 12.8405 19.6483 12.8203C19.5561 12.8002 19.46 12.8066 19.3713 12.8388L16.3438 13.9388C16.2141 13.9859 16.0761 14.0056 15.9384 13.9967C15.8008 13.9879 15.6665 13.9506 15.5439 13.8873C15.4213 13.8241 15.3132 13.7361 15.2262 13.629C15.1393 13.5219 15.0755 13.398 15.0387 13.2651C14.9756 13.0174 15.0076 12.7552 15.1284 12.53C15.2492 12.3048 15.4501 12.1331 15.6912 12.0488L18.25 11.1163C18.314 11.0931 18.3726 11.057 18.4222 11.0103C18.4718 10.9636 18.5113 10.9073 18.5383 10.8448C18.5653 10.7823 18.5793 10.715 18.5794 10.6469C18.5795 10.5788 18.5656 10.5114 18.5387 10.4488L18.1562 9.5538C18.1061 9.43604 18.0126 9.34201 17.8952 9.29108C17.7778 9.24015 17.6453 9.2362 17.525 9.28005L14.3375 10.4388C14.2078 10.4859 14.0698 10.5056 13.9322 10.4967C13.7945 10.4879 13.6602 10.4506 13.5376 10.3873C13.4151 10.3241 13.3069 10.2361 13.22 10.129C13.1331 10.0219 13.0692 9.89801 13.0325 9.76505C12.9694 9.51745 13.0014 9.25518 13.1222 9.03001C13.243 8.80485 13.4438 8.63315 13.685 8.5488L16.685 7.45755C16.7489 7.4343 16.8073 7.39828 16.8568 7.35169C16.9062 7.30509 16.9457 7.2489 16.9727 7.18655C16.9997 7.1242 17.0138 7.05699 17.0139 6.98903C17.0141 6.92107 17.0004 6.85379 16.9737 6.7913L16.2987 5.20005C16.2987 5.20005 16.2987 5.1913 16.2987 5.18755C16.0922 4.72416 15.7172 4.35661 15.2497 4.15934C14.7823 3.96206 14.2574 3.9498 13.7812 4.12505L4.31625 7.5613C3.93091 7.70244 3.59813 7.95834 3.36276 8.29451C3.1274 8.63068 3.00079 9.03093 3 9.4413V24.0001C3 24.5305 3.21071 25.0392 3.58579 25.4143C3.96086 25.7893 4.46957 26.0001 5 26.0001H30C30.5304 26.0001 31.0391 25.7893 31.4142 25.4143C31.7893 25.0392 32 24.5305 32 24.0001V20.8826C32.0001 19.8331 31.6699 18.8102 31.0564 17.9588C30.4428 17.1074 29.5768 16.4707 28.5812 16.1388ZM30 24.0001H5V22.0001H30V24.0001Z" fill="#4A4A4F"/>
</svg>
