<svg width="32" height="32" viewBox="0 0 32 32" fill="none" xmlns="http://www.w3.org/2000/svg">
<path d="M27.9712 18.7613C28.0026 18.8889 28.0085 19.0213 27.9887 19.1512C27.9689 19.281 27.9236 19.4057 27.8556 19.5181C27.7876 19.6304 27.6981 19.7283 27.5922 19.8061C27.4864 19.8838 27.3663 19.94 27.2387 19.9713L24.1587 20.7213L24.9662 23.7351C25.0002 23.862 25.0089 23.9943 24.9918 24.1246C24.9746 24.2548 24.932 24.3804 24.8663 24.4942C24.8006 24.6079 24.7131 24.7076 24.6088 24.7876C24.5046 24.8675 24.3856 24.9261 24.2587 24.9601C24.1745 24.9843 24.0876 24.9978 24 25.0001C23.78 24.9999 23.5662 24.9271 23.3917 24.7931C23.2173 24.6591 23.0919 24.4713 23.035 24.2588L22.07 20.6588L17 17.7326V23.5863L19.7075 26.2926C19.8004 26.3855 19.8741 26.4958 19.9243 26.6172C19.9746 26.7386 20.0005 26.8687 20.0005 27.0001C20.0005 27.1315 19.9746 27.2616 19.9243 27.383C19.8741 27.5044 19.8004 27.6147 19.7075 27.7076C19.6145 27.8005 19.5042 27.8742 19.3828 27.9245C19.2615 27.9747 19.1313 28.0006 19 28.0006C18.8686 28.0006 18.7384 27.9747 18.6171 27.9245C18.4957 27.8742 18.3854 27.8005 18.2925 27.7076L16 25.4138L13.7075 27.7076C13.6145 27.8005 13.5042 27.8742 13.3828 27.9245C13.2615 27.9747 13.1313 28.0006 13 28.0006C12.8686 28.0006 12.7384 27.9747 12.6171 27.9245C12.4957 27.8742 12.3854 27.8005 12.2925 27.7076C12.1995 27.6147 12.1258 27.5044 12.0756 27.383C12.0253 27.2616 11.9994 27.1315 11.9994 27.0001C11.9994 26.8687 12.0253 26.7386 12.0756 26.6172C12.1258 26.4958 12.1995 26.3855 12.2925 26.2926L15 23.5863V17.7326L9.9312 20.6588L8.9662 24.2588C8.90923 24.4715 8.78364 24.6595 8.60893 24.7935C8.43422 24.9275 8.22015 25.0001 7.99995 25.0001C7.9122 24.9999 7.82483 24.9886 7.73995 24.9663C7.61304 24.9324 7.49406 24.8738 7.38982 24.7938C7.28557 24.7139 7.19809 24.6142 7.13239 24.5004C7.06669 24.3866 7.02404 24.2611 7.0069 24.1308C6.98975 24.0006 6.99843 23.8682 7.03245 23.7413L7.83995 20.7276L4.75995 19.9776C4.50236 19.9142 4.28047 19.7512 4.1431 19.5243C4.00573 19.2974 3.96413 19.0252 4.02745 18.7676C4.09077 18.51 4.25383 18.2881 4.48075 18.1507C4.70767 18.0133 4.97986 17.9717 5.23745 18.0351L8.9187 18.9388L14 16.0001L8.91995 13.0676L5.2387 13.9713C5.1606 13.9907 5.08041 14.0003 4.99995 14.0001C4.75544 14.0002 4.51934 13.9108 4.33629 13.7487C4.15323 13.5866 4.03592 13.363 4.00652 13.1203C3.97712 12.8776 4.03767 12.6325 4.17673 12.4313C4.31579 12.2302 4.52372 12.087 4.7612 12.0288L7.8412 11.2788L7.0337 8.25882C6.96508 8.00255 7.00106 7.72952 7.13375 7.49979C7.26643 7.27006 7.48494 7.10244 7.7412 7.03382C7.99747 6.96519 8.2705 7.00118 8.50023 7.13386C8.72996 7.26654 8.89758 7.48505 8.9662 7.74132L9.9312 11.3413L15 14.2676V8.41382L12.2925 5.70757C12.1048 5.51993 11.9994 5.26543 11.9994 5.00007C11.9994 4.86867 12.0253 4.73856 12.0756 4.61717C12.1258 4.49578 12.1995 4.38548 12.2925 4.29257C12.3854 4.19966 12.4957 4.12596 12.6171 4.07567C12.7384 4.02539 12.8686 3.99951 13 3.99951C13.2653 3.99951 13.5198 4.10493 13.7075 4.29257L16 6.58632L18.2925 4.29257C18.4801 4.10493 18.7346 3.99951 19 3.99951C19.2653 3.99951 19.5198 4.10493 19.7075 4.29257C19.8951 4.48021 20.0005 4.7347 20.0005 5.00007C20.0005 5.26543 19.8951 5.51993 19.7075 5.70757L17 8.41382V14.2676L22.0687 11.3413L23.0337 7.74132C23.1023 7.48505 23.2699 7.26654 23.4997 7.13386C23.7294 7.00118 24.0024 6.96519 24.2587 7.03382C24.515 7.10244 24.7335 7.27006 24.8662 7.49979C24.9988 7.72952 25.0348 8.00255 24.9662 8.25882L24.1587 11.2726L27.2387 12.0226C27.4828 12.0747 27.6986 12.2162 27.8437 12.4194C27.9887 12.6225 28.0526 12.8726 28.0226 13.1204C27.9927 13.3682 27.8712 13.5959 27.682 13.7586C27.4927 13.9214 27.2495 14.0075 27 14.0001C26.9195 14.0003 26.8393 13.9907 26.7612 13.9713L23.08 13.0676L18 16.0001L23.08 18.9326L26.7612 18.0288C26.8887 17.9974 27.0212 17.9915 27.1511 18.0113C27.2809 18.0312 27.4056 18.0764 27.5179 18.1444C27.6303 18.2124 27.7282 18.3019 27.8059 18.4078C27.8837 18.5136 27.9399 18.6338 27.9712 18.7613Z" fill="#4A4A4F"/>
</svg>
