<svg width="32" height="32" viewBox="0 0 32 32" fill="none" xmlns="http://www.w3.org/2000/svg">
<path d="M5 15.9998C5 15.7346 5.10536 15.4802 5.29289 15.2927C5.48043 15.1052 5.73478 14.9998 6 14.9998H15C15.2652 14.9998 15.5196 15.1052 15.7071 15.2927C15.8946 15.4802 16 15.7346 16 15.9998C16 16.265 15.8946 16.5194 15.7071 16.7069C15.5196 16.8945 15.2652 16.9998 15 16.9998H6C5.73478 16.9998 5.48043 16.8945 5.29289 16.7069C5.10536 16.5194 5 16.265 5 15.9998ZM6 8.99981H13C13.2652 8.99981 13.5196 8.89445 13.7071 8.70692C13.8946 8.51938 14 8.26503 14 7.99981C14 7.73459 13.8946 7.48024 13.7071 7.2927C13.5196 7.10517 13.2652 6.99981 13 6.99981H6C5.73478 6.99981 5.48043 7.10517 5.29289 7.2927C5.10536 7.48024 5 7.73459 5 7.99981C5 8.26503 5.10536 8.51938 5.29289 8.70692C5.48043 8.89445 5.73478 8.99981 6 8.99981ZM23 22.9998H6C5.73478 22.9998 5.48043 23.1052 5.29289 23.2927C5.10536 23.4802 5 23.7346 5 23.9998C5 24.265 5.10536 24.5194 5.29289 24.7069C5.48043 24.8945 5.73478 24.9998 6 24.9998H23C23.2652 24.9998 23.5196 24.8945 23.7071 24.7069C23.8946 24.5194 24 24.265 24 23.9998C24 23.7346 23.8946 23.4802 23.7071 23.2927C23.5196 23.1052 23.2652 22.9998 23 22.9998ZM28.7075 10.2923L23.7075 5.29231C23.6146 5.19933 23.5043 5.12557 23.3829 5.07525C23.2615 5.02493 23.1314 4.99902 23 4.99902C22.8686 4.99902 22.7385 5.02493 22.6171 5.07525C22.4957 5.12557 22.3854 5.19933 22.2925 5.29231L17.2925 10.2923C17.1049 10.48 16.9994 10.7344 16.9994 10.9998C16.9994 11.2652 17.1049 11.5197 17.2925 11.7073C17.4801 11.895 17.7346 12.0004 18 12.0004C18.2654 12.0004 18.5199 11.895 18.7075 11.7073L22 8.41356V17.9998C22 18.265 22.1054 18.5194 22.2929 18.7069C22.4804 18.8945 22.7348 18.9998 23 18.9998C23.2652 18.9998 23.5196 18.8945 23.7071 18.7069C23.8946 18.5194 24 18.265 24 17.9998V8.41356L27.2925 11.7073C27.3854 11.8002 27.4957 11.8739 27.6171 11.9242C27.7385 11.9745 27.8686 12.0004 28 12.0004C28.1314 12.0004 28.2615 11.9745 28.3829 11.9242C28.5043 11.8739 28.6146 11.8002 28.7075 11.7073C28.8004 11.6144 28.8741 11.5041 28.9244 11.3827C28.9747 11.2613 29.0006 11.1312 29.0006 10.9998C29.0006 10.8684 28.9747 10.7383 28.9244 10.6169C28.8741 10.4955 28.8004 10.3852 28.7075 10.2923Z" fill="#4A4A4F"/>
</svg>
