<svg width="32" height="32" viewBox="0 0 32 32" fill="none" xmlns="http://www.w3.org/2000/svg">
<path d="M29 16.9998C28.9996 18.2211 28.6797 19.421 28.0721 20.4803C27.4644 21.5397 26.5902 22.4216 25.5363 23.0386C24.4823 23.6555 23.2853 23.986 22.0641 23.9972C20.8429 24.0084 19.6401 23.6999 18.575 23.1023L19.9575 27.7123C20.0023 27.8616 20.0116 28.0193 19.9846 28.1729C19.9577 28.3264 19.8952 28.4715 19.8021 28.5966C19.7091 28.7217 19.5881 28.8233 19.4489 28.8933C19.3096 28.9633 19.1559 28.9998 19 28.9998H13C12.8441 28.9998 12.6904 28.9633 12.5511 28.8933C12.4119 28.8233 12.2909 28.7217 12.1979 28.5966C12.1048 28.4715 12.0423 28.3264 12.0154 28.1729C11.9884 28.0193 11.9977 27.8616 12.0425 27.7123L13.425 23.1023C12.3599 23.6999 11.1571 24.0084 9.93587 23.9972C8.71468 23.986 7.51766 23.6555 6.46372 23.0386C5.40977 22.4216 4.53557 21.5397 3.92795 20.4803C3.32032 19.421 3.00041 18.2211 3 16.9998C3 12.9998 5.20625 9.14483 9.375 5.84108C11.2889 4.33171 13.3839 3.06734 15.6112 2.07733C15.7331 2.02597 15.864 1.99951 15.9963 1.99951C16.1285 1.99951 16.2594 2.02597 16.3813 2.07733C18.6112 3.06678 20.7088 4.33117 22.625 5.84108C26.7938 9.14483 29 12.9998 29 16.9998Z" fill="#4A4A4F"/>
</svg>
