<svg width="32" height="32" viewBox="0 0 32 32" fill="none" xmlns="http://www.w3.org/2000/svg">
<path d="M16.4475 2.1062C16.3086 2.03668 16.1554 2.00049 16 2.00049C15.8446 2.00049 15.6914 2.03668 15.5525 2.1062C15.04 2.36245 3 8.47995 3 17C2.99955 18.1143 3.26513 19.2126 3.77466 20.2036C4.2842 21.1946 5.02296 22.0497 5.92952 22.6976C6.83607 23.3456 7.88423 23.7678 8.98682 23.9291C10.0894 24.0904 11.2146 23.9861 12.2688 23.625L11.0425 27.7125C10.9977 27.8618 10.9884 28.0195 11.0154 28.173C11.0423 28.3265 11.1048 28.4716 11.1979 28.5967C11.2909 28.7218 11.4119 28.8234 11.5511 28.8934C11.6904 28.9634 11.8441 28.9999 12 29H20C20.1559 28.9999 20.3096 28.9634 20.4489 28.8934C20.5881 28.8234 20.7091 28.7218 20.8021 28.5967C20.8952 28.4716 20.9577 28.3265 20.9846 28.173C21.0116 28.0195 21.0023 27.8618 20.9575 27.7125L19.7313 23.625C20.7854 23.9861 21.9106 24.0904 23.0132 23.9291C24.1158 23.7678 25.1639 23.3456 26.0705 22.6976C26.977 22.0497 27.7158 21.1946 28.2253 20.2036C28.7349 19.2126 29.0005 18.1143 29 17C29 8.47995 16.96 2.36245 16.4475 2.1062ZM22 22C20.7918 22.0001 19.6244 21.5627 18.7138 20.7687C18.5503 20.6262 18.345 20.5406 18.1287 20.525C17.9124 20.5093 17.6969 20.5644 17.5146 20.6819C17.3324 20.7994 17.1933 20.973 17.1182 21.1765C17.0432 21.3799 17.0364 21.6023 17.0988 21.81L18.6563 27H13.3438L14.9013 21.81C14.9636 21.6023 14.9568 21.3799 14.8818 21.1765C14.8067 20.973 14.6676 20.7994 14.4854 20.6819C14.3031 20.5644 14.0876 20.5093 13.8713 20.525C13.655 20.5406 13.4497 20.6262 13.2863 20.7687C12.5628 21.3996 11.673 21.8089 10.7232 21.9478C9.77342 22.0866 8.80372 21.9491 7.92995 21.5517C7.05618 21.1543 6.31527 20.5138 5.79572 19.7066C5.27616 18.8995 4.99993 17.9599 5 17C5 13.265 8.05125 9.9312 10.6113 7.79245C12.2894 6.40708 14.0935 5.18174 16 4.13245C17.9065 5.18174 19.7106 6.40708 21.3888 7.79245C26.0262 11.6675 27 14.9387 27 17C27 18.326 26.4732 19.5978 25.5355 20.5355C24.5979 21.4732 23.3261 22 22 22Z" fill="#4A4A4F"/>
</svg>
