<svg width="32" height="32" viewBox="0 0 32 32" fill="none" xmlns="http://www.w3.org/2000/svg">
<path d="M26 18C26.0025 18.4077 25.8786 18.8062 25.6454 19.1407C25.4121 19.4751 25.081 19.729 24.6975 19.8675L18.2412 22.2425L15.8662 28.6938C15.7256 29.0758 15.4711 29.4056 15.1372 29.6385C14.8032 29.8714 14.4059 29.9963 13.9987 29.9963C13.5916 29.9963 13.1942 29.8714 12.8603 29.6385C12.5263 29.4056 12.2719 29.0758 12.1312 28.6938L9.74995 22.25L3.29745 19.875C2.91537 19.7344 2.58561 19.4799 2.35269 19.146C2.11976 18.812 1.99487 18.4147 1.99487 18.0075C1.99487 17.6003 2.11976 17.203 2.35269 16.869C2.58561 16.5351 2.91537 16.2806 3.29745 16.14L9.7537 13.765L12.1287 7.31375C12.2694 6.93166 12.5238 6.60191 12.8578 6.36898C13.1917 6.13606 13.5891 6.01117 13.9962 6.01117C14.4034 6.01117 14.8007 6.13606 15.1347 6.36898C15.4686 6.60191 15.7231 6.93166 15.8637 7.31375L18.2387 13.77L24.69 16.145C25.0728 16.2815 25.4042 16.533 25.6387 16.8651C25.8732 17.1971 25.9994 17.5935 26 18ZM19 6H21V8C21 8.26522 21.1053 8.51957 21.2928 8.70711C21.4804 8.89464 21.7347 9 22 9C22.2652 9 22.5195 8.89464 22.7071 8.70711C22.8946 8.51957 23 8.26522 23 8V6H25C25.2652 6 25.5195 5.89464 25.7071 5.70711C25.8946 5.51957 26 5.26522 26 5C26 4.73478 25.8946 4.48043 25.7071 4.29289C25.5195 4.10536 25.2652 4 25 4H23V2C23 1.73478 22.8946 1.48043 22.7071 1.29289C22.5195 1.10536 22.2652 1 22 1C21.7347 1 21.4804 1.10536 21.2928 1.29289C21.1053 1.48043 21 1.73478 21 2V4H19C18.7347 4 18.4804 4.10536 18.2928 4.29289C18.1053 4.48043 18 4.73478 18 5C18 5.26522 18.1053 5.51957 18.2928 5.70711C18.4804 5.89464 18.7347 6 19 6ZM30 10H29V9C29 8.73478 28.8946 8.48043 28.7071 8.29289C28.5195 8.10536 28.2652 8 28 8C27.7347 8 27.4804 8.10536 27.2928 8.29289C27.1053 8.48043 27 8.73478 27 9V10H26C25.7347 10 25.4804 10.1054 25.2928 10.2929C25.1053 10.4804 25 10.7348 25 11C25 11.2652 25.1053 11.5196 25.2928 11.7071C25.4804 11.8946 25.7347 12 26 12H27V13C27 13.2652 27.1053 13.5196 27.2928 13.7071C27.4804 13.8946 27.7347 14 28 14C28.2652 14 28.5195 13.8946 28.7071 13.7071C28.8946 13.5196 29 13.2652 29 13V12H30C30.2652 12 30.5195 11.8946 30.7071 11.7071C30.8946 11.5196 31 11.2652 31 11C31 10.7348 30.8946 10.4804 30.7071 10.2929C30.5195 10.1054 30.2652 10 30 10Z" fill="#4A4A4F"/>
</svg>
