<svg width="32" height="32" viewBox="0 0 32 32" fill="none" xmlns="http://www.w3.org/2000/svg">
<path d="M6.74 4.32751C6.65218 4.22852 6.54559 4.14794 6.4264 4.09045C6.30721 4.03295 6.1778 3.99969 6.04566 3.99258C5.91352 3.98547 5.78128 4.00466 5.65661 4.04903C5.53194 4.09341 5.41732 4.16208 5.31939 4.25108C5.22146 4.34008 5.14216 4.44763 5.0861 4.5675C5.03004 4.68737 4.99833 4.81718 4.99281 4.94939C4.98728 5.08161 5.00806 5.2136 5.05392 5.33773C5.09979 5.46186 5.16983 5.57565 5.26 5.67251L9.19375 10H4C3.46957 10 2.96086 10.2107 2.58579 10.5858C2.21071 10.9609 2 11.4696 2 12V20C2 20.5304 2.21071 21.0392 2.58579 21.4142C2.96086 21.7893 3.46957 22 4 22H9.65625L18.3862 28.7888C18.534 28.9036 18.711 28.9747 18.8971 28.9939C19.0832 29.0132 19.271 28.9799 19.4391 28.8977C19.6072 28.8155 19.7489 28.6878 19.8481 28.5291C19.9472 28.3705 19.9999 28.1871 20 28V21.8863L25.26 27.6725C25.3478 27.7715 25.4544 27.8521 25.5736 27.9096C25.6928 27.9671 25.8222 28.0003 25.9543 28.0074C26.0865 28.0145 26.2187 27.9954 26.3434 27.951C26.4681 27.9066 26.5827 27.8379 26.6806 27.7489C26.7785 27.6599 26.8578 27.5524 26.9139 27.4325C26.97 27.3126 27.0017 27.1828 27.0072 27.0506C27.0127 26.9184 26.9919 26.7864 26.9461 26.6623C26.9002 26.5382 26.8302 26.4244 26.74 26.3275L6.74 4.32751ZM4 12H9V20H4V12ZM23.25 17.9838C23.7323 17.436 23.9984 16.7311 23.9984 16.0013C23.9984 15.2714 23.7323 14.5666 23.25 14.0188C23.1581 13.9211 23.0868 13.806 23.0403 13.6802C22.9939 13.5544 22.9731 13.4206 22.9794 13.2867C22.9857 13.1527 23.0189 13.0214 23.0769 12.9006C23.135 12.7797 23.2167 12.6718 23.3174 12.5831C23.418 12.4945 23.5354 12.427 23.6626 12.3847C23.7898 12.3424 23.9243 12.326 24.0579 12.3367C24.1916 12.3474 24.3217 12.3848 24.4406 12.4468C24.5595 12.5088 24.6647 12.594 24.75 12.6975C25.5543 13.6106 25.9981 14.7857 25.9981 16.0025C25.9981 17.2193 25.5543 18.3944 24.75 19.3075C24.5745 19.5064 24.3271 19.6275 24.0623 19.644C23.7975 19.6605 23.537 19.5712 23.3381 19.3956C23.1392 19.2201 23.0182 18.9727 23.0017 18.7079C22.9851 18.4432 23.0745 18.1827 23.25 17.9838ZM13.2788 8.54751C13.1859 8.44561 13.1152 8.32563 13.0709 8.19509C13.0267 8.06455 13.0099 7.92628 13.0217 7.78894C13.0334 7.65161 13.0734 7.51819 13.1391 7.39705C13.2049 7.27591 13.295 7.16968 13.4038 7.08501L18.385 3.21001C18.5328 3.09473 18.71 3.02332 18.8965 3.00391C19.0829 2.9845 19.271 3.01789 19.4394 3.10025C19.6078 3.18261 19.7496 3.31064 19.8487 3.46973C19.9479 3.62882 20.0003 3.81257 20 4.00001V13.3538C20 13.5556 19.9389 13.7527 19.8247 13.9192C19.7106 14.0856 19.5488 14.2136 19.3605 14.2864C19.1722 14.3592 18.9664 14.3733 18.7699 14.3268C18.5735 14.2804 18.3958 14.1756 18.26 14.0263L13.2788 8.54751ZM31 16C31.0014 18.4603 30.0947 20.8345 28.4538 22.6675C28.2756 22.8603 28.0288 22.9753 27.7667 22.9877C27.5045 23.0001 27.248 22.9089 27.0524 22.7339C26.8568 22.5588 26.7379 22.3139 26.7214 22.052C26.7048 21.79 26.7918 21.5321 26.9638 21.3338C28.2755 19.8671 29.0007 17.9684 29.0007 16.0006C29.0007 14.0329 28.2755 12.1342 26.9638 10.6675C26.8737 10.5701 26.804 10.4557 26.7586 10.3311C26.7131 10.2064 26.693 10.074 26.6993 9.94148C26.7055 9.80897 26.7381 9.67903 26.7951 9.55923C26.8521 9.43944 26.9323 9.33217 27.0312 9.2437C27.13 9.15522 27.2455 9.08729 27.3708 9.04387C27.4962 9.00045 27.6289 8.98241 27.7613 8.99079C27.8937 8.99917 28.0231 9.03381 28.142 9.09269C28.2609 9.15157 28.3669 9.23352 28.4538 9.33376C30.0952 11.166 31.002 13.54 31 16Z" fill="#4A4A4F"/>
</svg>
