<svg width="32" height="32" viewBox="0 0 32 32" fill="none" xmlns="http://www.w3.org/2000/svg">
<path d="M19.4387 3.10105C19.2706 3.0191 19.0828 2.98597 18.8968 3.00542C18.7107 3.02486 18.5338 3.0961 18.3862 3.21105L9.65625 9.9998H4C3.46957 9.9998 2.96086 10.2105 2.58579 10.5856C2.21071 10.9607 2 11.4694 2 11.9998V19.9998C2 20.5302 2.21071 21.0389 2.58579 21.414C2.96086 21.7891 3.46957 21.9998 4 21.9998H9.65625L18.3862 28.7885C18.534 28.9034 18.711 28.9745 18.8971 28.9937C19.0832 29.013 19.271 28.9796 19.4391 28.8975C19.6072 28.8153 19.7489 28.6876 19.8481 28.5289C19.9472 28.3702 19.9999 28.1869 20 27.9998V3.9998C20 3.81246 19.9474 3.62888 19.8482 3.46998C19.749 3.31108 19.6071 3.18324 19.4387 3.10105ZM4 11.9998H9V19.9998H4V11.9998Z" fill="#4A4A4F"/>
<path d="M28.4138 16.0001L30.7076 13.7076C30.8952 13.5199 31.0006 13.2654 31.0006 13.0001C31.0006 12.7347 30.8952 12.4802 30.7076 12.2926C30.5199 12.1049 30.2654 11.9995 30.0001 11.9995C29.7347 11.9995 29.4802 12.1049 29.2926 12.2926L27.0001 14.5863L24.7076 12.2926C24.5199 12.1049 24.2654 11.9995 24.0001 11.9995C23.7347 11.9995 23.4802 12.1049 23.2926 12.2926C23.1049 12.4802 22.9995 12.7347 22.9995 13.0001C22.9995 13.2654 23.1049 13.5199 23.2926 13.7076L25.5863 16.0001L23.2926 18.2926C23.1049 18.4802 22.9995 18.7347 22.9995 19.0001C22.9995 19.2654 23.1049 19.5199 23.2926 19.7076C23.4802 19.8952 23.7347 20.0006 24.0001 20.0006C24.2654 20.0006 24.5199 19.8952 24.7076 19.7076L27.0001 17.4138L29.2926 19.7076C29.4802 19.8952 29.7347 20.0006 30.0001 20.0006C30.2654 20.0006 30.5199 19.8952 30.7076 19.7076C30.8952 19.5199 31.0006 19.2654 31.0006 19.0001C31.0006 18.7347 30.8952 18.4802 30.7076 18.2926L28.4138 16.0001Z" fill="#4A4A4F"/>
</svg>
