<svg width="32" height="32" viewBox="0 0 32 32" fill="none" xmlns="http://www.w3.org/2000/svg">
<path d="M19.4387 3.10105C19.2706 3.0191 19.0828 2.98597 18.8968 3.00542C18.7107 3.02486 18.5338 3.0961 18.3862 3.21105L9.65625 9.9998H4C3.46957 9.9998 2.96086 10.2105 2.58579 10.5856C2.21071 10.9607 2 11.4694 2 11.9998V19.9998C2 20.5302 2.21071 21.0389 2.58579 21.414C2.96086 21.7891 3.46957 21.9998 4 21.9998H9.65625L18.3862 28.7885C18.534 28.9034 18.711 28.9745 18.8971 28.9937C19.0832 29.013 19.271 28.9796 19.4391 28.8975C19.6072 28.8153 19.7489 28.6876 19.8481 28.5289C19.9472 28.3702 19.9999 28.1869 20 27.9998V3.9998C20 3.81246 19.9474 3.62888 19.8482 3.46998C19.749 3.31108 19.6071 3.18324 19.4387 3.10105ZM4 11.9998H9V19.9998H4V11.9998ZM18 25.9548L11 20.511V11.4885L18 6.0448V25.9548ZM24.75 12.6948C25.5543 13.6079 25.9981 14.783 25.9981 15.9998C25.9981 17.2166 25.5543 18.3917 24.75 19.3048C24.5733 19.4989 24.3274 19.6158 24.0653 19.6302C23.8032 19.6446 23.546 19.5554 23.3491 19.3818C23.1522 19.2082 23.0315 18.9642 23.0129 18.7024C22.9944 18.4405 23.0795 18.1819 23.25 17.9823C23.7323 17.4345 23.9984 16.7297 23.9984 15.9998C23.9984 15.2699 23.7323 14.5651 23.25 14.0173C23.0795 13.8177 22.9944 13.5591 23.0129 13.2972C23.0315 13.0354 23.1522 12.7914 23.3491 12.6178C23.546 12.4442 23.8032 12.355 24.0653 12.3694C24.3274 12.3838 24.5733 12.5007 24.75 12.6948ZM31 15.9998C31.0014 18.4601 30.0947 20.8343 28.4538 22.6673C28.2756 22.8601 28.0288 22.975 27.7667 22.9875C27.5045 22.9999 27.248 22.9087 27.0524 22.7337C26.8568 22.5586 26.7379 22.3137 26.7214 22.0518C26.7048 21.7898 26.7918 21.5319 26.9638 21.3335C28.2755 19.8668 29.0007 17.9681 29.0007 16.0004C29.0007 14.0327 28.2755 12.134 26.9638 10.6673C26.8737 10.5699 26.804 10.4555 26.7586 10.3309C26.7131 10.2062 26.693 10.0738 26.6993 9.94127C26.7055 9.80876 26.7381 9.67882 26.7951 9.55902C26.8521 9.43922 26.9323 9.33196 27.0312 9.24348C27.13 9.155 27.2455 9.08708 27.3708 9.04366C27.4962 9.00024 27.6289 8.98219 27.7613 8.99058C27.8937 8.99896 28.0231 9.0336 28.142 9.09248C28.2609 9.15136 28.3669 9.23331 28.4538 9.33355C30.0952 11.1658 31.002 13.5398 31 15.9998Z" fill="#4A4A4F"/>
</svg>
