<svg width="32" height="32" viewBox="0 0 32 32" fill="none" xmlns="http://www.w3.org/2000/svg">
<path d="M24 3H8C7.46957 3 6.96086 3.21071 6.58579 3.58579C6.21071 3.96086 6 4.46957 6 5V27C6 27.5304 6.21071 28.0391 6.58579 28.4142C6.96086 28.7893 7.46957 29 8 29H24C24.5304 29 25.0391 28.7893 25.4142 28.4142C25.7893 28.0391 26 27.5304 26 27V5C26 4.46957 25.7893 3.96086 25.4142 3.58579C25.0391 3.21071 24.5304 3 24 3ZM24 27H8V5H24V27ZM14.5 9.5C14.5 9.20333 14.588 8.91332 14.7528 8.66665C14.9176 8.41997 15.1519 8.22771 15.426 8.11418C15.7001 8.00065 16.0017 7.97094 16.2926 8.02882C16.5836 8.0867 16.8509 8.22956 17.0607 8.43934C17.2704 8.64912 17.4133 8.91639 17.4712 9.20736C17.5291 9.49834 17.4993 9.79994 17.3858 10.074C17.2723 10.3481 17.08 10.5824 16.8334 10.7472C16.5867 10.912 16.2967 11 16 11C15.6022 11 15.2206 10.842 14.9393 10.5607C14.658 10.2794 14.5 9.89782 14.5 9.5ZM16 24C16.9889 24 17.9556 23.7068 18.7779 23.1573C19.6001 22.6079 20.241 21.827 20.6194 20.9134C20.9978 19.9998 21.0969 18.9945 20.9039 18.0245C20.711 17.0546 20.2348 16.1637 19.5355 15.4645C18.8363 14.7652 17.9454 14.289 16.9755 14.0961C16.0055 13.9031 15.0002 14.0022 14.0866 14.3806C13.173 14.759 12.3921 15.3999 11.8427 16.2221C11.2932 17.0444 11 18.0111 11 19C11 19.6566 11.1293 20.3068 11.3806 20.9134C11.6319 21.52 12.0002 22.0712 12.4645 22.5355C13.4021 23.4732 14.6739 24 16 24ZM16 16C16.5933 16 17.1734 16.1759 17.6667 16.5056C18.1601 16.8352 18.5446 17.3038 18.7716 17.8519C18.9987 18.4001 19.0581 19.0033 18.9424 19.5853C18.8266 20.1672 18.5409 20.7018 18.1213 21.1213C17.7018 21.5409 17.1672 21.8266 16.5853 21.9424C16.0033 22.0581 15.4001 21.9987 14.8519 21.7716C14.3038 21.5446 13.8352 21.1601 13.5056 20.6667C13.1759 20.1734 13 19.5933 13 19C13 18.2044 13.3161 17.4413 13.8787 16.8787C14.4413 16.3161 15.2044 16 16 16Z" fill="#4A4A4F"/>
</svg>
