<svg width="32" height="32" viewBox="0 0 32 32" fill="none" xmlns="http://www.w3.org/2000/svg">
<path d="M19.4387 3.10105C19.2706 3.0191 19.0828 2.98597 18.8968 3.00542C18.7107 3.02486 18.5338 3.0961 18.3862 3.21105L9.65625 9.9998H4C3.46957 9.9998 2.96086 10.2105 2.58579 10.5856C2.21071 10.9607 2 11.4694 2 11.9998V19.9998C2 20.5302 2.21071 21.0389 2.58579 21.414C2.96086 21.7891 3.46957 21.9998 4 21.9998H9.65625L18.3862 28.7885C18.534 28.9034 18.711 28.9745 18.8971 28.9937C19.0832 29.013 19.271 28.9796 19.4391 28.8975C19.6072 28.8153 19.7489 28.6876 19.8481 28.5289C19.9472 28.3702 19.9999 28.1869 20 27.9998V3.9998C20 3.81246 19.9474 3.62888 19.8482 3.46998C19.749 3.31108 19.6071 3.18324 19.4387 3.10105ZM4 11.9998H9V19.9998H4V11.9998ZM18 25.9548L11 20.511V11.4885L18 6.0448V25.9548Z" fill="#4A4A4F"/>
</svg>
