<svg width="32" height="32" viewBox="0 0 32 32" fill="none" xmlns="http://www.w3.org/2000/svg">
<path d="M26 16.0002C26.0009 17.2183 25.5563 18.3947 24.75 19.3077C24.5733 19.5019 24.3274 19.6187 24.0653 19.6331C23.8032 19.6476 23.546 19.5583 23.3491 19.3847C23.1522 19.2112 23.0315 18.9671 23.0129 18.7053C22.9944 18.4435 23.0795 18.1848 23.25 17.9852C23.7323 17.4374 23.9984 16.7326 23.9984 16.0027C23.9984 15.2729 23.7323 14.568 23.25 14.0202C23.0795 13.8206 22.9944 13.562 23.0129 13.3002C23.0315 13.0383 23.1522 12.7943 23.3491 12.6207C23.546 12.4471 23.8032 12.3579 24.0653 12.3723C24.3274 12.3867 24.5733 12.5036 24.75 12.6977C25.5545 13.6099 25.9989 14.784 26 16.0002ZM20 4.00023V28.0002C19.9999 28.1873 19.9472 28.3707 19.8481 28.5294C19.7489 28.688 19.6072 28.8157 19.4391 28.8979C19.271 28.9801 19.0832 29.0134 18.8971 28.9942C18.711 28.9749 18.534 28.9038 18.3862 28.789L9.65625 22.0002H4C3.46957 22.0002 2.96086 21.7895 2.58579 21.4144C2.21071 21.0394 2 20.5307 2 20.0002V12.0002C2 11.4698 2.21071 10.9611 2.58579 10.586C2.96086 10.2109 3.46957 10.0002 4 10.0002H9.65625L18.3862 3.21148C18.534 3.09663 18.711 3.02554 18.8971 3.00629C19.0832 2.98703 19.271 3.02038 19.4391 3.10255C19.6072 3.18472 19.7489 3.3124 19.8481 3.47109C19.9472 3.62978 19.9999 3.81311 20 4.00023ZM9 12.0002H4V20.0002H9V12.0002Z" fill="#4A4A4F"/>
</svg>
