<svg width="32" height="32" viewBox="0 0 32 32" fill="none" xmlns="http://www.w3.org/2000/svg">
<path d="M23 19.0002V13.0002C23 12.735 23.1054 12.4807 23.2929 12.2931C23.4804 12.1056 23.7348 12.0002 24 12.0002C24.2652 12.0002 24.5196 12.1056 24.7071 12.2931C24.8946 12.4807 25 12.735 25 13.0002V19.0002C25 19.2654 24.8946 19.5198 24.7071 19.7073C24.5196 19.8949 24.2652 20.0002 24 20.0002C23.7348 20.0002 23.4804 19.8949 23.2929 19.7073C23.1054 19.5198 23 19.2654 23 19.0002ZM28 10.0002C27.7348 10.0002 27.4804 10.1056 27.2929 10.2931C27.1054 10.4807 27 10.735 27 11.0002V21.0002C27 21.2654 27.1054 21.5198 27.2929 21.7073C27.4804 21.8949 27.7348 22.0002 28 22.0002C28.2652 22.0002 28.5196 21.8949 28.7071 21.7073C28.8946 21.5198 29 21.2654 29 21.0002V11.0002C29 10.735 28.8946 10.4807 28.7071 10.2931C28.5196 10.1056 28.2652 10.0002 28 10.0002ZM6.74 4.32773C6.65218 4.22873 6.54559 4.14816 6.4264 4.09066C6.30721 4.03317 6.1778 3.99991 6.04566 3.9928C5.91352 3.98569 5.78128 4.00488 5.65661 4.04925C5.53194 4.09363 5.41732 4.1623 5.31939 4.2513C5.22146 4.3403 5.14216 4.44785 5.0861 4.56772C5.03004 4.68759 4.99833 4.81739 4.99281 4.94961C4.98728 5.08183 5.00806 5.21382 5.05392 5.33795C5.09979 5.46208 5.16983 5.57587 5.26 5.67273L9.19375 10.0002H4C3.46957 10.0002 2.96086 10.2109 2.58579 10.586C2.21071 10.9611 2 11.4698 2 12.0002V20.0002C2 20.5307 2.21071 21.0394 2.58579 21.4144C2.96086 21.7895 3.46957 22.0002 4 22.0002H9.65625L18.3862 28.789C18.534 28.9038 18.711 28.9749 18.8971 28.9942C19.0832 29.0134 19.271 28.9801 19.4391 28.8979C19.6072 28.8157 19.7489 28.688 19.8481 28.5294C19.9472 28.3707 19.9999 28.1873 20 28.0002V21.8865L25.26 27.6727C25.3478 27.7717 25.4544 27.8523 25.5736 27.9098C25.6928 27.9673 25.8222 28.0005 25.9543 28.0077C26.0865 28.0148 26.2187 27.9956 26.3434 27.9512C26.4681 27.9068 26.5827 27.8382 26.6806 27.7492C26.7785 27.6602 26.8578 27.5526 26.9139 27.4327C26.97 27.3129 27.0017 27.1831 27.0072 27.0508C27.0127 26.9186 26.9919 26.7866 26.9461 26.6625C26.9002 26.5384 26.8302 26.4246 26.74 26.3277L6.74 4.32773ZM18.26 14.0265C18.3958 14.1758 18.5735 14.2806 18.7699 14.327C18.9664 14.3735 19.1722 14.3594 19.3605 14.2866C19.5488 14.2139 19.7106 14.0858 19.8247 13.9194C19.9389 13.7529 20 13.5558 20 13.354V4.00023C19.9999 3.81311 19.9472 3.62978 19.8481 3.47109C19.7489 3.3124 19.6072 3.18472 19.4391 3.10255C19.271 3.02038 19.0832 2.98703 18.8971 3.00629C18.711 3.02554 18.534 3.09663 18.3862 3.21148L13.405 7.08648C13.2962 7.17114 13.2062 7.27738 13.1404 7.39852C13.0746 7.51966 13.0346 7.65308 13.0229 7.79041C13.0112 7.92774 13.0279 8.06602 13.0722 8.19656C13.1164 8.3271 13.1872 8.44708 13.28 8.54898L18.26 14.0265Z" fill="#4A4A4F"/>
</svg>
