<svg width="32" height="32" viewBox="0 0 32 32" fill="none" xmlns="http://www.w3.org/2000/svg">
<path d="M20 4.00023V28.0002C19.9999 28.1873 19.9472 28.3707 19.8481 28.5294C19.7489 28.688 19.6072 28.8157 19.4391 28.8979C19.271 28.9801 19.0832 29.0134 18.8971 28.9942C18.711 28.9749 18.534 28.9038 18.3862 28.789L9.65625 22.0002H4C3.46957 22.0002 2.96086 21.7895 2.58579 21.4144C2.21071 21.0394 2 20.5307 2 20.0002V12.0002C2 11.4698 2.21071 10.9611 2.58579 10.586C2.96086 10.2109 3.46957 10.0002 4 10.0002H9.65625L18.3862 3.21148C18.534 3.09663 18.711 3.02554 18.8971 3.00629C19.0832 2.98703 19.271 3.02038 19.4391 3.10255C19.6072 3.18472 19.7489 3.3124 19.8481 3.47109C19.9472 3.62978 19.9999 3.81311 20 4.00023ZM24 12.0002C23.7348 12.0002 23.4804 12.1056 23.2929 12.2931C23.1054 12.4807 23 12.735 23 13.0002V19.0002C23 19.2654 23.1054 19.5198 23.2929 19.7073C23.4804 19.8949 23.7348 20.0002 24 20.0002C24.2652 20.0002 24.5196 19.8949 24.7071 19.7073C24.8946 19.5198 25 19.2654 25 19.0002V13.0002C25 12.735 24.8946 12.4807 24.7071 12.2931C24.5196 12.1056 24.2652 12.0002 24 12.0002ZM28 10.0002C27.7348 10.0002 27.4804 10.1056 27.2929 10.2931C27.1054 10.4807 27 10.735 27 11.0002V21.0002C27 21.2654 27.1054 21.5198 27.2929 21.7073C27.4804 21.8949 27.7348 22.0002 28 22.0002C28.2652 22.0002 28.5196 21.8949 28.7071 21.7073C28.8946 21.5198 29 21.2654 29 21.0002V11.0002C29 10.735 28.8946 10.4807 28.7071 10.2931C28.5196 10.1056 28.2652 10.0002 28 10.0002Z" fill="#4A4A4F"/>
</svg>
