<svg width="32" height="32" viewBox="0 0 32 32" fill="none" xmlns="http://www.w3.org/2000/svg">
<path d="M19.4387 3.10105C19.2706 3.0191 19.0828 2.98597 18.8968 3.00542C18.7107 3.02486 18.5338 3.0961 18.3862 3.21105L9.65625 9.9998H4C3.46957 9.9998 2.96086 10.2105 2.58579 10.5856C2.21071 10.9607 2 11.4694 2 11.9998V19.9998C2 20.5302 2.21071 21.0389 2.58579 21.414C2.96086 21.7891 3.46957 21.9998 4 21.9998H9.65625L18.3862 28.7885C18.534 28.9034 18.711 28.9745 18.8971 28.9937C19.0832 29.013 19.271 28.9796 19.4391 28.8975C19.6072 28.8153 19.7489 28.6876 19.8481 28.5289C19.9472 28.3702 19.9999 28.1869 20 27.9998V3.9998C20 3.81246 19.9474 3.62888 19.8482 3.46998C19.749 3.31108 19.6071 3.18324 19.4387 3.10105ZM4 11.9998H9V19.9998H4V11.9998ZM18 25.9548L11 20.511V11.4885L18 6.0448V25.9548ZM26 15.9998C26.0009 17.2179 25.5563 18.3943 24.75 19.3073C24.5733 19.5014 24.3274 19.6183 24.0653 19.6327C23.8032 19.6471 23.546 19.5579 23.3491 19.3843C23.1522 19.2107 23.0315 18.9667 23.0129 18.7049C22.9944 18.443 23.0795 18.1844 23.25 17.9848C23.7323 17.437 23.9984 16.7322 23.9984 16.0023C23.9984 15.2724 23.7323 14.5676 23.25 14.0198C23.1607 13.9217 23.0918 13.8068 23.0474 13.6818C23.0029 13.5569 22.9838 13.4243 22.9911 13.2918C22.9984 13.1594 23.0319 13.0297 23.0898 12.9104C23.1477 12.791 23.2287 12.6844 23.3282 12.5966C23.4277 12.5089 23.5437 12.4419 23.6694 12.3994C23.795 12.3569 23.9279 12.3399 24.0602 12.3492C24.1925 12.3586 24.3217 12.3942 24.4401 12.4539C24.5585 12.5137 24.6639 12.5964 24.75 12.6973C25.5545 13.6095 25.9989 14.7836 26 15.9998Z" fill="#4A4A4F"/>
</svg>
