<svg width="32" height="32" viewBox="0 0 32 32" fill="none" xmlns="http://www.w3.org/2000/svg">
<path d="M6.74 4.32764C6.65218 4.22865 6.54559 4.14807 6.4264 4.09058C6.30721 4.03309 6.1778 3.99982 6.04566 3.99271C5.91352 3.9856 5.78128 4.00479 5.65661 4.04917C5.53194 4.09354 5.41732 4.16222 5.31939 4.25121C5.22146 4.34021 5.14216 4.44776 5.0861 4.56763C5.03004 4.6875 4.99833 4.81731 4.99281 4.94952C4.98728 5.08174 5.00806 5.21374 5.05392 5.33786C5.09979 5.46199 5.16983 5.57578 5.26 5.67264L9.19375 10.0001H4C3.46957 10.0001 2.96086 10.2109 2.58579 10.5859C2.21071 10.961 2 11.4697 2 12.0001V20.0001C2 20.5306 2.21071 21.0393 2.58579 21.4144C2.96086 21.7894 3.46957 22.0001 4 22.0001H9.65625L18.3862 28.7889C18.534 28.9037 18.711 28.9748 18.8971 28.9941C19.0832 29.0133 19.271 28.98 19.4391 28.8978C19.6072 28.8156 19.7489 28.688 19.8481 28.5293C19.9472 28.3706 19.9999 28.1873 20 28.0001V21.8864L25.26 27.6726C25.3478 27.7716 25.4544 27.8522 25.5736 27.9097C25.6928 27.9672 25.8222 28.0005 25.9543 28.0076C26.0865 28.0147 26.2187 27.9955 26.3434 27.9511C26.4681 27.9067 26.5827 27.8381 26.6806 27.7491C26.7785 27.6601 26.8578 27.5525 26.9139 27.4326C26.97 27.3128 27.0017 27.183 27.0072 27.0508C27.0127 26.9185 26.9919 26.7865 26.9461 26.6624C26.9002 26.5383 26.8302 26.4245 26.74 26.3276L6.74 4.32764ZM4 12.0001H9V20.0001H4V12.0001ZM18 25.9551L11 20.5114V11.9864L18 19.6864V25.9551ZM23.25 17.9839C23.7323 17.4361 23.9984 16.7313 23.9984 16.0014C23.9984 15.2715 23.7323 14.5667 23.25 14.0189C23.1581 13.9212 23.0868 13.8061 23.0403 13.6803C22.9939 13.5546 22.9731 13.4207 22.9794 13.2868C22.9857 13.1529 23.0189 13.0216 23.0769 12.9007C23.135 12.7798 23.2167 12.6719 23.3174 12.5833C23.418 12.4946 23.5354 12.4272 23.6626 12.3848C23.7898 12.3425 23.9243 12.3262 24.0579 12.3368C24.1916 12.3475 24.3217 12.3849 24.4406 12.4469C24.5595 12.5089 24.6647 12.5942 24.75 12.6976C25.5543 13.6107 25.9981 14.7858 25.9981 16.0026C25.9981 17.2195 25.5543 18.3945 24.75 19.3076C24.6631 19.4061 24.5576 19.4865 24.4396 19.5443C24.3216 19.602 24.1934 19.6359 24.0623 19.6441C23.9312 19.6523 23.7998 19.6346 23.6755 19.592C23.5513 19.5494 23.4366 19.4827 23.3381 19.3958C23.2396 19.3088 23.1592 19.2034 23.1015 19.0854C23.0438 18.9674 23.0098 18.8392 23.0017 18.7081C22.9935 18.577 23.0112 18.4455 23.0538 18.3213C23.0964 18.197 23.1631 18.0824 23.25 17.9839ZM13.23 8.48389C13.1493 8.38024 13.0898 8.26171 13.0549 8.13506C13.02 8.0084 13.0104 7.87612 13.0267 7.74576C13.0429 7.6154 13.0847 7.48952 13.1496 7.37531C13.2145 7.2611 13.3013 7.1608 13.405 7.08014L18.3862 3.20514C18.5344 3.08997 18.712 3.0188 18.8987 2.99978C19.0853 2.98076 19.2736 3.01465 19.4419 3.09758C19.6103 3.18051 19.7519 3.30912 19.8506 3.46873C19.9492 3.62834 20.001 3.81249 20 4.00014V13.3539C20 13.6191 19.8946 13.8735 19.7071 14.061C19.5196 14.2485 19.2652 14.3539 19 14.3539C18.7348 14.3539 18.4804 14.2485 18.2929 14.061C18.1054 13.8735 18 13.6191 18 13.3539V6.04514L14.6325 8.67014C14.4225 8.83208 14.1567 8.90396 13.8937 8.86997C13.6307 8.83598 13.392 8.6989 13.23 8.48889V8.48389ZM31 16.0001C31.0014 18.4604 30.0947 20.8346 28.4538 22.6676C28.2756 22.8604 28.0288 22.9754 27.7667 22.9878C27.5045 23.0002 27.248 22.9091 27.0524 22.734C26.8568 22.559 26.7379 22.314 26.7214 22.0521C26.7048 21.7902 26.7918 21.5322 26.9638 21.3339C28.2755 19.8672 29.0007 17.9685 29.0007 16.0008C29.0007 14.033 28.2755 12.1343 26.9638 10.6676C26.8737 10.5702 26.804 10.4558 26.7586 10.3312C26.7131 10.2066 26.693 10.0741 26.6993 9.94161C26.7055 9.8091 26.7381 9.67916 26.7951 9.55936C26.8521 9.43957 26.9323 9.3323 27.0312 9.24383C27.13 9.15535 27.2455 9.08742 27.3708 9.044C27.4962 9.00058 27.6289 8.98254 27.7613 8.99092C27.8937 8.9993 28.0231 9.03394 28.142 9.09282C28.2609 9.15171 28.3669 9.23365 28.4538 9.33389C30.0952 11.1662 31.002 13.5402 31 16.0001Z" fill="#4A4A4F"/>
</svg>
