<svg width="32" height="32" viewBox="0 0 32 32" fill="none" xmlns="http://www.w3.org/2000/svg">
<path d="M28.9999 16.4998C29.0022 19.7516 27.7814 22.8853 25.5799 25.2786C25.1724 25.7223 24.4649 25.2048 24.7762 24.6898C25.9062 22.8231 26.5024 20.682 26.4999 18.4998C26.4966 15.8487 25.442 13.3071 23.5673 11.4324C21.6927 9.55777 19.1511 8.50314 16.4999 8.49983C14.3789 8.50215 12.3454 9.34575 10.8456 10.8455C9.34582 12.3453 8.50222 14.3788 8.4999 16.4998C8.50156 18.0906 9.13423 19.6158 10.2591 20.7406C11.384 21.8655 12.9091 22.4982 14.4999 22.4998C15.5608 22.4998 16.5782 22.0784 17.3283 21.3283C18.0785 20.5781 18.4999 19.5607 18.4999 18.4998C18.5018 18.4657 18.5018 18.4315 18.4999 18.3973C18.4747 17.899 18.2642 17.4281 17.9097 17.077C17.5552 16.726 17.0822 16.5201 16.5837 16.4998C16.3185 16.4843 16.0577 16.5719 15.8557 16.7443C15.6537 16.9167 15.5262 17.1606 15.4999 17.4248C15.4896 17.5623 15.5078 17.7005 15.5534 17.8306C15.599 17.9607 15.671 18.08 15.7649 18.1809C15.8588 18.2819 15.9726 18.3623 16.0991 18.4172C16.2256 18.4721 16.362 18.5002 16.4999 18.4998C16.4999 19.0303 16.2892 19.539 15.9141 19.914C15.539 20.2891 15.0303 20.4998 14.4999 20.4998C13.439 20.4998 12.4216 20.0784 11.6715 19.3283C10.9213 18.5781 10.4999 17.5607 10.4999 16.4998C10.5016 14.909 11.1342 13.3839 12.2591 12.259C13.384 11.1342 14.9091 10.5015 16.4999 10.4998C18.6209 10.5021 20.6544 11.3457 22.1542 12.8455C23.654 14.3453 24.4976 16.3788 24.4999 18.4998C24.4966 21.151 23.442 23.6926 21.5673 25.5672C19.6927 27.4419 17.1511 28.4965 14.4999 28.4998C5.2299 28.4998 2.90365 19.9311 2.9999 16.1486C3.1874 9.21608 8.8674 3.60483 15.8012 3.49983C17.5244 3.4755 19.2354 3.79368 20.8347 4.4359C22.4341 5.07812 23.8899 6.0316 25.1178 7.24099C26.3457 8.45038 27.3212 9.89161 27.9876 11.481C28.654 13.0704 28.9981 14.7764 28.9999 16.4998Z" fill="#4A4A4F"/>
</svg>
