<svg width="32" height="32" viewBox="0 0 32 32" fill="none" xmlns="http://www.w3.org/2000/svg">
<path d="M27 18.9998C27 19.265 26.8946 19.5194 26.7071 19.7069C26.5196 19.8945 26.2652 19.9998 26 19.9998H17V23.9998H20C20.1979 23.9997 20.3914 24.0582 20.556 24.1681C20.7206 24.278 20.8489 24.4342 20.9246 24.617C21.0004 24.7998 21.0202 25.001 20.9815 25.1951C20.9429 25.3892 20.8475 25.5675 20.7075 25.7073L16.7075 29.7073C16.6146 29.8003 16.5043 29.874 16.3829 29.9244C16.2615 29.9747 16.1314 30.0006 16 30.0006C15.8686 30.0006 15.7385 29.9747 15.6171 29.9244C15.4957 29.874 15.3854 29.8003 15.2925 29.7073L11.2925 25.7073C11.1525 25.5675 11.0571 25.3892 11.0185 25.1951C10.9798 25.001 10.9996 24.7998 11.0754 24.617C11.1511 24.4342 11.2794 24.278 11.444 24.1681C11.6086 24.0582 11.8021 23.9997 12 23.9998H15V19.9998H6C5.73478 19.9998 5.48043 19.8945 5.29289 19.7069C5.10536 19.5194 5 19.265 5 18.9998C5 18.7346 5.10536 18.4802 5.29289 18.2927C5.48043 18.1052 5.73478 17.9998 6 17.9998H26C26.2652 17.9998 26.5196 18.1052 26.7071 18.2927C26.8946 18.4802 27 18.7346 27 18.9998ZM6 13.9998H26C26.2652 13.9998 26.5196 13.8945 26.7071 13.7069C26.8946 13.5194 27 13.265 27 12.9998C27 12.7346 26.8946 12.4802 26.7071 12.2927C26.5196 12.1052 26.2652 11.9998 26 11.9998H17V7.99981H20C20.1979 7.99997 20.3914 7.9414 20.556 7.83153C20.7206 7.72166 20.8489 7.56542 20.9246 7.3826C21.0004 7.19978 21.0202 6.99859 20.9815 6.8045C20.9429 6.61042 20.8475 6.43217 20.7075 6.29231L16.7075 2.29231C16.6146 2.19933 16.5043 2.12557 16.3829 2.07525C16.2615 2.02493 16.1314 1.99902 16 1.99902C15.8686 1.99902 15.7385 2.02493 15.6171 2.07525C15.4957 2.12557 15.3854 2.19933 15.2925 2.29231L11.2925 6.29231C11.1525 6.43217 11.0571 6.61042 11.0185 6.8045C10.9798 6.99859 10.9996 7.19978 11.0754 7.3826C11.1511 7.56542 11.2794 7.72166 11.444 7.83153C11.6086 7.9414 11.8021 7.99997 12 7.99981H15V11.9998H6C5.73478 11.9998 5.48043 12.1052 5.29289 12.2927C5.10536 12.4802 5 12.7346 5 12.9998C5 13.265 5.10536 13.5194 5.29289 13.7069C5.48043 13.8945 5.73478 13.9998 6 13.9998Z" fill="#4A4A4F"/>
</svg>
