<svg width="32" height="32" viewBox="0 0 32 32" fill="none" xmlns="http://www.w3.org/2000/svg">
<path d="M13.9998 6V26C13.9998 26.2652 13.8945 26.5196 13.7069 26.7071C13.5194 26.8946 13.265 27 12.9998 27C12.7346 27 12.4802 26.8946 12.2927 26.7071C12.1052 26.5196 11.9998 26.2652 11.9998 26V17H7.99981V20C7.99997 20.1979 7.9414 20.3914 7.83153 20.556C7.72166 20.7206 7.56542 20.8489 7.3826 20.9246C7.19978 21.0004 6.99859 21.0202 6.8045 20.9815C6.61042 20.9429 6.43217 20.8475 6.29231 20.7075L2.29231 16.7075C2.19933 16.6146 2.12557 16.5043 2.07525 16.3829C2.02493 16.2615 1.99902 16.1314 1.99902 16C1.99902 15.8686 2.02493 15.7385 2.07525 15.6171C2.12557 15.4957 2.19933 15.3854 2.29231 15.2925L6.29231 11.2925C6.43217 11.1525 6.61042 11.0571 6.8045 11.0185C6.99859 10.9798 7.19978 10.9996 7.3826 11.0754C7.56542 11.1511 7.72166 11.2794 7.83153 11.444C7.9414 11.6086 7.99997 11.8021 7.99981 12V15H11.9998V6C11.9998 5.73478 12.1052 5.48043 12.2927 5.29289C12.4802 5.10536 12.7346 5 12.9998 5C13.265 5 13.5194 5.10536 13.7069 5.29289C13.8945 5.48043 13.9998 5.73478 13.9998 6ZM29.7073 15.2925L25.7073 11.2925C25.5675 11.1525 25.3892 11.0571 25.1951 11.0185C25.001 10.9798 24.7998 10.9996 24.617 11.0754C24.4342 11.1511 24.278 11.2794 24.1681 11.444C24.0582 11.6086 23.9997 11.8021 23.9998 12V15H19.9998V6C19.9998 5.73478 19.8945 5.48043 19.7069 5.29289C19.5194 5.10536 19.265 5 18.9998 5C18.7346 5 18.4802 5.10536 18.2927 5.29289C18.1052 5.48043 17.9998 5.73478 17.9998 6V26C17.9998 26.2652 18.1052 26.5196 18.2927 26.7071C18.4802 26.8946 18.7346 27 18.9998 27C19.265 27 19.5194 26.8946 19.7069 26.7071C19.8945 26.5196 19.9998 26.2652 19.9998 26V17H23.9998V20C23.9997 20.1979 24.0582 20.3914 24.1681 20.556C24.278 20.7206 24.4342 20.8489 24.617 20.9246C24.7998 21.0004 25.001 21.0202 25.1951 20.9815C25.3892 20.9429 25.5675 20.8475 25.7073 20.7075L29.7073 16.7075C29.8003 16.6146 29.874 16.5043 29.9244 16.3829C29.9747 16.2615 30.0006 16.1314 30.0006 16C30.0006 15.8686 29.9747 15.7385 29.9244 15.6171C29.874 15.4957 29.8003 15.3854 29.7073 15.2925Z" fill="#4A4A4F"/>
</svg>
