<svg width="32" height="32" viewBox="0 0 32 32" fill="none" xmlns="http://www.w3.org/2000/svg">
<path d="M16 3C13.4288 3 10.9154 3.76244 8.77759 5.1909C6.63975 6.61935 4.97351 8.64968 3.98957 11.0251C3.00563 13.4006 2.74819 16.0144 3.2498 18.5362C3.75141 21.0579 4.98953 23.3743 6.80762 25.1924C8.6257 27.0105 10.9421 28.2486 13.4638 28.7502C15.9856 29.2518 18.5995 28.9944 20.9749 28.0104C23.3503 27.0265 25.3807 25.3603 26.8091 23.2224C28.2376 21.0846 29 18.5712 29 16C28.9964 12.5533 27.6256 9.24882 25.1884 6.81163C22.7512 4.37445 19.4467 3.00364 16 3ZM16 27C13.8244 27 11.6977 26.3549 9.88873 25.1462C8.07979 23.9375 6.66989 22.2195 5.83733 20.2095C5.00477 18.1995 4.78693 15.9878 5.21137 13.854C5.63581 11.7202 6.68345 9.7602 8.22183 8.22183C9.76021 6.68345 11.7202 5.6358 13.854 5.21136C15.9878 4.78692 18.1995 5.00476 20.2095 5.83733C22.2195 6.66989 23.9375 8.07979 25.1462 9.88873C26.3549 11.6977 27 13.8244 27 16C26.9967 18.9164 25.8367 21.7123 23.7745 23.7745C21.7123 25.8367 18.9164 26.9967 16 27ZM19.8838 21.2175C19.7597 21.4518 19.5477 21.6273 19.2943 21.7054C19.0409 21.7834 18.7669 21.7577 18.5325 21.6338C17.754 21.2153 16.8839 20.9962 16 20.9962C15.1161 20.9962 14.246 21.2153 13.4675 21.6338C13.2338 21.7513 12.9633 21.7725 12.714 21.6929C12.4648 21.6133 12.2567 21.4392 12.1344 21.2079C12.0121 20.9766 11.9852 20.7066 12.0596 20.4558C12.1341 20.205 12.3038 19.9934 12.5325 19.8662C13.6009 19.3011 14.7913 19.0057 16 19.0057C17.2087 19.0057 18.3991 19.3011 19.4675 19.8662C19.7018 19.9903 19.8773 20.2023 19.9554 20.4557C20.0335 20.7091 20.0077 20.9831 19.8838 21.2175ZM23.8838 14.2175C23.8219 14.3334 23.7378 14.436 23.6363 14.5195C23.5348 14.6029 23.4178 14.6655 23.2921 14.7037C23.1664 14.7419 23.0344 14.7549 22.9036 14.7421C22.7728 14.7292 22.6459 14.6907 22.53 14.6287C20.5219 13.5532 18.2792 12.9904 16.0013 12.9904C13.7233 12.9904 11.4806 13.5532 9.47251 14.6287C9.23845 14.7537 8.96433 14.7806 8.71046 14.7035C8.45658 14.6264 8.24374 14.4516 8.11876 14.2175C7.99377 13.9834 7.96689 13.7093 8.04401 13.4555C8.12113 13.2016 8.29595 12.9887 8.53001 12.8638C10.8282 11.6338 13.3946 10.9902 16.0013 10.9902C18.6079 10.9902 21.1743 11.6338 23.4725 12.8638C23.5887 12.9257 23.6914 13.01 23.7749 13.1117C23.8585 13.2135 23.921 13.3307 23.9591 13.4567C23.9972 13.5827 24.0101 13.715 23.9969 13.846C23.9838 13.977 23.9449 14.1041 23.8825 14.22L23.8838 14.2175ZM21.8838 17.7175C21.7591 17.9515 21.5466 18.1264 21.2929 18.2038C21.0393 18.2812 20.7653 18.2546 20.5313 18.13C19.1371 17.3863 17.5813 16.9973 16.0013 16.9973C14.4212 16.9973 12.8654 17.3863 11.4713 18.13C11.2377 18.2493 10.9666 18.2721 10.7165 18.1934C10.4663 18.1148 10.257 17.941 10.1338 17.7095C10.0105 17.478 9.98306 17.2074 10.0574 16.9559C10.1318 16.7044 10.3019 16.4922 10.5313 16.365C12.2148 15.4673 14.0933 14.9977 16.0013 14.9977C17.9092 14.9977 19.7878 15.4673 21.4713 16.365C21.5874 16.4268 21.6901 16.511 21.7736 16.6126C21.8572 16.7142 21.9198 16.8313 21.958 16.9572C21.9962 17.083 22.0092 17.2152 21.9963 17.3461C21.9833 17.477 21.9446 17.6041 21.8825 17.72L21.8838 17.7175Z" fill="#4A4A4F"/>
</svg>
