<svg width="32" height="32" viewBox="0 0 32 32" fill="none" xmlns="http://www.w3.org/2000/svg">
<path d="M15 5.5V26.5C15 26.6326 14.9473 26.7598 14.8536 26.8536C14.7598 26.9473 14.6326 27 14.5 27H7C6.46957 27 5.96086 26.7893 5.58579 26.4142C5.21071 26.0391 5 25.5304 5 25V7C5 6.46957 5.21071 5.96086 5.58579 5.58579C5.96086 5.21071 6.46957 5 7 5H14.5C14.6326 5 14.7598 5.05268 14.8536 5.14645C14.9473 5.24021 15 5.36739 15 5.5ZM25 5H17.5C17.3674 5 17.2402 5.05268 17.1464 5.14645C17.0527 5.24021 17 5.36739 17 5.5V26.5C17 26.6326 17.0527 26.7598 17.1464 26.8536C17.2402 26.9473 17.3674 27 17.5 27H25C25.5304 27 26.0391 26.7893 26.4142 26.4142C26.7893 26.0391 27 25.5304 27 25V7C27 6.46957 26.7893 5.96086 26.4142 5.58579C26.0391 5.21071 25.5304 5 25 5Z" fill="#4A4A4F"/>
</svg>
