<svg width="32" height="32" viewBox="0 0 32 32" fill="none" xmlns="http://www.w3.org/2000/svg">
<path d="M27.4999 21.136L15.9999 27.8423L4.49991 21.136C4.27221 21.0227 4.00987 21.0003 3.76629 21.0735C3.5227 21.1468 3.31618 21.3101 3.18875 21.5302C3.06132 21.7503 3.02256 22.0108 3.08037 22.2585C3.13818 22.5062 3.2882 22.7225 3.49991 22.8635L15.4999 29.8635C15.6528 29.9527 15.8266 29.9997 16.0037 29.9997C16.1807 29.9997 16.3545 29.9527 16.5074 29.8635L28.5074 22.8635C28.6227 22.7983 28.7238 22.7109 28.805 22.6062C28.8862 22.5016 28.9458 22.3819 28.9803 22.2541C29.0149 22.1262 29.0237 21.9928 29.0063 21.8615C28.9888 21.7303 28.9455 21.6038 28.8788 21.4894C28.8121 21.375 28.7233 21.275 28.6176 21.1952C28.512 21.1154 28.3915 21.0573 28.2632 21.0245C28.1349 20.9916 28.0014 20.9845 27.8704 21.0037C27.7393 21.0228 27.6134 21.0678 27.4999 21.136Z" fill="#4A4A4F"/>
<path d="M27.4999 15.136L15.9999 21.8423L4.49991 15.136C4.27221 15.0227 4.00987 15.0003 3.76629 15.0735C3.5227 15.1468 3.31618 15.3101 3.18875 15.5302C3.06132 15.7503 3.02256 16.0108 3.08037 16.2585C3.13818 16.5062 3.2882 16.7225 3.49991 16.8635L15.4999 23.8635C15.6528 23.9527 15.8266 23.9997 16.0037 23.9997C16.1807 23.9997 16.3545 23.9527 16.5074 23.8635L28.5074 16.8635C28.6227 16.7983 28.7238 16.7109 28.805 16.6062C28.8862 16.5016 28.9458 16.3819 28.9803 16.2541C29.0149 16.1262 29.0237 15.9928 29.0063 15.8615C28.9888 15.7303 28.9455 15.6038 28.8788 15.4894C28.8121 15.375 28.7233 15.275 28.6176 15.1952C28.512 15.1154 28.3915 15.0573 28.2632 15.0245C28.1349 14.9916 28.0014 14.9845 27.8704 15.0037C27.7393 15.0228 27.6134 15.0678 27.4999 15.136Z" fill="#4A4A4F"/>
<path d="M3.49999 10.8637L15.5 17.8637C15.6529 17.9528 15.8267 17.9998 16.0037 17.9998C16.1807 17.9998 16.3546 17.9528 16.5075 17.8637L28.5075 10.8637C28.6584 10.7756 28.7837 10.6495 28.8707 10.4979C28.9578 10.3464 29.0036 10.1747 29.0036 9.9999C29.0036 9.82513 28.9578 9.65342 28.8707 9.50187C28.7837 9.35031 28.6584 9.22422 28.5075 9.13615L16.5075 2.13615C16.3546 2.04698 16.1807 2 16.0037 2C15.8267 2 15.6529 2.04698 15.5 2.13615L3.49999 9.13615C3.34903 9.22422 3.22379 9.35031 3.13675 9.50187C3.04971 9.65342 3.00391 9.82513 3.00391 9.9999C3.00391 10.1747 3.04971 10.3464 3.13675 10.4979C3.22379 10.6495 3.34903 10.7756 3.49999 10.8637Z" fill="#4A4A4F"/>
</svg>
