<svg width="32" height="32" viewBox="0 0 32 32" fill="none" xmlns="http://www.w3.org/2000/svg">
<path d="M27 19.0115V27.0002C27 27.2654 26.8946 27.5198 26.7071 27.7073C26.5196 27.8949 26.2652 28.0002 26 28.0002H6C5.73478 28.0002 5.48043 27.8949 5.29289 27.7073C5.10536 27.5198 5 27.2654 5 27.0002V19.0115C5 18.7463 5.10536 18.4919 5.29289 18.3044C5.48043 18.1168 5.73478 18.0115 6 18.0115C6.26522 18.0115 6.51957 18.1168 6.70711 18.3044C6.89464 18.4919 7 18.7463 7 19.0115V26.0002H25V19.0115C25 18.7463 25.1054 18.4919 25.2929 18.3044C25.4804 18.1168 25.7348 18.0115 26 18.0115C26.2652 18.0115 26.5196 18.1168 26.7071 18.3044C26.8946 18.4919 27 18.7463 27 19.0115ZM11 23.0115H21C21.2652 23.0115 21.5196 22.9061 21.7071 22.7186C21.8946 22.5311 22 22.2767 22 22.0115C22 21.7463 21.8946 21.4919 21.7071 21.3044C21.5196 21.1168 21.2652 21.0115 21 21.0115H11C10.7348 21.0115 10.4804 21.1168 10.2929 21.3044C10.1054 21.4919 10 21.7463 10 22.0115C10 22.2767 10.1054 22.5311 10.2929 22.7186C10.4804 22.9061 10.7348 23.0115 11 23.0115ZM11.61 16.3865L21.2687 18.9715C21.3535 18.9947 21.4409 19.0064 21.5287 19.0065C21.77 19.0046 22.0024 18.9155 22.1831 18.7558C22.3638 18.596 22.4807 18.3763 22.5122 18.1371C22.5437 17.898 22.4878 17.6555 22.3546 17.4544C22.2214 17.2533 22.02 17.1071 21.7875 17.0427L12.125 14.4515C11.9945 14.4033 11.8554 14.3828 11.7166 14.3914C11.5778 14.4001 11.4423 14.4375 11.3188 14.5015C11.1952 14.5654 11.0864 14.6544 10.9992 14.7628C10.9121 14.8712 10.8485 14.9966 10.8125 15.1309C10.7765 15.2653 10.769 15.4057 10.7904 15.5431C10.8117 15.6806 10.8615 15.812 10.9366 15.9291C11.0116 16.0462 11.1103 16.1464 11.2262 16.2232C11.3422 16.3 11.4729 16.3518 11.61 16.3752V16.3865ZM13.9163 10.1452L22.5763 15.1452C22.69 15.2109 22.8156 15.2536 22.9458 15.2707C23.076 15.2878 23.2084 15.2792 23.3352 15.2451C23.4621 15.2111 23.5811 15.1525 23.6852 15.0725C23.7894 14.9925 23.8769 14.8928 23.9425 14.779C24.0744 14.5495 24.1099 14.277 24.0412 14.0214C23.9726 13.7658 23.8054 13.5478 23.5763 13.4152L14.9163 8.40898C14.8024 8.33663 14.6752 8.28804 14.5421 8.26616C14.409 8.24427 14.2729 8.24952 14.1419 8.28161C14.0109 8.3137 13.8877 8.37195 13.7798 8.45287C13.6719 8.53378 13.5815 8.63569 13.514 8.75245C13.4465 8.86922 13.4033 8.99843 13.3871 9.13231C13.3708 9.2662 13.3818 9.40199 13.4194 9.53152C13.457 9.66105 13.5203 9.78163 13.6057 9.88603C13.6911 9.99042 13.7967 10.0765 13.9163 10.139V10.1452ZM24.8325 11.7702C24.9254 11.8633 25.0357 11.9372 25.1572 11.9876C25.2787 12.038 25.4089 12.0641 25.5404 12.0642C25.6719 12.0643 25.8021 12.0385 25.9237 11.9883C26.0452 11.9381 26.1557 11.8644 26.2488 11.7715C26.3418 11.6786 26.4157 11.5682 26.4661 11.4468C26.5166 11.3253 26.5426 11.1951 26.5427 11.0636C26.5428 10.9321 26.517 10.8019 26.4668 10.6803C26.4166 10.5588 26.3429 10.4483 26.25 10.3552L19.1787 3.29273C18.9898 3.11294 18.7382 3.01405 18.4774 3.01716C18.2167 3.02027 17.9674 3.12512 17.7828 3.30936C17.5983 3.4936 17.493 3.74265 17.4894 4.00341C17.4859 4.26417 17.5843 4.51601 17.7638 4.70523L24.8325 11.7702Z" fill="#4A4A4F"/>
</svg>
