<svg width="32" height="32" viewBox="0 0 32 32" fill="none" xmlns="http://www.w3.org/2000/svg">
<path d="M1.49987 13.8752L15.4999 21.8752C15.651 21.9616 15.822 22.007 15.9961 22.007C16.1702 22.007 16.3412 21.9616 16.4924 21.8752L30.4924 13.8752C30.6457 13.7878 30.7731 13.6614 30.8618 13.5088C30.9504 13.3562 30.9971 13.1829 30.9971 13.0064C30.9971 12.83 30.9504 12.6566 30.8618 12.5041C30.7731 12.3515 30.6457 12.2251 30.4924 12.1377L16.4924 4.13768C16.3412 4.0513 16.1702 4.00586 15.9961 4.00586C15.822 4.00586 15.651 4.0513 15.4999 4.13768L1.49987 12.1377C1.34656 12.2251 1.21911 12.3515 1.13046 12.5041C1.04181 12.6566 0.995117 12.83 0.995117 13.0064C0.995117 13.1829 1.04181 13.3562 1.13046 13.5088C1.21911 13.6614 1.34656 13.7878 1.49987 13.8752Z" fill="#4A4A4F"/>
<path d="M29.5002 17.1312L16.0002 24.8487L2.50019 17.1312C2.38569 17.0656 2.25938 17.0231 2.12847 17.0063C1.99757 16.9894 1.86462 16.9985 1.73723 17.0331C1.60984 17.0676 1.4905 17.1269 1.38602 17.2075C1.28154 17.2882 1.19397 17.3886 1.12831 17.5031C1.06265 17.6176 1.02019 17.7439 1.00334 17.8748C0.986491 18.0057 0.995593 18.1387 1.03013 18.2661C1.06466 18.3935 1.12394 18.5128 1.2046 18.6173C1.28525 18.7218 1.38569 18.8093 1.50019 18.875L15.5002 26.875C15.6513 26.9614 15.8224 27.0068 15.9964 27.0068C16.1705 27.0068 16.3416 26.9614 16.4927 26.875L30.4927 18.875C30.6068 18.8098 30.7069 18.7228 30.7874 18.619C30.8678 18.5151 30.927 18.3964 30.9616 18.2696C30.9962 18.1429 31.0055 18.0106 30.989 17.8802C30.9724 17.7499 30.9304 17.6241 30.8652 17.51C30.8 17.3959 30.713 17.2958 30.6091 17.2153C30.5053 17.1348 30.3866 17.0756 30.2598 17.041C30.1331 17.0065 30.0008 16.9972 29.8704 17.0137C29.7401 17.0303 29.6143 17.0723 29.5002 17.1375V17.1312Z" fill="#4A4A4F"/>
</svg>
