<svg width="32" height="32" viewBox="0 0 32 32" fill="none" xmlns="http://www.w3.org/2000/svg">
<path d="M26 4H6C5.46957 4 4.96086 4.21071 4.58579 4.58579C4.21071 4.96086 4 5.46957 4 6V26C4 26.5304 4.21071 27.0391 4.58579 27.4142C4.96086 27.7893 5.46957 28 6 28H26C26.5304 28 27.0391 27.7893 27.4142 27.4142C27.7893 27.0391 28 26.5304 28 26V6C28 5.46957 27.7893 4.96086 27.4142 4.58579C27.0391 4.21071 26.5304 4 26 4ZM16.8575 5.8575C16.9504 5.76452 17.0607 5.69076 17.1821 5.64044C17.3035 5.59012 17.4336 5.56421 17.565 5.56421C17.6964 5.56421 17.8265 5.59012 17.9479 5.64044C18.0693 5.69076 18.1796 5.76452 18.2725 5.8575L23.9287 11.515C24.1084 11.7041 24.207 11.9558 24.2037 12.2166C24.2004 12.4773 24.0953 12.7265 23.9109 12.9109C23.7265 13.0953 23.4773 13.2004 23.2166 13.2037C22.9558 13.207 22.7041 13.1084 22.515 12.9288L16.8575 7.2725C16.7645 7.17963 16.6908 7.06934 16.6404 6.94794C16.5901 6.82654 16.5642 6.69642 16.5642 6.565C16.5642 6.43358 16.5901 6.30346 16.6404 6.18206C16.6908 6.06066 16.7645 5.95037 16.8575 5.8575ZM12.5225 12.3462C12.624 12.1013 12.8186 11.9067 13.0636 11.8052C13.3085 11.7037 13.5838 11.7036 13.8287 11.805L21.22 14.8663C21.4344 14.9543 21.6116 15.1142 21.7212 15.3185C21.8308 15.5227 21.866 15.7588 21.8209 15.9861C21.7757 16.2135 21.6529 16.4181 21.4735 16.565C21.2942 16.7119 21.0693 16.7918 20.8375 16.7913C20.7061 16.7912 20.5761 16.7648 20.455 16.7138L13.0638 13.6525C12.8188 13.551 12.6242 13.3564 12.5227 13.1114C12.4212 12.8665 12.4211 12.5912 12.5225 12.3462ZM12 19H20C20.2652 19 20.5196 19.1054 20.7071 19.2929C20.8946 19.4804 21 19.7348 21 20C21 20.2652 20.8946 20.5196 20.7071 20.7071C20.5196 20.8946 20.2652 21 20 21H12C11.7348 21 11.4804 20.8946 11.2929 20.7071C11.1054 20.5196 11 20.2652 11 20C11 19.7348 11.1054 19.4804 11.2929 19.2929C11.4804 19.1054 11.7348 19 12 19ZM25 24C25 24.2652 24.8946 24.5196 24.7071 24.7071C24.5196 24.8946 24.2652 25 24 25H8C7.73478 25 7.48043 24.8946 7.29289 24.7071C7.10536 24.5196 7 24.2652 7 24V18C7 17.7348 7.10536 17.4804 7.29289 17.2929C7.48043 17.1054 7.73478 17 8 17C8.26522 17 8.51957 17.1054 8.70711 17.2929C8.89464 17.4804 9 17.7348 9 18V23H23V18C23 17.7348 23.1054 17.4804 23.2929 17.2929C23.4804 17.1054 23.7348 17 24 17C24.2652 17 24.5196 17.1054 24.7071 17.2929C24.8946 17.4804 25 17.7348 25 18V24Z" fill="#4A4A4F"/>
</svg>
