<svg width="32" height="32" viewBox="0 0 32 32" fill="none" xmlns="http://www.w3.org/2000/svg">
<path d="M28 28C28 28.2652 27.8946 28.5196 27.7071 28.7071C27.5196 28.8946 27.2652 29 27 29H5C4.73478 29 4.48043 28.8946 4.29289 28.7071C4.10536 28.5196 4 28.2652 4 28C4 27.7348 4.10536 27.4804 4.29289 27.2929C4.48043 27.1054 4.73478 27 5 27H27C27.2652 27 27.5196 27.1054 27.7071 27.2929C27.8946 27.4804 28 27.7348 28 28ZM26 16H18.9463L20.91 6.83875C21.0351 6.25561 21.0281 5.65189 20.8897 5.07178C20.7513 4.49166 20.485 3.94984 20.1101 3.48596C19.7353 3.02208 19.2615 2.6479 18.7233 2.39079C18.1852 2.13368 17.5964 2.00016 17 2H15C14.4036 2.00016 13.8148 2.13368 13.2767 2.39079C12.7385 2.6479 12.2647 3.02208 11.8899 3.48596C11.515 3.94984 11.2487 4.49166 11.1103 5.07178C10.9719 5.65189 10.9649 6.25561 11.09 6.83875L13.0538 16H6C5.46957 16 4.96086 16.2107 4.58579 16.5858C4.21071 16.9609 4 17.4696 4 18V23C4 23.5304 4.21071 24.0391 4.58579 24.4142C4.96086 24.7893 5.46957 25 6 25H26C26.5304 25 27.0391 24.7893 27.4142 24.4142C27.7893 24.0391 28 23.5304 28 23V18C28 17.4696 27.7893 16.9609 27.4142 16.5858C27.0391 16.2107 26.5304 16 26 16Z" fill="#4A4A4F"/>
</svg>
