<svg width="32" height="32" viewBox="0 0 32 32" fill="none" xmlns="http://www.w3.org/2000/svg">
<path d="M19.455 24.9101C17.8118 24.0728 16.4322 22.7974 15.4686 21.225C14.505 19.6525 13.995 17.8443 13.995 16.0001C13.995 14.1559 14.505 12.3476 15.4686 10.7751C16.4322 9.20269 17.8118 7.92733 19.455 7.09006C19.6191 7.00626 19.7569 6.87874 19.8531 6.72158C19.9493 6.56441 20.0003 6.38371 20.0003 6.19943C20.0003 6.01516 19.9493 5.83446 19.8531 5.67729C19.7569 5.52013 19.6191 5.39261 19.455 5.30881C17.7674 4.44284 15.8968 3.99405 14 4.00006C10.8174 4.00006 7.76515 5.26434 5.51472 7.51478C3.26428 9.76521 2 12.8175 2 16.0001C2 19.1827 3.26428 22.2349 5.51472 24.4853C7.76515 26.7358 10.8174 28.0001 14 28.0001C15.8968 28.0061 17.7674 27.5573 19.455 26.6913C19.6191 26.6075 19.7569 26.48 19.8531 26.3228C19.9493 26.1657 20.0003 25.985 20.0003 25.8007C20.0003 25.6164 19.9493 25.4357 19.8531 25.2785C19.7569 25.1214 19.6191 24.9939 19.455 24.9101ZM14 26.0001C12.5688 25.9976 11.1547 25.6879 9.85347 25.092C8.5522 24.4961 7.39401 23.6277 6.45718 22.5457C5.52034 21.4637 4.82669 20.1932 4.42309 18.82C4.01949 17.4469 3.91535 16.0031 4.11771 14.5862C4.32006 13.1694 4.8242 11.8124 5.59605 10.6072C6.36791 9.4019 7.38949 8.37635 8.59176 7.59983C9.79403 6.82332 11.149 6.31393 12.565 6.10608C13.9811 5.89824 15.4253 5.99678 16.8 6.39506C15.3095 7.51387 14.0999 8.96419 13.2668 10.6313C12.4337 12.2983 12 14.1364 12 16.0001C12 17.8637 12.4337 19.7018 13.2668 21.3689C14.0999 23.0359 15.3095 24.4862 16.8 25.6051C15.8902 25.869 14.9474 26.002 14 26.0001ZM31.3962 15.0813L28.0837 13.6526L27.795 9.92256C27.7794 9.72406 27.7048 9.53474 27.5809 9.37887C27.457 9.223 27.2894 9.10767 27.0995 9.04765C26.9097 8.98763 26.7062 8.98566 26.5152 9.04198C26.3242 9.09831 26.1544 9.21037 26.0275 9.36381L23.7038 12.1776L20.24 11.3213C20.049 11.2743 19.8484 11.2847 19.6633 11.3511C19.4782 11.4175 19.3168 11.537 19.1992 11.6947C19.0817 11.8524 19.0133 12.0413 19.0025 12.2376C18.9917 12.434 19.0391 12.6292 19.1388 12.7988L21.0225 16.0001L19.1388 19.2013C19.0391 19.3709 18.9917 19.5661 19.0025 19.7625C19.0133 19.9589 19.0817 20.1477 19.1992 20.3054C19.3168 20.4631 19.4782 20.5826 19.6633 20.649C19.8484 20.7155 20.049 20.7258 20.24 20.6788L23.7038 19.8226L26.0275 22.6363C26.1544 22.7897 26.3242 22.9018 26.5152 22.9581C26.7062 23.0145 26.9097 23.0125 27.0995 22.9525C27.2894 22.8925 27.457 22.7771 27.5809 22.6212C27.7048 22.4654 27.7794 22.2761 27.795 22.0776L28.0837 18.3476L31.3962 16.9188C31.5759 16.8416 31.729 16.7134 31.8365 16.5501C31.9441 16.3868 32.0014 16.1956 32.0014 16.0001C32.0014 15.8045 31.9441 15.6133 31.8365 15.45C31.729 15.2867 31.5759 15.1585 31.3962 15.0813ZM26.7362 16.7501C26.5691 16.8224 26.4249 16.9389 26.3192 17.0872C26.2134 17.2354 26.1502 17.4097 26.1362 17.5913L25.9925 19.4526L24.845 18.0638C24.7512 17.9501 24.6334 17.8585 24.5001 17.7956C24.3668 17.7327 24.2212 17.7001 24.0737 17.7001C23.9929 17.7004 23.9124 17.71 23.8337 17.7288L22.0688 18.1663L23.045 16.5076C23.1356 16.3538 23.1833 16.1785 23.1833 16.0001C23.1833 15.8216 23.1356 15.6463 23.045 15.4926L22.0688 13.8338L23.8337 14.2713C24.0167 14.3164 24.2088 14.3089 24.3877 14.2497C24.5666 14.1904 24.7251 14.0818 24.845 13.9363L25.9925 12.5476L26.1362 14.4088C26.1502 14.5904 26.2134 14.7647 26.3192 14.9129C26.4249 15.0612 26.5691 15.1778 26.7362 15.2501L28.4762 16.0001L26.7362 16.7501Z" fill="#4A4A4F"/>
</svg>
