<svg width="32" height="32" viewBox="0 0 32 32" fill="none" xmlns="http://www.w3.org/2000/svg">
<path d="M29.8999 12.1615C29.7788 11.7882 29.5506 11.4588 29.2436 11.2143C28.9367 10.9698 28.5646 10.821 28.1737 10.7865L20.7499 10.1465L17.8399 3.22649C17.6884 2.86338 17.4329 2.55322 17.1054 2.33506C16.778 2.1169 16.3934 2.00049 15.9999 2.00049C15.6065 2.00049 15.2218 2.1169 14.8944 2.33506C14.567 2.55322 14.3114 2.86338 14.1599 3.22649L11.2587 10.1465L3.82618 10.7902C3.43372 10.8232 3.05974 10.9713 2.75113 11.216C2.44251 11.4607 2.21301 11.791 2.0914 12.1656C1.96978 12.5402 1.96147 12.9424 2.0675 13.3217C2.17353 13.701 2.38919 14.0405 2.68743 14.2977L8.32618 19.2252L6.63618 26.5427C6.54682 26.9257 6.57232 27.3264 6.70949 27.695C6.84666 28.0635 7.08943 28.3834 7.40742 28.6147C7.72542 28.846 8.10455 28.9784 8.4974 28.9954C8.89025 29.0124 9.27939 28.9132 9.61618 28.7102L15.9912 24.8352L22.3799 28.7102C22.7167 28.9132 23.1059 29.0124 23.4987 28.9954C23.8916 28.9784 24.2707 28.846 24.5887 28.6147C24.9067 28.3834 25.1494 28.0635 25.2866 27.695C25.4238 27.3264 25.4493 26.9257 25.3599 26.5427L23.6712 19.2177L29.3087 14.2977C29.6069 14.0396 29.8221 13.6991 29.9273 13.319C30.0325 12.9389 30.023 12.5362 29.8999 12.1615ZM27.9974 12.7865L22.3599 17.7065C22.0856 17.9452 21.8814 18.2541 21.7696 18.6001C21.6577 18.9461 21.6422 19.3161 21.7249 19.6702L23.4187 27.0002L17.0349 23.1252C16.7235 22.9356 16.3658 22.8352 16.0012 22.8352C15.6365 22.8352 15.2789 22.9356 14.9674 23.1252L8.59243 27.0002L10.2749 19.6752C10.3576 19.3211 10.3422 18.9511 10.2303 18.6051C10.1184 18.2591 9.9143 17.9502 9.63993 17.7115L3.99993 12.794C3.99947 12.7903 3.99947 12.7865 3.99993 12.7827L11.4299 12.1402C11.7927 12.1083 12.1398 11.9779 12.4339 11.7631C12.728 11.5483 12.9578 11.2573 13.0987 10.9215L15.9999 4.01024L18.8999 10.9215C19.0408 11.2573 19.2706 11.5483 19.5647 11.7631C19.8588 11.9779 20.2059 12.1083 20.5687 12.1402L27.9999 12.7827C27.9999 12.7827 27.9999 12.7902 27.9999 12.7915L27.9974 12.7865Z" fill="#4A4A4F"/>
</svg>
