<svg width="32" height="32" viewBox="0 0 32 32" fill="none" xmlns="http://www.w3.org/2000/svg">
<path d="M25.1511 15.9999L28.8748 9.49987C28.963 9.34719 29.0092 9.17391 29.0088 8.99761C29.0084 8.82131 28.9614 8.64824 28.8726 8.49595C28.7838 8.34367 28.6562 8.21757 28.503 8.13045C28.3497 8.04333 28.1761 7.99828 27.9998 7.99987H20.5811L16.8748 1.49987C16.7874 1.34656 16.661 1.21911 16.5084 1.13046C16.3559 1.04181 16.1825 0.995117 16.0061 0.995117C15.8296 0.995117 15.6563 1.04181 15.5037 1.13046C15.3511 1.21911 15.2247 1.34656 15.1373 1.49987L11.4161 7.99987H3.99982C3.82405 7.99939 3.65126 8.04524 3.49886 8.13282C3.34646 8.22039 3.21984 8.34658 3.13175 8.49868C3.04366 8.65078 2.99721 8.82342 2.99709 8.99918C2.99697 9.17495 3.04318 9.34765 3.13107 9.49987L6.84607 15.9999L3.13107 22.4999C3.04291 22.6525 2.99668 22.8258 2.99707 23.0021C2.99746 23.1784 3.04446 23.3515 3.13329 23.5038C3.22213 23.6561 3.34964 23.7822 3.50292 23.8693C3.65619 23.9564 3.82977 24.0015 4.00607 23.9999H11.4161L15.1311 30.4999C15.2185 30.6532 15.3449 30.7806 15.4974 30.8693C15.65 30.9579 15.8234 31.0046 15.9998 31.0046C16.1763 31.0046 16.3496 30.9579 16.5022 30.8693C16.6548 30.7806 16.7812 30.6532 16.8686 30.4999L20.5811 23.9999H27.9998C28.1761 24.0015 28.3497 23.9564 28.503 23.8693C28.6562 23.7822 28.7838 23.6561 28.8726 23.5038C28.9614 23.3515 29.0084 23.1784 29.0088 23.0021C29.0092 22.8258 28.963 22.6525 28.8748 22.4999L25.1511 15.9999ZM22.8486 15.9999L19.4211 21.9999H12.5773L9.14982 15.9999L12.5773 9.99987H19.4211L22.8486 15.9999Z" fill="#4A4A4F"/>
</svg>
