<svg width="32" height="32" viewBox="0 0 32 32" fill="none" xmlns="http://www.w3.org/2000/svg">
<path d="M29.8998 12.1615C29.7787 11.7882 29.5504 11.4588 29.2435 11.2143C28.9365 10.9698 28.5644 10.821 28.1735 10.7865L20.7498 10.1465L17.8398 3.22649C17.6883 2.86338 17.4327 2.55322 17.1053 2.33506C16.7779 2.1169 16.3932 2.00049 15.9998 2.00049C15.6063 2.00049 15.2217 2.1169 14.8943 2.33506C14.5668 2.55322 14.3113 2.86338 14.1598 3.22649L11.2585 10.1465L3.82604 10.789C3.4333 10.8217 3.05899 10.9698 2.7501 11.2145C2.44121 11.4593 2.21152 11.7898 2.08987 12.1647C1.96821 12.5395 1.96001 12.942 2.0663 13.3215C2.17259 13.701 2.38863 14.0406 2.68729 14.2977L8.32604 19.2252L6.63604 26.5427C6.54667 26.9257 6.57217 27.3264 6.70935 27.695C6.84652 28.0635 7.08928 28.3834 7.40728 28.6147C7.72528 28.846 8.1044 28.9784 8.49725 28.9954C8.89011 29.0124 9.27925 28.9132 9.61604 28.7102L15.991 24.8352L22.3798 28.7102C22.7166 28.9132 23.1057 29.0124 23.4986 28.9954C23.8914 28.9784 24.2705 28.846 24.5885 28.6147C24.9065 28.3834 25.1493 28.0635 25.2865 27.695C25.4237 27.3264 25.4492 26.9257 25.3598 26.5427L23.671 19.2177L29.3085 14.2977C29.6067 14.0396 29.822 13.6991 29.9272 13.319C30.0324 12.9389 30.0228 12.5362 29.8998 12.1615ZM27.9973 12.7865L22.3598 17.7065C22.0854 17.9452 21.8813 18.2541 21.7694 18.6001C21.6575 18.9461 21.6421 19.3161 21.7248 19.6702L23.4185 27.0002L17.0348 23.1252C16.7233 22.9356 16.3657 22.8352 16.001 22.8352V4.01149L18.901 10.9215C19.0419 11.2573 19.2717 11.5483 19.5658 11.7631C19.8599 11.9779 20.207 12.1083 20.5698 12.1402L27.9998 12.7827C27.9998 12.7827 27.9998 12.7902 27.9998 12.7915L27.9973 12.7865Z" fill="#4A4A4F"/>
</svg>
