<svg width="32" height="32" viewBox="0 0 32 32" fill="none" xmlns="http://www.w3.org/2000/svg">
<path d="M20 25.8001C20.0001 25.9844 19.9493 26.1652 19.8531 26.3225C19.757 26.4798 19.6192 26.6074 19.455 26.6913C17.7674 27.5573 15.8968 28.0061 14 28.0001C10.8174 28.0001 7.76515 26.7358 5.51472 24.4853C3.26428 22.2349 2 19.1827 2 16.0001C2 12.8175 3.26428 9.76521 5.51472 7.51478C7.76515 5.26434 10.8174 4.00006 14 4.00006C15.8968 3.99405 17.7674 4.44284 19.455 5.30881C19.6191 5.39261 19.7569 5.52013 19.8531 5.67729C19.9493 5.83446 20.0003 6.01516 20.0003 6.19943C20.0003 6.38371 19.9493 6.56441 19.8531 6.72158C19.7569 6.87874 19.6191 7.00626 19.455 7.09006C17.8118 7.92733 16.4322 9.20269 15.4686 10.7751C14.505 12.3476 13.995 14.1559 13.995 16.0001C13.995 17.8443 14.505 19.6525 15.4686 21.225C16.4322 22.7974 17.8118 24.0728 19.455 24.9101C19.619 24.9938 19.7566 25.1213 19.8528 25.2783C19.949 25.4354 19.9999 25.6159 20 25.8001ZM31.3962 15.0813L28.0837 13.6526L27.795 9.92256C27.7794 9.72406 27.7048 9.53474 27.5809 9.37887C27.457 9.223 27.2894 9.10767 27.0995 9.04765C26.9097 8.98763 26.7062 8.98566 26.5152 9.04198C26.3242 9.09831 26.1544 9.21037 26.0275 9.36381L23.7038 12.1776L20.24 11.3213C20.049 11.2743 19.8484 11.2847 19.6633 11.3511C19.4782 11.4175 19.3168 11.537 19.1992 11.6947C19.0817 11.8524 19.0133 12.0413 19.0025 12.2376C18.9917 12.434 19.0391 12.6292 19.1388 12.7988L21.0225 16.0001L19.1388 19.2013C19.0391 19.3709 18.9917 19.5661 19.0025 19.7625C19.0133 19.9589 19.0817 20.1477 19.1992 20.3054C19.3168 20.4631 19.4782 20.5826 19.6633 20.649C19.8484 20.7155 20.049 20.7258 20.24 20.6788L23.7038 19.8226L26.0275 22.6363C26.1544 22.7897 26.3242 22.9018 26.5152 22.9581C26.7062 23.0145 26.9097 23.0125 27.0995 22.9525C27.2894 22.8925 27.457 22.7771 27.5809 22.6212C27.7048 22.4654 27.7794 22.2761 27.795 22.0776L28.0837 18.3476L31.3962 16.9188C31.5759 16.8416 31.729 16.7134 31.8365 16.5501C31.9441 16.3868 32.0014 16.1956 32.0014 16.0001C32.0014 15.8045 31.9441 15.6133 31.8365 15.45C31.729 15.2867 31.5759 15.1585 31.3962 15.0813Z" fill="#4A4A4F"/>
</svg>
