<svg width="32" height="32" viewBox="0 0 32 32" fill="none" xmlns="http://www.w3.org/2000/svg">
<path d="M29.3124 14.2977L23.6749 19.2177L25.3637 26.5427C25.453 26.9257 25.4275 27.3264 25.2904 27.695C25.1532 28.0635 24.9104 28.3834 24.5924 28.6147C24.2744 28.846 23.8953 28.9784 23.5025 28.9954C23.1096 29.0124 22.7205 28.9132 22.3837 28.7102L15.9949 24.8352L9.61993 28.7102C9.28314 28.9132 8.894 29.0124 8.50115 28.9954C8.1083 28.9784 7.72917 28.846 7.41117 28.6147C7.09317 28.3834 6.85041 28.0635 6.71324 27.695C6.57607 27.3264 6.55057 26.9257 6.63993 26.5427L8.32618 19.2252L2.68743 14.2977C2.38919 14.0405 2.17353 13.701 2.0675 13.3217C1.96147 12.9424 1.96978 12.5402 2.0914 12.1656C2.21301 11.791 2.44251 11.4607 2.75113 11.216C3.05974 10.9713 3.43372 10.8232 3.82618 10.7902L11.2587 10.1465L14.1599 3.22649C14.3114 2.86338 14.567 2.55322 14.8944 2.33506C15.2218 2.1169 15.6065 2.00049 15.9999 2.00049C16.3934 2.00049 16.778 2.1169 17.1054 2.33506C17.4329 2.55322 17.6884 2.86338 17.8399 3.22649L20.7499 10.1465L28.1799 10.7902C28.5724 10.8232 28.9464 10.9713 29.255 11.216C29.5636 11.4607 29.7931 11.791 29.9147 12.1656C30.0363 12.5402 30.0446 12.9424 29.9386 13.3217C29.8326 13.701 29.6169 14.0405 29.3187 14.2977H29.3124Z" fill="#4A4A4F"/>
</svg>
