<svg width="32" height="32" viewBox="0 0 32 32" fill="none" xmlns="http://www.w3.org/2000/svg">
<path d="M30.0001 15.9998C30.0033 16.41 29.8786 16.811 29.6433 17.147C29.4081 17.483 29.0741 17.7374 28.6876 17.8748L20.7576 20.7586L17.8751 28.6873C17.733 29.0701 17.4772 29.4002 17.142 29.6333C16.8068 29.8664 16.4083 29.9914 16.0001 29.9914C15.5918 29.9914 15.1933 29.8664 14.8581 29.6333C14.523 29.4002 14.2671 29.0701 14.1251 28.6873L11.2413 20.7498L3.31257 17.8748C2.92982 17.7328 2.59971 17.4769 2.3666 17.1418C2.13349 16.8066 2.00854 16.4081 2.00854 15.9998C2.00854 15.5916 2.13349 15.1931 2.3666 14.8579C2.59971 14.5227 2.92982 14.2669 3.31257 14.1248L11.2501 11.2411L14.1251 3.31233C14.2671 2.92958 14.523 2.59947 14.8581 2.36636C15.1933 2.13325 15.5918 2.0083 16.0001 2.0083C16.4083 2.0083 16.8068 2.13325 17.142 2.36636C17.4772 2.59947 17.733 2.92958 17.8751 3.31233L20.7588 11.2498L28.6876 14.1248C29.0741 14.2622 29.4081 14.5166 29.6433 14.8527C29.8786 15.1887 30.0033 15.5897 30.0001 15.9998Z" fill="#4A4A4F"/>
</svg>
