<svg width="32" height="32" viewBox="0 0 32 32" fill="none" xmlns="http://www.w3.org/2000/svg">
<path d="M28.6876 14.1248L20.7588 11.2498L17.8751 3.31233C17.733 2.92958 17.4772 2.59947 17.142 2.36636C16.8068 2.13325 16.4083 2.0083 16.0001 2.0083C15.5918 2.0083 15.1933 2.13325 14.8581 2.36636C14.523 2.59947 14.2671 2.92958 14.1251 3.31233L11.2501 11.2411L3.31257 14.1248C2.92982 14.2669 2.59971 14.5227 2.3666 14.8579C2.13349 15.1931 2.00854 15.5916 2.00854 15.9998C2.00854 16.4081 2.13349 16.8066 2.3666 17.1418C2.59971 17.4769 2.92982 17.7328 3.31257 17.8748L11.2413 20.7498L14.1251 28.6873C14.2671 29.0701 14.523 29.4002 14.8581 29.6333C15.1933 29.8664 15.5918 29.9914 16.0001 29.9914C16.4083 29.9914 16.8068 29.8664 17.142 29.6333C17.4772 29.4002 17.733 29.0701 17.8751 28.6873L20.7588 20.7573L28.6876 17.8748C29.0703 17.7328 29.4004 17.4769 29.6335 17.1418C29.8667 16.8066 29.9916 16.4081 29.9916 15.9998C29.9916 15.5916 29.8667 15.1931 29.6335 14.8579C29.4004 14.5227 29.0703 14.2669 28.6876 14.1248ZM20.0713 18.8748C19.7977 18.9748 19.5492 19.1333 19.3432 19.3392C19.1373 19.5452 18.9788 19.7937 18.8788 20.0673L16.0001 27.9873L13.1251 20.0711C13.0252 19.7964 12.8663 19.5469 12.6597 19.3402C12.453 19.1336 12.2035 18.9747 11.9288 18.8748L4.01257 15.9998L11.9288 13.1248C12.2035 13.025 12.453 12.8661 12.6597 12.6594C12.8663 12.4527 13.0252 12.2033 13.1251 11.9286L16.0001 4.01233L18.8751 11.9286C18.975 12.2022 19.1335 12.4507 19.3395 12.6567C19.5455 12.8626 19.794 13.0211 20.0676 13.1211L27.9838 15.9961L20.0713 18.8748Z" fill="#4A4A4F"/>
</svg>
