<svg width="32" height="32" viewBox="0 0 32 32" fill="none" xmlns="http://www.w3.org/2000/svg">
<path d="M16 19C15.7033 19 15.4133 18.912 15.1667 18.7472C14.92 18.5824 14.7277 18.3481 14.6142 18.074C14.5007 17.7999 14.471 17.4983 14.5288 17.2074C14.5867 16.9164 14.7296 16.6491 14.9393 16.4393C15.1491 16.2296 15.4164 16.0867 15.7074 16.0288C15.9983 15.9709 16.2999 16.0007 16.574 16.1142C16.8481 16.2277 17.0824 16.42 17.2472 16.6666C17.412 16.9133 17.5 17.2033 17.5 17.5C17.5 17.8978 17.342 18.2794 17.0607 18.5607C16.7794 18.842 16.3978 19 16 19ZM29 16C29 18.5712 28.2376 21.0846 26.8091 23.2224C25.3807 25.3603 23.3503 27.0265 20.9749 28.0104C18.5995 28.9944 15.9856 29.2518 13.4638 28.7502C10.9421 28.2486 8.6257 27.0105 6.80762 25.1924C4.98953 23.3743 3.75141 21.0579 3.2498 18.5362C2.74819 16.0144 3.00563 13.4006 3.98957 11.0251C4.97351 8.64968 6.63975 6.61935 8.77759 5.1909C10.9154 3.76244 13.4288 3 16 3C19.4467 3.00364 22.7512 4.37445 25.1884 6.81163C27.6256 9.24882 28.9964 12.5533 29 16ZM5.00001 16V16.0413C8.07141 13.4323 11.9701 12 16 12C20.0299 12 23.9286 13.4323 27 16.0413V16C27 13.0826 25.8411 10.2847 23.7782 8.22183C21.7153 6.15893 18.9174 5 16 5C13.0826 5 10.2847 6.15893 8.22183 8.22183C6.15893 10.2847 5.00001 13.0826 5.00001 16ZM13.4375 26.6975L11.3063 21H6.20376C6.92859 22.4142 7.95009 23.6553 9.1985 24.6386C10.4469 25.6219 11.8928 26.3242 13.4375 26.6975ZM16 27C16.1038 27 16.2075 27 16.3113 27L18.82 20.3037C18.964 19.9227 19.2204 19.5944 19.5553 19.3624C19.8902 19.1305 20.2876 19.0058 20.695 19.005H26.585C26.6325 18.8412 26.675 18.675 26.71 18.505C25.3134 17.0801 23.6467 15.9482 21.8072 15.1754C19.9678 14.4027 17.9927 14.0046 15.9975 14.0046C14.0023 14.0046 12.0272 14.4027 10.1878 15.1754C8.34836 15.9482 6.68157 17.0801 5.28501 18.505C5.32376 18.6725 5.36626 18.8387 5.41001 19.005H11.3063C11.7137 19.0061 12.1112 19.131 12.4461 19.3632C12.7809 19.5953 13.0373 19.9238 13.1813 20.305L15.6813 27C15.7888 27 15.8938 27 16 27ZM25.7963 21H20.6938L18.5575 26.6987C20.1032 26.326 21.5502 25.6239 22.7996 24.6403C24.0489 23.6568 25.0711 22.415 25.7963 21Z" fill="#4A4A4F"/>
</svg>
