<svg width="32" height="32" viewBox="0 0 32 32" fill="none" xmlns="http://www.w3.org/2000/svg">
<path d="M26.5 19C26.5 19.2967 26.412 19.5867 26.2472 19.8334C26.0824 20.08 25.8481 20.2723 25.574 20.3858C25.2999 20.4993 24.9983 20.5291 24.7074 20.4712C24.4164 20.4133 24.1491 20.2704 23.9393 20.0607C23.7296 19.8509 23.5867 19.5836 23.5288 19.2926C23.4709 19.0017 23.5007 18.7001 23.6142 18.426C23.7277 18.1519 23.92 17.9176 24.1666 17.7528C24.4133 17.588 24.7033 17.5 25 17.5C25.3978 17.5 25.7794 17.658 26.0607 17.9393C26.342 18.2206 26.5 18.6022 26.5 19ZM25.9312 23.9112C25.7116 25.3273 24.9932 26.6182 23.9057 27.5513C22.8181 28.4844 21.433 28.9982 20 29H17C15.4092 28.9983 13.884 28.3657 12.7592 27.2408C11.6343 26.116 11.0017 24.5908 11 23V17.9363C9.06691 17.6927 7.28915 16.7521 6.00033 15.2909C4.71152 13.8297 4.00024 11.9484 4 10V5C4 4.46957 4.21071 3.96086 4.58579 3.58579C4.96086 3.21071 5.46957 3 6 3H8C8.26522 3 8.51957 3.10536 8.70711 3.29289C8.89464 3.48043 9 3.73478 9 4C9 4.26522 8.89464 4.51957 8.70711 4.70711C8.51957 4.89464 8.26522 5 8 5H6V10C5.99993 10.7947 6.15773 11.5815 6.46425 12.3147C6.77077 13.0479 7.2199 13.713 7.78555 14.2712C8.3512 14.8294 9.02211 15.2697 9.75932 15.5664C10.4965 15.8632 11.2854 16.0106 12.08 16C15.3438 15.9575 18 13.2188 18 9.89625V5H16C15.7348 5 15.4804 4.89464 15.2929 4.70711C15.1054 4.51957 15 4.26522 15 4C15 3.73478 15.1054 3.48043 15.2929 3.29289C15.4804 3.10536 15.7348 3 16 3H18C18.5304 3 19.0391 3.21071 19.4142 3.58579C19.7893 3.96086 20 4.46957 20 5V9.89625C20 14.0012 16.9338 17.4325 13 17.935V23C13 24.0609 13.4214 25.0783 14.1716 25.8284C14.9217 26.5786 15.9391 27 17 27H20C20.9084 26.9985 21.7893 26.6884 22.4983 26.1207C23.2074 25.5529 23.7025 24.7611 23.9025 23.875C22.6948 23.6037 21.6306 22.8941 20.916 21.8835C20.2013 20.8729 19.8869 19.6331 20.0336 18.404C20.1803 17.1749 20.7776 16.0439 21.7101 15.2299C22.6426 14.4159 23.8439 13.9767 25.0815 13.9972C26.3191 14.0178 27.5051 14.4968 28.41 15.3414C29.3149 16.186 29.8743 17.3362 29.98 18.5694C30.0858 19.8027 29.7303 21.0314 28.9824 22.0177C28.2345 23.004 27.1473 23.6778 25.9312 23.9088V23.9112ZM28 19C28 18.4067 27.8241 17.8266 27.4944 17.3333C27.1648 16.8399 26.6962 16.4554 26.1481 16.2284C25.5999 16.0013 24.9967 15.9419 24.4147 16.0576C23.8328 16.1734 23.2982 16.4591 22.8787 16.8787C22.4591 17.2982 22.1734 17.8328 22.0576 18.4147C21.9419 18.9967 22.0013 19.5999 22.2284 20.1481C22.4554 20.6962 22.8399 21.1648 23.3333 21.4944C23.8266 21.8241 24.4067 22 25 22C25.7956 22 26.5587 21.6839 27.1213 21.1213C27.6839 20.5587 28 19.7956 28 19Z" fill="#4A4A4F"/>
</svg>
