<svg width="32" height="32" viewBox="0 0 32 32" fill="none" xmlns="http://www.w3.org/2000/svg">
<path d="M8.50007 19C7.61005 19 6.74002 19.2639 6 19.7584C5.25998 20.2529 4.6832 20.9557 4.34261 21.7779C4.00202 22.6002 3.9129 23.505 4.08653 24.3779C4.26017 25.2508 4.68875 26.0526 5.31809 26.682C5.94742 27.3113 6.74925 27.7399 7.62216 27.9135C8.49508 28.0872 9.39988 27.9981 10.2221 27.6575C11.0444 27.3169 11.7472 26.7401 12.2417 26.0001C12.7361 25.26 13.0001 24.39 13.0001 23.5C13.0001 22.3065 12.526 21.1619 11.682 20.318C10.8381 19.4741 9.69354 19 8.50007 19ZM8.50007 26C8.00561 26 7.52226 25.8534 7.11114 25.5787C6.70002 25.304 6.37959 24.9135 6.19037 24.4567C6.00115 23.9999 5.95164 23.4972 6.0481 23.0123C6.14457 22.5273 6.38267 22.0819 6.7323 21.7322C7.08193 21.3826 7.52739 21.1445 8.01234 21.048C8.49729 20.9516 8.99996 21.0011 9.45678 21.1903C9.91359 21.3795 10.304 21.7 10.5787 22.1111C10.8534 22.5222 11.0001 23.0055 11.0001 23.5C11.0001 24.163 10.7367 24.7989 10.2678 25.2678C9.79899 25.7366 9.16311 26 8.50007 26ZM4.29257 13.2925L6.08632 11.5L4.29257 9.7075C4.10493 9.51986 3.99951 9.26536 3.99951 9C3.99951 8.73464 4.10493 8.48014 4.29257 8.2925C4.48021 8.10486 4.7347 7.99944 5.00007 7.99944C5.26543 7.99944 5.51993 8.10486 5.70757 8.2925L7.50007 10.0863L9.29257 8.2925C9.48021 8.10486 9.7347 7.99944 10.0001 7.99944C10.2654 7.99944 10.5199 8.10486 10.7076 8.2925C10.8952 8.48014 11.0006 8.73464 11.0006 9C11.0006 9.26536 10.8952 9.51986 10.7076 9.7075L8.91382 11.5L10.7076 13.2925C10.8952 13.4801 11.0006 13.7346 11.0006 14C11.0006 14.2654 10.8952 14.5199 10.7076 14.7075C10.5199 14.8951 10.2654 15.0006 10.0001 15.0006C9.7347 15.0006 9.48021 14.8951 9.29257 14.7075L7.50007 12.9137L5.70757 14.7075C5.51993 14.8951 5.26543 15.0006 5.00007 15.0006C4.7347 15.0006 4.48021 14.8951 4.29257 14.7075C4.10493 14.5199 3.99951 14.2654 3.99951 14C3.99951 13.7346 4.10493 13.4801 4.29257 13.2925ZM27.7076 25.2925C27.8005 25.3854 27.8742 25.4957 27.9245 25.6171C27.9747 25.7385 28.0006 25.8686 28.0006 26C28.0006 26.1314 27.9747 26.2615 27.9245 26.3829C27.8742 26.5043 27.8005 26.6146 27.7076 26.7075C27.6147 26.8004 27.5044 26.8741 27.383 26.9244C27.2616 26.9747 27.1315 27.0006 27.0001 27.0006C26.8687 27.0006 26.7386 26.9747 26.6172 26.9244C26.4958 26.8741 26.3855 26.8004 26.2926 26.7075L24.5001 24.9137L22.7076 26.7075C22.5199 26.8951 22.2654 27.0006 22.0001 27.0006C21.7347 27.0006 21.4802 26.8951 21.2926 26.7075C21.1049 26.5199 20.9995 26.2654 20.9995 26C20.9995 25.7346 21.1049 25.4801 21.2926 25.2925L23.0863 23.5L21.2926 21.7075C21.1049 21.5199 20.9995 21.2654 20.9995 21C20.9995 20.7346 21.1049 20.4801 21.2926 20.2925C21.4802 20.1049 21.7347 19.9994 22.0001 19.9994C22.2654 19.9994 22.5199 20.1049 22.7076 20.2925L24.5001 22.0863L26.2926 20.2925C26.4802 20.1049 26.7347 19.9994 27.0001 19.9994C27.2654 19.9994 27.5199 20.1049 27.7076 20.2925C27.8952 20.4801 28.0006 20.7346 28.0006 21C28.0006 21.2654 27.8952 21.5199 27.7076 21.7075L25.9138 23.5L27.7076 25.2925ZM22.0588 14.1038C21.2863 16.895 18.8938 19.3075 16.2426 19.97C16.1608 19.9903 16.0768 20.0004 15.9926 20C15.7487 19.9995 15.5134 19.91 15.331 19.7482C15.1485 19.5865 15.0315 19.3636 15.0018 19.1216C14.9722 18.8795 15.032 18.635 15.17 18.434C15.3081 18.2329 15.5148 18.0893 15.7513 18.03C17.7051 17.5413 19.5451 15.6663 20.1263 13.57C20.5251 12.1325 20.5288 9.945 18.2876 7.7075L18.0001 7.41375V10C18.0001 10.2652 17.8947 10.5196 17.7072 10.7071C17.5196 10.8946 17.2653 11 17.0001 11C16.7349 11 16.4805 10.8946 16.293 10.7071C16.1054 10.5196 16.0001 10.2652 16.0001 10V5C16.0001 4.73478 16.1054 4.48043 16.293 4.29289C16.4805 4.10536 16.7349 4 17.0001 4H22.0001C22.2653 4 22.5196 4.10536 22.7072 4.29289C22.8947 4.48043 23.0001 4.73478 23.0001 5C23.0001 5.26522 22.8947 5.51957 22.7072 5.70711C22.5196 5.89464 22.2653 6 22.0001 6H19.4138L19.7076 6.2925C21.9876 8.57375 22.8226 11.3475 22.0588 14.1038Z" fill="#4A4A4F"/>
</svg>
