<svg width="32" height="32" viewBox="0 0 32 32" fill="none" xmlns="http://www.w3.org/2000/svg">
<path d="M21.8289 10.1689C21.4959 8.3782 20.68 6.71244 19.4695 5.35147C18.2589 3.99049 16.6996 2.986 14.9599 2.44642C13.2202 1.90683 11.3662 1.85265 9.59797 2.28973C7.82973 2.7268 6.21445 3.63853 4.92649 4.92649C3.63853 6.21445 2.7268 7.82973 2.28973 9.59797C1.85265 11.3662 1.90683 13.2202 2.44642 14.9599C2.986 16.6996 3.99049 18.2589 5.35147 19.4695C6.71244 20.68 8.3782 21.4959 10.1689 21.8289C10.502 23.6197 11.3179 25.2854 12.5284 26.6464C13.739 28.0074 15.2983 29.0119 17.038 29.5515C18.7777 30.0911 20.6317 30.1452 22.3999 29.7082C24.1682 29.2711 25.7834 28.3594 27.0714 27.0714C28.3594 25.7834 29.2711 24.1682 29.7082 22.3999C30.1452 20.6317 30.0911 18.7777 29.5515 17.038C29.0119 15.2983 28.0074 13.739 26.6464 12.5284C25.2854 11.3179 23.6197 10.502 21.8289 10.1689ZM12.0002 20.0002C10.4179 20.0002 8.87123 19.531 7.55563 18.652C6.24004 17.7729 5.21466 16.5235 4.60916 15.0617C4.00366 13.5999 3.84523 11.9913 4.15391 10.4395C4.4626 8.88763 5.22452 7.46216 6.34334 6.34334C7.46216 5.22452 8.88763 4.4626 10.4395 4.15391C11.9913 3.84523 13.5999 4.00366 15.0617 4.60916C16.5235 5.21466 17.7729 6.24004 18.652 7.55563C19.531 8.87123 20.0002 10.4179 20.0002 12.0002C19.9979 14.1212 19.1543 16.1547 17.6545 17.6545C16.1547 19.1543 14.1212 19.9979 12.0002 20.0002Z" fill="#4A4A4F"/>
</svg>
