<svg width="32" height="32" viewBox="0 0 32 32" fill="none" xmlns="http://www.w3.org/2000/svg">
<path d="M13 11V23C13 23.2652 12.8946 23.5196 12.7071 23.7071C12.5196 23.8946 12.2652 24 12 24C11.7348 24 11.4804 23.8946 11.2929 23.7071C11.1054 23.5196 11 23.2652 11 23V11C11 10.7348 11.1054 10.4804 11.2929 10.2929C11.4804 10.1054 11.7348 10 12 10C12.2652 10 12.5196 10.1054 12.7071 10.2929C12.8946 10.4804 13 10.7348 13 11ZM16 10C15.7348 10 15.4804 10.1054 15.2929 10.2929C15.1054 10.4804 15 10.7348 15 11V23C15 23.2652 15.1054 23.5196 15.2929 23.7071C15.4804 23.8946 15.7348 24 16 24C16.2652 24 16.5196 23.8946 16.7071 23.7071C16.8946 23.5196 17 23.2652 17 23V11C17 10.7348 16.8946 10.4804 16.7071 10.2929C16.5196 10.1054 16.2652 10 16 10ZM20 10C19.7348 10 19.4804 10.1054 19.2929 10.2929C19.1054 10.4804 19 10.7348 19 11V23C19 23.2652 19.1054 23.5196 19.2929 23.7071C19.4804 23.8946 19.7348 24 20 24C20.2652 24 20.5196 23.8946 20.7071 23.7071C20.8946 23.5196 21 23.2652 21 23V11C21 10.7348 20.8946 10.4804 20.7071 10.2929C20.5196 10.1054 20.2652 10 20 10ZM26 8V26C26 26.5304 25.7893 27.0391 25.4142 27.4142C25.0391 27.7893 24.5304 28 24 28H22V30C22 30.2652 21.8946 30.5196 21.7071 30.7071C21.5196 30.8946 21.2652 31 21 31C20.7348 31 20.4804 30.8946 20.2929 30.7071C20.1054 30.5196 20 30.2652 20 30V28H12V30C12 30.2652 11.8946 30.5196 11.7071 30.7071C11.5196 30.8946 11.2652 31 11 31C10.7348 31 10.4804 30.8946 10.2929 30.7071C10.1054 30.5196 10 30.2652 10 30V28H8C7.46957 28 6.96086 27.7893 6.58579 27.4142C6.21071 27.0391 6 26.5304 6 26V8C6 7.46957 6.21071 6.96086 6.58579 6.58579C6.96086 6.21071 7.46957 6 8 6H11V3C11 2.20435 11.3161 1.44129 11.8787 0.87868C12.4413 0.31607 13.2044 0 14 0L18 0C18.7956 0 19.5587 0.31607 20.1213 0.87868C20.6839 1.44129 21 2.20435 21 3V6H24C24.5304 6 25.0391 6.21071 25.4142 6.58579C25.7893 6.96086 26 7.46957 26 8ZM13 6H19V3C19 2.73478 18.8946 2.48043 18.7071 2.29289C18.5196 2.10536 18.2652 2 18 2H14C13.7348 2 13.4804 2.10536 13.2929 2.29289C13.1054 2.48043 13 2.73478 13 3V6ZM24 26V8H8V26H24Z" fill="#4A4A4F"/>
</svg>
