<svg width="32" height="32" viewBox="0 0 32 32" fill="none" xmlns="http://www.w3.org/2000/svg">
<path d="M24 6H21V3C21 2.20435 20.6839 1.44129 20.1213 0.87868C19.5587 0.31607 18.7956 0 18 0L14 0C13.2044 0 12.4413 0.31607 11.8787 0.87868C11.3161 1.44129 11 2.20435 11 3V6H8C7.46957 6 6.96086 6.21071 6.58579 6.58579C6.21071 6.96086 6 7.46957 6 8V26C6 26.5304 6.21071 27.0391 6.58579 27.4142C6.96086 27.7893 7.46957 28 8 28H10V30C10 30.2652 10.1054 30.5196 10.2929 30.7071C10.4804 30.8946 10.7348 31 11 31C11.2652 31 11.5196 30.8946 11.7071 30.7071C11.8946 30.5196 12 30.2652 12 30V28H20V30C20 30.2652 20.1054 30.5196 20.2929 30.7071C20.4804 30.8946 20.7348 31 21 31C21.2652 31 21.5196 30.8946 21.7071 30.7071C21.8946 30.5196 22 30.2652 22 30V28H24C24.5304 28 25.0391 27.7893 25.4142 27.4142C25.7893 27.0391 26 26.5304 26 26V8C26 7.46957 25.7893 6.96086 25.4142 6.58579C25.0391 6.21071 24.5304 6 24 6ZM12 24C12 24.2652 11.8946 24.5196 11.7071 24.7071C11.5196 24.8946 11.2652 25 11 25C10.7348 25 10.4804 24.8946 10.2929 24.7071C10.1054 24.5196 10 24.2652 10 24V10C10 9.73478 10.1054 9.48043 10.2929 9.29289C10.4804 9.10536 10.7348 9 11 9C11.2652 9 11.5196 9.10536 11.7071 9.29289C11.8946 9.48043 12 9.73478 12 10V24ZM17 24C17 24.2652 16.8946 24.5196 16.7071 24.7071C16.5196 24.8946 16.2652 25 16 25C15.7348 25 15.4804 24.8946 15.2929 24.7071C15.1054 24.5196 15 24.2652 15 24V10C15 9.73478 15.1054 9.48043 15.2929 9.29289C15.4804 9.10536 15.7348 9 16 9C16.2652 9 16.5196 9.10536 16.7071 9.29289C16.8946 9.48043 17 9.73478 17 10V24ZM19 6H13V3C13 2.73478 13.1054 2.48043 13.2929 2.29289C13.4804 2.10536 13.7348 2 14 2H18C18.2652 2 18.5196 2.10536 18.7071 2.29289C18.8946 2.48043 19 2.73478 19 3V6ZM22 24C22 24.2652 21.8946 24.5196 21.7071 24.7071C21.5196 24.8946 21.2652 25 21 25C20.7348 25 20.4804 24.8946 20.2929 24.7071C20.1054 24.5196 20 24.2652 20 24V10C20 9.73478 20.1054 9.48043 20.2929 9.29289C20.4804 9.10536 20.7348 9 21 9C21.2652 9 21.5196 9.10536 21.7071 9.29289C21.8946 9.48043 22 9.73478 22 10V24Z" fill="#4A4A4F"/>
</svg>
