<svg width="32" height="32" viewBox="0 0 32 32" fill="none" xmlns="http://www.w3.org/2000/svg">
<path d="M28 6V19C28 19.5304 27.7893 20.0391 27.4142 20.4142C27.0391 20.7893 26.5304 21 26 21H14V23C14.0002 23.1979 13.9416 23.3914 13.8317 23.556C13.7218 23.7206 13.5656 23.8489 13.3828 23.9246C13.2 24.0004 12.9988 24.0202 12.8047 23.9815C12.6106 23.9429 12.4324 23.8475 12.2925 23.7075L9.2925 20.7075C9.19952 20.6146 9.12576 20.5043 9.07544 20.3829C9.02512 20.2615 8.99921 20.1314 8.99921 20C8.99921 19.8686 9.02512 19.7385 9.07544 19.6171C9.12576 19.4957 9.19952 19.3854 9.2925 19.2925L12.2925 16.2925C12.4324 16.1525 12.6106 16.0571 12.8047 16.0185C12.9988 15.9798 13.2 15.9996 13.3828 16.0754C13.5656 16.1511 13.7218 16.2794 13.8317 16.444C13.9416 16.6086 14.0002 16.8021 14 17V19H26V6H12V7C12 7.26522 11.8946 7.51957 11.7071 7.70711C11.5196 7.89464 11.2652 8 11 8C10.7348 8 10.4804 7.89464 10.2929 7.70711C10.1054 7.51957 10 7.26522 10 7V6C10 5.46957 10.2107 4.96086 10.5858 4.58579C10.9609 4.21071 11.4696 4 12 4H26C26.5304 4 27.0391 4.21071 27.4142 4.58579C27.7893 4.96086 28 5.46957 28 6ZM21 24C20.7348 24 20.4804 24.1054 20.2929 24.2929C20.1054 24.4804 20 24.7348 20 25V26H6V13H18V15C17.9998 15.1979 18.0584 15.3914 18.1683 15.556C18.2782 15.7206 18.4344 15.8489 18.6172 15.9246C18.8 16.0004 19.0012 16.0202 19.1953 15.9815C19.3894 15.9429 19.5676 15.8475 19.7075 15.7075L22.7075 12.7075C22.8005 12.6146 22.8742 12.5043 22.9246 12.3829C22.9749 12.2615 23.0008 12.1314 23.0008 12C23.0008 11.8686 22.9749 11.7385 22.9246 11.6171C22.8742 11.4957 22.8005 11.3854 22.7075 11.2925L19.7075 8.2925C19.5676 8.15249 19.3894 8.05712 19.1953 8.01847C19.0012 7.97982 18.8 7.99962 18.6172 8.07538C18.4344 8.15113 18.2782 8.27942 18.1683 8.44402C18.0584 8.60861 17.9998 8.8021 18 9V11H6C5.46957 11 4.96086 11.2107 4.58579 11.5858C4.21071 11.9609 4 12.4696 4 13V26C4 26.5304 4.21071 27.0391 4.58579 27.4142C4.96086 27.7893 5.46957 28 6 28H20C20.5304 28 21.0391 27.7893 21.4142 27.4142C21.7893 27.0391 22 26.5304 22 26V25C22 24.7348 21.8946 24.4804 21.7071 24.2929C21.5196 24.1054 21.2652 24 21 24Z" fill="#4A4A4F"/>
</svg>
