<svg width="32" height="32" viewBox="0 0 32 32" fill="none" xmlns="http://www.w3.org/2000/svg">
<path d="M28 6V19C28 19.5304 27.7893 20.0391 27.4142 20.4142C27.0391 20.7893 26.5304 21 26 21H12.4137L13.7075 22.2925C13.8004 22.3854 13.8741 22.4957 13.9244 22.6171C13.9747 22.7385 14.0006 22.8686 14.0006 23C14.0006 23.1314 13.9747 23.2615 13.9244 23.3829C13.8741 23.5043 13.8004 23.6146 13.7075 23.7075C13.6146 23.8004 13.5043 23.8741 13.3829 23.9244C13.2615 23.9747 13.1314 24.0006 13 24.0006C12.8686 24.0006 12.7385 23.9747 12.6171 23.9244C12.4957 23.8741 12.3854 23.8004 12.2925 23.7075L9.2925 20.7075C9.19952 20.6146 9.12576 20.5043 9.07544 20.3829C9.02512 20.2615 8.99921 20.1314 8.99921 20C8.99921 19.8686 9.02512 19.7385 9.07544 19.6171C9.12576 19.4957 9.19952 19.3854 9.2925 19.2925L12.2925 16.2925C12.4801 16.1049 12.7346 15.9994 13 15.9994C13.2654 15.9994 13.5199 16.1049 13.7075 16.2925C13.8951 16.4801 14.0006 16.7346 14.0006 17C14.0006 17.2654 13.8951 17.5199 13.7075 17.7075L12.4137 19H26V6H12V7C12 7.26522 11.8946 7.51957 11.7071 7.70711C11.5196 7.89464 11.2652 8 11 8C10.7348 8 10.4804 7.89464 10.2929 7.70711C10.1054 7.51957 10 7.26522 10 7V6C10 5.46957 10.2107 4.96086 10.5858 4.58579C10.9609 4.21071 11.4696 4 12 4H26C26.5304 4 27.0391 4.21071 27.4142 4.58579C27.7893 4.96086 28 5.46957 28 6ZM21 24C20.7348 24 20.4804 24.1054 20.2929 24.2929C20.1054 24.4804 20 24.7348 20 25V26H6V13H19.5863L18.2925 14.2925C18.1049 14.4801 17.9994 14.7346 17.9994 15C17.9994 15.2654 18.1049 15.5199 18.2925 15.7075C18.4801 15.8951 18.7346 16.0006 19 16.0006C19.2654 16.0006 19.5199 15.8951 19.7075 15.7075L22.7075 12.7075C22.8005 12.6146 22.8742 12.5043 22.9246 12.3829C22.9749 12.2615 23.0008 12.1314 23.0008 12C23.0008 11.8686 22.9749 11.7385 22.9246 11.6171C22.8742 11.4957 22.8005 11.3854 22.7075 11.2925L19.7075 8.2925C19.5199 8.10486 19.2654 7.99944 19 7.99944C18.7346 7.99944 18.4801 8.10486 18.2925 8.2925C18.1049 8.48014 17.9994 8.73464 17.9994 9C17.9994 9.26536 18.1049 9.51986 18.2925 9.7075L19.5863 11H6C5.46957 11 4.96086 11.2107 4.58579 11.5858C4.21071 11.9609 4 12.4696 4 13V26C4 26.5304 4.21071 27.0391 4.58579 27.4142C4.96086 27.7893 5.46957 28 6 28H20C20.5304 28 21.0391 27.7893 21.4142 27.4142C21.7893 27.0391 22 26.5304 22 26V25C22 24.7348 21.8946 24.4804 21.7071 24.2929C21.5196 24.1054 21.2652 24 21 24Z" fill="#4A4A4F"/>
</svg>
