<svg width="32" height="32" viewBox="0 0 32 32" fill="none" xmlns="http://www.w3.org/2000/svg">
<path d="M29.0002 19.4886C28.9952 19.2656 28.953 19.0451 28.8752 18.8361L26.4927 12.3098C26.3092 11.815 25.9375 11.4127 25.4587 11.1908C24.9798 10.9688 24.4327 10.9451 23.9365 11.1248L15.4602 14.1961L16.9702 5.57108C17.0637 5.04911 16.9461 4.51137 16.6433 4.07608C16.3404 3.64079 15.8771 3.34359 15.3552 3.24983L8.52145 2.03108C8.2631 1.98565 7.99833 1.99169 7.74232 2.04884C7.48631 2.10599 7.24411 2.21313 7.0296 2.36411C6.8151 2.51508 6.63252 2.70693 6.49233 2.92864C6.35215 3.15035 6.25712 3.39755 6.2127 3.65608L3.0877 21.5461C2.94483 22.3348 2.97683 23.1453 3.18142 23.9204C3.38601 24.6954 3.75822 25.4161 4.27177 26.0316C4.78532 26.6471 5.42771 27.1423 6.15357 27.4824C6.87944 27.8225 7.67111 27.9991 8.4727 27.9998H27.0002C27.5306 27.9998 28.0393 27.7891 28.4144 27.414C28.7895 27.039 29.0002 26.5303 29.0002 25.9998V19.4886ZM8.5002 24.4998C8.10464 24.4998 7.71796 24.3825 7.38906 24.1628C7.06016 23.943 6.80382 23.6306 6.65244 23.2652C6.50107 22.8997 6.46146 22.4976 6.53863 22.1096C6.6158 21.7217 6.80628 21.3653 7.08599 21.0856C7.36569 20.8059 7.72206 20.6154 8.11002 20.5383C8.49798 20.4611 8.90012 20.5007 9.26557 20.6521C9.63102 20.8034 9.94338 21.0598 10.1631 21.3887C10.3829 21.7176 10.5002 22.1043 10.5002 22.4998C10.5002 23.0303 10.2895 23.539 9.91441 23.914C9.53934 24.2891 9.03063 24.4998 8.5002 24.4998ZM13.8402 23.4523L15.0627 16.4623L24.6152 12.9998L27.0002 19.5136L13.5977 24.3748C13.7046 24.0748 13.7857 23.7662 13.8402 23.4523ZM27.0002 25.9998H14.9677L27.0002 21.6386V25.9998Z" fill="#4A4A4F"/>
</svg>
