<svg width="32" height="32" viewBox="0 0 32 32" fill="none" xmlns="http://www.w3.org/2000/svg">
<path d="M11 18.6737C11.2652 18.6737 11.5196 18.5684 11.7071 18.3809C11.8946 18.1933 12 17.939 12 17.6737V16H20V17.9112C20 18.1765 20.1054 18.4308 20.2929 18.6184C20.4804 18.8059 20.7348 18.9112 21 18.9112C21.2652 18.9112 21.5196 18.8059 21.7071 18.6184C21.8946 18.4308 22 18.1765 22 17.9112V4C22 3.73478 21.8946 3.48043 21.7071 3.29289C21.5196 3.10536 21.2652 3 21 3C20.7348 3 20.4804 3.10536 20.2929 3.29289C20.1054 3.48043 20 3.73478 20 4V6H12V4C12 3.73478 11.8946 3.48043 11.7071 3.29289C11.5196 3.10536 11.2652 3 11 3C10.7348 3 10.4804 3.10536 10.2929 3.29289C10.1054 3.48043 10 3.73478 10 4V17.6737C10 17.939 10.1054 18.1933 10.2929 18.3809C10.4804 18.5684 10.7348 18.6737 11 18.6737ZM12 14V12H20V14H12ZM20 8V10H12V8H20ZM3 21C3 20.7348 3.10536 20.4804 3.29289 20.2929C3.48043 20.1054 3.73478 20 4 20C5.8025 20 6.77375 20.6475 7.555 21.1675C8.25 21.6325 8.8025 22 10 22C11.1975 22 11.75 21.6325 12.445 21.1675C13.225 20.6475 14.195 20 15.9987 20C17.8025 20 18.7737 20.6475 19.5537 21.1675C20.2512 21.6325 20.8037 22 22 22C23.1963 22 23.75 21.6325 24.445 21.1675C25.2262 20.6475 26.195 20 28 20C28.2652 20 28.5196 20.1054 28.7071 20.2929C28.8946 20.4804 29 20.7348 29 21C29 21.2652 28.8946 21.5196 28.7071 21.7071C28.5196 21.8946 28.2652 22 28 22C26.8025 22 26.25 22.3675 25.555 22.8325C24.7738 23.3525 23.805 24 22 24C20.195 24 19.225 23.3525 18.445 22.8325C17.75 22.3675 17.1962 22 16 22C14.8038 22 14.25 22.3675 13.555 22.8325C12.775 23.3525 11.805 24 10.0013 24C8.1975 24 7.2275 23.3525 6.44625 22.8325C5.75 22.3675 5.1975 22 4 22C3.73478 22 3.48043 21.8946 3.29289 21.7071C3.10536 21.5196 3 21.2652 3 21ZM29 26C29 26.2652 28.8946 26.5196 28.7071 26.7071C28.5196 26.8946 28.2652 27 28 27C26.8025 27 26.25 27.3675 25.555 27.8325C24.7738 28.3525 23.805 29 22 29C20.195 29 19.225 28.3525 18.445 27.8325C17.75 27.3675 17.1962 27 16 27C14.8038 27 14.25 27.3675 13.555 27.8325C12.775 28.3525 11.805 29 10.0013 29C8.1975 29 7.2275 28.3525 6.44625 27.8325C5.75 27.3675 5.1975 27 4 27C3.73478 27 3.48043 26.8946 3.29289 26.7071C3.10536 26.5196 3 26.2652 3 26C3 25.7348 3.10536 25.4804 3.29289 25.2929C3.48043 25.1054 3.73478 25 4 25C5.8025 25 6.77375 25.6475 7.555 26.1675C8.25 26.6325 8.8025 27 10 27C11.1975 27 11.75 26.6325 12.445 26.1675C13.225 25.6475 14.195 25 15.9987 25C17.8025 25 18.7737 25.6475 19.5537 26.1675C20.2512 26.6325 20.8037 27 22 27C23.1963 27 23.75 26.6325 24.445 26.1675C25.2262 25.6475 26.195 25 28 25C28.2652 25 28.5196 25.1054 28.7071 25.2929C28.8946 25.4804 29 25.7348 29 26Z" fill="#4A4A4F"/>
</svg>
