<svg width="32" height="32" viewBox="0 0 32 32" fill="none" xmlns="http://www.w3.org/2000/svg">
<path d="M26 7.1725V4C26 3.73478 25.8946 3.48043 25.7071 3.29289C25.5196 3.10536 25.2652 3 25 3C24.7348 3 24.4804 3.10536 24.2929 3.29289C24.1054 3.48043 24 3.73478 24 4V7.1725C23.4152 7.37924 22.9089 7.76214 22.5508 8.2685C22.1926 8.77485 22.0002 9.37977 22 10V15.2762L17 12.42V9C17 8.73478 16.8946 8.48043 16.7071 8.29289C16.5196 8.10536 16.2652 8 16 8C15.7348 8 15.4804 8.10536 15.2929 8.29289C15.1054 8.48043 15 8.73478 15 9V12.42L10 15.2762V10C9.99981 9.37977 9.80739 8.77485 9.44922 8.2685C9.09106 7.76214 8.58475 7.37924 8 7.1725V4C8 3.73478 7.89464 3.48043 7.70711 3.29289C7.51957 3.10536 7.26522 3 7 3C6.73478 3 6.48043 3.10536 6.29289 3.29289C6.10536 3.48043 6 3.73478 6 4V7.1725C5.41525 7.37924 4.90894 7.76214 4.55078 8.2685C4.19261 8.77485 4.00019 9.37977 4 10V27C4 27.2652 4.10536 27.5196 4.29289 27.7071C4.48043 27.8946 4.73478 28 5 28H13C13.2652 28 13.5196 27.8946 13.7071 27.7071C13.8946 27.5196 14 27.2652 14 27V22C14 21.4696 14.2107 20.9609 14.5858 20.5858C14.9609 20.2107 15.4696 20 16 20C16.5304 20 17.0391 20.2107 17.4142 20.5858C17.7893 20.9609 18 21.4696 18 22V27C18 27.2652 18.1054 27.5196 18.2929 27.7071C18.4804 27.8946 18.7348 28 19 28H27C27.2652 28 27.5196 27.8946 27.7071 27.7071C27.8946 27.5196 28 27.2652 28 27V10C27.9998 9.37977 27.8074 8.77485 27.4492 8.2685C27.0911 7.76214 26.5848 7.37924 26 7.1725ZM8 26H6V14H8V26ZM26 26H24V14H26V26Z" fill="#4A4A4F"/>
</svg>
