<svg width="32" height="32" viewBox="0 0 32 32" fill="none" xmlns="http://www.w3.org/2000/svg">
<path d="M29.7076 8.29257L23.7076 2.29257C23.6147 2.19966 23.5044 2.12596 23.383 2.07567C23.2616 2.02539 23.1315 1.99951 23.0001 1.99951C22.8687 1.99951 22.7386 2.02539 22.6172 2.07567C22.4958 2.12596 22.3855 2.19966 22.2926 2.29257C22.1997 2.38548 22.126 2.49578 22.0757 2.61717C22.0254 2.73856 21.9995 2.86867 21.9995 3.00007C21.9995 3.13146 22.0254 3.26157 22.0757 3.38296C22.126 3.50436 22.1997 3.61466 22.2926 3.70757L24.5863 6.00007L21.0001 9.58632L16.7076 5.29257C16.5199 5.10493 16.2654 4.99951 16.0001 4.99951C15.7347 4.99951 15.4802 5.10493 15.2926 5.29257C15.1049 5.48021 14.9995 5.7347 14.9995 6.00007C14.9995 6.26543 15.1049 6.51993 15.2926 6.70757L16.0863 7.50007L5.58632 18.0001C5.39979 18.1851 5.25191 18.4054 5.15127 18.6481C5.05062 18.8908 4.99923 19.1511 5.00007 19.4138V25.5863L2.29257 28.2926C2.19966 28.3855 2.12596 28.4958 2.07567 28.6172C2.02539 28.7386 1.99951 28.8687 1.99951 29.0001C1.99951 29.1315 2.02539 29.2616 2.07567 29.383C2.12596 29.5044 2.19966 29.6147 2.29257 29.7076C2.48021 29.8952 2.7347 30.0006 3.00007 30.0006C3.13146 30.0006 3.26157 29.9747 3.38296 29.9245C3.50436 29.8742 3.61466 29.8005 3.70757 29.7076L6.41382 27.0001H12.5863C12.8491 27.0009 13.1093 26.9495 13.352 26.8489C13.5947 26.7482 13.815 26.6003 14.0001 26.4138L24.5001 15.9138L25.2926 16.7076C25.3855 16.8005 25.4958 16.8742 25.6172 16.9245C25.7386 16.9747 25.8687 17.0006 26.0001 17.0006C26.1315 17.0006 26.2616 16.9747 26.383 16.9245C26.5044 16.8742 26.6147 16.8005 26.7076 16.7076C26.8005 16.6147 26.8742 16.5044 26.9245 16.383C26.9747 16.2616 27.0006 16.1315 27.0006 16.0001C27.0006 15.8687 26.9747 15.7386 26.9245 15.6172C26.8742 15.4958 26.8005 15.3855 26.7076 15.2926L22.4138 11.0001L26.0001 7.41382L28.2926 9.70757C28.4802 9.89521 28.7347 10.0006 29.0001 10.0006C29.2654 10.0006 29.5199 9.89521 29.7076 9.70757C29.8952 9.51993 30.0006 9.26543 30.0006 9.00007C30.0006 8.7347 29.8952 8.48021 29.7076 8.29257ZM12.5863 25.0001H7.00007V19.4138L9.25007 17.1638L11.7926 19.7076C11.8855 19.8005 11.9958 19.8742 12.1172 19.9245C12.2386 19.9747 12.3687 20.0006 12.5001 20.0006C12.6315 20.0006 12.7616 19.9747 12.883 19.9245C13.0044 19.8742 13.1147 19.8005 13.2076 19.7076C13.3005 19.6147 13.3742 19.5044 13.4245 19.383C13.4747 19.2616 13.5006 19.1315 13.5006 19.0001C13.5006 18.8687 13.4747 18.7386 13.4245 18.6172C13.3742 18.4958 13.3005 18.3855 13.2076 18.2926L10.6638 15.7501L12.2501 14.1638L14.7926 16.7076C14.9802 16.8952 15.2347 17.0006 15.5001 17.0006C15.7654 17.0006 16.0199 16.8952 16.2076 16.7076C16.3952 16.5199 16.5006 16.2654 16.5006 16.0001C16.5006 15.7347 16.3952 15.4802 16.2076 15.2926L13.6638 12.7501L17.5001 8.91382L23.0863 14.5001L12.5863 25.0001Z" fill="#4A4A4F"/>
</svg>
