<svg width="32" height="32" viewBox="0 0 32 32" fill="none" xmlns="http://www.w3.org/2000/svg">
<path d="M29.7075 9.70002C29.6146 9.79299 29.5043 9.86675 29.3829 9.91708C29.2615 9.9674 29.1314 9.9933 29 9.9933C28.8685 9.9933 28.7384 9.9674 28.617 9.91708C28.4956 9.86675 28.3853 9.79299 28.2925 9.70002L26 7.40627L22.4125 11L26.7062 15.2938C26.8939 15.4814 26.9993 15.7359 26.9993 16.0013C26.9993 16.2666 26.8939 16.5211 26.7062 16.7088C26.5186 16.8964 26.2641 17.0018 25.9987 17.0018C25.7333 17.0018 25.4789 16.8964 25.2912 16.7088L24.5 15.9088L14 26.4088C13.8142 26.596 13.5931 26.7446 13.3497 26.8461C13.1062 26.9476 12.845 26.9999 12.5812 27H6.40746L3.69996 29.7075C3.60272 29.8049 3.48644 29.8811 3.35838 29.9315C3.23032 29.9818 3.09325 30.0052 2.95574 30.0002C2.81823 29.9951 2.68324 29.9618 2.55921 29.9022C2.43519 29.8426 2.3248 29.758 2.23496 29.6538C2.07136 29.4551 1.9884 29.2021 2.00252 28.9451C2.01665 28.6882 2.12682 28.4458 2.31121 28.2663L4.99246 25.5838V19.41C4.9937 18.881 5.2045 18.374 5.57871 18L7.47621 16.1025C7.52265 16.056 7.57779 16.0191 7.63849 15.994C7.69919 15.9688 7.76425 15.9559 7.82996 15.9559C7.89567 15.9559 7.96073 15.9688 8.02143 15.994C8.08213 16.0191 8.13728 16.056 8.18371 16.1025L11.7875 19.7038C11.8804 19.7967 11.9907 19.8704 12.1121 19.9207C12.2335 19.9709 12.3636 19.9968 12.495 19.9968C12.6264 19.9968 12.7565 19.9709 12.8779 19.9207C12.9993 19.8704 13.1096 19.7967 13.2025 19.7038C13.2954 19.6109 13.3691 19.5006 13.4194 19.3792C13.4696 19.2578 13.4955 19.1277 13.4955 18.9963C13.4955 18.8649 13.4696 18.7348 13.4194 18.6134C13.3691 18.492 13.2954 18.3817 13.2025 18.2888L9.59746 14.6838C9.55097 14.6373 9.51409 14.5822 9.48893 14.5215C9.46377 14.4608 9.45082 14.3957 9.45082 14.33C9.45082 14.2643 9.46377 14.1992 9.48893 14.1385C9.51409 14.0778 9.55097 14.0227 9.59746 13.9763L10.9725 12.6013C11.0189 12.5548 11.074 12.5179 11.1347 12.4927C11.1954 12.4676 11.2605 12.4546 11.3262 12.4546C11.3919 12.4546 11.457 12.4676 11.5177 12.4927C11.5784 12.5179 11.6335 12.5548 11.68 12.6013L15.285 16.2063C15.3779 16.2992 15.4882 16.3729 15.6096 16.4232C15.731 16.4734 15.8611 16.4993 15.9925 16.4993C16.1239 16.4993 16.254 16.4734 16.3754 16.4232C16.4968 16.3729 16.6071 16.2992 16.7 16.2063C16.7929 16.1134 16.8666 16.0031 16.9169 15.8817C16.9671 15.7603 16.993 15.6302 16.993 15.4988C16.993 15.3674 16.9671 15.2373 16.9169 15.1159C16.8666 14.9945 16.7929 14.8842 16.7 14.7913L13.0987 11.1825C13.0522 11.1361 13.0153 11.0809 12.9902 11.0202C12.965 10.9595 12.9521 10.8945 12.9521 10.8288C12.9521 10.7631 12.965 10.698 12.9902 10.6373C13.0153 10.5766 13.0522 10.5215 13.0987 10.475L16.0825 7.49252L15.2887 6.69877C15.194 6.60404 15.1192 6.49124 15.0689 6.36706C15.0186 6.24287 14.9937 6.10985 14.9958 5.97588C14.9979 5.84191 15.0269 5.70973 15.0811 5.58718C15.1353 5.46464 15.2135 5.35423 15.3112 5.26252C15.509 5.08612 15.7673 4.99297 16.0321 5.00252C16.297 5.01207 16.5479 5.12359 16.7325 5.31377L21 9.57877L24.5862 5.99127L22.2912 3.69752C22.1964 3.60287 22.1215 3.49014 22.0711 3.366C22.0207 3.24186 21.9957 3.10886 21.9977 2.97489C21.9997 2.84092 22.0286 2.70872 22.0826 2.58613C22.1367 2.46354 22.2149 2.35306 22.3125 2.26127C22.5105 2.08479 22.769 1.99161 23.034 2.00116C23.2991 2.01071 23.5502 2.12225 23.735 2.31252L29.7075 8.28502C29.8004 8.37789 29.8742 8.48818 29.9245 8.60958C29.9748 8.73098 30.0007 8.8611 30.0007 8.99252C30.0007 9.12393 29.9748 9.25406 29.9245 9.37546C29.8742 9.49686 29.8004 9.60714 29.7075 9.70002Z" fill="#4A4A4F"/>
</svg>
