<svg width="32" height="32" viewBox="0 0 32 32" fill="none" xmlns="http://www.w3.org/2000/svg">
<path d="M31.9575 20.7126C31.9581 20.7093 31.9581 20.7059 31.9575 20.7026L29.1712 11.4251C29.0496 11.0121 28.7971 10.6498 28.4517 10.3928C28.1063 10.1358 27.6868 9.99796 27.2563 10.0001H26C25.7348 10.0001 25.4804 10.1054 25.2929 10.293C25.1054 10.4805 25 10.7348 25 11.0001C25 11.2653 25.1054 11.5196 25.2929 11.7072C25.4804 11.8947 25.7348 12.0001 26 12.0001H27.2563L29.6562 20.0001H25.75L23.1712 11.4251C23.0496 11.0121 22.7971 10.6498 22.4517 10.3928C22.1063 10.1358 21.6868 9.99796 21.2563 10.0001H20C19.7348 10.0001 19.4804 10.1054 19.2929 10.293C19.1054 10.4805 19 10.7348 19 11.0001C19 11.2653 19.1054 11.5196 19.2929 11.7072C19.4804 11.8947 19.7348 12.0001 20 12.0001H21.2563L23.6562 20.0001H19.75L17.1712 11.4251C17.0496 11.0121 16.7971 10.6498 16.4517 10.3928C16.1063 10.1358 15.6868 9.99796 15.2563 10.0001H4.75C4.31842 9.9966 3.89746 10.1338 3.55081 10.3909C3.20416 10.648 2.95069 11.0111 2.82875 11.4251L0.04625 20.7001V20.7063C0.04625 20.7063 0.04625 20.7126 0.04625 20.7163C0.0174152 20.8082 0.00184159 20.9038 0 21.0001C0 21.2653 0.105357 21.5196 0.292893 21.7072C0.48043 21.8947 0.734784 22.0001 1 22.0001H31C31.1559 22 31.3096 21.9635 31.4489 21.8935C31.5881 21.8235 31.7091 21.7219 31.8021 21.5968C31.8952 21.4717 31.9577 21.3266 31.9846 21.1731C32.0116 21.0196 32.0023 20.8619 31.9575 20.7126ZM4.75 12.0001H15.2625L17.6625 20.0001H2.34375L4.75 12.0001Z" fill="#4A4A4F"/>
</svg>
