<svg width="32" height="32" viewBox="0 0 32 32" fill="none" xmlns="http://www.w3.org/2000/svg">
<path d="M32 21.0001C32 21.2653 31.8946 21.5196 31.7071 21.7072C31.5195 21.8947 31.2652 22.0001 31 22.0001H0.999964C0.844082 22 0.690368 21.9635 0.551094 21.8935C0.411821 21.8235 0.290843 21.7219 0.19782 21.5968C0.104797 21.4717 0.0423038 21.3266 0.0153297 21.1731C-0.0116444 21.0196 -0.00235251 20.8619 0.0424636 20.7126V20.7063L2.82871 11.4251C2.95065 11.0111 3.20412 10.648 3.55077 10.3909C3.89742 10.1338 4.31839 9.9966 4.74996 10.0001H15.2625C15.693 9.99796 16.1125 10.1358 16.4579 10.3928C16.8033 10.6498 17.0558 11.0121 17.1775 11.4251L19.75 20.0001H23.6625L21.2625 12.0001H20C19.7347 12.0001 19.4804 11.8947 19.2929 11.7072C19.1053 11.5196 19 11.2653 19 11.0001C19 10.7348 19.1053 10.4805 19.2929 10.293C19.4804 10.1054 19.7347 10.0001 20 10.0001H21.2562C21.6867 9.99796 22.1063 10.1358 22.4517 10.3928C22.797 10.6498 23.0496 11.0121 23.1712 11.4251L25.75 20.0001H29.6625L27.2625 12.0001H26C25.7347 12.0001 25.4804 11.8947 25.2929 11.7072C25.1053 11.5196 25 11.2653 25 11.0001C25 10.7348 25.1053 10.4805 25.2929 10.293C25.4804 10.1054 25.7347 10.0001 26 10.0001H27.2562C27.6867 9.99796 28.1063 10.1358 28.4517 10.3928C28.797 10.6498 29.0496 11.0121 29.1712 11.4251L31.9537 20.6988C31.9543 20.7021 31.9543 20.7055 31.9537 20.7088C31.9834 20.8031 31.999 20.9012 32 21.0001Z" fill="#4A4A4F"/>
</svg>
