<svg width="32" height="32" viewBox="0 0 32 32" fill="none" xmlns="http://www.w3.org/2000/svg">
<path d="M27.7336 10.395C29.1212 13.2973 29.3847 16.6107 28.473 19.6957C27.5614 22.7808 25.5393 25.4188 22.797 27.1006C20.0547 28.7825 16.7867 29.3889 13.6235 28.8029C10.4604 28.2169 7.62651 26.4799 5.66872 23.9274C3.71093 21.3748 2.76807 18.1874 3.0221 14.9805C3.27614 11.7737 4.70906 8.77454 7.04431 6.56201C9.37956 4.34949 12.4516 3.08041 15.6675 2.9997C18.8835 2.919 22.0153 4.0324 24.4586 6.12501L27.2923 3.29001C27.48 3.10237 27.7345 2.99695 27.9998 2.99695C28.2652 2.99695 28.5197 3.10237 28.7073 3.29001C28.895 3.47765 29.0004 3.73215 29.0004 3.99751C29.0004 4.26287 28.895 4.51737 28.7073 4.70501L20.9498 12.4638L16.2361 17.1775L13.2423 20.1713C14.0163 20.6832 14.9175 20.9696 15.845 20.9985C16.7725 21.0274 17.6897 20.7976 18.4941 20.3349C19.2984 19.8721 19.9581 19.1946 20.3993 18.3783C20.8405 17.5619 21.0458 16.6389 20.9923 15.7125C20.9774 15.4473 21.0685 15.187 21.2454 14.9889C21.4224 14.7908 21.6709 14.6712 21.9361 14.6563C22.2013 14.6413 22.4616 14.7324 22.6597 14.9094C22.8577 15.0864 22.9774 15.3348 22.9923 15.6C23.073 17.016 22.7216 18.4231 21.9847 19.635C21.2478 20.8468 20.1602 21.8062 18.8659 22.3862C17.5716 22.9661 16.1316 23.1392 14.7368 22.8825C13.3419 22.6258 12.0579 21.9515 11.0548 20.9488C9.80729 19.6966 9.07967 18.0188 9.01806 16.2523C8.95645 14.4858 9.5654 12.7614 10.7227 11.4253C11.8799 10.0892 13.4998 9.2404 15.257 9.0493C17.0142 8.8582 18.7787 9.33894 20.1961 10.395L23.0373 7.54876C20.9533 5.8185 18.3035 4.91921 15.5969 5.0236C12.8902 5.128 10.3176 6.22871 8.37305 8.11434C6.42851 9.99997 5.2492 12.5376 5.06162 15.2397C4.87404 17.9419 5.69142 20.6181 7.35677 22.7543C9.02212 24.8905 11.418 26.3361 14.0843 26.8135C16.7505 27.2909 19.4992 26.7663 21.8022 25.3406C24.1053 23.9149 25.8005 21.6886 26.5621 19.0892C27.3237 16.4898 27.0981 13.7007 25.9286 11.2575C25.8142 11.0182 25.7996 10.7432 25.888 10.493C25.9763 10.2429 26.1605 10.0381 26.3998 9.92376C26.6392 9.80938 26.9142 9.79478 27.1643 9.88316C27.4144 9.97153 27.6192 10.1557 27.7336 10.395Z" fill="#4A4A4F"/>
</svg>
