<svg width="32" height="32" viewBox="0 0 32 32" fill="none" xmlns="http://www.w3.org/2000/svg">
<path d="M27.7336 10.395C29.1212 13.2973 29.3847 16.6107 28.473 19.6957C27.5614 22.7808 25.5393 25.4188 22.797 27.1006C20.0547 28.7825 16.7867 29.3889 13.6235 28.8029C10.4604 28.2169 7.62651 26.4799 5.66872 23.9274C3.71093 21.3748 2.76807 18.1874 3.0221 14.9805C3.27614 11.7737 4.70906 8.77454 7.04431 6.56201C9.37956 4.34949 12.4516 3.08041 15.6675 2.9997C18.8835 2.919 22.0153 4.0324 24.4586 6.12501L27.2923 3.29001C27.48 3.10237 27.7345 2.99695 27.9998 2.99695C28.2652 2.99695 28.5197 3.10237 28.7073 3.29001C28.895 3.47765 29.0004 3.73215 29.0004 3.99751C29.0004 4.26287 28.895 4.51737 28.7073 4.70501L16.7073 16.705C16.5197 16.8927 16.2652 16.9981 15.9998 16.9981C15.7345 16.9981 15.48 16.8927 15.2923 16.705C15.1047 16.5174 14.9993 16.2629 14.9993 15.9975C14.9993 15.7321 15.1047 15.4776 15.2923 15.29L18.7573 11.825C17.8183 11.204 16.6971 10.918 15.5753 11.0134C14.4535 11.1089 13.3967 11.5801 12.5761 12.3509C11.7554 13.1217 11.219 14.1469 11.0535 15.2605C10.888 16.3741 11.1032 17.511 11.6642 18.4871C12.2253 19.4632 13.0993 20.2214 14.1449 20.6389C15.1905 21.0564 16.3463 21.1089 17.4254 20.7877C18.5045 20.4666 19.4436 19.7906 20.0907 18.8693C20.7378 17.948 21.0551 16.8353 20.9911 15.7113C20.9837 15.5799 21.0022 15.4484 21.0457 15.3243C21.0891 15.2001 21.1566 15.0858 21.2442 14.9877C21.3318 14.8896 21.4379 14.8097 21.5564 14.7527C21.6749 14.6956 21.8035 14.6624 21.9348 14.655C22.2 14.6401 22.4603 14.7311 22.6584 14.9081C22.7565 14.9958 22.8363 15.1019 22.8934 15.2204C22.9505 15.3389 22.9837 15.4674 22.9911 15.5988C23.0822 17.1897 22.6278 18.7642 21.7029 20.0619C20.778 21.3596 19.438 22.3029 17.9044 22.7359C16.3708 23.1689 14.7353 23.0656 13.2683 22.4431C11.8013 21.8207 10.5906 20.7163 9.83634 19.3125C9.08205 17.9088 8.82931 16.2897 9.1199 14.7228C9.41048 13.1559 10.227 11.7351 11.4345 10.6952C12.642 9.65523 14.1682 9.05843 15.7608 9.0034C17.3534 8.94837 18.9172 9.4384 20.1936 10.3925L23.0373 7.54876C20.9533 5.8185 18.3035 4.91921 15.5969 5.0236C12.8902 5.128 10.3176 6.22871 8.37305 8.11434C6.42851 9.99997 5.2492 12.5376 5.06162 15.2397C4.87404 17.9419 5.69142 20.6181 7.35677 22.7543C9.02212 24.8905 11.418 26.3361 14.0843 26.8135C16.7505 27.2909 19.4992 26.7663 21.8022 25.3406C24.1053 23.9149 25.8005 21.6886 26.5621 19.0892C27.3237 16.4898 27.0981 13.7007 25.9286 11.2575C25.8142 11.0182 25.7996 10.7432 25.888 10.493C25.9763 10.2429 26.1605 10.0381 26.3998 9.92376C26.6392 9.80938 26.9142 9.79478 27.1643 9.88316C27.4144 9.97153 27.6192 10.1557 27.7336 10.395Z" fill="#4A4A4F"/>
</svg>
