<svg width="32" height="32" viewBox="0 0 32 32" fill="none" xmlns="http://www.w3.org/2000/svg">
<path d="M29 10.0001V25.0001C29 25.5305 28.7893 26.0392 28.4142 26.4143C28.0391 26.7894 27.5304 27.0001 27 27.0001H5C4.46957 27.0001 3.96086 26.7894 3.58579 26.4143C3.21071 26.0392 3 25.5305 3 25.0001V10.0001C3 9.46963 3.21071 8.96093 3.58579 8.58585C3.96086 8.21078 4.46957 8.00007 5 8.00007H13.5863L9.2925 3.70757C9.10486 3.51993 8.99944 3.26543 8.99944 3.00007C8.99944 2.86867 9.02532 2.73856 9.07561 2.61717C9.12589 2.49578 9.19959 2.38548 9.2925 2.29257C9.38541 2.19966 9.49571 2.12596 9.6171 2.07567C9.7385 2.02539 9.86861 1.99951 10 1.99951C10.2654 1.99951 10.5199 2.10493 10.7075 2.29257L16 7.58632L21.2925 2.29257C21.4801 2.10493 21.7346 1.99951 22 1.99951C22.2654 1.99951 22.5199 2.10493 22.7075 2.29257C22.8951 2.48021 23.0006 2.7347 23.0006 3.00007C23.0006 3.26543 22.8951 3.51993 22.7075 3.70757L18.4137 8.00007H27C27.5304 8.00007 28.0391 8.21078 28.4142 8.58585C28.7893 8.96093 29 9.46963 29 10.0001Z" fill="#4A4A4F"/>
</svg>
