<svg width="32" height="32" viewBox="0 0 32 32" fill="none" xmlns="http://www.w3.org/2000/svg">
<path d="M29.6098 3.27352C29.4549 3.13973 29.2664 3.05075 29.0646 3.01617C28.8629 2.98159 28.6555 3.00271 28.4648 3.07727L3.13233 12.991C2.77331 13.1306 2.46936 13.3831 2.26623 13.7104C2.06311 14.0377 1.97181 14.4221 2.00607 14.8058C2.04034 15.1895 2.19831 15.5516 2.45622 15.8378C2.71413 16.1239 3.058 16.3185 3.43608 16.3923L9.99983 17.681V24.9998C9.99854 25.3984 10.117 25.7883 10.3399 26.1188C10.5628 26.4493 10.8798 26.7053 11.2498 26.8535C11.6193 27.0044 12.0257 27.0406 12.416 26.9575C12.8064 26.8743 13.1627 26.6756 13.4386 26.3873L16.6036 23.1048L21.6248 27.4998C21.9871 27.8211 22.4543 27.9989 22.9386 27.9998C23.1508 27.9996 23.3617 27.9663 23.5636 27.901C23.8935 27.7963 24.1903 27.607 24.4243 27.352C24.6583 27.0969 24.8214 26.785 24.8973 26.4473L29.9711 4.37477C30.0165 4.17571 30.0068 3.96805 29.9432 3.77405C29.8795 3.58005 29.7643 3.40702 29.6098 3.27352ZM22.9411 25.9998L12.6061 16.9373L27.4811 6.27602L22.9411 25.9998Z" fill="#4A4A4F"/>
</svg>
