<svg width="32" height="32" viewBox="0 0 32 32" fill="none" xmlns="http://www.w3.org/2000/svg">
<path d="M25.1962 6.80751C23.3781 4.98945 21.0617 3.75136 18.54 3.24977C16.0182 2.74819 13.4044 3.00565 11.0289 3.9896C8.65353 4.97355 6.62322 6.63979 5.19478 8.77763C3.76633 10.9155 3.00391 13.4289 3.00391 16C3.00391 18.5711 3.76633 21.0846 5.19478 23.2224C6.62322 25.3602 8.65353 27.0265 11.0289 28.0104C13.4044 28.9944 16.0182 29.2518 18.54 28.7502C21.0617 28.2487 23.3781 27.0106 25.1962 25.1925C26.4124 23.9904 27.378 22.5589 28.037 20.981C28.696 19.403 29.0353 17.71 29.0353 16C29.0353 14.29 28.696 12.597 28.037 11.019C27.378 9.44108 26.4124 8.0096 25.1962 6.80751ZM8.21868 8.22126C10.0186 6.41885 12.3905 5.30011 14.9262 5.05751C14.6818 7.59308 13.5581 9.96329 11.7499 11.7575C9.95328 13.5625 7.58259 14.6833 5.04743 14.9263C5.29212 12.3903 6.41361 10.0192 8.21868 8.22126ZM5.04118 16.935C8.11178 16.6898 10.9935 15.3549 13.1662 13.1713C15.3512 10.9993 16.6871 8.11733 16.9324 5.04626C19.5176 5.26178 21.9428 6.38628 23.7776 8.22016C25.6124 10.054 26.7381 12.4787 26.9549 15.0638C23.8854 15.3151 21.0048 16.6481 18.8264 18.8251C16.648 21.0022 15.3132 23.8819 15.0599 26.9513C12.4748 26.7357 10.0495 25.6112 8.21475 23.7774C6.37995 21.9435 5.25425 19.5188 5.03743 16.9338L5.04118 16.935ZM23.7812 23.7788C21.9809 25.5806 19.6092 26.6993 17.0737 26.9425C17.3234 24.4089 18.4442 22.0404 20.2449 20.2408C22.0457 18.4411 24.4149 17.3219 26.9487 17.0738C26.705 19.6092 25.5849 21.9803 23.7812 23.7788Z" fill="#4A4A4F"/>
</svg>
