<svg width="32" height="32" viewBox="0 0 32 32" fill="none" xmlns="http://www.w3.org/2000/svg">
<path d="M31.9137 24.5938L23.9137 6.59375C23.8352 6.41702 23.707 6.26686 23.5448 6.16148C23.3827 6.05609 23.1934 6 23 6H8.99999C8.80658 6 8.61731 6.05609 8.45513 6.16148C8.29295 6.26686 8.16481 6.41702 8.08624 6.59375V6.60875L0.0862383 24.5938C0.0185488 24.746 -0.0100246 24.9128 0.0031141 25.0789C0.0162528 25.245 0.0706872 25.4051 0.161471 25.5449C0.252256 25.6846 0.376512 25.7994 0.522951 25.8789C0.669389 25.9584 0.833368 26 0.999988 26H31C31.1666 26 31.3306 25.9584 31.477 25.8789C31.6235 25.7994 31.7477 25.6846 31.8385 25.5449C31.9293 25.4051 31.9837 25.245 31.9969 25.0789C32.01 24.9128 31.9814 24.746 31.9137 24.5938ZM7.99999 24H2.53874L7.99999 11.7125V24ZM9.99999 24V11.7125L15.4612 24H9.99999Z" fill="#4A4A4F"/>
</svg>
