<svg width="32" height="32" viewBox="0 0 32 32" fill="none" xmlns="http://www.w3.org/2000/svg">
<path d="M29.7075 10.7923L22.2075 3.29231C22.1146 3.19933 22.0044 3.12557 21.883 3.07525C21.7616 3.02493 21.6314 2.99902 21.5 2.99902C21.3686 2.99902 21.2385 3.02493 21.1171 3.07525C20.9957 3.12557 20.8854 3.19933 20.7925 3.29231L4.63876 19.4461C3.58917 20.4957 2.99951 21.9192 2.99951 23.4036C2.99951 24.8879 3.58917 26.3115 4.63876 27.3611C5.68836 28.4107 7.11191 29.0003 8.59626 29.0003C10.0806 29.0003 11.5042 28.4107 12.5538 27.3611L26.54 13.3748L29.3163 12.4498C29.4781 12.396 29.6235 12.3017 29.7386 12.1758C29.8537 12.05 29.9347 11.8968 29.9739 11.7308C30.0131 11.5648 30.0092 11.3916 29.9626 11.2276C29.9159 11.0635 29.8281 10.9141 29.7075 10.7936V10.7923ZM11.1388 25.9461C10.4603 26.6 9.55226 26.9614 8.61 26.9527C7.66775 26.9441 6.76654 26.5659 6.10024 25.8996C5.43394 25.2333 5.05577 24.3321 5.04708 23.3898C5.03838 22.4476 5.39986 21.5395 6.05376 20.8611L9.65376 17.2611C10.7125 16.8986 12.3725 16.7611 14.5375 17.8861C15.8625 18.5786 17.06 18.8861 18.1075 18.9773L11.1388 25.9461ZM25.6838 11.5511C25.5364 11.6 25.4024 11.6826 25.2925 11.7923L20.3463 16.7386C19.2875 17.1011 17.6275 17.2386 15.4625 16.1136C14.1375 15.4211 12.94 15.1136 11.8925 15.0223L21.5 5.41356L27.1488 11.0623L25.6838 11.5511Z" fill="#4A4A4F"/>
</svg>
