<svg width="32" height="32" viewBox="0 0 32 32" fill="none" xmlns="http://www.w3.org/2000/svg">
<path d="M19 7V22C19 22.2652 18.8946 22.5196 18.7071 22.7071C18.5196 22.8946 18.2652 23 18 23C17.7348 23 17.4804 22.8946 17.2929 22.7071C17.1054 22.5196 17 22.2652 17 22V15.5H6V22C6 22.2652 5.89464 22.5196 5.70711 22.7071C5.51957 22.8946 5.26522 23 5 23C4.73478 23 4.48043 22.8946 4.29289 22.7071C4.10536 22.5196 4 22.2652 4 22V7C4 6.73478 4.10536 6.48043 4.29289 6.29289C4.48043 6.10536 4.73478 6 5 6C5.26522 6 5.51957 6.10536 5.70711 6.29289C5.89464 6.48043 6 6.73478 6 7V13.5H17V7C17 6.73478 17.1054 6.48043 17.2929 6.29289C17.4804 6.10536 17.7348 6 18 6C18.2652 6 18.5196 6.10536 18.7071 6.29289C18.8946 6.48043 19 6.73478 19 7ZM26.5 18C26.1036 17.9992 25.7085 18.0471 25.3237 18.1425L25.8475 15H30C30.2652 15 30.5196 14.8946 30.7071 14.7071C30.8946 14.5196 31 14.2652 31 14C31 13.7348 30.8946 13.4804 30.7071 13.2929C30.5196 13.1054 30.2652 13 30 13H25C24.7634 13 24.5345 13.0839 24.3539 13.2368C24.1733 13.3897 24.0528 13.6016 24.0138 13.835L23.0138 19.835C22.9788 20.0448 23.0116 20.2602 23.1074 20.4501C23.2032 20.6399 23.3571 20.7943 23.5466 20.8907C23.7362 20.9872 23.9515 21.0207 24.1614 20.9864C24.3713 20.9521 24.5648 20.8518 24.7138 20.7C24.9496 20.4699 25.2292 20.2894 25.536 20.1692C25.8428 20.049 26.1706 19.9914 26.5 20C27.163 20 27.7989 20.2634 28.2678 20.7322C28.7366 21.2011 29 21.837 29 22.5C29 23.163 28.7366 23.7989 28.2678 24.2678C27.7989 24.7366 27.163 25 26.5 25C26.1706 25.0086 25.8428 24.951 25.536 24.8308C25.2292 24.7106 24.9496 24.5301 24.7138 24.3C24.6227 24.2026 24.5131 24.1245 24.3913 24.0701C24.2696 24.0157 24.1383 23.9862 24.005 23.9833C23.8717 23.9804 23.7392 24.0043 23.6152 24.0533C23.4913 24.1024 23.3784 24.1758 23.2832 24.2691C23.188 24.3625 23.1125 24.4739 23.061 24.5969C23.0095 24.7199 22.9831 24.8519 22.9834 24.9852C22.9837 25.1185 23.0106 25.2504 23.0626 25.3732C23.1146 25.4959 23.1907 25.6071 23.2862 25.7C23.7074 26.121 24.209 26.4531 24.7611 26.6764C25.3132 26.8997 25.9045 27.0098 26.5 27C27.6935 27 28.8381 26.5259 29.682 25.682C30.5259 24.8381 31 23.6935 31 22.5C31 21.3065 30.5259 20.1619 29.682 19.318C28.8381 18.4741 27.6935 18 26.5 18Z" fill="#4A4A4F"/>
</svg>
