<svg width="32" height="32" viewBox="0 0 32 32" fill="none" xmlns="http://www.w3.org/2000/svg">
<path d="M19 7V22C19 22.2652 18.8946 22.5196 18.7071 22.7071C18.5196 22.8946 18.2652 23 18 23C17.7348 23 17.4804 22.8946 17.2929 22.7071C17.1054 22.5196 17 22.2652 17 22V15.5H6V22C6 22.2652 5.89464 22.5196 5.70711 22.7071C5.51957 22.8946 5.26522 23 5 23C4.73478 23 4.48043 22.8946 4.29289 22.7071C4.10536 22.5196 4 22.2652 4 22V7C4 6.73478 4.10536 6.48043 4.29289 6.29289C4.48043 6.10536 4.73478 6 5 6C5.26522 6 5.51957 6.10536 5.70711 6.29289C5.89464 6.48043 6 6.73478 6 7V13.5H17V7C17 6.73478 17.1054 6.48043 17.2929 6.29289C17.4804 6.10536 17.7348 6 18 6C18.2652 6 18.5196 6.10536 18.7071 6.29289C18.8946 6.48043 19 6.73478 19 7ZM31 21H30V18C30 17.7348 29.8946 17.4804 29.7071 17.2929C29.5196 17.1054 29.2652 17 29 17C28.7348 17 28.4804 17.1054 28.2929 17.2929C28.1054 17.4804 28 17.7348 28 18V21H24.3875L26.9487 13.3162C27.0326 13.0646 27.0131 12.79 26.8945 12.5528C26.7759 12.3155 26.5679 12.1351 26.3162 12.0513C26.0646 11.9674 25.79 11.9869 25.5528 12.1055C25.3155 12.2241 25.1351 12.4321 25.0513 12.6838L22.0513 21.6838C22.0011 21.8341 21.9875 21.9942 22.0114 22.1508C22.0353 22.3075 22.096 22.4562 22.1887 22.5847C22.2814 22.7133 22.4032 22.818 22.5443 22.8902C22.6853 22.9624 22.8415 23 23 23H28V26C28 26.2652 28.1054 26.5196 28.2929 26.7071C28.4804 26.8946 28.7348 27 29 27C29.2652 27 29.5196 26.8946 29.7071 26.7071C29.8946 26.5196 30 26.2652 30 26V23H31C31.2652 23 31.5196 22.8946 31.7071 22.7071C31.8946 22.5196 32 22.2652 32 22C32 21.7348 31.8946 21.4804 31.7071 21.2929C31.5196 21.1054 31.2652 21 31 21Z" fill="#4A4A4F"/>
</svg>
