<svg width="32" height="32" viewBox="0 0 32 32" fill="none" xmlns="http://www.w3.org/2000/svg">
<path d="M18.5912 15H13.4087L16 9.38625L18.5912 15ZM27 4V28C27 28.2652 26.8946 28.5196 26.7071 28.7071C26.5196 28.8946 26.2652 29 26 29H6C5.73478 29 5.48043 28.8946 5.29289 28.7071C5.10536 28.5196 5 28.2652 5 28V4C5 3.73478 5.10536 3.48043 5.29289 3.29289C5.48043 3.10536 5.73478 3 6 3H26C26.2652 3 26.5196 3.10536 26.7071 3.29289C26.8946 3.48043 27 3.73478 27 4ZM9.58125 20.9075C9.82195 21.0184 10.0968 21.0292 10.3455 20.9376C10.5942 20.8459 10.7963 20.6593 10.9075 20.4188L12.4862 17H19.5138L21.0925 20.4188C21.209 20.6506 21.411 20.8282 21.6559 20.9139C21.9009 20.9996 22.1695 20.9867 22.4051 20.878C22.6408 20.7693 22.8249 20.5732 22.9186 20.3312C23.0124 20.0893 23.0084 19.8203 22.9075 19.5812L16.9075 6.58125C16.8273 6.40807 16.6993 6.26144 16.5385 6.15867C16.3777 6.05591 16.1908 6.0013 16 6.0013C15.8092 6.0013 15.6223 6.05591 15.4615 6.15867C15.3007 6.26144 15.1727 6.40807 15.0925 6.58125L9.0925 19.5812C8.98159 19.822 8.97077 20.0968 9.06241 20.3455C9.15405 20.5942 9.34067 20.7963 9.58125 20.9075ZM25 24C25 23.7348 24.8946 23.4804 24.7071 23.2929C24.5196 23.1054 24.2652 23 24 23H8C7.73478 23 7.48043 23.1054 7.29289 23.2929C7.10536 23.4804 7 23.7348 7 24C7 24.2652 7.10536 24.5196 7.29289 24.7071C7.48043 24.8946 7.73478 25 8 25H24C24.2652 25 24.5196 24.8946 24.7071 24.7071C24.8946 24.5196 25 24.2652 25 24Z" fill="#4A4A4F"/>
</svg>
