<svg width="32" height="32" viewBox="0 0 32 32" fill="none" xmlns="http://www.w3.org/2000/svg">
<path d="M27.9998 16.0001C27.9998 16.2653 27.8945 16.5196 27.7069 16.7072C27.5194 16.8947 27.265 17.0001 26.9998 17.0001H13.9998C13.7346 17.0001 13.4802 16.8947 13.2927 16.7072C13.1052 16.5196 12.9998 16.2653 12.9998 16.0001C12.9998 15.7349 13.1052 15.4805 13.2927 15.293C13.4802 15.1054 13.7346 15.0001 13.9998 15.0001H26.9998C27.265 15.0001 27.5194 15.1054 27.7069 15.293C27.8945 15.4805 27.9998 15.7349 27.9998 16.0001ZM13.9998 9.00007H26.9998C27.265 9.00007 27.5194 8.89471 27.7069 8.70717C27.8945 8.51964 27.9998 8.26528 27.9998 8.00007C27.9998 7.73485 27.8945 7.4805 27.7069 7.29296C27.5194 7.10542 27.265 7.00007 26.9998 7.00007H13.9998C13.7346 7.00007 13.4802 7.10542 13.2927 7.29296C13.1052 7.4805 12.9998 7.73485 12.9998 8.00007C12.9998 8.26528 13.1052 8.51964 13.2927 8.70717C13.4802 8.89471 13.7346 9.00007 13.9998 9.00007ZM26.9998 23.0001H4.99981C4.73459 23.0001 4.48024 23.1054 4.2927 23.293C4.10517 23.4805 3.99981 23.7349 3.99981 24.0001C3.99981 24.2653 4.10517 24.5196 4.2927 24.7072C4.48024 24.8947 4.73459 25.0001 4.99981 25.0001H26.9998C27.265 25.0001 27.5194 24.8947 27.7069 24.7072C27.8945 24.5196 27.9998 24.2653 27.9998 24.0001C27.9998 23.7349 27.8945 23.4805 27.7069 23.293C27.5194 23.1054 27.265 23.0001 26.9998 23.0001ZM8.99981 18.0001C9.19771 18.0002 9.3912 17.9417 9.55579 17.8318C9.72039 17.7219 9.84868 17.5657 9.92443 17.3829C10.0002 17.2 10.02 16.9988 9.98134 16.8048C9.94269 16.6107 9.84732 16.4324 9.70731 16.2926L5.41356 12.0001L9.70731 7.70757C9.89495 7.51993 10.0004 7.26543 10.0004 7.00007C10.0004 6.7347 9.89495 6.48021 9.70731 6.29257C9.51967 6.10493 9.26517 5.99951 8.99981 5.99951C8.73445 5.99951 8.47995 6.10493 8.29231 6.29257L3.29231 11.2926C3.19933 11.3854 3.12557 11.4957 3.07525 11.6171C3.02493 11.7385 2.99902 11.8687 2.99902 12.0001C2.99902 12.1315 3.02493 12.2616 3.07525 12.383C3.12557 12.5044 3.19933 12.6147 3.29231 12.7076L8.29231 17.7076C8.38525 17.8004 8.49557 17.874 8.61696 17.9242C8.73836 17.9744 8.86845 18.0002 8.99981 18.0001Z" fill="#4A4A4F"/>
</svg>
