<svg width="32" height="32" viewBox="0 0 32 32" fill="none" xmlns="http://www.w3.org/2000/svg">
<path d="M28.0001 16.0001C28.0001 16.2653 27.8947 16.5196 27.7072 16.7072C27.5196 16.8947 27.2653 17.0001 27.0001 17.0001H14.0001C13.7348 17.0001 13.4805 16.8947 13.2929 16.7072C13.1054 16.5196 13.0001 16.2653 13.0001 16.0001C13.0001 15.7349 13.1054 15.4805 13.2929 15.293C13.4805 15.1054 13.7348 15.0001 14.0001 15.0001H27.0001C27.2653 15.0001 27.5196 15.1054 27.7072 15.293C27.8947 15.4805 28.0001 15.7349 28.0001 16.0001ZM14.0001 9.00007H27.0001C27.2653 9.00007 27.5196 8.89471 27.7072 8.70717C27.8947 8.51964 28.0001 8.26528 28.0001 8.00007C28.0001 7.73485 27.8947 7.4805 27.7072 7.29296C27.5196 7.10542 27.2653 7.00007 27.0001 7.00007H14.0001C13.7348 7.00007 13.4805 7.10542 13.2929 7.29296C13.1054 7.4805 13.0001 7.73485 13.0001 8.00007C13.0001 8.26528 13.1054 8.51964 13.2929 8.70717C13.4805 8.89471 13.7348 9.00007 14.0001 9.00007ZM27.0001 23.0001H5.00005C4.73484 23.0001 4.48048 23.1054 4.29295 23.293C4.10541 23.4805 4.00005 23.7349 4.00005 24.0001C4.00005 24.2653 4.10541 24.5196 4.29295 24.7072C4.48048 24.8947 4.73484 25.0001 5.00005 25.0001H27.0001C27.2653 25.0001 27.5196 24.8947 27.7072 24.7072C27.8947 24.5196 28.0001 24.2653 28.0001 24.0001C28.0001 23.7349 27.8947 23.4805 27.7072 23.293C27.5196 23.1054 27.2653 23.0001 27.0001 23.0001ZM4.29255 17.7076C4.38543 17.8005 4.49572 17.8743 4.61711 17.9246C4.73851 17.975 4.86864 18.0009 5.00005 18.0009C5.13147 18.0009 5.2616 17.975 5.38299 17.9246C5.50439 17.8743 5.61468 17.8005 5.70755 17.7076L10.7076 12.7076C10.8005 12.6147 10.8743 12.5044 10.9246 12.383C10.9749 12.2616 11.0008 12.1315 11.0008 12.0001C11.0008 11.8687 10.9749 11.7385 10.9246 11.6171C10.8743 11.4957 10.8005 11.3854 10.7076 11.2926L5.70755 6.29257C5.51991 6.10493 5.26542 5.99951 5.00005 5.99951C4.73469 5.99951 4.48019 6.10493 4.29255 6.29257C4.10491 6.48021 3.9995 6.7347 3.9995 7.00007C3.9995 7.26543 4.10491 7.51993 4.29255 7.70757L8.5863 12.0001L4.29255 16.2926C4.19958 16.3854 4.12582 16.4957 4.07549 16.6171C4.02517 16.7385 3.99927 16.8687 3.99927 17.0001C3.99927 17.1315 4.02517 17.2616 4.07549 17.383C4.12582 17.5044 4.19958 17.6147 4.29255 17.7076Z" fill="#4A4A4F"/>
</svg>
