<svg width="32" height="32" viewBox="0 0 32 32" fill="none" xmlns="http://www.w3.org/2000/svg">
<path d="M10.9051 6.57361C10.8243 6.40182 10.6963 6.25655 10.5361 6.1548C10.3758 6.05306 10.1899 5.99902 10.0001 5.99902C9.81026 5.99902 9.62435 6.05306 9.46409 6.1548C9.30383 6.25655 9.17585 6.40182 9.09509 6.57361L1.09509 23.5736C1.0392 23.6925 1.00726 23.8211 1.0011 23.9523C0.994942 24.0835 1.01468 24.2146 1.0592 24.3382C1.1491 24.5877 1.33444 24.7914 1.57447 24.9042C1.81449 25.0171 2.08952 25.03 2.33906 24.9401C2.5886 24.8502 2.79221 24.6649 2.90509 24.4249L4.98759 19.9999H15.0126L17.0951 24.4249C17.151 24.5437 17.2297 24.6504 17.3269 24.7388C17.424 24.8272 17.5376 24.8956 17.6611 24.9401C17.7847 24.9846 17.9158 25.0044 18.047 24.9982C18.1782 24.9921 18.3069 24.9601 18.4257 24.9042C18.5446 24.8483 18.6512 24.7696 18.7396 24.6725C18.8281 24.5753 18.8965 24.4618 18.941 24.3382C18.9855 24.2146 19.0052 24.0835 18.9991 23.9523C18.9929 23.8211 18.961 23.6925 18.9051 23.5736L10.9051 6.57361ZM5.92884 17.9999L10.0001 9.34861L14.0713 17.9999H5.92884ZM25.0001 11.9999C23.4051 11.9999 22.1588 12.4336 21.2963 13.2899C21.1158 13.4781 21.0159 13.7295 21.018 13.9903C21.0202 14.2511 21.1241 14.5008 21.3078 14.6861C21.4914 14.8713 21.7402 14.9775 22.001 14.982C22.2618 14.9864 22.514 14.8888 22.7038 14.7099C23.1788 14.2386 23.9538 13.9999 25.0001 13.9999C26.6538 13.9999 28.0001 15.1249 28.0001 16.4999V16.9024C27.1127 16.3086 26.0678 15.9943 25.0001 15.9999C22.2426 15.9999 20.0001 18.0186 20.0001 20.4999C20.0001 22.9811 22.2426 24.9999 25.0001 24.9999C26.0682 25.0045 27.1132 24.6889 28.0001 24.0936C28.0125 24.3588 28.1298 24.6082 28.3261 24.787C28.5225 24.9657 28.7817 25.0592 29.047 25.0467C29.3122 25.0343 29.5616 24.917 29.7403 24.7207C29.9191 24.5244 30.0125 24.2651 30.0001 23.9999V16.4999C30.0001 14.0186 27.7576 11.9999 25.0001 11.9999ZM25.0001 22.9999C23.3463 22.9999 22.0001 21.8749 22.0001 20.4999C22.0001 19.1249 23.3463 17.9999 25.0001 17.9999C26.6538 17.9999 28.0001 19.1249 28.0001 20.4999C28.0001 21.8749 26.6538 22.9999 25.0001 22.9999Z" fill="#4A4A4F"/>
</svg>
