<svg width="32" height="32" viewBox="0 0 32 32" fill="none" xmlns="http://www.w3.org/2000/svg">
<path d="M26 4H6C5.46957 4 4.96086 4.21071 4.58579 4.58579C4.21071 4.96086 4 5.46957 4 6V26C4 26.5304 4.21071 27.0391 4.58579 27.4142C4.96086 27.7893 5.46957 28 6 28H26C26.5304 28 27.0391 27.7893 27.4142 27.4142C27.7893 27.0391 28 26.5304 28 26V6C28 5.46957 27.7893 4.96086 27.4142 4.58579C27.0391 4.21071 26.5304 4 26 4ZM23 12C23 12.2652 22.8946 12.5196 22.7071 12.7071C22.5196 12.8946 22.2652 13 22 13C21.7348 13 21.4804 12.8946 21.2929 12.7071C21.1054 12.5196 21 12.2652 21 12V11H17V22H19C19.2652 22 19.5196 22.1054 19.7071 22.2929C19.8946 22.4804 20 22.7348 20 23C20 23.2652 19.8946 23.5196 19.7071 23.7071C19.5196 23.8946 19.2652 24 19 24H13C12.7348 24 12.4804 23.8946 12.2929 23.7071C12.1054 23.5196 12 23.2652 12 23C12 22.7348 12.1054 22.4804 12.2929 22.2929C12.4804 22.1054 12.7348 22 13 22H15V11H11V12C11 12.2652 10.8946 12.5196 10.7071 12.7071C10.5196 12.8946 10.2652 13 10 13C9.73478 13 9.48043 12.8946 9.29289 12.7071C9.10536 12.5196 9 12.2652 9 12V10C9 9.73478 9.10536 9.48043 9.29289 9.29289C9.48043 9.10536 9.73478 9 10 9H22C22.2652 9 22.5196 9.10536 22.7071 9.29289C22.8946 9.48043 23 9.73478 23 10V12Z" fill="#4A4A4F"/>
</svg>
