<svg width="32" height="32" viewBox="0 0 32 32" fill="none" xmlns="http://www.w3.org/2000/svg">
<path d="M31 10V22C31 22.5304 30.7893 23.0391 30.4142 23.4142C30.0391 23.7893 29.5304 24 29 24H18C17.7348 24 17.4804 23.8946 17.2929 23.7071C17.1054 23.5196 17 23.2652 17 23V9C17 8.73478 17.1054 8.48043 17.2929 8.29289C17.4804 8.10536 17.7348 8 18 8H29C29.5304 8 30.0391 8.21071 30.4142 8.58579C30.7893 8.96086 31 9.46957 31 10ZM15 6V26C15 26.2652 14.8946 26.5196 14.7071 26.7071C14.5196 26.8946 14.2652 27 14 27C13.7348 27 13.4804 26.8946 13.2929 26.7071C13.1054 26.5196 13 26.2652 13 26V24H3C2.46957 24 1.96086 23.7893 1.58579 23.4142C1.21071 23.0391 1 22.5304 1 22V10C1 9.46957 1.21071 8.96086 1.58579 8.58579C1.96086 8.21071 2.46957 8 3 8H13V6C13 5.73478 13.1054 5.48043 13.2929 5.29289C13.4804 5.10536 13.7348 5 14 5C14.2652 5 14.5196 5.10536 14.7071 5.29289C14.8946 5.48043 15 5.73478 15 6ZM11 14C11 13.7348 10.8946 13.4804 10.7071 13.2929C10.5196 13.1054 10.2652 13 10 13H6C5.73478 13 5.48043 13.1054 5.29289 13.2929C5.10536 13.4804 5 13.7348 5 14C5 14.2652 5.10536 14.5196 5.29289 14.7071C5.48043 14.8946 5.73478 15 6 15H7V18C7 18.2652 7.10536 18.5196 7.29289 18.7071C7.48043 18.8946 7.73478 19 8 19C8.26522 19 8.51957 18.8946 8.70711 18.7071C8.89464 18.5196 9 18.2652 9 18V15H10C10.2652 15 10.5196 14.8946 10.7071 14.7071C10.8946 14.5196 11 14.2652 11 14Z" fill="#4A4A4F"/>
</svg>
