<svg width="32" height="32" viewBox="0 0 32 32" fill="none" xmlns="http://www.w3.org/2000/svg">
<path d="M24 19C24 19.3956 23.8827 19.7822 23.6629 20.1111C23.4432 20.44 23.1308 20.6964 22.7654 20.8478C22.3999 20.9991 21.9978 21.0387 21.6098 20.9616C21.2219 20.8844 20.8655 20.6939 20.5858 20.4142C20.3061 20.1345 20.1156 19.7781 20.0384 19.3902C19.9613 19.0022 20.0009 18.6001 20.1522 18.2346C20.3036 17.8692 20.56 17.5568 20.8889 17.3371C21.2178 17.1173 21.6044 17 22 17C22.5304 17 23.0391 17.2107 23.4142 17.5858C23.7893 17.9609 24 18.4696 24 19ZM28 6V26C28 26.5304 27.7893 27.0391 27.4142 27.4142C27.0391 27.7893 26.5304 28 26 28H6C5.46957 28 4.96086 27.7893 4.58579 27.4142C4.21071 27.0391 4 26.5304 4 26V6C4 5.46957 4.21071 4.96086 4.58579 4.58579C4.96086 4.21071 5.46957 4 6 4H26C26.5304 4 27.0391 4.21071 27.4142 4.58579C27.7893 4.96086 28 5.46957 28 6ZM16 10C16 9.73478 15.8946 9.48043 15.7071 9.29289C15.5196 9.10536 15.2652 9 15 9C14.7348 9 14.4804 9.10536 14.2929 9.29289C14.1054 9.48043 14 9.73478 14 10V14H9V10C9 9.73478 8.89464 9.48043 8.70711 9.29289C8.51957 9.10536 8.26522 9 8 9C7.73478 9 7.48043 9.10536 7.29289 9.29289C7.10536 9.48043 7 9.73478 7 10V20C7 20.2652 7.10536 20.5196 7.29289 20.7071C7.48043 20.8946 7.73478 21 8 21C8.26522 21 8.51957 20.8946 8.70711 20.7071C8.89464 20.5196 9 20.2652 9 20V16H14V20C14 20.2652 14.1054 20.5196 14.2929 20.7071C14.4804 20.8946 14.7348 21 15 21C15.2652 21 15.5196 20.8946 15.7071 20.7071C15.8946 20.5196 16 20.2652 16 20V10ZM26 19C26 17.9391 25.5786 16.9217 24.8284 16.1716C24.0783 15.4214 23.0609 15 22 15L23.4438 12.5C23.5764 12.2703 23.6123 11.9972 23.5436 11.741C23.4749 11.4848 23.3072 11.2664 23.0775 11.1337C22.8478 11.0011 22.5747 10.9652 22.3185 11.0339C22.0623 11.1026 21.8439 11.2703 21.7113 11.5L18.5362 17L18.5187 17.0338C18.2172 17.5666 18.042 18.1616 18.0067 18.7728C17.9713 19.384 18.0768 19.9952 18.3148 20.5593C18.5529 21.1233 18.9173 21.6252 19.38 22.0262C19.8426 22.4273 20.3911 22.7167 20.9832 22.8724C21.5754 23.028 22.1953 23.0456 22.7954 22.9239C23.3954 22.8021 23.9595 22.5443 24.4441 22.1702C24.9288 21.7961 25.3211 21.3157 25.5908 20.7661C25.8606 20.2165 26.0006 19.6122 26 19Z" fill="#4A4A4F"/>
</svg>
