<svg width="32" height="32" viewBox="0 0 32 32" fill="none" xmlns="http://www.w3.org/2000/svg">
<path d="M27.9998 15.9998C27.9998 16.265 27.8945 16.5194 27.7069 16.7069C27.5194 16.8945 27.265 16.9998 26.9998 16.9998H13.9998C13.7346 16.9998 13.4802 16.8945 13.2927 16.7069C13.1052 16.5194 12.9998 16.265 12.9998 15.9998C12.9998 15.7346 13.1052 15.4802 13.2927 15.2927C13.4802 15.1052 13.7346 14.9998 13.9998 14.9998H26.9998C27.265 14.9998 27.5194 15.1052 27.7069 15.2927C27.8945 15.4802 27.9998 15.7346 27.9998 15.9998ZM13.9998 8.99981H26.9998C27.265 8.99981 27.5194 8.89445 27.7069 8.70692C27.8945 8.51938 27.9998 8.26503 27.9998 7.99981C27.9998 7.73459 27.8945 7.48024 27.7069 7.2927C27.5194 7.10517 27.265 6.99981 26.9998 6.99981H13.9998C13.7346 6.99981 13.4802 7.10517 13.2927 7.2927C13.1052 7.48024 12.9998 7.73459 12.9998 7.99981C12.9998 8.26503 13.1052 8.51938 13.2927 8.70692C13.4802 8.89445 13.7346 8.99981 13.9998 8.99981ZM26.9998 22.9998H4.99981C4.73459 22.9998 4.48024 23.1052 4.2927 23.2927C4.10517 23.4802 3.99981 23.7346 3.99981 23.9998C3.99981 24.265 4.10517 24.5194 4.2927 24.7069C4.48024 24.8945 4.73459 24.9998 4.99981 24.9998H26.9998C27.265 24.9998 27.5194 24.8945 27.7069 24.7069C27.8945 24.5194 27.9998 24.265 27.9998 23.9998C27.9998 23.7346 27.8945 23.4802 27.7069 23.2927C27.5194 23.1052 27.265 22.9998 26.9998 22.9998ZM8.99981 17.9998C9.26503 17.9998 9.51938 17.8945 9.70692 17.7069C9.89445 17.5194 9.99981 17.265 9.99981 16.9998V6.99981C9.99997 6.80192 9.9414 6.60842 9.83153 6.44383C9.72166 6.27923 9.56542 6.15094 9.3826 6.07519C9.19978 5.99944 8.99859 5.97963 8.8045 6.01828C8.61042 6.05693 8.43217 6.1523 8.29231 6.29231L3.29231 11.2923C3.19933 11.3852 3.12557 11.4955 3.07525 11.6169C3.02493 11.7383 2.99902 11.8684 2.99902 11.9998C2.99902 12.1312 3.02493 12.2614 3.07525 12.3828C3.12557 12.5041 3.19933 12.6144 3.29231 12.7073L8.29231 17.7073C8.38525 17.8001 8.49557 17.8738 8.61696 17.9239C8.73836 17.9741 8.86845 17.9999 8.99981 17.9998Z" fill="#4A4A4F"/>
</svg>
