<svg width="32" height="32" viewBox="0 0 32 32" fill="none" xmlns="http://www.w3.org/2000/svg">
<path d="M4 8C4 7.73478 4.10536 7.48043 4.29289 7.29289C4.48043 7.10536 4.73478 7 5 7H27C27.2652 7 27.5196 7.10536 27.7071 7.29289C27.8946 7.48043 28 7.73478 28 8C28 8.26522 27.8946 8.51957 27.7071 8.70711C27.5196 8.89464 27.2652 9 27 9H5C4.73478 9 4.48043 8.89464 4.29289 8.70711C4.10536 8.51957 4 8.26522 4 8ZM5 14H21C21.2652 14 21.5196 13.8946 21.7071 13.7071C21.8946 13.5196 22 13.2652 22 13C22 12.7348 21.8946 12.4804 21.7071 12.2929C21.5196 12.1054 21.2652 12 21 12H5C4.73478 12 4.48043 12.1054 4.29289 12.2929C4.10536 12.4804 4 12.7348 4 13C4 13.2652 4.10536 13.5196 4.29289 13.7071C4.48043 13.8946 4.73478 14 5 14ZM27 17H5C4.73478 17 4.48043 17.1054 4.29289 17.2929C4.10536 17.4804 4 17.7348 4 18C4 18.2652 4.10536 18.5196 4.29289 18.7071C4.48043 18.8946 4.73478 19 5 19H27C27.2652 19 27.5196 18.8946 27.7071 18.7071C27.8946 18.5196 28 18.2652 28 18C28 17.7348 27.8946 17.4804 27.7071 17.2929C27.5196 17.1054 27.2652 17 27 17ZM21 22H5C4.73478 22 4.48043 22.1054 4.29289 22.2929C4.10536 22.4804 4 22.7348 4 23C4 23.2652 4.10536 23.5196 4.29289 23.7071C4.48043 23.8946 4.73478 24 5 24H21C21.2652 24 21.5196 23.8946 21.7071 23.7071C21.8946 23.5196 22 23.2652 22 23C22 22.7348 21.8946 22.4804 21.7071 22.2929C21.5196 22.1054 21.2652 22 21 22Z" fill="#4A4A4F"/>
</svg>
