<svg width="32" height="32" viewBox="0 0 32 32" fill="none" xmlns="http://www.w3.org/2000/svg">
<path d="M19 7V22C19 22.2652 18.8946 22.5196 18.7071 22.7071C18.5196 22.8946 18.2652 23 18 23C17.7348 23 17.4804 22.8946 17.2929 22.7071C17.1054 22.5196 17 22.2652 17 22V15.5H6V22C6 22.2652 5.89464 22.5196 5.70711 22.7071C5.51957 22.8946 5.26522 23 5 23C4.73478 23 4.48043 22.8946 4.29289 22.7071C4.10536 22.5196 4 22.2652 4 22V7C4 6.73478 4.10536 6.48043 4.29289 6.29289C4.48043 6.10536 4.73478 6 5 6C5.26522 6 5.51957 6.10536 5.70711 6.29289C5.89464 6.48043 6 6.73478 6 7V13.5H17V7C17 6.73478 17.1054 6.48043 17.2929 6.29289C17.4804 6.10536 17.7348 6 18 6C18.2652 6 18.5196 6.10536 18.7071 6.29289C18.8946 6.48043 19 6.73478 19 7ZM31 22.5C31.0007 23.1887 30.8432 23.8683 30.5399 24.4866C30.2365 25.1049 29.7952 25.6453 29.2501 26.0662C28.705 26.487 28.0706 26.7772 27.3957 26.9143C26.7207 27.0514 26.0234 27.0317 25.3573 26.8568C24.6911 26.6819 24.0741 26.3565 23.5535 25.9055C23.033 25.4546 22.6229 24.8902 22.3549 24.2558C22.0868 23.6214 21.9679 22.934 22.0074 22.2464C22.0469 21.5589 22.2436 20.8895 22.5825 20.29C22.5913 20.2725 22.6 20.255 22.61 20.2375L26.6413 13.4875C26.7772 13.2597 26.998 13.0953 27.2552 13.0304C27.5123 12.9654 27.7847 13.0053 28.0125 13.1412C28.2403 13.2772 28.4047 13.498 28.4696 13.7552C28.5346 14.0123 28.4947 14.2847 28.3587 14.5125L26.2725 18.0125C26.3475 18.0125 26.4237 18.0063 26.5 18.0063C27.6924 18.0062 28.836 18.4795 29.6798 19.3221C30.5235 20.1646 30.9983 21.3076 31 22.5ZM29 22.5C29 22.0055 28.8534 21.5222 28.5787 21.1111C28.304 20.7 27.9135 20.3795 27.4567 20.1903C26.9999 20.0011 26.4972 19.9516 26.0123 20.048C25.5273 20.1445 25.0819 20.3826 24.7322 20.7322C24.3826 21.0819 24.1445 21.5273 24.048 22.0123C23.9516 22.4972 24.0011 22.9999 24.1903 23.4567C24.3795 23.9135 24.7 24.304 25.1111 24.5787C25.5222 24.8534 26.0055 25 26.5 25C27.163 25 27.7989 24.7366 28.2678 24.2678C28.7366 23.7989 29 23.163 29 22.5Z" fill="#4A4A4F"/>
</svg>
