<svg width="32" height="32" viewBox="0 0 32 32" fill="none" xmlns="http://www.w3.org/2000/svg">
<path d="M28 15.9998C28 16.265 27.8946 16.5194 27.7071 16.7069C27.5196 16.8945 27.2652 16.9998 27 16.9998H14C13.7348 16.9998 13.4804 16.8945 13.2929 16.7069C13.1054 16.5194 13 16.265 13 15.9998C13 15.7346 13.1054 15.4802 13.2929 15.2927C13.4804 15.1052 13.7348 14.9998 14 14.9998H27C27.2652 14.9998 27.5196 15.1052 27.7071 15.2927C27.8946 15.4802 28 15.7346 28 15.9998ZM14 8.99981H27C27.2652 8.99981 27.5196 8.89445 27.7071 8.70692C27.8946 8.51938 28 8.26503 28 7.99981C28 7.73459 27.8946 7.48024 27.7071 7.2927C27.5196 7.10517 27.2652 6.99981 27 6.99981H14C13.7348 6.99981 13.4804 7.10517 13.2929 7.2927C13.1054 7.48024 13 7.73459 13 7.99981C13 8.26503 13.1054 8.51938 13.2929 8.70692C13.4804 8.89445 13.7348 8.99981 14 8.99981ZM27 22.9998H5C4.73478 22.9998 4.48043 23.1052 4.29289 23.2927C4.10536 23.4802 4 23.7346 4 23.9998C4 24.265 4.10536 24.5194 4.29289 24.7069C4.48043 24.8945 4.73478 24.9998 5 24.9998H27C27.2652 24.9998 27.5196 24.8945 27.7071 24.7069C27.8946 24.5194 28 24.265 28 23.9998C28 23.7346 27.8946 23.4802 27.7071 23.2927C27.5196 23.1052 27.2652 22.9998 27 22.9998ZM4.6175 17.9236C4.8002 17.9994 5.00128 18.0193 5.1953 17.9808C5.38932 17.9423 5.56757 17.8471 5.7075 17.7073L10.7075 12.7073C10.8005 12.6144 10.8742 12.5041 10.9246 12.3828C10.9749 12.2614 11.0008 12.1312 11.0008 11.9998C11.0008 11.8684 10.9749 11.7383 10.9246 11.6169C10.8742 11.4955 10.8005 11.3852 10.7075 11.2923L5.7075 6.29231C5.56764 6.1523 5.38939 6.05693 5.19531 6.01828C5.00122 5.97963 4.80003 5.99944 4.61721 6.07519C4.43439 6.15094 4.27815 6.27923 4.16828 6.44383C4.05841 6.60842 3.99984 6.80192 4 6.99981V16.9998C4.00004 17.1976 4.05873 17.3909 4.16864 17.5553C4.27856 17.7198 4.43476 17.8479 4.6175 17.9236Z" fill="#4A4A4F"/>
</svg>
