<svg width="32" height="32" viewBox="0 0 32 32" fill="none" xmlns="http://www.w3.org/2000/svg">
<path d="M19 7V22C19 22.2652 18.8946 22.5196 18.7071 22.7071C18.5196 22.8946 18.2652 23 18 23C17.7348 23 17.4804 22.8946 17.2929 22.7071C17.1054 22.5196 17 22.2652 17 22V15.5H6V22C6 22.2652 5.89464 22.5196 5.70711 22.7071C5.51957 22.8946 5.26522 23 5 23C4.73478 23 4.48043 22.8946 4.29289 22.7071C4.10536 22.5196 4 22.2652 4 22V7C4 6.73478 4.10536 6.48043 4.29289 6.29289C4.48043 6.10536 4.73478 6 5 6C5.26522 6 5.51957 6.10536 5.70711 6.29289C5.89464 6.48043 6 6.73478 6 7V13.5H17V7C17 6.73478 17.1054 6.48043 17.2929 6.29289C17.4804 6.10536 17.7348 6 18 6C18.2652 6 18.5196 6.10536 18.7071 6.29289C18.8946 6.48043 19 6.73478 19 7ZM28.4713 13.125C28.3118 13.0395 28.1321 12.9989 27.9514 13.0075C27.7707 13.0161 27.5956 13.0735 27.445 13.1737L24.445 15.1737C24.3357 15.2466 24.2418 15.3403 24.1687 15.4495C24.0956 15.5587 24.0447 15.6812 24.0189 15.81C23.9931 15.9389 23.993 16.0715 24.0185 16.2004C24.044 16.3293 24.0946 16.4519 24.1675 16.5613C24.2404 16.6706 24.3341 16.7645 24.4433 16.8376C24.5524 16.9107 24.6749 16.9616 24.8038 16.9874C24.9326 17.0131 25.0653 17.0133 25.1942 16.9878C25.3231 16.9623 25.4457 16.9116 25.555 16.8388L27 15.875V26C27 26.2652 27.1054 26.5196 27.2929 26.7071C27.4804 26.8946 27.7348 27 28 27C28.2652 27 28.5196 26.8946 28.7071 26.7071C28.8946 26.5196 29 26.2652 29 26V14C28.9987 13.8201 28.949 13.6438 28.8559 13.4898C28.7628 13.3358 28.63 13.2098 28.4713 13.125Z" fill="#4A4A4F"/>
</svg>
