<svg width="32" height="32" viewBox="0 0 32 32" fill="none" xmlns="http://www.w3.org/2000/svg">
<path d="M26 4H6C5.46957 4 4.96086 4.21071 4.58579 4.58579C4.21071 4.96086 4 5.46957 4 6V26C4 26.5304 4.21071 27.0391 4.58579 27.4142C4.96086 27.7893 5.46957 28 6 28H26C26.5304 28 27.0391 27.7893 27.4142 27.4142C27.7893 27.0391 28 26.5304 28 26V6C28 5.46957 27.7893 4.96086 27.4142 4.58579C27.0391 4.21071 26.5304 4 26 4ZM23 22C23 22.2652 22.8946 22.5196 22.7071 22.7071C22.5196 22.8946 22.2652 23 22 23C21.7348 23 21.4804 22.8946 21.2929 22.7071C21.1054 22.5196 21 22.2652 21 22V17H11V22C11 22.2652 10.8946 22.5196 10.7071 22.7071C10.5196 22.8946 10.2652 23 10 23C9.73478 23 9.48043 22.8946 9.29289 22.7071C9.10536 22.5196 9 22.2652 9 22V10C9 9.73478 9.10536 9.48043 9.29289 9.29289C9.48043 9.10536 9.73478 9 10 9C10.2652 9 10.5196 9.10536 10.7071 9.29289C10.8946 9.48043 11 9.73478 11 10V15H21V10C21 9.73478 21.1054 9.48043 21.2929 9.29289C21.4804 9.10536 21.7348 9 22 9C22.2652 9 22.5196 9.10536 22.7071 9.29289C22.8946 9.48043 23 9.73478 23 10V22Z" fill="#4A4A4F"/>
</svg>
