<svg width="32" height="32" viewBox="0 0 32 32" fill="none" xmlns="http://www.w3.org/2000/svg">
<path d="M22.1763 10.0675C22.0261 9.84915 21.9687 9.5801 22.0167 9.31947C22.0648 9.05884 22.2143 8.82794 22.4325 8.6775C23.7325 7.78 25.7675 7.78 27.0675 8.6775C27.6925 9.11125 28.8025 9.11125 29.4325 8.6775C29.6508 8.53879 29.9144 8.49006 30.1679 8.54154C30.4213 8.59303 30.645 8.74073 30.7919 8.95362C30.9388 9.16652 30.9975 9.42805 30.9556 9.68329C30.9138 9.93854 30.7747 10.1676 30.5675 10.3225C29.8743 10.7617 29.0706 10.9949 28.25 10.9949C27.4294 10.9949 26.6257 10.7617 25.9325 10.3225C25.3075 9.88875 24.1975 9.88875 23.5675 10.3225C23.4594 10.3971 23.3377 10.4497 23.2093 10.4773C23.0808 10.5049 22.9482 10.5069 22.8191 10.4832C22.6899 10.4595 22.5666 10.4106 22.4563 10.3393C22.346 10.268 22.2508 10.1756 22.1763 10.0675ZM29.4325 12.6775C28.8075 13.1112 27.6975 13.1112 27.0675 12.6775C25.7675 11.78 23.7325 11.78 22.4325 12.6775C22.319 12.7496 22.2212 12.8439 22.1449 12.9548C22.0687 13.0656 22.0156 13.1907 21.9888 13.3225C21.962 13.4543 21.9621 13.5902 21.9891 13.7219C22.016 13.8537 22.0693 13.9787 22.1457 14.0894C22.2221 14.2002 22.32 14.2943 22.4337 14.3663C22.5473 14.4383 22.6743 14.4866 22.807 14.5084C22.9398 14.5301 23.0755 14.5249 23.2062 14.4929C23.3369 14.461 23.4598 14.403 23.5675 14.3225C24.1925 13.8888 25.3025 13.8888 25.9325 14.3225C26.6257 14.7617 27.4294 14.9949 28.25 14.9949C29.0706 14.9949 29.8743 14.7617 30.5675 14.3225C30.7747 14.1676 30.9138 13.9385 30.9556 13.6833C30.9975 13.428 30.9388 13.1665 30.7919 12.9536C30.645 12.7407 30.4213 12.593 30.1679 12.5415C29.9144 12.4901 29.6508 12.5388 29.4325 12.6775ZM22 24C22.0008 25.2038 21.6911 26.3875 21.1008 27.4367C20.5106 28.486 19.6597 29.3652 18.6304 29.9895C17.6011 30.6139 16.4282 30.9622 15.225 31.0009C14.0218 31.0396 12.8289 30.7674 11.7617 30.2105C10.6944 29.6535 9.78877 28.8308 9.13232 27.8217C8.47586 26.8126 8.09075 25.6512 8.01418 24.4498C7.93761 23.2484 8.17217 22.0475 8.6952 20.9633C9.21824 19.879 10.0121 18.9479 11 18.26V5C11 3.93913 11.4214 2.92172 12.1716 2.17157C12.9217 1.42143 13.9391 1 15 1C16.0609 1 17.0783 1.42143 17.8284 2.17157C18.5786 2.92172 19 3.93913 19 5V18.26C19.9254 18.9044 20.6815 19.7628 21.2038 20.7622C21.7261 21.7616 21.9993 22.8723 22 24ZM17 5C17 4.46957 16.7893 3.96086 16.4142 3.58579C16.0391 3.21071 15.5304 3 15 3C14.4696 3 13.9609 3.21071 13.5858 3.58579C13.2107 3.96086 13 4.46957 13 5V10H17V5Z" fill="#4A4A4F"/>
</svg>
