<svg width="32" height="32" viewBox="0 0 32 32" fill="none" xmlns="http://www.w3.org/2000/svg">
<path d="M31.1138 9.715L28.6138 10.5262L30.1562 12.6512C30.2378 12.7572 30.2972 12.8783 30.3311 13.0076C30.365 13.1369 30.3726 13.2717 30.3535 13.404C30.3344 13.5363 30.289 13.6634 30.22 13.7778C30.1509 13.8922 30.0596 13.9917 29.9515 14.0702C29.8434 14.1488 29.7206 14.2048 29.5904 14.2351C29.4602 14.2654 29.3253 14.2693 29.1936 14.2466C29.0619 14.2238 28.9361 14.1749 28.8236 14.1027C28.7111 14.0305 28.6143 13.9365 28.5387 13.8263L27 11.7013L25.4575 13.8263C25.2987 14.0326 25.0656 14.1689 24.8078 14.2061C24.5501 14.2433 24.288 14.1785 24.0773 14.0254C23.8666 13.8723 23.7239 13.6431 23.6796 13.3865C23.6353 13.1299 23.6928 12.8661 23.84 12.6512L25.3825 10.5262L22.8825 9.715C22.6302 9.63311 22.4208 9.45436 22.3003 9.21807C22.1798 8.98177 22.1581 8.70729 22.24 8.455C22.3219 8.20271 22.5006 7.99329 22.7369 7.8728C22.9732 7.7523 23.2477 7.73061 23.5 7.8125L26 8.625V6C26 5.73478 26.1054 5.48043 26.2929 5.29289C26.4804 5.10536 26.7348 5 27 5C27.2652 5 27.5196 5.10536 27.7071 5.29289C27.8946 5.48043 28 5.73478 28 6V8.625L30.5 7.81375C30.7523 7.7317 31.0268 7.75323 31.2632 7.8736C31.4997 7.99398 31.6786 8.20334 31.7606 8.45562C31.8427 8.70791 31.8211 8.98246 31.7008 9.21887C31.5804 9.45529 31.371 9.6342 31.1187 9.71625L31.1138 9.715ZM19 23C18.9996 23.748 18.7895 24.481 18.3935 25.1156C17.9974 25.7502 17.4314 26.2611 16.7596 26.5902C16.0878 26.9192 15.3372 27.0533 14.5931 26.9772C13.8489 26.9011 13.141 26.6179 12.5497 26.1596C11.9584 25.7014 11.5075 25.0866 11.2481 24.3849C10.9888 23.6833 10.9313 22.923 11.0824 22.1903C11.2334 21.4577 11.5869 20.7821 12.1026 20.2402C12.6184 19.6984 13.2757 19.312 14 19.125V15C14 14.7348 14.1054 14.4804 14.2929 14.2929C14.4804 14.1054 14.7348 14 15 14C15.2652 14 15.5196 14.1054 15.7071 14.2929C15.8946 14.4804 16 14.7348 16 15V19.125C16.8583 19.3479 17.6185 19.8493 18.1613 20.5505C18.7042 21.2517 18.9992 22.1132 19 23ZM17 23C17 22.6044 16.8827 22.2178 16.6629 21.8889C16.4432 21.56 16.1308 21.3036 15.7654 21.1522C15.3999 21.0009 14.9978 20.9613 14.6098 21.0384C14.2219 21.1156 13.8655 21.3061 13.5858 21.5858C13.3061 21.8655 13.1156 22.2219 13.0384 22.6098C12.9613 22.9978 13.0009 23.3999 13.1522 23.7654C13.3036 24.1308 13.56 24.4432 13.8889 24.6629C14.2178 24.8827 14.6044 25 15 25C15.5304 25 16.0391 24.7893 16.4142 24.4142C16.7893 24.0391 17 23.5304 17 23ZM23 23C22.9992 24.3527 22.6553 25.6831 22.0006 26.8669C21.3459 28.0506 20.4017 29.049 19.2564 29.7687C18.111 30.4884 16.8018 30.906 15.4512 30.9823C14.1007 31.0586 12.7528 30.7911 11.5336 30.205C10.3145 29.6189 9.26389 28.7332 8.48003 27.6307C7.69617 26.5282 7.20467 25.245 7.05147 23.901C6.89827 22.557 7.08839 21.196 7.60404 19.9455C8.11969 18.6949 8.94403 17.5955 10 16.75V6C10 4.67392 10.5268 3.40215 11.4645 2.46447C12.4021 1.52678 13.6739 1 15 1C16.3261 1 17.5979 1.52678 18.5355 2.46447C19.4732 3.40215 20 4.67392 20 6V16.75C20.9363 17.5005 21.6919 18.4518 22.2112 19.5336C22.7305 20.6154 23 21.8 23 23ZM21 23C20.9992 22.0327 20.7649 21.0798 20.3171 20.2224C19.8692 19.3649 19.221 18.6283 18.4275 18.075C18.2948 17.9823 18.1866 17.8589 18.1121 17.7152C18.0376 17.5715 17.9992 17.4118 18 17.25V6C18 5.20435 17.6839 4.44129 17.1213 3.87868C16.5587 3.31607 15.7957 3 15 3C14.2044 3 13.4413 3.31607 12.8787 3.87868C12.3161 4.44129 12 5.20435 12 6V17.25C12 17.411 11.9612 17.5696 11.8867 17.7124C11.8123 17.8551 11.7045 17.9778 11.5725 18.07C10.7258 18.6593 10.0454 19.4568 9.59689 20.3858C9.14836 21.3147 8.9469 22.3435 9.01194 23.373C9.07699 24.4025 9.40635 25.3978 9.96822 26.2629C10.5301 27.1279 11.3055 27.8335 12.2196 28.3115C13.1337 28.7896 14.1556 29.0238 15.1866 28.9918C16.2176 28.9597 17.223 28.6623 18.1056 28.1284C18.9882 27.5945 19.7182 26.8421 20.2252 25.9437C20.7322 25.0454 20.9991 24.0315 21 23Z" fill="#4A4A4F"/>
</svg>
