<svg width="32" height="32" viewBox="0 0 32 32" fill="none" xmlns="http://www.w3.org/2000/svg">
<path d="M20 18.26V5C20 3.93913 19.5786 2.92172 18.8284 2.17157C18.0783 1.42143 17.0609 1 16 1C14.9391 1 13.9217 1.42143 13.1716 2.17157C12.4214 2.92172 12 3.93913 12 5V18.26C10.777 19.1116 9.85772 20.3312 9.37592 21.7415C8.89412 23.1517 8.87496 24.6789 9.32123 26.1008C9.7675 27.5226 10.6559 28.765 11.8571 29.647C13.0584 30.529 14.5097 31.0046 16 31.0046C17.4903 31.0046 18.9416 30.529 20.1429 29.647C21.3441 28.765 22.2325 27.5226 22.6788 26.1008C23.125 24.6789 23.1059 23.1517 22.6241 21.7415C22.1423 20.3312 21.223 19.1116 20 18.26ZM16 3C16.5304 3 17.0391 3.21071 17.4142 3.58579C17.7893 3.96086 18 4.46957 18 5V10H14V5C14 4.46957 14.2107 3.96086 14.5858 3.58579C14.9609 3.21071 15.4696 3 16 3Z" fill="#4A4A4F"/>
</svg>
