<svg width="32" height="32" viewBox="0 0 32 32" fill="none" xmlns="http://www.w3.org/2000/svg">
<path d="M26.5 7C25.8078 7 25.1311 7.20527 24.5555 7.58986C23.9799 7.97444 23.5313 8.52107 23.2664 9.16061C23.0015 9.80015 22.9322 10.5039 23.0673 11.1828C23.2023 11.8617 23.5356 12.4854 24.0251 12.9749C24.5146 13.4644 25.1383 13.7977 25.8172 13.9327C26.4961 14.0678 27.1999 13.9985 27.8394 13.7336C28.4789 13.4687 29.0256 13.0201 29.4101 12.4445C29.7947 11.8689 30 11.1922 30 10.5C30 9.57174 29.6313 8.6815 28.9749 8.02513C28.3185 7.36875 27.4283 7 26.5 7ZM26.5 12C26.2033 12 25.9133 11.912 25.6666 11.7472C25.42 11.5824 25.2277 11.3481 25.1142 11.074C25.0007 10.7999 24.9709 10.4983 25.0288 10.2074C25.0867 9.91639 25.2296 9.64912 25.4393 9.43934C25.6491 9.22956 25.9164 9.0867 26.2074 9.02882C26.4983 8.97094 26.7999 9.00065 27.074 9.11418C27.3481 9.22771 27.5824 9.41997 27.7472 9.66665C27.912 9.91332 28 10.2033 28 10.5C28 10.8978 27.842 11.2794 27.5607 11.5607C27.2794 11.842 26.8978 12 26.5 12ZM16 19.125V11C16 10.7348 15.8946 10.4804 15.7071 10.2929C15.5196 10.1054 15.2652 10 15 10C14.7348 10 14.4804 10.1054 14.2929 10.2929C14.1054 10.4804 14 10.7348 14 11V19.125C13.0573 19.3684 12.2358 19.9472 11.6894 20.753C11.143 21.5588 10.9092 22.5362 11.0319 23.502C11.1546 24.4678 11.6253 25.3557 12.3558 25.9993C13.0863 26.6429 14.0264 26.998 15 26.998C15.9736 26.998 16.9137 26.6429 17.6442 25.9993C18.3747 25.3557 18.8454 24.4678 18.9681 23.502C19.0908 22.5362 18.857 21.5588 18.3106 20.753C17.7642 19.9472 16.9427 19.3684 16 19.125ZM15 25C14.6044 25 14.2178 24.8827 13.8889 24.6629C13.56 24.4432 13.3036 24.1308 13.1522 23.7654C13.0009 23.3999 12.9613 22.9978 13.0384 22.6098C13.1156 22.2219 13.3061 21.8655 13.5858 21.5858C13.8655 21.3061 14.2219 21.1156 14.6098 21.0384C14.9978 20.9613 15.3999 21.0009 15.7654 21.1522C16.1308 21.3036 16.4432 21.56 16.6629 21.8889C16.8827 22.2178 17 22.6044 17 23C17 23.5304 16.7893 24.0391 16.4142 24.4142C16.0391 24.7893 15.5304 25 15 25ZM20 16.75V6C20 4.67392 19.4732 3.40215 18.5355 2.46447C17.5979 1.52678 16.3261 1 15 1C13.6739 1 12.4021 1.52678 11.4645 2.46447C10.5268 3.40215 10 4.67392 10 6V16.75C8.70615 17.7859 7.76599 19.1981 7.30946 20.7915C6.85293 22.3848 6.90256 24.0806 7.45149 25.6445C8.00043 27.2084 9.02156 28.5633 10.3738 29.5217C11.726 30.4802 13.3425 30.995 15 30.995C16.6575 30.995 18.274 30.4802 19.6262 29.5217C20.9784 28.5633 21.9996 27.2084 22.5485 25.6445C23.0974 24.0806 23.1471 22.3848 22.6905 20.7915C22.234 19.1981 21.2939 17.7859 20 16.75ZM15 29C13.7224 29.0001 12.4782 28.5924 11.4484 27.8363C10.4186 27.0801 9.65707 26.0151 9.27464 24.7961C8.8922 23.5771 8.90885 22.2678 9.32215 21.059C9.73545 19.8501 10.5238 18.8047 11.5725 18.075C11.7052 17.9823 11.8134 17.8589 11.8879 17.7152C11.9624 17.5715 12.0008 17.4118 12 17.25V6C12 5.20435 12.3161 4.44129 12.8787 3.87868C13.4413 3.31607 14.2044 3 15 3C15.7956 3 16.5587 3.31607 17.1213 3.87868C17.6839 4.44129 18 5.20435 18 6V17.25C18 17.411 18.0388 17.5696 18.1133 17.7124C18.1877 17.8551 18.2955 17.9778 18.4275 18.07C19.4784 18.799 20.2688 19.8446 20.6835 21.0545C21.0982 22.2643 21.1155 23.575 20.7328 24.7953C20.3501 26.0157 19.5875 27.0818 18.5562 27.8382C17.5249 28.5946 16.2789 29.0016 15 29Z" fill="#4A4A4F"/>
</svg>
