<svg width="32" height="32" viewBox="0 0 32 32" fill="none" xmlns="http://www.w3.org/2000/svg">
<path d="M26.5 7C25.8078 7 25.1311 7.20527 24.5555 7.58986C23.9799 7.97444 23.5313 8.52107 23.2664 9.16061C23.0015 9.80015 22.9322 10.5039 23.0673 11.1828C23.2023 11.8617 23.5356 12.4854 24.0251 12.9749C24.5146 13.4644 25.1383 13.7977 25.8172 13.9327C26.4961 14.0678 27.1999 13.9985 27.8394 13.7336C28.4789 13.4687 29.0256 13.0201 29.4101 12.4445C29.7947 11.8689 30 11.1922 30 10.5C30 9.57174 29.6313 8.6815 28.9749 8.02513C28.3185 7.36875 27.4283 7 26.5 7ZM26.5 12C26.2033 12 25.9133 11.912 25.6666 11.7472C25.42 11.5824 25.2277 11.3481 25.1142 11.074C25.0007 10.7999 24.9709 10.4983 25.0288 10.2074C25.0867 9.91639 25.2296 9.64912 25.4393 9.43934C25.6491 9.22956 25.9164 9.0867 26.2074 9.02882C26.4983 8.97094 26.7999 9.00065 27.074 9.11418C27.3481 9.22771 27.5824 9.41997 27.7472 9.66665C27.912 9.91332 28 10.2033 28 10.5C28 10.8978 27.842 11.2794 27.5607 11.5607C27.2794 11.842 26.8978 12 26.5 12ZM19 18.26V5C19 3.93913 18.5786 2.92172 17.8284 2.17157C17.0783 1.42143 16.0609 1 15 1C13.9391 1 12.9217 1.42143 12.1716 2.17157C11.4214 2.92172 11 3.93913 11 5V18.26C9.77702 19.1116 8.85772 20.3312 8.37592 21.7415C7.89412 23.1517 7.87496 24.6789 8.32123 26.1008C8.7675 27.5226 9.6559 28.765 10.8571 29.647C12.0584 30.529 13.5097 31.0046 15 31.0046C16.4903 31.0046 17.9416 30.529 19.1429 29.647C20.3441 28.765 21.2325 27.5226 21.6788 26.1008C22.125 24.6789 22.1059 23.1517 21.6241 21.7415C21.1423 20.3312 20.223 19.1116 19 18.26ZM17 10H13V5C13 4.46957 13.2107 3.96086 13.5858 3.58579C13.9609 3.21071 14.4696 3 15 3C15.5304 3 16.0391 3.21071 16.4142 3.58579C16.7893 3.96086 17 4.46957 17 5V10Z" fill="#4A4A4F"/>
</svg>
