<svg width="32" height="32" viewBox="0 0 32 32" fill="none" xmlns="http://www.w3.org/2000/svg">
<path d="M31.1138 9.715L28.6138 10.5262L30.1562 12.6512C30.2378 12.7572 30.2972 12.8783 30.3311 13.0076C30.365 13.1369 30.3726 13.2717 30.3535 13.404C30.3344 13.5363 30.289 13.6634 30.22 13.7778C30.1509 13.8922 30.0596 13.9917 29.9515 14.0702C29.8434 14.1488 29.7206 14.2048 29.5904 14.2351C29.4602 14.2654 29.3253 14.2693 29.1936 14.2466C29.0619 14.2238 28.9361 14.1749 28.8236 14.1027C28.7111 14.0305 28.6143 13.9365 28.5387 13.8263L27 11.7013L25.4575 13.8263C25.2987 14.0326 25.0656 14.1689 24.8078 14.2061C24.5501 14.2433 24.288 14.1785 24.0773 14.0254C23.8666 13.8723 23.7239 13.6431 23.6796 13.3865C23.6353 13.1299 23.6928 12.8661 23.84 12.6512L25.3825 10.5262L22.8825 9.715C22.6302 9.63311 22.4208 9.45436 22.3003 9.21807C22.1798 8.98177 22.1581 8.70729 22.24 8.455C22.3219 8.20271 22.5006 7.99329 22.7369 7.8728C22.9732 7.7523 23.2477 7.73061 23.5 7.8125L26 8.625V6C26 5.73478 26.1054 5.48043 26.2929 5.29289C26.4804 5.10536 26.7348 5 27 5C27.2652 5 27.5196 5.10536 27.7071 5.29289C27.8946 5.48043 28 5.73478 28 6V8.625L30.5 7.81375C30.7523 7.7317 31.0268 7.75323 31.2632 7.8736C31.4997 7.99398 31.6786 8.20334 31.7606 8.45562C31.8427 8.70791 31.8211 8.98246 31.7008 9.21887C31.5804 9.45529 31.371 9.6342 31.1187 9.71625L31.1138 9.715ZM22 24C22.0008 25.2038 21.6911 26.3875 21.1008 27.4367C20.5106 28.486 19.6597 29.3652 18.6304 29.9895C17.6011 30.6139 16.4282 30.9622 15.225 31.0009C14.0218 31.0396 12.8289 30.7674 11.7617 30.2105C10.6944 29.6535 9.78877 28.8308 9.13232 27.8217C8.47586 26.8126 8.09075 25.6512 8.01418 24.4498C7.93761 23.2484 8.17217 22.0475 8.6952 20.9633C9.21824 19.879 10.0121 18.9479 11 18.26V5C11 3.93913 11.4214 2.92172 12.1716 2.17157C12.9217 1.42143 13.9391 1 15 1C16.0609 1 17.0783 1.42143 17.8284 2.17157C18.5786 2.92172 19 3.93913 19 5V18.26C19.9254 18.9044 20.6815 19.7628 21.2038 20.7622C21.7261 21.7616 21.9993 22.8723 22 24ZM17 5C17 4.46957 16.7893 3.96086 16.4142 3.58579C16.0391 3.21071 15.5304 3 15 3C14.4696 3 13.9609 3.21071 13.5858 3.58579C13.2107 3.96086 13 4.46957 13 5V10H17V5Z" fill="#4A4A4F"/>
</svg>
