<svg width="32" height="32" viewBox="0 0 32 32" fill="none" xmlns="http://www.w3.org/2000/svg">
<path d="M17 19.125V11C17 10.7348 16.8946 10.4804 16.7071 10.2929C16.5196 10.1054 16.2652 10 16 10C15.7348 10 15.4804 10.1054 15.2929 10.2929C15.1054 10.4804 15 10.7348 15 11V19.125C14.0573 19.3684 13.2358 19.9472 12.6894 20.753C12.143 21.5588 11.9092 22.5362 12.0319 23.502C12.1546 24.4678 12.6253 25.3557 13.3558 25.9993C14.0863 26.6429 15.0264 26.998 16 26.998C16.9736 26.998 17.9137 26.6429 18.6442 25.9993C19.3747 25.3557 19.8454 24.4678 19.9681 23.502C20.0908 22.5362 19.857 21.5588 19.3106 20.753C18.7642 19.9472 17.9427 19.3684 17 19.125ZM16 25C15.6044 25 15.2178 24.8827 14.8889 24.6629C14.56 24.4432 14.3036 24.1308 14.1522 23.7654C14.0009 23.3999 13.9613 22.9978 14.0384 22.6098C14.1156 22.2219 14.3061 21.8655 14.5858 21.5858C14.8655 21.3061 15.2219 21.1156 15.6098 21.0384C15.9978 20.9613 16.3999 21.0009 16.7654 21.1522C17.1308 21.3036 17.4432 21.56 17.6629 21.8889C17.8827 22.2178 18 22.6044 18 23C18 23.5304 17.7893 24.0391 17.4142 24.4142C17.0391 24.7893 16.5304 25 16 25ZM21 16.75V6C21 4.67392 20.4732 3.40215 19.5355 2.46447C18.5979 1.52678 17.3261 1 16 1C14.6739 1 13.4021 1.52678 12.4645 2.46447C11.5268 3.40215 11 4.67392 11 6V16.75C9.70615 17.7859 8.76599 19.1981 8.30946 20.7915C7.85293 22.3848 7.90256 24.0806 8.45149 25.6445C9.00043 27.2084 10.0216 28.5633 11.3738 29.5217C12.726 30.4802 14.3425 30.995 16 30.995C17.6575 30.995 19.274 30.4802 20.6262 29.5217C21.9784 28.5633 22.9996 27.2084 23.5485 25.6445C24.0974 24.0806 24.1471 22.3848 23.6905 20.7915C23.234 19.1981 22.2939 17.7859 21 16.75ZM16 29C14.7224 29.0001 13.4782 28.5924 12.4484 27.8363C11.4186 27.0801 10.6571 26.0151 10.2746 24.7961C9.8922 23.5771 9.90885 22.2678 10.3221 21.059C10.7354 19.8501 11.5238 18.8047 12.5725 18.075C12.7052 17.9823 12.8134 17.8589 12.8879 17.7152C12.9624 17.5715 13.0008 17.4118 13 17.25V6C13 5.20435 13.3161 4.44129 13.8787 3.87868C14.4413 3.31607 15.2044 3 16 3C16.7957 3 17.5587 3.31607 18.1213 3.87868C18.6839 4.44129 19 5.20435 19 6V17.25C19 17.411 19.0388 17.5696 19.1133 17.7124C19.1877 17.8551 19.2955 17.9778 19.4275 18.07C20.4784 18.799 21.2688 19.8446 21.6835 21.0545C22.0982 22.2643 22.1155 23.575 21.7328 24.7953C21.3501 26.0157 20.5875 27.0818 19.5562 27.8382C18.5249 28.5946 17.2789 29.0016 16 29Z" fill="#4A4A4F"/>
</svg>
