<svg width="32" height="32" viewBox="0 0 32 32" fill="none" xmlns="http://www.w3.org/2000/svg">
<path d="M31.7073 11.2923L26.7073 6.29231C26.6144 6.19933 26.5041 6.12557 26.3827 6.07525C26.2614 6.02493 26.1312 5.99902 25.9998 5.99902C25.8684 5.99902 25.7383 6.02493 25.6169 6.07525C25.4955 6.12557 25.3852 6.19933 25.2923 6.29231L20.9998 10.5861L16.7073 6.29231C16.6144 6.19933 16.5041 6.12557 16.3827 6.07525C16.2614 6.02493 16.1312 5.99902 15.9998 5.99902C15.8684 5.99902 15.7383 6.02493 15.6169 6.07525C15.4955 6.12557 15.3852 6.19933 15.2923 6.29231L10.9998 10.5861L6.70731 6.29231C6.61444 6.19933 6.50415 6.12557 6.38275 6.07525C6.26135 6.02493 6.13123 5.99902 5.99981 5.99902C5.86839 5.99902 5.73827 6.02493 5.61687 6.07525C5.49547 6.12557 5.38518 6.19933 5.29231 6.29231L0.29231 11.2923C0.199334 11.3852 0.125575 11.4955 0.0752504 11.6169C0.0249261 11.7383 -0.000976562 11.8684 -0.000976562 11.9998C-0.000976562 12.1312 0.0249261 12.2614 0.0752504 12.3828C0.125575 12.5041 0.199334 12.6144 0.29231 12.7073L5.29231 17.7073C5.38518 17.8003 5.49547 17.874 5.61687 17.9244C5.73827 17.9747 5.86839 18.0006 5.99981 18.0006C6.13123 18.0006 6.26135 17.9747 6.38275 17.9244C6.50415 17.874 6.61444 17.8003 6.70731 17.7073L10.9998 13.4136L14.5861 16.9998L10.2923 21.2923C10.1993 21.3852 10.1256 21.4955 10.0753 21.6169C10.0249 21.7383 9.99902 21.8684 9.99902 21.9998C9.99902 22.1312 10.0249 22.2614 10.0753 22.3828C10.1256 22.5042 10.1993 22.6144 10.2923 22.7073L15.2923 27.7073C15.3852 27.8003 15.4955 27.874 15.6169 27.9244C15.7383 27.9747 15.8684 28.0006 15.9998 28.0006C16.1312 28.0006 16.2614 27.9747 16.3827 27.9244C16.5041 27.874 16.6144 27.8003 16.7073 27.7073L21.7073 22.7073C21.8003 22.6144 21.874 22.5042 21.9244 22.3828C21.9747 22.2614 22.0006 22.1312 22.0006 21.9998C22.0006 21.8684 21.9747 21.7383 21.9244 21.6169C21.874 21.4955 21.8003 21.3852 21.7073 21.2923L17.4136 16.9998L20.9998 13.4136L25.2923 17.7073C25.3852 17.8003 25.4955 17.874 25.6169 17.9244C25.7383 17.9747 25.8684 18.0006 25.9998 18.0006C26.1312 18.0006 26.2614 17.9747 26.3827 17.9244C26.5041 17.874 26.6144 17.8003 26.7073 17.7073L31.7073 12.7073C31.8003 12.6144 31.874 12.5041 31.9244 12.3828C31.9747 12.2614 32.0006 12.1312 32.0006 11.9998C32.0006 11.8684 31.9747 11.7383 31.9244 11.6169C31.874 11.4955 31.8003 11.3852 31.7073 11.2923ZM5.99981 15.5861L2.41356 11.9998L5.99981 8.41356L9.58606 11.9998L5.99981 15.5861ZM15.9998 25.5861L12.4136 21.9998L15.9998 18.4136L19.5861 21.9998L15.9998 25.5861ZM15.9998 15.5861L12.4136 11.9998L15.9998 8.41356L19.5861 11.9998L15.9998 15.5861ZM25.9998 15.5861L22.4136 11.9998L25.9998 8.41356L29.5861 11.9998L25.9998 15.5861Z" fill="#4A4A4F"/>
</svg>
