<svg width="32" height="32" viewBox="0 0 32 32" fill="none" xmlns="http://www.w3.org/2000/svg">
<path d="M31.7073 12.7073L27.2073 17.2073C27.1144 17.3003 27.0041 17.374 26.8827 17.4244C26.7614 17.4747 26.6312 17.5006 26.4998 17.5006C26.3684 17.5006 26.2383 17.4747 26.1169 17.4244C25.9955 17.374 25.8852 17.3003 25.7923 17.2073L21.2923 12.7073L21.2498 12.6598L21.2073 12.7073L16.9136 16.9998L21.2073 21.2923C21.3003 21.3852 21.374 21.4955 21.4244 21.6169C21.4747 21.7383 21.5006 21.8684 21.5006 21.9998C21.5006 22.1312 21.4747 22.2614 21.4244 22.3828C21.374 22.5041 21.3003 22.6144 21.2073 22.7073L16.7073 27.2073C16.6144 27.3003 16.5041 27.374 16.3827 27.4244C16.2614 27.4747 16.1312 27.5006 15.9998 27.5006C15.8684 27.5006 15.7383 27.4747 15.6169 27.4244C15.4955 27.374 15.3852 27.3003 15.2923 27.2073L10.7923 22.7073C10.6993 22.6144 10.6256 22.5041 10.5753 22.3828C10.5249 22.2614 10.499 22.1312 10.499 21.9998C10.499 21.8684 10.5249 21.7383 10.5753 21.6169C10.6256 21.4955 10.6993 21.3852 10.7923 21.2923L15.0861 16.9998L10.7923 12.7073L10.7498 12.6598L10.7073 12.7073L6.20731 17.2073C6.11444 17.3003 6.00415 17.374 5.88275 17.4244C5.76135 17.4747 5.63123 17.5006 5.49981 17.5006C5.36839 17.5006 5.23827 17.4747 5.11687 17.4244C4.99547 17.374 4.88518 17.3003 4.79231 17.2073L0.29231 12.7073C0.199334 12.6144 0.125575 12.5041 0.0752504 12.3828C0.0249261 12.2614 -0.000976562 12.1312 -0.000976562 11.9998C-0.000976562 11.8684 0.0249261 11.7383 0.0752504 11.6169C0.125575 11.4955 0.199334 11.3852 0.29231 11.2923L4.79231 6.79231C4.88518 6.69933 4.99547 6.62557 5.11687 6.57525C5.23827 6.52493 5.36839 6.49902 5.49981 6.49902C5.63123 6.49902 5.76135 6.52493 5.88275 6.57525C6.00415 6.62557 6.11444 6.69933 6.20731 6.79231L10.7073 11.2923L10.7498 11.3398L10.7923 11.2923L15.2923 6.79231C15.3852 6.69933 15.4955 6.62557 15.6169 6.57525C15.7383 6.52493 15.8684 6.49902 15.9998 6.49902C16.1312 6.49902 16.2614 6.52493 16.3827 6.57525C16.5041 6.62557 16.6144 6.69933 16.7073 6.79231L21.2073 11.2923L21.2498 11.3398L21.2923 11.2923L25.7923 6.79231C25.8852 6.69933 25.9955 6.62557 26.1169 6.57525C26.2383 6.52493 26.3684 6.49902 26.4998 6.49902C26.6312 6.49902 26.7614 6.52493 26.8827 6.57525C27.0041 6.62557 27.1144 6.69933 27.2073 6.79231L31.7073 11.2923C31.8003 11.3852 31.874 11.4955 31.9244 11.6169C31.9747 11.7383 32.0006 11.8684 32.0006 11.9998C32.0006 12.1312 31.9747 12.2614 31.9244 12.3828C31.874 12.5041 31.8003 12.6144 31.7073 12.7073Z" fill="#4A4A4F"/>
</svg>
