<svg width="32" height="32" viewBox="0 0 32 32" fill="none" xmlns="http://www.w3.org/2000/svg">
<path d="M29.8425 26.4611L17.1875 6.68738L19.8425 2.53863C19.9133 2.42799 19.9615 2.3045 19.9846 2.17521C20.0076 2.04591 20.0049 1.91335 19.9767 1.78509C19.9485 1.65683 19.8953 1.53538 19.8202 1.42768C19.745 1.31997 19.6494 1.22813 19.5388 1.15738C19.4281 1.08663 19.3047 1.03836 19.1754 1.01534C19.0461 0.992313 18.9135 0.994979 18.7852 1.02319C18.657 1.05139 18.5355 1.10458 18.4278 1.17973C18.3201 1.25487 18.2283 1.35049 18.1575 1.46113L16 4.83238L13.8425 1.45738C13.6996 1.23393 13.4739 1.0764 13.2148 1.01944C12.9558 0.962471 12.6847 1.01074 12.4613 1.15363C12.2378 1.29651 12.0803 1.52231 12.0233 1.78134C11.9664 2.04038 12.0146 2.31143 12.1575 2.53488L14.8125 6.68738L2.15753 26.4611C2.06089 26.6123 2.00668 26.7866 2.00058 26.9659C1.99448 27.1452 2.03672 27.3228 2.12287 27.4801C2.20902 27.6375 2.33591 27.7687 2.49024 27.8602C2.64456 27.9516 2.82065 27.9999 3.00003 27.9999H29C29.1794 27.9999 29.3555 27.9516 29.5098 27.8602C29.6642 27.7687 29.7911 27.6375 29.8772 27.4801C29.9634 27.3228 30.0056 27.1452 29.9995 26.9659C29.9934 26.7866 29.9392 26.6123 29.8425 26.4611ZM10.7875 25.9999L16 17.8549L21.2125 25.9999H10.7875ZM23.5875 25.9999L16.8375 15.4611C16.7471 15.3197 16.6225 15.2033 16.4753 15.1227C16.3281 15.0421 16.1629 14.9998 15.995 14.9998C15.8272 14.9998 15.662 15.0421 15.5148 15.1227C15.3675 15.2033 15.243 15.3197 15.1525 15.4611L8.41253 25.9999H4.82753L16 8.54238L27.1725 25.9999H23.5875Z" fill="#4A4A4F"/>
</svg>
