<svg width="32" height="32" viewBox="0 0 32 32" fill="none" xmlns="http://www.w3.org/2000/svg">
<path d="M22 7H10C7.61305 7 5.32387 7.94821 3.63604 9.63604C1.94821 11.3239 1 13.6131 1 16C1 18.3869 1.94821 20.6761 3.63604 22.364C5.32387 24.0518 7.61305 25 10 25H22C24.3869 25 26.6761 24.0518 28.364 22.364C30.0518 20.6761 31 18.3869 31 16C31 13.6131 30.0518 11.3239 28.364 9.63604C26.6761 7.94821 24.3869 7 22 7ZM22 23H10C8.14348 23 6.36301 22.2625 5.05025 20.9497C3.7375 19.637 3 17.8565 3 16C3 14.1435 3.7375 12.363 5.05025 11.0503C6.36301 9.7375 8.14348 9 10 9H22C23.8565 9 25.637 9.7375 26.9497 11.0503C28.2625 12.363 29 14.1435 29 16C29 17.8565 28.2625 19.637 26.9497 20.9497C25.637 22.2625 23.8565 23 22 23ZM10 11C9.01109 11 8.04439 11.2932 7.22215 11.8427C6.3999 12.3921 5.75904 13.173 5.3806 14.0866C5.00216 15.0002 4.90315 16.0055 5.09607 16.9755C5.289 17.9454 5.7652 18.8363 6.46447 19.5355C7.16373 20.2348 8.05464 20.711 9.02455 20.9039C9.99445 21.0969 10.9998 20.9978 11.9134 20.6194C12.827 20.241 13.6079 19.6001 14.1573 18.7779C14.7068 17.9556 15 16.9889 15 16C15 14.6739 14.4732 13.4021 13.5355 12.4645C12.5979 11.5268 11.3261 11 10 11ZM10 19C9.40666 19 8.82664 18.8241 8.33329 18.4944C7.83994 18.1648 7.45542 17.6962 7.22836 17.1481C7.0013 16.5999 6.94189 15.9967 7.05764 15.4147C7.1734 14.8328 7.45912 14.2982 7.87868 13.8787C8.29824 13.4591 8.83279 13.1734 9.41473 13.0576C9.99667 12.9419 10.5999 13.0013 11.1481 13.2284C11.6962 13.4554 12.1648 13.8399 12.4944 14.3333C12.8241 14.8266 13 15.4067 13 16C13 16.7956 12.6839 17.5587 12.1213 18.1213C11.5587 18.6839 10.7956 19 10 19Z" fill="#4A4A4F"/>
</svg>
