<svg width="32" height="32" viewBox="0 0 32 32" fill="none" xmlns="http://www.w3.org/2000/svg">
<path d="M22 7H10C7.61305 7 5.32387 7.94821 3.63604 9.63604C1.94821 11.3239 1 13.6131 1 16C1 18.3869 1.94821 20.6761 3.63604 22.364C5.32387 24.0518 7.61305 25 10 25H22C24.3869 25 26.6761 24.0518 28.364 22.364C30.0518 20.6761 31 18.3869 31 16C31 13.6131 30.0518 11.3239 28.364 9.63604C26.6761 7.94821 24.3869 7 22 7ZM22 23H10C8.14348 23 6.36301 22.2625 5.05025 20.9497C3.7375 19.637 3 17.8565 3 16C3 14.1435 3.7375 12.363 5.05025 11.0503C6.36301 9.7375 8.14348 9 10 9H22C23.8565 9 25.637 9.7375 26.9497 11.0503C28.2625 12.363 29 14.1435 29 16C29 17.8565 28.2625 19.637 26.9497 20.9497C25.637 22.2625 23.8565 23 22 23ZM22 11C21.0111 11 20.0444 11.2932 19.2221 11.8427C18.3999 12.3921 17.759 13.173 17.3806 14.0866C17.0022 15.0002 16.9031 16.0055 17.0961 16.9755C17.289 17.9454 17.7652 18.8363 18.4645 19.5355C19.1637 20.2348 20.0546 20.711 21.0245 20.9039C21.9945 21.0969 22.9998 20.9978 23.9134 20.6194C24.827 20.241 25.6079 19.6001 26.1573 18.7779C26.7068 17.9556 27 16.9889 27 16C27 14.6739 26.4732 13.4021 25.5355 12.4645C24.5979 11.5268 23.3261 11 22 11ZM22 19C21.4067 19 20.8266 18.8241 20.3333 18.4944C19.8399 18.1648 19.4554 17.6962 19.2284 17.1481C19.0013 16.5999 18.9419 15.9967 19.0576 15.4147C19.1734 14.8328 19.4591 14.2982 19.8787 13.8787C20.2982 13.4591 20.8328 13.1734 21.4147 13.0576C21.9967 12.9419 22.5999 13.0013 23.1481 13.2284C23.6962 13.4554 24.1648 13.8399 24.4944 14.3333C24.8241 14.8266 25 15.4067 25 16C25 16.7956 24.6839 17.5587 24.1213 18.1213C23.5587 18.6839 22.7956 19 22 19Z" fill="#4A4A4F"/>
</svg>
