<svg width="32" height="32" viewBox="0 0 32 32" fill="none" xmlns="http://www.w3.org/2000/svg">
<path d="M23 15C23 15.2652 22.8946 15.5196 22.7071 15.7071C22.5196 15.8946 22.2652 16 22 16H20C19.7348 16 19.4804 15.8946 19.2929 15.7071C19.1054 15.5196 19 15.2652 19 15C19 14.7348 19.1054 14.4804 19.2929 14.2929C19.4804 14.1054 19.7348 14 20 14H22C22.2652 14 22.5196 14.1054 22.7071 14.2929C22.8946 14.4804 23 14.7348 23 15ZM30 15V26C30 26.5304 29.7893 27.0391 29.4142 27.4142C29.0391 27.7893 28.5304 28 28 28H14C13.4696 28 12.9609 27.7893 12.5858 27.4142C12.2107 27.0391 12 26.5304 12 26V23.2938C10.9213 25.0463 9.5225 26 8 26C6.26625 26 4.6925 24.7637 3.57 22.5187C2.5575 20.5 2 17.8237 2 15C2 12.1763 2.5575 9.50625 3.57 7.48125C4.6925 5.23625 6.26625 4 8 4H24C25.7337 4 27.3075 5.23625 28.43 7.48125C29.4425 9.50625 30 12.1763 30 15ZM9.5 15C9.5 14.7033 9.41203 14.4133 9.2472 14.1666C9.08238 13.92 8.84811 13.7277 8.57403 13.6142C8.29994 13.5006 7.99834 13.4709 7.70736 13.5288C7.41639 13.5867 7.14912 13.7296 6.93934 13.9393C6.72956 14.1491 6.5867 14.4164 6.52882 14.7074C6.47094 14.9983 6.50065 15.2999 6.61418 15.574C6.72771 15.8481 6.91997 16.0824 7.16664 16.2472C7.41332 16.412 7.70333 16.5 8 16.5C8.39782 16.5 8.77936 16.342 9.06066 16.0607C9.34196 15.7794 9.5 15.3978 9.5 15ZM28 16H26C25.7348 16 25.4804 15.8946 25.2929 15.7071C25.1054 15.5196 25 15.2652 25 15C25 14.7348 25.1054 14.4804 25.2929 14.2929C25.4804 14.1054 25.7348 14 26 14H27.9737C27.73 9.2375 25.77 6 24 6H11.515C11.8661 6.46371 12.1725 6.95968 12.43 7.48125C13.3225 9.26625 13.86 11.5512 13.9762 14H16C16.2652 14 16.5196 14.1054 16.7071 14.2929C16.8946 14.4804 17 14.7348 17 15C17 15.2652 16.8946 15.5196 16.7071 15.7071C16.5196 15.8946 16.2652 16 16 16H14V26H28V16Z" fill="#4A4A4F"/>
</svg>
