<svg width="32" height="32" viewBox="0 0 32 32" fill="none" xmlns="http://www.w3.org/2000/svg">
<path d="M7.50003 11H24.5C24.6326 11 24.7598 10.9473 24.8536 10.8536C24.9474 10.7598 25 10.6326 25 10.5V5C25 4.46957 24.7893 3.96086 24.4142 3.58579C24.0392 3.21071 23.5305 3 23 3H9.00003C8.46959 3 7.96089 3.21071 7.58581 3.58579C7.21074 3.96086 7.00003 4.46957 7.00003 5V10.5C7.00003 10.6326 7.05271 10.7598 7.14647 10.8536C7.24024 10.9473 7.36742 11 7.50003 11ZM11 6H12.9663C13.2247 5.99618 13.475 6.09037 13.6668 6.2636C13.8586 6.43684 13.9776 6.67628 14 6.93375C14.0091 7.07054 13.99 7.20773 13.9438 7.33681C13.8976 7.46589 13.8254 7.58409 13.7316 7.68409C13.6378 7.78408 13.5245 7.86372 13.3987 7.91807C13.2728 7.97241 13.1371 8.0003 13 8H11.0338C10.7754 8.00382 10.5251 7.90963 10.3333 7.7364C10.1415 7.56316 10.0224 7.32372 10 7.06625C9.99095 6.92946 10.0101 6.79227 10.0563 6.66319C10.1024 6.53411 10.1746 6.41591 10.2684 6.31591C10.3622 6.21592 10.4755 6.13628 10.6014 6.08193C10.7273 6.02759 10.8629 5.9997 11 6ZM28 14.0075C28.001 13.8755 27.9759 13.7447 27.9261 13.6225C27.8763 13.5003 27.8028 13.3892 27.7098 13.2955C27.6168 13.2019 27.5063 13.1276 27.3845 13.0768C27.2626 13.0261 27.132 13 27 13H5.00003C4.86807 13 4.73742 13.0261 4.6156 13.0768C4.49379 13.1276 4.38321 13.2019 4.29026 13.2955C4.1973 13.3892 4.1238 13.5003 4.07399 13.6225C4.02417 13.7447 3.99904 13.8755 4.00003 14.0075C4.00317 16.201 4.60689 18.3519 5.74568 20.2266C6.88447 22.1014 8.51487 23.6286 10.46 24.6425L10.0263 27.6763C9.96082 28.104 10.0321 28.5415 10.23 28.9263C10.399 29.2497 10.6533 29.5207 10.9653 29.71C11.2773 29.8992 11.6351 29.9995 12 30H19.9575C20.3919 30.0059 20.8171 29.8747 21.1725 29.625C21.4678 29.4114 21.6991 29.1211 21.8414 28.7856C21.9837 28.4501 22.0317 28.082 21.98 27.7213L21.54 24.6462C23.4857 23.632 25.1165 22.1043 26.2553 20.2288C27.3942 18.3533 27.9976 16.2017 28 14.0075ZM12 28L12.3663 25.4375C14.7307 26.1875 17.2693 26.1875 19.6338 25.4375L20 28H12Z" fill="#4A4A4F"/>
</svg>
