<svg width="32" height="32" viewBox="0 0 32 32" fill="none" xmlns="http://www.w3.org/2000/svg">
<path d="M15 8C15 8.26522 14.8946 8.51957 14.7071 8.70711C14.5196 8.89464 14.2652 9 14 9H12C11.7348 9 11.4804 8.89464 11.2929 8.70711C11.1054 8.51957 11 8.26522 11 8C11 7.73478 11.1054 7.48043 11.2929 7.29289C11.4804 7.10536 11.7348 7 12 7H14C14.2652 7 14.5196 7.10536 14.7071 7.29289C14.8946 7.48043 15 7.73478 15 8ZM21.54 24.6425L21.98 27.7175C22.0205 28.0011 21.9995 28.2902 21.9186 28.565C21.8376 28.8399 21.6986 29.0941 21.5108 29.3106C21.3231 29.527 21.091 29.7006 20.8304 29.8195C20.5697 29.9385 20.2865 30 20 30H12C11.7135 30 11.4303 29.9385 11.1696 29.8195C10.909 29.7006 10.6769 29.527 10.4892 29.3106C10.3014 29.0941 10.1624 28.8399 10.0814 28.565C10.0005 28.2902 9.97953 28.0011 10.02 27.7175L10.46 24.6425C8.51363 23.6281 6.88241 22.0998 5.74353 20.2235C4.60465 18.3473 4.00164 16.1948 4 14C4 13.7348 4.10536 13.4804 4.29289 13.2929C4.48043 13.1054 4.73478 13 5 13H7V5C7 4.46957 7.21071 3.96086 7.58579 3.58579C7.96086 3.21071 8.46957 3 9 3H23C23.5304 3 24.0391 3.21071 24.4142 3.58579C24.7893 3.96086 25 4.46957 25 5V13H27C27.2652 13 27.5196 13.1054 27.7071 13.2929C27.8946 13.4804 28 13.7348 28 14C27.9984 16.1948 27.3954 18.3473 26.2565 20.2235C25.1176 22.0998 23.4864 23.6281 21.54 24.6425ZM9 13H23V5H9V13ZM19.6338 25.4375C17.2693 26.1875 14.7307 26.1875 12.3663 25.4375L12 28H20L19.6338 25.4375ZM25.95 15H6.05C6.29762 17.4669 7.45277 19.7538 9.29133 21.417C11.1299 23.0803 13.5207 24.0013 16 24.0013C18.4793 24.0013 20.8701 23.0803 22.7087 21.417C24.5472 19.7538 25.7024 17.4669 25.95 15Z" fill="#4A4A4F"/>
</svg>
