<svg width="32" height="32" viewBox="0 0 32 32" fill="none" xmlns="http://www.w3.org/2000/svg">
<path d="M9.5 15C9.5 15.2967 9.41203 15.5867 9.2472 15.8334C9.08238 16.08 8.84811 16.2723 8.57403 16.3858C8.29994 16.4993 7.99834 16.5291 7.70736 16.4712C7.41639 16.4133 7.14912 16.2704 6.93934 16.0607C6.72956 15.8509 6.5867 15.5836 6.52882 15.2926C6.47094 15.0017 6.50065 14.7001 6.61418 14.426C6.72771 14.1519 6.91997 13.9176 7.16664 13.7528C7.41332 13.588 7.70333 13.5 8 13.5C8.39782 13.5 8.77936 13.658 9.06066 13.9393C9.34196 14.2206 9.5 14.6022 9.5 15ZM30 15V26C30 26.5304 29.7893 27.0391 29.4142 27.4142C29.0391 27.7893 28.5304 28 28 28H14C13.4696 28 12.9609 27.7893 12.5858 27.4142C12.2107 27.0391 12 26.5304 12 26V23.2938C10.9213 25.0463 9.5225 26 8 26C6.26625 26 4.6925 24.7637 3.57 22.5187C2.5575 20.5 2 17.8237 2 15C2 12.1763 2.5575 9.50625 3.57 7.48125C4.6925 5.23625 6.26625 4 8 4H24C25.7337 4 27.3075 5.23625 28.43 7.48125C29.4425 9.50625 30 12.1763 30 15ZM12 15C12 9.69625 9.8925 6 8 6C6.1075 6 4 9.69625 4 15C4 20.3037 6.1075 24 8 24C9.8925 24 12 20.3037 12 15ZM28 26V16H26C25.7348 16 25.4804 15.8946 25.2929 15.7071C25.1054 15.5196 25 15.2652 25 15C25 14.7348 25.1054 14.4804 25.2929 14.2929C25.4804 14.1054 25.7348 14 26 14H27.9737C27.73 9.2375 25.77 6 24 6H11.515C11.8661 6.46371 12.1725 6.95968 12.43 7.48125C13.3225 9.26625 13.86 11.5512 13.9762 14H16C16.2652 14 16.5196 14.1054 16.7071 14.2929C16.8946 14.4804 17 14.7348 17 15C17 15.2652 16.8946 15.5196 16.7071 15.7071C16.5196 15.8946 16.2652 16 16 16H14V26H28ZM22 14H20C19.7348 14 19.4804 14.1054 19.2929 14.2929C19.1054 14.4804 19 14.7348 19 15C19 15.2652 19.1054 15.5196 19.2929 15.7071C19.4804 15.8946 19.7348 16 20 16H22C22.2652 16 22.5196 15.8946 22.7071 15.7071C22.8946 15.5196 23 15.2652 23 15C23 14.7348 22.8946 14.4804 22.7071 14.2929C22.5196 14.1054 22.2652 14 22 14Z" fill="#4A4A4F"/>
</svg>
