<svg width="32" height="32" viewBox="0 0 32 32" fill="none" xmlns="http://www.w3.org/2000/svg">
<path d="M21 3H11C9.14889 2.99998 7.37313 3.73319 6.06127 5.03919C4.74941 6.3452 4.00826 8.11765 4 9.96875C4 15.3088 5 19.3937 5.8375 21.8787C6.9275 25.1038 8.415 27.565 9.9175 28.6287C10.2497 28.8689 10.6489 28.9987 11.0588 29C11.5654 28.9986 12.0529 28.8059 12.4237 28.4606C12.7945 28.1153 13.0213 27.6428 13.0588 27.1375C13.165 25.6975 13.6838 20.9988 16 20.9988C18.3162 20.9988 18.835 25.6975 18.9412 27.1375C18.9676 27.4925 19.0877 27.8342 19.2893 28.1276C19.4909 28.421 19.7668 28.6556 20.0888 28.8075C20.4063 28.9598 20.759 29.0239 21.1098 28.9929C21.4606 28.9618 21.7966 28.8369 22.0825 28.6313C23.5825 27.565 25.0725 25.1038 26.1625 21.8813C27 19.3938 28 15.3088 28 9.96875C27.9917 8.11765 27.2506 6.3452 25.9387 5.03919C24.6269 3.73319 22.8511 2.99998 21 3ZM21.375 10.0712C21.4969 10.1205 21.6079 10.1933 21.7016 10.2854C21.7954 10.3775 21.8701 10.4872 21.9214 10.6083C21.9728 10.7293 21.9998 10.8592 22.001 10.9907C22.0021 11.1221 21.9774 11.2525 21.9281 11.3744C21.8789 11.4963 21.8061 11.6072 21.714 11.701C21.6218 11.7948 21.5121 11.8695 21.3911 11.9208C21.2701 11.9722 21.1402 11.9992 21.0087 12.0004C20.8773 12.0015 20.7469 11.9767 20.625 11.9275L16 10.0763L11.375 11.9275C11.2531 11.9767 11.1227 12.0015 10.9913 12.0004C10.8598 11.9992 10.7299 11.9722 10.6089 11.9208C10.4879 11.8695 10.3782 11.7948 10.286 11.701C10.1939 11.6072 10.1211 11.4963 10.0719 11.3744C10.0226 11.2525 9.99787 11.1221 9.99902 10.9907C10.0002 10.8592 10.0272 10.7293 10.0786 10.6083C10.1299 10.4872 10.2046 10.3775 10.2984 10.2854C10.3921 10.1933 10.5031 10.1205 10.625 10.0712L13.3075 9L10.625 7.9275C10.5031 7.87825 10.3921 7.80548 10.2984 7.71334C10.2046 7.6212 10.1299 7.5115 10.0786 7.39049C10.0272 7.26949 10.0002 7.13955 9.99902 7.0081C9.99787 6.87665 10.0226 6.74626 10.0719 6.62437C10.1211 6.50249 10.1939 6.3915 10.286 6.29774C10.3782 6.20398 10.4879 6.12929 10.6089 6.07793C10.7299 6.02656 10.8598 5.99954 10.9913 5.99839C11.1227 5.99725 11.2531 6.022 11.375 6.07125L16 7.9225L20.625 6.07125C20.7469 6.022 20.8773 5.99725 21.0087 5.99839C21.1402 5.99954 21.2701 6.02656 21.3911 6.07793C21.5121 6.12929 21.6218 6.20398 21.714 6.29774C21.8061 6.3915 21.8789 6.50249 21.9281 6.62437C21.9774 6.74626 22.0021 6.87665 22.001 7.0081C21.9998 7.13955 21.9728 7.26949 21.9214 7.39049C21.8701 7.5115 21.7954 7.6212 21.7016 7.71334C21.6079 7.80548 21.4969 7.87825 21.375 7.9275L18.6925 9L21.375 10.0712Z" fill="#4A4A4F"/>
</svg>
