<svg width="32" height="32" viewBox="0 0 32 32" fill="none" xmlns="http://www.w3.org/2000/svg">
<path d="M21.375 8.9275L18.6925 10L21.375 11.0712C21.6212 11.1707 21.8177 11.3639 21.9214 11.6083C22.0252 11.8526 22.0276 12.1282 21.9281 12.3744C21.8287 12.6205 21.6355 12.8171 21.3911 12.9208C21.1467 13.0246 20.8712 13.027 20.625 12.9275L16 11.0763L11.375 12.9275C11.2531 12.9767 11.1227 13.0015 10.9913 13.0004C10.8598 12.9992 10.7299 12.9722 10.6089 12.9208C10.4879 12.8695 10.3782 12.7948 10.286 12.701C10.1939 12.6072 10.1211 12.4963 10.0719 12.3744C10.0226 12.2525 9.99787 12.1221 9.99902 11.9907C10.0002 11.8592 10.0272 11.7293 10.0786 11.6083C10.1299 11.4873 10.2046 11.3775 10.2984 11.2854C10.3921 11.1933 10.5031 11.1205 10.625 11.0712L13.3075 10L10.625 8.9275C10.5031 8.87825 10.3921 8.80548 10.2984 8.71334C10.2046 8.6212 10.1299 8.5115 10.0786 8.39049C10.0272 8.26949 10.0002 8.13955 9.99902 8.0081C9.99787 7.87665 10.0226 7.74626 10.0719 7.62437C10.1211 7.50249 10.1939 7.3915 10.286 7.29774C10.3782 7.20398 10.4879 7.12929 10.6089 7.07793C10.7299 7.02656 10.8598 6.99954 10.9913 6.99839C11.1227 6.99725 11.2531 7.022 11.375 7.07125L16 8.9225L20.625 7.07125C20.7469 7.022 20.8773 6.99725 21.0087 6.99839C21.1402 6.99954 21.2701 7.02656 21.3911 7.07793C21.5121 7.12929 21.6218 7.20398 21.714 7.29774C21.8061 7.3915 21.8789 7.50249 21.9281 7.62437C21.9774 7.74626 22.0021 7.87665 22.001 8.0081C21.9998 8.13955 21.9728 8.26949 21.9214 8.39049C21.8701 8.5115 21.7954 8.6212 21.7016 8.71334C21.6079 8.80548 21.4969 8.87825 21.375 8.9275ZM28 9.96875C28 15.3088 27 19.3937 26.1637 21.8787C25.0725 25.1038 23.585 27.565 22.0825 28.6287C21.7966 28.8344 21.4606 28.9593 21.1098 28.9904C20.759 29.0214 20.4063 28.9573 20.0888 28.805C19.7668 28.6531 19.4909 28.4185 19.2893 28.1251C19.0877 27.8317 18.9676 27.49 18.9412 27.135C18.835 25.6975 18.31 21 16 21C13.69 21 13.165 25.6987 13.0588 27.1388C13.0213 27.644 12.7945 28.1166 12.4237 28.4619C12.0529 28.8072 11.5654 28.9998 11.0588 29.0012C10.6491 29.0007 10.25 28.8717 9.9175 28.6325C8.4175 27.5662 6.9275 25.105 5.83625 21.8825C5 19.3937 4 15.3088 4 9.96875C4.00826 8.11765 4.74941 6.3452 6.06127 5.03919C7.37313 3.73319 9.14889 2.99998 11 3H21C22.8511 2.99998 24.6269 3.73319 25.9387 5.03919C27.2506 6.3452 27.9917 8.11765 28 9.96875ZM26 9.96875C25.9917 8.64809 25.4613 7.38433 24.5245 6.4534C23.5877 5.52247 22.3207 4.99997 21 5H11C9.6791 4.99998 8.41185 5.52264 7.47503 6.45384C6.53821 7.38505 6.00793 8.64912 6 9.97C6 15.0387 6.93875 18.895 7.73125 21.2375C9.1125 25.32 10.6062 26.6587 11.0575 26.9875C11.4462 21.8337 13.1987 19 16 19C18.8013 19 20.5563 21.8388 20.9363 26.9925C21.3863 26.6688 22.8825 25.335 24.2687 21.2425C25.0612 18.895 26 15.0387 26 9.97V9.96875Z" fill="#4A4A4F"/>
</svg>
