<svg width="32" height="32" viewBox="0 0 32 32" fill="none" xmlns="http://www.w3.org/2000/svg">
<path d="M29.5 8.675C29.3103 8.46212 29.0777 8.29189 28.8174 8.17554C28.5571 8.05918 28.2751 7.99935 27.99 8H22C22 6.4087 21.3678 4.88258 20.2426 3.75736C19.1174 2.63214 17.5913 2 16 2C14.4087 2 12.8825 2.63214 11.7573 3.75736C10.6321 4.88258 9.99997 6.4087 9.99997 8H4.00997C3.72655 8.00076 3.44647 8.06127 3.18801 8.17758C2.92955 8.29389 2.69851 8.46338 2.50997 8.675C2.32301 8.88583 2.1827 9.1338 2.09826 9.40264C2.01382 9.67148 1.98714 9.95513 2.01997 10.235L3.80247 25.235C3.86028 25.7237 4.09626 26.174 4.46525 26.4996C4.83425 26.8253 5.31035 27.0034 5.80247 27H26.2087C26.7008 27.0034 27.1769 26.8253 27.5459 26.4996C27.9149 26.174 28.1509 25.7237 28.2087 25.235L29.9912 10.235C30.0239 9.95504 29.997 9.67134 29.9123 9.40249C29.8277 9.13364 29.6872 8.88573 29.5 8.675ZM12 13C12 13.2652 11.8946 13.5196 11.7071 13.7071C11.5195 13.8946 11.2652 14 11 14C10.7348 14 10.4804 13.8946 10.2929 13.7071C10.1053 13.5196 9.99997 13.2652 9.99997 13V11C9.99997 10.7348 10.1053 10.4804 10.2929 10.2929C10.4804 10.1054 10.7348 10 11 10C11.2652 10 11.5195 10.1054 11.7071 10.2929C11.8946 10.4804 12 10.7348 12 11V13ZM16 4C17.0608 4 18.0783 4.42143 18.8284 5.17157C19.5785 5.92172 20 6.93913 20 8H12C12 6.93913 12.4214 5.92172 13.1715 5.17157C13.9217 4.42143 14.9391 4 16 4ZM22 13C22 13.2652 21.8946 13.5196 21.7071 13.7071C21.5195 13.8946 21.2652 14 21 14C20.7348 14 20.4804 13.8946 20.2929 13.7071C20.1053 13.5196 20 13.2652 20 13V11C20 10.7348 20.1053 10.4804 20.2929 10.2929C20.4804 10.1054 20.7348 10 21 10C21.2652 10 21.5195 10.1054 21.7071 10.2929C21.8946 10.4804 22 10.7348 22 11V13Z" fill="#4A4A4F"/>
</svg>
