<svg width="32" height="32" viewBox="0 0 32 32" fill="none" xmlns="http://www.w3.org/2000/svg">
<path d="M29.5 8.675C29.3103 8.46212 29.0777 8.29189 28.8174 8.17554C28.5571 8.05918 28.2751 7.99935 27.99 8H22C22 6.4087 21.3678 4.88258 20.2426 3.75736C19.1174 2.63214 17.5913 2 16 2C14.4087 2 12.8825 2.63214 11.7573 3.75736C10.6321 4.88258 9.99997 6.4087 9.99997 8H4.00997C3.72655 8.00076 3.44647 8.06127 3.18801 8.17758C2.92955 8.29389 2.69851 8.46338 2.50997 8.675C2.32301 8.88583 2.1827 9.1338 2.09826 9.40264C2.01382 9.67148 1.98714 9.95513 2.01997 10.235L3.80247 25.235C3.86028 25.7237 4.09626 26.174 4.46525 26.4996C4.83425 26.8253 5.31035 27.0034 5.80247 27H26.2087C26.7008 27.0034 27.1769 26.8253 27.5459 26.4996C27.9149 26.174 28.1509 25.7237 28.2087 25.235L29.9912 10.235C30.0239 9.95504 29.997 9.67134 29.9123 9.40249C29.8277 9.13364 29.6872 8.88573 29.5 8.675ZM16 4C17.0608 4 18.0783 4.42143 18.8284 5.17157C19.5785 5.92172 20 6.93913 20 8H12C12 6.93913 12.4214 5.92172 13.1715 5.17157C13.9217 4.42143 14.9391 4 16 4Z" fill="#4A4A4F"/>
</svg>
