<svg width="32" height="32" viewBox="0 0 32 32" fill="none" xmlns="http://www.w3.org/2000/svg">
<path d="M16 3C13.4288 3 10.9154 3.76244 8.77759 5.1909C6.63975 6.61935 4.97351 8.64968 3.98957 11.0251C3.00563 13.4006 2.74819 16.0144 3.2498 18.5362C3.75141 21.0579 4.98953 23.3743 6.80762 25.1924C8.6257 27.0105 10.9421 28.2486 13.4638 28.7502C15.9856 29.2518 18.5995 28.9944 20.9749 28.0104C23.3503 27.0265 25.3807 25.3603 26.8091 23.2224C28.2376 21.0846 29 18.5712 29 16C28.9964 12.5533 27.6256 9.24882 25.1884 6.81163C22.7512 4.37445 19.4467 3.00364 16 3ZM13 14H12V19C12 19.2652 11.8946 19.5196 11.7071 19.7071C11.5196 19.8946 11.2652 20 11 20C10.7348 20 10.4804 19.8946 10.2929 19.7071C10.1054 19.5196 10 19.2652 10 19V14H9.00001C8.73479 14 8.48044 13.8946 8.2929 13.7071C8.10536 13.5196 8.00001 13.2652 8.00001 13C8.00001 12.7348 8.10536 12.4804 8.2929 12.2929C8.48044 12.1054 8.73479 12 9.00001 12H13C13.2652 12 13.5196 12.1054 13.7071 12.2929C13.8946 12.4804 14 12.7348 14 13C14 13.2652 13.8946 13.5196 13.7071 13.7071C13.5196 13.8946 13.2652 14 13 14ZM24 19C24 19.2652 23.8946 19.5196 23.7071 19.7071C23.5196 19.8946 23.2652 20 23 20C22.7348 20 22.4804 19.8946 22.2929 19.7071C22.1054 19.5196 22 19.2652 22 19V15.6613L20.25 17.6612C20.1562 17.7677 20.0408 17.8529 19.9114 17.9112C19.7821 17.9696 19.6419 17.9998 19.5 17.9998C19.3581 17.9998 19.2179 17.9696 19.0886 17.9112C18.9593 17.8529 18.8438 17.7677 18.75 17.6612L17 15.6613V19C17 19.2652 16.8946 19.5196 16.7071 19.7071C16.5196 19.8946 16.2652 20 16 20C15.7348 20 15.4804 19.8946 15.2929 19.7071C15.1054 19.5196 15 19.2652 15 19V13C15.0006 12.7971 15.0628 12.5992 15.1785 12.4325C15.2942 12.2658 15.4578 12.1383 15.6477 12.0668C15.8376 11.9953 16.0447 11.9833 16.2416 12.0323C16.4385 12.0813 16.6158 12.1891 16.75 12.3413L19.5 15.4812L22.25 12.3413C22.3842 12.1891 22.5615 12.0813 22.7584 12.0323C22.9553 11.9833 23.1624 11.9953 23.3523 12.0668C23.5422 12.1383 23.7058 12.2658 23.8215 12.4325C23.9372 12.5992 23.9995 12.7971 24 13V19Z" fill="#4A4A4F"/>
</svg>
