<svg width="32" height="32" viewBox="0 0 32 32" fill="none" xmlns="http://www.w3.org/2000/svg">
<path d="M16 7C15.2089 7 14.4355 7.2346 13.7777 7.67412C13.1199 8.11365 12.6072 8.73836 12.3045 9.46927C12.0017 10.2002 11.9225 11.0044 12.0769 11.7804C12.2312 12.5563 12.6122 13.269 13.1716 13.8284C13.731 14.3878 14.4437 14.7688 15.2196 14.9231C15.9956 15.0775 16.7998 14.9983 17.5307 14.6955C18.2616 14.3928 18.8864 13.8801 19.3259 13.2223C19.7654 12.5645 20 11.7911 20 11C20 9.93913 19.5786 8.92172 18.8284 8.17157C18.0783 7.42143 17.0609 7 16 7ZM16 13C15.6044 13 15.2178 12.8827 14.8889 12.6629C14.56 12.4432 14.3036 12.1308 14.1522 11.7654C14.0009 11.3999 13.9613 10.9978 14.0384 10.6098C14.1156 10.2219 14.3061 9.86549 14.5858 9.58579C14.8655 9.30608 15.2219 9.1156 15.6098 9.03843C15.9978 8.96126 16.3999 9.00087 16.7654 9.15224C17.1308 9.30362 17.4432 9.55996 17.6629 9.88886C17.8827 10.2178 18 10.6044 18 11C18 11.5304 17.7893 12.0391 17.4142 12.4142C17.0391 12.7893 16.5304 13 16 13ZM16 17C15.2089 17 14.4355 17.2346 13.7777 17.6741C13.1199 18.1136 12.6072 18.7384 12.3045 19.4693C12.0017 20.2002 11.9225 21.0044 12.0769 21.7804C12.2312 22.5563 12.6122 23.269 13.1716 23.8284C13.731 24.3878 14.4437 24.7688 15.2196 24.9231C15.9956 25.0775 16.7998 24.9983 17.5307 24.6955C18.2616 24.3928 18.8864 23.8801 19.3259 23.2223C19.7654 22.5645 20 21.7911 20 21C20 19.9391 19.5786 18.9217 18.8284 18.1716C18.0783 17.4214 17.0609 17 16 17ZM16 23C15.6044 23 15.2178 22.8827 14.8889 22.6629C14.56 22.4432 14.3036 22.1308 14.1522 21.7654C14.0009 21.3999 13.9613 20.9978 14.0384 20.6098C14.1156 20.2219 14.3061 19.8655 14.5858 19.5858C14.8655 19.3061 15.2219 19.1156 15.6098 19.0384C15.9978 18.9613 16.3999 19.0009 16.7654 19.1522C17.1308 19.3036 17.4432 19.56 17.6629 19.8889C17.8827 20.2178 18 20.6044 18 21C18 21.5304 17.7893 22.0391 17.4142 22.4142C17.0391 22.7893 16.5304 23 16 23ZM27 18H25V10H27C27.2652 10 27.5196 9.89464 27.7071 9.70711C27.8946 9.51957 28 9.26522 28 9C28 8.73478 27.8946 8.48043 27.7071 8.29289C27.5196 8.10536 27.2652 8 27 8H25V5C25 4.46957 24.7893 3.96086 24.4142 3.58579C24.0391 3.21071 23.5304 3 23 3H9C8.46957 3 7.96086 3.21071 7.58579 3.58579C7.21071 3.96086 7 4.46957 7 5V8H5C4.73478 8 4.48043 8.10536 4.29289 8.29289C4.10536 8.48043 4 8.73478 4 9C4 9.26522 4.10536 9.51957 4.29289 9.70711C4.48043 9.89464 4.73478 10 5 10H7V18H5C4.73478 18 4.48043 18.1054 4.29289 18.2929C4.10536 18.4804 4 18.7348 4 19C4 19.2652 4.10536 19.5196 4.29289 19.7071C4.48043 19.8946 4.73478 20 5 20H7V27C7 27.5304 7.21071 28.0391 7.58579 28.4142C7.96086 28.7893 8.46957 29 9 29H23C23.5304 29 24.0391 28.7893 24.4142 28.4142C24.7893 28.0391 25 27.5304 25 27V20H27C27.2652 20 27.5196 19.8946 27.7071 19.7071C27.8946 19.5196 28 19.2652 28 19C28 18.7348 27.8946 18.4804 27.7071 18.2929C27.5196 18.1054 27.2652 18 27 18ZM23 27H9V5H23V27Z" fill="#4A4A4F"/>
</svg>
