<svg width="32" height="32" viewBox="0 0 32 32" fill="none" xmlns="http://www.w3.org/2000/svg">
<path d="M21.0002 11C21.0002 11.2652 20.8948 11.5196 20.7073 11.7071C20.5198 11.8946 20.2654 12 20.0002 12H12.0002C11.735 12 11.4806 11.8946 11.2931 11.7071C11.1056 11.5196 11.0002 11.2652 11.0002 11C11.0002 10.7348 11.1056 10.4804 11.2931 10.2929C11.4806 10.1054 11.735 10 12.0002 10H20.0002C20.2654 10 20.5198 10.1054 20.7073 10.2929C20.8948 10.4804 21.0002 10.7348 21.0002 11ZM27.9652 15.2625L25.1664 25.5263C25.051 25.9496 24.7995 26.3232 24.4507 26.5896C24.1019 26.8559 23.6753 27.0001 23.2364 27H22.0002L23.8002 29.4C23.879 29.5051 23.9363 29.6246 23.9689 29.7518C24.0015 29.879 24.0087 30.0114 23.9901 30.1414C23.9716 30.2714 23.9276 30.3965 23.8607 30.5095C23.7938 30.6225 23.7053 30.7212 23.6002 30.8C23.4951 30.8788 23.3756 30.9361 23.2484 30.9687C23.1212 31.0013 22.9888 31.0085 22.8588 30.99C22.7288 30.9714 22.6037 30.9274 22.4907 30.8605C22.3777 30.7936 22.279 30.7051 22.2002 30.6L19.5002 27H12.5002L9.8002 30.6C9.7214 30.7051 9.62269 30.7936 9.50969 30.8605C9.39669 30.9274 9.27162 30.9714 9.14162 30.99C9.01162 31.0085 8.87923 31.0013 8.75202 30.9687C8.6248 30.9361 8.50525 30.8788 8.4002 30.8C8.29514 30.7212 8.20663 30.6225 8.13972 30.5095C8.07281 30.3965 8.02882 30.2714 8.01025 30.1414C7.99168 30.0114 7.99889 29.879 8.03148 29.7518C8.06407 29.6246 8.1214 29.5051 8.2002 29.4L10.0002 27H8.76395C8.32512 27.0001 7.89845 26.8559 7.54968 26.5896C7.20091 26.3232 6.94941 25.9496 6.83395 25.5263L4.0352 15.2625C3.98892 15.0906 3.98892 14.9094 4.0352 14.7375L6.83395 4.47375C6.94941 4.05039 7.20091 3.67676 7.54968 3.41044C7.89845 3.14412 8.32512 2.9999 8.76395 3H23.2364C23.6753 2.9999 24.1019 3.14412 24.4507 3.41044C24.7995 3.67676 25.051 4.05039 25.1664 4.47375L27.9652 14.7375C28.0115 14.9094 28.0115 15.0906 27.9652 15.2625ZM17.0002 19C17.0002 18.7348 16.8948 18.4804 16.7073 18.2929C16.5198 18.1054 16.2654 18 16.0002 18C15.735 18 15.4806 18.1054 15.2931 18.2929C15.1056 18.4804 15.0002 18.7348 15.0002 19V24C15.0002 24.2652 15.1056 24.5196 15.2931 24.7071C15.4806 24.8946 15.735 25 16.0002 25C16.2654 25 16.5198 24.8946 16.7073 24.7071C16.8948 24.5196 17.0002 24.2652 17.0002 24V19ZM25.7502 14.2113L23.2364 5H8.76395L6.2502 14.2113L16.0002 15.9838L25.7502 14.2113Z" fill="#4A4A4F"/>
</svg>
