<svg width="32" height="32" viewBox="0 0 32 32" fill="none" xmlns="http://www.w3.org/2000/svg">
<path d="M23 3H9C7.93913 3 6.92172 3.42143 6.17157 4.17157C5.42143 4.92172 5 5.93913 5 7V23C5 24.0609 5.42143 25.0783 6.17157 25.8284C6.92172 26.5786 7.93913 27 9 27H10L8.2 29.4C8.12121 29.5051 8.06388 29.6246 8.03129 29.7518C7.99869 29.879 7.99148 30.0114 8.01005 30.1414C8.02862 30.2714 8.07262 30.3965 8.13953 30.5095C8.20643 30.6225 8.29494 30.7212 8.4 30.8C8.50506 30.8788 8.62461 30.9361 8.75182 30.9687C8.87903 31.0013 9.01142 31.0085 9.14142 30.99C9.27142 30.9714 9.39649 30.9274 9.50949 30.8605C9.62249 30.7936 9.72121 30.7051 9.8 30.6L12.5 27H19.5L22.2 30.6C22.3591 30.8122 22.596 30.9524 22.8586 30.99C23.1211 31.0275 23.3878 30.9591 23.6 30.8C23.8122 30.6409 23.9524 30.404 23.99 30.1414C24.0275 29.8789 23.9591 29.6122 23.8 29.4L22 27H23C24.0609 27 25.0783 26.5786 25.8284 25.8284C26.5786 25.0783 27 24.0609 27 23V7C27 5.93913 26.5786 4.92172 25.8284 4.17157C25.0783 3.42143 24.0609 3 23 3ZM7 15V10H15V15H7ZM17 10H25V15H17V10ZM9 5H23C23.5304 5 24.0391 5.21071 24.4142 5.58579C24.7893 5.96086 25 6.46957 25 7V8H7V7C7 6.46957 7.21071 5.96086 7.58579 5.58579C7.96086 5.21071 8.46957 5 9 5ZM23 25H9C8.46957 25 7.96086 24.7893 7.58579 24.4142C7.21071 24.0391 7 23.5304 7 23V17H25V23C25 23.5304 24.7893 24.0391 24.4142 24.4142C24.0391 24.7893 23.5304 25 23 25ZM12 21.5C12 21.7967 11.912 22.0867 11.7472 22.3334C11.5824 22.58 11.3481 22.7723 11.074 22.8858C10.7999 22.9993 10.4983 23.0291 10.2074 22.9712C9.91639 22.9133 9.64912 22.7704 9.43934 22.5607C9.22956 22.3509 9.0867 22.0836 9.02882 21.7926C8.97094 21.5017 9.00065 21.2001 9.11418 20.926C9.22771 20.6519 9.41997 20.4176 9.66665 20.2528C9.91332 20.088 10.2033 20 10.5 20C10.8978 20 11.2794 20.158 11.5607 20.4393C11.842 20.7206 12 21.1022 12 21.5ZM23 21.5C23 21.7967 22.912 22.0867 22.7472 22.3334C22.5824 22.58 22.3481 22.7723 22.074 22.8858C21.7999 22.9993 21.4983 23.0291 21.2074 22.9712C20.9164 22.9133 20.6491 22.7704 20.4393 22.5607C20.2296 22.3509 20.0867 22.0836 20.0288 21.7926C19.9709 21.5017 20.0007 21.2001 20.1142 20.926C20.2277 20.6519 20.42 20.4176 20.6666 20.2528C20.9133 20.088 21.2033 20 21.5 20C21.8978 20 22.2794 20.158 22.5607 20.4393C22.842 20.7206 23 21.1022 23 21.5Z" fill="#4A4A4F"/>
</svg>
