<svg width="32" height="32" viewBox="0 0 32 32" fill="none" xmlns="http://www.w3.org/2000/svg">
<path d="M20 16.2362L21.8825 20H18.1175L18.9125 18.4125L20 16.2362ZM28 6V26C28 26.5304 27.7893 27.0391 27.4142 27.4142C27.0391 27.7893 26.5304 28 26 28H6C5.46957 28 4.96086 27.7893 4.58579 27.4142C4.21071 27.0391 4 26.5304 4 26V6C4 5.46957 4.21071 4.96086 4.58579 4.58579C4.96086 4.21071 5.46957 4 6 4H26C26.5304 4 27.0391 4.21071 27.4142 4.58579C27.7893 4.96086 28 5.46957 28 6ZM25.895 23.5525L20.895 13.5525C20.8121 13.3861 20.6844 13.2461 20.5263 13.1483C20.3682 13.0504 20.1859 12.9986 20 12.9986C19.8141 12.9986 19.6318 13.0504 19.4737 13.1483C19.3156 13.2461 19.1879 13.3861 19.105 13.5525L17.4575 16.85C16.3977 16.6424 15.3927 16.2168 14.5063 15.6C15.8879 14.0358 16.7428 12.0767 16.95 10H19C19.2652 10 19.5196 9.89464 19.7071 9.70711C19.8946 9.51957 20 9.26522 20 9C20 8.73478 19.8946 8.48043 19.7071 8.29289C19.5196 8.10536 19.2652 8 19 8H14V7C14 6.73478 13.8946 6.48043 13.7071 6.29289C13.5196 6.10536 13.2652 6 13 6C12.7348 6 12.4804 6.10536 12.2929 6.29289C12.1054 6.48043 12 6.73478 12 7V8H7C6.73478 8 6.48043 8.10536 6.29289 8.29289C6.10536 8.48043 6 8.73478 6 9C6 9.26522 6.10536 9.51957 6.29289 9.70711C6.48043 9.89464 6.73478 10 7 10H14.935C14.7366 11.5778 14.0705 13.0602 13.0225 14.2563C12.5785 13.7379 12.2006 13.1665 11.8975 12.555C11.7747 12.326 11.5675 12.1538 11.3199 12.0748C11.0723 11.9959 10.8037 12.0165 10.571 12.1322C10.3383 12.2479 10.1598 12.4496 10.0733 12.6947C9.98675 12.9397 9.99903 13.2088 10.1075 13.445C10.4902 14.2168 10.969 14.9371 11.5325 15.5887C10.2006 16.5096 8.61928 17.002 7 17C6.73478 17 6.48043 17.1054 6.29289 17.2929C6.10536 17.4804 6 17.7348 6 18C6 18.2652 6.10536 18.5196 6.29289 18.7071C6.48043 18.8946 6.73478 19 7 19C9.17092 19.0023 11.283 18.2942 13.0138 16.9837C14.061 17.7842 15.2591 18.365 16.5362 18.6912L14.105 23.5525C13.9863 23.7899 13.9668 24.0647 14.0507 24.3164C14.1346 24.5682 14.3151 24.7763 14.5525 24.895C14.7899 25.0137 15.0647 25.0332 15.3164 24.9493C15.5682 24.8654 15.7763 24.6849 15.895 24.4475L17.1175 22H22.8825L24.105 24.4475C24.1638 24.565 24.2451 24.6698 24.3444 24.7559C24.4437 24.842 24.5589 24.9077 24.6836 24.9493C24.8082 24.9908 24.9399 25.0074 25.0709 24.9981C25.202 24.9888 25.33 24.9538 25.4475 24.895C25.565 24.8362 25.6698 24.7549 25.7559 24.6556C25.842 24.5563 25.9077 24.4411 25.9493 24.3164C25.9908 24.1918 26.0074 24.0601 25.9981 23.9291C25.9888 23.798 25.9538 23.67 25.895 23.5525Z" fill="#4A4A4F"/>
</svg>
