<svg width="32" height="32" viewBox="0 0 32 32" fill="none" xmlns="http://www.w3.org/2000/svg">
<path d="M29.8937 26.5525L22.8937 12.5525C22.8107 12.3864 22.683 12.2468 22.5251 12.1491C22.3671 12.0515 22.1851 11.9998 21.9994 11.9998C21.8137 11.9998 21.6317 12.0515 21.4737 12.1491C21.3157 12.2468 21.1881 12.3864 21.105 12.5525L18.3913 17.9813C16.2641 17.8616 14.2175 17.1269 12.5 15.8663C14.5151 13.7143 15.7361 10.9395 15.9613 8H19C19.2652 8 19.5196 7.89464 19.7071 7.70711C19.8946 7.51957 20 7.26522 20 7C20 6.73478 19.8946 6.48043 19.7071 6.29289C19.5196 6.10536 19.2652 6 19 6H12V4C12 3.73478 11.8946 3.48043 11.7071 3.29289C11.5196 3.10536 11.2652 3 11 3C10.7348 3 10.4804 3.10536 10.2929 3.29289C10.1054 3.48043 10 3.73478 10 4V6H3C2.73478 6 2.48043 6.10536 2.29289 6.29289C2.10536 6.48043 2 6.73478 2 7C2 7.26522 2.10536 7.51957 2.29289 7.70711C2.48043 7.89464 2.73478 8 3 8H13.9537C13.731 10.4508 12.6907 12.7556 11 14.5437C9.94645 13.4321 9.13741 12.1121 8.625 10.6687C8.58287 10.5428 8.51607 10.4265 8.42852 10.3267C8.34096 10.2269 8.2344 10.1455 8.11505 10.0873C7.9957 10.029 7.86595 9.99518 7.73337 9.98765C7.6008 9.98013 7.46805 9.99908 7.34287 10.0434C7.2177 10.0877 7.10261 10.1565 7.00431 10.2458C6.90602 10.3351 6.82649 10.4431 6.77037 10.5634C6.71425 10.6838 6.68266 10.8141 6.67744 10.9468C6.67223 11.0795 6.6935 11.2119 6.74 11.3363C7.33658 13.0236 8.27634 14.569 9.5 15.875C7.61595 17.2595 5.33803 18.0042 3 18C2.73478 18 2.48043 18.1054 2.29289 18.2929C2.10536 18.4804 2 18.7348 2 19C2 19.2652 2.10536 19.5196 2.29289 19.7071C2.48043 19.8946 2.73478 20 3 20C5.90073 20.0032 8.71833 19.0312 11 17.24C12.862 18.6948 15.0847 19.6156 17.43 19.9037L14.105 26.5525C13.9863 26.7897 13.9667 27.0643 14.0505 27.316C14.1343 27.5676 14.3147 27.7757 14.5519 27.8944C14.7891 28.0131 15.0637 28.0327 15.3154 27.9488C15.567 27.865 15.7751 27.6847 15.8938 27.4475L17.6175 24H26.3813L28.105 27.4475C28.1881 27.6136 28.3159 27.7533 28.474 27.8509C28.6321 27.9485 28.8142 28.0001 29 28C29.1704 27.9999 29.338 27.9563 29.4869 27.8732C29.6357 27.7901 29.7608 27.6704 29.8503 27.5254C29.9399 27.3803 29.9909 27.2148 29.9985 27.0446C30.0061 26.8743 29.97 26.7049 29.8937 26.5525ZM18.6175 22L22 15.2362L25.3813 22H18.6175Z" fill="#4A4A4F"/>
</svg>
