<svg width="32" height="32" viewBox="0 0 32 32" fill="none" xmlns="http://www.w3.org/2000/svg">
<path d="M26 4H6C5.46957 4 4.96086 4.21071 4.58579 4.58579C4.21071 4.96086 4 5.46957 4 6V26C4 26.5304 4.21071 27.0391 4.58579 27.4142C4.96086 27.7893 5.46957 28 6 28H26C26.5304 28 27.0391 27.7893 27.4142 27.4142C27.7893 27.0391 28 26.5304 28 26V6C28 5.46957 27.7893 4.96086 27.4142 4.58579C27.0391 4.21071 26.5304 4 26 4ZM26 26H6V21H9.58625L12 23.415C12.1853 23.6011 12.4056 23.7487 12.6483 23.8491C12.891 23.9495 13.1511 24.0008 13.4137 24H18.5863C18.849 24.0008 19.1093 23.9494 19.352 23.8488C19.5947 23.7482 19.815 23.6003 20 23.4137L22.4137 21H26V26Z" fill="#4A4A4F"/>
</svg>
