<svg width="32" height="32" viewBox="0 0 32 32" fill="none" xmlns="http://www.w3.org/2000/svg">
<path d="M28.7899 23.3864L23.0399 16.0001H25.9999C26.1867 16.0001 26.3697 15.9478 26.5283 15.8492C26.6869 15.7505 26.8147 15.6093 26.8972 15.4418C26.9797 15.2742 27.0136 15.0868 26.9951 14.901C26.9765 14.7151 26.9063 14.5381 26.7924 14.3901L16.7924 1.39013C16.699 1.26876 16.579 1.17046 16.4416 1.10282C16.3042 1.03518 16.153 1 15.9999 1C15.8467 1 15.6956 1.03518 15.5582 1.10282C15.4208 1.17046 15.3008 1.26876 15.2074 1.39013L5.2074 14.3901C5.09346 14.5381 5.02325 14.7151 5.00473 14.901C4.98621 15.0868 5.02011 15.2742 5.1026 15.4418C5.18509 15.6093 5.31287 15.7505 5.47146 15.8492C5.63005 15.9478 5.81311 16.0001 5.9999 16.0001H8.9549L3.2049 23.3864C3.08972 23.5345 3.01856 23.7121 2.99954 23.8988C2.98051 24.0855 3.01441 24.2737 3.09733 24.4421C3.18026 24.6104 3.30888 24.752 3.46849 24.8507C3.62809 24.9494 3.81225 25.0012 3.9999 25.0001H14.9999V30.0001C14.9999 30.2653 15.1053 30.5197 15.2928 30.7072C15.4803 30.8948 15.7347 31.0001 15.9999 31.0001C16.2651 31.0001 16.5195 30.8948 16.707 30.7072C16.8945 30.5197 16.9999 30.2653 16.9999 30.0001V25.0001H27.9999C28.1871 25.0002 28.3706 24.9478 28.5295 24.8487C28.6884 24.7496 28.8162 24.608 28.8986 24.4398C28.9809 24.2717 29.0143 24.0838 28.9951 23.8975C28.9759 23.7113 28.9048 23.5342 28.7899 23.3864ZM6.0449 23.0001L11.7949 15.6139C11.9101 15.4657 11.9812 15.2882 12.0003 15.1015C12.0193 14.9148 11.9854 14.7265 11.9025 14.5582C11.8195 14.3899 11.6909 14.2483 11.5313 14.1496C11.3717 14.0509 11.1875 13.9991 10.9999 14.0001H8.03115L15.9999 3.64013L23.9686 14.0001H20.9999C20.8128 14.0003 20.6295 14.0529 20.4708 14.1521C20.3121 14.2512 20.1844 14.3929 20.1022 14.561C20.0201 14.7291 19.9867 14.9169 20.006 15.103C20.0252 15.2892 20.0963 15.4661 20.2111 15.6139L25.9549 23.0001H6.0449Z" fill="#4A4A4F"/>
</svg>
