<svg width="32" height="32" viewBox="0 0 32 32" fill="none" xmlns="http://www.w3.org/2000/svg">
<path d="M24.7625 7.82516C24.0391 6.09797 22.8214 4.62308 21.2624 3.5858C19.7034 2.54852 17.8726 1.99512 16 1.99512C14.1275 1.99512 12.2967 2.54852 10.7377 3.5858C9.17863 4.62308 7.96093 6.09797 7.23754 7.82516C5.68074 8.54609 4.36142 9.69542 3.43391 11.1387C2.5064 12.582 2.00905 14.2596 2.00004 15.9752C1.98629 20.8277 5.92004 24.8752 10.7675 25.0002C12.2339 25.0384 13.6873 24.7161 15 24.0614V29.0002C15 29.2654 15.1054 29.5197 15.2929 29.7073C15.4805 29.8948 15.7348 30.0002 16 30.0002C16.2653 30.0002 16.5196 29.8948 16.7071 29.7073C16.8947 29.5197 17 29.2654 17 29.0002V24.0614C18.2423 24.6809 19.6119 25.0024 21 25.0002H21.2325C26.08 24.8752 30.0138 20.8302 30 15.9777C29.9917 14.2616 29.4946 12.5834 28.567 11.1396C27.6395 9.69584 26.3198 8.54615 24.7625 7.82516ZM21.1813 23.0002C19.7371 23.0404 18.3163 22.6297 17.1163 21.8252C17.0771 21.8002 17.0384 21.7764 17 21.7539V16.6177L22.4475 13.8952C22.5651 13.8364 22.6699 13.7551 22.756 13.6558C22.8421 13.5565 22.9078 13.4413 22.9493 13.3166C22.9909 13.1919 23.0075 13.0603 22.9982 12.9292C22.9888 12.7981 22.9538 12.6702 22.895 12.5527C22.8363 12.4351 22.7549 12.3303 22.6557 12.2442C22.5564 12.1581 22.4411 12.0924 22.3165 12.0509C22.1918 12.0093 22.0602 11.9927 21.9291 12.002C21.798 12.0114 21.6701 12.0464 21.5525 12.1052L17 14.3827V11.0002C17 10.7349 16.8947 10.4806 16.7071 10.2931C16.5196 10.1055 16.2653 10.0002 16 10.0002C15.7348 10.0002 15.4805 10.1055 15.2929 10.2931C15.1054 10.4806 15 10.7349 15 11.0002V17.3827L10.4475 15.1052C10.2102 14.9865 9.93537 14.9669 9.68361 15.0509C9.43184 15.1348 9.22372 15.3153 9.10504 15.5527C8.98635 15.79 8.96682 16.0648 9.05074 16.3166C9.13467 16.5684 9.31517 16.7765 9.55254 16.8952L15 19.6177V21.7502C14.9609 21.7727 14.9221 21.7964 14.8838 21.8214C13.6839 22.6266 12.2633 23.0386 10.8188 23.0002C9.23782 22.9607 7.71681 22.387 6.50355 21.3726C5.29029 20.3582 4.45627 18.9629 4.13738 17.4139C3.81848 15.8649 4.03349 14.2536 4.74739 12.8424C5.46128 11.4313 6.63199 10.3034 8.06879 9.64266C8.5232 9.43446 8.88249 9.06268 9.07504 8.60141C9.64584 7.23724 10.6072 6.07225 11.8382 5.2529C13.0692 4.43354 14.515 3.99639 15.9938 3.99639C17.4726 3.99639 18.9183 4.43354 20.1494 5.2529C21.3804 6.07225 22.3417 7.23724 22.9125 8.60141C23.1051 9.06268 23.4644 9.43446 23.9188 9.64266C25.3556 10.3034 26.5263 11.4313 27.2402 12.8424C27.9541 14.2536 28.1691 15.8649 27.8502 17.4139C27.5313 18.9629 26.6973 20.3582 25.484 21.3726C24.2708 22.387 22.7498 22.9607 21.1688 23.0002H21.1813Z" fill="#4A4A4F"/>
</svg>
