<svg width="32" height="32" viewBox="0 0 32 32" fill="none" xmlns="http://www.w3.org/2000/svg">
<path d="M29.9799 7.54141C29.948 7.69914 29.8785 7.84684 29.7773 7.97197C29.6761 8.0971 29.5462 8.19596 29.3987 8.26016L22.3749 11.3189C24.6602 11.9299 26.6096 13.423 27.7949 15.4702C28.3896 16.485 28.7755 17.6083 28.9301 18.7743C29.0846 19.9403 29.0047 21.1255 28.6949 22.2602C28.6521 22.4183 28.5711 22.5634 28.459 22.6829C28.347 22.8024 28.2073 22.8925 28.0522 22.9453C27.8972 22.9981 27.7315 23.0121 27.5698 22.9859C27.4081 22.9597 27.2554 22.8942 27.1249 22.7952L16.9999 15.0852V28.0002C16.9999 28.2654 16.8945 28.5197 16.707 28.7073C16.5195 28.8948 16.2651 29.0002 15.9999 29.0002C15.7347 29.0002 15.4803 28.8948 15.2928 28.7073C15.1053 28.5197 14.9999 28.2654 14.9999 28.0002V15.0852L4.8749 22.7952C4.74444 22.8945 4.59155 22.9602 4.4297 22.9866C4.26784 23.0129 4.102 22.999 3.94677 22.9462C3.79155 22.8933 3.6517 22.8031 3.53955 22.6835C3.4274 22.5638 3.34639 22.4185 3.30365 22.2602C2.99387 21.1255 2.91391 19.9403 3.06846 18.7743C3.22301 17.6083 3.60896 16.485 4.20365 15.4702C5.38926 13.4227 7.33913 11.9296 9.6249 11.3189L2.60115 8.26016C2.4537 8.19593 2.32391 8.09708 2.2228 7.97201C2.12169 7.84693 2.05225 7.69931 2.02035 7.54167C1.98845 7.38403 1.99505 7.22102 2.03958 7.06648C2.08411 6.91193 2.16526 6.7704 2.27615 6.65391C3.05808 5.81643 4.00386 5.14868 5.05473 4.69214C6.10561 4.23559 7.23914 4 8.3849 4C9.53067 4 10.6642 4.23559 11.7151 4.69214C12.7659 5.14868 13.7117 5.81643 14.4937 6.65391C15.0936 7.2861 15.5989 8.00187 15.9937 8.77891C16.3904 8.00148 16.8977 7.28569 17.4999 6.65391C18.2818 5.81643 19.2276 5.14868 20.2785 4.69214C21.3294 4.23559 22.4629 4 23.6087 4C24.7544 4 25.8879 4.23559 26.9388 4.69214C27.9897 5.14868 28.9355 5.81643 29.7174 6.65391C29.8294 6.76974 29.9118 6.91093 29.9575 7.06546C30.0032 7.21999 30.0109 7.38327 29.9799 7.54141Z" fill="#4A4A4F"/>
</svg>
