<svg width="32" height="32" viewBox="0 0 32 32" fill="none" xmlns="http://www.w3.org/2000/svg">
<path d="M29.7237 6.65391C28.9418 5.81643 27.996 5.14868 26.9452 4.69214C25.8943 4.23559 24.7608 4 23.615 4C22.4692 4 21.3357 4.23559 20.2848 4.69214C19.234 5.14868 18.2882 5.81643 17.5062 6.65391C16.9041 7.28569 16.3967 8.00148 16 8.77891C15.6052 8.00187 15.1 7.2861 14.5 6.65391C13.7181 5.81643 12.7723 5.14868 11.7214 4.69214C10.6705 4.23559 9.53701 4 8.39125 4C7.24548 4 6.11196 4.23559 5.06108 4.69214C4.01021 5.14868 3.06443 5.81643 2.2825 6.65391C2.17161 6.7704 2.09046 6.91193 2.04593 7.06648C2.0014 7.22102 1.9948 7.38403 2.0267 7.54167C2.05859 7.69931 2.12804 7.84693 2.22915 7.97201C2.33026 8.09708 2.46005 8.19593 2.6075 8.26016L9.625 11.3189C7.33969 11.9299 5.39032 13.423 4.205 15.4702C3.61031 16.485 3.22436 17.6083 3.06981 18.7743C2.91526 19.9403 2.99522 21.1255 3.305 22.2602C3.34782 22.4183 3.42882 22.5634 3.54088 22.6829C3.65294 22.8024 3.79263 22.8925 3.94768 22.9453C4.10272 22.9981 4.26837 23.0121 4.43007 22.9859C4.59176 22.9597 4.74455 22.8942 4.875 22.7952L15 15.0852V28.0002C15 28.2654 15.1054 28.5197 15.2929 28.7073C15.4804 28.8948 15.7348 29.0002 16 29.0002C16.2652 29.0002 16.5196 28.8948 16.7071 28.7073C16.8946 28.5197 17 28.2654 17 28.0002V15.0852L27.125 22.7952C27.2555 22.8945 27.4084 22.9602 27.5702 22.9866C27.7321 23.0129 27.8979 22.999 28.0531 22.9462C28.2084 22.8933 28.3482 22.8031 28.4604 22.6835C28.5725 22.5638 28.6535 22.4185 28.6962 22.2602C29.006 21.1255 29.086 19.9403 28.9314 18.7743C28.7769 17.6083 28.3909 16.485 27.7962 15.4702C26.6106 13.4227 24.6608 11.9296 22.375 11.3189L29.4025 8.26016C29.55 8.19593 29.6797 8.09708 29.7808 7.97201C29.882 7.84693 29.9514 7.69931 29.9833 7.54167C30.0152 7.38403 30.0086 7.22102 29.9641 7.06648C29.9195 6.91193 29.8384 6.7704 29.7275 6.65391H29.7237ZM8.385 6.00016C9.25947 6.00212 10.1242 6.18351 10.9258 6.53312C11.7273 6.88272 12.4486 7.3931 13.045 8.03266C13.9361 8.97042 14.5527 10.1348 14.8275 11.3989L4.875 7.06641C5.91365 6.37137 7.13525 6.00028 8.385 6.00016ZM5 20.1877C4.95225 18.8866 5.27614 17.5988 5.93375 16.4752C6.39342 15.6819 7.00564 14.9874 7.73509 14.432C8.46454 13.8765 9.29677 13.471 10.1837 13.2389C10.7803 13.0798 11.3951 12.9995 12.0125 13.0002C12.6999 13.0001 13.3835 13.1016 14.0412 13.3014L5 20.1877ZM26.0625 16.4752C26.7214 17.5984 27.0466 18.8862 27 20.1877L17.9625 13.3002C19.4736 12.8439 21.0943 12.9088 22.564 13.4847C24.0338 14.0605 25.2673 15.1138 26.0662 16.4752H26.0625ZM17.1725 11.3989C17.4473 10.1348 18.0639 8.97042 18.955 8.03266C19.5514 7.3931 20.2727 6.88272 21.0742 6.53312C21.8758 6.18351 22.7405 6.00212 23.615 6.00016C24.8647 6.00028 26.0863 6.37137 27.125 7.06641L17.1725 11.3989Z" fill="#4A4A4F"/>
</svg>
