<svg width="32" height="32" viewBox="0 0 32 32" fill="none" xmlns="http://www.w3.org/2000/svg">
<path d="M15.9999 23.4849C15.9999 23.4849 15.9999 23.4849 15.9924 23.4849C15.6719 23.6984 15.3379 23.8908 14.9924 24.0611V28.9999C14.9924 29.2651 15.0978 29.5194 15.2853 29.707C15.4729 29.8945 15.7272 29.9999 15.9924 29.9999C16.2576 29.9999 16.512 29.8945 16.6995 29.707C16.8871 29.5194 16.9924 29.2651 16.9924 28.9999V24.0611C16.647 23.8908 16.313 23.6984 15.9924 23.4849H15.9999Z" fill="#4A4A4F"/>
<path d="M24.7625 7.82516C24.0391 6.09797 22.8214 4.62308 21.2624 3.5858C19.7034 2.54852 17.8726 1.99512 16 1.99512C14.1275 1.99512 12.2967 2.54852 10.7377 3.5858C9.17863 4.62308 7.96093 6.09797 7.23754 7.82516C5.68093 8.54634 4.36177 9.69573 3.4343 11.139C2.50682 12.5822 2.00935 14.2596 2.00004 15.9752C1.98629 20.8277 5.92004 24.8752 10.7675 25.0002C12.2339 25.0384 13.6873 24.7161 15 24.0614V19.6177L9.55254 16.8952C9.31517 16.7765 9.13467 16.5684 9.05074 16.3166C8.96682 16.0648 8.98635 15.79 9.10504 15.5527C9.22372 15.3153 9.43184 15.1348 9.68361 15.0509C9.93537 14.9669 10.2102 14.9865 10.4475 15.1052L15 17.3827V11.0002C15 10.7349 15.1054 10.4806 15.2929 10.2931C15.4805 10.1055 15.7348 10.0002 16 10.0002C16.2653 10.0002 16.5196 10.1055 16.7071 10.2931C16.8947 10.4806 17 10.7349 17 11.0002V14.3827L21.5525 12.1052C21.6701 12.0464 21.798 12.0114 21.9291 12.002C22.0602 11.9927 22.1918 12.0093 22.3165 12.0509C22.4411 12.0924 22.5564 12.1581 22.6557 12.2442C22.7549 12.3303 22.8363 12.4351 22.895 12.5527C22.9538 12.6702 22.9888 12.7981 22.9982 12.9292C23.0075 13.0603 22.9909 13.1919 22.9493 13.3166C22.9078 13.4413 22.8421 13.5565 22.756 13.6558C22.6699 13.7551 22.5651 13.8364 22.4475 13.8952L17 16.6177V24.0614C18.2423 24.6809 19.6119 25.0024 21 25.0002H21.2325C26.08 24.8752 30.0138 20.8302 30 15.9777C29.9917 14.2616 29.4946 12.5834 28.567 11.1396C27.6395 9.69584 26.3198 8.54615 24.7625 7.82516Z" fill="#4A4A4F"/>
</svg>
