<svg width="32" height="32" viewBox="0 0 32 32" fill="none" xmlns="http://www.w3.org/2000/svg">
<path d="M30.0001 17.0001V25.0001C30.0001 25.2653 29.8947 25.5196 29.7072 25.7072C29.5196 25.8947 29.2653 26.0001 29.0001 26.0001H21.0001C20.7349 26.0001 20.4805 25.8947 20.293 25.7072C20.1054 25.5196 20.0001 25.2653 20.0001 25.0001C20.0001 24.7349 20.1054 24.4805 20.293 24.293C20.4805 24.1054 20.7349 24.0001 21.0001 24.0001H26.5863L17.0001 14.4138L12.7076 18.7076C12.6147 18.8005 12.5044 18.8743 12.383 18.9246C12.2616 18.975 12.1315 19.0009 12.0001 19.0009C11.8687 19.0009 11.7385 18.975 11.6171 18.9246C11.4957 18.8743 11.3854 18.8005 11.2926 18.7076L2.29257 9.70757C2.10493 9.51993 1.99951 9.26543 1.99951 9.00007C1.99951 8.7347 2.10493 8.48021 2.29257 8.29257C2.48021 8.10493 2.7347 7.99951 3.00007 7.99951C3.26543 7.99951 3.51993 8.10493 3.70757 8.29257L12.0001 16.5863L16.2926 12.2926C16.3854 12.1996 16.4957 12.1258 16.6171 12.0755C16.7385 12.0252 16.8687 11.9993 17.0001 11.9993C17.1315 11.9993 17.2616 12.0252 17.383 12.0755C17.5044 12.1258 17.6147 12.1996 17.7076 12.2926L28.0001 22.5863V17.0001C28.0001 16.7349 28.1054 16.4805 28.293 16.293C28.4805 16.1054 28.7349 16.0001 29.0001 16.0001C29.2653 16.0001 29.5196 16.1054 29.7072 16.293C29.8947 16.4805 30.0001 16.7349 30.0001 17.0001Z" fill="#4A4A4F"/>
</svg>
