<svg width="32" height="32" viewBox="0 0 32 32" fill="none" xmlns="http://www.w3.org/2000/svg">
<path d="M29.5973 26.4763C29.328 26.944 28.9391 27.3315 28.4705 27.5993C28.002 27.867 27.4707 28.0054 26.9311 28.0001H5.06857C4.52894 28.0054 3.99762 27.867 3.52909 27.5993C3.06056 27.3315 2.67167 26.944 2.40232 26.4763C2.13949 26.0265 2.00098 25.5148 2.00098 24.9938C2.00098 24.4728 2.13949 23.9612 2.40232 23.5113L13.3311 4.52758C13.6042 4.06249 13.9942 3.67686 14.4623 3.40891C14.9304 3.14096 15.4604 3 15.9998 3C16.5392 3 17.0692 3.14096 17.5373 3.40891C18.0054 3.67686 18.3954 4.06249 18.6686 4.52758L29.5998 23.5113C29.8623 23.9614 30.0003 24.4732 29.9999 24.9942C29.9995 25.5152 29.8605 26.0267 29.5973 26.4763Z" fill="#4A4A4F"/>
</svg>
