<svg width="32" height="32" viewBox="0 0 32 32" fill="none" xmlns="http://www.w3.org/2000/svg">
<path d="M30.9287 14.625L29.1787 10.25C29.0302 9.87964 28.7738 9.56245 28.4428 9.33956C28.1119 9.11668 27.7215 8.99838 27.3225 9H23V8C23 7.73478 22.8946 7.48043 22.7071 7.29289C22.5196 7.10536 22.2652 7 22 7H3C2.46957 7 1.96086 7.21071 1.58579 7.58579C1.21071 7.96086 1 8.46957 1 9V23C1 23.5304 1.21071 24.0391 1.58579 24.4142C1.96086 24.7893 2.46957 25 3 25H5.125C5.3453 25.8604 5.8457 26.623 6.54731 27.1676C7.24892 27.7122 8.11183 28.0078 9 28.0078C9.88817 28.0078 10.7511 27.7122 11.4527 27.1676C12.1543 26.623 12.6547 25.8604 12.875 25H19.125C19.3453 25.8604 19.8457 26.623 20.5473 27.1676C21.2489 27.7122 22.1118 28.0078 23 28.0078C23.8882 28.0078 24.7511 27.7122 25.4527 27.1676C26.1543 26.623 26.6547 25.8604 26.875 25H29C29.5304 25 30.0391 24.7893 30.4142 24.4142C30.7893 24.0391 31 23.5304 31 23V15C31.0001 14.8716 30.976 14.7444 30.9287 14.625ZM9 26C8.60444 26 8.21776 25.8827 7.88886 25.6629C7.55996 25.4432 7.30362 25.1308 7.15224 24.7654C7.00087 24.3999 6.96126 23.9978 7.03843 23.6098C7.1156 23.2219 7.30608 22.8655 7.58579 22.5858C7.86549 22.3061 8.22186 22.1156 8.60982 22.0384C8.99778 21.9613 9.39991 22.0009 9.76537 22.1522C10.1308 22.3036 10.4432 22.56 10.6629 22.8889C10.8827 23.2178 11 23.6044 11 24C11 24.5304 10.7893 25.0391 10.4142 25.4142C10.0391 25.7893 9.53043 26 9 26ZM3 17V9H21V17H3ZM23 26C22.6044 26 22.2178 25.8827 21.8889 25.6629C21.56 25.4432 21.3036 25.1308 21.1522 24.7654C21.0009 24.3999 20.9613 23.9978 21.0384 23.6098C21.1156 23.2219 21.3061 22.8655 21.5858 22.5858C21.8655 22.3061 22.2219 22.1156 22.6098 22.0384C22.9978 21.9613 23.3999 22.0009 23.7654 22.1522C24.1308 22.3036 24.4432 22.56 24.6629 22.8889C24.8827 23.2178 25 23.6044 25 24C25 24.5304 24.7893 25.0391 24.4142 25.4142C24.0391 25.7893 23.5304 26 23 26ZM23 14V11H27.3225L28.5225 14H23Z" fill="#4A4A4F"/>
</svg>
