<svg width="32" height="32" viewBox="0 0 32 32" fill="none" xmlns="http://www.w3.org/2000/svg">
<path d="M30.949 7.6525L24.479 4.125C24.3324 4.04389 24.1678 4.0009 24.0002 4H20.0002C19.735 4 19.4807 4.10536 19.2931 4.29289C19.1056 4.48043 19.0002 4.73478 19.0002 5C19.0002 5.79565 18.6842 6.55871 18.1216 7.12132C17.559 7.68393 16.7959 8 16.0002 8C15.2046 8 14.4415 7.68393 13.8789 7.12132C13.3163 6.55871 13.0002 5.79565 13.0002 5C13.0002 4.73478 12.8949 4.48043 12.7073 4.29289C12.5198 4.10536 12.2655 4 12.0002 4H8.00024C7.83228 4.0007 7.66721 4.04368 7.52024 4.125L1.05149 7.6525C0.590369 7.89619 0.2447 8.3128 0.0902809 8.81097C-0.0641384 9.30914 -0.0147045 9.84822 0.227743 10.31L2.63649 14.9113C2.81164 15.2421 3.07417 15.5185 3.39551 15.7105C3.71685 15.9024 4.08469 16.0026 4.45899 16H7.00024V26C7.00024 26.5304 7.21096 27.0391 7.58603 27.4142C7.9611 27.7893 8.46981 28 9.00024 28H23.0002C23.5307 28 24.0394 27.7893 24.4145 27.4142C24.7895 27.0391 25.0002 26.5304 25.0002 26V16H27.5427C27.917 16.0026 28.2849 15.9024 28.6062 15.7105C28.9276 15.5185 29.1901 15.2421 29.3652 14.9113L31.774 10.31C32.0163 9.84807 32.0656 9.30887 31.9109 8.81068C31.7563 8.31249 31.4103 7.89598 30.949 7.6525ZM4.45899 14C4.44052 14.0009 4.42234 13.9951 4.40774 13.9838L2.01149 9.4075L7.00024 6.685V14H4.45899ZM27.5927 13.9825C27.5858 13.9887 27.5777 13.9935 27.5689 13.9965C27.5601 13.9995 27.5508 14.0007 27.5415 14H25.0002V6.685L29.9902 9.4075L27.5927 13.9825Z" fill="#4A4A4F"/>
</svg>
