<svg width="32" height="32" viewBox="0 0 32 32" fill="none" xmlns="http://www.w3.org/2000/svg">
<path d="M30.7076 9.70758L26.9701 13.4451C26.2151 22.1976 18.8338 29.0001 10.0001 29.0001C8.18506 29.0001 6.68881 28.7126 5.55256 28.1451C4.63631 27.6863 4.26131 27.1951 4.16756 27.0551C4.08397 26.9297 4.02978 26.7871 4.00906 26.6378C3.98834 26.4886 4.00161 26.3366 4.04789 26.1932C4.09417 26.0498 4.17225 25.9187 4.27631 25.8097C4.38036 25.7007 4.5077 25.6167 4.64881 25.5638C4.68131 25.5513 7.67881 24.4001 9.58256 22.2088C8.52679 21.3408 7.60516 20.3214 6.84756 19.1838C5.29756 16.8826 3.56256 12.8851 4.09756 6.91133C4.11452 6.72151 4.18536 6.54049 4.30175 6.38959C4.41814 6.23868 4.57523 6.12418 4.75451 6.05955C4.93379 5.99493 5.12781 5.98289 5.31371 6.02484C5.49961 6.06678 5.66965 6.16098 5.80381 6.29633C5.84756 6.34008 9.96381 10.4338 14.9963 11.7613V11.0001C14.9944 10.2018 15.1522 9.41125 15.4605 8.67492C15.7688 7.93858 16.2213 7.27137 16.7913 6.71258C17.3449 6.15974 18.0037 5.72338 18.7287 5.42926C19.4537 5.13514 20.2302 4.98921 21.0126 5.00008C22.062 5.01043 23.0909 5.29214 23.9993 5.81783C24.9076 6.34352 25.6645 7.0953 26.1963 8.00008H30.0001C30.198 7.99992 30.3915 8.05849 30.556 8.16836C30.7206 8.27823 30.8489 8.43446 30.9247 8.61729C31.0004 8.80011 31.0202 9.0013 30.9816 9.19538C30.9429 9.38947 30.8476 9.56772 30.7076 9.70758Z" fill="#4A4A4F"/>
</svg>
