<svg width="32" height="32" viewBox="0 0 32 32" fill="none" xmlns="http://www.w3.org/2000/svg">
<path d="M30.0001 15.8288C29.6999 12.3246 28.0941 9.06112 25.5011 6.68506C22.9081 4.30899 19.5171 2.99376 16.0001 3.00002C12.4842 2.99533 9.09474 4.31126 6.50307 6.68717C3.91139 9.06308 2.30654 12.3257 2.00637 15.8288C1.98264 16.1049 2.01656 16.383 2.10599 16.6453C2.19543 16.9077 2.33841 17.1486 2.52588 17.3527C2.71334 17.5569 2.9412 17.7199 3.19499 17.8313C3.44877 17.9427 3.72295 18.0002 4.00012 18H15.0001V25C15.0001 26.0609 15.4215 27.0783 16.1717 27.8284C16.9218 28.5786 17.9393 29 19.0001 29C20.061 29 21.0784 28.5786 21.8285 27.8284C22.5787 27.0783 23.0001 26.0609 23.0001 25C23.0001 24.7348 22.8948 24.4805 22.7072 24.2929C22.5197 24.1054 22.2653 24 22.0001 24C21.7349 24 21.4805 24.1054 21.293 24.2929C21.1055 24.4805 21.0001 24.7348 21.0001 25C21.0001 25.5305 20.7894 26.0392 20.4143 26.4142C20.0393 26.7893 19.5306 27 19.0001 27C18.4697 27 17.961 26.7893 17.5859 26.4142C17.2108 26.0392 17.0001 25.5305 17.0001 25V18H28.0001C28.2778 18.001 28.5527 17.9442 28.8072 17.8332C29.0617 17.7221 29.2904 17.5593 29.4785 17.355C29.6666 17.1508 29.8102 16.9096 29.9 16.6468C29.9898 16.384 30.0239 16.1054 30.0001 15.8288ZM4.00012 16C4.22175 13.424 5.26819 10.9881 6.98409 9.05402C8.69998 7.11992 10.9938 5.79073 13.5251 5.26377C12.0601 7.25002 10.2314 10.7638 10.0214 16H4.00012ZM21.9789 16C21.7689 10.7638 19.9401 7.25002 18.4789 5.25752C21.0111 5.78402 23.3057 7.114 25.0212 9.04958C26.7368 10.9851 27.7816 13.4229 28.0001 16H21.9789Z" fill="#4A4A4F"/>
</svg>
