<svg width="32" height="32" viewBox="0 0 32 32" fill="none" xmlns="http://www.w3.org/2000/svg">
<path d="M29.47 17.354C29.2829 17.5574 29.0557 17.7199 28.8027 17.8311C28.5497 17.9423 28.2764 17.9999 28 18.0002H17V25.0002C17 25.5307 17.2107 26.0394 17.5858 26.4144C17.9609 26.7895 18.4696 27.0002 19 27.0002C19.5305 27.0002 20.0392 26.7895 20.4142 26.4144C20.7893 26.0394 21 25.5307 21 25.0002C21 24.735 21.1054 24.4806 21.2929 24.2931C21.4805 24.1056 21.7348 24.0002 22 24.0002C22.2652 24.0002 22.5196 24.1056 22.7071 24.2931C22.8947 24.4806 23 24.735 23 25.0002C23 26.0611 22.5786 27.0785 21.8284 27.8286C21.0783 28.5788 20.0609 29.0002 19 29.0002C17.9392 29.0002 16.9217 28.5788 16.1716 27.8286C15.4214 27.0785 15 26.0611 15 25.0002V18.0002H4.00002C3.72233 18.0012 3.44746 17.9444 3.19293 17.8334C2.9384 17.7223 2.70978 17.5595 2.52164 17.3552C2.3335 17.151 2.18995 16.9098 2.10015 16.647C2.01034 16.3842 1.97624 16.1056 2.00002 15.829C2.22922 13.2126 3.18695 10.7127 4.7646 8.6129C6.34225 6.5131 8.47671 4.89736 10.9259 3.94891C13.3751 3.00046 16.0411 2.75725 18.6215 3.24686C21.2019 3.73647 23.5935 4.93931 25.525 6.71897C28.1081 9.08571 29.7057 12.338 30 15.829C30.0217 16.106 29.9859 16.3845 29.8946 16.6469C29.8034 16.9094 29.6589 17.1501 29.47 17.354Z" fill="#4A4A4F"/>
</svg>
