<svg width="32" height="32" viewBox="0 0 32 32" fill="none" xmlns="http://www.w3.org/2000/svg">
<path d="M28 12V27C28 27.2652 27.8946 27.5196 27.7071 27.7071C27.5196 27.8946 27.2652 28 27 28H12C11.7348 28 11.4804 27.8946 11.2929 27.7071C11.1054 27.5196 11 27.2652 11 27V21H5C4.73478 21 4.48043 20.8946 4.29289 20.7071C4.10536 20.5196 4 20.2652 4 20V5C4 4.73478 4.10536 4.48043 4.29289 4.29289C4.48043 4.10536 4.73478 4 5 4H20C20.2652 4 20.5196 4.10536 20.7071 4.29289C20.8946 4.48043 21 4.73478 21 5V11H27C27.2652 11 27.5196 11.1054 27.7071 11.2929C27.8946 11.4804 28 11.7348 28 12Z" fill="#4A4A4F"/>
</svg>
