<svg width="32" height="32" viewBox="0 0 32 32" fill="none" xmlns="http://www.w3.org/2000/svg">
<path d="M8.0002 20.0001C8.0002 20.4001 8.0202 20.7964 8.05895 21.1864C6.55537 20.5439 5.23226 19.5425 4.20554 18.27C3.17882 16.9974 2.47981 15.4925 2.16973 13.8871C1.85966 12.2816 1.94799 10.6247 2.42699 9.06129C2.90598 7.49791 3.76102 6.07585 4.91721 4.91966C6.07341 3.76346 7.49547 2.90842 9.05884 2.42943C10.6222 1.95043 12.2792 1.8621 13.8846 2.17218C15.4901 2.48225 16.995 3.18126 18.2675 4.20798C19.5401 5.2347 20.5415 6.55781 21.184 8.0614C20.794 8.02264 20.3977 8.00265 19.9977 8.00265C16.8171 8.00694 13.768 9.27234 11.5189 11.5214C9.2699 13.7704 8.0045 16.8195 8.0002 20.0001ZM22.0002 12.0001C21.9999 11.3866 21.9426 10.7744 21.829 10.1714C21.226 10.0578 20.6138 10.0004 20.0002 10.0001C17.349 10.0031 14.8071 11.0576 12.9324 12.9324C11.0577 14.8071 10.0032 17.3489 10.0002 20.0001C10.0005 20.6137 10.0578 21.2259 10.1715 21.8289C10.7744 21.9425 11.3866 21.9998 12.0002 22.0001C14.6515 21.9972 17.1933 20.9426 19.068 19.0679C20.9427 17.1932 21.9972 14.6514 22.0002 12.0001ZM23.9415 10.8139C23.9802 11.2039 24.0002 11.6001 24.0002 12.0001C23.9966 15.1816 22.7311 18.2318 20.4815 20.4814C18.2318 22.7311 15.1817 23.9965 12.0002 24.0001C11.6002 24.0001 11.204 23.9801 10.814 23.9414C11.4564 25.445 12.4578 26.7681 13.7304 27.7948C15.0029 28.8215 16.5078 29.5205 18.1133 29.8306C19.7187 30.1407 21.3757 30.0524 22.9391 29.5734C24.5024 29.0944 25.9245 28.2393 27.0807 27.0831C28.2369 25.9269 29.0919 24.5049 29.5709 22.9415C30.0499 21.3781 30.1382 19.7212 29.8282 18.1157C29.5181 16.5103 28.8191 15.0054 27.7924 13.7328C26.7656 12.4603 25.4425 11.4589 23.939 10.8164L23.9415 10.8139Z" fill="#4A4A4F"/>
</svg>
