<svg width="32" height="32" viewBox="0 0 32 32" fill="none" xmlns="http://www.w3.org/2000/svg">
<path d="M28 18.9998V25.9998C28 26.5302 27.7893 27.0389 27.4142 27.414C27.0391 27.7891 26.5304 27.9998 26 27.9998H6C5.46957 27.9998 4.96086 27.7891 4.58579 27.414C4.21071 27.0389 4 26.5302 4 25.9998V18.9998C4 18.7346 4.10536 18.4802 4.29289 18.2927C4.48043 18.1052 4.73478 17.9998 5 17.9998C5.26522 17.9998 5.51957 18.1052 5.70711 18.2927C5.89464 18.4802 6 18.7346 6 18.9998V25.9998H26V18.9998C26 18.7346 26.1054 18.4802 26.2929 18.2927C26.4804 18.1052 26.7348 17.9998 27 17.9998C27.2652 17.9998 27.5196 18.1052 27.7071 18.2927C27.8946 18.4802 28 18.7346 28 18.9998ZM11 10.9998H15V18.9998C15 19.265 15.1054 19.5194 15.2929 19.7069C15.4804 19.8945 15.7348 19.9998 16 19.9998C16.2652 19.9998 16.5196 19.8945 16.7071 19.7069C16.8946 19.5194 17 19.265 17 18.9998V10.9998H21C21.1979 11 21.3914 10.9414 21.556 10.8315C21.7206 10.7217 21.8489 10.5654 21.9246 10.3826C22.0004 10.1998 22.0202 9.99859 21.9815 9.8045C21.9429 9.61042 21.8475 9.43217 21.7075 9.29231L16.7075 4.29231C16.6146 4.19933 16.5043 4.12557 16.3829 4.07525C16.2615 4.02493 16.1314 3.99902 16 3.99902C15.8686 3.99902 15.7385 4.02493 15.6171 4.07525C15.4957 4.12557 15.3854 4.19933 15.2925 4.29231L10.2925 9.29231C10.1525 9.43217 10.0571 9.61042 10.0185 9.8045C9.97982 9.99859 9.99963 10.1998 10.0754 10.3826C10.1511 10.5654 10.2794 10.7217 10.444 10.8315C10.6086 10.9414 10.8021 11 11 10.9998Z" fill="#4A4A4F"/>
</svg>
