<svg width="32" height="32" viewBox="0 0 32 32" fill="none" xmlns="http://www.w3.org/2000/svg">
<path d="M28 18.9998V25.9998C28 26.5302 27.7893 27.0389 27.4142 27.414C27.0391 27.7891 26.5304 27.9998 26 27.9998H6C5.46957 27.9998 4.96086 27.7891 4.58579 27.414C4.21071 27.0389 4 26.5302 4 25.9998V18.9998C4 18.7346 4.10536 18.4802 4.29289 18.2927C4.48043 18.1052 4.73478 17.9998 5 17.9998C5.26522 17.9998 5.51957 18.1052 5.70711 18.2927C5.89464 18.4802 6 18.7346 6 18.9998V25.9998H26V18.9998C26 18.7346 26.1054 18.4802 26.2929 18.2927C26.4804 18.1052 26.7348 17.9998 27 17.9998C27.2652 17.9998 27.5196 18.1052 27.7071 18.2927C27.8946 18.4802 28 18.7346 28 18.9998ZM11.7075 10.7073L15 7.41356V18.9998C15 19.265 15.1054 19.5194 15.2929 19.7069C15.4804 19.8945 15.7348 19.9998 16 19.9998C16.2652 19.9998 16.5196 19.8945 16.7071 19.7069C16.8946 19.5194 17 19.265 17 18.9998V7.41356L20.2925 10.7073C20.4801 10.895 20.7346 11.0004 21 11.0004C21.2654 11.0004 21.5199 10.895 21.7075 10.7073C21.8951 10.5197 22.0006 10.2652 22.0006 9.99981C22.0006 9.73445 21.8951 9.47995 21.7075 9.29231L16.7075 4.29231C16.6146 4.19933 16.5043 4.12557 16.3829 4.07525C16.2615 4.02493 16.1314 3.99902 16 3.99902C15.8686 3.99902 15.7385 4.02493 15.6171 4.07525C15.4957 4.12557 15.3854 4.19933 15.2925 4.29231L10.2925 9.29231C10.1049 9.47995 9.99944 9.73445 9.99944 9.99981C9.99944 10.2652 10.1049 10.5197 10.2925 10.7073C10.4801 10.895 10.7346 11.0004 11 11.0004C11.2654 11.0004 11.5199 10.895 11.7075 10.7073Z" fill="#4A4A4F"/>
</svg>
