<svg width="32" height="32" viewBox="0 0 32 32" fill="none" xmlns="http://www.w3.org/2000/svg">
<path d="M9.2925 9.70731C9.19952 9.61444 9.12576 9.50415 9.07544 9.38275C9.02512 9.26135 8.99921 9.13123 8.99921 8.99981C8.99921 8.86839 9.02512 8.73827 9.07544 8.61687C9.12576 8.49547 9.19952 8.38518 9.2925 8.29231L15.2925 2.29231C15.3854 2.19933 15.4957 2.12557 15.6171 2.07525C15.7385 2.02493 15.8686 1.99902 16 1.99902C16.1314 1.99902 16.2615 2.02493 16.3829 2.07525C16.5043 2.12557 16.6146 2.19933 16.7075 2.29231L22.7075 8.29231C22.8951 8.47995 23.0006 8.73445 23.0006 8.99981C23.0006 9.26517 22.8951 9.51967 22.7075 9.70731C22.5199 9.89495 22.2654 10.0004 22 10.0004C21.7346 10.0004 21.4801 9.89495 21.2925 9.70731L17 5.41356V15.9998C17 16.265 16.8946 16.5194 16.7071 16.7069C16.5196 16.8945 16.2652 16.9998 16 16.9998C15.7348 16.9998 15.4804 16.8945 15.2929 16.7069C15.1054 16.5194 15 16.265 15 15.9998V5.41356L10.7075 9.70731C10.6146 9.80029 10.5043 9.87405 10.3829 9.92437C10.2615 9.97469 10.1314 10.0006 10 10.0006C9.86858 10.0006 9.73846 9.97469 9.61706 9.92437C9.49566 9.87405 9.38537 9.80029 9.2925 9.70731ZM30 16.9998V24.9998C30 25.5302 29.7893 26.0389 29.4142 26.414C29.0391 26.7891 28.5304 26.9998 28 26.9998H4C3.46957 26.9998 2.96086 26.7891 2.58579 26.414C2.21071 26.0389 2 25.5302 2 24.9998V16.9998C2 16.4694 2.21071 15.9607 2.58579 15.5856C2.96086 15.2105 3.46957 14.9998 4 14.9998H12.5C12.6326 14.9998 12.7598 15.0525 12.8536 15.1463C12.9473 15.24 13 15.3672 13 15.4998V15.9323C13 17.6136 14.375 19.0311 16.0575 18.9998C16.8431 18.9847 17.5915 18.662 18.1417 18.1011C18.692 17.5401 19.0001 16.7856 19 15.9998V15.4998C19 15.3672 19.0527 15.24 19.1464 15.1463C19.2402 15.0525 19.3674 14.9998 19.5 14.9998H28C28.5304 14.9998 29.0391 15.2105 29.4142 15.5856C29.7893 15.9607 30 16.4694 30 16.9998ZM25 20.9998C25 20.7031 24.912 20.4131 24.7472 20.1665C24.5824 19.9198 24.3481 19.7275 24.074 19.614C23.7999 19.5005 23.4983 19.4708 23.2074 19.5286C22.9164 19.5865 22.6491 19.7294 22.4393 19.9391C22.2296 20.1489 22.0867 20.4162 22.0288 20.7072C21.9709 20.9981 22.0007 21.2997 22.1142 21.5738C22.2277 21.8479 22.42 22.0822 22.6666 22.247C22.9133 22.4118 23.2033 22.4998 23.5 22.4998C23.8978 22.4998 24.2794 22.3418 24.5607 22.0605C24.842 21.7792 25 21.3976 25 20.9998Z" fill="#4A4A4F"/>
</svg>
