<svg width="32" height="32" viewBox="0 0 32 32" fill="none" xmlns="http://www.w3.org/2000/svg">
<path d="M30 16.9998V24.9998C30 25.5302 29.7893 26.0389 29.4142 26.414C29.0391 26.7891 28.5304 26.9998 28 26.9998H4C3.46957 26.9998 2.96086 26.7891 2.58579 26.414C2.21071 26.0389 2 25.5302 2 24.9998V16.9998C2 16.4694 2.21071 15.9607 2.58579 15.5856C2.96086 15.2105 3.46957 14.9998 4 14.9998H10C10.2652 14.9998 10.5196 15.1052 10.7071 15.2927C10.8946 15.4802 11 15.7346 11 15.9998C11 16.265 10.8946 16.5194 10.7071 16.7069C10.5196 16.8945 10.2652 16.9998 10 16.9998H4V24.9998H28V16.9998H22C21.7348 16.9998 21.4804 16.8945 21.2929 16.7069C21.1054 16.5194 21 16.265 21 15.9998C21 15.7346 21.1054 15.4802 21.2929 15.2927C21.4804 15.1052 21.7348 14.9998 22 14.9998H28C28.5304 14.9998 29.0391 15.2105 29.4142 15.5856C29.7893 15.9607 30 16.4694 30 16.9998ZM10.7075 9.70731L15 5.41356V15.9998C15 16.265 15.1054 16.5194 15.2929 16.7069C15.4804 16.8945 15.7348 16.9998 16 16.9998C16.2652 16.9998 16.5196 16.8945 16.7071 16.7069C16.8946 16.5194 17 16.265 17 15.9998V5.41356L21.2925 9.70731C21.4801 9.89495 21.7346 10.0004 22 10.0004C22.2654 10.0004 22.5199 9.89495 22.7075 9.70731C22.8951 9.51967 23.0006 9.26517 23.0006 8.99981C23.0006 8.73445 22.8951 8.47995 22.7075 8.29231L16.7075 2.29231C16.6146 2.19933 16.5043 2.12557 16.3829 2.07525C16.2615 2.02493 16.1314 1.99902 16 1.99902C15.8686 1.99902 15.7385 2.02493 15.6171 2.07525C15.4957 2.12557 15.3854 2.19933 15.2925 2.29231L9.2925 8.29231C9.10486 8.47995 8.99944 8.73445 8.99944 8.99981C8.99944 9.26517 9.10486 9.51967 9.2925 9.70731C9.48014 9.89495 9.73464 10.0004 10 10.0004C10.2654 10.0004 10.5199 9.89495 10.7075 9.70731ZM25 20.9998C25 20.7031 24.912 20.4131 24.7472 20.1665C24.5824 19.9198 24.3481 19.7275 24.074 19.614C23.7999 19.5005 23.4983 19.4708 23.2074 19.5286C22.9164 19.5865 22.6491 19.7294 22.4393 19.9391C22.2296 20.1489 22.0867 20.4162 22.0288 20.7072C21.9709 20.9981 22.0007 21.2997 22.1142 21.5738C22.2277 21.8479 22.42 22.0822 22.6666 22.247C22.9133 22.4118 23.2033 22.4998 23.5 22.4998C23.8978 22.4998 24.2794 22.3418 24.5607 22.0605C24.842 21.7792 25 21.3976 25 20.9998Z" fill="#4A4A4F"/>
</svg>
