<svg width="32" height="32" viewBox="0 0 32 32" fill="none" xmlns="http://www.w3.org/2000/svg">
<path d="M31.5 16C31.5001 16.0823 31.4798 16.1634 31.441 16.236C31.4021 16.3087 31.346 16.3706 31.2775 16.4163L25.2775 20.4163C25.2022 20.4665 25.1146 20.4954 25.0242 20.4997C24.9338 20.5041 24.8438 20.4839 24.764 20.4411C24.6842 20.3984 24.6175 20.3348 24.571 20.2571C24.5245 20.1794 24.4999 20.0906 24.5 20V17H9V23H13.5V22C13.5 21.6022 13.658 21.2207 13.9393 20.9393C14.2206 20.658 14.6022 20.5 15 20.5H19C19.3978 20.5 19.7794 20.658 20.0607 20.9393C20.342 21.2207 20.5 21.6022 20.5 22V26C20.5 26.3978 20.342 26.7794 20.0607 27.0607C19.7794 27.342 19.3978 27.5 19 27.5H15C14.6022 27.5 14.2206 27.342 13.9393 27.0607C13.658 26.7794 13.5 26.3978 13.5 26V25H9C8.46957 25 7.96086 24.7893 7.58579 24.4142C7.21071 24.0391 7 23.5304 7 23V17H1C0.734784 17 0.48043 16.8947 0.292893 16.7071C0.105357 16.5196 0 16.2652 0 16C0 15.7348 0.105357 15.4804 0.292893 15.2929C0.48043 15.1054 0.734784 15 1 15H7V9.00001C7 8.46958 7.21071 7.96087 7.58579 7.58579C7.96086 7.21072 8.46957 7.00001 9 7.00001H13.6462C13.8865 6.19434 14.4086 5.50206 15.1173 5.04974C15.8259 4.59743 16.6737 4.4153 17.5056 4.53667C18.3375 4.65805 19.098 5.07481 19.6479 5.71074C20.1977 6.34668 20.5004 7.1593 20.5004 8.00001C20.5004 8.84072 20.1977 9.65334 19.6479 10.2893C19.098 10.9252 18.3375 11.342 17.5056 11.4633C16.6737 11.5847 15.8259 11.4026 15.1173 10.9503C14.4086 10.498 13.8865 9.80567 13.6462 9.00001H9V15H24.5V12C24.4999 11.9095 24.5245 11.8206 24.571 11.7429C24.6175 11.6652 24.6842 11.6016 24.764 11.5589C24.8438 11.5161 24.9338 11.4959 25.0242 11.5003C25.1146 11.5047 25.2022 11.5335 25.2775 11.5838L31.2775 15.5838C31.346 15.6295 31.4021 15.6914 31.441 15.764C31.4798 15.8366 31.5001 15.9177 31.5 16Z" fill="#4A4A4F"/>
</svg>
