<svg width="32" height="32" viewBox="0 0 32 32" fill="none" xmlns="http://www.w3.org/2000/svg">
<path d="M21.5 15C21.5 16.0878 21.1774 17.1512 20.5731 18.0556C19.9687 18.9601 19.1098 19.6651 18.1048 20.0813C17.0998 20.4976 15.9939 20.6065 14.927 20.3943C13.8601 20.1821 12.8801 19.6583 12.1109 18.8891C11.3417 18.1199 10.8179 17.1399 10.6057 16.073C10.3935 15.0061 10.5024 13.9002 10.9187 12.8952C11.3349 11.8902 12.0399 11.0313 12.9444 10.4269C13.8488 9.82257 14.9122 9.5 16 9.5C17.4587 9.5 18.8576 10.0795 19.8891 11.1109C20.9205 12.1424 21.5 13.5413 21.5 15ZM29 7V25C29 25.5304 28.7893 26.0391 28.4142 26.4142C28.0391 26.7893 27.5304 27 27 27H5C4.46957 27 3.96086 26.7893 3.58579 26.4142C3.21071 26.0391 3 25.5304 3 25V7C3 6.46957 3.21071 5.96086 3.58579 5.58579C3.96086 5.21071 4.46957 5 5 5H27C27.5304 5 28.0391 5.21071 28.4142 5.58579C28.7893 5.96086 29 6.46957 29 7ZM27 25V7H5V25H6.835C7.61205 23.2225 8.88935 21.7094 10.5112 20.645C10.6023 20.5846 10.7106 20.5557 10.8197 20.5627C10.9287 20.5697 11.0324 20.6122 11.115 20.6838C12.4728 21.8554 14.2065 22.5 16 22.5C17.7935 22.5 19.5272 21.8554 20.885 20.6838C20.9676 20.6122 21.0713 20.5697 21.1803 20.5627C21.2894 20.5557 21.3977 20.5846 21.4888 20.645C23.1106 21.7094 24.3879 23.2225 25.165 25H27Z" fill="#4A4A4F"/>
</svg>
