<svg width="32" height="32" viewBox="0 0 32 32" fill="none" xmlns="http://www.w3.org/2000/svg">
<path d="M3.4 15.8001C3.50506 15.8789 3.62461 15.9362 3.75182 15.9688C3.87903 16.0014 4.01142 16.0086 4.14142 15.9901C4.27142 15.9715 4.39649 15.9275 4.50949 15.8606C4.62249 15.7937 4.72121 15.7052 4.8 15.6001C5.40546 14.7928 6.19055 14.1376 7.09311 13.6863C7.99567 13.235 8.99091 13.0001 10 13.0001C11.0091 13.0001 12.0043 13.235 12.9069 13.6863C13.8094 14.1376 14.5945 14.7928 15.2 15.6001C15.3593 15.8121 15.5963 15.9521 15.8588 15.9894C16.1214 16.0266 16.388 15.9581 16.6 15.7989C16.6756 15.7426 16.7425 15.6757 16.7987 15.6001C17.4042 14.7928 18.1893 14.1376 19.0919 13.6863C19.9944 13.235 20.9897 13.0001 21.9988 13.0001C23.0078 13.0001 24.0031 13.235 24.9056 13.6863C25.8082 14.1376 26.5933 14.7928 27.1987 15.6001C27.358 15.8123 27.5951 15.9525 27.8578 15.9899C28.1204 16.0273 28.3872 15.9588 28.5994 15.7995C28.8115 15.6402 28.9518 15.4031 28.9891 15.1405C29.0265 14.8778 28.958 14.611 28.7987 14.3989C27.9136 13.2122 26.7332 12.2779 25.375 11.6889C26.1196 11.009 26.6413 10.12 26.8716 9.13835C27.1019 8.15673 27.03 7.12843 26.6654 6.18838C26.3009 5.24833 25.6606 4.44047 24.8287 3.87082C23.9967 3.30117 23.012 2.99634 22.0037 2.99634C20.9955 2.99634 20.0108 3.30117 19.1788 3.87082C18.3469 4.44047 17.7066 5.24833 17.3421 6.18838C16.9775 7.12843 16.9056 8.15673 17.1359 9.13835C17.3662 10.12 17.8879 11.009 18.6325 11.6889C17.6518 12.1129 16.7609 12.72 16.0075 13.4776C15.2541 12.72 14.3632 12.1129 13.3825 11.6889C14.1271 11.009 14.6488 10.12 14.8791 9.13835C15.1094 8.15673 15.0375 7.12843 14.6729 6.18838C14.3084 5.24833 13.6681 4.44047 12.8362 3.87082C12.0042 3.30117 11.0195 2.99634 10.0112 2.99634C9.00298 2.99634 8.01827 3.30117 7.18634 3.87082C6.35442 4.44047 5.71415 5.24833 5.34957 6.18838C4.98499 7.12843 4.91313 8.15673 5.14342 9.13835C5.37371 10.12 5.89539 11.009 6.64 11.6889C5.27581 12.276 4.08963 13.2109 3.2 14.4001C3.12121 14.5052 3.06388 14.6247 3.03129 14.7519C2.99869 14.8791 2.99148 15.0115 3.01005 15.1415C3.02862 15.2715 3.07262 15.3966 3.13953 15.5096C3.20643 15.6226 3.29494 15.7213 3.4 15.8001ZM22 5.0001C22.5933 5.0001 23.1734 5.17605 23.6667 5.5057C24.1601 5.83534 24.5446 6.30387 24.7716 6.85205C24.9987 7.40023 25.0581 8.00343 24.9424 8.58537C24.8266 9.16732 24.5409 9.70187 24.1213 10.1214C23.7018 10.541 23.1672 10.8267 22.5853 10.9425C22.0033 11.0582 21.4001 10.9988 20.8519 10.7717C20.3038 10.5447 19.8352 10.1602 19.5056 9.66681C19.1759 9.17347 19 8.59345 19 8.0001C19 7.20445 19.3161 6.44139 19.8787 5.87878C20.4413 5.31617 21.2044 5.0001 22 5.0001ZM10 5.0001C10.5933 5.0001 11.1734 5.17605 11.6667 5.5057C12.1601 5.83534 12.5446 6.30387 12.7716 6.85205C12.9987 7.40023 13.0581 8.00343 12.9424 8.58537C12.8266 9.16732 12.5409 9.70187 12.1213 10.1214C11.7018 10.541 11.1672 10.8267 10.5853 10.9425C10.0033 11.0582 9.40013 10.9988 8.85195 10.7717C8.30377 10.5447 7.83524 10.1602 7.50559 9.66681C7.17595 9.17347 7 8.59345 7 8.0001C7 7.20445 7.31607 6.44139 7.87868 5.87878C8.44129 5.31617 9.20435 5.0001 10 5.0001ZM25.375 24.6889C26.1196 24.009 26.6413 23.12 26.8716 22.1383C27.1019 21.1567 27.03 20.1284 26.6654 19.1884C26.3009 18.2483 25.6606 17.4405 24.8287 16.8708C23.9967 16.3012 23.012 15.9963 22.0037 15.9963C20.9955 15.9963 20.0108 16.3012 19.1788 16.8708C18.3469 17.4405 17.7066 18.2483 17.3421 19.1884C16.9775 20.1284 16.9056 21.1567 17.1359 22.1383C17.3662 23.12 17.8879 24.009 18.6325 24.6889C17.6518 25.1129 16.7609 25.72 16.0075 26.4776C15.2541 25.72 14.3632 25.1129 13.3825 24.6889C14.1271 24.009 14.6488 23.12 14.8791 22.1383C15.1094 21.1567 15.0375 20.1284 14.6729 19.1884C14.3084 18.2483 13.6681 17.4405 12.8362 16.8708C12.0042 16.3012 11.0195 15.9963 10.0112 15.9963C9.00298 15.9963 8.01827 16.3012 7.18634 16.8708C6.35442 17.4405 5.71415 18.2483 5.34957 19.1884C4.98499 20.1284 4.91313 21.1567 5.14342 22.1383C5.37371 23.12 5.89539 24.009 6.64 24.6889C5.27581 25.276 4.08963 26.2109 3.2 27.4001C3.12121 27.5052 3.06388 27.6247 3.03129 27.7519C2.99869 27.8791 2.99148 28.0115 3.01005 28.1415C3.02862 28.2715 3.07262 28.3966 3.13953 28.5096C3.20643 28.6226 3.29494 28.7213 3.4 28.8001C3.50506 28.8789 3.62461 28.9362 3.75182 28.9688C3.87903 29.0014 4.01142 29.0086 4.14142 28.9901C4.27142 28.9715 4.39649 28.9275 4.50949 28.8606C4.62249 28.7937 4.72121 28.7052 4.8 28.6001C5.40546 27.7928 6.19055 27.1376 7.09311 26.6863C7.99567 26.235 8.99091 26.0001 10 26.0001C11.0091 26.0001 12.0043 26.235 12.9069 26.6863C13.8094 27.1376 14.5945 27.7928 15.2 28.6001C15.3593 28.8121 15.5963 28.9521 15.8588 28.9894C16.1214 29.0266 16.388 28.9581 16.6 28.7989C16.6756 28.7426 16.7425 28.6757 16.7987 28.6001C17.4042 27.7928 18.1893 27.1376 19.0919 26.6863C19.9944 26.235 20.9897 26.0001 21.9988 26.0001C23.0078 26.0001 24.0031 26.235 24.9056 26.6863C25.8082 27.1376 26.5933 27.7928 27.1987 28.6001C27.358 28.8123 27.5951 28.9525 27.8578 28.9899C28.1204 29.0273 28.3872 28.9588 28.5994 28.7995C28.8115 28.6402 28.9518 28.4031 28.9891 28.1405C29.0265 27.8778 28.958 27.611 28.7987 27.3989C27.9136 26.2122 26.7332 25.2779 25.375 24.6889ZM10 18.0001C10.5933 18.0001 11.1734 18.1761 11.6667 18.5057C12.1601 18.8353 12.5446 19.3039 12.7716 19.8521C12.9987 20.4002 13.0581 21.0034 12.9424 21.5854C12.8266 22.1673 12.5409 22.7019 12.1213 23.1214C11.7018 23.541 11.1672 23.8267 10.5853 23.9425C10.0033 24.0582 9.40013 23.9988 8.85195 23.7717C8.30377 23.5447 7.83524 23.1602 7.50559 22.6668C7.17595 22.1735 7 21.5934 7 21.0001C7 20.2045 7.31607 19.4414 7.87868 18.8788C8.44129 18.3162 9.20435 18.0001 10 18.0001ZM22 18.0001C22.5933 18.0001 23.1734 18.1761 23.6667 18.5057C24.1601 18.8353 24.5446 19.3039 24.7716 19.8521C24.9987 20.4002 25.0581 21.0034 24.9424 21.5854C24.8266 22.1673 24.5409 22.7019 24.1213 23.1214C23.7018 23.541 23.1672 23.8267 22.5853 23.9425C22.0033 24.0582 21.4001 23.9988 20.8519 23.7717C20.3038 23.5447 19.8352 23.1602 19.5056 22.6668C19.1759 22.1735 19 21.5934 19 21.0001C19 20.2045 19.3161 19.4414 19.8787 18.8788C20.4413 18.3162 21.2044 18.0001 22 18.0001Z" fill="#4A4A4F"/>
</svg>
