<svg width="32" height="32" viewBox="0 0 32 32" fill="none" xmlns="http://www.w3.org/2000/svg">
<path d="M28 6V9.5C28 9.76522 27.8946 10.0196 27.7071 10.2071C27.5196 10.3946 27.2652 10.5 27 10.5C26.7348 10.5 26.4804 10.3946 26.2929 10.2071C26.1054 10.0196 26 9.76522 26 9.5V6H22.5C22.2348 6 21.9804 5.89464 21.7929 5.70711C21.6054 5.51957 21.5 5.26522 21.5 5C21.5 4.73478 21.6054 4.48043 21.7929 4.29289C21.9804 4.10536 22.2348 4 22.5 4H26C26.5304 4 27.0391 4.21071 27.4142 4.58579C27.7893 4.96086 28 5.46957 28 6ZM27 21.5C26.7348 21.5 26.4804 21.6054 26.2929 21.7929C26.1054 21.9804 26 22.2348 26 22.5V26H22.5C22.2348 26 21.9804 26.1054 21.7929 26.2929C21.6054 26.4804 21.5 26.7348 21.5 27C21.5 27.2652 21.6054 27.5196 21.7929 27.7071C21.9804 27.8946 22.2348 28 22.5 28H26C26.5304 28 27.0391 27.7893 27.4142 27.4142C27.7893 27.0391 28 26.5304 28 26V22.5C28 22.2348 27.8946 21.9804 27.7071 21.7929C27.5196 21.6054 27.2652 21.5 27 21.5ZM9.5 26H6V22.5C6 22.2348 5.89464 21.9804 5.70711 21.7929C5.51957 21.6054 5.26522 21.5 5 21.5C4.73478 21.5 4.48043 21.6054 4.29289 21.7929C4.10536 21.9804 4 22.2348 4 22.5V26C4 26.5304 4.21071 27.0391 4.58579 27.4142C4.96086 27.7893 5.46957 28 6 28H9.5C9.76522 28 10.0196 27.8946 10.2071 27.7071C10.3946 27.5196 10.5 27.2652 10.5 27C10.5 26.7348 10.3946 26.4804 10.2071 26.2929C10.0196 26.1054 9.76522 26 9.5 26ZM5 10.5C5.26522 10.5 5.51957 10.3946 5.70711 10.2071C5.89464 10.0196 6 9.76522 6 9.5V6H9.5C9.76522 6 10.0196 5.89464 10.2071 5.70711C10.3946 5.51957 10.5 5.26522 10.5 5C10.5 4.73478 10.3946 4.48043 10.2071 4.29289C10.0196 4.10536 9.76522 4 9.5 4H6C5.46957 4 4.96086 4.21071 4.58579 4.58579C4.21071 4.96086 4 5.46957 4 6V9.5C4 9.76522 4.10536 10.0196 4.29289 10.2071C4.48043 10.3946 4.73478 10.5 5 10.5ZM12.625 17.6887C11.2666 18.2781 10.0859 19.2123 9.2 20.3988C9.08821 20.5473 9.02006 20.7241 9.00319 20.9093C8.98632 21.0944 9.0214 21.2806 9.10449 21.4469C9.18759 21.6133 9.31541 21.7531 9.4736 21.8508C9.63178 21.9485 9.81408 22.0002 10 22H22C22.1859 22.0002 22.3682 21.9485 22.5264 21.8508C22.6846 21.7531 22.8124 21.6133 22.8955 21.4469C22.9786 21.2806 23.0137 21.0944 22.9968 20.9093C22.9799 20.7241 22.9118 20.5473 22.8 20.3988C21.9141 19.2123 20.7334 18.2781 19.375 17.6887C20.1196 17.0089 20.6413 16.1199 20.8716 15.1382C21.1019 14.1566 21.03 13.1283 20.6654 12.1883C20.3009 11.2482 19.6606 10.4404 18.8287 9.87072C17.9967 9.30106 17.012 8.99623 16.0037 8.99623C14.9955 8.99623 14.0108 9.30106 13.1788 9.87072C12.3469 10.4404 11.7066 11.2482 11.3421 12.1883C10.9775 13.1283 10.9056 14.1566 11.1359 15.1382C11.3662 16.1199 11.8879 17.0089 12.6325 17.6887H12.625Z" fill="#4A4A4F"/>
</svg>
