<svg width="32" height="32" viewBox="0 0 32 32" fill="none" xmlns="http://www.w3.org/2000/svg">
<path d="M28 6V9.5C28 9.76522 27.8946 10.0196 27.7071 10.2071C27.5196 10.3946 27.2652 10.5 27 10.5C26.7348 10.5 26.4804 10.3946 26.2929 10.2071C26.1054 10.0196 26 9.76522 26 9.5V6H22.5C22.2348 6 21.9804 5.89464 21.7929 5.70711C21.6054 5.51957 21.5 5.26522 21.5 5C21.5 4.73478 21.6054 4.48043 21.7929 4.29289C21.9804 4.10536 22.2348 4 22.5 4H26C26.5304 4 27.0391 4.21071 27.4142 4.58579C27.7893 4.96086 28 5.46957 28 6ZM27 21.5C26.7348 21.5 26.4804 21.6054 26.2929 21.7929C26.1054 21.9804 26 22.2348 26 22.5V26H22.5C22.2348 26 21.9804 26.1054 21.7929 26.2929C21.6054 26.4804 21.5 26.7348 21.5 27C21.5 27.2652 21.6054 27.5196 21.7929 27.7071C21.9804 27.8946 22.2348 28 22.5 28H26C26.5304 28 27.0391 27.7893 27.4142 27.4142C27.7893 27.0391 28 26.5304 28 26V22.5C28 22.2348 27.8946 21.9804 27.7071 21.7929C27.5196 21.6054 27.2652 21.5 27 21.5ZM9.5 26H6V22.5C6 22.2348 5.89464 21.9804 5.70711 21.7929C5.51957 21.6054 5.26522 21.5 5 21.5C4.73478 21.5 4.48043 21.6054 4.29289 21.7929C4.10536 21.9804 4 22.2348 4 22.5V26C4 26.5304 4.21071 27.0391 4.58579 27.4142C4.96086 27.7893 5.46957 28 6 28H9.5C9.76522 28 10.0196 27.8946 10.2071 27.7071C10.3946 27.5196 10.5 27.2652 10.5 27C10.5 26.7348 10.3946 26.4804 10.2071 26.2929C10.0196 26.1054 9.76522 26 9.5 26ZM5 10.5C5.26522 10.5 5.51957 10.3946 5.70711 10.2071C5.89464 10.0196 6 9.76522 6 9.5V6H9.5C9.76522 6 10.0196 5.89464 10.2071 5.70711C10.3946 5.51957 10.5 5.26522 10.5 5C10.5 4.73478 10.3946 4.48043 10.2071 4.29289C10.0196 4.10536 9.76522 4 9.5 4H6C5.46957 4 4.96086 4.21071 4.58579 4.58579C4.21071 4.96086 4 5.46957 4 6V9.5C4 9.76522 4.10536 10.0196 4.29289 10.2071C4.48043 10.3946 4.73478 10.5 5 10.5ZM22 22C21.8447 22.0003 21.6914 21.9645 21.5523 21.8953C21.4132 21.8261 21.2922 21.7254 21.1987 21.6012C20.5933 20.794 19.8082 20.1388 18.9056 19.6875C18.0031 19.2362 17.0078 19.0012 15.9987 19.0012C14.9897 19.0012 13.9944 19.2362 13.0919 19.6875C12.1893 20.1388 11.4042 20.794 10.7987 21.6012C10.6393 21.8134 10.4021 21.9536 10.1393 21.9908C9.8765 22.0281 9.60967 21.9595 9.3975 21.8C9.18533 21.6405 9.04519 21.4033 9.00792 21.1405C8.97064 20.8778 9.03929 20.6109 9.19875 20.3988C10.085 19.2121 11.2661 18.2779 12.625 17.6887C11.8804 17.0089 11.3587 16.1199 11.1284 15.1382C10.8981 14.1566 10.97 13.1283 11.3346 12.1883C11.6991 11.2482 12.3394 10.4404 13.1713 9.87072C14.0033 9.30106 14.988 8.99623 15.9963 8.99623C17.0045 8.99623 17.9892 9.30106 18.8212 9.87072C19.6531 10.4404 20.2934 11.2482 20.6579 12.1883C21.0225 13.1283 21.0944 14.1566 20.8641 15.1382C20.6338 16.1199 20.1121 17.0089 19.3675 17.6887C20.7273 18.2775 21.9093 19.2118 22.7962 20.3988C22.9078 20.5471 22.976 20.7235 22.993 20.9083C23.01 21.0932 22.9752 21.2791 22.8926 21.4453C22.81 21.6115 22.6827 21.7514 22.525 21.8493C22.3674 21.9473 22.1856 21.9995 22 22ZM16 17C16.5933 17 17.1734 16.8241 17.6667 16.4944C18.1601 16.1648 18.5446 15.6962 18.7716 15.1481C18.9987 14.5999 19.0581 13.9967 18.9424 13.4147C18.8266 12.8328 18.5409 12.2982 18.1213 11.8787C17.7018 11.4591 17.1672 11.1734 16.5853 11.0576C16.0033 10.9419 15.4001 11.0013 14.8519 11.2284C14.3038 11.4554 13.8352 11.8399 13.5056 12.3333C13.1759 12.8266 13 13.4067 13 14C13 14.7956 13.3161 15.5587 13.8787 16.1213C14.4413 16.6839 15.2044 17 16 17Z" fill="#4A4A4F"/>
</svg>
