<svg width="32" height="32" viewBox="0 0 32 32" fill="none" xmlns="http://www.w3.org/2000/svg">
<path d="M18 10C18 9.73481 18.1054 9.48046 18.2929 9.29292C18.4804 9.10539 18.7348 9.00003 19 9.00003H31C31.2652 9.00003 31.5196 9.10539 31.7071 9.29292C31.8947 9.48046 32 9.73481 32 10C32 10.2652 31.8947 10.5196 31.7071 10.7071C31.5196 10.8947 31.2652 11 31 11H19C18.7348 11 18.4804 10.8947 18.2929 10.7071C18.1054 10.5196 18 10.2652 18 10ZM31 15H19C18.7348 15 18.4804 15.1054 18.2929 15.2929C18.1054 15.4805 18 15.7348 18 16C18 16.2652 18.1054 16.5196 18.2929 16.7071C18.4804 16.8947 18.7348 17 19 17H31C31.2652 17 31.5196 16.8947 31.7071 16.7071C31.8947 16.5196 32 16.2652 32 16C32 15.7348 31.8947 15.4805 31.7071 15.2929C31.5196 15.1054 31.2652 15 31 15ZM31 21H22C21.7348 21 21.4804 21.1054 21.2929 21.2929C21.1054 21.4805 21 21.7348 21 22C21 22.2652 21.1054 22.5196 21.2929 22.7071C21.4804 22.8947 21.7348 23 22 23H31C31.2652 23 31.5196 22.8947 31.7071 22.7071C31.8947 22.5196 32 22.2652 32 22C32 21.7348 31.8947 21.4805 31.7071 21.2929C31.5196 21.1054 31.2652 21 31 21ZM13.6613 17.75C14.6537 16.9856 15.382 15.9297 15.744 14.7304C16.106 13.5311 16.0836 12.2486 15.6798 11.0628C15.2761 9.87689 14.5113 8.84713 13.4927 8.11791C12.474 7.38869 11.2527 6.99658 10 6.99658C8.74729 6.99658 7.52598 7.38869 6.50738 8.11791C5.48877 8.84713 4.72396 9.87689 4.3202 11.0628C3.91644 12.2486 3.89399 13.5311 4.256 14.7304C4.618 15.9297 5.3463 16.9856 6.33877 17.75C3.76127 18.8413 1.73002 21.0375 1.03127 23.75C0.993101 23.8978 0.989284 24.0524 1.02011 24.2019C1.05093 24.3515 1.11558 24.4919 1.2091 24.6126C1.30261 24.7333 1.42251 24.8309 1.55961 24.8981C1.6967 24.9652 1.84736 25.0001 2.00002 25H18C18.1527 25.0001 18.3033 24.9652 18.4404 24.8981C18.5775 24.8309 18.6974 24.7333 18.7909 24.6126C18.8844 24.4919 18.9491 24.3515 18.9799 24.2019C19.0107 24.0524 19.0069 23.8978 18.9688 23.75C18.27 21.0363 16.2388 18.84 13.6613 17.75Z" fill="#4A4A4F"/>
</svg>
