<svg width="32" height="32" viewBox="0 0 32 32" fill="none" xmlns="http://www.w3.org/2000/svg">
<path d="M20.5587 24.4539C20.6571 24.6047 20.7129 24.7794 20.7202 24.9594C20.7276 25.1394 20.6862 25.318 20.6004 25.4764C20.5146 25.6348 20.3876 25.767 20.2328 25.8592C20.0781 25.9514 19.9013 26.0001 19.7212 26.0001H1.27869C1.09856 26.0001 0.921776 25.9514 0.767024 25.8592C0.612272 25.767 0.485293 25.6348 0.399504 25.4764C0.313715 25.318 0.272302 25.1394 0.279639 24.9594C0.286975 24.7794 0.34279 24.6047 0.441187 24.4539C1.84882 22.2872 3.9193 20.6337 6.34369 19.7401C5.00343 18.8479 3.9859 17.548 3.44156 16.0327C2.89722 14.5174 2.85496 12.8671 3.32105 11.326C3.78714 9.78483 4.73681 8.43458 6.02965 7.4749C7.32249 6.51522 8.88984 5.99707 10.4999 5.99707C12.11 5.99707 13.6774 6.51522 14.9702 7.4749C16.2631 8.43458 17.2127 9.78483 17.6788 11.326C18.1449 12.8671 18.1027 14.5174 17.5583 16.0327C17.014 17.548 15.9964 18.8479 14.6562 19.7401C17.0806 20.6337 19.1511 22.2872 20.5587 24.4539ZM31.5474 24.4351C30.1394 22.2775 28.0736 20.6311 25.6562 19.7401C27.2384 18.6743 28.355 17.0456 28.7788 15.1855C29.2025 13.3255 28.9015 11.3738 27.937 9.7279C26.9725 8.08195 25.417 6.86541 23.5871 6.3259C21.7573 5.78639 19.7906 5.96446 18.0874 6.82386C18.0223 6.85749 17.9654 6.90502 17.9207 6.9631C17.8759 7.02118 17.8445 7.08837 17.8287 7.15993C17.8128 7.23149 17.8129 7.30566 17.8289 7.37719C17.8449 7.44872 17.8764 7.51587 17.9212 7.57386C19.1876 9.15363 19.915 11.0974 19.9966 13.1205C20.0783 15.1436 19.51 17.1397 18.3749 18.8164C18.3016 18.9259 18.2745 19.0601 18.2995 19.1895C18.3246 19.319 18.3997 19.4333 18.5087 19.5076C19.9886 20.5405 21.2554 21.8489 22.2399 23.3614C22.637 23.9694 22.7992 24.7012 22.6962 25.4201C22.6846 25.4916 22.6887 25.5648 22.7082 25.6346C22.7276 25.7044 22.7621 25.7691 22.809 25.8242C22.856 25.8794 22.9144 25.9237 22.9801 25.9541C23.0459 25.9844 23.1175 26.0001 23.1899 26.0001H30.7274C30.9476 26.0002 31.1617 25.9276 31.3364 25.7935C31.5111 25.6595 31.6367 25.4716 31.6937 25.2589C31.7285 25.119 31.7334 24.9733 31.7082 24.8314C31.683 24.6895 31.6282 24.5545 31.5474 24.4351Z" fill="#4A4A4F"/>
</svg>
