<svg width="32" height="32" viewBox="0 0 32 32" fill="none" xmlns="http://www.w3.org/2000/svg">
<path d="M10.4999 15C10.4999 13.9122 10.8225 12.8488 11.4268 11.9443C12.0312 11.0398 12.8901 10.3349 13.8951 9.91862C14.9001 9.50233 16.006 9.39341 17.0729 9.60563C18.1398 9.81785 19.1198 10.3417 19.889 11.1109C20.6582 11.8801 21.182 12.8601 21.3942 13.927C21.6064 14.9939 21.4975 16.0997 21.0812 17.1047C20.665 18.1097 19.96 18.9687 19.0555 19.573C18.1511 20.1774 17.0877 20.5 15.9999 20.5C14.5412 20.5 13.1423 19.9205 12.1108 18.889C11.0794 17.8576 10.4999 16.4586 10.4999 15ZM26.2699 22.1475C26.0471 22.0181 25.7838 21.9773 25.5324 22.0331C25.2809 22.0889 25.0596 22.2373 24.9124 22.4487C24.6969 22.7455 24.4666 23.0313 24.2224 23.305C23.4949 22.249 22.5705 21.3433 21.4999 20.6375C21.4086 20.5769 21.2999 20.5481 21.1906 20.5553C21.0813 20.5625 20.9774 20.6054 20.8949 20.6775C19.5364 21.8529 17.8001 22.4999 16.0037 22.4999C14.2072 22.4999 12.4709 21.8529 11.1124 20.6775C11.0293 20.6036 10.9239 20.5596 10.813 20.5524C10.7021 20.5452 10.5919 20.5751 10.4999 20.6375C9.4291 21.3419 8.50428 22.2464 7.77615 23.3012C6.21448 21.5476 5.25746 19.3386 5.04615 17H6.97115C7.13301 17.0025 7.29318 16.9667 7.43853 16.8954C7.58389 16.8242 7.71029 16.7195 7.8074 16.59C7.9483 16.3973 8.01567 16.1607 7.99733 15.9227C7.97899 15.6848 7.87616 15.4612 7.7074 15.2925L4.7074 12.2925C4.61453 12.1995 4.50424 12.1257 4.38284 12.0754C4.26144 12.0251 4.13132 11.9992 3.9999 11.9992C3.86849 11.9992 3.73836 12.0251 3.61696 12.0754C3.49556 12.1257 3.38527 12.1995 3.2924 12.2925L0.292401 15.2925C0.123646 15.4612 0.0208092 15.6848 0.00246995 15.9227C-0.0158693 16.1607 0.0514978 16.3973 0.192401 16.59C0.289511 16.7195 0.415917 16.8242 0.56127 16.8954C0.706623 16.9667 0.866788 17.0025 1.02865 17H3.0374C3.24192 19.6586 4.25905 22.19 5.95087 24.251C7.64269 26.3121 9.92737 27.803 12.4952 28.5217C15.063 29.2404 17.7897 29.1521 20.3056 28.2688C22.8215 27.3855 25.005 25.7499 26.5599 23.5837C26.6401 23.472 26.6965 23.345 26.7254 23.2106C26.7543 23.0761 26.7552 22.9372 26.7279 22.8024C26.7007 22.6676 26.646 22.5399 26.5672 22.4272C26.4884 22.3145 26.3872 22.2193 26.2699 22.1475ZM31.9237 15.6175C31.848 15.4347 31.7199 15.2785 31.5554 15.1686C31.391 15.0587 31.1977 15 30.9999 15H28.9624C28.7579 12.3413 27.7408 9.8099 26.0489 7.74886C24.3571 5.68783 22.0724 4.19689 19.5046 3.47819C16.9368 2.75948 14.2101 2.84777 11.6942 3.7311C9.17829 4.61442 6.99484 6.25004 5.4399 8.4162C5.28508 8.63169 5.2222 8.89986 5.2651 9.1617C5.308 9.42355 5.45316 9.65763 5.66865 9.81245C5.88414 9.96727 6.1523 10.0301 6.41415 9.98725C6.676 9.94435 6.91008 9.79919 7.0649 9.5837C8.37312 7.76225 10.2068 6.38417 12.3202 5.63413C14.4337 4.88408 16.7258 4.79791 18.8896 5.38717C21.0534 5.97642 22.9853 7.21294 24.4266 8.93103C25.8679 10.6491 26.7496 12.7667 26.9537 15H24.9999C24.802 14.9998 24.6085 15.0584 24.4439 15.1682C24.2793 15.2781 24.151 15.4343 24.0753 15.6172C23.9995 15.8 23.9797 16.0012 24.0184 16.1953C24.057 16.3893 24.1524 16.5676 24.2924 16.7075L27.2924 19.7075C27.3853 19.8004 27.4956 19.8742 27.617 19.9245C27.7384 19.9748 27.8685 20.0007 27.9999 20.0007C28.1313 20.0007 28.2614 19.9748 28.3828 19.9245C28.5042 19.8742 28.6145 19.8004 28.7074 19.7075L31.7074 16.7075C31.8472 16.5675 31.9424 16.3893 31.9809 16.1953C32.0194 16.0012 31.9994 15.8002 31.9237 15.6175Z" fill="#4A4A4F"/>
</svg>
