<svg width="32" height="32" viewBox="0 0 32 32" fill="none" xmlns="http://www.w3.org/2000/svg">
<path d="M28.5313 7.88375L27.9488 7.5475C28.0171 7.1857 28.0171 6.8143 27.9488 6.4525L28.5313 6.11625C28.761 5.98364 28.9287 5.7652 28.9974 5.50898C29.0661 5.25276 29.0301 4.97974 28.8975 4.75C28.7649 4.52026 28.5465 4.3526 28.2903 4.28392C28.034 4.21523 27.761 4.25114 27.5313 4.38375L26.9475 4.72125C26.6682 4.48157 26.347 4.29554 26 4.1725V3.5C26 3.23478 25.8947 2.98043 25.7071 2.79289C25.5196 2.60536 25.2652 2.5 25 2.5C24.7348 2.5 24.4805 2.60536 24.2929 2.79289C24.1054 2.98043 24 3.23478 24 3.5V4.1725C23.6531 4.29554 23.3319 4.48157 23.0525 4.72125L22.4688 4.38375C22.355 4.31809 22.2294 4.27548 22.0992 4.25835C21.969 4.24122 21.8367 4.24991 21.7098 4.28392C21.5829 4.31792 21.464 4.37659 21.3598 4.45656C21.2556 4.53653 21.1682 4.63624 21.1025 4.75C21.0369 4.86376 20.9943 4.98933 20.9771 5.11956C20.96 5.24979 20.9687 5.38211 21.0027 5.50898C21.0367 5.63585 21.0954 5.75477 21.1753 5.85897C21.2553 5.96316 21.355 6.05059 21.4688 6.11625L22.0513 6.4525C21.9829 6.8143 21.9829 7.1857 22.0513 7.5475L21.4688 7.88375C21.278 7.99377 21.1289 8.16367 21.0446 8.36709C20.9603 8.57052 20.9455 8.79609 21.0025 9.00879C21.0594 9.22149 21.185 9.40944 21.3598 9.54346C21.5345 9.67748 21.7486 9.75009 21.9688 9.75C22.1444 9.75054 22.3169 9.70438 22.4688 9.61625L23.0525 9.27875C23.3319 9.51843 23.6531 9.70446 24 9.8275V10.5C24 10.7652 24.1054 11.0196 24.2929 11.2071C24.4805 11.3946 24.7348 11.5 25 11.5C25.2652 11.5 25.5196 11.3946 25.7071 11.2071C25.8947 11.0196 26 10.7652 26 10.5V9.8275C26.347 9.70446 26.6682 9.51843 26.9475 9.27875L27.5313 9.61625C27.6831 9.70438 27.8557 9.75054 28.0313 9.75C28.2515 9.75009 28.4656 9.67748 28.6403 9.54346C28.815 9.40944 28.9406 9.22149 28.9976 9.00879C29.0546 8.79609 29.0398 8.57052 28.9555 8.36709C28.8711 8.16367 28.722 7.99377 28.5313 7.88375ZM25 8C24.8023 8 24.6089 7.94135 24.4445 7.83147C24.28 7.72159 24.1518 7.56541 24.0762 7.38268C24.0005 7.19996 23.9807 6.99889 24.0192 6.80491C24.0578 6.61093 24.1531 6.43275 24.2929 6.29289C24.4328 6.15304 24.611 6.0578 24.8049 6.01921C24.9989 5.98063 25.2 6.00043 25.3827 6.07612C25.5654 6.15181 25.7216 6.27998 25.8315 6.44443C25.9414 6.60888 26 6.80222 26 7C26 7.26522 25.8947 7.51957 25.7071 7.70711C25.5196 7.89464 25.2652 8 25 8ZM16 9.5C17.0878 9.5 18.1512 9.82257 19.0557 10.4269C19.9601 11.0313 20.6651 11.8902 21.0814 12.8952C21.4977 13.9002 21.6066 15.0061 21.3944 16.073C21.1821 17.1399 20.6583 18.1199 19.8891 18.8891C19.1199 19.6583 18.1399 20.1821 17.073 20.3943C16.0061 20.6065 14.9003 20.4976 13.8953 20.0813C12.8903 19.6651 12.0313 18.9601 11.427 18.0556C10.8226 17.1512 10.5 16.0878 10.5 15C10.5 13.5413 11.0795 12.1424 12.1109 11.1109C13.1424 10.0795 14.5413 9.5 16 9.5ZM28.82 13.835C29.2769 16.5507 28.8589 19.3413 27.6263 21.804C26.3938 24.2666 24.4105 26.2738 21.9628 27.5358C19.5151 28.7977 16.7297 29.2492 14.0087 28.8249C11.2877 28.4006 8.77199 27.1226 6.82472 25.1753C4.87744 23.228 3.59941 20.7123 3.17513 17.9913C2.75085 15.2703 3.20229 12.4849 4.46426 10.0372C5.72624 7.58956 7.73344 5.60627 10.1961 4.37372C12.6587 3.14117 15.4493 2.72314 18.165 3.18C18.4246 3.22591 18.6556 3.37245 18.8077 3.58776C18.9598 3.80307 19.0207 4.06973 18.9772 4.32973C18.9337 4.58972 18.7893 4.82203 18.5754 4.97611C18.3615 5.13019 18.0954 5.19359 17.835 5.1525C16.2577 4.88716 14.6415 4.96872 13.0989 5.39151C11.5563 5.8143 10.1243 6.56816 8.90268 7.60062C7.68104 8.63309 6.69906 9.91937 6.02508 11.3699C5.3511 12.8205 5.0013 14.4005 5.00003 16C4.99766 18.6927 5.98734 21.292 7.78003 23.3013C8.50706 22.2468 9.43058 21.3423 10.5 20.6375C10.5912 20.5773 10.6996 20.5486 10.8086 20.5558C10.9177 20.563 11.0213 20.6058 11.1038 20.6775C12.4624 21.8531 14.199 22.5001 15.9957 22.5001C17.7923 22.5001 19.5289 21.8531 20.8875 20.6775C20.9701 20.6055 21.074 20.5626 21.1833 20.5553C21.2926 20.5481 21.4012 20.577 21.4925 20.6375C22.563 21.3423 23.4878 22.2467 24.2163 23.3013C26.0103 21.2925 27.0014 18.6932 27 16C27.0001 15.3852 26.9491 14.7714 26.8475 14.165C26.8245 14.0349 26.8275 13.9016 26.8564 13.7726C26.8852 13.6437 26.9393 13.5218 27.0155 13.4139C27.0917 13.306 27.1885 13.2143 27.3004 13.144C27.4123 13.0738 27.537 13.0264 27.6672 13.0046C27.7975 12.9828 27.9309 12.987 28.0595 13.017C28.1881 13.047 28.3096 13.1023 28.4168 13.1795C28.5239 13.2567 28.6148 13.3544 28.684 13.4669C28.7532 13.5794 28.7994 13.7045 28.82 13.835Z" fill="#4A4A4F"/>
</svg>
