<svg width="32" height="32" viewBox="0 0 32 32" fill="none" xmlns="http://www.w3.org/2000/svg">
<path d="M17.9999 19.7101C19.5675 18.7337 20.7745 17.2734 21.4382 15.55C22.1019 13.8265 22.1863 11.9338 21.6786 10.1582C21.1708 8.38254 20.0986 6.82057 18.624 5.70859C17.1495 4.59661 15.3529 3.99512 13.5061 3.99512C11.6593 3.99512 9.86274 4.59661 8.38822 5.70859C6.91369 6.82057 5.84144 8.38254 5.33369 10.1582C4.82594 11.9338 4.91031 13.8265 5.57405 15.55C6.23778 17.2734 7.44476 18.7337 9.01238 19.7101C6.43113 20.5551 4.10863 22.1339 2.24113 24.3564C2.15363 24.4564 2.08695 24.5729 2.045 24.6991C2.00305 24.8252 1.98667 24.9584 1.99681 25.0909C2.00695 25.2235 2.04341 25.3527 2.10406 25.4709C2.16471 25.5892 2.24833 25.6942 2.35003 25.7798C2.45173 25.8654 2.56948 25.9298 2.69638 25.9694C2.82328 26.0089 2.95679 26.0228 3.08911 26.0101C3.22143 25.9975 3.34989 25.9585 3.467 25.8957C3.5841 25.8328 3.68749 25.7472 3.77113 25.6439C6.28113 22.6489 9.73863 21.0001 13.4999 21.0001C17.2611 21.0001 20.7186 22.6489 23.2336 25.6439C23.4044 25.8471 23.6488 25.9742 23.9133 25.9971C24.1777 26.0201 24.4404 25.9371 24.6436 25.7664C24.8469 25.5956 24.9739 25.3512 24.9969 25.0867C25.0199 24.8223 24.9369 24.5596 24.7661 24.3564C22.8974 22.1339 20.5749 20.5551 17.9999 19.7101ZM6.99988 12.5001C6.99988 11.2145 7.3811 9.95783 8.09533 8.88891C8.80956 7.81999 9.82472 6.98687 11.0124 6.4949C12.2002 6.00293 13.5071 5.87421 14.768 6.12501C16.0288 6.37582 17.187 6.99488 18.0961 7.90392C19.0051 8.81296 19.6242 9.97115 19.875 11.232C20.1258 12.4929 19.9971 13.7998 19.5051 14.9876C19.0131 16.1753 18.18 17.1904 17.1111 17.9047C16.0422 18.6189 14.7855 19.0001 13.4999 19.0001C11.7766 18.9981 10.1244 18.3127 8.90588 17.0941C7.68732 15.8756 7.00186 14.2234 6.99988 12.5001ZM30.5311 17.8839L29.9486 17.5476C30.017 17.1858 30.017 16.8144 29.9486 16.4526L30.5311 16.1164C30.7609 15.9838 30.9285 15.7653 30.9972 15.5091C31.0659 15.2529 31.03 14.9799 30.8974 14.7501C30.7648 14.5204 30.5463 14.3527 30.2901 14.284C30.0339 14.2153 29.7609 14.2513 29.5311 14.3839L28.9474 14.7214C28.668 14.4817 28.3468 14.2957 27.9999 14.1726V13.5001C27.9999 13.2349 27.8945 12.9805 27.707 12.793C27.5195 12.6055 27.2651 12.5001 26.9999 12.5001C26.7347 12.5001 26.4803 12.6055 26.2928 12.793C26.1052 12.9805 25.9999 13.2349 25.9999 13.5001V14.1726C25.653 14.2957 25.3317 14.4817 25.0524 14.7214L24.4686 14.3839C24.3549 14.3182 24.2293 14.2756 24.0991 14.2585C23.9688 14.2413 23.8365 14.25 23.7097 14.284C23.5828 14.318 23.4639 14.3767 23.3597 14.4567C23.2555 14.5366 23.168 14.6364 23.1024 14.7501C23.0367 14.8639 22.9941 14.9895 22.977 15.1197C22.9598 15.2499 22.9685 15.3822 23.0025 15.5091C23.0366 15.636 23.0952 15.7549 23.1752 15.8591C23.2552 15.9633 23.3549 16.0507 23.4686 16.1164L24.0511 16.4526C23.9828 16.8144 23.9828 17.1858 24.0511 17.5476L23.4686 17.8839C23.2389 18.0165 23.0712 18.2349 23.0025 18.4911C22.9339 18.7474 22.9698 19.0204 23.1024 19.2501C23.235 19.4799 23.4534 19.6475 23.7097 19.7162C23.9659 19.7849 24.2389 19.749 24.4686 19.6164L25.0524 19.2789C25.3317 19.5185 25.653 19.7046 25.9999 19.8276V20.5001C25.9999 20.7653 26.1052 21.0197 26.2928 21.2072C26.4803 21.3948 26.7347 21.5001 26.9999 21.5001C27.2651 21.5001 27.5195 21.3948 27.707 21.2072C27.8945 21.0197 27.9999 20.7653 27.9999 20.5001V19.8276C28.3468 19.7046 28.668 19.5185 28.9474 19.2789L29.5311 19.6164C29.683 19.7045 29.8556 19.7507 30.0311 19.7501C30.2513 19.7502 30.4654 19.6776 30.6401 19.5436C30.8149 19.4096 30.9405 19.2216 30.9975 19.0089C31.0544 18.7962 31.0396 18.5706 30.9553 18.3672C30.871 18.1638 30.7219 17.9939 30.5311 17.8839ZM25.9999 17.0001C25.9999 16.8023 26.0585 16.609 26.1684 16.4445C26.2783 16.2801 26.4345 16.1519 26.6172 16.0762C26.7999 16.0005 27.001 15.9807 27.195 16.0193C27.389 16.0579 27.5671 16.1532 27.707 16.293C27.8468 16.4329 27.9421 16.611 27.9807 16.805C28.0193 16.999 27.9994 17.2001 27.9238 17.3828C27.8481 17.5655 27.7199 17.7217 27.5555 17.8316C27.391 17.9415 27.1977 18.0001 26.9999 18.0001C26.7347 18.0001 26.4803 17.8948 26.2928 17.7072C26.1052 17.5197 25.9999 17.2653 25.9999 17.0001Z" fill="#4A4A4F"/>
</svg>
