<svg width="32" height="32" viewBox="0 0 32 32" fill="none" xmlns="http://www.w3.org/2000/svg">
<path d="M31.9999 17.0001C31.9999 17.2653 31.8945 17.5197 31.707 17.7072C31.5195 17.8948 31.2651 18.0001 30.9999 18.0001H28.9999V20.0001C28.9999 20.2653 28.8945 20.5197 28.707 20.7072C28.5195 20.8948 28.2651 21.0001 27.9999 21.0001C27.7347 21.0001 27.4803 20.8948 27.2928 20.7072C27.1052 20.5197 26.9999 20.2653 26.9999 20.0001V18.0001H24.9999C24.7347 18.0001 24.4803 17.8948 24.2928 17.7072C24.1052 17.5197 23.9999 17.2653 23.9999 17.0001C23.9999 16.7349 24.1052 16.4805 24.2928 16.293C24.4803 16.1055 24.7347 16.0001 24.9999 16.0001H26.9999V14.0001C26.9999 13.7349 27.1052 13.4805 27.2928 13.293C27.4803 13.1055 27.7347 13.0001 27.9999 13.0001C28.2651 13.0001 28.5195 13.1055 28.707 13.293C28.8945 13.4805 28.9999 13.7349 28.9999 14.0001V16.0001H30.9999C31.2651 16.0001 31.5195 16.1055 31.707 16.293C31.8945 16.4805 31.9999 16.7349 31.9999 17.0001ZM17.9999 19.7101C19.5675 18.7337 20.7745 17.2734 21.4382 15.55C22.1019 13.8265 22.1863 11.9338 21.6786 10.1582C21.1708 8.38254 20.0986 6.82057 18.624 5.70859C17.1495 4.59661 15.3529 3.99512 13.5061 3.99512C11.6593 3.99512 9.86274 4.59661 8.38822 5.70859C6.91369 6.82057 5.84144 8.38254 5.33369 10.1582C4.82594 11.9338 4.91031 13.8265 5.57405 15.55C6.23778 17.2734 7.44476 18.7337 9.01238 19.7101C6.43113 20.5551 4.10863 22.1339 2.24113 24.3564C2.11887 24.5017 2.04052 24.6788 2.01524 24.8671C1.98997 25.0553 2.01882 25.2468 2.09841 25.4192C2.178 25.5917 2.30505 25.7379 2.46469 25.8407C2.62434 25.9436 2.80997 25.9989 2.99988 26.0001H23.9999C24.1904 26.0003 24.3771 25.9461 24.5378 25.8437C24.6986 25.7414 24.8267 25.5953 24.9073 25.4226C24.9878 25.2499 25.0173 25.0578 24.9922 24.8689C24.9672 24.68 24.8888 24.5022 24.7661 24.3564C22.8974 22.1339 20.5749 20.5551 17.9999 19.7101Z" fill="#4A4A4F"/>
</svg>
