<svg width="32" height="32" viewBox="0 0 32 32" fill="none" xmlns="http://www.w3.org/2000/svg">
<path d="M8.01501 18.4752C8.0184 18.5429 8.00798 18.6106 7.98438 18.6742C7.96077 18.7378 7.92448 18.7959 7.87771 18.845C7.83094 18.8941 7.77466 18.9332 7.71231 18.9599C7.64996 18.9866 7.58283 19.0003 7.51501 19.0002H2.00001C1.77431 19.0005 1.55512 18.9245 1.37811 18.7845C1.20109 18.6445 1.07664 18.4487 1.02501 18.2289C0.992865 18.0786 0.994347 17.9229 1.02935 17.7732C1.06436 17.6234 1.13203 17.4832 1.22751 17.3627C2.10977 16.1927 3.28038 15.2714 4.62501 14.6889C4.03467 14.1507 3.5819 13.4788 3.30461 12.7296C3.02732 11.9804 2.9336 11.1756 3.03128 10.3828C3.12897 9.58987 3.41522 8.83193 3.86606 8.17242C4.31691 7.51291 4.91922 6.97103 5.62255 6.59217C6.32588 6.2133 7.10976 6.00849 7.90852 5.99487C8.70729 5.98125 9.49769 6.15923 10.2135 6.51389C10.9294 6.86856 11.5498 7.38959 12.0229 8.03335C12.4959 8.6771 12.8079 9.42484 12.9325 10.2139C12.9486 10.3201 12.9296 10.4285 12.8784 10.5228C12.8272 10.6172 12.7465 10.6922 12.6488 10.7364C11.2618 11.3777 10.0871 12.4022 9.2634 13.6893C8.4397 14.9763 8.00133 16.4721 8.00001 18.0002C8.00001 18.1602 8.00001 18.3177 8.01501 18.4752ZM30.765 17.3614C29.8848 16.1928 28.7169 15.272 27.375 14.6889C27.9654 14.1507 28.4181 13.4788 28.6954 12.7296C28.9727 11.9804 29.0664 11.1756 28.9687 10.3828C28.8711 9.58987 28.5848 8.83193 28.134 8.17242C27.6831 7.51291 27.0808 6.97103 26.3775 6.59217C25.6741 6.2133 24.8903 6.00849 24.0915 5.99487C23.2927 5.98125 22.5023 6.15923 21.7865 6.51389C21.0707 6.86856 20.4502 7.38959 19.9772 8.03335C19.5041 8.6771 19.1922 9.42484 19.0675 10.2139C19.0514 10.3201 19.0704 10.4285 19.1216 10.5228C19.1729 10.6172 19.2535 10.6922 19.3513 10.7364C20.7383 11.3777 21.9129 12.4022 22.7366 13.6893C23.5603 14.9763 23.9987 16.4721 24 18.0002C24 18.1602 24 18.3177 23.985 18.4752C23.9816 18.5429 23.992 18.6106 24.0157 18.6742C24.0393 18.7378 24.0755 18.7959 24.1223 18.845C24.1691 18.8941 24.2254 18.9332 24.2877 18.9599C24.3501 18.9866 24.4172 19.0003 24.485 19.0002H30C30.2257 19.0005 30.4449 18.9245 30.6219 18.7845C30.7989 18.6445 30.9234 18.4487 30.975 18.2289C31.0074 18.0783 31.0059 17.9223 30.9706 17.7723C30.9354 17.6223 30.8673 17.482 30.7713 17.3614H30.765ZM19.64 22.7589C20.6357 21.9964 21.3674 20.941 21.7323 19.7411C22.0972 18.5413 22.0769 17.2572 21.6744 16.0694C21.2718 14.8817 20.5071 13.8499 19.4879 13.1191C18.4686 12.3884 17.246 11.9954 15.9919 11.9954C14.7377 11.9954 13.5151 12.3884 12.4959 13.1191C11.4766 13.8499 10.712 14.8817 10.3094 16.0694C9.90683 17.2572 9.88657 18.5413 10.2515 19.7411C10.6164 20.941 11.3481 21.9964 12.3438 22.7589C10.5769 23.5245 9.1016 24.8356 8.13376 26.5002C8.04599 26.6522 7.99978 26.8247 7.99979 27.0002C7.9998 27.1758 8.04603 27.3483 8.13382 27.5003C8.22161 27.6523 8.34788 27.7785 8.49993 27.8663C8.65199 27.9541 8.82446 28.0002 9.00001 28.0002H23C23.1756 28.0002 23.348 27.9541 23.5001 27.8663C23.6521 27.7785 23.7784 27.6523 23.8662 27.5003C23.954 27.3483 24.0002 27.1758 24.0002 27.0002C24.0002 26.8247 23.954 26.6522 23.8663 26.5002C22.8964 24.8345 21.4183 23.5233 19.6488 22.7589H19.64Z" fill="#4A4A4F"/>
</svg>
