<svg width="32" height="32" viewBox="0 0 32 32" fill="none" xmlns="http://www.w3.org/2000/svg">
<path d="M26 4H6C5.46957 4 4.96086 4.21071 4.58579 4.58579C4.21071 4.96086 4 5.46957 4 6V26C4 26.5304 4.21071 27.0391 4.58579 27.4142C4.96086 27.7893 5.46957 28 6 28H26C26.5304 28 27.0391 27.7893 27.4142 27.4142C27.7893 27.0391 28 26.5304 28 26V6C28 5.46957 27.7893 4.96086 27.4142 4.58579C27.0391 4.21071 26.5304 4 26 4ZM12 15C12 14.2089 12.2346 13.4355 12.6741 12.7777C13.1136 12.1199 13.7384 11.6072 14.4693 11.3045C15.2002 11.0017 16.0044 10.9225 16.7804 11.0769C17.5563 11.2312 18.269 11.6122 18.8284 12.1716C19.3878 12.731 19.7688 13.4437 19.9231 14.2196C20.0775 14.9956 19.9983 15.7998 19.6955 16.5307C19.3928 17.2616 18.8801 17.8864 18.2223 18.3259C17.5645 18.7654 16.7911 19 16 19C14.9391 19 13.9217 18.5786 13.1716 17.8284C12.4214 17.0783 12 16.0609 12 15ZM8.58375 26C9.09548 24.7402 9.91818 23.6306 10.975 22.775C12.3979 21.6264 14.1714 20.9999 16 20.9999C17.8286 20.9999 19.6021 21.6264 21.025 22.775C22.0818 23.6306 22.9045 24.7402 23.4163 26H8.58375ZM26 26H25.5413C25.0966 24.5846 24.3422 23.286 23.3329 22.1986C22.3236 21.1112 21.0847 20.2624 19.7062 19.7138C20.6876 18.9429 21.4042 17.8853 21.7562 16.6882C22.1083 15.491 22.0784 14.2139 21.6706 13.0345C21.2628 11.8552 20.4974 10.8323 19.481 10.1083C18.4647 9.38438 17.2479 8.99531 16 8.99531C14.7521 8.99531 13.5353 9.38438 12.519 10.1083C11.5026 10.8323 10.7372 11.8552 10.3294 13.0345C9.92164 14.2139 9.89169 15.491 10.2438 16.6882C10.5958 17.8853 11.3124 18.9429 12.2937 19.7138C10.9153 20.2624 9.67641 21.1112 8.66709 22.1986C7.65777 23.286 6.90339 24.5846 6.45875 26H6V6H26V26Z" fill="#4A4A4F"/>
</svg>
