<svg width="32" height="32" viewBox="0 0 32 32" fill="none" xmlns="http://www.w3.org/2000/svg">
<path d="M24.766 24.3564C24.8887 24.5022 24.9671 24.68 24.9921 24.8689C25.0171 25.0578 24.9876 25.2499 24.9071 25.4226C24.8266 25.5953 24.6985 25.7414 24.5377 25.8437C24.3769 25.9461 24.1903 26.0003 23.9998 26.0001H2.99976C2.80932 26.0001 2.62285 25.9456 2.46229 25.8432C2.30172 25.7408 2.17373 25.5947 2.09338 25.4221C2.01302 25.2494 1.98364 25.0574 2.00869 24.8686C2.03373 24.6798 2.11217 24.5021 2.23476 24.3564C4.10226 22.1339 6.42476 20.5551 9.00601 19.7101C7.43839 18.7337 6.23142 17.2734 5.56768 15.55C4.90395 13.8265 4.81958 11.9338 5.32733 10.1582C5.83508 8.38254 6.90733 6.82057 8.38185 5.70859C9.85638 4.59661 11.6529 3.99512 13.4998 3.99512C15.3466 3.99512 17.1432 4.59661 18.6177 5.70859C20.0922 6.82057 21.1645 8.38254 21.6722 10.1582C22.18 11.9338 22.0956 13.8265 21.4318 15.55C20.7681 17.2734 19.5611 18.7337 17.9935 19.7101C20.5748 20.5551 22.8973 22.1339 24.766 24.3564ZM30.8973 19.2501C30.8094 19.4024 30.6829 19.5287 30.5306 19.6165C30.3783 19.7043 30.2056 19.7504 30.0298 19.7501C29.8542 19.7507 29.6816 19.7045 29.5298 19.6164L28.946 19.2789C28.6667 19.5185 28.3454 19.7046 27.9985 19.8276V20.5001C27.9985 20.7653 27.8932 21.0197 27.7056 21.2072C27.5181 21.3948 27.2637 21.5001 26.9985 21.5001C26.7333 21.5001 26.4789 21.3948 26.2914 21.2072C26.1039 21.0197 25.9985 20.7653 25.9985 20.5001V19.8276C25.6516 19.7046 25.3304 19.5185 25.051 19.2789L24.4673 19.6164C24.3154 19.7045 24.1428 19.7507 23.9673 19.7501C23.7471 19.7502 23.533 19.6776 23.3583 19.5436C23.1835 19.4096 23.0579 19.2216 23.0009 19.0089C22.944 18.7962 22.9588 18.5706 23.0431 18.3672C23.1274 18.1638 23.2765 17.9939 23.4673 17.8839L24.0498 17.5476C23.9814 17.1858 23.9814 16.8144 24.0498 16.4526L23.4673 16.1164C23.3535 16.0507 23.2538 15.9633 23.1738 15.8591C23.0939 15.7549 23.0352 15.636 23.0012 15.5091C22.9672 15.3822 22.9585 15.2499 22.9756 15.1197C22.9927 14.9895 23.0354 14.8639 23.101 14.7501C23.1667 14.6364 23.2541 14.5366 23.3583 14.4567C23.4625 14.3767 23.5814 14.318 23.7083 14.284C23.8352 14.25 23.9675 14.2413 24.0977 14.2585C24.2279 14.2756 24.3535 14.3182 24.4673 14.3839L25.051 14.7214C25.3304 14.4817 25.6516 14.2957 25.9985 14.1726V13.5001C25.9985 13.2349 26.1039 12.9805 26.2914 12.793C26.4789 12.6055 26.7333 12.5001 26.9985 12.5001C27.2637 12.5001 27.5181 12.6055 27.7056 12.793C27.8932 12.9805 27.9985 13.2349 27.9985 13.5001V14.1726C28.3454 14.2957 28.6667 14.4817 28.946 14.7214L29.5298 14.3839C29.6435 14.3182 29.7691 14.2756 29.8993 14.2585C30.0296 14.2413 30.1619 14.25 30.2887 14.284C30.4156 14.318 30.5345 14.3767 30.6387 14.4567C30.7429 14.5366 30.8304 14.6364 30.896 14.7501C30.9617 14.8639 31.0043 14.9895 31.0214 15.1197C31.0385 15.2499 31.0299 15.3822 30.9958 15.5091C30.9618 15.636 30.9032 15.7549 30.8232 15.8591C30.7432 15.9633 30.6435 16.0507 30.5298 16.1164L29.9473 16.4526C30.0156 16.8144 30.0156 17.1858 29.9473 17.5476L30.5298 17.8839C30.6436 17.9494 30.7435 18.0367 30.8236 18.1409C30.9037 18.245 30.9625 18.3639 30.9966 18.4908C31.0308 18.6177 31.0396 18.7501 31.0225 18.8804C31.0055 19.0106 30.9629 19.1363 30.8973 19.2501ZM26.9998 18.0001C27.1975 18.0001 27.3909 17.9415 27.5553 17.8316C27.7198 17.7217 27.848 17.5655 27.9236 17.3828C27.9993 17.2001 28.0191 16.999 27.9806 16.805C27.942 16.611 27.8467 16.4329 27.7069 16.293C27.567 16.1532 27.3888 16.0579 27.1949 16.0193C27.0009 15.9807 26.7998 16.0005 26.6171 16.0762C26.4344 16.1519 26.2782 16.2801 26.1683 16.4445C26.0584 16.609 25.9998 16.8023 25.9998 17.0001C25.9998 17.2653 26.1051 17.5197 26.2927 17.7072C26.4802 17.8948 26.7345 18.0001 26.9998 18.0001Z" fill="#4A4A4F"/>
</svg>
