<svg width="32" height="32" viewBox="0 0 32 32" fill="none" xmlns="http://www.w3.org/2000/svg">
<path d="M21 7.00001C21 6.7348 21.1054 6.48044 21.2929 6.29291C21.4805 6.10537 21.7348 6.00001 22 6.00001H28C28.2652 6.00001 28.5196 6.10537 28.7071 6.29291C28.8947 6.48044 29 6.7348 29 7.00001C29 7.26523 28.8947 7.51958 28.7071 7.70712C28.5196 7.89466 28.2652 8.00001 28 8.00001H22C21.7348 8.00001 21.4805 7.89466 21.2929 7.70712C21.1054 7.51958 21 7.26523 21 7.00001ZM28.82 13.835C29.2769 16.5507 28.8589 19.3413 27.6263 21.804C26.3938 24.2666 24.4105 26.2738 21.9628 27.5358C19.5151 28.7978 16.7297 29.2492 14.0087 28.8249C11.2877 28.4006 8.77199 27.1226 6.82472 25.1753C4.87744 23.2281 3.59941 20.7123 3.17513 17.9913C2.75085 15.2704 3.20229 12.4849 4.46426 10.0373C5.72624 7.58958 7.73344 5.60628 10.1961 4.37373C12.6587 3.14118 15.4493 2.72316 18.165 3.18001C18.4246 3.22592 18.6556 3.37247 18.8077 3.58778C18.9598 3.80309 19.0207 4.06974 18.9772 4.32974C18.9337 4.58974 18.7893 4.82204 18.5754 4.97613C18.3615 5.13021 18.0954 5.1936 17.835 5.15251C16.2577 4.88717 14.6415 4.96873 13.0989 5.39152C11.5563 5.81431 10.1243 6.56817 8.90268 7.60064C7.68104 8.63311 6.69906 9.91938 6.02508 11.3699C5.3511 12.8205 5.0013 14.4005 5.00003 16C4.99766 18.6928 5.98734 21.292 7.78003 23.3013C8.89532 21.6851 10.4636 20.4348 12.2875 19.7075C11.3078 18.9358 10.5928 17.878 10.2421 16.6811C9.89143 15.4843 9.92241 14.2079 10.3308 13.0294C10.7391 11.851 11.5046 10.8291 12.5206 10.1059C13.5367 9.38263 14.7529 8.99399 16 8.99399C17.2472 8.99399 18.4634 9.38263 19.4795 10.1059C20.4955 10.8291 21.2609 11.851 21.6693 13.0294C22.0777 14.2079 22.1086 15.4843 21.7579 16.6811C21.4072 17.878 20.6923 18.9358 19.7125 19.7075C21.5365 20.4348 23.1047 21.6851 24.22 23.3013C26.0127 21.292 27.0024 18.6928 27 16C27.0001 15.3852 26.9491 14.7714 26.8475 14.165C26.8245 14.0349 26.8275 13.9016 26.8564 13.7727C26.8852 13.6437 26.9393 13.5218 27.0155 13.4139C27.0917 13.306 27.1885 13.2143 27.3004 13.144C27.4123 13.0738 27.537 13.0264 27.6672 13.0046C27.7975 12.9828 27.9309 12.987 28.0595 13.017C28.1881 13.0471 28.3096 13.1023 28.4168 13.1795C28.5239 13.2567 28.6148 13.3544 28.684 13.4669C28.7532 13.5794 28.7994 13.7045 28.82 13.835ZM16 19C16.7912 19 17.5645 18.7654 18.2223 18.3259C18.8801 17.8864 19.3928 17.2617 19.6956 16.5307C19.9983 15.7998 20.0775 14.9956 19.9232 14.2197C19.7688 13.4437 19.3879 12.731 18.8285 12.1716C18.269 11.6122 17.5563 11.2312 16.7804 11.0769C16.0045 10.9225 15.2002 11.0017 14.4693 11.3045C13.7384 11.6072 13.1137 12.1199 12.6742 12.7777C12.2346 13.4355 12 14.2089 12 15C12 16.0609 12.4215 17.0783 13.1716 17.8284C13.9218 18.5786 14.9392 19 16 19ZM16 27C18.4417 27.0025 20.8142 26.1885 22.74 24.6875C22.0166 23.5561 21.02 22.625 19.8421 21.9801C18.6642 21.3351 17.3429 20.9971 16 20.9971C14.6571 20.9971 13.3358 21.3351 12.1579 21.9801C10.98 22.625 9.98345 23.5561 9.26003 24.6875C11.1859 26.1885 13.5583 27.0025 16 27Z" fill="#4A4A4F"/>
</svg>
