<svg width="32" height="32" viewBox="0 0 32 32" fill="none" xmlns="http://www.w3.org/2000/svg">
<path d="M28.8651 26.5C26.9613 23.2087 24.0276 20.8487 20.6038 19.73C22.2974 18.7218 23.6132 17.1856 24.3491 15.3572C25.0851 13.5289 25.2005 11.5095 24.6777 9.60918C24.1548 7.70887 23.0227 6.03272 21.4551 4.83814C19.8874 3.64355 17.971 2.99658 16.0001 2.99658C14.0292 2.99658 12.1128 3.64355 10.5451 4.83814C8.9775 6.03272 7.84534 7.70887 7.32252 9.60918C6.7997 11.5095 6.91513 13.5289 7.65108 15.3572C8.38703 17.1856 9.7028 18.7218 11.3963 19.73C7.97259 20.8475 5.03884 23.2075 3.13509 26.5C3.06528 26.6138 3.01897 26.7405 2.99891 26.8725C2.97884 27.0045 2.98541 27.1392 3.01825 27.2687C3.05108 27.3981 3.10951 27.5197 3.19008 27.6262C3.27066 27.7326 3.37174 27.8219 3.48738 27.8887C3.60301 27.9555 3.73085 27.9985 3.86335 28.015C3.99586 28.0316 4.13034 28.0215 4.25887 27.9853C4.3874 27.949 4.50737 27.8874 4.6117 27.8041C4.71604 27.7207 4.80262 27.6173 4.86634 27.5C7.22134 23.43 11.3838 21 16.0001 21C20.6163 21 24.7788 23.43 27.1338 27.5C27.1976 27.6173 27.2842 27.7207 27.3885 27.8041C27.4928 27.8874 27.6128 27.949 27.7413 27.9853C27.8698 28.0215 28.0043 28.0316 28.1368 28.015C28.2693 27.9985 28.3972 27.9555 28.5128 27.8887C28.6284 27.8219 28.7295 27.7326 28.8101 27.6262C28.8907 27.5197 28.9491 27.3981 28.9819 27.2687C29.0148 27.1392 29.0213 27.0045 29.0013 26.8725C28.9812 26.7405 28.9349 26.6138 28.8651 26.5ZM9.00009 12C9.00009 10.6155 9.41064 9.26214 10.1798 8.11099C10.949 6.95985 12.0422 6.06264 13.3213 5.53283C14.6004 5.00301 16.0079 4.86439 17.3657 5.13449C18.7236 5.40458 19.9709 6.07127 20.9498 7.05023C21.9288 8.0292 22.5955 9.27648 22.8656 10.6344C23.1357 11.9922 22.9971 13.3997 22.4673 14.6788C21.9374 15.9578 21.0402 17.0511 19.8891 17.8203C18.7379 18.5894 17.3846 19 16.0001 19C14.1442 18.998 12.3649 18.2599 11.0525 16.9475C9.74022 15.6352 9.00208 13.8559 9.00009 12Z" fill="#4A4A4F"/>
</svg>
