<svg width="32" height="32" viewBox="0 0 32 32" fill="none" xmlns="http://www.w3.org/2000/svg">
<path d="M18 10C18 9.73481 18.1054 9.48046 18.2929 9.29292C18.4805 9.10539 18.7348 9.00003 19 9.00003H31C31.2652 9.00003 31.5196 9.10539 31.7071 9.29292C31.8947 9.48046 32 9.73481 32 10C32 10.2652 31.8947 10.5196 31.7071 10.7071C31.5196 10.8947 31.2652 11 31 11H19C18.7348 11 18.4805 10.8947 18.2929 10.7071C18.1054 10.5196 18 10.2652 18 10ZM31 15H19C18.7348 15 18.4805 15.1054 18.2929 15.2929C18.1054 15.4805 18 15.7348 18 16C18 16.2652 18.1054 16.5196 18.2929 16.7071C18.4805 16.8947 18.7348 17 19 17H31C31.2652 17 31.5196 16.8947 31.7071 16.7071C31.8947 16.5196 32 16.2652 32 16C32 15.7348 31.8947 15.4805 31.7071 15.2929C31.5196 15.1054 31.2652 15 31 15ZM31 21H22C21.7348 21 21.4805 21.1054 21.2929 21.2929C21.1054 21.4805 21 21.7348 21 22C21 22.2652 21.1054 22.5196 21.2929 22.7071C21.4805 22.8947 21.7348 23 22 23H31C31.2652 23 31.5196 22.8947 31.7071 22.7071C31.8947 22.5196 32 22.2652 32 22C32 21.7348 31.8947 21.4805 31.7071 21.2929C31.5196 21.1054 31.2652 21 31 21ZM18.9688 23.75C19.0015 23.8772 19.0088 24.0097 18.9903 24.1397C18.9718 24.2697 18.9279 24.3949 18.861 24.5079C18.7941 24.621 18.7057 24.7198 18.6006 24.7986C18.4956 24.8775 18.376 24.9349 18.2488 24.9675C18.1673 24.9895 18.0832 25.0004 17.9988 25C17.777 25.0001 17.5615 24.9265 17.3861 24.7908C17.2107 24.655 17.0855 24.4648 17.03 24.25C16.26 21.2575 13.2375 19 9.99878 19C6.76003 19 3.73753 21.2563 2.96753 24.25C2.90123 24.507 2.73557 24.727 2.50701 24.8618C2.27846 24.9966 2.00571 25.0351 1.74878 24.9688C1.49185 24.9025 1.27179 24.7368 1.137 24.5083C1.0022 24.2797 0.963728 24.007 1.03003 23.75C1.72878 21.0363 3.76003 18.8388 6.33753 17.75C5.34507 16.9856 4.61677 15.9297 4.25476 14.7304C3.89276 13.5311 3.91521 12.2486 4.31896 11.0628C4.72272 9.87689 5.48753 8.84713 6.50614 8.11791C7.52475 7.38869 8.74606 6.99658 9.99878 6.99658C11.2515 6.99658 12.4728 7.38869 13.4914 8.11791C14.51 8.84713 15.2748 9.87689 15.6786 11.0628C16.0824 12.2486 16.1048 13.5311 15.7428 14.7304C15.3808 15.9297 14.6525 16.9856 13.66 17.75C16.2388 18.8388 18.27 21.0363 18.9688 23.75ZM10 17C10.7912 17 11.5645 16.7654 12.2223 16.3259C12.8801 15.8864 13.3928 15.2617 13.6956 14.5308C13.9983 13.7999 14.0775 12.9956 13.9232 12.2197C13.7688 11.4437 13.3879 10.731 12.8285 10.1716C12.269 9.61219 11.5563 9.23123 10.7804 9.07689C10.0045 8.92255 9.2002 9.00176 8.4693 9.30451C7.73839 9.60726 7.11368 10.12 6.67415 10.7777C6.23463 11.4355 6.00003 12.2089 6.00003 13C6.00003 14.0609 6.42146 15.0783 7.1716 15.8285C7.92175 16.5786 8.93917 17 10 17Z" fill="#4A4A4F"/>
</svg>
