<svg width="32" height="32" viewBox="0 0 32 32" fill="none" xmlns="http://www.w3.org/2000/svg">
<path d="M31.7076 16.7074L28.7076 19.7074C28.6147 19.8004 28.5044 19.8742 28.383 19.9245C28.2616 19.9748 28.1315 20.0007 28.0001 20.0007C27.8687 20.0007 27.7385 19.9748 27.6171 19.9245C27.4957 19.8742 27.3854 19.8004 27.2926 19.7074L24.2926 16.7074C24.1049 16.5198 23.9995 16.2653 23.9995 15.9999C23.9995 15.7346 24.1049 15.4801 24.2926 15.2924C24.4802 15.1048 24.7347 14.9994 25.0001 14.9994C25.2654 14.9994 25.5199 15.1048 25.7076 15.2924L27.0001 16.5862V15.9999C27.0012 13.6707 26.263 11.4013 24.8917 9.51848C23.5204 7.63571 21.5869 6.23681 19.3697 5.52331C17.1524 4.80981 14.7659 4.81853 12.554 5.54823C10.342 6.27792 8.41879 7.69092 7.06132 9.58367C6.9065 9.79916 6.67242 9.94432 6.41057 9.98722C6.14872 10.0301 5.88056 9.96724 5.66507 9.81242C5.44958 9.6576 5.30442 9.42352 5.26152 9.16167C5.21862 8.89982 5.2815 8.63166 5.43632 8.41617C7.04068 6.17932 9.31367 4.50948 11.9278 3.64719C14.542 2.78491 17.3624 2.7747 19.9828 3.61803C22.6032 4.46137 24.8882 6.11471 26.5087 8.33988C28.1292 10.5651 29.0016 13.2472 29.0001 15.9999V16.5862L30.2926 15.2924C30.4802 15.1048 30.7347 14.9994 31.0001 14.9994C31.2654 14.9994 31.5199 15.1048 31.7076 15.2924C31.8952 15.4801 32.0006 15.7346 32.0006 15.9999C32.0006 16.2653 31.8952 16.5198 31.7076 16.7074ZM26.5601 23.5824C24.9552 25.8176 22.6826 27.4859 20.0692 28.3472C17.4559 29.2085 14.6367 29.2183 12.0174 28.3753C9.39805 27.5323 7.11378 25.88 5.49336 23.6561C3.87294 21.4322 2.99996 18.7515 3.00007 15.9999V15.4137L1.70757 16.7074C1.51993 16.8951 1.26543 17.0005 1.00007 17.0005C0.734704 17.0005 0.480208 16.8951 0.292568 16.7074C0.104927 16.5198 -0.000488281 16.2653 -0.000488281 15.9999C-0.000488281 15.7346 0.104927 15.4801 0.292568 15.2924L3.29257 12.2924C3.38544 12.1994 3.49573 12.1257 3.61713 12.0754C3.73853 12.025 3.86865 11.9991 4.00007 11.9991C4.13148 11.9991 4.26161 12.025 4.38301 12.0754C4.50441 12.1257 4.61469 12.1994 4.70757 12.2924L7.70757 15.2924C7.89521 15.4801 8.00062 15.7346 8.00062 15.9999C8.00062 16.2653 7.89521 16.5198 7.70757 16.7074C7.51993 16.8951 7.26543 17.0005 7.00007 17.0005C6.7347 17.0005 6.48021 16.8951 6.29257 16.7074L5.00007 15.4137V15.9999C4.9977 18.6927 5.98738 21.2919 7.78007 23.3012C8.89536 21.685 10.4636 20.4347 12.2876 19.7074C11.3078 18.9357 10.5929 17.8779 10.2422 16.681C9.89146 15.4842 9.92245 14.2078 10.3308 13.0294C10.7392 11.8509 11.5046 10.829 12.5206 10.1058C13.5367 9.38254 14.7529 8.99389 16.0001 8.99389C17.2472 8.99389 18.4634 9.38254 19.4795 10.1058C20.4955 10.829 21.261 11.8509 21.6693 13.0294C22.0777 14.2078 22.1087 15.4842 21.758 16.681C21.4073 17.8779 20.6923 18.9357 19.7126 19.7074C21.5382 20.4348 23.1075 21.6866 24.2226 23.3049C24.4754 23.021 24.7136 22.7243 24.9363 22.4162C25.0911 22.2007 25.3252 22.0555 25.5871 22.0126C25.8489 21.9697 26.1171 22.0326 26.3326 22.1874C26.5481 22.3422 26.6932 22.5763 26.7361 22.8382C26.779 23.1 26.7161 23.3682 26.5613 23.5837L26.5601 23.5824ZM16.0001 18.9999C16.7912 18.9999 17.5646 18.7653 18.2223 18.3258C18.8801 17.8863 19.3928 17.2616 19.6956 16.5307C19.9983 15.7997 20.0776 14.9955 19.9232 14.2196C19.7689 13.4436 19.3879 12.7309 18.8285 12.1715C18.2691 11.6121 17.5564 11.2311 16.7804 11.0768C16.0045 10.9224 15.2002 11.0017 14.4693 11.3044C13.7384 11.6072 13.1137 12.1198 12.6742 12.7776C12.2347 13.4354 12.0001 14.2088 12.0001 14.9999C12.0001 16.0608 12.4215 17.0782 13.1716 17.8283C13.9218 18.5785 14.9392 18.9999 16.0001 18.9999ZM16.0001 26.9999C18.4406 26.9967 20.8111 26.1839 22.7401 24.6887C22.0167 23.5573 21.0201 22.6262 19.8422 21.9812C18.6643 21.3363 17.343 20.9982 16.0001 20.9982C14.6572 20.9982 13.3359 21.3363 12.158 21.9812C10.9801 22.6262 9.98349 23.5573 9.26007 24.6887C11.1861 26.1892 13.5585 27.0027 16.0001 26.9999Z" fill="#4A4A4F"/>
</svg>
