<svg width="32" height="32" viewBox="0 0 32 32" fill="none" xmlns="http://www.w3.org/2000/svg">
<path d="M28.5313 7.88375L27.9488 7.5475C28.0171 7.1857 28.0171 6.8143 27.9488 6.4525L28.5313 6.11625C28.761 5.98364 28.9287 5.7652 28.9974 5.50898C29.0661 5.25276 29.0301 4.97974 28.8975 4.75C28.7649 4.52026 28.5465 4.3526 28.2903 4.28392C28.034 4.21523 27.761 4.25114 27.5313 4.38375L26.9475 4.72125C26.6682 4.48157 26.347 4.29554 26 4.1725V3.5C26 3.23478 25.8947 2.98043 25.7071 2.79289C25.5196 2.60536 25.2652 2.5 25 2.5C24.7348 2.5 24.4805 2.60536 24.2929 2.79289C24.1054 2.98043 24 3.23478 24 3.5V4.1725C23.6531 4.29554 23.3319 4.48157 23.0525 4.72125L22.4688 4.38375C22.355 4.31809 22.2294 4.27548 22.0992 4.25835C21.969 4.24122 21.8367 4.24991 21.7098 4.28392C21.5829 4.31792 21.464 4.37659 21.3598 4.45656C21.2556 4.53653 21.1682 4.63624 21.1025 4.75C21.0369 4.86376 20.9943 4.98933 20.9771 5.11956C20.96 5.24979 20.9687 5.38211 21.0027 5.50898C21.0367 5.63585 21.0954 5.75477 21.1753 5.85897C21.2553 5.96316 21.355 6.05059 21.4688 6.11625L22.0513 6.4525C21.9829 6.8143 21.9829 7.1857 22.0513 7.5475L21.4688 7.88375C21.278 7.99377 21.1289 8.16367 21.0446 8.36709C20.9603 8.57052 20.9455 8.79609 21.0025 9.00879C21.0594 9.22149 21.185 9.40944 21.3598 9.54346C21.5345 9.67748 21.7486 9.75009 21.9688 9.75C22.1444 9.75054 22.3169 9.70438 22.4688 9.61625L23.0525 9.27875C23.3319 9.51843 23.6531 9.70446 24 9.8275V10.5C24 10.7652 24.1054 11.0196 24.2929 11.2071C24.4805 11.3946 24.7348 11.5 25 11.5C25.2652 11.5 25.5196 11.3946 25.7071 11.2071C25.8947 11.0196 26 10.7652 26 10.5V9.8275C26.347 9.70446 26.6682 9.51843 26.9475 9.27875L27.5313 9.61625C27.6831 9.70438 27.8557 9.75054 28.0313 9.75C28.2515 9.75009 28.4656 9.67748 28.6403 9.54346C28.815 9.40944 28.9406 9.22149 28.9976 9.00879C29.0546 8.79609 29.0398 8.57052 28.9555 8.36709C28.8711 8.16367 28.722 7.99377 28.5313 7.88375ZM24 7C24 6.80222 24.0587 6.60888 24.1686 6.44443C24.2784 6.27998 24.4346 6.15181 24.6173 6.07612C24.8001 6.00043 25.0011 5.98063 25.1951 6.01921C25.3891 6.0578 25.5673 6.15304 25.7071 6.29289C25.847 6.43275 25.9422 6.61093 25.9808 6.80491C26.0194 6.99889 25.9996 7.19996 25.9239 7.38268C25.8482 7.56541 25.7201 7.72159 25.5556 7.83147C25.3912 7.94135 25.1978 8 25 8C24.7348 8 24.4805 7.89464 24.2929 7.70711C24.1054 7.51957 24 7.26522 24 7ZM27.6688 13.0138C27.4072 13.0575 27.1738 13.2034 27.0197 13.4193C26.8657 13.6352 26.8038 13.9034 26.8475 14.165C26.9491 14.7714 27.0001 15.3852 27 16C27.0024 18.6927 26.0127 21.292 24.22 23.3013C23.1047 21.6851 21.5365 20.4348 19.7125 19.7075C20.6923 18.9358 21.4072 17.878 21.7579 16.6811C22.1086 15.4843 22.0777 14.2079 21.6693 13.0294C21.2609 11.851 20.4955 10.8291 19.4795 10.1059C18.4634 9.38262 17.2472 8.99397 16 8.99397C14.7529 8.99397 13.5367 9.38262 12.5206 10.1059C11.5046 10.8291 10.7391 11.851 10.3308 13.0294C9.92241 14.2079 9.89143 15.4843 10.2421 16.6811C10.5928 17.878 11.3078 18.9358 12.2875 19.7075C10.4636 20.4348 8.89532 21.6851 7.78003 23.3013C6.37343 21.7162 5.45462 19.7586 5.13409 17.6638C4.81355 15.569 5.10494 13.4262 5.9732 11.4931C6.84147 9.55995 8.24965 7.91877 10.0284 6.76688C11.8072 5.615 13.8809 5.00144 16 5C16.6149 4.9999 17.2286 5.05091 17.835 5.1525C18.0954 5.19359 18.3615 5.13019 18.5754 4.97611C18.7893 4.82203 18.9337 4.58972 18.9772 4.32973C19.0207 4.06973 18.9598 3.80307 18.8077 3.58776C18.6556 3.37245 18.4246 3.22591 18.165 3.18C15.4493 2.72314 12.6587 3.14117 10.1961 4.37372C7.73344 5.60627 5.72624 7.58956 4.46426 10.0372C3.20229 12.4849 2.75085 15.2703 3.17513 17.9913C3.59941 20.7123 4.87744 23.228 6.82472 25.1753C8.77199 27.1226 11.2877 28.4006 14.0087 28.8249C16.7297 29.2492 19.5151 28.7977 21.9628 27.5358C24.4105 26.2738 26.3938 24.2666 27.6263 21.804C28.8589 19.3413 29.2769 16.5507 28.82 13.835C28.7763 13.5734 28.6304 13.34 28.4145 13.186C28.1986 13.0319 27.9304 12.97 27.6688 13.0138ZM12 15C12 14.2089 12.2346 13.4355 12.6742 12.7777C13.1137 12.1199 13.7384 11.6072 14.4693 11.3045C15.2002 11.0017 16.0045 10.9225 16.7804 11.0769C17.5563 11.2312 18.269 11.6122 18.8285 12.1716C19.3879 12.731 19.7688 13.4437 19.9232 14.2196C20.0775 14.9956 19.9983 15.7998 19.6956 16.5307C19.3928 17.2616 18.8801 17.8864 18.2223 18.3259C17.5645 18.7654 16.7912 19 16 19C14.9392 19 13.9218 18.5786 13.1716 17.8284C12.4215 17.0783 12 16.0609 12 15ZM9.26003 24.6875C9.98345 23.5561 10.98 22.625 12.1579 21.9801C13.3358 21.3351 14.6571 20.9971 16 20.9971C17.3429 20.9971 18.6642 21.3351 19.8421 21.9801C21.02 22.625 22.0166 23.5561 22.74 24.6875C20.813 26.1862 18.4413 26.9999 16 26.9999C13.5588 26.9999 11.1871 26.1862 9.26003 24.6875Z" fill="#4A4A4F"/>
</svg>
