<svg width="32" height="32" viewBox="0 0 32 32" fill="none" xmlns="http://www.w3.org/2000/svg">
<path d="M28.8 27.3987C28.9118 27.5473 28.9799 27.724 28.9968 27.9092C29.0137 28.0944 28.9786 28.2806 28.8955 28.4469C28.8124 28.6132 28.6846 28.7531 28.5264 28.8508C28.3682 28.9485 28.1859 29.0001 28 28.9999H4C3.81429 28.9999 3.63225 28.9482 3.47427 28.8506C3.31629 28.753 3.18863 28.6133 3.10557 28.4472C3.02252 28.281 2.98736 28.0951 3.00404 27.9101C3.02072 27.7252 3.08857 27.5485 3.2 27.3999C4.08548 26.2128 5.26628 25.278 6.625 24.6887C5.88022 24.0089 5.35837 23.1199 5.12794 22.1382C4.8975 21.1566 4.96926 20.1282 5.33379 19.188C5.69832 18.2479 6.33858 17.4399 7.17054 16.8702C8.0025 16.3005 8.98728 15.9956 9.99563 15.9956C11.004 15.9956 11.9887 16.3005 12.8207 16.8702C13.6527 17.4399 14.2929 18.2479 14.6575 19.188C15.022 20.1282 15.0937 21.1566 14.8633 22.1382C14.6329 23.1199 14.111 24.0089 13.3663 24.6887C14.3465 25.1124 15.2373 25.7186 15.9913 26.4749C16.7452 25.7186 17.636 25.1124 18.6162 24.6887C17.8715 24.0089 17.3496 23.1199 17.1192 22.1382C16.8888 21.1566 16.9605 20.1282 17.325 19.188C17.6896 18.2479 18.3298 17.4399 19.1618 16.8702C19.9938 16.3005 20.9785 15.9956 21.9869 15.9956C22.9952 15.9956 23.98 16.3005 24.812 16.8702C25.6439 17.4399 26.2842 18.2479 26.6487 19.188C27.0132 20.1282 27.085 21.1566 26.8546 22.1382C26.6241 23.1199 26.1023 24.0089 25.3575 24.6887C26.7225 25.2749 27.9097 26.2094 28.8 27.3987ZM3.4 15.7999C3.50506 15.8787 3.62461 15.9361 3.75182 15.9687C3.87903 16.0012 4.01142 16.0085 4.14142 15.9899C4.27142 15.9713 4.39649 15.9273 4.50949 15.8604C4.62249 15.7935 4.72121 15.705 4.8 15.5999C5.40546 14.7927 6.19055 14.1374 7.09311 13.6862C7.99567 13.2349 8.99091 12.9999 10 12.9999C11.0091 12.9999 12.0043 13.2349 12.9069 13.6862C13.8094 14.1374 14.5945 14.7927 15.2 15.5999C15.2931 15.7241 15.4139 15.8249 15.5528 15.8944C15.6916 15.9638 15.8448 15.9999 16 15.9999C16.1552 15.9999 16.3084 15.9638 16.4472 15.8944C16.5861 15.8249 16.7069 15.7241 16.8 15.5999C17.4055 14.7927 18.1906 14.1374 19.0931 13.6862C19.9957 13.2349 20.9909 12.9999 22 12.9999C23.0091 12.9999 24.0043 13.2349 24.9069 13.6862C25.8095 14.1374 26.5945 14.7927 27.2 15.5999C27.2789 15.705 27.3777 15.7935 27.4907 15.8604C27.6038 15.9272 27.729 15.9712 27.859 15.9897C27.9891 16.0082 28.1215 16.0009 28.2488 15.9683C28.376 15.9356 28.4956 15.8782 28.6006 15.7993C28.7057 15.7204 28.7942 15.6216 28.8611 15.5086C28.9279 15.3955 28.9719 15.2704 28.9904 15.1403C29.0089 15.0102 29.0016 14.8778 28.969 14.7506C28.9363 14.6233 28.8789 14.5037 28.8 14.3987C27.9145 13.2119 26.7337 12.2775 25.375 11.6887C26.1198 11.0089 26.6416 10.1199 26.8721 9.13824C27.1025 8.15658 27.0307 7.12819 26.6662 6.18804C26.3017 5.2479 25.6614 4.43994 24.8295 3.87021C23.9975 3.30048 23.0127 2.99561 22.0044 2.99561C20.996 2.99561 20.0113 3.30048 19.1793 3.87021C18.3473 4.43994 17.7071 5.2479 17.3425 6.18804C16.978 7.12819 16.9063 8.15658 17.1367 9.13824C17.3671 10.1199 17.889 11.0089 18.6338 11.6887C17.6535 12.1124 16.7627 12.7186 16.0088 13.4749C15.2548 12.7186 14.364 12.1124 13.3837 11.6887C14.1285 11.0089 14.6504 10.1199 14.8808 9.13824C15.1112 8.15658 15.0395 7.12819 14.675 6.18804C14.3104 5.2479 13.6702 4.43994 12.8382 3.87021C12.0062 3.30048 11.0215 2.99561 10.0131 2.99561C9.00479 2.99561 8.02 3.30048 7.18804 3.87021C6.35608 4.43994 5.71582 5.2479 5.35129 6.18804C4.98676 7.12819 4.915 8.15658 5.14544 9.13824C5.37587 10.1199 5.89772 11.0089 6.6425 11.6887C5.2774 12.2754 4.09032 13.2104 3.2 14.3999C3.12121 14.505 3.06388 14.6245 3.03129 14.7518C2.9987 14.879 2.99148 15.0114 3.01005 15.1414C3.02862 15.2714 3.07262 15.3964 3.13953 15.5094C3.20643 15.6224 3.29494 15.7211 3.4 15.7999Z" fill="#4A4A4F"/>
</svg>
