<svg width="32" height="32" viewBox="0 0 32 32" fill="none" xmlns="http://www.w3.org/2000/svg">
<path d="M31.7588 14.3488L26.0662 7.71625C25.8785 7.49198 25.6439 7.31161 25.3789 7.18786C25.1139 7.06411 24.825 6.99998 24.5325 7H4C3.46957 7 2.96086 7.21071 2.58579 7.58579C2.21071 7.96086 2 8.46957 2 9V23C2 23.5304 2.21071 24.0391 2.58579 24.4142C2.96086 24.7893 3.46957 25 4 25H6.125C6.3453 25.8604 6.8457 26.623 7.54731 27.1676C8.24892 27.7122 9.11183 28.0078 10 28.0078C10.8882 28.0078 11.7511 27.7122 12.4527 27.1676C13.1543 26.623 13.6547 25.8604 13.875 25H20.125C20.3453 25.8604 20.8457 26.623 21.5473 27.1676C22.2489 27.7122 23.1118 28.0078 24 28.0078C24.8882 28.0078 25.7511 27.7122 26.4527 27.1676C27.1543 26.623 27.6547 25.8604 27.875 25H30C30.5304 25 31.0391 24.7893 31.4142 24.4142C31.7893 24.0391 32 23.5304 32 23V15C32 14.7611 31.9144 14.53 31.7588 14.3488ZM4 14V9H11V14H4ZM10 26C9.60444 26 9.21776 25.8827 8.88886 25.6629C8.55996 25.4432 8.30362 25.1308 8.15224 24.7654C8.00087 24.3999 7.96126 23.9978 8.03843 23.6098C8.1156 23.2219 8.30608 22.8655 8.58579 22.5858C8.86549 22.3061 9.22186 22.1156 9.60982 22.0384C9.99778 21.9613 10.3999 22.0009 10.7654 22.1522C11.1308 22.3036 11.4432 22.56 11.6629 22.8889C11.8827 23.2178 12 23.6044 12 24C12 24.5304 11.7893 25.0391 11.4142 25.4142C11.0391 25.7893 10.5304 26 10 26ZM20 14H13V9H20V14ZM24 26C23.6044 26 23.2178 25.8827 22.8889 25.6629C22.56 25.4432 22.3036 25.1308 22.1522 24.7654C22.0009 24.3999 21.9613 23.9978 22.0384 23.6098C22.1156 23.2219 22.3061 22.8655 22.5858 22.5858C22.8655 22.3061 23.2219 22.1156 23.6098 22.0384C23.9978 21.9613 24.3999 22.0009 24.7654 22.1522C25.1308 22.3036 25.4432 22.56 25.6629 22.8889C25.8827 23.2178 26 23.6044 26 24C26 24.5304 25.7893 25.0391 25.4142 25.4142C25.0391 25.7893 24.5304 26 24 26ZM22 14V9H24.5325L28.8237 14H22Z" fill="#4A4A4F"/>
</svg>
