<svg width="32" height="32" viewBox="0 0 32 32" fill="none" xmlns="http://www.w3.org/2000/svg">
<path d="M27 5H5C4.46957 5 3.96086 5.21071 3.58579 5.58579C3.21071 5.96086 3 6.46957 3 7V24C3 24.5304 3.21071 25.0391 3.58579 25.4142C3.96086 25.7893 4.46957 26 5 26H7V28C7 28.2652 7.10536 28.5196 7.29289 28.7071C7.48043 28.8946 7.73478 29 8 29C8.26522 29 8.51957 28.8946 8.70711 28.7071C8.89464 28.5196 9 28.2652 9 28V26H23V28C23 28.2652 23.1054 28.5196 23.2929 28.7071C23.4804 28.8946 23.7348 29 24 29C24.2652 29 24.5196 28.8946 24.7071 28.7071C24.8946 28.5196 25 28.2652 25 28V26H27C27.5304 26 28.0391 25.7893 28.4142 25.4142C28.7893 25.0391 29 24.5304 29 24V7C29 6.46957 28.7893 5.96086 28.4142 5.58579C28.0391 5.21071 27.5304 5 27 5ZM26 17H22.3862C22.1404 18.0787 21.5058 19.029 20.6036 19.6694C19.7015 20.3098 18.595 20.5955 17.4956 20.4718C16.3962 20.3481 15.3809 19.8237 14.6436 18.9988C13.9063 18.1739 13.4988 17.1064 13.4988 16C13.4988 14.8936 13.9063 13.8261 14.6436 13.0012C15.3809 12.1763 16.3962 11.6519 17.4956 11.5282C18.595 11.4045 19.7015 11.6902 20.6036 12.3306C21.5058 12.971 22.1404 13.9213 22.3862 15H26C26.2652 15 26.5196 15.1054 26.7071 15.2929C26.8946 15.4804 27 15.7348 27 16C27 16.2652 26.8946 16.5196 26.7071 16.7071C26.5196 16.8946 26.2652 17 26 17ZM20.5 16C20.5 16.4945 20.3534 16.9778 20.0787 17.3889C19.804 17.8 19.4135 18.1205 18.9567 18.3097C18.4999 18.4989 17.9972 18.5484 17.5123 18.452C17.0273 18.3555 16.5819 18.1174 16.2322 17.7678C15.8826 17.4181 15.6445 16.9727 15.548 16.4877C15.4516 16.0028 15.5011 15.5001 15.6903 15.0433C15.8795 14.5865 16.2 14.196 16.6111 13.9213C17.0222 13.6466 17.5055 13.5 18 13.5C18.3283 13.5 18.6534 13.5647 18.9567 13.6903C19.26 13.8159 19.5356 14.0001 19.7678 14.2322C19.9999 14.4644 20.1841 14.74 20.3097 15.0433C20.4353 15.3466 20.5 15.6717 20.5 16Z" fill="#4A4A4F"/>
</svg>
