<svg width="32" height="32" viewBox="0 0 32 32" fill="none" xmlns="http://www.w3.org/2000/svg">
<path d="M20 4H12C11.2044 4 10.4413 4.31607 9.87868 4.87868C9.31607 5.44129 9 6.20435 9 7V25C9 25.7956 9.31607 26.5587 9.87868 27.1213C10.4413 27.6839 11.2044 28 12 28H20C20.7956 28 21.5587 27.6839 22.1213 27.1213C22.6839 26.5587 23 25.7956 23 25V7C23 6.20435 22.6839 5.44129 22.1213 4.87868C21.5587 4.31607 20.7956 4 20 4ZM21 25C21 25.2652 20.8946 25.5196 20.7071 25.7071C20.5196 25.8946 20.2652 26 20 26H12C11.7348 26 11.4804 25.8946 11.2929 25.7071C11.1054 25.5196 11 25.2652 11 25V7C11 6.73478 11.1054 6.48043 11.2929 6.29289C11.4804 6.10536 11.7348 6 12 6H20C20.2652 6 20.5196 6.10536 20.7071 6.29289C20.8946 6.48043 21 6.73478 21 7V25ZM27 11V21C27 21.2652 26.8946 21.5196 26.7071 21.7071C26.5196 21.8946 26.2652 22 26 22C25.7348 22 25.4804 21.8946 25.2929 21.7071C25.1054 21.5196 25 21.2652 25 21V11C25 10.7348 25.1054 10.4804 25.2929 10.2929C25.4804 10.1054 25.7348 10 26 10C26.2652 10 26.5196 10.1054 26.7071 10.2929C26.8946 10.4804 27 10.7348 27 11ZM31 13V19C31 19.2652 30.8946 19.5196 30.7071 19.7071C30.5196 19.8946 30.2652 20 30 20C29.7348 20 29.4804 19.8946 29.2929 19.7071C29.1054 19.5196 29 19.2652 29 19V13C29 12.7348 29.1054 12.4804 29.2929 12.2929C29.4804 12.1054 29.7348 12 30 12C30.2652 12 30.5196 12.1054 30.7071 12.2929C30.8946 12.4804 31 12.7348 31 13ZM7 11V21C7 21.2652 6.89464 21.5196 6.70711 21.7071C6.51957 21.8946 6.26522 22 6 22C5.73478 22 5.48043 21.8946 5.29289 21.7071C5.10536 21.5196 5 21.2652 5 21V11C5 10.7348 5.10536 10.4804 5.29289 10.2929C5.48043 10.1054 5.73478 10 6 10C6.26522 10 6.51957 10.1054 6.70711 10.2929C6.89464 10.4804 7 10.7348 7 11ZM3 13V19C3 19.2652 2.89464 19.5196 2.70711 19.7071C2.51957 19.8946 2.26522 20 2 20C1.73478 20 1.48043 19.8946 1.29289 19.7071C1.10536 19.5196 1 19.2652 1 19V13C1 12.7348 1.10536 12.4804 1.29289 12.2929C1.48043 12.1054 1.73478 12 2 12C2.26522 12 2.51957 12.1054 2.70711 12.2929C2.89464 12.4804 3 12.7348 3 13Z" fill="#4A4A4F"/>
</svg>
