<svg width="32" height="32" viewBox="0 0 32 32" fill="none" xmlns="http://www.w3.org/2000/svg">
<path d="M29 26C29 26.2652 28.8946 26.5196 28.7071 26.7071C28.5196 26.8946 28.2652 27 28 27H4C3.73478 27 3.48043 26.8946 3.29289 26.7071C3.10536 26.5196 3 26.2652 3 26C3 25.7348 3.10536 25.4804 3.29289 25.2929C3.48043 25.1054 3.73478 25 4 25H28C28.2652 25 28.5196 25.1054 28.7071 25.2929C28.8946 25.4804 29 25.7348 29 26ZM29 7V21C29 21.5304 28.7893 22.0391 28.4142 22.4142C28.0391 22.7893 27.5304 23 27 23H5C4.46957 23 3.96086 22.7893 3.58579 22.4142C3.21071 22.0391 3 21.5304 3 21V7C3 6.46957 3.21071 5.96086 3.58579 5.58579C3.96086 5.21071 4.46957 5 5 5H27C27.5304 5 28.0391 5.21071 28.4142 5.58579C28.7893 5.96086 29 6.46957 29 7ZM20.5 14C20.4999 13.8317 20.4574 13.6661 20.3764 13.5186C20.2953 13.3711 20.1783 13.2465 20.0362 13.1562L14.5363 9.65625C14.3851 9.5602 14.2109 9.50652 14.0319 9.50082C13.8528 9.49511 13.6756 9.53759 13.5186 9.62381C13.3616 9.71003 13.2307 9.83683 13.1394 9.99096C13.0482 10.1451 13.0001 10.3209 13 10.5V17.5C13.0001 17.6791 13.0482 17.8549 13.1394 18.009C13.2307 18.1632 13.3616 18.29 13.5186 18.3762C13.6756 18.4624 13.8528 18.5049 14.0319 18.4992C14.2109 18.4935 14.3851 18.4398 14.5363 18.3438L20.0362 14.8438C20.1783 14.7535 20.2953 14.6289 20.3764 14.4814C20.4574 14.3339 20.4999 14.1683 20.5 14Z" fill="#4A4A4F"/>
</svg>
