<svg width="32" height="32" viewBox="0 0 32 32" fill="none" xmlns="http://www.w3.org/2000/svg">
<path d="M31.4713 9.12508C31.3118 9.03961 31.1321 8.999 30.9514 9.00759C30.7707 9.01617 30.5956 9.07363 30.445 9.17383L26 12.1313V9.00008C26 8.46965 25.7893 7.96094 25.4142 7.58587C25.0391 7.2108 24.5304 7.00008 24 7.00008H14.1325C13.8673 7.00008 13.6129 7.10544 13.4254 7.29298C13.2379 7.48051 13.1325 7.73487 13.1325 8.00008C13.1325 8.2653 13.2379 8.51965 13.4254 8.70719C13.6129 8.89473 13.8673 9.00008 14.1325 9.00008H24V19.9538C24 20.2191 24.1054 20.4734 24.2929 20.6609C24.4804 20.8485 24.7348 20.9538 25 20.9538C25.2652 20.9538 25.5196 20.8485 25.7071 20.6609C25.8946 20.4734 26 20.2191 26 19.9538V19.8751L30.445 22.8388C30.6101 22.946 30.8032 23.0021 31 23.0001C31.2652 23.0001 31.5196 22.8947 31.7071 22.7072C31.8946 22.5197 32 22.2653 32 22.0001V10.0001C31.9987 9.82016 31.949 9.6439 31.8559 9.48991C31.7628 9.33591 31.63 9.20987 31.4713 9.12508ZM30 20.1313L26 17.4651V14.5351L30 11.8751V20.1313ZM6.74 4.32758C6.65218 4.22859 6.54559 4.14801 6.4264 4.09052C6.30721 4.03303 6.1778 3.99976 6.04566 3.99265C5.91352 3.98555 5.78128 4.00473 5.65661 4.04911C5.53194 4.09348 5.41732 4.16216 5.31939 4.25116C5.22146 4.34016 5.14216 4.44771 5.0861 4.56758C5.03004 4.68745 4.99833 4.81725 4.99281 4.94947C4.98728 5.08168 5.00806 5.21368 5.05392 5.33781C5.09979 5.46194 5.16983 5.57573 5.26 5.67258L6.46625 7.00008H4C3.46957 7.00008 2.96086 7.2108 2.58579 7.58587C2.21071 7.96094 2 8.46965 2 9.00008V23.0001C2 23.5305 2.21071 24.0392 2.58579 24.4143C2.96086 24.7894 3.46957 25.0001 4 25.0001H22.83L25.26 27.6726C25.3478 27.7716 25.4544 27.8522 25.5736 27.9096C25.6928 27.9671 25.8222 28.0004 25.9543 28.0075C26.0865 28.0146 26.2187 27.9954 26.3434 27.9511C26.4681 27.9067 26.5827 27.838 26.6806 27.749C26.7785 27.66 26.8578 27.5525 26.9139 27.4326C26.97 27.3127 27.0017 27.1829 27.0072 27.0507C27.0127 26.9185 26.9919 26.7865 26.9461 26.6624C26.9002 26.5382 26.8302 26.4244 26.74 26.3276L6.74 4.32758ZM4 23.0001V9.00008H8.285L21.0125 23.0001H4Z" fill="#4A4A4F"/>
</svg>
