<svg width="32" height="32" viewBox="0 0 32 32" fill="none" xmlns="http://www.w3.org/2000/svg">
<path d="M26.74 26.3276C26.8302 26.4244 26.9002 26.5382 26.9461 26.6624C26.9919 26.7865 27.0127 26.9185 27.0072 27.0507C27.0017 27.1829 26.97 27.3127 26.9139 27.4326C26.8578 27.5525 26.7785 27.66 26.6806 27.749C26.5827 27.838 26.4681 27.9067 26.3434 27.9511C26.2187 27.9954 26.0865 28.0146 25.9543 28.0075C25.8222 28.0004 25.6928 27.9671 25.5736 27.9096C25.4544 27.8522 25.3478 27.7716 25.26 27.6726L22.83 25.0001H4C3.46957 25.0001 2.96086 24.7894 2.58579 24.4143C2.21071 24.0392 2 23.5305 2 23.0001V9.00008C2 8.46965 2.21071 7.96094 2.58579 7.58587C2.96086 7.2108 3.46957 7.00008 4 7.00008H6.46625L5.26 5.67258C5.16983 5.57573 5.09979 5.46194 5.05392 5.33781C5.00806 5.21368 4.98728 5.08168 4.99281 4.94947C4.99833 4.81725 5.03004 4.68745 5.0861 4.56758C5.14216 4.44771 5.22146 4.34016 5.31939 4.25116C5.41732 4.16216 5.53194 4.09348 5.65661 4.04911C5.78128 4.00473 5.91352 3.98555 6.04566 3.99265C6.1778 3.99976 6.30721 4.03303 6.4264 4.09052C6.54559 4.14801 6.65218 4.22859 6.74 4.32758L26.74 26.3276ZM31.4713 9.12508C31.3118 9.03961 31.1321 8.999 30.9514 9.00759C30.7707 9.01617 30.5956 9.07363 30.445 9.17383L26.445 11.8413C26.3082 11.9326 26.196 12.0562 26.1184 12.2012C26.0408 12.3462 26.0001 12.5081 26 12.6726V19.3401C26.0001 19.5045 26.0408 19.6665 26.1184 19.8114C26.196 19.9564 26.3082 20.0801 26.445 20.1713L30.445 22.8388C30.6101 22.946 30.8032 23.0021 31 23.0001C31.2652 23.0001 31.5196 22.8947 31.7071 22.7072C31.8946 22.5197 32 22.2653 32 22.0001V10.0001C31.9987 9.82016 31.949 9.6439 31.8559 9.48991C31.7628 9.33591 31.63 9.20987 31.4713 9.12508ZM22.26 18.4326C22.3963 18.5826 22.575 18.6876 22.7724 18.7338C22.9698 18.7799 23.1765 18.765 23.3652 18.691C23.5539 18.617 23.7157 18.4873 23.829 18.3193C23.9424 18.1513 24.002 17.9528 24 17.7501V9.00008C24 8.46965 23.7893 7.96094 23.4142 7.58587C23.0391 7.2108 22.5304 7.00008 22 7.00008H14.1325C13.9388 7.0001 13.7493 7.05638 13.5869 7.16207C13.4246 7.26777 13.2965 7.41833 13.2181 7.59547C13.1397 7.77261 13.1145 7.96869 13.1455 8.15991C13.1764 8.35112 13.2622 8.52922 13.3925 8.67258L22.26 18.4326Z" fill="#4A4A4F"/>
</svg>
