<svg width="32" height="32" viewBox="0 0 32 32" fill="none" xmlns="http://www.w3.org/2000/svg">
<path d="M16 3C13.4288 3 10.9154 3.76244 8.77759 5.1909C6.63975 6.61935 4.97351 8.64968 3.98957 11.0251C3.00563 13.4006 2.74819 16.0144 3.2498 18.5362C3.75141 21.0579 4.98953 23.3743 6.80762 25.1924C8.6257 27.0105 10.9421 28.2486 13.4638 28.7502C15.9856 29.2518 18.5995 28.9944 20.9749 28.0104C23.3503 27.0265 25.3807 25.3603 26.8091 23.2224C28.2376 21.0846 29 18.5712 29 16C28.9964 12.5533 27.6256 9.24882 25.1884 6.81163C22.7512 4.37445 19.4467 3.00364 16 3ZM16 27C13.8244 27 11.6977 26.3549 9.88873 25.1462C8.07979 23.9375 6.66989 22.2195 5.83733 20.2095C5.00477 18.1995 4.78693 15.9878 5.21137 13.854C5.63581 11.7202 6.68345 9.7602 8.22183 8.22183C9.76021 6.68345 11.7202 5.6358 13.854 5.21136C15.9878 4.78692 18.1995 5.00476 20.2095 5.83733C22.2195 6.66989 23.9375 8.07979 25.1462 9.88873C26.3549 11.6977 27 13.8244 27 16C26.9967 18.9164 25.8367 21.7123 23.7745 23.7745C21.7123 25.8367 18.9164 26.9967 16 27ZM16 9C14.1441 9.00199 12.3648 9.74012 11.0525 11.0524C9.74013 12.3648 9.00199 14.1441 9.00001 16C9.00001 16.2652 8.89465 16.5196 8.70711 16.7071C8.51958 16.8946 8.26522 17 8.00001 17C7.73479 17 7.48044 16.8946 7.2929 16.7071C7.10536 16.5196 7.00001 16.2652 7.00001 16C7.00265 13.6139 7.95171 11.3262 9.63897 9.63896C11.3262 7.95171 13.6139 7.00265 16 7C16.2652 7 16.5196 7.10536 16.7071 7.29289C16.8946 7.48043 17 7.73478 17 8C17 8.26522 16.8946 8.51957 16.7071 8.70711C16.5196 8.89464 16.2652 9 16 9ZM25 16C24.9974 18.3861 24.0483 20.6738 22.361 22.361C20.6738 24.0483 18.3861 24.9974 16 25C15.7348 25 15.4804 24.8946 15.2929 24.7071C15.1054 24.5196 15 24.2652 15 24C15 23.7348 15.1054 23.4804 15.2929 23.2929C15.4804 23.1054 15.7348 23 16 23C17.8559 22.998 19.6352 22.2599 20.9476 20.9476C22.2599 19.6352 22.998 17.8559 23 16C23 15.7348 23.1054 15.4804 23.2929 15.2929C23.4804 15.1054 23.7348 15 24 15C24.2652 15 24.5196 15.1054 24.7071 15.2929C24.8946 15.4804 25 15.7348 25 16ZM20 16C20 15.2089 19.7654 14.4355 19.3259 13.7777C18.8864 13.1199 18.2616 12.6072 17.5307 12.3045C16.7998 12.0017 15.9956 11.9225 15.2196 12.0769C14.4437 12.2312 13.731 12.6122 13.1716 13.1716C12.6122 13.731 12.2312 14.4437 12.0769 15.2196C11.9225 15.9956 12.0017 16.7998 12.3045 17.5307C12.6072 18.2616 13.1199 18.8864 13.7777 19.3259C14.4355 19.7654 15.2089 20 16 20C17.0609 20 18.0783 19.5786 18.8284 18.8284C19.5786 18.0783 20 17.0609 20 16ZM14 16C14 15.6044 14.1173 15.2178 14.3371 14.8889C14.5568 14.56 14.8692 14.3036 15.2346 14.1522C15.6001 14.0009 16.0022 13.9613 16.3902 14.0384C16.7781 14.1156 17.1345 14.3061 17.4142 14.5858C17.6939 14.8655 17.8844 15.2219 17.9616 15.6098C18.0387 15.9978 17.9991 16.3999 17.8478 16.7654C17.6964 17.1308 17.44 17.4432 17.1111 17.6629C16.7822 17.8827 16.3956 18 16 18C15.4696 18 14.9609 17.7893 14.5858 17.4142C14.2107 17.0391 14 16.5304 14 16Z" fill="#4A4A4F"/>
</svg>
