<svg width="32" height="32" viewBox="0 0 32 32" fill="none" xmlns="http://www.w3.org/2000/svg">
<path d="M15.4263 12.375L12.1763 20.375C12.1013 20.5592 11.9732 20.7168 11.8082 20.8278C11.6432 20.9388 11.4488 20.9981 11.25 20.9981C11.0512 20.9981 10.8568 20.9388 10.6918 20.8278C10.5268 20.7168 10.3987 20.5592 10.3237 20.375L7.07375 12.375C7.01858 12.2523 6.98873 12.1198 6.98599 11.9853C6.98324 11.8508 7.00766 11.7172 7.05777 11.5923C7.10788 11.4675 7.18266 11.3541 7.27764 11.2588C7.37261 11.1636 7.48583 11.0884 7.61051 11.038C7.73519 10.9875 7.86877 10.9627 8.00327 10.965C8.13776 10.9674 8.27039 10.9968 8.39323 11.0516C8.51607 11.1065 8.62659 11.1855 8.71818 11.284C8.80976 11.3825 8.88053 11.4985 8.92625 11.625L11.25 17.3425L13.5737 11.625C13.6195 11.4985 13.6902 11.3825 13.7818 11.284C13.8734 11.1855 13.9839 11.1065 14.1068 11.0516C14.2296 10.9968 14.3622 10.9674 14.4967 10.965C14.6312 10.9627 14.7648 10.9875 14.8895 11.038C15.0142 11.0884 15.1274 11.1636 15.2224 11.2588C15.3173 11.3541 15.3921 11.4675 15.4422 11.5923C15.4923 11.7172 15.5168 11.8508 15.514 11.9853C15.5113 12.1198 15.4814 12.2523 15.4263 12.375ZM32 16C31.997 18.6513 30.9425 21.1931 29.0678 23.0678C27.1931 24.9425 24.6513 25.997 22 26H10C7.34784 26 4.8043 24.9464 2.92893 23.0711C1.05357 21.1957 0 18.6522 0 16C0 13.3478 1.05357 10.8043 2.92893 8.92893C4.8043 7.05357 7.34784 6 10 6H22C24.6513 6.00298 27.1931 7.0575 29.0678 8.93222C30.9425 10.8069 31.997 13.3487 32 16ZM30 16C29.9977 13.879 29.1541 11.8455 27.6543 10.3457C26.1545 8.84591 24.121 8.00232 22 8H10C7.87827 8 5.84344 8.84285 4.34315 10.3431C2.84285 11.8434 2 13.8783 2 16C2 18.1217 2.84285 20.1566 4.34315 21.6569C5.84344 23.1571 7.87827 24 10 24H22C24.121 23.9977 26.1545 23.1541 27.6543 21.6543C29.1541 20.1545 29.9977 18.121 30 16ZM22.605 17.2938L23.875 19.5C24.0066 19.7304 24.0413 20.0037 23.9715 20.2596C23.9016 20.5156 23.7329 20.7334 23.5025 20.865C23.2721 20.9966 22.9988 21.0313 22.7429 20.9615C22.4869 20.8916 22.2691 20.7229 22.1375 20.4925L20.7075 17.9925C20.6413 17.9925 20.5737 17.9988 20.5063 17.9988H19V19.9988C19 20.264 18.8946 20.5183 18.7071 20.7059C18.5196 20.8934 18.2652 20.9988 18 20.9988C17.7348 20.9988 17.4804 20.8934 17.2929 20.7059C17.1054 20.5183 17 20.264 17 19.9988V12C17 11.7348 17.1054 11.4804 17.2929 11.2929C17.4804 11.1054 17.7348 11 18 11H20.5C21.2334 11.0007 21.9481 11.2318 22.5431 11.6606C23.1381 12.0894 23.5833 12.6943 23.816 13.3898C24.0486 14.0854 24.0569 14.8364 23.8396 15.5369C23.6223 16.2374 23.1904 16.852 22.605 17.2938ZM19 16H20.5C20.8978 16 21.2794 15.842 21.5607 15.5607C21.842 15.2794 22 14.8978 22 14.5C22 14.1022 21.842 13.7206 21.5607 13.4393C21.2794 13.158 20.8978 13 20.5 13H19V16Z" fill="#4A4A4F"/>
</svg>
