<svg width="32" height="32" viewBox="0 0 32 32" fill="none" xmlns="http://www.w3.org/2000/svg">
<path d="M22 14.5C22 14.8978 21.842 15.2794 21.5607 15.5607C21.2794 15.842 20.8978 16 20.5 16H19V13H20.5C20.8978 13 21.2794 13.158 21.5607 13.4393C21.842 13.7206 22 14.1022 22 14.5ZM32 16C31.997 18.6513 30.9425 21.1931 29.0678 23.0678C27.1931 24.9425 24.6513 25.997 22 26H10C7.34784 26 4.8043 24.9464 2.92893 23.0711C1.05357 21.1957 0 18.6522 0 16C0 13.3478 1.05357 10.8043 2.92893 8.92893C4.8043 7.05357 7.34784 6 10 6H22C24.6513 6.00298 27.1931 7.0575 29.0678 8.93222C30.9425 10.8069 31.997 13.3487 32 16ZM14.875 11.0737C14.6293 10.9745 14.3543 10.9768 14.1103 11.0802C13.8663 11.1835 13.6734 11.3795 13.5737 11.625L11.25 17.3425L8.92625 11.625C8.88053 11.4985 8.80976 11.3825 8.71818 11.284C8.62659 11.1855 8.51607 11.1065 8.39323 11.0516C8.27039 10.9968 8.13776 10.9674 8.00327 10.965C7.86877 10.9627 7.73519 10.9875 7.61051 11.038C7.48583 11.0884 7.37261 11.1636 7.27764 11.2588C7.18266 11.3541 7.10788 11.4675 7.05777 11.5923C7.00766 11.7172 6.98324 11.8508 6.98599 11.9853C6.98873 12.1198 7.01858 12.2523 7.07375 12.375L10.3237 20.375C10.3987 20.5592 10.5268 20.7168 10.6918 20.8278C10.8568 20.9388 11.0512 20.9981 11.25 20.9981C11.4488 20.9981 11.6432 20.9388 11.8082 20.8278C11.9732 20.7168 12.1013 20.5592 12.1763 20.375L15.4263 12.375C15.5255 12.1293 15.5232 11.8543 15.4198 11.6103C15.3165 11.3663 15.1205 11.1734 14.875 11.0737ZM22.6038 17.2938C23.1891 16.852 23.6209 16.2376 23.8382 15.5372C24.0555 14.8369 24.0474 14.0859 23.8149 13.3904C23.5824 12.6949 23.1374 12.09 22.5426 11.6611C21.9478 11.2322 21.2333 11.001 20.5 11H18C17.7348 11 17.4804 11.1054 17.2929 11.2929C17.1054 11.4804 17 11.7348 17 12V20C17 20.2652 17.1054 20.5196 17.2929 20.7071C17.4804 20.8946 17.7348 21 18 21C18.2652 21 18.5196 20.8946 18.7071 20.7071C18.8946 20.5196 19 20.2652 19 20V18H20.5C20.5675 18 20.635 18 20.7013 17.9937L22.1313 20.4937C22.263 20.725 22.4813 20.8944 22.738 20.9647C22.9947 21.0351 23.2688 21.0005 23.5 20.8687C23.7312 20.737 23.9007 20.5187 23.971 20.262C24.0413 20.0053 24.0068 19.7312 23.875 19.5L22.6038 17.2938Z" fill="#4A4A4F"/>
</svg>
