<svg width="32" height="32" viewBox="0 0 32 32" fill="none" xmlns="http://www.w3.org/2000/svg">
<path d="M17 13.5C17 12.8078 16.7947 12.1311 16.4101 11.5555C16.0256 10.9799 15.4789 10.5313 14.8394 10.2664C14.1999 10.0015 13.4961 9.9322 12.8172 10.0673C12.1383 10.2023 11.5146 10.5356 11.0251 11.0251C10.5356 11.5146 10.2023 12.1383 10.0673 12.8172C9.9322 13.4961 10.0015 14.1999 10.2664 14.8394C10.5313 15.4789 10.9799 16.0256 11.5555 16.4101C12.1311 16.7947 12.8078 17 13.5 17C14.4283 17 15.3185 16.6313 15.9749 15.9749C16.6313 15.3185 17 14.4283 17 13.5ZM13.5 15C13.2033 15 12.9133 14.912 12.6666 14.7472C12.42 14.5824 12.2277 14.3481 12.1142 14.074C12.0006 13.7999 11.9709 13.4983 12.0288 13.2074C12.0867 12.9164 12.2296 12.6491 12.4393 12.4393C12.6491 12.2296 12.9164 12.0867 13.2074 12.0288C13.4983 11.9709 13.7999 12.0006 14.074 12.1142C14.3481 12.2277 14.5824 12.42 14.7472 12.6666C14.912 12.9133 15 13.2033 15 13.5C15 13.8978 14.842 14.2794 14.5607 14.5607C14.2794 14.842 13.8978 15 13.5 15ZM22 14C22.3956 14 22.7822 14.1173 23.1111 14.3371C23.44 14.5568 23.6964 14.8692 23.8478 15.2346C23.9991 15.6001 24.0387 16.0022 23.9616 16.3902C23.8844 16.7781 23.6939 17.1345 23.4142 17.4142C23.1345 17.6939 22.7781 17.8844 22.3902 17.9616C22.0022 18.0387 21.6001 17.9991 21.2346 17.8478C20.8692 17.6964 20.5568 17.44 20.3371 17.1111C20.1173 16.7822 20 16.3956 20 16C20 15.4696 20.2107 14.9609 20.5858 14.5858C20.9609 14.2107 21.4696 14 22 14ZM18 22C18 22.3956 17.8827 22.7822 17.6629 23.1111C17.4432 23.44 17.1308 23.6964 16.7654 23.8478C16.3999 23.9991 15.9978 24.0387 15.6098 23.9616C15.2219 23.8844 14.8655 23.6939 14.5858 23.4142C14.3061 23.1345 14.1156 22.7781 14.0384 22.3902C13.9613 22.0022 14.0009 21.6001 14.1522 21.2346C14.3036 20.8692 14.56 20.5568 14.8889 20.3371C15.2178 20.1173 15.6044 20 16 20C16.5304 20 17.0391 20.2107 17.4142 20.5858C17.7893 20.9609 18 21.4696 18 22ZM30 15H27.9575C27.7516 12.515 26.773 10.1568 25.1588 8.25625L26.7075 6.7075C26.8951 6.51986 27.0006 6.26536 27.0006 6C27.0006 5.73464 26.8951 5.48014 26.7075 5.2925C26.5199 5.10486 26.2654 4.99944 26 4.99944C25.7346 4.99944 25.4801 5.10486 25.2925 5.2925L23.75 6.84125C21.8478 5.22584 19.4872 4.24708 17 4.0425V2C17 1.73478 16.8946 1.48043 16.7071 1.29289C16.5196 1.10536 16.2652 1 16 1C15.7348 1 15.4804 1.10536 15.2929 1.29289C15.1054 1.48043 15 1.73478 15 2V4.0425C12.515 4.24835 10.1568 5.22705 8.25625 6.84125L6.7075 5.2925C6.51986 5.10486 6.26536 4.99944 6 4.99944C5.73464 4.99944 5.48014 5.10486 5.2925 5.2925C5.10486 5.48014 4.99944 5.73464 4.99944 6C4.99944 6.26536 5.10486 6.51986 5.2925 6.7075L6.84125 8.25625C5.22584 10.1585 4.24708 12.5191 4.0425 15.0063H2C1.73478 15.0063 1.48043 15.1116 1.29289 15.2991C1.10536 15.4867 1 15.741 1 16.0063C1 16.2715 1.10536 16.5258 1.29289 16.7134C1.48043 16.9009 1.73478 17.0063 2 17.0063H4.0425C4.24835 19.4913 5.22705 21.8495 6.84125 23.75L5.2925 25.2925C5.10486 25.4801 4.99944 25.7346 4.99944 26C4.99944 26.2654 5.10486 26.5199 5.2925 26.7075C5.48014 26.8951 5.73464 27.0006 6 27.0006C6.26536 27.0006 6.51986 26.8951 6.7075 26.7075L8.25625 25.1588C10.1585 26.7742 12.5191 27.7529 15.0063 27.9575V30C15.0063 30.2652 15.1116 30.5196 15.2991 30.7071C15.4867 30.8946 15.741 31 16.0063 31C16.2715 31 16.5258 30.8946 16.7134 30.7071C16.9009 30.5196 17.0063 30.2652 17.0063 30V27.9575C19.4913 27.7516 21.8495 26.773 23.75 25.1588L25.2987 26.7075C25.4864 26.8951 25.7409 27.0006 26.0063 27.0006C26.2716 27.0006 26.5261 26.8951 26.7138 26.7075C26.9014 26.5199 27.0068 26.2654 27.0068 26C27.0068 25.7346 26.9014 25.4801 26.7138 25.2925L25.1588 23.75C26.7742 21.8478 27.7529 19.4872 27.9575 17H30C30.2652 17 30.5196 16.8946 30.7071 16.7071C30.8946 16.5196 31 16.2652 31 16C31 15.7348 30.8946 15.4804 30.7071 15.2929C30.5196 15.1054 30.2652 15 30 15ZM16 26C14.0222 26 12.0888 25.4135 10.4443 24.3147C8.79981 23.2159 7.51808 21.6541 6.7612 19.8268C6.00433 17.9996 5.80629 15.9889 6.19215 14.0491C6.578 12.1093 7.53041 10.3275 8.92893 8.92893C10.3275 7.53041 12.1093 6.578 14.0491 6.19215C15.9889 5.80629 17.9996 6.00433 19.8268 6.7612C21.6541 7.51808 23.2159 8.79981 24.3147 10.4443C25.4135 12.0888 26 14.0222 26 16C25.997 18.6513 24.9425 21.1931 23.0678 23.0678C21.1931 24.9425 18.6513 25.997 16 26Z" fill="#4A4A4F"/>
</svg>
