<svg width="32" height="32" viewBox="0 0 32 32" fill="none" xmlns="http://www.w3.org/2000/svg">
<path d="M30 15H27.9575C27.7516 12.515 26.773 10.1568 25.1588 8.25625L26.7075 6.7075C26.8951 6.51986 27.0006 6.26536 27.0006 6C27.0006 5.73464 26.8951 5.48014 26.7075 5.2925C26.5199 5.10486 26.2654 4.99944 26 4.99944C25.7346 4.99944 25.4801 5.10486 25.2925 5.2925L23.75 6.84125C21.8478 5.22584 19.4872 4.24708 17 4.0425V2C17 1.73478 16.8946 1.48043 16.7071 1.29289C16.5196 1.10536 16.2652 1 16 1C15.7348 1 15.4804 1.10536 15.2929 1.29289C15.1054 1.48043 15 1.73478 15 2V4.0425C12.515 4.24835 10.1568 5.22705 8.25625 6.84125L6.7075 5.2925C6.51986 5.10486 6.26536 4.99944 6 4.99944C5.73464 4.99944 5.48014 5.10486 5.2925 5.2925C5.10486 5.48014 4.99944 5.73464 4.99944 6C4.99944 6.26536 5.10486 6.51986 5.2925 6.7075L6.84125 8.25625C5.22584 10.1585 4.24708 12.5191 4.0425 15.0063H2C1.73478 15.0063 1.48043 15.1116 1.29289 15.2991C1.10536 15.4867 1 15.741 1 16.0063C1 16.2715 1.10536 16.5258 1.29289 16.7134C1.48043 16.9009 1.73478 17.0063 2 17.0063H4.0425C4.24835 19.4913 5.22705 21.8495 6.84125 23.75L5.2925 25.2925C5.10486 25.4801 4.99944 25.7346 4.99944 26C4.99944 26.2654 5.10486 26.5199 5.2925 26.7075C5.48014 26.8951 5.73464 27.0006 6 27.0006C6.26536 27.0006 6.51986 26.8951 6.7075 26.7075L8.25625 25.1588C10.1585 26.7742 12.5191 27.7529 15.0063 27.9575V30C15.0063 30.2652 15.1116 30.5196 15.2991 30.7071C15.4867 30.8946 15.741 31 16.0063 31C16.2715 31 16.5258 30.8946 16.7134 30.7071C16.9009 30.5196 17.0063 30.2652 17.0063 30V27.9575C19.4913 27.7516 21.8495 26.773 23.75 25.1588L25.2987 26.7075C25.4864 26.8951 25.7409 27.0006 26.0063 27.0006C26.2716 27.0006 26.5261 26.8951 26.7138 26.7075C26.9014 26.5199 27.0068 26.2654 27.0068 26C27.0068 25.7346 26.9014 25.4801 26.7138 25.2925L25.1588 23.75C26.7742 21.8478 27.7529 19.4872 27.9575 17H30C30.2652 17 30.5196 16.8946 30.7071 16.7071C30.8946 16.5196 31 16.2652 31 16C31 15.7348 30.8946 15.4804 30.7071 15.2929C30.5196 15.1054 30.2652 15 30 15ZM10 13.5C10 12.8078 10.2053 12.1311 10.5899 11.5555C10.9744 10.9799 11.5211 10.5313 12.1606 10.2664C12.8001 10.0015 13.5039 9.9322 14.1828 10.0673C14.8617 10.2023 15.4854 10.5356 15.9749 11.0251C16.4644 11.5146 16.7977 12.1383 16.9327 12.8172C17.0678 13.4961 16.9985 14.1999 16.7336 14.8394C16.4687 15.4789 16.0201 16.0256 15.4445 16.4101C14.8689 16.7947 14.1922 17 13.5 17C12.5717 17 11.6815 16.6313 11.0251 15.9749C10.3687 15.3185 10 14.4283 10 13.5ZM16 24C15.6044 24 15.2178 23.8827 14.8889 23.6629C14.56 23.4432 14.3036 23.1308 14.1522 22.7654C14.0009 22.3999 13.9613 21.9978 14.0384 21.6098C14.1156 21.2219 14.3061 20.8655 14.5858 20.5858C14.8655 20.3061 15.2219 20.1156 15.6098 20.0384C15.9978 19.9613 16.3999 20.0009 16.7654 20.1522C17.1308 20.3036 17.4432 20.56 17.6629 20.8889C17.8827 21.2178 18 21.6044 18 22C18 22.5304 17.7893 23.0391 17.4142 23.4142C17.0391 23.7893 16.5304 24 16 24ZM22 18C21.6044 18 21.2178 17.8827 20.8889 17.6629C20.56 17.4432 20.3036 17.1308 20.1522 16.7654C20.0009 16.3999 19.9613 15.9978 20.0384 15.6098C20.1156 15.2219 20.3061 14.8655 20.5858 14.5858C20.8655 14.3061 21.2219 14.1156 21.6098 14.0384C21.9978 13.9613 22.3999 14.0009 22.7654 14.1522C23.1308 14.3036 23.4432 14.56 23.6629 14.8889C23.8827 15.2178 24 15.6044 24 16C24 16.5304 23.7893 17.0391 23.4142 17.4142C23.0391 17.7893 22.5304 18 22 18Z" fill="#4A4A4F"/>
</svg>
