<svg width="32" height="32" viewBox="0 0 32 32" fill="none" xmlns="http://www.w3.org/2000/svg">
<path d="M25.0001 9C23.6101 9.00129 22.252 9.41637 21.0988 10.1924C19.9455 10.9684 19.0494 12.0701 18.5247 13.3572C17.9999 14.6444 17.8702 16.0586 18.1521 17.4197C18.434 18.7808 19.1148 20.0272 20.1076 21H11.8926C13.0518 19.8643 13.7803 18.361 13.9536 16.7475C14.1269 15.1339 13.7342 13.5103 12.8427 12.1543C11.9511 10.7983 10.6161 9.79424 9.06601 9.3138C7.51593 8.83336 5.84708 8.90642 4.34491 9.52049C2.84274 10.1346 1.60061 11.2515 0.830964 12.6802C0.0613228 14.1089 -0.188 15.7607 0.125643 17.3529C0.439287 18.9451 1.29641 20.3789 2.55039 21.409C3.80438 22.4391 5.37732 23.0015 7.00015 23H25.0001C26.8567 23 28.6371 22.2625 29.9499 20.9497C31.2626 19.637 32.0001 17.8565 32.0001 16C32.0001 14.1435 31.2626 12.363 29.9499 11.0503C28.6371 9.7375 26.8567 9 25.0001 9ZM7.00015 21C6.01124 21 5.04454 20.7068 4.2223 20.1573C3.40005 19.6079 2.75919 18.827 2.38075 17.9134C2.00231 16.9998 1.90329 15.9945 2.09622 15.0245C2.28915 14.0546 2.76535 13.1637 3.46461 12.4645C4.16388 11.7652 5.05479 11.289 6.02469 11.0961C6.9946 10.9031 7.99993 11.0022 8.91356 11.3806C9.82719 11.759 10.6081 12.3999 11.1575 13.2221C11.7069 14.0444 12.0001 15.0111 12.0001 16C12.0001 16.6566 11.8708 17.3068 11.6195 17.9134C11.3683 18.52 11 19.0712 10.5357 19.5355C10.0714 19.9998 9.52019 20.3681 8.91356 20.6194C8.30693 20.8707 7.65676 21 7.00015 21ZM25.0001 21C24.0112 21 23.0445 20.7068 22.2223 20.1573C21.4 19.6079 20.7592 18.827 20.3807 17.9134C20.0023 16.9998 19.9033 15.9945 20.0962 15.0245C20.2891 14.0546 20.7654 13.1637 21.4646 12.4645C22.1639 11.7652 23.0548 11.289 24.0247 11.0961C24.9946 10.9031 25.9999 11.0022 26.9136 11.3806C27.8272 11.759 28.6081 12.3999 29.1575 13.2221C29.7069 14.0444 30.0001 15.0111 30.0001 16C30.0001 17.3261 29.4734 18.5979 28.5357 19.5355C27.598 20.4732 26.3262 21 25.0001 21ZM28.0001 16C28.0001 16.5933 27.8242 17.1734 27.4946 17.6667C27.1649 18.1601 26.6964 18.5446 26.1482 18.7716C25.6 18.9987 24.9968 19.0581 24.4149 18.9424C23.8329 18.8266 23.2984 18.5409 22.8788 18.1213C22.4593 17.7018 22.1735 17.1672 22.0578 16.5853C21.942 16.0033 22.0014 15.4001 22.2285 14.8519C22.4556 14.3038 22.8401 13.8352 23.3334 13.5056C23.8268 13.1759 24.4068 13 25.0001 13C25.7958 13 26.5589 13.3161 27.1215 13.8787C27.6841 14.4413 28.0001 15.2044 28.0001 16ZM10.0001 16C10.0001 16.5933 9.8242 17.1734 9.49455 17.6667C9.16491 18.1601 8.69637 18.5446 8.1482 18.7716C7.60002 18.9987 6.99682 19.0581 6.41488 18.9424C5.83293 18.8266 5.29838 18.5409 4.87883 18.1213C4.45927 17.7018 4.17355 17.1672 4.05779 16.5853C3.94204 16.0033 4.00145 15.4001 4.22851 14.8519C4.45557 14.3038 4.84009 13.8352 5.33344 13.5056C5.82678 13.1759 6.4068 13 7.00015 13C7.7958 13 8.55886 13.3161 9.12147 13.8787C9.68408 14.4413 10.0001 15.2044 10.0001 16Z" fill="#4A4A4F"/>
</svg>
