<svg width="32" height="32" viewBox="0 0 32 32" fill="none" xmlns="http://www.w3.org/2000/svg">
<path d="M25.0001 9C23.6101 9.00129 22.252 9.41637 21.0988 10.1924C19.9455 10.9684 19.0494 12.0701 18.5247 13.3572C17.9999 14.6444 17.8702 16.0586 18.1521 17.4197C18.434 18.7808 19.1148 20.0272 20.1076 21H11.8926C13.0518 19.8643 13.7803 18.361 13.9536 16.7475C14.1269 15.1339 13.7342 13.5103 12.8427 12.1543C11.9511 10.7983 10.6161 9.79424 9.06601 9.3138C7.51593 8.83336 5.84708 8.90642 4.34491 9.52049C2.84274 10.1346 1.60061 11.2515 0.830964 12.6802C0.0613228 14.1089 -0.188 15.7607 0.125643 17.3529C0.439287 18.9451 1.29641 20.3789 2.55039 21.409C3.80438 22.4391 5.37732 23.0015 7.00015 23H25.0001C26.8567 23 28.6371 22.2625 29.9499 20.9497C31.2626 19.637 32.0001 17.8565 32.0001 16C32.0001 14.1435 31.2626 12.363 29.9499 11.0503C28.6371 9.7375 26.8567 9 25.0001 9ZM2.00015 16C2.00015 15.0111 2.29339 14.0444 2.8428 13.2221C3.39221 12.3999 4.1731 11.759 5.08673 11.3806C6.00036 11.0022 7.00569 10.9031 7.9756 11.0961C8.9455 11.289 9.83642 11.7652 10.5357 12.4645C11.2349 13.1637 11.7111 14.0546 11.9041 15.0245C12.097 15.9945 11.998 16.9998 11.6195 17.9134C11.2411 18.827 10.6002 19.6079 9.778 20.1573C8.95575 20.7068 7.98905 21 7.00015 21C5.67406 21 4.40229 20.4732 3.46461 19.5355C2.52693 18.5979 2.00015 17.3261 2.00015 16ZM25.0001 21C24.0112 21 23.0445 20.7068 22.2223 20.1573C21.4 19.6079 20.7592 18.827 20.3807 17.9134C20.0023 16.9998 19.9033 15.9945 20.0962 15.0245C20.2891 14.0546 20.7654 13.1637 21.4646 12.4645C22.1639 11.7652 23.0548 11.289 24.0247 11.0961C24.9946 10.9031 25.9999 11.0022 26.9136 11.3806C27.8272 11.759 28.6081 12.3999 29.1575 13.2221C29.7069 14.0444 30.0001 15.0111 30.0001 16C30.0001 17.3261 29.4734 18.5979 28.5357 19.5355C27.598 20.4732 26.3262 21 25.0001 21Z" fill="#4A4A4F"/>
</svg>
