<svg width="32" height="32" viewBox="0 0 32 32" fill="none" xmlns="http://www.w3.org/2000/svg">
<path d="M16 3C13.4288 3 10.9154 3.76244 8.77759 5.1909C6.63975 6.61935 4.97351 8.64968 3.98957 11.0251C3.00563 13.4006 2.74819 16.0144 3.2498 18.5362C3.75141 21.0579 4.98953 23.3743 6.80762 25.1924C8.6257 27.0105 10.9421 28.2486 13.4638 28.7502C15.9856 29.2518 18.5995 28.9944 20.9749 28.0104C23.3503 27.0265 25.3807 25.3603 26.8091 23.2224C28.2376 21.0846 29 18.5712 29 16C28.9964 12.5533 27.6256 9.24882 25.1884 6.81163C22.7512 4.37445 19.4467 3.00364 16 3ZM26.9538 15H22.6713C22.665 13.1456 22.2628 11.3139 21.4914 9.62744C20.7201 7.94102 19.5975 6.43878 18.1988 5.22125C20.5136 5.69731 22.6141 6.90475 24.1904 8.66544C25.7668 10.4261 26.7355 12.6468 26.9538 15ZM5.56626 19.4837C4.8175 17.2418 4.81125 14.8182 5.54844 12.5725C6.28562 10.3267 7.72698 8.3783 9.65876 7.01625L11.7988 10.7225C10.1958 11.6547 8.81056 12.9186 7.7357 14.4296C6.66083 15.9406 5.92118 17.6637 5.56626 19.4837ZM7.36251 22.8037C7.20447 20.7422 7.63065 18.6779 8.59217 16.8475C9.55369 15.0171 11.0116 13.4947 12.7988 12.455L14.845 16L9.65876 24.9837C8.7929 24.3708 8.01959 23.6366 7.36251 22.8037ZM26.2175 20.0725C24.5111 21.2422 22.5095 21.907 20.4424 21.9906C18.3753 22.0742 16.3265 21.5731 14.5313 20.545L16.5775 17H26.9525C26.8581 18.0544 26.6105 19.0895 26.2175 20.0725Z" fill="#4A4A4F"/>
</svg>
