<svg width="32" height="32" viewBox="0 0 32 32" fill="none" xmlns="http://www.w3.org/2000/svg">
<path d="M30 23H29V7.23749L30.2087 6.97749C30.3399 6.95289 30.4649 6.90227 30.5762 6.82862C30.6875 6.75497 30.783 6.65978 30.8569 6.54866C30.9309 6.43754 30.9818 6.31274 31.0068 6.18162C31.0317 6.05049 31.0302 5.9157 31.0022 5.78519C30.9743 5.65467 30.9205 5.53107 30.844 5.42167C30.7675 5.31228 30.6699 5.2193 30.5569 5.14822C30.444 5.07714 30.3179 5.02939 30.1862 5.0078C30.0545 4.98621 29.9198 4.9912 29.79 5.02249L1.79 11.0225C1.54878 11.0745 1.33533 11.214 1.19069 11.4139C1.04606 11.6138 0.980465 11.8602 1.00652 12.1056C1.03258 12.351 1.14846 12.5781 1.33186 12.7432C1.51526 12.9083 1.75323 12.9998 2 13C2.07101 12.9999 2.14181 12.9923 2.21125 12.9775L3 12.8087V23H2C1.73478 23 1.48043 23.1053 1.29289 23.2929C1.10536 23.4804 1 23.7348 1 24C1 24.2652 1.10536 24.5196 1.29289 24.7071C1.48043 24.8946 1.73478 25 2 25H30C30.2652 25 30.5196 24.8946 30.7071 24.7071C30.8946 24.5196 31 24.2652 31 24C31 23.7348 30.8946 23.4804 30.7071 23.2929C30.5196 23.1053 30.2652 23 30 23ZM23 23H9V21H23V23ZM23 19H9V17H23V19Z" fill="#4A4A4F"/>
</svg>
