<svg width="32" height="32" viewBox="0 0 32 32" fill="none" xmlns="http://www.w3.org/2000/svg">
<path d="M15.9999 9.00006C16.2651 9.00006 16.5195 9.10542 16.707 9.29296C16.8945 9.48049 16.9999 9.73485 16.9999 10.0001V17.0001C16.9999 17.2653 16.8945 17.5196 16.707 17.7072C16.5195 17.8947 16.2651 18.0001 15.9999 18.0001C15.7347 18.0001 15.4803 17.8947 15.2928 17.7072C15.1052 17.5196 14.9999 17.2653 14.9999 17.0001V10.0001C14.9999 9.73485 15.1052 9.48049 15.2928 9.29296C15.4803 9.10542 15.7347 9.00006 15.9999 9.00006ZM14.4999 21.5001C14.4999 21.7967 14.5879 22.0867 14.7527 22.3334C14.9175 22.5801 15.1518 22.7723 15.4259 22.8859C15.7 22.9994 16.0015 23.0291 16.2925 22.9712C16.5835 22.9134 16.8508 22.7705 17.0605 22.5607C17.2703 22.3509 17.4132 22.0837 17.4711 21.7927C17.5289 21.5017 17.4992 21.2001 17.3857 20.926C17.2722 20.6519 17.0799 20.4177 16.8332 20.2529C16.5866 20.088 16.2966 20.0001 15.9999 20.0001C15.6021 20.0001 15.2205 20.1581 14.9392 20.4394C14.6579 20.7207 14.4999 21.1022 14.4999 21.5001ZM29.9999 16.0001C30.0006 16.262 29.9494 16.5215 29.8492 16.7635C29.749 17.0055 29.6018 17.2253 29.4161 17.4101L17.4099 29.4176C17.0352 29.7901 16.5283 29.9991 15.9999 29.9991C15.4715 29.9991 14.9646 29.7901 14.5899 29.4176L2.58989 17.4101C2.21738 17.0353 2.0083 16.5284 2.0083 16.0001C2.0083 15.4717 2.21738 14.9648 2.58989 14.5901L14.5961 2.58256C14.9709 2.21006 15.4778 2.00098 16.0061 2.00098C16.5345 2.00098 17.0414 2.21006 17.4161 2.58256L29.4224 14.5901C29.6069 14.7753 29.753 14.9953 29.8521 15.2373C29.9512 15.4793 30.0014 15.7386 29.9999 16.0001ZM27.9999 16.0001L15.9999 4.00006L3.99989 16.0001L15.9999 28.0001L27.9999 16.0001Z" fill="#4A4A4F"/>
</svg>
