<svg width="32" height="32" viewBox="0 0 32 32" fill="none" xmlns="http://www.w3.org/2000/svg">
<path d="M29.6001 23.5113L18.6689 4.52758C18.3957 4.06249 18.0057 3.67686 17.5376 3.40891C17.0695 3.14096 16.5395 3 16.0001 3C15.4607 3 14.9307 3.14096 14.4626 3.40891C13.9945 3.67686 13.6045 4.06249 13.3314 4.52758L2.40012 23.5113C2.13729 23.9612 1.99878 24.4728 1.99878 24.9938C1.99878 25.5148 2.13729 26.0265 2.40012 26.4763C2.66978 26.9442 3.05908 27.332 3.52807 27.5997C3.99706 27.8675 4.52885 28.0057 5.06887 28.0001H26.9314C27.471 28.0052 28.0022 27.8669 28.4707 27.5991C28.9393 27.3314 29.3282 26.9439 29.5976 26.4763C29.8608 26.0267 29.9998 25.5152 30.0002 24.9942C30.0007 24.4732 29.8626 23.9614 29.6001 23.5113ZM27.8664 25.4751C27.7711 25.6376 27.6343 25.7719 27.47 25.8642C27.3057 25.9564 27.1198 26.0033 26.9314 26.0001H5.06887C4.88047 26.0033 4.69458 25.9564 4.53028 25.8642C4.36598 25.7719 4.22917 25.6376 4.13387 25.4751C4.04755 25.3289 4.00202 25.1623 4.00202 24.9926C4.00202 24.8228 4.04755 24.6562 4.13387 24.5101L15.0651 5.52633C15.1623 5.36455 15.2998 5.23068 15.4641 5.13774C15.6283 5.04479 15.8139 4.99595 16.0026 4.99595C16.1914 4.99595 16.3769 5.04479 16.5412 5.13774C16.7055 5.23068 16.8429 5.36455 16.9401 5.52633L27.8714 24.5101C27.9569 24.6567 28.0016 24.8235 28.0007 24.9933C27.9998 25.163 27.9534 25.3294 27.8664 25.4751ZM15.0001 18.0001V13.0001C15.0001 12.7349 15.1055 12.4805 15.293 12.293C15.4805 12.1054 15.7349 12.0001 16.0001 12.0001C16.2653 12.0001 16.5197 12.1054 16.7072 12.293C16.8948 12.4805 17.0001 12.7349 17.0001 13.0001V18.0001C17.0001 18.2653 16.8948 18.5197 16.7072 18.7072C16.5197 18.8947 16.2653 19.0001 16.0001 19.0001C15.7349 19.0001 15.4805 18.8947 15.293 18.7072C15.1055 18.5197 15.0001 18.2653 15.0001 18.0001ZM17.5001 22.5001C17.5001 22.7968 17.4121 23.0868 17.2473 23.3334C17.0825 23.5801 16.8482 23.7724 16.5741 23.8859C16.3001 23.9994 15.9985 24.0291 15.7075 23.9713C15.4165 23.9134 15.1492 23.7705 14.9395 23.5607C14.7297 23.351 14.5868 23.0837 14.5289 22.7927C14.4711 22.5017 14.5008 22.2001 14.6143 21.9261C14.7278 21.652 14.9201 21.4177 15.1668 21.2529C15.4134 21.0881 15.7034 21.0001 16.0001 21.0001C16.3979 21.0001 16.7795 21.1581 17.0608 21.4394C17.3421 21.7207 17.5001 22.1023 17.5001 22.5001Z" fill="#4A4A4F"/>
</svg>
