<svg width="32" height="32" viewBox="0 0 32 32" fill="none" xmlns="http://www.w3.org/2000/svg">
<path d="M29.4161 14.5901L17.4099 2.58256C17.0352 2.21006 16.5283 2.00098 15.9999 2.00098C15.4715 2.00098 14.9646 2.21006 14.5899 2.58256L2.58989 14.5901C2.21738 14.9648 2.0083 15.4717 2.0083 16.0001C2.0083 16.5284 2.21738 17.0353 2.58989 17.4101L14.5961 29.4176C14.9709 29.7901 15.4778 29.9991 16.0061 29.9991C16.5345 29.9991 17.0414 29.7901 17.4161 29.4176L29.4224 17.4101C29.7949 17.0353 30.004 16.5284 30.004 16.0001C30.004 15.4717 29.7949 14.9648 29.4224 14.5901H29.4161ZM14.9999 10.0001C14.9999 9.73485 15.1052 9.48049 15.2928 9.29296C15.4803 9.10542 15.7347 9.00006 15.9999 9.00006C16.2651 9.00006 16.5195 9.10542 16.707 9.29296C16.8945 9.48049 16.9999 9.73485 16.9999 10.0001V17.0001C16.9999 17.2653 16.8945 17.5196 16.707 17.7072C16.5195 17.8947 16.2651 18.0001 15.9999 18.0001C15.7347 18.0001 15.4803 17.8947 15.2928 17.7072C15.1052 17.5196 14.9999 17.2653 14.9999 17.0001V10.0001ZM15.9999 23.0001C15.7032 23.0001 15.4132 22.9121 15.1665 22.7473C14.9199 22.5824 14.7276 22.3482 14.6141 22.0741C14.5005 21.8 14.4708 21.4984 14.5287 21.2074C14.5866 20.9165 14.7294 20.6492 14.9392 20.4394C15.149 20.2296 15.4163 20.0868 15.7073 20.0289C15.9982 19.971 16.2998 20.0007 16.5739 20.1142C16.848 20.2278 17.0823 20.42 17.2471 20.6667C17.4119 20.9134 17.4999 21.2034 17.4999 21.5001C17.4999 21.8979 17.3419 22.2794 17.0605 22.5607C16.7792 22.842 16.3977 23.0001 15.9999 23.0001Z" fill="#4A4A4F"/>
</svg>
