<svg width="32" height="32" viewBox="0 0 32 32" fill="none" xmlns="http://www.w3.org/2000/svg">
<path d="M26 16C25.9997 14.4301 25.6294 12.8823 24.9192 11.4822C24.2091 10.0821 23.179 8.86899 21.9125 7.94125L21.1325 3.64375C21.0491 3.18269 20.8064 2.76557 20.4468 2.46516C20.0872 2.16475 19.6336 2.00012 19.165 2H12.835C12.3665 2.00012 11.9128 2.16475 11.5533 2.46516C11.1937 2.76557 10.951 3.18269 10.8675 3.64375L10.0875 7.94125C8.82071 8.86868 7.79038 10.0817 7.08013 11.4819C6.36989 12.8821 5.99976 14.43 5.99976 16C5.99976 17.57 6.36989 19.1179 7.08013 20.5181C7.79038 21.9183 8.82071 23.1313 10.0875 24.0588L10.8675 28.3563C10.951 28.8173 11.1937 29.2344 11.5533 29.5348C11.9128 29.8353 12.3665 29.9999 12.835 30H19.165C19.6336 29.9999 20.0872 29.8353 20.4468 29.5348C20.8064 29.2344 21.0491 28.8173 21.1325 28.3563L21.9125 24.0588C23.179 23.131 24.2091 21.9179 24.9192 20.5178C25.6294 19.1177 25.9997 17.5699 26 16ZM12.835 4H19.165L19.6538 6.69375C17.3058 5.76878 14.6943 5.76878 12.3463 6.69375L12.835 4ZM8.00004 16C8.00004 14.4177 8.46923 12.871 9.34828 11.5554C10.2273 10.2398 11.4768 9.21447 12.9386 8.60896C14.4004 8.00346 16.0089 7.84504 17.5608 8.15372C19.1126 8.4624 20.5381 9.22433 21.6569 10.3431C22.7757 11.462 23.5376 12.8874 23.8463 14.4393C24.155 15.9911 23.9966 17.5997 23.3911 19.0615C22.7856 20.5233 21.7602 21.7727 20.4446 22.6518C19.129 23.5308 17.5823 24 16 24C13.879 23.9977 11.8455 23.1541 10.3457 21.6543C8.84595 20.1545 8.00235 18.121 8.00004 16ZM19.165 28H12.835L12.3463 25.3062C14.6943 26.2312 17.3058 26.2312 19.6538 25.3062L19.165 28ZM15 16V11C15 10.7348 15.1054 10.4804 15.2929 10.2929C15.4805 10.1054 15.7348 10 16 10C16.2653 10 16.5196 10.1054 16.7071 10.2929C16.8947 10.4804 17 10.7348 17 11V15H21C21.2653 15 21.5196 15.1054 21.7071 15.2929C21.8947 15.4804 22 15.7348 22 16C22 16.2652 21.8947 16.5196 21.7071 16.7071C21.5196 16.8946 21.2653 17 21 17H16C15.7348 17 15.4805 16.8946 15.2929 16.7071C15.1054 16.5196 15 16.2652 15 16Z" fill="#4A4A4F"/>
</svg>
