<svg width="32" height="32" viewBox="0 0 32 32" fill="none" xmlns="http://www.w3.org/2000/svg">
<path d="M29.5239 16.8511L16.5239 24.8511C16.3724 24.9443 16.1988 24.9953 16.021 24.999C15.8432 25.0027 15.6677 24.959 15.5124 24.8723C15.3572 24.7855 15.2278 24.659 15.1378 24.5056C15.0478 24.3523 15.0002 24.1777 15.0001 23.9999V9.78987L3.52386 16.8511C3.29847 16.9799 3.03184 17.0159 2.78033 16.9517C2.52883 16.8875 2.31216 16.7279 2.17613 16.5068C2.04011 16.2858 1.99538 16.0204 2.05141 15.767C2.10743 15.5135 2.25982 15.2918 2.47636 15.1486L15.4764 7.14862C15.6279 7.05548 15.8014 7.00442 15.9792 7.00071C16.157 6.99699 16.3326 7.04075 16.4878 7.12748C16.6431 7.21421 16.7724 7.34077 16.8624 7.49411C16.9525 7.64746 17 7.82204 17.0001 7.99987V22.2099L28.4764 15.1486C28.7018 15.0199 28.9684 14.9838 29.2199 15.048C29.4714 15.1123 29.6881 15.2718 29.8241 15.4929C29.9601 15.714 30.0048 15.9793 29.9488 16.2328C29.8928 16.4862 29.7404 16.708 29.5239 16.8511Z" fill="#4A4A4F"/>
</svg>
