<svg width="32" height="32" viewBox="0 0 32 32" fill="none" xmlns="http://www.w3.org/2000/svg">
<path d="M27 5H5C4.46957 5 3.96086 5.21071 3.58579 5.58579C3.21071 5.96086 3 6.46957 3 7V25C3 25.5304 3.21071 26.0391 3.58579 26.4142C3.96086 26.7893 4.46957 27 5 27H27C27.5304 27 28.0391 26.7893 28.4142 26.4142C28.7893 26.0391 29 25.5304 29 25V7C29 6.46957 28.7893 5.96086 28.4142 5.58579C28.0391 5.21071 27.5304 5 27 5ZM25.7687 16.64L20.7687 22.64C20.6749 22.7527 20.5573 22.8434 20.4245 22.9056C20.2916 22.9678 20.1467 23.0001 20 23H19.9463C19.7909 22.9917 19.6396 22.9473 19.5044 22.8703C19.3692 22.7932 19.2538 22.6857 19.1675 22.5562L11.9175 11.67L7.76875 16.64C7.59901 16.8439 7.35523 16.972 7.09104 16.9961C6.82685 17.0203 6.56389 16.9385 6.36 16.7687C6.15612 16.599 6.02801 16.3552 6.00386 16.091C5.97972 15.8268 6.06151 15.5639 6.23125 15.36L11.2312 9.36C11.3308 9.24024 11.457 9.1454 11.5997 9.08302C11.7424 9.02065 11.8977 8.99247 12.0532 9.00072C12.2087 9.00898 12.3602 9.05344 12.4955 9.13058C12.6308 9.20771 12.7462 9.31538 12.8325 9.445L20.0888 20.3312L24.2313 15.36C24.3153 15.259 24.4184 15.1756 24.5347 15.1145C24.651 15.0534 24.7781 15.0158 24.909 15.0039C25.0398 14.9919 25.1717 15.0058 25.2971 15.0449C25.4225 15.0839 25.539 15.1472 25.64 15.2312C25.741 15.3153 25.8244 15.4184 25.8855 15.5347C25.9466 15.651 25.9842 15.7781 25.9961 15.909C26.0081 16.0398 25.9942 16.1717 25.9552 16.2971C25.9161 16.4225 25.8528 16.539 25.7687 16.64Z" fill="#4A4A4F"/>
</svg>
