<svg width="32" height="32" viewBox="0 0 32 32" fill="none" xmlns="http://www.w3.org/2000/svg">
<path d="M27 5H5C4.46957 5 3.96086 5.21071 3.58579 5.58579C3.21071 5.96086 3 6.46957 3 7V25C3 25.5304 3.21071 26.0391 3.58579 26.4142C3.96086 26.7893 4.46957 27 5 27H27C27.5304 27 28.0391 26.7893 28.4142 26.4142C28.7893 26.0391 29 25.5304 29 25V7C29 6.46957 28.7893 5.96086 28.4142 5.58579C28.0391 5.21071 27.5304 5 27 5ZM26.4025 16.43C24.3175 20.805 22.52 22.75 20.5713 22.75C18.1113 22.75 16.6475 19.68 15.0975 16.43C14 14.125 12.625 11.25 11.4288 11.25C10.9612 11.25 9.6325 11.75 7.4025 16.43C7.28453 16.6628 7.08021 16.8403 6.83318 16.9245C6.58615 17.0087 6.31597 16.993 6.08035 16.8808C5.84473 16.7685 5.66234 16.5686 5.57212 16.3237C5.48191 16.0788 5.49101 15.8083 5.5975 15.57C7.6825 11.1987 9.48 9.25 11.4288 9.25C13.8888 9.25 15.3525 12.32 16.9025 15.57C18 17.875 19.375 20.75 20.5713 20.75C21.0388 20.75 22.3675 20.25 24.5975 15.57C24.6519 15.4482 24.7301 15.3386 24.8276 15.2475C24.925 15.1564 25.0397 15.0857 25.1648 15.0396C25.29 14.9935 25.4231 14.9729 25.5563 14.9791C25.6895 14.9852 25.8202 15.0179 25.9406 15.0752C26.061 15.1326 26.1687 15.2135 26.2574 15.3131C26.3461 15.4127 26.4139 15.5291 26.457 15.6553C26.5 15.7815 26.5174 15.9151 26.508 16.0482C26.4987 16.1812 26.4628 16.311 26.4025 16.43Z" fill="#4A4A4F"/>
</svg>
