<svg width="32" height="32" viewBox="0 0 32 32" fill="none" xmlns="http://www.w3.org/2000/svg">
<path d="M27 5H5C4.46957 5 3.96086 5.21071 3.58579 5.58579C3.21071 5.96086 3 6.46957 3 7V25C3 25.5304 3.21071 26.0391 3.58579 26.4142C3.96086 26.7893 4.46957 27 5 27H27C27.5304 27 28.0391 26.7893 28.4142 26.4142C28.7893 26.0391 29 25.5304 29 25V7C29 6.46957 28.7893 5.96086 28.4142 5.58579C28.0391 5.21071 27.5304 5 27 5ZM25.555 16.8325L16.555 22.8325C16.3906 22.9419 16.1975 23.0002 16 23C15.7348 23 15.4804 22.8946 15.2929 22.7071C15.1054 22.5196 15 22.2652 15 22V11.875L7.555 16.8325C7.44567 16.9054 7.32306 16.956 7.19417 16.9815C7.06527 17.007 6.93262 17.0069 6.80378 16.9811C6.67494 16.9553 6.55243 16.9044 6.44326 16.8313C6.33409 16.7582 6.24038 16.6643 6.1675 16.555C6.09462 16.4457 6.04398 16.3231 6.01848 16.1942C5.99298 16.0653 5.99312 15.9326 6.01889 15.8038C6.04466 15.6749 6.09555 15.5524 6.16866 15.4433C6.24178 15.3341 6.33567 15.2404 6.445 15.1675L15.445 9.1675C15.5956 9.067 15.7707 9.00928 15.9516 9.00052C16.1325 8.99176 16.3123 9.03227 16.472 9.11774C16.6316 9.20321 16.7651 9.33043 16.8581 9.48581C16.9511 9.6412 17.0001 9.81891 17 10V20.1313L24.445 15.1675C24.6658 15.0203 24.936 14.9668 25.1962 15.0189C25.4564 15.0709 25.6853 15.2242 25.8325 15.445C25.9797 15.6658 26.0332 15.936 25.9811 16.1962C25.9291 16.4564 25.7758 16.6853 25.555 16.8325Z" fill="#4A4A4F"/>
</svg>
