<svg width="32" height="32" viewBox="0 0 32 32" fill="none" xmlns="http://www.w3.org/2000/svg">
<path d="M27 5H5C4.46957 5 3.96086 5.21071 3.58579 5.58579C3.21071 5.96086 3 6.46957 3 7V25C3 25.5304 3.21071 26.0391 3.58579 26.4142C3.96086 26.7893 4.46957 27 5 27H27C27.5304 27 28.0391 26.7893 28.4142 26.4142C28.7893 26.0391 29 25.5304 29 25V7C29 6.46957 28.7893 5.96086 28.4142 5.58579C28.0391 5.21071 27.5304 5 27 5ZM24.4475 21.895C24.3575 21.94 22.2113 23 20 23C17.7638 23 16.5887 22.4125 15.5525 21.895C14.5925 21.415 13.7638 21 12 21C10.27 21 8.46375 21.8862 8.44625 21.895C8.32872 21.9537 8.20078 21.9886 8.06973 21.9979C7.93869 22.0071 7.80711 21.9905 7.6825 21.9488C7.5579 21.9072 7.44271 21.8415 7.34351 21.7554C7.24432 21.6692 7.16306 21.5644 7.10437 21.4469C6.98586 21.2095 6.96649 20.9348 7.05053 20.6831C7.13457 20.4315 7.31513 20.2235 7.5525 20.105C7.6425 20.06 9.78875 19 12 19C14.2362 19 15.4113 19.5875 16.4475 20.105C17.4075 20.585 18.2362 21 20 21C21.73 21 23.5362 20.1137 23.5537 20.105C23.7911 19.9865 24.0658 19.9671 24.3175 20.0512C24.5691 20.1352 24.7771 20.3158 24.8956 20.5531C25.0141 20.7905 25.0335 21.0652 24.9495 21.3169C24.8654 21.5685 24.6849 21.7765 24.4475 21.895ZM24.4475 16.895C24.3575 16.94 22.2113 18 20 18C17.7638 18 16.5887 17.4125 15.5525 16.895C14.5925 16.415 13.7638 16 12 16C10.27 16 8.46375 16.8863 8.44625 16.895C8.20888 17.0135 7.93415 17.0329 7.6825 16.9488C7.43085 16.8648 7.22289 16.6842 7.10437 16.4469C6.98586 16.2095 6.96649 15.9348 7.05053 15.6831C7.13457 15.4315 7.31513 15.2235 7.5525 15.105C7.6425 15.06 9.78875 14 12 14C14.2362 14 15.4113 14.5875 16.4475 15.105C17.4075 15.585 18.2362 16 20 16C21.73 16 23.5362 15.1137 23.5537 15.105C23.7911 14.9865 24.0658 14.9671 24.3175 15.0512C24.5691 15.1352 24.7771 15.3158 24.8956 15.5531C25.0141 15.7905 25.0335 16.0652 24.9495 16.3169C24.8654 16.5685 24.6849 16.7765 24.4475 16.895ZM24.4475 11.895C24.3575 11.94 22.2113 13 20 13C17.7638 13 16.5887 12.4125 15.5525 11.895C14.5925 11.415 13.7638 11 12 11C10.27 11 8.46375 11.8863 8.44625 11.895C8.20888 12.0135 7.93415 12.0329 7.6825 11.9488C7.43085 11.8648 7.22289 11.6842 7.10437 11.4469C6.98586 11.2095 6.96649 10.9348 7.05053 10.6831C7.13457 10.4315 7.31513 10.2235 7.5525 10.105C7.6425 10.06 9.78875 9 12 9C14.2362 9 15.4113 9.5875 16.4475 10.105C17.4075 10.585 18.2362 11 20 11C21.73 11 23.5362 10.1137 23.5537 10.105C23.7911 9.98648 24.0658 9.96711 24.3175 10.0512C24.5691 10.1352 24.7771 10.3158 24.8956 10.5531C25.0141 10.7905 25.0335 11.0652 24.9495 11.3169C24.8654 11.5685 24.6849 11.7765 24.4475 11.895Z" fill="#4A4A4F"/>
</svg>
