<svg width="32" height="32" viewBox="0 0 32 32" fill="none" xmlns="http://www.w3.org/2000/svg">
<path d="M4.29137 9.71C4.19801 9.61708 4.12394 9.50664 4.07339 9.38501C4.02285 9.26338 3.99683 9.13296 3.99683 9.00125C3.99683 8.86954 4.02285 8.73912 4.07339 8.61749C4.12394 8.49586 4.19801 8.38542 4.29137 8.2925C4.38762 8.19875 6.63762 6 11.0001 6C13.3026 6 15.0301 7.15125 16.5551 8.1675C17.9676 9.11 19.3026 10 21.0001 10C22.3707 10.0205 23.7279 9.72849 24.9689 9.14625C25.4501 8.92422 25.8975 8.63509 26.2976 8.2875C26.3909 8.195 26.5014 8.12177 26.6229 8.07199C26.7445 8.02221 26.8746 7.99686 27.006 7.99739C27.1373 7.99791 27.2673 8.02429 27.3884 8.07504C27.5095 8.12578 27.6195 8.19989 27.712 8.29313C27.8045 8.38636 27.8777 8.49691 27.9275 8.61845C27.9773 8.73999 28.0026 8.87014 28.0021 9.00148C28.0016 9.13281 27.9752 9.26276 27.9245 9.3839C27.8737 9.50504 27.7996 9.615 27.7064 9.7075C27.6126 9.80125 25.3626 12 21.0001 12C18.6976 12 16.9701 10.8488 15.4451 9.8325C14.0326 8.89 12.6976 8 11.0001 8C9.62954 7.97954 8.2723 8.27151 7.03137 8.85375C6.5501 9.07578 6.10273 9.36491 5.70262 9.7125C5.51487 9.8988 5.26097 10.0031 4.99648 10.0027C4.73198 10.0022 4.47845 9.89696 4.29137 9.71ZM26.2976 15.2875C25.8975 15.6351 25.4501 15.9242 24.9689 16.1462C23.7279 16.7285 22.3707 17.0205 21.0001 17C19.3026 17 17.9676 16.11 16.5551 15.1675C15.0301 14.1512 13.3026 13 11.0001 13C6.63762 13 4.38762 15.1987 4.29387 15.2925C4.10556 15.4793 3.99918 15.7333 3.99813 15.9985C3.99707 16.2638 4.10143 16.5186 4.28824 16.7069C4.47505 16.8952 4.72902 17.0016 4.99426 17.0026C5.25951 17.0037 5.51431 16.8993 5.70262 16.7125C6.10273 16.3649 6.5501 16.0758 7.03137 15.8538C8.2723 15.2715 9.62954 14.9795 11.0001 15C12.6976 15 14.0326 15.89 15.4451 16.8325C16.9701 17.8488 18.6951 19 21.0001 19C25.3626 19 27.6126 16.8013 27.7064 16.7075C27.7996 16.615 27.8737 16.505 27.9245 16.3839C27.9752 16.2628 28.0016 16.1328 28.0021 16.0015C28.0026 15.8701 27.9773 15.74 27.9275 15.6184C27.8777 15.4969 27.8045 15.3864 27.712 15.2931C27.6195 15.1999 27.5095 15.1258 27.3884 15.075C27.2673 15.0243 27.1373 14.9979 27.006 14.9974C26.8746 14.9969 26.7445 15.0222 26.6229 15.072C26.5014 15.1218 26.3909 15.195 26.2976 15.2875ZM26.2976 22.2875C25.8975 22.6351 25.4501 22.9242 24.9689 23.1462C23.7279 23.7285 22.3707 24.0205 21.0001 24C19.3026 24 17.9676 23.11 16.5551 22.1675C15.0301 21.1512 13.3026 20 11.0001 20C6.63762 20 4.38762 22.1987 4.29387 22.2925C4.10556 22.4793 3.99918 22.7333 3.99813 22.9985C3.99707 23.2638 4.10143 23.5186 4.28824 23.7069C4.47505 23.8952 4.72902 24.0016 4.99426 24.0026C5.25951 24.0037 5.51431 23.8993 5.70262 23.7125C6.10273 23.3649 6.5501 23.0758 7.03137 22.8538C8.2723 22.2715 9.62954 21.9795 11.0001 22C12.6976 22 14.0326 22.89 15.4451 23.8325C16.9701 24.8488 18.6951 26 21.0001 26C25.3626 26 27.6126 23.8013 27.7064 23.7075C27.8947 23.5207 28.0011 23.2667 28.0021 23.0015C28.0032 22.7362 27.8988 22.4814 27.712 22.2931C27.5252 22.1048 27.2712 21.9984 27.006 21.9974C26.7407 21.9963 26.4859 22.1007 26.2976 22.2875Z" fill="#4A4A4F"/>
</svg>
