<svg width="32" height="32" viewBox="0 0 32 32" fill="none" xmlns="http://www.w3.org/2000/svg">
<path d="M26.74 26.3275L6.74 4.32754C6.65218 4.22855 6.54559 4.14798 6.4264 4.09048C6.30721 4.03299 6.1778 3.99972 6.04566 3.99262C5.91352 3.98551 5.78128 4.0047 5.65661 4.04907C5.53194 4.09344 5.41732 4.16212 5.31939 4.25112C5.22146 4.34012 5.14216 4.44767 5.0861 4.56754C5.03004 4.68741 4.99833 4.81721 4.99281 4.94943C4.98728 5.08164 5.00806 5.21364 5.05392 5.33777C5.09979 5.4619 5.16983 5.57569 5.26 5.67254L7.3525 7.97504C6.51177 9.42157 6.04743 11.0559 6.00199 12.7284C5.95655 14.4009 6.33147 16.0581 7.09241 17.5481C7.85336 19.0381 8.976 20.3134 10.3575 21.2572C11.739 22.201 13.3353 22.783 15 22.95V25H4C3.73478 25 3.48043 25.1054 3.29289 25.2929C3.10536 25.4805 3 25.7348 3 26C3 26.2653 3.10536 26.5196 3.29289 26.7072C3.48043 26.8947 3.73478 27 4 27H24.6488L25.26 27.6725C25.3478 27.7715 25.4544 27.8521 25.5736 27.9096C25.6928 27.9671 25.8222 28.0004 25.9543 28.0075C26.0865 28.0146 26.2187 27.9954 26.3434 27.951C26.4681 27.9066 26.5827 27.838 26.6806 27.749C26.7785 27.66 26.8578 27.5524 26.9139 27.4326C26.97 27.3127 27.0017 27.1829 27.0072 27.0507C27.0127 26.9184 26.9919 26.7864 26.9461 26.6623C26.9002 26.5382 26.8302 26.4244 26.74 26.3275ZM8 13C7.99825 11.8051 8.2657 10.625 8.7825 9.54754L11.085 12.08C10.9498 12.8021 10.9754 13.545 11.16 14.2561C11.3445 14.9671 11.6834 15.6287 12.1527 16.1939C12.6219 16.7591 13.2099 17.214 13.8749 17.5261C14.5398 17.8383 15.2654 18.0001 16 18C16.15 18 16.2987 17.9925 16.4475 17.9788L18.75 20.5138C17.541 20.9564 16.2431 21.1006 14.9664 20.9343C13.6898 20.7679 12.4721 20.2959 11.4169 19.5584C10.3617 18.8208 9.50004 17.8395 8.90518 16.6977C8.31031 15.556 7.9998 14.2875 8 13ZM17 25V22.9488C18.1005 22.8389 19.1751 22.547 20.18 22.085L22.83 25H17ZM10.69 5.66379C10.6251 5.54963 10.5833 5.42379 10.567 5.29347C10.5507 5.16314 10.5602 5.03088 10.595 4.90424C10.6298 4.7776 10.6893 4.65906 10.7699 4.55539C10.8505 4.45172 10.9508 4.36496 11.065 4.30004C13.0395 3.17898 15.3367 2.76322 17.5788 3.12114C19.8209 3.47905 21.8745 4.58933 23.4019 6.26938C24.9292 7.94944 25.8393 10.0992 25.9825 12.3652C26.1258 14.6312 25.4936 16.8785 24.19 18.7375C24.0377 18.9547 23.8053 19.1024 23.544 19.1483C23.2828 19.1941 23.014 19.1343 22.7969 18.9819C22.5797 18.8296 22.432 18.5972 22.3862 18.336C22.3403 18.0747 22.4002 17.8059 22.5525 17.5888C23.5954 16.1016 24.1011 14.3038 23.9865 12.491C23.8719 10.6781 23.1438 8.95831 21.922 7.61426C20.7001 6.27022 19.0573 5.382 17.2635 5.09567C15.4698 4.80934 13.6321 5.14194 12.0525 6.03879C11.822 6.16954 11.5491 6.20349 11.2937 6.13318C11.0382 6.06287 10.8211 5.89405 10.69 5.66379ZM18.8538 13.9288C19.0004 13.4784 19.0383 12.9997 18.9644 12.5318C18.8904 12.0639 18.7068 11.6202 18.4284 11.237C18.15 10.8537 17.7848 10.5418 17.3627 10.3268C16.9407 10.1119 16.4737 9.99987 16 10C15.7797 9.99985 15.5601 10.0237 15.345 10.0713C15.2131 10.1118 15.0742 10.1246 14.9371 10.1088C14.8 10.093 14.6677 10.049 14.5484 9.9796C14.4292 9.91018 14.3256 9.81684 14.2442 9.70543C14.1627 9.59403 14.1052 9.46697 14.0753 9.33227C14.0454 9.19756 14.0436 9.05812 14.0702 8.92271C14.0968 8.78731 14.1511 8.65887 14.2298 8.54547C14.3084 8.43208 14.4096 8.33619 14.5271 8.26383C14.6446 8.19148 14.7758 8.14422 14.9125 8.12504C15.7725 7.93464 16.6676 7.97482 17.5072 8.24152C18.3467 8.50822 19.1009 8.99198 19.6933 9.64383C20.2858 10.2957 20.6956 11.0925 20.8811 11.9536C21.0667 12.8147 21.0214 13.7095 20.75 14.5475C20.6632 14.7937 20.4836 14.9961 20.2496 15.1116C20.0156 15.2271 19.7456 15.2466 19.4975 15.1658C19.2493 15.085 19.0426 14.9105 18.9213 14.6793C18.8001 14.4482 18.7741 14.1789 18.8487 13.9288H18.8538Z" fill="#4A4A4F"/>
</svg>
