<svg width="32" height="32" viewBox="0 0 32 32" fill="none" xmlns="http://www.w3.org/2000/svg">
<path d="M26.74 26.3275L19.75 18.64L6.74 4.32754C6.65218 4.22855 6.54559 4.14798 6.4264 4.09048C6.30721 4.03299 6.1778 3.99972 6.04566 3.99262C5.91352 3.98551 5.78128 4.0047 5.65661 4.04907C5.53194 4.09344 5.41732 4.16212 5.31939 4.25112C5.22146 4.34012 5.14216 4.44767 5.0861 4.56754C5.03004 4.68741 4.99833 4.81721 4.99281 4.94943C4.98728 5.08164 5.00806 5.21364 5.05392 5.33777C5.09979 5.4619 5.16983 5.57569 5.26 5.67254L7.3525 7.97504C6.51177 9.42157 6.04743 11.0559 6.00199 12.7284C5.95655 14.4009 6.33147 16.0581 7.09241 17.5481C7.85336 19.0381 8.976 20.3134 10.3575 21.2572C11.739 22.201 13.3353 22.783 15 22.95V25H4C3.73478 25 3.48043 25.1054 3.29289 25.2929C3.10536 25.4805 3 25.7348 3 26C3 26.2653 3.10536 26.5196 3.29289 26.7072C3.48043 26.8947 3.73478 27 4 27H24.6488L25.26 27.6725C25.3478 27.7715 25.4544 27.8521 25.5736 27.9096C25.6928 27.9671 25.8222 28.0004 25.9543 28.0075C26.0865 28.0146 26.2187 27.9954 26.3434 27.951C26.4681 27.9066 26.5827 27.838 26.6806 27.749C26.7785 27.66 26.8578 27.5524 26.9139 27.4326C26.97 27.3127 27.0017 27.1829 27.0072 27.0507C27.0127 26.9184 26.9919 26.7864 26.9461 26.6623C26.9002 26.5382 26.8302 26.4244 26.74 26.3275ZM10 13C10.001 12.3876 10.0955 11.779 10.28 11.195L12 13.0888C12.0216 14.0525 12.3906 14.976 13.0389 15.6894C13.6873 16.4027 14.5715 16.858 15.5288 16.9713L17.25 18.8675C16.3757 19.0538 15.4708 19.0423 14.6014 18.8339C13.7321 18.6255 12.9203 18.2255 12.2254 17.6632C11.5305 17.1008 10.9701 16.3902 10.585 15.5834C10.2 14.7766 10.0001 13.894 10 13ZM17 25V22.9488C18.1005 22.8389 19.1751 22.547 20.18 22.085L22.83 25H17ZM10.82 5.84254C10.7192 5.73131 10.6448 5.59882 10.6022 5.4549C10.5596 5.31098 10.55 5.15932 10.574 5.01116C10.598 4.863 10.655 4.72215 10.7409 4.59905C10.8268 4.47595 10.9393 4.37375 11.07 4.30004C13.0445 3.17898 15.3417 2.76322 17.5838 3.12114C19.8259 3.47905 21.8795 4.58933 23.4069 6.26938C24.9342 7.94944 25.8443 10.0992 25.9875 12.3652C26.1308 14.6312 25.4986 16.8785 24.195 18.7375C24.1088 18.8604 23.9961 18.9623 23.8652 19.0356C23.7343 19.109 23.5885 19.1519 23.4387 19.1613H23.3762C23.2369 19.1613 23.0991 19.1321 22.9716 19.0757C22.8442 19.0193 22.73 18.9369 22.6362 18.8338L21.25 17.3075C21.1046 17.1478 21.0149 16.9454 20.9942 16.7304C20.9734 16.5155 21.0228 16.2996 21.135 16.115C21.8085 15.0082 22.1056 13.7131 21.9819 12.4234C21.8582 11.1337 21.3203 9.9187 20.4488 8.96005C19.5772 8.0014 18.4187 7.35062 17.1466 7.10503C15.8745 6.85943 14.557 7.03222 13.3912 7.59754C13.1967 7.69382 12.9761 7.72418 12.7628 7.68405C12.5495 7.64391 12.355 7.53545 12.2087 7.37504L10.82 5.84254ZM16 9.00004C17.0609 9.00004 18.0783 9.42147 18.8284 10.1716C19.5786 10.9218 20 11.9392 20 13C19.9996 13.1483 19.9916 13.2964 19.9762 13.4438C19.9552 13.6353 19.8794 13.8167 19.7577 13.9661C19.6361 14.1155 19.4739 14.2266 19.2906 14.286C19.1073 14.3454 18.9108 14.3506 18.7247 14.301C18.5385 14.2514 18.3706 14.149 18.2412 14.0063L15.2113 10.6725C15.0818 10.5301 14.9962 10.3534 14.9647 10.1635C14.9332 9.97369 14.9572 9.77878 15.0337 9.60221C15.1103 9.42564 15.2361 9.2749 15.3962 9.16809C15.5563 9.06128 15.7438 9.00293 15.9362 9.00004H16Z" fill="#4A4A4F"/>
</svg>
