<svg width="32" height="32" viewBox="0 0 32 32" fill="none" xmlns="http://www.w3.org/2000/svg">
<path d="M21 12.9999C21 12.011 20.7068 11.0443 20.1573 10.222C19.6079 9.39978 18.827 8.75891 17.9134 8.38048C16.9998 8.00204 15.9945 7.90302 15.0245 8.09595C14.0546 8.28887 13.1637 8.76508 12.4645 9.46434C11.7652 10.1636 11.289 11.0545 11.0961 12.0244C10.9031 12.9943 11.0022 13.9997 11.3806 14.9133C11.759 15.8269 12.3999 16.6078 13.2221 17.1572C14.0444 17.7066 15.0111 17.9999 16 17.9999C17.3261 17.9999 18.5979 17.4731 19.5355 16.5354C20.4732 15.5977 21 14.326 21 12.9999ZM13 12.9999C13 12.4065 13.1759 11.8265 13.5056 11.3332C13.8352 10.8398 14.3038 10.4553 14.8519 10.2282C15.4001 10.0012 16.0033 9.94176 16.5853 10.0575C17.1672 10.1733 17.7018 10.459 18.1213 10.8786C18.5409 11.2981 18.8266 11.8327 18.9424 12.4146C19.0581 12.9965 18.9987 13.5997 18.7716 14.1479C18.5446 14.6961 18.1601 15.1646 17.6667 15.4943C17.1734 15.8239 16.5933 15.9999 16 15.9999C15.2044 15.9999 14.4413 15.6838 13.8787 15.1212C13.3161 14.5586 13 13.7955 13 12.9999ZM28 24.9999H17V22.9499C19.5526 22.6933 21.909 21.4655 23.5818 19.5204C25.2547 17.5753 26.1159 15.0617 25.9875 12.4994C25.859 9.93709 24.7507 7.52218 22.8918 5.75409C21.0329 3.98601 18.5655 3 16 3C13.4345 3 10.9671 3.98601 9.1082 5.75409C7.24927 7.52218 6.14098 9.93709 6.01254 12.4994C5.8841 15.0617 6.74535 17.5753 8.41816 19.5204C10.091 21.4655 12.4474 22.6933 15 22.9499V24.9999H4C3.73478 24.9999 3.48043 25.1052 3.29289 25.2928C3.10536 25.4803 3 25.7347 3 25.9999C3 26.2651 3.10536 26.5194 3.29289 26.707C3.48043 26.8945 3.73478 26.9999 4 26.9999H28C28.2652 26.9999 28.5196 26.8945 28.7071 26.707C28.8946 26.5194 29 26.2651 29 25.9999C29 25.7347 28.8946 25.4803 28.7071 25.2928C28.5196 25.1052 28.2652 24.9999 28 24.9999ZM8 12.9999C8 11.4176 8.46919 9.87091 9.34824 8.55531C10.2273 7.23972 11.4767 6.21434 12.9385 5.60884C14.4003 5.00334 16.0089 4.84491 17.5607 5.15359C19.1126 5.46227 20.538 6.2242 21.6569 7.34302C22.7757 8.46184 23.5376 9.8873 23.8463 11.4392C24.155 12.991 23.9965 14.5995 23.391 16.0613C22.7855 17.5232 21.7602 18.7726 20.4446 19.6516C19.129 20.5307 17.5823 20.9999 16 20.9999C13.879 20.9976 11.8455 20.154 10.3457 18.6542C8.84591 17.1544 8.00232 15.1209 8 12.9999Z" fill="#4A4A4F"/>
</svg>
