<svg width="32" height="32" viewBox="0 0 32 32" fill="none" xmlns="http://www.w3.org/2000/svg">
<path d="M22.2701 23H13.9151C13.7638 23.8957 13.411 24.7453 12.8835 25.4848C12.3559 26.2243 11.6674 26.8343 10.8697 27.2689C10.0721 27.7036 9.18615 27.9514 8.27876 27.9937C7.37138 28.0361 6.46622 27.8719 5.63155 27.5134C4.79688 27.155 4.05449 26.6117 3.46036 25.9246C2.86623 25.2375 2.43587 24.4244 2.20175 23.5467C1.96762 22.669 1.93583 21.7497 2.10878 20.8579C2.28172 19.9661 2.65489 19.1253 3.20014 18.3988C3.27902 18.2937 3.37782 18.2052 3.49089 18.1383C3.60397 18.0715 3.72911 18.0275 3.85917 18.009C3.98923 17.9905 4.12166 17.9978 4.2489 18.0304C4.37615 18.0631 4.49571 18.1205 4.60077 18.1994C4.70583 18.2783 4.79432 18.3771 4.8612 18.4901C4.92807 18.6032 4.97202 18.7283 4.99054 18.8584C5.00905 18.9885 5.00176 19.1209 4.9691 19.2481C4.93643 19.3754 4.87902 19.495 4.80014 19.6C4.27832 20.2911 3.99732 21.1341 4.00014 22C4.00014 23.0609 4.42157 24.0783 5.17172 24.8284C5.92186 25.5786 6.93928 26 8.00014 26C9.06101 26 10.0784 25.5786 10.8286 24.8284C11.5787 24.0783 12.0001 23.0609 12.0001 22C12.0001 21.7348 12.1055 21.4804 12.293 21.2929C12.4806 21.1054 12.7349 21 13.0001 21H22.2701C22.4903 20.6187 22.8301 20.3207 23.2368 20.1523C23.6436 19.9838 24.0946 19.9542 24.5198 20.0682C24.9451 20.1821 25.3209 20.4332 25.5889 20.7825C25.8569 21.1318 26.0022 21.5597 26.0022 22C26.0022 22.4403 25.8569 22.8682 25.5889 23.2175C25.3209 23.5668 24.9451 23.8179 24.5198 23.9319C24.0946 24.0458 23.6436 24.0163 23.2368 23.8478C22.8301 23.6793 22.4903 23.3813 22.2701 23ZM8.00014 24C8.34654 24.0001 8.68704 23.9103 8.98827 23.7393C9.28951 23.5682 9.54116 23.3219 9.71859 23.0244C9.89601 22.7269 9.99312 22.3884 10.0004 22.0421C10.0077 21.6957 9.9249 21.3535 9.76014 21.0488L14.2314 13.7813C14.3702 13.5555 14.4136 13.2838 14.3522 13.026C14.2908 12.7682 14.1296 12.5453 13.9039 12.4063C13.3694 12.0772 12.9198 11.627 12.5916 11.092C12.2633 10.5571 12.0655 9.95235 12.0142 9.32679C11.963 8.70123 12.0596 8.07238 12.2964 7.49109C12.5331 6.9098 12.9034 6.39239 13.3772 5.98069C13.8509 5.56899 14.4149 5.27456 15.0236 5.12121C15.6322 4.96786 16.2684 4.95989 16.8807 5.09795C17.493 5.236 18.0642 5.51621 18.5481 5.91591C19.0321 6.31561 19.4151 6.82358 19.6664 7.39876C19.7725 7.64193 19.9708 7.833 20.2178 7.92993C20.4647 8.02686 20.7401 8.02172 20.9833 7.91563C21.2264 7.80955 21.4175 7.61121 21.5144 7.36425C21.6114 7.11728 21.6062 6.84193 21.5001 6.59876C21.1399 5.77529 20.5993 5.04328 19.9182 4.45679C19.2371 3.8703 18.433 3.44432 17.5652 3.21032C16.6973 2.97632 15.788 2.94028 14.9044 3.10486C14.0208 3.26944 13.1855 3.63044 12.4601 4.16118C11.7347 4.69193 11.1379 5.37886 10.7136 6.17123C10.2893 6.9636 10.0485 7.84117 10.0089 8.73911C9.96932 9.63704 10.132 10.5324 10.4848 11.359C10.8377 12.1857 11.3718 12.9225 12.0476 13.515L8.05514 20C8.03639 20 8.01889 20 8.00014 20C7.46971 20 6.961 20.2107 6.58593 20.5858C6.21086 20.9609 6.00014 21.4696 6.00014 22C6.00014 22.5304 6.21086 23.0392 6.58593 23.4142C6.961 23.7893 7.46971 24 8.00014 24ZM24.0001 16C23.2291 16.0001 22.4653 16.1482 21.7501 16.4363L17.7601 9.95001C17.9681 9.56474 18.0439 9.12187 17.9759 8.68937C17.9079 8.25686 17.6999 7.85862 17.3837 7.55576C17.0675 7.25289 16.6607 7.06214 16.2257 7.01277C15.7907 6.9634 15.3515 7.05813 14.9755 7.28245C14.5995 7.50676 14.3075 7.84825 14.1443 8.25451C13.9811 8.66077 13.9557 9.10937 14.0721 9.53144C14.1884 9.95352 14.44 10.3258 14.7883 10.591C15.1366 10.8563 15.5623 11 16.0001 11H16.0551L20.5276 18.2688C20.6669 18.4942 20.8898 18.6552 21.1476 18.7164C21.4055 18.7775 21.677 18.7339 21.9026 18.595C22.4291 18.2705 23.0237 18.0724 23.6397 18.0164C24.2556 17.9604 24.8761 18.0481 25.4525 18.2724C26.0289 18.4967 26.5454 18.8517 26.9614 19.3093C27.3775 19.7669 27.6817 20.3148 27.8503 20.9099C28.0188 21.505 28.0471 22.131 27.9329 22.7389C27.8186 23.3467 27.565 23.9198 27.1919 24.413C26.8188 24.9063 26.3364 25.3063 25.7826 25.5817C25.2287 25.8571 24.6186 26.0002 24.0001 26C23.7349 26 23.4806 26.1054 23.293 26.2929C23.1055 26.4804 23.0001 26.7348 23.0001 27C23.0001 27.2652 23.1055 27.5196 23.293 27.7071C23.4806 27.8947 23.7349 28 24.0001 28C25.5914 28 27.1176 27.3679 28.2428 26.2427C29.368 25.1174 30.0001 23.5913 30.0001 22C30.0001 20.4087 29.368 18.8826 28.2428 17.7574C27.1176 16.6321 25.5914 16 24.0001 16Z" fill="#4A4A4F"/>
</svg>
