<svg width="32" height="32" viewBox="0 0 32 32" fill="none" xmlns="http://www.w3.org/2000/svg">
<path d="M19.0725 18.1538L21.9475 19.5888C21.8112 20.2697 21.4429 20.8823 20.9054 21.322C20.3679 21.7618 19.6945 22.0014 19 22C16.6139 21.9974 14.3262 21.0483 12.639 19.3611C10.9517 17.6738 10.0026 15.3862 10 13C9.99981 12.3064 10.24 11.6342 10.6796 11.0977C11.1192 10.5612 11.7311 10.1937 12.4113 10.0575L13.8462 12.9325L12.625 14.75C12.5337 14.8869 12.4777 15.0442 12.4617 15.208C12.4458 15.3717 12.4706 15.5369 12.5337 15.6888C13.2492 17.3893 14.602 18.7421 16.3025 19.4575C16.4549 19.5235 16.6213 19.5505 16.7867 19.5361C16.9521 19.5217 17.1113 19.4664 17.25 19.375L19.0725 18.1538ZM29 16C29.0005 18.2445 28.4199 20.4508 27.3147 22.4042C26.2095 24.3577 24.6174 25.9917 22.6934 27.1473C20.7693 28.3029 18.5788 28.9407 16.3352 28.9986C14.0915 29.0564 11.8711 28.5324 9.89 27.4775L5.63375 28.8963C5.28136 29.0138 4.9032 29.0309 4.54166 28.9455C4.18012 28.8602 3.84948 28.6759 3.58681 28.4132C3.32414 28.1506 3.13982 27.8199 3.0545 27.4584C2.96918 27.0968 2.98623 26.7187 3.10375 26.3663L4.5225 22.11C3.59519 20.3666 3.07725 18.4348 3.008 16.4613C2.93875 14.4877 3.32001 12.5244 4.12284 10.7202C4.92567 8.91604 6.12897 7.31847 7.6414 6.04878C9.15383 4.77909 10.9356 3.87063 12.8516 3.39238C14.7675 2.91413 16.7672 2.87865 18.699 3.28862C20.6307 3.6986 22.4436 4.54327 24.0001 5.7585C25.5566 6.97374 26.8158 8.52761 27.6822 10.3022C28.5485 12.0767 28.9992 14.0253 29 16ZM24 19C24.0001 18.8143 23.9485 18.6321 23.8509 18.474C23.7533 18.3159 23.6136 18.1882 23.4475 18.105L19.4475 16.105C19.29 16.0266 19.1147 15.991 18.9391 16.002C18.7635 16.013 18.594 16.0701 18.4475 16.1675L16.6112 17.3925C15.7683 16.9291 15.0746 16.2355 14.6112 15.3925L15.8363 13.5563C15.9337 13.4098 15.9908 13.2403 16.0018 13.0647C16.0127 12.8891 15.9772 12.7137 15.8988 12.5563L13.8988 8.55629C13.8159 8.38888 13.6877 8.24803 13.5289 8.14972C13.37 8.05141 13.1868 7.99955 13 8.00004C11.6739 8.00004 10.4021 8.52682 9.46447 9.46451C8.52678 10.4022 8 11.674 8 13C8.00331 15.9164 9.1633 18.7124 11.2255 20.7746C13.2877 22.8367 16.0836 23.9967 19 24C19.6566 24 20.3068 23.8707 20.9134 23.6194C21.52 23.3682 22.0712 22.9999 22.5355 22.5356C22.9998 22.0713 23.3681 21.5201 23.6194 20.9135C23.8707 20.3068 24 19.6566 24 19Z" fill="#4A4A4F"/>
</svg>
