<svg width="32" height="32" viewBox="0 0 32 32" fill="none" xmlns="http://www.w3.org/2000/svg">
<path d="M18.0002 6C18.0002 5.20888 18.2348 4.43552 18.6743 3.77772C19.1139 3.11992 19.7386 2.60723 20.4695 2.30448C21.2004 2.00173 22.0047 1.92252 22.7806 2.07686C23.5565 2.2312 24.2692 2.61216 24.8286 3.17157C25.3881 3.73098 25.769 4.44372 25.9234 5.21964C26.0777 5.99556 25.9985 6.79983 25.6957 7.53074C25.393 8.26164 24.8803 8.88635 24.2225 9.32588C23.5647 9.76541 22.7913 10 22.0002 10C20.9394 10 19.9219 9.57857 19.1718 8.82843C18.4216 8.07828 18.0002 7.06087 18.0002 6ZM20.0002 20C19.735 20 19.4806 20.1054 19.2931 20.2929C19.1056 20.4804 19.0002 20.7348 19.0002 21C19.0002 22.1867 18.6483 23.3467 17.989 24.3334C17.3297 25.3201 16.3927 26.0892 15.2963 26.5433C14.2 26.9974 12.9936 27.1162 11.8297 26.8847C10.6658 26.6532 9.59669 26.0818 8.75758 25.2426C7.91846 24.4035 7.34702 23.3344 7.11551 22.1705C6.88399 21.0067 7.00281 19.8003 7.45694 18.7039C7.91107 17.6075 8.6801 16.6705 9.6668 16.0112C10.6535 15.3519 11.8135 15 13.0002 15C13.2654 15 13.5198 14.8946 13.7073 14.7071C13.8949 14.5196 14.0002 14.2652 14.0002 14C14.0002 13.7348 13.8949 13.4804 13.7073 13.2929C13.5198 13.1054 13.2654 13 13.0002 13C11.418 13 9.87125 13.4692 8.55566 14.3482C7.24006 15.2273 6.21468 16.4767 5.60918 17.9385C5.00368 19.4003 4.84525 21.0089 5.15394 22.5607C5.46262 24.1126 6.22454 25.538 7.34336 26.6569C8.46218 27.7757 9.88765 28.5376 11.4395 28.8463C12.9913 29.155 14.5999 28.9965 16.0617 28.391C17.5235 27.7855 18.7729 26.7602 19.652 25.4446C20.531 24.129 21.0002 22.5823 21.0002 21C21.0002 20.7348 20.8949 20.4804 20.7073 20.2929C20.5198 20.1054 20.2654 20 20.0002 20ZM25.0002 16H17.7277L19.8677 12.2775C19.9951 12.0559 20.0328 11.794 19.973 11.5454C19.9133 11.2969 19.7606 11.0807 19.5465 10.9413C17.4043 9.54863 14.8736 8.8761 12.3227 9.02156C9.7718 9.16703 7.33392 10.1229 5.36397 11.75C5.2573 11.8317 5.16819 11.9341 5.10198 12.0511C5.03577 12.168 4.9938 12.2971 4.97859 12.4306C4.96338 12.5641 4.97524 12.6993 5.01346 12.8282C5.05168 12.957 5.11547 13.0768 5.20103 13.1805C5.28659 13.2841 5.39216 13.3694 5.51143 13.4313C5.6307 13.4932 5.76123 13.5305 5.89521 13.5408C6.0292 13.5512 6.16389 13.5344 6.29125 13.4915C6.41861 13.4486 6.53602 13.3805 6.63647 13.2913C8.15464 12.0408 10.0075 11.2652 11.9638 11.0613C13.9201 10.8575 15.8931 11.2344 17.6365 12.145L15.1327 16.5C15.0449 16.6521 14.9987 16.8247 14.9987 17.0004C14.9988 17.176 15.0451 17.3486 15.1331 17.5006C15.221 17.6527 15.3475 17.7789 15.4997 17.8666C15.6519 17.9542 15.8246 18.0003 16.0002 18H23.7802L22.0202 26.8038C21.9683 27.0636 22.0217 27.3335 22.1687 27.5541C22.3156 27.7746 22.5441 27.9278 22.804 27.98C22.8685 27.9933 22.9343 28 23.0002 28C23.2311 27.9996 23.4546 27.9193 23.633 27.7728C23.8114 27.6263 23.9337 27.4226 23.979 27.1963L25.979 17.1963C26.008 17.0513 26.0045 16.9017 25.9688 16.7583C25.933 16.6149 25.866 16.4812 25.7724 16.3668C25.6788 16.2524 25.561 16.1601 25.4275 16.0967C25.2939 16.0333 25.148 16.0003 25.0002 16Z" fill="#4A4A4F"/>
</svg>
