<svg width="32" height="32" viewBox="0 0 32 32" fill="none" xmlns="http://www.w3.org/2000/svg">
<path d="M22 10C22.7912 10 23.5645 9.76541 24.2223 9.32588C24.8801 8.88635 25.3928 8.26164 25.6956 7.53074C25.9983 6.79983 26.0775 5.99556 25.9232 5.21964C25.7688 4.44372 25.3879 3.73098 24.8285 3.17157C24.2691 2.61216 23.5563 2.2312 22.7804 2.07686C22.0045 1.92252 21.2002 2.00173 20.4693 2.30448C19.7384 2.60723 19.1137 3.11992 18.6742 3.77772C18.2346 4.43552 18 5.20888 18 6C18 7.06087 18.4215 8.07828 19.1716 8.82843C19.9218 9.57857 20.9392 10 22 10ZM22 4C22.3956 4 22.7823 4.1173 23.1112 4.33706C23.4401 4.55683 23.6964 4.86918 23.8478 5.23463C23.9992 5.60009 24.0388 6.00222 23.9616 6.39018C23.8844 6.77814 23.694 7.13451 23.4143 7.41422C23.1345 7.69392 22.7782 7.8844 22.3902 7.96157C22.0023 8.03874 21.6001 7.99914 21.2347 7.84776C20.8692 7.69639 20.5569 7.44004 20.3371 7.11114C20.1173 6.78224 20 6.39556 20 6C20 5.46957 20.2108 4.96086 20.5858 4.58579C20.9609 4.21072 21.4696 4 22 4ZM21 21C21 22.5823 20.5308 24.129 19.6518 25.4446C18.7727 26.7602 17.5233 27.7855 16.0615 28.391C14.5997 28.9965 12.9912 29.155 11.4393 28.8463C9.88747 28.5376 8.462 27.7757 7.34318 26.6569C6.22436 25.538 5.46244 24.1126 5.15376 22.5607C4.84507 21.0089 5.0035 19.4003 5.609 17.9385C6.2145 16.4767 7.23988 15.2273 8.55548 14.3482C9.87107 13.4692 11.4178 13 13 13C13.2653 13 13.5196 13.1054 13.7071 13.2929C13.8947 13.4804 14 13.7348 14 14C14 14.2652 13.8947 14.5196 13.7071 14.7071C13.5196 14.8946 13.2653 15 13 15C11.8134 15 10.6533 15.3519 9.66662 16.0112C8.67992 16.6705 7.91089 17.6075 7.45676 18.7039C7.00263 19.8003 6.88381 21.0067 7.11533 22.1705C7.34684 23.3344 7.91828 24.4035 8.7574 25.2426C9.59651 26.0818 10.6656 26.6532 11.8295 26.8847C12.9934 27.1162 14.1998 26.9974 15.2961 26.5433C16.3925 26.0892 17.3296 25.3201 17.9889 24.3334C18.6481 23.3467 19 22.1867 19 21C19 20.7348 19.1054 20.4804 19.2929 20.2929C19.4805 20.1054 19.7348 20 20 20C20.2653 20 20.5196 20.1054 20.7071 20.2929C20.8947 20.4804 21 20.7348 21 21ZM25.7738 16.3663C25.8674 16.4807 25.9345 16.6146 25.9701 16.7581C26.0058 16.9016 26.0092 17.0513 25.98 17.1963L23.98 27.1963C23.9347 27.4228 23.8123 27.6267 23.6336 27.7732C23.455 27.9197 23.2311 27.9999 23 28C22.9337 28.0001 22.8675 27.9934 22.8025 27.98C22.5427 27.9278 22.3142 27.7746 22.1672 27.5541C22.0203 27.3335 21.9669 27.0636 22.0188 26.8038L23.78 18H16C15.8244 18.0003 15.6517 17.9542 15.4995 17.8666C15.3473 17.7789 15.2208 17.6527 15.1329 17.5006C15.045 17.3486 14.9986 17.176 14.9986 17.0004C14.9985 16.8247 15.0447 16.6521 15.1325 16.5L17.64 12.1375C15.8967 11.2269 13.9237 10.85 11.9674 11.0538C10.0111 11.2577 8.15821 12.0333 6.64004 13.2838C6.54091 13.3785 6.42337 13.4518 6.29472 13.4991C6.16606 13.5465 6.02904 13.5669 5.89217 13.5591C5.7553 13.5513 5.62149 13.5154 5.49907 13.4537C5.37665 13.392 5.26823 13.3057 5.18054 13.2004C5.09284 13.095 5.02776 12.9727 4.98932 12.8411C4.95089 12.7095 4.93992 12.5714 4.95711 12.4354C4.97429 12.2994 5.01926 12.1683 5.08922 12.0504C5.15918 11.9325 5.25264 11.8303 5.36379 11.75C7.33443 10.1238 9.77266 9.1691 12.3235 9.02476C14.8744 8.88042 17.4048 9.55402 19.5463 10.9475C19.7605 11.087 19.9131 11.3032 19.9728 11.5517C20.0326 11.8002 19.9949 12.0622 19.8675 12.2838L17.7275 16H25C25.1481 16 25.2943 16.0328 25.4281 16.0961C25.5619 16.1595 25.68 16.2517 25.7738 16.3663Z" fill="#4A4A4F"/>
</svg>
