<svg width="32" height="32" viewBox="0 0 32 32" fill="none" xmlns="http://www.w3.org/2000/svg">
<path d="M31.3163 24.9487L28.3163 25.9487C28.0881 26.0251 27.8399 26.0166 27.6174 25.9247C27.3949 25.8329 27.213 25.6638 27.1051 25.4487L23.3813 17.9999H13.0001C12.7349 17.9999 12.4805 17.8946 12.293 17.707C12.1054 17.5195 12.0001 17.2651 12.0001 16.9999V13.2924C10.3893 13.7733 9.00539 14.8177 8.10123 16.2349C7.19707 17.652 6.83308 19.3472 7.07578 21.0106C7.31848 22.674 8.15166 24.1945 9.42303 25.2942C10.6944 26.3939 12.3191 26.9994 14.0001 26.9999C17.2388 26.9999 20.2613 24.7437 21.0313 21.7499C21.0642 21.6227 21.1217 21.5032 21.2007 21.3982C21.2798 21.2933 21.3787 21.2049 21.4918 21.1381C21.605 21.0714 21.7302 21.0276 21.8603 21.0092C21.9904 20.9909 22.1229 20.9983 22.2501 21.0312C22.3773 21.064 22.4968 21.1216 22.6018 21.2006C22.7067 21.2796 22.7951 21.3785 22.8619 21.4917C22.9286 21.6049 22.9724 21.7301 22.9908 21.8602C23.0091 21.9903 23.0017 22.1227 22.9688 22.2499C21.9613 26.1624 18.1901 28.9999 14.0001 28.9999C11.7883 28.9986 9.65445 28.1829 8.0058 26.7085C6.35715 25.2341 5.30916 23.2042 5.06184 21.0063C4.81452 18.8084 5.38519 16.5964 6.66494 14.7924C7.9447 12.9885 9.8439 11.719 12.0001 11.2262V8.85117C11.1944 8.61097 10.5021 8.0888 10.0498 7.38013C9.5975 6.67147 9.41537 5.82368 9.53675 4.99178C9.65812 4.15988 10.0749 3.39946 10.7108 2.84957C11.3467 2.29968 12.1594 1.99707 13.0001 1.99707C13.8408 1.99707 14.6534 2.29968 15.2893 2.84957C15.9253 3.39946 16.342 4.15988 16.4634 4.99178C16.5848 5.82368 16.4027 6.67147 15.9503 7.38013C15.498 8.0888 14.8057 8.61097 14.0001 8.85117V10.9999H21.0001C21.2653 10.9999 21.5196 11.1053 21.7072 11.2928C21.8947 11.4804 22.0001 11.7347 22.0001 11.9999C22.0001 12.2651 21.8947 12.5195 21.7072 12.707C21.5196 12.8946 21.2653 12.9999 21.0001 12.9999H14.0001V15.9999H24.0001C24.1856 16 24.3675 16.0518 24.5254 16.1493C24.6832 16.2469 24.8108 16.3865 24.8938 16.5524L28.5063 23.7774L30.6838 23.0512C30.9355 22.9673 31.2101 22.9868 31.4473 23.1054C31.6846 23.224 31.865 23.432 31.9488 23.6837C32.0327 23.9353 32.0132 24.2099 31.8946 24.4472C31.776 24.6844 31.568 24.8648 31.3163 24.9487Z" fill="#4A4A4F"/>
</svg>
