<svg width="32" height="32" viewBox="0 0 32 32" fill="none" xmlns="http://www.w3.org/2000/svg">
<path d="M31.9488 23.6837C31.9073 23.5591 31.8416 23.4439 31.7556 23.3447C31.6696 23.2455 31.5648 23.1642 31.4473 23.1054C31.3299 23.0467 31.202 23.0117 31.071 23.0024C30.94 22.9931 30.8084 23.0096 30.6838 23.0512L28.5063 23.7774L24.8938 16.5524C24.8108 16.3865 24.6832 16.2469 24.5254 16.1493C24.3675 16.0518 24.1856 16 24.0001 15.9999H14.0001V12.9999H21.0001C21.2653 12.9999 21.5196 12.8946 21.7072 12.707C21.8947 12.5195 22.0001 12.2652 22.0001 11.9999C22.0001 11.7347 21.8947 11.4804 21.7072 11.2928C21.5196 11.1053 21.2653 10.9999 21.0001 10.9999H14.0001V9.87494C14.9427 9.63154 15.7643 9.05271 16.3107 8.24693C16.8571 7.44115 17.0909 6.46375 16.9682 5.49794C16.8455 4.53212 16.3748 3.6442 15.6443 3.00061C14.9138 2.35703 13.9737 2.00195 13.0001 2.00195C12.0265 2.00195 11.0864 2.35703 10.3558 3.00061C9.62534 3.6442 9.15463 4.53212 9.03196 5.49794C8.90929 6.46375 9.14306 7.44115 9.68948 8.24693C10.2359 9.05271 11.0574 9.63154 12.0001 9.87494V11.2262C9.8439 11.719 7.9447 12.9885 6.66494 14.7925C5.38519 16.5964 4.81452 18.8084 5.06184 21.0063C5.30916 23.2042 6.35715 25.2341 8.0058 26.7085C9.65445 28.1829 11.7883 28.9986 14.0001 28.9999C18.1901 28.9999 21.9613 26.1612 22.9688 22.2499C23.0017 22.1227 23.0091 21.9903 22.9908 21.8602C22.9724 21.7301 22.9286 21.6049 22.8619 21.4917C22.7951 21.3785 22.7067 21.2796 22.6018 21.2006C22.4968 21.1216 22.3773 21.064 22.2501 21.0312C22.1229 20.9984 21.9904 20.9909 21.8603 21.0093C21.7302 21.0276 21.605 21.0714 21.4918 21.1382C21.3787 21.2049 21.2798 21.2933 21.2007 21.3982C21.1217 21.5032 21.0642 21.6227 21.0313 21.7499C20.2613 24.7499 17.2388 26.9999 14.0001 26.9999C12.3191 26.9994 10.6944 26.3939 9.42303 25.2942C8.15166 24.1945 7.31848 22.674 7.07578 21.0106C6.83308 19.3472 7.19707 17.652 8.10123 16.2349C9.00539 14.8177 10.3893 13.7733 12.0001 13.2924V16.9999C12.0001 17.2652 12.1054 17.5195 12.293 17.707C12.4805 17.8946 12.7349 17.9999 13.0001 17.9999H23.3813L27.1051 25.4474C27.213 25.6626 27.3949 25.8316 27.6174 25.9235C27.8399 26.0153 28.0881 26.0238 28.3163 25.9474L31.3163 24.9474C31.5677 24.8636 31.7755 24.6834 31.894 24.4464C32.0126 24.2095 32.0323 23.9352 31.9488 23.6837ZM11.0001 5.99994C11.0001 5.60437 11.1174 5.21769 11.3371 4.8888C11.5569 4.5599 11.8693 4.30355 12.2347 4.15218C12.6002 4.0008 13.0023 3.9612 13.3903 4.03837C13.7782 4.11554 14.1346 4.30602 14.4143 4.58572C14.694 4.86543 14.8845 5.22179 14.9616 5.60976C15.0388 5.99772 14.9992 6.39985 14.8478 6.7653C14.6965 7.13076 14.4401 7.44311 14.1112 7.66288C13.7823 7.88264 13.3956 7.99994 13.0001 7.99994C12.4696 7.99994 11.9609 7.78922 11.5859 7.41415C11.2108 7.03908 11.0001 6.53037 11.0001 5.99994Z" fill="#4A4A4F"/>
</svg>
