<svg width="32" height="32" viewBox="0 0 32 32" fill="none" xmlns="http://www.w3.org/2000/svg">
<path d="M30.5436 11.6002L17.5436 27.2789C17.3557 27.5059 17.1198 27.6883 16.8528 27.813C16.5859 27.9377 16.2945 28.0017 15.9999 28.0002C15.7061 28.0009 15.4157 27.9366 15.1497 27.8119C14.8837 27.6872 14.6485 27.5052 14.4611 27.2789L1.45614 11.6002C1.28498 11.3957 1.15743 11.1583 1.08133 10.9028C1.00524 10.6472 0.982204 10.3787 1.01364 10.1139C1.04492 9.84845 1.12933 9.592 1.26183 9.35985C1.39434 9.1277 1.57222 8.9246 1.78489 8.76266C5.87038 5.65479 10.8667 3.98086 15.9999 4.00017C21.1331 3.98086 26.1294 5.65479 30.2149 8.76266C30.4276 8.9246 30.6054 9.1277 30.738 9.35985C30.8705 9.592 30.9549 9.84845 30.9861 10.1139C31.0176 10.3787 30.9945 10.6472 30.9185 10.9028C30.8424 11.1583 30.7148 11.3957 30.5436 11.6002Z" fill="#4A4A4F"/>
</svg>
