<svg width="32" height="32" viewBox="0 0 32 32" fill="none" xmlns="http://www.w3.org/2000/svg">
<path d="M26.74 26.3276C26.8301 26.4244 26.9002 26.5382 26.946 26.6624C26.9919 26.7865 27.0127 26.9185 27.0072 27.0507C27.0016 27.1829 26.9699 27.3127 26.9139 27.4326C26.8578 27.5525 26.7785 27.66 26.6806 27.749C26.5827 27.838 26.468 27.9067 26.3434 27.9511C26.2187 27.9954 26.0865 28.0146 25.9543 28.0075C25.8222 28.0004 25.6928 27.9671 25.5736 27.9096C25.4544 27.8522 25.3478 27.7716 25.26 27.6726L18.76 20.5288C17.5845 20.0624 16.3102 19.9008 15.0555 20.0591C13.8009 20.2173 12.6066 20.6902 11.5837 21.4338C11.4778 21.5139 11.3569 21.5721 11.2283 21.6049C11.0996 21.6378 10.9657 21.6447 10.8343 21.6252C10.703 21.6058 10.5768 21.5604 10.4632 21.4916C10.3495 21.4229 10.2507 21.3322 10.1726 21.2249C10.0944 21.1175 10.0383 20.9957 10.0077 20.8665C9.97711 20.7373 9.97255 20.6032 9.99431 20.4722C10.0161 20.3412 10.0637 20.2159 10.1344 20.1035C10.2051 19.9911 10.2975 19.8939 10.4062 19.8176C12.0293 18.6308 13.9893 17.994 16 18.0001C16.16 18.0001 16.3187 18.0001 16.4775 18.0126L13.1125 14.3113C11.1094 14.7508 9.23273 15.6408 7.62497 16.9138C7.52187 16.9959 7.40355 17.0569 7.27683 17.0931C7.1501 17.1293 7.01746 17.1401 6.88654 17.1249C6.75563 17.1097 6.629 17.0687 6.51397 17.0044C6.39893 16.9401 6.29774 16.8537 6.21622 16.7501C6.0514 16.5428 5.97555 16.2785 6.00531 16.0154C6.03507 15.7522 6.16801 15.5116 6.37497 15.3463C7.92485 14.1204 9.69441 13.2015 11.5887 12.6388L8.67122 9.42508C6.8504 10.1646 5.15233 11.1761 3.63497 12.4251C3.5332 12.5085 3.41599 12.571 3.29005 12.6091C3.16411 12.6472 3.03191 12.6601 2.90098 12.6471C2.77004 12.6341 2.64296 12.5954 2.52697 12.5333C2.41098 12.4712 2.30836 12.3869 2.22497 12.2851C2.14158 12.1833 2.07905 12.0661 2.04096 11.9402C2.00287 11.8142 1.98995 11.682 2.00295 11.5511C2.0292 11.2867 2.15943 11.0435 2.36497 10.8751C3.85095 9.6552 5.49396 8.64031 7.24997 7.85758L5.25997 5.67258C5.1698 5.57573 5.09976 5.46194 5.05389 5.33781C5.00803 5.21368 4.98725 5.08168 4.99278 4.94947C4.9983 4.81725 5.03001 4.68745 5.08607 4.56758C5.14213 4.44771 5.22143 4.34016 5.31936 4.25116C5.41729 4.16216 5.53191 4.09348 5.65658 4.04911C5.78125 4.00473 5.91349 3.98555 6.04563 3.99265C6.17777 3.99976 6.30718 4.03303 6.42637 4.09052C6.54556 4.14801 6.65215 4.22859 6.73997 4.32758L26.74 26.3276ZM16 24.0001C15.7033 24.0001 15.4133 24.0881 15.1666 24.2529C14.9199 24.4177 14.7277 24.652 14.6142 24.9261C14.5006 25.2001 14.4709 25.5017 14.5288 25.7927C14.5867 26.0837 14.7295 26.351 14.9393 26.5607C15.1491 26.7705 15.4164 26.9134 15.7073 26.9713C15.9983 27.0291 16.2999 26.9994 16.574 26.8859C16.8481 26.7724 17.0824 26.5801 17.2472 26.3334C17.412 26.0868 17.5 25.7968 17.5 25.5001C17.5 25.1023 17.3419 24.7207 17.0606 24.4394C16.7793 24.1581 16.3978 24.0001 16 24.0001ZM29.635 10.8751C27.3674 9.018 24.7446 7.64329 21.9272 6.83513C19.1099 6.02697 16.1572 5.80237 13.25 6.17508C13.1173 6.18862 12.9888 6.22854 12.8718 6.29249C12.7548 6.35644 12.6518 6.44314 12.5688 6.54747C12.4859 6.65181 12.4246 6.77169 12.3886 6.90006C12.3526 7.02842 12.3427 7.16268 12.3594 7.29495C12.376 7.42722 12.419 7.55481 12.4857 7.67024C12.5524 7.78567 12.6415 7.88659 12.7478 7.96708C12.854 8.04757 12.9753 8.106 13.1045 8.13893C13.2337 8.17186 13.3681 8.17862 13.5 8.15883C14.3291 8.05318 15.1641 8.00016 16 8.00008C20.5084 8.00255 24.8771 9.56464 28.365 12.4213C28.57 12.5897 28.8336 12.6698 29.0976 12.6439C29.3617 12.618 29.6047 12.4883 29.7731 12.2832C29.9415 12.0782 30.0216 11.8146 29.9957 11.5505C29.9698 11.2865 29.84 11.0435 29.635 10.8751ZM24.375 16.9138C24.4779 16.9954 24.5959 17.056 24.7222 17.0919C24.8485 17.1279 24.9807 17.1387 25.1111 17.1236C25.2416 17.1085 25.3678 17.0679 25.4826 17.004C25.5973 16.9401 25.6984 16.8543 25.78 16.7513C25.8616 16.6484 25.9221 16.5304 25.9581 16.4041C25.9941 16.2778 26.0048 16.1456 25.9897 16.0152C25.9747 15.8847 25.934 15.7585 25.8701 15.6437C25.8063 15.529 25.7204 15.4279 25.6175 15.3463C23.7262 13.8496 21.5123 12.8139 19.1512 12.3213C19.0213 12.2915 18.8867 12.2879 18.7553 12.3108C18.624 12.3337 18.4985 12.3826 18.3863 12.4547C18.2742 12.5268 18.1776 12.6206 18.1022 12.7306C18.0268 12.8406 17.9742 12.9646 17.9475 13.0952C17.9207 13.2258 17.9203 13.3605 17.9464 13.4913C17.9724 13.622 18.0244 13.7463 18.0992 13.8567C18.1739 13.9671 18.27 14.0614 18.3818 14.1341C18.4936 14.2068 18.6187 14.2565 18.75 14.2801C20.804 14.7094 22.7299 15.6111 24.375 16.9138Z" fill="#4A4A4F"/>
</svg>
