<svg width="32" height="32" viewBox="0 0 32 32" fill="none" xmlns="http://www.w3.org/2000/svg">
<path d="M17.5 25.5002C17.5 25.7968 17.412 26.0868 17.2472 26.3335C17.0824 26.5802 16.8481 26.7724 16.574 26.886C16.2999 26.9995 15.9983 27.0292 15.7073 26.9713C15.4164 26.9135 15.1491 26.7706 14.9393 26.5608C14.7295 26.351 14.5867 26.0838 14.5288 25.7928C14.4709 25.5018 14.5006 25.2002 14.6142 24.9261C14.7277 24.652 14.92 24.4178 15.1666 24.253C15.4133 24.0881 15.7033 24.0002 16 24.0002C16.3978 24.0002 16.7793 24.1582 17.0606 24.4395C17.3419 24.7208 17.5 25.1023 17.5 25.5002ZM29.635 10.8752C25.7906 7.72188 20.9721 5.99854 16 5.99854C11.0278 5.99854 6.20936 7.72188 2.36499 10.8752C2.26346 10.9585 2.17935 11.0611 2.11746 11.177C2.05557 11.2929 2.01712 11.4199 2.00429 11.5506C1.99146 11.6814 2.00452 11.8134 2.04271 11.9391C2.0809 12.0648 2.14347 12.1818 2.22686 12.2833C2.31025 12.3848 2.41282 12.4689 2.52871 12.5308C2.64461 12.5927 2.77156 12.6311 2.90232 12.644C3.16639 12.6699 3.42994 12.5898 3.63499 12.4214C7.1215 9.56229 11.4911 7.99976 16 7.99976C20.5089 7.99976 24.8785 9.56229 28.365 12.4214C28.57 12.5898 28.8336 12.6699 29.0977 12.644C29.3617 12.6181 29.6047 12.4883 29.7731 12.2833C29.9415 12.0782 30.0216 11.8147 29.9957 11.5506C29.9698 11.2865 29.84 11.0436 29.635 10.8752ZM25.625 15.3464C22.8867 13.1784 19.4964 11.9988 16.0037 11.9988C12.5111 11.9988 9.12082 13.1784 6.38249 15.3464C6.17462 15.5112 6.04072 15.7518 6.01025 16.0152C5.97978 16.2787 6.05522 16.5435 6.21999 16.7514C6.38475 16.9593 6.62534 17.0932 6.88883 17.1236C7.15232 17.1541 7.41712 17.0787 7.62499 16.9139C10.0098 15.0262 12.9622 13.9991 16.0037 13.9991C19.0453 13.9991 21.9977 15.0262 24.3825 16.9139C24.4854 16.9955 24.6034 17.056 24.7297 17.092C24.856 17.128 24.9882 17.1388 25.1186 17.1237C25.2491 17.1086 25.3753 17.068 25.4901 17.0041C25.6049 16.9402 25.7059 16.8543 25.7875 16.7514C25.8691 16.6485 25.9296 16.5305 25.9656 16.4042C26.0016 16.2779 26.0124 16.1457 25.9973 16.0152C25.9822 15.8848 25.9415 15.7586 25.8777 15.6438C25.8138 15.529 25.7279 15.428 25.625 15.3464ZM21.5925 19.8164C19.9682 18.6359 18.0117 18.0001 16.0037 18.0001C13.9957 18.0001 12.0393 18.6359 10.415 19.8164C10.2005 19.9726 10.0568 20.2075 10.0156 20.4696C9.9743 20.7317 10.0388 20.9994 10.195 21.2139C10.3511 21.4284 10.5861 21.5721 10.8482 21.6133C11.1103 21.6546 11.378 21.5901 11.5925 21.4339C12.8744 20.5016 14.4187 19.9995 16.0037 19.9995C17.5888 19.9995 19.1331 20.5016 20.415 21.4339C20.5212 21.5112 20.6416 21.5669 20.7693 21.5976C20.897 21.6284 21.0295 21.6338 21.1593 21.6133C21.2891 21.5929 21.4135 21.5471 21.5256 21.4786C21.6377 21.41 21.7352 21.3201 21.8125 21.2139C21.8898 21.1077 21.9454 20.9873 21.9762 20.8596C22.007 20.7319 22.0123 20.5994 21.9919 20.4696C21.9715 20.3398 21.9257 20.2153 21.8572 20.1033C21.7886 19.9912 21.6987 19.8937 21.5925 19.8164Z" fill="#4A4A4F"/>
</svg>
