<svg width="32" height="32" viewBox="0 0 32 32" fill="none" xmlns="http://www.w3.org/2000/svg">
<path d="M17.5 25.4999C17.5 25.7965 17.4121 26.0865 17.2472 26.3332C17.0824 26.5799 16.8481 26.7721 16.574 26.8857C16.3 26.9992 15.9984 27.0289 15.7074 26.971C15.4164 26.9132 15.1491 26.7703 14.9394 26.5605C14.7296 26.3507 14.5867 26.0835 14.5288 25.7925C14.471 25.5015 14.5007 25.1999 14.6142 24.9258C14.7277 24.6517 14.92 24.4175 15.1667 24.2527C15.4133 24.0878 15.7034 23.9999 16 23.9999C16.3978 23.9999 16.7794 24.1579 17.0607 24.4392C17.342 24.7205 17.5 25.102 17.5 25.4999ZM25.625 15.3461C22.8867 13.1781 19.4964 11.9985 16.0038 11.9985C12.5111 11.9985 9.12085 13.1781 6.38252 15.3461C6.17466 15.5109 6.04076 15.7515 6.01029 16.0149C5.97981 16.2784 6.05526 16.5432 6.22002 16.7511C6.38479 16.959 6.62538 17.0929 6.88887 17.1233C7.15236 17.1538 7.41716 17.0784 7.62502 16.9136C10.0098 15.0259 12.9623 13.9988 16.0038 13.9988C19.0453 13.9988 21.9977 15.0259 24.3825 16.9136C24.4854 16.9952 24.6034 17.0557 24.7297 17.0917C24.856 17.1277 24.9882 17.1385 25.1187 17.1234C25.2492 17.1083 25.3754 17.0677 25.4901 17.0038C25.6049 16.9399 25.7059 16.854 25.7875 16.7511C25.8691 16.6482 25.9296 16.5302 25.9656 16.4039C26.0016 16.2776 26.0124 16.1454 25.9973 16.0149C25.9822 15.8845 25.9416 15.7583 25.8777 15.6435C25.8138 15.5287 25.728 15.4277 25.625 15.3461ZM21.5925 19.8161C19.9682 18.6356 18.0118 17.9998 16.0038 17.9998C13.9958 17.9998 12.0394 18.6356 10.415 19.8161C10.2005 19.9723 10.0568 20.2072 10.0156 20.4693C9.97433 20.7314 10.0389 20.9991 10.195 21.2136C10.3512 21.4281 10.5861 21.5718 10.8482 21.613C11.1103 21.6543 11.378 21.5898 11.5925 21.4336C12.8744 20.5013 14.4187 19.9992 16.0038 19.9992C17.5888 19.9992 19.1331 20.5013 20.415 21.4336C20.5212 21.5109 20.6416 21.5666 20.7693 21.5973C20.897 21.6281 21.0296 21.6335 21.1593 21.613C21.2891 21.5926 21.4136 21.5468 21.5257 21.4783C21.6377 21.4097 21.7352 21.3198 21.8125 21.2136C21.8898 21.1074 21.9455 20.987 21.9763 20.8593C22.0071 20.7316 22.0124 20.5991 21.992 20.4693C21.9715 20.3395 21.9257 20.215 21.8572 20.103C21.7887 19.9909 21.6987 19.8934 21.5925 19.8161Z" fill="#4A4A4F"/>
</svg>
