<svg width="32" height="32" viewBox="0 0 32 32" fill="none" xmlns="http://www.w3.org/2000/svg">
<path d="M30.9861 10.1139C30.9549 9.84845 30.8705 9.592 30.738 9.35985C30.6054 9.1277 30.4276 8.9246 30.2149 8.76266C26.1294 5.65479 21.1331 3.98086 15.9999 4.00017C10.8667 3.98086 5.87038 5.65479 1.78489 8.76266C1.57222 8.9246 1.39434 9.1277 1.26183 9.35985C1.12933 9.592 1.04492 9.84845 1.01364 10.1139C0.982204 10.3787 1.00524 10.6472 1.08133 10.9028C1.15743 11.1583 1.28498 11.3957 1.45614 11.6002L14.4561 27.2789C14.6441 27.5059 14.88 27.6883 15.147 27.813C15.4139 27.9377 15.7052 28.0017 15.9999 28.0002C16.2937 28.0009 16.584 27.9366 16.8501 27.8119C17.1161 27.6872 17.3513 27.5052 17.5386 27.2789L30.5386 11.6002C30.7107 11.3961 30.8391 11.1589 30.9161 10.9033C30.9931 10.6477 31.0169 10.3791 30.9861 10.1139ZM25.1399 14.9814C22.4863 13.0439 19.2856 11.9998 15.9999 11.9998C12.7142 11.9998 9.51353 13.0439 6.85989 14.9814L3.01114 10.3427C6.74621 7.50777 11.3109 5.98169 15.9999 6.00017C20.6889 5.98169 25.2536 7.50777 28.9886 10.3427L25.1399 14.9814Z" fill="#4A4A4F"/>
</svg>
