<svg width="32" height="32" viewBox="0 0 32 32" fill="none" xmlns="http://www.w3.org/2000/svg">
<path d="M28.6886 12.2664C28.873 12.446 28.9832 12.6883 28.9973 12.9453C29.0115 13.2023 28.9285 13.4552 28.7649 13.6539C28.6751 13.7581 28.5647 13.8427 28.4406 13.9023C28.3166 13.9619 28.1816 13.9953 28.0441 14.0003C27.9066 14.0054 27.7695 13.982 27.6415 13.9316C27.5134 13.8813 27.3971 13.805 27.2999 13.7077L25.0061 11.4139L22.7136 13.7077C22.6164 13.805 22.5001 13.8813 22.3721 13.9316C22.244 13.982 22.1069 14.0054 21.9694 14.0003C21.8319 13.9953 21.6969 13.9619 21.5729 13.9023C21.4489 13.8427 21.3385 13.7581 21.2486 13.6539C21.085 13.4552 21.0021 13.2023 21.0162 12.9453C21.0303 12.6883 21.1405 12.446 21.3249 12.2664L23.5924 10.0001L21.3286 7.7364C21.1382 7.55199 21.0265 7.30103 21.0169 7.03609C21.0074 6.77115 21.1007 6.5128 21.2774 6.31515C21.3691 6.21747 21.4795 6.13922 21.6021 6.08504C21.7246 6.03086 21.8568 6.00186 21.9908 5.99976C22.1247 5.99766 22.2577 6.02251 22.3819 6.07282C22.5061 6.12313 22.6189 6.19789 22.7136 6.29265L25.0061 8.5864L27.2999 6.29265C27.3946 6.19789 27.5074 6.12313 27.6316 6.07282C27.7558 6.02251 27.8888 5.99766 28.0228 5.99976C28.1568 6.00186 28.2889 6.03086 28.4115 6.08504C28.534 6.13922 28.6444 6.21747 28.7361 6.31515C28.9128 6.5128 29.0062 6.77115 28.9966 7.03609C28.9871 7.30103 28.8754 7.55199 28.6849 7.7364L26.4211 10.0001L28.6886 12.2664ZM26.4999 15.5889C26.2782 15.4598 26.074 15.3027 25.8924 15.1214L25.3661 14.5964C25.2724 14.5029 25.1454 14.4504 25.013 14.4504C24.8806 14.4504 24.7536 14.5029 24.6599 14.5964L24.1249 15.1251C23.8436 15.4067 23.5091 15.6294 23.1408 15.7804C22.7726 15.9314 22.3779 16.0076 21.98 16.0046C21.582 16.0015 21.1886 15.9193 20.8227 15.7628C20.4568 15.6062 20.1256 15.3784 19.8486 15.0926C18.6999 13.9076 18.7624 12.0014 19.9299 10.8351L20.4061 10.3576C20.4526 10.3112 20.4895 10.2561 20.5147 10.1954C20.5398 10.1347 20.5528 10.0696 20.5528 10.0039C20.5528 9.93819 20.5398 9.87313 20.5147 9.81243C20.4895 9.75173 20.4526 9.69659 20.4061 9.65015L19.8824 9.12515C19.6032 8.84595 19.3819 8.51438 19.2311 8.14945C19.0803 7.78453 19.0031 7.39343 19.0038 6.99859C19.0045 6.60375 19.0831 6.21293 19.2352 5.84854C19.3872 5.48415 19.6097 5.15337 19.8899 4.87515C19.9351 4.82992 19.967 4.77307 19.982 4.71088C19.997 4.64869 19.9945 4.58357 19.9749 4.52268C19.9553 4.4618 19.9192 4.40752 19.8707 4.36583C19.8221 4.32414 19.763 4.29665 19.6999 4.2864C18.4758 4.09556 17.2388 3.99986 15.9999 4.00015C10.8668 3.98177 5.87082 5.65561 1.78489 8.76265C1.57222 8.92458 1.39434 9.12768 1.26183 9.35983C1.12933 9.59198 1.04492 9.84843 1.01364 10.1139C0.982204 10.3787 1.00524 10.6472 1.08133 10.9027C1.15743 11.1583 1.28498 11.3957 1.45614 11.6002L14.4649 27.2789C14.6519 27.5047 14.8864 27.6864 15.1518 27.8111C15.4171 27.9358 15.7067 28.0003 15.9999 28.0001C16.2936 28.0003 16.5837 27.9357 16.8497 27.8111C17.1156 27.6864 17.3509 27.5047 17.5386 27.2789L26.6136 16.3414C26.6611 16.2868 26.6961 16.2225 26.7163 16.153C26.7364 16.0835 26.7413 16.0104 26.7304 15.9389C26.7196 15.8673 26.6934 15.799 26.6536 15.7386C26.6138 15.6781 26.5614 15.6271 26.4999 15.5889Z" fill="#4A4A4F"/>
</svg>
