<svg width="32" height="32" viewBox="0 0 32 32" fill="none" xmlns="http://www.w3.org/2000/svg">
<path d="M14 17.9999V24.4549C14 24.7201 13.8946 24.9745 13.7071 25.162C13.5196 25.3496 13.2652 25.4549 13 25.4549C12.9401 25.4545 12.8803 25.4491 12.8212 25.4387L4.82125 23.9837C4.59083 23.9418 4.38242 23.8204 4.23234 23.6406C4.08226 23.4608 4.00003 23.2341 4 22.9999V17.9999C4 17.7347 4.10536 17.4803 4.29289 17.2928C4.48043 17.1053 4.73478 16.9999 5 16.9999H13C13.2652 16.9999 13.5196 17.1053 13.7071 17.2928C13.8946 17.4803 14 17.7347 14 17.9999ZM13.6412 6.77741C13.5288 6.68348 13.397 6.61543 13.2553 6.57806C13.1136 6.54069 12.9654 6.53492 12.8212 6.56116L4.82125 8.01616C4.59083 8.05802 4.38242 8.17942 4.23234 8.3592C4.08226 8.53898 4.00003 8.76572 4 8.99991V13.9999C4 14.2651 4.10536 14.5195 4.29289 14.707C4.48043 14.8946 4.73478 14.9999 5 14.9999H13C13.2652 14.9999 13.5196 14.8946 13.7071 14.707C13.8946 14.5195 14 14.2651 14 13.9999V7.54491C14 7.39852 13.9679 7.25391 13.9059 7.12129C13.8439 6.98867 13.7536 6.87128 13.6412 6.77741ZM27 16.9999H17C16.7348 16.9999 16.4804 17.1053 16.2929 17.2928C16.1054 17.4803 16 17.7347 16 17.9999V25.1812C15.9997 25.4156 16.0818 25.6426 16.2319 25.8226C16.382 26.0027 16.5906 26.1243 16.8213 26.1662L26.8213 27.9837C26.8802 27.9947 26.94 28.0001 27 27.9999C27.2652 27.9999 27.5196 27.8946 27.7071 27.707C27.8946 27.5195 28 27.2651 28 26.9999V17.9999C28 17.7347 27.8946 17.4803 27.7071 17.2928C27.5196 17.1053 27.2652 16.9999 27 16.9999ZM27.6413 4.23241C27.5288 4.13848 27.397 4.07043 27.2553 4.03306C27.1136 3.99569 26.9654 3.98992 26.8213 4.01616L16.8213 5.83491C16.5908 5.87677 16.3824 5.99817 16.2323 6.17795C16.0823 6.35773 16 6.58447 16 6.81866V13.9999C16 14.2651 16.1054 14.5195 16.2929 14.707C16.4804 14.8946 16.7348 14.9999 17 14.9999H27C27.2652 14.9999 27.5196 14.8946 27.7071 14.707C27.8946 14.5195 28 14.2651 28 13.9999V4.99991C28 4.85352 27.9679 4.70891 27.9059 4.57629C27.8439 4.44367 27.7536 4.32628 27.6413 4.23241Z" fill="#4A4A4F"/>
</svg>
