<svg width="32" height="32" viewBox="0 0 32 32" fill="none" xmlns="http://www.w3.org/2000/svg">
<path d="M15 13H3C2.86291 13.0003 2.72723 12.9724 2.60137 12.9181C2.47552 12.8637 2.36218 12.7841 2.2684 12.6841C2.17462 12.5841 2.1024 12.4659 2.05623 12.3368C2.01006 12.2077 1.99092 12.0705 2 11.9337C2.02212 11.6762 2.14111 11.4366 2.33296 11.2633C2.52481 11.09 2.77525 10.9959 3.03375 11H14C14.1371 11.0003 14.2728 10.9724 14.3986 10.9181C14.5245 10.8637 14.6378 10.7841 14.7316 10.6841C14.8254 10.5841 14.8976 10.4659 14.9438 10.3368C14.9899 10.2077 15.0091 10.0705 15 9.93375C14.9779 9.67616 14.8589 9.43655 14.667 9.26326C14.4752 9.08997 14.2247 8.99588 13.9663 9H11.5363C11.464 9.00076 11.3925 8.98586 11.3266 8.95633C11.2606 8.9268 11.2019 8.88334 11.1544 8.82893C11.1069 8.77452 11.0717 8.71046 11.0513 8.64116C11.0309 8.57186 11.0258 8.49897 11.0363 8.4275C11.146 7.66892 11.4713 6.95783 11.9735 6.37886C12.4758 5.79988 13.1338 5.3774 13.8693 5.16168C14.6048 4.94597 15.3868 4.94611 16.1222 5.16208C16.8576 5.37806 17.5155 5.80078 18.0175 6.37993C18.5196 6.95909 18.8447 7.67029 18.9541 8.42891C19.0635 9.18752 18.9527 9.96161 18.6348 10.659C18.3169 11.3565 17.8053 11.9479 17.1609 12.3629C16.5165 12.7779 15.7665 12.9991 15 13ZM29.99 12.7137C29.9196 11.7296 29.488 10.8063 28.7781 10.1211C28.0682 9.43588 27.1301 9.03723 26.1441 9.00172C25.1582 8.96622 24.1938 9.29636 23.4365 9.92871C22.6792 10.5611 22.1822 11.451 22.0413 12.4275C22.0308 12.499 22.0359 12.5719 22.0563 12.6412C22.0767 12.7105 22.1119 12.7745 22.1594 12.8289C22.2069 12.8833 22.2656 12.9268 22.3316 12.9563C22.3975 12.9859 22.469 13.0008 22.5413 13H24.9713C25.2293 12.9965 25.4791 13.0909 25.6705 13.2641C25.8618 13.4374 25.9804 13.6766 26.0025 13.9337C26.0116 14.0705 25.9924 14.2077 25.9463 14.3368C25.9001 14.4659 25.8279 14.5841 25.7341 14.6841C25.6403 14.7841 25.527 14.8637 25.4011 14.9181C25.2753 14.9724 25.1396 15.0003 25.0025 15H4.03375C3.77525 14.9959 3.52481 15.09 3.33296 15.2633C3.14111 15.4366 3.02212 15.6762 3 15.9337C2.99092 16.0705 3.01006 16.2077 3.05623 16.3368C3.1024 16.4659 3.17462 16.5841 3.2684 16.6841C3.36218 16.7841 3.47552 16.8637 3.60137 16.9181C3.72723 16.9724 3.86291 17.0003 4 17H26C26.5494 17 27.093 16.8869 27.5967 16.6676C28.1005 16.4483 28.5537 16.1276 28.9281 15.7254C29.3024 15.3233 29.5899 14.8483 29.7726 14.3302C29.9553 13.812 30.0293 13.2618 29.99 12.7137ZM19 19H5.03375C4.77525 18.9959 4.52481 19.09 4.33296 19.2633C4.14111 19.4366 4.02212 19.6762 4 19.9337C3.99092 20.0705 4.01006 20.2077 4.05623 20.3368C4.1024 20.4659 4.17462 20.5841 4.2684 20.6841C4.36218 20.7841 4.47552 20.8637 4.60137 20.9181C4.72723 20.9724 4.86291 21.0003 5 21H17.9662C18.2243 20.9965 18.4741 21.0909 18.6655 21.2641C18.8568 21.4374 18.9754 21.6766 18.9975 21.9337C19.0066 22.0705 18.9874 22.2077 18.9413 22.3368C18.8951 22.4659 18.8229 22.5841 18.7291 22.6841C18.6353 22.7841 18.522 22.8637 18.3961 22.9181C18.2703 22.9724 18.1346 23.0003 17.9975 23H15.5363C15.464 22.9992 15.3925 23.0141 15.3266 23.0437C15.2606 23.0732 15.2019 23.1167 15.1544 23.1711C15.1069 23.2255 15.0717 23.2895 15.0513 23.3588C15.0309 23.4281 15.0258 23.501 15.0363 23.5725C15.146 24.3311 15.4713 25.0422 15.9735 25.6211C16.4758 26.2001 17.1338 26.6226 17.8693 26.8383C18.6048 27.054 19.3868 27.0539 20.1222 26.8379C20.8576 26.6219 21.5155 26.1992 22.0175 25.6201C22.5196 25.0409 22.8447 24.3297 22.9541 23.5711C23.0635 22.8125 22.9527 22.0384 22.6348 21.341C22.3169 20.6435 21.8053 20.0521 21.1609 19.6371C20.5165 19.2221 19.7665 19.0009 19 19Z" fill="#4A4A4F"/>
</svg>
