<svg width="32" height="32" viewBox="0 0 32 32" fill="none" xmlns="http://www.w3.org/2000/svg">
<path d="M25.6661 11.9587L22.9449 2.7175C22.8839 2.51046 22.7576 2.3287 22.5848 2.19937C22.412 2.07005 22.202 2.00011 21.9861 2H10.0136C9.79778 2.00011 9.58778 2.07005 9.41497 2.19937C9.24217 2.3287 9.11584 2.51046 9.05487 2.7175L6.33362 11.9587C5.90667 13.3752 5.88433 14.8828 6.26911 16.3113C6.65389 17.7397 7.43047 19.0322 8.51112 20.0425C10.2889 21.7094 12.5728 22.7341 14.9999 22.9538V28H10.9999C10.7347 28 10.4803 28.1054 10.2928 28.2929C10.1052 28.4804 9.99987 28.7348 9.99987 29C9.99987 29.2652 10.1052 29.5196 10.2928 29.7071C10.4803 29.8946 10.7347 30 10.9999 30H20.9999C21.2651 30 21.5194 29.8946 21.707 29.7071C21.8945 29.5196 21.9999 29.2652 21.9999 29C21.9999 28.7348 21.8945 28.4804 21.707 28.2929C21.5194 28.1054 21.2651 28 20.9999 28H16.9999V22.9538C19.427 22.7343 21.711 21.7095 23.4886 20.0425C24.569 19.032 25.3454 17.7396 25.7302 16.3112C26.115 14.8827 26.0928 13.3752 25.6661 11.9587ZM10.7611 4H21.2386L23.7499 12.5238C23.7611 12.5613 23.7711 12.5987 23.7811 12.6362C21.1036 13.5962 18.0886 12.4362 16.4524 11.6075C13.3036 10.0138 10.8036 9.81125 8.95987 10.1163L10.7611 4Z" fill="#4A4A4F"/>
</svg>
