<svg width="32" height="32" viewBox="0 0 32 32" fill="none" xmlns="http://www.w3.org/2000/svg">
<path d="M29 12.0002C29.0015 13.497 28.6297 14.9705 27.9182 16.2874C27.2067 17.6042 26.1781 18.7229 24.9253 19.542C23.6726 20.3611 22.2353 20.8548 20.7437 20.9785C19.252 21.1022 17.7531 20.8519 16.3825 20.2502L9.87503 27.7777C9.86003 27.7952 9.84253 27.814 9.82628 27.8302C9.07605 28.5805 8.05851 29.0019 6.99753 29.0019C5.93654 29.0019 4.91901 28.5805 4.16878 27.8302C3.41855 27.08 2.99707 26.0625 2.99707 25.0015C2.99707 23.9405 3.41855 22.923 4.16878 22.1727C4.18628 22.1565 4.20378 22.139 4.22253 22.124L11.75 15.6177C11.0756 14.075 10.847 12.3741 11.0902 10.7081C11.3334 9.04202 12.0386 7.47745 13.1259 6.19186C14.2131 4.90626 15.6389 3.95108 17.2415 3.43467C18.844 2.91827 20.5592 2.8613 22.1925 3.27024C22.3609 3.31244 22.5154 3.39774 22.6408 3.51775C22.7662 3.63775 22.8582 3.78834 22.9078 3.95469C22.9573 4.12104 22.9627 4.29743 22.9235 4.4665C22.8842 4.63558 22.8016 4.79152 22.6838 4.91899L18 10.0002L18.7075 13.294L22 14.0002L27.0813 9.31024C27.2087 9.19242 27.3647 9.10982 27.5338 9.07054C27.7028 9.03127 27.8792 9.03668 28.0456 9.08624C28.2119 9.13581 28.3625 9.22782 28.4825 9.35323C28.6025 9.47863 28.6878 9.63312 28.73 9.80149C28.9095 10.5206 29.0002 11.259 29 12.0002Z" fill="#4A4A4F"/>
</svg>
