<svg width="32" height="32" viewBox="0 0 32 32" fill="none" xmlns="http://www.w3.org/2000/svg">
<path d="M26 4H6C5.46957 4 4.96086 4.21071 4.58579 4.58579C4.21071 4.96086 4 5.46957 4 6V26C4 26.5304 4.21071 27.0391 4.58579 27.4142C4.96086 27.7893 5.46957 28 6 28H26C26.5304 28 27.0391 27.7893 27.4142 27.4142C27.7893 27.0391 28 26.5304 28 26V6C28 5.46957 27.7893 4.96086 27.4142 4.58579C27.0391 4.21071 26.5304 4 26 4ZM22.7075 21.2925C22.8004 21.3854 22.8741 21.4957 22.9244 21.6171C22.9747 21.7385 23.0006 21.8686 23.0006 22C23.0006 22.1314 22.9747 22.2615 22.9244 22.3829C22.8741 22.5043 22.8004 22.6146 22.7075 22.7075C22.6146 22.8004 22.5043 22.8741 22.3829 22.9244C22.2615 22.9747 22.1314 23.0006 22 23.0006C21.8686 23.0006 21.7385 22.9747 21.6171 22.9244C21.4957 22.8741 21.3854 22.8004 21.2925 22.7075L16 17.4137L10.7075 22.7075C10.5199 22.8951 10.2654 23.0006 10 23.0006C9.73464 23.0006 9.48014 22.8951 9.2925 22.7075C9.10486 22.5199 8.99944 22.2654 8.99944 22C8.99944 21.7346 9.10486 21.4801 9.2925 21.2925L14.5863 16L9.2925 10.7075C9.10486 10.5199 8.99944 10.2654 8.99944 10C8.99944 9.73464 9.10486 9.48014 9.2925 9.2925C9.48014 9.10486 9.73464 8.99944 10 8.99944C10.2654 8.99944 10.5199 9.10486 10.7075 9.2925L16 14.5863L21.2925 9.2925C21.4801 9.10486 21.7346 8.99944 22 8.99944C22.2654 8.99944 22.5199 9.10486 22.7075 9.2925C22.8951 9.48014 23.0006 9.73464 23.0006 10C23.0006 10.2654 22.8951 10.5199 22.7075 10.7075L17.4137 16L22.7075 21.2925Z" fill="#4A4A4F"/>
</svg>
