<svg width="32" height="32" viewBox="0 0 32 32" fill="none" xmlns="http://www.w3.org/2000/svg">
<path d="M16 3C13.4288 3 10.9154 3.76244 8.77759 5.1909C6.63975 6.61935 4.97351 8.64968 3.98957 11.0251C3.00563 13.4006 2.74819 16.0144 3.2498 18.5362C3.75141 21.0579 4.98953 23.3743 6.80762 25.1924C8.6257 27.0105 10.9421 28.2486 13.4638 28.7502C15.9856 29.2518 18.5995 28.9944 20.9749 28.0104C23.3503 27.0265 25.3807 25.3603 26.8091 23.2224C28.2376 21.0846 29 18.5712 29 16C28.9964 12.5533 27.6256 9.24882 25.1884 6.81163C22.7512 4.37445 19.4467 3.00364 16 3ZM5.00001 16C5.00331 13.0836 6.1633 10.2877 8.22548 8.22548C10.2877 6.1633 13.0836 5.00331 16 5C17.3261 5 18.5979 5.52678 19.5355 6.46447C20.4732 7.40215 21 8.67392 21 10C21 11.3261 20.4732 12.5979 19.5355 13.5355C18.5979 14.4732 17.3261 15 16 15C14.819 14.9997 13.657 15.2983 12.6224 15.8678C11.5878 16.4374 10.7141 17.2595 10.0827 18.2576C9.45127 19.2557 9.08265 20.3973 9.01115 21.5762C8.93965 22.7551 9.16759 23.9329 9.67376 25C8.22979 23.9849 7.05131 22.6372 6.23785 21.0707C5.42438 19.5043 4.99981 17.7651 5.00001 16ZM16 27C14.6739 27 13.4022 26.4732 12.4645 25.5355C11.5268 24.5979 11 23.3261 11 22C11 20.6739 11.5268 19.4021 12.4645 18.4645C13.4022 17.5268 14.6739 17 16 17C17.1802 16.9998 18.3412 16.7012 19.3751 16.1319C20.4089 15.5627 21.2821 14.7413 21.9133 13.744C22.5446 12.7468 22.9134 11.6062 22.9856 10.4282C23.0578 9.25021 22.831 8.07308 22.3263 7.00625C24.2364 8.35138 25.6687 10.2697 26.4156 12.4834C27.1624 14.697 27.1851 17.091 26.4804 19.3184C25.7756 21.5458 24.3799 23.491 22.4956 24.8721C20.6113 26.2532 18.3363 26.9985 16 27ZM17.5 22C17.5 22.2967 17.412 22.5867 17.2472 22.8334C17.0824 23.08 16.8481 23.2723 16.574 23.3858C16.2999 23.4993 15.9983 23.5291 15.7074 23.4712C15.4164 23.4133 15.1491 23.2704 14.9393 23.0607C14.7296 22.8509 14.5867 22.5836 14.5288 22.2926C14.471 22.0017 14.5007 21.7001 14.6142 21.426C14.7277 21.1519 14.92 20.9176 15.1667 20.7528C15.4133 20.588 15.7033 20.5 16 20.5C16.3978 20.5 16.7794 20.658 17.0607 20.9393C17.342 21.2206 17.5 21.6022 17.5 22ZM14.5 10C14.5 9.70333 14.588 9.41332 14.7528 9.16665C14.9176 8.91997 15.1519 8.72771 15.426 8.61418C15.7001 8.50065 16.0017 8.47094 16.2926 8.52882C16.5836 8.5867 16.8509 8.72956 17.0607 8.93934C17.2704 9.14912 17.4133 9.41639 17.4712 9.70736C17.5291 9.99834 17.4994 10.2999 17.3858 10.574C17.2723 10.8481 17.08 11.0824 16.8334 11.2472C16.5867 11.412 16.2967 11.5 16 11.5C15.6022 11.5 15.2206 11.342 14.9393 11.0607C14.658 10.7794 14.5 10.3978 14.5 10Z" fill="#4A4A4F"/>
</svg>
