<svg width="32" height="32" viewBox="0 0 32 32" fill="none" xmlns="http://www.w3.org/2000/svg">
<path d="M17.5 10C17.5 10.2967 17.412 10.5867 17.2472 10.8334C17.0824 11.08 16.8481 11.2723 16.574 11.3858C16.2999 11.4994 15.9983 11.5291 15.7074 11.4712C15.4164 11.4133 15.1491 11.2704 14.9393 11.0607C14.7296 10.8509 14.5867 10.5836 14.5288 10.2926C14.471 10.0017 14.5007 9.70006 14.6142 9.42597C14.7277 9.15189 14.92 8.91762 15.1667 8.7528C15.4133 8.58797 15.7033 8.5 16 8.5C16.3978 8.5 16.7794 8.65804 17.0607 8.93934C17.342 9.22064 17.5 9.60218 17.5 10ZM29 16C29 18.5712 28.2376 21.0846 26.8091 23.2224C25.3807 25.3603 23.3503 27.0265 20.9749 28.0104C18.5995 28.9944 15.9856 29.2518 13.4638 28.7502C10.9421 28.2486 8.6257 27.0105 6.80762 25.1924C4.98953 23.3743 3.75141 21.0579 3.2498 18.5362C2.74819 16.0144 3.00563 13.4006 3.98957 11.0251C4.97351 8.64968 6.63975 6.61935 8.77759 5.1909C10.9154 3.76244 13.4288 3 16 3C19.4467 3.00364 22.7512 4.37445 25.1884 6.81163C27.6256 9.24882 28.9964 12.5533 29 16ZM17.5 22C17.5 21.7033 17.412 21.4133 17.2472 21.1666C17.0824 20.92 16.8481 20.7277 16.574 20.6142C16.2999 20.5007 15.9983 20.4709 15.7074 20.5288C15.4164 20.5867 15.1491 20.7296 14.9393 20.9393C14.7296 21.1491 14.5867 21.4164 14.5288 21.7074C14.471 21.9983 14.5007 22.2999 14.6142 22.574C14.7277 22.8481 14.92 23.0824 15.1667 23.2472C15.4133 23.412 15.7033 23.5 16 23.5C16.3978 23.5 16.7794 23.342 17.0607 23.0607C17.342 22.7794 17.5 22.3978 17.5 22ZM21.5 10.5C21.4984 9.04182 20.9184 7.64383 19.8873 6.61274C18.8562 5.58165 17.4582 5.00165 16 5C13.6162 5.00148 11.2973 5.77732 9.39254 7.21072C7.48779 8.64412 6.10023 10.6575 5.43876 12.9477C4.7773 15.238 4.87773 17.6811 5.72494 19.9093C6.57215 22.1376 8.12028 24.0303 10.1363 25.3025C9.66283 24.3118 9.44811 23.2172 9.51212 22.1211C9.57613 21.0249 9.91679 19.9628 10.5023 19.0339C11.0878 18.105 11.8991 17.3396 12.8605 16.8091C13.8219 16.2785 14.902 16.0002 16 16C17.4582 15.9983 18.8562 15.4184 19.8873 14.3873C20.9184 13.3562 21.4984 11.9582 21.5 10.5Z" fill="#4A4A4F"/>
</svg>
