<svg xmlns="http://www.w3.org/2000/svg" width="32" height="32" fill="none" viewBox="0 0 32 32">
  <path fill="#4A4A4F" d="M23 16a30.83 30.83 0 0 1-2.317 11.78 1 1 0 0 1-1.3.55 1 1 0 0 1-.546-1.306A28.834 28.834 0 0 0 21 16a1 1 0 0 1 2 0Zm-7-5a5.007 5.007 0 0 1 3.726 1.666 1 1 0 1 0 1.49-1.334A7 7 0 0 0 9 16c0 2.88-.731 5.712-2.125 8.231a1 1 0 1 0 1.75.97A19.017 19.017 0 0 0 11 16a5 5 0 0 1 5-5Zm0-8a12.968 12.968 0 0 0-4.334.74 1 1 0 0 0 .668 1.885A11.006 11.006 0 0 1 27 16a35.167 35.167 0 0 1-.867 7.779 1 1 0 0 0 1.596 1.002 1 1 0 0 0 .351-.56c.61-2.698.92-5.455.92-8.221A13.013 13.013 0 0 0 16 3ZM8.668 7.803A1 1 0 0 0 7.334 6.31 13.02 13.02 0 0 0 3 16a10.911 10.911 0 0 1-1 4.582 1 1 0 1 0 1.818.835A12.896 12.896 0 0 0 5 16a11.016 11.016 0 0 1 3.668-8.197Zm5.572 17.29a1 1 0 0 0-1.326.49c-.24.526-.5 1.05-.787 1.556a1 1 0 1 0 1.75.971 27.09 27.09 0 0 0 .854-1.69 1 1 0 0 0-.491-1.328ZM16 15a1 1 0 0 0-1 1c0 1.94-.242 3.871-.724 5.75a1 1 0 0 0 1.936.499c.525-2.042.79-4.142.788-6.25A1 1 0 0 0 16 15Z"/>
</svg>
