<svg xmlns="http://www.w3.org/2000/svg" width="32" height="32" fill="none" viewBox="0 0 32 32">
  <path fill="#4A4A4F" d="M11.5 17H5a2 2 0 0 1-1.893-1.37 2.027 2.027 0 0 1-.098-.828 12.978 12.978 0 0 1 5.447-9.436A2 2 0 0 1 11.344 6l3.25 5.625a1 1 0 1 1-1.733 1L9.611 7A10.98 10.98 0 0 0 5 14.982a.024.024 0 0 0 .009.02L11.5 15a1 1 0 0 1 0 2Zm17.491-2.198a12.979 12.979 0 0 0-5.447-9.436A2 2 0 0 0 20.656 6l-3.243 5.625a1.002 1.002 0 0 0 1.125 1.466 1.002 1.002 0 0 0 .607-.466L22.395 7A10.984 10.984 0 0 1 27 14.982V15h-6.5a1 1 0 0 0 0 2H27a2 2 0 0 0 1.893-1.37c.09-.266.123-.548.098-.828Zm-9.875 4.595a1.002 1.002 0 0 0-1.832.242 1 1 0 0 0 .1.758l3.23 5.592a11.027 11.027 0 0 1-9.226 0l3.228-5.592a.998.998 0 0 0-.736-1.491.999.999 0 0 0-.996.491L9.656 24.99a2 2 0 0 0 .89 2.815 13.03 13.03 0 0 0 10.908 0 2 2 0 0 0 .89-2.815l-3.228-5.592ZM16 17.5a1.5 1.5 0 1 0 0-2.999 1.5 1.5 0 0 0 0 2.999Z"/>
</svg>
