<svg xmlns="http://www.w3.org/2000/svg" width="32" height="32" fill="none" viewBox="0 0 32 32">
  <path fill="#4A4A4F" d="M29.6 23.511 18.67 4.528a3.096 3.096 0 0 0-5.338 0L2.401 23.51a2.939 2.939 0 0 0 0 2.965A3.043 3.043 0 0 0 5.068 28H26.93a3.044 3.044 0 0 0 2.667-1.524 2.938 2.938 0 0 0 .002-2.965Zm-1.734 1.964a1.063 1.063 0 0 1-.935.525H5.07a1.064 1.064 0 0 1-.935-.525.949.949 0 0 1 0-.965l10.93-18.984a1.094 1.094 0 0 1 1.875 0L27.871 24.51a.949.949 0 0 1-.005.965ZM15 18v-5a1 1 0 0 1 2 0v5a1 1 0 1 1-2 0Zm2.5 4.5a1.5 1.5 0 1 1-3 0 1.5 1.5 0 0 1 3 0Z"/>
</svg>
