<svg xmlns="http://www.w3.org/2000/svg" width="32" height="32" fill="none" viewBox="0 0 32 32">
  <path fill="#4A4A4F" d="M23 18h-2a1 1 0 0 0-1 1v7a1 1 0 0 0 2 0v-1h1a3.5 3.5 0 1 0 0-7Zm0 5h-1v-3h1a1.5 1.5 0 1 1 0 3Zm-6-4v7a1 1 0 0 1-2 0v-7a1 1 0 0 1 2 0Zm-5 7a1 1 0 0 1-1 1H7a1 1 0 0 1-.875-1.5L9.27 20H7a1 1 0 0 1 0-2h4a1 1 0 0 1 .875 1.5L8.724 25H11a1 1 0 0 1 1 1Zm14.707-15.707-7-7A1 1 0 0 0 19 3H7a2 2 0 0 0-2 2v9a1 1 0 0 0 1 1h20a1 1 0 0 0 1-1v-3a1 1 0 0 0-.293-.707ZM19 11V5.5l5.5 5.5H19Z"/>
</svg>
