<svg xmlns="http://www.w3.org/2000/svg" width="32" height="32" fill="none" viewBox="0 0 32 32">
  <path fill="#4A4A4F" d="M6 15h20a1 1 0 0 0 1-1v-3a1 1 0 0 0-.293-.707l-7-7A1 1 0 0 0 19 3H7a2 2 0 0 0-2 2v9a1 1 0 0 0 1 1Zm13-9.5 5.5 5.5H19V5.5ZM28 19a1 1 0 0 1-1 1h-3v2h2a1 1 0 0 1 0 2h-2v2a1 1 0 0 1-2 0v-7a1 1 0 0 1 1-1h4a1 1 0 0 1 1 1ZM8 18H6a1 1 0 0 0-1 1v7a1 1 0 1 0 2 0v-1h1a3.5 3.5 0 1 0 0-7Zm0 5H7v-3h1a1.5 1.5 0 1 1 0 3Zm8-5h-2a1 1 0 0 0-1 1v7a1 1 0 0 0 1 1h2a4.5 4.5 0 1 0 0-9Zm0 7h-1v-5h1a2.5 2.5 0 0 1 0 5Z"/>
</svg>
