<svg xmlns="http://www.w3.org/2000/svg" width="32" height="32" fill="none" viewBox="0 0 32 32">
  <path fill="#4A4A4F" d="M12 26a1 1 0 0 1-1 1H4.923A1.925 1.925 0 0 1 3 25.078V24a1 1 0 1 1 2 0v1h6a1 1 0 0 1 1 1Zm8-1h-4a1 1 0 0 0 0 2h4a1 1 0 1 0 0-2Zm8-7a1 1 0 0 0-1 1v6h-2a1 1 0 0 0 0 2h2.111A1.892 1.892 0 0 0 29 25.111V19a1 1 0 0 0-1-1Zm-1-9h-6a1 1 0 1 0 0 2h6v3a1 1 0 0 0 2 0v-3a2 2 0 0 0-2-2ZM4 11h12a1 1 0 0 0 .707-1.707L13 5.586A1.982 1.982 0 0 0 11.586 5H5a2 2 0 0 0-2 2v3a1 1 0 0 0 1 1Zm0 9a1 1 0 0 0 1-1v-4a1 1 0 1 0-2 0v4a1 1 0 0 0 1 1Z"/>
</svg>
