<svg xmlns="http://www.w3.org/2000/svg" width="32" height="32" fill="none" viewBox="0 0 32 32">
  <path fill="#4A4A4F" d="M11.708 13.293a1 1 0 0 1 0 1.415l-4 4a1 1 0 0 1-1.415 0l-2-2a1 1 0 1 1 1.415-1.415L7 16.586l3.293-3.293a.998.998 0 0 1 1.415 0Zm-1.415-8L7 8.586 5.708 7.293a1 1 0 1 0-1.415 1.415l2 2a1 1 0 0 0 1.415 0l4-4a1 1 0 0 0-1.415-1.415Zm0 16L7 24.586l-1.292-1.293a1.001 1.001 0 0 0-1.415 1.415l2 2a1 1 0 0 0 1.415 0l4-4a1 1 0 0 0-1.415-1.415ZM27 6H16a1 1 0 0 0-1 1v2a1 1 0 0 0 1 1h11a1 1 0 0 0 1-1V7a1 1 0 0 0-1-1Zm0 16H16a1 1 0 0 0-1 1v2a1 1 0 0 0 1 1h11a1 1 0 0 0 1-1v-2a1 1 0 0 0-1-1Zm0-8H16a1 1 0 0 0-1 1v2a1 1 0 0 0 1 1h11a1 1 0 0 0 1-1v-2a1 1 0 0 0-1-1Z"/>
</svg>
