<svg xmlns="http://www.w3.org/2000/svg" width="32" height="32" fill="none" viewBox="0 0 32 32">
  <path fill="#4A4A4F" d="M28 7v2a1 1 0 0 1-1 1H12a1 1 0 0 1-1-1V7a1 1 0 0 1 1-1h15a1 1 0 0 1 1 1ZM7 6H5a1 1 0 0 0-1 1v2a1 1 0 0 0 1 1h2a1 1 0 0 0 1-1V7a1 1 0 0 0-1-1Zm20 8H12a1 1 0 0 0-1 1v2a1 1 0 0 0 1 1h15a1 1 0 0 0 1-1v-2a1 1 0 0 0-1-1ZM7 14H5a1 1 0 0 0-1 1v2a1 1 0 0 0 1 1h2a1 1 0 0 0 1-1v-2a1 1 0 0 0-1-1Zm20 8H12a1 1 0 0 0-1 1v2a1 1 0 0 0 1 1h15a1 1 0 0 0 1-1v-2a1 1 0 0 0-1-1ZM7 22H5a1 1 0 0 0-1 1v2a1 1 0 0 0 1 1h2a1 1 0 0 0 1-1v-2a1 1 0 0 0-1-1Z"/>
</svg>
