<svg xmlns="http://www.w3.org/2000/svg" width="32" height="32" fill="none" viewBox="0 0 32 32">
  <path fill="#4A4A4F" d="M26.741 26.328a.999.999 0 1 1-1.48 1.345l-2.73-3c-.37.904-.857 1.756-1.447 2.533a1.99 1.99 0 0 1-1.46.794h-.14a2 2 0 0 1-1.415-.586l-6.033-6.039-5.329 5.333a1 1 0 0 1-1.415-1.415l5.333-5.33-6.038-6.037a2 2 0 0 1 .163-2.972A8.728 8.728 0 0 1 8.42 9.15L5.26 5.673a1 1 0 1 1 1.48-1.345l16.047 17.65 3.954 4.35Zm2.674-16.157-7.586-7.585a2 2 0 0 0-2.83 0l-5.153 5.172a1 1 0 0 0-.031 1.375l8.571 9.428a1 1 0 0 0 .718.328h.02a.999.999 0 0 0 .708-.294L29.415 13a1.998 1.998 0 0 0 0-2.829Z"/>
</svg>
