<svg xmlns="http://www.w3.org/2000/svg" width="32" height="32" fill="none" viewBox="0 0 32 32">
  <path fill="#4A4A4F" d="M24 19.679V12.32a1.625 1.625 0 0 0-.802-1.405L16.78 7.21a1.56 1.56 0 0 0-1.56 0l-6.416 3.706A1.624 1.624 0 0 0 8 12.321v7.358a1.625 1.625 0 0 0 .803 1.405l6.417 3.706a1.561 1.561 0 0 0 1.56 0l6.416-3.706A1.624 1.624 0 0 0 24 19.679Zm-8-10.61L21.074 12 16 14.929 10.926 12 16 9.069Zm-6 4.705 5 2.887v5.693l-5-2.888v-5.692Zm7 8.58V16.66l5-2.887v5.692l-5 2.888ZM29 6v5a1 1 0 0 1-2 0V7h-4a1 1 0 1 1 0-2h5a1 1 0 0 1 1 1ZM10 26a1 1 0 0 1-1 1H4a1 1 0 0 1-1-1v-5a1 1 0 1 1 2 0v4h4a1 1 0 0 1 1 1Zm19-5v5a1 1 0 0 1-1 1h-5a1 1 0 0 1 0-2h4v-4a1 1 0 0 1 2 0ZM3 11V6a1 1 0 0 1 1-1h5a1 1 0 0 1 0 2H5v4a1 1 0 1 1-2 0Z"/>
</svg>
