<svg xmlns="http://www.w3.org/2000/svg" width="32" height="32" fill="none" viewBox="0 0 32 32">
  <path fill="#4A4A4F" d="M28.633 6.736a4.115 4.115 0 0 0-3.37-3.368c-4.045-.687-11.673-1-17.283 4.612-5.61 5.613-5.299 13.238-4.612 17.284a4.115 4.115 0 0 0 3.375 3.369c1.417.241 2.853.364 4.29.367 4.012 0 9.007-1 12.987-4.98 5.611-5.61 5.299-13.237 4.613-17.284Zm-7.702-1.75a24 24 0 0 1 4 .35 2.117 2.117 0 0 1 1.732 1.734c.258 1.495.37 3.011.337 4.528L20.401 5c.175-.01.35-.012.53-.012v-.002ZM7.071 26.663a2.117 2.117 0 0 1-1.733-1.733A23.574 23.574 0 0 1 5 20.403L11.598 27a23.471 23.471 0 0 1-4.528-.337Zm15.537-4.055c-1.452 1.45-4.16 3.466-8.422 4.158l-8.952-8.952c.692-4.263 2.709-6.97 4.159-8.421 1.45-1.452 4.157-3.468 8.42-4.16l8.953 8.953c-.692 4.263-2.708 6.97-4.158 8.422Zm-1.903-11.313a1 1 0 0 1 0 1.414L18.913 14.5l.792.793a.999.999 0 1 1-1.414 1.412l-.79-.791-1.587 1.586.792.793a1 1 0 1 1-1.412 1.413l-.794-.793-1.792 1.792a.999.999 0 0 1-1.642-1.089.999.999 0 0 1 .228-.325l1.794-1.79-.793-.793a1 1 0 0 1 1.414-1.413l.792.793 1.585-1.588-.792-.792a1 1 0 0 1 1.412-1.414l.794.794 1.793-1.793a1 1 0 0 1 1.412 0Z"/>
</svg>
