<svg xmlns="http://www.w3.org/2000/svg" width="32" height="32" fill="none" viewBox="0 0 32 32">
  <path fill="#4A4A4F" d="M27.125 4.35a1.992 1.992 0 0 0-1.852-.214C23.518 4.82 19.977 5.964 16 5.964c-3.977 0-7.52-1.145-9.276-1.828A2 2 0 0 0 4 6v6.971c0 4.48 1.206 8.707 3.397 11.898 2.27 3.307 5.325 5.125 8.603 5.125 3.277 0 6.332-1.821 8.602-5.125C26.794 21.68 28 17.454 28 12.974V6a2 2 0 0 0-.875-1.65ZM26 12.975c0 4.08-1.082 7.904-3.046 10.766-1.887 2.747-4.355 4.26-6.954 4.26-2.599 0-5.068-1.513-6.954-4.26C7.083 20.874 6 17.053 6 12.973V6c1.889.734 5.697 1.964 10 1.964 4.302 0 8.113-1.23 10-1.964v6.976Zm-2.25 2.359a1.003 1.003 0 1 1-1.5 1.332c-.335-.375-1.106-.666-1.75-.666-.644 0-1.42.293-1.75.666a1.004 1.004 0 0 1-1.5-1.333C17.964 14.535 19.267 14 20.5 14s2.531.535 3.25 1.333ZM11.5 16c-.649 0-1.42.293-1.75.666a1.004 1.004 0 0 1-1.5-1.333C8.969 14.535 10.273 14 11.5 14c1.227 0 2.531.535 3.25 1.333a1.003 1.003 0 1 1-1.5 1.333c-.33-.373-1.101-.666-1.75-.666Zm9.556 5.649a6.613 6.613 0 0 1-10.112 0 1 1 0 1 1 1.521-1.299 4.61 4.61 0 0 0 7.07 0 1 1 0 1 1 1.521 1.299Z"/>
</svg>
