<svg xmlns="http://www.w3.org/2000/svg" width="32" height="32" fill="none" viewBox="0 0 32 32">
  <path fill="#4A4A4F" d="M29 15A13.015 13.015 0 0 0 16 2 13.015 13.015 0 0 0 3 15a.993.993 0 0 0 .4.8L15 24.5V27h-1a1 1 0 0 0 0 2h4a1 1 0 0 0 0-2h-1v-2.5l11.6-8.7a.999.999 0 0 0 .4-.8Zm-2.045-1h-4.976c-.193-4.744-1.739-7.804-3.139-9.625A11.025 11.025 0 0 1 26.955 14ZM16 4.25a9.61 9.61 0 0 1 1.735 2.027c.951 1.473 2.071 3.957 2.242 7.723h-7.954c.17-3.766 1.29-6.25 2.242-7.718A9.616 9.616 0 0 1 16 4.25ZM19.3 16 16 21.941 12.7 16h6.6Zm-8.889 0 2.438 4.386L7 16h3.411Zm11.178 0H25l-5.849 4.386L21.59 16ZM13.16 4.375c-1.4 1.821-2.946 4.881-3.139 9.625H5.045a11.025 11.025 0 0 1 8.115-9.625Z"/>
</svg>
