<svg xmlns="http://www.w3.org/2000/svg" width="32" height="32" fill="none" viewBox="0 0 32 32">
  <path fill="#4A4A4F" d="M16 3a13 13 0 1 0 13 13A13.013 13.013 0 0 0 16 3Zm0 19a6 6 0 1 1 6-6 6.006 6.006 0 0 1-6 6Zm4.901-12.316A7.958 7.958 0 0 0 17 8.059V5.046a10.95 10.95 0 0 1 6.035 2.5l-2.134 2.138ZM15 8.065a7.957 7.957 0 0 0-3.901 1.625L8.965 7.55A10.95 10.95 0 0 1 15 5.05v3.015Zm-5.316 3.034A7.957 7.957 0 0 0 8.059 15H5.046a10.95 10.95 0 0 1 2.5-6.035l2.138 2.134ZM8.065 17a7.958 7.958 0 0 0 1.625 3.901l-2.14 2.134A10.95 10.95 0 0 1 5.05 17h3.015Zm3.034 5.316A7.957 7.957 0 0 0 15 23.935v3.019a10.95 10.95 0 0 1-6.035-2.5l2.134-2.138ZM17 23.935a7.957 7.957 0 0 0 3.901-1.619l2.134 2.134A10.95 10.95 0 0 1 17 26.95v-3.015Zm5.316-3.034A7.958 7.958 0 0 0 23.935 17h3.019a10.951 10.951 0 0 1-2.5 6.035l-2.138-2.134ZM23.935 15a7.957 7.957 0 0 0-1.619-3.901l2.134-2.134A10.95 10.95 0 0 1 26.95 15h-3.015Z"/>
</svg>
