<svg xmlns="http://www.w3.org/2000/svg" width="32" height="32" fill="none" viewBox="0 0 32 32">
  <path fill="#4A4A4F" d="M25.196 6.808a13 13 0 1 0 0 18.384 12.925 12.925 0 0 0 0-18.384ZM8.22 8.22a10.954 10.954 0 0 1 6.707-3.163 10.914 10.914 0 0 1-3.176 6.7 10.928 10.928 0 0 1-6.703 3.168A10.948 10.948 0 0 1 8.22 8.221Zm-3.18 8.715a12.912 12.912 0 0 0 8.125-3.764 12.905 12.905 0 0 0 3.766-8.125 10.972 10.972 0 0 1 10.023 10.018A13 13 0 0 0 15.06 26.95 10.973 10.973 0 0 1 5.037 16.934l.004.001Zm18.74 6.844a10.962 10.962 0 0 1-6.707 3.163 11 11 0 0 1 9.875-9.868 10.948 10.948 0 0 1-3.168 6.705Z"/>
</svg>
