<svg xmlns="http://www.w3.org/2000/svg" width="32" height="32" fill="none" viewBox="0 0 32 32">
  <path fill="#4A4A4F" d="M16 3a13 13 0 1 0 13 13A13.013 13.013 0 0 0 16 3Zm10.218 17.073a11 11 0 0 1-11.687.472L16.577 17h10.375a10.894 10.894 0 0 1-.735 3.073ZM11.39 6.013c.96-.444 1.98-.747 3.027-.9A11 11 0 0 1 20.668 15h-4.09L11.39 6.014ZM26.954 15H22.67a13.022 13.022 0 0 0-4.47-9.779A11.022 11.022 0 0 1 26.954 15ZM9.659 7.016l2.14 3.707a13.016 13.016 0 0 0-6.233 8.76A10.993 10.993 0 0 1 9.66 7.017ZM7.363 22.804a11 11 0 0 1 5.436-10.349L14.845 16l-5.186 8.984a11.075 11.075 0 0 1-2.296-2.18ZM16 27a10.937 10.937 0 0 1-4.61-1.014l2.141-3.709A13.028 13.028 0 0 0 24.222 23.3 10.975 10.975 0 0 1 16 27Z"/>
</svg>
