<svg xmlns="http://www.w3.org/2000/svg" width="32" height="32" fill="none" viewBox="0 0 32 32">
  <path fill="#4A4A4F" d="M10 15h12a1 1 0 0 0 1-1V8a1 1 0 0 0-1-1H10a1 1 0 0 0-1 1v6a1 1 0 0 0 1 1Zm1-6h10v4H11V9Zm14-6H7a2 2 0 0 0-2 2v22a2 2 0 0 0 2 2h18a2 2 0 0 0 2-2V5a2 2 0 0 0-2-2Zm0 24H7V5h18v22Zm-12.5-8.5a1.5 1.5 0 1 1-3 0 1.5 1.5 0 0 1 3 0Zm5 0a1.5 1.5 0 1 1-3 0 1.5 1.5 0 0 1 3 0Zm5 0a1.5 1.5 0 1 1-3 0 1.5 1.5 0 0 1 3 0Zm-10 5a1.5 1.5 0 1 1-3 0 1.5 1.5 0 0 1 3 0Zm5 0a1.5 1.5 0 1 1-3 0 1.5 1.5 0 0 1 3 0Zm5 0a1.5 1.5 0 1 1-3 0 1.5 1.5 0 0 1 3 0Z"/>
</svg>
