<svg xmlns="http://www.w3.org/2000/svg" width="32" height="32" fill="none" viewBox="0 0 32 32">
  <path fill="#4A4A4F" d="M16 3a13 13 0 1 0 13 13A13.013 13.013 0 0 0 16 3Zm10.954 12h-3.019A8.013 8.013 0 0 0 17 8.065V5.046A11.016 11.016 0 0 1 26.954 15ZM15 15h-4.915A6.011 6.011 0 0 1 15 10.085V15Zm0 2v4.915A6.011 6.011 0 0 1 10.085 17H15Zm2 0h4.915A6.01 6.01 0 0 1 17 21.915V17Zm0-2v-4.915A6.011 6.011 0 0 1 21.915 15H17Zm-2-9.954v3.019A8.013 8.013 0 0 0 8.065 15H5.046A11.016 11.016 0 0 1 15 5.046ZM5.046 17h3.019A8.012 8.012 0 0 0 15 23.935v3.019A11.017 11.017 0 0 1 5.046 17ZM17 26.954v-3.019A8.013 8.013 0 0 0 23.935 17h3.019A11.017 11.017 0 0 1 17 26.954Z"/>
</svg>
