<svg xmlns="http://www.w3.org/2000/svg" width="32" height="32" fill="none" viewBox="0 0 32 32">
  <path fill="#4A4A4F" d="M25 19a3.98 3.98 0 0 0-2.441.835l-2.89-2.25c.219-.5.331-1.04.33-1.585 0-.092 0-.185-.01-.276l1.655-.552a4 4 0 1 0-.634-1.896l-1.654.552a3.999 3.999 0 0 0-4.015-1.773l-.855-1.93a4 4 0 1 0-1.827.82l.855 1.925a3.99 3.99 0 0 0-1.072 4.955L9.23 20.68a4.008 4.008 0 1 0 1.328 1.5l3.214-2.855a3.99 3.99 0 0 0 4.67-.155l2.889 2.25A3.954 3.954 0 0 0 21 23a4 4 0 1 0 4-4Zm0-8a2 2 0 1 1 0 4 2 2 0 0 1 0-4ZM10 7a2 2 0 1 1 4 0 2 2 0 0 1-4 0ZM7 26a2 2 0 1 1 0-4 2 2 0 0 1 0 4Zm7-10a2 2 0 1 1 4 0 2 2 0 0 1-4 0Zm11 9a2 2 0 1 1 0-4 2 2 0 0 1 0 4Z"/>
</svg>
