<svg xmlns="http://www.w3.org/2000/svg" width="32" height="32" fill="none" viewBox="0 0 32 32">
  <path fill="#4A4A4F" d="M16 3a13 13 0 1 0 13 13A13.013 13.013 0 0 0 16 3Zm0 24a11 11 0 1 1 11-11 11.012 11.012 0 0 1-11 11Zm0-18c-1.779 0-3.25.805-4.25 2.326C10.941 12.56 10.5 14.22 10.5 16c0 1.781.445 3.441 1.25 4.674C12.75 22.196 14.217 23 16 23c1.782 0 3.25-.804 4.25-2.326.809-1.233 1.25-2.893 1.25-4.674 0-1.781-.445-3.441-1.25-4.674C19.25 9.805 17.779 9 16 9Zm0 12c-2.762 0-3.5-3.142-3.5-5 0-1.857.738-5 3.5-5s3.5 3.143 3.5 5c0 1.858-.738 5-3.5 5Z"/>
</svg>
