<svg xmlns="http://www.w3.org/2000/svg" width="32" height="32" fill="none" viewBox="0 0 32 32">
  <path fill="#4A4A4F" d="M16 3a13 13 0 1 0 13 13A13.013 13.013 0 0 0 16 3Zm0 24a11 11 0 1 1 11-11 11.012 11.012 0 0 1-11 11Zm-1.152-16-.524 3.143A4.81 4.81 0 0 1 15.5 14a4.5 4.5 0 1 1 0 9 4.443 4.443 0 0 1-3.214-1.3 1.001 1.001 0 0 1 .719-1.717 1 1 0 0 1 .709.317 2.465 2.465 0 0 0 1.786.7 2.5 2.5 0 0 0 0-5 2.466 2.466 0 0 0-1.786.7 1 1 0 0 1-1.7-.865l1-6A1 1 0 0 1 14 9h5a1 1 0 1 1 0 2h-4.152Z"/>
</svg>
