<svg xmlns="http://www.w3.org/2000/svg" width="32" height="32" fill="none" viewBox="0 0 32 32">
  <path fill="#4A4A4F" d="M27 5H5a2 2 0 0 0-2 2v18a2 2 0 0 0 2 2h22a2 2 0 0 0 2-2V7a2 2 0 0 0-2-2ZM12.451 22.108a1 1 0 1 1-.899 1.787A8.903 8.903 0 0 1 7 16a8.904 8.904 0 0 1 4.553-7.895 1 1 0 0 1 .897 1.787C12.296 9.973 9 11.72 9 16c0 4.28 3.31 6.035 3.451 6.108Zm8 1.787a1 1 0 0 1-.895-1.79c.138-.07 3.448-1.815 3.448-6.105 0-4.29-3.31-6.035-3.452-6.107a1 1 0 0 1 .9-1.788A8.903 8.903 0 0 1 25 16a8.903 8.903 0 0 1-4.552 7.895h.003Z"/>
</svg>
