<svg xmlns="http://www.w3.org/2000/svg" width="32" height="32" fill="none" viewBox="0 0 32 32">
  <path fill="#4A4A4F" d="M25.875 6.281A10.932 10.932 0 0 0 18.075 3h-.041a10.935 10.935 0 0 0-7.784 3.226L2.576 14a2 2 0 0 0 .008 2.82l3.582 3.582a1.989 1.989 0 0 0 1.415.587h.012a1.998 1.998 0 0 0 1.42-.603l7.612-7.8a2.01 2.01 0 0 1 2.801-.026 1.95 1.95 0 0 1 .592 1.399 2.11 2.11 0 0 1-.607 1.5l-7.786 7.526a2.002 2.002 0 0 0-.021 2.849l3.582 3.582a2.007 2.007 0 0 0 2.815.015l7.725-7.556c4.307-4.313 4.373-11.305.15-15.594ZM7.581 18.986l-3.58-3.581 3.677-3.726 3.56 3.56-3.657 3.747ZM16.6 28l-3.585-3.581 3.766-3.642 3.561 3.56L16.6 28Z"/>
</svg>
