<svg xmlns="http://www.w3.org/2000/svg" width="32" height="32" fill="none" viewBox="0 0 32 32">
  <path fill="#4A4A4F" d="m6.269 21 4.865-8.429-.28-.485a5.999 5.999 0 0 1 7.13-8.737 6 6 0 0 1 3.501 3.216 1.021 1.021 0 0 1-.398 1.3 1 1 0 0 1-1.42-.465 4 4 0 1 0-7.086 3.679l1.73 2.992a1 1 0 0 1 0 1L9.732 23a2 2 0 0 1-3.464-2Zm17.625-5h-1.542l-4.62-8a2 2 0 0 0-3.463 2l4.33 7.5a1 1 0 0 0 .865.5h4.454c2.236 0 4.119 1.83 4.082 4.066A4 4 0 0 1 24.04 26a1.028 1.028 0 0 0-1.035.916 1 1 0 0 0 1 1.084 6.008 6.008 0 0 0 6-6.116C29.936 18.599 27.185 16 23.899 16h-.005ZM26 21.904C25.95 20.827 25.023 20 23.947 20h-9.595a.999.999 0 0 0-.867.5l-2.02 3.5a4 4 0 1 1-6.684-4.375 1.025 1.025 0 0 0-.115-1.375 1 1 0 0 0-1.465.146A6 6 0 1 0 13.194 25l.578-1H24a2 2 0 0 0 2-2.096Z"/>
</svg>
