<svg xmlns="http://www.w3.org/2000/svg" width="32" height="32" fill="none" viewBox="0 0 32 32">
  <path fill="#4A4A4F" d="M31 15.5a7.014 7.014 0 0 0-4-6.326V9a6 6 0 0 0-11-3.311A6 6 0 0 0 5 9v.174a7 7 0 0 0 0 12.65V22a6 6 0 0 0 11 3.311A6 6 0 0 0 27 22v-.176a7.012 7.012 0 0 0 4-6.324ZM11 26a4 4 0 0 1-3.976-3.57c.323.046.65.07.976.07h1a1 1 0 0 0 0-2H8a5 5 0 0 1-1.666-9.716A1 1 0 0 0 7 9.84V9a4 4 0 0 1 8 0v8.532A5.975 5.975 0 0 0 11 16a1 1 0 1 0 0 2 4 4 0 0 1 0 8Zm13-5.5h-1a1 1 0 1 0 0 2h1c.327 0 .653-.024.976-.07A4 4 0 1 1 21 18a1 1 0 0 0 0-2 5.975 5.975 0 0 0-4 1.532V9a4 4 0 1 1 8 0v.841a1 1 0 0 0 .666.943A5 5 0 0 1 24 20.5Zm2-6.5a1 1 0 0 1-1 1h-.5a4.5 4.5 0 0 1-4.5-4.5V10a1 1 0 1 1 2 0v.5a2.5 2.5 0 0 0 2.5 2.5h.5a1 1 0 0 1 1 1ZM7.5 15H7a1 1 0 0 1 0-2h.5a2.5 2.5 0 0 0 2.5-2.5V10a1 1 0 1 1 2 0v.5A4.5 4.5 0 0 1 7.5 15Z"/>
</svg>
