<svg xmlns="http://www.w3.org/2000/svg" width="32" height="32" fill="none" viewBox="0 0 32 32">
  <path fill="#4A4A4F" d="M25 25.563V29a1 1 0 0 1-2 0v-3.438a7.958 7.958 0 0 0-4.422-7.156l-6.05-3.023A9.948 9.948 0 0 1 7 6.438V3a1 1 0 1 1 2 0v3.438a7.959 7.959 0 0 0 4.423 7.156l6.05 3.024A9.948 9.948 0 0 1 25 25.563ZM20 25H9.021a7.949 7.949 0 0 1 .404-2h9.089a1 1 0 0 0 0-2h-8.081a7.964 7.964 0 0 1 1.83-1.885 1.003 1.003 0 0 0-.439-1.797 1 1 0 0 0-.744.182A10.033 10.033 0 0 0 7 25.563V29a1 1 0 1 0 2 0v-2h11a1 1 0 0 0 0-2Zm4-23a1 1 0 0 0-1 1v2H12a1 1 0 1 0 0 2h10.98a7.95 7.95 0 0 1-.404 2h-9.089a1 1 0 1 0 0 2h8.082a7.966 7.966 0 0 1-1.832 1.885 1 1 0 1 0 1.184 1.613A10.034 10.034 0 0 0 25 6.438V3a1 1 0 0 0-1-1Z"/>
</svg>
