<svg xmlns="http://www.w3.org/2000/svg" width="32" height="32" fill="none" viewBox="0 0 32 32">
  <path fill="#4A4A4F" d="M16 3a13 13 0 1 0 13 13A13.013 13.013 0 0 0 16 3Zm4.887 16.474a5.98 5.98 0 0 0 0-6.948l3.563-3.561a10.979 10.979 0 0 1 0 14.07l-3.563-3.561ZM12 16a4 4 0 1 1 8 0 4 4 0 0 1-8 0Zm11.035-8.45-3.561 3.563a5.98 5.98 0 0 0-6.948 0L8.965 7.55a10.979 10.979 0 0 1 14.07 0ZM7.55 8.965l3.563 3.561a5.98 5.98 0 0 0 0 6.948L7.55 23.035a10.979 10.979 0 0 1 0-14.07ZM8.965 24.45l3.561-3.563a5.98 5.98 0 0 0 6.948 0l3.561 3.563a10.979 10.979 0 0 1-14.07 0Z"/>
</svg>
