<svg xmlns="http://www.w3.org/2000/svg" width="32" height="32" fill="none" viewBox="0 0 32 32">
  <path fill="#4A4A4F" d="M12.5 14.554a1 1 0 0 0 .5-.867v-9a1 1 0 0 0-1.332-.937 13.007 13.007 0 0 0-8.452 14.625 1 1 0 0 0 1.484.685l7.8-4.506ZM11 6.202v6.908l-5.985 3.454C5 16.375 5 16.185 5 16a11.015 11.015 0 0 1 6-9.797ZM29 16a13 13 0 0 1-24.21 6.587 1 1 0 0 1 .359-1.375L15 15.48V4a1 1 0 0 1 1-1 13.006 13.006 0 0 1 11.218 6.435l.038.061c.013.021.025.046.037.069A12.918 12.918 0 0 1 29 16Z"/>
</svg>
