<svg xmlns="http://www.w3.org/2000/svg" width="32" height="32" fill="none" viewBox="0 0 32 32">
  <path fill="#4A4A4F" d="M26 18h2a1 1 0 0 0 0-2h-2v-2h2a1 1 0 0 0 0-2h-2.05a9.97 9.97 0 0 0-2.68-5.856l2.438-2.436a1.001 1.001 0 0 0-1.415-1.415L21.756 4.83a9.968 9.968 0 0 0-11.512 0L7.707 2.293a1 1 0 1 0-1.414 1.415L8.73 6.144A9.97 9.97 0 0 0 6.05 12H4a1 1 0 1 0 0 2h2v2H4a1 1 0 1 0 0 2h2v1c0 .338.018.671.05 1H4a1 1 0 1 0 0 2h2.46a10 10 0 0 0 19.08 0H28a1 1 0 0 0 0-2h-2.05c.033-.329.05-.662.05-1v-1ZM16 5a8.009 8.009 0 0 1 7.935 7H8.06A8.009 8.009 0 0 1 16 5Zm1 21.935V17a1 1 0 0 0-2 0v9.935A8.009 8.009 0 0 1 8 19v-5h16v5a8.009 8.009 0 0 1-7 7.935Z"/>
</svg>
