<svg xmlns="http://www.w3.org/2000/svg" width="32" height="32" fill="none" viewBox="0 0 32 32">
  <path fill="#4A4A4F" d="M14 19a1 1 0 0 0-1 1v3.586L9.465 20.05A4.964 4.964 0 0 1 8 16.515v-4.64a4 4 0 1 0-2 0v4.641a6.959 6.959 0 0 0 2.05 4.95L11.586 25H8a1 1 0 0 0 0 2h6a1 1 0 0 0 1-1v-6a1 1 0 0 0-1-1ZM5 8a2 2 0 1 1 4 0 2 2 0 0 1-4 0Zm21 12.125v-4.64a6.959 6.959 0 0 0-2.05-4.95L20.414 7H24a1 1 0 1 0 0-2h-6a1 1 0 0 0-1 1v6a1 1 0 1 0 2 0V8.414l3.535 3.536A4.963 4.963 0 0 1 24 15.485v4.64a4 4 0 1 0 2 0ZM25 26a2 2 0 1 1 0-4 2 2 0 0 1 0 4Z"/>
</svg>
