<svg xmlns="http://www.w3.org/2000/svg" width="32" height="32" fill="none" viewBox="0 0 32 32">
  <path fill="#4A4A4F" d="M19 18a1 1 0 0 1-1 1h-4a1 1 0 0 1-.831-1.555L16.13 13H14a1 1 0 0 1 0-2h4a1 1 0 0 1 .831 1.555L15.875 17H18a1 1 0 0 1 1 1Zm8.73 6A1.974 1.974 0 0 1 26 25h-5.101a5 5 0 0 1-9.798 0H6a2 2 0 0 1-1.725-3.008C4.969 20.797 6 17.418 6 13a10 10 0 1 1 20 0c0 4.416 1.032 7.797 1.726 8.992A1.986 1.986 0 0 1 27.73 24Zm-8.902 1h-5.655a3 3 0 0 0 5.655 0ZM26 23c-.966-1.659-2-5.494-2-10a8 8 0 0 0-16 0c0 4.508-1.035 8.343-2 10h20Z"/>
</svg>
