<svg xmlns="http://www.w3.org/2000/svg" width="32" height="32" fill="none" viewBox="0 0 32 32">
  <path fill="#4A4A4F" d="M9 7.5a1.5 1.5 0 1 1-3 0 1.5 1.5 0 0 1 3 0ZM16 6a1.5 1.5 0 1 0 0 3 1.5 1.5 0 0 0 0-3Zm8.5 3a1.5 1.5 0 1 0 0-3 1.5 1.5 0 0 0 0 3Zm-17 5.5a1.5 1.5 0 1 0 0 3 1.5 1.5 0 0 0 0-3Zm8.5 0a1.5 1.5 0 1 0 0 3 1.5 1.5 0 0 0 0-3Zm8.5 0a1.5 1.5 0 1 0 0 3 1.5 1.5 0 0 0 0-3ZM7.5 23a1.5 1.5 0 1 0 0 3 1.5 1.5 0 0 0 0-3Zm8.5 0a1.5 1.5 0 1 0 0 3 1.5 1.5 0 0 0 0-3Zm8.5 0a1.5 1.5 0 1 0 0 3 1.5 1.5 0 0 0 0-3Z"/>
</svg>
