<svg xmlns="http://www.w3.org/2000/svg" width="32" height="32" fill="none" viewBox="0 0 32 32">
  <path fill="#4A4A4F" d="M25.883 10.084A13.906 13.906 0 0 0 16 6h-.05C8.259 6.026 2 12.375 2 20.141v2.86a2 2 0 0 0 2 2h24a2 2 0 0 0 2-2v-3a13.907 13.907 0 0 0-4.117-9.917ZM28 23H14.964l6.845-9.412a1.001 1.001 0 0 0-1.618-1.178L12.49 23H4v-2.859c0-.385.019-.765.054-1.14H7a1 1 0 0 0 0-2H4.409C5.699 12.142 9.909 8.47 15 8.042V11a1 1 0 0 0 2 0V8.041a12.018 12.018 0 0 1 10.625 8.96H25a1 1 0 1 0 0 2h2.959c.026.33.041.663.041 1v3Z"/>
</svg>
