<svg xmlns="http://www.w3.org/2000/svg" width="32" height="32" fill="none" viewBox="0 0 32 32">
  <path fill="#4A4A4F" d="M16 10a6 6 0 1 0 6 6 6.006 6.006 0 0 0-6-6Zm0 10a4 4 0 1 1 0-8 4 4 0 0 1 0 8Zm13.742-6.599a1.001 1.001 0 0 0-.486-.675l-3.729-2.125-.015-4.202a1 1 0 0 0-.353-.76 13.988 13.988 0 0 0-4.59-2.584 1 1 0 0 0-.808.074L16 5.23l-3.765-2.106a1 1 0 0 0-.809-.075 14.013 14.013 0 0 0-4.585 2.594 1 1 0 0 0-.354.759l-.018 4.206-3.729 2.125a1 1 0 0 0-.486.675 13.309 13.309 0 0 0 0 5.195 1 1 0 0 0 .486.675l3.729 2.125.015 4.202a1 1 0 0 0 .353.76 13.989 13.989 0 0 0 4.59 2.584 1 1 0 0 0 .808-.074L16 26.77l3.765 2.106a1.008 1.008 0 0 0 .809.073 14.012 14.012 0 0 0 4.585-2.592.999.999 0 0 0 .354-.758l.018-4.207 3.729-2.125a1 1 0 0 0 .486-.675c.34-1.713.338-3.477-.003-5.19Zm-1.875 4.364-3.57 2.031a1 1 0 0 0-.376.375c-.072.125-.148.258-.226.383a.992.992 0 0 0-.152.526l-.02 4.031a11.994 11.994 0 0 1-3.17 1.788L16.75 24.89a1 1 0 0 0-.489-.125h-.478a1.01 1.01 0 0 0-.513.125l-3.605 2.013a11.998 11.998 0 0 1-3.18-1.779L8.471 21.1a1 1 0 0 0-.152-.527 7.145 7.145 0 0 1-.225-.383 1.011 1.011 0 0 0-.375-.382L4.144 17.77a11.311 11.311 0 0 1 0-3.532l3.565-2.035a1 1 0 0 0 .375-.375c.072-.125.148-.258.226-.383a.98.98 0 0 0 .152-.526l.02-4.031a11.994 11.994 0 0 1 3.17-1.788l3.598 2.01a1 1 0 0 0 .512.125h.456a1.01 1.01 0 0 0 .512-.125l3.605-2.013a12 12 0 0 1 3.18 1.78l.014 4.024a1 1 0 0 0 .152.528c.078.125.154.25.225.382.089.159.218.291.375.383l3.575 2.036a11.31 11.31 0 0 1 .006 3.536h.006Z"/>
</svg>
