<svg xmlns="http://www.w3.org/2000/svg" width="32" height="32" fill="none" viewBox="0 0 32 32">
  <path fill="#4A4A4F" d="M27.939 6H4.064A2.064 2.064 0 0 0 2 8.061v15.875A2.064 2.064 0 0 0 4.061 26h23.875A2.064 2.064 0 0 0 30 23.939V8.064A2.064 2.064 0 0 0 27.939 6ZM28 23.939a.06.06 0 0 1-.038.056.06.06 0 0 1-.023.005H4.064a.06.06 0 0 1-.057-.038.061.061 0 0 1-.004-.023V8.064a.061.061 0 0 1 .06-.062H27.94a.061.061 0 0 1 .061.062v15.875ZM26 16a1 1 0 0 1-1 1H7a1 1 0 0 1 0-2h18a1 1 0 0 1 1 1Zm0-4a1 1 0 0 1-1 1H7a1 1 0 0 1 0-2h18a1 1 0 0 1 1 1ZM9 20a1 1 0 0 1-1 1H7a1 1 0 0 1 0-2h1a1 1 0 0 1 1 1Zm12 0a1 1 0 0 1-1 1h-8a1 1 0 0 1 0-2h8a1 1 0 0 1 1 1Zm5 0a1 1 0 0 1-1 1h-1a1 1 0 0 1 0-2h1a1 1 0 0 1 1 1Z"/>
</svg>
