<svg xmlns="http://www.w3.org/2000/svg" width="32" height="32" fill="none" viewBox="0 0 32 32">
  <path fill="#4A4A4F" d="M22 29a1 1 0 0 1-1 1H11a1 1 0 0 1 0-2h10a1 1 0 0 1 1 1Zm5-16a10.945 10.945 0 0 1-4.205 8.651A2.03 2.03 0 0 0 22 23.25V24a2 2 0 0 1-2 2h-8a2 2 0 0 1-2-2v-.75a2 2 0 0 0-.779-1.583A10.949 10.949 0 0 1 5 13.062C4.967 7.104 9.782 2.144 15.735 2A11 11 0 0 1 27 13Zm-2 0a8.998 8.998 0 0 0-9.218-9C10.907 4.115 6.974 8.174 7 13.049a8.955 8.955 0 0 0 3.455 7.037A4 4 0 0 1 12 23.25V24h3v-5.587l-3.708-3.706a1 1 0 0 1 1.415-1.415L16 16.586l3.292-3.294a1 1 0 0 1 1.415 1.415L17 18.413V24h3v-.75a4.016 4.016 0 0 1 1.559-3.169A8.956 8.956 0 0 0 24.999 13Z"/>
</svg>
