<svg xmlns="http://www.w3.org/2000/svg" width="32" height="32" fill="none" viewBox="0 0 32 32">
  <path fill="#4A4A4F" d="M21.98 13.943a1 1 0 0 0-.57-.713l-6.25-2.804 1.715-7.195a1 1 0 0 0-1.706-.91L3.266 15.177a1 1 0 0 0 .324 1.592l6.25 2.805-1.715 7.195a1 1 0 0 0 1.706.91l11.9-12.856a1 1 0 0 0 .25-.88Zm-11.027 9.583 1.02-4.295a1 1 0 0 0-.563-1.144l-5.73-2.572 8.369-9.041-1.02 4.295a1 1 0 0 0 .562 1.143l5.73 2.573-8.367 9.041Zm18.94 3.026-4.5-9a1 1 0 0 0-1.788 0l-4.5 9a1 1 0 1 0 1.789.896L22.118 25h4.763l1.224 2.448a1 1 0 0 0 1.789-.896ZM23.119 23l1.382-2.764L25.881 23h-2.763Z"/>
</svg>
