<svg xmlns="http://www.w3.org/2000/svg" width="32" height="32" fill="none" viewBox="0 0 32 32">
  <path fill="#4A4A4F" d="M23.829 8.171a4 4 0 0 0-5.649-.007L16.724 9.69a1 1 0 0 1-1.448-1.375l1.465-1.536a6 6 0 0 1 8.485 8.485l-1.536 1.465a1 1 0 0 1-1.375-1.448l1.526-1.456a4 4 0 0 0-.012-5.654ZM15.276 22.31l-1.456 1.526a4 4 0 0 1-5.656-5.656l1.526-1.456a1 1 0 0 0-1.375-1.448l-1.541 1.465a6 6 0 0 0 8.485 8.485l1.465-1.536a1 1 0 1 0-1.448-1.375v-.005ZM26 19h-3a1 1 0 0 0 0 2h3a1 1 0 0 0 0-2ZM6 13h3a1 1 0 0 0 0-2H6a1 1 0 0 0 0 2Zm14 9a1 1 0 0 0-1 1v3a1 1 0 0 0 2 0v-3a1 1 0 0 0-1-1Zm-8-12a1 1 0 0 0 1-1V6a1 1 0 0 0-2 0v3a1 1 0 0 0 1 1Z"/>
</svg>
