<svg xmlns="http://www.w3.org/2000/svg" width="32" height="32" fill="none" viewBox="0 0 32 32">
  <path fill="#4A4A4F" d="M18.708 17.292a1.001 1.001 0 0 0-1.415 0L15 19.586 12.414 17l2.294-2.293a1 1 0 0 0-1.415-1.415L11 15.586l-2.292-2.294a1 1 0 0 0-1.415 1.415l.793.793-2.915 2.914a4 4 0 0 0 0 5.657l.673.671-3.551 3.55a1 1 0 1 0 1.415 1.415l3.55-3.55.67.672a4 4 0 0 0 5.658 0l2.914-2.915.793.793a1 1 0 0 0 1.415-1.415L16.414 21l2.294-2.293a1.001 1.001 0 0 0 0-1.415Zm-6.537 8.125a2 2 0 0 1-2.827 0l-2.758-2.76a2 2 0 0 1 0-2.828L9.5 16.914l5.586 5.586-2.915 2.917ZM29.708 2.292a1 1 0 0 0-1.415 0l-3.55 3.552-.672-.673a4.006 4.006 0 0 0-5.657 0L15.5 8.086l-.792-.794a1 1 0 0 0-1.415 1.415l10 10a1 1 0 0 0 1.415-1.415l-.794-.792 2.915-2.914a3.999 3.999 0 0 0 0-5.657l-.673-.672 3.552-3.55a1 1 0 0 0 0-1.415Zm-4.294 9.875-2.914 2.92L16.914 9.5l2.915-2.914a2 2 0 0 1 2.827 0l2.758 2.75a2 2 0 0 1 0 2.835v-.004Z"/>
</svg>
