<svg xmlns="http://www.w3.org/2000/svg" width="32" height="32" fill="none" viewBox="0 0 32 32">
  <path fill="#4A4A4F" d="M29.708 8.293a1 1 0 0 0-1.415 0L24 12.586 19.414 8l4.294-4.292a1 1 0 0 0-1.415-1.415L18 6.586l-3.292-3.293a1 1 0 0 0-1.415 1.415l.793.792-6.625 6.625a5 5 0 0 0 0 7.071l1.964 1.964-6.132 6.133a1 1 0 1 0 1.415 1.415l6.136-6.137 1.964 1.964a5 5 0 0 0 7.07 0l6.626-6.625.792.794a1 1 0 0 0 1.415-1.415L25.414 14l4.294-4.292a1 1 0 0 0 0-1.415ZM18.465 23.125a3.001 3.001 0 0 1-4.244 0L8.875 17.78a3 3 0 0 1 0-4.244L15.5 6.91l9.586 9.59-6.62 6.625Z"/>
</svg>
