<svg xmlns="http://www.w3.org/2000/svg" width="32" height="32" fill="none" viewBox="0 0 32 32">
  <path fill="#4A4A4F" d="M29.708 2.292a1 1 0 0 0-1.415 0l-6.55 6.552-.672-.673a4.006 4.006 0 0 0-5.657 0L12.5 11.086l-.792-.794a1 1 0 0 0-1.415 1.415l.793.793-2.915 2.914a4 4 0 0 0 0 5.657l.673.671-6.551 6.55a1 1 0 1 0 1.415 1.415l6.55-6.55.67.672a4.002 4.002 0 0 0 5.658 0l2.914-2.915.793.793a1 1 0 0 0 1.415-1.415l-.794-.792 2.915-2.914a3.999 3.999 0 0 0 0-5.657l-.673-.672 6.552-6.55a1 1 0 0 0 0-1.415ZM15.17 22.417a2 2 0 0 1-2.827 0l-2.758-2.76a2 2 0 0 1 0-2.828l2.914-2.915 5.586 5.586-2.915 2.917Zm7.243-7.242L19.5 18.086 13.914 12.5l2.915-2.914a2 2 0 0 1 2.827 0l2.758 2.75a2 2 0 0 1 0 2.835v.004ZM11.05 4.316a1 1 0 0 1 1.898-.632l1 3a1 1 0 0 1-1.898.632l-1-3Zm-8 7.368a1.001 1.001 0 0 1 1.265-.633l3 1a1 1 0 1 1-.632 1.898l-3-1a1 1 0 0 1-.633-1.265Zm25.898 8.632a1 1 0 0 1-1.265.633l-3-1a1 1 0 0 1 .632-1.898l3 1a.998.998 0 0 1 .633 1.265Zm-8 7.368a1 1 0 1 1-1.898.632l-1-3a1 1 0 0 1 1.898-.632l1 3Z"/>
</svg>
