<svg xmlns="http://www.w3.org/2000/svg" width="32" height="32" fill="none" viewBox="0 0 32 32">
  <path fill="#4A4A4F" d="M13 5H7a2 2 0 0 0-2 2v6a2 2 0 0 0 2 2h6a2 2 0 0 0 2-2V7a2 2 0 0 0-2-2Zm0 8H7V7h6v6Zm0 4H7a2 2 0 0 0-2 2v6a2 2 0 0 0 2 2h6a2 2 0 0 0 2-2v-6a2 2 0 0 0-2-2Zm0 8H7v-6h6v6ZM25 5h-6a2 2 0 0 0-2 2v6a2 2 0 0 0 2 2h6a2 2 0 0 0 2-2V7a2 2 0 0 0-2-2Zm0 8h-6V7h6v6Zm-8 9v-4a1 1 0 0 1 2 0v4a1 1 0 0 1-2 0Zm10-2a1 1 0 0 1-1 1h-3v5a1 1 0 0 1-1 1h-4a1 1 0 0 1 0-2h3v-7a1 1 0 0 1 2 0v1h3a1 1 0 0 1 1 1Zm0 4v2a1 1 0 0 1-2 0v-2a1 1 0 0 1 2 0Z"/>
</svg>
