<svg xmlns="http://www.w3.org/2000/svg" width="32" height="32" fill="none" viewBox="0 0 32 32">
  <path fill="#4A4A4F" d="M17 4v4a1 1 0 0 1-2 0V4a1 1 0 0 1 2 0Zm4.656 7.344a1 1 0 0 0 .708-.294l2.828-2.828a1 1 0 0 0-1.415-1.414L20.95 9.636a1 1 0 0 0 .706 1.708ZM28 15h-4a1 1 0 0 0 0 2h4a1 1 0 0 0 0-2Zm-5.636 5.95a1 1 0 0 0-1.414 1.414l2.828 2.828a1 1 0 1 0 1.415-1.415l-2.83-2.827ZM16 23a1 1 0 0 0-1 1v4a1 1 0 0 0 2 0v-4a1 1 0 0 0-1-1Zm-6.364-2.05-2.828 2.828a1 1 0 1 0 1.415 1.415l2.827-2.83a1 1 0 0 0-1.414-1.413ZM9 16a1 1 0 0 0-1-1H4a1 1 0 0 0 0 2h4a1 1 0 0 0 1-1Zm-.777-9.192a1 1 0 1 0-1.416 1.415l2.83 2.827a1 1 0 0 0 1.413-1.414L8.222 6.808Z"/>
</svg>
