<svg xmlns="http://www.w3.org/2000/svg" width="32" height="32" fill="none" viewBox="0 0 32 32">
  <path fill="#4A4A4F" d="M28.707 12.293a1 1 0 0 1-1.415 1.415L25 11.414l-2.293 2.294a1 1 0 0 1-1.415-1.415L23.587 10l-2.293-2.292a1.001 1.001 0 0 1 1.415-1.415L25 8.586l2.293-2.293a1 1 0 1 1 1.415 1.415L26.413 10l2.293 2.293ZM16 24a1.5 1.5 0 1 0 0 3 1.5 1.5 0 0 0 0-3Zm5.589-4.184a9.506 9.506 0 0 0-11.178 0 1 1 0 0 0 1.178 1.618 7.5 7.5 0 0 1 8.822 0 1 1 0 1 0 1.178-1.618ZM17.904 8.091a1 1 0 1 0 .192-1.99 21.544 21.544 0 0 0-15.731 4.774 1 1 0 1 0 1.27 1.546 19.531 19.531 0 0 1 14.269-4.33Zm-.04 6.034a1 1 0 0 0 .272-1.981A15.59 15.59 0 0 0 16 12a15.342 15.342 0 0 0-9.625 3.346 1 1 0 0 0 1.25 1.563A13.358 13.358 0 0 1 16 14c.623-.001 1.246.04 1.864.125Z"/>
</svg>
