<svg xmlns="http://www.w3.org/2000/svg" width="32" height="32" fill="none" viewBox="0 0 32 32">
  <path fill="#4A4A4F" d="M29.125 16.875a7.5 7.5 0 0 0-11.202-4.431l2.049-8.18a1 1 0 0 0-.432-1.085 7.5 7.5 0 1 0-7.579 12.935L3.853 18.43a1 1 0 0 0-.725.915 7.5 7.5 0 0 0 5.552 7.583 7.564 7.564 0 0 0 1.953.258 7.51 7.51 0 0 0 7.485-7.75l6.06 5.866a1 1 0 0 0 1.156.168 7.5 7.5 0 0 0 3.791-8.595ZM14 16a2 2 0 1 1 4 0 2 2 0 0 1-4 0Zm-4-6.5a5.5 5.5 0 0 1 7.844-4.977L15.971 12a4 4 0 0 0-3.49 2.1 5.48 5.48 0 0 1-2.48-4.6Zm3.375 14.947a5.5 5.5 0 0 1-8.232-4.304l7.413-2.118A4 4 0 0 0 16 20h.114a5.478 5.478 0 0 1-2.739 4.447Zm13.271-2.875a5.491 5.491 0 0 1-1.625 1.767l-5.54-5.361a3.988 3.988 0 0 0-.073-4.072 5.5 5.5 0 0 1 7.238 7.665Z"/>
</svg>
