<svg xmlns="http://www.w3.org/2000/svg" width="32" height="32" fill="none" viewBox="0 0 32 32">
  <path fill="#4A4A4F" d="m25.666 11.959-2.721-9.242A1 1 0 0 0 21.986 2H10.014a1 1 0 0 0-.96.717l-2.72 9.242a7.933 7.933 0 0 0 2.177 8.084A10.924 10.924 0 0 0 15 22.953V28h-4a1 1 0 0 0 0 2h10a1 1 0 0 0 0-2h-4v-5.046a10.926 10.926 0 0 0 6.489-2.912 7.932 7.932 0 0 0 2.177-8.083ZM10.761 4H21.24l2.51 8.524c.012.037.022.075.032.112-2.677.96-5.692-.2-7.329-1.028-3.148-1.594-5.648-1.797-7.492-1.492L10.76 4Zm11.364 14.581a8.961 8.961 0 0 1-12.25 0 5.943 5.943 0 0 1-1.625-6.057l.056-.19c1.5-.508 3.884-.643 7.241 1.059 1.394.706 3.645 1.606 6.054 1.606a8.574 8.574 0 0 0 2.381-.325 5.9 5.9 0 0 1-1.857 3.907Z"/>
</svg>
