<svg xmlns="http://www.w3.org/2000/svg" width="32" height="32" fill="none" viewBox="0 0 32 32">
  <path fill="#4A4A4F" d="M16 11a5 5 0 1 0 0 10 5 5 0 0 0 0-10Zm0 8a3 3 0 1 1 0-6 3 3 0 0 1 0 6Zm9.214.892a10.003 10.003 0 0 1-1.76 2.776 1 1 0 0 1-1.49-1.334 7.994 7.994 0 0 0 0-10.666.999.999 0 1 1 1.49-1.334 10.01 10.01 0 0 1 1.76 10.558Zm-16.59-7.006a8 8 0 0 0 1.408 8.448 1 1 0 0 1-1.49 1.334 9.991 9.991 0 0 1 0-13.334 1.001 1.001 0 0 1 1.494 1.334 7.972 7.972 0 0 0-1.411 2.218ZM31 16a14.947 14.947 0 0 1-4.286 10.5.999.999 0 0 1-1.651-1.073 1 1 0 0 1 .223-.327 12.987 12.987 0 0 0 0-18.195A1.002 1.002 0 0 1 26.714 5.5 14.947 14.947 0 0 1 31 16ZM6.714 25.098A1 1 0 1 1 5.286 26.5a14.984 14.984 0 0 1 0-21 1 1 0 1 1 1.428 1.4 12.988 12.988 0 0 0 0 18.195v.003Z"/>
</svg>
