<svg xmlns="http://www.w3.org/2000/svg" width="32" height="32" fill="none" viewBox="0 0 32 32">
  <path fill="#4A4A4F" d="M12.364 19.636A8.943 8.943 0 0 1 15 26a1 1 0 0 1-2 0 7 7 0 0 0-7-7 1 1 0 0 1 0-2 8.94 8.94 0 0 1 6.364 2.636ZM6 11a1 1 0 1 0 0 2 13 13 0 0 1 13 13 1 1 0 0 0 2 0A15 15 0 0 0 6 11Zm14.849.151A20.863 20.863 0 0 0 6 5.001a1 1 0 1 0 0 2 18.874 18.874 0 0 1 13.435 5.564A18.876 18.876 0 0 1 25 26a1 1 0 0 0 2 0 20.862 20.862 0 0 0-6.151-14.849ZM6.5 24.001a1.5 1.5 0 1 0 0 2.998A1.5 1.5 0 0 0 6.5 24Z"/>
</svg>
