<svg xmlns="http://www.w3.org/2000/svg" width="32" height="32" fill="none" viewBox="0 0 32 32">
  <path fill="#4A4A4F" d="m29.894 26.552-7-14a1 1 0 0 0-1.789 0l-2.714 5.43a11.001 11.001 0 0 1-5.891-2.116A12.957 12.957 0 0 0 15.961 8H19a1 1 0 1 0 0-2h-7V4a1 1 0 0 0-2 0v2H3a1 1 0 0 0 0 2h10.954A10.97 10.97 0 0 1 11 14.544a10.966 10.966 0 0 1-2.375-3.875 1 1 0 1 0-1.885.667 12.954 12.954 0 0 0 2.76 4.539A10.944 10.944 0 0 1 3 18a1 1 0 0 0 0 2c2.9.003 5.718-.969 8-2.76a13.023 13.023 0 0 0 6.43 2.664l-3.325 6.648a1 1 0 1 0 1.789.896L17.617 24h8.764l1.724 3.448a1 1 0 0 0 1.789-.896ZM18.618 22 22 15.236 25.381 22h-6.764Z"/>
</svg>
