<svg xmlns="http://www.w3.org/2000/svg" width="32" height="32" fill="none" viewBox="0 0 32 32">
  <path fill="#4A4A4F" d="m29.474 11.125-13-7a1 1 0 0 0-.948 0l-13 7A1 1 0 0 0 2 12v8a1 1 0 0 0 .526.875L14.262 27.2a.5.5 0 0 0 .738-.44v-7.162L8.319 16 4 18.326v-4.652L8.319 16l2.11-1.136L5.109 12 15 6.674v5.729l-4.571 2.461 5.571 3 5.571-3L23.681 16 28 13.674v4.652L23.681 16 17 19.598v7.162a.5.5 0 0 0 .738.44l11.736-6.325A1 1 0 0 0 30 20v-8a1 1 0 0 0-.526-.875Zm-7.903 3.75L17 12.403v-5.73L26.891 12l-5.32 2.875Z"/>
</svg>
