<svg xmlns="http://www.w3.org/2000/svg" width="32" height="32" fill="none" viewBox="0 0 32 32">
  <path fill="#4A4A4F" d="M30.939 21.799 27.25 7.248a2.01 2.01 0 0 0-1.625-1.484l-4.507-.74a2.028 2.028 0 0 0-2.283 1.485l-.026.106a.5.5 0 0 0 .409.616 19.45 19.45 0 0 1 3.05.703 1.025 1.025 0 0 1 .703 1.212.999.999 0 0 1-1.273.705 19.425 19.425 0 0 0-11.35-.012 1.028 1.028 0 0 1-1.285-.601 1 1 0 0 1 .635-1.292 19.605 19.605 0 0 1 3.09-.715.5.5 0 0 0 .408-.616l-.026-.106a2.027 2.027 0 0 0-2.285-1.484l-4.51.74A2.01 2.01 0 0 0 4.75 7.25L1.061 21.799a1.993 1.993 0 0 0 1.133 2.313l8.375 3.714a2.021 2.021 0 0 0 2.714-1.137l.436-1.182a.5.5 0 0 0-.409-.669 19.763 19.763 0 0 1-3.579-.774 1.025 1.025 0 0 1-.7-1.21 1 1 0 0 1 1.274-.707 19.45 19.45 0 0 0 11.39 0 1 1 0 0 1 1.274.707 1.023 1.023 0 0 1-.701 1.21 19.732 19.732 0 0 1-3.578.774.499.499 0 0 0-.409.67l.437 1.18a2.021 2.021 0 0 0 2.713 1.138l8.375-3.714A1.993 1.993 0 0 0 30.94 21.8Zm-19.439-2.8a1.5 1.5 0 1 1 0-3 1.5 1.5 0 0 1 0 3Zm9 0a1.5 1.5 0 1 1 0-3 1.5 1.5 0 0 1 0 3Z"/>
</svg>
