<svg xmlns="http://www.w3.org/2000/svg" width="32" height="32" fill="none" viewBox="0 0 32 32">
  <path fill="#4A4A4F" d="M11.659 4.607a.5.5 0 0 1 .102-.898 12.993 12.993 0 0 1 11.082 1.243.5.5 0 0 1 .125.734 19.165 19.165 0 0 1-5.236 4.625 21.179 21.179 0 0 0-6.073-5.704Zm4.288 6.643a19.125 19.125 0 0 0-7-5.864.493.493 0 0 0-.5.041 13.051 13.051 0 0 0-4.792 6.5.5.5 0 0 0 .375.646c1.304.28 2.635.424 3.97.427a18.874 18.874 0 0 0 7.947-1.75Zm12.975 3.336A12.976 12.976 0 0 0 25.273 6.9a.499.499 0 0 0-.75.042 21.143 21.143 0 0 1-5.71 5.05 20.966 20.966 0 0 1 1.693 3.738A20.954 20.954 0 0 1 26 15c.793 0 1.586.045 2.375.134a.502.502 0 0 0 .547-.544v-.004Zm-7.864 3.063a20.963 20.963 0 0 1 .043 9.415.5.5 0 0 0 .711.561 13.032 13.032 0 0 0 7.072-9.906.5.5 0 0 0-.437-.562 19.054 19.054 0 0 0-7.389.5v-.008Zm-2.454-1.306a18.969 18.969 0 0 0-1.55-3.402A20.875 20.875 0 0 1 8 15a21.05 21.05 0 0 1-4.36-.456.5.5 0 0 0-.601.445 12.965 12.965 0 0 0 4.085 10.5.5.5 0 0 0 .768-.115 21.126 21.126 0 0 1 10.712-9.028v-.003ZM9.46 26.656a.5.5 0 0 0 .19.685 12.985 12.985 0 0 0 8.606 1.461.492.492 0 0 0 .383-.33 19.07 19.07 0 0 0 .975-6.01c0-1.408-.157-2.81-.468-4.183a19.118 19.118 0 0 0-9.686 8.377Z"/>
</svg>
