<svg xmlns="http://www.w3.org/2000/svg" width="32" height="32" fill="none" viewBox="0 0 32 32">
  <path fill="#4A4A4F" d="M23.5 15 16 10l6.945-4.625a1 1 0 0 1 1.11 0l5.695 3.793a1 1 0 0 1 0 1.665L23.5 15ZM9.055 5.375a1 1 0 0 0-1.11 0L2.25 9.168a1 1 0 0 0 0 1.665L8.5 15l7.5-5-6.945-4.625ZM29.75 19.168 23.5 15 16 20l6.945 4.625a1 1 0 0 0 1.11 0l5.695-3.792a1 1 0 0 0 0-1.665Zm-27.5 0a1 1 0 0 0 0 1.665l5.695 3.792a1 1 0 0 0 1.11 0L16 20l-7.5-5-6.25 4.168Zm18.826 6.618L16.28 22.59a.5.5 0 0 0-.555 0l-4.799 3.197a.5.5 0 0 0 0 .832l4.52 3.007a1 1 0 0 0 1.11 0l4.518-3.012a.5.5 0 0 0 0-.827h.002Z"/>
</svg>
