<svg xmlns="http://www.w3.org/2000/svg" width="32" height="32" fill="none" viewBox="0 0 32 32">
  <path fill="#4A4A4F" d="m30.415 14.585-13-13a2 2 0 0 0-2.83 0l-13 13a2 2 0 0 0 0 2.83l13 13a1.999 1.999 0 0 0 2.83 0l13-13a1.998 1.998 0 0 0 0-2.83ZM7 17a1 1 0 1 1-2 0v-2a1 1 0 1 1 2 0v2Zm5 5a1 1 0 1 1-2 0v-2a1 1 0 0 1 2 0v2Zm0-6a1 1 0 1 1-2 0v-6a1 1 0 0 1 2 0v6Zm5 11a1 1 0 1 1-2 0v-2a1 1 0 0 1 2 0v2Zm0-6a1 1 0 1 1-2 0V11a1 1 0 0 1 2 0v10Zm0-14a1 1 0 1 1-2 0V5a1 1 0 0 1 2 0v2Zm5 15a1 1 0 1 1-2 0v-6a1 1 0 0 1 2 0v6Zm0-10a1 1 0 1 1-2 0v-2a1 1 0 0 1 2 0v2Zm5 5a1 1 0 1 1-2 0v-2a1 1 0 0 1 2 0v2Z"/>
</svg>
