<svg xmlns="http://www.w3.org/2000/svg" width="32" height="32" fill="none" viewBox="0 0 32 32">
  <path fill="#4A4A4F" d="M11 18a2 2 0 1 1 0-4 2 2 0 0 1 0 4Zm18-3v11a2 2 0 0 1-2 2H11a2 2 0 0 1-2-2v-2H5a2 2 0 0 1-2-2V10a2 2 0 0 1 2-2h7V6a2 2 0 0 1 2-2h10a2 2 0 0 1 2 2v7h1c.455 0 .896.157 1.25.443l.01.008.017.014a.846.846 0 0 1 .093.085A1.993 1.993 0 0 1 29 15ZM14 8h3a2 2 0 0 1 2 2v9.266l5-3.611V6H14v2Zm-3 12a4 4 0 1 0 0-8 4 4 0 0 0 0 8Zm13.907 6L19 21.734V22a2 2 0 0 1-2 2h-6v2h13.907ZM27 15.956 20.707 20.5 27 25.044v-9.088Z"/>
</svg>
