<svg xmlns="http://www.w3.org/2000/svg" width="32" height="32" fill="none" viewBox="0 0 32 32">
  <path fill="#4A4A4F" d="M27.407 10h-.946a4 4 0 0 0-5.196-5.606A5 5 0 0 0 12.101 8H5a2 2 0 0 0-2 2v12a2 2 0 0 0 2 2h4.584a8 8 0 0 0 14.837-.019A5 5 0 0 0 29 19v-7.408A1.595 1.595 0 0 0 27.407 10ZM17 4a3 3 0 0 1 1.884 5.335A2 2 0 0 0 17 8h-2.828A3 3 0 0 1 17 4Zm-6 16a1 1 0 0 1-1-1v-5H9a1 1 0 0 1 0-2h4a1 1 0 1 1 0 2h-1v5a1 1 0 0 1-1 1Zm12 1a6 6 0 0 1-11.195 3H17a2 2 0 0 0 2-2V12h4v9Zm0-11h-2a4.986 4.986 0 0 0 .95-3.7A2 2 0 1 1 23 10Zm4 9a3 3 0 0 1-2.045 2.844c.03-.28.045-.562.045-.844v-9h2v7Z"/>
</svg>
