<svg xmlns="http://www.w3.org/2000/svg" width="32" height="32" fill="none" viewBox="0 0 32 32">
  <path fill="#4A4A4F" d="M17 3A13.041 13.041 0 0 0 6.75 8H5a2 2 0 0 0-2 2v12a2 2 0 0 0 2 2h1.75A13 13 0 1 0 17 3ZM9 19v-6a1 1 0 0 1 1-1h2a3 3 0 0 1 0 6h-1v1a1 1 0 0 1-2 0Zm7 7.954A11.046 11.046 0 0 1 9.454 24H16v2.954ZM16 8H9.454A11.045 11.045 0 0 1 16 5.046V8Zm2-2.954A11.016 11.016 0 0 1 27.954 15H20v-5a2 2 0 0 0-2-2V5.046Zm0 21.908V24a2 2 0 0 0 2-2v-5h7.954A11.017 11.017 0 0 1 18 26.954ZM12 16h-1v-2h1a1 1 0 0 1 0 2Z"/>
</svg>
