<svg xmlns="http://www.w3.org/2000/svg" width="32" height="32" fill="none" viewBox="0 0 32 32">
  <path fill="#4A4A4F" d="M27.515 11.693a6.975 6.975 0 0 0-2.524-2.023A7 7 0 0 0 18.001 3h-7.5a2 2 0 0 0-1.94 1.515l-4.5 18A2 2 0 0 0 6 25h3.437l-.375 1.515A2 2 0 0 0 11 29h3.938a2 2 0 0 0 1.937-1.515L18 23h4a7 7 0 0 0 5.518-11.307h-.003ZM6 23l4.5-18H18a5 5 0 0 1 4.913 4.061A7.125 7.125 0 0 0 22 9h-7a2 2 0 0 0-1.941 1.515L9.94 23H6Zm20.846-5.788A4.992 4.992 0 0 1 22 21h-4a2 2 0 0 0-1.94 1.515L14.935 27H11l2.5-10H18a6.988 6.988 0 0 0 6.75-5.174c.452.3.852.67 1.185 1.096a4.966 4.966 0 0 1 .913 4.29h-.002Z"/>
</svg>
