<svg xmlns="http://www.w3.org/2000/svg" width="32" height="32" fill="none" viewBox="0 0 32 32">
  <path fill="#4A4A4F" d="M29 16.088c-.048 7.06-5.808 12.84-12.868 12.91a13.022 13.022 0 0 1-3.242-.374.5.5 0 0 1-.364-.608l1.08-4.318A7.572 7.572 0 0 0 17 24.5c4.625 0 8.337-4.181 7.976-9.17a9 9 0 1 0-17.321 4.045A1 1 0 0 0 9 19.911a1.024 1.024 0 0 0 .5-1.31 7 7 0 1 1 13.482-3.117C23.25 19.3 20.466 22.5 17 22.5c-1.02 0-2.02-.279-2.893-.805l1.863-7.452a1 1 0 0 0-1.94-.485l-3.358 13.43a.5.5 0 0 1-.713.325 13 13 0 0 1-6.96-11.653C3.076 8.815 8.835 3.065 15.876 3A13 13 0 0 1 29 16.088Z"/>
</svg>
