<svg xmlns="http://www.w3.org/2000/svg" width="32" height="32" fill="none" viewBox="0 0 32 32">
  <path fill="#4A4A4F" d="m31.707 12.707-4.5 4.5a1.001 1.001 0 0 1-1.415 0l-4.5-4.5-.042-.047-.043.047L16.914 17l4.293 4.292a1.001 1.001 0 0 1 0 1.415l-4.5 4.5a1.001 1.001 0 0 1-1.415 0l-4.5-4.5a1 1 0 0 1 0-1.415L15.086 17l-4.294-4.293-.042-.047-.043.047-4.5 4.5a1 1 0 0 1-1.415 0l-4.5-4.5a1.001 1.001 0 0 1 0-1.415l4.5-4.5a1 1 0 0 1 1.415 0l4.5 4.5.043.048.042-.048 4.5-4.5a1 1 0 0 1 1.415 0l4.5 4.5.043.048.042-.048 4.5-4.5a1 1 0 0 1 1.415 0l4.5 4.5a1.001 1.001 0 0 1 0 1.415Z"/>
</svg>
