<svg xmlns="http://www.w3.org/2000/svg" width="32" height="32" fill="none" viewBox="0 0 32 32">
  <path fill="#4A4A4F" d="m30.708 9.708-3.738 3.737C26.215 22.198 18.834 29 10 29c-1.815 0-3.311-.287-4.447-.855-.917-.459-1.292-.95-1.385-1.09a1 1 0 0 1 .48-1.491c.033-.013 3.03-1.164 4.935-3.355a13.866 13.866 0 0 1-2.735-3.025c-1.55-2.301-3.285-6.299-2.75-12.273a1 1 0 0 1 1.706-.615c.044.044 4.16 4.138 9.192 5.465v-.76a5.983 5.983 0 0 1 1.795-4.288A5.859 5.859 0 0 1 21.013 5a6.083 6.083 0 0 1 5.183 3H30a1 1 0 0 1 .708 1.708Z"/>
</svg>
