<svg xmlns="http://www.w3.org/2000/svg" width="32" height="32" fill="none" viewBox="0 0 32 32">
  <path fill="#4A4A4F" d="M14 18v6.455a1 1 0 0 1-1.179.984l-8-1.455A1 1 0 0 1 4 23v-5a1 1 0 0 1 1-1h8a1 1 0 0 1 1 1Zm-.359-11.223a1 1 0 0 0-.82-.216l-8 1.455A1 1 0 0 0 4 9v5a1 1 0 0 0 1 1h8a1 1 0 0 0 1-1V7.545a1 1 0 0 0-.359-.768ZM27 17H17a1 1 0 0 0-1 1v7.181a1 1 0 0 0 .821.985l10 1.818A1 1 0 0 0 28 27v-9a1 1 0 0 0-1-1Zm.641-12.768a1 1 0 0 0-.82-.216l-10 1.819a1 1 0 0 0-.821.984v7.18a1 1 0 0 0 1 1h10a1 1 0 0 0 1-1V5a1 1 0 0 0-.359-.767Z"/>
</svg>
