<svg xmlns="http://www.w3.org/2000/svg" width="32" height="32" fill="none" viewBox="0 0 32 32">
  <path fill="#4A4A4F" d="M27.634 18.051A12.085 12.085 0 0 0 22.625 11H30a1 1 0 1 0 0-2H19.875a4 4 0 0 0-7.75 0H2a1 1 0 0 0 0 2h7.375a12.085 12.085 0 0 0-5.009 7.051 4 4 0 1 0 2.02.199 10.075 10.075 0 0 1 5.99-6.57 4 4 0 0 0 7.257 0 10.075 10.075 0 0 1 5.982 6.57 4 4 0 1 0 2.019-.196v-.003ZM7 22a2 2 0 1 1-4 0 2 2 0 0 1 4 0Zm9-10a2 2 0 1 1 0-4.001A2 2 0 0 1 16 12Zm11 12a2 2 0 1 1 0-4.001A2 2 0 0 1 27 24Z"/>
</svg>
