<svg xmlns="http://www.w3.org/2000/svg" width="32" height="32" fill="none" viewBox="0 0 32 32">
  <path fill="#4A4A4F" d="M25.193 6.808A13 13 0 1 0 6.808 25.193 13 13 0 0 0 25.193 6.808ZM23 24.484c-.616.51-1.287.95-2 1.312V12.414l2-2v14.07Zm-10-4.07 2-2v8.535a11.043 11.043 0 0 1-2-.375v-6.16Zm-2 5.382a10.873 10.873 0 0 1-2.037-1.345L11 22.414v3.382Zm6-9.382 2-2v12.165c-.654.186-1.323.312-2 .375v-10.54ZM5 16a11 11 0 0 1 18.038-8.45L7.548 23.04A10.917 10.917 0 0 1 5 16Zm20 6.324V9.676a11 11 0 0 1 0 12.648Z"/>
</svg>
