<svg xmlns="http://www.w3.org/2000/svg" width="32" height="32" fill="none" viewBox="0 0 32 32">
  <path fill="#4A4A4F" d="M12.033 4.631a1.001 1.001 0 0 1 .717-1.22 13.01 13.01 0 0 1 6.5 0 1 1 0 1 1-.5 1.937 11.011 11.011 0 0 0-5.5 0 1 1 0 0 1-1.217-.717Zm-5.31 2.262a13.006 13.006 0 0 0-3.25 5.625 1 1 0 0 0 1.928.533 11 11 0 0 1 2.75-4.76 1 1 0 0 0-1.427-1.398Zm-1.322 12.05a1 1 0 1 0-1.927.536 13.015 13.015 0 0 0 3.25 5.625A1 1 0 0 0 8.15 23.7a11.018 11.018 0 0 1-2.749-4.757Zm13.35 7.71a10.998 10.998 0 0 1-5.5 0 1 1 0 1 0-.5 1.936c2.131.55 4.367.55 6.5 0a1 1 0 0 0-.5-1.936Zm9.08-8.403a1.001 1.001 0 0 0-1.23.698 10.989 10.989 0 0 1-2.75 4.76 1 1 0 0 0 1.427 1.4 13.001 13.001 0 0 0 3.25-5.624 1 1 0 0 0-.697-1.234ZM26.6 13.058a1.001 1.001 0 0 0 1.927-.535 12.999 12.999 0 0 0-3.25-5.625A1 1 0 1 0 23.85 8.3a11 11 0 0 1 2.749 4.756v.002Z"/>
</svg>
