<svg xmlns="http://www.w3.org/2000/svg" width="32" height="32" fill="none" viewBox="0 0 32 32">
  <path fill="#4A4A4F" d="M14.521 13.388a2.094 2.094 0 0 0 2.958 0l3.909-3.91a2.09 2.09 0 0 0 0-2.957l-3.909-3.91a2.094 2.094 0 0 0-2.957 0l-3.91 3.91a2.091 2.091 0 0 0 0 2.957l3.91 3.91Zm-2.5-5.453 3.91-3.909a.089.089 0 0 1 .126 0l3.91 3.91a.093.093 0 0 1 0 .124l-3.903 3.914a.09.09 0 0 1-.125 0l-3.912-3.91a.093.093 0 0 1 0-.129h-.005Zm17.363 6.587-3.905-3.91a2.093 2.093 0 0 0-2.956 0l-3.91 3.91a2.094 2.094 0 0 0 0 2.957l3.91 3.91a2.093 2.093 0 0 0 2.956 0l3.91-3.91a2.094 2.094 0 0 0 0-2.957h-.005Zm-1.409 1.542-3.91 3.91a.092.092 0 0 1-.125 0l-3.91-3.91a.09.09 0 0 1 0-.125l3.91-3.91a.093.093 0 0 1 .125 0l3.91 3.91a.09.09 0 0 1 0 .125Zm-14.587-1.543-3.91-3.91a2.093 2.093 0 0 0-2.957 0l-3.91 3.91a2.094 2.094 0 0 0 0 2.958l3.91 3.91a2.093 2.093 0 0 0 2.957 0l3.91-3.91a2.094 2.094 0 0 0 0-2.957Zm-1.414 1.543-3.91 3.91a.093.093 0 0 1-.125 0l-3.914-3.91a.09.09 0 0 1 0-.125l3.91-3.912a.093.093 0 0 1 .125 0l3.91 3.91a.09.09 0 0 1 .004.127Zm5.5 2.549a2.094 2.094 0 0 0-2.957 0l-3.904 3.91a2.092 2.092 0 0 0 0 2.956l3.909 3.91a2.094 2.094 0 0 0 2.957 0l3.909-3.91a2.09 2.09 0 0 0 0-2.956l-3.914-3.91Zm2.5 5.452-3.91 3.909a.089.089 0 0 1-.125 0l-3.912-3.909a.092.092 0 0 1 0-.125l3.91-3.91a.09.09 0 0 1 .124 0l3.91 3.91a.093.093 0 0 1 .003.125Z"/>
</svg>
