<svg xmlns="http://www.w3.org/2000/svg" width="32" height="32" fill="none" viewBox="0 0 32 32">
  <path fill="#4A4A4F" d="M21.75 5.969a31.773 31.773 0 0 0-5.181-4.788 1 1 0 0 0-1.148 0A31.771 31.771 0 0 0 10.25 5.97C6.814 9.915 5 14.075 5 18a11 11 0 1 0 22 0c0-3.925-1.814-8.085-5.25-12.031ZM25 18c0 .334-.02.668-.058 1H17v-2h7.955c.03.334.045.667.045 1Zm-2.076-7H17V9h4.611c.474.643.912 1.31 1.313 2ZM17 25h4.649A8.96 8.96 0 0 1 17 26.943V25Zm0-2v-2h7.484a8.993 8.993 0 0 1-1 2H17Zm0-8v-2h6.924c.275.65.503 1.318.681 2H17Zm2.986-8H17V4.075A32.151 32.151 0 0 1 19.986 7ZM7 18c0-6.25 5.283-11.589 8-13.925v22.868A9.01 9.01 0 0 1 7 18Z"/>
</svg>
