<svg xmlns="http://www.w3.org/2000/svg" width="32" height="32" fill="none" viewBox="0 0 32 32">
  <path fill="#4A4A4F" d="M21.828 10.171a10 10 0 1 0-11.657 11.657 10 10 0 1 0 11.657-11.657ZM28 20c0 .19-.009.375-.023.564l-6.25-6.25A9.999 9.999 0 0 0 22 12.25 8.014 8.014 0 0 1 28 20Zm-1.684 4.9-6.578-6.576c.486-.594.903-1.242 1.242-1.93l6.482 6.48a8 8 0 0 1-1.146 2.026Zm-3.441 2.561-6.483-6.482a10.064 10.064 0 0 0 1.93-1.242l6.576 6.578a7.998 7.998 0 0 1-2.023 1.146ZM5.684 7.1l6.577 6.576a10.06 10.06 0 0 0-1.241 1.93l-6.483-6.48A8 8 0 0 1 5.684 7.1Zm3.44-2.562 6.483 6.483a10.06 10.06 0 0 0-1.93 1.241L7.1 5.684a8 8 0 0 1 2.026-1.147ZM20 12a8.009 8.009 0 0 1-8 8 8.009 8.009 0 0 1 8-8Zm-.25-2a10 10 0 0 0-2.061.266l-6.25-6.25c.186-.007.37-.016.56-.016a8.014 8.014 0 0 1 7.75 6.006V10ZM4 12c0-.19.009-.375.022-.564l6.25 6.25a9.975 9.975 0 0 0-.266 2.064A8.014 8.014 0 0 1 4 12Zm8.25 10a9.998 9.998 0 0 0 2.061-.267l6.25 6.25a7.641 7.641 0 0 1-.564.023A8.013 8.013 0 0 1 12.25 22Z"/>
</svg>
