<svg xmlns="http://www.w3.org/2000/svg" width="32" height="32" fill="none" viewBox="0 0 32 32">
  <path fill="#4A4A4F" d="M3 13a1 1 0 0 1 1-1h10a1 1 0 0 1 0 2H4a1 1 0 0 1-1-1Zm25-1H18a1 1 0 0 0 0 2h10a1 1 0 0 0 0-2ZM9 17H4a1 1 0 0 0 0 2h5a1 1 0 0 0 0-2Zm19 0h-5a1 1 0 0 0 0 2h5a1 1 0 0 0 0-2Zm-16 1a1 1 0 0 0 1 1h6a1 1 0 0 0 0-2h-6a1 1 0 0 0-1 1Zm-5 4H4a1 1 0 0 0 0 2h3a1 1 0 0 0 0-2Zm7 0h-3a1 1 0 0 0 0 2h3a1 1 0 0 0 0-2Zm7 0h-3a1 1 0 0 0 0 2h3a1 1 0 0 0 0-2Zm7 0h-3a1 1 0 0 0 0 2h3a1 1 0 0 0 0-2ZM4 9h24a1 1 0 1 0 0-2H4a1 1 0 0 0 0 2Z"/>
</svg>
