<svg xmlns="http://www.w3.org/2000/svg" width="32" height="32" fill="none" viewBox="0 0 32 32">
  <path fill="#4A4A4F" d="M21.828 10.171a10 10 0 1 0-11.657 11.657 10 10 0 1 0 11.657-11.657ZM12.586 17 15 19.413A7.935 7.935 0 0 1 12 20a7.928 7.928 0 0 1 .586-3Zm4.219 1.391-3.197-3.196c.453-.6.987-1.134 1.587-1.587l3.196 3.197a8.08 8.08 0 0 1-1.586 1.586ZM19.413 15 17 12.586A7.934 7.934 0 0 1 20 12a7.935 7.935 0 0 1-.587 3ZM4 12a8 8 0 0 1 15.75-2 10.01 10.01 0 0 0-9.744 9.75A8.014 8.014 0 0 1 4 12Zm16 16a8.014 8.014 0 0 1-7.75-6A10.01 10.01 0 0 0 22 12.25 8 8 0 0 1 20 28Z"/>
</svg>
