<svg xmlns="http://www.w3.org/2000/svg" width="32" height="32" fill="none" viewBox="0 0 32 32">
  <path fill="#4A4A4F" d="M24.485 12a8.5 8.5 0 1 0-16.97 0A8.5 8.5 0 1 0 16 26.706 8.5 8.5 0 1 0 24.485 12ZM16 24.184a6.486 6.486 0 0 1-2-4.423 8.442 8.442 0 0 0 3.988 0A6.487 6.487 0 0 1 16 24.184ZM16 18a6.493 6.493 0 0 1-1.76-.244 6.507 6.507 0 0 1 1.76-2.94 6.507 6.507 0 0 1 1.76 2.94A6.493 6.493 0 0 1 16 18Zm-3.596-1.089A6.523 6.523 0 0 1 9.74 13.25a6.485 6.485 0 0 1 4.599.41 8.521 8.521 0 0 0-1.935 3.251Zm5.257-3.257a6.484 6.484 0 0 1 4.599-.404 6.523 6.523 0 0 1-2.664 3.668 8.52 8.52 0 0 0-1.935-3.264ZM16 5a6.507 6.507 0 0 1 6.5 6.239 8.463 8.463 0 0 0-6.5 1.055 8.465 8.465 0 0 0-6.494-1.055A6.507 6.507 0 0 1 16 5ZM5 19.5a6.5 6.5 0 0 1 2.904-5.411A8.545 8.545 0 0 0 12.015 19a8.468 8.468 0 0 0 2.324 6.346A6.5 6.5 0 0 1 5 19.5ZM20.5 26a6.457 6.457 0 0 1-2.839-.654A8.468 8.468 0 0 0 19.985 19a8.545 8.545 0 0 0 4.111-4.916A6.5 6.5 0 0 1 20.5 26Z"/>
</svg>
