<svg xmlns="http://www.w3.org/2000/svg" width="32" height="32" fill="none" viewBox="0 0 32 32">
  <path fill="#4A4A4F" d="M29.83 4.17a4.001 4.001 0 1 0-5.658 5.657c.037.037.075.072.113.107l-3.329 6.182a4.024 4.024 0 0 0-2.988.438l-2.522-2.523A4 4 0 0 0 9.171 9.17a4 4 0 0 0 .111 5.764l-3.328 6.183a4 4 0 0 0-4.65 5.415 4 4 0 1 0 6.523-4.36c-.036-.036-.075-.07-.112-.106l3.329-6.182a4 4 0 0 0 2.988-.435l2.521 2.522a4.001 4.001 0 1 0 6.275-.797c-.036-.037-.073-.072-.11-.107l3.328-6.182a4 4 0 0 0 3.782-6.712l.002-.003ZM6.412 26.416a2 2 0 1 1-2.829-2.83 2 2 0 0 1 2.83 2.83Zm4.173-13a2 2 0 1 1 2.828-2.829 2 2 0 0 1-2.828 2.83Zm10.83 8a2 2 0 1 1-2.829-2.829 2 2 0 0 1 2.829 2.83Zm7-13a2.001 2.001 0 1 1 .001-.002l-.001.002Z"/>
</svg>
