<svg xmlns="http://www.w3.org/2000/svg" width="32" height="32" fill="none" viewBox="0 0 32 32">
  <path fill="#4A4A4F" d="m27.791 15.486-.023-.047L24 8.738V4a2 2 0 0 0-2-2H10a2 2 0 0 0-2 2v4.74l-3.767 6.699c-.01.015-.017.031-.025.047a1.993 1.993 0 0 0 .182 2.072l.014.017L15.209 31.61a1 1 0 0 0 1.584 0l10.803-14.035.014-.017a1.99 1.99 0 0 0 .181-2.072ZM22.001 4v4H10V4h12Zm-6 14a1.5 1.5 0 1 1 0-3 1.5 1.5 0 0 1 0 3Zm1 10.063v-8.21a3.5 3.5 0 1 0-2 0v8.208L6 16.375 9.585 10h12.83L26 16.375l-9 11.688Z"/>
</svg>
