<svg xmlns="http://www.w3.org/2000/svg" width="32" height="32" fill="none" viewBox="0 0 32 32">
  <path fill="#4A4A4F" d="m28.415 9.171-5.586-5.585a2.002 2.002 0 0 0-2.829 0L4.586 19A1.982 1.982 0 0 0 4 20.414V26a2 2 0 0 0 2 2h5.586A1.984 1.984 0 0 0 13 27.414l10.459-10.458.435 1.738-4.6 4.599a1 1 0 1 0 1.413 1.415l5-5a1 1 0 0 0 .264-.95l-.862-3.452L28.415 12a2 2 0 0 0 0-2.829ZM6 22.414 9.586 26H6v-3.586Zm6 3.172L6.414 20 17 9.414 22.586 15 12 25.586Zm12-12L18.415 8l3-3L27 10.586l-3 3Z"/>
</svg>
