<svg xmlns="http://www.w3.org/2000/svg" width="32" height="32" fill="none" viewBox="0 0 32 32">
  <path fill="#4A4A4F" d="M29.898 11.381A1.969 1.969 0 0 0 28 10.001h-7.625l-2.471-7.593a1.991 1.991 0 0 0-3.806-.007l-2.466 7.6H4a2 2 0 0 0-1.171 3.624l6.182 4.448-2.367 7.302a1.969 1.969 0 0 0 .731 2.235 1.968 1.968 0 0 0 2.346 0L16 23.094l6.279 4.516a2 2 0 0 0 3.077-2.235l-2.375-7.307 6.186-4.452a1.968 1.968 0 0 0 .73-2.235ZM16 3.02 18.265 10h-4.53L16 3.02ZM4 12h6.984l-1.322 4.07L4 12Zm4.542 14 2.174-6.699 3.568 2.568L8.542 26Zm2.822-8.696L13.086 12h5.828l1.718 5.298L16 20.625l-4.636-3.321ZM23.45 26l-5.738-4.125 3.568-2.567L23.45 26Zm-1.116-9.922L21.016 12H28l-5.666 4.078Z"/>
</svg>
