<svg xmlns="http://www.w3.org/2000/svg" width="32" height="32" fill="none" viewBox="0 0 32 32">
  <path fill="#4A4A4F" d="M28.83 6.17a4 4 0 0 0-6.302.845L19 6.052a4 4 0 1 0-7.549 1.794L7.21 11.665a4.006 4.006 0 0 0-5.039.506 4 4 0 0 0 5.361 5.926l8.75 6.42a4 4 0 1 0 5.947-1.836l3.423-9.699a4 4 0 0 0 3.174-6.812h.005ZM13.58 4.584a2 2 0 1 1-.433 2.18 2 2 0 0 1 .438-2.18h-.005Zm-10 11.83a2 2 0 1 1 2.826-2.829 2 2 0 0 1-2.826 2.83Zm17.831 11a2 2 0 1 1-2.829-2.828 2 2 0 0 1 2.83 2.829Zm-1.068-5.397a4 4 0 0 0-2.875.885l-8.75-6.42a4.021 4.021 0 0 0-.168-3.33l4.244-3.82a4 4 0 0 0 5.684-1.35L22 8.944a4 4 0 0 0 1.765 3.375l-3.422 9.697Zm7.07-11.605a1.998 1.998 0 0 1-2.883.056 2 2 0 0 1 .058-2.883 2 2 0 0 1 2.828 2.829l-.003-.002Z"/>
</svg>
