<svg xmlns="http://www.w3.org/2000/svg" width="32" height="32" fill="none" viewBox="0 0 32 32">
  <path fill="#4A4A4F" d="M19.716 14.141a1 1 0 0 1 .261-1.391l8.458-5.788a1 1 0 0 1 1.125 1.652L21.1 14.4a.99.99 0 0 1-1.385-.26Zm10.109 10.636a1 1 0 0 1-1.39.26L17 17.212l-5.314 3.635a4.5 4.5 0 1 1-1.125-1.648l4.668-3.2-4.674-3.198a4.483 4.483 0 1 1 1.125-1.649l17.875 12.234a.998.998 0 0 1 .27 1.391ZM10 22.5a2.5 2.5 0 1 0-5-.001 2.5 2.5 0 0 0 5 0Zm-.733-11.234a2.5 2.5 0 1 0-3.535 0 2.481 2.481 0 0 0 3.535 0Z"/>
</svg>
