<svg xmlns="http://www.w3.org/2000/svg" width="32" height="32" fill="none" viewBox="0 0 32 32">
  <path fill="#4A4A4F" d="M21.829 10.169a10 10 0 1 0-11.66 11.66 10 10 0 1 0 11.66-11.66ZM28 20c0 .19-.009.375-.022.564l-6.25-6.25c.162-.677.253-1.368.272-2.064A7.977 7.977 0 0 1 28 20Zm-9.675-.261 6.576 6.577a7.996 7.996 0 0 1-2.026 1.147l-6.482-6.483a10.06 10.06 0 0 0 1.932-1.241Zm1.414-1.414a10.06 10.06 0 0 0 1.241-1.93l6.483 6.48a7.998 7.998 0 0 1-1.147 2.024l-6.577-6.574ZM4 12a8 8 0 1 1 8 8 8.009 8.009 0 0 1-8-8Zm8.25 10a10.018 10.018 0 0 0 2.063-.266l6.25 6.25A7.976 7.976 0 0 1 12.25 22Z"/>
</svg>
