<svg xmlns="http://www.w3.org/2000/svg" width="32" height="32" fill="none" viewBox="0 0 32 32">
  <path fill="#4A4A4F" d="M21.828 10.171a10 10 0 1 0-11.657 11.657 10 10 0 1 0 11.657-11.657ZM28 20c0 .19-.009.375-.023.564l-6.25-6.25A9.999 9.999 0 0 0 22 12.25 8.014 8.014 0 0 1 28 20ZM5.684 7.099l6.577 6.576a10.06 10.06 0 0 0-1.241 1.93l-6.483-6.48a8 8 0 0 1 1.147-2.026Zm3.44-2.562 6.483 6.483a10.06 10.06 0 0 0-1.93 1.241L7.1 5.684a8 8 0 0 1 2.026-1.147Zm7.683 13.854-3.196-3.196c.452-.6.986-1.134 1.586-1.587l3.197 3.197a8.08 8.08 0 0 1-1.59 1.586h.003ZM19.414 15 17 12.586A7.934 7.934 0 0 1 20 12a7.935 7.935 0 0 1-.587 3Zm-6.828 2L15 19.413A7.935 7.935 0 0 1 12 20a7.928 7.928 0 0 1 .586-3Zm5.739 2.738 6.576 6.578a8 8 0 0 1-2.026 1.146l-6.483-6.482a10.06 10.06 0 0 0 1.933-1.242Zm1.413-1.413c.486-.594.903-1.242 1.242-1.93l6.482 6.48a7.998 7.998 0 0 1-1.146 2.023l-6.578-6.573Zm.012-8.319a9.997 9.997 0 0 0-2.061.266l-6.25-6.25c.186-.013.37-.022.56-.022a8.014 8.014 0 0 1 7.75 6.006ZM4 12c0-.19.009-.375.022-.564l6.25 6.25a9.975 9.975 0 0 0-.266 2.064A8.014 8.014 0 0 1 4 12Zm8.25 10a9.998 9.998 0 0 0 2.061-.267l6.25 6.25a7.641 7.641 0 0 1-.564.023A8.013 8.013 0 0 1 12.25 22Z"/>
</svg>
