<svg xmlns="http://www.w3.org/2000/svg" width="32" height="32" fill="none" viewBox="0 0 32 32">
  <path fill="#4A4A4F" d="M27 5H5a2 2 0 0 0-2 2v18a2 2 0 0 0 2 2h22a2 2 0 0 0 2-2V7a2 2 0 0 0-2-2Zm0 20H5V7h22v18Zm-4.744-14.043C20.574 9.695 18.351 9 16 9c-2.351 0-4.574.695-6.25 1.957C7.974 12.284 7 14.075 7 16c0 1.925.974 3.716 2.75 5.043C11.426 22.305 13.649 23 16 23s4.574-.695 6.256-1.957C24.026 19.715 25 17.925 25 16c0-1.925-.974-3.716-2.744-5.043ZM16 21c-3.86 0-7-2.242-7-5s3.14-5 7-5 7 2.242 7 5-3.14 5-7 5Z"/>
</svg>
