<svg xmlns="http://www.w3.org/2000/svg" width="33" height="32" fill="none" viewBox="0 0 33 32">
  <path fill="#4A4A4F" d="m7.808 20.589 3.483-4.776a6 6 0 1 1-1.615-1.18L6.193 19.41a1 1 0 1 0 1.615 1.178ZM27 14c-.723 0-1.44.13-2.116.386l2.98 5.114a1.001 1.001 0 0 1-1.12 1.512 1.002 1.002 0 0 1-.608-.512l-2.978-5.107A6 6 0 1 0 27 14Zm-5.259-5h3.26a1 1 0 0 1 1 1 1 1 0 0 0 2 0 3 3 0 0 0-3-3h-5a1 1 0 0 0-.865 1.5l1.457 2.5h-7.185l-2.044-3.5A1 1 0 0 0 10.5 7H7a1 1 0 0 0 0 2h2.926l1.714 2.939-1.964 2.694c.601.3 1.147.698 1.615 1.18l1.45-1.988 3.895 6.675a1.001 1.001 0 0 0 1.88-.624 1.001 1.001 0 0 0-.152-.376l-3.79-6.5h7.185l1.399 2.396a6.016 6.016 0 0 1 1.726-1.01L21.74 9Z"/>
</svg>
