<svg xmlns="http://www.w3.org/2000/svg" width="32" height="32" fill="none" viewBox="0 0 32 32">
  <path fill="#4A4A4F" d="M16 2A11.013 11.013 0 0 0 5 13c0 2.929 1.175 6.177 3.141 8.688 1.51 1.926 3.313 3.25 5.239 3.886l-1.299 3.032A1 1 0 0 0 13 30h6a1 1 0 0 0 .919-1.394l-1.294-3.032c1.925-.634 3.729-1.96 5.239-3.887C25.825 19.178 27 15.93 27 13A11.012 11.012 0 0 0 16 2Zm6.165 10.986a1 1 0 0 1-1.15-.821 5.162 5.162 0 0 0-4.179-4.179 1 1 0 1 1 .33-1.972 7.188 7.188 0 0 1 5.822 5.821 1.001 1.001 0 0 1-.823 1.151Z"/>
</svg>
