<svg xmlns="http://www.w3.org/2000/svg" width="32" height="32" fill="none" viewBox="0 0 32 32">
  <path fill="#4A4A4F" d="M28 5H4a1 1 0 0 0-1 1v20a1 1 0 0 0 1 1h24a1 1 0 0 0 1-1V6a1 1 0 0 0-1-1ZM5 8a1 1 0 0 1 1-1h4a1 1 0 1 1 0 2H7v3a1 1 0 1 1-2 0V8Zm5 17H6a1 1 0 0 1-1-1v-4a1 1 0 1 1 2 0v3h3a1 1 0 0 1 0 2Zm3-6a1 1 0 0 1-2 0v-6a1 1 0 0 1 2 0v6Zm4 0a1 1 0 0 1-2 0v-6a1 1 0 0 1 2 0v6Zm3 1a1 1 0 0 1-1-1v-6a1 1 0 0 1 2 0v6a1 1 0 0 1-1 1Zm7 4a1 1 0 0 1-1 1h-4a1 1 0 0 1 0-2h3v-3a1 1 0 0 1 2 0v4Zm0-12a1 1 0 0 1-2 0V9h-3a1 1 0 1 1 0-2h4a1 1 0 0 1 1 1v4Z"/>
</svg>
