<svg xmlns="http://www.w3.org/2000/svg" width="32" height="32" fill="none" viewBox="0 0 32 32">
  <path fill="#4A4A4F" d="M16 3A13.015 13.015 0 0 0 3 16v7a3 3 0 0 0 4.772 2.42C9.293 24.316 11.95 23 16 23s6.709 1.315 8.226 2.419A3 3 0 0 0 29 23v-7A13.015 13.015 0 0 0 16 3ZM5 16a11.019 11.019 0 0 1 8.726-10.762 20.875 20.875 0 0 0-3.609 9.594A20.75 20.75 0 0 0 5 17.11V16Zm22 7a.972.972 0 0 1-.543.887 1 1 0 0 1-1.055-.086C23.645 22.525 20.587 21 16 21c-4.588 0-7.645 1.525-9.402 2.802a1 1 0 0 1-1.055.087A.972.972 0 0 1 5 23v-3.491a18.827 18.827 0 0 1 6.366-2.943 19.258 19.258 0 0 1 9.271 0A18.808 18.808 0 0 1 27 19.51V23Zm0-5.891a20.751 20.751 0 0 0-5.117-2.278 20.875 20.875 0 0 0-3.61-9.594A11.019 11.019 0 0 1 27 16v1.109Z"/>
</svg>
