<svg xmlns="http://www.w3.org/2000/svg" width="32" height="32" fill="none" viewBox="0 0 32 32">
  <path fill="#4A4A4F" d="M29.5 10.683A2 2 0 0 0 28 10h-4.546L16.75 2.341a1 1 0 0 0-1.5 0l-6.704 7.66H4a2 2 0 0 0-1.983 2.263L3.75 25.265A2 2 0 0 0 5.734 27h20.532a2 2 0 0 0 1.984-1.735l1.734-13a2 2 0 0 0-.484-1.582ZM10.2 23a.9.9 0 0 1-.101 0 1 1 0 0 1-1-.9l-.7-7a1 1 0 0 1 1.99-.2l.7 7A1 1 0 0 1 10.2 23Zm6.8-1a1 1 0 1 1-2 0v-7a1 1 0 1 1 2 0v7Zm-5.796-12L16 4.52 20.796 10h-9.592Zm12.391 5.1-.7 7a1 1 0 0 1-.994.9.9.9 0 0 1-.101 0 .998.998 0 0 1-.895-1.095l.7-7a1 1 0 0 1 1.99.2V15.1Z"/>
</svg>
