<svg xmlns="http://www.w3.org/2000/svg" width="32" height="32" fill="none" viewBox="0 0 32 32">
  <path fill="#4A4A4F" d="M24 14h-9.966a1.021 1.021 0 0 1-1.031-.934A1 1 0 0 1 14 12h5.5a.5.5 0 0 0 .5-.5v-1a.5.5 0 0 0-.5-.5h-5.466A1.021 1.021 0 0 1 13 9.066 1 1 0 0 1 14 8h5.5a.5.5 0 0 0 .5-.5V7a2 2 0 0 0-2-2H4.028a1 1 0 0 0-.961 1.357c1.382 3.606 1.094 10.464-.028 14.367A1 1 0 0 0 3 21v4a2 2 0 0 0 2 2h3.264a2 2 0 0 0 .895-.211L10.736 26h2.028l1.577.789a2 2 0 0 0 .895.211h3.528a2 2 0 0 0 .895-.211L21.236 26h2.028l1.577.789a2 2 0 0 0 .895.211H29a2 2 0 0 0 2-2v-4a7 7 0 0 0-7-7Zm5 11h-3.264l-1.577-.789a1.999 1.999 0 0 0-.895-.21h-2.028a2 2 0 0 0-.895.21l-1.577.79h-3.528l-1.577-.79a2 2 0 0 0-.895-.21h-2.028c-.31 0-.617.071-.895.21l-1.577.79H5v-3h24v3Z"/>
</svg>
