<svg xmlns="http://www.w3.org/2000/svg" width="32" height="32" fill="none" viewBox="0 0 32 32">
  <path fill="#4A4A4F" d="M28 13h-1.046a11 11 0 0 0-21.908 0H4a1 1 0 0 0-1 1 13.044 13.044 0 0 0 7 11.535V26a2 2 0 0 0 2 2h8a2 2 0 0 0 2-2v-.465A13.044 13.044 0 0 0 29 14a1 1 0 0 0-1-1Zm-6.315-5.97c.23.187.449.385.659.594a10.99 10.99 0 0 0-6.144 5.375h-3.688A9.032 9.032 0 0 1 21 7c.229 0 .457.011.685.029ZM18.515 13a8.98 8.98 0 0 1 5.159-3.696A8.931 8.931 0 0 1 24.942 13h-6.427ZM16 5c.802 0 1.601.109 2.375.321a11.045 11.045 0 0 0-7.959 7.68H7.057A9.01 9.01 0 0 1 16 5Z"/>
</svg>
