<svg xmlns="http://www.w3.org/2000/svg" width="32" height="32" fill="none" viewBox="0 0 32 32">
  <path fill="#4A4A4F" d="M29.966 26H28V12a2 2 0 0 0-2-2h-5.5a.5.5 0 0 0-.5.5V26h-2V4.05a2.053 2.053 0 0 0-.77-1.625 2 2 0 0 0-2.34-.086L4.89 9A2 2 0 0 0 4 10.667V26H2.034A1.023 1.023 0 0 0 1 26.934 1 1 0 0 0 2 28h28a1.001 1.001 0 0 0 1-1.066A1.022 1.022 0 0 0 29.966 26ZM9.5 23a1 1 0 0 1-1.066 1 1.023 1.023 0 0 1-.934-1.035v-1.931A1.024 1.024 0 0 1 8.434 20 1 1 0 0 1 9.5 21v2Zm0-7a1 1 0 0 1-1.066 1 1.024 1.024 0 0 1-.934-1.035v-1.931A1.024 1.024 0 0 1 8.434 13 1 1 0 0 1 9.5 14v2Zm5 7a.999.999 0 0 1-1.066 1 1.022 1.022 0 0 1-.934-1.033v-1.933A1.024 1.024 0 0 1 13.434 20a1 1 0 0 1 1.066 1v2Zm0-7a.999.999 0 0 1-1.066 1 1.024 1.024 0 0 1-.934-1.033v-1.933A1.024 1.024 0 0 1 13.434 13a1 1 0 0 1 1.066 1v2Z"/>
</svg>
