<svg xmlns="http://www.w3.org/2000/svg" width="32" height="32" fill="none" viewBox="0 0 32 32">
  <path fill="#4A4A4F" d="M29 10h-4.07a8 8 0 0 1-1.274 9.657c-1.065 1.087-2.451 2.115-3.981 3.064a.5.5 0 0 1-.614-.074l-4.355-4.355a1.002 1.002 0 0 0-1.436.023 1.028 1.028 0 0 0 .051 1.422l3.735 3.735a.5.5 0 0 1-.125.8c-4.964 2.577-10.306 4.295-11.083 4.538a2 2 0 0 1-2.658-2.658c.341-1.088 3.625-11.283 8.107-16.668a.5.5 0 0 1 .738-.033l5.256 5.258a1 1 0 0 0 1.464-.054 1.024 1.024 0 0 0-.075-1.388l-5.17-5.17a.501.501 0 0 1 .079-.772 8 8 0 0 1 8.41-.25V3a.999.999 0 0 1 1.067-1A1.022 1.022 0 0 1 24 3.035v3.551l3.293-3.294a1 1 0 1 1 1.415 1.415L25.413 8h3.551A1.023 1.023 0 0 1 30 8.934 1 1 0 0 1 29 10Z"/>
</svg>
