<svg xmlns="http://www.w3.org/2000/svg" width="32" height="32" fill="none" viewBox="0 0 32 32">
  <path fill="#4A4A4F" d="M18.739 1.691A1 1 0 0 0 17.788 1h-5.574a1 1 0 0 0-.951.691 56.364 56.364 0 0 0-1.777 7.463c-.907 5.531-.543 9.47 1.082 11.707A4.999 4.999 0 0 0 14 22.927V29h-2a1 1 0 0 0 0 2h6a1 1 0 0 0 0-2h-2v-6.073a4.993 4.993 0 0 0 3.433-2.066c1.625-2.237 1.99-6.176 1.082-11.707A56.37 56.37 0 0 0 18.74 1.69ZM11.725 8a52.302 52.302 0 0 1 1.224-5h4.104a53.432 53.432 0 0 1 1.225 5h-6.553ZM29 6.5a1.5 1.5 0 1 1-3 0 1.5 1.5 0 0 1 3 0Zm-6-4a1.5 1.5 0 1 1 3 0 1.5 1.5 0 0 1-3 0Zm3 10a1.5 1.5 0 1 1-3 0 1.5 1.5 0 0 1 3 0Z"/>
</svg>
