<svg xmlns="http://www.w3.org/2000/svg" width="32" height="32" fill="none" viewBox="0 0 32 32">
  <path fill="#4A4A4F" d="M16 3a13 13 0 1 0 13 13A13.013 13.013 0 0 0 16 3Zm-3.866 16.468a1 1 0 1 1-1.768-.936 5.35 5.35 0 0 0 0-5.065 1 1 0 0 1 1.768-.934 7.416 7.416 0 0 1 0 6.935Zm3.5 2a1 1 0 1 1-1.765-.94 9.634 9.634 0 0 0 0-9.06.999.999 0 0 1 1.174-1.44 1 1 0 0 1 .59.5 11.626 11.626 0 0 1 0 10.942v-.002Zm3.5 2a1 1 0 0 1-1.759-.94 13.827 13.827 0 0 0 0-13.057 1 1 0 1 1 1.765-.942 15.834 15.834 0 0 1-.006 14.942v-.003Z"/>
</svg>
