<svg xmlns="http://www.w3.org/2000/svg" width="32" height="33" fill="none" viewBox="0 0 32 33">
  <path fill="#4A4A4F" d="M8.282 11.029a1.908 1.908 0 0 1-.206-1.521 1.95 1.95 0 0 1 .25-.595L11 5.088V2a1 1 0 0 1 1.066-1A1.021 1.021 0 0 1 13 2.034v3.019l.656.822A2.989 2.989 0 0 0 16.047 7a3.084 3.084 0 0 0 2.34-1.179L19 5.053V2a1 1 0 0 1 1.066-1A1.021 1.021 0 0 1 21 2.034v3.054l2.677 3.825c.116.183.2.384.25.595a1.907 1.907 0 0 1-.22 1.544l-1.732 2.717a.5.5 0 0 1-.425.231h-11.1a.498.498 0 0 1-.421-.231l-1.733-2.717a.211.211 0 0 0-.014-.023Zm18.563 16.195a.316.316 0 0 0-.019-.043l-5.115-10.893a.5.5 0 0 0-.454-.288H10.742a.5.5 0 0 0-.453.288L5.174 27.18a2.024 2.024 0 0 0 .026 1.694A2 2 0 0 0 7 30h18a2 2 0 0 0 1.845-2.776Z"/>
</svg>
