<svg xmlns="http://www.w3.org/2000/svg" width="32" height="32" fill="none" viewBox="0 0 32 32">
  <path fill="#4A4A4F" d="M27 19a11.014 11.014 0 0 1-10.975 11c-6.333.015-11.276-5.375-11.015-11.703.151-3.65 1.464-7.567 3.654-10.852C10.937 4.036 13.679 2 16 2c1.656 0 3.529 1.04 5.292 2.875a.5.5 0 0 1 .012.68l-6.054 6.779a1 1 0 0 0 .5 1.636l3.076.769-.814 4.065A1 1 0 0 0 19 20a1 1 0 0 0 .979-.804l1-5a1 1 0 0 0-.738-1.166l-2.395-.599 4.611-5.166a.5.5 0 0 1 .787.051l.087.125C25.662 10.943 27 15.154 27 19Z"/>
</svg>
