<svg xmlns="http://www.w3.org/2000/svg" width="32" height="32" fill="none" viewBox="0 0 32 32">
  <path fill="#4A4A4F" d="M27 9h-4.385c.049-.041.099-.081.146-.125A3.691 3.691 0 0 0 24 6.196 4.08 4.08 0 0 0 19.805 2a3.69 3.69 0 0 0-2.68 1.239A6.867 6.867 0 0 0 16 5.049a6.867 6.867 0 0 0-1.125-1.81 3.69 3.69 0 0 0-2.68-1.24A4.078 4.078 0 0 0 8 6.197a3.691 3.691 0 0 0 1.239 2.679c.047.041.097.081.146.125H5a2 2 0 0 0-2 2v4a2 2 0 0 0 2 2v8a2 2 0 0 0 2 2h7.5a.5.5 0 0 0 .5-.5V15H5v-4h10v4h2v-4h10v4H17v11.5a.5.5 0 0 0 .5.5H25a2 2 0 0 0 2-2v-8a2 2 0 0 0 2-2v-4a2 2 0 0 0-2-2ZM10.564 7.375A1.71 1.71 0 0 1 10 6.125 2.076 2.076 0 0 1 12.074 4h.061a1.711 1.711 0 0 1 1.25.562c1.049 1.185 1.419 3.15 1.549 4.365-1.22-.128-3.184-.498-4.37-1.552Zm10.875 0c-1.186 1.05-3.155 1.42-4.375 1.55.148-1.314.561-3.238 1.561-4.361A1.71 1.71 0 0 1 19.875 4h.061A2.077 2.077 0 0 1 22 6.135a1.711 1.711 0 0 1-.564 1.24h.003Z"/>
</svg>
