<svg xmlns="http://www.w3.org/2000/svg" width="32" height="32" fill="none" viewBox="0 0 32 32">
  <path fill="#4A4A4F" d="M26 7a10.94 10.94 0 0 0-3.98.75c-1.79-3.713-5.406-5.558-5.571-5.641a1 1 0 0 0-.895 0c-.167.08-3.783 1.925-5.573 5.64A10.94 10.94 0 0 0 6 7a1 1 0 0 0-1 1v10a11.015 11.015 0 0 0 9.435 10.888.5.5 0 0 0 .565-.5v-6.353a1.023 1.023 0 0 1 .934-1.032 1 1 0 0 1 1.066 1v6.393a.5.5 0 0 0 .565.5A11.015 11.015 0 0 0 27 18V8a1 1 0 0 0-1-1ZM15 18.682a11 11 0 0 0-8-4.636V9.055A9.012 9.012 0 0 1 15 18v.682Zm1-5.262a11.076 11.076 0 0 0-4.23-4.781c1.151-2.402 3.3-3.917 4.23-4.488.931.573 3.079 2.088 4.23 4.488a11.076 11.076 0 0 0-4.23 4.78Zm9 .625a11 11 0 0 0-8 4.636V18a9.013 9.013 0 0 1 8-8.945v4.99Z"/>
</svg>
