<svg xmlns="http://www.w3.org/2000/svg" width="32" height="32" fill="none" viewBox="0 0 32 32">
  <path fill="#4A4A4F" d="M6.74 4.328a1 1 0 1 0-1.48 1.345L6.476 7.01A10.064 10.064 0 0 0 6 7.001a1 1 0 0 0-1 1v10a11 11 0 0 0 18.651 7.902l1.609 1.77a1 1 0 1 0 1.48-1.345l-20-22ZM16 20.42a11.02 11.02 0 0 0-9-6.375v-4.99c.559.061 1.11.177 1.647.343l8.389 9.226A11.019 11.019 0 0 0 16 20.421ZM27 8v10c0 .987-.132 1.971-.394 2.924a1 1 0 0 1-1.704.408l-4.165-4.583a1 1 0 0 1 .288-1.564A10.832 10.832 0 0 1 25 14.044V9.056a9.041 9.041 0 0 0-6.294 3.67 1.003 1.003 0 0 1-1.625-1.173 11.018 11.018 0 0 1 3.145-2.913C19.077 6.225 16.931 4.718 16 4.15a12.474 12.474 0 0 0-2.925 2.493 1 1 0 0 1-1.526-1.292 14.041 14.041 0 0 1 4-3.25 1 1 0 0 1 .895 0c.165.083 3.783 1.93 5.573 5.644C23.287 7.252 24.637 7 26 7a1 1 0 0 1 1 1Z"/>
</svg>
