<svg xmlns="http://www.w3.org/2000/svg" width="32" height="32" fill="none" viewBox="0 0 32 32">
  <path fill="#4A4A4F" d="M11 21.522V25a2 2 0 0 1-2 2H5a2 2 0 0 1-2-2v-5.5a.5.5 0 0 1 .5-.5H4a11.909 11.909 0 0 1 6.783 2.11.49.49 0 0 1 .217.412Zm17.875-1L22.5 19.087 8.707 5.292a1 1 0 0 0-1.056-.23 1.03 1.03 0 0 0-.401.28C4.508 8.343 3 12.124 3 16v.5a.5.5 0 0 0 .5.5H4a13.882 13.882 0 0 1 7.912 2.46 14.056 14.056 0 0 1 5.07 6.299 1.987 1.987 0 0 0 1.858 1.24H30a2 2 0 0 0 2-2v-.59a3.965 3.965 0 0 0-3.125-3.885v-.002Z"/>
</svg>
