<svg xmlns="http://www.w3.org/2000/svg" width="32" height="32" fill="none" viewBox="0 0 32 32">
  <path fill="#4A4A4F" d="m6.68 5.438.085-.688A2 2 0 0 1 8.75 3h14.5a2 2 0 0 1 1.985 1.75l.085.686a.5.5 0 0 1-.5.563H7.176a.5.5 0 0 1-.496-.561ZM21.125 8A4.008 4.008 0 0 0 25 11h.449a.498.498 0 0 0 .5-.563l-.25-2a.5.5 0 0 0-.5-.437h-4.074ZM6.55 11H7a4.007 4.007 0 0 0 3.875-3H6.8a.5.5 0 0 0-.5.438l-.25 2a.5.5 0 0 0 .5.562Zm21.434 15.75L26.32 13.437a.5.5 0 0 0-.5-.437H25a6.009 6.009 0 0 1-5.915-5H17v4.966a1.023 1.023 0 0 1-.934 1.032 1.001 1.001 0 0 1-1.066-1V8h-2.085A6.009 6.009 0 0 1 7 13h-.824a.5.5 0 0 0-.5.438L4.015 26.75a2 2 0 0 0 .839 1.886A2.07 2.07 0 0 0 6.049 29h5.037a2 2 0 0 0 1.939-1.508L16 15.992l2.974 11.493A2 2 0 0 0 20.914 29h5.037c.426.006.843-.12 1.195-.361a2 2 0 0 0 .839-1.889Z"/>
</svg>
