<svg xmlns="http://www.w3.org/2000/svg" width="32" height="32" fill="none" viewBox="0 0 32 32">
  <path fill="#4A4A4F" d="M28.25 11.01a10.991 10.991 0 0 0-3.927-5H27a1 1 0 1 0 0-2H14A11.015 11.015 0 0 0 3.035 14.135 4 4 0 0 0 0 18a1 1 0 0 0 2 0 2 2 0 0 1 1.071-1.77 10.961 10.961 0 0 0 2.679 6.047l1.57 4.395A2 2 0 0 0 9.205 28h1.59a2 2 0 0 0 1.884-1.328l.24-.672h7.162l.24.672A2 2 0 0 0 22.205 28h1.59a2 2 0 0 0 1.884-1.328L27.705 21H28a3 3 0 0 0 3-3v-4a3 3 0 0 0-2.75-2.99ZM19 9h-5a1 1 0 1 1 0-2h5a1 1 0 1 1 0 2Zm3.5 7a1.5 1.5 0 1 1 0-3 1.5 1.5 0 0 1 0 3Z"/>
</svg>
