<svg xmlns="http://www.w3.org/2000/svg" width="32" height="32" fill="none" viewBox="0 0 32 32">
  <path fill="#4A4A4F" d="M28.69 9.276a1 1 0 0 0-.891-.25A5.5 5.5 0 0 0 21 5.21a5.5 5.5 0 0 0-10 0 5.5 5.5 0 0 0-6.8 3.813 1 1 0 0 0-1.175 1.207l3.82 16.23A2 2 0 0 0 8.793 28h14.415a2 2 0 0 0 1.947-1.541l3.819-16.23a1 1 0 0 0-.284-.953ZM8.793 26l-3.43-14.57 4.732 1.351L11.858 26H8.793Zm6.465-16.78-4.312 1.725-4.82-1.378a3.5 3.5 0 0 1 5.012-2.16 1 1 0 0 0 1.445-.667 3.5 3.5 0 0 1 6.832 0 1 1 0 0 0 1.445.667 3.5 3.5 0 0 1 5.015 2.16l-4.82 1.376-4.311-1.726a2 2 0 0 0-1.486.003ZM23.208 26h-3.066l1.763-13.219 4.731-1.351L23.208 26Z"/>
</svg>
