<svg xmlns="http://www.w3.org/2000/svg" width="32" height="32" fill="none" viewBox="0 0 32 32">
  <path fill="#4A4A4F" d="M25 18h-9.588l2.802-2.801a7.443 7.443 0 0 0 3.262.795 6.194 6.194 0 0 0 3.236-.903c2.965-1.795 4.554-5.95 4.25-11.115a1 1 0 0 0-.94-.94c-5.165-.303-9.32 1.285-11.116 4.25-1.169 1.932-1.199 4.264-.107 6.5l-1.8 1.8-1.525-1.527c.75-1.656.696-3.375-.174-4.81C11.94 7 8.826 5.8 4.966 6.028a1 1 0 0 0-.939.938C3.8 10.826 5 13.94 7.25 15.3c.753.46 1.618.702 2.5.7.8-.008 1.59-.186 2.315-.524L13.586 17l-1 1H7a1 1 0 0 0 0 2h1.199l1.65 7.434A1.986 1.986 0 0 0 11.803 29H20.2a1.989 1.989 0 0 0 1.952-1.566L23.802 20H25a1 1 0 0 0 0-2Z"/>
</svg>
