<svg xmlns="http://www.w3.org/2000/svg" width="32" height="32" fill="none" viewBox="0 0 32 32">
  <path fill="#4A4A4F" d="M32 25.051A1.988 1.988 0 0 1 30 27H18.414a1.991 1.991 0 0 1-1.408-.579L3.597 13.427l-.01-.011a2 2 0 0 1 0-2.828l8-8.014.018-.018a1.989 1.989 0 0 1 2.794.034l1.026 1.035a2 2 0 0 1 .582 1.317c.142 2.854 2.114 4.783 5.15 5.033A2.016 2.016 0 0 1 23 11.962V13.5a.5.5 0 0 1-.5.5H19a.999.999 0 0 0-1 1.066 1.023 1.023 0 0 0 1.031.934h3.5a.5.5 0 0 1 .5.444c.033.304.102.604.205.892a.499.499 0 0 1-.471.663H20a1 1 0 0 0-1 1.066 1.021 1.021 0 0 0 1.031.933H27a5 5 0 0 1 5 5.053ZM9 22a1 1 0 0 0-1-1H4a1 1 0 1 0 0 2h4a1 1 0 0 0 1-1Zm3 3H6a1 1 0 1 0 0 2h6a1 1 0 0 0 0-2Z"/>
</svg>
