<svg xmlns="http://www.w3.org/2000/svg" width="32" height="32" fill="none" viewBox="0 0 32 32">
  <path fill="#4A4A4F" d="M29 12a.987.987 0 0 0-.038-.275L27.17 5.45A2.009 2.009 0 0 0 25.25 4H6.75a2.009 2.009 0 0 0-1.919 1.45L3.04 11.725A.987.987 0 0 0 3 12v2a5 5 0 0 0 2 4v8a2 2 0 0 0 2 2h18a2 2 0 0 0 2-2v-8a5 5 0 0 0 2-4v-2Zm-18 2a3 3 0 0 1-4.39 2.657.987.987 0 0 0-.228-.132A3 3 0 0 1 5 14v-1h6v1Zm8 0a3 3 0 0 1-6 0v-1h6v1Zm8 0a3 3 0 0 1-1.384 2.525c-.08.034-.156.078-.225.131A3 3 0 0 1 21 14v-1h6v1Z"/>
</svg>
