<svg xmlns="http://www.w3.org/2000/svg" width="32" height="32" fill="none" viewBox="0 0 32 32">
  <path fill="#4A4A4F" d="m30.949 7.652-6.47-3.527A1 1 0 0 0 24 4h-4a1 1 0 0 0-1 1 3 3 0 1 1-6 0 1 1 0 0 0-1-1H8a1 1 0 0 0-.48.125L1.051 7.652a1.97 1.97 0 0 0-.823 2.658l2.408 4.601A2.047 2.047 0 0 0 4.46 16H7v10a2 2 0 0 0 2 2h14a2 2 0 0 0 2-2V16h2.543a2.047 2.047 0 0 0 1.822-1.089l2.409-4.601a1.97 1.97 0 0 0-.825-2.658ZM4.459 14a.078.078 0 0 1-.051-.016L2.01 9.408 7 6.685V14H4.458Zm23.134-.018a.069.069 0 0 1-.052.018h-2.54V6.685l4.99 2.723-2.398 4.575Z"/>
</svg>
