<svg xmlns="http://www.w3.org/2000/svg" width="32" height="32" fill="none" viewBox="0 0 32 32">
  <path fill="#4A4A4F" d="m25.666 11.959-2.721-9.242A1 1 0 0 0 21.986 2H10.014a1 1 0 0 0-.96.717l-2.72 9.242a7.933 7.933 0 0 0 2.177 8.084A10.927 10.927 0 0 0 15 22.953V28h-4a1 1 0 0 0 0 2h10a1 1 0 0 0 0-2h-4v-5.046a10.924 10.924 0 0 0 6.489-2.912 7.935 7.935 0 0 0 2.177-8.083ZM10.761 4H21.24l2.51 8.524c.012.037.022.075.032.112-2.677.96-5.692-.2-7.329-1.028-3.148-1.594-5.648-1.797-7.492-1.492L10.76 4Z"/>
</svg>
