<svg xmlns="http://www.w3.org/2000/svg" width="32" height="32" fill="none" viewBox="0 0 32 32">
  <path fill="#4A4A4F" d="M28.985 21.885A7.033 7.033 0 0 1 22 28c-9.925 0-18-8.075-18-18a7.032 7.032 0 0 1 6.115-6.985 2 2 0 0 1 2.078 1.19l2.64 5.894v.015a2 2 0 0 1-.16 1.886 1.37 1.37 0 0 1-.07.097L12 15.181c.936 1.902 2.926 3.874 4.854 4.813l3.042-2.588a1 1 0 0 1 .094-.07 2 2 0 0 1 1.898-.175l.014.007 5.888 2.639a2 2 0 0 1 1.195 2.077ZM19 10h3v3a1 1 0 1 0 2 0v-3h3a1 1 0 1 0 0-2h-3V5a1 1 0 1 0-2 0v3h-3a1 1 0 1 0 0 2Z"/>
</svg>
