<svg xmlns="http://www.w3.org/2000/svg" width="32" height="32" fill="none" viewBox="0 0 32 32">
  <path fill="#4A4A4F" d="M25.192 6.808A13 13 0 1 0 6.807 25.193 13 13 0 0 0 25.192 6.808ZM23.78 8.223a11.07 11.07 0 0 1 1.375 1.685l-4.21 4.967-3.49-9.777a10.918 10.918 0 0 1 6.325 3.125Zm-4.33 8.402-2.27 2.671-3.45-.625-1.178-3.296 2.27-2.671 3.449.625 1.179 3.296ZM8.22 8.223a10.917 10.917 0 0 1 7.083-3.2l2.188 6.126L7.287 9.29c.288-.375.6-.732.934-1.067Zm-2.39 11.97a11.052 11.052 0 0 1 .316-9.078l6.402 1.169-6.718 7.909Zm2.39 3.585a11.026 11.026 0 0 1-1.375-1.685l4.21-4.968 3.49 9.773a10.918 10.918 0 0 1-6.325-3.12Zm15.558 0a10.918 10.918 0 0 1-7.083 3.198l-2.189-6.125 10.205 1.864c-.288.374-.6.729-.933 1.063Zm-4.328-4.062 6.718-7.908a11.05 11.05 0 0 1-.317 9.077l-6.4-1.169Z"/>
</svg>
