<svg xmlns="http://www.w3.org/2000/svg" width="32" height="32" fill="none" viewBox="0 0 32 32">
  <path fill="#4A4A4F" d="M10 12a1 1 0 0 1-1 1H3a1 1 0 0 1 0-2h6a1 1 0 0 1 1 1Zm-1 3H3a1 1 0 0 0 0 2h6a1 1 0 0 0 0-2Zm0 4H3a1 1 0 0 0 0 2h6a1 1 0 0 0 0-2Zm0 4H3a1 1 0 0 0 0 2h6a1 1 0 0 0 0-2Zm10-8h-6a1 1 0 0 0 0 2h6a1 1 0 0 0 0-2Zm0 4h-6a1 1 0 0 0 0 2h6a1 1 0 0 0 0-2Zm0 4h-6a1 1 0 0 0 0 2h6a1 1 0 0 0 0-2Zm10-12h-6a1 1 0 0 0 0 2h6a1 1 0 0 0 0-2Zm-6-2h6a1 1 0 1 0 0-2h-6a1 1 0 1 0 0 2Zm6 6h-6a1 1 0 0 0 0 2h6a1 1 0 0 0 0-2Zm0 4h-6a1 1 0 0 0 0 2h6a1 1 0 0 0 0-2Zm0 4h-6a1 1 0 0 0 0 2h6a1 1 0 0 0 0-2Z"/>
</svg>
