<svg xmlns="http://www.w3.org/2000/svg" width="32" height="32" fill="none" viewBox="0 0 32 32">
  <path fill="#4A4A4F" d="M21 2a9.009 9.009 0 0 0-8.921 10.178l-8.69 11.85a1.991 1.991 0 0 0 .2 2.597l1.786 1.786a1.99 1.99 0 0 0 2.597.199l11.852-8.691c.39.052.782.08 1.176.081a9 9 0 0 0 0-18Zm7 9a6.965 6.965 0 0 1-1.395 4.19L16.81 5.395A7 7 0 0 1 28 11ZM6.79 27 5 25.21l7.767-10.585a9.046 9.046 0 0 0 4.608 4.608L6.79 27ZM14 11a6.959 6.959 0 0 1 1.395-4.189l9.792 9.793A7 7 0 0 1 14 11Zm-.294 7.293a1 1 0 0 1 0 1.413l-1 1a.999.999 0 0 1-1.641-1.089.999.999 0 0 1 .227-.325l1-1a1 1 0 0 1 1.417 0h-.003Z"/>
</svg>
