<svg xmlns="http://www.w3.org/2000/svg" width="32" height="32" fill="none" viewBox="0 0 32 32">
  <path fill="#4A4A4F" d="M29.707 22.293a1 1 0 0 1 0 1.415l-3 3a1 1 0 0 1-1.415-1.415L26.587 24h-1.468a9.015 9.015 0 0 1-7.324-3.769l-5.215-7.3a7.012 7.012 0 0 0-5.697-2.93H4a1 1 0 0 1 0-2h2.883a9.015 9.015 0 0 1 7.323 3.768l5.215 7.3A7.012 7.012 0 0 0 25.118 22h1.468l-1.293-1.292a1.001 1.001 0 0 1 1.415-1.415l3 3Zm-11.832-8.918a1.002 1.002 0 0 0 1.395-.232l.15-.21A7.013 7.013 0 0 1 25.117 10h1.47l-1.294 1.293a1 1 0 1 0 1.415 1.415l3-3a1 1 0 0 0 0-1.415l-3-3a1 1 0 1 0-1.415 1.415L26.585 8h-1.468a9.015 9.015 0 0 0-7.324 3.769l-.15.209a1 1 0 0 0 .231 1.397Zm-3.75 5.25a.998.998 0 0 0-1.395.233l-.15.208A7.012 7.012 0 0 1 6.883 22H4a1 1 0 1 0 0 2h2.883a9.015 9.015 0 0 0 7.323-3.769l.15-.208a1 1 0 0 0-.231-1.398Z"/>
</svg>
