<svg xmlns="http://www.w3.org/2000/svg" width="32" height="32" fill="none" viewBox="0 0 32 32">
  <path fill="#4A4A4F" d="M8 13.125V5a1 1 0 0 0-2 0v8.125a4 4 0 0 0 0 7.75V27a1 1 0 1 0 2 0v-6.125a4 4 0 0 0 0-7.75ZM7 19a2 2 0 1 1 0-4 2 2 0 0 1 0 4ZM17 7.125V5a1 1 0 1 0-2 0v2.125a4 4 0 0 0 0 7.75V27a1 1 0 0 0 2 0V14.875a4 4 0 0 0 0-7.75ZM16 13a2 2 0 1 1 0-4 2 2 0 0 1 0 4Zm13 8a4.008 4.008 0 0 0-3-3.875V5a1 1 0 1 0-2 0v12.125a4 4 0 0 0 0 7.75V27a1 1 0 0 0 2 0v-2.125A4.007 4.007 0 0 0 29 21Zm-4 2a2 2 0 1 1 0-4 2 2 0 0 1 0 4Z"/>
</svg>
