<svg xmlns="http://www.w3.org/2000/svg" width="32" height="32" fill="none" viewBox="0 0 32 32">
  <path fill="#4A4A4F" d="M31.471 9.125a1 1 0 0 0-1.026.049L26 12.13V9a2 2 0 0 0-2-2h-9.867a1 1 0 1 0 0 2H24v10.953a1 1 0 1 0 2 0v-.079l4.445 2.964A1 1 0 0 0 31 23a1 1 0 0 0 1-1V10a1 1 0 0 0-.529-.875ZM30 20.131l-4-2.666v-2.93l4-2.66v8.256ZM6.74 4.328a1 1 0 1 0-1.48 1.345L6.466 7H4a2 2 0 0 0-2 2v14a2 2 0 0 0 2 2h18.83l2.43 2.673a.998.998 0 0 0 1.42.076 1 1 0 0 0 .06-1.421l-20-22ZM4 23V9h4.285l12.727 14H4Z"/>
</svg>
