<svg xmlns="http://www.w3.org/2000/svg" width="32" height="32" fill="none" viewBox="0 0 32 32">
  <path fill="#4A4A4F" d="M22 27a1 1 0 0 1-1 1H3a1 1 0 1 1 0-2h18a1 1 0 0 1 1 1Zm8.789-16.155-2.33-2.986-.015-.019a4.978 4.978 0 0 0-6.41-1.14l-6.446 3.848-6.743-2.48a1 1 0 0 0-.699 0l-.896.341-.04.016a2 2 0 0 0-.566 3.309l2.731 2.649-2.521 1.525-3.533-1.193a1 1 0 0 0-.76.05l-.375.184a2 2 0 0 0-.56 3.276l4.5 4.409.014.015a4.972 4.972 0 0 0 5.943.669l18.426-11a.999.999 0 0 0 .276-1.473h.004Z"/>
</svg>
