<svg xmlns="http://www.w3.org/2000/svg" width="32" height="32" fill="none" viewBox="0 0 32 32">
  <path fill="#4A4A4F" d="M27.633 13.829 26 13.284V7a2 2 0 0 0-2-2h-7V3a1 1 0 0 0-2 0v2H8a2 2 0 0 0-2 2v6.284l-1.633.545A2 2 0 0 0 3 15.727v4.285c0 .093.013.185.039.274 1.965 6.886 10.765 9.258 12.508 9.663.298.068.608.068.905 0 1.744-.405 10.544-2.777 12.51-9.663a.968.968 0 0 0 .038-.274v-4.285a2 2 0 0 0-1.367-1.898ZM17 21a1 1 0 0 1-2 0v-7a1 1 0 0 1 2 0v7Zm7-8.384-7.684-2.565a1 1 0 0 0-.632 0L8 12.616V7h16v5.616Z"/>
</svg>
