<svg xmlns="http://www.w3.org/2000/svg" width="32" height="32" fill="none" viewBox="0 0 32 32">
  <path fill="#4A4A4F" d="M12 17H8v3a1 1 0 0 1-1.708.707l-4-4a1.001 1.001 0 0 1 0-1.415l4-4A1 1 0 0 1 8 12v3h4a1 1 0 0 1 0 2Zm0-9h3v4a1 1 0 0 0 2 0V8h3a1 1 0 0 0 .707-1.708l-4-4a1.001 1.001 0 0 0-1.415 0l-4 4A1 1 0 0 0 12 8Zm17.707 7.292-4-4A1 1 0 0 0 24 12v3h-4a1 1 0 0 0 0 2h4v3a1 1 0 0 0 1.707.707l4-4a1.002 1.002 0 0 0 0-1.415ZM20 24h-3v-4a1 1 0 1 0-2 0v4h-3a1 1 0 0 0-.708 1.707l4 4a1.001 1.001 0 0 0 1.415 0l4-4A1 1 0 0 0 20 24Z"/>
</svg>
