<svg xmlns="http://www.w3.org/2000/svg" width="32" height="32" fill="none" viewBox="0 0 32 32">
  <path fill="#4A4A4F" d="m12.707 16.707-4 4A1 1 0 0 1 7 20v-3H3a1 1 0 0 1 0-2h4v-3a1 1 0 0 1 1.707-.707l4 4a1.001 1.001 0 0 1 0 1.415Zm2.585-4a1.001 1.001 0 0 0 1.415 0l4-4A1 1 0 0 0 20 7h-3V3a1 1 0 0 0-2 0v4h-3a1 1 0 0 0-.707 1.707l4 4Zm1.415 6.585a1.001 1.001 0 0 0-1.415 0l-4 4A1 1 0 0 0 12 25h3v4a1 1 0 0 0 2 0v-4h3a1 1 0 0 0 .707-1.707l-4-4ZM29 15h-4v-3a1 1 0 0 0-1.707-.707l-4 4a1.001 1.001 0 0 0 0 1.415l4 4A1 1 0 0 0 25 20v-3h4a1 1 0 0 0 0-2Z"/>
</svg>
