<svg xmlns="http://www.w3.org/2000/svg" width="32" height="32" fill="none" viewBox="0 0 32 32">
  <path fill="#4A4A4F" d="M13.707 18.293a1.001 1.001 0 0 1 0 1.415L10.415 23l2.293 2.293A1 1 0 0 1 12 27H6a1 1 0 0 1-1-1v-6a1 1 0 0 1 1.707-.707L9 21.585l3.293-3.293a1.001 1.001 0 0 1 1.415 0ZM10.415 9l2.293-2.293A1 1 0 0 0 12 5H6a1 1 0 0 0-1 1v6a1 1 0 0 0 1.707.707L9 10.415l3.293 3.293a1 1 0 1 0 1.415-1.415L10.413 9ZM26 5h-6a1 1 0 0 0-.707 1.707L21.585 9l-3.293 3.293a1 1 0 1 0 1.415 1.415L23 10.413l2.293 2.293A1 1 0 0 0 27 12V6a1 1 0 0 0-1-1Zm.383 14.076a1 1 0 0 0-1.09.216L23 21.587l-3.293-3.293a1 1 0 1 0-1.415 1.415L21.587 23l-2.293 2.293A1 1 0 0 0 20 27h6a1 1 0 0 0 1-1v-6a1 1 0 0 0-.617-.924Z"/>
</svg>
