<svg xmlns="http://www.w3.org/2000/svg" width="32" height="32" fill="none" viewBox="0 0 32 32">
  <path fill="#4A4A4F" d="M25 10v18a1 1 0 0 1-2 0V11H8.414l4.294 4.293a1 1 0 0 1-1.415 1.415l-6-6-.008-.01a.983.983 0 0 1-.059-.064l-.028-.039a.464.464 0 0 1-.03-.04l-.028-.046a.553.553 0 0 1-.045-.085l-.019-.041c-.006-.015-.01-.032-.017-.047l-.016-.045-.012-.048c0-.017-.008-.032-.012-.047s0-.038-.008-.057c-.007-.019 0-.026-.006-.04a1.042 1.042 0 0 1 0-.198c0-.013 0-.026.006-.04.007-.013 0-.038.008-.057.007-.019.007-.03.012-.046l.012-.05.016-.044.017-.046.02-.042a.56.56 0 0 1 .044-.085l.029-.046a.46.46 0 0 1 .029-.04l.028-.039a.983.983 0 0 1 .06-.065l.007-.008 6-6a1 1 0 1 1 1.415 1.415L8.414 9H24a1 1 0 0 1 1 1Z"/>
</svg>
