<svg xmlns="http://www.w3.org/2000/svg" width="32" height="32" fill="none" viewBox="0 0 32 32">
  <path fill="#4A4A4F" d="M11.292 7.707a.999.999 0 0 1 0-1.415l4-4a1 1 0 0 1 1.415 0l4 4a1 1 0 1 1-1.415 1.415L17 5.414V12a1 1 0 1 1-2 0V5.414l-2.293 2.293a1.001 1.001 0 0 1-1.415 0Zm8 16.585L17 26.586V20a1 1 0 1 0-2 0v6.586l-2.293-2.294a1 1 0 0 0-1.415 1.415l4 4a1.001 1.001 0 0 0 1.415 0l4-4a1 1 0 1 0-1.415-1.415Zm10.415-9-4-4a1 1 0 0 0-1.415 1.415L26.586 15H20a1 1 0 0 0 0 2h6.586l-2.294 2.292a1 1 0 0 0 1.415 1.415l4-4a1.002 1.002 0 0 0 0-1.415ZM5.414 17H12a1 1 0 1 0 0-2H5.414l2.293-2.293a1 1 0 1 0-1.415-1.415l-4 4a1 1 0 0 0 0 1.415l4 4a1 1 0 1 0 1.415-1.415L5.414 17Z"/>
</svg>
