<svg xmlns="http://www.w3.org/2000/svg" width="32" height="32" fill="none" viewBox="0 0 32 32">
  <path fill="#4A4A4F" d="M25.193 6.808A13 13 0 1 0 6.808 25.193 13 13 0 0 0 25.193 6.808Zm-1.414 16.97a11 11 0 1 1 0-15.557 11.014 11.014 0 0 1 0 15.558Zm-3.071-13.485a1 1 0 0 1 0 1.415l-4 4a1.001 1.001 0 0 1-1.415 0l-4-4a1 1 0 1 1 1.415-1.415L16 13.586l3.293-3.293a.998.998 0 0 1 1.415 0Zm0 7a1 1 0 0 1 0 1.415l-4 4a1.001 1.001 0 0 1-1.415 0l-4-4a1 1 0 1 1 1.415-1.415L16 20.586l3.293-3.293a.998.998 0 0 1 1.415 0Z"/>
</svg>
