<svg xmlns="http://www.w3.org/2000/svg" width="32" height="32" fill="none" viewBox="0 0 32 32">
  <path fill="#4A4A4F" d="M22 8.5a1.5 1.5 0 1 1-3 0 1.5 1.5 0 0 1 3 0Zm-6.36 7.731a1 1 0 0 0-1.409.125l-5 6a1 1 0 0 0 1.538 1.28l5-6a1 1 0 0 0-.13-1.405ZM30 10a1 1 0 0 1-.445.832L27 12.535V15a13.014 13.014 0 0 1-13 13H1a1 1 0 0 1-.781-1.625l11.78-14.726v-2.15a7.5 7.5 0 0 1 14.652-2.267l2.904 1.935A1 1 0 0 1 30 10Zm-2.803 0-1.96-1.308a1 1 0 0 1-.413-.58A5.5 5.5 0 0 0 14 9.5V12a1 1 0 0 1-.219.625L3.08 26H14a11.013 11.013 0 0 0 11-11v-3a1 1 0 0 1 .445-.833L27.197 10Z"/>
</svg>
