<svg xmlns="http://www.w3.org/2000/svg" width="34" height="32" fill="none" viewBox="0 0 34 32">
  <path fill="#4A4A4F" d="M26 8v16a2 2 0 0 1-2 2h-2a2 2 0 0 1-2-2v-7h-6v7a2 2 0 0 1-2 2h-2a2 2 0 0 1-2-2V8a2 2 0 0 1 2-2h2a2 2 0 0 1 2 2v7h6V8a2 2 0 0 1 2-2h2a2 2 0 0 1 2 2ZM5.5 9H5a2 2 0 0 0-2 2v4h-.966A1.023 1.023 0 0 0 1 15.934 1 1 0 0 0 2 17h1v4a2 2 0 0 0 2 2h.5a.5.5 0 0 0 .5-.5v-13a.5.5 0 0 0-.5-.5ZM33 15.934A1.022 1.022 0 0 0 31.97 15H31v-4a2 2 0 0 0-2-2h-.5a.5.5 0 0 0-.5.5v13a.5.5 0 0 0 .5.5h.5a2 2 0 0 0 2-2v-4h1a1.001 1.001 0 0 0 1-1.066Z"/>
</svg>
