<svg xmlns="http://www.w3.org/2000/svg" width="32" height="32" fill="none" viewBox="0 0 32 32">
  <path fill="#4A4A4F" d="M25 25.563V29a1 1 0 1 1-2 0v-3.437a7.96 7.96 0 0 0-4.422-7.156l-6.05-3.024A9.947 9.947 0 0 1 7 6.438V3a1 1 0 0 1 2 0v3.438a7.958 7.958 0 0 0 4.423 7.156l6.05 3.024A9.948 9.948 0 0 1 25 25.563ZM20.398 24H10.375a.999.999 0 0 1-1-1.066A1.024 1.024 0 0 1 10.406 22h8.307a.5.5 0 0 0 .343-.862 6.034 6.034 0 0 0-1.375-.942l-5.556-2.782a1 1 0 0 0-1.039.089A10.034 10.034 0 0 0 7 25.563v3.404A1.023 1.023 0 0 0 7.934 30 1 1 0 0 0 9 29v-2h11a1 1 0 0 0 1-1v-.437c0-.391-.038-.781-.112-1.165a.5.5 0 0 0-.49-.398Zm3.536-22A1.023 1.023 0 0 0 23 3.034V5H12a1 1 0 0 0-1 1v.438c0 .39.038.78.113 1.165a.5.5 0 0 0 .49.397h9.99a1.024 1.024 0 0 1 1.032.934 1 1 0 0 1-1 1.066h-8.337a.5.5 0 0 0-.344.863c.412.376.875.692 1.375.941l5.556 2.782a.991.991 0 0 0 1.039-.09A10.034 10.034 0 0 0 25 6.438V3a1 1 0 0 0-1.066-1Z"/>
</svg>
