<svg xmlns="http://www.w3.org/2000/svg" width="32" height="32" fill="none" viewBox="0 0 32 32">
  <path fill="#4A4A4F" d="M28.791 17.633a3.043 3.043 0 0 0-2.326-.597C28.813 14.666 30 12.31 30 10c0-3.309-2.661-6-5.933-6A5.947 5.947 0 0 0 19.5 6.094 5.947 5.947 0 0 0 14.932 4C11.662 4 9 6.691 9 10c0 1.375.405 2.711 1.258 4.125a3.984 3.984 0 0 0-1.844 1.05L5.586 18H2a2 2 0 0 0-2 2v5a2 2 0 0 0 2 2h13c.082 0 .163-.01.242-.03l8-2a.868.868 0 0 0 .15-.05l4.858-2.067.055-.025a3.074 3.074 0 0 0 .491-5.195h-.005Zm-1.362 3.393-4.75 2.023L14.875 25H7v-5.586l2.829-2.828A1.983 1.983 0 0 1 11.242 16H17.5a1.5 1.5 0 0 1 0 3H14a1 1 0 0 0 0 2h4c.075 0 .15-.009.224-.025l8.375-1.926.038-.01a1.075 1.075 0 0 1 .788 1.987h.004Z"/>
</svg>
