<svg xmlns="http://www.w3.org/2000/svg" width="32" height="32" fill="none" viewBox="0 0 32 32">
  <path fill="#4A4A4F" d="M23 15a1 1 0 0 1-1 1h-2a1 1 0 0 1 0-2h2a1 1 0 0 1 1 1Zm7 0v11a2 2 0 0 1-2 2H14a2 2 0 0 1-2-2v-2.706C10.921 25.046 9.523 26 8 26c-1.734 0-3.308-1.236-4.43-3.481C2.558 20.5 2 17.824 2 15s.558-5.494 1.57-7.519C4.693 5.236 6.266 4 8 4h16c1.734 0 3.308 1.236 4.43 3.481C29.442 9.506 30 12.176 30 15ZM9.5 15a1.5 1.5 0 1 0-3 0 1.5 1.5 0 0 0 3 0ZM28 16h-2a1 1 0 0 1 0-2h1.974C27.73 9.238 25.77 6 24 6H11.515c.351.464.657.96.915 1.481.893 1.785 1.43 4.07 1.546 6.519H16a1 1 0 0 1 0 2h-2v10h14V16Z"/>
</svg>
