<svg xmlns="http://www.w3.org/2000/svg" width="32" height="32" fill="none" viewBox="0 0 32 32">
  <path fill="#4A4A4F" d="M25 10h-2V8a4 4 0 0 0-7-2.641 4 4 0 0 0-6.974 2.193A4 4 0 0 0 3 11v5a13 13 0 0 0 26 0v-2a4 4 0 0 0-4-4Zm-6-4a2 2 0 0 1 2 2v2h-4V8a2 2 0 0 1 2-2Zm-8 2a2 2 0 1 1 4 0v5a2 2 0 0 1-4 0V8Zm-6 3a2 2 0 0 1 4 0v2a2 2 0 0 1-4 0v-2Zm22 5a11 11 0 0 1-21.99.469A3.991 3.991 0 0 0 10 15.64a3.991 3.991 0 0 0 5.572.419c.36.596.869 1.089 1.476 1.43A5.985 5.985 0 0 0 15 22a1 1 0 0 0 2 0 4 4 0 0 1 4-4 1 1 0 0 0 0-2h-2a2 2 0 0 1-2-2v-2h8a2 2 0 0 1 2 2v2Z"/>
</svg>
