<svg xmlns="http://www.w3.org/2000/svg" width="32" height="32" fill="none" viewBox="0 0 32 32">
  <path fill="#4A4A4F" d="M25 14a1 1 0 0 1-1 1h-5a1 1 0 0 1 0-2h5a1 1 0 0 1 1 1Zm-1 3h-5a1 1 0 0 0 0 2h5a1 1 0 0 0 0-2Zm5-10v18a2 2 0 0 1-2 2H5a2 2 0 0 1-2-2V7a2 2 0 0 1 2-2h22a2 2 0 0 1 2 2Zm-2 18V7H5v18h22Zm-10.032-4.25a1 1 0 0 1-1.938.5c-.329-1.282-1.632-2.25-3.031-2.25-1.399 0-2.702.968-3.032 2.25a1 1 0 0 1-1.937-.5 4.98 4.98 0 0 1 2.149-2.918 4 4 0 1 1 5.64 0 4.97 4.97 0 0 1 2.15 2.918h-.002ZM12 17a2 2 0 1 0 0-4 2 2 0 0 0 0 4Z"/>
</svg>
