<svg xmlns="http://www.w3.org/2000/svg" width="32" height="32" fill="none" viewBox="0 0 32 32">
  <path fill="#4A4A4F" d="M16 11a4 4 0 1 0 0-8 4 4 0 0 0 0 8Zm0-6a2 2 0 1 1 0 4 2 2 0 0 1 0-4ZM6 12a2 2 0 1 1 4 0 2 2 0 0 1-4 0Zm21.78 1.826a1 1 0 0 1-1.405.158c-.144-.111-2.964-2.213-7.415.076a26.863 26.863 0 0 1-.375 3.794l4.054 3.375a1 1 0 0 1 .308 1.085l-2 6a1 1 0 0 1-1.897-.633l1.784-5.352-2.76-2.3c-.18.608-.393 1.206-.638 1.791-1.719 4.093-4.797 6.829-9.15 8.135a1 1 0 0 1-.575-1.915c7.585-2.276 8.893-9.027 9.178-12.706C13.499 17.485 10.82 18 9.045 18a7.451 7.451 0 0 1-2.459-.409A1 1 0 0 1 7 15.675c.143 0 .284.031.414.091 0 0 3.345 1.335 9.023-2.525 6.537-4.442 11-.971 11.19-.821a1 1 0 0 1 .153 1.406Z"/>
</svg>
