<svg xmlns="http://www.w3.org/2000/svg" width="32" height="32" fill="none" viewBox="0 0 32 32">
  <path fill="#4A4A4F" d="M11.5 19a1.5 1.5 0 1 1 0-3 1.5 1.5 0 0 1 0 3Zm9-3a1.5 1.5 0 1 0 0 3 1.5 1.5 0 0 0 0-3Zm8.5 0A13 13 0 1 1 16 3a13.014 13.014 0 0 1 13 13Zm-2 0a11 11 0 1 0-11 11 11.012 11.012 0 0 0 11-11Zm-5.555-5.832L16 13.797l-5.445-3.624a1.001 1.001 0 0 0-1.11 1.665l6 4a1 1 0 0 0 1.11 0l6-4a1 1 0 1 0-1.11-1.665v-.006Zm-1.891 12C18.5 21.465 17.493 21 16 21c-1.492 0-2.5.466-3.554 1.168a1 1 0 0 0 1.108 1.665C14.366 23.293 15 23 16 23c1 0 1.634.293 2.446.832a.998.998 0 0 0 1.401-.268 1.002 1.002 0 0 0-.293-1.396Z"/>
</svg>
