<svg xmlns="http://www.w3.org/2000/svg" width="32" height="32" fill="none" viewBox="0 0 32 32">
  <path fill="#4A4A4F" d="M16 3a13 13 0 1 0 13 13A13.013 13.013 0 0 0 16 3Zm0 24a11 11 0 1 1 11-11 11.012 11.012 0 0 1-11 11Zm6.707-6.707a1 1 0 0 1-1.415 1.415L20 20.413l-1.293 1.293a1.001 1.001 0 0 1-1.415 0L16 20.415l-1.293 1.293a1.001 1.001 0 0 1-1.415 0L12 20.415l-1.293 1.293a1 1 0 1 1-1.414-1.415l2-2a1.001 1.001 0 0 1 1.415 0L14 19.587l1.293-1.293a1.001 1.001 0 0 1 1.415 0L18 19.585l1.293-1.293a1.001 1.001 0 0 1 1.415 0l2 2ZM10 13.5a1.5 1.5 0 1 1 3 0 1.5 1.5 0 0 1-3 0Zm9 0a1.5 1.5 0 1 1 3 0 1.5 1.5 0 0 1-3 0Z"/>
</svg>
