<svg xmlns="http://www.w3.org/2000/svg" width="32" height="32" fill="none" viewBox="0 0 32 32">
  <path fill="#4A4A4F" d="M16 3A13.015 13.015 0 0 0 3 16v7a3 3 0 0 0 4.772 2.42C9.293 24.316 11.95 23 16 23s6.709 1.315 8.226 2.419A3.002 3.002 0 0 0 29 23v-7A13.015 13.015 0 0 0 16 3Zm11 13v1.109a20.751 20.751 0 0 0-5.117-2.278 20.875 20.875 0 0 0-3.61-9.594A11.018 11.018 0 0 1 27 16ZM16 5.534a19.06 19.06 0 0 1 3.8 8.807 21.356 21.356 0 0 0-7.605 0A19.164 19.164 0 0 1 16 5.534Zm-2.274-.296a20.875 20.875 0 0 0-3.609 9.594A20.75 20.75 0 0 0 5 17.11V16a11.017 11.017 0 0 1 8.726-10.762Zm12.731 18.65a1 1 0 0 1-1.055-.086C23.645 22.525 20.587 21 16 21c-4.588 0-7.645 1.525-9.402 2.802a1 1 0 0 1-1.055.087A.972.972 0 0 1 5 23v-3.491a19 19 0 0 1 22 0V23a.97.97 0 0 1-.543.889Z"/>
</svg>
