<svg xmlns="http://www.w3.org/2000/svg" width="32" height="32" fill="none" viewBox="0 0 32 32">
  <path fill="#4A4A4F" d="M17 15v7a1 1 0 1 1-2 0v-7a1 1 0 0 1 2 0Zm12.982-2.736L28.25 25.265A2 2 0 0 1 26.266 27H5.734a2 2 0 0 1-1.984-1.735l-1.734-13A2 2 0 0 1 4 10h4.546l6.704-7.659a1 1 0 0 1 1.5 0l6.704 7.66H28a2 2 0 0 1 1.981 2.263h.001ZM11.204 10h9.592L16 4.52 11.204 10ZM28 12H4l1.734 13h20.532L28 12Zm-6.395 2.9-.7 7A1.002 1.002 0 0 0 21.8 23a.9.9 0 0 0 .101 0 1 1 0 0 0 .994-.9l.7-7a1 1 0 0 0-1.99-.2Zm-11.21 0a1 1 0 0 0-1.99.2l.7 7a1 1 0 0 0 1 .9.9.9 0 0 0 .101 0 .998.998 0 0 0 .895-1.095l-.706-7.005Z"/>
</svg>
