<svg xmlns="http://www.w3.org/2000/svg" width="32" height="32" fill="none" viewBox="0 0 32 32">
  <path fill="#4A4A4F" d="m30.708 5.293-4-4a1 1 0 1 0-1.415 1.415l.185.183-6.897 5.173-4.777.956a1.006 1.006 0 0 0-.511.273L2.875 19.708a3 3 0 0 0 0 4.242l5.175 5.175a3 3 0 0 0 4.243 0l10.415-10.414a1 1 0 0 0 .272-.51l.956-4.778 5.173-6.897.184.185a1 1 0 1 0 1.415-1.415v-.003ZM12 13.413 18.586 20 13 25.586 6.414 19 12 13.414ZM10.171 28a.993.993 0 0 1-.706-.292l-5.172-5.173a1 1 0 0 1 0-1.414L5 20.414 11.586 27l-.71.708a1 1 0 0 1-.705.292Zm12.03-15.6a.99.99 0 0 0-.18.404l-.942 4.704L20 18.586 13.414 12l1.079-1.079 4.703-.94a.99.99 0 0 0 .404-.18l7.306-5.48.774.773L22.2 12.4Z"/>
</svg>
