<svg xmlns="http://www.w3.org/2000/svg" width="32" height="32" fill="none" viewBox="0 0 32 32">
  <path fill="#4A4A4F" d="M24 14h-4V7a2 2 0 0 0-2-2H4a1 1 0 0 0-.934 1.357C4.45 9.963 4.161 16.822 3.04 20.724a.995.995 0 0 0-.039.276v4a2 2 0 0 0 2 2h3.264a2 2 0 0 0 .895-.211L10.736 26h2.028l1.577.789c.278.139.585.211.895.211h3.528a2 2 0 0 0 .895-.211L21.236 26h2.028l1.577.789a2 2 0 0 0 .895.211H29a2 2 0 0 0 2-2v-4a7.008 7.008 0 0 0-7-7ZM5.358 7H18v3h-4a1 1 0 0 0 0 2h4v2h-4a1 1 0 0 0 0 2h10a5.008 5.008 0 0 1 4.9 4H5.281c.844-3.855 1.02-9.271.077-13ZM29 25h-3.264l-1.577-.789a2 2 0 0 0-.895-.211h-2.028a2 2 0 0 0-.895.211L18.764 25h-3.528l-1.577-.789a1.999 1.999 0 0 0-.895-.211h-2.028a2 2 0 0 0-.895.211L8.264 25H5v-3h24v3Z"/>
</svg>
