<svg xmlns="http://www.w3.org/2000/svg" width="32" height="32" fill="none" viewBox="0 0 32 32">
  <path fill="#4A4A4F" d="M29 20h-4v-7.332a8.987 8.987 0 0 0 3.625 2.677 1 1 0 0 0 .75-1.854A6.973 6.973 0 0 1 25 7a1 1 0 0 0-2 0A7 7 0 1 1 9 7a1 1 0 0 0-2 0 6.972 6.972 0 0 1-4.375 6.491 1 1 0 0 0 .75 1.854A8.986 8.986 0 0 0 7 12.667V20H3a1 1 0 0 0 0 2h4v3a1 1 0 1 0 2 0v-3h14v3a1 1 0 0 0 2 0v-3h4a1 1 0 0 0 0-2Zm-11-4.225V20h-4v-4.225c1.316.3 2.683.3 4 0ZM9 12.65a9.06 9.06 0 0 0 3 2.409V20H9v-7.35ZM20 20v-4.94a9.058 9.058 0 0 0 3-2.409V20h-3Z"/>
</svg>
