<svg xmlns="http://www.w3.org/2000/svg" width="32" height="32" fill="none" viewBox="0 0 32 32">
  <path fill="#4A4A4F" d="M29 14a3 3 0 0 0-3-3h-9V9.875A4.007 4.007 0 0 0 20 6C20 2.5 16.695.261 16.555.168a1 1 0 0 0-1.11 0C15.305.26 12 2.5 12 6a4.007 4.007 0 0 0 3 3.875V11H6a3 3 0 0 0-3 3v2.916a5.105 5.105 0 0 0 1 3.03V25a3 3 0 0 0 3 3h18a3 3 0 0 0 3-3v-5.054a5.105 5.105 0 0 0 1-3.03V14ZM14 6c0-1.696 1.25-3.057 2-3.724.75.667 2 2.028 2 3.724a2 2 0 1 1-4 0Zm-9 8a1 1 0 0 1 1-1h20a1 1 0 0 1 1 1v2.916c0 1.657-1.308 3.04-2.915 3.083A3 3 0 0 1 21 17a1 1 0 1 0-2 0 3 3 0 0 1-6 0 1 1 0 1 0-2 0 3 3 0 0 1-3.085 3C6.308 19.955 5 18.573 5 16.916V14Zm20 12H7a1 1 0 0 1-1-1v-3.43a4.847 4.847 0 0 0 1.86.43A4.964 4.964 0 0 0 12 20a5 5 0 0 0 8 0c.157.208.33.403.516.584A4.959 4.959 0 0 0 24 22h.142A4.848 4.848 0 0 0 26 21.57V25a1 1 0 0 1-1 1Z"/>
</svg>
