<svg xmlns="http://www.w3.org/2000/svg" width="32" height="32" fill="none" viewBox="0 0 32 32">
  <path fill="#4A4A4F" d="M23 2.5a1.5 1.5 0 1 1 3 0 1.5 1.5 0 0 1-3 0Zm-2.485 6.654c.908 5.531.544 9.47-1.082 11.707A4.993 4.993 0 0 1 16 22.927V29h2a1 1 0 0 1 0 2h-6a1 1 0 0 1 0-2h2v-6.073a5 5 0 0 1-3.432-2.066c-1.625-2.237-1.99-6.176-1.082-11.707a56.364 56.364 0 0 1 1.777-7.463 1 1 0 0 1 .95-.691h5.575a1 1 0 0 1 .95.691 56.37 56.37 0 0 1 1.777 7.463ZM11.725 8h6.55a52.342 52.342 0 0 0-1.222-5h-4.104a53.446 53.446 0 0 0-1.224 5Zm6.9 2h-7.25c-.561 3.75-.642 7.692.806 9.686.648.884 1.57 1.314 2.82 1.314 1.25 0 2.172-.43 2.814-1.314 1.448-1.994 1.368-5.936.81-9.686ZM27.5 5a1.5 1.5 0 1 0 0 3 1.5 1.5 0 0 0 0-3Zm-3 6a1.5 1.5 0 1 0 0 3 1.5 1.5 0 0 0 0-3Z"/>
</svg>
