<svg xmlns="http://www.w3.org/2000/svg" width="32" height="32" fill="none" viewBox="0 0 32 32">
  <path fill="#4A4A4F" d="M10 7V3a1 1 0 0 1 2 0v4a1 1 0 0 1-2 0Zm5 1a1 1 0 0 0 1-1V3a1 1 0 0 0-2 0v4a1 1 0 0 0 1 1Zm4 0a1 1 0 0 0 1-1V3a1 1 0 0 0-2 0v4a1 1 0 0 0 1 1Zm12 7v1a5 5 0 0 1-4.689 4.989A12.075 12.075 0 0 1 22.936 26H26a1 1 0 0 1 0 2H4a1 1 0 0 1 0-2h3.067A12.037 12.037 0 0 1 3 17v-6a1 1 0 0 1 1-1h22a5 5 0 0 1 5 5Zm-6-3H5v5a10.034 10.034 0 0 0 5.64 9h8.72A10.034 10.034 0 0 0 25 17v-5Zm4 3a3 3 0 0 0-2-2.828V17c0 .628-.05 1.255-.15 1.875A3 3 0 0 0 29 16v-1Z"/>
</svg>
