<svg xmlns="http://www.w3.org/2000/svg" width="32" height="32" fill="none" viewBox="0 0 32 32">
  <path fill="#4A4A4F" d="M20.561 20.439a1.5 1.5 0 1 1-2.125 2.117 1.5 1.5 0 0 1 2.125-2.117Zm-10.125-1a1.5 1.5 0 1 0 .003 0h-.003Zm1.125-4.875a1.5 1.5 0 1 0-.487.324c.183-.076.348-.187.487-.327v.003Zm6-.125a1.5 1.5 0 1 0-2.117 2.124 1.5 1.5 0 0 0 2.117-2.124ZM29 16A13 13 0 1 1 16 3a1 1 0 0 1 1 1 5 5 0 0 0 5 5 1 1 0 0 1 1 1 5 5 0 0 0 5 5 1 1 0 0 1 1 1Zm-2.039.924a7.017 7.017 0 0 1-5.898-5.986 7.016 7.016 0 0 1-5.987-5.9 11 11 0 1 0 11.885 11.886Z"/>
</svg>
