<svg xmlns="http://www.w3.org/2000/svg" width="32" height="32" fill="none" viewBox="0 0 32 32">
  <path fill="#4A4A4F" d="M26.837 26.212a.241.241 0 0 0-.013-.03l-5.685-12.108L23.7 10.05a2 2 0 0 0 .014-2.08c-.011-.02-.025-.04-.038-.059L21 4.088V1a1 1 0 1 0-2 0v3.053l-.657.822a3 3 0 0 1-4.685 0L13 4.053V1a1 1 0 1 0-2 0v3.088L8.323 7.912c-.013.02-.027.04-.038.06a2 2 0 0 0 .014 2.08l2.562 4.022L5.176 26.18A2 2 0 0 0 7 29h18a1.999 1.999 0 0 0 1.839-2.788h-.002ZM10 9l2.054-2.929.041.053a5.001 5.001 0 0 0 7.81 0l.041-.053L22 9l-2.547 4h-6.904L10 9ZM7 27l5.634-12h6.73L25 27H7Z"/>
</svg>
