<svg xmlns="http://www.w3.org/2000/svg" width="32" height="32" fill="none" viewBox="0 0 32 32">
  <path fill="#4A4A4F" d="M6.74 4.328a1 1 0 1 0-1.48 1.345L6.476 7.01A10.064 10.064 0 0 0 6 7.001a1 1 0 0 0-1 1v10a11.013 11.013 0 0 0 11 11c2.856.001 5.6-1.11 7.651-3.098l1.609 1.77a1 1 0 1 0 1.48-1.345l-20-22Zm10.296 14.297A11.019 11.019 0 0 0 16 20.421a11.02 11.02 0 0 0-9-6.375v-4.99c.559.061 1.11.177 1.647.343l8.389 9.226ZM15 26.945A9.013 9.013 0 0 1 7 18v-1.945A9.012 9.012 0 0 1 15 25v1.945Zm2 0V25c0-1.72.493-3.403 1.42-4.851l3.885 4.274A8.982 8.982 0 0 1 17 26.945ZM27 18c0 .988-.132 1.972-.394 2.925a1 1 0 0 1-1.93-.529A9.07 9.07 0 0 0 25 18v-1.946a8.884 8.884 0 0 0-3.07.916 1.001 1.001 0 0 1-1.224-1.545c.09-.1.198-.18.319-.237A10.828 10.828 0 0 1 25 14.045V9.056a9.041 9.041 0 0 0-6.294 3.67 1.003 1.003 0 0 1-1.625-1.173 11.018 11.018 0 0 1 3.145-2.913C19.077 6.225 16.931 4.718 16 4.15a12.524 12.524 0 0 0-2.925 2.493 1.001 1.001 0 0 1-1.727-.95 1 1 0 0 1 .2-.342 14.041 14.041 0 0 1 4-3.25 1 1 0 0 1 .896 0c.165.083 3.783 1.93 5.573 5.644C23.287 7.252 24.637 7 26 7a1 1 0 0 1 1 1v10Z"/>
</svg>
