<svg xmlns="http://www.w3.org/2000/svg" width="32" height="32" fill="none" viewBox="0 0 32 32">
  <path fill="#4A4A4F" d="M26 7c-1.362 0-2.712.254-3.981.75-1.79-3.712-5.406-5.557-5.571-5.64a1 1 0 0 0-.896 0c-.166.083-3.78 1.928-5.57 5.64A10.941 10.941 0 0 0 6 7a1 1 0 0 0-1 1v10a11 11 0 1 0 22 0V8a1 1 0 0 0-1-1ZM15 26.945A9.012 9.012 0 0 1 7 18v-1.945A9.013 9.013 0 0 1 15 25v1.945Zm0-8.262a11 11 0 0 0-8-4.637v-4.99A9.013 9.013 0 0 1 15 18v.683ZM11.769 8.639C12.92 6.238 15.07 4.723 16 4.15c.93.573 3.079 2.088 4.23 4.488A11.076 11.076 0 0 0 16 13.42a11.071 11.071 0 0 0-4.231-4.781ZM25 18a9.013 9.013 0 0 1-8 8.945V25a9.013 9.013 0 0 1 8-8.945V18Zm0-3.954a11 11 0 0 0-8 4.637V18a9.013 9.013 0 0 1 8-8.945v4.991Z"/>
</svg>
