<svg xmlns="http://www.w3.org/2000/svg" width="32" height="32" fill="none" viewBox="0 0 32 32">
  <path fill="#4A4A4F" d="m31.418 14-8.433-8.49a12.013 12.013 0 0 0-16.971 0l-.012.011L4.282 7.3a1 1 0 0 0 1.434 1.39l1.718-1.77a9.99 9.99 0 0 1 2.338-1.74L15.585 11l-12 12a2 2 0 0 0 0 2.829l2.586 2.586a2 2 0 0 0 2.829 0l12-12 1.793 1.792L25 20.412a2 2 0 0 0 2.829 0l3.586-3.586A2 2 0 0 0 31.418 14ZM7.585 27 5 24.414l8.5-8.5 2.585 2.586-8.5 8.5Zm12.707-12.71L17.5 17.084 14.914 14.5l2.793-2.794a1 1 0 0 0 0-1.415L11.79 4.375a10 10 0 0 1 9.779 2.551l5.527 5.564-3.596 3.592-1.793-1.792a1.001 1.001 0 0 0-1.415 0Zm6.125 4.707-1.5-1.5 3.583-3.59 1.5 1.5-3.582 3.59Z"/>
</svg>
