<svg xmlns="http://www.w3.org/2000/svg" width="32" height="32" fill="none" viewBox="0 0 32 32">
  <path fill="#4A4A4F" d="M28.875 20.523 22.5 19.087 8.707 5.292a1 1 0 0 0-1.445.033C4.514 8.33 3 12.125 3 16v9a2 2 0 0 0 2 2h4a2 2 0 0 0 2-2v-6.118a14.055 14.055 0 0 1 5.986 6.879A1.988 1.988 0 0 0 18.84 27H30a2 2 0 0 0 2-2v-.591a3.965 3.965 0 0 0-3.125-3.886ZM9 25H5v-7.964a13.86 13.86 0 0 1 4 .89V25Zm21 0H18.835a16.044 16.044 0 0 0-5.784-7.183 15.862 15.862 0 0 0-8.015-2.782 13.834 13.834 0 0 1 3.021-7.563l13.236 13.235a1 1 0 0 0 .487.268l6.655 1.5A1.976 1.976 0 0 1 30 24.413V25Z"/>
</svg>
