<svg xmlns="http://www.w3.org/2000/svg" width="32" height="32" fill="none" viewBox="0 0 32 32">
  <path fill="#4A4A4F" d="M26.94 26.657 20.564 9.125 21.7 6H23a1 1 0 1 0 0-2H11a1 1 0 0 0 0 2h.572L4.06 26.657a1 1 0 1 0 1.88.684L7.155 24h5.875l-.968 2.657a.999.999 0 1 0 1.878.684L16.25 21h6.5l2.306 6.341a1 1 0 0 0 1.285.599.999.999 0 0 0 .599-1.283ZM15.94 16h-5.875l1.454-4h5.875l-1.454 4Zm3.636-10-1.459 4H12.25l1.45-4h5.876ZM7.882 22l1.455-4h5.875l-1.462 4H7.882Zm9.09-3 2.528-6.949L22.026 19h-5.054Z"/>
</svg>
