<svg xmlns="http://www.w3.org/2000/svg" width="32" height="32" fill="none" viewBox="0 0 32 32">
  <path fill="#4A4A4F" d="M16 11a5 5 0 1 0 0 10 5 5 0 0 0 0-10Zm0 8a3 3 0 1 1 0-5.999A3 3 0 0 1 16 19ZM30 7H2a1 1 0 0 0-1 1v16a1 1 0 0 0 1 1h28a1 1 0 0 0 1-1V8a1 1 0 0 0-1-1Zm-5.794 16H7.794A7.097 7.097 0 0 0 3 18.206v-4.412A7.097 7.097 0 0 0 7.794 9h16.412A7.098 7.098 0 0 0 29 13.794v4.412A7.098 7.098 0 0 0 24.206 23ZM29 11.671A5.1 5.1 0 0 1 26.329 9H29v2.671ZM5.671 9A5.101 5.101 0 0 1 3 11.671V9h2.671ZM3 20.329A5.1 5.1 0 0 1 5.671 23H3v-2.671ZM26.329 23A5.1 5.1 0 0 1 29 20.329V23h-2.671Z"/>
</svg>
