<svg xmlns="http://www.w3.org/2000/svg" width="32" height="32" fill="none" viewBox="0 0 32 32">
  <path fill="#4A4A4F" d="M31 10H1a1 1 0 0 0-1 1 16 16 0 1 0 32 0 1 1 0 0 0-1-1ZM9.675 18.739 15 13.414v7.536a9.949 9.949 0 0 1-5.325-2.211Zm-1.414-1.414A9.949 9.949 0 0 1 6.05 12h7.536l-5.325 5.325ZM17 13.414l5.325 5.325A9.949 9.949 0 0 1 17 20.95v-7.536Zm6.739 3.911L18.414 12h7.536a9.949 9.949 0 0 1-2.211 5.325ZM16 25A14.019 14.019 0 0 1 2.035 12h2.008a12 12 0 0 0 23.915 0h2.007A14.019 14.019 0 0 1 16 25Z"/>
</svg>
