<svg xmlns="http://www.w3.org/2000/svg" width="32" height="32" fill="none" viewBox="0 0 32 32">
  <path fill="#4A4A4F" d="m27.96 8.269-11-6.019a1.985 1.985 0 0 0-1.92 0l-11 6.021A2 2 0 0 0 3 10.021v11.955a2 2 0 0 0 1.04 1.75l11 6.021a1.985 1.985 0 0 0 1.92 0l11-6.02a2 2 0 0 0 1.04-1.75V10.022a2 2 0 0 0-1.04-1.754ZM16 4l10.043 5.5-3.722 2.037-10.044-5.5L16 4Zm0 11L5.957 9.5l4.238-2.32 10.043 5.5L16 15ZM5 11.25l10 5.473v10.723L5 21.977V11.25Zm22 10.723-10 5.473V16.727l4-2.188V19a1 1 0 0 0 2 0v-5.556l4-2.194v10.723Z"/>
</svg>
