<svg xmlns="http://www.w3.org/2000/svg" width="32" height="32" fill="none" viewBox="0 0 32 32">
  <path fill="#4A4A4F" d="m27.985 26.75-2.75-22A2 2 0 0 0 23.25 3H8.75a2 2 0 0 0-1.985 1.75l-2.75 22A2 2 0 0 0 6 29h5.086a2 2 0 0 0 1.94-1.508L16 15.992l2.974 11.493A2 2 0 0 0 20.914 29H26a2 2 0 0 0 1.985-2.25ZM24.113 11.9A4.017 4.017 0 0 1 21.125 9h2.625l.363 2.9ZM23.25 5l.25 2h-15l.25-2h14.5Zm-15 4h2.625a4.016 4.016 0 0 1-2.987 2.9L8.25 9Zm2.836 18H6l1.625-13.034A6.01 6.01 0 0 0 12.915 9H15v2.875L11.086 27Zm9.825-.008-3.91-15.117V9h2.084a6.01 6.01 0 0 0 5.29 4.966L26 27l-5.089-.008Z"/>
</svg>
