<svg xmlns="http://www.w3.org/2000/svg" width="32" height="32" fill="none" viewBox="0 0 32 32">
  <path fill="#4A4A4F" d="M20.909 5.053A5.008 5.008 0 0 0 16 1a1 1 0 0 0 0 2 3 3 0 0 1 2.857 2.082A8.01 8.01 0 0 0 12 13c0 5.844-3.219 9.75-9.566 11.625a2 2 0 0 0 .221 3.891A33.07 33.07 0 0 0 8.344 29c5.098 0 10.77-1.144 14.691-4.433C26.33 21.805 28 17.913 28 13a8.01 8.01 0 0 0-7.091-7.947ZM20 7a6.009 6.009 0 0 1 5.672 4.046L24 11.875l-3.552-1.771a.999.999 0 0 0-.895 0L16 11.875l-1.671-.835A6.01 6.01 0 0 1 20 7Zm1.75 16.038c-2.25 1.883-5.45 3.157-9.265 3.683A31.76 31.76 0 0 1 3 26.546c7.154-2.108 10.954-6.75 11-13.427l1.555.777a1 1 0 0 0 .895 0l3.55-1.78 3.553 1.777a1 1 0 0 0 .895 0l1.551-.776c-.026 4.238-1.455 7.575-4.249 9.92Z"/>
</svg>
