<svg xmlns="http://www.w3.org/2000/svg" width="32" height="32" fill="none" viewBox="0 0 32 32">
  <path fill="#4A4A4F" d="M29.943 7.875a1.99 1.99 0 0 0-.907-1.237 25.186 25.186 0 0 0-26.072 0 2 2 0 0 0-.671 2.75l12 19.658a2.001 2.001 0 0 0 3.42 0l12-19.658a1.977 1.977 0 0 0 .23-1.513ZM7.949 14.813a3 3 0 1 1 3.059 5.01l-3.06-5.01Zm10.99 8.368A3 3 0 0 1 22 18.171l-3.061 5.01Zm4.116-6.74a5 5 0 0 0-5.172 8.47L16 28.001l-3.937-6.447a5 5 0 1 0-5.17-8.47L6.1 11.783a19 19 0 0 1 19.799 0l-2.844 4.657Zm3.888-6.367a21.015 21.015 0 0 0-21.885 0L4 8.346a23.2 23.2 0 0 1 24 0l-1.057 1.728Z"/>
</svg>
