<svg xmlns="http://www.w3.org/2000/svg" width="32" height="32" fill="none" viewBox="0 0 32 32">
  <path fill="#4A4A4F" d="M25 6h-2.586l-1.707-1.707a1.009 1.009 0 0 0-.7-.293H12a1 1 0 0 0-.707.293L9.585 6H7a2 2 0 0 0-2 2v19a2 2 0 0 0 2 2h18a2 2 0 0 0 2-2V8a2 2 0 0 0-2-2Zm-4.845.57.845.844V14l-3.679-3.18 2.834-4.25ZM11 7.414l.845-.844 2.834 4.25L11 14V7.414ZM15 27H7V8h2v6a1.981 1.981 0 0 0 1.151 1.811 1.986 1.986 0 0 0 2.138-.29L15 13.185V27ZM13.875 6h4.262L16 9.197 13.875 6ZM25 27h-8V13.185l2.706 2.338a1.986 1.986 0 0 0 2.148.285A1.98 1.98 0 0 0 23 14V8h2v19Z"/>
</svg>
