<svg xmlns="http://www.w3.org/2000/svg" width="32" height="32" fill="none" viewBox="0 0 32 32">
  <path fill="#4A4A4F" d="M8 29.5a1.5 1.5 0 1 1-3 0 1.5 1.5 0 0 1 3 0Zm2.5-5.5a1.5 1.5 0 1 0 0 3 1.5 1.5 0 0 0 0-3Zm-8 0a1.5 1.5 0 1 0 0 3 1.5 1.5 0 0 0 0-3Zm4-4a1.5 1.5 0 1 0 0 3 1.5 1.5 0 0 0 0-3ZM32 5a1 1 0 0 1-1 1h-3.586l-3.482 3.483-2.707 15.848a2 2 0 0 1-3.386 1.083l-12.25-12.25a2 2 0 0 1 1.086-3.388l15.842-2.708L26 4.586A1.982 1.982 0 0 1 27.414 4H31a1 1 0 0 1 1 1Zm-10.224 5.224L7 12.75 19.25 25l2.526-14.776Z"/>
</svg>
