<svg xmlns="http://www.w3.org/2000/svg" width="32" height="32" fill="none" viewBox="0 0 32 32">
  <path fill="#4A4A4F" d="M28.345 8.625a.999.999 0 0 0-1.605-.36l-5.037 4.649-2.154-.463-.462-2.153 4.648-5.038a1 1 0 0 0-.36-1.605A9 9 0 0 0 11 12a9.044 9.044 0 0 0 .75 3.618l-7.526 6.507c-.019.015-.036.033-.054.049a4 4 0 1 0 5.706 5.605l6.507-7.529A9 9 0 0 0 29 12a8.944 8.944 0 0 0-.655-3.375ZM20 19a7.02 7.02 0 0 1-3.384-.875 1 1 0 0 0-1.24.221L8.39 26.44a2 2 0 0 1-2.828-2.828l8.087-6.986a1 1 0 0 0 .221-1.241 7 7 0 0 1 7.295-10.289l-3.9 4.226a1 1 0 0 0-.242.888l.707 3.291a1 1 0 0 0 .768.768l3.293.707a1.001 1.001 0 0 0 .888-.242l4.226-3.9A7.006 7.006 0 0 1 20 19Z"/>
</svg>
