<svg xmlns="http://www.w3.org/2000/svg" width="32" height="32" fill="none" viewBox="0 0 32 32">
  <path fill="#4A4A4F" d="M9 13h4v6H9v-6Zm20-6v20a1 1 0 0 1-1.448.894L24 26.118l-3.552 1.776a.999.999 0 0 1-.896 0L16 26.118l-3.553 1.776a.999.999 0 0 1-.894 0L8 26.118l-3.553 1.776A1 1 0 0 1 3 27V7a2 2 0 0 1 2-2h22a2 2 0 0 1 2 2Zm-14 5a1 1 0 0 0-1-1H8a1 1 0 0 0-1 1v8a1 1 0 0 0 1 1h6a1 1 0 0 0 1-1v-8Zm10 6a1 1 0 0 0-1-1h-6a1 1 0 0 0 0 2h6a1 1 0 0 0 1-1Zm0-4a1 1 0 0 0-1-1h-6a1 1 0 0 0 0 2h6a1 1 0 0 0 1-1Z"/>
</svg>
