<svg xmlns="http://www.w3.org/2000/svg" width="32" height="32" fill="none" viewBox="0 0 32 32">
  <path fill="#4A4A4F" d="M30.48 9.524a1.51 1.51 0 0 0-1.668-.213l-6.276 3.125-5.24-8.704a1.514 1.514 0 0 0-2.592 0l-5.24 8.708L3.19 9.315a1.514 1.514 0 0 0-2.113 1.825l4.625 14.17a1 1 0 0 0 1.46.55C7.194 25.841 10.39 24 16 24c5.61 0 8.806 1.841 8.835 1.859a1 1 0 0 0 1.464-.549l4.625-14.166a1.508 1.508 0 0 0-.444-1.62ZM21.98 19.6a1 1 0 0 1-1.159.811 28.527 28.527 0 0 0-9.652 0 1 1 0 0 1-.348-1.97 30.554 30.554 0 0 1 10.348 0 1 1 0 0 1 .816 1.159h-.005Z"/>
</svg>
