<svg xmlns="http://www.w3.org/2000/svg" width="32" height="32" fill="none" viewBox="0 0 32 32">
  <path fill="#4A4A4F" d="M22.949 26.684a1 1 0 1 1-1.898.632l-1-3a1 1 0 1 1 1.898-.632l1 3ZM16 23a1 1 0 0 0-1 1v4a1 1 0 1 0 2 0v-4a1 1 0 0 0-1-1Zm-4.684.051a.998.998 0 0 0-1.265.633l-1 3a1 1 0 0 0 1.898.632l1-3a1 1 0 0 0-.633-1.265ZM31 14c0 2.027-1.671 3.861-4.706 5.161C23.527 20.347 19.875 21 16 21c-3.875 0-7.527-.653-10.294-1.839C2.671 17.861 1 16.027 1 14c0-1.046.459-2.599 2.646-4.063 1.421-.95 3.368-1.72 5.648-2.23a7.955 7.955 0 0 1 12.331-1.4c.431.426.813.9 1.139 1.412C27.929 8.886 31 11.217 31 13.999Zm-9-2a5.958 5.958 0 0 0-.758-2.919l-.007-.011A6.009 6.009 0 0 0 15.92 6C12.656 6.042 10 8.78 10 12.104v.375a.99.99 0 0 0 .766.97c1.719.379 3.474.563 5.234.55a23.507 23.507 0 0 0 5.231-.545.991.991 0 0 0 .769-.97V12Z"/>
</svg>
