<svg xmlns="http://www.w3.org/2000/svg" width="32" height="32" fill="none" viewBox="0 0 32 32">
  <path fill="#4A4A4F" d="M28.633 6.736a4.115 4.115 0 0 0-3.37-3.368c-4.047-.687-11.673-1-17.283 4.612-5.61 5.613-5.299 13.238-4.612 17.284a4.115 4.115 0 0 0 3.375 3.369c1.417.241 2.853.364 4.29.367 4.012 0 9.007-1 12.987-4.98 5.611-5.61 5.299-13.237 4.613-17.284ZM7.07 26.663a2.117 2.117 0 0 1-1.732-1.733 22.534 22.534 0 0 1-.264-5.862l7.859 7.858a22.54 22.54 0 0 1-5.863-.263Zm13.635-13.954L18.913 14.5l.792.793a.999.999 0 1 1-1.414 1.412l-.79-.791-1.587 1.586.792.793a1 1 0 1 1-1.412 1.413l-.794-.793-1.792 1.792a.999.999 0 0 1-1.642-1.089.999.999 0 0 1 .228-.325l1.794-1.79-.793-.793a1 1 0 0 1 1.414-1.413l.792.793 1.585-1.588-.792-.792a1 1 0 0 1 1.412-1.414l.794.794 1.793-1.793a1.002 1.002 0 0 1 1.65.312.998.998 0 0 1-.237 1.102Zm6.221.224-7.858-7.86a20.208 20.208 0 0 1 1.863-.085 24 24 0 0 1 4 .35 2.117 2.117 0 0 1 1.732 1.732 22.54 22.54 0 0 1 .263 5.863Z"/>
</svg>
