<svg xmlns="http://www.w3.org/2000/svg" width="32" height="32" fill="none" viewBox="0 0 32 32">
  <path fill="#4A4A4F" d="M27.6 21.2a1 1 0 0 0-.6-.2h-1V8a4 4 0 0 0-4-4H5a4 4 0 0 0-4 4c0 1.701 1.256 2.693 1.4 2.8a1 1 0 0 0 1.209-1.591C3.604 9.203 3 8.717 3 8a2 2 0 1 1 4 0v16a4 4 0 0 0 4 4h14a4 4 0 0 0 4-4c0-1.701-1.25-2.692-1.4-2.8ZM13 12h8a1 1 0 0 1 0 2h-8a1 1 0 0 1 0-2Zm-1 5a1 1 0 0 1 1-1h8a1 1 0 0 1 0 2h-8a1 1 0 0 1-1-1Zm13 9H13.464A3.977 3.977 0 0 0 14 24c0-.34-.05-.676-.151-1h12.75c.248.275.391.63.404 1A1.999 1.999 0 0 1 25 26Z"/>
</svg>
