<svg xmlns="http://www.w3.org/2000/svg" width="32" height="32" fill="none" viewBox="0 0 32 32">
  <path fill="#4A4A4F" d="M16 3a13 13 0 1 0 13 13A13.013 13.013 0 0 0 16 3Zm1 4.923 3.099-2.132a11.052 11.052 0 0 1 4.522 3.375l-1 3.368c-.025 0-.051.012-.076.021l-2.853.926a.95.95 0 0 0-.125.05L17 11.077V7.924ZM11.905 5.79 15 7.922v3.157l-3.57 2.458a.937.937 0 0 0-.125-.05l-2.852-.926c-.025-.009-.052-.015-.077-.021l-1-3.368a11.051 11.051 0 0 1 4.529-3.38ZM10.28 21.927H6.738a10.925 10.925 0 0 1-1.724-5.383l2.75-2.11c.023.01.048.02.072.027l2.854.928c.038.011.077.02.116.027l1.349 3.928a1.476 1.476 0 0 0-.055.069l-1.762 2.426a.974.974 0 0 0-.058.088Zm8.556 4.698a11.02 11.02 0 0 1-5.672 0l-1.258-3.55c.016-.02.034-.039.049-.06l1.764-2.428a.977.977 0 0 0 .057-.087h4.448c.017.03.037.06.057.087l1.764 2.428c.015.021.032.04.049.06l-1.258 3.55Zm2.884-4.701a.953.953 0 0 0-.057-.089l-1.764-2.422a1.476 1.476 0 0 0-.055-.07l1.348-3.927a.987.987 0 0 0 .117-.027l2.854-.928a.755.755 0 0 0 .072-.027l2.75 2.11a10.926 10.926 0 0 1-1.724 5.383l-3.541-.003Z"/>
</svg>
