<svg xmlns="http://www.w3.org/2000/svg" width="32" height="32" fill="none" viewBox="0 0 32 32">
  <path fill="#4A4A4F" d="M29 16.5a12.954 12.954 0 0 1-3.42 8.779c-.408.443-1.115-.074-.804-.59A11.927 11.927 0 0 0 26.5 18.5a10.012 10.012 0 0 0-10-10 8.009 8.009 0 0 0-8 8 6.006 6.006 0 0 0 6 6 4 4 0 0 0 4-4.102 2 2 0 0 0-1.916-1.897 1.029 1.029 0 0 0-1.084.925 1.001 1.001 0 0 0 1 1.075 2 2 0 0 1-2 2 4 4 0 0 1-4-4 6.006 6.006 0 0 1 6-6 8.009 8.009 0 0 1 8 8 10.012 10.012 0 0 1-10 10C5.23 28.5 2.904 19.93 3 16.149c.187-6.933 5.867-12.544 12.8-12.65A13.015 13.015 0 0 1 29 16.5Z"/>
</svg>
