<svg xmlns="http://www.w3.org/2000/svg" width="32" height="32" fill="none" viewBox="0 0 32 32">
  <path fill="#4A4A4F" d="M3.101 14.426A12.987 12.987 0 0 1 14.426 3.095a.5.5 0 0 1 .559.474A10.977 10.977 0 0 1 3.576 14.985a.5.5 0 0 1-.475-.559Zm25.318 2.588c-.14 0-.28-.009-.42-.009a10.98 10.98 0 0 0-10.984 11.426.5.5 0 0 0 .559.474 12.988 12.988 0 0 0 11.325-11.332.5.5 0 0 0-.48-.56Zm-9.612 1.794A12.916 12.916 0 0 1 28 15h.386a.5.5 0 0 0 .515-.554 12.988 12.988 0 0 0-11.36-11.361.5.5 0 0 0-.554.515 12.965 12.965 0 0 1-3.795 9.588A12.917 12.917 0 0 1 4 17h-.386a.5.5 0 0 0-.515.554 12.989 12.989 0 0 0 11.36 11.361.503.503 0 0 0 .516-.306.499.499 0 0 0 .037-.209 12.964 12.964 0 0 1 3.795-9.592Z"/>
</svg>
