<svg xmlns="http://www.w3.org/2000/svg" width="32" height="32" fill="none" viewBox="0 0 32 32">
  <path fill="#4A4A4F" d="M29.98 7.541a1 1 0 0 1-.581.72l-7.024 3.058a8.927 8.927 0 0 1 5.42 4.151 8.83 8.83 0 0 1 .9 6.79 1 1 0 0 1-1.57.535L17 15.085V28a1 1 0 0 1-2 0V15.085l-10.125 7.71a1.001 1.001 0 0 1-1.571-.535 8.83 8.83 0 0 1 .9-6.79 8.927 8.927 0 0 1 5.42-4.151L2.602 8.26a1 1 0 0 1-.325-1.606 8.357 8.357 0 0 1 12.218 0 9.029 9.029 0 0 1 1.5 2.125A9.025 9.025 0 0 1 17.5 6.654a8.357 8.357 0 0 1 12.217 0 1 1 0 0 1 .263.887Z"/>
</svg>
