<svg xmlns="http://www.w3.org/2000/svg" width="32" height="32" fill="none" viewBox="0 0 32 32">
  <path fill="#4A4A4F" d="M22 14.5a1.5 1.5 0 0 1-1.5 1.5H19v-3h1.5a1.5 1.5 0 0 1 1.5 1.5ZM32 16a10.011 10.011 0 0 1-10 10H10a10 10 0 0 1 0-20h12a10.011 10.011 0 0 1 10 10Zm-17.125-4.926a1 1 0 0 0-1.301.551l-2.324 5.718-2.324-5.718a1 1 0 1 0-1.852.75l3.25 8a1 1 0 0 0 1.852 0l3.25-8a1 1 0 0 0-.551-1.301Zm7.729 6.22A3.5 3.5 0 0 0 20.5 11H18a1 1 0 0 0-1 1v8a1 1 0 0 0 2 0v-2h1.5c.067 0 .135 0 .201-.006l1.43 2.5a1.003 1.003 0 1 0 1.744-.994l-1.271-2.206Z"/>
</svg>
