<svg xmlns="http://www.w3.org/2000/svg" width="32" height="32" fill="none" viewBox="0 0 32 32">
  <path fill="#4A4A4F" d="M16 3a13 13 0 1 0 13 13A13.013 13.013 0 0 0 16 3Zm10.954 12H22.67a13.022 13.022 0 0 0-4.47-9.779A11.022 11.022 0 0 1 26.954 15ZM5.566 19.484A10.993 10.993 0 0 1 9.66 7.016l2.14 3.707a13.016 13.016 0 0 0-6.233 8.76Zm1.797 3.32a11 11 0 0 1 5.436-10.349L14.845 16l-5.186 8.984a11.075 11.075 0 0 1-2.296-2.18Zm18.855-2.731a11 11 0 0 1-11.687.472L16.577 17h10.375a10.894 10.894 0 0 1-.735 3.073Z"/>
</svg>
