<svg xmlns="http://www.w3.org/2000/svg" width="32" height="32" fill="none" viewBox="0 0 32 32">
  <path fill="#4A4A4F" d="M15.99 18.75a3 3 0 1 1-5.98.48 3 3 0 0 1 5.98-.48ZM27 5v22a2 2 0 0 1-2 2H7a2 2 0 0 1-2-2V5a2 2 0 0 1 2-2h18a2 2 0 0 1 2 2Zm-3 4a1 1 0 0 0-1-1h-3.466a1.021 1.021 0 0 0-1.034.934 1 1 0 0 0 1 1.066h1.086L18.5 12.086l-1.293-1.293a.999.999 0 0 0-1.436.022 1.028 1.028 0 0 0 .051 1.421l1.264 1.264-1.336 1.33a5 5 0 1 0 1.42 1.42l1.33-1.336 1.293 1.293a1 1 0 0 0 1.463-.053 1.025 1.025 0 0 0-.075-1.388L19.914 13.5 22 11.414v1.052a1.022 1.022 0 0 0 .934 1.032 1 1 0 0 0 1.066-1V9Z"/>
</svg>
