<svg xmlns="http://www.w3.org/2000/svg" width="32" height="32" fill="none" viewBox="0 0 32 32">
  <path fill="#4A4A4F" d="M27 13v6.366C27 25.141 22.394 29.935 16.625 30a10.463 10.463 0 0 1-7.55-3.074C6.349 24.04 3.269 17 3.269 17a2 2 0 0 1 .816-2.779c.958-.5 2.138-.105 2.675.828l2.625 4.555a.76.76 0 0 0 .75.386h.015a1.024 1.024 0 0 0 .85-1.023V4a2 2 0 0 1 2.096-2C14.172 2.05 15 2.977 15 4.054V13a1 1 0 0 0 1.066 1A1.021 1.021 0 0 0 17 12.969v-1.97a2 2 0 0 1 2.096-2c1.076.05 1.904.978 1.904 2.055V14a1 1 0 0 0 1.066 1A1.021 1.021 0 0 0 23 13.969v-.91c0-1.077.828-2 1.904-2.054A2.001 2.001 0 0 1 27 13Z"/>
</svg>
