<svg xmlns="http://www.w3.org/2000/svg" width="32" height="32" fill="none" viewBox="0 0 32 32">
  <path fill="#4A4A4F" d="m29.415 22.5-4.53-4.531-4.558-15.037A2.72 2.72 0 0 0 16 1.616a2.72 2.72 0 0 0-4.328 1.316L7.115 17.97l-4.53 4.53a2 2 0 0 0 0 2.827l4.086 4.087a2 2 0 0 0 2.829 0l6.035-6.04c.167-.167.322-.346.465-.535a5.1 5.1 0 0 0 .465.536l6.035 6.04a2.002 2.002 0 0 0 2.829 0l4.086-4.086a2 2 0 0 0 0-2.83ZM15 19.844a2.982 2.982 0 0 1-.875 2.125l-3.04 3.03L7 20.916l1.706-1.708a1 1 0 0 0 .25-.417l4.625-15.278a.723.723 0 0 1 1.419.21v16.122Zm5.93 5.172-3.055-3.051A2.979 2.979 0 0 1 17 19.84V3.715a.722.722 0 0 1 1.414-.21l4.625 15.277a1 1 0 0 0 .25.418l1.81 1.811-4.17 4.005Z"/>
</svg>
