<svg xmlns="http://www.w3.org/2000/svg" width="32" height="32" fill="none" viewBox="0 0 32 32">
  <path fill="#4A4A4F" d="M14.97 27.243a1 1 0 0 1-1.22.727l-4-1a1 1 0 0 1-.312-.139l-3-2a1 1 0 0 1 1.11-1.663l2.854 1.903 3.833.96a1 1 0 0 1 .735 1.212Zm16.586-12.058a1.987 1.987 0 0 1-1 1.156l-2.96 1.48-1.885 1.887-5 5a1 1 0 0 1-.95.262l-8-2a1.007 1.007 0 0 1-.338-.156l-6.94-4.955-3.035-1.518a2 2 0 0 1-.895-2.682l3.106-6.211a2 2 0 0 1 2.682-.895L9.1 7.928l6.625-1.893a1 1 0 0 1 .55 0L22.9 7.928l2.757-1.375a2 2 0 0 1 2.683.895l3.106 6.21a1.987 1.987 0 0 1 .111 1.527ZM23.5 19.083l-3.464-2.774c-2.442 2-5.544 2.264-8.114.625a2 2 0 0 1-.33-3.113L17.2 8.383 16 8.04 9.698 9.841l-3.422 6.842 6.15 4.393 7.268 1.817 3.806-3.81Zm2.28-2.28L22.382 10h-3.977L13 15.25c1.582 1.011 4.064 1.29 6.29-.954a1 1 0 0 1 1.335-.076l4.301 3.446.854-.863Z"/>
</svg>
