<svg xmlns="http://www.w3.org/2000/svg" width="32" height="32" fill="none" viewBox="0 0 32 32">
  <path fill="#4A4A4F" d="M23.034 3.741a1.002 1.002 0 0 1 1.225-.707c1.987.533 3.625 1.763 4.607 3.466a1 1 0 0 1-1.732 1c-.715-1.24-1.92-2.14-3.393-2.534a1 1 0 0 1-.707-1.225ZM9.947 28.215C8.775 27.29 7.795 26.11 6.866 24.5a1 1 0 1 0-1.732 1c1.06 1.837 2.196 3.199 3.575 4.285a1 1 0 0 0 1.238-1.57ZM24.523 7.302a2 2 0 1 0-3.463 2l2 3.464a1 1 0 0 1-.366 1.366 4 4 0 0 0-1.464 5.464 1 1 0 0 1-1.733 1 6.008 6.008 0 0 1 1.375-7.625L15.83 4.24a2 2 0 1 0-3.466 2l4 6.929a1 1 0 0 1-1.73 1l-5-8.662a2 2 0 0 0-3.466 2l5.5 9.527a1.001 1.001 0 0 1-1.476 1.304.998.998 0 0 1-.255-.304l-3.5-6.062a2 2 0 1 0-3.465 2l5.5 9.527a11 11 0 0 0 19.052-11l-3-5.197Z"/>
</svg>
