<svg xmlns="http://www.w3.org/2000/svg" width="32" height="32" fill="none" viewBox="0 0 32 32">
  <path fill="#4A4A4F" d="M15 6a4 4 0 1 1 8 0 4 4 0 0 1-8 0Zm11 11c-3.58 0-5.227-1.662-6.969-3.421a25.431 25.431 0 0 0-1.375-1.323c-4.625-4.017-12.027 2.841-12.34 3.135a1 1 0 0 0 1.369 1.458 20.483 20.483 0 0 1 3.815-2.724c1.722-.922 3.174-1.279 4.337-1.072L8.082 28.6a1 1 0 0 0 1.835.798l4.199-9.659L18 22.515V29a1 1 0 1 0 2 0v-7a1 1 0 0 0-.419-.814l-4.65-3.321L16.61 14c.33.305.657.634 1 .98C19.38 16.774 21.586 19 26 19a1 1 0 0 0 0-2Z"/>
</svg>
