<svg xmlns="http://www.w3.org/2000/svg" width="32" height="32" fill="none" viewBox="0 0 32 32">
  <path fill="#4A4A4F" d="M12 7a4 4 0 1 1 8 0 4 4 0 0 1-8 0Zm15.625 5.42c-.188-.15-4.653-3.625-11.189.821-5.686 3.864-8.99 2.538-9.021 2.524a.998.998 0 0 0-1.427.873 1 1 0 0 0 .598.947c.076.035.936.409 2.459.409 1.776 0 4.455-.514 7.846-2.662-.285 3.677-1.591 10.434-9.179 12.71a1 1 0 1 0 .575 1.915c4.354-1.306 7.432-4.042 9.15-8.134.245-.586.457-1.184.638-1.792l2.76 2.3-1.784 5.353a1 1 0 1 0 1.898.632l2-6a1 1 0 0 0-.31-1.085l-4.052-3.375c.215-1.254.34-2.52.375-3.792 4.523-2.322 7.375-.107 7.41-.082a1 1 0 1 0 1.25-1.56l.003-.002ZM8 14a2 2 0 1 0 0-4 2 2 0 0 0 0 4Z"/>
</svg>
