<svg xmlns="http://www.w3.org/2000/svg" width="32" height="32" fill="none" viewBox="0 0 32 32">
  <path fill="#4A4A4F" d="M15 7a4 4 0 1 1 8 0 4 4 0 0 1-8 0Zm12.91 9.26a1 1 0 0 0-1.325-.5c-.031.015-3.339 1.34-9.022-2.524-6.537-4.442-11-.971-11.19-.821a1 1 0 1 0 1.25 1.56c.033-.026 3.14-2.438 8.01.409-.532 1.668-1.595 3.977-3.157 5.875-2.32 2.81-5.138 4.07-8.375 3.75a1 1 0 1 0-.2 1.991c.387.04.777.059 1.167.059 3.422 0 6.5-1.548 8.953-4.523.072-.086.143-.175.212-.262C16.663 21.91 21 23.788 21 29a1 1 0 1 0 2 0c0-3.081-1.26-5.669-3.644-7.483a13.033 13.033 0 0 0-3.913-1.976 21.167 21.167 0 0 0 1.932-4.041c3.268 2.011 5.855 2.5 7.586 2.5 1.523 0 2.383-.375 2.46-.41a.998.998 0 0 0 .49-1.33Z"/>
</svg>
