<svg xmlns="http://www.w3.org/2000/svg" width="32" height="32" fill="none" viewBox="0 0 32 32">
  <path fill="#4A4A4F" d="M10.5 15a5.5 5.5 0 1 1 11 0 5.5 5.5 0 0 1-11 0Zm15.77 7.148a1.026 1.026 0 0 0-1.358.3c-.215.297-.445.583-.69.857a9.97 9.97 0 0 0-2.722-2.668.5.5 0 0 0-.605.04 7.475 7.475 0 0 1-9.783 0 .5.5 0 0 0-.612-.04 9.963 9.963 0 0 0-2.724 2.664A10.958 10.958 0 0 1 5.046 17h1.925a1.025 1.025 0 0 0 .836-.41 1 1 0 0 0-.1-1.297l-3-3a1 1 0 0 0-1.415 0l-3 3a1 1 0 0 0-.1 1.297 1.024 1.024 0 0 0 .837.41h2.008a13 13 0 0 0 23.523 6.584 1 1 0 0 0-.29-1.436Zm5.654-6.53A1 1 0 0 0 31 15h-2.038A13 13 0 0 0 5.44 8.416a1 1 0 1 0 1.625 1.168A11 11 0 0 1 26.954 15H25a1 1 0 0 0-.708 1.707l3 3a1.001 1.001 0 0 0 1.415 0l3-3a1 1 0 0 0 .217-1.09Z"/>
</svg>
