<svg xmlns="http://www.w3.org/2000/svg" width="32" height="32" fill="none" viewBox="0 0 32 32">
  <path fill="#4A4A4F" d="M24.766 24.356A1 1 0 0 1 24 26H3a1 1 0 0 1-.765-1.644c1.867-2.222 4.19-3.8 6.771-4.646a8.5 8.5 0 1 1 8.988 0c2.58.845 4.903 2.424 6.772 4.646Zm6.131-5.106a1 1 0 0 1-1.367.366l-.584-.337c-.28.24-.6.426-.948.549v.672a1 1 0 1 1-2 0v-.672a2.991 2.991 0 0 1-.947-.55l-.584.338a1 1 0 1 1-1-1.732l.583-.336a2.947 2.947 0 0 1 0-1.095l-.583-.337a1 1 0 0 1 1-1.732l.584.337c.28-.24.6-.425.948-.548V13.5a1 1 0 0 1 2 0v.673c.346.123.668.309.947.548l.584-.337a.998.998 0 0 1 1.491.736.999.999 0 0 1-.491.996l-.583.337c.069.361.069.733 0 1.095l.583.336a1 1 0 0 1 .367 1.366ZM27 18a1 1 0 1 0 0-2 1 1 0 0 0 0 2Z"/>
</svg>
