<svg xmlns="http://www.w3.org/2000/svg" width="32" height="32" fill="none" viewBox="0 0 32 32">
  <path fill="#4A4A4F" d="M8.015 18.475a.5.5 0 0 1-.5.525H2a1 1 0 0 1-.975-.771 1.044 1.044 0 0 1 .203-.866 8.474 8.474 0 0 1 3.397-2.674 5 5 0 1 1 8.307-4.475.492.492 0 0 1-.283.522 8.01 8.01 0 0 0-4.634 7.74Zm22.75-1.114a8.47 8.47 0 0 0-3.39-2.672 5 5 0 1 0-8.308-4.475.492.492 0 0 0 .284.522A8.01 8.01 0 0 1 24 18c0 .16 0 .318-.015.475a.498.498 0 0 0 .5.525H30a1 1 0 0 0 .975-.771 1.04 1.04 0 0 0-.204-.868h-.006ZM19.64 22.76a6 6 0 1 0-7.296 0 9.017 9.017 0 0 0-4.21 3.741A1 1 0 0 0 9 28h14a1 1 0 0 0 .866-1.5 9.02 9.02 0 0 0-4.217-3.741h-.009Z"/>
</svg>
