<svg xmlns="http://www.w3.org/2000/svg" width="32" height="32" fill="none" viewBox="0 0 32 32">
  <path fill="#4A4A4F" d="M16 9.5a5.5 5.5 0 1 1 0 11 5.5 5.5 0 0 1 0-11ZM22 8h2v2a1 1 0 0 0 2 0V8h2a1 1 0 1 0 0-2h-2V4a1 1 0 1 0-2 0v2h-2a1 1 0 0 0 0 2Zm5.669 5.014a1 1 0 0 0-.822 1.151c.102.606.153 1.22.153 1.835a10.952 10.952 0 0 1-2.78 7.301 9.982 9.982 0 0 0-2.72-2.663.5.5 0 0 0-.605.04 7.476 7.476 0 0 1-9.784 0 .5.5 0 0 0-.611-.04A9.964 9.964 0 0 0 7.776 23.3 11 11 0 0 1 17.835 5.153a1 1 0 0 0 .33-1.973A12.99 12.99 0 1 0 28.82 13.835a1 1 0 0 0-1.151-.821Z"/>
</svg>
