<svg xmlns="http://www.w3.org/2000/svg" width="32" height="32" fill="none" viewBox="0 0 32 32">
  <path fill="#4A4A4F" d="M25 3H7a2 2 0 0 0-2 2v22a2 2 0 0 0 2 2h18a2 2 0 0 0 2-2V5a2 2 0 0 0-2-2ZM11 25a1.5 1.5 0 1 1 0-3 1.5 1.5 0 0 1 0 3Zm0-5a1.5 1.5 0 1 1 0-3 1.5 1.5 0 0 1 0 3Zm5 5a1.5 1.5 0 1 1 0-3 1.5 1.5 0 0 1 0 3Zm0-5a1.5 1.5 0 1 1 0-3 1.5 1.5 0 0 1 0 3Zm5 5a1.5 1.5 0 1 1 0-3 1.5 1.5 0 0 1 0 3Zm0-5a1.5 1.5 0 1 1 0-3 1.5 1.5 0 0 1 0 3Zm2-7a1 1 0 0 1-1 1H10a1 1 0 0 1-1-1V8a1 1 0 0 1 1-1h12a1 1 0 0 1 1 1v5Z"/>
</svg>
