<svg xmlns="http://www.w3.org/2000/svg" width="32" height="32" fill="none" viewBox="0 0 32 32">
  <path fill="#4A4A4F" d="M3.094 14.443a12.789 12.789 0 0 1 2.914-6.72 2 2 0 0 1 2.953-.138l3.46 3.533a1.984 1.984 0 0 1 .21 2.56 3.198 3.198 0 0 0-.462.968.499.499 0 0 1-.478.354h-8.1a.5.5 0 0 1-.497-.557Zm14.08-11.435A2 2 0 0 0 15 5v5.084a1.982 1.982 0 0 0 1.656 1.97 4 4 0 0 1 .677 7.72.507.507 0 0 0-.333.476v8.154a.5.5 0 0 0 .558.5A13.042 13.042 0 0 0 29 16.185C29.094 9.4 23.9 3.61 17.174 3.008ZM14.656 19.77a4.001 4.001 0 0 1-2.425-2.427.506.506 0 0 0-.475-.343H3.59a.5.5 0 0 0-.5.556A13.013 13.013 0 0 0 14.443 28.91a.5.5 0 0 0 .556-.5v-8.16a.507.507 0 0 0-.343-.48Z"/>
</svg>
