<svg xmlns="http://www.w3.org/2000/svg" width="32" height="32" fill="none" viewBox="0 0 32 32">
  <path fill="#4A4A4F" d="M15 24.943v3.467a.5.5 0 0 1-.557.5 13.027 13.027 0 0 1-11.35-11.35.5.5 0 0 1 .5-.557h3.465A9.014 9.014 0 0 0 15 24.943ZM22.928 17H17v5.928A7.014 7.014 0 0 0 22.928 17ZM17 9.073V15h5.928A7.013 7.013 0 0 0 17 9.073ZM28.41 17h-3.467A9.014 9.014 0 0 1 17 24.943v3.467a.5.5 0 0 0 .558.5 13.027 13.027 0 0 0 11.35-11.35.5.5 0 0 0-.498-.56Zm-3.467-2h3.467a.5.5 0 0 0 .5-.557 13.027 13.027 0 0 0-11.35-11.35.5.5 0 0 0-.557.5v3.465A9.014 9.014 0 0 1 24.943 15Zm-10.5-11.907a13.027 13.027 0 0 0-11.35 11.35.5.5 0 0 0 .5.557h3.465A9.014 9.014 0 0 1 15 7.058V3.59a.5.5 0 0 0-.557-.497ZM9.073 15H15V9.073A7.013 7.013 0 0 0 9.073 15ZM15 22.928V17H9.073A7.014 7.014 0 0 0 15 22.928Z"/>
</svg>
