<svg xmlns="http://www.w3.org/2000/svg" width="32" height="32" fill="none" viewBox="0 0 32 32">
  <path fill="#4A4A4F" d="M19.5 16c0 1.858-.738 5-3.5 5s-3.5-3.142-3.5-5c0-1.857.738-5 3.5-5s3.5 3.143 3.5 5Zm9.5 0A13 13 0 1 1 16 3a13.014 13.014 0 0 1 13 13Zm-7.5 0c0-1.781-.445-3.441-1.25-4.674C19.25 9.805 17.779 9 16 9s-3.25.805-4.25 2.326C10.941 12.56 10.5 14.22 10.5 16c0 1.781.445 3.441 1.25 4.674C12.75 22.196 14.217 23 16 23c1.782 0 3.25-.804 4.25-2.326.805-1.233 1.25-2.893 1.25-4.674Z"/>
</svg>
