<svg xmlns="http://www.w3.org/2000/svg" width="32" height="32" fill="none" viewBox="0 0 32 32">
  <path fill="#4A4A4F" d="M22 27a1 1 0 0 1-1 1H3a1 1 0 1 1 0-2h18a1 1 0 0 1 1 1Zm8.983-15.356a1 1 0 0 1-.47.674l-18.427 11a4.972 4.972 0 0 1-5.943-.669l-.014-.015-4.504-4.409a2 2 0 0 1 .561-3.276l.375-.184a1 1 0 0 1 .76-.05l3.533 1.193 2.521-1.525-2.729-2.649a2 2 0 0 1 .567-3.309l.04-.016.893-.339a1 1 0 0 1 .7 0l6.742 2.478L22.034 6.7a4.977 4.977 0 0 1 6.41 1.14l.015.019 2.33 2.986a1.001 1.001 0 0 1 .194.799Zm-2.468-.463L26.89 9.098a2.985 2.985 0 0 0-3.835-.678l-6.85 4.09a1.008 1.008 0 0 1-.858.08L8.5 10.073l-.5.191.026.025 3.67 3.561a1 1 0 0 1-.178 1.573L7.49 17.859a1 1 0 0 1-.837.091L3.07 16.741l-.024.013-.046.021a.09.09 0 0 1 .016.015l4.5 4.408a2.981 2.981 0 0 0 3.553.397l17.446-10.413Z"/>
</svg>
