<svg xmlns="http://www.w3.org/2000/svg" width="32" height="32" fill="none" viewBox="0 0 32 32">
  <path fill="#4A4A4F" d="M21.293 10.707a1 1 0 1 1 1.415-1.415L24 10.587V6a1 1 0 0 1 2 0v4.586l1.293-1.293a1 1 0 1 1 1.415 1.415l-3 3a1.001 1.001 0 0 1-1.415 0l-3-3ZM30 20v5a2 2 0 0 1-2 2h-6.563a2.006 2.006 0 0 1-1.47-.644L8.564 14H4a2 2 0 0 1-2-2V7a2 2 0 0 1 2-2h6.563a2.007 2.007 0 0 1 1.47.644L23.438 18H28a2 2 0 0 1 2 2Zm-2 0h-4.563a2.006 2.006 0 0 1-1.47-.644L10.564 7H4v5h4.563a2.006 2.006 0 0 1 1.47.644L21.438 25H28v-5Z"/>
</svg>
