<svg xmlns="http://www.w3.org/2000/svg" width="32" height="32" fill="none" viewBox="0 0 32 32">
  <path fill="#4A4A4F" d="M28 5h-6.563a2 2 0 0 0-1.468.644L8.562 18H4a2 2 0 0 0-2 2v5a2 2 0 0 0 2 2h6.563a2 2 0 0 0 1.468-.644L23.437 14H28a2 2 0 0 0 2-2V7a2 2 0 0 0-2-2Zm0 7h-4.563a2 2 0 0 0-1.468.644L10.562 25H4v-5h4.563a2 2 0 0 0 1.468-.644L21.437 7H28v5Zm.707 9.293a1 1 0 0 1-1.415 1.415L26 21.413V26a1 1 0 0 1-2 0v-4.586l-1.293 1.293a1 1 0 1 1-1.415-1.415l3-3a1.001 1.001 0 0 1 1.415 0l3 3Z"/>
</svg>
