<svg xmlns="http://www.w3.org/2000/svg" width="33" height="32" fill="none" viewBox="0 0 33 32">
  <path fill="#4A4A4F" d="M27 15c-.276 0-.552.024-.825.069l-.727-1.893A6.95 6.95 0 0 1 27 13a1 1 0 0 0 0-2h-2.39l-1.676-4.359A1 1 0 0 0 22 6h-4a1 1 0 1 0 0 2h3.314l1.154 3H19c-2.313 0-4.188.539-5.421 1.557a2 2 0 0 1-2.095.26c-1.323-.602-7.593-3.15-8.145-3.367l-.714-.28A2.218 2.218 0 0 0 2 9a1 1 0 0 0-.359 1.932c.058.023 5.899 2.288 9.017 3.704a4.018 4.018 0 0 0 4.194-.536c.608-.5 1.822-1.1 4.15-1.1h2.352a8.967 8.967 0 0 0-3.021 4.574A1.983 1.983 0 0 1 16.415 19H9.9a5 5 0 1 0 0 2h6.515a3.989 3.989 0 0 0 3.843-2.887 6.999 6.999 0 0 1 3.323-4.215l.728 1.89A5 5 0 1 0 27 15ZM5 21h2.827a3 3 0 1 1 0-2H5a1 1 0 0 0 0 2Zm22 2a3 3 0 0 1-1.948-5.279l1.014 2.638a1 1 0 0 0 1.868-.718L26.919 17H27a3 3 0 0 1 0 6Z"/>
</svg>
