<svg xmlns="http://www.w3.org/2000/svg" width="32" height="32" fill="none" viewBox="0 0 32 32">
  <path fill="#4A4A4F" d="M12.971 23.242C12.922 23.436 11.704 28 5 28a1 1 0 0 1-1-1c0-6.704 4.564-7.923 4.757-7.971a1 1 0 0 1 .485 1.94c-.112.032-2.802.818-3.195 4.983 4.166-.392 4.953-3.077 4.986-3.202a1 1 0 1 1 1.938.5v-.008Zm11.625-8.425-.596.597v7.29a1.989 1.989 0 0 1-.585 1.42l-4.29 4.288a1.989 1.989 0 0 1-2.05.484 1.992 1.992 0 0 1-1.348-1.615l-.67-4.811-5.527-5.526-4.809-.672a2 2 0 0 1-1.134-3.397l4.288-4.29A1.989 1.989 0 0 1 9.295 8h7.291l.597-.596c3.334-3.334 7.353-3.478 8.926-3.384a2 2 0 0 1 1.875 1.875c.091 1.569-.053 5.587-3.387 8.922ZM5 14.292l4.644.648L14.586 10H9.295L5 14.292ZM11.415 16 16 20.585l7.181-7.181a9.557 9.557 0 0 0 2.803-7.395 9.581 9.581 0 0 0-7.389 2.808L11.415 16ZM22 17.414l-4.941 4.94.65 4.646L22 22.705v-5.291Z"/>
</svg>
