<svg xmlns="http://www.w3.org/2000/svg" width="32" height="32" fill="none" viewBox="0 0 32 32">
  <path fill="#4A4A4F" d="M30 14h-1.42l-3.424-5.992A2 2 0 0 0 23.42 7h-2.743l-1.5-3.742A1.992 1.992 0 0 0 17.323 2h-2.646a1.992 1.992 0 0 0-1.857 1.258L11.322 7H8.58a2 2 0 0 0-1.736 1.008L3.42 14H2a1 1 0 0 0 0 2h1v10a2 2 0 0 0 2 2h3a2 2 0 0 0 2-2v-2h12v2a2 2 0 0 0 2 2h3a2 2 0 0 0 2-2V16h1a1 1 0 1 0 0-2ZM14.678 4h2.645l1.2 3h-5.046l1.2-3ZM8.58 9h14.84l2.856 5H5.724L8.58 9ZM8 26H5v-2h3v2Zm16 0v-2h3v2h-3Zm3-4H5v-6h22v6ZM7 19a1 1 0 0 1 1-1h2a1 1 0 0 1 0 2H8a1 1 0 0 1-1-1Zm14 0a1 1 0 0 1 1-1h2a1 1 0 0 1 0 2h-2a1 1 0 0 1-1-1Z"/>
</svg>
