<svg xmlns="http://www.w3.org/2000/svg" width="32" height="32" fill="none" viewBox="0 0 32 32">
  <path fill="#4A4A4F" d="m30.927 14.625-1.75-4.375A1.992 1.992 0 0 0 27.323 9H23V8a1 1 0 0 0-1-1H3a2 2 0 0 0-2 2v14a2 2 0 0 0 2 2h2.125a4 4 0 0 0 7.75 0h6.25a4 4 0 0 0 7.75 0H29a2 2 0 0 0 2-2v-8a.994.994 0 0 0-.073-.375ZM23 11h4.323l1.2 3H23v-3ZM3 9h18v8H3V9Zm6 17a2 2 0 1 1 0-4 2 2 0 0 1 0 4Zm10.125-3h-6.25a4 4 0 0 0-7.75 0H3v-4h18v1.539A4.016 4.016 0 0 0 19.125 23ZM23 26a2 2 0 1 1 0-4 2 2 0 0 1 0 4Zm6-3h-2.125A4.007 4.007 0 0 0 23 20v-4h6v7Z"/>
</svg>
