<svg xmlns="http://www.w3.org/2000/svg" width="32" height="32" fill="none" viewBox="0 0 32 32">
  <path fill="#4A4A4F" d="M21.5 17a1.5 1.5 0 1 1 0 3 1.5 1.5 0 0 1 0-3Zm1.577-4.094-8.214-3.832a8.994 8.994 0 0 0-7.856 8.589l8.523-4.546A1 1 0 0 1 17 14v12.944a8.955 8.955 0 0 0 7.588-6.25 1.003 1.003 0 0 1 1.912.606 11.001 11.001 0 1 1-20.033-8.788A4.5 4.5 0 0 1 8.5 4c.146 0 .29.032.422.094l14.781 6.897A2.5 2.5 0 0 0 23.5 6a1 1 0 1 1 0-2 4.5 4.5 0 1 1 0 9 1 1 0 0 1-.423-.094ZM11 25.48V17.8l-3.811 2.032a9.019 9.019 0 0 0 3.81 5.647Zm4-9.813-2 1.068v9.75c.646.23 1.318.383 2 .458V15.666ZM12.016 7.75l-3.72-1.741a2.5 2.5 0 0 0-.65 4.838c.075-.088.15-.177.23-.263a11 11 0 0 1 4.14-2.834Z"/>
</svg>
