<svg xmlns="http://www.w3.org/2000/svg" width="32" height="32" fill="none" viewBox="0 0 32 32">
  <path fill="#4A4A4F" d="M29 16v.19c-.043 1.782-.704 3.81-3.5 3.81-2.892 0-3.5-2.175-3.5-4v-5a1.001 1.001 0 0 0-1.066-1A1.022 1.022 0 0 0 20 11.034v.5a6 6 0 1 0 .841 8.006c.125.219.267.428.423.625C21.935 21 23.214 22 25.5 22c.386.001.772-.03 1.152-.094a.5.5 0 0 1 .512.75A13.005 13.005 0 0 1 15.739 29C8.89 28.862 3.275 23.357 3.01 16.514A13 13 0 1 1 29 16Zm-17 0a4 4 0 1 0 8 0 4 4 0 0 0-8 0Z"/>
</svg>
