<svg xmlns="http://www.w3.org/2000/svg" width="32" height="32" fill="none" viewBox="0 0 32 32">
  <path fill="#4A4A4F" d="M21 16a5 5 0 1 1-10 0 5 5 0 0 1 10 0Zm5 0a9.968 9.968 0 0 0-2.546-6.666 1 1 0 1 0-1.49 1.334 8 8 0 0 1 0 10.666 1 1 0 0 0 1.49 1.334A9.973 9.973 0 0 0 26 16Zm-15.964-5.332a1 1 0 1 0-1.49-1.334 9.992 9.992 0 0 0 0 13.334 1 1 0 0 0 1.49-1.334 7.994 7.994 0 0 1 0-10.666Zm19.785-.5A14.936 14.936 0 0 0 26.714 5.5a1 1 0 1 0-1.428 1.4 12.988 12.988 0 0 1 0 18.195 1 1 0 0 0 .011 1.416 1.004 1.004 0 0 0 1.417-.011 15.015 15.015 0 0 0 3.107-16.339v.007ZM4.021 21.06A12.987 12.987 0 0 1 6.714 6.903 1 1 0 1 0 5.286 5.5a14.984 14.984 0 0 0 0 21 .998.998 0 0 0 1.653-.297 1 1 0 0 0-.225-1.103 12.95 12.95 0 0 1-2.693-4.04Z"/>
</svg>
