<svg xmlns="http://www.w3.org/2000/svg" width="32" height="32" fill="none" viewBox="0 0 32 32">
  <path fill="#4A4A4F" d="M29.535 20.23a2 2 0 0 1-2.298.633l-6.125-2.174-.036-.014a2 2 0 0 1-1.215-1.449l-.776-3.718a9.565 9.565 0 0 0-6.21.013l-.738 3.69a2.001 2.001 0 0 1-1.218 1.467l-.037.013-6.125 2.172a1.975 1.975 0 0 1-1.591-.064 2 2 0 0 1-.701-.566C.31 17.455.552 13.769 3.05 11.269c7.019-7.021 18.875-7.021 25.898 0 2.498 2.497 2.74 6.184.586 8.961ZM27 24H5a1 1 0 0 0 0 2h22a1 1 0 1 0 0-2Z"/>
</svg>
