<svg xmlns="http://www.w3.org/2000/svg" width="32" height="32" fill="none" viewBox="0 0 32 32">
  <path fill="#4A4A4F" d="M19.293 11.293 21.585 9l-2.293-2.292a1 1 0 0 1 1.415-1.415L23 7.586l2.293-2.293a1 1 0 1 1 1.415 1.415L24.415 9l2.293 2.293a1 1 0 0 1-1.415 1.415L23 10.414l-2.293 2.294a1 1 0 1 1-1.415-1.415Zm8.5 8.515-5.89-2.639-.015-.008a2 2 0 0 0-1.897.175 1.016 1.016 0 0 0-.093.07L16.858 20c-1.927-.936-3.917-2.911-4.853-4.813l2.597-3.09c.025-.03.05-.062.072-.095a2 2 0 0 0 .165-1.883v-.015l-2.646-5.899a2 2 0 0 0-2.078-1.19A7.033 7.033 0 0 0 4 10c0 9.925 8.075 18 18 18a7.032 7.032 0 0 0 6.985-6.115 2 2 0 0 0-1.189-2.077h-.003Z"/>
</svg>
