<svg xmlns="http://www.w3.org/2000/svg" width="32" height="32" fill="none" viewBox="0 0 32 32">
  <path fill="#4A4A4F" d="M26.739 26.328a.999.999 0 1 1-1.48 1.345L13.945 15.226c-.362.08-.72.18-1.07.3l-.738 3.69a2 2 0 0 1-1.218 1.464l-.037.014-6.125 2.171a2 2 0 0 1-2.297-.634c-2.154-2.776-1.913-6.46.586-8.958A17.657 17.657 0 0 1 8.71 9.468L5.261 5.673a1 1 0 1 1 1.48-1.345l19.998 22Zm2.21-13.055c-3.608-3.61-8.688-5.52-13.937-5.25a1 1 0 0 0-.687 1.67l11.351 12.488c.11.122.25.215.405.27l1.157.41a2 2 0 0 0 2.297-.633c2.154-2.773 1.913-6.457-.586-8.955Z"/>
</svg>
