<svg xmlns="http://www.w3.org/2000/svg" width="32" height="32" fill="none" viewBox="0 0 32 32">
  <path fill="#4A4A4F" d="M26 4H6a2 2 0 0 0-2 2v20a2 2 0 0 0 2 2h20a2 2 0 0 0 2-2V6a2 2 0 0 0-2-2ZM9.5 24a1.5 1.5 0 1 1 0-3 1.5 1.5 0 0 1 0 3Zm5.5 0a1 1 0 0 1-1-1 5 5 0 0 0-5-5 1 1 0 0 1 0-2 7.008 7.008 0 0 1 7 7 1 1 0 0 1-1 1Zm4 0a1 1 0 0 1-1-1 9.01 9.01 0 0 0-9-9 1 1 0 0 1 0-2 11.012 11.012 0 0 1 11 11 1 1 0 0 1-1 1Zm4 0a1 1 0 0 1-1-1A13.014 13.014 0 0 0 9 10a1 1 0 0 1 0-2 15.017 15.017 0 0 1 15 15 1 1 0 0 1-1 1Z"/>
</svg>
