<svg xmlns="http://www.w3.org/2000/svg" width="33" height="32" fill="none" viewBox="0 0 33 32">
  <path fill="#4A4A4F" d="M20 25.8a1 1 0 0 1-.545.891A11.866 11.866 0 0 1 14 28.001a12 12 0 1 1 0-24 11.866 11.866 0 0 1 5.455 1.308 1 1 0 0 1 0 1.781 10 10 0 0 0 0 17.82 1 1 0 0 1 .545.89Zm11.396-10.719-3.312-1.428-.289-3.73a1 1 0 0 0-1.768-.56l-2.323 2.815-3.464-.857a1 1 0 0 0-1.101 1.478L21.023 16l-1.884 3.201a1 1 0 0 0 1.101 1.478l3.464-.856 2.323 2.813a1 1 0 0 0 1.768-.558l.289-3.73 3.312-1.43a1 1 0 0 0 0-1.837Z"/>
</svg>
