<svg xmlns="http://www.w3.org/2000/svg" width="32" height="32" fill="none" viewBox="0 0 32 32">
  <path fill="#4A4A4F" d="M24.515 16c3.081-4.326 4.653-8.798 2.468-10.983C24.798 2.832 20.326 4.404 16 7.485 11.674 4.404 7.203 2.832 5.018 5.017 2.833 7.202 4.404 11.674 7.485 16c-3.081 4.326-4.652 8.797-2.467 10.982C5.72 27.686 6.66 28 7.756 28c2.31 0 5.31-1.396 8.25-3.485C18.934 26.604 21.934 28 24.25 28c1.095 0 2.036-.315 2.739-1.018 2.179-2.185.607-6.656-2.474-10.982Zm1.055-9.57c.955.955.31 4.05-2.315 7.91a37.534 37.534 0 0 0-2.649-2.946A37.547 37.547 0 0 0 17.66 8.75c3.86-2.625 6.955-3.275 7.91-2.319ZM22.036 16a36.13 36.13 0 0 1-2.845 3.191 36.175 36.175 0 0 1-3.19 2.845 36.162 36.162 0 0 1-3.192-2.845A36.129 36.129 0 0 1 9.964 16 37.326 37.326 0 0 1 16 9.964a36.15 36.15 0 0 1 3.191 2.845 36.13 36.13 0 0 1 2.845 3.19ZM6.431 6.43c.275-.276.73-.419 1.328-.419 1.477 0 3.836.863 6.581 2.738a37.99 37.99 0 0 0-2.945 2.645A37.53 37.53 0 0 0 8.75 14.34c-2.625-3.86-3.274-6.955-2.319-7.91Zm0 19.138c-.955-.955-.306-4.05 2.32-7.91a37.559 37.559 0 0 0 2.648 2.946 38.01 38.01 0 0 0 2.942 2.645c-3.86 2.625-6.955 3.275-7.91 2.319Zm19.138 0c-.955.956-4.05.31-7.91-2.315a38.037 38.037 0 0 0 2.946-2.65 37.58 37.58 0 0 0 2.645-2.945c2.625 3.86 3.274 6.955 2.319 7.91Zm-8.069-9.57a1.5 1.5 0 1 1-3 0 1.5 1.5 0 0 1 3 0Z"/>
</svg>
