<svg xmlns="http://www.w3.org/2000/svg" width="32" height="32" fill="none" viewBox="0 0 32 32">
  <path fill="#4A4A4F" d="M11 24.5a1.5 1.5 0 1 1-3 0 1.5 1.5 0 0 1 3 0Zm3.5.5a1.5 1.5 0 1 0 0 3 1.5 1.5 0 0 0 0-3Zm6-2a1.5 1.5 0 1 0 0 3 1.5 1.5 0 0 0 0-3Zm-12 5a1.5 1.5 0 1 0 0 3 1.5 1.5 0 0 0 0-3Zm11 0a1.5 1.5 0 1 0 0 3 1.5 1.5 0 0 0 0-3ZM29 11.5a9.51 9.51 0 0 1-9.5 9.5h-10a6.5 6.5 0 1 1 1.115-12.905A9.51 9.51 0 0 1 29 11.5Zm-2 0a7.507 7.507 0 0 0-15-.442 1.003 1.003 0 0 1-1.748.609 1.002 1.002 0 0 1-.252-.724c.018-.305.05-.607.096-.904A4.5 4.5 0 1 0 9.5 19h10a7.508 7.508 0 0 0 7.5-7.5Z"/>
</svg>
