<svg xmlns="http://www.w3.org/2000/svg" width="32" height="32" fill="none" viewBox="0 0 32 32">
  <path fill="#4A4A4F" d="M19.5 9c-.856 0-1.708.114-2.533.341a6.953 6.953 0 0 0-1.176-1.442l1.189-1.697a.999.999 0 0 0-.993-1.559 1 1 0 0 0-.646.412L14.152 6.75A6.987 6.987 0 0 0 11 6h-.218l-.36-2.036a1 1 0 1 0-1.97.346l.36 2.042A7.012 7.012 0 0 0 5.904 8.21L4.2 7.017a1 1 0 1 0-1.146 1.639l1.695 1.19A6.944 6.944 0 0 0 4 13v.215l-2.036.36a1 1 0 1 0 .346 1.97l2.04-.36a6.97 6.97 0 0 0 .732 1.552A6.5 6.5 0 0 0 9.5 28h10a9.5 9.5 0 1 0 0-19ZM6 13a5 5 0 0 1 9.067-2.905 9.532 9.532 0 0 0-4.452 5 6.518 6.518 0 0 0-3.875.521A5 5 0 0 1 6 13Zm13.5 13h-10a4.5 4.5 0 1 1 .597-8.962 9.353 9.353 0 0 0-.096.904 1 1 0 1 0 2 .115c.028-.498.107-.993.235-1.476 0-.02.011-.04.015-.06A7.507 7.507 0 1 1 19.5 26Z"/>
</svg>
