<svg xmlns="http://www.w3.org/2000/svg" width="32" height="32" fill="none" viewBox="0 0 32 32">
  <path fill="#4A4A4F" d="M20.5 9c-.517 0-1.034.041-1.545.125a8.992 8.992 0 0 0-6.934-7.896 1 1 0 0 0-1.198 1.197 7.008 7.008 0 0 1-8.396 8.396 1 1 0 0 0-1.2 1.199 9.028 9.028 0 0 0 4.037 5.633A6.5 6.5 0 0 0 10.5 28h10a9.5 9.5 0 1 0 0-19ZM3.671 13h.33a9.01 9.01 0 0 0 9-9v-.334a6.954 6.954 0 0 1 4 6 9.533 9.533 0 0 0-5.376 5.425 6.501 6.501 0 0 0-4.875 1.107A7.027 7.027 0 0 1 3.671 13Zm16.83 13h-10a4.5 4.5 0 1 1 .597-8.962 9.353 9.353 0 0 0-.097.904 1.001 1.001 0 1 0 2 .115c.028-.498.107-.993.235-1.476 0-.02.012-.04.015-.06A7.507 7.507 0 1 1 20.501 26Z"/>
</svg>
