<svg xmlns="http://www.w3.org/2000/svg" width="32" height="32" fill="none" viewBox="0 0 32 32">
  <path fill="#4A4A4F" d="M22.986 19.167a7.2 7.2 0 0 1-5.82 5.819 1 1 0 1 1-.331-1.973c2.071-.348 3.829-2.106 4.18-4.18a1 1 0 1 1 1.973.334h-.002ZM27 18a11 11 0 1 1-22 0c0-3.49 1.375-7.059 4.082-10.606a1 1 0 0 1 1.492-.112l3.015 2.927 2.75-7.552a.999.999 0 0 1 1.579-.426C20.65 4.5 27 10.569 27 18Zm-2 0c0-5.761-4.474-10.74-7.276-13.291l-2.784 7.633a1 1 0 0 1-1.636.375L10.008 9.52C8.01 12.4 7 15.25 7 18a9 9 0 0 0 18 0Z"/>
</svg>
