<svg xmlns="http://www.w3.org/2000/svg" width="32" height="32" fill="none" viewBox="0 0 32 32">
  <path fill="#4A4A4F" d="M30.729 15.204a1.942 1.942 0 0 0-1.19-.917 9.19 9.19 0 0 0-2.771-.277c.5-2.481.125-4.444-.258-5.607a2.019 2.019 0 0 0-2.349-1.36 10.69 10.69 0 0 0-3.568 1.514 11.824 11.824 0 0 0-3.39-4.156 2.006 2.006 0 0 0-2.407 0 11.81 11.81 0 0 0-3.388 4.156 10.692 10.692 0 0 0-3.57-1.514 2.019 2.019 0 0 0-2.348 1.36c-.375 1.163-.75 3.124-.257 5.607a9.19 9.19 0 0 0-2.772.277 1.941 1.941 0 0 0-1.19.917 2 2 0 0 0-.2 1.534c.424 1.57 1.725 4.56 5.667 6.915C10.678 26.008 14.14 26 16.006 26c1.865 0 5.334 0 9.25-2.348 3.942-2.355 5.243-5.343 5.667-6.915a2.003 2.003 0 0 0-.194-1.533ZM7.393 9.017A.025.025 0 0 1 7.42 9a8.804 8.804 0 0 1 3.227 1.458 14.827 14.827 0 0 0-.648 4.44c0 2.342.471 4.25 1.139 5.784A15.45 15.45 0 0 1 8.696 17.5c-2.252-3.922-1.783-7-1.303-8.482Zm.375 12.92c-3.334-1.99-4.415-4.43-4.768-5.725a7.477 7.477 0 0 1 2.813-.146c.313.84.695 1.65 1.143 2.427a17.784 17.784 0 0 0 4.25 4.945 14.365 14.365 0 0 1-3.443-1.502h.005ZM16 23.8c-1.166-.867-4-3.529-4-8.904C12 9.587 14.798 6.905 16 6c1.203.907 4 3.59 4 8.899 0 5.372-2.834 8.034-4 8.901Zm5.353-13.343A8.803 8.803 0 0 1 24.579 9a.025.025 0 0 1 .029.019c.48 1.481.948 4.559-1.304 8.481a15.415 15.415 0 0 1-2.443 3.185c.668-1.532 1.14-3.442 1.14-5.785a14.833 14.833 0 0 0-.648-4.443ZM29 16.215c-.346 1.281-1.425 3.726-4.761 5.721a14.371 14.371 0 0 1-3.444 1.5 17.787 17.787 0 0 0 4.25-4.945c.448-.775.83-1.587 1.144-2.426a7.459 7.459 0 0 1 2.811.149v.001Z"/>
</svg>
