<svg xmlns="http://www.w3.org/2000/svg" width="32" height="32" fill="none" viewBox="0 0 32 32">
  <path fill="#4A4A4F" d="M20.5 10a3.5 3.5 0 1 0 0-7 3.5 3.5 0 0 0 0 7Zm0-5a1.5 1.5 0 1 1 0 3 1.5 1.5 0 0 1 0-3Zm11.36 19.49-6.82-11.51a1.984 1.984 0 0 0-1.72-.98 1.981 1.981 0 0 0-1.72.98l-3.27 5.52-5.605-9.512a2 2 0 0 0-3.448 0L.14 24.492A1 1 0 0 0 1 26h30a1 1 0 0 0 .86-1.51ZM11 10l2.946 5H8.054L11 10ZM2.75 24l4.125-7h8.25l2.343 3.975L19.25 24H2.75Zm18.821 0-2.082-3.535L23.319 14l5.931 10h-7.679Z"/>
</svg>
