<svg xmlns="http://www.w3.org/2000/svg" width="32" height="32" fill="none" viewBox="0 0 32 32">
  <path fill="#4A4A4F" d="M25 14a6.022 6.022 0 0 0-5.582 3.8 3.882 3.882 0 0 0-.418-.023c-2.206 0-4 1.845-4 4.112C15 24.155 16.794 26 19 26h6a6 6 0 1 0 0-12Zm0 10h-6c-1.102 0-2-.948-2-2.111 0-1.164.898-2.111 2-2.111.248-.001.494.047.723.142a.998.998 0 0 0 1.358-.726A4 4 0 1 1 25 24ZM3 20v2a1 1 0 1 1-2 0v-2a13 13 0 0 1 22.063-9.32 1 1 0 0 1-1.394 1.434A11 11 0 0 0 3 20Zm4 0v2a1 1 0 1 1-2 0v-2a9 9 0 0 1 14.325-7.25 1.001 1.001 0 0 1-.433 1.811.999.999 0 0 1-.75-.2A7 7 0 0 0 7 20Zm7.696-2.919A3 3 0 0 0 11 20v2a1 1 0 0 1-2 0v-2a5 5 0 0 1 6.159-4.865 1 1 0 1 1-.463 1.946Z"/>
</svg>
