<svg xmlns="http://www.w3.org/2000/svg" width="32" height="32" fill="none" viewBox="0 0 32 32">
  <path fill="#4A4A4F" d="M29.921 8.762a1.644 1.644 0 0 0-1.433-1.137l-4.653-.394L22.02 3a1.655 1.655 0 0 0-3.039 0l-1.815 4.232-4.653.393a1.641 1.641 0 0 0-.937 2.882l3.52 3-1.053 4.467a1.637 1.637 0 0 0 .625 1.697 1.657 1.657 0 0 0 1.828.088l4-2.375 4 2.375a1.656 1.656 0 0 0 2.398-.842c.11-.302.13-.63.056-.943l-1.054-4.467 3.52-3a1.634 1.634 0 0 0 .505-1.745Zm-5.482 3.375a1.633 1.633 0 0 0-.533 1.625l.914 3.875-3.472-2.063a1.655 1.655 0 0 0-1.695 0l-3.473 2.05.914-3.874a1.625 1.625 0 0 0-.531-1.625L13.53 9.547l4.011-.34a1.645 1.645 0 0 0 1.375-.992L20.5 4.53l1.58 3.685a1.648 1.648 0 0 0 1.375.992l4.011.34-3.027 2.59Zm-13.731 3.57-7 7a1 1 0 1 1-1.415-1.415l7-7a1 1 0 0 1 1.415 1.415Zm2 7-7 7a1.001 1.001 0 0 1-1.415-1.415l7-7a1 1 0 0 1 1.415 1.415Zm9-1.415a1.001 1.001 0 0 1 0 1.415l-7 7a1 1 0 0 1-1.415-1.415l7-7a1 1 0 0 1 1.415 0Z"/>
</svg>
