<svg xmlns="http://www.w3.org/2000/svg" width="32" height="32" fill="none" viewBox="0 0 32 32">
  <path fill="#4A4A4F" d="M17 14.5a1.5 1.5 0 1 1 3 0 1.5 1.5 0 0 1-3 0Zm10.975-3.828A10.011 10.011 0 0 1 18 20h-4a1.5 1.5 0 1 0 0 3h7a1 1 0 0 1 0 2h-6v2h4a1 1 0 0 1 0 2h-7a10 10 0 0 1 0-20h14.5a1.5 1.5 0 0 0 0-3H16a3 3 0 0 1-3-3 1 1 0 0 1 2 0 1 1 0 0 0 1 1h10.5a3.5 3.5 0 0 1 1.475 6.672ZM6.35 24.663l4.152-2.967V21.5c0-.316.042-.63.125-.935l-6.502-2.956a7.968 7.968 0 0 0 2.23 7.052H6.35Zm4.875-1.026-3.21 2.297A7.95 7.95 0 0 0 12 27h1v-2.146a3.516 3.516 0 0 1-1.77-1.218h-.005ZM13 18.146V11h-1a8.009 8.009 0 0 0-7.277 4.685l6.983 3.174A3.5 3.5 0 0 1 13 18.146ZM25.938 11H15v7h3a8.012 8.012 0 0 0 7.938-7Z"/>
</svg>
