<svg xmlns="http://www.w3.org/2000/svg" width="32" height="32" fill="none" viewBox="0 0 32 32">
  <path fill="#4A4A4F" d="m28.688 14.125-7.93-2.875-2.883-7.938a2 2 0 0 0-3.75 0l-2.875 7.93-7.937 2.883a2 2 0 0 0 0 3.75l7.928 2.875 2.884 7.937a2 2 0 0 0 3.75 0l2.884-7.93 7.929-2.882a2 2 0 0 0 0-3.75Zm-8.617 4.75a2.002 2.002 0 0 0-1.192 1.192L16 27.987l-2.875-7.916a2.002 2.002 0 0 0-1.196-1.196L4.013 16l7.916-2.875a2 2 0 0 0 1.196-1.196L16 4.012l2.875 7.917a2 2 0 0 0 1.193 1.192l7.916 2.875-7.913 2.879Z"/>
</svg>
