<svg xmlns="http://www.w3.org/2000/svg" width="32" height="32" fill="none" viewBox="0 0 32 32">
  <path fill="#4A4A4F" d="M30 19h-5.056a9 9 0 1 0-17.888 0H2a1 1 0 1 0 0 2h28a1 1 0 0 0 0-2ZM9 18a7 7 0 1 1 13.926 1H9.074A7.017 7.017 0 0 1 9 18Zm18 7a1 1 0 0 1-1 1H6a1 1 0 0 1 0-2h20a1 1 0 0 1 1 1ZM9.105 5.448a1 1 0 0 1 1.79-.895l1 2a1 1 0 1 1-1.79.895l-1-2Zm-7 6.105a1 1 0 0 1 1.342-.447l2 1a1 1 0 1 1-.894 1.79l-2-1a1 1 0 0 1-.448-1.343Zm24 1.895a1 1 0 0 1 .447-1.342l2-1a1 1 0 0 1 .896 1.79l-2 1a1.002 1.002 0 0 1-1.343-.448Zm-6-6.895 1-2a1 1 0 0 1 1.79.895l-1 2a1 1 0 0 1-1.79-.895Z"/>
</svg>
