<svg xmlns="http://www.w3.org/2000/svg" width="32" height="32" fill="none" viewBox="0 0 32 32">
  <path fill="#4A4A4F" d="M15 5V2a1 1 0 0 1 2 0v3a1 1 0 0 1-2 0Zm9 11a8 8 0 1 1-8-8 8.009 8.009 0 0 1 8 8Zm-2 0a6 6 0 1 0-6 6 6.006 6.006 0 0 0 6-6ZM7.293 8.707a1 1 0 1 0 1.414-1.415l-2-2a1 1 0 1 0-1.414 1.415l2 2Zm0 14.585-2 2a1 1 0 1 0 1.414 1.415l2-2a1 1 0 1 0-1.415-1.415ZM24 9a1 1 0 0 0 .707-.293l2-2a1 1 0 0 0-1.415-1.414l-2 2A1 1 0 0 0 24 9Zm.707 14.293a1 1 0 1 0-1.415 1.415l2 2a1 1 0 0 0 1.415-1.415l-2-2ZM6 16a1 1 0 0 0-1-1H2a1 1 0 0 0 0 2h3a1 1 0 0 0 1-1Zm10 10a1 1 0 0 0-1 1v3a1 1 0 0 0 2 0v-3a1 1 0 0 0-1-1Zm14-11h-3a1 1 0 0 0 0 2h3a1 1 0 0 0 0-2Z"/>
</svg>
