<svg xmlns="http://www.w3.org/2000/svg" width="32" height="32" fill="none" viewBox="0 0 32 32">
  <path fill="#4A4A4F" d="M30 15.829a14.055 14.055 0 0 0-23.53-9.11 13.945 13.945 0 0 0-4.463 9.11A2 2 0 0 0 4 17.999h11v7a4 4 0 1 0 8 0 1 1 0 1 0-2 0 2 2 0 1 1-4 0v-7h11a2 2 0 0 0 2-2.17Zm-26 .17a12.019 12.019 0 0 1 9.525-10.735C12.06 7.25 10.231 10.764 10.021 16h-6.02Zm8.019 0c.174-3.845 1.316-6.6 2.287-8.28A13.307 13.307 0 0 1 16 5.396a13.284 13.284 0 0 1 1.69 2.325c1.66 2.867 2.185 5.94 2.288 8.28h-7.96Zm9.956 0c-.21-5.235-2.039-8.75-3.5-10.742A12.009 12.009 0 0 1 28 16h-6.025Z"/>
</svg>
