<svg xmlns="http://www.w3.org/2000/svg" width="32" height="32" fill="none" viewBox="0 0 32 32">
  <path fill="#4A4A4F" d="M4.291 9.71a1 1 0 0 1 0-1.418C4.388 8.2 6.638 6 11.001 6c2.302 0 4.03 1.151 5.554 2.168C17.968 9.11 19.303 10 21 10a9.026 9.026 0 0 0 3.969-.854 5.61 5.61 0 0 0 1.329-.859 1.001 1.001 0 0 1 1.408 1.42C27.613 9.801 25.363 12 21 12c-2.302 0-4.03-1.151-5.555-2.168C14.033 8.89 12.698 8 11 8a9.026 9.026 0 0 0-3.969.854 5.609 5.609 0 0 0-1.328.859A1 1 0 0 1 4.29 9.71Zm22.007 5.577c-.4.348-.848.637-1.33.86A9.025 9.025 0 0 1 21 17c-1.697 0-3.032-.89-4.445-1.832C15.03 14.15 13.303 13 11 13c-4.362 0-6.612 2.199-6.706 2.293a1 1 0 1 0 1.409 1.42 5.63 5.63 0 0 1 1.328-.86 9.025 9.025 0 0 1 3.97-.853c1.697 0 3.032.89 4.444 1.832C16.97 17.85 18.695 19 21 19c4.363 0 6.613-2.199 6.706-2.293a1.002 1.002 0 0 0-.318-1.632 1 1 0 0 0-1.09.213Zm0 7c-.4.348-.848.637-1.33.86A9.025 9.025 0 0 1 21 24c-1.697 0-3.032-.89-4.445-1.832C15.03 21.15 13.303 20 11 20c-4.362 0-6.612 2.199-6.706 2.293a1 1 0 1 0 1.409 1.42 5.63 5.63 0 0 1 1.328-.86 9.025 9.025 0 0 1 3.97-.853c1.697 0 3.032.89 4.444 1.832C16.97 24.85 18.695 26 21 26c4.363 0 6.613-2.199 6.706-2.293a1 1 0 1 0-1.408-1.42Z"/>
</svg>
