<svg xmlns="http://www.w3.org/2000/svg" width="32" height="32" fill="none" viewBox="0 0 32 32">
  <path fill="#4A4A4F" d="M21 12H11a5 5 0 0 0-5 5v1a5 5 0 0 0 5 5h10a5.001 5.001 0 0 0 5-5v-1a5 5 0 0 0-5-5Zm3 6a3 3 0 0 1-3 3H11a3 3 0 0 1-3-3v-1a3 3 0 0 1 3-3h10a3 3 0 0 1 3 3v1Zm2-14a4.008 4.008 0 0 0-3.875 3H9.875A4 4 0 0 0 2 8v10a9.01 9.01 0 0 0 9 9h10a9.01 9.01 0 0 0 9-9V8a4 4 0 0 0-4-4Zm2 14a7.007 7.007 0 0 1-7 7H11a7.007 7.007 0 0 1-7-7V8a2 2 0 1 1 4 0 1 1 0 0 0 1 1h14a1 1 0 0 0 1-1 2 2 0 1 1 4 0v10Zm-15-.5a1.5 1.5 0 1 1-3 0 1.5 1.5 0 0 1 3 0Zm9 0a1.5 1.5 0 1 1-3 0 1.5 1.5 0 0 1 3 0Z"/>
</svg>
