<svg xmlns="http://www.w3.org/2000/svg" width="32" height="32" fill="none" viewBox="0 0 32 32">
  <path fill="#4A4A4F" d="M16.524 3.149a1 1 0 0 0-1.048 0 19.496 19.496 0 0 0-3.446 2.85C9.721 8.392 8.5 10.988 8.5 13.5a7.5 7.5 0 0 0 15 0c0-5.99-6.691-10.175-6.976-10.35ZM16 18.999a3 3 0 0 1-3-3c0-3 3-5 3-5s3 2 3 5a3 3 0 0 1-3 3Zm11.953 9.303a1 1 0 0 1-1.257.65L16 25.55 5.304 28.952a1 1 0 0 1-.607-1.906l8-2.546-8-2.548a1.001 1.001 0 0 1-.17-1.856 1 1 0 0 1 .777-.049L16 23.45l10.696-3.403a1.001 1.001 0 0 1 1.213 1.416 1 1 0 0 1-.607.49l-8 2.547 8 2.546a1.002 1.002 0 0 1 .65 1.256Z"/>
</svg>
