<svg xmlns="http://www.w3.org/2000/svg" width="32" height="32" fill="none" viewBox="0 0 32 32">
  <path fill="#4A4A4F" d="M11 24.5a1.5 1.5 0 1 1-3 0 1.5 1.5 0 0 1 3 0Zm3.5.5a1.5 1.5 0 1 0 0 3 1.5 1.5 0 0 0 0-3Zm6-2a1.5 1.5 0 1 0 0 3 1.5 1.5 0 0 0 0-3Zm-12 5a1.5 1.5 0 1 0 0 3 1.5 1.5 0 0 0 0-3Zm11 0a1.5 1.5 0 1 0 0 3 1.5 1.5 0 0 0 0-3Zm9.484-17.056a9.5 9.5 0 0 0-18.973.09 1.023 1.023 0 0 1-1.01.966h-.076A1.018 1.018 0 0 1 8 10.924a11.56 11.56 0 0 1 .291-2.064.5.5 0 0 0-.625-.598A6.511 6.511 0 0 0 3 14.545C3.025 18.134 6.015 21 9.605 21H19.5a9.511 9.511 0 0 0 9.484-10.056Z"/>
</svg>
