<svg xmlns="http://www.w3.org/2000/svg" width="32" height="32" fill="none" viewBox="0 0 32 32">
  <path fill="#4A4A4F" d="M21 28a1 1 0 0 1-1 1h-7a1 1 0 0 1 0-2h7a1 1 0 0 1 1 1Zm-5-4a1 1 0 0 0-1-1H9a1 1 0 1 0 0 2h6a1 1 0 0 0 1-1Zm7-1h-3a1 1 0 1 0 0 2h3a1 1 0 0 0 0-2Zm5.984-12.056a9.5 9.5 0 0 0-18.973.09 1.023 1.023 0 0 1-1.01.966h-.076A1.018 1.018 0 0 1 8 10.924a11.56 11.56 0 0 1 .291-2.064.5.5 0 0 0-.625-.598A6.511 6.511 0 0 0 3 14.545C3.025 18.134 6.015 21 9.605 21H19.5a9.511 9.511 0 0 0 9.484-10.056Z"/>
</svg>
