<svg xmlns="http://www.w3.org/2000/svg" width="32" height="32" fill="none" viewBox="0 0 32 32">
  <path fill="#4A4A4F" d="M21 9.5a1.5 1.5 0 1 1-3 0 1.5 1.5 0 0 1 3 0Zm3.942 11.346c-3.382 3.375-8.677 4.794-15.79 4.244.2 1.487.479 3.052.838 4.697a1 1 0 0 1-1.954.427 58.068 58.068 0 0 1-.924-5.33 58.527 58.527 0 0 1-5.326-.924 1 1 0 0 1 .428-1.954c1.642.359 3.206.638 4.692.838-.549-7.111.875-12.405 4.25-15.786 5.469-5.485 14.148-3.945 15.831-3.58a2.009 2.009 0 0 1 1.535 1.535c.365 1.683 1.907 10.362-3.58 15.833Zm1.625-15.41a20.98 20.98 0 0 0-6.156-.347c-2.53.25-4.675.979-6.406 2.182a11 11 0 0 0 10.724 10.73c1.202-1.732 1.936-3.876 2.182-6.407a21.122 21.122 0 0 0-.344-6.158Z"/>
</svg>
