<svg xmlns="http://www.w3.org/2000/svg" width="33" height="32" fill="none" viewBox="0 0 33 32">
  <path fill="#4A4A4F" d="M22.008 9.492a1.5 1.5 0 1 1-3.001 0 1.5 1.5 0 0 1 3 0Zm4.983 10.125c-2.595 3.297-6.731 5.093-12.301 5.347l-2.75 6.427a1 1 0 0 1-.924.609h-.063a1 1 0 0 1-.9-.723l-1.85-6.48-6.478-1.856A1 1 0 0 1 1.6 21.06l6.429-2.75c.25-5.571 2.051-9.708 5.348-12.301 5.402-4.25 13.114-2.854 14.606-2.532a2 2 0 0 1 1.532 1.533c.33 1.49 1.727 9.21-2.524 14.615v-.008Zm.575-14.186c-1.338-.29-8.25-1.549-12.946 2.148a10.11 10.11 0 0 0-1.604 1.586 4.5 4.5 0 0 0 4.92 4.809 1 1 0 0 1 1.09 1.09 4.5 4.5 0 0 0 4.811 4.92 10.087 10.087 0 0 0 1.582-1.602c3.696-4.696 2.437-11.61 2.147-12.948V5.43Z"/>
</svg>
