<svg xmlns="http://www.w3.org/2000/svg" width="32" height="32" fill="none" viewBox="0 0 32 32">
  <path fill="#4A4A4F" d="M27.902 14.469A11.992 11.992 0 0 1 8.678 25.5c3.15-.77 6.853-2.366 10.306-4.35 3.68-2.114 6.786-4.467 8.918-6.681Zm2.737-6.884c-.956-1.649-3.48-2.02-7.313-1.082A11.991 11.991 0 0 0 4 16c0 .515.033 1.029.097 1.539-3.46 3.586-3.41 5.711-2.735 6.876C2 25.52 3.33 26 5.08 26a15.509 15.509 0 0 0 3.599-.5 12.153 12.153 0 0 1-1.77-1.677c-2.162.36-3.5.125-3.817-.412-.182-.313-.08-.905.278-1.625a9.93 9.93 0 0 1 1.285-1.88v-.012.01a12.028 12.028 0 0 0 2.25 3.915c2.617-.436 6.436-1.739 11.079-4.406 3.516-2.014 7.266-4.83 9.365-7.31a11.96 11.96 0 0 0-2.25-3.92l-.017-.018c0 .006.012.011.017.019 1.776-.294 3.421-.271 3.812.405.115.196.125.49.019.875-.211.789-.774 1.691-1.579 2.641.265.768.45 1.56.554 2.366 1.563-1.625 2.602-3.168 2.956-4.49.243-.917.169-1.722-.222-2.396Z"/>
</svg>
