<svg xmlns="http://www.w3.org/2000/svg" width="32" height="32" fill="none" viewBox="0 0 32 32">
  <path fill="#4A4A4F" d="m29.424 10.509-3.519 3 1.054 4.466a1.636 1.636 0 0 1-.625 1.697 1.655 1.655 0 0 1-1.829.088l-4-2.375-4 2.375a1.656 1.656 0 0 1-2.397-.842 1.637 1.637 0 0 1-.057-.943l1.054-4.466-3.52-3a1.64 1.64 0 0 1 .928-2.884l4.653-.394L18.981 3a1.656 1.656 0 0 1 3.04 0l1.814 4.234 4.653.39a1.64 1.64 0 0 1 .936 2.883v.002Zm-18.716 3.783a1.001 1.001 0 0 0-1.415 0l-7 7a1 1 0 0 0 1.415 1.415l7-7a1 1 0 0 0 0-1.415Zm2 7a1.001 1.001 0 0 0-1.415 0l-7 7a1 1 0 1 0 1.415 1.415l7-7a1 1 0 0 0 0-1.415Zm7.586 0-7 7a1 1 0 0 0 1.415 1.415l7-7a1 1 0 1 0-1.414-1.415h-.001Z"/>
</svg>
