<svg xmlns="http://www.w3.org/2000/svg" width="32" height="32" fill="none" viewBox="0 0 32 32">
  <path fill="#4A4A4F" d="M31 20a1 1 0 0 1-1 1H2a1 1 0 0 1 0-2h5.056a9 9 0 1 1 17.888 0H30a1 1 0 0 1 1 1Zm-5 4H6a1 1 0 1 0 0 2h20a1 1 0 0 0 0-2ZM10.105 7.448a1 1 0 0 0 1.79-.895l-1-2a1 1 0 0 0-1.79.895l1 2Zm-7.553 5.447 2 1a1 1 0 0 0 .896-1.789l-2-1a1 1 0 1 0-.895 1.79ZM27 14a.998.998 0 0 0 .446-.105l2-1a1 1 0 0 0-.895-1.789l-2 1A1 1 0 0 0 27 14Zm-6.448-6.105a1 1 0 0 0 1.343-.447l1-2a1 1 0 0 0-1.79-.895l-1 2a.998.998 0 0 0 .447 1.342Z"/>
</svg>
