<svg xmlns="http://www.w3.org/2000/svg" width="32" height="32" fill="none" viewBox="0 0 32 32">
  <path fill="#4A4A4F" d="M22.176 10.068a1 1 0 0 1 .257-1.39c1.3-.898 3.334-.898 4.634 0 .625.433 1.735.433 2.366 0a1 1 0 0 1 1.134 1.644 4.33 4.33 0 0 1-4.634 0c-.625-.433-1.735-.433-2.366 0a1.001 1.001 0 0 1-1.39-.254Zm7.257 2.61c-.625.433-1.735.433-2.366 0-1.3-.898-3.334-.898-4.634 0a1 1 0 1 0 1.134 1.644c.625-.433 1.735-.433 2.366 0a4.33 4.33 0 0 0 4.634 0 1 1 0 0 0-1.134-1.644ZM22 24a7 7 0 1 1-11-5.74V5a4 4 0 1 1 8 0v13.26A7 7 0 0 1 22 24ZM17 5a2 2 0 1 0-4 0v5h4V5Z"/>
</svg>
