<svg xmlns="http://www.w3.org/2000/svg" width="32" height="32" fill="none" viewBox="0 0 32 32">
  <path fill="#4A4A4F" d="M16 23.485h-.008c-.32.213-.654.406-1 .576V29a1 1 0 0 0 2 0v-4.94a8.923 8.923 0 0 1-1-.576H16Z"/>
  <path fill="#4A4A4F" d="M24.762 7.825a9.5 9.5 0 0 0-17.524 0A9.036 9.036 0 0 0 2 15.975c-.014 4.853 3.92 8.9 8.768 9.025A8.96 8.96 0 0 0 15 24.061v-4.443l-5.447-2.723a1 1 0 0 1 .894-1.79L15 17.383V11a1 1 0 1 1 2 0v3.383l4.552-2.278a1.002 1.002 0 0 1 1.397 1.212 1 1 0 0 1-.502.578L17 16.618v7.443a8.932 8.932 0 0 0 4 .94h.233c4.847-.126 8.78-4.17 8.767-9.023a9.032 9.032 0 0 0-5.238-8.153Z"/>
</svg>
