<svg xmlns="http://www.w3.org/2000/svg" width="32" height="32" fill="none" viewBox="0 0 32 32">
  <path fill="#4A4A4F" d="M26 4H6a2 2 0 0 0-2 2v20a2 2 0 0 0 2 2h20a2 2 0 0 0 2-2V6a2 2 0 0 0-2-2Zm0 2v13h-3.587a1.983 1.983 0 0 0-1.413.586L18.586 22h-5.172L11 19.586A1.98 1.98 0 0 0 9.586 19H6V6h20Zm0 20H6v-5h3.586L12 23.414a1.98 1.98 0 0 0 1.414.586h5.172A1.984 1.984 0 0 0 20 23.414L22.414 21H26v5ZM11.293 15.707a1 1 0 1 1 1.415-1.415L15 16.587V9a1 1 0 0 1 2 0v7.586l2.293-2.293a1 1 0 0 1 1.415 1.415l-4 4a1.001 1.001 0 0 1-1.415 0l-4-4Z"/>
</svg>
