<svg xmlns="http://www.w3.org/2000/svg" width="32" height="32" fill="none" viewBox="0 0 32 32">
  <path fill="#4A4A4F" d="M6 22.5c0 1.375.897 2.5 2 2.5a1.779 1.779 0 0 0 1.277-.582 1 1 0 0 1 1.446 1.382A3.757 3.757 0 0 1 8 27c-2.206 0-4-2.019-4-4.5S5.794 18 8 18a3.756 3.756 0 0 1 2.723 1.2 1 1 0 0 1-1.446 1.383A1.78 1.78 0 0 0 8 20c-1.103 0-2 1.125-2 2.5Zm9.95-1.086c-.5-.145-1.018-.294-1.306-.48-.156-.102-.154-.125-.14-.238a.573.573 0 0 1 .25-.459c.575-.39 1.917-.216 2.477-.07a1.001 1.001 0 1 0 .519-1.934c-.265-.07-2.625-.653-4.105.345a2.572 2.572 0 0 0-1.125 1.868c-.25 1.985 1.706 2.551 2.875 2.889 1.508.436 1.64.615 1.598.949-.04.301-.158.417-.268.491-.575.383-1.896.195-2.444.045a1.002 1.002 0 0 0-.539 1.93c.62.162 1.258.246 1.9.25.727 0 1.537-.125 2.186-.558a2.603 2.603 0 0 0 1.148-1.903c.274-2.164-1.79-2.768-3.026-3.125Zm10.386-3.355a1 1 0 0 0-1.278.605L23.5 23.026l-1.559-4.362a1 1 0 1 0-1.883.672l2.5 7a1 1 0 0 0 1.883 0l2.5-7a1 1 0 0 0-.605-1.277ZM27 11v3a1 1 0 0 1-2 0v-2h-6a1 1 0 0 1-1-1V5H7v9a1 1 0 1 1-2 0V5a2 2 0 0 1 2-2h12a1 1 0 0 1 .707.292l7 7A1 1 0 0 1 27 11Zm-3.414-1L20 6.414V10h3.586Z"/>
</svg>
