<svg xmlns="http://www.w3.org/2000/svg" width="32" height="32" fill="none" viewBox="0 0 32 32">
  <path fill="#4A4A4F" d="M30.625 13.83A2 2 0 0 0 29 13h-2v-2a2 2 0 0 0-2-2h-8.666l-3.466-2.6a2.018 2.018 0 0 0-1.2-.4H5a2 2 0 0 0-2 2v18a1 1 0 0 0 1 1h22.387a1 1 0 0 0 .95-.684l3.56-10.683a2.006 2.006 0 0 0-.272-1.803ZM11.668 8l3.466 2.6a2.01 2.01 0 0 0 1.2.4H25v2h-6.696a2 2 0 0 0-1.11.336L14.694 15H8.677a1.992 1.992 0 0 0-1.857 1.258L5 20.808V8h6.668Zm14 17H5.477l3.2-8h6.02a2 2 0 0 0 1.11-.336l2.5-1.664H29l-3.332 10Z"/>
</svg>
