<svg xmlns="http://www.w3.org/2000/svg" width="32" height="32" fill="none" viewBox="0 0 32 32">
  <path fill="#4A4A4F" d="M12 26a1 1 0 0 1-1 1H4.923A1.925 1.925 0 0 1 3 25.078V24a1 1 0 1 1 2 0v1h6a1 1 0 0 1 1 1Zm8-1h-4a1 1 0 0 0 0 2h4a1 1 0 1 0 0-2Zm8-7a1 1 0 0 0-1 1v6h-2a1 1 0 0 0 0 2h2.111A1.892 1.892 0 0 0 29 25.111V19a1 1 0 0 0-1-1Zm-1-9h-6a1 1 0 1 0 0 2h6v3a1 1 0 0 0 2 0v-3a2 2 0 0 0-2-2ZM3 10V7a2 2 0 0 1 2-2h6.586A1.983 1.983 0 0 1 13 5.586l3.707 3.707A1 1 0 0 1 16 11H4a1 1 0 0 1-1-1Zm2-1h8.586l-2-2H5v2ZM4 20a1 1 0 0 0 1-1v-4a1 1 0 1 0-2 0v4a1 1 0 0 0 1 1Z"/>
</svg>
