<svg xmlns="http://www.w3.org/2000/svg" width="32" height="32" fill="none" viewBox="0 0 32 32">
  <path fill="#4A4A4F" d="M28 16a1 1 0 0 1-1 1H13a1 1 0 1 1 0-2h14a1 1 0 0 1 1 1ZM13 9h14a1 1 0 0 0 0-2H13a1 1 0 1 0 0 2Zm14 14H13a1 1 0 0 0 0 2h14a1 1 0 1 0 0-2ZM5.448 6.895 6 6.618V13a1 1 0 1 0 2 0V5a1 1 0 0 0-1.447-.895l-2 1a1 1 0 1 0 .895 1.79ZM9.97 19.59a2.966 2.966 0 0 0-1.2-1.994 3.107 3.107 0 0 0-4.263.588 2.98 2.98 0 0 0-.447.807 1 1 0 1 0 1.875.684.979.979 0 0 1 .148-.266 1.095 1.095 0 0 1 1.772.092.955.955 0 0 1-.07 1.11l-3.587 4.79a1 1 0 0 0 .801 1.6h4a1 1 0 1 0 0-2H7l2.385-3.192a2.935 2.935 0 0 0 .586-2.219Z"/>
</svg>
