<svg xmlns="http://www.w3.org/2000/svg" width="32" height="32" fill="none" viewBox="0 0 32 32">
  <path fill="#4A4A4F" d="M28 16a1 1 0 0 1-1 1H16a1 1 0 0 1 0-2h11a1 1 0 0 1 1 1ZM16 9h11a1 1 0 0 0 0-2H16a1 1 0 1 0 0 2Zm11 14H16a1 1 0 1 0 0 2h11a1 1 0 0 0 0-2ZM10.293 5.293 7 8.586 5.708 7.293a1 1 0 1 0-1.415 1.415l2 2a1 1 0 0 0 1.415 0l4-4a1 1 0 0 0-1.415-1.415Zm0 8L7 16.586l-1.292-1.293a1 1 0 1 0-1.415 1.415l2 2a1 1 0 0 0 1.415 0l4-4a1 1 0 0 0-1.415-1.415Zm0 8L7 24.586l-1.292-1.293a1.001 1.001 0 0 0-1.415 1.415l2 2a1 1 0 0 0 1.415 0l4-4a1 1 0 0 0-1.415-1.415Z"/>
</svg>
