<svg xmlns="http://www.w3.org/2000/svg" width="32" height="32" fill="none" viewBox="0 0 32 32">
  <path fill="#4A4A4F" d="M6.74 4.327a1 1 0 1 0-1.48 1.345L8.42 9.15a8.727 8.727 0 0 0-3.671 1.804 1.999 1.999 0 0 0-.161 2.972l6.036 6.038-5.333 5.328a1 1 0 0 0 1.415 1.415l5.33-5.332 6.035 6.036a2.002 2.002 0 0 0 1.415.589h.142a1.99 1.99 0 0 0 1.455-.791c.59-.778 1.077-1.63 1.447-2.534l2.73 3a1 1 0 1 0 1.48-1.345l-20-22.003ZM19.487 26 6 12.51c1.279-1.031 2.65-1.545 4.082-1.534l10.895 11.985c-.278 1.234-.947 2.318-1.49 3.039Zm9.928-13-5.58 5.599a1 1 0 0 1-1.416-1.413l5.58-5.599L20.416 4l-5.153 5.169a1 1 0 0 1-1.416-1.412L19 2.587a2 2 0 0 1 2.829 0l7.586 7.585a2 2 0 0 1 0 2.828Z"/>
</svg>
