<?xml version="1.0" encoding="UTF-8" standalone="no"?>
<svg
   xmlns:dc="http://purl.org/dc/elements/1.1/"
   xmlns:cc="http://creativecommons.org/ns#"
   xmlns:rdf="http://www.w3.org/1999/02/22-rdf-syntax-ns#"
   xmlns:svg="http://www.w3.org/2000/svg"
   xmlns="http://www.w3.org/2000/svg"
   viewBox="0 0 227.65094 116.55809"
   height="116.55809"
   width="227.65094"
   xml:space="preserve"
   version="1.1"
   id="svg2"><metadata
     id="metadata8"><rdf:RDF><cc:Work
         rdf:about=""><dc:format>image/svg+xml</dc:format><dc:type
           rdf:resource="http://purl.org/dc/dcmitype/StillImage" /><dc:title></dc:title></cc:Work></rdf:RDF></metadata><defs
     id="defs6" /><g
     transform="matrix(1.25,0,0,-1.25,-6.9716797,179.46056)"
     id="g10"><g
       transform="scale(0.1,0.1)"
       id="g12"><path
         id="path16"
         style="fill:#ff661f;fill-opacity:0.94117647;fill-rule:evenodd;stroke:none"
         d="m 520.082,507.125 c -254.277,0 -460.4179,206.992 -460.4179,462.324 0,255.341 206.1409,462.321 460.4179,462.321 l 892.588,0 c 254.29,0 460.42,-206.98 460.42,-462.321 0,-255.332 -206.13,-462.324 -460.42,-462.324 l -892.838,0 0.25,0 z m -8.18,601.735 c -76.672,0 -138.832,-62.41 -138.832,-139.411 0,-76.984 62.16,-139.402 138.832,-139.402 l 908.958,0 c 76.67,0 138.83,62.418 138.83,139.402 0,77.001 -62.16,139.411 -138.83,139.411 l -908.958,0" /><g
         transform="scale(0.997933,1.00207)"
         id="g18"><path
           id="path20"
           style="fill:none;stroke:#231f20;stroke-width:7.79748011;stroke-linecap:butt;stroke-linejoin:miter;stroke-miterlimit:2.61310005;stroke-dasharray:none;stroke-opacity:1"
           d="m 521.159,506.079 c -254.804,0 -461.3713,206.565 -461.3713,461.37 0,254.811 206.5673,461.371 461.3713,461.371 l 894.441,0 c 254.81,0 461.37,-206.56 461.37,-461.371 0,-254.805 -206.56,-461.37 -461.37,-461.37 l -894.691,0 0.25,0 z m -8.196,600.491 c -76.831,0 -139.12,-62.28 -139.12,-139.121 0,-76.825 62.289,-139.115 139.12,-139.115 l 910.837,0 c 76.83,0 139.12,62.29 139.12,139.115 0,76.841 -62.29,139.121 -139.12,139.121 l -910.837,0 z" /></g><path
         id="path22"
         style="fill:#ffffff;fill-opacity:1;fill-rule:evenodd;stroke:none"
         d="m 511.902,1108.86 c -76.672,0 -138.828,-62.41 -138.828,-139.411 0,-76.984 62.156,-139.402 138.828,-139.402 l 908.958,0 c 76.67,0 138.83,62.418 138.83,139.402 0,77.001 -62.16,139.411 -138.83,139.411 l -908.958,0" /><g
         transform="scale(0.997933,1.00207)"
         id="g24"><path
           id="path26"
           style="fill:none;stroke:#231f20;stroke-width:7.79748011;stroke-linecap:butt;stroke-linejoin:miter;stroke-miterlimit:2.61310005;stroke-dasharray:none;stroke-opacity:1"
           d="m 512.963,1106.57 c -76.831,0 -139.116,-62.28 -139.116,-139.121 0,-76.825 62.285,-139.115 139.116,-139.115 l 910.837,0 c 76.83,0 139.12,62.29 139.12,139.115 0,76.841 -62.29,139.121 -139.12,139.121 l -910.837,0 z" /></g><path
         id="path28"
         style="fill:#00a888;fill-opacity:1;fill-rule:evenodd;stroke:none"
         d="m 640.754,914.43 c -3.824,5.738 -10.031,7.183 -16.434,7.183 -11.472,0 -19.207,-9.785 -19.207,-22.226 0,-12.649 7.832,-21.793 19.492,-21.793 6.118,0 12.227,1.652 16.149,6.867 l 0,-23.426 c -6.207,-2.137 -10.707,-3.738 -16.531,-3.738 -10.035,0 -19.59,4.269 -27.051,11.859 -7.942,8.008 -11.578,18.43 -11.578,30.344 0,10.949 3.734,21.473 10.621,29.375 7.078,8.121 17.308,13.035 27.433,13.035 6.02,0 11.563,-1.496 17.106,-4.062 l 0,-23.418" /><g
         transform="scale(0.997933,1.00207)"
         id="g30"><path
           id="path32"
           style="fill:none;stroke:#231f20;stroke-width:2.88783002;stroke-linecap:butt;stroke-linejoin:miter;stroke-miterlimit:2.61310005;stroke-dasharray:none;stroke-opacity:1"
           d="m 642.081,912.543 c -3.832,5.727 -10.052,7.169 -16.467,7.169 -11.497,0 -19.247,-9.765 -19.247,-22.181 0,-12.622 7.848,-21.748 19.532,-21.748 6.13,0 12.252,1.649 16.182,6.853 l 0,-23.377 c -6.22,-2.133 -10.729,-3.731 -16.565,-3.731 -10.056,0 -19.631,4.261 -27.107,11.835 -7.958,7.991 -11.602,18.392 -11.602,30.281 0,10.927 3.742,21.429 10.643,29.315 7.093,8.104 17.344,13.008 27.49,13.008 6.032,0 11.587,-1.493 17.141,-4.054 l 0,-23.37 z" /></g><path
         id="path34"
         style="fill:#00a888;fill-opacity:1;fill-rule:evenodd;stroke:none"
         d="m 734.813,939.824 17.367,0 31.957,-49.179 0.179,0 0,49.179 17.364,0 0,-80.437 -17.364,0 -31.961,49.285 -0.175,0 0,-49.285 -17.367,0 0,80.437" /><g
         transform="scale(0.997933,1.00207)"
         id="g36"><path
           id="path38"
           style="fill:none;stroke:#231f20;stroke-width:2.88783002;stroke-linecap:butt;stroke-linejoin:miter;stroke-miterlimit:2.61310005;stroke-dasharray:none;stroke-opacity:1"
           d="m 736.335,937.885 17.403,0 32.023,-49.078 0.18,0 0,49.078 17.399,0 0,-80.271 -17.399,0 -32.027,49.183 -0.176,0 0,-49.183 -17.403,0 0,80.271 z" /></g><path
         id="path40"
         style="fill:#00a888;fill-opacity:1;fill-rule:evenodd;stroke:none"
         d="m 898.348,859.387 -18.672,0 0,62.734 -13.844,0 0,17.695 46.363,0 0,-17.695 -13.847,0 0,-62.734" /><g
         transform="scale(0.997933,1.00207)"
         id="g42"><path
           id="path44"
           style="fill:none;stroke:#231f20;stroke-width:2.88783002;stroke-linecap:butt;stroke-linejoin:miter;stroke-miterlimit:2.61310005;stroke-dasharray:none;stroke-opacity:1"
           d="m 900.209,857.614 -18.711,0 0,62.605 -13.872,0 0,17.659 46.459,0 0,-17.659 -13.876,0 0,-62.605 z" /></g><path
         id="path46"
         style="fill:#00a888;fill-opacity:1;fill-rule:evenodd;stroke:none"
         d="m 939.32,923.871 1.821,0 c 6.129,0 13.027,-1.277 13.027,-10.035 0,-8.754 -6.898,-10.035 -13.027,-10.035 l -1.821,0 0,20.07 z m 17.762,-31.5 c 10.234,2.035 15.785,11.645 15.785,22.742 0,17.157 -10.808,24.711 -25.07,24.711 l -27.969,0 0,-80.437 18.676,0 0,30.961 0.191,0 17.719,-30.961 23.336,0 -22.668,32.984" /><g
         transform="scale(0.997933,1.00207)"
         id="g48"><path
           id="path50"
           style="fill:none;stroke:#231f20;stroke-width:2.88783002;stroke-linecap:butt;stroke-linejoin:miter;stroke-miterlimit:2.61310005;stroke-dasharray:none;stroke-opacity:1"
           d="m 941.266,921.965 1.824,0 c 6.142,0 13.055,-1.275 13.055,-10.014 0,-8.736 -6.913,-10.015 -13.055,-10.015 l -1.824,0 0,20.029 z m 17.799,-31.435 c 10.255,2.031 15.818,11.621 15.818,22.695 0,17.121 -10.831,24.66 -25.123,24.66 l -28.026,0 0,-80.271 18.714,0 0,30.897 0.192,0 17.755,-30.897 23.385,0 -22.715,32.916 z" /></g><path
         id="path52"
         style="fill:#00a888;fill-opacity:1;fill-rule:evenodd;stroke:none"
         d="m 1101.85,914.43 c -3.82,5.738 -10.04,7.183 -16.44,7.183 -11.46,0 -19.2,-9.785 -19.2,-22.226 0,-12.649 7.83,-21.793 19.49,-21.793 6.11,0 12.23,1.652 16.15,6.867 l 0,-23.426 c -6.21,-2.137 -10.7,-3.738 -16.53,-3.738 -10.03,0 -19.59,4.269 -27.05,11.859 -7.94,8.008 -11.58,18.43 -11.58,30.344 0,10.949 3.74,21.473 10.62,29.375 7.08,8.121 17.31,13.035 27.43,13.035 6.02,0 11.57,-1.496 17.11,-4.062 l 0,-23.418" /><g
         transform="scale(0.997933,1.00207)"
         id="g54"><path
           id="path56"
           style="fill:none;stroke:#231f20;stroke-width:2.88783002;stroke-linecap:butt;stroke-linejoin:miter;stroke-miterlimit:2.61310005;stroke-dasharray:none;stroke-opacity:1"
           d="m 1104.13,912.543 c -3.83,5.727 -10.06,7.169 -16.47,7.169 -11.49,0 -19.24,-9.765 -19.24,-22.181 0,-12.622 7.85,-21.748 19.53,-21.748 6.12,0 12.25,1.649 16.18,6.853 l 0,-23.377 c -6.22,-2.133 -10.72,-3.731 -16.56,-3.731 -10.06,0 -19.63,4.261 -27.11,11.835 -7.96,7.991 -11.6,18.392 -11.6,30.281 0,10.927 3.74,21.429 10.64,29.315 7.1,8.104 17.34,13.008 27.49,13.008 6.03,0 11.59,-1.493 17.14,-4.054 l 0,-23.37 z" /></g><path
         id="path58"
         style="fill:#00a888;fill-opacity:1;fill-rule:evenodd;stroke:none"
         d="m 1141.23,859.387 -18.68,0 0,62.734 -13.84,0 0,17.695 46.36,0 0,-17.695 -13.84,0 0,-62.734" /><g
         transform="scale(0.997933,1.00207)"
         id="g60"><path
           id="path62"
           style="fill:none;stroke:#231f20;stroke-width:2.88783002;stroke-linecap:butt;stroke-linejoin:miter;stroke-miterlimit:2.61310005;stroke-dasharray:none;stroke-opacity:1"
           d="m 1143.59,857.614 -18.71,0 0,62.605 -13.88,0 0,17.659 46.47,0 0,-17.659 -13.88,0 0,-62.605 z" /></g><path
         id="path64"
         style="fill:#00a888;fill-opacity:1;fill-rule:evenodd;stroke:none"
         d="m 1162.68,859.387 18.6758,0 0,80.4375 -18.6758,0 0,-80.4375 z" /><g
         transform="scale(0.997933,1.00207)"
         id="g66"><path
           id="path68"
           style="fill:none;stroke:#231f20;stroke-width:2.88783002;stroke-linecap:butt;stroke-linejoin:miter;stroke-miterlimit:2.61310005;stroke-dasharray:none;stroke-opacity:1"
           d="m 1183.8,857.614 -18.71,0 0,80.271 18.71,0 0,-80.271 z" /></g><path
         id="path70"
         style="fill:#00a888;fill-opacity:1;fill-rule:evenodd;stroke:none"
         d="m 1277.77,939.824 17.37,0 31.95,-49.179 0.18,0 0,49.179 17.37,0 0,-80.437 -17.37,0 -31.95,49.285 -0.18,0 0,-49.285 -17.37,0 0,80.437" /><g
         transform="scale(0.997933,1.00207)"
         id="g72"><path
           id="path74"
           style="fill:none;stroke:#231f20;stroke-width:2.88783002;stroke-linecap:butt;stroke-linejoin:miter;stroke-miterlimit:2.61310005;stroke-dasharray:none;stroke-opacity:1"
           d="m 1280.42,937.885 17.4,0 32.02,-49.078 0.18,0 0,49.078 17.41,0 0,-80.271 -17.41,0 -32.02,49.183 -0.18,0 0,-49.183 -17.4,0 0,80.271 z" /></g><path
         id="path76"
         style="fill:#00a888;fill-opacity:1;fill-rule:evenodd;stroke:none"
         d="m 837.152,890.719 c -3.129,0.75 -2.609,0.621 -5.328,1.203 -2.707,0.586 -8.679,2.816 -8.679,2.816 -8.145,3.52 -13.864,11.668 -13.864,21.153 0,14.316 11.602,25.859 25.852,25.859 14.25,0 25.801,-11.645 25.801,-25.953 l -18.907,0 0,2.437 c 0,3.957 -2.953,7.164 -6.894,7.164 -3.938,0 -7.137,-3.207 -7.137,-7.164 0,-1.882 0.754,-3.609 1.93,-4.886 0,0 1.84,-2.172 6.094,-3.403 3.285,-0.949 6.007,-0.715 11.109,-2.851 l 0.004,0.011 c 8.637,-3.628 14.801,-12.195 14.801,-22.183 0,-14.918 -11.946,-27.008 -26.801,-27.008 -14.852,0 -26.899,12.031 -26.899,26.945 l 18.688,0 c -0.172,-0.664 -0.02,-1.425 -0.02,-2.14 0,-4.567 3.684,-8.266 8.231,-8.266 4.551,0 8.234,3.699 8.234,8.266 0,3.879 -2.629,7.109 -6.215,8" /><g
         transform="scale(0.997933,1.00207)"
         id="g78"><path
           id="path80"
           style="fill:none;stroke:#231f20;stroke-width:2.88783002;stroke-linecap:butt;stroke-linejoin:miter;stroke-miterlimit:2.61310005;stroke-dasharray:none;stroke-opacity:1"
           d="m 838.887,888.881 c -3.136,0.749 -2.615,0.62 -5.34,1.201 -2.712,0.585 -8.697,2.81 -8.697,2.81 -8.162,3.513 -13.892,11.644 -13.892,21.109 0,14.287 11.625,25.806 25.905,25.806 14.279,0 25.854,-11.62 25.854,-25.899 l -18.945,0 0,2.432 c 0,3.949 -2.96,7.149 -6.909,7.149 -3.946,0 -7.152,-3.2 -7.152,-7.149 0,-1.879 0.756,-3.602 1.934,-4.877 0,0 1.844,-2.167 6.106,-3.395 3.292,-0.947 6.021,-0.713 11.133,-2.846 l 0.004,0.012 c 8.654,-3.621 14.831,-12.17 14.831,-22.138 0,-14.887 -11.97,-26.952 -26.856,-26.952 -14.882,0 -26.954,12.007 -26.954,26.89 l 18.726,0 c -0.172,-0.663 -0.02,-1.423 -0.02,-2.136 0,-4.557 3.692,-8.249 8.248,-8.249 4.56,0 8.251,3.692 8.251,8.249 0,3.871 -2.634,7.094 -6.227,7.983 z" /></g><path
         id="path82"
         style="fill:#00a888;fill-opacity:1;fill-rule:evenodd;stroke:none"
         d="m 1039.97,886.867 c 0,-16.437 -13.27,-29.765 -29.64,-29.765 -16.373,0 -29.646,13.328 -29.646,29.765 l 0,52.766 20.206,0 0,-52.766 c 0,-5.176 4.28,-9.371 9.44,-9.371 5.15,0 9.19,4.195 9.19,9.371 l 0,52.766 20.45,0 0,-52.766" /><g
         transform="scale(0.997933,1.00207)"
         id="g84"><path
           id="path86"
           style="fill:none;stroke:#231f20;stroke-width:2.88783002;stroke-linecap:butt;stroke-linejoin:miter;stroke-miterlimit:2.61310005;stroke-dasharray:none;stroke-opacity:1"
           d="m 1042.13,885.038 c 0,-16.404 -13.3,-29.705 -29.71,-29.705 -16.404,0 -29.705,13.301 -29.705,29.705 l 0,52.656 20.245,0 0,-52.656 c 0,-5.166 4.29,-9.352 9.46,-9.352 5.17,0 9.21,4.186 9.21,9.352 l 0,52.656 20.5,0 0,-52.656 z" /></g><path
         id="path88"
         style="fill:#00a888;fill-opacity:1;fill-rule:evenodd;stroke:none"
         d="m 664.66,899.367 c 0,12.102 9.77,21.903 21.82,21.903 12.051,0 21.821,-9.801 21.821,-21.903 0,-12.101 -9.77,-21.906 -21.821,-21.906 -12.05,0 -21.82,9.805 -21.82,21.906 z m 21.82,-42.695 c 23.485,0 42.516,19.121 42.516,42.695 0,23.582 -19.031,42.696 -42.516,42.696 -23.48,0 -42.515,-19.114 -42.515,-42.696 0,-23.574 19.035,-42.695 42.515,-42.695" /><g
         transform="scale(0.997933,1.00207)"
         id="g90"><path
           id="path92"
           style="fill:none;stroke:#231f20;stroke-width:2.88783002;stroke-linecap:butt;stroke-linejoin:miter;stroke-miterlimit:2.61310005;stroke-dasharray:none;stroke-opacity:1"
           d="m 666.037,897.512 c 0,12.076 9.79,21.857 21.866,21.857 12.075,0 21.865,-9.781 21.865,-21.857 0,-12.077 -9.79,-21.861 -21.865,-21.861 -12.076,0 -21.866,9.784 -21.866,21.861 z m 21.866,-42.607 c 23.533,0 42.603,19.081 42.603,42.607 0,23.533 -19.07,42.607 -42.603,42.607 -23.53,0 -42.604,-19.074 -42.604,-42.607 0,-23.526 19.074,-42.607 42.604,-42.607 z" /></g><path
         id="path94"
         style="fill:#00a888;fill-opacity:1;fill-rule:evenodd;stroke:none"
         d="m 1207.54,899.367 c 0,12.102 9.77,21.903 21.82,21.903 12.05,0 21.82,-9.801 21.82,-21.903 0,-12.101 -9.77,-21.906 -21.82,-21.906 -12.05,0 -21.82,9.805 -21.82,21.906 z m 21.82,-42.695 c 23.48,0 42.52,19.121 42.52,42.695 0,23.582 -19.04,42.696 -42.52,42.696 -23.48,0 -42.52,-19.114 -42.52,-42.696 0,-23.574 19.04,-42.695 42.52,-42.695" /><g
         transform="scale(0.997933,1.00207)"
         id="g96"><path
           id="path98"
           style="fill:none;stroke:#231f20;stroke-width:2.88783002;stroke-linecap:butt;stroke-linejoin:miter;stroke-miterlimit:2.61310005;stroke-dasharray:none;stroke-opacity:1"
           d="m 1210.04,897.512 c 0,12.076 9.79,21.857 21.87,21.857 12.08,0 21.87,-9.781 21.87,-21.857 0,-12.077 -9.79,-21.861 -21.87,-21.861 -12.08,0 -21.87,9.784 -21.87,21.861 z m 21.87,-42.607 c 23.53,0 42.61,19.081 42.61,42.607 0,23.533 -19.08,42.607 -42.61,42.607 -23.53,0 -42.61,-19.074 -42.61,-42.607 0,-23.526 19.08,-42.607 42.61,-42.607 z" /></g><path
         id="path100"
         style="fill:#231f20;fill-opacity:1;fill-rule:evenodd;stroke:none"
         d="m 697.406,1017.91 c 0,17.47 14.098,31.63 31.485,31.63 17.386,0 31.484,-14.16 31.484,-31.63 0,-17.45 -14.098,-31.605 -31.484,-31.605 -17.387,0 -31.485,14.155 -31.485,31.605 z m 31.485,-61.601 c 33.886,0 61.355,27.582 61.355,61.601 0,34.03 -27.469,61.61 -61.355,61.61 -33.883,0 -61.352,-27.58 -61.352,-61.61 0,-34.019 27.469,-61.601 61.352,-61.601" /><path
         id="path102"
         style="fill:#231f20;fill-opacity:1;fill-rule:evenodd;stroke:none"
         d="m 1089.88,1024.54 c 0.23,-2.17 0.34,-4.38 0.34,-6.63 0,-34.019 -27.46,-61.601 -61.34,-61.601 -33.892,0 -61.364,27.582 -61.364,61.601 0,34.03 27.472,61.61 61.364,61.61 27.05,0 50.02,-17.59 58.17,-42 l -33.38,-0.13 c -5.76,7.39 -14.73,12.15 -24.79,12.15 -17.4,0 -31.489,-14.16 -31.489,-31.63 0,-17.45 14.089,-31.605 31.489,-31.605 10.41,0 19.66,5.281 25.39,13.113 l -32.61,0 c 0,1.312 0,25.362 0,25.362 l 68.22,-0.24" /><path
         id="path104"
         style="fill:#231f20;fill-opacity:1;fill-rule:evenodd;stroke:none"
         d="m 882.227,1000.38 c 0,-24.181 -19.52,-43.775 -43.598,-43.775 -24.078,0 -43.59,19.594 -43.59,43.775 l 0,77.59 29.707,0 0,-77.59 c 0,-7.614 6.305,-13.782 13.883,-13.782 7.582,0 13.512,6.168 13.512,13.782 l 0,77.59 30.086,0 0,-77.59" /><path
         id="path106"
         style="fill:#231f20;fill-opacity:1;fill-rule:evenodd;stroke:none"
         d="m 1182.2,1000.38 c 0,-24.181 -19.52,-43.775 -43.59,-43.775 -24.07,0 -43.59,19.594 -43.59,43.775 l 0,77.59 29.71,0 0,-77.59 c 0,-7.614 6.31,-13.782 13.88,-13.782 7.58,0 13.51,6.168 13.51,13.782 l 0,77.59 30.08,0 0,-77.59" /><path
         id="path108"
         style="fill:#231f20;fill-opacity:1;fill-rule:evenodd;stroke:none"
         d="m 1257.95,1077.96 0,-27.56 -35.22,0 0,-18.7 35.22,0 0,-27.56 -35.23,0 0,-18.535 35.14,0 0,-27.753 -64.59,0 0,120.108 64.68,0" /><path
         id="path110"
         style="fill:#231f20;fill-opacity:1;fill-rule:evenodd;stroke:none"
         d="m 1308.39,1004.7 c -4.6,1.11 -3.84,0.92 -7.83,1.78 -3.98,0.86 -12.76,4.14 -12.76,4.14 -11.98,5.18 -20.39,17.16 -20.39,31.11 0,21.04 17.06,38.02 38.02,38.02 20.95,0 37.94,-17.12 37.94,-38.16 l -27.81,0 0,3.58 c 0,5.82 -4.34,10.53 -10.13,10.53 -5.8,0 -10.5,-4.71 -10.5,-10.53 0,-2.76 1.1,-5.31 2.83,-7.19 0,0 2.71,-3.19 8.97,-5 4.82,-1.39 8.83,-1.05 16.33,-4.19 l 0.01,0.01 c 12.7,-5.34 21.77,-17.92 21.77,-32.616 0,-21.942 -17.57,-39.719 -39.41,-39.719 -21.85,0 -39.56,17.687 -39.56,39.625 l 27.48,0 c -0.25,-0.977 -0.04,-2.094 -0.04,-3.149 0,-6.714 5.42,-12.16 12.12,-12.16 6.68,0 12.1,5.446 12.1,12.16 0,5.704 -3.87,10.449 -9.14,11.759" /><path
         id="path112"
         style="fill:#231f20;fill-opacity:1;fill-rule:evenodd;stroke:none"
         d="m 587.918,1077.97 0,-120.107 44.285,-0.109 c 19.168,0 34.711,15.605 34.711,34.855 0,13.231 -7.246,24.661 -18.074,30.571 7.933,5.39 13.234,14.43 13.234,24.77 0,16.56 -13.371,29.99 -29.871,29.99 l -44.285,0.03 z m 29.762,-92.462 0,22.872 11.25,0 0,0.01 c 6.242,0 11.3,-5.08 11.3,-11.347 0,-6.27 -5.058,-11.441 -11.3,-11.441 l -11.25,-0.094 z m 11.25,65.112 c 4.902,0 8.879,-3.9 8.879,-8.82 0,-4.92 -3.977,-8.96 -8.879,-8.96 l -11.25,-0.04 0,17.73 11.25,0.09" /><path
         id="path114"
         style="fill:#231f20;fill-opacity:1;fill-rule:evenodd;stroke:none"
         d="m 945.461,957.754 0,43.946 34.609,76.26 -31.117,0 -18.43,-40.41 -18.605,40.41 -31.141,0 34.813,-76.26 0,-43.946 29.871,0" /></g></g></svg>